%FSLAX45Y45*%
G04 Gerber Fmt 4.5, Leading zero omitted, Abs format (unit mm)*
G04 Created by KiCad (PCBNEW (5.1.9)-1) date 2021-02-23 11:48:38*
%MOMM*%
%LPD*%
G01*
G04 APERTURE LIST*
%TA.AperFunction,Profile*%
%ADD10C,0.050000*%
%TD*%
%ADD11C,0.200000*%
%ADD12C,0.300000*%
G04 APERTURE END LIST*
D10*
X1897400Y-1625600D02*
X5354300Y-1625600D01*
X5354300Y-1625600D02*
X5354300Y-6604000D01*
X1897400Y-6604000D02*
X5354300Y-6604000D01*
X1897400Y-1625600D02*
X1897400Y-6604000D01*
D11*
D12*
X2181328Y-7072214D02*
X2181328Y-6772214D01*
X2252757Y-6772214D01*
X2295614Y-6786500D01*
X2324186Y-6815071D01*
X2338471Y-6843643D01*
X2352757Y-6900786D01*
X2352757Y-6943643D01*
X2338471Y-7000786D01*
X2324186Y-7029357D01*
X2295614Y-7057929D01*
X2252757Y-7072214D01*
X2181328Y-7072214D01*
X2481328Y-7072214D02*
X2481328Y-6872214D01*
X2481328Y-6929357D02*
X2495614Y-6900786D01*
X2509900Y-6886500D01*
X2538471Y-6872214D01*
X2567043Y-6872214D01*
X2667043Y-7072214D02*
X2667043Y-6872214D01*
X2667043Y-6772214D02*
X2652757Y-6786500D01*
X2667043Y-6800786D01*
X2681328Y-6786500D01*
X2667043Y-6772214D01*
X2667043Y-6800786D01*
X2852757Y-7072214D02*
X2824186Y-7057929D01*
X2809900Y-7029357D01*
X2809900Y-6772214D01*
X3009900Y-7072214D02*
X2981328Y-7057929D01*
X2967043Y-7029357D01*
X2967043Y-6772214D01*
X3352757Y-7072214D02*
X3352757Y-6772214D01*
X3452757Y-6986500D01*
X3552757Y-6772214D01*
X3552757Y-7072214D01*
X3824186Y-7072214D02*
X3824186Y-6915071D01*
X3809900Y-6886500D01*
X3781328Y-6872214D01*
X3724186Y-6872214D01*
X3695614Y-6886500D01*
X3824186Y-7057929D02*
X3795614Y-7072214D01*
X3724186Y-7072214D01*
X3695614Y-7057929D01*
X3681328Y-7029357D01*
X3681328Y-7000786D01*
X3695614Y-6972214D01*
X3724186Y-6957929D01*
X3795614Y-6957929D01*
X3824186Y-6943643D01*
X3967043Y-6872214D02*
X3967043Y-7172214D01*
X3967043Y-6886500D02*
X3995614Y-6872214D01*
X4052757Y-6872214D01*
X4081328Y-6886500D01*
X4095614Y-6900786D01*
X4109900Y-6929357D01*
X4109900Y-7015071D01*
X4095614Y-7043643D01*
X4081328Y-7057929D01*
X4052757Y-7072214D01*
X3995614Y-7072214D01*
X3967043Y-7057929D01*
X4238471Y-7043643D02*
X4252757Y-7057929D01*
X4238471Y-7072214D01*
X4224186Y-7057929D01*
X4238471Y-7043643D01*
X4238471Y-7072214D01*
X4238471Y-6886500D02*
X4252757Y-6900786D01*
X4238471Y-6915071D01*
X4224186Y-6900786D01*
X4238471Y-6886500D01*
X4238471Y-6915071D01*
M02*
