G04 #@! TF.GenerationSoftware,KiCad,Pcbnew,(5.1.4)-1*
G04 #@! TF.CreationDate,2019-12-12T20:06:14+09:00*
G04 #@! TF.ProjectId,microcar_head,6d696372-6f63-4617-925f-686561642e6b,rev?*
G04 #@! TF.SameCoordinates,Original*
G04 #@! TF.FileFunction,Soldermask,Bot*
G04 #@! TF.FilePolarity,Negative*
%FSLAX46Y46*%
G04 Gerber Fmt 4.6, Leading zero omitted, Abs format (unit mm)*
G04 Created by KiCad (PCBNEW (5.1.4)-1) date 2019-12-12 20:06:14*
%MOMM*%
%LPD*%
G04 APERTURE LIST*
%ADD10C,0.100000*%
G04 APERTURE END LIST*
D10*
G36*
X20938443Y-63240519D02*
G01*
X21004627Y-63247037D01*
X21174466Y-63298557D01*
X21330991Y-63382222D01*
X21366729Y-63411552D01*
X21468186Y-63494814D01*
X21551448Y-63596271D01*
X21580778Y-63632009D01*
X21664443Y-63788534D01*
X21715963Y-63958373D01*
X21733359Y-64135000D01*
X21715963Y-64311627D01*
X21664443Y-64481466D01*
X21580778Y-64637991D01*
X21551448Y-64673729D01*
X21468186Y-64775186D01*
X21366729Y-64858448D01*
X21330991Y-64887778D01*
X21174466Y-64971443D01*
X21004627Y-65022963D01*
X20938442Y-65029482D01*
X20872260Y-65036000D01*
X20783740Y-65036000D01*
X20717558Y-65029482D01*
X20651373Y-65022963D01*
X20481534Y-64971443D01*
X20325009Y-64887778D01*
X20289271Y-64858448D01*
X20187814Y-64775186D01*
X20104552Y-64673729D01*
X20075222Y-64637991D01*
X19991557Y-64481466D01*
X19940037Y-64311627D01*
X19922641Y-64135000D01*
X19940037Y-63958373D01*
X19991557Y-63788534D01*
X20075222Y-63632009D01*
X20104552Y-63596271D01*
X20187814Y-63494814D01*
X20289271Y-63411552D01*
X20325009Y-63382222D01*
X20481534Y-63298557D01*
X20651373Y-63247037D01*
X20717557Y-63240519D01*
X20783740Y-63234000D01*
X20872260Y-63234000D01*
X20938443Y-63240519D01*
X20938443Y-63240519D01*
G37*
G36*
X43798443Y-63240519D02*
G01*
X43864627Y-63247037D01*
X44034466Y-63298557D01*
X44190991Y-63382222D01*
X44226729Y-63411552D01*
X44328186Y-63494814D01*
X44411448Y-63596271D01*
X44440778Y-63632009D01*
X44524443Y-63788534D01*
X44575963Y-63958373D01*
X44593359Y-64135000D01*
X44575963Y-64311627D01*
X44524443Y-64481466D01*
X44440778Y-64637991D01*
X44411448Y-64673729D01*
X44328186Y-64775186D01*
X44226729Y-64858448D01*
X44190991Y-64887778D01*
X44034466Y-64971443D01*
X43864627Y-65022963D01*
X43798442Y-65029482D01*
X43732260Y-65036000D01*
X43643740Y-65036000D01*
X43577558Y-65029482D01*
X43511373Y-65022963D01*
X43341534Y-64971443D01*
X43185009Y-64887778D01*
X43149271Y-64858448D01*
X43047814Y-64775186D01*
X42964552Y-64673729D01*
X42935222Y-64637991D01*
X42851557Y-64481466D01*
X42800037Y-64311627D01*
X42782641Y-64135000D01*
X42800037Y-63958373D01*
X42851557Y-63788534D01*
X42935222Y-63632009D01*
X42964552Y-63596271D01*
X43047814Y-63494814D01*
X43149271Y-63411552D01*
X43185009Y-63382222D01*
X43341534Y-63298557D01*
X43511373Y-63247037D01*
X43577557Y-63240519D01*
X43643740Y-63234000D01*
X43732260Y-63234000D01*
X43798443Y-63240519D01*
X43798443Y-63240519D01*
G37*
G36*
X48878443Y-63240519D02*
G01*
X48944627Y-63247037D01*
X49114466Y-63298557D01*
X49270991Y-63382222D01*
X49306729Y-63411552D01*
X49408186Y-63494814D01*
X49491448Y-63596271D01*
X49520778Y-63632009D01*
X49604443Y-63788534D01*
X49655963Y-63958373D01*
X49673359Y-64135000D01*
X49655963Y-64311627D01*
X49604443Y-64481466D01*
X49520778Y-64637991D01*
X49491448Y-64673729D01*
X49408186Y-64775186D01*
X49306729Y-64858448D01*
X49270991Y-64887778D01*
X49114466Y-64971443D01*
X48944627Y-65022963D01*
X48878442Y-65029482D01*
X48812260Y-65036000D01*
X48723740Y-65036000D01*
X48657558Y-65029482D01*
X48591373Y-65022963D01*
X48421534Y-64971443D01*
X48265009Y-64887778D01*
X48229271Y-64858448D01*
X48127814Y-64775186D01*
X48044552Y-64673729D01*
X48015222Y-64637991D01*
X47931557Y-64481466D01*
X47880037Y-64311627D01*
X47862641Y-64135000D01*
X47880037Y-63958373D01*
X47931557Y-63788534D01*
X48015222Y-63632009D01*
X48044552Y-63596271D01*
X48127814Y-63494814D01*
X48229271Y-63411552D01*
X48265009Y-63382222D01*
X48421534Y-63298557D01*
X48591373Y-63247037D01*
X48657557Y-63240519D01*
X48723740Y-63234000D01*
X48812260Y-63234000D01*
X48878443Y-63240519D01*
X48878443Y-63240519D01*
G37*
G36*
X46338443Y-63240519D02*
G01*
X46404627Y-63247037D01*
X46574466Y-63298557D01*
X46730991Y-63382222D01*
X46766729Y-63411552D01*
X46868186Y-63494814D01*
X46951448Y-63596271D01*
X46980778Y-63632009D01*
X47064443Y-63788534D01*
X47115963Y-63958373D01*
X47133359Y-64135000D01*
X47115963Y-64311627D01*
X47064443Y-64481466D01*
X46980778Y-64637991D01*
X46951448Y-64673729D01*
X46868186Y-64775186D01*
X46766729Y-64858448D01*
X46730991Y-64887778D01*
X46574466Y-64971443D01*
X46404627Y-65022963D01*
X46338442Y-65029482D01*
X46272260Y-65036000D01*
X46183740Y-65036000D01*
X46117558Y-65029482D01*
X46051373Y-65022963D01*
X45881534Y-64971443D01*
X45725009Y-64887778D01*
X45689271Y-64858448D01*
X45587814Y-64775186D01*
X45504552Y-64673729D01*
X45475222Y-64637991D01*
X45391557Y-64481466D01*
X45340037Y-64311627D01*
X45322641Y-64135000D01*
X45340037Y-63958373D01*
X45391557Y-63788534D01*
X45475222Y-63632009D01*
X45504552Y-63596271D01*
X45587814Y-63494814D01*
X45689271Y-63411552D01*
X45725009Y-63382222D01*
X45881534Y-63298557D01*
X46051373Y-63247037D01*
X46117557Y-63240519D01*
X46183740Y-63234000D01*
X46272260Y-63234000D01*
X46338443Y-63240519D01*
X46338443Y-63240519D01*
G37*
G36*
X41258443Y-63240519D02*
G01*
X41324627Y-63247037D01*
X41494466Y-63298557D01*
X41650991Y-63382222D01*
X41686729Y-63411552D01*
X41788186Y-63494814D01*
X41871448Y-63596271D01*
X41900778Y-63632009D01*
X41984443Y-63788534D01*
X42035963Y-63958373D01*
X42053359Y-64135000D01*
X42035963Y-64311627D01*
X41984443Y-64481466D01*
X41900778Y-64637991D01*
X41871448Y-64673729D01*
X41788186Y-64775186D01*
X41686729Y-64858448D01*
X41650991Y-64887778D01*
X41494466Y-64971443D01*
X41324627Y-65022963D01*
X41258442Y-65029482D01*
X41192260Y-65036000D01*
X41103740Y-65036000D01*
X41037558Y-65029482D01*
X40971373Y-65022963D01*
X40801534Y-64971443D01*
X40645009Y-64887778D01*
X40609271Y-64858448D01*
X40507814Y-64775186D01*
X40424552Y-64673729D01*
X40395222Y-64637991D01*
X40311557Y-64481466D01*
X40260037Y-64311627D01*
X40242641Y-64135000D01*
X40260037Y-63958373D01*
X40311557Y-63788534D01*
X40395222Y-63632009D01*
X40424552Y-63596271D01*
X40507814Y-63494814D01*
X40609271Y-63411552D01*
X40645009Y-63382222D01*
X40801534Y-63298557D01*
X40971373Y-63247037D01*
X41037557Y-63240519D01*
X41103740Y-63234000D01*
X41192260Y-63234000D01*
X41258443Y-63240519D01*
X41258443Y-63240519D01*
G37*
G36*
X38718443Y-63240519D02*
G01*
X38784627Y-63247037D01*
X38954466Y-63298557D01*
X39110991Y-63382222D01*
X39146729Y-63411552D01*
X39248186Y-63494814D01*
X39331448Y-63596271D01*
X39360778Y-63632009D01*
X39444443Y-63788534D01*
X39495963Y-63958373D01*
X39513359Y-64135000D01*
X39495963Y-64311627D01*
X39444443Y-64481466D01*
X39360778Y-64637991D01*
X39331448Y-64673729D01*
X39248186Y-64775186D01*
X39146729Y-64858448D01*
X39110991Y-64887778D01*
X38954466Y-64971443D01*
X38784627Y-65022963D01*
X38718442Y-65029482D01*
X38652260Y-65036000D01*
X38563740Y-65036000D01*
X38497558Y-65029482D01*
X38431373Y-65022963D01*
X38261534Y-64971443D01*
X38105009Y-64887778D01*
X38069271Y-64858448D01*
X37967814Y-64775186D01*
X37884552Y-64673729D01*
X37855222Y-64637991D01*
X37771557Y-64481466D01*
X37720037Y-64311627D01*
X37702641Y-64135000D01*
X37720037Y-63958373D01*
X37771557Y-63788534D01*
X37855222Y-63632009D01*
X37884552Y-63596271D01*
X37967814Y-63494814D01*
X38069271Y-63411552D01*
X38105009Y-63382222D01*
X38261534Y-63298557D01*
X38431373Y-63247037D01*
X38497557Y-63240519D01*
X38563740Y-63234000D01*
X38652260Y-63234000D01*
X38718443Y-63240519D01*
X38718443Y-63240519D01*
G37*
G36*
X36178443Y-63240519D02*
G01*
X36244627Y-63247037D01*
X36414466Y-63298557D01*
X36570991Y-63382222D01*
X36606729Y-63411552D01*
X36708186Y-63494814D01*
X36791448Y-63596271D01*
X36820778Y-63632009D01*
X36904443Y-63788534D01*
X36955963Y-63958373D01*
X36973359Y-64135000D01*
X36955963Y-64311627D01*
X36904443Y-64481466D01*
X36820778Y-64637991D01*
X36791448Y-64673729D01*
X36708186Y-64775186D01*
X36606729Y-64858448D01*
X36570991Y-64887778D01*
X36414466Y-64971443D01*
X36244627Y-65022963D01*
X36178442Y-65029482D01*
X36112260Y-65036000D01*
X36023740Y-65036000D01*
X35957558Y-65029482D01*
X35891373Y-65022963D01*
X35721534Y-64971443D01*
X35565009Y-64887778D01*
X35529271Y-64858448D01*
X35427814Y-64775186D01*
X35344552Y-64673729D01*
X35315222Y-64637991D01*
X35231557Y-64481466D01*
X35180037Y-64311627D01*
X35162641Y-64135000D01*
X35180037Y-63958373D01*
X35231557Y-63788534D01*
X35315222Y-63632009D01*
X35344552Y-63596271D01*
X35427814Y-63494814D01*
X35529271Y-63411552D01*
X35565009Y-63382222D01*
X35721534Y-63298557D01*
X35891373Y-63247037D01*
X35957557Y-63240519D01*
X36023740Y-63234000D01*
X36112260Y-63234000D01*
X36178443Y-63240519D01*
X36178443Y-63240519D01*
G37*
G36*
X33638443Y-63240519D02*
G01*
X33704627Y-63247037D01*
X33874466Y-63298557D01*
X34030991Y-63382222D01*
X34066729Y-63411552D01*
X34168186Y-63494814D01*
X34251448Y-63596271D01*
X34280778Y-63632009D01*
X34364443Y-63788534D01*
X34415963Y-63958373D01*
X34433359Y-64135000D01*
X34415963Y-64311627D01*
X34364443Y-64481466D01*
X34280778Y-64637991D01*
X34251448Y-64673729D01*
X34168186Y-64775186D01*
X34066729Y-64858448D01*
X34030991Y-64887778D01*
X33874466Y-64971443D01*
X33704627Y-65022963D01*
X33638442Y-65029482D01*
X33572260Y-65036000D01*
X33483740Y-65036000D01*
X33417558Y-65029482D01*
X33351373Y-65022963D01*
X33181534Y-64971443D01*
X33025009Y-64887778D01*
X32989271Y-64858448D01*
X32887814Y-64775186D01*
X32804552Y-64673729D01*
X32775222Y-64637991D01*
X32691557Y-64481466D01*
X32640037Y-64311627D01*
X32622641Y-64135000D01*
X32640037Y-63958373D01*
X32691557Y-63788534D01*
X32775222Y-63632009D01*
X32804552Y-63596271D01*
X32887814Y-63494814D01*
X32989271Y-63411552D01*
X33025009Y-63382222D01*
X33181534Y-63298557D01*
X33351373Y-63247037D01*
X33417557Y-63240519D01*
X33483740Y-63234000D01*
X33572260Y-63234000D01*
X33638443Y-63240519D01*
X33638443Y-63240519D01*
G37*
G36*
X31098443Y-63240519D02*
G01*
X31164627Y-63247037D01*
X31334466Y-63298557D01*
X31490991Y-63382222D01*
X31526729Y-63411552D01*
X31628186Y-63494814D01*
X31711448Y-63596271D01*
X31740778Y-63632009D01*
X31824443Y-63788534D01*
X31875963Y-63958373D01*
X31893359Y-64135000D01*
X31875963Y-64311627D01*
X31824443Y-64481466D01*
X31740778Y-64637991D01*
X31711448Y-64673729D01*
X31628186Y-64775186D01*
X31526729Y-64858448D01*
X31490991Y-64887778D01*
X31334466Y-64971443D01*
X31164627Y-65022963D01*
X31098442Y-65029482D01*
X31032260Y-65036000D01*
X30943740Y-65036000D01*
X30877558Y-65029482D01*
X30811373Y-65022963D01*
X30641534Y-64971443D01*
X30485009Y-64887778D01*
X30449271Y-64858448D01*
X30347814Y-64775186D01*
X30264552Y-64673729D01*
X30235222Y-64637991D01*
X30151557Y-64481466D01*
X30100037Y-64311627D01*
X30082641Y-64135000D01*
X30100037Y-63958373D01*
X30151557Y-63788534D01*
X30235222Y-63632009D01*
X30264552Y-63596271D01*
X30347814Y-63494814D01*
X30449271Y-63411552D01*
X30485009Y-63382222D01*
X30641534Y-63298557D01*
X30811373Y-63247037D01*
X30877557Y-63240519D01*
X30943740Y-63234000D01*
X31032260Y-63234000D01*
X31098443Y-63240519D01*
X31098443Y-63240519D01*
G37*
G36*
X28558443Y-63240519D02*
G01*
X28624627Y-63247037D01*
X28794466Y-63298557D01*
X28950991Y-63382222D01*
X28986729Y-63411552D01*
X29088186Y-63494814D01*
X29171448Y-63596271D01*
X29200778Y-63632009D01*
X29284443Y-63788534D01*
X29335963Y-63958373D01*
X29353359Y-64135000D01*
X29335963Y-64311627D01*
X29284443Y-64481466D01*
X29200778Y-64637991D01*
X29171448Y-64673729D01*
X29088186Y-64775186D01*
X28986729Y-64858448D01*
X28950991Y-64887778D01*
X28794466Y-64971443D01*
X28624627Y-65022963D01*
X28558442Y-65029482D01*
X28492260Y-65036000D01*
X28403740Y-65036000D01*
X28337558Y-65029482D01*
X28271373Y-65022963D01*
X28101534Y-64971443D01*
X27945009Y-64887778D01*
X27909271Y-64858448D01*
X27807814Y-64775186D01*
X27724552Y-64673729D01*
X27695222Y-64637991D01*
X27611557Y-64481466D01*
X27560037Y-64311627D01*
X27542641Y-64135000D01*
X27560037Y-63958373D01*
X27611557Y-63788534D01*
X27695222Y-63632009D01*
X27724552Y-63596271D01*
X27807814Y-63494814D01*
X27909271Y-63411552D01*
X27945009Y-63382222D01*
X28101534Y-63298557D01*
X28271373Y-63247037D01*
X28337557Y-63240519D01*
X28403740Y-63234000D01*
X28492260Y-63234000D01*
X28558443Y-63240519D01*
X28558443Y-63240519D01*
G37*
G36*
X26018443Y-63240519D02*
G01*
X26084627Y-63247037D01*
X26254466Y-63298557D01*
X26410991Y-63382222D01*
X26446729Y-63411552D01*
X26548186Y-63494814D01*
X26631448Y-63596271D01*
X26660778Y-63632009D01*
X26744443Y-63788534D01*
X26795963Y-63958373D01*
X26813359Y-64135000D01*
X26795963Y-64311627D01*
X26744443Y-64481466D01*
X26660778Y-64637991D01*
X26631448Y-64673729D01*
X26548186Y-64775186D01*
X26446729Y-64858448D01*
X26410991Y-64887778D01*
X26254466Y-64971443D01*
X26084627Y-65022963D01*
X26018442Y-65029482D01*
X25952260Y-65036000D01*
X25863740Y-65036000D01*
X25797558Y-65029482D01*
X25731373Y-65022963D01*
X25561534Y-64971443D01*
X25405009Y-64887778D01*
X25369271Y-64858448D01*
X25267814Y-64775186D01*
X25184552Y-64673729D01*
X25155222Y-64637991D01*
X25071557Y-64481466D01*
X25020037Y-64311627D01*
X25002641Y-64135000D01*
X25020037Y-63958373D01*
X25071557Y-63788534D01*
X25155222Y-63632009D01*
X25184552Y-63596271D01*
X25267814Y-63494814D01*
X25369271Y-63411552D01*
X25405009Y-63382222D01*
X25561534Y-63298557D01*
X25731373Y-63247037D01*
X25797557Y-63240519D01*
X25863740Y-63234000D01*
X25952260Y-63234000D01*
X26018443Y-63240519D01*
X26018443Y-63240519D01*
G37*
G36*
X23478443Y-63240519D02*
G01*
X23544627Y-63247037D01*
X23714466Y-63298557D01*
X23870991Y-63382222D01*
X23906729Y-63411552D01*
X24008186Y-63494814D01*
X24091448Y-63596271D01*
X24120778Y-63632009D01*
X24204443Y-63788534D01*
X24255963Y-63958373D01*
X24273359Y-64135000D01*
X24255963Y-64311627D01*
X24204443Y-64481466D01*
X24120778Y-64637991D01*
X24091448Y-64673729D01*
X24008186Y-64775186D01*
X23906729Y-64858448D01*
X23870991Y-64887778D01*
X23714466Y-64971443D01*
X23544627Y-65022963D01*
X23478442Y-65029482D01*
X23412260Y-65036000D01*
X23323740Y-65036000D01*
X23257558Y-65029482D01*
X23191373Y-65022963D01*
X23021534Y-64971443D01*
X22865009Y-64887778D01*
X22829271Y-64858448D01*
X22727814Y-64775186D01*
X22644552Y-64673729D01*
X22615222Y-64637991D01*
X22531557Y-64481466D01*
X22480037Y-64311627D01*
X22462641Y-64135000D01*
X22480037Y-63958373D01*
X22531557Y-63788534D01*
X22615222Y-63632009D01*
X22644552Y-63596271D01*
X22727814Y-63494814D01*
X22829271Y-63411552D01*
X22865009Y-63382222D01*
X23021534Y-63298557D01*
X23191373Y-63247037D01*
X23257557Y-63240519D01*
X23323740Y-63234000D01*
X23412260Y-63234000D01*
X23478443Y-63240519D01*
X23478443Y-63240519D01*
G37*
G36*
X52209000Y-65036000D02*
G01*
X50407000Y-65036000D01*
X50407000Y-63234000D01*
X52209000Y-63234000D01*
X52209000Y-65036000D01*
X52209000Y-65036000D01*
G37*
G36*
X23478443Y-60700519D02*
G01*
X23544627Y-60707037D01*
X23714466Y-60758557D01*
X23870991Y-60842222D01*
X23906729Y-60871552D01*
X24008186Y-60954814D01*
X24091448Y-61056271D01*
X24120778Y-61092009D01*
X24204443Y-61248534D01*
X24255963Y-61418373D01*
X24273359Y-61595000D01*
X24255963Y-61771627D01*
X24204443Y-61941466D01*
X24120778Y-62097991D01*
X24091448Y-62133729D01*
X24008186Y-62235186D01*
X23906729Y-62318448D01*
X23870991Y-62347778D01*
X23714466Y-62431443D01*
X23544627Y-62482963D01*
X23478443Y-62489481D01*
X23412260Y-62496000D01*
X23323740Y-62496000D01*
X23257557Y-62489481D01*
X23191373Y-62482963D01*
X23021534Y-62431443D01*
X22865009Y-62347778D01*
X22829271Y-62318448D01*
X22727814Y-62235186D01*
X22644552Y-62133729D01*
X22615222Y-62097991D01*
X22531557Y-61941466D01*
X22480037Y-61771627D01*
X22462641Y-61595000D01*
X22480037Y-61418373D01*
X22531557Y-61248534D01*
X22615222Y-61092009D01*
X22644552Y-61056271D01*
X22727814Y-60954814D01*
X22829271Y-60871552D01*
X22865009Y-60842222D01*
X23021534Y-60758557D01*
X23191373Y-60707037D01*
X23257557Y-60700519D01*
X23323740Y-60694000D01*
X23412260Y-60694000D01*
X23478443Y-60700519D01*
X23478443Y-60700519D01*
G37*
G36*
X51418443Y-60700519D02*
G01*
X51484627Y-60707037D01*
X51654466Y-60758557D01*
X51810991Y-60842222D01*
X51846729Y-60871552D01*
X51948186Y-60954814D01*
X52031448Y-61056271D01*
X52060778Y-61092009D01*
X52144443Y-61248534D01*
X52195963Y-61418373D01*
X52213359Y-61595000D01*
X52195963Y-61771627D01*
X52144443Y-61941466D01*
X52060778Y-62097991D01*
X52031448Y-62133729D01*
X51948186Y-62235186D01*
X51846729Y-62318448D01*
X51810991Y-62347778D01*
X51654466Y-62431443D01*
X51484627Y-62482963D01*
X51418443Y-62489481D01*
X51352260Y-62496000D01*
X51263740Y-62496000D01*
X51197557Y-62489481D01*
X51131373Y-62482963D01*
X50961534Y-62431443D01*
X50805009Y-62347778D01*
X50769271Y-62318448D01*
X50667814Y-62235186D01*
X50584552Y-62133729D01*
X50555222Y-62097991D01*
X50471557Y-61941466D01*
X50420037Y-61771627D01*
X50402641Y-61595000D01*
X50420037Y-61418373D01*
X50471557Y-61248534D01*
X50555222Y-61092009D01*
X50584552Y-61056271D01*
X50667814Y-60954814D01*
X50769271Y-60871552D01*
X50805009Y-60842222D01*
X50961534Y-60758557D01*
X51131373Y-60707037D01*
X51197557Y-60700519D01*
X51263740Y-60694000D01*
X51352260Y-60694000D01*
X51418443Y-60700519D01*
X51418443Y-60700519D01*
G37*
G36*
X48878443Y-60700519D02*
G01*
X48944627Y-60707037D01*
X49114466Y-60758557D01*
X49270991Y-60842222D01*
X49306729Y-60871552D01*
X49408186Y-60954814D01*
X49491448Y-61056271D01*
X49520778Y-61092009D01*
X49604443Y-61248534D01*
X49655963Y-61418373D01*
X49673359Y-61595000D01*
X49655963Y-61771627D01*
X49604443Y-61941466D01*
X49520778Y-62097991D01*
X49491448Y-62133729D01*
X49408186Y-62235186D01*
X49306729Y-62318448D01*
X49270991Y-62347778D01*
X49114466Y-62431443D01*
X48944627Y-62482963D01*
X48878443Y-62489481D01*
X48812260Y-62496000D01*
X48723740Y-62496000D01*
X48657557Y-62489481D01*
X48591373Y-62482963D01*
X48421534Y-62431443D01*
X48265009Y-62347778D01*
X48229271Y-62318448D01*
X48127814Y-62235186D01*
X48044552Y-62133729D01*
X48015222Y-62097991D01*
X47931557Y-61941466D01*
X47880037Y-61771627D01*
X47862641Y-61595000D01*
X47880037Y-61418373D01*
X47931557Y-61248534D01*
X48015222Y-61092009D01*
X48044552Y-61056271D01*
X48127814Y-60954814D01*
X48229271Y-60871552D01*
X48265009Y-60842222D01*
X48421534Y-60758557D01*
X48591373Y-60707037D01*
X48657557Y-60700519D01*
X48723740Y-60694000D01*
X48812260Y-60694000D01*
X48878443Y-60700519D01*
X48878443Y-60700519D01*
G37*
G36*
X26018443Y-60700519D02*
G01*
X26084627Y-60707037D01*
X26254466Y-60758557D01*
X26410991Y-60842222D01*
X26446729Y-60871552D01*
X26548186Y-60954814D01*
X26631448Y-61056271D01*
X26660778Y-61092009D01*
X26744443Y-61248534D01*
X26795963Y-61418373D01*
X26813359Y-61595000D01*
X26795963Y-61771627D01*
X26744443Y-61941466D01*
X26660778Y-62097991D01*
X26631448Y-62133729D01*
X26548186Y-62235186D01*
X26446729Y-62318448D01*
X26410991Y-62347778D01*
X26254466Y-62431443D01*
X26084627Y-62482963D01*
X26018443Y-62489481D01*
X25952260Y-62496000D01*
X25863740Y-62496000D01*
X25797557Y-62489481D01*
X25731373Y-62482963D01*
X25561534Y-62431443D01*
X25405009Y-62347778D01*
X25369271Y-62318448D01*
X25267814Y-62235186D01*
X25184552Y-62133729D01*
X25155222Y-62097991D01*
X25071557Y-61941466D01*
X25020037Y-61771627D01*
X25002641Y-61595000D01*
X25020037Y-61418373D01*
X25071557Y-61248534D01*
X25155222Y-61092009D01*
X25184552Y-61056271D01*
X25267814Y-60954814D01*
X25369271Y-60871552D01*
X25405009Y-60842222D01*
X25561534Y-60758557D01*
X25731373Y-60707037D01*
X25797557Y-60700519D01*
X25863740Y-60694000D01*
X25952260Y-60694000D01*
X26018443Y-60700519D01*
X26018443Y-60700519D01*
G37*
G36*
X28558443Y-60700519D02*
G01*
X28624627Y-60707037D01*
X28794466Y-60758557D01*
X28950991Y-60842222D01*
X28986729Y-60871552D01*
X29088186Y-60954814D01*
X29171448Y-61056271D01*
X29200778Y-61092009D01*
X29284443Y-61248534D01*
X29335963Y-61418373D01*
X29353359Y-61595000D01*
X29335963Y-61771627D01*
X29284443Y-61941466D01*
X29200778Y-62097991D01*
X29171448Y-62133729D01*
X29088186Y-62235186D01*
X28986729Y-62318448D01*
X28950991Y-62347778D01*
X28794466Y-62431443D01*
X28624627Y-62482963D01*
X28558443Y-62489481D01*
X28492260Y-62496000D01*
X28403740Y-62496000D01*
X28337557Y-62489481D01*
X28271373Y-62482963D01*
X28101534Y-62431443D01*
X27945009Y-62347778D01*
X27909271Y-62318448D01*
X27807814Y-62235186D01*
X27724552Y-62133729D01*
X27695222Y-62097991D01*
X27611557Y-61941466D01*
X27560037Y-61771627D01*
X27542641Y-61595000D01*
X27560037Y-61418373D01*
X27611557Y-61248534D01*
X27695222Y-61092009D01*
X27724552Y-61056271D01*
X27807814Y-60954814D01*
X27909271Y-60871552D01*
X27945009Y-60842222D01*
X28101534Y-60758557D01*
X28271373Y-60707037D01*
X28337557Y-60700519D01*
X28403740Y-60694000D01*
X28492260Y-60694000D01*
X28558443Y-60700519D01*
X28558443Y-60700519D01*
G37*
G36*
X20938443Y-60700519D02*
G01*
X21004627Y-60707037D01*
X21174466Y-60758557D01*
X21330991Y-60842222D01*
X21366729Y-60871552D01*
X21468186Y-60954814D01*
X21551448Y-61056271D01*
X21580778Y-61092009D01*
X21664443Y-61248534D01*
X21715963Y-61418373D01*
X21733359Y-61595000D01*
X21715963Y-61771627D01*
X21664443Y-61941466D01*
X21580778Y-62097991D01*
X21551448Y-62133729D01*
X21468186Y-62235186D01*
X21366729Y-62318448D01*
X21330991Y-62347778D01*
X21174466Y-62431443D01*
X21004627Y-62482963D01*
X20938443Y-62489481D01*
X20872260Y-62496000D01*
X20783740Y-62496000D01*
X20717557Y-62489481D01*
X20651373Y-62482963D01*
X20481534Y-62431443D01*
X20325009Y-62347778D01*
X20289271Y-62318448D01*
X20187814Y-62235186D01*
X20104552Y-62133729D01*
X20075222Y-62097991D01*
X19991557Y-61941466D01*
X19940037Y-61771627D01*
X19922641Y-61595000D01*
X19940037Y-61418373D01*
X19991557Y-61248534D01*
X20075222Y-61092009D01*
X20104552Y-61056271D01*
X20187814Y-60954814D01*
X20289271Y-60871552D01*
X20325009Y-60842222D01*
X20481534Y-60758557D01*
X20651373Y-60707037D01*
X20717557Y-60700519D01*
X20783740Y-60694000D01*
X20872260Y-60694000D01*
X20938443Y-60700519D01*
X20938443Y-60700519D01*
G37*
G36*
X46338443Y-60700519D02*
G01*
X46404627Y-60707037D01*
X46574466Y-60758557D01*
X46730991Y-60842222D01*
X46766729Y-60871552D01*
X46868186Y-60954814D01*
X46951448Y-61056271D01*
X46980778Y-61092009D01*
X47064443Y-61248534D01*
X47115963Y-61418373D01*
X47133359Y-61595000D01*
X47115963Y-61771627D01*
X47064443Y-61941466D01*
X46980778Y-62097991D01*
X46951448Y-62133729D01*
X46868186Y-62235186D01*
X46766729Y-62318448D01*
X46730991Y-62347778D01*
X46574466Y-62431443D01*
X46404627Y-62482963D01*
X46338443Y-62489481D01*
X46272260Y-62496000D01*
X46183740Y-62496000D01*
X46117557Y-62489481D01*
X46051373Y-62482963D01*
X45881534Y-62431443D01*
X45725009Y-62347778D01*
X45689271Y-62318448D01*
X45587814Y-62235186D01*
X45504552Y-62133729D01*
X45475222Y-62097991D01*
X45391557Y-61941466D01*
X45340037Y-61771627D01*
X45322641Y-61595000D01*
X45340037Y-61418373D01*
X45391557Y-61248534D01*
X45475222Y-61092009D01*
X45504552Y-61056271D01*
X45587814Y-60954814D01*
X45689271Y-60871552D01*
X45725009Y-60842222D01*
X45881534Y-60758557D01*
X46051373Y-60707037D01*
X46117557Y-60700519D01*
X46183740Y-60694000D01*
X46272260Y-60694000D01*
X46338443Y-60700519D01*
X46338443Y-60700519D01*
G37*
G36*
X31098443Y-60700519D02*
G01*
X31164627Y-60707037D01*
X31334466Y-60758557D01*
X31490991Y-60842222D01*
X31526729Y-60871552D01*
X31628186Y-60954814D01*
X31711448Y-61056271D01*
X31740778Y-61092009D01*
X31824443Y-61248534D01*
X31875963Y-61418373D01*
X31893359Y-61595000D01*
X31875963Y-61771627D01*
X31824443Y-61941466D01*
X31740778Y-62097991D01*
X31711448Y-62133729D01*
X31628186Y-62235186D01*
X31526729Y-62318448D01*
X31490991Y-62347778D01*
X31334466Y-62431443D01*
X31164627Y-62482963D01*
X31098443Y-62489481D01*
X31032260Y-62496000D01*
X30943740Y-62496000D01*
X30877557Y-62489481D01*
X30811373Y-62482963D01*
X30641534Y-62431443D01*
X30485009Y-62347778D01*
X30449271Y-62318448D01*
X30347814Y-62235186D01*
X30264552Y-62133729D01*
X30235222Y-62097991D01*
X30151557Y-61941466D01*
X30100037Y-61771627D01*
X30082641Y-61595000D01*
X30100037Y-61418373D01*
X30151557Y-61248534D01*
X30235222Y-61092009D01*
X30264552Y-61056271D01*
X30347814Y-60954814D01*
X30449271Y-60871552D01*
X30485009Y-60842222D01*
X30641534Y-60758557D01*
X30811373Y-60707037D01*
X30877557Y-60700519D01*
X30943740Y-60694000D01*
X31032260Y-60694000D01*
X31098443Y-60700519D01*
X31098443Y-60700519D01*
G37*
G36*
X33638443Y-60700519D02*
G01*
X33704627Y-60707037D01*
X33874466Y-60758557D01*
X34030991Y-60842222D01*
X34066729Y-60871552D01*
X34168186Y-60954814D01*
X34251448Y-61056271D01*
X34280778Y-61092009D01*
X34364443Y-61248534D01*
X34415963Y-61418373D01*
X34433359Y-61595000D01*
X34415963Y-61771627D01*
X34364443Y-61941466D01*
X34280778Y-62097991D01*
X34251448Y-62133729D01*
X34168186Y-62235186D01*
X34066729Y-62318448D01*
X34030991Y-62347778D01*
X33874466Y-62431443D01*
X33704627Y-62482963D01*
X33638443Y-62489481D01*
X33572260Y-62496000D01*
X33483740Y-62496000D01*
X33417557Y-62489481D01*
X33351373Y-62482963D01*
X33181534Y-62431443D01*
X33025009Y-62347778D01*
X32989271Y-62318448D01*
X32887814Y-62235186D01*
X32804552Y-62133729D01*
X32775222Y-62097991D01*
X32691557Y-61941466D01*
X32640037Y-61771627D01*
X32622641Y-61595000D01*
X32640037Y-61418373D01*
X32691557Y-61248534D01*
X32775222Y-61092009D01*
X32804552Y-61056271D01*
X32887814Y-60954814D01*
X32989271Y-60871552D01*
X33025009Y-60842222D01*
X33181534Y-60758557D01*
X33351373Y-60707037D01*
X33417557Y-60700519D01*
X33483740Y-60694000D01*
X33572260Y-60694000D01*
X33638443Y-60700519D01*
X33638443Y-60700519D01*
G37*
G36*
X43798443Y-60700519D02*
G01*
X43864627Y-60707037D01*
X44034466Y-60758557D01*
X44190991Y-60842222D01*
X44226729Y-60871552D01*
X44328186Y-60954814D01*
X44411448Y-61056271D01*
X44440778Y-61092009D01*
X44524443Y-61248534D01*
X44575963Y-61418373D01*
X44593359Y-61595000D01*
X44575963Y-61771627D01*
X44524443Y-61941466D01*
X44440778Y-62097991D01*
X44411448Y-62133729D01*
X44328186Y-62235186D01*
X44226729Y-62318448D01*
X44190991Y-62347778D01*
X44034466Y-62431443D01*
X43864627Y-62482963D01*
X43798443Y-62489481D01*
X43732260Y-62496000D01*
X43643740Y-62496000D01*
X43577557Y-62489481D01*
X43511373Y-62482963D01*
X43341534Y-62431443D01*
X43185009Y-62347778D01*
X43149271Y-62318448D01*
X43047814Y-62235186D01*
X42964552Y-62133729D01*
X42935222Y-62097991D01*
X42851557Y-61941466D01*
X42800037Y-61771627D01*
X42782641Y-61595000D01*
X42800037Y-61418373D01*
X42851557Y-61248534D01*
X42935222Y-61092009D01*
X42964552Y-61056271D01*
X43047814Y-60954814D01*
X43149271Y-60871552D01*
X43185009Y-60842222D01*
X43341534Y-60758557D01*
X43511373Y-60707037D01*
X43577557Y-60700519D01*
X43643740Y-60694000D01*
X43732260Y-60694000D01*
X43798443Y-60700519D01*
X43798443Y-60700519D01*
G37*
G36*
X36178443Y-60700519D02*
G01*
X36244627Y-60707037D01*
X36414466Y-60758557D01*
X36570991Y-60842222D01*
X36606729Y-60871552D01*
X36708186Y-60954814D01*
X36791448Y-61056271D01*
X36820778Y-61092009D01*
X36904443Y-61248534D01*
X36955963Y-61418373D01*
X36973359Y-61595000D01*
X36955963Y-61771627D01*
X36904443Y-61941466D01*
X36820778Y-62097991D01*
X36791448Y-62133729D01*
X36708186Y-62235186D01*
X36606729Y-62318448D01*
X36570991Y-62347778D01*
X36414466Y-62431443D01*
X36244627Y-62482963D01*
X36178443Y-62489481D01*
X36112260Y-62496000D01*
X36023740Y-62496000D01*
X35957557Y-62489481D01*
X35891373Y-62482963D01*
X35721534Y-62431443D01*
X35565009Y-62347778D01*
X35529271Y-62318448D01*
X35427814Y-62235186D01*
X35344552Y-62133729D01*
X35315222Y-62097991D01*
X35231557Y-61941466D01*
X35180037Y-61771627D01*
X35162641Y-61595000D01*
X35180037Y-61418373D01*
X35231557Y-61248534D01*
X35315222Y-61092009D01*
X35344552Y-61056271D01*
X35427814Y-60954814D01*
X35529271Y-60871552D01*
X35565009Y-60842222D01*
X35721534Y-60758557D01*
X35891373Y-60707037D01*
X35957557Y-60700519D01*
X36023740Y-60694000D01*
X36112260Y-60694000D01*
X36178443Y-60700519D01*
X36178443Y-60700519D01*
G37*
G36*
X38718443Y-60700519D02*
G01*
X38784627Y-60707037D01*
X38954466Y-60758557D01*
X39110991Y-60842222D01*
X39146729Y-60871552D01*
X39248186Y-60954814D01*
X39331448Y-61056271D01*
X39360778Y-61092009D01*
X39444443Y-61248534D01*
X39495963Y-61418373D01*
X39513359Y-61595000D01*
X39495963Y-61771627D01*
X39444443Y-61941466D01*
X39360778Y-62097991D01*
X39331448Y-62133729D01*
X39248186Y-62235186D01*
X39146729Y-62318448D01*
X39110991Y-62347778D01*
X38954466Y-62431443D01*
X38784627Y-62482963D01*
X38718443Y-62489481D01*
X38652260Y-62496000D01*
X38563740Y-62496000D01*
X38497557Y-62489481D01*
X38431373Y-62482963D01*
X38261534Y-62431443D01*
X38105009Y-62347778D01*
X38069271Y-62318448D01*
X37967814Y-62235186D01*
X37884552Y-62133729D01*
X37855222Y-62097991D01*
X37771557Y-61941466D01*
X37720037Y-61771627D01*
X37702641Y-61595000D01*
X37720037Y-61418373D01*
X37771557Y-61248534D01*
X37855222Y-61092009D01*
X37884552Y-61056271D01*
X37967814Y-60954814D01*
X38069271Y-60871552D01*
X38105009Y-60842222D01*
X38261534Y-60758557D01*
X38431373Y-60707037D01*
X38497557Y-60700519D01*
X38563740Y-60694000D01*
X38652260Y-60694000D01*
X38718443Y-60700519D01*
X38718443Y-60700519D01*
G37*
G36*
X41258443Y-60700519D02*
G01*
X41324627Y-60707037D01*
X41494466Y-60758557D01*
X41650991Y-60842222D01*
X41686729Y-60871552D01*
X41788186Y-60954814D01*
X41871448Y-61056271D01*
X41900778Y-61092009D01*
X41984443Y-61248534D01*
X42035963Y-61418373D01*
X42053359Y-61595000D01*
X42035963Y-61771627D01*
X41984443Y-61941466D01*
X41900778Y-62097991D01*
X41871448Y-62133729D01*
X41788186Y-62235186D01*
X41686729Y-62318448D01*
X41650991Y-62347778D01*
X41494466Y-62431443D01*
X41324627Y-62482963D01*
X41258443Y-62489481D01*
X41192260Y-62496000D01*
X41103740Y-62496000D01*
X41037557Y-62489481D01*
X40971373Y-62482963D01*
X40801534Y-62431443D01*
X40645009Y-62347778D01*
X40609271Y-62318448D01*
X40507814Y-62235186D01*
X40424552Y-62133729D01*
X40395222Y-62097991D01*
X40311557Y-61941466D01*
X40260037Y-61771627D01*
X40242641Y-61595000D01*
X40260037Y-61418373D01*
X40311557Y-61248534D01*
X40395222Y-61092009D01*
X40424552Y-61056271D01*
X40507814Y-60954814D01*
X40609271Y-60871552D01*
X40645009Y-60842222D01*
X40801534Y-60758557D01*
X40971373Y-60707037D01*
X41037557Y-60700519D01*
X41103740Y-60694000D01*
X41192260Y-60694000D01*
X41258443Y-60700519D01*
X41258443Y-60700519D01*
G37*
G36*
X40942585Y-40388802D02*
G01*
X41092410Y-40418604D01*
X41374674Y-40535521D01*
X41628705Y-40705259D01*
X41844741Y-40921295D01*
X42014479Y-41175326D01*
X42131396Y-41457590D01*
X42191000Y-41757240D01*
X42191000Y-42062760D01*
X42131396Y-42362410D01*
X42014479Y-42644674D01*
X41844741Y-42898705D01*
X41628705Y-43114741D01*
X41374674Y-43284479D01*
X41092410Y-43401396D01*
X40942585Y-43431198D01*
X40792761Y-43461000D01*
X40487239Y-43461000D01*
X40337415Y-43431198D01*
X40187590Y-43401396D01*
X39905326Y-43284479D01*
X39651295Y-43114741D01*
X39435259Y-42898705D01*
X39265521Y-42644674D01*
X39148604Y-42362410D01*
X39089000Y-42062760D01*
X39089000Y-41757240D01*
X39148604Y-41457590D01*
X39265521Y-41175326D01*
X39435259Y-40921295D01*
X39651295Y-40705259D01*
X39905326Y-40535521D01*
X40187590Y-40418604D01*
X40337415Y-40388802D01*
X40487239Y-40359000D01*
X40792761Y-40359000D01*
X40942585Y-40388802D01*
X40942585Y-40388802D01*
G37*
G36*
X23162585Y-40388802D02*
G01*
X23312410Y-40418604D01*
X23594674Y-40535521D01*
X23848705Y-40705259D01*
X24064741Y-40921295D01*
X24234479Y-41175326D01*
X24351396Y-41457590D01*
X24411000Y-41757240D01*
X24411000Y-42062760D01*
X24351396Y-42362410D01*
X24234479Y-42644674D01*
X24064741Y-42898705D01*
X23848705Y-43114741D01*
X23594674Y-43284479D01*
X23312410Y-43401396D01*
X23162585Y-43431198D01*
X23012761Y-43461000D01*
X22707239Y-43461000D01*
X22557415Y-43431198D01*
X22407590Y-43401396D01*
X22125326Y-43284479D01*
X21871295Y-43114741D01*
X21655259Y-42898705D01*
X21485521Y-42644674D01*
X21368604Y-42362410D01*
X21309000Y-42062760D01*
X21309000Y-41757240D01*
X21368604Y-41457590D01*
X21485521Y-41175326D01*
X21655259Y-40921295D01*
X21871295Y-40705259D01*
X22125326Y-40535521D01*
X22407590Y-40418604D01*
X22557415Y-40388802D01*
X22707239Y-40359000D01*
X23012761Y-40359000D01*
X23162585Y-40388802D01*
X23162585Y-40388802D01*
G37*
G36*
X49832585Y-40388802D02*
G01*
X49982410Y-40418604D01*
X50264674Y-40535521D01*
X50518705Y-40705259D01*
X50734741Y-40921295D01*
X50904479Y-41175326D01*
X51021396Y-41457590D01*
X51081000Y-41757240D01*
X51081000Y-42062760D01*
X51021396Y-42362410D01*
X50904479Y-42644674D01*
X50734741Y-42898705D01*
X50518705Y-43114741D01*
X50264674Y-43284479D01*
X49982410Y-43401396D01*
X49832585Y-43431198D01*
X49682761Y-43461000D01*
X49377239Y-43461000D01*
X49227415Y-43431198D01*
X49077590Y-43401396D01*
X48795326Y-43284479D01*
X48541295Y-43114741D01*
X48325259Y-42898705D01*
X48155521Y-42644674D01*
X48038604Y-42362410D01*
X47979000Y-42062760D01*
X47979000Y-41757240D01*
X48038604Y-41457590D01*
X48155521Y-41175326D01*
X48325259Y-40921295D01*
X48541295Y-40705259D01*
X48795326Y-40535521D01*
X49077590Y-40418604D01*
X49227415Y-40388802D01*
X49377239Y-40359000D01*
X49682761Y-40359000D01*
X49832585Y-40388802D01*
X49832585Y-40388802D01*
G37*
G36*
X32052585Y-40388802D02*
G01*
X32202410Y-40418604D01*
X32484674Y-40535521D01*
X32738705Y-40705259D01*
X32954741Y-40921295D01*
X33124479Y-41175326D01*
X33241396Y-41457590D01*
X33301000Y-41757240D01*
X33301000Y-42062760D01*
X33241396Y-42362410D01*
X33124479Y-42644674D01*
X32954741Y-42898705D01*
X32738705Y-43114741D01*
X32484674Y-43284479D01*
X32202410Y-43401396D01*
X32052585Y-43431198D01*
X31902761Y-43461000D01*
X31597239Y-43461000D01*
X31447415Y-43431198D01*
X31297590Y-43401396D01*
X31015326Y-43284479D01*
X30761295Y-43114741D01*
X30545259Y-42898705D01*
X30375521Y-42644674D01*
X30258604Y-42362410D01*
X30199000Y-42062760D01*
X30199000Y-41757240D01*
X30258604Y-41457590D01*
X30375521Y-41175326D01*
X30545259Y-40921295D01*
X30761295Y-40705259D01*
X31015326Y-40535521D01*
X31297590Y-40418604D01*
X31447415Y-40388802D01*
X31597239Y-40359000D01*
X31902761Y-40359000D01*
X32052585Y-40388802D01*
X32052585Y-40388802D01*
G37*
G36*
X51102585Y-33403802D02*
G01*
X51252410Y-33433604D01*
X51534674Y-33550521D01*
X51788705Y-33720259D01*
X52004741Y-33936295D01*
X52174479Y-34190326D01*
X52291396Y-34472590D01*
X52351000Y-34772240D01*
X52351000Y-35077760D01*
X52291396Y-35377410D01*
X52174479Y-35659674D01*
X52004741Y-35913705D01*
X51788705Y-36129741D01*
X51534674Y-36299479D01*
X51252410Y-36416396D01*
X51102585Y-36446198D01*
X50952761Y-36476000D01*
X50647239Y-36476000D01*
X50497415Y-36446198D01*
X50347590Y-36416396D01*
X50065326Y-36299479D01*
X49811295Y-36129741D01*
X49595259Y-35913705D01*
X49425521Y-35659674D01*
X49308604Y-35377410D01*
X49249000Y-35077760D01*
X49249000Y-34772240D01*
X49308604Y-34472590D01*
X49425521Y-34190326D01*
X49595259Y-33936295D01*
X49811295Y-33720259D01*
X50065326Y-33550521D01*
X50347590Y-33433604D01*
X50497415Y-33403802D01*
X50647239Y-33374000D01*
X50952761Y-33374000D01*
X51102585Y-33403802D01*
X51102585Y-33403802D01*
G37*
G36*
X45387585Y-33403802D02*
G01*
X45537410Y-33433604D01*
X45819674Y-33550521D01*
X46073705Y-33720259D01*
X46289741Y-33936295D01*
X46459479Y-34190326D01*
X46576396Y-34472590D01*
X46636000Y-34772240D01*
X46636000Y-35077760D01*
X46576396Y-35377410D01*
X46459479Y-35659674D01*
X46289741Y-35913705D01*
X46073705Y-36129741D01*
X45819674Y-36299479D01*
X45537410Y-36416396D01*
X45387585Y-36446198D01*
X45237761Y-36476000D01*
X44932239Y-36476000D01*
X44782415Y-36446198D01*
X44632590Y-36416396D01*
X44350326Y-36299479D01*
X44096295Y-36129741D01*
X43880259Y-35913705D01*
X43710521Y-35659674D01*
X43593604Y-35377410D01*
X43534000Y-35077760D01*
X43534000Y-34772240D01*
X43593604Y-34472590D01*
X43710521Y-34190326D01*
X43880259Y-33936295D01*
X44096295Y-33720259D01*
X44350326Y-33550521D01*
X44632590Y-33433604D01*
X44782415Y-33403802D01*
X44932239Y-33374000D01*
X45237761Y-33374000D01*
X45387585Y-33403802D01*
X45387585Y-33403802D01*
G37*
G36*
X39672585Y-33403802D02*
G01*
X39822410Y-33433604D01*
X40104674Y-33550521D01*
X40358705Y-33720259D01*
X40574741Y-33936295D01*
X40744479Y-34190326D01*
X40861396Y-34472590D01*
X40921000Y-34772240D01*
X40921000Y-35077760D01*
X40861396Y-35377410D01*
X40744479Y-35659674D01*
X40574741Y-35913705D01*
X40358705Y-36129741D01*
X40104674Y-36299479D01*
X39822410Y-36416396D01*
X39672585Y-36446198D01*
X39522761Y-36476000D01*
X39217239Y-36476000D01*
X39067415Y-36446198D01*
X38917590Y-36416396D01*
X38635326Y-36299479D01*
X38381295Y-36129741D01*
X38165259Y-35913705D01*
X37995521Y-35659674D01*
X37878604Y-35377410D01*
X37819000Y-35077760D01*
X37819000Y-34772240D01*
X37878604Y-34472590D01*
X37995521Y-34190326D01*
X38165259Y-33936295D01*
X38381295Y-33720259D01*
X38635326Y-33550521D01*
X38917590Y-33433604D01*
X39067415Y-33403802D01*
X39217239Y-33374000D01*
X39522761Y-33374000D01*
X39672585Y-33403802D01*
X39672585Y-33403802D01*
G37*
G36*
X33957585Y-33403802D02*
G01*
X34107410Y-33433604D01*
X34389674Y-33550521D01*
X34643705Y-33720259D01*
X34859741Y-33936295D01*
X35029479Y-34190326D01*
X35146396Y-34472590D01*
X35206000Y-34772240D01*
X35206000Y-35077760D01*
X35146396Y-35377410D01*
X35029479Y-35659674D01*
X34859741Y-35913705D01*
X34643705Y-36129741D01*
X34389674Y-36299479D01*
X34107410Y-36416396D01*
X33957585Y-36446198D01*
X33807761Y-36476000D01*
X33502239Y-36476000D01*
X33352415Y-36446198D01*
X33202590Y-36416396D01*
X32920326Y-36299479D01*
X32666295Y-36129741D01*
X32450259Y-35913705D01*
X32280521Y-35659674D01*
X32163604Y-35377410D01*
X32104000Y-35077760D01*
X32104000Y-34772240D01*
X32163604Y-34472590D01*
X32280521Y-34190326D01*
X32450259Y-33936295D01*
X32666295Y-33720259D01*
X32920326Y-33550521D01*
X33202590Y-33433604D01*
X33352415Y-33403802D01*
X33502239Y-33374000D01*
X33807761Y-33374000D01*
X33957585Y-33403802D01*
X33957585Y-33403802D01*
G37*
G36*
X28242585Y-33403802D02*
G01*
X28392410Y-33433604D01*
X28674674Y-33550521D01*
X28928705Y-33720259D01*
X29144741Y-33936295D01*
X29314479Y-34190326D01*
X29431396Y-34472590D01*
X29491000Y-34772240D01*
X29491000Y-35077760D01*
X29431396Y-35377410D01*
X29314479Y-35659674D01*
X29144741Y-35913705D01*
X28928705Y-36129741D01*
X28674674Y-36299479D01*
X28392410Y-36416396D01*
X28242585Y-36446198D01*
X28092761Y-36476000D01*
X27787239Y-36476000D01*
X27637415Y-36446198D01*
X27487590Y-36416396D01*
X27205326Y-36299479D01*
X26951295Y-36129741D01*
X26735259Y-35913705D01*
X26565521Y-35659674D01*
X26448604Y-35377410D01*
X26389000Y-35077760D01*
X26389000Y-34772240D01*
X26448604Y-34472590D01*
X26565521Y-34190326D01*
X26735259Y-33936295D01*
X26951295Y-33720259D01*
X27205326Y-33550521D01*
X27487590Y-33433604D01*
X27637415Y-33403802D01*
X27787239Y-33374000D01*
X28092761Y-33374000D01*
X28242585Y-33403802D01*
X28242585Y-33403802D01*
G37*
G36*
X22527585Y-33403802D02*
G01*
X22677410Y-33433604D01*
X22959674Y-33550521D01*
X23213705Y-33720259D01*
X23429741Y-33936295D01*
X23599479Y-34190326D01*
X23716396Y-34472590D01*
X23776000Y-34772240D01*
X23776000Y-35077760D01*
X23716396Y-35377410D01*
X23599479Y-35659674D01*
X23429741Y-35913705D01*
X23213705Y-36129741D01*
X22959674Y-36299479D01*
X22677410Y-36416396D01*
X22527585Y-36446198D01*
X22377761Y-36476000D01*
X22072239Y-36476000D01*
X21922415Y-36446198D01*
X21772590Y-36416396D01*
X21490326Y-36299479D01*
X21236295Y-36129741D01*
X21020259Y-35913705D01*
X20850521Y-35659674D01*
X20733604Y-35377410D01*
X20674000Y-35077760D01*
X20674000Y-34772240D01*
X20733604Y-34472590D01*
X20850521Y-34190326D01*
X21020259Y-33936295D01*
X21236295Y-33720259D01*
X21490326Y-33550521D01*
X21772590Y-33433604D01*
X21922415Y-33403802D01*
X22072239Y-33374000D01*
X22377761Y-33374000D01*
X22527585Y-33403802D01*
X22527585Y-33403802D01*
G37*
M02*
