G04 #@! TF.GenerationSoftware,KiCad,Pcbnew,(5.1.9)-1*
G04 #@! TF.CreationDate,2021-02-23T11:48:30+09:00*
G04 #@! TF.ProjectId,debugger,64656275-6767-4657-922e-6b696361645f,rev?*
G04 #@! TF.SameCoordinates,Original*
G04 #@! TF.FileFunction,Soldermask,Top*
G04 #@! TF.FilePolarity,Negative*
%FSLAX46Y46*%
G04 Gerber Fmt 4.6, Leading zero omitted, Abs format (unit mm)*
G04 Created by KiCad (PCBNEW (5.1.9)-1) date 2021-02-23 11:48:30*
%MOMM*%
%LPD*%
G01*
G04 APERTURE LIST*
%ADD10O,1.700000X1.700000*%
%ADD11R,1.700000X1.700000*%
%ADD12R,1.727200X1.727200*%
%ADD13O,1.727200X1.727200*%
%ADD14C,3.000000*%
G04 APERTURE END LIST*
D10*
X20828000Y-61595000D03*
X20828000Y-64135000D03*
X23368000Y-61595000D03*
X23368000Y-64135000D03*
X25908000Y-61595000D03*
X25908000Y-64135000D03*
X28448000Y-61595000D03*
X28448000Y-64135000D03*
X30988000Y-61595000D03*
X30988000Y-64135000D03*
X33528000Y-61595000D03*
X33528000Y-64135000D03*
X36068000Y-61595000D03*
X36068000Y-64135000D03*
X38608000Y-61595000D03*
X38608000Y-64135000D03*
X41148000Y-61595000D03*
X41148000Y-64135000D03*
X43688000Y-61595000D03*
X43688000Y-64135000D03*
X46228000Y-61595000D03*
X46228000Y-64135000D03*
X48768000Y-61595000D03*
X48768000Y-64135000D03*
X51308000Y-61595000D03*
D11*
X51308000Y-64135000D03*
D12*
X24765000Y-29845000D03*
D13*
X24765000Y-27305000D03*
X27305000Y-29845000D03*
X27305000Y-27305000D03*
X29845000Y-29845000D03*
X29845000Y-27305000D03*
X32385000Y-29845000D03*
X32385000Y-27305000D03*
X34925000Y-29845000D03*
X34925000Y-27305000D03*
X37465000Y-29845000D03*
X37465000Y-27305000D03*
X40005000Y-29845000D03*
X40005000Y-27305000D03*
X42545000Y-29845000D03*
X42545000Y-27305000D03*
X45085000Y-29845000D03*
X45085000Y-27305000D03*
X47625000Y-29845000D03*
X47625000Y-27305000D03*
D14*
X21209000Y-35179000D03*
X31115000Y-54229000D03*
X31115000Y-35179000D03*
X31115000Y-47879000D03*
X36195000Y-41529000D03*
X36195000Y-35179000D03*
X36195000Y-47879000D03*
X36195000Y-54229000D03*
X41275000Y-41529000D03*
X41275000Y-35179000D03*
X31115000Y-41529000D03*
X41275000Y-47879000D03*
X41275000Y-54229000D03*
X46355000Y-41529000D03*
X46355000Y-35179000D03*
X46355000Y-47879000D03*
X46355000Y-54229000D03*
X51435000Y-35179000D03*
X26035000Y-54229000D03*
X21336000Y-54229000D03*
X26035000Y-47879000D03*
X26162000Y-35179000D03*
X21336000Y-48006000D03*
X26035000Y-41529000D03*
X51435000Y-41529000D03*
X51435000Y-47879000D03*
X51435000Y-54229000D03*
M02*
