G04 #@! TF.GenerationSoftware,KiCad,Pcbnew,(5.1.9)-1*
G04 #@! TF.CreationDate,2021-06-01T18:20:28+09:00*
G04 #@! TF.ProjectId,ramn,72616d6e-2e6b-4696-9361-645f70636258,rev?*
G04 #@! TF.SameCoordinates,Original*
G04 #@! TF.FileFunction,Paste,Top*
G04 #@! TF.FilePolarity,Positive*
%FSLAX46Y46*%
G04 Gerber Fmt 4.6, Leading zero omitted, Abs format (unit mm)*
G04 Created by KiCad (PCBNEW (5.1.9)-1) date 2021-06-01 18:20:28*
%MOMM*%
%LPD*%
G01*
G04 APERTURE LIST*
%ADD10R,0.700000X0.600000*%
%ADD11R,0.600000X0.700000*%
%ADD12R,2.700000X1.500000*%
%ADD13R,0.510000X0.700000*%
%ADD14R,0.700000X0.510000*%
%ADD15R,1.300000X0.450000*%
G04 APERTURE END LIST*
G36*
G01*
X45891000Y-53361000D02*
X45891000Y-52811000D01*
G75*
G02*
X46091000Y-52611000I200000J0D01*
G01*
X46491000Y-52611000D01*
G75*
G02*
X46691000Y-52811000I0J-200000D01*
G01*
X46691000Y-53361000D01*
G75*
G02*
X46491000Y-53561000I-200000J0D01*
G01*
X46091000Y-53561000D01*
G75*
G02*
X45891000Y-53361000I0J200000D01*
G01*
G37*
G36*
G01*
X44241000Y-53361000D02*
X44241000Y-52811000D01*
G75*
G02*
X44441000Y-52611000I200000J0D01*
G01*
X44841000Y-52611000D01*
G75*
G02*
X45041000Y-52811000I0J-200000D01*
G01*
X45041000Y-53361000D01*
G75*
G02*
X44841000Y-53561000I-200000J0D01*
G01*
X44441000Y-53561000D01*
G75*
G02*
X44241000Y-53361000I0J200000D01*
G01*
G37*
G36*
G01*
X45791000Y-51685000D02*
X45791000Y-51185000D01*
G75*
G02*
X46016000Y-50960000I225000J0D01*
G01*
X46466000Y-50960000D01*
G75*
G02*
X46691000Y-51185000I0J-225000D01*
G01*
X46691000Y-51685000D01*
G75*
G02*
X46466000Y-51910000I-225000J0D01*
G01*
X46016000Y-51910000D01*
G75*
G02*
X45791000Y-51685000I0J225000D01*
G01*
G37*
G36*
G01*
X44241000Y-51685000D02*
X44241000Y-51185000D01*
G75*
G02*
X44466000Y-50960000I225000J0D01*
G01*
X44916000Y-50960000D01*
G75*
G02*
X45141000Y-51185000I0J-225000D01*
G01*
X45141000Y-51685000D01*
G75*
G02*
X44916000Y-51910000I-225000J0D01*
G01*
X44466000Y-51910000D01*
G75*
G02*
X44241000Y-51685000I0J225000D01*
G01*
G37*
D10*
X83820000Y-58355000D03*
X83820000Y-59755000D03*
X89535000Y-86425000D03*
X89535000Y-85025000D03*
X53086000Y-86425000D03*
X53086000Y-85025000D03*
D11*
X68007000Y-64643000D03*
X69407000Y-64643000D03*
G36*
G01*
X99679999Y-63765000D02*
X100980001Y-63765000D01*
G75*
G02*
X101230000Y-64014999I0J-249999D01*
G01*
X101230000Y-64665001D01*
G75*
G02*
X100980001Y-64915000I-249999J0D01*
G01*
X99679999Y-64915000D01*
G75*
G02*
X99430000Y-64665001I0J249999D01*
G01*
X99430000Y-64014999D01*
G75*
G02*
X99679999Y-63765000I249999J0D01*
G01*
G37*
G36*
G01*
X99679999Y-60815000D02*
X100980001Y-60815000D01*
G75*
G02*
X101230000Y-61064999I0J-249999D01*
G01*
X101230000Y-61715001D01*
G75*
G02*
X100980001Y-61965000I-249999J0D01*
G01*
X99679999Y-61965000D01*
G75*
G02*
X99430000Y-61715001I0J249999D01*
G01*
X99430000Y-61064999D01*
G75*
G02*
X99679999Y-60815000I249999J0D01*
G01*
G37*
G36*
G01*
X99710001Y-76570000D02*
X98409999Y-76570000D01*
G75*
G02*
X98160000Y-76320001I0J249999D01*
G01*
X98160000Y-75669999D01*
G75*
G02*
X98409999Y-75420000I249999J0D01*
G01*
X99710001Y-75420000D01*
G75*
G02*
X99960000Y-75669999I0J-249999D01*
G01*
X99960000Y-76320001D01*
G75*
G02*
X99710001Y-76570000I-249999J0D01*
G01*
G37*
G36*
G01*
X99710001Y-79520000D02*
X98409999Y-79520000D01*
G75*
G02*
X98160000Y-79270001I0J249999D01*
G01*
X98160000Y-78619999D01*
G75*
G02*
X98409999Y-78370000I249999J0D01*
G01*
X99710001Y-78370000D01*
G75*
G02*
X99960000Y-78619999I0J-249999D01*
G01*
X99960000Y-79270001D01*
G75*
G02*
X99710001Y-79520000I-249999J0D01*
G01*
G37*
G36*
G01*
X63515001Y-76570000D02*
X62214999Y-76570000D01*
G75*
G02*
X61965000Y-76320001I0J249999D01*
G01*
X61965000Y-75669999D01*
G75*
G02*
X62214999Y-75420000I249999J0D01*
G01*
X63515001Y-75420000D01*
G75*
G02*
X63765000Y-75669999I0J-249999D01*
G01*
X63765000Y-76320001D01*
G75*
G02*
X63515001Y-76570000I-249999J0D01*
G01*
G37*
G36*
G01*
X63515001Y-79520000D02*
X62214999Y-79520000D01*
G75*
G02*
X61965000Y-79270001I0J249999D01*
G01*
X61965000Y-78619999D01*
G75*
G02*
X62214999Y-78370000I249999J0D01*
G01*
X63515001Y-78370000D01*
G75*
G02*
X63765000Y-78619999I0J-249999D01*
G01*
X63765000Y-79270001D01*
G75*
G02*
X63515001Y-79520000I-249999J0D01*
G01*
G37*
G36*
G01*
X66940000Y-62245001D02*
X66940000Y-60944999D01*
G75*
G02*
X67189999Y-60695000I249999J0D01*
G01*
X67840001Y-60695000D01*
G75*
G02*
X68090000Y-60944999I0J-249999D01*
G01*
X68090000Y-62245001D01*
G75*
G02*
X67840001Y-62495000I-249999J0D01*
G01*
X67189999Y-62495000D01*
G75*
G02*
X66940000Y-62245001I0J249999D01*
G01*
G37*
G36*
G01*
X63990000Y-62245001D02*
X63990000Y-60944999D01*
G75*
G02*
X64239999Y-60695000I249999J0D01*
G01*
X64890001Y-60695000D01*
G75*
G02*
X65140000Y-60944999I0J-249999D01*
G01*
X65140000Y-62245001D01*
G75*
G02*
X64890001Y-62495000I-249999J0D01*
G01*
X64239999Y-62495000D01*
G75*
G02*
X63990000Y-62245001I0J249999D01*
G01*
G37*
G36*
G01*
X50017000Y-64053000D02*
X50567000Y-64053000D01*
G75*
G02*
X50767000Y-64253000I0J-200000D01*
G01*
X50767000Y-64653000D01*
G75*
G02*
X50567000Y-64853000I-200000J0D01*
G01*
X50017000Y-64853000D01*
G75*
G02*
X49817000Y-64653000I0J200000D01*
G01*
X49817000Y-64253000D01*
G75*
G02*
X50017000Y-64053000I200000J0D01*
G01*
G37*
G36*
G01*
X50017000Y-65703000D02*
X50567000Y-65703000D01*
G75*
G02*
X50767000Y-65903000I0J-200000D01*
G01*
X50767000Y-66303000D01*
G75*
G02*
X50567000Y-66503000I-200000J0D01*
G01*
X50017000Y-66503000D01*
G75*
G02*
X49817000Y-66303000I0J200000D01*
G01*
X49817000Y-65903000D01*
G75*
G02*
X50017000Y-65703000I200000J0D01*
G01*
G37*
G36*
G01*
X52091000Y-66503000D02*
X51541000Y-66503000D01*
G75*
G02*
X51341000Y-66303000I0J200000D01*
G01*
X51341000Y-65903000D01*
G75*
G02*
X51541000Y-65703000I200000J0D01*
G01*
X52091000Y-65703000D01*
G75*
G02*
X52291000Y-65903000I0J-200000D01*
G01*
X52291000Y-66303000D01*
G75*
G02*
X52091000Y-66503000I-200000J0D01*
G01*
G37*
G36*
G01*
X52091000Y-64853000D02*
X51541000Y-64853000D01*
G75*
G02*
X51341000Y-64653000I0J200000D01*
G01*
X51341000Y-64253000D01*
G75*
G02*
X51541000Y-64053000I200000J0D01*
G01*
X52091000Y-64053000D01*
G75*
G02*
X52291000Y-64253000I0J-200000D01*
G01*
X52291000Y-64653000D01*
G75*
G02*
X52091000Y-64853000I-200000J0D01*
G01*
G37*
G36*
G01*
X77213750Y-67660000D02*
X77726250Y-67660000D01*
G75*
G02*
X77945000Y-67878750I0J-218750D01*
G01*
X77945000Y-68316250D01*
G75*
G02*
X77726250Y-68535000I-218750J0D01*
G01*
X77213750Y-68535000D01*
G75*
G02*
X76995000Y-68316250I0J218750D01*
G01*
X76995000Y-67878750D01*
G75*
G02*
X77213750Y-67660000I218750J0D01*
G01*
G37*
G36*
G01*
X77213750Y-66085000D02*
X77726250Y-66085000D01*
G75*
G02*
X77945000Y-66303750I0J-218750D01*
G01*
X77945000Y-66741250D01*
G75*
G02*
X77726250Y-66960000I-218750J0D01*
G01*
X77213750Y-66960000D01*
G75*
G02*
X76995000Y-66741250I0J218750D01*
G01*
X76995000Y-66303750D01*
G75*
G02*
X77213750Y-66085000I218750J0D01*
G01*
G37*
G36*
G01*
X96649250Y-77755000D02*
X96136750Y-77755000D01*
G75*
G02*
X95918000Y-77536250I0J218750D01*
G01*
X95918000Y-77098750D01*
G75*
G02*
X96136750Y-76880000I218750J0D01*
G01*
X96649250Y-76880000D01*
G75*
G02*
X96868000Y-77098750I0J-218750D01*
G01*
X96868000Y-77536250D01*
G75*
G02*
X96649250Y-77755000I-218750J0D01*
G01*
G37*
G36*
G01*
X96649250Y-79330000D02*
X96136750Y-79330000D01*
G75*
G02*
X95918000Y-79111250I0J218750D01*
G01*
X95918000Y-78673750D01*
G75*
G02*
X96136750Y-78455000I218750J0D01*
G01*
X96649250Y-78455000D01*
G75*
G02*
X96868000Y-78673750I0J-218750D01*
G01*
X96868000Y-79111250D01*
G75*
G02*
X96649250Y-79330000I-218750J0D01*
G01*
G37*
G36*
G01*
X60327250Y-79330000D02*
X59814750Y-79330000D01*
G75*
G02*
X59596000Y-79111250I0J218750D01*
G01*
X59596000Y-78673750D01*
G75*
G02*
X59814750Y-78455000I218750J0D01*
G01*
X60327250Y-78455000D01*
G75*
G02*
X60546000Y-78673750I0J-218750D01*
G01*
X60546000Y-79111250D01*
G75*
G02*
X60327250Y-79330000I-218750J0D01*
G01*
G37*
G36*
G01*
X60327250Y-77755000D02*
X59814750Y-77755000D01*
G75*
G02*
X59596000Y-77536250I0J218750D01*
G01*
X59596000Y-77098750D01*
G75*
G02*
X59814750Y-76880000I218750J0D01*
G01*
X60327250Y-76880000D01*
G75*
G02*
X60546000Y-77098750I0J-218750D01*
G01*
X60546000Y-77536250D01*
G75*
G02*
X60327250Y-77755000I-218750J0D01*
G01*
G37*
G36*
G01*
X74673750Y-87980000D02*
X75186250Y-87980000D01*
G75*
G02*
X75405000Y-88198750I0J-218750D01*
G01*
X75405000Y-88636250D01*
G75*
G02*
X75186250Y-88855000I-218750J0D01*
G01*
X74673750Y-88855000D01*
G75*
G02*
X74455000Y-88636250I0J218750D01*
G01*
X74455000Y-88198750D01*
G75*
G02*
X74673750Y-87980000I218750J0D01*
G01*
G37*
G36*
G01*
X74673750Y-86405000D02*
X75186250Y-86405000D01*
G75*
G02*
X75405000Y-86623750I0J-218750D01*
G01*
X75405000Y-87061250D01*
G75*
G02*
X75186250Y-87280000I-218750J0D01*
G01*
X74673750Y-87280000D01*
G75*
G02*
X74455000Y-87061250I0J218750D01*
G01*
X74455000Y-86623750D01*
G75*
G02*
X74673750Y-86405000I218750J0D01*
G01*
G37*
G36*
G01*
X65585000Y-79240000D02*
X65585000Y-79090000D01*
G75*
G02*
X65660000Y-79015000I75000J0D01*
G01*
X66985000Y-79015000D01*
G75*
G02*
X67060000Y-79090000I0J-75000D01*
G01*
X67060000Y-79240000D01*
G75*
G02*
X66985000Y-79315000I-75000J0D01*
G01*
X65660000Y-79315000D01*
G75*
G02*
X65585000Y-79240000I0J75000D01*
G01*
G37*
G36*
G01*
X65585000Y-79740000D02*
X65585000Y-79590000D01*
G75*
G02*
X65660000Y-79515000I75000J0D01*
G01*
X66985000Y-79515000D01*
G75*
G02*
X67060000Y-79590000I0J-75000D01*
G01*
X67060000Y-79740000D01*
G75*
G02*
X66985000Y-79815000I-75000J0D01*
G01*
X65660000Y-79815000D01*
G75*
G02*
X65585000Y-79740000I0J75000D01*
G01*
G37*
G36*
G01*
X65585000Y-80240000D02*
X65585000Y-80090000D01*
G75*
G02*
X65660000Y-80015000I75000J0D01*
G01*
X66985000Y-80015000D01*
G75*
G02*
X67060000Y-80090000I0J-75000D01*
G01*
X67060000Y-80240000D01*
G75*
G02*
X66985000Y-80315000I-75000J0D01*
G01*
X65660000Y-80315000D01*
G75*
G02*
X65585000Y-80240000I0J75000D01*
G01*
G37*
G36*
G01*
X65585000Y-80740000D02*
X65585000Y-80590000D01*
G75*
G02*
X65660000Y-80515000I75000J0D01*
G01*
X66985000Y-80515000D01*
G75*
G02*
X67060000Y-80590000I0J-75000D01*
G01*
X67060000Y-80740000D01*
G75*
G02*
X66985000Y-80815000I-75000J0D01*
G01*
X65660000Y-80815000D01*
G75*
G02*
X65585000Y-80740000I0J75000D01*
G01*
G37*
G36*
G01*
X65585000Y-81240000D02*
X65585000Y-81090000D01*
G75*
G02*
X65660000Y-81015000I75000J0D01*
G01*
X66985000Y-81015000D01*
G75*
G02*
X67060000Y-81090000I0J-75000D01*
G01*
X67060000Y-81240000D01*
G75*
G02*
X66985000Y-81315000I-75000J0D01*
G01*
X65660000Y-81315000D01*
G75*
G02*
X65585000Y-81240000I0J75000D01*
G01*
G37*
G36*
G01*
X65585000Y-81740000D02*
X65585000Y-81590000D01*
G75*
G02*
X65660000Y-81515000I75000J0D01*
G01*
X66985000Y-81515000D01*
G75*
G02*
X67060000Y-81590000I0J-75000D01*
G01*
X67060000Y-81740000D01*
G75*
G02*
X66985000Y-81815000I-75000J0D01*
G01*
X65660000Y-81815000D01*
G75*
G02*
X65585000Y-81740000I0J75000D01*
G01*
G37*
G36*
G01*
X65585000Y-82240000D02*
X65585000Y-82090000D01*
G75*
G02*
X65660000Y-82015000I75000J0D01*
G01*
X66985000Y-82015000D01*
G75*
G02*
X67060000Y-82090000I0J-75000D01*
G01*
X67060000Y-82240000D01*
G75*
G02*
X66985000Y-82315000I-75000J0D01*
G01*
X65660000Y-82315000D01*
G75*
G02*
X65585000Y-82240000I0J75000D01*
G01*
G37*
G36*
G01*
X65585000Y-82740000D02*
X65585000Y-82590000D01*
G75*
G02*
X65660000Y-82515000I75000J0D01*
G01*
X66985000Y-82515000D01*
G75*
G02*
X67060000Y-82590000I0J-75000D01*
G01*
X67060000Y-82740000D01*
G75*
G02*
X66985000Y-82815000I-75000J0D01*
G01*
X65660000Y-82815000D01*
G75*
G02*
X65585000Y-82740000I0J75000D01*
G01*
G37*
G36*
G01*
X65585000Y-83240000D02*
X65585000Y-83090000D01*
G75*
G02*
X65660000Y-83015000I75000J0D01*
G01*
X66985000Y-83015000D01*
G75*
G02*
X67060000Y-83090000I0J-75000D01*
G01*
X67060000Y-83240000D01*
G75*
G02*
X66985000Y-83315000I-75000J0D01*
G01*
X65660000Y-83315000D01*
G75*
G02*
X65585000Y-83240000I0J75000D01*
G01*
G37*
G36*
G01*
X65585000Y-83740000D02*
X65585000Y-83590000D01*
G75*
G02*
X65660000Y-83515000I75000J0D01*
G01*
X66985000Y-83515000D01*
G75*
G02*
X67060000Y-83590000I0J-75000D01*
G01*
X67060000Y-83740000D01*
G75*
G02*
X66985000Y-83815000I-75000J0D01*
G01*
X65660000Y-83815000D01*
G75*
G02*
X65585000Y-83740000I0J75000D01*
G01*
G37*
G36*
G01*
X65585000Y-84240000D02*
X65585000Y-84090000D01*
G75*
G02*
X65660000Y-84015000I75000J0D01*
G01*
X66985000Y-84015000D01*
G75*
G02*
X67060000Y-84090000I0J-75000D01*
G01*
X67060000Y-84240000D01*
G75*
G02*
X66985000Y-84315000I-75000J0D01*
G01*
X65660000Y-84315000D01*
G75*
G02*
X65585000Y-84240000I0J75000D01*
G01*
G37*
G36*
G01*
X65585000Y-84740000D02*
X65585000Y-84590000D01*
G75*
G02*
X65660000Y-84515000I75000J0D01*
G01*
X66985000Y-84515000D01*
G75*
G02*
X67060000Y-84590000I0J-75000D01*
G01*
X67060000Y-84740000D01*
G75*
G02*
X66985000Y-84815000I-75000J0D01*
G01*
X65660000Y-84815000D01*
G75*
G02*
X65585000Y-84740000I0J75000D01*
G01*
G37*
G36*
G01*
X67585000Y-86740000D02*
X67585000Y-85415000D01*
G75*
G02*
X67660000Y-85340000I75000J0D01*
G01*
X67810000Y-85340000D01*
G75*
G02*
X67885000Y-85415000I0J-75000D01*
G01*
X67885000Y-86740000D01*
G75*
G02*
X67810000Y-86815000I-75000J0D01*
G01*
X67660000Y-86815000D01*
G75*
G02*
X67585000Y-86740000I0J75000D01*
G01*
G37*
G36*
G01*
X68085000Y-86740000D02*
X68085000Y-85415000D01*
G75*
G02*
X68160000Y-85340000I75000J0D01*
G01*
X68310000Y-85340000D01*
G75*
G02*
X68385000Y-85415000I0J-75000D01*
G01*
X68385000Y-86740000D01*
G75*
G02*
X68310000Y-86815000I-75000J0D01*
G01*
X68160000Y-86815000D01*
G75*
G02*
X68085000Y-86740000I0J75000D01*
G01*
G37*
G36*
G01*
X68585000Y-86740000D02*
X68585000Y-85415000D01*
G75*
G02*
X68660000Y-85340000I75000J0D01*
G01*
X68810000Y-85340000D01*
G75*
G02*
X68885000Y-85415000I0J-75000D01*
G01*
X68885000Y-86740000D01*
G75*
G02*
X68810000Y-86815000I-75000J0D01*
G01*
X68660000Y-86815000D01*
G75*
G02*
X68585000Y-86740000I0J75000D01*
G01*
G37*
G36*
G01*
X69085000Y-86740000D02*
X69085000Y-85415000D01*
G75*
G02*
X69160000Y-85340000I75000J0D01*
G01*
X69310000Y-85340000D01*
G75*
G02*
X69385000Y-85415000I0J-75000D01*
G01*
X69385000Y-86740000D01*
G75*
G02*
X69310000Y-86815000I-75000J0D01*
G01*
X69160000Y-86815000D01*
G75*
G02*
X69085000Y-86740000I0J75000D01*
G01*
G37*
G36*
G01*
X69585000Y-86740000D02*
X69585000Y-85415000D01*
G75*
G02*
X69660000Y-85340000I75000J0D01*
G01*
X69810000Y-85340000D01*
G75*
G02*
X69885000Y-85415000I0J-75000D01*
G01*
X69885000Y-86740000D01*
G75*
G02*
X69810000Y-86815000I-75000J0D01*
G01*
X69660000Y-86815000D01*
G75*
G02*
X69585000Y-86740000I0J75000D01*
G01*
G37*
G36*
G01*
X70085000Y-86740000D02*
X70085000Y-85415000D01*
G75*
G02*
X70160000Y-85340000I75000J0D01*
G01*
X70310000Y-85340000D01*
G75*
G02*
X70385000Y-85415000I0J-75000D01*
G01*
X70385000Y-86740000D01*
G75*
G02*
X70310000Y-86815000I-75000J0D01*
G01*
X70160000Y-86815000D01*
G75*
G02*
X70085000Y-86740000I0J75000D01*
G01*
G37*
G36*
G01*
X70585000Y-86740000D02*
X70585000Y-85415000D01*
G75*
G02*
X70660000Y-85340000I75000J0D01*
G01*
X70810000Y-85340000D01*
G75*
G02*
X70885000Y-85415000I0J-75000D01*
G01*
X70885000Y-86740000D01*
G75*
G02*
X70810000Y-86815000I-75000J0D01*
G01*
X70660000Y-86815000D01*
G75*
G02*
X70585000Y-86740000I0J75000D01*
G01*
G37*
G36*
G01*
X71085000Y-86740000D02*
X71085000Y-85415000D01*
G75*
G02*
X71160000Y-85340000I75000J0D01*
G01*
X71310000Y-85340000D01*
G75*
G02*
X71385000Y-85415000I0J-75000D01*
G01*
X71385000Y-86740000D01*
G75*
G02*
X71310000Y-86815000I-75000J0D01*
G01*
X71160000Y-86815000D01*
G75*
G02*
X71085000Y-86740000I0J75000D01*
G01*
G37*
G36*
G01*
X71585000Y-86740000D02*
X71585000Y-85415000D01*
G75*
G02*
X71660000Y-85340000I75000J0D01*
G01*
X71810000Y-85340000D01*
G75*
G02*
X71885000Y-85415000I0J-75000D01*
G01*
X71885000Y-86740000D01*
G75*
G02*
X71810000Y-86815000I-75000J0D01*
G01*
X71660000Y-86815000D01*
G75*
G02*
X71585000Y-86740000I0J75000D01*
G01*
G37*
G36*
G01*
X72085000Y-86740000D02*
X72085000Y-85415000D01*
G75*
G02*
X72160000Y-85340000I75000J0D01*
G01*
X72310000Y-85340000D01*
G75*
G02*
X72385000Y-85415000I0J-75000D01*
G01*
X72385000Y-86740000D01*
G75*
G02*
X72310000Y-86815000I-75000J0D01*
G01*
X72160000Y-86815000D01*
G75*
G02*
X72085000Y-86740000I0J75000D01*
G01*
G37*
G36*
G01*
X72585000Y-86740000D02*
X72585000Y-85415000D01*
G75*
G02*
X72660000Y-85340000I75000J0D01*
G01*
X72810000Y-85340000D01*
G75*
G02*
X72885000Y-85415000I0J-75000D01*
G01*
X72885000Y-86740000D01*
G75*
G02*
X72810000Y-86815000I-75000J0D01*
G01*
X72660000Y-86815000D01*
G75*
G02*
X72585000Y-86740000I0J75000D01*
G01*
G37*
G36*
G01*
X73085000Y-86740000D02*
X73085000Y-85415000D01*
G75*
G02*
X73160000Y-85340000I75000J0D01*
G01*
X73310000Y-85340000D01*
G75*
G02*
X73385000Y-85415000I0J-75000D01*
G01*
X73385000Y-86740000D01*
G75*
G02*
X73310000Y-86815000I-75000J0D01*
G01*
X73160000Y-86815000D01*
G75*
G02*
X73085000Y-86740000I0J75000D01*
G01*
G37*
G36*
G01*
X73910000Y-84740000D02*
X73910000Y-84590000D01*
G75*
G02*
X73985000Y-84515000I75000J0D01*
G01*
X75310000Y-84515000D01*
G75*
G02*
X75385000Y-84590000I0J-75000D01*
G01*
X75385000Y-84740000D01*
G75*
G02*
X75310000Y-84815000I-75000J0D01*
G01*
X73985000Y-84815000D01*
G75*
G02*
X73910000Y-84740000I0J75000D01*
G01*
G37*
G36*
G01*
X73910000Y-84240000D02*
X73910000Y-84090000D01*
G75*
G02*
X73985000Y-84015000I75000J0D01*
G01*
X75310000Y-84015000D01*
G75*
G02*
X75385000Y-84090000I0J-75000D01*
G01*
X75385000Y-84240000D01*
G75*
G02*
X75310000Y-84315000I-75000J0D01*
G01*
X73985000Y-84315000D01*
G75*
G02*
X73910000Y-84240000I0J75000D01*
G01*
G37*
G36*
G01*
X73910000Y-83740000D02*
X73910000Y-83590000D01*
G75*
G02*
X73985000Y-83515000I75000J0D01*
G01*
X75310000Y-83515000D01*
G75*
G02*
X75385000Y-83590000I0J-75000D01*
G01*
X75385000Y-83740000D01*
G75*
G02*
X75310000Y-83815000I-75000J0D01*
G01*
X73985000Y-83815000D01*
G75*
G02*
X73910000Y-83740000I0J75000D01*
G01*
G37*
G36*
G01*
X73910000Y-83240000D02*
X73910000Y-83090000D01*
G75*
G02*
X73985000Y-83015000I75000J0D01*
G01*
X75310000Y-83015000D01*
G75*
G02*
X75385000Y-83090000I0J-75000D01*
G01*
X75385000Y-83240000D01*
G75*
G02*
X75310000Y-83315000I-75000J0D01*
G01*
X73985000Y-83315000D01*
G75*
G02*
X73910000Y-83240000I0J75000D01*
G01*
G37*
G36*
G01*
X73910000Y-82740000D02*
X73910000Y-82590000D01*
G75*
G02*
X73985000Y-82515000I75000J0D01*
G01*
X75310000Y-82515000D01*
G75*
G02*
X75385000Y-82590000I0J-75000D01*
G01*
X75385000Y-82740000D01*
G75*
G02*
X75310000Y-82815000I-75000J0D01*
G01*
X73985000Y-82815000D01*
G75*
G02*
X73910000Y-82740000I0J75000D01*
G01*
G37*
G36*
G01*
X73910000Y-82240000D02*
X73910000Y-82090000D01*
G75*
G02*
X73985000Y-82015000I75000J0D01*
G01*
X75310000Y-82015000D01*
G75*
G02*
X75385000Y-82090000I0J-75000D01*
G01*
X75385000Y-82240000D01*
G75*
G02*
X75310000Y-82315000I-75000J0D01*
G01*
X73985000Y-82315000D01*
G75*
G02*
X73910000Y-82240000I0J75000D01*
G01*
G37*
G36*
G01*
X73910000Y-81740000D02*
X73910000Y-81590000D01*
G75*
G02*
X73985000Y-81515000I75000J0D01*
G01*
X75310000Y-81515000D01*
G75*
G02*
X75385000Y-81590000I0J-75000D01*
G01*
X75385000Y-81740000D01*
G75*
G02*
X75310000Y-81815000I-75000J0D01*
G01*
X73985000Y-81815000D01*
G75*
G02*
X73910000Y-81740000I0J75000D01*
G01*
G37*
G36*
G01*
X73910000Y-81240000D02*
X73910000Y-81090000D01*
G75*
G02*
X73985000Y-81015000I75000J0D01*
G01*
X75310000Y-81015000D01*
G75*
G02*
X75385000Y-81090000I0J-75000D01*
G01*
X75385000Y-81240000D01*
G75*
G02*
X75310000Y-81315000I-75000J0D01*
G01*
X73985000Y-81315000D01*
G75*
G02*
X73910000Y-81240000I0J75000D01*
G01*
G37*
G36*
G01*
X73910000Y-80740000D02*
X73910000Y-80590000D01*
G75*
G02*
X73985000Y-80515000I75000J0D01*
G01*
X75310000Y-80515000D01*
G75*
G02*
X75385000Y-80590000I0J-75000D01*
G01*
X75385000Y-80740000D01*
G75*
G02*
X75310000Y-80815000I-75000J0D01*
G01*
X73985000Y-80815000D01*
G75*
G02*
X73910000Y-80740000I0J75000D01*
G01*
G37*
G36*
G01*
X73910000Y-80240000D02*
X73910000Y-80090000D01*
G75*
G02*
X73985000Y-80015000I75000J0D01*
G01*
X75310000Y-80015000D01*
G75*
G02*
X75385000Y-80090000I0J-75000D01*
G01*
X75385000Y-80240000D01*
G75*
G02*
X75310000Y-80315000I-75000J0D01*
G01*
X73985000Y-80315000D01*
G75*
G02*
X73910000Y-80240000I0J75000D01*
G01*
G37*
G36*
G01*
X73910000Y-79740000D02*
X73910000Y-79590000D01*
G75*
G02*
X73985000Y-79515000I75000J0D01*
G01*
X75310000Y-79515000D01*
G75*
G02*
X75385000Y-79590000I0J-75000D01*
G01*
X75385000Y-79740000D01*
G75*
G02*
X75310000Y-79815000I-75000J0D01*
G01*
X73985000Y-79815000D01*
G75*
G02*
X73910000Y-79740000I0J75000D01*
G01*
G37*
G36*
G01*
X73910000Y-79240000D02*
X73910000Y-79090000D01*
G75*
G02*
X73985000Y-79015000I75000J0D01*
G01*
X75310000Y-79015000D01*
G75*
G02*
X75385000Y-79090000I0J-75000D01*
G01*
X75385000Y-79240000D01*
G75*
G02*
X75310000Y-79315000I-75000J0D01*
G01*
X73985000Y-79315000D01*
G75*
G02*
X73910000Y-79240000I0J75000D01*
G01*
G37*
G36*
G01*
X73085000Y-78415000D02*
X73085000Y-77090000D01*
G75*
G02*
X73160000Y-77015000I75000J0D01*
G01*
X73310000Y-77015000D01*
G75*
G02*
X73385000Y-77090000I0J-75000D01*
G01*
X73385000Y-78415000D01*
G75*
G02*
X73310000Y-78490000I-75000J0D01*
G01*
X73160000Y-78490000D01*
G75*
G02*
X73085000Y-78415000I0J75000D01*
G01*
G37*
G36*
G01*
X72585000Y-78415000D02*
X72585000Y-77090000D01*
G75*
G02*
X72660000Y-77015000I75000J0D01*
G01*
X72810000Y-77015000D01*
G75*
G02*
X72885000Y-77090000I0J-75000D01*
G01*
X72885000Y-78415000D01*
G75*
G02*
X72810000Y-78490000I-75000J0D01*
G01*
X72660000Y-78490000D01*
G75*
G02*
X72585000Y-78415000I0J75000D01*
G01*
G37*
G36*
G01*
X72085000Y-78415000D02*
X72085000Y-77090000D01*
G75*
G02*
X72160000Y-77015000I75000J0D01*
G01*
X72310000Y-77015000D01*
G75*
G02*
X72385000Y-77090000I0J-75000D01*
G01*
X72385000Y-78415000D01*
G75*
G02*
X72310000Y-78490000I-75000J0D01*
G01*
X72160000Y-78490000D01*
G75*
G02*
X72085000Y-78415000I0J75000D01*
G01*
G37*
G36*
G01*
X71585000Y-78415000D02*
X71585000Y-77090000D01*
G75*
G02*
X71660000Y-77015000I75000J0D01*
G01*
X71810000Y-77015000D01*
G75*
G02*
X71885000Y-77090000I0J-75000D01*
G01*
X71885000Y-78415000D01*
G75*
G02*
X71810000Y-78490000I-75000J0D01*
G01*
X71660000Y-78490000D01*
G75*
G02*
X71585000Y-78415000I0J75000D01*
G01*
G37*
G36*
G01*
X71085000Y-78415000D02*
X71085000Y-77090000D01*
G75*
G02*
X71160000Y-77015000I75000J0D01*
G01*
X71310000Y-77015000D01*
G75*
G02*
X71385000Y-77090000I0J-75000D01*
G01*
X71385000Y-78415000D01*
G75*
G02*
X71310000Y-78490000I-75000J0D01*
G01*
X71160000Y-78490000D01*
G75*
G02*
X71085000Y-78415000I0J75000D01*
G01*
G37*
G36*
G01*
X70585000Y-78415000D02*
X70585000Y-77090000D01*
G75*
G02*
X70660000Y-77015000I75000J0D01*
G01*
X70810000Y-77015000D01*
G75*
G02*
X70885000Y-77090000I0J-75000D01*
G01*
X70885000Y-78415000D01*
G75*
G02*
X70810000Y-78490000I-75000J0D01*
G01*
X70660000Y-78490000D01*
G75*
G02*
X70585000Y-78415000I0J75000D01*
G01*
G37*
G36*
G01*
X70085000Y-78415000D02*
X70085000Y-77090000D01*
G75*
G02*
X70160000Y-77015000I75000J0D01*
G01*
X70310000Y-77015000D01*
G75*
G02*
X70385000Y-77090000I0J-75000D01*
G01*
X70385000Y-78415000D01*
G75*
G02*
X70310000Y-78490000I-75000J0D01*
G01*
X70160000Y-78490000D01*
G75*
G02*
X70085000Y-78415000I0J75000D01*
G01*
G37*
G36*
G01*
X69585000Y-78415000D02*
X69585000Y-77090000D01*
G75*
G02*
X69660000Y-77015000I75000J0D01*
G01*
X69810000Y-77015000D01*
G75*
G02*
X69885000Y-77090000I0J-75000D01*
G01*
X69885000Y-78415000D01*
G75*
G02*
X69810000Y-78490000I-75000J0D01*
G01*
X69660000Y-78490000D01*
G75*
G02*
X69585000Y-78415000I0J75000D01*
G01*
G37*
G36*
G01*
X69085000Y-78415000D02*
X69085000Y-77090000D01*
G75*
G02*
X69160000Y-77015000I75000J0D01*
G01*
X69310000Y-77015000D01*
G75*
G02*
X69385000Y-77090000I0J-75000D01*
G01*
X69385000Y-78415000D01*
G75*
G02*
X69310000Y-78490000I-75000J0D01*
G01*
X69160000Y-78490000D01*
G75*
G02*
X69085000Y-78415000I0J75000D01*
G01*
G37*
G36*
G01*
X68585000Y-78415000D02*
X68585000Y-77090000D01*
G75*
G02*
X68660000Y-77015000I75000J0D01*
G01*
X68810000Y-77015000D01*
G75*
G02*
X68885000Y-77090000I0J-75000D01*
G01*
X68885000Y-78415000D01*
G75*
G02*
X68810000Y-78490000I-75000J0D01*
G01*
X68660000Y-78490000D01*
G75*
G02*
X68585000Y-78415000I0J75000D01*
G01*
G37*
G36*
G01*
X68085000Y-78415000D02*
X68085000Y-77090000D01*
G75*
G02*
X68160000Y-77015000I75000J0D01*
G01*
X68310000Y-77015000D01*
G75*
G02*
X68385000Y-77090000I0J-75000D01*
G01*
X68385000Y-78415000D01*
G75*
G02*
X68310000Y-78490000I-75000J0D01*
G01*
X68160000Y-78490000D01*
G75*
G02*
X68085000Y-78415000I0J75000D01*
G01*
G37*
G36*
G01*
X67585000Y-78415000D02*
X67585000Y-77090000D01*
G75*
G02*
X67660000Y-77015000I75000J0D01*
G01*
X67810000Y-77015000D01*
G75*
G02*
X67885000Y-77090000I0J-75000D01*
G01*
X67885000Y-78415000D01*
G75*
G02*
X67810000Y-78490000I-75000J0D01*
G01*
X67660000Y-78490000D01*
G75*
G02*
X67585000Y-78415000I0J75000D01*
G01*
G37*
D12*
X103505000Y-57465000D03*
X103505000Y-55565000D03*
X96520000Y-83378000D03*
X96520000Y-85278000D03*
X60325000Y-85278000D03*
X60325000Y-83378000D03*
X69215000Y-55565000D03*
X69215000Y-57465000D03*
G36*
G01*
X103780000Y-78415000D02*
X103780000Y-77090000D01*
G75*
G02*
X103855000Y-77015000I75000J0D01*
G01*
X104005000Y-77015000D01*
G75*
G02*
X104080000Y-77090000I0J-75000D01*
G01*
X104080000Y-78415000D01*
G75*
G02*
X104005000Y-78490000I-75000J0D01*
G01*
X103855000Y-78490000D01*
G75*
G02*
X103780000Y-78415000I0J75000D01*
G01*
G37*
G36*
G01*
X104280000Y-78415000D02*
X104280000Y-77090000D01*
G75*
G02*
X104355000Y-77015000I75000J0D01*
G01*
X104505000Y-77015000D01*
G75*
G02*
X104580000Y-77090000I0J-75000D01*
G01*
X104580000Y-78415000D01*
G75*
G02*
X104505000Y-78490000I-75000J0D01*
G01*
X104355000Y-78490000D01*
G75*
G02*
X104280000Y-78415000I0J75000D01*
G01*
G37*
G36*
G01*
X104780000Y-78415000D02*
X104780000Y-77090000D01*
G75*
G02*
X104855000Y-77015000I75000J0D01*
G01*
X105005000Y-77015000D01*
G75*
G02*
X105080000Y-77090000I0J-75000D01*
G01*
X105080000Y-78415000D01*
G75*
G02*
X105005000Y-78490000I-75000J0D01*
G01*
X104855000Y-78490000D01*
G75*
G02*
X104780000Y-78415000I0J75000D01*
G01*
G37*
G36*
G01*
X105280000Y-78415000D02*
X105280000Y-77090000D01*
G75*
G02*
X105355000Y-77015000I75000J0D01*
G01*
X105505000Y-77015000D01*
G75*
G02*
X105580000Y-77090000I0J-75000D01*
G01*
X105580000Y-78415000D01*
G75*
G02*
X105505000Y-78490000I-75000J0D01*
G01*
X105355000Y-78490000D01*
G75*
G02*
X105280000Y-78415000I0J75000D01*
G01*
G37*
G36*
G01*
X105780000Y-78415000D02*
X105780000Y-77090000D01*
G75*
G02*
X105855000Y-77015000I75000J0D01*
G01*
X106005000Y-77015000D01*
G75*
G02*
X106080000Y-77090000I0J-75000D01*
G01*
X106080000Y-78415000D01*
G75*
G02*
X106005000Y-78490000I-75000J0D01*
G01*
X105855000Y-78490000D01*
G75*
G02*
X105780000Y-78415000I0J75000D01*
G01*
G37*
G36*
G01*
X106280000Y-78415000D02*
X106280000Y-77090000D01*
G75*
G02*
X106355000Y-77015000I75000J0D01*
G01*
X106505000Y-77015000D01*
G75*
G02*
X106580000Y-77090000I0J-75000D01*
G01*
X106580000Y-78415000D01*
G75*
G02*
X106505000Y-78490000I-75000J0D01*
G01*
X106355000Y-78490000D01*
G75*
G02*
X106280000Y-78415000I0J75000D01*
G01*
G37*
G36*
G01*
X106780000Y-78415000D02*
X106780000Y-77090000D01*
G75*
G02*
X106855000Y-77015000I75000J0D01*
G01*
X107005000Y-77015000D01*
G75*
G02*
X107080000Y-77090000I0J-75000D01*
G01*
X107080000Y-78415000D01*
G75*
G02*
X107005000Y-78490000I-75000J0D01*
G01*
X106855000Y-78490000D01*
G75*
G02*
X106780000Y-78415000I0J75000D01*
G01*
G37*
G36*
G01*
X107280000Y-78415000D02*
X107280000Y-77090000D01*
G75*
G02*
X107355000Y-77015000I75000J0D01*
G01*
X107505000Y-77015000D01*
G75*
G02*
X107580000Y-77090000I0J-75000D01*
G01*
X107580000Y-78415000D01*
G75*
G02*
X107505000Y-78490000I-75000J0D01*
G01*
X107355000Y-78490000D01*
G75*
G02*
X107280000Y-78415000I0J75000D01*
G01*
G37*
G36*
G01*
X107780000Y-78415000D02*
X107780000Y-77090000D01*
G75*
G02*
X107855000Y-77015000I75000J0D01*
G01*
X108005000Y-77015000D01*
G75*
G02*
X108080000Y-77090000I0J-75000D01*
G01*
X108080000Y-78415000D01*
G75*
G02*
X108005000Y-78490000I-75000J0D01*
G01*
X107855000Y-78490000D01*
G75*
G02*
X107780000Y-78415000I0J75000D01*
G01*
G37*
G36*
G01*
X108280000Y-78415000D02*
X108280000Y-77090000D01*
G75*
G02*
X108355000Y-77015000I75000J0D01*
G01*
X108505000Y-77015000D01*
G75*
G02*
X108580000Y-77090000I0J-75000D01*
G01*
X108580000Y-78415000D01*
G75*
G02*
X108505000Y-78490000I-75000J0D01*
G01*
X108355000Y-78490000D01*
G75*
G02*
X108280000Y-78415000I0J75000D01*
G01*
G37*
G36*
G01*
X108780000Y-78415000D02*
X108780000Y-77090000D01*
G75*
G02*
X108855000Y-77015000I75000J0D01*
G01*
X109005000Y-77015000D01*
G75*
G02*
X109080000Y-77090000I0J-75000D01*
G01*
X109080000Y-78415000D01*
G75*
G02*
X109005000Y-78490000I-75000J0D01*
G01*
X108855000Y-78490000D01*
G75*
G02*
X108780000Y-78415000I0J75000D01*
G01*
G37*
G36*
G01*
X109280000Y-78415000D02*
X109280000Y-77090000D01*
G75*
G02*
X109355000Y-77015000I75000J0D01*
G01*
X109505000Y-77015000D01*
G75*
G02*
X109580000Y-77090000I0J-75000D01*
G01*
X109580000Y-78415000D01*
G75*
G02*
X109505000Y-78490000I-75000J0D01*
G01*
X109355000Y-78490000D01*
G75*
G02*
X109280000Y-78415000I0J75000D01*
G01*
G37*
G36*
G01*
X110105000Y-79240000D02*
X110105000Y-79090000D01*
G75*
G02*
X110180000Y-79015000I75000J0D01*
G01*
X111505000Y-79015000D01*
G75*
G02*
X111580000Y-79090000I0J-75000D01*
G01*
X111580000Y-79240000D01*
G75*
G02*
X111505000Y-79315000I-75000J0D01*
G01*
X110180000Y-79315000D01*
G75*
G02*
X110105000Y-79240000I0J75000D01*
G01*
G37*
G36*
G01*
X110105000Y-79740000D02*
X110105000Y-79590000D01*
G75*
G02*
X110180000Y-79515000I75000J0D01*
G01*
X111505000Y-79515000D01*
G75*
G02*
X111580000Y-79590000I0J-75000D01*
G01*
X111580000Y-79740000D01*
G75*
G02*
X111505000Y-79815000I-75000J0D01*
G01*
X110180000Y-79815000D01*
G75*
G02*
X110105000Y-79740000I0J75000D01*
G01*
G37*
G36*
G01*
X110105000Y-80240000D02*
X110105000Y-80090000D01*
G75*
G02*
X110180000Y-80015000I75000J0D01*
G01*
X111505000Y-80015000D01*
G75*
G02*
X111580000Y-80090000I0J-75000D01*
G01*
X111580000Y-80240000D01*
G75*
G02*
X111505000Y-80315000I-75000J0D01*
G01*
X110180000Y-80315000D01*
G75*
G02*
X110105000Y-80240000I0J75000D01*
G01*
G37*
G36*
G01*
X110105000Y-80740000D02*
X110105000Y-80590000D01*
G75*
G02*
X110180000Y-80515000I75000J0D01*
G01*
X111505000Y-80515000D01*
G75*
G02*
X111580000Y-80590000I0J-75000D01*
G01*
X111580000Y-80740000D01*
G75*
G02*
X111505000Y-80815000I-75000J0D01*
G01*
X110180000Y-80815000D01*
G75*
G02*
X110105000Y-80740000I0J75000D01*
G01*
G37*
G36*
G01*
X110105000Y-81240000D02*
X110105000Y-81090000D01*
G75*
G02*
X110180000Y-81015000I75000J0D01*
G01*
X111505000Y-81015000D01*
G75*
G02*
X111580000Y-81090000I0J-75000D01*
G01*
X111580000Y-81240000D01*
G75*
G02*
X111505000Y-81315000I-75000J0D01*
G01*
X110180000Y-81315000D01*
G75*
G02*
X110105000Y-81240000I0J75000D01*
G01*
G37*
G36*
G01*
X110105000Y-81740000D02*
X110105000Y-81590000D01*
G75*
G02*
X110180000Y-81515000I75000J0D01*
G01*
X111505000Y-81515000D01*
G75*
G02*
X111580000Y-81590000I0J-75000D01*
G01*
X111580000Y-81740000D01*
G75*
G02*
X111505000Y-81815000I-75000J0D01*
G01*
X110180000Y-81815000D01*
G75*
G02*
X110105000Y-81740000I0J75000D01*
G01*
G37*
G36*
G01*
X110105000Y-82240000D02*
X110105000Y-82090000D01*
G75*
G02*
X110180000Y-82015000I75000J0D01*
G01*
X111505000Y-82015000D01*
G75*
G02*
X111580000Y-82090000I0J-75000D01*
G01*
X111580000Y-82240000D01*
G75*
G02*
X111505000Y-82315000I-75000J0D01*
G01*
X110180000Y-82315000D01*
G75*
G02*
X110105000Y-82240000I0J75000D01*
G01*
G37*
G36*
G01*
X110105000Y-82740000D02*
X110105000Y-82590000D01*
G75*
G02*
X110180000Y-82515000I75000J0D01*
G01*
X111505000Y-82515000D01*
G75*
G02*
X111580000Y-82590000I0J-75000D01*
G01*
X111580000Y-82740000D01*
G75*
G02*
X111505000Y-82815000I-75000J0D01*
G01*
X110180000Y-82815000D01*
G75*
G02*
X110105000Y-82740000I0J75000D01*
G01*
G37*
G36*
G01*
X110105000Y-83240000D02*
X110105000Y-83090000D01*
G75*
G02*
X110180000Y-83015000I75000J0D01*
G01*
X111505000Y-83015000D01*
G75*
G02*
X111580000Y-83090000I0J-75000D01*
G01*
X111580000Y-83240000D01*
G75*
G02*
X111505000Y-83315000I-75000J0D01*
G01*
X110180000Y-83315000D01*
G75*
G02*
X110105000Y-83240000I0J75000D01*
G01*
G37*
G36*
G01*
X110105000Y-83740000D02*
X110105000Y-83590000D01*
G75*
G02*
X110180000Y-83515000I75000J0D01*
G01*
X111505000Y-83515000D01*
G75*
G02*
X111580000Y-83590000I0J-75000D01*
G01*
X111580000Y-83740000D01*
G75*
G02*
X111505000Y-83815000I-75000J0D01*
G01*
X110180000Y-83815000D01*
G75*
G02*
X110105000Y-83740000I0J75000D01*
G01*
G37*
G36*
G01*
X110105000Y-84240000D02*
X110105000Y-84090000D01*
G75*
G02*
X110180000Y-84015000I75000J0D01*
G01*
X111505000Y-84015000D01*
G75*
G02*
X111580000Y-84090000I0J-75000D01*
G01*
X111580000Y-84240000D01*
G75*
G02*
X111505000Y-84315000I-75000J0D01*
G01*
X110180000Y-84315000D01*
G75*
G02*
X110105000Y-84240000I0J75000D01*
G01*
G37*
G36*
G01*
X110105000Y-84740000D02*
X110105000Y-84590000D01*
G75*
G02*
X110180000Y-84515000I75000J0D01*
G01*
X111505000Y-84515000D01*
G75*
G02*
X111580000Y-84590000I0J-75000D01*
G01*
X111580000Y-84740000D01*
G75*
G02*
X111505000Y-84815000I-75000J0D01*
G01*
X110180000Y-84815000D01*
G75*
G02*
X110105000Y-84740000I0J75000D01*
G01*
G37*
G36*
G01*
X109280000Y-86740000D02*
X109280000Y-85415000D01*
G75*
G02*
X109355000Y-85340000I75000J0D01*
G01*
X109505000Y-85340000D01*
G75*
G02*
X109580000Y-85415000I0J-75000D01*
G01*
X109580000Y-86740000D01*
G75*
G02*
X109505000Y-86815000I-75000J0D01*
G01*
X109355000Y-86815000D01*
G75*
G02*
X109280000Y-86740000I0J75000D01*
G01*
G37*
G36*
G01*
X108780000Y-86740000D02*
X108780000Y-85415000D01*
G75*
G02*
X108855000Y-85340000I75000J0D01*
G01*
X109005000Y-85340000D01*
G75*
G02*
X109080000Y-85415000I0J-75000D01*
G01*
X109080000Y-86740000D01*
G75*
G02*
X109005000Y-86815000I-75000J0D01*
G01*
X108855000Y-86815000D01*
G75*
G02*
X108780000Y-86740000I0J75000D01*
G01*
G37*
G36*
G01*
X108280000Y-86740000D02*
X108280000Y-85415000D01*
G75*
G02*
X108355000Y-85340000I75000J0D01*
G01*
X108505000Y-85340000D01*
G75*
G02*
X108580000Y-85415000I0J-75000D01*
G01*
X108580000Y-86740000D01*
G75*
G02*
X108505000Y-86815000I-75000J0D01*
G01*
X108355000Y-86815000D01*
G75*
G02*
X108280000Y-86740000I0J75000D01*
G01*
G37*
G36*
G01*
X107780000Y-86740000D02*
X107780000Y-85415000D01*
G75*
G02*
X107855000Y-85340000I75000J0D01*
G01*
X108005000Y-85340000D01*
G75*
G02*
X108080000Y-85415000I0J-75000D01*
G01*
X108080000Y-86740000D01*
G75*
G02*
X108005000Y-86815000I-75000J0D01*
G01*
X107855000Y-86815000D01*
G75*
G02*
X107780000Y-86740000I0J75000D01*
G01*
G37*
G36*
G01*
X107280000Y-86740000D02*
X107280000Y-85415000D01*
G75*
G02*
X107355000Y-85340000I75000J0D01*
G01*
X107505000Y-85340000D01*
G75*
G02*
X107580000Y-85415000I0J-75000D01*
G01*
X107580000Y-86740000D01*
G75*
G02*
X107505000Y-86815000I-75000J0D01*
G01*
X107355000Y-86815000D01*
G75*
G02*
X107280000Y-86740000I0J75000D01*
G01*
G37*
G36*
G01*
X106780000Y-86740000D02*
X106780000Y-85415000D01*
G75*
G02*
X106855000Y-85340000I75000J0D01*
G01*
X107005000Y-85340000D01*
G75*
G02*
X107080000Y-85415000I0J-75000D01*
G01*
X107080000Y-86740000D01*
G75*
G02*
X107005000Y-86815000I-75000J0D01*
G01*
X106855000Y-86815000D01*
G75*
G02*
X106780000Y-86740000I0J75000D01*
G01*
G37*
G36*
G01*
X106280000Y-86740000D02*
X106280000Y-85415000D01*
G75*
G02*
X106355000Y-85340000I75000J0D01*
G01*
X106505000Y-85340000D01*
G75*
G02*
X106580000Y-85415000I0J-75000D01*
G01*
X106580000Y-86740000D01*
G75*
G02*
X106505000Y-86815000I-75000J0D01*
G01*
X106355000Y-86815000D01*
G75*
G02*
X106280000Y-86740000I0J75000D01*
G01*
G37*
G36*
G01*
X105780000Y-86740000D02*
X105780000Y-85415000D01*
G75*
G02*
X105855000Y-85340000I75000J0D01*
G01*
X106005000Y-85340000D01*
G75*
G02*
X106080000Y-85415000I0J-75000D01*
G01*
X106080000Y-86740000D01*
G75*
G02*
X106005000Y-86815000I-75000J0D01*
G01*
X105855000Y-86815000D01*
G75*
G02*
X105780000Y-86740000I0J75000D01*
G01*
G37*
G36*
G01*
X105280000Y-86740000D02*
X105280000Y-85415000D01*
G75*
G02*
X105355000Y-85340000I75000J0D01*
G01*
X105505000Y-85340000D01*
G75*
G02*
X105580000Y-85415000I0J-75000D01*
G01*
X105580000Y-86740000D01*
G75*
G02*
X105505000Y-86815000I-75000J0D01*
G01*
X105355000Y-86815000D01*
G75*
G02*
X105280000Y-86740000I0J75000D01*
G01*
G37*
G36*
G01*
X104780000Y-86740000D02*
X104780000Y-85415000D01*
G75*
G02*
X104855000Y-85340000I75000J0D01*
G01*
X105005000Y-85340000D01*
G75*
G02*
X105080000Y-85415000I0J-75000D01*
G01*
X105080000Y-86740000D01*
G75*
G02*
X105005000Y-86815000I-75000J0D01*
G01*
X104855000Y-86815000D01*
G75*
G02*
X104780000Y-86740000I0J75000D01*
G01*
G37*
G36*
G01*
X104280000Y-86740000D02*
X104280000Y-85415000D01*
G75*
G02*
X104355000Y-85340000I75000J0D01*
G01*
X104505000Y-85340000D01*
G75*
G02*
X104580000Y-85415000I0J-75000D01*
G01*
X104580000Y-86740000D01*
G75*
G02*
X104505000Y-86815000I-75000J0D01*
G01*
X104355000Y-86815000D01*
G75*
G02*
X104280000Y-86740000I0J75000D01*
G01*
G37*
G36*
G01*
X103780000Y-86740000D02*
X103780000Y-85415000D01*
G75*
G02*
X103855000Y-85340000I75000J0D01*
G01*
X104005000Y-85340000D01*
G75*
G02*
X104080000Y-85415000I0J-75000D01*
G01*
X104080000Y-86740000D01*
G75*
G02*
X104005000Y-86815000I-75000J0D01*
G01*
X103855000Y-86815000D01*
G75*
G02*
X103780000Y-86740000I0J75000D01*
G01*
G37*
G36*
G01*
X101780000Y-84740000D02*
X101780000Y-84590000D01*
G75*
G02*
X101855000Y-84515000I75000J0D01*
G01*
X103180000Y-84515000D01*
G75*
G02*
X103255000Y-84590000I0J-75000D01*
G01*
X103255000Y-84740000D01*
G75*
G02*
X103180000Y-84815000I-75000J0D01*
G01*
X101855000Y-84815000D01*
G75*
G02*
X101780000Y-84740000I0J75000D01*
G01*
G37*
G36*
G01*
X101780000Y-84240000D02*
X101780000Y-84090000D01*
G75*
G02*
X101855000Y-84015000I75000J0D01*
G01*
X103180000Y-84015000D01*
G75*
G02*
X103255000Y-84090000I0J-75000D01*
G01*
X103255000Y-84240000D01*
G75*
G02*
X103180000Y-84315000I-75000J0D01*
G01*
X101855000Y-84315000D01*
G75*
G02*
X101780000Y-84240000I0J75000D01*
G01*
G37*
G36*
G01*
X101780000Y-83740000D02*
X101780000Y-83590000D01*
G75*
G02*
X101855000Y-83515000I75000J0D01*
G01*
X103180000Y-83515000D01*
G75*
G02*
X103255000Y-83590000I0J-75000D01*
G01*
X103255000Y-83740000D01*
G75*
G02*
X103180000Y-83815000I-75000J0D01*
G01*
X101855000Y-83815000D01*
G75*
G02*
X101780000Y-83740000I0J75000D01*
G01*
G37*
G36*
G01*
X101780000Y-83240000D02*
X101780000Y-83090000D01*
G75*
G02*
X101855000Y-83015000I75000J0D01*
G01*
X103180000Y-83015000D01*
G75*
G02*
X103255000Y-83090000I0J-75000D01*
G01*
X103255000Y-83240000D01*
G75*
G02*
X103180000Y-83315000I-75000J0D01*
G01*
X101855000Y-83315000D01*
G75*
G02*
X101780000Y-83240000I0J75000D01*
G01*
G37*
G36*
G01*
X101780000Y-82740000D02*
X101780000Y-82590000D01*
G75*
G02*
X101855000Y-82515000I75000J0D01*
G01*
X103180000Y-82515000D01*
G75*
G02*
X103255000Y-82590000I0J-75000D01*
G01*
X103255000Y-82740000D01*
G75*
G02*
X103180000Y-82815000I-75000J0D01*
G01*
X101855000Y-82815000D01*
G75*
G02*
X101780000Y-82740000I0J75000D01*
G01*
G37*
G36*
G01*
X101780000Y-82240000D02*
X101780000Y-82090000D01*
G75*
G02*
X101855000Y-82015000I75000J0D01*
G01*
X103180000Y-82015000D01*
G75*
G02*
X103255000Y-82090000I0J-75000D01*
G01*
X103255000Y-82240000D01*
G75*
G02*
X103180000Y-82315000I-75000J0D01*
G01*
X101855000Y-82315000D01*
G75*
G02*
X101780000Y-82240000I0J75000D01*
G01*
G37*
G36*
G01*
X101780000Y-81740000D02*
X101780000Y-81590000D01*
G75*
G02*
X101855000Y-81515000I75000J0D01*
G01*
X103180000Y-81515000D01*
G75*
G02*
X103255000Y-81590000I0J-75000D01*
G01*
X103255000Y-81740000D01*
G75*
G02*
X103180000Y-81815000I-75000J0D01*
G01*
X101855000Y-81815000D01*
G75*
G02*
X101780000Y-81740000I0J75000D01*
G01*
G37*
G36*
G01*
X101780000Y-81240000D02*
X101780000Y-81090000D01*
G75*
G02*
X101855000Y-81015000I75000J0D01*
G01*
X103180000Y-81015000D01*
G75*
G02*
X103255000Y-81090000I0J-75000D01*
G01*
X103255000Y-81240000D01*
G75*
G02*
X103180000Y-81315000I-75000J0D01*
G01*
X101855000Y-81315000D01*
G75*
G02*
X101780000Y-81240000I0J75000D01*
G01*
G37*
G36*
G01*
X101780000Y-80740000D02*
X101780000Y-80590000D01*
G75*
G02*
X101855000Y-80515000I75000J0D01*
G01*
X103180000Y-80515000D01*
G75*
G02*
X103255000Y-80590000I0J-75000D01*
G01*
X103255000Y-80740000D01*
G75*
G02*
X103180000Y-80815000I-75000J0D01*
G01*
X101855000Y-80815000D01*
G75*
G02*
X101780000Y-80740000I0J75000D01*
G01*
G37*
G36*
G01*
X101780000Y-80240000D02*
X101780000Y-80090000D01*
G75*
G02*
X101855000Y-80015000I75000J0D01*
G01*
X103180000Y-80015000D01*
G75*
G02*
X103255000Y-80090000I0J-75000D01*
G01*
X103255000Y-80240000D01*
G75*
G02*
X103180000Y-80315000I-75000J0D01*
G01*
X101855000Y-80315000D01*
G75*
G02*
X101780000Y-80240000I0J75000D01*
G01*
G37*
G36*
G01*
X101780000Y-79740000D02*
X101780000Y-79590000D01*
G75*
G02*
X101855000Y-79515000I75000J0D01*
G01*
X103180000Y-79515000D01*
G75*
G02*
X103255000Y-79590000I0J-75000D01*
G01*
X103255000Y-79740000D01*
G75*
G02*
X103180000Y-79815000I-75000J0D01*
G01*
X101855000Y-79815000D01*
G75*
G02*
X101780000Y-79740000I0J75000D01*
G01*
G37*
G36*
G01*
X101780000Y-79240000D02*
X101780000Y-79090000D01*
G75*
G02*
X101855000Y-79015000I75000J0D01*
G01*
X103180000Y-79015000D01*
G75*
G02*
X103255000Y-79090000I0J-75000D01*
G01*
X103255000Y-79240000D01*
G75*
G02*
X103180000Y-79315000I-75000J0D01*
G01*
X101855000Y-79315000D01*
G75*
G02*
X101780000Y-79240000I0J75000D01*
G01*
G37*
G36*
G01*
X59921000Y-65511000D02*
X60221000Y-65511000D01*
G75*
G02*
X60371000Y-65661000I0J-150000D01*
G01*
X60371000Y-67311000D01*
G75*
G02*
X60221000Y-67461000I-150000J0D01*
G01*
X59921000Y-67461000D01*
G75*
G02*
X59771000Y-67311000I0J150000D01*
G01*
X59771000Y-65661000D01*
G75*
G02*
X59921000Y-65511000I150000J0D01*
G01*
G37*
G36*
G01*
X58651000Y-65511000D02*
X58951000Y-65511000D01*
G75*
G02*
X59101000Y-65661000I0J-150000D01*
G01*
X59101000Y-67311000D01*
G75*
G02*
X58951000Y-67461000I-150000J0D01*
G01*
X58651000Y-67461000D01*
G75*
G02*
X58501000Y-67311000I0J150000D01*
G01*
X58501000Y-65661000D01*
G75*
G02*
X58651000Y-65511000I150000J0D01*
G01*
G37*
G36*
G01*
X57381000Y-65511000D02*
X57681000Y-65511000D01*
G75*
G02*
X57831000Y-65661000I0J-150000D01*
G01*
X57831000Y-67311000D01*
G75*
G02*
X57681000Y-67461000I-150000J0D01*
G01*
X57381000Y-67461000D01*
G75*
G02*
X57231000Y-67311000I0J150000D01*
G01*
X57231000Y-65661000D01*
G75*
G02*
X57381000Y-65511000I150000J0D01*
G01*
G37*
G36*
G01*
X56111000Y-65511000D02*
X56411000Y-65511000D01*
G75*
G02*
X56561000Y-65661000I0J-150000D01*
G01*
X56561000Y-67311000D01*
G75*
G02*
X56411000Y-67461000I-150000J0D01*
G01*
X56111000Y-67461000D01*
G75*
G02*
X55961000Y-67311000I0J150000D01*
G01*
X55961000Y-65661000D01*
G75*
G02*
X56111000Y-65511000I150000J0D01*
G01*
G37*
G36*
G01*
X56111000Y-70461000D02*
X56411000Y-70461000D01*
G75*
G02*
X56561000Y-70611000I0J-150000D01*
G01*
X56561000Y-72261000D01*
G75*
G02*
X56411000Y-72411000I-150000J0D01*
G01*
X56111000Y-72411000D01*
G75*
G02*
X55961000Y-72261000I0J150000D01*
G01*
X55961000Y-70611000D01*
G75*
G02*
X56111000Y-70461000I150000J0D01*
G01*
G37*
G36*
G01*
X57381000Y-70461000D02*
X57681000Y-70461000D01*
G75*
G02*
X57831000Y-70611000I0J-150000D01*
G01*
X57831000Y-72261000D01*
G75*
G02*
X57681000Y-72411000I-150000J0D01*
G01*
X57381000Y-72411000D01*
G75*
G02*
X57231000Y-72261000I0J150000D01*
G01*
X57231000Y-70611000D01*
G75*
G02*
X57381000Y-70461000I150000J0D01*
G01*
G37*
G36*
G01*
X58651000Y-70461000D02*
X58951000Y-70461000D01*
G75*
G02*
X59101000Y-70611000I0J-150000D01*
G01*
X59101000Y-72261000D01*
G75*
G02*
X58951000Y-72411000I-150000J0D01*
G01*
X58651000Y-72411000D01*
G75*
G02*
X58501000Y-72261000I0J150000D01*
G01*
X58501000Y-70611000D01*
G75*
G02*
X58651000Y-70461000I150000J0D01*
G01*
G37*
G36*
G01*
X59921000Y-70461000D02*
X60221000Y-70461000D01*
G75*
G02*
X60371000Y-70611000I0J-150000D01*
G01*
X60371000Y-72261000D01*
G75*
G02*
X60221000Y-72411000I-150000J0D01*
G01*
X59921000Y-72411000D01*
G75*
G02*
X59771000Y-72261000I0J150000D01*
G01*
X59771000Y-70611000D01*
G75*
G02*
X59921000Y-70461000I150000J0D01*
G01*
G37*
G36*
G01*
X60685000Y-61285000D02*
X60685000Y-62610000D01*
G75*
G02*
X60610000Y-62685000I-75000J0D01*
G01*
X60460000Y-62685000D01*
G75*
G02*
X60385000Y-62610000I0J75000D01*
G01*
X60385000Y-61285000D01*
G75*
G02*
X60460000Y-61210000I75000J0D01*
G01*
X60610000Y-61210000D01*
G75*
G02*
X60685000Y-61285000I0J-75000D01*
G01*
G37*
G36*
G01*
X60185000Y-61285000D02*
X60185000Y-62610000D01*
G75*
G02*
X60110000Y-62685000I-75000J0D01*
G01*
X59960000Y-62685000D01*
G75*
G02*
X59885000Y-62610000I0J75000D01*
G01*
X59885000Y-61285000D01*
G75*
G02*
X59960000Y-61210000I75000J0D01*
G01*
X60110000Y-61210000D01*
G75*
G02*
X60185000Y-61285000I0J-75000D01*
G01*
G37*
G36*
G01*
X59685000Y-61285000D02*
X59685000Y-62610000D01*
G75*
G02*
X59610000Y-62685000I-75000J0D01*
G01*
X59460000Y-62685000D01*
G75*
G02*
X59385000Y-62610000I0J75000D01*
G01*
X59385000Y-61285000D01*
G75*
G02*
X59460000Y-61210000I75000J0D01*
G01*
X59610000Y-61210000D01*
G75*
G02*
X59685000Y-61285000I0J-75000D01*
G01*
G37*
G36*
G01*
X59185000Y-61285000D02*
X59185000Y-62610000D01*
G75*
G02*
X59110000Y-62685000I-75000J0D01*
G01*
X58960000Y-62685000D01*
G75*
G02*
X58885000Y-62610000I0J75000D01*
G01*
X58885000Y-61285000D01*
G75*
G02*
X58960000Y-61210000I75000J0D01*
G01*
X59110000Y-61210000D01*
G75*
G02*
X59185000Y-61285000I0J-75000D01*
G01*
G37*
G36*
G01*
X58685000Y-61285000D02*
X58685000Y-62610000D01*
G75*
G02*
X58610000Y-62685000I-75000J0D01*
G01*
X58460000Y-62685000D01*
G75*
G02*
X58385000Y-62610000I0J75000D01*
G01*
X58385000Y-61285000D01*
G75*
G02*
X58460000Y-61210000I75000J0D01*
G01*
X58610000Y-61210000D01*
G75*
G02*
X58685000Y-61285000I0J-75000D01*
G01*
G37*
G36*
G01*
X58185000Y-61285000D02*
X58185000Y-62610000D01*
G75*
G02*
X58110000Y-62685000I-75000J0D01*
G01*
X57960000Y-62685000D01*
G75*
G02*
X57885000Y-62610000I0J75000D01*
G01*
X57885000Y-61285000D01*
G75*
G02*
X57960000Y-61210000I75000J0D01*
G01*
X58110000Y-61210000D01*
G75*
G02*
X58185000Y-61285000I0J-75000D01*
G01*
G37*
G36*
G01*
X57685000Y-61285000D02*
X57685000Y-62610000D01*
G75*
G02*
X57610000Y-62685000I-75000J0D01*
G01*
X57460000Y-62685000D01*
G75*
G02*
X57385000Y-62610000I0J75000D01*
G01*
X57385000Y-61285000D01*
G75*
G02*
X57460000Y-61210000I75000J0D01*
G01*
X57610000Y-61210000D01*
G75*
G02*
X57685000Y-61285000I0J-75000D01*
G01*
G37*
G36*
G01*
X57185000Y-61285000D02*
X57185000Y-62610000D01*
G75*
G02*
X57110000Y-62685000I-75000J0D01*
G01*
X56960000Y-62685000D01*
G75*
G02*
X56885000Y-62610000I0J75000D01*
G01*
X56885000Y-61285000D01*
G75*
G02*
X56960000Y-61210000I75000J0D01*
G01*
X57110000Y-61210000D01*
G75*
G02*
X57185000Y-61285000I0J-75000D01*
G01*
G37*
G36*
G01*
X56685000Y-61285000D02*
X56685000Y-62610000D01*
G75*
G02*
X56610000Y-62685000I-75000J0D01*
G01*
X56460000Y-62685000D01*
G75*
G02*
X56385000Y-62610000I0J75000D01*
G01*
X56385000Y-61285000D01*
G75*
G02*
X56460000Y-61210000I75000J0D01*
G01*
X56610000Y-61210000D01*
G75*
G02*
X56685000Y-61285000I0J-75000D01*
G01*
G37*
G36*
G01*
X56185000Y-61285000D02*
X56185000Y-62610000D01*
G75*
G02*
X56110000Y-62685000I-75000J0D01*
G01*
X55960000Y-62685000D01*
G75*
G02*
X55885000Y-62610000I0J75000D01*
G01*
X55885000Y-61285000D01*
G75*
G02*
X55960000Y-61210000I75000J0D01*
G01*
X56110000Y-61210000D01*
G75*
G02*
X56185000Y-61285000I0J-75000D01*
G01*
G37*
G36*
G01*
X55685000Y-61285000D02*
X55685000Y-62610000D01*
G75*
G02*
X55610000Y-62685000I-75000J0D01*
G01*
X55460000Y-62685000D01*
G75*
G02*
X55385000Y-62610000I0J75000D01*
G01*
X55385000Y-61285000D01*
G75*
G02*
X55460000Y-61210000I75000J0D01*
G01*
X55610000Y-61210000D01*
G75*
G02*
X55685000Y-61285000I0J-75000D01*
G01*
G37*
G36*
G01*
X55185000Y-61285000D02*
X55185000Y-62610000D01*
G75*
G02*
X55110000Y-62685000I-75000J0D01*
G01*
X54960000Y-62685000D01*
G75*
G02*
X54885000Y-62610000I0J75000D01*
G01*
X54885000Y-61285000D01*
G75*
G02*
X54960000Y-61210000I75000J0D01*
G01*
X55110000Y-61210000D01*
G75*
G02*
X55185000Y-61285000I0J-75000D01*
G01*
G37*
G36*
G01*
X54360000Y-60460000D02*
X54360000Y-60610000D01*
G75*
G02*
X54285000Y-60685000I-75000J0D01*
G01*
X52960000Y-60685000D01*
G75*
G02*
X52885000Y-60610000I0J75000D01*
G01*
X52885000Y-60460000D01*
G75*
G02*
X52960000Y-60385000I75000J0D01*
G01*
X54285000Y-60385000D01*
G75*
G02*
X54360000Y-60460000I0J-75000D01*
G01*
G37*
G36*
G01*
X54360000Y-59960000D02*
X54360000Y-60110000D01*
G75*
G02*
X54285000Y-60185000I-75000J0D01*
G01*
X52960000Y-60185000D01*
G75*
G02*
X52885000Y-60110000I0J75000D01*
G01*
X52885000Y-59960000D01*
G75*
G02*
X52960000Y-59885000I75000J0D01*
G01*
X54285000Y-59885000D01*
G75*
G02*
X54360000Y-59960000I0J-75000D01*
G01*
G37*
G36*
G01*
X54360000Y-59460000D02*
X54360000Y-59610000D01*
G75*
G02*
X54285000Y-59685000I-75000J0D01*
G01*
X52960000Y-59685000D01*
G75*
G02*
X52885000Y-59610000I0J75000D01*
G01*
X52885000Y-59460000D01*
G75*
G02*
X52960000Y-59385000I75000J0D01*
G01*
X54285000Y-59385000D01*
G75*
G02*
X54360000Y-59460000I0J-75000D01*
G01*
G37*
G36*
G01*
X54360000Y-58960000D02*
X54360000Y-59110000D01*
G75*
G02*
X54285000Y-59185000I-75000J0D01*
G01*
X52960000Y-59185000D01*
G75*
G02*
X52885000Y-59110000I0J75000D01*
G01*
X52885000Y-58960000D01*
G75*
G02*
X52960000Y-58885000I75000J0D01*
G01*
X54285000Y-58885000D01*
G75*
G02*
X54360000Y-58960000I0J-75000D01*
G01*
G37*
G36*
G01*
X54360000Y-58460000D02*
X54360000Y-58610000D01*
G75*
G02*
X54285000Y-58685000I-75000J0D01*
G01*
X52960000Y-58685000D01*
G75*
G02*
X52885000Y-58610000I0J75000D01*
G01*
X52885000Y-58460000D01*
G75*
G02*
X52960000Y-58385000I75000J0D01*
G01*
X54285000Y-58385000D01*
G75*
G02*
X54360000Y-58460000I0J-75000D01*
G01*
G37*
G36*
G01*
X54360000Y-57960000D02*
X54360000Y-58110000D01*
G75*
G02*
X54285000Y-58185000I-75000J0D01*
G01*
X52960000Y-58185000D01*
G75*
G02*
X52885000Y-58110000I0J75000D01*
G01*
X52885000Y-57960000D01*
G75*
G02*
X52960000Y-57885000I75000J0D01*
G01*
X54285000Y-57885000D01*
G75*
G02*
X54360000Y-57960000I0J-75000D01*
G01*
G37*
G36*
G01*
X54360000Y-57460000D02*
X54360000Y-57610000D01*
G75*
G02*
X54285000Y-57685000I-75000J0D01*
G01*
X52960000Y-57685000D01*
G75*
G02*
X52885000Y-57610000I0J75000D01*
G01*
X52885000Y-57460000D01*
G75*
G02*
X52960000Y-57385000I75000J0D01*
G01*
X54285000Y-57385000D01*
G75*
G02*
X54360000Y-57460000I0J-75000D01*
G01*
G37*
G36*
G01*
X54360000Y-56960000D02*
X54360000Y-57110000D01*
G75*
G02*
X54285000Y-57185000I-75000J0D01*
G01*
X52960000Y-57185000D01*
G75*
G02*
X52885000Y-57110000I0J75000D01*
G01*
X52885000Y-56960000D01*
G75*
G02*
X52960000Y-56885000I75000J0D01*
G01*
X54285000Y-56885000D01*
G75*
G02*
X54360000Y-56960000I0J-75000D01*
G01*
G37*
G36*
G01*
X54360000Y-56460000D02*
X54360000Y-56610000D01*
G75*
G02*
X54285000Y-56685000I-75000J0D01*
G01*
X52960000Y-56685000D01*
G75*
G02*
X52885000Y-56610000I0J75000D01*
G01*
X52885000Y-56460000D01*
G75*
G02*
X52960000Y-56385000I75000J0D01*
G01*
X54285000Y-56385000D01*
G75*
G02*
X54360000Y-56460000I0J-75000D01*
G01*
G37*
G36*
G01*
X54360000Y-55960000D02*
X54360000Y-56110000D01*
G75*
G02*
X54285000Y-56185000I-75000J0D01*
G01*
X52960000Y-56185000D01*
G75*
G02*
X52885000Y-56110000I0J75000D01*
G01*
X52885000Y-55960000D01*
G75*
G02*
X52960000Y-55885000I75000J0D01*
G01*
X54285000Y-55885000D01*
G75*
G02*
X54360000Y-55960000I0J-75000D01*
G01*
G37*
G36*
G01*
X54360000Y-55460000D02*
X54360000Y-55610000D01*
G75*
G02*
X54285000Y-55685000I-75000J0D01*
G01*
X52960000Y-55685000D01*
G75*
G02*
X52885000Y-55610000I0J75000D01*
G01*
X52885000Y-55460000D01*
G75*
G02*
X52960000Y-55385000I75000J0D01*
G01*
X54285000Y-55385000D01*
G75*
G02*
X54360000Y-55460000I0J-75000D01*
G01*
G37*
G36*
G01*
X54360000Y-54960000D02*
X54360000Y-55110000D01*
G75*
G02*
X54285000Y-55185000I-75000J0D01*
G01*
X52960000Y-55185000D01*
G75*
G02*
X52885000Y-55110000I0J75000D01*
G01*
X52885000Y-54960000D01*
G75*
G02*
X52960000Y-54885000I75000J0D01*
G01*
X54285000Y-54885000D01*
G75*
G02*
X54360000Y-54960000I0J-75000D01*
G01*
G37*
G36*
G01*
X55185000Y-52960000D02*
X55185000Y-54285000D01*
G75*
G02*
X55110000Y-54360000I-75000J0D01*
G01*
X54960000Y-54360000D01*
G75*
G02*
X54885000Y-54285000I0J75000D01*
G01*
X54885000Y-52960000D01*
G75*
G02*
X54960000Y-52885000I75000J0D01*
G01*
X55110000Y-52885000D01*
G75*
G02*
X55185000Y-52960000I0J-75000D01*
G01*
G37*
G36*
G01*
X55685000Y-52960000D02*
X55685000Y-54285000D01*
G75*
G02*
X55610000Y-54360000I-75000J0D01*
G01*
X55460000Y-54360000D01*
G75*
G02*
X55385000Y-54285000I0J75000D01*
G01*
X55385000Y-52960000D01*
G75*
G02*
X55460000Y-52885000I75000J0D01*
G01*
X55610000Y-52885000D01*
G75*
G02*
X55685000Y-52960000I0J-75000D01*
G01*
G37*
G36*
G01*
X56185000Y-52960000D02*
X56185000Y-54285000D01*
G75*
G02*
X56110000Y-54360000I-75000J0D01*
G01*
X55960000Y-54360000D01*
G75*
G02*
X55885000Y-54285000I0J75000D01*
G01*
X55885000Y-52960000D01*
G75*
G02*
X55960000Y-52885000I75000J0D01*
G01*
X56110000Y-52885000D01*
G75*
G02*
X56185000Y-52960000I0J-75000D01*
G01*
G37*
G36*
G01*
X56685000Y-52960000D02*
X56685000Y-54285000D01*
G75*
G02*
X56610000Y-54360000I-75000J0D01*
G01*
X56460000Y-54360000D01*
G75*
G02*
X56385000Y-54285000I0J75000D01*
G01*
X56385000Y-52960000D01*
G75*
G02*
X56460000Y-52885000I75000J0D01*
G01*
X56610000Y-52885000D01*
G75*
G02*
X56685000Y-52960000I0J-75000D01*
G01*
G37*
G36*
G01*
X57185000Y-52960000D02*
X57185000Y-54285000D01*
G75*
G02*
X57110000Y-54360000I-75000J0D01*
G01*
X56960000Y-54360000D01*
G75*
G02*
X56885000Y-54285000I0J75000D01*
G01*
X56885000Y-52960000D01*
G75*
G02*
X56960000Y-52885000I75000J0D01*
G01*
X57110000Y-52885000D01*
G75*
G02*
X57185000Y-52960000I0J-75000D01*
G01*
G37*
G36*
G01*
X57685000Y-52960000D02*
X57685000Y-54285000D01*
G75*
G02*
X57610000Y-54360000I-75000J0D01*
G01*
X57460000Y-54360000D01*
G75*
G02*
X57385000Y-54285000I0J75000D01*
G01*
X57385000Y-52960000D01*
G75*
G02*
X57460000Y-52885000I75000J0D01*
G01*
X57610000Y-52885000D01*
G75*
G02*
X57685000Y-52960000I0J-75000D01*
G01*
G37*
G36*
G01*
X58185000Y-52960000D02*
X58185000Y-54285000D01*
G75*
G02*
X58110000Y-54360000I-75000J0D01*
G01*
X57960000Y-54360000D01*
G75*
G02*
X57885000Y-54285000I0J75000D01*
G01*
X57885000Y-52960000D01*
G75*
G02*
X57960000Y-52885000I75000J0D01*
G01*
X58110000Y-52885000D01*
G75*
G02*
X58185000Y-52960000I0J-75000D01*
G01*
G37*
G36*
G01*
X58685000Y-52960000D02*
X58685000Y-54285000D01*
G75*
G02*
X58610000Y-54360000I-75000J0D01*
G01*
X58460000Y-54360000D01*
G75*
G02*
X58385000Y-54285000I0J75000D01*
G01*
X58385000Y-52960000D01*
G75*
G02*
X58460000Y-52885000I75000J0D01*
G01*
X58610000Y-52885000D01*
G75*
G02*
X58685000Y-52960000I0J-75000D01*
G01*
G37*
G36*
G01*
X59185000Y-52960000D02*
X59185000Y-54285000D01*
G75*
G02*
X59110000Y-54360000I-75000J0D01*
G01*
X58960000Y-54360000D01*
G75*
G02*
X58885000Y-54285000I0J75000D01*
G01*
X58885000Y-52960000D01*
G75*
G02*
X58960000Y-52885000I75000J0D01*
G01*
X59110000Y-52885000D01*
G75*
G02*
X59185000Y-52960000I0J-75000D01*
G01*
G37*
G36*
G01*
X59685000Y-52960000D02*
X59685000Y-54285000D01*
G75*
G02*
X59610000Y-54360000I-75000J0D01*
G01*
X59460000Y-54360000D01*
G75*
G02*
X59385000Y-54285000I0J75000D01*
G01*
X59385000Y-52960000D01*
G75*
G02*
X59460000Y-52885000I75000J0D01*
G01*
X59610000Y-52885000D01*
G75*
G02*
X59685000Y-52960000I0J-75000D01*
G01*
G37*
G36*
G01*
X60185000Y-52960000D02*
X60185000Y-54285000D01*
G75*
G02*
X60110000Y-54360000I-75000J0D01*
G01*
X59960000Y-54360000D01*
G75*
G02*
X59885000Y-54285000I0J75000D01*
G01*
X59885000Y-52960000D01*
G75*
G02*
X59960000Y-52885000I75000J0D01*
G01*
X60110000Y-52885000D01*
G75*
G02*
X60185000Y-52960000I0J-75000D01*
G01*
G37*
G36*
G01*
X60685000Y-52960000D02*
X60685000Y-54285000D01*
G75*
G02*
X60610000Y-54360000I-75000J0D01*
G01*
X60460000Y-54360000D01*
G75*
G02*
X60385000Y-54285000I0J75000D01*
G01*
X60385000Y-52960000D01*
G75*
G02*
X60460000Y-52885000I75000J0D01*
G01*
X60610000Y-52885000D01*
G75*
G02*
X60685000Y-52960000I0J-75000D01*
G01*
G37*
G36*
G01*
X62685000Y-54960000D02*
X62685000Y-55110000D01*
G75*
G02*
X62610000Y-55185000I-75000J0D01*
G01*
X61285000Y-55185000D01*
G75*
G02*
X61210000Y-55110000I0J75000D01*
G01*
X61210000Y-54960000D01*
G75*
G02*
X61285000Y-54885000I75000J0D01*
G01*
X62610000Y-54885000D01*
G75*
G02*
X62685000Y-54960000I0J-75000D01*
G01*
G37*
G36*
G01*
X62685000Y-55460000D02*
X62685000Y-55610000D01*
G75*
G02*
X62610000Y-55685000I-75000J0D01*
G01*
X61285000Y-55685000D01*
G75*
G02*
X61210000Y-55610000I0J75000D01*
G01*
X61210000Y-55460000D01*
G75*
G02*
X61285000Y-55385000I75000J0D01*
G01*
X62610000Y-55385000D01*
G75*
G02*
X62685000Y-55460000I0J-75000D01*
G01*
G37*
G36*
G01*
X62685000Y-55960000D02*
X62685000Y-56110000D01*
G75*
G02*
X62610000Y-56185000I-75000J0D01*
G01*
X61285000Y-56185000D01*
G75*
G02*
X61210000Y-56110000I0J75000D01*
G01*
X61210000Y-55960000D01*
G75*
G02*
X61285000Y-55885000I75000J0D01*
G01*
X62610000Y-55885000D01*
G75*
G02*
X62685000Y-55960000I0J-75000D01*
G01*
G37*
G36*
G01*
X62685000Y-56460000D02*
X62685000Y-56610000D01*
G75*
G02*
X62610000Y-56685000I-75000J0D01*
G01*
X61285000Y-56685000D01*
G75*
G02*
X61210000Y-56610000I0J75000D01*
G01*
X61210000Y-56460000D01*
G75*
G02*
X61285000Y-56385000I75000J0D01*
G01*
X62610000Y-56385000D01*
G75*
G02*
X62685000Y-56460000I0J-75000D01*
G01*
G37*
G36*
G01*
X62685000Y-56960000D02*
X62685000Y-57110000D01*
G75*
G02*
X62610000Y-57185000I-75000J0D01*
G01*
X61285000Y-57185000D01*
G75*
G02*
X61210000Y-57110000I0J75000D01*
G01*
X61210000Y-56960000D01*
G75*
G02*
X61285000Y-56885000I75000J0D01*
G01*
X62610000Y-56885000D01*
G75*
G02*
X62685000Y-56960000I0J-75000D01*
G01*
G37*
G36*
G01*
X62685000Y-57460000D02*
X62685000Y-57610000D01*
G75*
G02*
X62610000Y-57685000I-75000J0D01*
G01*
X61285000Y-57685000D01*
G75*
G02*
X61210000Y-57610000I0J75000D01*
G01*
X61210000Y-57460000D01*
G75*
G02*
X61285000Y-57385000I75000J0D01*
G01*
X62610000Y-57385000D01*
G75*
G02*
X62685000Y-57460000I0J-75000D01*
G01*
G37*
G36*
G01*
X62685000Y-57960000D02*
X62685000Y-58110000D01*
G75*
G02*
X62610000Y-58185000I-75000J0D01*
G01*
X61285000Y-58185000D01*
G75*
G02*
X61210000Y-58110000I0J75000D01*
G01*
X61210000Y-57960000D01*
G75*
G02*
X61285000Y-57885000I75000J0D01*
G01*
X62610000Y-57885000D01*
G75*
G02*
X62685000Y-57960000I0J-75000D01*
G01*
G37*
G36*
G01*
X62685000Y-58460000D02*
X62685000Y-58610000D01*
G75*
G02*
X62610000Y-58685000I-75000J0D01*
G01*
X61285000Y-58685000D01*
G75*
G02*
X61210000Y-58610000I0J75000D01*
G01*
X61210000Y-58460000D01*
G75*
G02*
X61285000Y-58385000I75000J0D01*
G01*
X62610000Y-58385000D01*
G75*
G02*
X62685000Y-58460000I0J-75000D01*
G01*
G37*
G36*
G01*
X62685000Y-58960000D02*
X62685000Y-59110000D01*
G75*
G02*
X62610000Y-59185000I-75000J0D01*
G01*
X61285000Y-59185000D01*
G75*
G02*
X61210000Y-59110000I0J75000D01*
G01*
X61210000Y-58960000D01*
G75*
G02*
X61285000Y-58885000I75000J0D01*
G01*
X62610000Y-58885000D01*
G75*
G02*
X62685000Y-58960000I0J-75000D01*
G01*
G37*
G36*
G01*
X62685000Y-59460000D02*
X62685000Y-59610000D01*
G75*
G02*
X62610000Y-59685000I-75000J0D01*
G01*
X61285000Y-59685000D01*
G75*
G02*
X61210000Y-59610000I0J75000D01*
G01*
X61210000Y-59460000D01*
G75*
G02*
X61285000Y-59385000I75000J0D01*
G01*
X62610000Y-59385000D01*
G75*
G02*
X62685000Y-59460000I0J-75000D01*
G01*
G37*
G36*
G01*
X62685000Y-59960000D02*
X62685000Y-60110000D01*
G75*
G02*
X62610000Y-60185000I-75000J0D01*
G01*
X61285000Y-60185000D01*
G75*
G02*
X61210000Y-60110000I0J75000D01*
G01*
X61210000Y-59960000D01*
G75*
G02*
X61285000Y-59885000I75000J0D01*
G01*
X62610000Y-59885000D01*
G75*
G02*
X62685000Y-59960000I0J-75000D01*
G01*
G37*
G36*
G01*
X62685000Y-60460000D02*
X62685000Y-60610000D01*
G75*
G02*
X62610000Y-60685000I-75000J0D01*
G01*
X61285000Y-60685000D01*
G75*
G02*
X61210000Y-60610000I0J75000D01*
G01*
X61210000Y-60460000D01*
G75*
G02*
X61285000Y-60385000I75000J0D01*
G01*
X62610000Y-60385000D01*
G75*
G02*
X62685000Y-60460000I0J-75000D01*
G01*
G37*
G36*
G01*
X88550000Y-66418750D02*
X88550000Y-66931250D01*
G75*
G02*
X88331250Y-67150000I-218750J0D01*
G01*
X87893750Y-67150000D01*
G75*
G02*
X87675000Y-66931250I0J218750D01*
G01*
X87675000Y-66418750D01*
G75*
G02*
X87893750Y-66200000I218750J0D01*
G01*
X88331250Y-66200000D01*
G75*
G02*
X88550000Y-66418750I0J-218750D01*
G01*
G37*
G36*
G01*
X90125000Y-66418750D02*
X90125000Y-66931250D01*
G75*
G02*
X89906250Y-67150000I-218750J0D01*
G01*
X89468750Y-67150000D01*
G75*
G02*
X89250000Y-66931250I0J218750D01*
G01*
X89250000Y-66418750D01*
G75*
G02*
X89468750Y-66200000I218750J0D01*
G01*
X89906250Y-66200000D01*
G75*
G02*
X90125000Y-66418750I0J-218750D01*
G01*
G37*
D13*
X82230000Y-60215000D03*
X80330000Y-60215000D03*
X80330000Y-57895000D03*
X81280000Y-57895000D03*
X82230000Y-57895000D03*
G36*
G01*
X95610000Y-61285000D02*
X95610000Y-62610000D01*
G75*
G02*
X95535000Y-62685000I-75000J0D01*
G01*
X95385000Y-62685000D01*
G75*
G02*
X95310000Y-62610000I0J75000D01*
G01*
X95310000Y-61285000D01*
G75*
G02*
X95385000Y-61210000I75000J0D01*
G01*
X95535000Y-61210000D01*
G75*
G02*
X95610000Y-61285000I0J-75000D01*
G01*
G37*
G36*
G01*
X95110000Y-61285000D02*
X95110000Y-62610000D01*
G75*
G02*
X95035000Y-62685000I-75000J0D01*
G01*
X94885000Y-62685000D01*
G75*
G02*
X94810000Y-62610000I0J75000D01*
G01*
X94810000Y-61285000D01*
G75*
G02*
X94885000Y-61210000I75000J0D01*
G01*
X95035000Y-61210000D01*
G75*
G02*
X95110000Y-61285000I0J-75000D01*
G01*
G37*
G36*
G01*
X94610000Y-61285000D02*
X94610000Y-62610000D01*
G75*
G02*
X94535000Y-62685000I-75000J0D01*
G01*
X94385000Y-62685000D01*
G75*
G02*
X94310000Y-62610000I0J75000D01*
G01*
X94310000Y-61285000D01*
G75*
G02*
X94385000Y-61210000I75000J0D01*
G01*
X94535000Y-61210000D01*
G75*
G02*
X94610000Y-61285000I0J-75000D01*
G01*
G37*
G36*
G01*
X94110000Y-61285000D02*
X94110000Y-62610000D01*
G75*
G02*
X94035000Y-62685000I-75000J0D01*
G01*
X93885000Y-62685000D01*
G75*
G02*
X93810000Y-62610000I0J75000D01*
G01*
X93810000Y-61285000D01*
G75*
G02*
X93885000Y-61210000I75000J0D01*
G01*
X94035000Y-61210000D01*
G75*
G02*
X94110000Y-61285000I0J-75000D01*
G01*
G37*
G36*
G01*
X93610000Y-61285000D02*
X93610000Y-62610000D01*
G75*
G02*
X93535000Y-62685000I-75000J0D01*
G01*
X93385000Y-62685000D01*
G75*
G02*
X93310000Y-62610000I0J75000D01*
G01*
X93310000Y-61285000D01*
G75*
G02*
X93385000Y-61210000I75000J0D01*
G01*
X93535000Y-61210000D01*
G75*
G02*
X93610000Y-61285000I0J-75000D01*
G01*
G37*
G36*
G01*
X93110000Y-61285000D02*
X93110000Y-62610000D01*
G75*
G02*
X93035000Y-62685000I-75000J0D01*
G01*
X92885000Y-62685000D01*
G75*
G02*
X92810000Y-62610000I0J75000D01*
G01*
X92810000Y-61285000D01*
G75*
G02*
X92885000Y-61210000I75000J0D01*
G01*
X93035000Y-61210000D01*
G75*
G02*
X93110000Y-61285000I0J-75000D01*
G01*
G37*
G36*
G01*
X92610000Y-61285000D02*
X92610000Y-62610000D01*
G75*
G02*
X92535000Y-62685000I-75000J0D01*
G01*
X92385000Y-62685000D01*
G75*
G02*
X92310000Y-62610000I0J75000D01*
G01*
X92310000Y-61285000D01*
G75*
G02*
X92385000Y-61210000I75000J0D01*
G01*
X92535000Y-61210000D01*
G75*
G02*
X92610000Y-61285000I0J-75000D01*
G01*
G37*
G36*
G01*
X92110000Y-61285000D02*
X92110000Y-62610000D01*
G75*
G02*
X92035000Y-62685000I-75000J0D01*
G01*
X91885000Y-62685000D01*
G75*
G02*
X91810000Y-62610000I0J75000D01*
G01*
X91810000Y-61285000D01*
G75*
G02*
X91885000Y-61210000I75000J0D01*
G01*
X92035000Y-61210000D01*
G75*
G02*
X92110000Y-61285000I0J-75000D01*
G01*
G37*
G36*
G01*
X91610000Y-61285000D02*
X91610000Y-62610000D01*
G75*
G02*
X91535000Y-62685000I-75000J0D01*
G01*
X91385000Y-62685000D01*
G75*
G02*
X91310000Y-62610000I0J75000D01*
G01*
X91310000Y-61285000D01*
G75*
G02*
X91385000Y-61210000I75000J0D01*
G01*
X91535000Y-61210000D01*
G75*
G02*
X91610000Y-61285000I0J-75000D01*
G01*
G37*
G36*
G01*
X91110000Y-61285000D02*
X91110000Y-62610000D01*
G75*
G02*
X91035000Y-62685000I-75000J0D01*
G01*
X90885000Y-62685000D01*
G75*
G02*
X90810000Y-62610000I0J75000D01*
G01*
X90810000Y-61285000D01*
G75*
G02*
X90885000Y-61210000I75000J0D01*
G01*
X91035000Y-61210000D01*
G75*
G02*
X91110000Y-61285000I0J-75000D01*
G01*
G37*
G36*
G01*
X90610000Y-61285000D02*
X90610000Y-62610000D01*
G75*
G02*
X90535000Y-62685000I-75000J0D01*
G01*
X90385000Y-62685000D01*
G75*
G02*
X90310000Y-62610000I0J75000D01*
G01*
X90310000Y-61285000D01*
G75*
G02*
X90385000Y-61210000I75000J0D01*
G01*
X90535000Y-61210000D01*
G75*
G02*
X90610000Y-61285000I0J-75000D01*
G01*
G37*
G36*
G01*
X90110000Y-61285000D02*
X90110000Y-62610000D01*
G75*
G02*
X90035000Y-62685000I-75000J0D01*
G01*
X89885000Y-62685000D01*
G75*
G02*
X89810000Y-62610000I0J75000D01*
G01*
X89810000Y-61285000D01*
G75*
G02*
X89885000Y-61210000I75000J0D01*
G01*
X90035000Y-61210000D01*
G75*
G02*
X90110000Y-61285000I0J-75000D01*
G01*
G37*
G36*
G01*
X89285000Y-60460000D02*
X89285000Y-60610000D01*
G75*
G02*
X89210000Y-60685000I-75000J0D01*
G01*
X87885000Y-60685000D01*
G75*
G02*
X87810000Y-60610000I0J75000D01*
G01*
X87810000Y-60460000D01*
G75*
G02*
X87885000Y-60385000I75000J0D01*
G01*
X89210000Y-60385000D01*
G75*
G02*
X89285000Y-60460000I0J-75000D01*
G01*
G37*
G36*
G01*
X89285000Y-59960000D02*
X89285000Y-60110000D01*
G75*
G02*
X89210000Y-60185000I-75000J0D01*
G01*
X87885000Y-60185000D01*
G75*
G02*
X87810000Y-60110000I0J75000D01*
G01*
X87810000Y-59960000D01*
G75*
G02*
X87885000Y-59885000I75000J0D01*
G01*
X89210000Y-59885000D01*
G75*
G02*
X89285000Y-59960000I0J-75000D01*
G01*
G37*
G36*
G01*
X89285000Y-59460000D02*
X89285000Y-59610000D01*
G75*
G02*
X89210000Y-59685000I-75000J0D01*
G01*
X87885000Y-59685000D01*
G75*
G02*
X87810000Y-59610000I0J75000D01*
G01*
X87810000Y-59460000D01*
G75*
G02*
X87885000Y-59385000I75000J0D01*
G01*
X89210000Y-59385000D01*
G75*
G02*
X89285000Y-59460000I0J-75000D01*
G01*
G37*
G36*
G01*
X89285000Y-58960000D02*
X89285000Y-59110000D01*
G75*
G02*
X89210000Y-59185000I-75000J0D01*
G01*
X87885000Y-59185000D01*
G75*
G02*
X87810000Y-59110000I0J75000D01*
G01*
X87810000Y-58960000D01*
G75*
G02*
X87885000Y-58885000I75000J0D01*
G01*
X89210000Y-58885000D01*
G75*
G02*
X89285000Y-58960000I0J-75000D01*
G01*
G37*
G36*
G01*
X89285000Y-58460000D02*
X89285000Y-58610000D01*
G75*
G02*
X89210000Y-58685000I-75000J0D01*
G01*
X87885000Y-58685000D01*
G75*
G02*
X87810000Y-58610000I0J75000D01*
G01*
X87810000Y-58460000D01*
G75*
G02*
X87885000Y-58385000I75000J0D01*
G01*
X89210000Y-58385000D01*
G75*
G02*
X89285000Y-58460000I0J-75000D01*
G01*
G37*
G36*
G01*
X89285000Y-57960000D02*
X89285000Y-58110000D01*
G75*
G02*
X89210000Y-58185000I-75000J0D01*
G01*
X87885000Y-58185000D01*
G75*
G02*
X87810000Y-58110000I0J75000D01*
G01*
X87810000Y-57960000D01*
G75*
G02*
X87885000Y-57885000I75000J0D01*
G01*
X89210000Y-57885000D01*
G75*
G02*
X89285000Y-57960000I0J-75000D01*
G01*
G37*
G36*
G01*
X89285000Y-57460000D02*
X89285000Y-57610000D01*
G75*
G02*
X89210000Y-57685000I-75000J0D01*
G01*
X87885000Y-57685000D01*
G75*
G02*
X87810000Y-57610000I0J75000D01*
G01*
X87810000Y-57460000D01*
G75*
G02*
X87885000Y-57385000I75000J0D01*
G01*
X89210000Y-57385000D01*
G75*
G02*
X89285000Y-57460000I0J-75000D01*
G01*
G37*
G36*
G01*
X89285000Y-56960000D02*
X89285000Y-57110000D01*
G75*
G02*
X89210000Y-57185000I-75000J0D01*
G01*
X87885000Y-57185000D01*
G75*
G02*
X87810000Y-57110000I0J75000D01*
G01*
X87810000Y-56960000D01*
G75*
G02*
X87885000Y-56885000I75000J0D01*
G01*
X89210000Y-56885000D01*
G75*
G02*
X89285000Y-56960000I0J-75000D01*
G01*
G37*
G36*
G01*
X89285000Y-56460000D02*
X89285000Y-56610000D01*
G75*
G02*
X89210000Y-56685000I-75000J0D01*
G01*
X87885000Y-56685000D01*
G75*
G02*
X87810000Y-56610000I0J75000D01*
G01*
X87810000Y-56460000D01*
G75*
G02*
X87885000Y-56385000I75000J0D01*
G01*
X89210000Y-56385000D01*
G75*
G02*
X89285000Y-56460000I0J-75000D01*
G01*
G37*
G36*
G01*
X89285000Y-55960000D02*
X89285000Y-56110000D01*
G75*
G02*
X89210000Y-56185000I-75000J0D01*
G01*
X87885000Y-56185000D01*
G75*
G02*
X87810000Y-56110000I0J75000D01*
G01*
X87810000Y-55960000D01*
G75*
G02*
X87885000Y-55885000I75000J0D01*
G01*
X89210000Y-55885000D01*
G75*
G02*
X89285000Y-55960000I0J-75000D01*
G01*
G37*
G36*
G01*
X89285000Y-55460000D02*
X89285000Y-55610000D01*
G75*
G02*
X89210000Y-55685000I-75000J0D01*
G01*
X87885000Y-55685000D01*
G75*
G02*
X87810000Y-55610000I0J75000D01*
G01*
X87810000Y-55460000D01*
G75*
G02*
X87885000Y-55385000I75000J0D01*
G01*
X89210000Y-55385000D01*
G75*
G02*
X89285000Y-55460000I0J-75000D01*
G01*
G37*
G36*
G01*
X89285000Y-54960000D02*
X89285000Y-55110000D01*
G75*
G02*
X89210000Y-55185000I-75000J0D01*
G01*
X87885000Y-55185000D01*
G75*
G02*
X87810000Y-55110000I0J75000D01*
G01*
X87810000Y-54960000D01*
G75*
G02*
X87885000Y-54885000I75000J0D01*
G01*
X89210000Y-54885000D01*
G75*
G02*
X89285000Y-54960000I0J-75000D01*
G01*
G37*
G36*
G01*
X90110000Y-52960000D02*
X90110000Y-54285000D01*
G75*
G02*
X90035000Y-54360000I-75000J0D01*
G01*
X89885000Y-54360000D01*
G75*
G02*
X89810000Y-54285000I0J75000D01*
G01*
X89810000Y-52960000D01*
G75*
G02*
X89885000Y-52885000I75000J0D01*
G01*
X90035000Y-52885000D01*
G75*
G02*
X90110000Y-52960000I0J-75000D01*
G01*
G37*
G36*
G01*
X90610000Y-52960000D02*
X90610000Y-54285000D01*
G75*
G02*
X90535000Y-54360000I-75000J0D01*
G01*
X90385000Y-54360000D01*
G75*
G02*
X90310000Y-54285000I0J75000D01*
G01*
X90310000Y-52960000D01*
G75*
G02*
X90385000Y-52885000I75000J0D01*
G01*
X90535000Y-52885000D01*
G75*
G02*
X90610000Y-52960000I0J-75000D01*
G01*
G37*
G36*
G01*
X91110000Y-52960000D02*
X91110000Y-54285000D01*
G75*
G02*
X91035000Y-54360000I-75000J0D01*
G01*
X90885000Y-54360000D01*
G75*
G02*
X90810000Y-54285000I0J75000D01*
G01*
X90810000Y-52960000D01*
G75*
G02*
X90885000Y-52885000I75000J0D01*
G01*
X91035000Y-52885000D01*
G75*
G02*
X91110000Y-52960000I0J-75000D01*
G01*
G37*
G36*
G01*
X91610000Y-52960000D02*
X91610000Y-54285000D01*
G75*
G02*
X91535000Y-54360000I-75000J0D01*
G01*
X91385000Y-54360000D01*
G75*
G02*
X91310000Y-54285000I0J75000D01*
G01*
X91310000Y-52960000D01*
G75*
G02*
X91385000Y-52885000I75000J0D01*
G01*
X91535000Y-52885000D01*
G75*
G02*
X91610000Y-52960000I0J-75000D01*
G01*
G37*
G36*
G01*
X92110000Y-52960000D02*
X92110000Y-54285000D01*
G75*
G02*
X92035000Y-54360000I-75000J0D01*
G01*
X91885000Y-54360000D01*
G75*
G02*
X91810000Y-54285000I0J75000D01*
G01*
X91810000Y-52960000D01*
G75*
G02*
X91885000Y-52885000I75000J0D01*
G01*
X92035000Y-52885000D01*
G75*
G02*
X92110000Y-52960000I0J-75000D01*
G01*
G37*
G36*
G01*
X92610000Y-52960000D02*
X92610000Y-54285000D01*
G75*
G02*
X92535000Y-54360000I-75000J0D01*
G01*
X92385000Y-54360000D01*
G75*
G02*
X92310000Y-54285000I0J75000D01*
G01*
X92310000Y-52960000D01*
G75*
G02*
X92385000Y-52885000I75000J0D01*
G01*
X92535000Y-52885000D01*
G75*
G02*
X92610000Y-52960000I0J-75000D01*
G01*
G37*
G36*
G01*
X93110000Y-52960000D02*
X93110000Y-54285000D01*
G75*
G02*
X93035000Y-54360000I-75000J0D01*
G01*
X92885000Y-54360000D01*
G75*
G02*
X92810000Y-54285000I0J75000D01*
G01*
X92810000Y-52960000D01*
G75*
G02*
X92885000Y-52885000I75000J0D01*
G01*
X93035000Y-52885000D01*
G75*
G02*
X93110000Y-52960000I0J-75000D01*
G01*
G37*
G36*
G01*
X93610000Y-52960000D02*
X93610000Y-54285000D01*
G75*
G02*
X93535000Y-54360000I-75000J0D01*
G01*
X93385000Y-54360000D01*
G75*
G02*
X93310000Y-54285000I0J75000D01*
G01*
X93310000Y-52960000D01*
G75*
G02*
X93385000Y-52885000I75000J0D01*
G01*
X93535000Y-52885000D01*
G75*
G02*
X93610000Y-52960000I0J-75000D01*
G01*
G37*
G36*
G01*
X94110000Y-52960000D02*
X94110000Y-54285000D01*
G75*
G02*
X94035000Y-54360000I-75000J0D01*
G01*
X93885000Y-54360000D01*
G75*
G02*
X93810000Y-54285000I0J75000D01*
G01*
X93810000Y-52960000D01*
G75*
G02*
X93885000Y-52885000I75000J0D01*
G01*
X94035000Y-52885000D01*
G75*
G02*
X94110000Y-52960000I0J-75000D01*
G01*
G37*
G36*
G01*
X94610000Y-52960000D02*
X94610000Y-54285000D01*
G75*
G02*
X94535000Y-54360000I-75000J0D01*
G01*
X94385000Y-54360000D01*
G75*
G02*
X94310000Y-54285000I0J75000D01*
G01*
X94310000Y-52960000D01*
G75*
G02*
X94385000Y-52885000I75000J0D01*
G01*
X94535000Y-52885000D01*
G75*
G02*
X94610000Y-52960000I0J-75000D01*
G01*
G37*
G36*
G01*
X95110000Y-52960000D02*
X95110000Y-54285000D01*
G75*
G02*
X95035000Y-54360000I-75000J0D01*
G01*
X94885000Y-54360000D01*
G75*
G02*
X94810000Y-54285000I0J75000D01*
G01*
X94810000Y-52960000D01*
G75*
G02*
X94885000Y-52885000I75000J0D01*
G01*
X95035000Y-52885000D01*
G75*
G02*
X95110000Y-52960000I0J-75000D01*
G01*
G37*
G36*
G01*
X95610000Y-52960000D02*
X95610000Y-54285000D01*
G75*
G02*
X95535000Y-54360000I-75000J0D01*
G01*
X95385000Y-54360000D01*
G75*
G02*
X95310000Y-54285000I0J75000D01*
G01*
X95310000Y-52960000D01*
G75*
G02*
X95385000Y-52885000I75000J0D01*
G01*
X95535000Y-52885000D01*
G75*
G02*
X95610000Y-52960000I0J-75000D01*
G01*
G37*
G36*
G01*
X97610000Y-54960000D02*
X97610000Y-55110000D01*
G75*
G02*
X97535000Y-55185000I-75000J0D01*
G01*
X96210000Y-55185000D01*
G75*
G02*
X96135000Y-55110000I0J75000D01*
G01*
X96135000Y-54960000D01*
G75*
G02*
X96210000Y-54885000I75000J0D01*
G01*
X97535000Y-54885000D01*
G75*
G02*
X97610000Y-54960000I0J-75000D01*
G01*
G37*
G36*
G01*
X97610000Y-55460000D02*
X97610000Y-55610000D01*
G75*
G02*
X97535000Y-55685000I-75000J0D01*
G01*
X96210000Y-55685000D01*
G75*
G02*
X96135000Y-55610000I0J75000D01*
G01*
X96135000Y-55460000D01*
G75*
G02*
X96210000Y-55385000I75000J0D01*
G01*
X97535000Y-55385000D01*
G75*
G02*
X97610000Y-55460000I0J-75000D01*
G01*
G37*
G36*
G01*
X97610000Y-55960000D02*
X97610000Y-56110000D01*
G75*
G02*
X97535000Y-56185000I-75000J0D01*
G01*
X96210000Y-56185000D01*
G75*
G02*
X96135000Y-56110000I0J75000D01*
G01*
X96135000Y-55960000D01*
G75*
G02*
X96210000Y-55885000I75000J0D01*
G01*
X97535000Y-55885000D01*
G75*
G02*
X97610000Y-55960000I0J-75000D01*
G01*
G37*
G36*
G01*
X97610000Y-56460000D02*
X97610000Y-56610000D01*
G75*
G02*
X97535000Y-56685000I-75000J0D01*
G01*
X96210000Y-56685000D01*
G75*
G02*
X96135000Y-56610000I0J75000D01*
G01*
X96135000Y-56460000D01*
G75*
G02*
X96210000Y-56385000I75000J0D01*
G01*
X97535000Y-56385000D01*
G75*
G02*
X97610000Y-56460000I0J-75000D01*
G01*
G37*
G36*
G01*
X97610000Y-56960000D02*
X97610000Y-57110000D01*
G75*
G02*
X97535000Y-57185000I-75000J0D01*
G01*
X96210000Y-57185000D01*
G75*
G02*
X96135000Y-57110000I0J75000D01*
G01*
X96135000Y-56960000D01*
G75*
G02*
X96210000Y-56885000I75000J0D01*
G01*
X97535000Y-56885000D01*
G75*
G02*
X97610000Y-56960000I0J-75000D01*
G01*
G37*
G36*
G01*
X97610000Y-57460000D02*
X97610000Y-57610000D01*
G75*
G02*
X97535000Y-57685000I-75000J0D01*
G01*
X96210000Y-57685000D01*
G75*
G02*
X96135000Y-57610000I0J75000D01*
G01*
X96135000Y-57460000D01*
G75*
G02*
X96210000Y-57385000I75000J0D01*
G01*
X97535000Y-57385000D01*
G75*
G02*
X97610000Y-57460000I0J-75000D01*
G01*
G37*
G36*
G01*
X97610000Y-57960000D02*
X97610000Y-58110000D01*
G75*
G02*
X97535000Y-58185000I-75000J0D01*
G01*
X96210000Y-58185000D01*
G75*
G02*
X96135000Y-58110000I0J75000D01*
G01*
X96135000Y-57960000D01*
G75*
G02*
X96210000Y-57885000I75000J0D01*
G01*
X97535000Y-57885000D01*
G75*
G02*
X97610000Y-57960000I0J-75000D01*
G01*
G37*
G36*
G01*
X97610000Y-58460000D02*
X97610000Y-58610000D01*
G75*
G02*
X97535000Y-58685000I-75000J0D01*
G01*
X96210000Y-58685000D01*
G75*
G02*
X96135000Y-58610000I0J75000D01*
G01*
X96135000Y-58460000D01*
G75*
G02*
X96210000Y-58385000I75000J0D01*
G01*
X97535000Y-58385000D01*
G75*
G02*
X97610000Y-58460000I0J-75000D01*
G01*
G37*
G36*
G01*
X97610000Y-58960000D02*
X97610000Y-59110000D01*
G75*
G02*
X97535000Y-59185000I-75000J0D01*
G01*
X96210000Y-59185000D01*
G75*
G02*
X96135000Y-59110000I0J75000D01*
G01*
X96135000Y-58960000D01*
G75*
G02*
X96210000Y-58885000I75000J0D01*
G01*
X97535000Y-58885000D01*
G75*
G02*
X97610000Y-58960000I0J-75000D01*
G01*
G37*
G36*
G01*
X97610000Y-59460000D02*
X97610000Y-59610000D01*
G75*
G02*
X97535000Y-59685000I-75000J0D01*
G01*
X96210000Y-59685000D01*
G75*
G02*
X96135000Y-59610000I0J75000D01*
G01*
X96135000Y-59460000D01*
G75*
G02*
X96210000Y-59385000I75000J0D01*
G01*
X97535000Y-59385000D01*
G75*
G02*
X97610000Y-59460000I0J-75000D01*
G01*
G37*
G36*
G01*
X97610000Y-59960000D02*
X97610000Y-60110000D01*
G75*
G02*
X97535000Y-60185000I-75000J0D01*
G01*
X96210000Y-60185000D01*
G75*
G02*
X96135000Y-60110000I0J75000D01*
G01*
X96135000Y-59960000D01*
G75*
G02*
X96210000Y-59885000I75000J0D01*
G01*
X97535000Y-59885000D01*
G75*
G02*
X97610000Y-59960000I0J-75000D01*
G01*
G37*
G36*
G01*
X97610000Y-60460000D02*
X97610000Y-60610000D01*
G75*
G02*
X97535000Y-60685000I-75000J0D01*
G01*
X96210000Y-60685000D01*
G75*
G02*
X96135000Y-60610000I0J75000D01*
G01*
X96135000Y-60460000D01*
G75*
G02*
X96210000Y-60385000I75000J0D01*
G01*
X97535000Y-60385000D01*
G75*
G02*
X97610000Y-60460000I0J-75000D01*
G01*
G37*
G36*
G01*
X113260000Y-58570000D02*
X113260000Y-58270000D01*
G75*
G02*
X113410000Y-58120000I150000J0D01*
G01*
X115060000Y-58120000D01*
G75*
G02*
X115210000Y-58270000I0J-150000D01*
G01*
X115210000Y-58570000D01*
G75*
G02*
X115060000Y-58720000I-150000J0D01*
G01*
X113410000Y-58720000D01*
G75*
G02*
X113260000Y-58570000I0J150000D01*
G01*
G37*
G36*
G01*
X113260000Y-59840000D02*
X113260000Y-59540000D01*
G75*
G02*
X113410000Y-59390000I150000J0D01*
G01*
X115060000Y-59390000D01*
G75*
G02*
X115210000Y-59540000I0J-150000D01*
G01*
X115210000Y-59840000D01*
G75*
G02*
X115060000Y-59990000I-150000J0D01*
G01*
X113410000Y-59990000D01*
G75*
G02*
X113260000Y-59840000I0J150000D01*
G01*
G37*
G36*
G01*
X113260000Y-61110000D02*
X113260000Y-60810000D01*
G75*
G02*
X113410000Y-60660000I150000J0D01*
G01*
X115060000Y-60660000D01*
G75*
G02*
X115210000Y-60810000I0J-150000D01*
G01*
X115210000Y-61110000D01*
G75*
G02*
X115060000Y-61260000I-150000J0D01*
G01*
X113410000Y-61260000D01*
G75*
G02*
X113260000Y-61110000I0J150000D01*
G01*
G37*
G36*
G01*
X113260000Y-62380000D02*
X113260000Y-62080000D01*
G75*
G02*
X113410000Y-61930000I150000J0D01*
G01*
X115060000Y-61930000D01*
G75*
G02*
X115210000Y-62080000I0J-150000D01*
G01*
X115210000Y-62380000D01*
G75*
G02*
X115060000Y-62530000I-150000J0D01*
G01*
X113410000Y-62530000D01*
G75*
G02*
X113260000Y-62380000I0J150000D01*
G01*
G37*
G36*
G01*
X108310000Y-62380000D02*
X108310000Y-62080000D01*
G75*
G02*
X108460000Y-61930000I150000J0D01*
G01*
X110110000Y-61930000D01*
G75*
G02*
X110260000Y-62080000I0J-150000D01*
G01*
X110260000Y-62380000D01*
G75*
G02*
X110110000Y-62530000I-150000J0D01*
G01*
X108460000Y-62530000D01*
G75*
G02*
X108310000Y-62380000I0J150000D01*
G01*
G37*
G36*
G01*
X108310000Y-61110000D02*
X108310000Y-60810000D01*
G75*
G02*
X108460000Y-60660000I150000J0D01*
G01*
X110110000Y-60660000D01*
G75*
G02*
X110260000Y-60810000I0J-150000D01*
G01*
X110260000Y-61110000D01*
G75*
G02*
X110110000Y-61260000I-150000J0D01*
G01*
X108460000Y-61260000D01*
G75*
G02*
X108310000Y-61110000I0J150000D01*
G01*
G37*
G36*
G01*
X108310000Y-59840000D02*
X108310000Y-59540000D01*
G75*
G02*
X108460000Y-59390000I150000J0D01*
G01*
X110110000Y-59390000D01*
G75*
G02*
X110260000Y-59540000I0J-150000D01*
G01*
X110260000Y-59840000D01*
G75*
G02*
X110110000Y-59990000I-150000J0D01*
G01*
X108460000Y-59990000D01*
G75*
G02*
X108310000Y-59840000I0J150000D01*
G01*
G37*
G36*
G01*
X108310000Y-58570000D02*
X108310000Y-58270000D01*
G75*
G02*
X108460000Y-58120000I150000J0D01*
G01*
X110110000Y-58120000D01*
G75*
G02*
X110260000Y-58270000I0J-150000D01*
G01*
X110260000Y-58570000D01*
G75*
G02*
X110110000Y-58720000I-150000J0D01*
G01*
X108460000Y-58720000D01*
G75*
G02*
X108310000Y-58570000I0J150000D01*
G01*
G37*
G36*
G01*
X117096250Y-56165000D02*
X116583750Y-56165000D01*
G75*
G02*
X116365000Y-55946250I0J218750D01*
G01*
X116365000Y-55508750D01*
G75*
G02*
X116583750Y-55290000I218750J0D01*
G01*
X117096250Y-55290000D01*
G75*
G02*
X117315000Y-55508750I0J-218750D01*
G01*
X117315000Y-55946250D01*
G75*
G02*
X117096250Y-56165000I-218750J0D01*
G01*
G37*
G36*
G01*
X117096250Y-57740000D02*
X116583750Y-57740000D01*
G75*
G02*
X116365000Y-57521250I0J218750D01*
G01*
X116365000Y-57083750D01*
G75*
G02*
X116583750Y-56865000I218750J0D01*
G01*
X117096250Y-56865000D01*
G75*
G02*
X117315000Y-57083750I0J-218750D01*
G01*
X117315000Y-57521250D01*
G75*
G02*
X117096250Y-57740000I-218750J0D01*
G01*
G37*
G36*
G01*
X81140000Y-61605000D02*
X81140000Y-62855000D01*
G75*
G02*
X80890000Y-63105000I-250000J0D01*
G01*
X80140000Y-63105000D01*
G75*
G02*
X79890000Y-62855000I0J250000D01*
G01*
X79890000Y-61605000D01*
G75*
G02*
X80140000Y-61355000I250000J0D01*
G01*
X80890000Y-61355000D01*
G75*
G02*
X81140000Y-61605000I0J-250000D01*
G01*
G37*
G36*
G01*
X83940000Y-61605000D02*
X83940000Y-62855000D01*
G75*
G02*
X83690000Y-63105000I-250000J0D01*
G01*
X82940000Y-63105000D01*
G75*
G02*
X82690000Y-62855000I0J250000D01*
G01*
X82690000Y-61605000D01*
G75*
G02*
X82940000Y-61355000I250000J0D01*
G01*
X83690000Y-61355000D01*
G75*
G02*
X83940000Y-61605000I0J-250000D01*
G01*
G37*
G36*
G01*
X83940000Y-55255000D02*
X83940000Y-56505000D01*
G75*
G02*
X83690000Y-56755000I-250000J0D01*
G01*
X82940000Y-56755000D01*
G75*
G02*
X82690000Y-56505000I0J250000D01*
G01*
X82690000Y-55255000D01*
G75*
G02*
X82940000Y-55005000I250000J0D01*
G01*
X83690000Y-55005000D01*
G75*
G02*
X83940000Y-55255000I0J-250000D01*
G01*
G37*
G36*
G01*
X81140000Y-55255000D02*
X81140000Y-56505000D01*
G75*
G02*
X80890000Y-56755000I-250000J0D01*
G01*
X80140000Y-56755000D01*
G75*
G02*
X79890000Y-56505000I0J250000D01*
G01*
X79890000Y-55255000D01*
G75*
G02*
X80140000Y-55005000I250000J0D01*
G01*
X80890000Y-55005000D01*
G75*
G02*
X81140000Y-55255000I0J-250000D01*
G01*
G37*
G36*
G01*
X96898750Y-63850000D02*
X97411250Y-63850000D01*
G75*
G02*
X97630000Y-64068750I0J-218750D01*
G01*
X97630000Y-64506250D01*
G75*
G02*
X97411250Y-64725000I-218750J0D01*
G01*
X96898750Y-64725000D01*
G75*
G02*
X96680000Y-64506250I0J218750D01*
G01*
X96680000Y-64068750D01*
G75*
G02*
X96898750Y-63850000I218750J0D01*
G01*
G37*
G36*
G01*
X96898750Y-62275000D02*
X97411250Y-62275000D01*
G75*
G02*
X97630000Y-62493750I0J-218750D01*
G01*
X97630000Y-62931250D01*
G75*
G02*
X97411250Y-63150000I-218750J0D01*
G01*
X96898750Y-63150000D01*
G75*
G02*
X96680000Y-62931250I0J218750D01*
G01*
X96680000Y-62493750D01*
G75*
G02*
X96898750Y-62275000I218750J0D01*
G01*
G37*
G36*
G01*
X88521250Y-51720000D02*
X88008750Y-51720000D01*
G75*
G02*
X87790000Y-51501250I0J218750D01*
G01*
X87790000Y-51063750D01*
G75*
G02*
X88008750Y-50845000I218750J0D01*
G01*
X88521250Y-50845000D01*
G75*
G02*
X88740000Y-51063750I0J-218750D01*
G01*
X88740000Y-51501250D01*
G75*
G02*
X88521250Y-51720000I-218750J0D01*
G01*
G37*
G36*
G01*
X88521250Y-53295000D02*
X88008750Y-53295000D01*
G75*
G02*
X87790000Y-53076250I0J218750D01*
G01*
X87790000Y-52638750D01*
G75*
G02*
X88008750Y-52420000I218750J0D01*
G01*
X88521250Y-52420000D01*
G75*
G02*
X88740000Y-52638750I0J-218750D01*
G01*
X88740000Y-53076250D01*
G75*
G02*
X88521250Y-53295000I-218750J0D01*
G01*
G37*
G36*
G01*
X100586250Y-54895000D02*
X100073750Y-54895000D01*
G75*
G02*
X99855000Y-54676250I0J218750D01*
G01*
X99855000Y-54238750D01*
G75*
G02*
X100073750Y-54020000I218750J0D01*
G01*
X100586250Y-54020000D01*
G75*
G02*
X100805000Y-54238750I0J-218750D01*
G01*
X100805000Y-54676250D01*
G75*
G02*
X100586250Y-54895000I-218750J0D01*
G01*
G37*
G36*
G01*
X100586250Y-56470000D02*
X100073750Y-56470000D01*
G75*
G02*
X99855000Y-56251250I0J218750D01*
G01*
X99855000Y-55813750D01*
G75*
G02*
X100073750Y-55595000I218750J0D01*
G01*
X100586250Y-55595000D01*
G75*
G02*
X100805000Y-55813750I0J-218750D01*
G01*
X100805000Y-56251250D01*
G75*
G02*
X100586250Y-56470000I-218750J0D01*
G01*
G37*
G36*
G01*
X103855000Y-53723250D02*
X103855000Y-53210750D01*
G75*
G02*
X104073750Y-52992000I218750J0D01*
G01*
X104511250Y-52992000D01*
G75*
G02*
X104730000Y-53210750I0J-218750D01*
G01*
X104730000Y-53723250D01*
G75*
G02*
X104511250Y-53942000I-218750J0D01*
G01*
X104073750Y-53942000D01*
G75*
G02*
X103855000Y-53723250I0J218750D01*
G01*
G37*
G36*
G01*
X102280000Y-53723250D02*
X102280000Y-53210750D01*
G75*
G02*
X102498750Y-52992000I218750J0D01*
G01*
X102936250Y-52992000D01*
G75*
G02*
X103155000Y-53210750I0J-218750D01*
G01*
X103155000Y-53723250D01*
G75*
G02*
X102936250Y-53942000I-218750J0D01*
G01*
X102498750Y-53942000D01*
G75*
G02*
X102280000Y-53723250I0J218750D01*
G01*
G37*
G36*
G01*
X103855000Y-59692250D02*
X103855000Y-59179750D01*
G75*
G02*
X104073750Y-58961000I218750J0D01*
G01*
X104511250Y-58961000D01*
G75*
G02*
X104730000Y-59179750I0J-218750D01*
G01*
X104730000Y-59692250D01*
G75*
G02*
X104511250Y-59911000I-218750J0D01*
G01*
X104073750Y-59911000D01*
G75*
G02*
X103855000Y-59692250I0J218750D01*
G01*
G37*
G36*
G01*
X102280000Y-59692250D02*
X102280000Y-59179750D01*
G75*
G02*
X102498750Y-58961000I218750J0D01*
G01*
X102936250Y-58961000D01*
G75*
G02*
X103155000Y-59179750I0J-218750D01*
G01*
X103155000Y-59692250D01*
G75*
G02*
X102936250Y-59911000I-218750J0D01*
G01*
X102498750Y-59911000D01*
G75*
G02*
X102280000Y-59692250I0J218750D01*
G01*
G37*
G36*
G01*
X109505000Y-63878750D02*
X109505000Y-64391250D01*
G75*
G02*
X109286250Y-64610000I-218750J0D01*
G01*
X108848750Y-64610000D01*
G75*
G02*
X108630000Y-64391250I0J218750D01*
G01*
X108630000Y-63878750D01*
G75*
G02*
X108848750Y-63660000I218750J0D01*
G01*
X109286250Y-63660000D01*
G75*
G02*
X109505000Y-63878750I0J-218750D01*
G01*
G37*
G36*
G01*
X111080000Y-63878750D02*
X111080000Y-64391250D01*
G75*
G02*
X110861250Y-64610000I-218750J0D01*
G01*
X110423750Y-64610000D01*
G75*
G02*
X110205000Y-64391250I0J218750D01*
G01*
X110205000Y-63878750D01*
G75*
G02*
X110423750Y-63660000I218750J0D01*
G01*
X110861250Y-63660000D01*
G75*
G02*
X111080000Y-63878750I0J-218750D01*
G01*
G37*
G36*
G01*
X113315000Y-63878750D02*
X113315000Y-64391250D01*
G75*
G02*
X113096250Y-64610000I-218750J0D01*
G01*
X112658750Y-64610000D01*
G75*
G02*
X112440000Y-64391250I0J218750D01*
G01*
X112440000Y-63878750D01*
G75*
G02*
X112658750Y-63660000I218750J0D01*
G01*
X113096250Y-63660000D01*
G75*
G02*
X113315000Y-63878750I0J-218750D01*
G01*
G37*
G36*
G01*
X114890000Y-63878750D02*
X114890000Y-64391250D01*
G75*
G02*
X114671250Y-64610000I-218750J0D01*
G01*
X114233750Y-64610000D01*
G75*
G02*
X114015000Y-64391250I0J218750D01*
G01*
X114015000Y-63878750D01*
G75*
G02*
X114233750Y-63660000I218750J0D01*
G01*
X114671250Y-63660000D01*
G75*
G02*
X114890000Y-63878750I0J-218750D01*
G01*
G37*
X91125000Y-84565000D03*
X93025000Y-84565000D03*
X93025000Y-86885000D03*
X92075000Y-86885000D03*
X91125000Y-86885000D03*
G36*
G01*
X116990000Y-77560000D02*
X116690000Y-77560000D01*
G75*
G02*
X116540000Y-77410000I0J150000D01*
G01*
X116540000Y-75760000D01*
G75*
G02*
X116690000Y-75610000I150000J0D01*
G01*
X116990000Y-75610000D01*
G75*
G02*
X117140000Y-75760000I0J-150000D01*
G01*
X117140000Y-77410000D01*
G75*
G02*
X116990000Y-77560000I-150000J0D01*
G01*
G37*
G36*
G01*
X118260000Y-77560000D02*
X117960000Y-77560000D01*
G75*
G02*
X117810000Y-77410000I0J150000D01*
G01*
X117810000Y-75760000D01*
G75*
G02*
X117960000Y-75610000I150000J0D01*
G01*
X118260000Y-75610000D01*
G75*
G02*
X118410000Y-75760000I0J-150000D01*
G01*
X118410000Y-77410000D01*
G75*
G02*
X118260000Y-77560000I-150000J0D01*
G01*
G37*
G36*
G01*
X119530000Y-77560000D02*
X119230000Y-77560000D01*
G75*
G02*
X119080000Y-77410000I0J150000D01*
G01*
X119080000Y-75760000D01*
G75*
G02*
X119230000Y-75610000I150000J0D01*
G01*
X119530000Y-75610000D01*
G75*
G02*
X119680000Y-75760000I0J-150000D01*
G01*
X119680000Y-77410000D01*
G75*
G02*
X119530000Y-77560000I-150000J0D01*
G01*
G37*
G36*
G01*
X120800000Y-77560000D02*
X120500000Y-77560000D01*
G75*
G02*
X120350000Y-77410000I0J150000D01*
G01*
X120350000Y-75760000D01*
G75*
G02*
X120500000Y-75610000I150000J0D01*
G01*
X120800000Y-75610000D01*
G75*
G02*
X120950000Y-75760000I0J-150000D01*
G01*
X120950000Y-77410000D01*
G75*
G02*
X120800000Y-77560000I-150000J0D01*
G01*
G37*
G36*
G01*
X120800000Y-82510000D02*
X120500000Y-82510000D01*
G75*
G02*
X120350000Y-82360000I0J150000D01*
G01*
X120350000Y-80710000D01*
G75*
G02*
X120500000Y-80560000I150000J0D01*
G01*
X120800000Y-80560000D01*
G75*
G02*
X120950000Y-80710000I0J-150000D01*
G01*
X120950000Y-82360000D01*
G75*
G02*
X120800000Y-82510000I-150000J0D01*
G01*
G37*
G36*
G01*
X119530000Y-82510000D02*
X119230000Y-82510000D01*
G75*
G02*
X119080000Y-82360000I0J150000D01*
G01*
X119080000Y-80710000D01*
G75*
G02*
X119230000Y-80560000I150000J0D01*
G01*
X119530000Y-80560000D01*
G75*
G02*
X119680000Y-80710000I0J-150000D01*
G01*
X119680000Y-82360000D01*
G75*
G02*
X119530000Y-82510000I-150000J0D01*
G01*
G37*
G36*
G01*
X118260000Y-82510000D02*
X117960000Y-82510000D01*
G75*
G02*
X117810000Y-82360000I0J150000D01*
G01*
X117810000Y-80710000D01*
G75*
G02*
X117960000Y-80560000I150000J0D01*
G01*
X118260000Y-80560000D01*
G75*
G02*
X118410000Y-80710000I0J-150000D01*
G01*
X118410000Y-82360000D01*
G75*
G02*
X118260000Y-82510000I-150000J0D01*
G01*
G37*
G36*
G01*
X116990000Y-82510000D02*
X116690000Y-82510000D01*
G75*
G02*
X116540000Y-82360000I0J150000D01*
G01*
X116540000Y-80710000D01*
G75*
G02*
X116690000Y-80560000I150000J0D01*
G01*
X116990000Y-80560000D01*
G75*
G02*
X117140000Y-80710000I0J-150000D01*
G01*
X117140000Y-82360000D01*
G75*
G02*
X116990000Y-82510000I-150000J0D01*
G01*
G37*
G36*
G01*
X114678750Y-77185000D02*
X115191250Y-77185000D01*
G75*
G02*
X115410000Y-77403750I0J-218750D01*
G01*
X115410000Y-77841250D01*
G75*
G02*
X115191250Y-78060000I-218750J0D01*
G01*
X114678750Y-78060000D01*
G75*
G02*
X114460000Y-77841250I0J218750D01*
G01*
X114460000Y-77403750D01*
G75*
G02*
X114678750Y-77185000I218750J0D01*
G01*
G37*
G36*
G01*
X114678750Y-75610000D02*
X115191250Y-75610000D01*
G75*
G02*
X115410000Y-75828750I0J-218750D01*
G01*
X115410000Y-76266250D01*
G75*
G02*
X115191250Y-76485000I-218750J0D01*
G01*
X114678750Y-76485000D01*
G75*
G02*
X114460000Y-76266250I0J218750D01*
G01*
X114460000Y-75828750D01*
G75*
G02*
X114678750Y-75610000I218750J0D01*
G01*
G37*
G36*
G01*
X92342000Y-83175000D02*
X92342000Y-81925000D01*
G75*
G02*
X92592000Y-81675000I250000J0D01*
G01*
X93342000Y-81675000D01*
G75*
G02*
X93592000Y-81925000I0J-250000D01*
G01*
X93592000Y-83175000D01*
G75*
G02*
X93342000Y-83425000I-250000J0D01*
G01*
X92592000Y-83425000D01*
G75*
G02*
X92342000Y-83175000I0J250000D01*
G01*
G37*
G36*
G01*
X89542000Y-83175000D02*
X89542000Y-81925000D01*
G75*
G02*
X89792000Y-81675000I250000J0D01*
G01*
X90542000Y-81675000D01*
G75*
G02*
X90792000Y-81925000I0J-250000D01*
G01*
X90792000Y-83175000D01*
G75*
G02*
X90542000Y-83425000I-250000J0D01*
G01*
X89792000Y-83425000D01*
G75*
G02*
X89542000Y-83175000I0J250000D01*
G01*
G37*
G36*
G01*
X92342000Y-89525000D02*
X92342000Y-88275000D01*
G75*
G02*
X92592000Y-88025000I250000J0D01*
G01*
X93342000Y-88025000D01*
G75*
G02*
X93592000Y-88275000I0J-250000D01*
G01*
X93592000Y-89525000D01*
G75*
G02*
X93342000Y-89775000I-250000J0D01*
G01*
X92592000Y-89775000D01*
G75*
G02*
X92342000Y-89525000I0J250000D01*
G01*
G37*
G36*
G01*
X89542000Y-89525000D02*
X89542000Y-88275000D01*
G75*
G02*
X89792000Y-88025000I250000J0D01*
G01*
X90542000Y-88025000D01*
G75*
G02*
X90792000Y-88275000I0J-250000D01*
G01*
X90792000Y-89525000D01*
G75*
G02*
X90542000Y-89775000I-250000J0D01*
G01*
X89792000Y-89775000D01*
G75*
G02*
X89542000Y-89525000I0J250000D01*
G01*
G37*
G36*
G01*
X102491250Y-75850000D02*
X101978750Y-75850000D01*
G75*
G02*
X101760000Y-75631250I0J218750D01*
G01*
X101760000Y-75193750D01*
G75*
G02*
X101978750Y-74975000I218750J0D01*
G01*
X102491250Y-74975000D01*
G75*
G02*
X102710000Y-75193750I0J-218750D01*
G01*
X102710000Y-75631250D01*
G75*
G02*
X102491250Y-75850000I-218750J0D01*
G01*
G37*
G36*
G01*
X102491250Y-77425000D02*
X101978750Y-77425000D01*
G75*
G02*
X101760000Y-77206250I0J218750D01*
G01*
X101760000Y-76768750D01*
G75*
G02*
X101978750Y-76550000I218750J0D01*
G01*
X102491250Y-76550000D01*
G75*
G02*
X102710000Y-76768750I0J-218750D01*
G01*
X102710000Y-77206250D01*
G75*
G02*
X102491250Y-77425000I-218750J0D01*
G01*
G37*
G36*
G01*
X110868750Y-87980000D02*
X111381250Y-87980000D01*
G75*
G02*
X111600000Y-88198750I0J-218750D01*
G01*
X111600000Y-88636250D01*
G75*
G02*
X111381250Y-88855000I-218750J0D01*
G01*
X110868750Y-88855000D01*
G75*
G02*
X110650000Y-88636250I0J218750D01*
G01*
X110650000Y-88198750D01*
G75*
G02*
X110868750Y-87980000I218750J0D01*
G01*
G37*
G36*
G01*
X110868750Y-86405000D02*
X111381250Y-86405000D01*
G75*
G02*
X111600000Y-86623750I0J-218750D01*
G01*
X111600000Y-87061250D01*
G75*
G02*
X111381250Y-87280000I-218750J0D01*
G01*
X110868750Y-87280000D01*
G75*
G02*
X110650000Y-87061250I0J218750D01*
G01*
X110650000Y-86623750D01*
G75*
G02*
X110868750Y-86405000I218750J0D01*
G01*
G37*
G36*
G01*
X99438750Y-85186000D02*
X99951250Y-85186000D01*
G75*
G02*
X100170000Y-85404750I0J-218750D01*
G01*
X100170000Y-85842250D01*
G75*
G02*
X99951250Y-86061000I-218750J0D01*
G01*
X99438750Y-86061000D01*
G75*
G02*
X99220000Y-85842250I0J218750D01*
G01*
X99220000Y-85404750D01*
G75*
G02*
X99438750Y-85186000I218750J0D01*
G01*
G37*
G36*
G01*
X99438750Y-83611000D02*
X99951250Y-83611000D01*
G75*
G02*
X100170000Y-83829750I0J-218750D01*
G01*
X100170000Y-84267250D01*
G75*
G02*
X99951250Y-84486000I-218750J0D01*
G01*
X99438750Y-84486000D01*
G75*
G02*
X99220000Y-84267250I0J218750D01*
G01*
X99220000Y-83829750D01*
G75*
G02*
X99438750Y-83611000I218750J0D01*
G01*
G37*
G36*
G01*
X96170000Y-86992750D02*
X96170000Y-87505250D01*
G75*
G02*
X95951250Y-87724000I-218750J0D01*
G01*
X95513750Y-87724000D01*
G75*
G02*
X95295000Y-87505250I0J218750D01*
G01*
X95295000Y-86992750D01*
G75*
G02*
X95513750Y-86774000I218750J0D01*
G01*
X95951250Y-86774000D01*
G75*
G02*
X96170000Y-86992750I0J-218750D01*
G01*
G37*
G36*
G01*
X97745000Y-86992750D02*
X97745000Y-87505250D01*
G75*
G02*
X97526250Y-87724000I-218750J0D01*
G01*
X97088750Y-87724000D01*
G75*
G02*
X96870000Y-87505250I0J218750D01*
G01*
X96870000Y-86992750D01*
G75*
G02*
X97088750Y-86774000I218750J0D01*
G01*
X97526250Y-86774000D01*
G75*
G02*
X97745000Y-86992750I0J-218750D01*
G01*
G37*
G36*
G01*
X96322500Y-81150750D02*
X96322500Y-81663250D01*
G75*
G02*
X96103750Y-81882000I-218750J0D01*
G01*
X95666250Y-81882000D01*
G75*
G02*
X95447500Y-81663250I0J218750D01*
G01*
X95447500Y-81150750D01*
G75*
G02*
X95666250Y-80932000I218750J0D01*
G01*
X96103750Y-80932000D01*
G75*
G02*
X96322500Y-81150750I0J-218750D01*
G01*
G37*
G36*
G01*
X97897500Y-81150750D02*
X97897500Y-81663250D01*
G75*
G02*
X97678750Y-81882000I-218750J0D01*
G01*
X97241250Y-81882000D01*
G75*
G02*
X97022500Y-81663250I0J218750D01*
G01*
X97022500Y-81150750D01*
G75*
G02*
X97241250Y-80932000I218750J0D01*
G01*
X97678750Y-80932000D01*
G75*
G02*
X97897500Y-81150750I0J-218750D01*
G01*
G37*
G36*
G01*
X122298750Y-80055000D02*
X122811250Y-80055000D01*
G75*
G02*
X123030000Y-80273750I0J-218750D01*
G01*
X123030000Y-80711250D01*
G75*
G02*
X122811250Y-80930000I-218750J0D01*
G01*
X122298750Y-80930000D01*
G75*
G02*
X122080000Y-80711250I0J218750D01*
G01*
X122080000Y-80273750D01*
G75*
G02*
X122298750Y-80055000I218750J0D01*
G01*
G37*
G36*
G01*
X122298750Y-81630000D02*
X122811250Y-81630000D01*
G75*
G02*
X123030000Y-81848750I0J-218750D01*
G01*
X123030000Y-82286250D01*
G75*
G02*
X122811250Y-82505000I-218750J0D01*
G01*
X122298750Y-82505000D01*
G75*
G02*
X122080000Y-82286250I0J218750D01*
G01*
X122080000Y-81848750D01*
G75*
G02*
X122298750Y-81630000I218750J0D01*
G01*
G37*
G36*
G01*
X122811250Y-76485000D02*
X122298750Y-76485000D01*
G75*
G02*
X122080000Y-76266250I0J218750D01*
G01*
X122080000Y-75828750D01*
G75*
G02*
X122298750Y-75610000I218750J0D01*
G01*
X122811250Y-75610000D01*
G75*
G02*
X123030000Y-75828750I0J-218750D01*
G01*
X123030000Y-76266250D01*
G75*
G02*
X122811250Y-76485000I-218750J0D01*
G01*
G37*
G36*
G01*
X122811250Y-78060000D02*
X122298750Y-78060000D01*
G75*
G02*
X122080000Y-77841250I0J218750D01*
G01*
X122080000Y-77403750D01*
G75*
G02*
X122298750Y-77185000I218750J0D01*
G01*
X122811250Y-77185000D01*
G75*
G02*
X123030000Y-77403750I0J-218750D01*
G01*
X123030000Y-77841250D01*
G75*
G02*
X122811250Y-78060000I-218750J0D01*
G01*
G37*
G36*
G01*
X122044750Y-66085000D02*
X122557250Y-66085000D01*
G75*
G02*
X122776000Y-66303750I0J-218750D01*
G01*
X122776000Y-66741250D01*
G75*
G02*
X122557250Y-66960000I-218750J0D01*
G01*
X122044750Y-66960000D01*
G75*
G02*
X121826000Y-66741250I0J218750D01*
G01*
X121826000Y-66303750D01*
G75*
G02*
X122044750Y-66085000I218750J0D01*
G01*
G37*
G36*
G01*
X122044750Y-67660000D02*
X122557250Y-67660000D01*
G75*
G02*
X122776000Y-67878750I0J-218750D01*
G01*
X122776000Y-68316250D01*
G75*
G02*
X122557250Y-68535000I-218750J0D01*
G01*
X122044750Y-68535000D01*
G75*
G02*
X121826000Y-68316250I0J218750D01*
G01*
X121826000Y-67878750D01*
G75*
G02*
X122044750Y-67660000I218750J0D01*
G01*
G37*
G36*
G01*
X120139750Y-66085000D02*
X120652250Y-66085000D01*
G75*
G02*
X120871000Y-66303750I0J-218750D01*
G01*
X120871000Y-66741250D01*
G75*
G02*
X120652250Y-66960000I-218750J0D01*
G01*
X120139750Y-66960000D01*
G75*
G02*
X119921000Y-66741250I0J218750D01*
G01*
X119921000Y-66303750D01*
G75*
G02*
X120139750Y-66085000I218750J0D01*
G01*
G37*
G36*
G01*
X120139750Y-67660000D02*
X120652250Y-67660000D01*
G75*
G02*
X120871000Y-67878750I0J-218750D01*
G01*
X120871000Y-68316250D01*
G75*
G02*
X120652250Y-68535000I-218750J0D01*
G01*
X120139750Y-68535000D01*
G75*
G02*
X119921000Y-68316250I0J218750D01*
G01*
X119921000Y-67878750D01*
G75*
G02*
X120139750Y-67660000I218750J0D01*
G01*
G37*
X54803000Y-84565000D03*
X56703000Y-84565000D03*
X56703000Y-86885000D03*
X55753000Y-86885000D03*
X54803000Y-86885000D03*
G36*
G01*
X80555000Y-77560000D02*
X80255000Y-77560000D01*
G75*
G02*
X80105000Y-77410000I0J150000D01*
G01*
X80105000Y-75760000D01*
G75*
G02*
X80255000Y-75610000I150000J0D01*
G01*
X80555000Y-75610000D01*
G75*
G02*
X80705000Y-75760000I0J-150000D01*
G01*
X80705000Y-77410000D01*
G75*
G02*
X80555000Y-77560000I-150000J0D01*
G01*
G37*
G36*
G01*
X81825000Y-77560000D02*
X81525000Y-77560000D01*
G75*
G02*
X81375000Y-77410000I0J150000D01*
G01*
X81375000Y-75760000D01*
G75*
G02*
X81525000Y-75610000I150000J0D01*
G01*
X81825000Y-75610000D01*
G75*
G02*
X81975000Y-75760000I0J-150000D01*
G01*
X81975000Y-77410000D01*
G75*
G02*
X81825000Y-77560000I-150000J0D01*
G01*
G37*
G36*
G01*
X83095000Y-77560000D02*
X82795000Y-77560000D01*
G75*
G02*
X82645000Y-77410000I0J150000D01*
G01*
X82645000Y-75760000D01*
G75*
G02*
X82795000Y-75610000I150000J0D01*
G01*
X83095000Y-75610000D01*
G75*
G02*
X83245000Y-75760000I0J-150000D01*
G01*
X83245000Y-77410000D01*
G75*
G02*
X83095000Y-77560000I-150000J0D01*
G01*
G37*
G36*
G01*
X84365000Y-77560000D02*
X84065000Y-77560000D01*
G75*
G02*
X83915000Y-77410000I0J150000D01*
G01*
X83915000Y-75760000D01*
G75*
G02*
X84065000Y-75610000I150000J0D01*
G01*
X84365000Y-75610000D01*
G75*
G02*
X84515000Y-75760000I0J-150000D01*
G01*
X84515000Y-77410000D01*
G75*
G02*
X84365000Y-77560000I-150000J0D01*
G01*
G37*
G36*
G01*
X84365000Y-82510000D02*
X84065000Y-82510000D01*
G75*
G02*
X83915000Y-82360000I0J150000D01*
G01*
X83915000Y-80710000D01*
G75*
G02*
X84065000Y-80560000I150000J0D01*
G01*
X84365000Y-80560000D01*
G75*
G02*
X84515000Y-80710000I0J-150000D01*
G01*
X84515000Y-82360000D01*
G75*
G02*
X84365000Y-82510000I-150000J0D01*
G01*
G37*
G36*
G01*
X83095000Y-82510000D02*
X82795000Y-82510000D01*
G75*
G02*
X82645000Y-82360000I0J150000D01*
G01*
X82645000Y-80710000D01*
G75*
G02*
X82795000Y-80560000I150000J0D01*
G01*
X83095000Y-80560000D01*
G75*
G02*
X83245000Y-80710000I0J-150000D01*
G01*
X83245000Y-82360000D01*
G75*
G02*
X83095000Y-82510000I-150000J0D01*
G01*
G37*
G36*
G01*
X81825000Y-82510000D02*
X81525000Y-82510000D01*
G75*
G02*
X81375000Y-82360000I0J150000D01*
G01*
X81375000Y-80710000D01*
G75*
G02*
X81525000Y-80560000I150000J0D01*
G01*
X81825000Y-80560000D01*
G75*
G02*
X81975000Y-80710000I0J-150000D01*
G01*
X81975000Y-82360000D01*
G75*
G02*
X81825000Y-82510000I-150000J0D01*
G01*
G37*
G36*
G01*
X80555000Y-82510000D02*
X80255000Y-82510000D01*
G75*
G02*
X80105000Y-82360000I0J150000D01*
G01*
X80105000Y-80710000D01*
G75*
G02*
X80255000Y-80560000I150000J0D01*
G01*
X80555000Y-80560000D01*
G75*
G02*
X80705000Y-80710000I0J-150000D01*
G01*
X80705000Y-82360000D01*
G75*
G02*
X80555000Y-82510000I-150000J0D01*
G01*
G37*
G36*
G01*
X77848750Y-77185000D02*
X78361250Y-77185000D01*
G75*
G02*
X78580000Y-77403750I0J-218750D01*
G01*
X78580000Y-77841250D01*
G75*
G02*
X78361250Y-78060000I-218750J0D01*
G01*
X77848750Y-78060000D01*
G75*
G02*
X77630000Y-77841250I0J218750D01*
G01*
X77630000Y-77403750D01*
G75*
G02*
X77848750Y-77185000I218750J0D01*
G01*
G37*
G36*
G01*
X77848750Y-75610000D02*
X78361250Y-75610000D01*
G75*
G02*
X78580000Y-75828750I0J-218750D01*
G01*
X78580000Y-76266250D01*
G75*
G02*
X78361250Y-76485000I-218750J0D01*
G01*
X77848750Y-76485000D01*
G75*
G02*
X77630000Y-76266250I0J218750D01*
G01*
X77630000Y-75828750D01*
G75*
G02*
X77848750Y-75610000I218750J0D01*
G01*
G37*
G36*
G01*
X56020000Y-83175000D02*
X56020000Y-81925000D01*
G75*
G02*
X56270000Y-81675000I250000J0D01*
G01*
X57020000Y-81675000D01*
G75*
G02*
X57270000Y-81925000I0J-250000D01*
G01*
X57270000Y-83175000D01*
G75*
G02*
X57020000Y-83425000I-250000J0D01*
G01*
X56270000Y-83425000D01*
G75*
G02*
X56020000Y-83175000I0J250000D01*
G01*
G37*
G36*
G01*
X53220000Y-83175000D02*
X53220000Y-81925000D01*
G75*
G02*
X53470000Y-81675000I250000J0D01*
G01*
X54220000Y-81675000D01*
G75*
G02*
X54470000Y-81925000I0J-250000D01*
G01*
X54470000Y-83175000D01*
G75*
G02*
X54220000Y-83425000I-250000J0D01*
G01*
X53470000Y-83425000D01*
G75*
G02*
X53220000Y-83175000I0J250000D01*
G01*
G37*
G36*
G01*
X56020000Y-89525000D02*
X56020000Y-88275000D01*
G75*
G02*
X56270000Y-88025000I250000J0D01*
G01*
X57020000Y-88025000D01*
G75*
G02*
X57270000Y-88275000I0J-250000D01*
G01*
X57270000Y-89525000D01*
G75*
G02*
X57020000Y-89775000I-250000J0D01*
G01*
X56270000Y-89775000D01*
G75*
G02*
X56020000Y-89525000I0J250000D01*
G01*
G37*
G36*
G01*
X53220000Y-89525000D02*
X53220000Y-88275000D01*
G75*
G02*
X53470000Y-88025000I250000J0D01*
G01*
X54220000Y-88025000D01*
G75*
G02*
X54470000Y-88275000I0J-250000D01*
G01*
X54470000Y-89525000D01*
G75*
G02*
X54220000Y-89775000I-250000J0D01*
G01*
X53470000Y-89775000D01*
G75*
G02*
X53220000Y-89525000I0J250000D01*
G01*
G37*
G36*
G01*
X66296250Y-75850000D02*
X65783750Y-75850000D01*
G75*
G02*
X65565000Y-75631250I0J218750D01*
G01*
X65565000Y-75193750D01*
G75*
G02*
X65783750Y-74975000I218750J0D01*
G01*
X66296250Y-74975000D01*
G75*
G02*
X66515000Y-75193750I0J-218750D01*
G01*
X66515000Y-75631250D01*
G75*
G02*
X66296250Y-75850000I-218750J0D01*
G01*
G37*
G36*
G01*
X66296250Y-77425000D02*
X65783750Y-77425000D01*
G75*
G02*
X65565000Y-77206250I0J218750D01*
G01*
X65565000Y-76768750D01*
G75*
G02*
X65783750Y-76550000I218750J0D01*
G01*
X66296250Y-76550000D01*
G75*
G02*
X66515000Y-76768750I0J-218750D01*
G01*
X66515000Y-77206250D01*
G75*
G02*
X66296250Y-77425000I-218750J0D01*
G01*
G37*
G36*
G01*
X63243750Y-83611000D02*
X63756250Y-83611000D01*
G75*
G02*
X63975000Y-83829750I0J-218750D01*
G01*
X63975000Y-84267250D01*
G75*
G02*
X63756250Y-84486000I-218750J0D01*
G01*
X63243750Y-84486000D01*
G75*
G02*
X63025000Y-84267250I0J218750D01*
G01*
X63025000Y-83829750D01*
G75*
G02*
X63243750Y-83611000I218750J0D01*
G01*
G37*
G36*
G01*
X63243750Y-85186000D02*
X63756250Y-85186000D01*
G75*
G02*
X63975000Y-85404750I0J-218750D01*
G01*
X63975000Y-85842250D01*
G75*
G02*
X63756250Y-86061000I-218750J0D01*
G01*
X63243750Y-86061000D01*
G75*
G02*
X63025000Y-85842250I0J218750D01*
G01*
X63025000Y-85404750D01*
G75*
G02*
X63243750Y-85186000I218750J0D01*
G01*
G37*
G36*
G01*
X61550000Y-86992750D02*
X61550000Y-87505250D01*
G75*
G02*
X61331250Y-87724000I-218750J0D01*
G01*
X60893750Y-87724000D01*
G75*
G02*
X60675000Y-87505250I0J218750D01*
G01*
X60675000Y-86992750D01*
G75*
G02*
X60893750Y-86774000I218750J0D01*
G01*
X61331250Y-86774000D01*
G75*
G02*
X61550000Y-86992750I0J-218750D01*
G01*
G37*
G36*
G01*
X59975000Y-86992750D02*
X59975000Y-87505250D01*
G75*
G02*
X59756250Y-87724000I-218750J0D01*
G01*
X59318750Y-87724000D01*
G75*
G02*
X59100000Y-87505250I0J218750D01*
G01*
X59100000Y-86992750D01*
G75*
G02*
X59318750Y-86774000I218750J0D01*
G01*
X59756250Y-86774000D01*
G75*
G02*
X59975000Y-86992750I0J-218750D01*
G01*
G37*
G36*
G01*
X61550000Y-81150750D02*
X61550000Y-81663250D01*
G75*
G02*
X61331250Y-81882000I-218750J0D01*
G01*
X60893750Y-81882000D01*
G75*
G02*
X60675000Y-81663250I0J218750D01*
G01*
X60675000Y-81150750D01*
G75*
G02*
X60893750Y-80932000I218750J0D01*
G01*
X61331250Y-80932000D01*
G75*
G02*
X61550000Y-81150750I0J-218750D01*
G01*
G37*
G36*
G01*
X59975000Y-81150750D02*
X59975000Y-81663250D01*
G75*
G02*
X59756250Y-81882000I-218750J0D01*
G01*
X59318750Y-81882000D01*
G75*
G02*
X59100000Y-81663250I0J218750D01*
G01*
X59100000Y-81150750D01*
G75*
G02*
X59318750Y-80932000I218750J0D01*
G01*
X59756250Y-80932000D01*
G75*
G02*
X59975000Y-81150750I0J-218750D01*
G01*
G37*
G36*
G01*
X86103750Y-80055000D02*
X86616250Y-80055000D01*
G75*
G02*
X86835000Y-80273750I0J-218750D01*
G01*
X86835000Y-80711250D01*
G75*
G02*
X86616250Y-80930000I-218750J0D01*
G01*
X86103750Y-80930000D01*
G75*
G02*
X85885000Y-80711250I0J218750D01*
G01*
X85885000Y-80273750D01*
G75*
G02*
X86103750Y-80055000I218750J0D01*
G01*
G37*
G36*
G01*
X86103750Y-81630000D02*
X86616250Y-81630000D01*
G75*
G02*
X86835000Y-81848750I0J-218750D01*
G01*
X86835000Y-82286250D01*
G75*
G02*
X86616250Y-82505000I-218750J0D01*
G01*
X86103750Y-82505000D01*
G75*
G02*
X85885000Y-82286250I0J218750D01*
G01*
X85885000Y-81848750D01*
G75*
G02*
X86103750Y-81630000I218750J0D01*
G01*
G37*
G36*
G01*
X86103750Y-75610000D02*
X86616250Y-75610000D01*
G75*
G02*
X86835000Y-75828750I0J-218750D01*
G01*
X86835000Y-76266250D01*
G75*
G02*
X86616250Y-76485000I-218750J0D01*
G01*
X86103750Y-76485000D01*
G75*
G02*
X85885000Y-76266250I0J218750D01*
G01*
X85885000Y-75828750D01*
G75*
G02*
X86103750Y-75610000I218750J0D01*
G01*
G37*
G36*
G01*
X86103750Y-77185000D02*
X86616250Y-77185000D01*
G75*
G02*
X86835000Y-77403750I0J-218750D01*
G01*
X86835000Y-77841250D01*
G75*
G02*
X86616250Y-78060000I-218750J0D01*
G01*
X86103750Y-78060000D01*
G75*
G02*
X85885000Y-77841250I0J218750D01*
G01*
X85885000Y-77403750D01*
G75*
G02*
X86103750Y-77185000I218750J0D01*
G01*
G37*
D14*
X67420000Y-66233000D03*
X67420000Y-67183000D03*
X67420000Y-68133000D03*
X69740000Y-68133000D03*
X69740000Y-66233000D03*
G36*
G01*
X44071250Y-73615000D02*
X43558750Y-73615000D01*
G75*
G02*
X43340000Y-73396250I0J218750D01*
G01*
X43340000Y-72958750D01*
G75*
G02*
X43558750Y-72740000I218750J0D01*
G01*
X44071250Y-72740000D01*
G75*
G02*
X44290000Y-72958750I0J-218750D01*
G01*
X44290000Y-73396250D01*
G75*
G02*
X44071250Y-73615000I-218750J0D01*
G01*
G37*
G36*
G01*
X44071250Y-72040000D02*
X43558750Y-72040000D01*
G75*
G02*
X43340000Y-71821250I0J218750D01*
G01*
X43340000Y-71383750D01*
G75*
G02*
X43558750Y-71165000I218750J0D01*
G01*
X44071250Y-71165000D01*
G75*
G02*
X44290000Y-71383750I0J-218750D01*
G01*
X44290000Y-71821250D01*
G75*
G02*
X44071250Y-72040000I-218750J0D01*
G01*
G37*
G36*
G01*
X71130000Y-64667000D02*
X72380000Y-64667000D01*
G75*
G02*
X72630000Y-64917000I0J-250000D01*
G01*
X72630000Y-65667000D01*
G75*
G02*
X72380000Y-65917000I-250000J0D01*
G01*
X71130000Y-65917000D01*
G75*
G02*
X70880000Y-65667000I0J250000D01*
G01*
X70880000Y-64917000D01*
G75*
G02*
X71130000Y-64667000I250000J0D01*
G01*
G37*
G36*
G01*
X71130000Y-67467000D02*
X72380000Y-67467000D01*
G75*
G02*
X72630000Y-67717000I0J-250000D01*
G01*
X72630000Y-68467000D01*
G75*
G02*
X72380000Y-68717000I-250000J0D01*
G01*
X71130000Y-68717000D01*
G75*
G02*
X70880000Y-68467000I0J250000D01*
G01*
X70880000Y-67717000D01*
G75*
G02*
X71130000Y-67467000I250000J0D01*
G01*
G37*
G36*
G01*
X64780000Y-64667000D02*
X66030000Y-64667000D01*
G75*
G02*
X66280000Y-64917000I0J-250000D01*
G01*
X66280000Y-65667000D01*
G75*
G02*
X66030000Y-65917000I-250000J0D01*
G01*
X64780000Y-65917000D01*
G75*
G02*
X64530000Y-65667000I0J250000D01*
G01*
X64530000Y-64917000D01*
G75*
G02*
X64780000Y-64667000I250000J0D01*
G01*
G37*
G36*
G01*
X64780000Y-67467000D02*
X66030000Y-67467000D01*
G75*
G02*
X66280000Y-67717000I0J-250000D01*
G01*
X66280000Y-68467000D01*
G75*
G02*
X66030000Y-68717000I-250000J0D01*
G01*
X64780000Y-68717000D01*
G75*
G02*
X64530000Y-68467000I0J250000D01*
G01*
X64530000Y-67717000D01*
G75*
G02*
X64780000Y-67467000I250000J0D01*
G01*
G37*
G36*
G01*
X61973750Y-62275000D02*
X62486250Y-62275000D01*
G75*
G02*
X62705000Y-62493750I0J-218750D01*
G01*
X62705000Y-62931250D01*
G75*
G02*
X62486250Y-63150000I-218750J0D01*
G01*
X61973750Y-63150000D01*
G75*
G02*
X61755000Y-62931250I0J218750D01*
G01*
X61755000Y-62493750D01*
G75*
G02*
X61973750Y-62275000I218750J0D01*
G01*
G37*
G36*
G01*
X61973750Y-63850000D02*
X62486250Y-63850000D01*
G75*
G02*
X62705000Y-64068750I0J-218750D01*
G01*
X62705000Y-64506250D01*
G75*
G02*
X62486250Y-64725000I-218750J0D01*
G01*
X61973750Y-64725000D01*
G75*
G02*
X61755000Y-64506250I0J218750D01*
G01*
X61755000Y-64068750D01*
G75*
G02*
X61973750Y-63850000I218750J0D01*
G01*
G37*
G36*
G01*
X53596250Y-53295000D02*
X53083750Y-53295000D01*
G75*
G02*
X52865000Y-53076250I0J218750D01*
G01*
X52865000Y-52638750D01*
G75*
G02*
X53083750Y-52420000I218750J0D01*
G01*
X53596250Y-52420000D01*
G75*
G02*
X53815000Y-52638750I0J-218750D01*
G01*
X53815000Y-53076250D01*
G75*
G02*
X53596250Y-53295000I-218750J0D01*
G01*
G37*
G36*
G01*
X53596250Y-51720000D02*
X53083750Y-51720000D01*
G75*
G02*
X52865000Y-51501250I0J218750D01*
G01*
X52865000Y-51063750D01*
G75*
G02*
X53083750Y-50845000I218750J0D01*
G01*
X53596250Y-50845000D01*
G75*
G02*
X53815000Y-51063750I0J-218750D01*
G01*
X53815000Y-51501250D01*
G75*
G02*
X53596250Y-51720000I-218750J0D01*
G01*
G37*
G36*
G01*
X65026250Y-55835000D02*
X64513750Y-55835000D01*
G75*
G02*
X64295000Y-55616250I0J218750D01*
G01*
X64295000Y-55178750D01*
G75*
G02*
X64513750Y-54960000I218750J0D01*
G01*
X65026250Y-54960000D01*
G75*
G02*
X65245000Y-55178750I0J-218750D01*
G01*
X65245000Y-55616250D01*
G75*
G02*
X65026250Y-55835000I-218750J0D01*
G01*
G37*
G36*
G01*
X65026250Y-54260000D02*
X64513750Y-54260000D01*
G75*
G02*
X64295000Y-54041250I0J218750D01*
G01*
X64295000Y-53603750D01*
G75*
G02*
X64513750Y-53385000I218750J0D01*
G01*
X65026250Y-53385000D01*
G75*
G02*
X65245000Y-53603750I0J-218750D01*
G01*
X65245000Y-54041250D01*
G75*
G02*
X65026250Y-54260000I-218750J0D01*
G01*
G37*
G36*
G01*
X54612250Y-67966000D02*
X54099750Y-67966000D01*
G75*
G02*
X53881000Y-67747250I0J218750D01*
G01*
X53881000Y-67309750D01*
G75*
G02*
X54099750Y-67091000I218750J0D01*
G01*
X54612250Y-67091000D01*
G75*
G02*
X54831000Y-67309750I0J-218750D01*
G01*
X54831000Y-67747250D01*
G75*
G02*
X54612250Y-67966000I-218750J0D01*
G01*
G37*
G36*
G01*
X54612250Y-66391000D02*
X54099750Y-66391000D01*
G75*
G02*
X53881000Y-66172250I0J218750D01*
G01*
X53881000Y-65734750D01*
G75*
G02*
X54099750Y-65516000I218750J0D01*
G01*
X54612250Y-65516000D01*
G75*
G02*
X54831000Y-65734750I0J-218750D01*
G01*
X54831000Y-66172250D01*
G75*
G02*
X54612250Y-66391000I-218750J0D01*
G01*
G37*
G36*
G01*
X54099750Y-69956000D02*
X54612250Y-69956000D01*
G75*
G02*
X54831000Y-70174750I0J-218750D01*
G01*
X54831000Y-70612250D01*
G75*
G02*
X54612250Y-70831000I-218750J0D01*
G01*
X54099750Y-70831000D01*
G75*
G02*
X53881000Y-70612250I0J218750D01*
G01*
X53881000Y-70174750D01*
G75*
G02*
X54099750Y-69956000I218750J0D01*
G01*
G37*
G36*
G01*
X54099750Y-71531000D02*
X54612250Y-71531000D01*
G75*
G02*
X54831000Y-71749750I0J-218750D01*
G01*
X54831000Y-72187250D01*
G75*
G02*
X54612250Y-72406000I-218750J0D01*
G01*
X54099750Y-72406000D01*
G75*
G02*
X53881000Y-72187250I0J218750D01*
G01*
X53881000Y-71749750D01*
G75*
G02*
X54099750Y-71531000I218750J0D01*
G01*
G37*
G36*
G01*
X108757000Y-51564250D02*
X108757000Y-51051750D01*
G75*
G02*
X108975750Y-50833000I218750J0D01*
G01*
X109413250Y-50833000D01*
G75*
G02*
X109632000Y-51051750I0J-218750D01*
G01*
X109632000Y-51564250D01*
G75*
G02*
X109413250Y-51783000I-218750J0D01*
G01*
X108975750Y-51783000D01*
G75*
G02*
X108757000Y-51564250I0J218750D01*
G01*
G37*
G36*
G01*
X110332000Y-51564250D02*
X110332000Y-51051750D01*
G75*
G02*
X110550750Y-50833000I218750J0D01*
G01*
X110988250Y-50833000D01*
G75*
G02*
X111207000Y-51051750I0J-218750D01*
G01*
X111207000Y-51564250D01*
G75*
G02*
X110988250Y-51783000I-218750J0D01*
G01*
X110550750Y-51783000D01*
G75*
G02*
X110332000Y-51564250I0J218750D01*
G01*
G37*
G36*
G01*
X111207000Y-54607750D02*
X111207000Y-55120250D01*
G75*
G02*
X110988250Y-55339000I-218750J0D01*
G01*
X110550750Y-55339000D01*
G75*
G02*
X110332000Y-55120250I0J218750D01*
G01*
X110332000Y-54607750D01*
G75*
G02*
X110550750Y-54389000I218750J0D01*
G01*
X110988250Y-54389000D01*
G75*
G02*
X111207000Y-54607750I0J-218750D01*
G01*
G37*
G36*
G01*
X109632000Y-54607750D02*
X109632000Y-55120250D01*
G75*
G02*
X109413250Y-55339000I-218750J0D01*
G01*
X108975750Y-55339000D01*
G75*
G02*
X108757000Y-55120250I0J218750D01*
G01*
X108757000Y-54607750D01*
G75*
G02*
X108975750Y-54389000I218750J0D01*
G01*
X109413250Y-54389000D01*
G75*
G02*
X109632000Y-54607750I0J-218750D01*
G01*
G37*
G36*
G01*
X53596250Y-76790000D02*
X53083750Y-76790000D01*
G75*
G02*
X52865000Y-76571250I0J218750D01*
G01*
X52865000Y-76133750D01*
G75*
G02*
X53083750Y-75915000I218750J0D01*
G01*
X53596250Y-75915000D01*
G75*
G02*
X53815000Y-76133750I0J-218750D01*
G01*
X53815000Y-76571250D01*
G75*
G02*
X53596250Y-76790000I-218750J0D01*
G01*
G37*
G36*
G01*
X53596250Y-75215000D02*
X53083750Y-75215000D01*
G75*
G02*
X52865000Y-74996250I0J218750D01*
G01*
X52865000Y-74558750D01*
G75*
G02*
X53083750Y-74340000I218750J0D01*
G01*
X53596250Y-74340000D01*
G75*
G02*
X53815000Y-74558750I0J-218750D01*
G01*
X53815000Y-74996250D01*
G75*
G02*
X53596250Y-75215000I-218750J0D01*
G01*
G37*
G36*
G01*
X56893750Y-74340000D02*
X57406250Y-74340000D01*
G75*
G02*
X57625000Y-74558750I0J-218750D01*
G01*
X57625000Y-74996250D01*
G75*
G02*
X57406250Y-75215000I-218750J0D01*
G01*
X56893750Y-75215000D01*
G75*
G02*
X56675000Y-74996250I0J218750D01*
G01*
X56675000Y-74558750D01*
G75*
G02*
X56893750Y-74340000I218750J0D01*
G01*
G37*
G36*
G01*
X56893750Y-75915000D02*
X57406250Y-75915000D01*
G75*
G02*
X57625000Y-76133750I0J-218750D01*
G01*
X57625000Y-76571250D01*
G75*
G02*
X57406250Y-76790000I-218750J0D01*
G01*
X56893750Y-76790000D01*
G75*
G02*
X56675000Y-76571250I0J218750D01*
G01*
X56675000Y-76133750D01*
G75*
G02*
X56893750Y-75915000I218750J0D01*
G01*
G37*
D15*
X46350000Y-60355000D03*
X46350000Y-59705000D03*
X46350000Y-59055000D03*
X46350000Y-58405000D03*
X46350000Y-57755000D03*
G36*
G01*
X71752750Y-53470000D02*
X72265250Y-53470000D01*
G75*
G02*
X72484000Y-53688750I0J-218750D01*
G01*
X72484000Y-54126250D01*
G75*
G02*
X72265250Y-54345000I-218750J0D01*
G01*
X71752750Y-54345000D01*
G75*
G02*
X71534000Y-54126250I0J218750D01*
G01*
X71534000Y-53688750D01*
G75*
G02*
X71752750Y-53470000I218750J0D01*
G01*
G37*
G36*
G01*
X71752750Y-55045000D02*
X72265250Y-55045000D01*
G75*
G02*
X72484000Y-55263750I0J-218750D01*
G01*
X72484000Y-55701250D01*
G75*
G02*
X72265250Y-55920000I-218750J0D01*
G01*
X71752750Y-55920000D01*
G75*
G02*
X71534000Y-55701250I0J218750D01*
G01*
X71534000Y-55263750D01*
G75*
G02*
X71752750Y-55045000I218750J0D01*
G01*
G37*
G36*
G01*
X72265250Y-59560000D02*
X71752750Y-59560000D01*
G75*
G02*
X71534000Y-59341250I0J218750D01*
G01*
X71534000Y-58903750D01*
G75*
G02*
X71752750Y-58685000I218750J0D01*
G01*
X72265250Y-58685000D01*
G75*
G02*
X72484000Y-58903750I0J-218750D01*
G01*
X72484000Y-59341250D01*
G75*
G02*
X72265250Y-59560000I-218750J0D01*
G01*
G37*
G36*
G01*
X72265250Y-57985000D02*
X71752750Y-57985000D01*
G75*
G02*
X71534000Y-57766250I0J218750D01*
G01*
X71534000Y-57328750D01*
G75*
G02*
X71752750Y-57110000I218750J0D01*
G01*
X72265250Y-57110000D01*
G75*
G02*
X72484000Y-57328750I0J-218750D01*
G01*
X72484000Y-57766250D01*
G75*
G02*
X72265250Y-57985000I-218750J0D01*
G01*
G37*
G36*
G01*
X109632000Y-52829750D02*
X109632000Y-53342250D01*
G75*
G02*
X109413250Y-53561000I-218750J0D01*
G01*
X108975750Y-53561000D01*
G75*
G02*
X108757000Y-53342250I0J218750D01*
G01*
X108757000Y-52829750D01*
G75*
G02*
X108975750Y-52611000I218750J0D01*
G01*
X109413250Y-52611000D01*
G75*
G02*
X109632000Y-52829750I0J-218750D01*
G01*
G37*
G36*
G01*
X111207000Y-52829750D02*
X111207000Y-53342250D01*
G75*
G02*
X110988250Y-53561000I-218750J0D01*
G01*
X110550750Y-53561000D01*
G75*
G02*
X110332000Y-53342250I0J218750D01*
G01*
X110332000Y-52829750D01*
G75*
G02*
X110550750Y-52611000I218750J0D01*
G01*
X110988250Y-52611000D01*
G75*
G02*
X111207000Y-52829750I0J-218750D01*
G01*
G37*
G36*
G01*
X55501250Y-76790000D02*
X54988750Y-76790000D01*
G75*
G02*
X54770000Y-76571250I0J218750D01*
G01*
X54770000Y-76133750D01*
G75*
G02*
X54988750Y-75915000I218750J0D01*
G01*
X55501250Y-75915000D01*
G75*
G02*
X55720000Y-76133750I0J-218750D01*
G01*
X55720000Y-76571250D01*
G75*
G02*
X55501250Y-76790000I-218750J0D01*
G01*
G37*
G36*
G01*
X55501250Y-75215000D02*
X54988750Y-75215000D01*
G75*
G02*
X54770000Y-74996250I0J218750D01*
G01*
X54770000Y-74558750D01*
G75*
G02*
X54988750Y-74340000I218750J0D01*
G01*
X55501250Y-74340000D01*
G75*
G02*
X55720000Y-74558750I0J-218750D01*
G01*
X55720000Y-74996250D01*
G75*
G02*
X55501250Y-75215000I-218750J0D01*
G01*
G37*
M02*
