G04 #@! TF.GenerationSoftware,KiCad,Pcbnew,(5.1.9)-1*
G04 #@! TF.CreationDate,2021-02-23T10:58:52+09:00*
G04 #@! TF.ProjectId,ramn,72616d6e-2e6b-4696-9361-645f70636258,rev?*
G04 #@! TF.SameCoordinates,Original*
G04 #@! TF.FileFunction,Soldermask,Bot*
G04 #@! TF.FilePolarity,Negative*
%FSLAX46Y46*%
G04 Gerber Fmt 4.6, Leading zero omitted, Abs format (unit mm)*
G04 Created by KiCad (PCBNEW (5.1.9)-1) date 2021-02-23 10:58:52*
%MOMM*%
%LPD*%
G01*
G04 APERTURE LIST*
%ADD10C,2.000000*%
%ADD11R,2.000000X2.000000*%
%ADD12C,3.000000*%
%ADD13R,1.700000X1.700000*%
%ADD14O,1.700000X1.700000*%
%ADD15C,3.200000*%
%ADD16O,0.800000X0.800000*%
%ADD17O,1.800000X1.150000*%
%ADD18O,2.000000X1.450000*%
G04 APERTURE END LIST*
D10*
X121614000Y-52404000D03*
X124714000Y-52404000D03*
X121614000Y-54904000D03*
X124714000Y-54904000D03*
D11*
X121614000Y-57404000D03*
X124714000Y-57404000D03*
D12*
X43815000Y-85725000D03*
D13*
X86360000Y-93218000D03*
D14*
X86360000Y-95758000D03*
X88900000Y-93218000D03*
X88900000Y-95758000D03*
X91440000Y-93218000D03*
X91440000Y-95758000D03*
X93980000Y-93218000D03*
X93980000Y-95758000D03*
X96520000Y-93218000D03*
X96520000Y-95758000D03*
X99060000Y-93218000D03*
X99060000Y-95758000D03*
X101600000Y-93218000D03*
X101600000Y-95758000D03*
X104140000Y-93218000D03*
X104140000Y-95758000D03*
X106680000Y-93218000D03*
X106680000Y-95758000D03*
X109220000Y-93218000D03*
X109220000Y-95758000D03*
X111760000Y-93218000D03*
X111760000Y-95758000D03*
X114300000Y-93218000D03*
X114300000Y-95758000D03*
X116840000Y-93218000D03*
X116840000Y-95758000D03*
D13*
X50165000Y-93218000D03*
D14*
X50165000Y-95758000D03*
X52705000Y-93218000D03*
X52705000Y-95758000D03*
X55245000Y-93218000D03*
X55245000Y-95758000D03*
X57785000Y-93218000D03*
X57785000Y-95758000D03*
X60325000Y-93218000D03*
X60325000Y-95758000D03*
X62865000Y-93218000D03*
X62865000Y-95758000D03*
X65405000Y-93218000D03*
X65405000Y-95758000D03*
X67945000Y-93218000D03*
X67945000Y-95758000D03*
X70485000Y-93218000D03*
X70485000Y-95758000D03*
X73025000Y-93218000D03*
X73025000Y-95758000D03*
X75565000Y-93218000D03*
X75565000Y-95758000D03*
X78105000Y-93218000D03*
X78105000Y-95758000D03*
X80645000Y-93218000D03*
X80645000Y-95758000D03*
D13*
X116840000Y-47117000D03*
D14*
X116840000Y-44577000D03*
X114300000Y-47117000D03*
X114300000Y-44577000D03*
X111760000Y-47117000D03*
X111760000Y-44577000D03*
X109220000Y-47117000D03*
X109220000Y-44577000D03*
X106680000Y-47117000D03*
X106680000Y-44577000D03*
X104140000Y-47117000D03*
X104140000Y-44577000D03*
X101600000Y-47117000D03*
X101600000Y-44577000D03*
X99060000Y-47117000D03*
X99060000Y-44577000D03*
X96520000Y-47117000D03*
X96520000Y-44577000D03*
X93980000Y-47117000D03*
X93980000Y-44577000D03*
X91440000Y-47117000D03*
X91440000Y-44577000D03*
X88900000Y-47117000D03*
X88900000Y-44577000D03*
X86360000Y-47117000D03*
X86360000Y-44577000D03*
D15*
X122555000Y-46990000D03*
X44450000Y-93345000D03*
D14*
X50165000Y-44577000D03*
X50165000Y-47117000D03*
X52705000Y-44577000D03*
X52705000Y-47117000D03*
X55245000Y-44577000D03*
X55245000Y-47117000D03*
X57785000Y-44577000D03*
X57785000Y-47117000D03*
X60325000Y-44577000D03*
X60325000Y-47117000D03*
X62865000Y-44577000D03*
X62865000Y-47117000D03*
X65405000Y-44577000D03*
X65405000Y-47117000D03*
X67945000Y-44577000D03*
X67945000Y-47117000D03*
X70485000Y-44577000D03*
X70485000Y-47117000D03*
X73025000Y-44577000D03*
X73025000Y-47117000D03*
X75565000Y-44577000D03*
X75565000Y-47117000D03*
X78105000Y-44577000D03*
X78105000Y-47117000D03*
X80645000Y-44577000D03*
D13*
X80645000Y-47117000D03*
D12*
X104140000Y-66675000D03*
X123825000Y-62865000D03*
X118745000Y-62865000D03*
X123825000Y-71755000D03*
X118745000Y-71755000D03*
X93980000Y-66675000D03*
X83820000Y-66675000D03*
X43815000Y-76835000D03*
X43815000Y-67945000D03*
D16*
X45250000Y-61555000D03*
X45250000Y-56555000D03*
D17*
X42500000Y-62930000D03*
X42500000Y-55180000D03*
D18*
X46300000Y-62780000D03*
X46300000Y-55330000D03*
D15*
X44450000Y-46990000D03*
X122555000Y-93345000D03*
M02*
