G04 #@! TF.GenerationSoftware,KiCad,Pcbnew,(5.1.9)-1*
G04 #@! TF.CreationDate,2021-03-08T16:55:06+09:00*
G04 #@! TF.ProjectId,chassis,63686173-7369-4732-9e6b-696361645f70,rev?*
G04 #@! TF.SameCoordinates,Original*
G04 #@! TF.FileFunction,Soldermask,Top*
G04 #@! TF.FilePolarity,Negative*
%FSLAX46Y46*%
G04 Gerber Fmt 4.6, Leading zero omitted, Abs format (unit mm)*
G04 Created by KiCad (PCBNEW (5.1.9)-1) date 2021-03-08 16:55:06*
%MOMM*%
%LPD*%
G01*
G04 APERTURE LIST*
%ADD10O,2.800000X4.900000*%
%ADD11C,1.800000*%
%ADD12C,2.000000*%
%ADD13R,3.000000X1.500000*%
%ADD14C,1.600000*%
%ADD15R,1.100000X1.100000*%
%ADD16C,3.200000*%
%ADD17O,1.700000X1.700000*%
%ADD18R,1.700000X1.700000*%
%ADD19R,2.500000X1.500000*%
%ADD20O,2.500000X1.500000*%
%ADD21O,3.500000X2.200000*%
G04 APERTURE END LIST*
D10*
X40974000Y-40082000D03*
X50974000Y-40082000D03*
D11*
X43474000Y-36782000D03*
X45974000Y-36782000D03*
X48474000Y-36782000D03*
D12*
X34544000Y-57912000D03*
X69342000Y-57912000D03*
X34544000Y-41148000D03*
D13*
X60071000Y-45339000D03*
X54881000Y-45339000D03*
X54991000Y-55499000D03*
X60071000Y-55499000D03*
D14*
X62611000Y-52959000D03*
X62611000Y-50419000D03*
X62611000Y-47879000D03*
X52451000Y-47879000D03*
X52451000Y-52959000D03*
X52451000Y-50419000D03*
D15*
X48514000Y-53978000D03*
X48514000Y-51178000D03*
X44386500Y-53978000D03*
X44386500Y-51178000D03*
X40259000Y-53978000D03*
X40259000Y-51178000D03*
D16*
X35560000Y-36703000D03*
G36*
G01*
X36072000Y-53030000D02*
X36572000Y-53030000D01*
G75*
G02*
X36797000Y-53255000I0J-225000D01*
G01*
X36797000Y-53705000D01*
G75*
G02*
X36572000Y-53930000I-225000J0D01*
G01*
X36072000Y-53930000D01*
G75*
G02*
X35847000Y-53705000I0J225000D01*
G01*
X35847000Y-53255000D01*
G75*
G02*
X36072000Y-53030000I225000J0D01*
G01*
G37*
G36*
G01*
X36072000Y-51480000D02*
X36572000Y-51480000D01*
G75*
G02*
X36797000Y-51705000I0J-225000D01*
G01*
X36797000Y-52155000D01*
G75*
G02*
X36572000Y-52380000I-225000J0D01*
G01*
X36072000Y-52380000D01*
G75*
G02*
X35847000Y-52155000I0J225000D01*
G01*
X35847000Y-51705000D01*
G75*
G02*
X36072000Y-51480000I225000J0D01*
G01*
G37*
G36*
G01*
X48662000Y-47835000D02*
X48112000Y-47835000D01*
G75*
G02*
X47912000Y-47635000I0J200000D01*
G01*
X47912000Y-47235000D01*
G75*
G02*
X48112000Y-47035000I200000J0D01*
G01*
X48662000Y-47035000D01*
G75*
G02*
X48862000Y-47235000I0J-200000D01*
G01*
X48862000Y-47635000D01*
G75*
G02*
X48662000Y-47835000I-200000J0D01*
G01*
G37*
G36*
G01*
X48662000Y-49485000D02*
X48112000Y-49485000D01*
G75*
G02*
X47912000Y-49285000I0J200000D01*
G01*
X47912000Y-48885000D01*
G75*
G02*
X48112000Y-48685000I200000J0D01*
G01*
X48662000Y-48685000D01*
G75*
G02*
X48862000Y-48885000I0J-200000D01*
G01*
X48862000Y-49285000D01*
G75*
G02*
X48662000Y-49485000I-200000J0D01*
G01*
G37*
G36*
G01*
X45191000Y-48685000D02*
X45741000Y-48685000D01*
G75*
G02*
X45941000Y-48885000I0J-200000D01*
G01*
X45941000Y-49285000D01*
G75*
G02*
X45741000Y-49485000I-200000J0D01*
G01*
X45191000Y-49485000D01*
G75*
G02*
X44991000Y-49285000I0J200000D01*
G01*
X44991000Y-48885000D01*
G75*
G02*
X45191000Y-48685000I200000J0D01*
G01*
G37*
G36*
G01*
X45191000Y-47035000D02*
X45741000Y-47035000D01*
G75*
G02*
X45941000Y-47235000I0J-200000D01*
G01*
X45941000Y-47635000D01*
G75*
G02*
X45741000Y-47835000I-200000J0D01*
G01*
X45191000Y-47835000D01*
G75*
G02*
X44991000Y-47635000I0J200000D01*
G01*
X44991000Y-47235000D01*
G75*
G02*
X45191000Y-47035000I200000J0D01*
G01*
G37*
G36*
G01*
X42693000Y-47835000D02*
X42143000Y-47835000D01*
G75*
G02*
X41943000Y-47635000I0J200000D01*
G01*
X41943000Y-47235000D01*
G75*
G02*
X42143000Y-47035000I200000J0D01*
G01*
X42693000Y-47035000D01*
G75*
G02*
X42893000Y-47235000I0J-200000D01*
G01*
X42893000Y-47635000D01*
G75*
G02*
X42693000Y-47835000I-200000J0D01*
G01*
G37*
G36*
G01*
X42693000Y-49485000D02*
X42143000Y-49485000D01*
G75*
G02*
X41943000Y-49285000I0J200000D01*
G01*
X41943000Y-48885000D01*
G75*
G02*
X42143000Y-48685000I200000J0D01*
G01*
X42693000Y-48685000D01*
G75*
G02*
X42893000Y-48885000I0J-200000D01*
G01*
X42893000Y-49285000D01*
G75*
G02*
X42693000Y-49485000I-200000J0D01*
G01*
G37*
G36*
G01*
X39645000Y-47835000D02*
X39095000Y-47835000D01*
G75*
G02*
X38895000Y-47635000I0J200000D01*
G01*
X38895000Y-47235000D01*
G75*
G02*
X39095000Y-47035000I200000J0D01*
G01*
X39645000Y-47035000D01*
G75*
G02*
X39845000Y-47235000I0J-200000D01*
G01*
X39845000Y-47635000D01*
G75*
G02*
X39645000Y-47835000I-200000J0D01*
G01*
G37*
G36*
G01*
X39645000Y-49485000D02*
X39095000Y-49485000D01*
G75*
G02*
X38895000Y-49285000I0J200000D01*
G01*
X38895000Y-48885000D01*
G75*
G02*
X39095000Y-48685000I200000J0D01*
G01*
X39645000Y-48685000D01*
G75*
G02*
X39845000Y-48885000I0J-200000D01*
G01*
X39845000Y-49285000D01*
G75*
G02*
X39645000Y-49485000I-200000J0D01*
G01*
G37*
G36*
G01*
X36047000Y-48685000D02*
X36597000Y-48685000D01*
G75*
G02*
X36797000Y-48885000I0J-200000D01*
G01*
X36797000Y-49285000D01*
G75*
G02*
X36597000Y-49485000I-200000J0D01*
G01*
X36047000Y-49485000D01*
G75*
G02*
X35847000Y-49285000I0J200000D01*
G01*
X35847000Y-48885000D01*
G75*
G02*
X36047000Y-48685000I200000J0D01*
G01*
G37*
G36*
G01*
X36047000Y-47035000D02*
X36597000Y-47035000D01*
G75*
G02*
X36797000Y-47235000I0J-200000D01*
G01*
X36797000Y-47635000D01*
G75*
G02*
X36597000Y-47835000I-200000J0D01*
G01*
X36047000Y-47835000D01*
G75*
G02*
X35847000Y-47635000I0J200000D01*
G01*
X35847000Y-47235000D01*
G75*
G02*
X36047000Y-47035000I200000J0D01*
G01*
G37*
X68326000Y-36703000D03*
D17*
X34544000Y-60960000D03*
X34544000Y-63500000D03*
X37084000Y-60960000D03*
X37084000Y-63500000D03*
X39624000Y-60960000D03*
X39624000Y-63500000D03*
X42164000Y-60960000D03*
X42164000Y-63500000D03*
X44704000Y-60960000D03*
X44704000Y-63500000D03*
X47244000Y-60960000D03*
X47244000Y-63500000D03*
X49784000Y-60960000D03*
X49784000Y-63500000D03*
X52324000Y-60960000D03*
X52324000Y-63500000D03*
X54864000Y-60960000D03*
X54864000Y-63500000D03*
X57404000Y-60960000D03*
X57404000Y-63500000D03*
X59944000Y-60960000D03*
X59944000Y-63500000D03*
X62484000Y-60960000D03*
X62484000Y-63500000D03*
X65024000Y-60960000D03*
D18*
X65024000Y-63500000D03*
D19*
X68580000Y-49530000D03*
D20*
X68580000Y-47530000D03*
X68580000Y-45530000D03*
D21*
X68580000Y-51630000D03*
X68580000Y-43430000D03*
M02*
