M48
; DRILL file {KiCad (5.1.9)-1} date 02/23/21 10:59:05
; FORMAT={-:-/ absolute / inch / decimal}
; #@! TF.CreationDate,2021-02-23T10:59:05+09:00
; #@! TF.GenerationSoftware,Kicad,Pcbnew,(5.1.9)-1
; #@! TF.FileFunction,Plated,1,2,PTH
FMAT,2
INCH
T1C0.0157
T2C0.0217
T3C0.0335
T4C0.0394
T5C0.0472
T6C0.0591
%
G90
G05
T1
X1.68Y-2.09
X1.795Y-3.1
X1.795Y-3.2
X1.85Y-3.3
X1.9Y-2.175
X1.9Y-2.225
X1.9Y-2.425
X1.9Y-2.475
X1.9Y-2.525
X1.9Y-2.65
X1.9Y-2.725
X1.9Y-2.9
X1.9Y-3.0
X1.9Y-3.1
X1.9Y-3.2
X1.95Y-1.975
X1.975Y-2.175
X1.975Y-2.225
X1.985Y-2.445
X1.985Y-2.685
X1.985Y-2.7396
X1.985Y-3.53
X1.99Y-2.64
X1.9984Y-2.025
X2.0Y-3.45
X2.04Y-2.455
X2.045Y-2.685
X2.045Y-2.74
X2.05Y-3.5
X2.065Y-3.445
X2.0784Y-2.4684
X2.085Y-2.64
X2.117Y-2.5003
X2.16Y-2.01
X2.16Y-2.05
X2.1678Y-2.2822
X2.2Y-2.525
X2.2429Y-2.3704
X2.2503Y-2.525
X2.265Y-2.295
X2.27Y-3.17
X2.2834Y-2.1874
X2.285Y-2.895
X2.29Y-2.23
X2.295Y-3.415
X2.3Y-2.5
X2.32Y-2.38
X2.335Y-2.345
X2.335Y-2.555
X2.375Y-2.2
X2.375Y-2.275
X2.42Y-2.605
X2.47Y-2.74
X2.52Y-2.51
X2.54Y-3.16
X2.54Y-3.49
X2.542Y-3.267
X2.5592Y-2.3616
X2.58Y-2.27
X2.58Y-3.45
X2.59Y-2.335
X2.61Y-3.41
X2.62Y-2.305
X2.63Y-2.1
X2.67Y-3.18
X2.675Y-3.225
X2.7Y-2.93
X2.73Y-3.32
X2.7455Y-3.1245
X2.78Y-3.32
X2.8Y-3.0
X2.82Y-2.47
X2.83Y-3.16
X2.83Y-3.21
X2.8439Y-2.9966
X2.875Y-3.175
X2.8821Y-2.9972
X2.885Y-3.475
X2.9Y-2.25
X2.91Y-1.97
X2.9167Y-2.5717
X2.92Y-3.02
X2.942Y-2.65
X2.942Y-2.725
X2.9492Y-2.5392
X2.96Y-3.37
X3.005Y-2.4
X3.0192Y-2.4692
X3.02Y-1.97
X3.03Y-2.1
X3.03Y-3.2
X3.0567Y-2.4317
X3.075Y-1.97
X3.08Y-3.565
X3.09Y-2.3984
X3.1091Y-2.2793
X3.13Y-1.97
X3.15Y-2.55
X3.195Y-3.095
X3.215Y-2.89
X3.2175Y-2.8175
X3.22Y-3.38
X3.225Y-1.97
X3.2505Y-3.125
X3.255Y-3.565
X3.32Y-3.38
X3.32Y-3.47
X3.375Y-2.55
X3.375Y-2.725
X3.3827Y-2.315
X3.384Y-3.32
X3.4201Y-2.1953
X3.425Y-2.2714
X3.425Y-2.315
X3.4361Y-3.4261
X3.47Y-3.19
X3.475Y-3.1
X3.485Y-3.565
X3.55Y-2.005
X3.55Y-2.23
X3.55Y-2.31
X3.6Y-2.95
X3.6Y-3.0
X3.605Y-2.175
X3.61Y-2.365
X3.625Y-2.5
X3.625Y-2.55
X3.625Y-2.725
X3.64Y-2.335
X3.65Y-3.02
X3.655Y-2.175
X3.6742Y-2.5053
X3.6778Y-2.379
X3.7Y-3.17
X3.705Y-2.175
X3.715Y-3.425
X3.74Y-2.27
X3.74Y-2.31
X3.75Y-2.175
X3.8Y-2.98
X3.85Y-2.12
X3.8825Y-2.3525
X3.9Y-2.225
X3.9Y-2.725
X3.905Y-3.17
X3.9662Y-3.2662
X3.97Y-3.48
X4.0Y-2.65
X4.005Y-2.135
X4.01Y-3.44
X4.04Y-3.39
X4.1Y-3.2
X4.1Y-3.32
X4.13Y-3.23
X4.15Y-2.4762
X4.15Y-3.32
X4.17Y-2.1
X4.17Y-2.15
X4.1722Y-3.121
X4.175Y-3.165
X4.1958Y-2.5042
X4.2Y-2.6
X4.2Y-3.32
X4.2376Y-3.0
X4.255Y-3.22
X4.275Y-3.0
X4.3Y-3.175
X4.3Y-3.22
X4.3Y-3.26
X4.3Y-3.475
X4.325Y-3.0
X4.36Y-3.0234
X4.37Y-1.955
X4.3917Y-2.4317
X4.4Y-2.6
X4.4Y-2.65
X4.4Y-3.37
X4.42Y-2.955
X4.425Y-2.235
X4.44Y-3.17
X4.475Y-1.955
X4.475Y-2.815
X4.5Y-3.24
X4.505Y-2.25
X4.5625Y-1.955
X4.57Y-2.3
X4.6Y-2.565
X4.6Y-2.625
X4.6Y-2.74
X4.6Y-3.075
X4.6055Y-2.9417
X4.675Y-3.1
X4.69Y-3.38
X4.75Y-3.1266
X4.765Y-2.93
X4.765Y-3.285
X4.89Y-3.52
T4
X1.975Y-1.755
X1.975Y-1.855
X1.975Y-3.67
X1.975Y-3.77
X2.075Y-1.755
X2.075Y-1.855
X2.075Y-3.67
X2.075Y-3.77
X2.175Y-1.755
X2.175Y-1.855
X2.175Y-3.67
X2.175Y-3.77
X2.275Y-1.755
X2.275Y-1.855
X2.275Y-3.67
X2.275Y-3.77
X2.375Y-1.755
X2.375Y-1.855
X2.375Y-3.67
X2.375Y-3.77
X2.475Y-1.755
X2.475Y-1.855
X2.475Y-3.67
X2.475Y-3.77
X2.575Y-1.755
X2.575Y-1.855
X2.575Y-3.67
X2.575Y-3.77
X2.675Y-1.755
X2.675Y-1.855
X2.675Y-3.67
X2.675Y-3.77
X2.775Y-1.755
X2.775Y-1.855
X2.775Y-3.67
X2.775Y-3.77
X2.875Y-1.755
X2.875Y-1.855
X2.875Y-3.67
X2.875Y-3.77
X2.975Y-1.755
X2.975Y-1.855
X2.975Y-3.67
X2.975Y-3.77
X3.075Y-1.755
X3.075Y-1.855
X3.075Y-3.67
X3.075Y-3.77
X3.175Y-1.755
X3.175Y-1.855
X3.175Y-3.67
X3.175Y-3.77
X3.4Y-1.755
X3.4Y-1.855
X3.4Y-3.67
X3.4Y-3.77
X3.5Y-1.755
X3.5Y-1.855
X3.5Y-3.67
X3.5Y-3.77
X3.6Y-1.755
X3.6Y-1.855
X3.6Y-3.67
X3.6Y-3.77
X3.7Y-1.755
X3.7Y-1.855
X3.7Y-3.67
X3.7Y-3.77
X3.8Y-1.755
X3.8Y-1.855
X3.8Y-3.67
X3.8Y-3.77
X3.9Y-1.755
X3.9Y-1.855
X3.9Y-3.67
X3.9Y-3.77
X4.0Y-1.755
X4.0Y-1.855
X4.0Y-3.67
X4.0Y-3.77
X4.1Y-1.755
X4.1Y-1.855
X4.1Y-3.67
X4.1Y-3.77
X4.2Y-1.755
X4.2Y-1.855
X4.2Y-3.67
X4.2Y-3.77
X4.3Y-1.755
X4.3Y-1.855
X4.3Y-3.67
X4.3Y-3.77
X4.4Y-1.755
X4.4Y-1.855
X4.4Y-3.67
X4.4Y-3.77
X4.5Y-1.755
X4.5Y-1.855
X4.5Y-3.67
X4.5Y-3.77
X4.6Y-1.755
X4.6Y-1.855
X4.6Y-3.67
X4.6Y-3.77
T5
X4.788Y-2.0631
X4.788Y-2.1616
X4.788Y-2.26
X4.91Y-2.0631
X4.91Y-2.1616
X4.91Y-2.26
T6
X1.725Y-2.675
X1.725Y-3.025
X1.725Y-3.375
X3.3Y-2.625
X3.7Y-2.625
X4.1Y-2.625
X4.675Y-2.475
X4.675Y-2.825
X4.875Y-2.475
X4.875Y-2.825
T2
G00X1.686Y-2.1724
M15
G01X1.6604Y-2.1724
M16
G05
G00X1.686Y-2.4776
M15
G01X1.6604Y-2.4776
M16
G05
T3
G00X1.8337Y-2.1783
M15
G01X1.812Y-2.1783
M16
G05
G00X1.8337Y-2.4717
M15
G01X1.812Y-2.4717
M16
G05
T0
M30
