G04 #@! TF.GenerationSoftware,KiCad,Pcbnew,7.0.9*
G04 #@! TF.CreationDate,2025-01-29T12:54:56-06:00*
G04 #@! TF.ProjectId,powertrain,706f7765-7274-4726-9169-6e2e6b696361,rev?*
G04 #@! TF.SameCoordinates,Original*
G04 #@! TF.FileFunction,Legend,Top*
G04 #@! TF.FilePolarity,Positive*
%FSLAX46Y46*%
G04 Gerber Fmt 4.6, Leading zero omitted, Abs format (unit mm)*
G04 Created by KiCad (PCBNEW 7.0.9) date 2025-01-29 12:54:56*
%MOMM*%
%LPD*%
G01*
G04 APERTURE LIST*
%ADD10C,0.120000*%
%ADD11C,0.300000*%
%ADD12C,0.150000*%
G04 APERTURE END LIST*
D10*
X60960000Y-21463000D02*
X42926000Y-21463000D01*
X47498000Y-29210000D02*
X47498000Y-28702000D01*
X55880000Y-25654000D02*
X55880000Y-27432000D01*
X64262000Y-25654000D02*
X65024000Y-25654000D01*
X39116000Y-25654000D02*
X39116000Y-27686000D01*
X55118000Y-25654000D02*
X55880000Y-25654000D01*
X60960000Y-23368000D02*
X60960000Y-21463000D01*
X46228000Y-30480000D02*
X47498000Y-29210000D01*
X42926000Y-23368000D02*
X60960000Y-23368000D01*
X42926000Y-23368000D02*
X42926000Y-21463000D01*
X39878000Y-25654000D02*
X39116000Y-25654000D01*
X65024000Y-25654000D02*
X65024000Y-27432000D01*
D11*
X45965713Y-24285100D02*
X45751428Y-24213671D01*
X45751428Y-24213671D02*
X45394285Y-24213671D01*
X45394285Y-24213671D02*
X45251428Y-24285100D01*
X45251428Y-24285100D02*
X45179999Y-24356528D01*
X45179999Y-24356528D02*
X45108570Y-24499385D01*
X45108570Y-24499385D02*
X45108570Y-24642242D01*
X45108570Y-24642242D02*
X45179999Y-24785100D01*
X45179999Y-24785100D02*
X45251428Y-24856528D01*
X45251428Y-24856528D02*
X45394285Y-24927957D01*
X45394285Y-24927957D02*
X45679999Y-24999385D01*
X45679999Y-24999385D02*
X45822856Y-25070814D01*
X45822856Y-25070814D02*
X45894285Y-25142242D01*
X45894285Y-25142242D02*
X45965713Y-25285100D01*
X45965713Y-25285100D02*
X45965713Y-25427957D01*
X45965713Y-25427957D02*
X45894285Y-25570814D01*
X45894285Y-25570814D02*
X45822856Y-25642242D01*
X45822856Y-25642242D02*
X45679999Y-25713671D01*
X45679999Y-25713671D02*
X45322856Y-25713671D01*
X45322856Y-25713671D02*
X45108570Y-25642242D01*
X44465714Y-24213671D02*
X44465714Y-25713671D01*
X44465714Y-24999385D02*
X43608571Y-24999385D01*
X43608571Y-24213671D02*
X43608571Y-25713671D01*
X42894285Y-24213671D02*
X42894285Y-25713671D01*
X41679999Y-24999385D02*
X42179999Y-24999385D01*
X42179999Y-24213671D02*
X42179999Y-25713671D01*
X42179999Y-25713671D02*
X41465713Y-25713671D01*
X41108570Y-25713671D02*
X40251428Y-25713671D01*
X40679999Y-24213671D02*
X40679999Y-25713671D01*
X54958856Y-24642242D02*
X54244571Y-24642242D01*
X55101713Y-24213671D02*
X54601713Y-25713671D01*
X54601713Y-25713671D02*
X54101713Y-24213671D01*
X52744571Y-24356528D02*
X52815999Y-24285100D01*
X52815999Y-24285100D02*
X53030285Y-24213671D01*
X53030285Y-24213671D02*
X53173142Y-24213671D01*
X53173142Y-24213671D02*
X53387428Y-24285100D01*
X53387428Y-24285100D02*
X53530285Y-24427957D01*
X53530285Y-24427957D02*
X53601714Y-24570814D01*
X53601714Y-24570814D02*
X53673142Y-24856528D01*
X53673142Y-24856528D02*
X53673142Y-25070814D01*
X53673142Y-25070814D02*
X53601714Y-25356528D01*
X53601714Y-25356528D02*
X53530285Y-25499385D01*
X53530285Y-25499385D02*
X53387428Y-25642242D01*
X53387428Y-25642242D02*
X53173142Y-25713671D01*
X53173142Y-25713671D02*
X53030285Y-25713671D01*
X53030285Y-25713671D02*
X52815999Y-25642242D01*
X52815999Y-25642242D02*
X52744571Y-25570814D01*
X51244571Y-24356528D02*
X51315999Y-24285100D01*
X51315999Y-24285100D02*
X51530285Y-24213671D01*
X51530285Y-24213671D02*
X51673142Y-24213671D01*
X51673142Y-24213671D02*
X51887428Y-24285100D01*
X51887428Y-24285100D02*
X52030285Y-24427957D01*
X52030285Y-24427957D02*
X52101714Y-24570814D01*
X52101714Y-24570814D02*
X52173142Y-24856528D01*
X52173142Y-24856528D02*
X52173142Y-25070814D01*
X52173142Y-25070814D02*
X52101714Y-25356528D01*
X52101714Y-25356528D02*
X52030285Y-25499385D01*
X52030285Y-25499385D02*
X51887428Y-25642242D01*
X51887428Y-25642242D02*
X51673142Y-25713671D01*
X51673142Y-25713671D02*
X51530285Y-25713671D01*
X51530285Y-25713671D02*
X51315999Y-25642242D01*
X51315999Y-25642242D02*
X51244571Y-25570814D01*
X50601714Y-24999385D02*
X50101714Y-24999385D01*
X49887428Y-24213671D02*
X50601714Y-24213671D01*
X50601714Y-24213671D02*
X50601714Y-25713671D01*
X50601714Y-25713671D02*
X49887428Y-25713671D01*
X48530285Y-24213671D02*
X49244571Y-24213671D01*
X49244571Y-24213671D02*
X49244571Y-25713671D01*
X63420285Y-24999385D02*
X63205999Y-24927957D01*
X63205999Y-24927957D02*
X63134570Y-24856528D01*
X63134570Y-24856528D02*
X63063142Y-24713671D01*
X63063142Y-24713671D02*
X63063142Y-24499385D01*
X63063142Y-24499385D02*
X63134570Y-24356528D01*
X63134570Y-24356528D02*
X63205999Y-24285100D01*
X63205999Y-24285100D02*
X63348856Y-24213671D01*
X63348856Y-24213671D02*
X63920285Y-24213671D01*
X63920285Y-24213671D02*
X63920285Y-25713671D01*
X63920285Y-25713671D02*
X63420285Y-25713671D01*
X63420285Y-25713671D02*
X63277428Y-25642242D01*
X63277428Y-25642242D02*
X63205999Y-25570814D01*
X63205999Y-25570814D02*
X63134570Y-25427957D01*
X63134570Y-25427957D02*
X63134570Y-25285100D01*
X63134570Y-25285100D02*
X63205999Y-25142242D01*
X63205999Y-25142242D02*
X63277428Y-25070814D01*
X63277428Y-25070814D02*
X63420285Y-24999385D01*
X63420285Y-24999385D02*
X63920285Y-24999385D01*
X61563142Y-24213671D02*
X62063142Y-24927957D01*
X62420285Y-24213671D02*
X62420285Y-25713671D01*
X62420285Y-25713671D02*
X61848856Y-25713671D01*
X61848856Y-25713671D02*
X61705999Y-25642242D01*
X61705999Y-25642242D02*
X61634570Y-25570814D01*
X61634570Y-25570814D02*
X61563142Y-25427957D01*
X61563142Y-25427957D02*
X61563142Y-25213671D01*
X61563142Y-25213671D02*
X61634570Y-25070814D01*
X61634570Y-25070814D02*
X61705999Y-24999385D01*
X61705999Y-24999385D02*
X61848856Y-24927957D01*
X61848856Y-24927957D02*
X62420285Y-24927957D01*
X60991713Y-24642242D02*
X60277428Y-24642242D01*
X61134570Y-24213671D02*
X60634570Y-25713671D01*
X60634570Y-25713671D02*
X60134570Y-24213671D01*
X59634571Y-24213671D02*
X59634571Y-25713671D01*
X58777428Y-24213671D02*
X59420285Y-25070814D01*
X58777428Y-25713671D02*
X59634571Y-24856528D01*
X58134571Y-24999385D02*
X57634571Y-24999385D01*
X57420285Y-24213671D02*
X58134571Y-24213671D01*
X58134571Y-24213671D02*
X58134571Y-25713671D01*
X58134571Y-25713671D02*
X57420285Y-25713671D01*
X46216142Y-46144328D02*
X46216142Y-44644328D01*
X47073285Y-46144328D02*
X46430428Y-45287185D01*
X47073285Y-44644328D02*
X46216142Y-45501471D01*
X42441857Y-48001757D02*
X43156143Y-48001757D01*
X42299000Y-48430328D02*
X42799000Y-46930328D01*
X42799000Y-46930328D02*
X43299000Y-48430328D01*
X46251857Y-48001757D02*
X46966143Y-48001757D01*
X46109000Y-48430328D02*
X46609000Y-46930328D01*
X46609000Y-46930328D02*
X47109000Y-48430328D01*
X42406142Y-46144328D02*
X42406142Y-44644328D01*
X43263285Y-46144328D02*
X42620428Y-45287185D01*
X43263285Y-44644328D02*
X42406142Y-45501471D01*
D12*
X58649334Y-21897180D02*
X58982667Y-22373371D01*
X59220762Y-21897180D02*
X59220762Y-22897180D01*
X59220762Y-22897180D02*
X58839810Y-22897180D01*
X58839810Y-22897180D02*
X58744572Y-22849561D01*
X58744572Y-22849561D02*
X58696953Y-22801942D01*
X58696953Y-22801942D02*
X58649334Y-22706704D01*
X58649334Y-22706704D02*
X58649334Y-22563847D01*
X58649334Y-22563847D02*
X58696953Y-22468609D01*
X58696953Y-22468609D02*
X58744572Y-22420990D01*
X58744572Y-22420990D02*
X58839810Y-22373371D01*
X58839810Y-22373371D02*
X59220762Y-22373371D01*
X58268381Y-22182895D02*
X57792191Y-22182895D01*
X58363619Y-21897180D02*
X58030286Y-22897180D01*
X58030286Y-22897180D02*
X57696953Y-21897180D01*
X57363619Y-21897180D02*
X57363619Y-22897180D01*
X57363619Y-22897180D02*
X57030286Y-22182895D01*
X57030286Y-22182895D02*
X56696953Y-22897180D01*
X56696953Y-22897180D02*
X56696953Y-21897180D01*
X56220762Y-21897180D02*
X56220762Y-22897180D01*
X56220762Y-22897180D02*
X55649334Y-21897180D01*
X55649334Y-21897180D02*
X55649334Y-22897180D01*
X54554095Y-22897180D02*
X54220762Y-21897180D01*
X54220762Y-21897180D02*
X53887429Y-22897180D01*
X53030286Y-21897180D02*
X53601714Y-21897180D01*
X53316000Y-21897180D02*
X53316000Y-22897180D01*
X53316000Y-22897180D02*
X53411238Y-22754323D01*
X53411238Y-22754323D02*
X53506476Y-22659085D01*
X53506476Y-22659085D02*
X53601714Y-22611466D01*
X51839809Y-21897180D02*
X51839809Y-22897180D01*
X51839809Y-22897180D02*
X51458857Y-22897180D01*
X51458857Y-22897180D02*
X51363619Y-22849561D01*
X51363619Y-22849561D02*
X51316000Y-22801942D01*
X51316000Y-22801942D02*
X51268381Y-22706704D01*
X51268381Y-22706704D02*
X51268381Y-22563847D01*
X51268381Y-22563847D02*
X51316000Y-22468609D01*
X51316000Y-22468609D02*
X51363619Y-22420990D01*
X51363619Y-22420990D02*
X51458857Y-22373371D01*
X51458857Y-22373371D02*
X51839809Y-22373371D01*
X50696952Y-21897180D02*
X50792190Y-21944800D01*
X50792190Y-21944800D02*
X50839809Y-21992419D01*
X50839809Y-21992419D02*
X50887428Y-22087657D01*
X50887428Y-22087657D02*
X50887428Y-22373371D01*
X50887428Y-22373371D02*
X50839809Y-22468609D01*
X50839809Y-22468609D02*
X50792190Y-22516228D01*
X50792190Y-22516228D02*
X50696952Y-22563847D01*
X50696952Y-22563847D02*
X50554095Y-22563847D01*
X50554095Y-22563847D02*
X50458857Y-22516228D01*
X50458857Y-22516228D02*
X50411238Y-22468609D01*
X50411238Y-22468609D02*
X50363619Y-22373371D01*
X50363619Y-22373371D02*
X50363619Y-22087657D01*
X50363619Y-22087657D02*
X50411238Y-21992419D01*
X50411238Y-21992419D02*
X50458857Y-21944800D01*
X50458857Y-21944800D02*
X50554095Y-21897180D01*
X50554095Y-21897180D02*
X50696952Y-21897180D01*
X50030285Y-22563847D02*
X49839809Y-21897180D01*
X49839809Y-21897180D02*
X49649333Y-22373371D01*
X49649333Y-22373371D02*
X49458857Y-21897180D01*
X49458857Y-21897180D02*
X49268381Y-22563847D01*
X48506476Y-21944800D02*
X48601714Y-21897180D01*
X48601714Y-21897180D02*
X48792190Y-21897180D01*
X48792190Y-21897180D02*
X48887428Y-21944800D01*
X48887428Y-21944800D02*
X48935047Y-22040038D01*
X48935047Y-22040038D02*
X48935047Y-22420990D01*
X48935047Y-22420990D02*
X48887428Y-22516228D01*
X48887428Y-22516228D02*
X48792190Y-22563847D01*
X48792190Y-22563847D02*
X48601714Y-22563847D01*
X48601714Y-22563847D02*
X48506476Y-22516228D01*
X48506476Y-22516228D02*
X48458857Y-22420990D01*
X48458857Y-22420990D02*
X48458857Y-22325752D01*
X48458857Y-22325752D02*
X48935047Y-22230514D01*
X48030285Y-21897180D02*
X48030285Y-22563847D01*
X48030285Y-22373371D02*
X47982666Y-22468609D01*
X47982666Y-22468609D02*
X47935047Y-22516228D01*
X47935047Y-22516228D02*
X47839809Y-22563847D01*
X47839809Y-22563847D02*
X47744571Y-22563847D01*
X47554094Y-22563847D02*
X47173142Y-22563847D01*
X47411237Y-22897180D02*
X47411237Y-22040038D01*
X47411237Y-22040038D02*
X47363618Y-21944800D01*
X47363618Y-21944800D02*
X47268380Y-21897180D01*
X47268380Y-21897180D02*
X47173142Y-21897180D01*
X46839808Y-21897180D02*
X46839808Y-22563847D01*
X46839808Y-22373371D02*
X46792189Y-22468609D01*
X46792189Y-22468609D02*
X46744570Y-22516228D01*
X46744570Y-22516228D02*
X46649332Y-22563847D01*
X46649332Y-22563847D02*
X46554094Y-22563847D01*
X45792189Y-21897180D02*
X45792189Y-22420990D01*
X45792189Y-22420990D02*
X45839808Y-22516228D01*
X45839808Y-22516228D02*
X45935046Y-22563847D01*
X45935046Y-22563847D02*
X46125522Y-22563847D01*
X46125522Y-22563847D02*
X46220760Y-22516228D01*
X45792189Y-21944800D02*
X45887427Y-21897180D01*
X45887427Y-21897180D02*
X46125522Y-21897180D01*
X46125522Y-21897180D02*
X46220760Y-21944800D01*
X46220760Y-21944800D02*
X46268379Y-22040038D01*
X46268379Y-22040038D02*
X46268379Y-22135276D01*
X46268379Y-22135276D02*
X46220760Y-22230514D01*
X46220760Y-22230514D02*
X46125522Y-22278133D01*
X46125522Y-22278133D02*
X45887427Y-22278133D01*
X45887427Y-22278133D02*
X45792189Y-22325752D01*
X45315998Y-21897180D02*
X45315998Y-22563847D01*
X45315998Y-22897180D02*
X45363617Y-22849561D01*
X45363617Y-22849561D02*
X45315998Y-22801942D01*
X45315998Y-22801942D02*
X45268379Y-22849561D01*
X45268379Y-22849561D02*
X45315998Y-22897180D01*
X45315998Y-22897180D02*
X45315998Y-22801942D01*
X44839808Y-22563847D02*
X44839808Y-21897180D01*
X44839808Y-22468609D02*
X44792189Y-22516228D01*
X44792189Y-22516228D02*
X44696951Y-22563847D01*
X44696951Y-22563847D02*
X44554094Y-22563847D01*
X44554094Y-22563847D02*
X44458856Y-22516228D01*
X44458856Y-22516228D02*
X44411237Y-22420990D01*
X44411237Y-22420990D02*
X44411237Y-21897180D01*
X61616761Y-27328819D02*
X61283428Y-26852628D01*
X61045333Y-27328819D02*
X61045333Y-26328819D01*
X61045333Y-26328819D02*
X61426285Y-26328819D01*
X61426285Y-26328819D02*
X61521523Y-26376438D01*
X61521523Y-26376438D02*
X61569142Y-26424057D01*
X61569142Y-26424057D02*
X61616761Y-26519295D01*
X61616761Y-26519295D02*
X61616761Y-26662152D01*
X61616761Y-26662152D02*
X61569142Y-26757390D01*
X61569142Y-26757390D02*
X61521523Y-26805009D01*
X61521523Y-26805009D02*
X61426285Y-26852628D01*
X61426285Y-26852628D02*
X61045333Y-26852628D01*
X61902476Y-26328819D02*
X62235809Y-27328819D01*
X62235809Y-27328819D02*
X62569142Y-26328819D01*
X62854857Y-26424057D02*
X62902476Y-26376438D01*
X62902476Y-26376438D02*
X62997714Y-26328819D01*
X62997714Y-26328819D02*
X63235809Y-26328819D01*
X63235809Y-26328819D02*
X63331047Y-26376438D01*
X63331047Y-26376438D02*
X63378666Y-26424057D01*
X63378666Y-26424057D02*
X63426285Y-26519295D01*
X63426285Y-26519295D02*
X63426285Y-26614533D01*
X63426285Y-26614533D02*
X63378666Y-26757390D01*
X63378666Y-26757390D02*
X62807238Y-27328819D01*
X62807238Y-27328819D02*
X63426285Y-27328819D01*
X40677180Y-55276905D02*
X40677180Y-55895952D01*
X40677180Y-55895952D02*
X40296228Y-55562619D01*
X40296228Y-55562619D02*
X40296228Y-55705476D01*
X40296228Y-55705476D02*
X40248609Y-55800714D01*
X40248609Y-55800714D02*
X40200990Y-55848333D01*
X40200990Y-55848333D02*
X40105752Y-55895952D01*
X40105752Y-55895952D02*
X39867657Y-55895952D01*
X39867657Y-55895952D02*
X39772419Y-55848333D01*
X39772419Y-55848333D02*
X39724800Y-55800714D01*
X39724800Y-55800714D02*
X39677180Y-55705476D01*
X39677180Y-55705476D02*
X39677180Y-55419762D01*
X39677180Y-55419762D02*
X39724800Y-55324524D01*
X39724800Y-55324524D02*
X39772419Y-55276905D01*
X40677180Y-56181667D02*
X39677180Y-56515000D01*
X39677180Y-56515000D02*
X40677180Y-56848333D01*
X40677180Y-57086429D02*
X40677180Y-57705476D01*
X40677180Y-57705476D02*
X40296228Y-57372143D01*
X40296228Y-57372143D02*
X40296228Y-57515000D01*
X40296228Y-57515000D02*
X40248609Y-57610238D01*
X40248609Y-57610238D02*
X40200990Y-57657857D01*
X40200990Y-57657857D02*
X40105752Y-57705476D01*
X40105752Y-57705476D02*
X39867657Y-57705476D01*
X39867657Y-57705476D02*
X39772419Y-57657857D01*
X39772419Y-57657857D02*
X39724800Y-57610238D01*
X39724800Y-57610238D02*
X39677180Y-57515000D01*
X39677180Y-57515000D02*
X39677180Y-57229286D01*
X39677180Y-57229286D02*
X39724800Y-57134048D01*
X39724800Y-57134048D02*
X39772419Y-57086429D01*
X33866895Y-49339762D02*
X33866895Y-49815952D01*
X33581180Y-49244524D02*
X34581180Y-49577857D01*
X34581180Y-49577857D02*
X33581180Y-49911190D01*
X33676419Y-50815952D02*
X33628800Y-50768333D01*
X33628800Y-50768333D02*
X33581180Y-50625476D01*
X33581180Y-50625476D02*
X33581180Y-50530238D01*
X33581180Y-50530238D02*
X33628800Y-50387381D01*
X33628800Y-50387381D02*
X33724038Y-50292143D01*
X33724038Y-50292143D02*
X33819276Y-50244524D01*
X33819276Y-50244524D02*
X34009752Y-50196905D01*
X34009752Y-50196905D02*
X34152609Y-50196905D01*
X34152609Y-50196905D02*
X34343085Y-50244524D01*
X34343085Y-50244524D02*
X34438323Y-50292143D01*
X34438323Y-50292143D02*
X34533561Y-50387381D01*
X34533561Y-50387381D02*
X34581180Y-50530238D01*
X34581180Y-50530238D02*
X34581180Y-50625476D01*
X34581180Y-50625476D02*
X34533561Y-50768333D01*
X34533561Y-50768333D02*
X34485942Y-50815952D01*
X33676419Y-51815952D02*
X33628800Y-51768333D01*
X33628800Y-51768333D02*
X33581180Y-51625476D01*
X33581180Y-51625476D02*
X33581180Y-51530238D01*
X33581180Y-51530238D02*
X33628800Y-51387381D01*
X33628800Y-51387381D02*
X33724038Y-51292143D01*
X33724038Y-51292143D02*
X33819276Y-51244524D01*
X33819276Y-51244524D02*
X34009752Y-51196905D01*
X34009752Y-51196905D02*
X34152609Y-51196905D01*
X34152609Y-51196905D02*
X34343085Y-51244524D01*
X34343085Y-51244524D02*
X34438323Y-51292143D01*
X34438323Y-51292143D02*
X34533561Y-51387381D01*
X34533561Y-51387381D02*
X34581180Y-51530238D01*
X34581180Y-51530238D02*
X34581180Y-51625476D01*
X34581180Y-51625476D02*
X34533561Y-51768333D01*
X34533561Y-51768333D02*
X34485942Y-51815952D01*
X34104990Y-52244524D02*
X34104990Y-52577857D01*
X33581180Y-52720714D02*
X33581180Y-52244524D01*
X33581180Y-52244524D02*
X34581180Y-52244524D01*
X34581180Y-52244524D02*
X34581180Y-52720714D01*
X33581180Y-53625476D02*
X33581180Y-53149286D01*
X33581180Y-53149286D02*
X34581180Y-53149286D01*
X33628800Y-54403857D02*
X33581180Y-54546714D01*
X33581180Y-54546714D02*
X33581180Y-54784809D01*
X33581180Y-54784809D02*
X33628800Y-54880047D01*
X33628800Y-54880047D02*
X33676419Y-54927666D01*
X33676419Y-54927666D02*
X33771657Y-54975285D01*
X33771657Y-54975285D02*
X33866895Y-54975285D01*
X33866895Y-54975285D02*
X33962133Y-54927666D01*
X33962133Y-54927666D02*
X34009752Y-54880047D01*
X34009752Y-54880047D02*
X34057371Y-54784809D01*
X34057371Y-54784809D02*
X34104990Y-54594333D01*
X34104990Y-54594333D02*
X34152609Y-54499095D01*
X34152609Y-54499095D02*
X34200228Y-54451476D01*
X34200228Y-54451476D02*
X34295466Y-54403857D01*
X34295466Y-54403857D02*
X34390704Y-54403857D01*
X34390704Y-54403857D02*
X34485942Y-54451476D01*
X34485942Y-54451476D02*
X34533561Y-54499095D01*
X34533561Y-54499095D02*
X34581180Y-54594333D01*
X34581180Y-54594333D02*
X34581180Y-54832428D01*
X34581180Y-54832428D02*
X34533561Y-54975285D01*
X33581180Y-55403857D02*
X34581180Y-55403857D01*
X34104990Y-55403857D02*
X34104990Y-55975285D01*
X33581180Y-55975285D02*
X34581180Y-55975285D01*
X33581180Y-56451476D02*
X34581180Y-56451476D01*
X34104990Y-57260999D02*
X34104990Y-56927666D01*
X33581180Y-56927666D02*
X34581180Y-56927666D01*
X34581180Y-56927666D02*
X34581180Y-57403856D01*
X34581180Y-57641952D02*
X34581180Y-58213380D01*
X33581180Y-57927666D02*
X34581180Y-57927666D01*
X34104990Y-44545476D02*
X34057371Y-44688333D01*
X34057371Y-44688333D02*
X34009752Y-44735952D01*
X34009752Y-44735952D02*
X33914514Y-44783571D01*
X33914514Y-44783571D02*
X33771657Y-44783571D01*
X33771657Y-44783571D02*
X33676419Y-44735952D01*
X33676419Y-44735952D02*
X33628800Y-44688333D01*
X33628800Y-44688333D02*
X33581180Y-44593095D01*
X33581180Y-44593095D02*
X33581180Y-44212143D01*
X33581180Y-44212143D02*
X34581180Y-44212143D01*
X34581180Y-44212143D02*
X34581180Y-44545476D01*
X34581180Y-44545476D02*
X34533561Y-44640714D01*
X34533561Y-44640714D02*
X34485942Y-44688333D01*
X34485942Y-44688333D02*
X34390704Y-44735952D01*
X34390704Y-44735952D02*
X34295466Y-44735952D01*
X34295466Y-44735952D02*
X34200228Y-44688333D01*
X34200228Y-44688333D02*
X34152609Y-44640714D01*
X34152609Y-44640714D02*
X34104990Y-44545476D01*
X34104990Y-44545476D02*
X34104990Y-44212143D01*
X33581180Y-45783571D02*
X34057371Y-45450238D01*
X33581180Y-45212143D02*
X34581180Y-45212143D01*
X34581180Y-45212143D02*
X34581180Y-45593095D01*
X34581180Y-45593095D02*
X34533561Y-45688333D01*
X34533561Y-45688333D02*
X34485942Y-45735952D01*
X34485942Y-45735952D02*
X34390704Y-45783571D01*
X34390704Y-45783571D02*
X34247847Y-45783571D01*
X34247847Y-45783571D02*
X34152609Y-45735952D01*
X34152609Y-45735952D02*
X34104990Y-45688333D01*
X34104990Y-45688333D02*
X34057371Y-45593095D01*
X34057371Y-45593095D02*
X34057371Y-45212143D01*
X33866895Y-46164524D02*
X33866895Y-46640714D01*
X33581180Y-46069286D02*
X34581180Y-46402619D01*
X34581180Y-46402619D02*
X33581180Y-46735952D01*
X33581180Y-47069286D02*
X34581180Y-47069286D01*
X33581180Y-47640714D02*
X34152609Y-47212143D01*
X34581180Y-47640714D02*
X34009752Y-47069286D01*
X34104990Y-48069286D02*
X34104990Y-48402619D01*
X33581180Y-48545476D02*
X33581180Y-48069286D01*
X33581180Y-48069286D02*
X34581180Y-48069286D01*
X34581180Y-48069286D02*
X34581180Y-48545476D01*
X37171333Y-42618819D02*
X36838000Y-42142628D01*
X36599905Y-42618819D02*
X36599905Y-41618819D01*
X36599905Y-41618819D02*
X36980857Y-41618819D01*
X36980857Y-41618819D02*
X37076095Y-41666438D01*
X37076095Y-41666438D02*
X37123714Y-41714057D01*
X37123714Y-41714057D02*
X37171333Y-41809295D01*
X37171333Y-41809295D02*
X37171333Y-41952152D01*
X37171333Y-41952152D02*
X37123714Y-42047390D01*
X37123714Y-42047390D02*
X37076095Y-42095009D01*
X37076095Y-42095009D02*
X36980857Y-42142628D01*
X36980857Y-42142628D02*
X36599905Y-42142628D01*
X38076095Y-41618819D02*
X37599905Y-41618819D01*
X37599905Y-41618819D02*
X37552286Y-42095009D01*
X37552286Y-42095009D02*
X37599905Y-42047390D01*
X37599905Y-42047390D02*
X37695143Y-41999771D01*
X37695143Y-41999771D02*
X37933238Y-41999771D01*
X37933238Y-41999771D02*
X38028476Y-42047390D01*
X38028476Y-42047390D02*
X38076095Y-42095009D01*
X38076095Y-42095009D02*
X38123714Y-42190247D01*
X38123714Y-42190247D02*
X38123714Y-42428342D01*
X38123714Y-42428342D02*
X38076095Y-42523580D01*
X38076095Y-42523580D02*
X38028476Y-42571200D01*
X38028476Y-42571200D02*
X37933238Y-42618819D01*
X37933238Y-42618819D02*
X37695143Y-42618819D01*
X37695143Y-42618819D02*
X37599905Y-42571200D01*
X37599905Y-42571200D02*
X37552286Y-42523580D01*
X44791333Y-42618819D02*
X44458000Y-42142628D01*
X44219905Y-42618819D02*
X44219905Y-41618819D01*
X44219905Y-41618819D02*
X44600857Y-41618819D01*
X44600857Y-41618819D02*
X44696095Y-41666438D01*
X44696095Y-41666438D02*
X44743714Y-41714057D01*
X44743714Y-41714057D02*
X44791333Y-41809295D01*
X44791333Y-41809295D02*
X44791333Y-41952152D01*
X44791333Y-41952152D02*
X44743714Y-42047390D01*
X44743714Y-42047390D02*
X44696095Y-42095009D01*
X44696095Y-42095009D02*
X44600857Y-42142628D01*
X44600857Y-42142628D02*
X44219905Y-42142628D01*
X45172286Y-41714057D02*
X45219905Y-41666438D01*
X45219905Y-41666438D02*
X45315143Y-41618819D01*
X45315143Y-41618819D02*
X45553238Y-41618819D01*
X45553238Y-41618819D02*
X45648476Y-41666438D01*
X45648476Y-41666438D02*
X45696095Y-41714057D01*
X45696095Y-41714057D02*
X45743714Y-41809295D01*
X45743714Y-41809295D02*
X45743714Y-41904533D01*
X45743714Y-41904533D02*
X45696095Y-42047390D01*
X45696095Y-42047390D02*
X45124667Y-42618819D01*
X45124667Y-42618819D02*
X45743714Y-42618819D01*
X34631333Y-42618819D02*
X34298000Y-42142628D01*
X34059905Y-42618819D02*
X34059905Y-41618819D01*
X34059905Y-41618819D02*
X34440857Y-41618819D01*
X34440857Y-41618819D02*
X34536095Y-41666438D01*
X34536095Y-41666438D02*
X34583714Y-41714057D01*
X34583714Y-41714057D02*
X34631333Y-41809295D01*
X34631333Y-41809295D02*
X34631333Y-41952152D01*
X34631333Y-41952152D02*
X34583714Y-42047390D01*
X34583714Y-42047390D02*
X34536095Y-42095009D01*
X34536095Y-42095009D02*
X34440857Y-42142628D01*
X34440857Y-42142628D02*
X34059905Y-42142628D01*
X35488476Y-41618819D02*
X35298000Y-41618819D01*
X35298000Y-41618819D02*
X35202762Y-41666438D01*
X35202762Y-41666438D02*
X35155143Y-41714057D01*
X35155143Y-41714057D02*
X35059905Y-41856914D01*
X35059905Y-41856914D02*
X35012286Y-42047390D01*
X35012286Y-42047390D02*
X35012286Y-42428342D01*
X35012286Y-42428342D02*
X35059905Y-42523580D01*
X35059905Y-42523580D02*
X35107524Y-42571200D01*
X35107524Y-42571200D02*
X35202762Y-42618819D01*
X35202762Y-42618819D02*
X35393238Y-42618819D01*
X35393238Y-42618819D02*
X35488476Y-42571200D01*
X35488476Y-42571200D02*
X35536095Y-42523580D01*
X35536095Y-42523580D02*
X35583714Y-42428342D01*
X35583714Y-42428342D02*
X35583714Y-42190247D01*
X35583714Y-42190247D02*
X35536095Y-42095009D01*
X35536095Y-42095009D02*
X35488476Y-42047390D01*
X35488476Y-42047390D02*
X35393238Y-41999771D01*
X35393238Y-41999771D02*
X35202762Y-41999771D01*
X35202762Y-41999771D02*
X35107524Y-42047390D01*
X35107524Y-42047390D02*
X35059905Y-42095009D01*
X35059905Y-42095009D02*
X35012286Y-42190247D01*
X39711333Y-42618819D02*
X39378000Y-42142628D01*
X39139905Y-42618819D02*
X39139905Y-41618819D01*
X39139905Y-41618819D02*
X39520857Y-41618819D01*
X39520857Y-41618819D02*
X39616095Y-41666438D01*
X39616095Y-41666438D02*
X39663714Y-41714057D01*
X39663714Y-41714057D02*
X39711333Y-41809295D01*
X39711333Y-41809295D02*
X39711333Y-41952152D01*
X39711333Y-41952152D02*
X39663714Y-42047390D01*
X39663714Y-42047390D02*
X39616095Y-42095009D01*
X39616095Y-42095009D02*
X39520857Y-42142628D01*
X39520857Y-42142628D02*
X39139905Y-42142628D01*
X40568476Y-41952152D02*
X40568476Y-42618819D01*
X40330381Y-41571200D02*
X40092286Y-42285485D01*
X40092286Y-42285485D02*
X40711333Y-42285485D01*
X42251333Y-42618819D02*
X41918000Y-42142628D01*
X41679905Y-42618819D02*
X41679905Y-41618819D01*
X41679905Y-41618819D02*
X42060857Y-41618819D01*
X42060857Y-41618819D02*
X42156095Y-41666438D01*
X42156095Y-41666438D02*
X42203714Y-41714057D01*
X42203714Y-41714057D02*
X42251333Y-41809295D01*
X42251333Y-41809295D02*
X42251333Y-41952152D01*
X42251333Y-41952152D02*
X42203714Y-42047390D01*
X42203714Y-42047390D02*
X42156095Y-42095009D01*
X42156095Y-42095009D02*
X42060857Y-42142628D01*
X42060857Y-42142628D02*
X41679905Y-42142628D01*
X42584667Y-41618819D02*
X43203714Y-41618819D01*
X43203714Y-41618819D02*
X42870381Y-41999771D01*
X42870381Y-41999771D02*
X43013238Y-41999771D01*
X43013238Y-41999771D02*
X43108476Y-42047390D01*
X43108476Y-42047390D02*
X43156095Y-42095009D01*
X43156095Y-42095009D02*
X43203714Y-42190247D01*
X43203714Y-42190247D02*
X43203714Y-42428342D01*
X43203714Y-42428342D02*
X43156095Y-42523580D01*
X43156095Y-42523580D02*
X43108476Y-42571200D01*
X43108476Y-42571200D02*
X43013238Y-42618819D01*
X43013238Y-42618819D02*
X42727524Y-42618819D01*
X42727524Y-42618819D02*
X42632286Y-42571200D01*
X42632286Y-42571200D02*
X42584667Y-42523580D01*
X50694761Y-27378819D02*
X50361428Y-26902628D01*
X50123333Y-27378819D02*
X50123333Y-26378819D01*
X50123333Y-26378819D02*
X50504285Y-26378819D01*
X50504285Y-26378819D02*
X50599523Y-26426438D01*
X50599523Y-26426438D02*
X50647142Y-26474057D01*
X50647142Y-26474057D02*
X50694761Y-26569295D01*
X50694761Y-26569295D02*
X50694761Y-26712152D01*
X50694761Y-26712152D02*
X50647142Y-26807390D01*
X50647142Y-26807390D02*
X50599523Y-26855009D01*
X50599523Y-26855009D02*
X50504285Y-26902628D01*
X50504285Y-26902628D02*
X50123333Y-26902628D01*
X50980476Y-26378819D02*
X51313809Y-27378819D01*
X51313809Y-27378819D02*
X51647142Y-26378819D01*
X52504285Y-27378819D02*
X51932857Y-27378819D01*
X52218571Y-27378819D02*
X52218571Y-26378819D01*
X52218571Y-26378819D02*
X52123333Y-26521676D01*
X52123333Y-26521676D02*
X52028095Y-26616914D01*
X52028095Y-26616914D02*
X51932857Y-26664533D01*
X40629561Y-50673095D02*
X40677180Y-50577857D01*
X40677180Y-50577857D02*
X40677180Y-50435000D01*
X40677180Y-50435000D02*
X40629561Y-50292143D01*
X40629561Y-50292143D02*
X40534323Y-50196905D01*
X40534323Y-50196905D02*
X40439085Y-50149286D01*
X40439085Y-50149286D02*
X40248609Y-50101667D01*
X40248609Y-50101667D02*
X40105752Y-50101667D01*
X40105752Y-50101667D02*
X39915276Y-50149286D01*
X39915276Y-50149286D02*
X39820038Y-50196905D01*
X39820038Y-50196905D02*
X39724800Y-50292143D01*
X39724800Y-50292143D02*
X39677180Y-50435000D01*
X39677180Y-50435000D02*
X39677180Y-50530238D01*
X39677180Y-50530238D02*
X39724800Y-50673095D01*
X39724800Y-50673095D02*
X39772419Y-50720714D01*
X39772419Y-50720714D02*
X40105752Y-50720714D01*
X40105752Y-50720714D02*
X40105752Y-50530238D01*
X39677180Y-51149286D02*
X40677180Y-51149286D01*
X40677180Y-51149286D02*
X39677180Y-51720714D01*
X39677180Y-51720714D02*
X40677180Y-51720714D01*
X39677180Y-52196905D02*
X40677180Y-52196905D01*
X40677180Y-52196905D02*
X40677180Y-52435000D01*
X40677180Y-52435000D02*
X40629561Y-52577857D01*
X40629561Y-52577857D02*
X40534323Y-52673095D01*
X40534323Y-52673095D02*
X40439085Y-52720714D01*
X40439085Y-52720714D02*
X40248609Y-52768333D01*
X40248609Y-52768333D02*
X40105752Y-52768333D01*
X40105752Y-52768333D02*
X39915276Y-52720714D01*
X39915276Y-52720714D02*
X39820038Y-52673095D01*
X39820038Y-52673095D02*
X39724800Y-52577857D01*
X39724800Y-52577857D02*
X39677180Y-52435000D01*
X39677180Y-52435000D02*
X39677180Y-52196905D01*
X46061333Y-54461580D02*
X46013714Y-54509200D01*
X46013714Y-54509200D02*
X45870857Y-54556819D01*
X45870857Y-54556819D02*
X45775619Y-54556819D01*
X45775619Y-54556819D02*
X45632762Y-54509200D01*
X45632762Y-54509200D02*
X45537524Y-54413961D01*
X45537524Y-54413961D02*
X45489905Y-54318723D01*
X45489905Y-54318723D02*
X45442286Y-54128247D01*
X45442286Y-54128247D02*
X45442286Y-53985390D01*
X45442286Y-53985390D02*
X45489905Y-53794914D01*
X45489905Y-53794914D02*
X45537524Y-53699676D01*
X45537524Y-53699676D02*
X45632762Y-53604438D01*
X45632762Y-53604438D02*
X45775619Y-53556819D01*
X45775619Y-53556819D02*
X45870857Y-53556819D01*
X45870857Y-53556819D02*
X46013714Y-53604438D01*
X46013714Y-53604438D02*
X46061333Y-53652057D01*
X46394667Y-53556819D02*
X47013714Y-53556819D01*
X47013714Y-53556819D02*
X46680381Y-53937771D01*
X46680381Y-53937771D02*
X46823238Y-53937771D01*
X46823238Y-53937771D02*
X46918476Y-53985390D01*
X46918476Y-53985390D02*
X46966095Y-54033009D01*
X46966095Y-54033009D02*
X47013714Y-54128247D01*
X47013714Y-54128247D02*
X47013714Y-54366342D01*
X47013714Y-54366342D02*
X46966095Y-54461580D01*
X46966095Y-54461580D02*
X46918476Y-54509200D01*
X46918476Y-54509200D02*
X46823238Y-54556819D01*
X46823238Y-54556819D02*
X46537524Y-54556819D01*
X46537524Y-54556819D02*
X46442286Y-54509200D01*
X46442286Y-54509200D02*
X46394667Y-54461580D01*
X35988666Y-60414819D02*
X35988666Y-61129104D01*
X35988666Y-61129104D02*
X35941047Y-61271961D01*
X35941047Y-61271961D02*
X35845809Y-61367200D01*
X35845809Y-61367200D02*
X35702952Y-61414819D01*
X35702952Y-61414819D02*
X35607714Y-61414819D01*
X36893428Y-60414819D02*
X36702952Y-60414819D01*
X36702952Y-60414819D02*
X36607714Y-60462438D01*
X36607714Y-60462438D02*
X36560095Y-60510057D01*
X36560095Y-60510057D02*
X36464857Y-60652914D01*
X36464857Y-60652914D02*
X36417238Y-60843390D01*
X36417238Y-60843390D02*
X36417238Y-61224342D01*
X36417238Y-61224342D02*
X36464857Y-61319580D01*
X36464857Y-61319580D02*
X36512476Y-61367200D01*
X36512476Y-61367200D02*
X36607714Y-61414819D01*
X36607714Y-61414819D02*
X36798190Y-61414819D01*
X36798190Y-61414819D02*
X36893428Y-61367200D01*
X36893428Y-61367200D02*
X36941047Y-61319580D01*
X36941047Y-61319580D02*
X36988666Y-61224342D01*
X36988666Y-61224342D02*
X36988666Y-60986247D01*
X36988666Y-60986247D02*
X36941047Y-60891009D01*
X36941047Y-60891009D02*
X36893428Y-60843390D01*
X36893428Y-60843390D02*
X36798190Y-60795771D01*
X36798190Y-60795771D02*
X36607714Y-60795771D01*
X36607714Y-60795771D02*
X36512476Y-60843390D01*
X36512476Y-60843390D02*
X36464857Y-60891009D01*
X36464857Y-60891009D02*
X36417238Y-60986247D01*
X48093333Y-54461580D02*
X48045714Y-54509200D01*
X48045714Y-54509200D02*
X47902857Y-54556819D01*
X47902857Y-54556819D02*
X47807619Y-54556819D01*
X47807619Y-54556819D02*
X47664762Y-54509200D01*
X47664762Y-54509200D02*
X47569524Y-54413961D01*
X47569524Y-54413961D02*
X47521905Y-54318723D01*
X47521905Y-54318723D02*
X47474286Y-54128247D01*
X47474286Y-54128247D02*
X47474286Y-53985390D01*
X47474286Y-53985390D02*
X47521905Y-53794914D01*
X47521905Y-53794914D02*
X47569524Y-53699676D01*
X47569524Y-53699676D02*
X47664762Y-53604438D01*
X47664762Y-53604438D02*
X47807619Y-53556819D01*
X47807619Y-53556819D02*
X47902857Y-53556819D01*
X47902857Y-53556819D02*
X48045714Y-53604438D01*
X48045714Y-53604438D02*
X48093333Y-53652057D01*
X48474286Y-53652057D02*
X48521905Y-53604438D01*
X48521905Y-53604438D02*
X48617143Y-53556819D01*
X48617143Y-53556819D02*
X48855238Y-53556819D01*
X48855238Y-53556819D02*
X48950476Y-53604438D01*
X48950476Y-53604438D02*
X48998095Y-53652057D01*
X48998095Y-53652057D02*
X49045714Y-53747295D01*
X49045714Y-53747295D02*
X49045714Y-53842533D01*
X49045714Y-53842533D02*
X48998095Y-53985390D01*
X48998095Y-53985390D02*
X48426667Y-54556819D01*
X48426667Y-54556819D02*
X49045714Y-54556819D01*
X47331333Y-42618819D02*
X46998000Y-42142628D01*
X46759905Y-42618819D02*
X46759905Y-41618819D01*
X46759905Y-41618819D02*
X47140857Y-41618819D01*
X47140857Y-41618819D02*
X47236095Y-41666438D01*
X47236095Y-41666438D02*
X47283714Y-41714057D01*
X47283714Y-41714057D02*
X47331333Y-41809295D01*
X47331333Y-41809295D02*
X47331333Y-41952152D01*
X47331333Y-41952152D02*
X47283714Y-42047390D01*
X47283714Y-42047390D02*
X47236095Y-42095009D01*
X47236095Y-42095009D02*
X47140857Y-42142628D01*
X47140857Y-42142628D02*
X46759905Y-42142628D01*
X48283714Y-42618819D02*
X47712286Y-42618819D01*
X47998000Y-42618819D02*
X47998000Y-41618819D01*
X47998000Y-41618819D02*
X47902762Y-41761676D01*
X47902762Y-41761676D02*
X47807524Y-41856914D01*
X47807524Y-41856914D02*
X47712286Y-41904533D01*
X42402333Y-43142819D02*
X42973761Y-43142819D01*
X42688047Y-44142819D02*
X42688047Y-43142819D01*
X43164238Y-43142819D02*
X43497571Y-44142819D01*
X43497571Y-44142819D02*
X43830904Y-43142819D01*
X44116619Y-44095200D02*
X44259476Y-44142819D01*
X44259476Y-44142819D02*
X44497571Y-44142819D01*
X44497571Y-44142819D02*
X44592809Y-44095200D01*
X44592809Y-44095200D02*
X44640428Y-44047580D01*
X44640428Y-44047580D02*
X44688047Y-43952342D01*
X44688047Y-43952342D02*
X44688047Y-43857104D01*
X44688047Y-43857104D02*
X44640428Y-43761866D01*
X44640428Y-43761866D02*
X44592809Y-43714247D01*
X44592809Y-43714247D02*
X44497571Y-43666628D01*
X44497571Y-43666628D02*
X44307095Y-43619009D01*
X44307095Y-43619009D02*
X44211857Y-43571390D01*
X44211857Y-43571390D02*
X44164238Y-43523771D01*
X44164238Y-43523771D02*
X44116619Y-43428533D01*
X44116619Y-43428533D02*
X44116619Y-43333295D01*
X44116619Y-43333295D02*
X44164238Y-43238057D01*
X44164238Y-43238057D02*
X44211857Y-43190438D01*
X44211857Y-43190438D02*
X44307095Y-43142819D01*
X44307095Y-43142819D02*
X44545190Y-43142819D01*
X44545190Y-43142819D02*
X44688047Y-43190438D01*
X45640428Y-44142819D02*
X45069000Y-44142819D01*
X45354714Y-44142819D02*
X45354714Y-43142819D01*
X45354714Y-43142819D02*
X45259476Y-43285676D01*
X45259476Y-43285676D02*
X45164238Y-43380914D01*
X45164238Y-43380914D02*
X45069000Y-43428533D01*
X38592333Y-43142819D02*
X39163761Y-43142819D01*
X38878047Y-44142819D02*
X38878047Y-43142819D01*
X39354238Y-43142819D02*
X39687571Y-44142819D01*
X39687571Y-44142819D02*
X40020904Y-43142819D01*
X40306619Y-44095200D02*
X40449476Y-44142819D01*
X40449476Y-44142819D02*
X40687571Y-44142819D01*
X40687571Y-44142819D02*
X40782809Y-44095200D01*
X40782809Y-44095200D02*
X40830428Y-44047580D01*
X40830428Y-44047580D02*
X40878047Y-43952342D01*
X40878047Y-43952342D02*
X40878047Y-43857104D01*
X40878047Y-43857104D02*
X40830428Y-43761866D01*
X40830428Y-43761866D02*
X40782809Y-43714247D01*
X40782809Y-43714247D02*
X40687571Y-43666628D01*
X40687571Y-43666628D02*
X40497095Y-43619009D01*
X40497095Y-43619009D02*
X40401857Y-43571390D01*
X40401857Y-43571390D02*
X40354238Y-43523771D01*
X40354238Y-43523771D02*
X40306619Y-43428533D01*
X40306619Y-43428533D02*
X40306619Y-43333295D01*
X40306619Y-43333295D02*
X40354238Y-43238057D01*
X40354238Y-43238057D02*
X40401857Y-43190438D01*
X40401857Y-43190438D02*
X40497095Y-43142819D01*
X40497095Y-43142819D02*
X40735190Y-43142819D01*
X40735190Y-43142819D02*
X40878047Y-43190438D01*
X41259000Y-43238057D02*
X41306619Y-43190438D01*
X41306619Y-43190438D02*
X41401857Y-43142819D01*
X41401857Y-43142819D02*
X41639952Y-43142819D01*
X41639952Y-43142819D02*
X41735190Y-43190438D01*
X41735190Y-43190438D02*
X41782809Y-43238057D01*
X41782809Y-43238057D02*
X41830428Y-43333295D01*
X41830428Y-43333295D02*
X41830428Y-43428533D01*
X41830428Y-43428533D02*
X41782809Y-43571390D01*
X41782809Y-43571390D02*
X41211381Y-44142819D01*
X41211381Y-44142819D02*
X41830428Y-44142819D01*
X46085333Y-43142819D02*
X46656761Y-43142819D01*
X46371047Y-44142819D02*
X46371047Y-43142819D01*
X46847238Y-43142819D02*
X47180571Y-44142819D01*
X47180571Y-44142819D02*
X47513904Y-43142819D01*
X47799619Y-44095200D02*
X47942476Y-44142819D01*
X47942476Y-44142819D02*
X48180571Y-44142819D01*
X48180571Y-44142819D02*
X48275809Y-44095200D01*
X48275809Y-44095200D02*
X48323428Y-44047580D01*
X48323428Y-44047580D02*
X48371047Y-43952342D01*
X48371047Y-43952342D02*
X48371047Y-43857104D01*
X48371047Y-43857104D02*
X48323428Y-43761866D01*
X48323428Y-43761866D02*
X48275809Y-43714247D01*
X48275809Y-43714247D02*
X48180571Y-43666628D01*
X48180571Y-43666628D02*
X47990095Y-43619009D01*
X47990095Y-43619009D02*
X47894857Y-43571390D01*
X47894857Y-43571390D02*
X47847238Y-43523771D01*
X47847238Y-43523771D02*
X47799619Y-43428533D01*
X47799619Y-43428533D02*
X47799619Y-43333295D01*
X47799619Y-43333295D02*
X47847238Y-43238057D01*
X47847238Y-43238057D02*
X47894857Y-43190438D01*
X47894857Y-43190438D02*
X47990095Y-43142819D01*
X47990095Y-43142819D02*
X48228190Y-43142819D01*
X48228190Y-43142819D02*
X48371047Y-43190438D01*
X48704381Y-43142819D02*
X49323428Y-43142819D01*
X49323428Y-43142819D02*
X48990095Y-43523771D01*
X48990095Y-43523771D02*
X49132952Y-43523771D01*
X49132952Y-43523771D02*
X49228190Y-43571390D01*
X49228190Y-43571390D02*
X49275809Y-43619009D01*
X49275809Y-43619009D02*
X49323428Y-43714247D01*
X49323428Y-43714247D02*
X49323428Y-43952342D01*
X49323428Y-43952342D02*
X49275809Y-44047580D01*
X49275809Y-44047580D02*
X49228190Y-44095200D01*
X49228190Y-44095200D02*
X49132952Y-44142819D01*
X49132952Y-44142819D02*
X48847238Y-44142819D01*
X48847238Y-44142819D02*
X48752000Y-44095200D01*
X48752000Y-44095200D02*
X48704381Y-44047580D01*
X46164667Y-28093200D02*
X46307524Y-28140819D01*
X46307524Y-28140819D02*
X46545619Y-28140819D01*
X46545619Y-28140819D02*
X46640857Y-28093200D01*
X46640857Y-28093200D02*
X46688476Y-28045580D01*
X46688476Y-28045580D02*
X46736095Y-27950342D01*
X46736095Y-27950342D02*
X46736095Y-27855104D01*
X46736095Y-27855104D02*
X46688476Y-27759866D01*
X46688476Y-27759866D02*
X46640857Y-27712247D01*
X46640857Y-27712247D02*
X46545619Y-27664628D01*
X46545619Y-27664628D02*
X46355143Y-27617009D01*
X46355143Y-27617009D02*
X46259905Y-27569390D01*
X46259905Y-27569390D02*
X46212286Y-27521771D01*
X46212286Y-27521771D02*
X46164667Y-27426533D01*
X46164667Y-27426533D02*
X46164667Y-27331295D01*
X46164667Y-27331295D02*
X46212286Y-27236057D01*
X46212286Y-27236057D02*
X46259905Y-27188438D01*
X46259905Y-27188438D02*
X46355143Y-27140819D01*
X46355143Y-27140819D02*
X46593238Y-27140819D01*
X46593238Y-27140819D02*
X46736095Y-27188438D01*
X47069429Y-27140819D02*
X47307524Y-28140819D01*
X47307524Y-28140819D02*
X47498000Y-27426533D01*
X47498000Y-27426533D02*
X47688476Y-28140819D01*
X47688476Y-28140819D02*
X47926572Y-27140819D01*
X48831333Y-28140819D02*
X48259905Y-28140819D01*
X48545619Y-28140819D02*
X48545619Y-27140819D01*
X48545619Y-27140819D02*
X48450381Y-27283676D01*
X48450381Y-27283676D02*
X48355143Y-27378914D01*
X48355143Y-27378914D02*
X48259905Y-27426533D01*
D10*
X63400000Y-58791000D02*
X64400000Y-58791000D01*
X64400000Y-58791000D02*
X63900000Y-58291000D01*
X63900000Y-58291000D02*
X63400000Y-58791000D01*
X61030000Y-57986000D02*
X62725000Y-57986000D01*
X61030000Y-57986000D02*
X61030000Y-53401000D01*
X65075000Y-57986000D02*
X66578000Y-57986000D01*
X68223000Y-57986000D02*
X70270000Y-57986000D01*
X70270000Y-57986000D02*
X70270000Y-54601000D01*
X70270000Y-51330000D02*
X70270000Y-34401000D01*
X64150000Y-50366000D02*
X67150000Y-50366000D01*
X65650000Y-50366000D02*
X66400000Y-49616000D01*
X65650000Y-50366000D02*
X65650000Y-35366000D01*
X61030000Y-50130000D02*
X61030000Y-35601000D01*
X64900000Y-49616000D02*
X65650000Y-50366000D01*
X64900000Y-36116000D02*
X65650000Y-35366000D01*
X64150000Y-35366000D02*
X67150000Y-35366000D01*
X65650000Y-35366000D02*
X66400000Y-36116000D01*
X61030000Y-32330000D02*
X61030000Y-27746000D01*
X70270000Y-31130000D02*
X70270000Y-27746000D01*
X61030000Y-27746000D02*
X63077000Y-27746000D01*
X64723000Y-27746000D02*
X70270000Y-27746000D01*
X44880000Y-56515000D02*
G75*
G03*
X44880000Y-56515000I-1700000J0D01*
G01*
X38530000Y-51435000D02*
G75*
G03*
X38530000Y-51435000I-1700000J0D01*
G01*
X38530000Y-56515000D02*
G75*
G03*
X38530000Y-56515000I-1700000J0D01*
G01*
X38530000Y-46355000D02*
G75*
G03*
X38530000Y-46355000I-1700000J0D01*
G01*
X36815500Y-40115258D02*
X36815500Y-39640742D01*
X37860500Y-40115258D02*
X37860500Y-39640742D01*
X45480500Y-39640742D02*
X45480500Y-40115258D01*
X44435500Y-39640742D02*
X44435500Y-40115258D01*
X35320500Y-39640742D02*
X35320500Y-40115258D01*
X34275500Y-39640742D02*
X34275500Y-40115258D01*
X39355500Y-40115258D02*
X39355500Y-39640742D01*
X40400500Y-40115258D02*
X40400500Y-39640742D01*
X42940500Y-39640742D02*
X42940500Y-40115258D01*
X41895500Y-39640742D02*
X41895500Y-40115258D01*
X52478000Y-58841000D02*
X53478000Y-58841000D01*
X53478000Y-58841000D02*
X52978000Y-58341000D01*
X52978000Y-58341000D02*
X52478000Y-58841000D01*
X50108000Y-58036000D02*
X51803000Y-58036000D01*
X50108000Y-58036000D02*
X50108000Y-53451000D01*
X54153000Y-58036000D02*
X55656000Y-58036000D01*
X57301000Y-58036000D02*
X59348000Y-58036000D01*
X59348000Y-58036000D02*
X59348000Y-54651000D01*
X59348000Y-51380000D02*
X59348000Y-34451000D01*
X53228000Y-50416000D02*
X56228000Y-50416000D01*
X54728000Y-50416000D02*
X55478000Y-49666000D01*
X54728000Y-50416000D02*
X54728000Y-35416000D01*
X50108000Y-50180000D02*
X50108000Y-35651000D01*
X53978000Y-49666000D02*
X54728000Y-50416000D01*
X53978000Y-36166000D02*
X54728000Y-35416000D01*
X53228000Y-35416000D02*
X56228000Y-35416000D01*
X54728000Y-35416000D02*
X55478000Y-36166000D01*
X50108000Y-32380000D02*
X50108000Y-27796000D01*
X59348000Y-31180000D02*
X59348000Y-27796000D01*
X50108000Y-27796000D02*
X52155000Y-27796000D01*
X53801000Y-27796000D02*
X59348000Y-27796000D01*
X44880000Y-51435000D02*
G75*
G03*
X44880000Y-51435000I-1700000J0D01*
G01*
X46226000Y-56528580D02*
X46226000Y-56247420D01*
X47246000Y-56528580D02*
X47246000Y-56247420D01*
X70545000Y-59630000D02*
X37405000Y-59630000D01*
X70545000Y-59630000D02*
X70545000Y-62230000D01*
X37405000Y-59630000D02*
X37405000Y-64830000D01*
X70545000Y-62230000D02*
X67945000Y-62230000D01*
X67945000Y-62230000D02*
X67945000Y-64830000D01*
X70545000Y-63500000D02*
X70545000Y-64830000D01*
X70545000Y-64830000D02*
X69215000Y-64830000D01*
X67945000Y-64830000D02*
X37405000Y-64830000D01*
X49278000Y-56247420D02*
X49278000Y-56528580D01*
X48258000Y-56247420D02*
X48258000Y-56528580D01*
X46988000Y-40040779D02*
X46988000Y-39715221D01*
X48008000Y-40040779D02*
X48008000Y-39715221D01*
X45704000Y-44536000D02*
X43704000Y-44536000D01*
X45704000Y-44536000D02*
X45704000Y-48386000D01*
X43704000Y-44536000D02*
X43704000Y-48386000D01*
X41894000Y-44536000D02*
X39894000Y-44536000D01*
X41894000Y-44536000D02*
X41894000Y-48386000D01*
X39894000Y-44536000D02*
X39894000Y-48386000D01*
X49514000Y-44536000D02*
X47514000Y-44536000D01*
X49514000Y-44536000D02*
X49514000Y-48386000D01*
X47514000Y-44536000D02*
X47514000Y-48386000D01*
X43746766Y-37117796D02*
X43567161Y-36219771D01*
X44285581Y-36578981D02*
X43746766Y-37117796D01*
X44465187Y-36399376D02*
X44285581Y-36578981D01*
X43567161Y-36219771D02*
X44465187Y-36399376D01*
X41232294Y-37477006D02*
X42130320Y-36578981D01*
X45722422Y-32986878D02*
X47069461Y-31639840D01*
X47069461Y-31639840D02*
X45273410Y-29843789D01*
X39885256Y-36129968D02*
X41232294Y-37477006D01*
X43477358Y-28047738D02*
X42130320Y-26700699D01*
X36293154Y-32537866D02*
X37640192Y-33884904D01*
X37191179Y-31639840D02*
X36293154Y-32537866D01*
X42130320Y-26700699D02*
X40783282Y-28047738D01*
M02*
