G04 #@! TF.GenerationSoftware,KiCad,Pcbnew,(5.1.9)-1*
G04 #@! TF.CreationDate,2021-02-23T10:55:24+09:00*
G04 #@! TF.ProjectId,screens,73637265-656e-4732-9e6b-696361645f70,rev?*
G04 #@! TF.SameCoordinates,Original*
G04 #@! TF.FileFunction,Legend,Top*
G04 #@! TF.FilePolarity,Positive*
%FSLAX46Y46*%
G04 Gerber Fmt 4.6, Leading zero omitted, Abs format (unit mm)*
G04 Created by KiCad (PCBNEW (5.1.9)-1) date 2021-02-23 10:55:24*
%MOMM*%
%LPD*%
G01*
G04 APERTURE LIST*
%ADD10C,0.120000*%
%ADD11C,0.150000*%
G04 APERTURE END LIST*
D10*
X49758600Y-41910000D02*
X49758600Y-43688000D01*
X36296600Y-41910000D02*
X49758600Y-41910000D01*
X36296600Y-41910000D02*
X36296600Y-43688000D01*
X36296600Y-43688000D02*
X49758600Y-43688000D01*
D11*
X56616476Y-59793238D02*
X56473619Y-59745619D01*
X56235523Y-59745619D01*
X56140285Y-59793238D01*
X56092666Y-59840857D01*
X56045047Y-59936095D01*
X56045047Y-60031333D01*
X56092666Y-60126571D01*
X56140285Y-60174190D01*
X56235523Y-60221809D01*
X56426000Y-60269428D01*
X56521238Y-60317047D01*
X56568857Y-60364666D01*
X56616476Y-60459904D01*
X56616476Y-60555142D01*
X56568857Y-60650380D01*
X56521238Y-60698000D01*
X56426000Y-60745619D01*
X56187904Y-60745619D01*
X56045047Y-60698000D01*
X55616476Y-59745619D02*
X55616476Y-60745619D01*
X54902190Y-59412285D02*
X54902190Y-60840857D01*
X53616476Y-59840857D02*
X53664095Y-59793238D01*
X53806952Y-59745619D01*
X53902190Y-59745619D01*
X54045047Y-59793238D01*
X54140285Y-59888476D01*
X54187904Y-59983714D01*
X54235523Y-60174190D01*
X54235523Y-60317047D01*
X54187904Y-60507523D01*
X54140285Y-60602761D01*
X54045047Y-60698000D01*
X53902190Y-60745619D01*
X53806952Y-60745619D01*
X53664095Y-60698000D01*
X53616476Y-60650380D01*
X52711714Y-59745619D02*
X53187904Y-59745619D01*
X53187904Y-60745619D01*
X52140285Y-59412285D02*
X52140285Y-60840857D01*
X51426000Y-59745619D02*
X51426000Y-60745619D01*
X51187904Y-60745619D01*
X51045047Y-60698000D01*
X50949809Y-60602761D01*
X50902190Y-60507523D01*
X50854571Y-60317047D01*
X50854571Y-60174190D01*
X50902190Y-59983714D01*
X50949809Y-59888476D01*
X51045047Y-59793238D01*
X51187904Y-59745619D01*
X51426000Y-59745619D01*
X49854571Y-59840857D02*
X49902190Y-59793238D01*
X50045047Y-59745619D01*
X50140285Y-59745619D01*
X50283142Y-59793238D01*
X50378380Y-59888476D01*
X50426000Y-59983714D01*
X50473619Y-60174190D01*
X50473619Y-60317047D01*
X50426000Y-60507523D01*
X50378380Y-60602761D01*
X50283142Y-60698000D01*
X50140285Y-60745619D01*
X50045047Y-60745619D01*
X49902190Y-60698000D01*
X49854571Y-60650380D01*
X49187904Y-59412285D02*
X49187904Y-60840857D01*
X47902190Y-59745619D02*
X48235523Y-60221809D01*
X48473619Y-59745619D02*
X48473619Y-60745619D01*
X48092666Y-60745619D01*
X47997428Y-60698000D01*
X47949809Y-60650380D01*
X47902190Y-60555142D01*
X47902190Y-60412285D01*
X47949809Y-60317047D01*
X47997428Y-60269428D01*
X48092666Y-60221809D01*
X48473619Y-60221809D01*
X47235523Y-59412285D02*
X47235523Y-60840857D01*
X46330761Y-60745619D02*
X46140285Y-60745619D01*
X46045047Y-60698000D01*
X45949809Y-60602761D01*
X45902190Y-60412285D01*
X45902190Y-60078952D01*
X45949809Y-59888476D01*
X46045047Y-59793238D01*
X46140285Y-59745619D01*
X46330761Y-59745619D01*
X46426000Y-59793238D01*
X46521238Y-59888476D01*
X46568857Y-60078952D01*
X46568857Y-60412285D01*
X46521238Y-60602761D01*
X46426000Y-60698000D01*
X46330761Y-60745619D01*
X44902190Y-59840857D02*
X44949809Y-59793238D01*
X45092666Y-59745619D01*
X45187904Y-59745619D01*
X45330761Y-59793238D01*
X45426000Y-59888476D01*
X45473619Y-59983714D01*
X45521238Y-60174190D01*
X45521238Y-60317047D01*
X45473619Y-60507523D01*
X45426000Y-60602761D01*
X45330761Y-60698000D01*
X45187904Y-60745619D01*
X45092666Y-60745619D01*
X44949809Y-60698000D01*
X44902190Y-60650380D01*
X44235523Y-59412285D02*
X44235523Y-60840857D01*
X43568857Y-59793238D02*
X43426000Y-59745619D01*
X43187904Y-59745619D01*
X43092666Y-59793238D01*
X43045047Y-59840857D01*
X42997428Y-59936095D01*
X42997428Y-60031333D01*
X43045047Y-60126571D01*
X43092666Y-60174190D01*
X43187904Y-60221809D01*
X43378380Y-60269428D01*
X43473619Y-60317047D01*
X43521238Y-60364666D01*
X43568857Y-60459904D01*
X43568857Y-60555142D01*
X43521238Y-60650380D01*
X43473619Y-60698000D01*
X43378380Y-60745619D01*
X43140285Y-60745619D01*
X42997428Y-60698000D01*
X41997428Y-59840857D02*
X42045047Y-59793238D01*
X42187904Y-59745619D01*
X42283142Y-59745619D01*
X42426000Y-59793238D01*
X42521238Y-59888476D01*
X42568857Y-59983714D01*
X42616476Y-60174190D01*
X42616476Y-60317047D01*
X42568857Y-60507523D01*
X42521238Y-60602761D01*
X42426000Y-60698000D01*
X42283142Y-60745619D01*
X42187904Y-60745619D01*
X42045047Y-60698000D01*
X41997428Y-60650380D01*
X41330761Y-59412285D02*
X41330761Y-60840857D01*
X40664095Y-59793238D02*
X40521238Y-59745619D01*
X40283142Y-59745619D01*
X40187904Y-59793238D01*
X40140285Y-59840857D01*
X40092666Y-59936095D01*
X40092666Y-60031333D01*
X40140285Y-60126571D01*
X40187904Y-60174190D01*
X40283142Y-60221809D01*
X40473619Y-60269428D01*
X40568857Y-60317047D01*
X40616476Y-60364666D01*
X40664095Y-60459904D01*
X40664095Y-60555142D01*
X40616476Y-60650380D01*
X40568857Y-60698000D01*
X40473619Y-60745619D01*
X40235523Y-60745619D01*
X40092666Y-60698000D01*
X39473619Y-60745619D02*
X39283142Y-60745619D01*
X39187904Y-60698000D01*
X39092666Y-60602761D01*
X39045047Y-60412285D01*
X39045047Y-60078952D01*
X39092666Y-59888476D01*
X39187904Y-59793238D01*
X39283142Y-59745619D01*
X39473619Y-59745619D01*
X39568857Y-59793238D01*
X39664095Y-59888476D01*
X39711714Y-60078952D01*
X39711714Y-60412285D01*
X39664095Y-60602761D01*
X39568857Y-60698000D01*
X39473619Y-60745619D01*
X38378380Y-59412285D02*
X38378380Y-60840857D01*
X37092666Y-59840857D02*
X37140285Y-59793238D01*
X37283142Y-59745619D01*
X37378380Y-59745619D01*
X37521238Y-59793238D01*
X37616476Y-59888476D01*
X37664095Y-59983714D01*
X37711714Y-60174190D01*
X37711714Y-60317047D01*
X37664095Y-60507523D01*
X37616476Y-60602761D01*
X37521238Y-60698000D01*
X37378380Y-60745619D01*
X37283142Y-60745619D01*
X37140285Y-60698000D01*
X37092666Y-60650380D01*
X36473619Y-60745619D02*
X36283142Y-60745619D01*
X36187904Y-60698000D01*
X36092666Y-60602761D01*
X36045047Y-60412285D01*
X36045047Y-60078952D01*
X36092666Y-59888476D01*
X36187904Y-59793238D01*
X36283142Y-59745619D01*
X36473619Y-59745619D01*
X36568857Y-59793238D01*
X36664095Y-59888476D01*
X36711714Y-60078952D01*
X36711714Y-60412285D01*
X36664095Y-60602761D01*
X36568857Y-60698000D01*
X36473619Y-60745619D01*
X35378380Y-59412285D02*
X35378380Y-60840857D01*
X34759333Y-60745619D02*
X34140285Y-60745619D01*
X34473619Y-60364666D01*
X34330761Y-60364666D01*
X34235523Y-60317047D01*
X34187904Y-60269428D01*
X34140285Y-60174190D01*
X34140285Y-59936095D01*
X34187904Y-59840857D01*
X34235523Y-59793238D01*
X34330761Y-59745619D01*
X34616476Y-59745619D01*
X34711714Y-59793238D01*
X34759333Y-59840857D01*
X33806952Y-60412285D02*
X33568857Y-59745619D01*
X33330761Y-60412285D01*
X32711714Y-59412285D02*
X32711714Y-60840857D01*
X31997428Y-60126571D02*
X31235523Y-60126571D01*
X31616476Y-59745619D02*
X31616476Y-60507523D01*
X30521238Y-59412285D02*
X30521238Y-60840857D01*
X29283142Y-60698000D02*
X29378380Y-60745619D01*
X29521238Y-60745619D01*
X29664095Y-60698000D01*
X29759333Y-60602761D01*
X29806952Y-60507523D01*
X29854571Y-60317047D01*
X29854571Y-60174190D01*
X29806952Y-59983714D01*
X29759333Y-59888476D01*
X29664095Y-59793238D01*
X29521238Y-59745619D01*
X29426000Y-59745619D01*
X29283142Y-59793238D01*
X29235523Y-59840857D01*
X29235523Y-60174190D01*
X29426000Y-60174190D01*
X37218076Y-43302180D02*
X36884742Y-42825990D01*
X36646647Y-43302180D02*
X36646647Y-42302180D01*
X37027600Y-42302180D01*
X37122838Y-42349800D01*
X37170457Y-42397419D01*
X37218076Y-42492657D01*
X37218076Y-42635514D01*
X37170457Y-42730752D01*
X37122838Y-42778371D01*
X37027600Y-42825990D01*
X36646647Y-42825990D01*
X37599028Y-43016466D02*
X38075219Y-43016466D01*
X37503790Y-43302180D02*
X37837123Y-42302180D01*
X38170457Y-43302180D01*
X38503790Y-43302180D02*
X38503790Y-42302180D01*
X38837123Y-43016466D01*
X39170457Y-42302180D01*
X39170457Y-43302180D01*
X39646647Y-43302180D02*
X39646647Y-42302180D01*
X40218076Y-43302180D01*
X40218076Y-42302180D01*
X41313314Y-42302180D02*
X41646647Y-43302180D01*
X41979980Y-42302180D01*
X42837123Y-43302180D02*
X42265695Y-43302180D01*
X42551409Y-43302180D02*
X42551409Y-42302180D01*
X42456171Y-42445038D01*
X42360933Y-42540276D01*
X42265695Y-42587895D01*
X43979980Y-43254561D02*
X44122838Y-43302180D01*
X44360933Y-43302180D01*
X44456171Y-43254561D01*
X44503790Y-43206942D01*
X44551409Y-43111704D01*
X44551409Y-43016466D01*
X44503790Y-42921228D01*
X44456171Y-42873609D01*
X44360933Y-42825990D01*
X44170457Y-42778371D01*
X44075219Y-42730752D01*
X44027600Y-42683133D01*
X43979980Y-42587895D01*
X43979980Y-42492657D01*
X44027600Y-42397419D01*
X44075219Y-42349800D01*
X44170457Y-42302180D01*
X44408552Y-42302180D01*
X44551409Y-42349800D01*
X45408552Y-43254561D02*
X45313314Y-43302180D01*
X45122838Y-43302180D01*
X45027600Y-43254561D01*
X44979980Y-43206942D01*
X44932361Y-43111704D01*
X44932361Y-42825990D01*
X44979980Y-42730752D01*
X45027600Y-42683133D01*
X45122838Y-42635514D01*
X45313314Y-42635514D01*
X45408552Y-42683133D01*
X45837123Y-43302180D02*
X45837123Y-42635514D01*
X45837123Y-42825990D02*
X45884742Y-42730752D01*
X45932361Y-42683133D01*
X46027600Y-42635514D01*
X46122838Y-42635514D01*
X46837123Y-43254561D02*
X46741885Y-43302180D01*
X46551409Y-43302180D01*
X46456171Y-43254561D01*
X46408552Y-43159323D01*
X46408552Y-42778371D01*
X46456171Y-42683133D01*
X46551409Y-42635514D01*
X46741885Y-42635514D01*
X46837123Y-42683133D01*
X46884742Y-42778371D01*
X46884742Y-42873609D01*
X46408552Y-42968847D01*
X47694266Y-43254561D02*
X47599028Y-43302180D01*
X47408552Y-43302180D01*
X47313314Y-43254561D01*
X47265695Y-43159323D01*
X47265695Y-42778371D01*
X47313314Y-42683133D01*
X47408552Y-42635514D01*
X47599028Y-42635514D01*
X47694266Y-42683133D01*
X47741885Y-42778371D01*
X47741885Y-42873609D01*
X47265695Y-42968847D01*
X48170457Y-42635514D02*
X48170457Y-43302180D01*
X48170457Y-42730752D02*
X48218076Y-42683133D01*
X48313314Y-42635514D01*
X48456171Y-42635514D01*
X48551409Y-42683133D01*
X48599028Y-42778371D01*
X48599028Y-43302180D01*
X49027600Y-43254561D02*
X49122838Y-43302180D01*
X49313314Y-43302180D01*
X49408552Y-43254561D01*
X49456171Y-43159323D01*
X49456171Y-43111704D01*
X49408552Y-43016466D01*
X49313314Y-42968847D01*
X49170457Y-42968847D01*
X49075219Y-42921228D01*
X49027600Y-42825990D01*
X49027600Y-42778371D01*
X49075219Y-42683133D01*
X49170457Y-42635514D01*
X49313314Y-42635514D01*
X49408552Y-42683133D01*
X26696666Y-50506380D02*
X26930000Y-51506380D01*
X27163333Y-50506380D01*
X27396666Y-51506380D02*
X27396666Y-50506380D01*
X27730000Y-51506380D02*
X27730000Y-50506380D01*
X28130000Y-51506380D01*
X28130000Y-50506380D01*
X28630000Y-51839714D02*
X28630000Y-50411142D01*
X29063333Y-50506380D02*
X29496666Y-50506380D01*
X29263333Y-50887333D01*
X29363333Y-50887333D01*
X29430000Y-50934952D01*
X29463333Y-50982571D01*
X29496666Y-51077809D01*
X29496666Y-51315904D01*
X29463333Y-51411142D01*
X29430000Y-51458761D01*
X29363333Y-51506380D01*
X29163333Y-51506380D01*
X29096666Y-51458761D01*
X29063333Y-51411142D01*
X29696666Y-50506380D02*
X29930000Y-51506380D01*
X30163333Y-50506380D01*
X30563333Y-51839714D02*
X30563333Y-50411142D01*
X31430000Y-50554000D02*
X31363333Y-50506380D01*
X31263333Y-50506380D01*
X31163333Y-50554000D01*
X31096666Y-50649238D01*
X31063333Y-50744476D01*
X31030000Y-50934952D01*
X31030000Y-51077809D01*
X31063333Y-51268285D01*
X31096666Y-51363523D01*
X31163333Y-51458761D01*
X31263333Y-51506380D01*
X31330000Y-51506380D01*
X31430000Y-51458761D01*
X31463333Y-51411142D01*
X31463333Y-51077809D01*
X31330000Y-51077809D01*
X31763333Y-51506380D02*
X31763333Y-50506380D01*
X32163333Y-51506380D01*
X32163333Y-50506380D01*
X32496666Y-51506380D02*
X32496666Y-50506380D01*
X32663333Y-50506380D01*
X32763333Y-50554000D01*
X32830000Y-50649238D01*
X32863333Y-50744476D01*
X32896666Y-50934952D01*
X32896666Y-51077809D01*
X32863333Y-51268285D01*
X32830000Y-51363523D01*
X32763333Y-51458761D01*
X32663333Y-51506380D01*
X32496666Y-51506380D01*
X33363333Y-51839714D02*
X33363333Y-50411142D01*
X33830000Y-51458761D02*
X33930000Y-51506380D01*
X34096666Y-51506380D01*
X34163333Y-51458761D01*
X34196666Y-51411142D01*
X34230000Y-51315904D01*
X34230000Y-51220666D01*
X34196666Y-51125428D01*
X34163333Y-51077809D01*
X34096666Y-51030190D01*
X33963333Y-50982571D01*
X33896666Y-50934952D01*
X33863333Y-50887333D01*
X33830000Y-50792095D01*
X33830000Y-50696857D01*
X33863333Y-50601619D01*
X33896666Y-50554000D01*
X33963333Y-50506380D01*
X34130000Y-50506380D01*
X34230000Y-50554000D01*
X34930000Y-51411142D02*
X34896666Y-51458761D01*
X34796666Y-51506380D01*
X34730000Y-51506380D01*
X34630000Y-51458761D01*
X34563333Y-51363523D01*
X34530000Y-51268285D01*
X34496666Y-51077809D01*
X34496666Y-50934952D01*
X34530000Y-50744476D01*
X34563333Y-50649238D01*
X34630000Y-50554000D01*
X34730000Y-50506380D01*
X34796666Y-50506380D01*
X34896666Y-50554000D01*
X34930000Y-50601619D01*
X35230000Y-51506380D02*
X35230000Y-50506380D01*
X35630000Y-51506380D02*
X35330000Y-50934952D01*
X35630000Y-50506380D02*
X35230000Y-51077809D01*
X36096666Y-51839714D02*
X36096666Y-50411142D01*
X36596666Y-51506380D02*
X36596666Y-50506380D01*
X36830000Y-51220666D01*
X37063333Y-50506380D01*
X37063333Y-51506380D01*
X37396666Y-51506380D02*
X37396666Y-50506380D01*
X37696666Y-51458761D02*
X37796666Y-51506380D01*
X37963333Y-51506380D01*
X38030000Y-51458761D01*
X38063333Y-51411142D01*
X38096666Y-51315904D01*
X38096666Y-51220666D01*
X38063333Y-51125428D01*
X38030000Y-51077809D01*
X37963333Y-51030190D01*
X37830000Y-50982571D01*
X37763333Y-50934952D01*
X37730000Y-50887333D01*
X37696666Y-50792095D01*
X37696666Y-50696857D01*
X37730000Y-50601619D01*
X37763333Y-50554000D01*
X37830000Y-50506380D01*
X37996666Y-50506380D01*
X38096666Y-50554000D01*
X38530000Y-50506380D02*
X38663333Y-50506380D01*
X38730000Y-50554000D01*
X38796666Y-50649238D01*
X38830000Y-50839714D01*
X38830000Y-51173047D01*
X38796666Y-51363523D01*
X38730000Y-51458761D01*
X38663333Y-51506380D01*
X38530000Y-51506380D01*
X38463333Y-51458761D01*
X38396666Y-51363523D01*
X38363333Y-51173047D01*
X38363333Y-50839714D01*
X38396666Y-50649238D01*
X38463333Y-50554000D01*
X38530000Y-50506380D01*
X39296666Y-51839714D02*
X39296666Y-50411142D01*
X39796666Y-51506380D02*
X39796666Y-50506380D01*
X40030000Y-51220666D01*
X40263333Y-50506380D01*
X40263333Y-51506380D01*
X40730000Y-50506380D02*
X40863333Y-50506380D01*
X40930000Y-50554000D01*
X40996666Y-50649238D01*
X41030000Y-50839714D01*
X41030000Y-51173047D01*
X40996666Y-51363523D01*
X40930000Y-51458761D01*
X40863333Y-51506380D01*
X40730000Y-51506380D01*
X40663333Y-51458761D01*
X40596666Y-51363523D01*
X40563333Y-51173047D01*
X40563333Y-50839714D01*
X40596666Y-50649238D01*
X40663333Y-50554000D01*
X40730000Y-50506380D01*
X41296666Y-51458761D02*
X41396666Y-51506380D01*
X41563333Y-51506380D01*
X41630000Y-51458761D01*
X41663333Y-51411142D01*
X41696666Y-51315904D01*
X41696666Y-51220666D01*
X41663333Y-51125428D01*
X41630000Y-51077809D01*
X41563333Y-51030190D01*
X41430000Y-50982571D01*
X41363333Y-50934952D01*
X41330000Y-50887333D01*
X41296666Y-50792095D01*
X41296666Y-50696857D01*
X41330000Y-50601619D01*
X41363333Y-50554000D01*
X41430000Y-50506380D01*
X41596666Y-50506380D01*
X41696666Y-50554000D01*
X41996666Y-51506380D02*
X41996666Y-50506380D01*
X42496666Y-51839714D02*
X42496666Y-50411142D01*
X42996666Y-50982571D02*
X43230000Y-50982571D01*
X43330000Y-51506380D02*
X42996666Y-51506380D01*
X42996666Y-50506380D01*
X43330000Y-50506380D01*
X44030000Y-51411142D02*
X43996666Y-51458761D01*
X43896666Y-51506380D01*
X43830000Y-51506380D01*
X43730000Y-51458761D01*
X43663333Y-51363523D01*
X43630000Y-51268285D01*
X43596666Y-51077809D01*
X43596666Y-50934952D01*
X43630000Y-50744476D01*
X43663333Y-50649238D01*
X43730000Y-50554000D01*
X43830000Y-50506380D01*
X43896666Y-50506380D01*
X43996666Y-50554000D01*
X44030000Y-50601619D01*
X44296666Y-51458761D02*
X44396666Y-51506380D01*
X44563333Y-51506380D01*
X44630000Y-51458761D01*
X44663333Y-51411142D01*
X44696666Y-51315904D01*
X44696666Y-51220666D01*
X44663333Y-51125428D01*
X44630000Y-51077809D01*
X44563333Y-51030190D01*
X44430000Y-50982571D01*
X44363333Y-50934952D01*
X44330000Y-50887333D01*
X44296666Y-50792095D01*
X44296666Y-50696857D01*
X44330000Y-50601619D01*
X44363333Y-50554000D01*
X44430000Y-50506380D01*
X44596666Y-50506380D01*
X44696666Y-50554000D01*
X45163333Y-51839714D02*
X45163333Y-50411142D01*
X45663333Y-51506380D02*
X45663333Y-50506380D01*
X45830000Y-50506380D01*
X45930000Y-50554000D01*
X45996666Y-50649238D01*
X46030000Y-50744476D01*
X46063333Y-50934952D01*
X46063333Y-51077809D01*
X46030000Y-51268285D01*
X45996666Y-51363523D01*
X45930000Y-51458761D01*
X45830000Y-51506380D01*
X45663333Y-51506380D01*
X46763333Y-51411142D02*
X46730000Y-51458761D01*
X46630000Y-51506380D01*
X46563333Y-51506380D01*
X46463333Y-51458761D01*
X46396666Y-51363523D01*
X46363333Y-51268285D01*
X46330000Y-51077809D01*
X46330000Y-50934952D01*
X46363333Y-50744476D01*
X46396666Y-50649238D01*
X46463333Y-50554000D01*
X46563333Y-50506380D01*
X46630000Y-50506380D01*
X46730000Y-50554000D01*
X46763333Y-50601619D01*
X47230000Y-51839714D02*
X47230000Y-50411142D01*
X47696666Y-51458761D02*
X47796666Y-51506380D01*
X47963333Y-51506380D01*
X48030000Y-51458761D01*
X48063333Y-51411142D01*
X48096666Y-51315904D01*
X48096666Y-51220666D01*
X48063333Y-51125428D01*
X48030000Y-51077809D01*
X47963333Y-51030190D01*
X47830000Y-50982571D01*
X47763333Y-50934952D01*
X47730000Y-50887333D01*
X47696666Y-50792095D01*
X47696666Y-50696857D01*
X47730000Y-50601619D01*
X47763333Y-50554000D01*
X47830000Y-50506380D01*
X47996666Y-50506380D01*
X48096666Y-50554000D01*
X48796666Y-51506380D02*
X48563333Y-51030190D01*
X48396666Y-51506380D02*
X48396666Y-50506380D01*
X48663333Y-50506380D01*
X48730000Y-50554000D01*
X48763333Y-50601619D01*
X48796666Y-50696857D01*
X48796666Y-50839714D01*
X48763333Y-50934952D01*
X48730000Y-50982571D01*
X48663333Y-51030190D01*
X48396666Y-51030190D01*
X49496666Y-51411142D02*
X49463333Y-51458761D01*
X49363333Y-51506380D01*
X49296666Y-51506380D01*
X49196666Y-51458761D01*
X49130000Y-51363523D01*
X49096666Y-51268285D01*
X49063333Y-51077809D01*
X49063333Y-50934952D01*
X49096666Y-50744476D01*
X49130000Y-50649238D01*
X49196666Y-50554000D01*
X49296666Y-50506380D01*
X49363333Y-50506380D01*
X49463333Y-50554000D01*
X49496666Y-50601619D01*
X49763333Y-51458761D02*
X49863333Y-51506380D01*
X50030000Y-51506380D01*
X50096666Y-51458761D01*
X50130000Y-51411142D01*
X50163333Y-51315904D01*
X50163333Y-51220666D01*
X50130000Y-51125428D01*
X50096666Y-51077809D01*
X50030000Y-51030190D01*
X49896666Y-50982571D01*
X49830000Y-50934952D01*
X49796666Y-50887333D01*
X49763333Y-50792095D01*
X49763333Y-50696857D01*
X49796666Y-50601619D01*
X49830000Y-50554000D01*
X49896666Y-50506380D01*
X50063333Y-50506380D01*
X50163333Y-50554000D01*
X50630000Y-51839714D02*
X50630000Y-50411142D01*
X51096666Y-51458761D02*
X51196666Y-51506380D01*
X51363333Y-51506380D01*
X51430000Y-51458761D01*
X51463333Y-51411142D01*
X51496666Y-51315904D01*
X51496666Y-51220666D01*
X51463333Y-51125428D01*
X51430000Y-51077809D01*
X51363333Y-51030190D01*
X51230000Y-50982571D01*
X51163333Y-50934952D01*
X51130000Y-50887333D01*
X51096666Y-50792095D01*
X51096666Y-50696857D01*
X51130000Y-50601619D01*
X51163333Y-50554000D01*
X51230000Y-50506380D01*
X51396666Y-50506380D01*
X51496666Y-50554000D01*
X51796666Y-51506380D02*
X51796666Y-50506380D01*
X51963333Y-50506380D01*
X52063333Y-50554000D01*
X52130000Y-50649238D01*
X52163333Y-50744476D01*
X52196666Y-50934952D01*
X52196666Y-51077809D01*
X52163333Y-51268285D01*
X52130000Y-51363523D01*
X52063333Y-51458761D01*
X51963333Y-51506380D01*
X51796666Y-51506380D01*
X52896666Y-51411142D02*
X52863333Y-51458761D01*
X52763333Y-51506380D01*
X52696666Y-51506380D01*
X52596666Y-51458761D01*
X52530000Y-51363523D01*
X52496666Y-51268285D01*
X52463333Y-51077809D01*
X52463333Y-50934952D01*
X52496666Y-50744476D01*
X52530000Y-50649238D01*
X52596666Y-50554000D01*
X52696666Y-50506380D01*
X52763333Y-50506380D01*
X52863333Y-50554000D01*
X52896666Y-50601619D01*
X53163333Y-51458761D02*
X53263333Y-51506380D01*
X53430000Y-51506380D01*
X53496666Y-51458761D01*
X53530000Y-51411142D01*
X53563333Y-51315904D01*
X53563333Y-51220666D01*
X53530000Y-51125428D01*
X53496666Y-51077809D01*
X53430000Y-51030190D01*
X53296666Y-50982571D01*
X53230000Y-50934952D01*
X53196666Y-50887333D01*
X53163333Y-50792095D01*
X53163333Y-50696857D01*
X53196666Y-50601619D01*
X53230000Y-50554000D01*
X53296666Y-50506380D01*
X53463333Y-50506380D01*
X53563333Y-50554000D01*
X54030000Y-51839714D02*
X54030000Y-50411142D01*
X54930000Y-51506380D02*
X54696666Y-51030190D01*
X54530000Y-51506380D02*
X54530000Y-50506380D01*
X54796666Y-50506380D01*
X54863333Y-50554000D01*
X54896666Y-50601619D01*
X54930000Y-50696857D01*
X54930000Y-50839714D01*
X54896666Y-50934952D01*
X54863333Y-50982571D01*
X54796666Y-51030190D01*
X54530000Y-51030190D01*
X55396666Y-51839714D02*
X55396666Y-50411142D01*
X56130000Y-50982571D02*
X56230000Y-51030190D01*
X56263333Y-51077809D01*
X56296666Y-51173047D01*
X56296666Y-51315904D01*
X56263333Y-51411142D01*
X56230000Y-51458761D01*
X56163333Y-51506380D01*
X55896666Y-51506380D01*
X55896666Y-50506380D01*
X56130000Y-50506380D01*
X56196666Y-50554000D01*
X56230000Y-50601619D01*
X56263333Y-50696857D01*
X56263333Y-50792095D01*
X56230000Y-50887333D01*
X56196666Y-50934952D01*
X56130000Y-50982571D01*
X55896666Y-50982571D01*
X56563333Y-51458761D02*
X56663333Y-51506380D01*
X56830000Y-51506380D01*
X56896666Y-51458761D01*
X56930000Y-51411142D01*
X56963333Y-51315904D01*
X56963333Y-51220666D01*
X56930000Y-51125428D01*
X56896666Y-51077809D01*
X56830000Y-51030190D01*
X56696666Y-50982571D01*
X56630000Y-50934952D01*
X56596666Y-50887333D01*
X56563333Y-50792095D01*
X56563333Y-50696857D01*
X56596666Y-50601619D01*
X56630000Y-50554000D01*
X56696666Y-50506380D01*
X56863333Y-50506380D01*
X56963333Y-50554000D01*
X57396666Y-51030190D02*
X57396666Y-51506380D01*
X57163333Y-50506380D02*
X57396666Y-51030190D01*
X57630000Y-50506380D01*
X58030000Y-51839714D02*
X58030000Y-50411142D01*
X58530000Y-50982571D02*
X58763333Y-50982571D01*
X58863333Y-51506380D02*
X58530000Y-51506380D01*
X58530000Y-50506380D01*
X58863333Y-50506380D01*
X59163333Y-51506380D02*
X59163333Y-50506380D01*
X59563333Y-51506380D01*
X59563333Y-50506380D01*
X30013333Y-36139380D02*
X30013333Y-35139380D01*
X30251428Y-35139380D01*
X30394285Y-35187000D01*
X30489523Y-35282238D01*
X30537142Y-35377476D01*
X30584761Y-35567952D01*
X30584761Y-35710809D01*
X30537142Y-35901285D01*
X30489523Y-35996523D01*
X30394285Y-36091761D01*
X30251428Y-36139380D01*
X30013333Y-36139380D01*
X31441904Y-36139380D02*
X31441904Y-35615571D01*
X31394285Y-35520333D01*
X31299047Y-35472714D01*
X31108571Y-35472714D01*
X31013333Y-35520333D01*
X31441904Y-36091761D02*
X31346666Y-36139380D01*
X31108571Y-36139380D01*
X31013333Y-36091761D01*
X30965714Y-35996523D01*
X30965714Y-35901285D01*
X31013333Y-35806047D01*
X31108571Y-35758428D01*
X31346666Y-35758428D01*
X31441904Y-35710809D01*
X31775238Y-35472714D02*
X32156190Y-35472714D01*
X31918095Y-35139380D02*
X31918095Y-35996523D01*
X31965714Y-36091761D01*
X32060952Y-36139380D01*
X32156190Y-36139380D01*
X32918095Y-36139380D02*
X32918095Y-35615571D01*
X32870476Y-35520333D01*
X32775238Y-35472714D01*
X32584761Y-35472714D01*
X32489523Y-35520333D01*
X32918095Y-36091761D02*
X32822857Y-36139380D01*
X32584761Y-36139380D01*
X32489523Y-36091761D01*
X32441904Y-35996523D01*
X32441904Y-35901285D01*
X32489523Y-35806047D01*
X32584761Y-35758428D01*
X32822857Y-35758428D01*
X32918095Y-35710809D01*
X33632380Y-36472714D02*
X33632380Y-35044142D01*
X34918095Y-36044142D02*
X34870476Y-36091761D01*
X34727619Y-36139380D01*
X34632380Y-36139380D01*
X34489523Y-36091761D01*
X34394285Y-35996523D01*
X34346666Y-35901285D01*
X34299047Y-35710809D01*
X34299047Y-35567952D01*
X34346666Y-35377476D01*
X34394285Y-35282238D01*
X34489523Y-35187000D01*
X34632380Y-35139380D01*
X34727619Y-35139380D01*
X34870476Y-35187000D01*
X34918095Y-35234619D01*
X35489523Y-36139380D02*
X35394285Y-36091761D01*
X35346666Y-35996523D01*
X35346666Y-35139380D01*
X35870476Y-36139380D02*
X35870476Y-35139380D01*
X35965714Y-35758428D02*
X36251428Y-36139380D01*
X36251428Y-35472714D02*
X35870476Y-35853666D01*
X36918095Y-36472714D02*
X36918095Y-35044142D01*
X37632380Y-36139380D02*
X37632380Y-35139380D01*
X37870476Y-35139380D01*
X38013333Y-35187000D01*
X38108571Y-35282238D01*
X38156190Y-35377476D01*
X38203809Y-35567952D01*
X38203809Y-35710809D01*
X38156190Y-35901285D01*
X38108571Y-35996523D01*
X38013333Y-36091761D01*
X37870476Y-36139380D01*
X37632380Y-36139380D01*
X39203809Y-36044142D02*
X39156190Y-36091761D01*
X39013333Y-36139380D01*
X38918095Y-36139380D01*
X38775238Y-36091761D01*
X38680000Y-35996523D01*
X38632380Y-35901285D01*
X38584761Y-35710809D01*
X38584761Y-35567952D01*
X38632380Y-35377476D01*
X38680000Y-35282238D01*
X38775238Y-35187000D01*
X38918095Y-35139380D01*
X39013333Y-35139380D01*
X39156190Y-35187000D01*
X39203809Y-35234619D01*
X39870476Y-36472714D02*
X39870476Y-35044142D01*
X41156190Y-36139380D02*
X40822857Y-35663190D01*
X40584761Y-36139380D02*
X40584761Y-35139380D01*
X40965714Y-35139380D01*
X41060952Y-35187000D01*
X41108571Y-35234619D01*
X41156190Y-35329857D01*
X41156190Y-35472714D01*
X41108571Y-35567952D01*
X41060952Y-35615571D01*
X40965714Y-35663190D01*
X40584761Y-35663190D01*
X41537142Y-36091761D02*
X41632380Y-36139380D01*
X41822857Y-36139380D01*
X41918095Y-36091761D01*
X41965714Y-35996523D01*
X41965714Y-35948904D01*
X41918095Y-35853666D01*
X41822857Y-35806047D01*
X41680000Y-35806047D01*
X41584761Y-35758428D01*
X41537142Y-35663190D01*
X41537142Y-35615571D01*
X41584761Y-35520333D01*
X41680000Y-35472714D01*
X41822857Y-35472714D01*
X41918095Y-35520333D01*
X42251428Y-35472714D02*
X42632380Y-35472714D01*
X42394285Y-35139380D02*
X42394285Y-35996523D01*
X42441904Y-36091761D01*
X42537142Y-36139380D01*
X42632380Y-36139380D01*
X43203809Y-36472714D02*
X43203809Y-35044142D01*
X44489523Y-36044142D02*
X44441904Y-36091761D01*
X44299047Y-36139380D01*
X44203809Y-36139380D01*
X44060952Y-36091761D01*
X43965714Y-35996523D01*
X43918095Y-35901285D01*
X43870476Y-35710809D01*
X43870476Y-35567952D01*
X43918095Y-35377476D01*
X43965714Y-35282238D01*
X44060952Y-35187000D01*
X44203809Y-35139380D01*
X44299047Y-35139380D01*
X44441904Y-35187000D01*
X44489523Y-35234619D01*
X44870476Y-36091761D02*
X45013333Y-36139380D01*
X45251428Y-36139380D01*
X45346666Y-36091761D01*
X45394285Y-36044142D01*
X45441904Y-35948904D01*
X45441904Y-35853666D01*
X45394285Y-35758428D01*
X45346666Y-35710809D01*
X45251428Y-35663190D01*
X45060952Y-35615571D01*
X44965714Y-35567952D01*
X44918095Y-35520333D01*
X44870476Y-35425095D01*
X44870476Y-35329857D01*
X44918095Y-35234619D01*
X44965714Y-35187000D01*
X45060952Y-35139380D01*
X45299047Y-35139380D01*
X45441904Y-35187000D01*
X46108571Y-36472714D02*
X46108571Y-35044142D01*
X46727619Y-35139380D02*
X47346666Y-35139380D01*
X47013333Y-35520333D01*
X47156190Y-35520333D01*
X47251428Y-35567952D01*
X47299047Y-35615571D01*
X47346666Y-35710809D01*
X47346666Y-35948904D01*
X47299047Y-36044142D01*
X47251428Y-36091761D01*
X47156190Y-36139380D01*
X46870476Y-36139380D01*
X46775238Y-36091761D01*
X46727619Y-36044142D01*
X47680000Y-35472714D02*
X47918095Y-36139380D01*
X48156190Y-35472714D01*
X48441904Y-35139380D02*
X49060952Y-35139380D01*
X48727619Y-35520333D01*
X48870476Y-35520333D01*
X48965714Y-35567952D01*
X49013333Y-35615571D01*
X49060952Y-35710809D01*
X49060952Y-35948904D01*
X49013333Y-36044142D01*
X48965714Y-36091761D01*
X48870476Y-36139380D01*
X48584761Y-36139380D01*
X48489523Y-36091761D01*
X48441904Y-36044142D01*
X49727619Y-36472714D02*
X49727619Y-35044142D01*
X50299047Y-35139380D02*
X50632380Y-36139380D01*
X50965714Y-35139380D01*
X51299047Y-36139380D02*
X51299047Y-35139380D01*
X51775238Y-36139380D02*
X51775238Y-35139380D01*
X52346666Y-36139380D01*
X52346666Y-35139380D01*
X53060952Y-36472714D02*
X53060952Y-35044142D01*
X54299047Y-35187000D02*
X54203809Y-35139380D01*
X54060952Y-35139380D01*
X53918095Y-35187000D01*
X53822857Y-35282238D01*
X53775238Y-35377476D01*
X53727619Y-35567952D01*
X53727619Y-35710809D01*
X53775238Y-35901285D01*
X53822857Y-35996523D01*
X53918095Y-36091761D01*
X54060952Y-36139380D01*
X54156190Y-36139380D01*
X54299047Y-36091761D01*
X54346666Y-36044142D01*
X54346666Y-35710809D01*
X54156190Y-35710809D01*
X54775238Y-36139380D02*
X54775238Y-35139380D01*
X55346666Y-36139380D01*
X55346666Y-35139380D01*
X55822857Y-36139380D02*
X55822857Y-35139380D01*
X56060952Y-35139380D01*
X56203809Y-35187000D01*
X56299047Y-35282238D01*
X56346666Y-35377476D01*
X56394285Y-35567952D01*
X56394285Y-35710809D01*
X56346666Y-35901285D01*
X56299047Y-35996523D01*
X56203809Y-36091761D01*
X56060952Y-36139380D01*
X55822857Y-36139380D01*
X29014904Y-29662380D02*
X28633952Y-29662380D01*
X28633952Y-28662380D01*
X29281571Y-29662380D02*
X29281571Y-28662380D01*
X29548238Y-28662380D02*
X30005380Y-28662380D01*
X29776809Y-29662380D02*
X29776809Y-28662380D01*
X30462523Y-29995714D02*
X30462523Y-28567142D01*
X31491095Y-29567142D02*
X31453000Y-29614761D01*
X31338714Y-29662380D01*
X31262523Y-29662380D01*
X31148238Y-29614761D01*
X31072047Y-29519523D01*
X31033952Y-29424285D01*
X30995857Y-29233809D01*
X30995857Y-29090952D01*
X31033952Y-28900476D01*
X31072047Y-28805238D01*
X31148238Y-28710000D01*
X31262523Y-28662380D01*
X31338714Y-28662380D01*
X31453000Y-28710000D01*
X31491095Y-28757619D01*
X32291095Y-29567142D02*
X32253000Y-29614761D01*
X32138714Y-29662380D01*
X32062523Y-29662380D01*
X31948238Y-29614761D01*
X31872047Y-29519523D01*
X31833952Y-29424285D01*
X31795857Y-29233809D01*
X31795857Y-29090952D01*
X31833952Y-28900476D01*
X31872047Y-28805238D01*
X31948238Y-28710000D01*
X32062523Y-28662380D01*
X32138714Y-28662380D01*
X32253000Y-28710000D01*
X32291095Y-28757619D01*
X32595857Y-29614761D02*
X32710142Y-29662380D01*
X32900619Y-29662380D01*
X32976809Y-29614761D01*
X33014904Y-29567142D01*
X33053000Y-29471904D01*
X33053000Y-29376666D01*
X33014904Y-29281428D01*
X32976809Y-29233809D01*
X32900619Y-29186190D01*
X32748238Y-29138571D01*
X32672047Y-29090952D01*
X32633952Y-29043333D01*
X32595857Y-28948095D01*
X32595857Y-28852857D01*
X32633952Y-28757619D01*
X32672047Y-28710000D01*
X32748238Y-28662380D01*
X32938714Y-28662380D01*
X33053000Y-28710000D01*
X33586333Y-29995714D02*
X33586333Y-28567142D01*
X34157761Y-29662380D02*
X34157761Y-28662380D01*
X34348238Y-28662380D01*
X34462523Y-28710000D01*
X34538714Y-28805238D01*
X34576809Y-28900476D01*
X34614904Y-29090952D01*
X34614904Y-29233809D01*
X34576809Y-29424285D01*
X34538714Y-29519523D01*
X34462523Y-29614761D01*
X34348238Y-29662380D01*
X34157761Y-29662380D01*
X35414904Y-29567142D02*
X35376809Y-29614761D01*
X35262523Y-29662380D01*
X35186333Y-29662380D01*
X35072047Y-29614761D01*
X34995857Y-29519523D01*
X34957761Y-29424285D01*
X34919666Y-29233809D01*
X34919666Y-29090952D01*
X34957761Y-28900476D01*
X34995857Y-28805238D01*
X35072047Y-28710000D01*
X35186333Y-28662380D01*
X35262523Y-28662380D01*
X35376809Y-28710000D01*
X35414904Y-28757619D01*
X35948238Y-29995714D02*
X35948238Y-28567142D01*
X36976809Y-29662380D02*
X36710142Y-29186190D01*
X36519666Y-29662380D02*
X36519666Y-28662380D01*
X36824428Y-28662380D01*
X36900619Y-28710000D01*
X36938714Y-28757619D01*
X36976809Y-28852857D01*
X36976809Y-28995714D01*
X36938714Y-29090952D01*
X36900619Y-29138571D01*
X36824428Y-29186190D01*
X36519666Y-29186190D01*
X37281571Y-29614761D02*
X37395857Y-29662380D01*
X37586333Y-29662380D01*
X37662523Y-29614761D01*
X37700619Y-29567142D01*
X37738714Y-29471904D01*
X37738714Y-29376666D01*
X37700619Y-29281428D01*
X37662523Y-29233809D01*
X37586333Y-29186190D01*
X37433952Y-29138571D01*
X37357761Y-29090952D01*
X37319666Y-29043333D01*
X37281571Y-28948095D01*
X37281571Y-28852857D01*
X37319666Y-28757619D01*
X37357761Y-28710000D01*
X37433952Y-28662380D01*
X37624428Y-28662380D01*
X37738714Y-28710000D01*
X37967285Y-28662380D02*
X38424428Y-28662380D01*
X38195857Y-29662380D02*
X38195857Y-28662380D01*
X38881571Y-29995714D02*
X38881571Y-28567142D01*
X39338714Y-28662380D02*
X39795857Y-28662380D01*
X39567285Y-29662380D02*
X39567285Y-28662380D01*
X40519666Y-29567142D02*
X40481571Y-29614761D01*
X40367285Y-29662380D01*
X40291095Y-29662380D01*
X40176809Y-29614761D01*
X40100619Y-29519523D01*
X40062523Y-29424285D01*
X40024428Y-29233809D01*
X40024428Y-29090952D01*
X40062523Y-28900476D01*
X40100619Y-28805238D01*
X40176809Y-28710000D01*
X40291095Y-28662380D01*
X40367285Y-28662380D01*
X40481571Y-28710000D01*
X40519666Y-28757619D01*
X40824428Y-29614761D02*
X40938714Y-29662380D01*
X41129190Y-29662380D01*
X41205380Y-29614761D01*
X41243476Y-29567142D01*
X41281571Y-29471904D01*
X41281571Y-29376666D01*
X41243476Y-29281428D01*
X41205380Y-29233809D01*
X41129190Y-29186190D01*
X40976809Y-29138571D01*
X40900619Y-29090952D01*
X40862523Y-29043333D01*
X40824428Y-28948095D01*
X40824428Y-28852857D01*
X40862523Y-28757619D01*
X40900619Y-28710000D01*
X40976809Y-28662380D01*
X41167285Y-28662380D01*
X41281571Y-28710000D01*
X41814904Y-29995714D02*
X41814904Y-28567142D01*
X42348238Y-29614761D02*
X42462523Y-29662380D01*
X42653000Y-29662380D01*
X42729190Y-29614761D01*
X42767285Y-29567142D01*
X42805380Y-29471904D01*
X42805380Y-29376666D01*
X42767285Y-29281428D01*
X42729190Y-29233809D01*
X42653000Y-29186190D01*
X42500619Y-29138571D01*
X42424428Y-29090952D01*
X42386333Y-29043333D01*
X42348238Y-28948095D01*
X42348238Y-28852857D01*
X42386333Y-28757619D01*
X42424428Y-28710000D01*
X42500619Y-28662380D01*
X42691095Y-28662380D01*
X42805380Y-28710000D01*
X43148238Y-29662380D02*
X43148238Y-28662380D01*
X43719666Y-29995714D02*
X43719666Y-28567142D01*
X44253000Y-29614761D02*
X44367285Y-29662380D01*
X44557761Y-29662380D01*
X44633952Y-29614761D01*
X44672047Y-29567142D01*
X44710142Y-29471904D01*
X44710142Y-29376666D01*
X44672047Y-29281428D01*
X44633952Y-29233809D01*
X44557761Y-29186190D01*
X44405380Y-29138571D01*
X44329190Y-29090952D01*
X44291095Y-29043333D01*
X44253000Y-28948095D01*
X44253000Y-28852857D01*
X44291095Y-28757619D01*
X44329190Y-28710000D01*
X44405380Y-28662380D01*
X44595857Y-28662380D01*
X44710142Y-28710000D01*
X45205380Y-28662380D02*
X45357761Y-28662380D01*
X45433952Y-28710000D01*
X45510142Y-28805238D01*
X45548238Y-28995714D01*
X45548238Y-29329047D01*
X45510142Y-29519523D01*
X45433952Y-29614761D01*
X45357761Y-29662380D01*
X45205380Y-29662380D01*
X45129190Y-29614761D01*
X45053000Y-29519523D01*
X45014904Y-29329047D01*
X45014904Y-28995714D01*
X45053000Y-28805238D01*
X45129190Y-28710000D01*
X45205380Y-28662380D01*
X46081571Y-29995714D02*
X46081571Y-28567142D01*
X46614904Y-29614761D02*
X46729190Y-29662380D01*
X46919666Y-29662380D01*
X46995857Y-29614761D01*
X47033952Y-29567142D01*
X47072047Y-29471904D01*
X47072047Y-29376666D01*
X47033952Y-29281428D01*
X46995857Y-29233809D01*
X46919666Y-29186190D01*
X46767285Y-29138571D01*
X46691095Y-29090952D01*
X46653000Y-29043333D01*
X46614904Y-28948095D01*
X46614904Y-28852857D01*
X46653000Y-28757619D01*
X46691095Y-28710000D01*
X46767285Y-28662380D01*
X46957761Y-28662380D01*
X47072047Y-28710000D01*
X47872047Y-29567142D02*
X47833952Y-29614761D01*
X47719666Y-29662380D01*
X47643476Y-29662380D01*
X47529190Y-29614761D01*
X47453000Y-29519523D01*
X47414904Y-29424285D01*
X47376809Y-29233809D01*
X47376809Y-29090952D01*
X47414904Y-28900476D01*
X47453000Y-28805238D01*
X47529190Y-28710000D01*
X47643476Y-28662380D01*
X47719666Y-28662380D01*
X47833952Y-28710000D01*
X47872047Y-28757619D01*
X48214904Y-29662380D02*
X48214904Y-28662380D01*
X48672047Y-29662380D02*
X48329190Y-29090952D01*
X48672047Y-28662380D02*
X48214904Y-29233809D01*
X49205380Y-29995714D02*
X49205380Y-28567142D01*
X50195857Y-28710000D02*
X50119666Y-28662380D01*
X50005380Y-28662380D01*
X49891095Y-28710000D01*
X49814904Y-28805238D01*
X49776809Y-28900476D01*
X49738714Y-29090952D01*
X49738714Y-29233809D01*
X49776809Y-29424285D01*
X49814904Y-29519523D01*
X49891095Y-29614761D01*
X50005380Y-29662380D01*
X50081571Y-29662380D01*
X50195857Y-29614761D01*
X50233952Y-29567142D01*
X50233952Y-29233809D01*
X50081571Y-29233809D01*
X50576809Y-29662380D02*
X50576809Y-28662380D01*
X51033952Y-29662380D01*
X51033952Y-28662380D01*
X51414904Y-29662380D02*
X51414904Y-28662380D01*
X51605380Y-28662380D01*
X51719666Y-28710000D01*
X51795857Y-28805238D01*
X51833952Y-28900476D01*
X51872047Y-29090952D01*
X51872047Y-29233809D01*
X51833952Y-29424285D01*
X51795857Y-29519523D01*
X51719666Y-29614761D01*
X51605380Y-29662380D01*
X51414904Y-29662380D01*
X52405380Y-29995714D02*
X52405380Y-28567142D01*
X52900619Y-28662380D02*
X53395857Y-28662380D01*
X53129190Y-29043333D01*
X53243476Y-29043333D01*
X53319666Y-29090952D01*
X53357761Y-29138571D01*
X53395857Y-29233809D01*
X53395857Y-29471904D01*
X53357761Y-29567142D01*
X53319666Y-29614761D01*
X53243476Y-29662380D01*
X53014904Y-29662380D01*
X52938714Y-29614761D01*
X52900619Y-29567142D01*
X53624428Y-28662380D02*
X53891095Y-29662380D01*
X54157761Y-28662380D01*
X54348238Y-28662380D02*
X54843476Y-28662380D01*
X54576809Y-29043333D01*
X54691095Y-29043333D01*
X54767285Y-29090952D01*
X54805380Y-29138571D01*
X54843476Y-29233809D01*
X54843476Y-29471904D01*
X54805380Y-29567142D01*
X54767285Y-29614761D01*
X54691095Y-29662380D01*
X54462523Y-29662380D01*
X54386333Y-29614761D01*
X54348238Y-29567142D01*
X55376809Y-29995714D02*
X55376809Y-28567142D01*
X55833952Y-28662380D02*
X56100619Y-29662380D01*
X56367285Y-28662380D01*
X56633952Y-29662380D02*
X56633952Y-28662380D01*
X57014904Y-29662380D02*
X57014904Y-28662380D01*
X57472047Y-29662380D01*
X57472047Y-28662380D01*
D10*
X59496000Y-69258000D02*
X26356000Y-69258000D01*
X26356000Y-69258000D02*
X26356000Y-71544000D01*
X59496000Y-71544000D02*
X59496000Y-69258000D01*
X58546000Y-68860929D02*
X58546000Y-69258000D01*
X57786000Y-68860929D02*
X57786000Y-69258000D01*
X58546000Y-66388000D02*
X58546000Y-66775071D01*
X57786000Y-66388000D02*
X57786000Y-66775071D01*
X56006000Y-68860929D02*
X56006000Y-69258000D01*
X55246000Y-68860929D02*
X55246000Y-69258000D01*
X56006000Y-66320929D02*
X56006000Y-66775071D01*
X55246000Y-66320929D02*
X55246000Y-66775071D01*
X53466000Y-68860929D02*
X53466000Y-69258000D01*
X52706000Y-68860929D02*
X52706000Y-69258000D01*
X53466000Y-66320929D02*
X53466000Y-66775071D01*
X52706000Y-66320929D02*
X52706000Y-66775071D01*
X50926000Y-68860929D02*
X50926000Y-69258000D01*
X50166000Y-68860929D02*
X50166000Y-69258000D01*
X50926000Y-66320929D02*
X50926000Y-66775071D01*
X50166000Y-66320929D02*
X50166000Y-66775071D01*
X48386000Y-68860929D02*
X48386000Y-69258000D01*
X47626000Y-68860929D02*
X47626000Y-69258000D01*
X48386000Y-66320929D02*
X48386000Y-66775071D01*
X47626000Y-66320929D02*
X47626000Y-66775071D01*
X45846000Y-68860929D02*
X45846000Y-69258000D01*
X45086000Y-68860929D02*
X45086000Y-69258000D01*
X45846000Y-66320929D02*
X45846000Y-66775071D01*
X45086000Y-66320929D02*
X45086000Y-66775071D01*
X43306000Y-68860929D02*
X43306000Y-69258000D01*
X42546000Y-68860929D02*
X42546000Y-69258000D01*
X43306000Y-66320929D02*
X43306000Y-66775071D01*
X42546000Y-66320929D02*
X42546000Y-66775071D01*
X40766000Y-68860929D02*
X40766000Y-69258000D01*
X40006000Y-68860929D02*
X40006000Y-69258000D01*
X40766000Y-66320929D02*
X40766000Y-66775071D01*
X40006000Y-66320929D02*
X40006000Y-66775071D01*
X38226000Y-68860929D02*
X38226000Y-69258000D01*
X37466000Y-68860929D02*
X37466000Y-69258000D01*
X38226000Y-66320929D02*
X38226000Y-66775071D01*
X37466000Y-66320929D02*
X37466000Y-66775071D01*
X35686000Y-68860929D02*
X35686000Y-69258000D01*
X34926000Y-68860929D02*
X34926000Y-69258000D01*
X35686000Y-66320929D02*
X35686000Y-66775071D01*
X34926000Y-66320929D02*
X34926000Y-66775071D01*
X33146000Y-68860929D02*
X33146000Y-69258000D01*
X32386000Y-68860929D02*
X32386000Y-69258000D01*
X33146000Y-66320929D02*
X33146000Y-66775071D01*
X32386000Y-66320929D02*
X32386000Y-66775071D01*
X30606000Y-68860929D02*
X30606000Y-69258000D01*
X29846000Y-68860929D02*
X29846000Y-69258000D01*
X30606000Y-66320929D02*
X30606000Y-66775071D01*
X29846000Y-66320929D02*
X29846000Y-66775071D01*
X28066000Y-68860929D02*
X28066000Y-69258000D01*
X27306000Y-68860929D02*
X27306000Y-69258000D01*
X28066000Y-66320929D02*
X28066000Y-66775071D01*
X27306000Y-66320929D02*
X27306000Y-66775071D01*
X58166000Y-64008000D02*
X59436000Y-64008000D01*
X59436000Y-64008000D02*
X59436000Y-65278000D01*
X57083000Y-57658000D02*
X57083000Y-58988000D01*
X57083000Y-58988000D02*
X55753000Y-58988000D01*
X54483000Y-58988000D02*
X29023000Y-58988000D01*
X29023000Y-56328000D02*
X29023000Y-58988000D01*
X54483000Y-56328000D02*
X29023000Y-56328000D01*
X54483000Y-56328000D02*
X54483000Y-58988000D01*
X29023000Y-26924000D02*
X29023000Y-25594000D01*
X29023000Y-25594000D02*
X30353000Y-25594000D01*
X31623000Y-25594000D02*
X57083000Y-25594000D01*
X57083000Y-28254000D02*
X57083000Y-25594000D01*
X31623000Y-28254000D02*
X57083000Y-28254000D01*
X31623000Y-28254000D02*
X31623000Y-25594000D01*
X26483000Y-53721000D02*
X26483000Y-52391000D01*
X26483000Y-52391000D02*
X27813000Y-52391000D01*
X29083000Y-52391000D02*
X59623000Y-52391000D01*
X59623000Y-55051000D02*
X59623000Y-52391000D01*
X29083000Y-55051000D02*
X59623000Y-55051000D01*
X29083000Y-55051000D02*
X29083000Y-52391000D01*
X32833000Y-32893000D02*
X32833000Y-31563000D01*
X32833000Y-31563000D02*
X34163000Y-31563000D01*
X35433000Y-31563000D02*
X53273000Y-31563000D01*
X53273000Y-34223000D02*
X53273000Y-31563000D01*
X35433000Y-34223000D02*
X53273000Y-34223000D01*
X35433000Y-34223000D02*
X35433000Y-31563000D01*
D11*
X57832666Y-62698380D02*
X57832666Y-63412666D01*
X57785047Y-63555523D01*
X57689809Y-63650761D01*
X57546952Y-63698380D01*
X57451714Y-63698380D01*
X58832666Y-63698380D02*
X58261238Y-63698380D01*
X58546952Y-63698380D02*
X58546952Y-62698380D01*
X58451714Y-62841238D01*
X58356476Y-62936476D01*
X58261238Y-62984095D01*
X57832666Y-57872380D02*
X57832666Y-58586666D01*
X57785047Y-58729523D01*
X57689809Y-58824761D01*
X57546952Y-58872380D01*
X57451714Y-58872380D01*
X58261238Y-57967619D02*
X58308857Y-57920000D01*
X58404095Y-57872380D01*
X58642190Y-57872380D01*
X58737428Y-57920000D01*
X58785047Y-57967619D01*
X58832666Y-58062857D01*
X58832666Y-58158095D01*
X58785047Y-58300952D01*
X58213619Y-58872380D01*
X58832666Y-58872380D01*
X57832666Y-26376380D02*
X57832666Y-27090666D01*
X57785047Y-27233523D01*
X57689809Y-27328761D01*
X57546952Y-27376380D01*
X57451714Y-27376380D01*
X58785047Y-26376380D02*
X58308857Y-26376380D01*
X58261238Y-26852571D01*
X58308857Y-26804952D01*
X58404095Y-26757333D01*
X58642190Y-26757333D01*
X58737428Y-26804952D01*
X58785047Y-26852571D01*
X58832666Y-26947809D01*
X58832666Y-27185904D01*
X58785047Y-27281142D01*
X58737428Y-27328761D01*
X58642190Y-27376380D01*
X58404095Y-27376380D01*
X58308857Y-27328761D01*
X58261238Y-27281142D01*
X57959666Y-55332380D02*
X57959666Y-56046666D01*
X57912047Y-56189523D01*
X57816809Y-56284761D01*
X57673952Y-56332380D01*
X57578714Y-56332380D01*
X58340619Y-55332380D02*
X58959666Y-55332380D01*
X58626333Y-55713333D01*
X58769190Y-55713333D01*
X58864428Y-55760952D01*
X58912047Y-55808571D01*
X58959666Y-55903809D01*
X58959666Y-56141904D01*
X58912047Y-56237142D01*
X58864428Y-56284761D01*
X58769190Y-56332380D01*
X58483476Y-56332380D01*
X58388238Y-56284761D01*
X58340619Y-56237142D01*
X54022666Y-32345380D02*
X54022666Y-33059666D01*
X53975047Y-33202523D01*
X53879809Y-33297761D01*
X53736952Y-33345380D01*
X53641714Y-33345380D01*
X54927428Y-32678714D02*
X54927428Y-33345380D01*
X54689333Y-32297761D02*
X54451238Y-33012047D01*
X55070285Y-33012047D01*
M02*
