G04 #@! TF.GenerationSoftware,KiCad,Pcbnew,(5.1.9)-1*
G04 #@! TF.CreationDate,2021-02-23T10:55:24+09:00*
G04 #@! TF.ProjectId,screens,73637265-656e-4732-9e6b-696361645f70,rev?*
G04 #@! TF.SameCoordinates,Original*
G04 #@! TF.FileFunction,Copper,L1,Top*
G04 #@! TF.FilePolarity,Positive*
%FSLAX46Y46*%
G04 Gerber Fmt 4.6, Leading zero omitted, Abs format (unit mm)*
G04 Created by KiCad (PCBNEW (5.1.9)-1) date 2021-02-23 10:55:24*
%MOMM*%
%LPD*%
G01*
G04 APERTURE LIST*
G04 #@! TA.AperFunction,ComponentPad*
%ADD10O,1.700000X1.700000*%
G04 #@! TD*
G04 #@! TA.AperFunction,ComponentPad*
%ADD11R,1.700000X1.700000*%
G04 #@! TD*
G04 #@! TA.AperFunction,ViaPad*
%ADD12C,0.800000*%
G04 #@! TD*
G04 #@! TA.AperFunction,Conductor*
%ADD13C,0.400000*%
G04 #@! TD*
G04 #@! TA.AperFunction,Conductor*
%ADD14C,0.800000*%
G04 #@! TD*
G04 #@! TA.AperFunction,Conductor*
%ADD15C,0.254000*%
G04 #@! TD*
G04 #@! TA.AperFunction,Conductor*
%ADD16C,0.100000*%
G04 #@! TD*
G04 APERTURE END LIST*
D10*
X27686000Y-67818000D03*
X27686000Y-65278000D03*
X30226000Y-67818000D03*
X30226000Y-65278000D03*
X32766000Y-67818000D03*
X32766000Y-65278000D03*
X35306000Y-67818000D03*
X35306000Y-65278000D03*
X37846000Y-67818000D03*
X37846000Y-65278000D03*
X40386000Y-67818000D03*
X40386000Y-65278000D03*
X42926000Y-67818000D03*
X42926000Y-65278000D03*
X45466000Y-67818000D03*
X45466000Y-65278000D03*
X48006000Y-67818000D03*
X48006000Y-65278000D03*
X50546000Y-67818000D03*
X50546000Y-65278000D03*
X53086000Y-67818000D03*
X53086000Y-65278000D03*
X55626000Y-67818000D03*
X55626000Y-65278000D03*
X58166000Y-67818000D03*
D11*
X58166000Y-65278000D03*
X55753000Y-57658000D03*
D10*
X53213000Y-57658000D03*
X50673000Y-57658000D03*
X48133000Y-57658000D03*
X45593000Y-57658000D03*
X43053000Y-57658000D03*
X40513000Y-57658000D03*
X37973000Y-57658000D03*
X35433000Y-57658000D03*
X32893000Y-57658000D03*
X30353000Y-57658000D03*
D11*
X30353000Y-26924000D03*
D10*
X32893000Y-26924000D03*
X35433000Y-26924000D03*
X37973000Y-26924000D03*
X40513000Y-26924000D03*
X43053000Y-26924000D03*
X45593000Y-26924000D03*
X48133000Y-26924000D03*
X50673000Y-26924000D03*
X53213000Y-26924000D03*
X55753000Y-26924000D03*
D11*
X27813000Y-53721000D03*
D10*
X30353000Y-53721000D03*
X32893000Y-53721000D03*
X35433000Y-53721000D03*
X37973000Y-53721000D03*
X40513000Y-53721000D03*
X43053000Y-53721000D03*
X45593000Y-53721000D03*
X48133000Y-53721000D03*
X50673000Y-53721000D03*
X53213000Y-53721000D03*
X55753000Y-53721000D03*
X58293000Y-53721000D03*
D11*
X34163000Y-32893000D03*
D10*
X36703000Y-32893000D03*
X39243000Y-32893000D03*
X41783000Y-32893000D03*
X44323000Y-32893000D03*
X46863000Y-32893000D03*
X49403000Y-32893000D03*
X51943000Y-32893000D03*
D12*
X29718000Y-61468000D03*
X31496000Y-61468000D03*
X53340000Y-45974000D03*
X53340000Y-37846000D03*
X57404000Y-45974000D03*
X57404000Y-37846000D03*
X29972000Y-37846000D03*
X29972000Y-45974000D03*
X40386000Y-61468000D03*
X36703000Y-37846000D03*
X50800000Y-61468000D03*
X43434000Y-61468000D03*
X40513000Y-30226000D03*
X37846000Y-49276000D03*
X41910000Y-49276000D03*
D13*
X29102999Y-55987001D02*
X29102999Y-61448001D01*
X34163000Y-56261000D02*
X34798000Y-55626000D01*
X37338000Y-61468000D02*
X34163000Y-58293000D01*
X34163000Y-58293000D02*
X34163000Y-56261000D01*
X40386000Y-61468000D02*
X37338000Y-61468000D01*
X36703000Y-58801000D02*
X37338000Y-59436000D01*
X36703000Y-52901315D02*
X36703000Y-58801000D01*
X38042315Y-51562000D02*
X36703000Y-52901315D01*
X38608000Y-51562000D02*
X38042315Y-51562000D01*
X28956000Y-63373000D02*
X30480000Y-61849000D01*
X28956000Y-69088000D02*
X28956000Y-63373000D01*
X27940000Y-70104000D02*
X28956000Y-69088000D01*
X31496000Y-69048002D02*
X31515999Y-69068001D01*
X31496000Y-64008000D02*
X31496000Y-69048002D01*
X31750000Y-63754000D02*
X31496000Y-64008000D01*
X31750000Y-61849000D02*
X31750000Y-63754000D01*
X30378400Y-60731400D02*
X30378400Y-59105800D01*
X34036000Y-64389000D02*
X30378400Y-60731400D01*
X34036000Y-69302002D02*
X34036000Y-64389000D01*
X34055999Y-69322001D02*
X34036000Y-69302002D01*
X30480000Y-57658000D02*
X30480000Y-56134000D01*
X30403800Y-57734200D02*
X30480000Y-57658000D01*
X30403800Y-58877200D02*
X30403800Y-57734200D01*
X35179000Y-63652400D02*
X30403800Y-58877200D01*
X35509200Y-63652400D02*
X35179000Y-63652400D01*
X36576000Y-64719200D02*
X35509200Y-63652400D01*
X36576000Y-69088000D02*
X36576000Y-64719200D01*
X30372999Y-55987001D02*
X29102999Y-55987001D01*
X31623000Y-54737000D02*
X30372999Y-55987001D01*
X29083000Y-50292000D02*
X31623000Y-52832000D01*
X31623000Y-52832000D02*
X31623000Y-54737000D01*
X29083000Y-55967002D02*
X29083000Y-50292000D01*
X29102999Y-55987001D02*
X29083000Y-55967002D01*
X50673000Y-28575000D02*
X50673000Y-26924000D01*
X49022000Y-28829000D02*
X50419000Y-28829000D01*
X48133000Y-34163000D02*
X48133000Y-29718000D01*
X48133000Y-29718000D02*
X49022000Y-28829000D01*
X51816000Y-37846000D02*
X48133000Y-34163000D01*
X53340000Y-37846000D02*
X51816000Y-37846000D01*
X50546000Y-28702000D02*
X50673000Y-28575000D01*
X50419000Y-28829000D02*
X50546000Y-28702000D01*
X45593000Y-31369000D02*
X48260000Y-28702000D01*
X45593000Y-34417000D02*
X45593000Y-31369000D01*
X49022000Y-37846000D02*
X45593000Y-34417000D01*
X48260000Y-28702000D02*
X50546000Y-28702000D01*
X53340000Y-37846000D02*
X49022000Y-37846000D01*
D14*
X57042999Y-49256001D02*
X57042999Y-51562000D01*
X55753000Y-47966002D02*
X57042999Y-49256001D01*
X55753000Y-35306000D02*
X55753000Y-47966002D01*
X37045989Y-62699989D02*
X57442011Y-62699989D01*
X32893000Y-58547000D02*
X37045989Y-62699989D01*
X57442011Y-62699989D02*
X58420000Y-61722000D01*
X32893000Y-57658000D02*
X32893000Y-58547000D01*
X58420000Y-61722000D02*
X58420000Y-56134000D01*
X49403000Y-32893000D02*
X49403000Y-31242000D01*
X49403000Y-31242000D02*
X50107308Y-30537692D01*
X50107308Y-30537692D02*
X54667692Y-30537692D01*
X54667692Y-30537692D02*
X55753000Y-31623000D01*
X55753000Y-31623000D02*
X55753000Y-35306000D01*
X55753000Y-26924000D02*
X55753000Y-31623000D01*
D13*
X54825989Y-62699989D02*
X54737000Y-62611000D01*
X55587989Y-62699989D02*
X54825989Y-62699989D01*
X56896000Y-64008000D02*
X55587989Y-62699989D01*
X56896000Y-66548000D02*
X56896000Y-64008000D01*
X58166000Y-67818000D02*
X56896000Y-66548000D01*
X57023000Y-51581999D02*
X57042999Y-51562000D01*
X57023000Y-54737000D02*
X57023000Y-51581999D01*
X58420000Y-56134000D02*
X57023000Y-54737000D01*
X47625000Y-55753000D02*
X45593000Y-53721000D01*
X48768000Y-55753000D02*
X47625000Y-55753000D01*
X50673000Y-57658000D02*
X48768000Y-55753000D01*
X50800000Y-57785000D02*
X50800000Y-61468000D01*
X50673000Y-57658000D02*
X50800000Y-57785000D01*
X39243000Y-33274000D02*
X39243000Y-32893000D01*
X42037000Y-35687000D02*
X39243000Y-32893000D01*
X42037000Y-46609000D02*
X42037000Y-35687000D01*
X43815000Y-48387000D02*
X42037000Y-46609000D01*
X43815000Y-51943000D02*
X43815000Y-48387000D01*
X45593000Y-53721000D02*
X43815000Y-51943000D01*
X40640000Y-39370000D02*
X34163000Y-32893000D01*
X40640000Y-53594000D02*
X40640000Y-39370000D01*
X40513000Y-53721000D02*
X40640000Y-53594000D01*
X43053000Y-27432000D02*
X43053000Y-26924000D01*
X41910000Y-28575000D02*
X43053000Y-27432000D01*
X38481000Y-28575000D02*
X41910000Y-28575000D01*
X34163000Y-32893000D02*
X38481000Y-28575000D01*
X40513000Y-57658000D02*
X40640000Y-57658000D01*
X40513000Y-56261000D02*
X37973000Y-53721000D01*
X40513000Y-57658000D02*
X40513000Y-56261000D01*
X47752000Y-26924000D02*
X48133000Y-26924000D01*
X45250001Y-29425999D02*
X47752000Y-26924000D01*
X38967920Y-29425999D02*
X45250001Y-29425999D01*
X36703000Y-31690919D02*
X38967920Y-29425999D01*
X36703000Y-32893000D02*
X36703000Y-31690919D01*
X43053000Y-55118000D02*
X43053000Y-53721000D01*
X45593000Y-57658000D02*
X43053000Y-55118000D01*
X45593000Y-59309000D02*
X43434000Y-61468000D01*
X45593000Y-57785000D02*
X45593000Y-59309000D01*
X37973000Y-31877000D02*
X39624000Y-30226000D01*
X37973000Y-34417000D02*
X37973000Y-31877000D01*
X41402000Y-37846000D02*
X37973000Y-34417000D01*
X39624000Y-30226000D02*
X40513000Y-30226000D01*
X41402000Y-47371000D02*
X41402000Y-37846000D01*
X43053000Y-49022000D02*
X41402000Y-47371000D01*
X43053000Y-53721000D02*
X43053000Y-49022000D01*
X34163000Y-54483000D02*
X34163000Y-52959000D01*
X36576000Y-63500000D02*
X31623000Y-58547000D01*
X38608000Y-63500000D02*
X36576000Y-63500000D01*
X40386000Y-65278000D02*
X38608000Y-63500000D01*
X31623000Y-58547000D02*
X31623000Y-57023000D01*
X31623000Y-57023000D02*
X34163000Y-54483000D01*
X34163000Y-52959000D02*
X37846000Y-49276000D01*
X41783000Y-49403000D02*
X41910000Y-49276000D01*
X41783000Y-56261000D02*
X41783000Y-49403000D01*
X43180000Y-57658000D02*
X41783000Y-56261000D01*
X44323000Y-35179000D02*
X44323000Y-32893000D01*
X42799000Y-36703000D02*
X44323000Y-35179000D01*
X42799000Y-45847000D02*
X42799000Y-36703000D01*
X50673000Y-53721000D02*
X42799000Y-45847000D01*
D15*
X55753000Y-67691000D02*
X55773000Y-67691000D01*
X55773000Y-67945000D01*
X55753000Y-67945000D01*
X55753000Y-69138155D01*
X55982890Y-69259476D01*
X56130099Y-69214825D01*
X56392920Y-69089641D01*
X56626269Y-68915588D01*
X56821178Y-68699355D01*
X56890805Y-68582466D01*
X57012525Y-68764632D01*
X57219368Y-68971475D01*
X57462589Y-69133990D01*
X57732842Y-69245932D01*
X58019740Y-69303000D01*
X58312260Y-69303000D01*
X58385001Y-69288531D01*
X58385001Y-70289000D01*
X27670000Y-70289000D01*
X27670000Y-69303000D01*
X27832260Y-69303000D01*
X28119158Y-69245932D01*
X28389411Y-69133990D01*
X28632632Y-68971475D01*
X28839475Y-68764632D01*
X28956000Y-68590240D01*
X29072525Y-68764632D01*
X29279368Y-68971475D01*
X29522589Y-69133990D01*
X29792842Y-69245932D01*
X30079740Y-69303000D01*
X30372260Y-69303000D01*
X30659158Y-69245932D01*
X30929411Y-69133990D01*
X31172632Y-68971475D01*
X31379475Y-68764632D01*
X31496000Y-68590240D01*
X31612525Y-68764632D01*
X31819368Y-68971475D01*
X32062589Y-69133990D01*
X32332842Y-69245932D01*
X32619740Y-69303000D01*
X32912260Y-69303000D01*
X33199158Y-69245932D01*
X33469411Y-69133990D01*
X33712632Y-68971475D01*
X33919475Y-68764632D01*
X34036000Y-68590240D01*
X34152525Y-68764632D01*
X34359368Y-68971475D01*
X34602589Y-69133990D01*
X34872842Y-69245932D01*
X35159740Y-69303000D01*
X35452260Y-69303000D01*
X35739158Y-69245932D01*
X36009411Y-69133990D01*
X36252632Y-68971475D01*
X36459475Y-68764632D01*
X36576000Y-68590240D01*
X36692525Y-68764632D01*
X36899368Y-68971475D01*
X37142589Y-69133990D01*
X37412842Y-69245932D01*
X37699740Y-69303000D01*
X37992260Y-69303000D01*
X38279158Y-69245932D01*
X38549411Y-69133990D01*
X38792632Y-68971475D01*
X38999475Y-68764632D01*
X39116000Y-68590240D01*
X39232525Y-68764632D01*
X39439368Y-68971475D01*
X39682589Y-69133990D01*
X39952842Y-69245932D01*
X40239740Y-69303000D01*
X40532260Y-69303000D01*
X40819158Y-69245932D01*
X41089411Y-69133990D01*
X41332632Y-68971475D01*
X41539475Y-68764632D01*
X41656000Y-68590240D01*
X41772525Y-68764632D01*
X41979368Y-68971475D01*
X42222589Y-69133990D01*
X42492842Y-69245932D01*
X42779740Y-69303000D01*
X43072260Y-69303000D01*
X43359158Y-69245932D01*
X43629411Y-69133990D01*
X43872632Y-68971475D01*
X44079475Y-68764632D01*
X44196000Y-68590240D01*
X44312525Y-68764632D01*
X44519368Y-68971475D01*
X44762589Y-69133990D01*
X45032842Y-69245932D01*
X45319740Y-69303000D01*
X45612260Y-69303000D01*
X45899158Y-69245932D01*
X46169411Y-69133990D01*
X46412632Y-68971475D01*
X46619475Y-68764632D01*
X46736000Y-68590240D01*
X46852525Y-68764632D01*
X47059368Y-68971475D01*
X47302589Y-69133990D01*
X47572842Y-69245932D01*
X47859740Y-69303000D01*
X48152260Y-69303000D01*
X48439158Y-69245932D01*
X48709411Y-69133990D01*
X48952632Y-68971475D01*
X49159475Y-68764632D01*
X49276000Y-68590240D01*
X49392525Y-68764632D01*
X49599368Y-68971475D01*
X49842589Y-69133990D01*
X50112842Y-69245932D01*
X50399740Y-69303000D01*
X50692260Y-69303000D01*
X50979158Y-69245932D01*
X51249411Y-69133990D01*
X51492632Y-68971475D01*
X51699475Y-68764632D01*
X51816000Y-68590240D01*
X51932525Y-68764632D01*
X52139368Y-68971475D01*
X52382589Y-69133990D01*
X52652842Y-69245932D01*
X52939740Y-69303000D01*
X53232260Y-69303000D01*
X53519158Y-69245932D01*
X53789411Y-69133990D01*
X54032632Y-68971475D01*
X54239475Y-68764632D01*
X54361195Y-68582466D01*
X54430822Y-68699355D01*
X54625731Y-68915588D01*
X54859080Y-69089641D01*
X55121901Y-69214825D01*
X55269110Y-69259476D01*
X55499000Y-69138155D01*
X55499000Y-67945000D01*
X55479000Y-67945000D01*
X55479000Y-67691000D01*
X55499000Y-67691000D01*
X55499000Y-67671000D01*
X55753000Y-67671000D01*
X55753000Y-67691000D01*
G04 #@! TA.AperFunction,Conductor*
D16*
G36*
X55753000Y-67691000D02*
G01*
X55773000Y-67691000D01*
X55773000Y-67945000D01*
X55753000Y-67945000D01*
X55753000Y-69138155D01*
X55982890Y-69259476D01*
X56130099Y-69214825D01*
X56392920Y-69089641D01*
X56626269Y-68915588D01*
X56821178Y-68699355D01*
X56890805Y-68582466D01*
X57012525Y-68764632D01*
X57219368Y-68971475D01*
X57462589Y-69133990D01*
X57732842Y-69245932D01*
X58019740Y-69303000D01*
X58312260Y-69303000D01*
X58385001Y-69288531D01*
X58385001Y-70289000D01*
X27670000Y-70289000D01*
X27670000Y-69303000D01*
X27832260Y-69303000D01*
X28119158Y-69245932D01*
X28389411Y-69133990D01*
X28632632Y-68971475D01*
X28839475Y-68764632D01*
X28956000Y-68590240D01*
X29072525Y-68764632D01*
X29279368Y-68971475D01*
X29522589Y-69133990D01*
X29792842Y-69245932D01*
X30079740Y-69303000D01*
X30372260Y-69303000D01*
X30659158Y-69245932D01*
X30929411Y-69133990D01*
X31172632Y-68971475D01*
X31379475Y-68764632D01*
X31496000Y-68590240D01*
X31612525Y-68764632D01*
X31819368Y-68971475D01*
X32062589Y-69133990D01*
X32332842Y-69245932D01*
X32619740Y-69303000D01*
X32912260Y-69303000D01*
X33199158Y-69245932D01*
X33469411Y-69133990D01*
X33712632Y-68971475D01*
X33919475Y-68764632D01*
X34036000Y-68590240D01*
X34152525Y-68764632D01*
X34359368Y-68971475D01*
X34602589Y-69133990D01*
X34872842Y-69245932D01*
X35159740Y-69303000D01*
X35452260Y-69303000D01*
X35739158Y-69245932D01*
X36009411Y-69133990D01*
X36252632Y-68971475D01*
X36459475Y-68764632D01*
X36576000Y-68590240D01*
X36692525Y-68764632D01*
X36899368Y-68971475D01*
X37142589Y-69133990D01*
X37412842Y-69245932D01*
X37699740Y-69303000D01*
X37992260Y-69303000D01*
X38279158Y-69245932D01*
X38549411Y-69133990D01*
X38792632Y-68971475D01*
X38999475Y-68764632D01*
X39116000Y-68590240D01*
X39232525Y-68764632D01*
X39439368Y-68971475D01*
X39682589Y-69133990D01*
X39952842Y-69245932D01*
X40239740Y-69303000D01*
X40532260Y-69303000D01*
X40819158Y-69245932D01*
X41089411Y-69133990D01*
X41332632Y-68971475D01*
X41539475Y-68764632D01*
X41656000Y-68590240D01*
X41772525Y-68764632D01*
X41979368Y-68971475D01*
X42222589Y-69133990D01*
X42492842Y-69245932D01*
X42779740Y-69303000D01*
X43072260Y-69303000D01*
X43359158Y-69245932D01*
X43629411Y-69133990D01*
X43872632Y-68971475D01*
X44079475Y-68764632D01*
X44196000Y-68590240D01*
X44312525Y-68764632D01*
X44519368Y-68971475D01*
X44762589Y-69133990D01*
X45032842Y-69245932D01*
X45319740Y-69303000D01*
X45612260Y-69303000D01*
X45899158Y-69245932D01*
X46169411Y-69133990D01*
X46412632Y-68971475D01*
X46619475Y-68764632D01*
X46736000Y-68590240D01*
X46852525Y-68764632D01*
X47059368Y-68971475D01*
X47302589Y-69133990D01*
X47572842Y-69245932D01*
X47859740Y-69303000D01*
X48152260Y-69303000D01*
X48439158Y-69245932D01*
X48709411Y-69133990D01*
X48952632Y-68971475D01*
X49159475Y-68764632D01*
X49276000Y-68590240D01*
X49392525Y-68764632D01*
X49599368Y-68971475D01*
X49842589Y-69133990D01*
X50112842Y-69245932D01*
X50399740Y-69303000D01*
X50692260Y-69303000D01*
X50979158Y-69245932D01*
X51249411Y-69133990D01*
X51492632Y-68971475D01*
X51699475Y-68764632D01*
X51816000Y-68590240D01*
X51932525Y-68764632D01*
X52139368Y-68971475D01*
X52382589Y-69133990D01*
X52652842Y-69245932D01*
X52939740Y-69303000D01*
X53232260Y-69303000D01*
X53519158Y-69245932D01*
X53789411Y-69133990D01*
X54032632Y-68971475D01*
X54239475Y-68764632D01*
X54361195Y-68582466D01*
X54430822Y-68699355D01*
X54625731Y-68915588D01*
X54859080Y-69089641D01*
X55121901Y-69214825D01*
X55269110Y-69259476D01*
X55499000Y-69138155D01*
X55499000Y-67945000D01*
X55479000Y-67945000D01*
X55479000Y-67691000D01*
X55499000Y-67691000D01*
X55499000Y-67671000D01*
X55753000Y-67671000D01*
X55753000Y-67691000D01*
G37*
G04 #@! TD.AperFunction*
D15*
X31697822Y-54602355D02*
X31892731Y-54818588D01*
X32126080Y-54992641D01*
X32360727Y-55104405D01*
X31092049Y-56373084D01*
X30857099Y-56261175D01*
X30709890Y-56216524D01*
X30480000Y-56337845D01*
X30480000Y-57531000D01*
X30500000Y-57531000D01*
X30500000Y-57785000D01*
X30480000Y-57785000D01*
X30480000Y-58978155D01*
X30709890Y-59099476D01*
X30857099Y-59054825D01*
X30930772Y-59019734D01*
X31029709Y-59140291D01*
X31061579Y-59166446D01*
X35749471Y-63854340D01*
X35739158Y-63850068D01*
X35452260Y-63793000D01*
X35159740Y-63793000D01*
X34872842Y-63850068D01*
X34602589Y-63962010D01*
X34359368Y-64124525D01*
X34152525Y-64331368D01*
X34036000Y-64505760D01*
X33919475Y-64331368D01*
X33712632Y-64124525D01*
X33469411Y-63962010D01*
X33199158Y-63850068D01*
X32912260Y-63793000D01*
X32619740Y-63793000D01*
X32332842Y-63850068D01*
X32062589Y-63962010D01*
X31819368Y-64124525D01*
X31612525Y-64331368D01*
X31496000Y-64505760D01*
X31379475Y-64331368D01*
X31172632Y-64124525D01*
X30929411Y-63962010D01*
X30659158Y-63850068D01*
X30372260Y-63793000D01*
X30079740Y-63793000D01*
X29792842Y-63850068D01*
X29522589Y-63962010D01*
X29279368Y-64124525D01*
X29072525Y-64331368D01*
X28956000Y-64505760D01*
X28839475Y-64331368D01*
X28632632Y-64124525D01*
X28389411Y-63962010D01*
X28119158Y-63850068D01*
X27832260Y-63793000D01*
X27670000Y-63793000D01*
X27670000Y-58014891D01*
X28911519Y-58014891D01*
X29008843Y-58289252D01*
X29157822Y-58539355D01*
X29352731Y-58755588D01*
X29586080Y-58929641D01*
X29848901Y-59054825D01*
X29996110Y-59099476D01*
X30226000Y-58978155D01*
X30226000Y-57785000D01*
X29032186Y-57785000D01*
X28911519Y-58014891D01*
X27670000Y-58014891D01*
X27670000Y-57301109D01*
X28911519Y-57301109D01*
X29032186Y-57531000D01*
X30226000Y-57531000D01*
X30226000Y-56337845D01*
X29996110Y-56216524D01*
X29848901Y-56261175D01*
X29586080Y-56386359D01*
X29352731Y-56560412D01*
X29157822Y-56776645D01*
X29008843Y-57026748D01*
X28911519Y-57301109D01*
X27670000Y-57301109D01*
X27670000Y-55209072D01*
X28663000Y-55209072D01*
X28787482Y-55196812D01*
X28907180Y-55160502D01*
X29017494Y-55101537D01*
X29114185Y-55022185D01*
X29193537Y-54925494D01*
X29252502Y-54815180D01*
X29274513Y-54742620D01*
X29406368Y-54874475D01*
X29649589Y-55036990D01*
X29919842Y-55148932D01*
X30206740Y-55206000D01*
X30499260Y-55206000D01*
X30786158Y-55148932D01*
X31056411Y-55036990D01*
X31299632Y-54874475D01*
X31506475Y-54667632D01*
X31628195Y-54485466D01*
X31697822Y-54602355D01*
G04 #@! TA.AperFunction,Conductor*
D16*
G36*
X31697822Y-54602355D02*
G01*
X31892731Y-54818588D01*
X32126080Y-54992641D01*
X32360727Y-55104405D01*
X31092049Y-56373084D01*
X30857099Y-56261175D01*
X30709890Y-56216524D01*
X30480000Y-56337845D01*
X30480000Y-57531000D01*
X30500000Y-57531000D01*
X30500000Y-57785000D01*
X30480000Y-57785000D01*
X30480000Y-58978155D01*
X30709890Y-59099476D01*
X30857099Y-59054825D01*
X30930772Y-59019734D01*
X31029709Y-59140291D01*
X31061579Y-59166446D01*
X35749471Y-63854340D01*
X35739158Y-63850068D01*
X35452260Y-63793000D01*
X35159740Y-63793000D01*
X34872842Y-63850068D01*
X34602589Y-63962010D01*
X34359368Y-64124525D01*
X34152525Y-64331368D01*
X34036000Y-64505760D01*
X33919475Y-64331368D01*
X33712632Y-64124525D01*
X33469411Y-63962010D01*
X33199158Y-63850068D01*
X32912260Y-63793000D01*
X32619740Y-63793000D01*
X32332842Y-63850068D01*
X32062589Y-63962010D01*
X31819368Y-64124525D01*
X31612525Y-64331368D01*
X31496000Y-64505760D01*
X31379475Y-64331368D01*
X31172632Y-64124525D01*
X30929411Y-63962010D01*
X30659158Y-63850068D01*
X30372260Y-63793000D01*
X30079740Y-63793000D01*
X29792842Y-63850068D01*
X29522589Y-63962010D01*
X29279368Y-64124525D01*
X29072525Y-64331368D01*
X28956000Y-64505760D01*
X28839475Y-64331368D01*
X28632632Y-64124525D01*
X28389411Y-63962010D01*
X28119158Y-63850068D01*
X27832260Y-63793000D01*
X27670000Y-63793000D01*
X27670000Y-58014891D01*
X28911519Y-58014891D01*
X29008843Y-58289252D01*
X29157822Y-58539355D01*
X29352731Y-58755588D01*
X29586080Y-58929641D01*
X29848901Y-59054825D01*
X29996110Y-59099476D01*
X30226000Y-58978155D01*
X30226000Y-57785000D01*
X29032186Y-57785000D01*
X28911519Y-58014891D01*
X27670000Y-58014891D01*
X27670000Y-57301109D01*
X28911519Y-57301109D01*
X29032186Y-57531000D01*
X30226000Y-57531000D01*
X30226000Y-56337845D01*
X29996110Y-56216524D01*
X29848901Y-56261175D01*
X29586080Y-56386359D01*
X29352731Y-56560412D01*
X29157822Y-56776645D01*
X29008843Y-57026748D01*
X28911519Y-57301109D01*
X27670000Y-57301109D01*
X27670000Y-55209072D01*
X28663000Y-55209072D01*
X28787482Y-55196812D01*
X28907180Y-55160502D01*
X29017494Y-55101537D01*
X29114185Y-55022185D01*
X29193537Y-54925494D01*
X29252502Y-54815180D01*
X29274513Y-54742620D01*
X29406368Y-54874475D01*
X29649589Y-55036990D01*
X29919842Y-55148932D01*
X30206740Y-55206000D01*
X30499260Y-55206000D01*
X30786158Y-55148932D01*
X31056411Y-55036990D01*
X31299632Y-54874475D01*
X31506475Y-54667632D01*
X31628195Y-54485466D01*
X31697822Y-54602355D01*
G37*
G04 #@! TD.AperFunction*
D15*
X44439525Y-58604632D02*
X44646368Y-58811475D01*
X44758001Y-58886066D01*
X44758001Y-58963131D01*
X43277225Y-60443907D01*
X43132102Y-60472774D01*
X42943744Y-60550795D01*
X42774226Y-60664063D01*
X42630063Y-60808226D01*
X42516795Y-60977744D01*
X42438774Y-61166102D01*
X42399000Y-61366061D01*
X42399000Y-61569939D01*
X42417906Y-61664989D01*
X37474700Y-61664989D01*
X34821962Y-59012252D01*
X34999842Y-59085932D01*
X35286740Y-59143000D01*
X35579260Y-59143000D01*
X35866158Y-59085932D01*
X36136411Y-58973990D01*
X36379632Y-58811475D01*
X36586475Y-58604632D01*
X36703000Y-58430240D01*
X36819525Y-58604632D01*
X37026368Y-58811475D01*
X37269589Y-58973990D01*
X37539842Y-59085932D01*
X37826740Y-59143000D01*
X38119260Y-59143000D01*
X38406158Y-59085932D01*
X38676411Y-58973990D01*
X38919632Y-58811475D01*
X39126475Y-58604632D01*
X39243000Y-58430240D01*
X39359525Y-58604632D01*
X39566368Y-58811475D01*
X39809589Y-58973990D01*
X40079842Y-59085932D01*
X40366740Y-59143000D01*
X40659260Y-59143000D01*
X40946158Y-59085932D01*
X41216411Y-58973990D01*
X41459632Y-58811475D01*
X41666475Y-58604632D01*
X41783000Y-58430240D01*
X41899525Y-58604632D01*
X42106368Y-58811475D01*
X42349589Y-58973990D01*
X42619842Y-59085932D01*
X42906740Y-59143000D01*
X43199260Y-59143000D01*
X43486158Y-59085932D01*
X43756411Y-58973990D01*
X43999632Y-58811475D01*
X44206475Y-58604632D01*
X44323000Y-58430240D01*
X44439525Y-58604632D01*
G04 #@! TA.AperFunction,Conductor*
D16*
G36*
X44439525Y-58604632D02*
G01*
X44646368Y-58811475D01*
X44758001Y-58886066D01*
X44758001Y-58963131D01*
X43277225Y-60443907D01*
X43132102Y-60472774D01*
X42943744Y-60550795D01*
X42774226Y-60664063D01*
X42630063Y-60808226D01*
X42516795Y-60977744D01*
X42438774Y-61166102D01*
X42399000Y-61366061D01*
X42399000Y-61569939D01*
X42417906Y-61664989D01*
X37474700Y-61664989D01*
X34821962Y-59012252D01*
X34999842Y-59085932D01*
X35286740Y-59143000D01*
X35579260Y-59143000D01*
X35866158Y-59085932D01*
X36136411Y-58973990D01*
X36379632Y-58811475D01*
X36586475Y-58604632D01*
X36703000Y-58430240D01*
X36819525Y-58604632D01*
X37026368Y-58811475D01*
X37269589Y-58973990D01*
X37539842Y-59085932D01*
X37826740Y-59143000D01*
X38119260Y-59143000D01*
X38406158Y-59085932D01*
X38676411Y-58973990D01*
X38919632Y-58811475D01*
X39126475Y-58604632D01*
X39243000Y-58430240D01*
X39359525Y-58604632D01*
X39566368Y-58811475D01*
X39809589Y-58973990D01*
X40079842Y-59085932D01*
X40366740Y-59143000D01*
X40659260Y-59143000D01*
X40946158Y-59085932D01*
X41216411Y-58973990D01*
X41459632Y-58811475D01*
X41666475Y-58604632D01*
X41783000Y-58430240D01*
X41899525Y-58604632D01*
X42106368Y-58811475D01*
X42349589Y-58973990D01*
X42619842Y-59085932D01*
X42906740Y-59143000D01*
X43199260Y-59143000D01*
X43486158Y-59085932D01*
X43756411Y-58973990D01*
X43999632Y-58811475D01*
X44206475Y-58604632D01*
X44323000Y-58430240D01*
X44439525Y-58604632D01*
G37*
G04 #@! TD.AperFunction*
D15*
X36819525Y-54667632D02*
X37026368Y-54874475D01*
X37269589Y-55036990D01*
X37539842Y-55148932D01*
X37826740Y-55206000D01*
X38119260Y-55206000D01*
X38250940Y-55179807D01*
X39571936Y-56500804D01*
X39566368Y-56504525D01*
X39359525Y-56711368D01*
X39243000Y-56885760D01*
X39126475Y-56711368D01*
X38919632Y-56504525D01*
X38676411Y-56342010D01*
X38406158Y-56230068D01*
X38119260Y-56173000D01*
X37826740Y-56173000D01*
X37539842Y-56230068D01*
X37269589Y-56342010D01*
X37026368Y-56504525D01*
X36819525Y-56711368D01*
X36703000Y-56885760D01*
X36586475Y-56711368D01*
X36379632Y-56504525D01*
X36136411Y-56342010D01*
X35866158Y-56230068D01*
X35579260Y-56173000D01*
X35286740Y-56173000D01*
X34999842Y-56230068D01*
X34729589Y-56342010D01*
X34486368Y-56504525D01*
X34279525Y-56711368D01*
X34163000Y-56885760D01*
X34046475Y-56711368D01*
X33839632Y-56504525D01*
X33596411Y-56342010D01*
X33517531Y-56309337D01*
X34724428Y-55102440D01*
X34756291Y-55076291D01*
X34773588Y-55055215D01*
X34999842Y-55148932D01*
X35286740Y-55206000D01*
X35579260Y-55206000D01*
X35866158Y-55148932D01*
X36136411Y-55036990D01*
X36379632Y-54874475D01*
X36586475Y-54667632D01*
X36703000Y-54493240D01*
X36819525Y-54667632D01*
G04 #@! TA.AperFunction,Conductor*
D16*
G36*
X36819525Y-54667632D02*
G01*
X37026368Y-54874475D01*
X37269589Y-55036990D01*
X37539842Y-55148932D01*
X37826740Y-55206000D01*
X38119260Y-55206000D01*
X38250940Y-55179807D01*
X39571936Y-56500804D01*
X39566368Y-56504525D01*
X39359525Y-56711368D01*
X39243000Y-56885760D01*
X39126475Y-56711368D01*
X38919632Y-56504525D01*
X38676411Y-56342010D01*
X38406158Y-56230068D01*
X38119260Y-56173000D01*
X37826740Y-56173000D01*
X37539842Y-56230068D01*
X37269589Y-56342010D01*
X37026368Y-56504525D01*
X36819525Y-56711368D01*
X36703000Y-56885760D01*
X36586475Y-56711368D01*
X36379632Y-56504525D01*
X36136411Y-56342010D01*
X35866158Y-56230068D01*
X35579260Y-56173000D01*
X35286740Y-56173000D01*
X34999842Y-56230068D01*
X34729589Y-56342010D01*
X34486368Y-56504525D01*
X34279525Y-56711368D01*
X34163000Y-56885760D01*
X34046475Y-56711368D01*
X33839632Y-56504525D01*
X33596411Y-56342010D01*
X33517531Y-56309337D01*
X34724428Y-55102440D01*
X34756291Y-55076291D01*
X34773588Y-55055215D01*
X34999842Y-55148932D01*
X35286740Y-55206000D01*
X35579260Y-55206000D01*
X35866158Y-55148932D01*
X36136411Y-55036990D01*
X36379632Y-54874475D01*
X36586475Y-54667632D01*
X36703000Y-54493240D01*
X36819525Y-54667632D01*
G37*
G04 #@! TD.AperFunction*
D15*
X28864928Y-27774000D02*
X28877188Y-27898482D01*
X28913498Y-28018180D01*
X28972463Y-28128494D01*
X29051815Y-28225185D01*
X29148506Y-28304537D01*
X29258820Y-28363502D01*
X29378518Y-28399812D01*
X29503000Y-28412072D01*
X31203000Y-28412072D01*
X31327482Y-28399812D01*
X31447180Y-28363502D01*
X31557494Y-28304537D01*
X31654185Y-28225185D01*
X31733537Y-28128494D01*
X31792502Y-28018180D01*
X31814513Y-27945620D01*
X31946368Y-28077475D01*
X32189589Y-28239990D01*
X32459842Y-28351932D01*
X32746740Y-28409000D01*
X33039260Y-28409000D01*
X33326158Y-28351932D01*
X33596411Y-28239990D01*
X33839632Y-28077475D01*
X34046475Y-27870632D01*
X34163000Y-27696240D01*
X34279525Y-27870632D01*
X34486368Y-28077475D01*
X34729589Y-28239990D01*
X34999842Y-28351932D01*
X35286740Y-28409000D01*
X35579260Y-28409000D01*
X35866158Y-28351932D01*
X36136411Y-28239990D01*
X36379632Y-28077475D01*
X36586475Y-27870632D01*
X36703000Y-27696240D01*
X36819525Y-27870632D01*
X37026368Y-28077475D01*
X37269589Y-28239990D01*
X37528074Y-28347058D01*
X34470205Y-31404928D01*
X33313000Y-31404928D01*
X33188518Y-31417188D01*
X33068820Y-31453498D01*
X32958506Y-31512463D01*
X32861815Y-31591815D01*
X32782463Y-31688506D01*
X32723498Y-31798820D01*
X32687188Y-31918518D01*
X32674928Y-32043000D01*
X32674928Y-33743000D01*
X32687188Y-33867482D01*
X32723498Y-33987180D01*
X32782463Y-34097494D01*
X32861815Y-34194185D01*
X32958506Y-34273537D01*
X33068820Y-34332502D01*
X33188518Y-34368812D01*
X33313000Y-34381072D01*
X34470205Y-34381072D01*
X39805001Y-39715869D01*
X39805000Y-52408076D01*
X39566368Y-52567525D01*
X39359525Y-52774368D01*
X39243000Y-52948760D01*
X39126475Y-52774368D01*
X38919632Y-52567525D01*
X38676411Y-52405010D01*
X38406158Y-52293068D01*
X38119260Y-52236000D01*
X37826740Y-52236000D01*
X37539842Y-52293068D01*
X37269589Y-52405010D01*
X37026368Y-52567525D01*
X36819525Y-52774368D01*
X36703000Y-52948760D01*
X36586475Y-52774368D01*
X36379632Y-52567525D01*
X36136411Y-52405010D01*
X35967728Y-52335140D01*
X38002777Y-50300092D01*
X38147898Y-50271226D01*
X38336256Y-50193205D01*
X38505774Y-50079937D01*
X38649937Y-49935774D01*
X38763205Y-49766256D01*
X38841226Y-49577898D01*
X38881000Y-49377939D01*
X38881000Y-49174061D01*
X38841226Y-48974102D01*
X38763205Y-48785744D01*
X38649937Y-48616226D01*
X38505774Y-48472063D01*
X38336256Y-48358795D01*
X38147898Y-48280774D01*
X37947939Y-48241000D01*
X37744061Y-48241000D01*
X37544102Y-48280774D01*
X37355744Y-48358795D01*
X37186226Y-48472063D01*
X37042063Y-48616226D01*
X36928795Y-48785744D01*
X36850774Y-48974102D01*
X36821908Y-49119223D01*
X33601574Y-52339559D01*
X33569710Y-52365709D01*
X33545706Y-52394958D01*
X33397099Y-52324175D01*
X33249890Y-52279524D01*
X33020000Y-52400845D01*
X33020000Y-53594000D01*
X33040000Y-53594000D01*
X33040000Y-53848000D01*
X33020000Y-53848000D01*
X33020000Y-53868000D01*
X32766000Y-53868000D01*
X32766000Y-53848000D01*
X32746000Y-53848000D01*
X32746000Y-53594000D01*
X32766000Y-53594000D01*
X32766000Y-52400845D01*
X32536110Y-52279524D01*
X32388901Y-52324175D01*
X32126080Y-52449359D01*
X31892731Y-52623412D01*
X31697822Y-52839645D01*
X31628195Y-52956534D01*
X31506475Y-52774368D01*
X31299632Y-52567525D01*
X31056411Y-52405010D01*
X30786158Y-52293068D01*
X30499260Y-52236000D01*
X30206740Y-52236000D01*
X29919842Y-52293068D01*
X29649589Y-52405010D01*
X29406368Y-52567525D01*
X29274513Y-52699380D01*
X29252502Y-52626820D01*
X29193537Y-52516506D01*
X29114185Y-52419815D01*
X29017494Y-52340463D01*
X28907180Y-52281498D01*
X28787482Y-52245188D01*
X28663000Y-52232928D01*
X27670000Y-52232928D01*
X27670000Y-27333965D01*
X27689118Y-27138985D01*
X27722523Y-27028344D01*
X27776778Y-26926303D01*
X27849821Y-26836744D01*
X27938866Y-26763079D01*
X28040531Y-26708110D01*
X28150931Y-26673935D01*
X28340596Y-26654000D01*
X28864928Y-26654000D01*
X28864928Y-27774000D01*
G04 #@! TA.AperFunction,Conductor*
D16*
G36*
X28864928Y-27774000D02*
G01*
X28877188Y-27898482D01*
X28913498Y-28018180D01*
X28972463Y-28128494D01*
X29051815Y-28225185D01*
X29148506Y-28304537D01*
X29258820Y-28363502D01*
X29378518Y-28399812D01*
X29503000Y-28412072D01*
X31203000Y-28412072D01*
X31327482Y-28399812D01*
X31447180Y-28363502D01*
X31557494Y-28304537D01*
X31654185Y-28225185D01*
X31733537Y-28128494D01*
X31792502Y-28018180D01*
X31814513Y-27945620D01*
X31946368Y-28077475D01*
X32189589Y-28239990D01*
X32459842Y-28351932D01*
X32746740Y-28409000D01*
X33039260Y-28409000D01*
X33326158Y-28351932D01*
X33596411Y-28239990D01*
X33839632Y-28077475D01*
X34046475Y-27870632D01*
X34163000Y-27696240D01*
X34279525Y-27870632D01*
X34486368Y-28077475D01*
X34729589Y-28239990D01*
X34999842Y-28351932D01*
X35286740Y-28409000D01*
X35579260Y-28409000D01*
X35866158Y-28351932D01*
X36136411Y-28239990D01*
X36379632Y-28077475D01*
X36586475Y-27870632D01*
X36703000Y-27696240D01*
X36819525Y-27870632D01*
X37026368Y-28077475D01*
X37269589Y-28239990D01*
X37528074Y-28347058D01*
X34470205Y-31404928D01*
X33313000Y-31404928D01*
X33188518Y-31417188D01*
X33068820Y-31453498D01*
X32958506Y-31512463D01*
X32861815Y-31591815D01*
X32782463Y-31688506D01*
X32723498Y-31798820D01*
X32687188Y-31918518D01*
X32674928Y-32043000D01*
X32674928Y-33743000D01*
X32687188Y-33867482D01*
X32723498Y-33987180D01*
X32782463Y-34097494D01*
X32861815Y-34194185D01*
X32958506Y-34273537D01*
X33068820Y-34332502D01*
X33188518Y-34368812D01*
X33313000Y-34381072D01*
X34470205Y-34381072D01*
X39805001Y-39715869D01*
X39805000Y-52408076D01*
X39566368Y-52567525D01*
X39359525Y-52774368D01*
X39243000Y-52948760D01*
X39126475Y-52774368D01*
X38919632Y-52567525D01*
X38676411Y-52405010D01*
X38406158Y-52293068D01*
X38119260Y-52236000D01*
X37826740Y-52236000D01*
X37539842Y-52293068D01*
X37269589Y-52405010D01*
X37026368Y-52567525D01*
X36819525Y-52774368D01*
X36703000Y-52948760D01*
X36586475Y-52774368D01*
X36379632Y-52567525D01*
X36136411Y-52405010D01*
X35967728Y-52335140D01*
X38002777Y-50300092D01*
X38147898Y-50271226D01*
X38336256Y-50193205D01*
X38505774Y-50079937D01*
X38649937Y-49935774D01*
X38763205Y-49766256D01*
X38841226Y-49577898D01*
X38881000Y-49377939D01*
X38881000Y-49174061D01*
X38841226Y-48974102D01*
X38763205Y-48785744D01*
X38649937Y-48616226D01*
X38505774Y-48472063D01*
X38336256Y-48358795D01*
X38147898Y-48280774D01*
X37947939Y-48241000D01*
X37744061Y-48241000D01*
X37544102Y-48280774D01*
X37355744Y-48358795D01*
X37186226Y-48472063D01*
X37042063Y-48616226D01*
X36928795Y-48785744D01*
X36850774Y-48974102D01*
X36821908Y-49119223D01*
X33601574Y-52339559D01*
X33569710Y-52365709D01*
X33545706Y-52394958D01*
X33397099Y-52324175D01*
X33249890Y-52279524D01*
X33020000Y-52400845D01*
X33020000Y-53594000D01*
X33040000Y-53594000D01*
X33040000Y-53848000D01*
X33020000Y-53848000D01*
X33020000Y-53868000D01*
X32766000Y-53868000D01*
X32766000Y-53848000D01*
X32746000Y-53848000D01*
X32746000Y-53594000D01*
X32766000Y-53594000D01*
X32766000Y-52400845D01*
X32536110Y-52279524D01*
X32388901Y-52324175D01*
X32126080Y-52449359D01*
X31892731Y-52623412D01*
X31697822Y-52839645D01*
X31628195Y-52956534D01*
X31506475Y-52774368D01*
X31299632Y-52567525D01*
X31056411Y-52405010D01*
X30786158Y-52293068D01*
X30499260Y-52236000D01*
X30206740Y-52236000D01*
X29919842Y-52293068D01*
X29649589Y-52405010D01*
X29406368Y-52567525D01*
X29274513Y-52699380D01*
X29252502Y-52626820D01*
X29193537Y-52516506D01*
X29114185Y-52419815D01*
X29017494Y-52340463D01*
X28907180Y-52281498D01*
X28787482Y-52245188D01*
X28663000Y-52232928D01*
X27670000Y-52232928D01*
X27670000Y-27333965D01*
X27689118Y-27138985D01*
X27722523Y-27028344D01*
X27776778Y-26926303D01*
X27849821Y-26836744D01*
X27938866Y-26763079D01*
X28040531Y-26708110D01*
X28150931Y-26673935D01*
X28340596Y-26654000D01*
X28864928Y-26654000D01*
X28864928Y-27774000D01*
G37*
G04 #@! TD.AperFunction*
D15*
X54718000Y-32051711D02*
X54718001Y-35255153D01*
X54718000Y-35255163D01*
X54718001Y-47915164D01*
X54712994Y-47966002D01*
X54732977Y-48168897D01*
X54792160Y-48363995D01*
X54888266Y-48543799D01*
X54980808Y-48656561D01*
X55017605Y-48701398D01*
X55057092Y-48733804D01*
X56007999Y-49684712D01*
X56008000Y-51612838D01*
X56022976Y-51764895D01*
X56082159Y-51959993D01*
X56178266Y-52139797D01*
X56188001Y-52151659D01*
X56188001Y-52293831D01*
X56186158Y-52293068D01*
X55899260Y-52236000D01*
X55606740Y-52236000D01*
X55319842Y-52293068D01*
X55049589Y-52405010D01*
X54806368Y-52567525D01*
X54599525Y-52774368D01*
X54483000Y-52948760D01*
X54366475Y-52774368D01*
X54159632Y-52567525D01*
X53916411Y-52405010D01*
X53646158Y-52293068D01*
X53359260Y-52236000D01*
X53066740Y-52236000D01*
X52779842Y-52293068D01*
X52509589Y-52405010D01*
X52266368Y-52567525D01*
X52059525Y-52774368D01*
X51943000Y-52948760D01*
X51826475Y-52774368D01*
X51619632Y-52567525D01*
X51376411Y-52405010D01*
X51106158Y-52293068D01*
X50819260Y-52236000D01*
X50526740Y-52236000D01*
X50395061Y-52262193D01*
X43634000Y-45501133D01*
X43634000Y-37048867D01*
X44884428Y-35798440D01*
X44916291Y-35772291D01*
X45020636Y-35645146D01*
X45098172Y-35500087D01*
X45145918Y-35342689D01*
X45158000Y-35220019D01*
X45158000Y-35220009D01*
X45162039Y-35179001D01*
X45158000Y-35137993D01*
X45158000Y-34121065D01*
X45269632Y-34046475D01*
X45476475Y-33839632D01*
X45593000Y-33665240D01*
X45709525Y-33839632D01*
X45916368Y-34046475D01*
X46159589Y-34208990D01*
X46429842Y-34320932D01*
X46716740Y-34378000D01*
X47009260Y-34378000D01*
X47296158Y-34320932D01*
X47566411Y-34208990D01*
X47809632Y-34046475D01*
X48016475Y-33839632D01*
X48133000Y-33665240D01*
X48249525Y-33839632D01*
X48456368Y-34046475D01*
X48699589Y-34208990D01*
X48969842Y-34320932D01*
X49256740Y-34378000D01*
X49549260Y-34378000D01*
X49836158Y-34320932D01*
X50106411Y-34208990D01*
X50349632Y-34046475D01*
X50556475Y-33839632D01*
X50678195Y-33657466D01*
X50747822Y-33774355D01*
X50942731Y-33990588D01*
X51176080Y-34164641D01*
X51438901Y-34289825D01*
X51586110Y-34334476D01*
X51816000Y-34213155D01*
X51816000Y-33020000D01*
X52070000Y-33020000D01*
X52070000Y-34213155D01*
X52299890Y-34334476D01*
X52447099Y-34289825D01*
X52709920Y-34164641D01*
X52943269Y-33990588D01*
X53138178Y-33774355D01*
X53287157Y-33524252D01*
X53384481Y-33249891D01*
X53263814Y-33020000D01*
X52070000Y-33020000D01*
X51816000Y-33020000D01*
X51796000Y-33020000D01*
X51796000Y-32766000D01*
X51816000Y-32766000D01*
X51816000Y-32746000D01*
X52070000Y-32746000D01*
X52070000Y-32766000D01*
X53263814Y-32766000D01*
X53384481Y-32536109D01*
X53287157Y-32261748D01*
X53138178Y-32011645D01*
X52943269Y-31795412D01*
X52709920Y-31621359D01*
X52607745Y-31572692D01*
X54238982Y-31572692D01*
X54718000Y-32051711D01*
G04 #@! TA.AperFunction,Conductor*
D16*
G36*
X54718000Y-32051711D02*
G01*
X54718001Y-35255153D01*
X54718000Y-35255163D01*
X54718001Y-47915164D01*
X54712994Y-47966002D01*
X54732977Y-48168897D01*
X54792160Y-48363995D01*
X54888266Y-48543799D01*
X54980808Y-48656561D01*
X55017605Y-48701398D01*
X55057092Y-48733804D01*
X56007999Y-49684712D01*
X56008000Y-51612838D01*
X56022976Y-51764895D01*
X56082159Y-51959993D01*
X56178266Y-52139797D01*
X56188001Y-52151659D01*
X56188001Y-52293831D01*
X56186158Y-52293068D01*
X55899260Y-52236000D01*
X55606740Y-52236000D01*
X55319842Y-52293068D01*
X55049589Y-52405010D01*
X54806368Y-52567525D01*
X54599525Y-52774368D01*
X54483000Y-52948760D01*
X54366475Y-52774368D01*
X54159632Y-52567525D01*
X53916411Y-52405010D01*
X53646158Y-52293068D01*
X53359260Y-52236000D01*
X53066740Y-52236000D01*
X52779842Y-52293068D01*
X52509589Y-52405010D01*
X52266368Y-52567525D01*
X52059525Y-52774368D01*
X51943000Y-52948760D01*
X51826475Y-52774368D01*
X51619632Y-52567525D01*
X51376411Y-52405010D01*
X51106158Y-52293068D01*
X50819260Y-52236000D01*
X50526740Y-52236000D01*
X50395061Y-52262193D01*
X43634000Y-45501133D01*
X43634000Y-37048867D01*
X44884428Y-35798440D01*
X44916291Y-35772291D01*
X45020636Y-35645146D01*
X45098172Y-35500087D01*
X45145918Y-35342689D01*
X45158000Y-35220019D01*
X45158000Y-35220009D01*
X45162039Y-35179001D01*
X45158000Y-35137993D01*
X45158000Y-34121065D01*
X45269632Y-34046475D01*
X45476475Y-33839632D01*
X45593000Y-33665240D01*
X45709525Y-33839632D01*
X45916368Y-34046475D01*
X46159589Y-34208990D01*
X46429842Y-34320932D01*
X46716740Y-34378000D01*
X47009260Y-34378000D01*
X47296158Y-34320932D01*
X47566411Y-34208990D01*
X47809632Y-34046475D01*
X48016475Y-33839632D01*
X48133000Y-33665240D01*
X48249525Y-33839632D01*
X48456368Y-34046475D01*
X48699589Y-34208990D01*
X48969842Y-34320932D01*
X49256740Y-34378000D01*
X49549260Y-34378000D01*
X49836158Y-34320932D01*
X50106411Y-34208990D01*
X50349632Y-34046475D01*
X50556475Y-33839632D01*
X50678195Y-33657466D01*
X50747822Y-33774355D01*
X50942731Y-33990588D01*
X51176080Y-34164641D01*
X51438901Y-34289825D01*
X51586110Y-34334476D01*
X51816000Y-34213155D01*
X51816000Y-33020000D01*
X52070000Y-33020000D01*
X52070000Y-34213155D01*
X52299890Y-34334476D01*
X52447099Y-34289825D01*
X52709920Y-34164641D01*
X52943269Y-33990588D01*
X53138178Y-33774355D01*
X53287157Y-33524252D01*
X53384481Y-33249891D01*
X53263814Y-33020000D01*
X52070000Y-33020000D01*
X51816000Y-33020000D01*
X51796000Y-33020000D01*
X51796000Y-32766000D01*
X51816000Y-32766000D01*
X51816000Y-32746000D01*
X52070000Y-32746000D01*
X52070000Y-32766000D01*
X53263814Y-32766000D01*
X53384481Y-32536109D01*
X53287157Y-32261748D01*
X53138178Y-32011645D01*
X52943269Y-31795412D01*
X52709920Y-31621359D01*
X52607745Y-31572692D01*
X54238982Y-31572692D01*
X54718000Y-32051711D01*
G37*
G04 #@! TD.AperFunction*
D15*
X57900015Y-26673118D02*
X58010656Y-26706523D01*
X58112697Y-26760778D01*
X58202256Y-26833821D01*
X58275921Y-26922866D01*
X58330890Y-27024531D01*
X58365065Y-27134931D01*
X58385000Y-27324596D01*
X58385001Y-52236000D01*
X58146740Y-52236000D01*
X57859842Y-52293068D01*
X57858000Y-52293831D01*
X57858000Y-52200397D01*
X57907733Y-52139797D01*
X58003840Y-51959993D01*
X58063023Y-51764895D01*
X58077999Y-51612838D01*
X58077999Y-49306828D01*
X58083005Y-49256000D01*
X58077999Y-49205172D01*
X58077999Y-49205163D01*
X58063023Y-49053106D01*
X58003840Y-48858008D01*
X57959103Y-48774310D01*
X57907733Y-48678203D01*
X57810802Y-48560093D01*
X57778395Y-48520605D01*
X57738907Y-48488198D01*
X56788000Y-47537292D01*
X56788000Y-31673827D01*
X56793006Y-31622999D01*
X56788000Y-31572171D01*
X56788000Y-27989107D01*
X56906475Y-27870632D01*
X57068990Y-27627411D01*
X57180932Y-27357158D01*
X57238000Y-27070260D01*
X57238000Y-26777740D01*
X57213386Y-26654000D01*
X57705035Y-26654000D01*
X57900015Y-26673118D01*
G04 #@! TA.AperFunction,Conductor*
D16*
G36*
X57900015Y-26673118D02*
G01*
X58010656Y-26706523D01*
X58112697Y-26760778D01*
X58202256Y-26833821D01*
X58275921Y-26922866D01*
X58330890Y-27024531D01*
X58365065Y-27134931D01*
X58385000Y-27324596D01*
X58385001Y-52236000D01*
X58146740Y-52236000D01*
X57859842Y-52293068D01*
X57858000Y-52293831D01*
X57858000Y-52200397D01*
X57907733Y-52139797D01*
X58003840Y-51959993D01*
X58063023Y-51764895D01*
X58077999Y-51612838D01*
X58077999Y-49306828D01*
X58083005Y-49256000D01*
X58077999Y-49205172D01*
X58077999Y-49205163D01*
X58063023Y-49053106D01*
X58003840Y-48858008D01*
X57959103Y-48774310D01*
X57907733Y-48678203D01*
X57810802Y-48560093D01*
X57778395Y-48520605D01*
X57738907Y-48488198D01*
X56788000Y-47537292D01*
X56788000Y-31673827D01*
X56793006Y-31622999D01*
X56788000Y-31572171D01*
X56788000Y-27989107D01*
X56906475Y-27870632D01*
X57068990Y-27627411D01*
X57180932Y-27357158D01*
X57238000Y-27070260D01*
X57238000Y-26777740D01*
X57213386Y-26654000D01*
X57705035Y-26654000D01*
X57900015Y-26673118D01*
G37*
G04 #@! TD.AperFunction*
D15*
X50800000Y-26797000D02*
X50820000Y-26797000D01*
X50820000Y-27051000D01*
X50800000Y-27051000D01*
X50800000Y-28244155D01*
X51029890Y-28365476D01*
X51177099Y-28320825D01*
X51439920Y-28195641D01*
X51673269Y-28021588D01*
X51868178Y-27805355D01*
X51937805Y-27688466D01*
X52059525Y-27870632D01*
X52266368Y-28077475D01*
X52509589Y-28239990D01*
X52779842Y-28351932D01*
X53066740Y-28409000D01*
X53359260Y-28409000D01*
X53646158Y-28351932D01*
X53916411Y-28239990D01*
X54159632Y-28077475D01*
X54366475Y-27870632D01*
X54483000Y-27696240D01*
X54599525Y-27870632D01*
X54718000Y-27989107D01*
X54718001Y-29502641D01*
X54667692Y-29497686D01*
X54616864Y-29502692D01*
X50158143Y-29502692D01*
X50107308Y-29497685D01*
X50056472Y-29502692D01*
X50056470Y-29502692D01*
X49904413Y-29517668D01*
X49709315Y-29576851D01*
X49625617Y-29621588D01*
X49529510Y-29672958D01*
X49411400Y-29769889D01*
X49371912Y-29802296D01*
X49339505Y-29841784D01*
X48707092Y-30474198D01*
X48667605Y-30506604D01*
X48635198Y-30546092D01*
X48635197Y-30546093D01*
X48538266Y-30664203D01*
X48442160Y-30844007D01*
X48382977Y-31039105D01*
X48362994Y-31242000D01*
X48368001Y-31292837D01*
X48368001Y-31827892D01*
X48249525Y-31946368D01*
X48133000Y-32120760D01*
X48016475Y-31946368D01*
X47809632Y-31739525D01*
X47566411Y-31577010D01*
X47296158Y-31465068D01*
X47009260Y-31408000D01*
X46716740Y-31408000D01*
X46429842Y-31465068D01*
X46159589Y-31577010D01*
X45916368Y-31739525D01*
X45709525Y-31946368D01*
X45593000Y-32120760D01*
X45476475Y-31946368D01*
X45269632Y-31739525D01*
X45026411Y-31577010D01*
X44756158Y-31465068D01*
X44469260Y-31408000D01*
X44176740Y-31408000D01*
X43889842Y-31465068D01*
X43619589Y-31577010D01*
X43376368Y-31739525D01*
X43169525Y-31946368D01*
X43053000Y-32120760D01*
X42936475Y-31946368D01*
X42729632Y-31739525D01*
X42486411Y-31577010D01*
X42216158Y-31465068D01*
X41929260Y-31408000D01*
X41636740Y-31408000D01*
X41349842Y-31465068D01*
X41079589Y-31577010D01*
X40836368Y-31739525D01*
X40629525Y-31946368D01*
X40513000Y-32120760D01*
X40396475Y-31946368D01*
X40189632Y-31739525D01*
X39946411Y-31577010D01*
X39676158Y-31465068D01*
X39584110Y-31446758D01*
X39941769Y-31089099D01*
X40022744Y-31143205D01*
X40211102Y-31221226D01*
X40411061Y-31261000D01*
X40614939Y-31261000D01*
X40814898Y-31221226D01*
X41003256Y-31143205D01*
X41172774Y-31029937D01*
X41316937Y-30885774D01*
X41430205Y-30716256D01*
X41508226Y-30527898D01*
X41548000Y-30327939D01*
X41548000Y-30260999D01*
X45208983Y-30260999D01*
X45250001Y-30265039D01*
X45291019Y-30260999D01*
X45291020Y-30260999D01*
X45413690Y-30248917D01*
X45571088Y-30201171D01*
X45716147Y-30123635D01*
X45843292Y-30019290D01*
X45869447Y-29987420D01*
X47562023Y-28294846D01*
X47699842Y-28351932D01*
X47986740Y-28409000D01*
X48279260Y-28409000D01*
X48566158Y-28351932D01*
X48836411Y-28239990D01*
X49079632Y-28077475D01*
X49286475Y-27870632D01*
X49408195Y-27688466D01*
X49477822Y-27805355D01*
X49672731Y-28021588D01*
X49906080Y-28195641D01*
X50168901Y-28320825D01*
X50316110Y-28365476D01*
X50546000Y-28244155D01*
X50546000Y-27051000D01*
X50526000Y-27051000D01*
X50526000Y-26797000D01*
X50546000Y-26797000D01*
X50546000Y-26777000D01*
X50800000Y-26777000D01*
X50800000Y-26797000D01*
G04 #@! TA.AperFunction,Conductor*
D16*
G36*
X50800000Y-26797000D02*
G01*
X50820000Y-26797000D01*
X50820000Y-27051000D01*
X50800000Y-27051000D01*
X50800000Y-28244155D01*
X51029890Y-28365476D01*
X51177099Y-28320825D01*
X51439920Y-28195641D01*
X51673269Y-28021588D01*
X51868178Y-27805355D01*
X51937805Y-27688466D01*
X52059525Y-27870632D01*
X52266368Y-28077475D01*
X52509589Y-28239990D01*
X52779842Y-28351932D01*
X53066740Y-28409000D01*
X53359260Y-28409000D01*
X53646158Y-28351932D01*
X53916411Y-28239990D01*
X54159632Y-28077475D01*
X54366475Y-27870632D01*
X54483000Y-27696240D01*
X54599525Y-27870632D01*
X54718000Y-27989107D01*
X54718001Y-29502641D01*
X54667692Y-29497686D01*
X54616864Y-29502692D01*
X50158143Y-29502692D01*
X50107308Y-29497685D01*
X50056472Y-29502692D01*
X50056470Y-29502692D01*
X49904413Y-29517668D01*
X49709315Y-29576851D01*
X49625617Y-29621588D01*
X49529510Y-29672958D01*
X49411400Y-29769889D01*
X49371912Y-29802296D01*
X49339505Y-29841784D01*
X48707092Y-30474198D01*
X48667605Y-30506604D01*
X48635198Y-30546092D01*
X48635197Y-30546093D01*
X48538266Y-30664203D01*
X48442160Y-30844007D01*
X48382977Y-31039105D01*
X48362994Y-31242000D01*
X48368001Y-31292837D01*
X48368001Y-31827892D01*
X48249525Y-31946368D01*
X48133000Y-32120760D01*
X48016475Y-31946368D01*
X47809632Y-31739525D01*
X47566411Y-31577010D01*
X47296158Y-31465068D01*
X47009260Y-31408000D01*
X46716740Y-31408000D01*
X46429842Y-31465068D01*
X46159589Y-31577010D01*
X45916368Y-31739525D01*
X45709525Y-31946368D01*
X45593000Y-32120760D01*
X45476475Y-31946368D01*
X45269632Y-31739525D01*
X45026411Y-31577010D01*
X44756158Y-31465068D01*
X44469260Y-31408000D01*
X44176740Y-31408000D01*
X43889842Y-31465068D01*
X43619589Y-31577010D01*
X43376368Y-31739525D01*
X43169525Y-31946368D01*
X43053000Y-32120760D01*
X42936475Y-31946368D01*
X42729632Y-31739525D01*
X42486411Y-31577010D01*
X42216158Y-31465068D01*
X41929260Y-31408000D01*
X41636740Y-31408000D01*
X41349842Y-31465068D01*
X41079589Y-31577010D01*
X40836368Y-31739525D01*
X40629525Y-31946368D01*
X40513000Y-32120760D01*
X40396475Y-31946368D01*
X40189632Y-31739525D01*
X39946411Y-31577010D01*
X39676158Y-31465068D01*
X39584110Y-31446758D01*
X39941769Y-31089099D01*
X40022744Y-31143205D01*
X40211102Y-31221226D01*
X40411061Y-31261000D01*
X40614939Y-31261000D01*
X40814898Y-31221226D01*
X41003256Y-31143205D01*
X41172774Y-31029937D01*
X41316937Y-30885774D01*
X41430205Y-30716256D01*
X41508226Y-30527898D01*
X41548000Y-30327939D01*
X41548000Y-30260999D01*
X45208983Y-30260999D01*
X45250001Y-30265039D01*
X45291019Y-30260999D01*
X45291020Y-30260999D01*
X45413690Y-30248917D01*
X45571088Y-30201171D01*
X45716147Y-30123635D01*
X45843292Y-30019290D01*
X45869447Y-29987420D01*
X47562023Y-28294846D01*
X47699842Y-28351932D01*
X47986740Y-28409000D01*
X48279260Y-28409000D01*
X48566158Y-28351932D01*
X48836411Y-28239990D01*
X49079632Y-28077475D01*
X49286475Y-27870632D01*
X49408195Y-27688466D01*
X49477822Y-27805355D01*
X49672731Y-28021588D01*
X49906080Y-28195641D01*
X50168901Y-28320825D01*
X50316110Y-28365476D01*
X50546000Y-28244155D01*
X50546000Y-27051000D01*
X50526000Y-27051000D01*
X50526000Y-26797000D01*
X50546000Y-26797000D01*
X50546000Y-26777000D01*
X50800000Y-26777000D01*
X50800000Y-26797000D01*
G37*
G04 #@! TD.AperFunction*
M02*
