%FSLAX45Y45*%
G04 Gerber Fmt 4.5, Leading zero omitted, Abs format (unit mm)*
G04 Created by KiCad (PCBNEW (5.1.9)-1) date 2021-02-23 10:55:32*
%MOMM*%
%LPD*%
G01*
G04 APERTURE LIST*
%TA.AperFunction,Profile*%
%ADD10C,0.050000*%
%TD*%
%ADD11C,0.200000*%
%ADD12C,0.300000*%
G04 APERTURE END LIST*
D10*
X2827000Y-2501900D02*
X5778500Y-2501900D01*
X2603500Y-2725400D02*
G75*
G02*
X2827000Y-2501900I223500J0D01*
G01*
X5778500Y-2501900D02*
G75*
G02*
X6002000Y-2725400I0J-223500D01*
G01*
X6002000Y-2725400D02*
X6002000Y-7192400D01*
X2603500Y-7192400D02*
X6002000Y-7192400D01*
X2603500Y-2725400D02*
X2603500Y-7192400D01*
D11*
X2951800Y-6126800D02*
X2991800Y-6166800D01*
X2991800Y-6126800D02*
X2951800Y-6166800D01*
X2977200Y-3764600D02*
X3017200Y-3804600D01*
X3017200Y-3764600D02*
X2977200Y-3804600D01*
X2977200Y-4577400D02*
X3017200Y-4617400D01*
X3017200Y-4577400D02*
X2977200Y-4617400D01*
X3129600Y-6126800D02*
X3169600Y-6166800D01*
X3169600Y-6126800D02*
X3129600Y-6166800D01*
X3650300Y-3764600D02*
X3690300Y-3804600D01*
X3690300Y-3764600D02*
X3650300Y-3804600D01*
X3764600Y-4907600D02*
X3804600Y-4947600D01*
X3804600Y-4907600D02*
X3764600Y-4947600D01*
X4018600Y-6126800D02*
X4058600Y-6166800D01*
X4058600Y-6126800D02*
X4018600Y-6166800D01*
X4031300Y-3002600D02*
X4071300Y-3042600D01*
X4071300Y-3002600D02*
X4031300Y-3042600D01*
X4171000Y-4907600D02*
X4211000Y-4947600D01*
X4211000Y-4907600D02*
X4171000Y-4947600D01*
X4323400Y-6126800D02*
X4363400Y-6166800D01*
X4363400Y-6126800D02*
X4323400Y-6166800D01*
X5060000Y-6126800D02*
X5100000Y-6166800D01*
X5100000Y-6126800D02*
X5060000Y-6166800D01*
X5314000Y-3764600D02*
X5354000Y-3804600D01*
X5354000Y-3764600D02*
X5314000Y-3804600D01*
X5314000Y-4577400D02*
X5354000Y-4617400D01*
X5354000Y-4577400D02*
X5314000Y-4617400D01*
X5720400Y-3764600D02*
X5760400Y-3804600D01*
X5760400Y-3764600D02*
X5720400Y-3804600D01*
X5720400Y-4577400D02*
X5760400Y-4617400D01*
X5760400Y-4577400D02*
X5720400Y-4617400D01*
X2818600Y-6527800D02*
G75*
G03*
X2818600Y-6527800I-50000J0D01*
G01*
X2818600Y-6781800D02*
G75*
G03*
X2818600Y-6781800I-50000J0D01*
G01*
X2831300Y-5372100D02*
G75*
G03*
X2831300Y-5372100I-50000J0D01*
G01*
X3072600Y-6527800D02*
G75*
G03*
X3072600Y-6527800I-50000J0D01*
G01*
X3072600Y-6781800D02*
G75*
G03*
X3072600Y-6781800I-50000J0D01*
G01*
X3085300Y-2692400D02*
G75*
G03*
X3085300Y-2692400I-50000J0D01*
G01*
X3085300Y-5372100D02*
G75*
G03*
X3085300Y-5372100I-50000J0D01*
G01*
X3085300Y-5765800D02*
G75*
G03*
X3085300Y-5765800I-50000J0D01*
G01*
X3326600Y-6527800D02*
G75*
G03*
X3326600Y-6527800I-50000J0D01*
G01*
X3326600Y-6781800D02*
G75*
G03*
X3326600Y-6781800I-50000J0D01*
G01*
X3339300Y-2692400D02*
G75*
G03*
X3339300Y-2692400I-50000J0D01*
G01*
X3339300Y-5372100D02*
G75*
G03*
X3339300Y-5372100I-50000J0D01*
G01*
X3339300Y-5765800D02*
G75*
G03*
X3339300Y-5765800I-50000J0D01*
G01*
X3466300Y-3289300D02*
G75*
G03*
X3466300Y-3289300I-50000J0D01*
G01*
X3580600Y-6527800D02*
G75*
G03*
X3580600Y-6527800I-50000J0D01*
G01*
X3580600Y-6781800D02*
G75*
G03*
X3580600Y-6781800I-50000J0D01*
G01*
X3593300Y-2692400D02*
G75*
G03*
X3593300Y-2692400I-50000J0D01*
G01*
X3593300Y-5372100D02*
G75*
G03*
X3593300Y-5372100I-50000J0D01*
G01*
X3593300Y-5765800D02*
G75*
G03*
X3593300Y-5765800I-50000J0D01*
G01*
X3720300Y-3289300D02*
G75*
G03*
X3720300Y-3289300I-50000J0D01*
G01*
X3834600Y-6527800D02*
G75*
G03*
X3834600Y-6527800I-50000J0D01*
G01*
X3834600Y-6781800D02*
G75*
G03*
X3834600Y-6781800I-50000J0D01*
G01*
X3847300Y-2692400D02*
G75*
G03*
X3847300Y-2692400I-50000J0D01*
G01*
X3847300Y-5372100D02*
G75*
G03*
X3847300Y-5372100I-50000J0D01*
G01*
X3847300Y-5765800D02*
G75*
G03*
X3847300Y-5765800I-50000J0D01*
G01*
X3974300Y-3289300D02*
G75*
G03*
X3974300Y-3289300I-50000J0D01*
G01*
X4088600Y-6527800D02*
G75*
G03*
X4088600Y-6527800I-50000J0D01*
G01*
X4088600Y-6781800D02*
G75*
G03*
X4088600Y-6781800I-50000J0D01*
G01*
X4101300Y-2692400D02*
G75*
G03*
X4101300Y-2692400I-50000J0D01*
G01*
X4101300Y-5372100D02*
G75*
G03*
X4101300Y-5372100I-50000J0D01*
G01*
X4101300Y-5765800D02*
G75*
G03*
X4101300Y-5765800I-50000J0D01*
G01*
X4228300Y-3289300D02*
G75*
G03*
X4228300Y-3289300I-50000J0D01*
G01*
X4342600Y-6527800D02*
G75*
G03*
X4342600Y-6527800I-50000J0D01*
G01*
X4342600Y-6781800D02*
G75*
G03*
X4342600Y-6781800I-50000J0D01*
G01*
X4355300Y-2692400D02*
G75*
G03*
X4355300Y-2692400I-50000J0D01*
G01*
X4355300Y-5372100D02*
G75*
G03*
X4355300Y-5372100I-50000J0D01*
G01*
X4355300Y-5765800D02*
G75*
G03*
X4355300Y-5765800I-50000J0D01*
G01*
X4482300Y-3289300D02*
G75*
G03*
X4482300Y-3289300I-50000J0D01*
G01*
X4596600Y-6527800D02*
G75*
G03*
X4596600Y-6527800I-50000J0D01*
G01*
X4596600Y-6781800D02*
G75*
G03*
X4596600Y-6781800I-50000J0D01*
G01*
X4609300Y-2692400D02*
G75*
G03*
X4609300Y-2692400I-50000J0D01*
G01*
X4609300Y-5372100D02*
G75*
G03*
X4609300Y-5372100I-50000J0D01*
G01*
X4609300Y-5765800D02*
G75*
G03*
X4609300Y-5765800I-50000J0D01*
G01*
X4736300Y-3289300D02*
G75*
G03*
X4736300Y-3289300I-50000J0D01*
G01*
X4850600Y-6527800D02*
G75*
G03*
X4850600Y-6527800I-50000J0D01*
G01*
X4850600Y-6781800D02*
G75*
G03*
X4850600Y-6781800I-50000J0D01*
G01*
X4863300Y-2692400D02*
G75*
G03*
X4863300Y-2692400I-50000J0D01*
G01*
X4863300Y-5372100D02*
G75*
G03*
X4863300Y-5372100I-50000J0D01*
G01*
X4863300Y-5765800D02*
G75*
G03*
X4863300Y-5765800I-50000J0D01*
G01*
X4990300Y-3289300D02*
G75*
G03*
X4990300Y-3289300I-50000J0D01*
G01*
X5104600Y-6527800D02*
G75*
G03*
X5104600Y-6527800I-50000J0D01*
G01*
X5104600Y-6781800D02*
G75*
G03*
X5104600Y-6781800I-50000J0D01*
G01*
X5117300Y-2692400D02*
G75*
G03*
X5117300Y-2692400I-50000J0D01*
G01*
X5117300Y-5372100D02*
G75*
G03*
X5117300Y-5372100I-50000J0D01*
G01*
X5117300Y-5765800D02*
G75*
G03*
X5117300Y-5765800I-50000J0D01*
G01*
X5244300Y-3289300D02*
G75*
G03*
X5244300Y-3289300I-50000J0D01*
G01*
X5358600Y-6527800D02*
G75*
G03*
X5358600Y-6527800I-50000J0D01*
G01*
X5358600Y-6781800D02*
G75*
G03*
X5358600Y-6781800I-50000J0D01*
G01*
X5371300Y-2692400D02*
G75*
G03*
X5371300Y-2692400I-50000J0D01*
G01*
X5371300Y-5372100D02*
G75*
G03*
X5371300Y-5372100I-50000J0D01*
G01*
X5371300Y-5765800D02*
G75*
G03*
X5371300Y-5765800I-50000J0D01*
G01*
X5612600Y-6527800D02*
G75*
G03*
X5612600Y-6527800I-50000J0D01*
G01*
X5612600Y-6781800D02*
G75*
G03*
X5612600Y-6781800I-50000J0D01*
G01*
X5625300Y-2692400D02*
G75*
G03*
X5625300Y-2692400I-50000J0D01*
G01*
X5625300Y-5372100D02*
G75*
G03*
X5625300Y-5372100I-50000J0D01*
G01*
X5625300Y-5765800D02*
G75*
G03*
X5625300Y-5765800I-50000J0D01*
G01*
X5866600Y-6527800D02*
G75*
G03*
X5866600Y-6527800I-50000J0D01*
G01*
X5866600Y-6781800D02*
G75*
G03*
X5866600Y-6781800I-50000J0D01*
G01*
X5879300Y-5372100D02*
G75*
G03*
X5879300Y-5372100I-50000J0D01*
G01*
D12*
X2887428Y-7660614D02*
X2887428Y-7360614D01*
X2958857Y-7360614D01*
X3001714Y-7374900D01*
X3030286Y-7403471D01*
X3044571Y-7432043D01*
X3058857Y-7489186D01*
X3058857Y-7532043D01*
X3044571Y-7589186D01*
X3030286Y-7617757D01*
X3001714Y-7646329D01*
X2958857Y-7660614D01*
X2887428Y-7660614D01*
X3187428Y-7660614D02*
X3187428Y-7460614D01*
X3187428Y-7517757D02*
X3201714Y-7489186D01*
X3216000Y-7474900D01*
X3244571Y-7460614D01*
X3273143Y-7460614D01*
X3373143Y-7660614D02*
X3373143Y-7460614D01*
X3373143Y-7360614D02*
X3358857Y-7374900D01*
X3373143Y-7389186D01*
X3387428Y-7374900D01*
X3373143Y-7360614D01*
X3373143Y-7389186D01*
X3558857Y-7660614D02*
X3530286Y-7646329D01*
X3516000Y-7617757D01*
X3516000Y-7360614D01*
X3716000Y-7660614D02*
X3687428Y-7646329D01*
X3673143Y-7617757D01*
X3673143Y-7360614D01*
X4058857Y-7660614D02*
X4058857Y-7360614D01*
X4158857Y-7574900D01*
X4258857Y-7360614D01*
X4258857Y-7660614D01*
X4530286Y-7660614D02*
X4530286Y-7503471D01*
X4516000Y-7474900D01*
X4487428Y-7460614D01*
X4430286Y-7460614D01*
X4401714Y-7474900D01*
X4530286Y-7646329D02*
X4501714Y-7660614D01*
X4430286Y-7660614D01*
X4401714Y-7646329D01*
X4387428Y-7617757D01*
X4387428Y-7589186D01*
X4401714Y-7560614D01*
X4430286Y-7546329D01*
X4501714Y-7546329D01*
X4530286Y-7532043D01*
X4673143Y-7460614D02*
X4673143Y-7760614D01*
X4673143Y-7474900D02*
X4701714Y-7460614D01*
X4758857Y-7460614D01*
X4787428Y-7474900D01*
X4801714Y-7489186D01*
X4816000Y-7517757D01*
X4816000Y-7603471D01*
X4801714Y-7632043D01*
X4787428Y-7646329D01*
X4758857Y-7660614D01*
X4701714Y-7660614D01*
X4673143Y-7646329D01*
X4944571Y-7632043D02*
X4958857Y-7646329D01*
X4944571Y-7660614D01*
X4930286Y-7646329D01*
X4944571Y-7632043D01*
X4944571Y-7660614D01*
X4944571Y-7474900D02*
X4958857Y-7489186D01*
X4944571Y-7503471D01*
X4930286Y-7489186D01*
X4944571Y-7474900D01*
X4944571Y-7503471D01*
X2561000Y-8134900D02*
X2601000Y-8174900D01*
X2601000Y-8134900D02*
X2561000Y-8174900D01*
X2944571Y-7990614D02*
X2973143Y-7990614D01*
X3001714Y-8004900D01*
X3016000Y-8019186D01*
X3030286Y-8047757D01*
X3044571Y-8104900D01*
X3044571Y-8176329D01*
X3030286Y-8233471D01*
X3016000Y-8262043D01*
X3001714Y-8276329D01*
X2973143Y-8290614D01*
X2944571Y-8290614D01*
X2916000Y-8276329D01*
X2901714Y-8262043D01*
X2887428Y-8233471D01*
X2873143Y-8176329D01*
X2873143Y-8104900D01*
X2887428Y-8047757D01*
X2901714Y-8019186D01*
X2916000Y-8004900D01*
X2944571Y-7990614D01*
X3173143Y-8262043D02*
X3187428Y-8276329D01*
X3173143Y-8290614D01*
X3158857Y-8276329D01*
X3173143Y-8262043D01*
X3173143Y-8290614D01*
X3444571Y-8090614D02*
X3444571Y-8290614D01*
X3373143Y-7976329D02*
X3301714Y-8190614D01*
X3487428Y-8190614D01*
X3658857Y-7990614D02*
X3687428Y-7990614D01*
X3716000Y-8004900D01*
X3730286Y-8019186D01*
X3744571Y-8047757D01*
X3758857Y-8104900D01*
X3758857Y-8176329D01*
X3744571Y-8233471D01*
X3730286Y-8262043D01*
X3716000Y-8276329D01*
X3687428Y-8290614D01*
X3658857Y-8290614D01*
X3630286Y-8276329D01*
X3616000Y-8262043D01*
X3601714Y-8233471D01*
X3587428Y-8176329D01*
X3587428Y-8104900D01*
X3601714Y-8047757D01*
X3616000Y-8019186D01*
X3630286Y-8004900D01*
X3658857Y-7990614D01*
X3887428Y-8290614D02*
X3887428Y-8090614D01*
X3887428Y-8119186D02*
X3901714Y-8104900D01*
X3930286Y-8090614D01*
X3973143Y-8090614D01*
X4001714Y-8104900D01*
X4016000Y-8133471D01*
X4016000Y-8290614D01*
X4016000Y-8133471D02*
X4030286Y-8104900D01*
X4058857Y-8090614D01*
X4101714Y-8090614D01*
X4130286Y-8104900D01*
X4144571Y-8133471D01*
X4144571Y-8290614D01*
X4287428Y-8290614D02*
X4287428Y-8090614D01*
X4287428Y-8119186D02*
X4301714Y-8104900D01*
X4330286Y-8090614D01*
X4373143Y-8090614D01*
X4401714Y-8104900D01*
X4416000Y-8133471D01*
X4416000Y-8290614D01*
X4416000Y-8133471D02*
X4430286Y-8104900D01*
X4458857Y-8090614D01*
X4501714Y-8090614D01*
X4530286Y-8104900D01*
X4544571Y-8133471D01*
X4544571Y-8290614D01*
X5130286Y-7976329D02*
X4873143Y-8362043D01*
X5516000Y-7990614D02*
X5544571Y-7990614D01*
X5573143Y-8004900D01*
X5587428Y-8019186D01*
X5601714Y-8047757D01*
X5616000Y-8104900D01*
X5616000Y-8176329D01*
X5601714Y-8233471D01*
X5587428Y-8262043D01*
X5573143Y-8276329D01*
X5544571Y-8290614D01*
X5516000Y-8290614D01*
X5487428Y-8276329D01*
X5473143Y-8262043D01*
X5458857Y-8233471D01*
X5444571Y-8176329D01*
X5444571Y-8104900D01*
X5458857Y-8047757D01*
X5473143Y-8019186D01*
X5487428Y-8004900D01*
X5516000Y-7990614D01*
X5744571Y-8262043D02*
X5758857Y-8276329D01*
X5744571Y-8290614D01*
X5730286Y-8276329D01*
X5744571Y-8262043D01*
X5744571Y-8290614D01*
X5944571Y-7990614D02*
X5973143Y-7990614D01*
X6001714Y-8004900D01*
X6016000Y-8019186D01*
X6030286Y-8047757D01*
X6044571Y-8104900D01*
X6044571Y-8176329D01*
X6030286Y-8233471D01*
X6016000Y-8262043D01*
X6001714Y-8276329D01*
X5973143Y-8290614D01*
X5944571Y-8290614D01*
X5916000Y-8276329D01*
X5901714Y-8262043D01*
X5887428Y-8233471D01*
X5873143Y-8176329D01*
X5873143Y-8104900D01*
X5887428Y-8047757D01*
X5901714Y-8019186D01*
X5916000Y-8004900D01*
X5944571Y-7990614D01*
X6330286Y-8290614D02*
X6158857Y-8290614D01*
X6244571Y-8290614D02*
X6244571Y-7990614D01*
X6216000Y-8033471D01*
X6187428Y-8062043D01*
X6158857Y-8076329D01*
X6587428Y-7990614D02*
X6530286Y-7990614D01*
X6501714Y-8004900D01*
X6487428Y-8019186D01*
X6458857Y-8062043D01*
X6444571Y-8119186D01*
X6444571Y-8233471D01*
X6458857Y-8262043D01*
X6473143Y-8276329D01*
X6501714Y-8290614D01*
X6558857Y-8290614D01*
X6587428Y-8276329D01*
X6601714Y-8262043D01*
X6616000Y-8233471D01*
X6616000Y-8162043D01*
X6601714Y-8133471D01*
X6587428Y-8119186D01*
X6558857Y-8104900D01*
X6501714Y-8104900D01*
X6473143Y-8119186D01*
X6458857Y-8133471D01*
X6444571Y-8162043D01*
X6730286Y-7990614D02*
X6730286Y-8047757D01*
X6844571Y-7990614D02*
X6844571Y-8047757D01*
X7287428Y-8404900D02*
X7273143Y-8390614D01*
X7244571Y-8347757D01*
X7230286Y-8319186D01*
X7216000Y-8276329D01*
X7201714Y-8204900D01*
X7201714Y-8147757D01*
X7216000Y-8076329D01*
X7230286Y-8033471D01*
X7244571Y-8004900D01*
X7273143Y-7962043D01*
X7287428Y-7947757D01*
X7558857Y-8290614D02*
X7387428Y-8290614D01*
X7473143Y-8290614D02*
X7473143Y-7990614D01*
X7444571Y-8033471D01*
X7416000Y-8062043D01*
X7387428Y-8076329D01*
X7830286Y-7990614D02*
X7687428Y-7990614D01*
X7673143Y-8133471D01*
X7687428Y-8119186D01*
X7716000Y-8104900D01*
X7787428Y-8104900D01*
X7816000Y-8119186D01*
X7830286Y-8133471D01*
X7844571Y-8162043D01*
X7844571Y-8233471D01*
X7830286Y-8262043D01*
X7816000Y-8276329D01*
X7787428Y-8290614D01*
X7716000Y-8290614D01*
X7687428Y-8276329D01*
X7673143Y-8262043D01*
X8201714Y-8290614D02*
X8201714Y-7990614D01*
X8330286Y-8290614D02*
X8330286Y-8133471D01*
X8316000Y-8104900D01*
X8287428Y-8090614D01*
X8244571Y-8090614D01*
X8216000Y-8104900D01*
X8201714Y-8119186D01*
X8516000Y-8290614D02*
X8487428Y-8276329D01*
X8473143Y-8262043D01*
X8458857Y-8233471D01*
X8458857Y-8147757D01*
X8473143Y-8119186D01*
X8487428Y-8104900D01*
X8516000Y-8090614D01*
X8558857Y-8090614D01*
X8587428Y-8104900D01*
X8601714Y-8119186D01*
X8616000Y-8147757D01*
X8616000Y-8233471D01*
X8601714Y-8262043D01*
X8587428Y-8276329D01*
X8558857Y-8290614D01*
X8516000Y-8290614D01*
X8787428Y-8290614D02*
X8758857Y-8276329D01*
X8744571Y-8247757D01*
X8744571Y-7990614D01*
X9016000Y-8276329D02*
X8987428Y-8290614D01*
X8930286Y-8290614D01*
X8901714Y-8276329D01*
X8887428Y-8247757D01*
X8887428Y-8133471D01*
X8901714Y-8104900D01*
X8930286Y-8090614D01*
X8987428Y-8090614D01*
X9016000Y-8104900D01*
X9030286Y-8133471D01*
X9030286Y-8162043D01*
X8887428Y-8190614D01*
X9144571Y-8276329D02*
X9173143Y-8290614D01*
X9230286Y-8290614D01*
X9258857Y-8276329D01*
X9273143Y-8247757D01*
X9273143Y-8233471D01*
X9258857Y-8204900D01*
X9230286Y-8190614D01*
X9187428Y-8190614D01*
X9158857Y-8176329D01*
X9144571Y-8147757D01*
X9144571Y-8133471D01*
X9158857Y-8104900D01*
X9187428Y-8090614D01*
X9230286Y-8090614D01*
X9258857Y-8104900D01*
X9373143Y-8404900D02*
X9387428Y-8390614D01*
X9416000Y-8347757D01*
X9430286Y-8319186D01*
X9444571Y-8276329D01*
X9458857Y-8204900D01*
X9458857Y-8147757D01*
X9444571Y-8076329D01*
X9430286Y-8033471D01*
X9416000Y-8004900D01*
X9387428Y-7962043D01*
X9373143Y-7947757D01*
X2601000Y-8550900D02*
G75*
G03*
X2601000Y-8550900I-50000J0D01*
G01*
X3044571Y-8686614D02*
X2873143Y-8686614D01*
X2958857Y-8686614D02*
X2958857Y-8386614D01*
X2930286Y-8429472D01*
X2901714Y-8458043D01*
X2873143Y-8472329D01*
X3173143Y-8658043D02*
X3187428Y-8672329D01*
X3173143Y-8686614D01*
X3158857Y-8672329D01*
X3173143Y-8658043D01*
X3173143Y-8686614D01*
X3373143Y-8386614D02*
X3401714Y-8386614D01*
X3430286Y-8400900D01*
X3444571Y-8415186D01*
X3458857Y-8443757D01*
X3473143Y-8500900D01*
X3473143Y-8572329D01*
X3458857Y-8629472D01*
X3444571Y-8658043D01*
X3430286Y-8672329D01*
X3401714Y-8686614D01*
X3373143Y-8686614D01*
X3344571Y-8672329D01*
X3330286Y-8658043D01*
X3316000Y-8629472D01*
X3301714Y-8572329D01*
X3301714Y-8500900D01*
X3316000Y-8443757D01*
X3330286Y-8415186D01*
X3344571Y-8400900D01*
X3373143Y-8386614D01*
X3658857Y-8386614D02*
X3687428Y-8386614D01*
X3716000Y-8400900D01*
X3730286Y-8415186D01*
X3744571Y-8443757D01*
X3758857Y-8500900D01*
X3758857Y-8572329D01*
X3744571Y-8629472D01*
X3730286Y-8658043D01*
X3716000Y-8672329D01*
X3687428Y-8686614D01*
X3658857Y-8686614D01*
X3630286Y-8672329D01*
X3616000Y-8658043D01*
X3601714Y-8629472D01*
X3587428Y-8572329D01*
X3587428Y-8500900D01*
X3601714Y-8443757D01*
X3616000Y-8415186D01*
X3630286Y-8400900D01*
X3658857Y-8386614D01*
X3887428Y-8686614D02*
X3887428Y-8486614D01*
X3887428Y-8515186D02*
X3901714Y-8500900D01*
X3930286Y-8486614D01*
X3973143Y-8486614D01*
X4001714Y-8500900D01*
X4016000Y-8529472D01*
X4016000Y-8686614D01*
X4016000Y-8529472D02*
X4030286Y-8500900D01*
X4058857Y-8486614D01*
X4101714Y-8486614D01*
X4130286Y-8500900D01*
X4144571Y-8529472D01*
X4144571Y-8686614D01*
X4287428Y-8686614D02*
X4287428Y-8486614D01*
X4287428Y-8515186D02*
X4301714Y-8500900D01*
X4330286Y-8486614D01*
X4373143Y-8486614D01*
X4401714Y-8500900D01*
X4416000Y-8529472D01*
X4416000Y-8686614D01*
X4416000Y-8529472D02*
X4430286Y-8500900D01*
X4458857Y-8486614D01*
X4501714Y-8486614D01*
X4530286Y-8500900D01*
X4544571Y-8529472D01*
X4544571Y-8686614D01*
X5130286Y-8372329D02*
X4873143Y-8758043D01*
X5516000Y-8386614D02*
X5544571Y-8386614D01*
X5573143Y-8400900D01*
X5587428Y-8415186D01*
X5601714Y-8443757D01*
X5616000Y-8500900D01*
X5616000Y-8572329D01*
X5601714Y-8629472D01*
X5587428Y-8658043D01*
X5573143Y-8672329D01*
X5544571Y-8686614D01*
X5516000Y-8686614D01*
X5487428Y-8672329D01*
X5473143Y-8658043D01*
X5458857Y-8629472D01*
X5444571Y-8572329D01*
X5444571Y-8500900D01*
X5458857Y-8443757D01*
X5473143Y-8415186D01*
X5487428Y-8400900D01*
X5516000Y-8386614D01*
X5744571Y-8658043D02*
X5758857Y-8672329D01*
X5744571Y-8686614D01*
X5730286Y-8672329D01*
X5744571Y-8658043D01*
X5744571Y-8686614D01*
X5944571Y-8386614D02*
X5973143Y-8386614D01*
X6001714Y-8400900D01*
X6016000Y-8415186D01*
X6030286Y-8443757D01*
X6044571Y-8500900D01*
X6044571Y-8572329D01*
X6030286Y-8629472D01*
X6016000Y-8658043D01*
X6001714Y-8672329D01*
X5973143Y-8686614D01*
X5944571Y-8686614D01*
X5916000Y-8672329D01*
X5901714Y-8658043D01*
X5887428Y-8629472D01*
X5873143Y-8572329D01*
X5873143Y-8500900D01*
X5887428Y-8443757D01*
X5901714Y-8415186D01*
X5916000Y-8400900D01*
X5944571Y-8386614D01*
X6144571Y-8386614D02*
X6330286Y-8386614D01*
X6230286Y-8500900D01*
X6273143Y-8500900D01*
X6301714Y-8515186D01*
X6316000Y-8529472D01*
X6330286Y-8558043D01*
X6330286Y-8629472D01*
X6316000Y-8658043D01*
X6301714Y-8672329D01*
X6273143Y-8686614D01*
X6187428Y-8686614D01*
X6158857Y-8672329D01*
X6144571Y-8658043D01*
X6473143Y-8686614D02*
X6530286Y-8686614D01*
X6558857Y-8672329D01*
X6573143Y-8658043D01*
X6601714Y-8615186D01*
X6616000Y-8558043D01*
X6616000Y-8443757D01*
X6601714Y-8415186D01*
X6587428Y-8400900D01*
X6558857Y-8386614D01*
X6501714Y-8386614D01*
X6473143Y-8400900D01*
X6458857Y-8415186D01*
X6444571Y-8443757D01*
X6444571Y-8515186D01*
X6458857Y-8543757D01*
X6473143Y-8558043D01*
X6501714Y-8572329D01*
X6558857Y-8572329D01*
X6587428Y-8558043D01*
X6601714Y-8543757D01*
X6616000Y-8515186D01*
X6730286Y-8386614D02*
X6730286Y-8443757D01*
X6844571Y-8386614D02*
X6844571Y-8443757D01*
X7287428Y-8800900D02*
X7273143Y-8786614D01*
X7244571Y-8743757D01*
X7230286Y-8715186D01*
X7216000Y-8672329D01*
X7201714Y-8600900D01*
X7201714Y-8543757D01*
X7216000Y-8472329D01*
X7230286Y-8429472D01*
X7244571Y-8400900D01*
X7273143Y-8358043D01*
X7287428Y-8343757D01*
X7530286Y-8386614D02*
X7473143Y-8386614D01*
X7444571Y-8400900D01*
X7430286Y-8415186D01*
X7401714Y-8458043D01*
X7387428Y-8515186D01*
X7387428Y-8629472D01*
X7401714Y-8658043D01*
X7416000Y-8672329D01*
X7444571Y-8686614D01*
X7501714Y-8686614D01*
X7530286Y-8672329D01*
X7544571Y-8658043D01*
X7558857Y-8629472D01*
X7558857Y-8558043D01*
X7544571Y-8529472D01*
X7530286Y-8515186D01*
X7501714Y-8500900D01*
X7444571Y-8500900D01*
X7416000Y-8515186D01*
X7401714Y-8529472D01*
X7387428Y-8558043D01*
X7701714Y-8686614D02*
X7758857Y-8686614D01*
X7787428Y-8672329D01*
X7801714Y-8658043D01*
X7830286Y-8615186D01*
X7844571Y-8558043D01*
X7844571Y-8443757D01*
X7830286Y-8415186D01*
X7816000Y-8400900D01*
X7787428Y-8386614D01*
X7730286Y-8386614D01*
X7701714Y-8400900D01*
X7687428Y-8415186D01*
X7673143Y-8443757D01*
X7673143Y-8515186D01*
X7687428Y-8543757D01*
X7701714Y-8558043D01*
X7730286Y-8572329D01*
X7787428Y-8572329D01*
X7816000Y-8558043D01*
X7830286Y-8543757D01*
X7844571Y-8515186D01*
X8201714Y-8686614D02*
X8201714Y-8386614D01*
X8330286Y-8686614D02*
X8330286Y-8529472D01*
X8316000Y-8500900D01*
X8287428Y-8486614D01*
X8244571Y-8486614D01*
X8216000Y-8500900D01*
X8201714Y-8515186D01*
X8516000Y-8686614D02*
X8487428Y-8672329D01*
X8473143Y-8658043D01*
X8458857Y-8629472D01*
X8458857Y-8543757D01*
X8473143Y-8515186D01*
X8487428Y-8500900D01*
X8516000Y-8486614D01*
X8558857Y-8486614D01*
X8587428Y-8500900D01*
X8601714Y-8515186D01*
X8616000Y-8543757D01*
X8616000Y-8629472D01*
X8601714Y-8658043D01*
X8587428Y-8672329D01*
X8558857Y-8686614D01*
X8516000Y-8686614D01*
X8787428Y-8686614D02*
X8758857Y-8672329D01*
X8744571Y-8643757D01*
X8744571Y-8386614D01*
X9016000Y-8672329D02*
X8987428Y-8686614D01*
X8930286Y-8686614D01*
X8901714Y-8672329D01*
X8887428Y-8643757D01*
X8887428Y-8529472D01*
X8901714Y-8500900D01*
X8930286Y-8486614D01*
X8987428Y-8486614D01*
X9016000Y-8500900D01*
X9030286Y-8529472D01*
X9030286Y-8558043D01*
X8887428Y-8586614D01*
X9144571Y-8672329D02*
X9173143Y-8686614D01*
X9230286Y-8686614D01*
X9258857Y-8672329D01*
X9273143Y-8643757D01*
X9273143Y-8629472D01*
X9258857Y-8600900D01*
X9230286Y-8586614D01*
X9187428Y-8586614D01*
X9158857Y-8572329D01*
X9144571Y-8543757D01*
X9144571Y-8529472D01*
X9158857Y-8500900D01*
X9187428Y-8486614D01*
X9230286Y-8486614D01*
X9258857Y-8500900D01*
X9373143Y-8800900D02*
X9387428Y-8786614D01*
X9416000Y-8743757D01*
X9430286Y-8715186D01*
X9444571Y-8672329D01*
X9458857Y-8600900D01*
X9458857Y-8543757D01*
X9444571Y-8472329D01*
X9430286Y-8429472D01*
X9416000Y-8400900D01*
X9387428Y-8358043D01*
X9373143Y-8343757D01*
M02*
