G04 #@! TF.GenerationSoftware,KiCad,Pcbnew,(5.1.4)-1*
G04 #@! TF.CreationDate,2019-12-12T19:55:19+09:00*
G04 #@! TF.ProjectId,microcar_head,6d696372-6f63-4617-925f-686561642e6b,rev?*
G04 #@! TF.SameCoordinates,Original*
G04 #@! TF.FileFunction,Copper,L2,Bot*
G04 #@! TF.FilePolarity,Positive*
%FSLAX46Y46*%
G04 Gerber Fmt 4.6, Leading zero omitted, Abs format (unit mm)*
G04 Created by KiCad (PCBNEW (5.1.4)-1) date 2019-12-12 19:55:19*
%MOMM*%
%LPD*%
G04 APERTURE LIST*
%ADD10C,0.300000*%
%ADD11R,1.700000X1.700000*%
%ADD12O,1.700000X1.700000*%
%ADD13C,3.000000*%
%ADD14C,1.524000*%
%ADD15C,0.800000*%
%ADD16C,0.400000*%
%ADD17C,0.254000*%
G04 APERTURE END LIST*
D10*
X67924928Y-53955071D02*
X68424928Y-53240785D01*
X68782071Y-53955071D02*
X68782071Y-52455071D01*
X68210642Y-52455071D01*
X68067785Y-52526500D01*
X67996357Y-52597928D01*
X67924928Y-52740785D01*
X67924928Y-52955071D01*
X67996357Y-53097928D01*
X68067785Y-53169357D01*
X68210642Y-53240785D01*
X68782071Y-53240785D01*
X67353500Y-53526500D02*
X66639214Y-53526500D01*
X67496357Y-53955071D02*
X66996357Y-52455071D01*
X66496357Y-53955071D01*
X65996357Y-53955071D02*
X65996357Y-52455071D01*
X65496357Y-53526500D01*
X64996357Y-52455071D01*
X64996357Y-53955071D01*
X64282071Y-53955071D02*
X64282071Y-52455071D01*
X63424928Y-53955071D01*
X63424928Y-52455071D01*
D11*
X50800000Y-64135000D03*
D12*
X50800000Y-61595000D03*
X48260000Y-64135000D03*
X48260000Y-61595000D03*
X45720000Y-64135000D03*
X45720000Y-61595000D03*
X43180000Y-64135000D03*
X43180000Y-61595000D03*
X40640000Y-64135000D03*
X40640000Y-61595000D03*
X38100000Y-64135000D03*
X38100000Y-61595000D03*
X35560000Y-64135000D03*
X35560000Y-61595000D03*
X33020000Y-64135000D03*
X33020000Y-61595000D03*
X30480000Y-64135000D03*
X30480000Y-61595000D03*
X27940000Y-64135000D03*
X27940000Y-61595000D03*
X25400000Y-64135000D03*
X25400000Y-61595000D03*
X22860000Y-64135000D03*
X22860000Y-61595000D03*
X20320000Y-64135000D03*
X20320000Y-61595000D03*
D13*
X48260000Y-27178000D03*
D14*
X36203377Y-45457623D03*
X32385000Y-43876000D03*
X28566623Y-45457623D03*
X36203377Y-53094377D03*
X32385000Y-54676000D03*
X28566623Y-53094377D03*
D13*
X30480000Y-33020000D03*
X24384000Y-33020000D03*
X43180000Y-27305000D03*
X38100000Y-27305000D03*
X33020000Y-27305000D03*
X27305000Y-27305000D03*
D15*
X36195000Y-56515000D03*
X34290000Y-53975000D03*
X45720000Y-59690000D03*
X43815000Y-55245000D03*
X43815000Y-53975000D03*
X32385000Y-41275000D03*
X24130000Y-41275000D03*
X27305000Y-37465000D03*
X24765000Y-52070000D03*
X62230000Y-38735000D03*
X51435000Y-38735000D03*
X54610000Y-46355000D03*
X57150000Y-37465000D03*
X50800000Y-31750000D03*
X30480000Y-48260000D03*
X24130000Y-46355000D03*
X20955000Y-59055000D03*
X38100000Y-59690000D03*
X24130000Y-56388000D03*
X35052000Y-29972000D03*
X41910000Y-41656000D03*
X45974000Y-29210000D03*
X73406000Y-45085000D03*
X58547000Y-55118000D03*
X35433000Y-40132000D03*
X33655000Y-50165000D03*
X20193000Y-29718000D03*
X27559000Y-55753000D03*
X45720000Y-32258000D03*
X42374910Y-39724119D03*
X49784000Y-37592000D03*
X68580000Y-48006004D03*
X35471010Y-37465000D03*
X55880000Y-39370000D03*
X36703001Y-37592000D03*
X45212000Y-44704000D03*
X49022000Y-46228000D03*
X44574932Y-39211559D03*
X49530000Y-48298000D03*
X45466000Y-42926000D03*
X66802000Y-40132000D03*
X59436000Y-31496000D03*
X45609978Y-41402000D03*
X59436000Y-47498000D03*
X46209989Y-47498000D03*
X23114000Y-39370000D03*
X21510832Y-54225190D03*
X27305000Y-50165000D03*
X35560000Y-33655000D03*
X26670000Y-41852303D03*
D16*
X45212000Y-32766000D02*
X45720000Y-32258000D01*
X43434000Y-32766000D02*
X45212000Y-32766000D01*
X42418000Y-33782000D02*
X43434000Y-32766000D01*
X33790377Y-45457623D02*
X42418000Y-36830000D01*
X28566623Y-45457623D02*
X33790377Y-45457623D01*
X28566623Y-53983377D02*
X28566623Y-45457623D01*
X50165000Y-64135000D02*
X49510001Y-63480001D01*
X50800000Y-64135000D02*
X50165000Y-64135000D01*
X49510001Y-63480001D02*
X49510001Y-59035001D01*
X49510001Y-59035001D02*
X48895000Y-58420000D01*
X48895000Y-58420000D02*
X33003246Y-58420000D01*
X42418000Y-36830000D02*
X42418000Y-33782000D01*
X33003246Y-58420000D02*
X28566623Y-53983377D01*
X49218315Y-37592000D02*
X49784000Y-37592000D01*
X44507029Y-37592000D02*
X49218315Y-37592000D01*
X42374910Y-39724119D02*
X44507029Y-37592000D01*
X35871009Y-37065001D02*
X35471010Y-37465000D01*
X68580000Y-48006004D02*
X68580000Y-39455998D01*
X59820001Y-30695999D02*
X42240011Y-30695999D01*
X42240011Y-30695999D02*
X35871009Y-37065001D01*
X68580000Y-39455998D02*
X59820001Y-30695999D01*
X42837002Y-31457999D02*
X37103000Y-37192001D01*
X37103000Y-37192001D02*
X36703001Y-37592000D01*
X55880000Y-39370000D02*
X47967999Y-31457999D01*
X47967999Y-31457999D02*
X42837002Y-31457999D01*
X46736000Y-46228000D02*
X48456315Y-46228000D01*
X45212000Y-44704000D02*
X46736000Y-46228000D01*
X48456315Y-46228000D02*
X49022000Y-46228000D01*
X45825985Y-48298000D02*
X48964315Y-48298000D01*
X44174933Y-46646948D02*
X45825985Y-48298000D01*
X44174933Y-39611558D02*
X44174933Y-46646948D01*
X44574932Y-39211559D02*
X44174933Y-39611558D01*
X48964315Y-48298000D02*
X49530000Y-48298000D01*
X57912000Y-40132000D02*
X66802000Y-40132000D01*
X55517999Y-42526001D02*
X57912000Y-40132000D01*
X45466000Y-42926000D02*
X45865999Y-42526001D01*
X45865999Y-42526001D02*
X55517999Y-42526001D01*
X46175663Y-41402000D02*
X45609978Y-41402000D01*
X59436000Y-37592000D02*
X55626000Y-41402000D01*
X59436000Y-31496000D02*
X59436000Y-37592000D01*
X55626000Y-41402000D02*
X46175663Y-41402000D01*
X59436000Y-47498000D02*
X46209989Y-47498000D01*
X23114000Y-39370000D02*
X21510832Y-40973168D01*
X21510832Y-53659505D02*
X21510832Y-54225190D01*
X21510832Y-40973168D02*
X21510832Y-53659505D01*
X27305000Y-50730685D02*
X27305000Y-50165000D01*
X27305000Y-54029998D02*
X27305000Y-50730685D01*
X34270001Y-60994999D02*
X27305000Y-54029998D01*
X35560000Y-64135000D02*
X34270001Y-62845001D01*
X34270001Y-62845001D02*
X34270001Y-60994999D01*
X27305000Y-49599315D02*
X27305000Y-50165000D01*
X27305000Y-44577000D02*
X27305000Y-49599315D01*
X28194000Y-43688000D02*
X27305000Y-44577000D01*
X33020000Y-27305000D02*
X28194000Y-32131000D01*
X28194000Y-32131000D02*
X28194000Y-43688000D01*
X36600001Y-28804999D02*
X36600001Y-32614999D01*
X38100000Y-27305000D02*
X36600001Y-28804999D01*
X36600001Y-32614999D02*
X35560000Y-33655000D01*
X29229999Y-61034997D02*
X26270001Y-58074999D01*
X26270001Y-58074999D02*
X26270001Y-42252302D01*
X26270001Y-42252302D02*
X26670000Y-41852303D01*
X29229999Y-62884999D02*
X29229999Y-61034997D01*
X30480000Y-64135000D02*
X29229999Y-62884999D01*
D17*
G36*
X48675002Y-59380870D02*
G01*
X48675002Y-60171150D01*
X48616890Y-60153524D01*
X48387000Y-60274845D01*
X48387000Y-61468000D01*
X48407000Y-61468000D01*
X48407000Y-61722000D01*
X48387000Y-61722000D01*
X48387000Y-61742000D01*
X48133000Y-61742000D01*
X48133000Y-61722000D01*
X48113000Y-61722000D01*
X48113000Y-61468000D01*
X48133000Y-61468000D01*
X48133000Y-60274845D01*
X47903110Y-60153524D01*
X47755901Y-60198175D01*
X47493080Y-60323359D01*
X47259731Y-60497412D01*
X47064822Y-60713645D01*
X46995201Y-60830523D01*
X46960706Y-60765986D01*
X46775134Y-60539866D01*
X46549014Y-60354294D01*
X46291034Y-60216401D01*
X46011111Y-60131487D01*
X45792950Y-60110000D01*
X45647050Y-60110000D01*
X45428889Y-60131487D01*
X45148966Y-60216401D01*
X44890986Y-60354294D01*
X44664866Y-60539866D01*
X44479294Y-60765986D01*
X44450000Y-60820791D01*
X44420706Y-60765986D01*
X44235134Y-60539866D01*
X44009014Y-60354294D01*
X43751034Y-60216401D01*
X43471111Y-60131487D01*
X43252950Y-60110000D01*
X43107050Y-60110000D01*
X42888889Y-60131487D01*
X42608966Y-60216401D01*
X42350986Y-60354294D01*
X42124866Y-60539866D01*
X41939294Y-60765986D01*
X41910000Y-60820791D01*
X41880706Y-60765986D01*
X41695134Y-60539866D01*
X41469014Y-60354294D01*
X41211034Y-60216401D01*
X40931111Y-60131487D01*
X40712950Y-60110000D01*
X40567050Y-60110000D01*
X40348889Y-60131487D01*
X40068966Y-60216401D01*
X39810986Y-60354294D01*
X39584866Y-60539866D01*
X39399294Y-60765986D01*
X39370000Y-60820791D01*
X39340706Y-60765986D01*
X39155134Y-60539866D01*
X38929014Y-60354294D01*
X38671034Y-60216401D01*
X38391111Y-60131487D01*
X38172950Y-60110000D01*
X38027050Y-60110000D01*
X37808889Y-60131487D01*
X37528966Y-60216401D01*
X37270986Y-60354294D01*
X37044866Y-60539866D01*
X36859294Y-60765986D01*
X36830000Y-60820791D01*
X36800706Y-60765986D01*
X36615134Y-60539866D01*
X36389014Y-60354294D01*
X36131034Y-60216401D01*
X35851111Y-60131487D01*
X35632950Y-60110000D01*
X35487050Y-60110000D01*
X35268889Y-60131487D01*
X34988966Y-60216401D01*
X34782585Y-60326714D01*
X33710871Y-59255000D01*
X48549132Y-59255000D01*
X48675002Y-59380870D01*
X48675002Y-59380870D01*
G37*
X48675002Y-59380870D02*
X48675002Y-60171150D01*
X48616890Y-60153524D01*
X48387000Y-60274845D01*
X48387000Y-61468000D01*
X48407000Y-61468000D01*
X48407000Y-61722000D01*
X48387000Y-61722000D01*
X48387000Y-61742000D01*
X48133000Y-61742000D01*
X48133000Y-61722000D01*
X48113000Y-61722000D01*
X48113000Y-61468000D01*
X48133000Y-61468000D01*
X48133000Y-60274845D01*
X47903110Y-60153524D01*
X47755901Y-60198175D01*
X47493080Y-60323359D01*
X47259731Y-60497412D01*
X47064822Y-60713645D01*
X46995201Y-60830523D01*
X46960706Y-60765986D01*
X46775134Y-60539866D01*
X46549014Y-60354294D01*
X46291034Y-60216401D01*
X46011111Y-60131487D01*
X45792950Y-60110000D01*
X45647050Y-60110000D01*
X45428889Y-60131487D01*
X45148966Y-60216401D01*
X44890986Y-60354294D01*
X44664866Y-60539866D01*
X44479294Y-60765986D01*
X44450000Y-60820791D01*
X44420706Y-60765986D01*
X44235134Y-60539866D01*
X44009014Y-60354294D01*
X43751034Y-60216401D01*
X43471111Y-60131487D01*
X43252950Y-60110000D01*
X43107050Y-60110000D01*
X42888889Y-60131487D01*
X42608966Y-60216401D01*
X42350986Y-60354294D01*
X42124866Y-60539866D01*
X41939294Y-60765986D01*
X41910000Y-60820791D01*
X41880706Y-60765986D01*
X41695134Y-60539866D01*
X41469014Y-60354294D01*
X41211034Y-60216401D01*
X40931111Y-60131487D01*
X40712950Y-60110000D01*
X40567050Y-60110000D01*
X40348889Y-60131487D01*
X40068966Y-60216401D01*
X39810986Y-60354294D01*
X39584866Y-60539866D01*
X39399294Y-60765986D01*
X39370000Y-60820791D01*
X39340706Y-60765986D01*
X39155134Y-60539866D01*
X38929014Y-60354294D01*
X38671034Y-60216401D01*
X38391111Y-60131487D01*
X38172950Y-60110000D01*
X38027050Y-60110000D01*
X37808889Y-60131487D01*
X37528966Y-60216401D01*
X37270986Y-60354294D01*
X37044866Y-60539866D01*
X36859294Y-60765986D01*
X36830000Y-60820791D01*
X36800706Y-60765986D01*
X36615134Y-60539866D01*
X36389014Y-60354294D01*
X36131034Y-60216401D01*
X35851111Y-60131487D01*
X35632950Y-60110000D01*
X35487050Y-60110000D01*
X35268889Y-60131487D01*
X34988966Y-60216401D01*
X34782585Y-60326714D01*
X33710871Y-59255000D01*
X48549132Y-59255000D01*
X48675002Y-59380870D01*
G36*
X31659017Y-25646637D02*
G01*
X31361637Y-25944017D01*
X31127988Y-26293698D01*
X30967047Y-26682244D01*
X30885000Y-27094721D01*
X30885000Y-27515279D01*
X30967047Y-27927756D01*
X31040074Y-28104058D01*
X27632579Y-31511554D01*
X27600709Y-31537709D01*
X27517942Y-31638562D01*
X27496364Y-31664855D01*
X27418828Y-31809914D01*
X27371082Y-31967312D01*
X27354960Y-32131000D01*
X27359000Y-32172019D01*
X27359001Y-41077593D01*
X27329774Y-41048366D01*
X27160256Y-40935098D01*
X26971898Y-40857077D01*
X26771939Y-40817303D01*
X26568061Y-40817303D01*
X26368102Y-40857077D01*
X26179744Y-40935098D01*
X26010226Y-41048366D01*
X25866063Y-41192529D01*
X25752795Y-41362047D01*
X25674774Y-41550405D01*
X25645640Y-41696871D01*
X25603401Y-41748340D01*
X25572365Y-41786157D01*
X25494829Y-41931216D01*
X25447083Y-42088614D01*
X25430961Y-42252302D01*
X25435002Y-42293331D01*
X25435001Y-58033980D01*
X25430961Y-58074999D01*
X25435001Y-58116017D01*
X25447083Y-58238687D01*
X25494829Y-58396085D01*
X25572365Y-58541144D01*
X25676710Y-58668290D01*
X25708580Y-58694445D01*
X27278754Y-60264620D01*
X27110986Y-60354294D01*
X26884866Y-60539866D01*
X26699294Y-60765986D01*
X26670000Y-60820791D01*
X26640706Y-60765986D01*
X26455134Y-60539866D01*
X26229014Y-60354294D01*
X25971034Y-60216401D01*
X25691111Y-60131487D01*
X25472950Y-60110000D01*
X25327050Y-60110000D01*
X25108889Y-60131487D01*
X24828966Y-60216401D01*
X24570986Y-60354294D01*
X24344866Y-60539866D01*
X24159294Y-60765986D01*
X24130000Y-60820791D01*
X24100706Y-60765986D01*
X23915134Y-60539866D01*
X23689014Y-60354294D01*
X23431034Y-60216401D01*
X23151111Y-60131487D01*
X22932950Y-60110000D01*
X22787050Y-60110000D01*
X22568889Y-60131487D01*
X22288966Y-60216401D01*
X22030986Y-60354294D01*
X21804866Y-60539866D01*
X21619294Y-60765986D01*
X21590000Y-60820791D01*
X21560706Y-60765986D01*
X21375134Y-60539866D01*
X21149014Y-60354294D01*
X20891034Y-60216401D01*
X20611111Y-60131487D01*
X20392950Y-60110000D01*
X20247050Y-60110000D01*
X20028889Y-60131487D01*
X19748966Y-60216401D01*
X19710000Y-60237229D01*
X19710000Y-54123251D01*
X20475832Y-54123251D01*
X20475832Y-54327129D01*
X20515606Y-54527088D01*
X20593627Y-54715446D01*
X20706895Y-54884964D01*
X20851058Y-55029127D01*
X21020576Y-55142395D01*
X21208934Y-55220416D01*
X21408893Y-55260190D01*
X21612771Y-55260190D01*
X21812730Y-55220416D01*
X22001088Y-55142395D01*
X22170606Y-55029127D01*
X22314769Y-54884964D01*
X22428037Y-54715446D01*
X22506058Y-54527088D01*
X22545832Y-54327129D01*
X22545832Y-54123251D01*
X22506058Y-53923292D01*
X22428037Y-53734934D01*
X22345832Y-53611905D01*
X22345832Y-41319035D01*
X23270776Y-40394092D01*
X23415898Y-40365226D01*
X23604256Y-40287205D01*
X23773774Y-40173937D01*
X23917937Y-40029774D01*
X24031205Y-39860256D01*
X24109226Y-39671898D01*
X24149000Y-39471939D01*
X24149000Y-39268061D01*
X24109226Y-39068102D01*
X24031205Y-38879744D01*
X23917937Y-38710226D01*
X23773774Y-38566063D01*
X23604256Y-38452795D01*
X23415898Y-38374774D01*
X23215939Y-38335000D01*
X23012061Y-38335000D01*
X22812102Y-38374774D01*
X22623744Y-38452795D01*
X22454226Y-38566063D01*
X22310063Y-38710226D01*
X22196795Y-38879744D01*
X22118774Y-39068102D01*
X22089908Y-39213224D01*
X20949411Y-40353722D01*
X20917541Y-40379877D01*
X20813197Y-40507022D01*
X20813196Y-40507023D01*
X20735660Y-40652082D01*
X20687914Y-40809480D01*
X20671792Y-40973168D01*
X20675832Y-41014187D01*
X20675833Y-53611904D01*
X20593627Y-53734934D01*
X20515606Y-53923292D01*
X20475832Y-54123251D01*
X19710000Y-54123251D01*
X19710000Y-32809721D01*
X22249000Y-32809721D01*
X22249000Y-33230279D01*
X22331047Y-33642756D01*
X22491988Y-34031302D01*
X22725637Y-34380983D01*
X23023017Y-34678363D01*
X23372698Y-34912012D01*
X23761244Y-35072953D01*
X24173721Y-35155000D01*
X24594279Y-35155000D01*
X25006756Y-35072953D01*
X25395302Y-34912012D01*
X25744983Y-34678363D01*
X26042363Y-34380983D01*
X26276012Y-34031302D01*
X26436953Y-33642756D01*
X26519000Y-33230279D01*
X26519000Y-32809721D01*
X26436953Y-32397244D01*
X26276012Y-32008698D01*
X26042363Y-31659017D01*
X25744983Y-31361637D01*
X25395302Y-31127988D01*
X25006756Y-30967047D01*
X24594279Y-30885000D01*
X24173721Y-30885000D01*
X23761244Y-30967047D01*
X23372698Y-31127988D01*
X23023017Y-31361637D01*
X22725637Y-31659017D01*
X22491988Y-32008698D01*
X22331047Y-32397244D01*
X22249000Y-32809721D01*
X19710000Y-32809721D01*
X19710000Y-28514274D01*
X19853962Y-28729729D01*
X20165271Y-29041038D01*
X20531331Y-29285631D01*
X20938075Y-29454110D01*
X21369872Y-29540000D01*
X21810128Y-29540000D01*
X22241925Y-29454110D01*
X22648669Y-29285631D01*
X23014729Y-29041038D01*
X23259114Y-28796653D01*
X25992952Y-28796653D01*
X26148962Y-29112214D01*
X26523745Y-29303020D01*
X26928551Y-29417044D01*
X27347824Y-29449902D01*
X27765451Y-29400334D01*
X28165383Y-29270243D01*
X28461038Y-29112214D01*
X28617048Y-28796653D01*
X27305000Y-27484605D01*
X25992952Y-28796653D01*
X23259114Y-28796653D01*
X23326038Y-28729729D01*
X23570631Y-28363669D01*
X23739110Y-27956925D01*
X23825000Y-27525128D01*
X23825000Y-27347824D01*
X25160098Y-27347824D01*
X25209666Y-27765451D01*
X25339757Y-28165383D01*
X25497786Y-28461038D01*
X25813347Y-28617048D01*
X27125395Y-27305000D01*
X27484605Y-27305000D01*
X28796653Y-28617048D01*
X29112214Y-28461038D01*
X29303020Y-28086255D01*
X29417044Y-27681449D01*
X29449902Y-27262176D01*
X29400334Y-26844549D01*
X29270243Y-26444617D01*
X29112214Y-26148962D01*
X28796653Y-25992952D01*
X27484605Y-27305000D01*
X27125395Y-27305000D01*
X25813347Y-25992952D01*
X25497786Y-26148962D01*
X25306980Y-26523745D01*
X25192956Y-26928551D01*
X25160098Y-27347824D01*
X23825000Y-27347824D01*
X23825000Y-27084872D01*
X23739110Y-26653075D01*
X23570631Y-26246331D01*
X23326038Y-25880271D01*
X23014729Y-25568962D01*
X22799215Y-25424960D01*
X26285313Y-25424906D01*
X26148962Y-25497786D01*
X25992952Y-25813347D01*
X27305000Y-27125395D01*
X28617048Y-25813347D01*
X28461038Y-25497786D01*
X28317823Y-25424874D01*
X31990996Y-25424816D01*
X31659017Y-25646637D01*
X31659017Y-25646637D01*
G37*
X31659017Y-25646637D02*
X31361637Y-25944017D01*
X31127988Y-26293698D01*
X30967047Y-26682244D01*
X30885000Y-27094721D01*
X30885000Y-27515279D01*
X30967047Y-27927756D01*
X31040074Y-28104058D01*
X27632579Y-31511554D01*
X27600709Y-31537709D01*
X27517942Y-31638562D01*
X27496364Y-31664855D01*
X27418828Y-31809914D01*
X27371082Y-31967312D01*
X27354960Y-32131000D01*
X27359000Y-32172019D01*
X27359001Y-41077593D01*
X27329774Y-41048366D01*
X27160256Y-40935098D01*
X26971898Y-40857077D01*
X26771939Y-40817303D01*
X26568061Y-40817303D01*
X26368102Y-40857077D01*
X26179744Y-40935098D01*
X26010226Y-41048366D01*
X25866063Y-41192529D01*
X25752795Y-41362047D01*
X25674774Y-41550405D01*
X25645640Y-41696871D01*
X25603401Y-41748340D01*
X25572365Y-41786157D01*
X25494829Y-41931216D01*
X25447083Y-42088614D01*
X25430961Y-42252302D01*
X25435002Y-42293331D01*
X25435001Y-58033980D01*
X25430961Y-58074999D01*
X25435001Y-58116017D01*
X25447083Y-58238687D01*
X25494829Y-58396085D01*
X25572365Y-58541144D01*
X25676710Y-58668290D01*
X25708580Y-58694445D01*
X27278754Y-60264620D01*
X27110986Y-60354294D01*
X26884866Y-60539866D01*
X26699294Y-60765986D01*
X26670000Y-60820791D01*
X26640706Y-60765986D01*
X26455134Y-60539866D01*
X26229014Y-60354294D01*
X25971034Y-60216401D01*
X25691111Y-60131487D01*
X25472950Y-60110000D01*
X25327050Y-60110000D01*
X25108889Y-60131487D01*
X24828966Y-60216401D01*
X24570986Y-60354294D01*
X24344866Y-60539866D01*
X24159294Y-60765986D01*
X24130000Y-60820791D01*
X24100706Y-60765986D01*
X23915134Y-60539866D01*
X23689014Y-60354294D01*
X23431034Y-60216401D01*
X23151111Y-60131487D01*
X22932950Y-60110000D01*
X22787050Y-60110000D01*
X22568889Y-60131487D01*
X22288966Y-60216401D01*
X22030986Y-60354294D01*
X21804866Y-60539866D01*
X21619294Y-60765986D01*
X21590000Y-60820791D01*
X21560706Y-60765986D01*
X21375134Y-60539866D01*
X21149014Y-60354294D01*
X20891034Y-60216401D01*
X20611111Y-60131487D01*
X20392950Y-60110000D01*
X20247050Y-60110000D01*
X20028889Y-60131487D01*
X19748966Y-60216401D01*
X19710000Y-60237229D01*
X19710000Y-54123251D01*
X20475832Y-54123251D01*
X20475832Y-54327129D01*
X20515606Y-54527088D01*
X20593627Y-54715446D01*
X20706895Y-54884964D01*
X20851058Y-55029127D01*
X21020576Y-55142395D01*
X21208934Y-55220416D01*
X21408893Y-55260190D01*
X21612771Y-55260190D01*
X21812730Y-55220416D01*
X22001088Y-55142395D01*
X22170606Y-55029127D01*
X22314769Y-54884964D01*
X22428037Y-54715446D01*
X22506058Y-54527088D01*
X22545832Y-54327129D01*
X22545832Y-54123251D01*
X22506058Y-53923292D01*
X22428037Y-53734934D01*
X22345832Y-53611905D01*
X22345832Y-41319035D01*
X23270776Y-40394092D01*
X23415898Y-40365226D01*
X23604256Y-40287205D01*
X23773774Y-40173937D01*
X23917937Y-40029774D01*
X24031205Y-39860256D01*
X24109226Y-39671898D01*
X24149000Y-39471939D01*
X24149000Y-39268061D01*
X24109226Y-39068102D01*
X24031205Y-38879744D01*
X23917937Y-38710226D01*
X23773774Y-38566063D01*
X23604256Y-38452795D01*
X23415898Y-38374774D01*
X23215939Y-38335000D01*
X23012061Y-38335000D01*
X22812102Y-38374774D01*
X22623744Y-38452795D01*
X22454226Y-38566063D01*
X22310063Y-38710226D01*
X22196795Y-38879744D01*
X22118774Y-39068102D01*
X22089908Y-39213224D01*
X20949411Y-40353722D01*
X20917541Y-40379877D01*
X20813197Y-40507022D01*
X20813196Y-40507023D01*
X20735660Y-40652082D01*
X20687914Y-40809480D01*
X20671792Y-40973168D01*
X20675832Y-41014187D01*
X20675833Y-53611904D01*
X20593627Y-53734934D01*
X20515606Y-53923292D01*
X20475832Y-54123251D01*
X19710000Y-54123251D01*
X19710000Y-32809721D01*
X22249000Y-32809721D01*
X22249000Y-33230279D01*
X22331047Y-33642756D01*
X22491988Y-34031302D01*
X22725637Y-34380983D01*
X23023017Y-34678363D01*
X23372698Y-34912012D01*
X23761244Y-35072953D01*
X24173721Y-35155000D01*
X24594279Y-35155000D01*
X25006756Y-35072953D01*
X25395302Y-34912012D01*
X25744983Y-34678363D01*
X26042363Y-34380983D01*
X26276012Y-34031302D01*
X26436953Y-33642756D01*
X26519000Y-33230279D01*
X26519000Y-32809721D01*
X26436953Y-32397244D01*
X26276012Y-32008698D01*
X26042363Y-31659017D01*
X25744983Y-31361637D01*
X25395302Y-31127988D01*
X25006756Y-30967047D01*
X24594279Y-30885000D01*
X24173721Y-30885000D01*
X23761244Y-30967047D01*
X23372698Y-31127988D01*
X23023017Y-31361637D01*
X22725637Y-31659017D01*
X22491988Y-32008698D01*
X22331047Y-32397244D01*
X22249000Y-32809721D01*
X19710000Y-32809721D01*
X19710000Y-28514274D01*
X19853962Y-28729729D01*
X20165271Y-29041038D01*
X20531331Y-29285631D01*
X20938075Y-29454110D01*
X21369872Y-29540000D01*
X21810128Y-29540000D01*
X22241925Y-29454110D01*
X22648669Y-29285631D01*
X23014729Y-29041038D01*
X23259114Y-28796653D01*
X25992952Y-28796653D01*
X26148962Y-29112214D01*
X26523745Y-29303020D01*
X26928551Y-29417044D01*
X27347824Y-29449902D01*
X27765451Y-29400334D01*
X28165383Y-29270243D01*
X28461038Y-29112214D01*
X28617048Y-28796653D01*
X27305000Y-27484605D01*
X25992952Y-28796653D01*
X23259114Y-28796653D01*
X23326038Y-28729729D01*
X23570631Y-28363669D01*
X23739110Y-27956925D01*
X23825000Y-27525128D01*
X23825000Y-27347824D01*
X25160098Y-27347824D01*
X25209666Y-27765451D01*
X25339757Y-28165383D01*
X25497786Y-28461038D01*
X25813347Y-28617048D01*
X27125395Y-27305000D01*
X27484605Y-27305000D01*
X28796653Y-28617048D01*
X29112214Y-28461038D01*
X29303020Y-28086255D01*
X29417044Y-27681449D01*
X29449902Y-27262176D01*
X29400334Y-26844549D01*
X29270243Y-26444617D01*
X29112214Y-26148962D01*
X28796653Y-25992952D01*
X27484605Y-27305000D01*
X27125395Y-27305000D01*
X25813347Y-25992952D01*
X25497786Y-26148962D01*
X25306980Y-26523745D01*
X25192956Y-26928551D01*
X25160098Y-27347824D01*
X23825000Y-27347824D01*
X23825000Y-27084872D01*
X23739110Y-26653075D01*
X23570631Y-26246331D01*
X23326038Y-25880271D01*
X23014729Y-25568962D01*
X22799215Y-25424960D01*
X26285313Y-25424906D01*
X26148962Y-25497786D01*
X25992952Y-25813347D01*
X27305000Y-27125395D01*
X28617048Y-25813347D01*
X28461038Y-25497786D01*
X28317823Y-25424874D01*
X31990996Y-25424816D01*
X31659017Y-25646637D01*
G36*
X32358754Y-60264620D02*
G01*
X32190986Y-60354294D01*
X31964866Y-60539866D01*
X31779294Y-60765986D01*
X31750000Y-60820791D01*
X31720706Y-60765986D01*
X31535134Y-60539866D01*
X31309014Y-60354294D01*
X31051034Y-60216401D01*
X30771111Y-60131487D01*
X30552950Y-60110000D01*
X30407050Y-60110000D01*
X30188889Y-60131487D01*
X29908966Y-60216401D01*
X29702584Y-60326714D01*
X27105001Y-57729132D01*
X27105001Y-55010866D01*
X32358754Y-60264620D01*
X32358754Y-60264620D01*
G37*
X32358754Y-60264620D02*
X32190986Y-60354294D01*
X31964866Y-60539866D01*
X31779294Y-60765986D01*
X31750000Y-60820791D01*
X31720706Y-60765986D01*
X31535134Y-60539866D01*
X31309014Y-60354294D01*
X31051034Y-60216401D01*
X30771111Y-60131487D01*
X30552950Y-60110000D01*
X30407050Y-60110000D01*
X30188889Y-60131487D01*
X29908966Y-60216401D01*
X29702584Y-60326714D01*
X27105001Y-57729132D01*
X27105001Y-55010866D01*
X32358754Y-60264620D01*
G36*
X47026360Y-25434549D02*
G01*
X46899017Y-25519637D01*
X46601637Y-25817017D01*
X46367988Y-26166698D01*
X46207047Y-26555244D01*
X46125000Y-26967721D01*
X46125000Y-27388279D01*
X46207047Y-27800756D01*
X46367988Y-28189302D01*
X46601637Y-28538983D01*
X46899017Y-28836363D01*
X47248698Y-29070012D01*
X47637244Y-29230953D01*
X48049721Y-29313000D01*
X48470279Y-29313000D01*
X48882756Y-29230953D01*
X49271302Y-29070012D01*
X49620983Y-28836363D01*
X49918363Y-28538983D01*
X50152012Y-28189302D01*
X50312953Y-27800756D01*
X50395000Y-27388279D01*
X50395000Y-26967721D01*
X50312953Y-26555244D01*
X50152012Y-26166698D01*
X49918363Y-25817017D01*
X49660860Y-25559514D01*
X50557075Y-25637432D01*
X52619411Y-25966616D01*
X54652927Y-26442407D01*
X56647228Y-27062374D01*
X58592095Y-27823340D01*
X60477577Y-28721411D01*
X62294030Y-29751994D01*
X64032160Y-30909819D01*
X65683037Y-32188935D01*
X67238251Y-33582823D01*
X68689822Y-35084336D01*
X70030324Y-36685791D01*
X71252890Y-38378981D01*
X72351275Y-40155258D01*
X73319843Y-42005509D01*
X74153650Y-43920288D01*
X74848422Y-45889787D01*
X75400597Y-47903895D01*
X75807358Y-49952347D01*
X76066618Y-52024634D01*
X76103537Y-52721843D01*
X75904038Y-52423271D01*
X75592729Y-52111962D01*
X75226669Y-51867369D01*
X74819925Y-51698890D01*
X74388128Y-51613000D01*
X73947872Y-51613000D01*
X73516075Y-51698890D01*
X73109331Y-51867369D01*
X72743271Y-52111962D01*
X72431962Y-52423271D01*
X72187369Y-52789331D01*
X72018890Y-53196075D01*
X71933000Y-53627872D01*
X71933000Y-54068128D01*
X72018890Y-54499925D01*
X72187369Y-54906669D01*
X72431962Y-55272729D01*
X72743271Y-55584038D01*
X73109331Y-55828631D01*
X73172991Y-55855000D01*
X53307581Y-55855000D01*
X53279135Y-55857802D01*
X53271318Y-55857747D01*
X53262147Y-55858646D01*
X53015644Y-55884554D01*
X52957028Y-55896586D01*
X52898284Y-55907792D01*
X52889462Y-55910456D01*
X52652686Y-55983751D01*
X52597555Y-56006926D01*
X52542080Y-56029339D01*
X52533944Y-56033666D01*
X52315914Y-56151554D01*
X52266346Y-56184988D01*
X52216265Y-56217760D01*
X52209124Y-56223584D01*
X52018144Y-56381577D01*
X51976005Y-56424012D01*
X51933255Y-56465875D01*
X51927381Y-56472976D01*
X51770727Y-56665054D01*
X51737655Y-56714831D01*
X51703826Y-56764237D01*
X51699444Y-56772343D01*
X51583081Y-56991191D01*
X51560298Y-57046468D01*
X51536721Y-57101475D01*
X51533997Y-57110278D01*
X51462357Y-57347559D01*
X51450736Y-57406246D01*
X51438300Y-57464752D01*
X51437337Y-57473917D01*
X51413150Y-57720595D01*
X51410000Y-57752582D01*
X51410000Y-60237229D01*
X51371034Y-60216401D01*
X51091111Y-60131487D01*
X50872950Y-60110000D01*
X50727050Y-60110000D01*
X50508889Y-60131487D01*
X50345001Y-60181202D01*
X50345001Y-59076019D01*
X50349041Y-59035001D01*
X50332919Y-58871313D01*
X50293416Y-58741086D01*
X50285173Y-58713914D01*
X50207637Y-58568855D01*
X50103292Y-58441710D01*
X50071432Y-58415563D01*
X49514445Y-57858578D01*
X49488291Y-57826709D01*
X49361146Y-57722364D01*
X49216087Y-57644828D01*
X49058689Y-57597082D01*
X48936019Y-57585000D01*
X48936018Y-57585000D01*
X48895000Y-57580960D01*
X48853982Y-57585000D01*
X33349114Y-57585000D01*
X31587192Y-55823078D01*
X31723273Y-55914005D01*
X31977510Y-56019314D01*
X32247408Y-56073000D01*
X32522592Y-56073000D01*
X32792490Y-56019314D01*
X33046727Y-55914005D01*
X33275535Y-55761120D01*
X33470120Y-55566535D01*
X33623005Y-55337727D01*
X33728314Y-55083490D01*
X33782000Y-54813592D01*
X33782000Y-54538408D01*
X33728314Y-54268510D01*
X33641922Y-54059942D01*
X35417417Y-54059942D01*
X35484397Y-54300033D01*
X35733425Y-54417133D01*
X36000512Y-54483400D01*
X36275394Y-54496287D01*
X36547510Y-54455299D01*
X36806400Y-54362013D01*
X36922357Y-54300033D01*
X36989337Y-54059942D01*
X36203377Y-53273982D01*
X35417417Y-54059942D01*
X33641922Y-54059942D01*
X33623005Y-54014273D01*
X33470120Y-53785465D01*
X33275535Y-53590880D01*
X33046727Y-53437995D01*
X32792490Y-53332686D01*
X32522592Y-53279000D01*
X32247408Y-53279000D01*
X31977510Y-53332686D01*
X31723273Y-53437995D01*
X31494465Y-53590880D01*
X31299880Y-53785465D01*
X31146995Y-54014273D01*
X31041686Y-54268510D01*
X30988000Y-54538408D01*
X30988000Y-54813592D01*
X31041686Y-55083490D01*
X31146995Y-55337727D01*
X31237922Y-55473809D01*
X29690709Y-53926596D01*
X29804628Y-53756104D01*
X29909937Y-53501867D01*
X29963623Y-53231969D01*
X29963623Y-53166394D01*
X34801467Y-53166394D01*
X34842455Y-53438510D01*
X34935741Y-53697400D01*
X34997721Y-53813357D01*
X35237812Y-53880337D01*
X36023772Y-53094377D01*
X36382982Y-53094377D01*
X37168942Y-53880337D01*
X37409033Y-53813357D01*
X37526133Y-53564329D01*
X37592400Y-53297242D01*
X37605287Y-53022360D01*
X37564299Y-52750244D01*
X37471013Y-52491354D01*
X37409033Y-52375397D01*
X37168942Y-52308417D01*
X36382982Y-53094377D01*
X36023772Y-53094377D01*
X35237812Y-52308417D01*
X34997721Y-52375397D01*
X34880621Y-52624425D01*
X34814354Y-52891512D01*
X34801467Y-53166394D01*
X29963623Y-53166394D01*
X29963623Y-52956785D01*
X29909937Y-52686887D01*
X29804628Y-52432650D01*
X29651743Y-52203842D01*
X29576713Y-52128812D01*
X35417417Y-52128812D01*
X36203377Y-52914772D01*
X36989337Y-52128812D01*
X36922357Y-51888721D01*
X36673329Y-51771621D01*
X36406242Y-51705354D01*
X36131360Y-51692467D01*
X35859244Y-51733455D01*
X35600354Y-51826741D01*
X35484397Y-51888721D01*
X35417417Y-52128812D01*
X29576713Y-52128812D01*
X29457158Y-52009257D01*
X29401623Y-51972150D01*
X29401623Y-51486500D01*
X62282786Y-51486500D01*
X62282786Y-55306500D01*
X69924215Y-55306500D01*
X69924215Y-51486500D01*
X62282786Y-51486500D01*
X29401623Y-51486500D01*
X29401623Y-46579850D01*
X29457158Y-46542743D01*
X29576713Y-46423188D01*
X35417417Y-46423188D01*
X35484397Y-46663279D01*
X35733425Y-46780379D01*
X36000512Y-46846646D01*
X36275394Y-46859533D01*
X36547510Y-46818545D01*
X36806400Y-46725259D01*
X36922357Y-46663279D01*
X36989337Y-46423188D01*
X36203377Y-45637228D01*
X35417417Y-46423188D01*
X29576713Y-46423188D01*
X29651743Y-46348158D01*
X29688850Y-46292623D01*
X33749359Y-46292623D01*
X33790377Y-46296663D01*
X33831395Y-46292623D01*
X33831396Y-46292623D01*
X33954066Y-46280541D01*
X34111464Y-46232795D01*
X34256523Y-46155259D01*
X34383668Y-46050914D01*
X34409823Y-46019044D01*
X34814265Y-45614602D01*
X34842455Y-45801756D01*
X34935741Y-46060646D01*
X34997721Y-46176603D01*
X35237812Y-46243583D01*
X36023772Y-45457623D01*
X36382982Y-45457623D01*
X37168942Y-46243583D01*
X37409033Y-46176603D01*
X37526133Y-45927575D01*
X37592400Y-45660488D01*
X37605287Y-45385606D01*
X37564299Y-45113490D01*
X37471013Y-44854600D01*
X37409033Y-44738643D01*
X37168942Y-44671663D01*
X36382982Y-45457623D01*
X36023772Y-45457623D01*
X36009630Y-45443481D01*
X36189235Y-45263876D01*
X36203377Y-45278018D01*
X36989337Y-44492058D01*
X36922357Y-44251967D01*
X36673329Y-44134867D01*
X36406242Y-44068600D01*
X36362326Y-44066541D01*
X42979428Y-37449440D01*
X43011291Y-37423291D01*
X43115636Y-37296146D01*
X43193172Y-37151087D01*
X43240918Y-36993689D01*
X43253000Y-36871019D01*
X43253000Y-36871009D01*
X43257039Y-36830001D01*
X43253000Y-36788993D01*
X43253000Y-34127867D01*
X43779868Y-33601000D01*
X45170982Y-33601000D01*
X45212000Y-33605040D01*
X45253018Y-33601000D01*
X45253019Y-33601000D01*
X45375689Y-33588918D01*
X45533087Y-33541172D01*
X45678146Y-33463636D01*
X45805291Y-33359291D01*
X45831446Y-33327421D01*
X45876774Y-33282093D01*
X46021898Y-33253226D01*
X46210256Y-33175205D01*
X46379774Y-33061937D01*
X46523937Y-32917774D01*
X46637205Y-32748256D01*
X46715226Y-32559898D01*
X46755000Y-32359939D01*
X46755000Y-32292999D01*
X47622132Y-32292999D01*
X54855908Y-39526776D01*
X54884774Y-39671898D01*
X54962795Y-39860256D01*
X55076063Y-40029774D01*
X55220226Y-40173937D01*
X55389744Y-40287205D01*
X55510082Y-40337051D01*
X55280133Y-40567000D01*
X46223263Y-40567000D01*
X46100234Y-40484795D01*
X45911876Y-40406774D01*
X45711917Y-40367000D01*
X45508039Y-40367000D01*
X45308080Y-40406774D01*
X45119722Y-40484795D01*
X45009933Y-40558153D01*
X45009933Y-40151652D01*
X45065188Y-40128764D01*
X45234706Y-40015496D01*
X45378869Y-39871333D01*
X45492137Y-39701815D01*
X45570158Y-39513457D01*
X45609932Y-39313498D01*
X45609932Y-39109620D01*
X45570158Y-38909661D01*
X45492137Y-38721303D01*
X45378869Y-38551785D01*
X45254084Y-38427000D01*
X49170715Y-38427000D01*
X49293744Y-38509205D01*
X49482102Y-38587226D01*
X49682061Y-38627000D01*
X49885939Y-38627000D01*
X50085898Y-38587226D01*
X50274256Y-38509205D01*
X50443774Y-38395937D01*
X50587937Y-38251774D01*
X50701205Y-38082256D01*
X50779226Y-37893898D01*
X50819000Y-37693939D01*
X50819000Y-37490061D01*
X50779226Y-37290102D01*
X50701205Y-37101744D01*
X50587937Y-36932226D01*
X50443774Y-36788063D01*
X50274256Y-36674795D01*
X50085898Y-36596774D01*
X49885939Y-36557000D01*
X49682061Y-36557000D01*
X49482102Y-36596774D01*
X49293744Y-36674795D01*
X49170715Y-36757000D01*
X44548047Y-36757000D01*
X44507029Y-36752960D01*
X44466011Y-36757000D01*
X44466010Y-36757000D01*
X44343340Y-36769082D01*
X44280768Y-36788063D01*
X44185942Y-36816828D01*
X44040883Y-36894364D01*
X43991518Y-36934877D01*
X43913738Y-36998709D01*
X43887592Y-37030568D01*
X42218135Y-38700026D01*
X42073012Y-38728893D01*
X41884654Y-38806914D01*
X41715136Y-38920182D01*
X41570973Y-39064345D01*
X41457705Y-39233863D01*
X41379684Y-39422221D01*
X41339910Y-39622180D01*
X41339910Y-39826058D01*
X41379684Y-40026017D01*
X41457705Y-40214375D01*
X41570973Y-40383893D01*
X41715136Y-40528056D01*
X41884654Y-40641324D01*
X42073012Y-40719345D01*
X42272971Y-40759119D01*
X42476849Y-40759119D01*
X42676808Y-40719345D01*
X42865166Y-40641324D01*
X43034684Y-40528056D01*
X43178847Y-40383893D01*
X43292115Y-40214375D01*
X43339933Y-40098933D01*
X43339934Y-46605920D01*
X43335893Y-46646948D01*
X43352015Y-46810636D01*
X43399761Y-46968034D01*
X43477297Y-47113093D01*
X43491620Y-47130545D01*
X43581643Y-47240239D01*
X43613507Y-47266389D01*
X45206544Y-48859426D01*
X45232694Y-48891291D01*
X45313704Y-48957774D01*
X45359839Y-48995636D01*
X45504898Y-49073172D01*
X45662296Y-49120918D01*
X45825984Y-49137040D01*
X45867003Y-49133000D01*
X48916715Y-49133000D01*
X49039744Y-49215205D01*
X49228102Y-49293226D01*
X49428061Y-49333000D01*
X49631939Y-49333000D01*
X49831898Y-49293226D01*
X50020256Y-49215205D01*
X50189774Y-49101937D01*
X50333937Y-48957774D01*
X50447205Y-48788256D01*
X50525226Y-48599898D01*
X50565000Y-48399939D01*
X50565000Y-48333000D01*
X58822715Y-48333000D01*
X58945744Y-48415205D01*
X59134102Y-48493226D01*
X59334061Y-48533000D01*
X59537939Y-48533000D01*
X59737898Y-48493226D01*
X59926256Y-48415205D01*
X60095774Y-48301937D01*
X60239937Y-48157774D01*
X60353205Y-47988256D01*
X60431226Y-47799898D01*
X60471000Y-47599939D01*
X60471000Y-47396061D01*
X60431226Y-47196102D01*
X60353205Y-47007744D01*
X60239937Y-46838226D01*
X60095774Y-46694063D01*
X59926256Y-46580795D01*
X59737898Y-46502774D01*
X59537939Y-46463000D01*
X59334061Y-46463000D01*
X59134102Y-46502774D01*
X58945744Y-46580795D01*
X58822715Y-46663000D01*
X49962093Y-46663000D01*
X50017226Y-46529898D01*
X50057000Y-46329939D01*
X50057000Y-46126061D01*
X50017226Y-45926102D01*
X49939205Y-45737744D01*
X49825937Y-45568226D01*
X49681774Y-45424063D01*
X49512256Y-45310795D01*
X49323898Y-45232774D01*
X49123939Y-45193000D01*
X48920061Y-45193000D01*
X48720102Y-45232774D01*
X48531744Y-45310795D01*
X48408715Y-45393000D01*
X47081868Y-45393000D01*
X46236093Y-44547225D01*
X46207226Y-44402102D01*
X46129205Y-44213744D01*
X46015937Y-44044226D01*
X45871774Y-43900063D01*
X45851574Y-43886566D01*
X45956256Y-43843205D01*
X46125774Y-43729937D01*
X46269937Y-43585774D01*
X46383205Y-43416256D01*
X46406093Y-43361001D01*
X55476981Y-43361001D01*
X55517999Y-43365041D01*
X55559017Y-43361001D01*
X55559018Y-43361001D01*
X55681688Y-43348919D01*
X55839086Y-43301173D01*
X55984145Y-43223637D01*
X56111290Y-43119292D01*
X56137445Y-43087422D01*
X58257869Y-40967000D01*
X66188715Y-40967000D01*
X66311744Y-41049205D01*
X66500102Y-41127226D01*
X66700061Y-41167000D01*
X66903939Y-41167000D01*
X67103898Y-41127226D01*
X67292256Y-41049205D01*
X67461774Y-40935937D01*
X67605937Y-40791774D01*
X67719205Y-40622256D01*
X67745001Y-40559980D01*
X67745000Y-47392719D01*
X67662795Y-47515748D01*
X67584774Y-47704106D01*
X67545000Y-47904065D01*
X67545000Y-48107943D01*
X67584774Y-48307902D01*
X67662795Y-48496260D01*
X67776063Y-48665778D01*
X67920226Y-48809941D01*
X68089744Y-48923209D01*
X68278102Y-49001230D01*
X68478061Y-49041004D01*
X68681939Y-49041004D01*
X68881898Y-49001230D01*
X69070256Y-48923209D01*
X69239774Y-48809941D01*
X69383937Y-48665778D01*
X69497205Y-48496260D01*
X69575226Y-48307902D01*
X69615000Y-48107943D01*
X69615000Y-47904065D01*
X69575226Y-47704106D01*
X69497205Y-47515748D01*
X69415000Y-47392719D01*
X69415000Y-39497005D01*
X69419039Y-39455997D01*
X69415000Y-39414989D01*
X69415000Y-39414979D01*
X69402918Y-39292309D01*
X69355172Y-39134911D01*
X69277636Y-38989852D01*
X69173291Y-38862707D01*
X69141427Y-38836557D01*
X60439447Y-30134578D01*
X60413292Y-30102708D01*
X60286147Y-29998363D01*
X60141088Y-29920827D01*
X59983690Y-29873081D01*
X59861020Y-29860999D01*
X59861019Y-29860999D01*
X59820001Y-29856959D01*
X59778983Y-29860999D01*
X42281029Y-29860999D01*
X42240010Y-29856959D01*
X42198992Y-29860999D01*
X42076322Y-29873081D01*
X41918924Y-29920827D01*
X41773865Y-29998363D01*
X41646720Y-30102708D01*
X41620570Y-30134572D01*
X35314236Y-36440907D01*
X35169112Y-36469774D01*
X34980754Y-36547795D01*
X34811236Y-36661063D01*
X34667073Y-36805226D01*
X34553805Y-36974744D01*
X34475784Y-37163102D01*
X34436010Y-37363061D01*
X34436010Y-37566939D01*
X34475784Y-37766898D01*
X34553805Y-37955256D01*
X34667073Y-38124774D01*
X34811236Y-38268937D01*
X34980754Y-38382205D01*
X35169112Y-38460226D01*
X35369071Y-38500000D01*
X35572949Y-38500000D01*
X35772908Y-38460226D01*
X35961266Y-38382205D01*
X36002166Y-38354876D01*
X36043227Y-38395937D01*
X36212745Y-38509205D01*
X36401103Y-38587226D01*
X36601062Y-38627000D01*
X36804940Y-38627000D01*
X37004899Y-38587226D01*
X37193257Y-38509205D01*
X37362775Y-38395937D01*
X37506938Y-38251774D01*
X37620206Y-38082256D01*
X37698227Y-37893898D01*
X37727094Y-37748774D01*
X41583001Y-33892868D01*
X41583000Y-36484132D01*
X33689190Y-44377943D01*
X33728314Y-44283490D01*
X33782000Y-44013592D01*
X33782000Y-43738408D01*
X33728314Y-43468510D01*
X33623005Y-43214273D01*
X33470120Y-42985465D01*
X33275535Y-42790880D01*
X33046727Y-42637995D01*
X32792490Y-42532686D01*
X32522592Y-42479000D01*
X32247408Y-42479000D01*
X31977510Y-42532686D01*
X31723273Y-42637995D01*
X31494465Y-42790880D01*
X31299880Y-42985465D01*
X31146995Y-43214273D01*
X31041686Y-43468510D01*
X30988000Y-43738408D01*
X30988000Y-44013592D01*
X31041686Y-44283490D01*
X31146995Y-44537727D01*
X31203721Y-44622623D01*
X29688850Y-44622623D01*
X29651743Y-44567088D01*
X29457158Y-44372503D01*
X29228350Y-44219618D01*
X28974113Y-44114309D01*
X28918809Y-44103308D01*
X28969172Y-44009087D01*
X29016918Y-43851689D01*
X29033040Y-43688000D01*
X29029000Y-43646982D01*
X29029000Y-34588346D01*
X29119017Y-34678363D01*
X29468698Y-34912012D01*
X29857244Y-35072953D01*
X30269721Y-35155000D01*
X30690279Y-35155000D01*
X31102756Y-35072953D01*
X31491302Y-34912012D01*
X31840983Y-34678363D01*
X32138363Y-34380983D01*
X32372012Y-34031302D01*
X32532953Y-33642756D01*
X32615000Y-33230279D01*
X32615000Y-32809721D01*
X32532953Y-32397244D01*
X32372012Y-32008698D01*
X32138363Y-31659017D01*
X31840983Y-31361637D01*
X31491302Y-31127988D01*
X31102756Y-30967047D01*
X30690279Y-30885000D01*
X30620868Y-30885000D01*
X32220942Y-29284926D01*
X32397244Y-29357953D01*
X32809721Y-29440000D01*
X33230279Y-29440000D01*
X33642756Y-29357953D01*
X34031302Y-29197012D01*
X34380983Y-28963363D01*
X34678363Y-28665983D01*
X34912012Y-28316302D01*
X35072953Y-27927756D01*
X35155000Y-27515279D01*
X35155000Y-27094721D01*
X35072953Y-26682244D01*
X34912012Y-26293698D01*
X34678363Y-25944017D01*
X34380983Y-25646637D01*
X34048955Y-25424783D01*
X37071116Y-25424736D01*
X36739017Y-25646637D01*
X36441637Y-25944017D01*
X36207988Y-26293698D01*
X36047047Y-26682244D01*
X35965000Y-27094721D01*
X35965000Y-27515279D01*
X36047047Y-27927756D01*
X36120074Y-28104059D01*
X36038579Y-28185553D01*
X36006710Y-28211708D01*
X35902366Y-28338853D01*
X35902365Y-28338854D01*
X35824829Y-28483913D01*
X35777083Y-28641311D01*
X35760961Y-28804999D01*
X35765001Y-28846018D01*
X35765002Y-32269130D01*
X35403225Y-32630908D01*
X35258102Y-32659774D01*
X35069744Y-32737795D01*
X34900226Y-32851063D01*
X34756063Y-32995226D01*
X34642795Y-33164744D01*
X34564774Y-33353102D01*
X34525000Y-33553061D01*
X34525000Y-33756939D01*
X34564774Y-33956898D01*
X34642795Y-34145256D01*
X34756063Y-34314774D01*
X34900226Y-34458937D01*
X35069744Y-34572205D01*
X35258102Y-34650226D01*
X35458061Y-34690000D01*
X35661939Y-34690000D01*
X35861898Y-34650226D01*
X36050256Y-34572205D01*
X36219774Y-34458937D01*
X36363937Y-34314774D01*
X36477205Y-34145256D01*
X36555226Y-33956898D01*
X36584092Y-33811775D01*
X37161433Y-33234436D01*
X37193292Y-33208290D01*
X37297637Y-33081145D01*
X37375173Y-32936086D01*
X37422919Y-32778688D01*
X37435001Y-32656018D01*
X37435001Y-32656017D01*
X37439041Y-32614999D01*
X37435001Y-32573981D01*
X37435001Y-29340455D01*
X37477244Y-29357953D01*
X37889721Y-29440000D01*
X38310279Y-29440000D01*
X38722756Y-29357953D01*
X39111302Y-29197012D01*
X39460983Y-28963363D01*
X39758363Y-28665983D01*
X39992012Y-28316302D01*
X40152953Y-27927756D01*
X40235000Y-27515279D01*
X40235000Y-27094721D01*
X40152953Y-26682244D01*
X39992012Y-26293698D01*
X39758363Y-25944017D01*
X39460983Y-25646637D01*
X39128836Y-25424704D01*
X42151236Y-25424656D01*
X41819017Y-25646637D01*
X41521637Y-25944017D01*
X41287988Y-26293698D01*
X41127047Y-26682244D01*
X41045000Y-27094721D01*
X41045000Y-27515279D01*
X41127047Y-27927756D01*
X41287988Y-28316302D01*
X41521637Y-28665983D01*
X41819017Y-28963363D01*
X42168698Y-29197012D01*
X42557244Y-29357953D01*
X42969721Y-29440000D01*
X43390279Y-29440000D01*
X43802756Y-29357953D01*
X44191302Y-29197012D01*
X44540983Y-28963363D01*
X44838363Y-28665983D01*
X45072012Y-28316302D01*
X45232953Y-27927756D01*
X45315000Y-27515279D01*
X45315000Y-27094721D01*
X45232953Y-26682244D01*
X45072012Y-26293698D01*
X44838363Y-25944017D01*
X44540983Y-25646637D01*
X44208716Y-25424624D01*
X46369640Y-25424590D01*
X47026360Y-25434549D01*
X47026360Y-25434549D01*
G37*
X47026360Y-25434549D02*
X46899017Y-25519637D01*
X46601637Y-25817017D01*
X46367988Y-26166698D01*
X46207047Y-26555244D01*
X46125000Y-26967721D01*
X46125000Y-27388279D01*
X46207047Y-27800756D01*
X46367988Y-28189302D01*
X46601637Y-28538983D01*
X46899017Y-28836363D01*
X47248698Y-29070012D01*
X47637244Y-29230953D01*
X48049721Y-29313000D01*
X48470279Y-29313000D01*
X48882756Y-29230953D01*
X49271302Y-29070012D01*
X49620983Y-28836363D01*
X49918363Y-28538983D01*
X50152012Y-28189302D01*
X50312953Y-27800756D01*
X50395000Y-27388279D01*
X50395000Y-26967721D01*
X50312953Y-26555244D01*
X50152012Y-26166698D01*
X49918363Y-25817017D01*
X49660860Y-25559514D01*
X50557075Y-25637432D01*
X52619411Y-25966616D01*
X54652927Y-26442407D01*
X56647228Y-27062374D01*
X58592095Y-27823340D01*
X60477577Y-28721411D01*
X62294030Y-29751994D01*
X64032160Y-30909819D01*
X65683037Y-32188935D01*
X67238251Y-33582823D01*
X68689822Y-35084336D01*
X70030324Y-36685791D01*
X71252890Y-38378981D01*
X72351275Y-40155258D01*
X73319843Y-42005509D01*
X74153650Y-43920288D01*
X74848422Y-45889787D01*
X75400597Y-47903895D01*
X75807358Y-49952347D01*
X76066618Y-52024634D01*
X76103537Y-52721843D01*
X75904038Y-52423271D01*
X75592729Y-52111962D01*
X75226669Y-51867369D01*
X74819925Y-51698890D01*
X74388128Y-51613000D01*
X73947872Y-51613000D01*
X73516075Y-51698890D01*
X73109331Y-51867369D01*
X72743271Y-52111962D01*
X72431962Y-52423271D01*
X72187369Y-52789331D01*
X72018890Y-53196075D01*
X71933000Y-53627872D01*
X71933000Y-54068128D01*
X72018890Y-54499925D01*
X72187369Y-54906669D01*
X72431962Y-55272729D01*
X72743271Y-55584038D01*
X73109331Y-55828631D01*
X73172991Y-55855000D01*
X53307581Y-55855000D01*
X53279135Y-55857802D01*
X53271318Y-55857747D01*
X53262147Y-55858646D01*
X53015644Y-55884554D01*
X52957028Y-55896586D01*
X52898284Y-55907792D01*
X52889462Y-55910456D01*
X52652686Y-55983751D01*
X52597555Y-56006926D01*
X52542080Y-56029339D01*
X52533944Y-56033666D01*
X52315914Y-56151554D01*
X52266346Y-56184988D01*
X52216265Y-56217760D01*
X52209124Y-56223584D01*
X52018144Y-56381577D01*
X51976005Y-56424012D01*
X51933255Y-56465875D01*
X51927381Y-56472976D01*
X51770727Y-56665054D01*
X51737655Y-56714831D01*
X51703826Y-56764237D01*
X51699444Y-56772343D01*
X51583081Y-56991191D01*
X51560298Y-57046468D01*
X51536721Y-57101475D01*
X51533997Y-57110278D01*
X51462357Y-57347559D01*
X51450736Y-57406246D01*
X51438300Y-57464752D01*
X51437337Y-57473917D01*
X51413150Y-57720595D01*
X51410000Y-57752582D01*
X51410000Y-60237229D01*
X51371034Y-60216401D01*
X51091111Y-60131487D01*
X50872950Y-60110000D01*
X50727050Y-60110000D01*
X50508889Y-60131487D01*
X50345001Y-60181202D01*
X50345001Y-59076019D01*
X50349041Y-59035001D01*
X50332919Y-58871313D01*
X50293416Y-58741086D01*
X50285173Y-58713914D01*
X50207637Y-58568855D01*
X50103292Y-58441710D01*
X50071432Y-58415563D01*
X49514445Y-57858578D01*
X49488291Y-57826709D01*
X49361146Y-57722364D01*
X49216087Y-57644828D01*
X49058689Y-57597082D01*
X48936019Y-57585000D01*
X48936018Y-57585000D01*
X48895000Y-57580960D01*
X48853982Y-57585000D01*
X33349114Y-57585000D01*
X31587192Y-55823078D01*
X31723273Y-55914005D01*
X31977510Y-56019314D01*
X32247408Y-56073000D01*
X32522592Y-56073000D01*
X32792490Y-56019314D01*
X33046727Y-55914005D01*
X33275535Y-55761120D01*
X33470120Y-55566535D01*
X33623005Y-55337727D01*
X33728314Y-55083490D01*
X33782000Y-54813592D01*
X33782000Y-54538408D01*
X33728314Y-54268510D01*
X33641922Y-54059942D01*
X35417417Y-54059942D01*
X35484397Y-54300033D01*
X35733425Y-54417133D01*
X36000512Y-54483400D01*
X36275394Y-54496287D01*
X36547510Y-54455299D01*
X36806400Y-54362013D01*
X36922357Y-54300033D01*
X36989337Y-54059942D01*
X36203377Y-53273982D01*
X35417417Y-54059942D01*
X33641922Y-54059942D01*
X33623005Y-54014273D01*
X33470120Y-53785465D01*
X33275535Y-53590880D01*
X33046727Y-53437995D01*
X32792490Y-53332686D01*
X32522592Y-53279000D01*
X32247408Y-53279000D01*
X31977510Y-53332686D01*
X31723273Y-53437995D01*
X31494465Y-53590880D01*
X31299880Y-53785465D01*
X31146995Y-54014273D01*
X31041686Y-54268510D01*
X30988000Y-54538408D01*
X30988000Y-54813592D01*
X31041686Y-55083490D01*
X31146995Y-55337727D01*
X31237922Y-55473809D01*
X29690709Y-53926596D01*
X29804628Y-53756104D01*
X29909937Y-53501867D01*
X29963623Y-53231969D01*
X29963623Y-53166394D01*
X34801467Y-53166394D01*
X34842455Y-53438510D01*
X34935741Y-53697400D01*
X34997721Y-53813357D01*
X35237812Y-53880337D01*
X36023772Y-53094377D01*
X36382982Y-53094377D01*
X37168942Y-53880337D01*
X37409033Y-53813357D01*
X37526133Y-53564329D01*
X37592400Y-53297242D01*
X37605287Y-53022360D01*
X37564299Y-52750244D01*
X37471013Y-52491354D01*
X37409033Y-52375397D01*
X37168942Y-52308417D01*
X36382982Y-53094377D01*
X36023772Y-53094377D01*
X35237812Y-52308417D01*
X34997721Y-52375397D01*
X34880621Y-52624425D01*
X34814354Y-52891512D01*
X34801467Y-53166394D01*
X29963623Y-53166394D01*
X29963623Y-52956785D01*
X29909937Y-52686887D01*
X29804628Y-52432650D01*
X29651743Y-52203842D01*
X29576713Y-52128812D01*
X35417417Y-52128812D01*
X36203377Y-52914772D01*
X36989337Y-52128812D01*
X36922357Y-51888721D01*
X36673329Y-51771621D01*
X36406242Y-51705354D01*
X36131360Y-51692467D01*
X35859244Y-51733455D01*
X35600354Y-51826741D01*
X35484397Y-51888721D01*
X35417417Y-52128812D01*
X29576713Y-52128812D01*
X29457158Y-52009257D01*
X29401623Y-51972150D01*
X29401623Y-51486500D01*
X62282786Y-51486500D01*
X62282786Y-55306500D01*
X69924215Y-55306500D01*
X69924215Y-51486500D01*
X62282786Y-51486500D01*
X29401623Y-51486500D01*
X29401623Y-46579850D01*
X29457158Y-46542743D01*
X29576713Y-46423188D01*
X35417417Y-46423188D01*
X35484397Y-46663279D01*
X35733425Y-46780379D01*
X36000512Y-46846646D01*
X36275394Y-46859533D01*
X36547510Y-46818545D01*
X36806400Y-46725259D01*
X36922357Y-46663279D01*
X36989337Y-46423188D01*
X36203377Y-45637228D01*
X35417417Y-46423188D01*
X29576713Y-46423188D01*
X29651743Y-46348158D01*
X29688850Y-46292623D01*
X33749359Y-46292623D01*
X33790377Y-46296663D01*
X33831395Y-46292623D01*
X33831396Y-46292623D01*
X33954066Y-46280541D01*
X34111464Y-46232795D01*
X34256523Y-46155259D01*
X34383668Y-46050914D01*
X34409823Y-46019044D01*
X34814265Y-45614602D01*
X34842455Y-45801756D01*
X34935741Y-46060646D01*
X34997721Y-46176603D01*
X35237812Y-46243583D01*
X36023772Y-45457623D01*
X36382982Y-45457623D01*
X37168942Y-46243583D01*
X37409033Y-46176603D01*
X37526133Y-45927575D01*
X37592400Y-45660488D01*
X37605287Y-45385606D01*
X37564299Y-45113490D01*
X37471013Y-44854600D01*
X37409033Y-44738643D01*
X37168942Y-44671663D01*
X36382982Y-45457623D01*
X36023772Y-45457623D01*
X36009630Y-45443481D01*
X36189235Y-45263876D01*
X36203377Y-45278018D01*
X36989337Y-44492058D01*
X36922357Y-44251967D01*
X36673329Y-44134867D01*
X36406242Y-44068600D01*
X36362326Y-44066541D01*
X42979428Y-37449440D01*
X43011291Y-37423291D01*
X43115636Y-37296146D01*
X43193172Y-37151087D01*
X43240918Y-36993689D01*
X43253000Y-36871019D01*
X43253000Y-36871009D01*
X43257039Y-36830001D01*
X43253000Y-36788993D01*
X43253000Y-34127867D01*
X43779868Y-33601000D01*
X45170982Y-33601000D01*
X45212000Y-33605040D01*
X45253018Y-33601000D01*
X45253019Y-33601000D01*
X45375689Y-33588918D01*
X45533087Y-33541172D01*
X45678146Y-33463636D01*
X45805291Y-33359291D01*
X45831446Y-33327421D01*
X45876774Y-33282093D01*
X46021898Y-33253226D01*
X46210256Y-33175205D01*
X46379774Y-33061937D01*
X46523937Y-32917774D01*
X46637205Y-32748256D01*
X46715226Y-32559898D01*
X46755000Y-32359939D01*
X46755000Y-32292999D01*
X47622132Y-32292999D01*
X54855908Y-39526776D01*
X54884774Y-39671898D01*
X54962795Y-39860256D01*
X55076063Y-40029774D01*
X55220226Y-40173937D01*
X55389744Y-40287205D01*
X55510082Y-40337051D01*
X55280133Y-40567000D01*
X46223263Y-40567000D01*
X46100234Y-40484795D01*
X45911876Y-40406774D01*
X45711917Y-40367000D01*
X45508039Y-40367000D01*
X45308080Y-40406774D01*
X45119722Y-40484795D01*
X45009933Y-40558153D01*
X45009933Y-40151652D01*
X45065188Y-40128764D01*
X45234706Y-40015496D01*
X45378869Y-39871333D01*
X45492137Y-39701815D01*
X45570158Y-39513457D01*
X45609932Y-39313498D01*
X45609932Y-39109620D01*
X45570158Y-38909661D01*
X45492137Y-38721303D01*
X45378869Y-38551785D01*
X45254084Y-38427000D01*
X49170715Y-38427000D01*
X49293744Y-38509205D01*
X49482102Y-38587226D01*
X49682061Y-38627000D01*
X49885939Y-38627000D01*
X50085898Y-38587226D01*
X50274256Y-38509205D01*
X50443774Y-38395937D01*
X50587937Y-38251774D01*
X50701205Y-38082256D01*
X50779226Y-37893898D01*
X50819000Y-37693939D01*
X50819000Y-37490061D01*
X50779226Y-37290102D01*
X50701205Y-37101744D01*
X50587937Y-36932226D01*
X50443774Y-36788063D01*
X50274256Y-36674795D01*
X50085898Y-36596774D01*
X49885939Y-36557000D01*
X49682061Y-36557000D01*
X49482102Y-36596774D01*
X49293744Y-36674795D01*
X49170715Y-36757000D01*
X44548047Y-36757000D01*
X44507029Y-36752960D01*
X44466011Y-36757000D01*
X44466010Y-36757000D01*
X44343340Y-36769082D01*
X44280768Y-36788063D01*
X44185942Y-36816828D01*
X44040883Y-36894364D01*
X43991518Y-36934877D01*
X43913738Y-36998709D01*
X43887592Y-37030568D01*
X42218135Y-38700026D01*
X42073012Y-38728893D01*
X41884654Y-38806914D01*
X41715136Y-38920182D01*
X41570973Y-39064345D01*
X41457705Y-39233863D01*
X41379684Y-39422221D01*
X41339910Y-39622180D01*
X41339910Y-39826058D01*
X41379684Y-40026017D01*
X41457705Y-40214375D01*
X41570973Y-40383893D01*
X41715136Y-40528056D01*
X41884654Y-40641324D01*
X42073012Y-40719345D01*
X42272971Y-40759119D01*
X42476849Y-40759119D01*
X42676808Y-40719345D01*
X42865166Y-40641324D01*
X43034684Y-40528056D01*
X43178847Y-40383893D01*
X43292115Y-40214375D01*
X43339933Y-40098933D01*
X43339934Y-46605920D01*
X43335893Y-46646948D01*
X43352015Y-46810636D01*
X43399761Y-46968034D01*
X43477297Y-47113093D01*
X43491620Y-47130545D01*
X43581643Y-47240239D01*
X43613507Y-47266389D01*
X45206544Y-48859426D01*
X45232694Y-48891291D01*
X45313704Y-48957774D01*
X45359839Y-48995636D01*
X45504898Y-49073172D01*
X45662296Y-49120918D01*
X45825984Y-49137040D01*
X45867003Y-49133000D01*
X48916715Y-49133000D01*
X49039744Y-49215205D01*
X49228102Y-49293226D01*
X49428061Y-49333000D01*
X49631939Y-49333000D01*
X49831898Y-49293226D01*
X50020256Y-49215205D01*
X50189774Y-49101937D01*
X50333937Y-48957774D01*
X50447205Y-48788256D01*
X50525226Y-48599898D01*
X50565000Y-48399939D01*
X50565000Y-48333000D01*
X58822715Y-48333000D01*
X58945744Y-48415205D01*
X59134102Y-48493226D01*
X59334061Y-48533000D01*
X59537939Y-48533000D01*
X59737898Y-48493226D01*
X59926256Y-48415205D01*
X60095774Y-48301937D01*
X60239937Y-48157774D01*
X60353205Y-47988256D01*
X60431226Y-47799898D01*
X60471000Y-47599939D01*
X60471000Y-47396061D01*
X60431226Y-47196102D01*
X60353205Y-47007744D01*
X60239937Y-46838226D01*
X60095774Y-46694063D01*
X59926256Y-46580795D01*
X59737898Y-46502774D01*
X59537939Y-46463000D01*
X59334061Y-46463000D01*
X59134102Y-46502774D01*
X58945744Y-46580795D01*
X58822715Y-46663000D01*
X49962093Y-46663000D01*
X50017226Y-46529898D01*
X50057000Y-46329939D01*
X50057000Y-46126061D01*
X50017226Y-45926102D01*
X49939205Y-45737744D01*
X49825937Y-45568226D01*
X49681774Y-45424063D01*
X49512256Y-45310795D01*
X49323898Y-45232774D01*
X49123939Y-45193000D01*
X48920061Y-45193000D01*
X48720102Y-45232774D01*
X48531744Y-45310795D01*
X48408715Y-45393000D01*
X47081868Y-45393000D01*
X46236093Y-44547225D01*
X46207226Y-44402102D01*
X46129205Y-44213744D01*
X46015937Y-44044226D01*
X45871774Y-43900063D01*
X45851574Y-43886566D01*
X45956256Y-43843205D01*
X46125774Y-43729937D01*
X46269937Y-43585774D01*
X46383205Y-43416256D01*
X46406093Y-43361001D01*
X55476981Y-43361001D01*
X55517999Y-43365041D01*
X55559017Y-43361001D01*
X55559018Y-43361001D01*
X55681688Y-43348919D01*
X55839086Y-43301173D01*
X55984145Y-43223637D01*
X56111290Y-43119292D01*
X56137445Y-43087422D01*
X58257869Y-40967000D01*
X66188715Y-40967000D01*
X66311744Y-41049205D01*
X66500102Y-41127226D01*
X66700061Y-41167000D01*
X66903939Y-41167000D01*
X67103898Y-41127226D01*
X67292256Y-41049205D01*
X67461774Y-40935937D01*
X67605937Y-40791774D01*
X67719205Y-40622256D01*
X67745001Y-40559980D01*
X67745000Y-47392719D01*
X67662795Y-47515748D01*
X67584774Y-47704106D01*
X67545000Y-47904065D01*
X67545000Y-48107943D01*
X67584774Y-48307902D01*
X67662795Y-48496260D01*
X67776063Y-48665778D01*
X67920226Y-48809941D01*
X68089744Y-48923209D01*
X68278102Y-49001230D01*
X68478061Y-49041004D01*
X68681939Y-49041004D01*
X68881898Y-49001230D01*
X69070256Y-48923209D01*
X69239774Y-48809941D01*
X69383937Y-48665778D01*
X69497205Y-48496260D01*
X69575226Y-48307902D01*
X69615000Y-48107943D01*
X69615000Y-47904065D01*
X69575226Y-47704106D01*
X69497205Y-47515748D01*
X69415000Y-47392719D01*
X69415000Y-39497005D01*
X69419039Y-39455997D01*
X69415000Y-39414989D01*
X69415000Y-39414979D01*
X69402918Y-39292309D01*
X69355172Y-39134911D01*
X69277636Y-38989852D01*
X69173291Y-38862707D01*
X69141427Y-38836557D01*
X60439447Y-30134578D01*
X60413292Y-30102708D01*
X60286147Y-29998363D01*
X60141088Y-29920827D01*
X59983690Y-29873081D01*
X59861020Y-29860999D01*
X59861019Y-29860999D01*
X59820001Y-29856959D01*
X59778983Y-29860999D01*
X42281029Y-29860999D01*
X42240010Y-29856959D01*
X42198992Y-29860999D01*
X42076322Y-29873081D01*
X41918924Y-29920827D01*
X41773865Y-29998363D01*
X41646720Y-30102708D01*
X41620570Y-30134572D01*
X35314236Y-36440907D01*
X35169112Y-36469774D01*
X34980754Y-36547795D01*
X34811236Y-36661063D01*
X34667073Y-36805226D01*
X34553805Y-36974744D01*
X34475784Y-37163102D01*
X34436010Y-37363061D01*
X34436010Y-37566939D01*
X34475784Y-37766898D01*
X34553805Y-37955256D01*
X34667073Y-38124774D01*
X34811236Y-38268937D01*
X34980754Y-38382205D01*
X35169112Y-38460226D01*
X35369071Y-38500000D01*
X35572949Y-38500000D01*
X35772908Y-38460226D01*
X35961266Y-38382205D01*
X36002166Y-38354876D01*
X36043227Y-38395937D01*
X36212745Y-38509205D01*
X36401103Y-38587226D01*
X36601062Y-38627000D01*
X36804940Y-38627000D01*
X37004899Y-38587226D01*
X37193257Y-38509205D01*
X37362775Y-38395937D01*
X37506938Y-38251774D01*
X37620206Y-38082256D01*
X37698227Y-37893898D01*
X37727094Y-37748774D01*
X41583001Y-33892868D01*
X41583000Y-36484132D01*
X33689190Y-44377943D01*
X33728314Y-44283490D01*
X33782000Y-44013592D01*
X33782000Y-43738408D01*
X33728314Y-43468510D01*
X33623005Y-43214273D01*
X33470120Y-42985465D01*
X33275535Y-42790880D01*
X33046727Y-42637995D01*
X32792490Y-42532686D01*
X32522592Y-42479000D01*
X32247408Y-42479000D01*
X31977510Y-42532686D01*
X31723273Y-42637995D01*
X31494465Y-42790880D01*
X31299880Y-42985465D01*
X31146995Y-43214273D01*
X31041686Y-43468510D01*
X30988000Y-43738408D01*
X30988000Y-44013592D01*
X31041686Y-44283490D01*
X31146995Y-44537727D01*
X31203721Y-44622623D01*
X29688850Y-44622623D01*
X29651743Y-44567088D01*
X29457158Y-44372503D01*
X29228350Y-44219618D01*
X28974113Y-44114309D01*
X28918809Y-44103308D01*
X28969172Y-44009087D01*
X29016918Y-43851689D01*
X29033040Y-43688000D01*
X29029000Y-43646982D01*
X29029000Y-34588346D01*
X29119017Y-34678363D01*
X29468698Y-34912012D01*
X29857244Y-35072953D01*
X30269721Y-35155000D01*
X30690279Y-35155000D01*
X31102756Y-35072953D01*
X31491302Y-34912012D01*
X31840983Y-34678363D01*
X32138363Y-34380983D01*
X32372012Y-34031302D01*
X32532953Y-33642756D01*
X32615000Y-33230279D01*
X32615000Y-32809721D01*
X32532953Y-32397244D01*
X32372012Y-32008698D01*
X32138363Y-31659017D01*
X31840983Y-31361637D01*
X31491302Y-31127988D01*
X31102756Y-30967047D01*
X30690279Y-30885000D01*
X30620868Y-30885000D01*
X32220942Y-29284926D01*
X32397244Y-29357953D01*
X32809721Y-29440000D01*
X33230279Y-29440000D01*
X33642756Y-29357953D01*
X34031302Y-29197012D01*
X34380983Y-28963363D01*
X34678363Y-28665983D01*
X34912012Y-28316302D01*
X35072953Y-27927756D01*
X35155000Y-27515279D01*
X35155000Y-27094721D01*
X35072953Y-26682244D01*
X34912012Y-26293698D01*
X34678363Y-25944017D01*
X34380983Y-25646637D01*
X34048955Y-25424783D01*
X37071116Y-25424736D01*
X36739017Y-25646637D01*
X36441637Y-25944017D01*
X36207988Y-26293698D01*
X36047047Y-26682244D01*
X35965000Y-27094721D01*
X35965000Y-27515279D01*
X36047047Y-27927756D01*
X36120074Y-28104059D01*
X36038579Y-28185553D01*
X36006710Y-28211708D01*
X35902366Y-28338853D01*
X35902365Y-28338854D01*
X35824829Y-28483913D01*
X35777083Y-28641311D01*
X35760961Y-28804999D01*
X35765001Y-28846018D01*
X35765002Y-32269130D01*
X35403225Y-32630908D01*
X35258102Y-32659774D01*
X35069744Y-32737795D01*
X34900226Y-32851063D01*
X34756063Y-32995226D01*
X34642795Y-33164744D01*
X34564774Y-33353102D01*
X34525000Y-33553061D01*
X34525000Y-33756939D01*
X34564774Y-33956898D01*
X34642795Y-34145256D01*
X34756063Y-34314774D01*
X34900226Y-34458937D01*
X35069744Y-34572205D01*
X35258102Y-34650226D01*
X35458061Y-34690000D01*
X35661939Y-34690000D01*
X35861898Y-34650226D01*
X36050256Y-34572205D01*
X36219774Y-34458937D01*
X36363937Y-34314774D01*
X36477205Y-34145256D01*
X36555226Y-33956898D01*
X36584092Y-33811775D01*
X37161433Y-33234436D01*
X37193292Y-33208290D01*
X37297637Y-33081145D01*
X37375173Y-32936086D01*
X37422919Y-32778688D01*
X37435001Y-32656018D01*
X37435001Y-32656017D01*
X37439041Y-32614999D01*
X37435001Y-32573981D01*
X37435001Y-29340455D01*
X37477244Y-29357953D01*
X37889721Y-29440000D01*
X38310279Y-29440000D01*
X38722756Y-29357953D01*
X39111302Y-29197012D01*
X39460983Y-28963363D01*
X39758363Y-28665983D01*
X39992012Y-28316302D01*
X40152953Y-27927756D01*
X40235000Y-27515279D01*
X40235000Y-27094721D01*
X40152953Y-26682244D01*
X39992012Y-26293698D01*
X39758363Y-25944017D01*
X39460983Y-25646637D01*
X39128836Y-25424704D01*
X42151236Y-25424656D01*
X41819017Y-25646637D01*
X41521637Y-25944017D01*
X41287988Y-26293698D01*
X41127047Y-26682244D01*
X41045000Y-27094721D01*
X41045000Y-27515279D01*
X41127047Y-27927756D01*
X41287988Y-28316302D01*
X41521637Y-28665983D01*
X41819017Y-28963363D01*
X42168698Y-29197012D01*
X42557244Y-29357953D01*
X42969721Y-29440000D01*
X43390279Y-29440000D01*
X43802756Y-29357953D01*
X44191302Y-29197012D01*
X44540983Y-28963363D01*
X44838363Y-28665983D01*
X45072012Y-28316302D01*
X45232953Y-27927756D01*
X45315000Y-27515279D01*
X45315000Y-27094721D01*
X45232953Y-26682244D01*
X45072012Y-26293698D01*
X44838363Y-25944017D01*
X44540983Y-25646637D01*
X44208716Y-25424624D01*
X46369640Y-25424590D01*
X47026360Y-25434549D01*
G36*
X67073951Y-39130817D02*
G01*
X66903939Y-39097000D01*
X66700061Y-39097000D01*
X66500102Y-39136774D01*
X66311744Y-39214795D01*
X66188715Y-39297000D01*
X58911868Y-39297000D01*
X59997432Y-38211437D01*
X60029291Y-38185291D01*
X60062492Y-38144836D01*
X60133636Y-38058146D01*
X60211172Y-37913087D01*
X60258918Y-37755688D01*
X60265936Y-37684439D01*
X60271000Y-37633019D01*
X60271000Y-37633018D01*
X60275040Y-37592000D01*
X60271000Y-37550982D01*
X60271000Y-32327865D01*
X67073951Y-39130817D01*
X67073951Y-39130817D01*
G37*
X67073951Y-39130817D02*
X66903939Y-39097000D01*
X66700061Y-39097000D01*
X66500102Y-39136774D01*
X66311744Y-39214795D01*
X66188715Y-39297000D01*
X58911868Y-39297000D01*
X59997432Y-38211437D01*
X60029291Y-38185291D01*
X60062492Y-38144836D01*
X60133636Y-38058146D01*
X60211172Y-37913087D01*
X60258918Y-37755688D01*
X60265936Y-37684439D01*
X60271000Y-37633019D01*
X60271000Y-37633018D01*
X60275040Y-37592000D01*
X60271000Y-37550982D01*
X60271000Y-32327865D01*
X67073951Y-39130817D01*
G36*
X58401000Y-31597939D02*
G01*
X58440774Y-31797898D01*
X58518795Y-31986256D01*
X58601000Y-32109285D01*
X58601001Y-37246130D01*
X56847051Y-39000081D01*
X56797205Y-38879744D01*
X56683937Y-38710226D01*
X56539774Y-38566063D01*
X56370256Y-38452795D01*
X56181898Y-38374774D01*
X56036776Y-38345908D01*
X49221866Y-31530999D01*
X58401000Y-31530999D01*
X58401000Y-31597939D01*
X58401000Y-31597939D01*
G37*
X58401000Y-31597939D02*
X58440774Y-31797898D01*
X58518795Y-31986256D01*
X58601000Y-32109285D01*
X58601001Y-37246130D01*
X56847051Y-39000081D01*
X56797205Y-38879744D01*
X56683937Y-38710226D01*
X56539774Y-38566063D01*
X56370256Y-38452795D01*
X56181898Y-38374774D01*
X56036776Y-38345908D01*
X49221866Y-31530999D01*
X58401000Y-31530999D01*
X58401000Y-31597939D01*
M02*
