%FSLAX45Y45*%
G04 Gerber Fmt 4.5, Leading zero omitted, Abs format (unit mm)*
G04 Created by KiCad (PCBNEW (5.1.4)-1) date 2019-12-12 19:55:22*
%MOMM*%
%LPD*%
G04 APERTURE LIST*
%ADD10C,0.050000*%
%ADD11C,0.200000*%
%ADD12C,0.300000*%
G04 APERTURE END LIST*
D10*
X7683500Y-5524500D02*
G75*
G02X7556500Y-5651500I-127000J0D01*
G01*
X4637466Y-2476459D02*
G75*
G02X7683500Y-5524500I61534J-2984541D01*
G01*
X1905000Y-2603500D02*
G75*
G02X2032000Y-2476500I127000J0D01*
G01*
X5207000Y-5778500D02*
G75*
G02X5334000Y-5651500I127000J0D01*
G01*
X7556500Y-5651500D02*
X5334000Y-5651500D01*
X5207000Y-5778500D02*
X5207000Y-6532000D01*
X1905000Y-6532000D02*
X5207000Y-6532000D01*
X2032000Y-2476500D02*
X4637466Y-2476459D01*
X1905000Y-2603500D02*
X1905000Y-6532000D01*
D11*
X1999000Y-2570500D02*
X2319000Y-2890500D01*
X2319000Y-2570500D02*
X1999000Y-2890500D01*
X7256800Y-5224800D02*
X7576800Y-5544800D01*
X7576800Y-5224800D02*
X7256800Y-5544800D01*
D12*
X2188928Y-7000214D02*
X2188928Y-6700214D01*
X2260357Y-6700214D01*
X2303214Y-6714500D01*
X2331786Y-6743071D01*
X2346071Y-6771643D01*
X2360357Y-6828786D01*
X2360357Y-6871643D01*
X2346071Y-6928786D01*
X2331786Y-6957357D01*
X2303214Y-6985929D01*
X2260357Y-7000214D01*
X2188928Y-7000214D01*
X2488928Y-7000214D02*
X2488928Y-6800214D01*
X2488928Y-6857357D02*
X2503214Y-6828786D01*
X2517500Y-6814500D01*
X2546071Y-6800214D01*
X2574643Y-6800214D01*
X2674643Y-7000214D02*
X2674643Y-6800214D01*
X2674643Y-6700214D02*
X2660357Y-6714500D01*
X2674643Y-6728786D01*
X2688928Y-6714500D01*
X2674643Y-6700214D01*
X2674643Y-6728786D01*
X2860357Y-7000214D02*
X2831786Y-6985929D01*
X2817500Y-6957357D01*
X2817500Y-6700214D01*
X3017500Y-7000214D02*
X2988928Y-6985929D01*
X2974643Y-6957357D01*
X2974643Y-6700214D01*
X3360357Y-7000214D02*
X3360357Y-6700214D01*
X3460357Y-6914500D01*
X3560357Y-6700214D01*
X3560357Y-7000214D01*
X3831786Y-7000214D02*
X3831786Y-6843071D01*
X3817500Y-6814500D01*
X3788928Y-6800214D01*
X3731786Y-6800214D01*
X3703214Y-6814500D01*
X3831786Y-6985929D02*
X3803214Y-7000214D01*
X3731786Y-7000214D01*
X3703214Y-6985929D01*
X3688928Y-6957357D01*
X3688928Y-6928786D01*
X3703214Y-6900214D01*
X3731786Y-6885929D01*
X3803214Y-6885929D01*
X3831786Y-6871643D01*
X3974643Y-6800214D02*
X3974643Y-7100214D01*
X3974643Y-6814500D02*
X4003214Y-6800214D01*
X4060357Y-6800214D01*
X4088928Y-6814500D01*
X4103214Y-6828786D01*
X4117500Y-6857357D01*
X4117500Y-6943071D01*
X4103214Y-6971643D01*
X4088928Y-6985929D01*
X4060357Y-7000214D01*
X4003214Y-7000214D01*
X3974643Y-6985929D01*
X4246071Y-6971643D02*
X4260357Y-6985929D01*
X4246071Y-7000214D01*
X4231786Y-6985929D01*
X4246071Y-6971643D01*
X4246071Y-7000214D01*
X4246071Y-6814500D02*
X4260357Y-6828786D01*
X4246071Y-6843071D01*
X4231786Y-6828786D01*
X4246071Y-6814500D01*
X4246071Y-6843071D01*
X1582500Y-7334500D02*
X1902500Y-7654500D01*
X1902500Y-7334500D02*
X1582500Y-7654500D01*
X2160357Y-7330214D02*
X2346071Y-7330214D01*
X2246071Y-7444500D01*
X2288928Y-7444500D01*
X2317500Y-7458786D01*
X2331786Y-7473071D01*
X2346071Y-7501643D01*
X2346071Y-7573071D01*
X2331786Y-7601643D01*
X2317500Y-7615929D01*
X2288928Y-7630214D01*
X2203214Y-7630214D01*
X2174643Y-7615929D01*
X2160357Y-7601643D01*
X2474643Y-7601643D02*
X2488928Y-7615929D01*
X2474643Y-7630214D01*
X2460357Y-7615929D01*
X2474643Y-7601643D01*
X2474643Y-7630214D01*
X2603214Y-7358786D02*
X2617500Y-7344500D01*
X2646071Y-7330214D01*
X2717500Y-7330214D01*
X2746071Y-7344500D01*
X2760357Y-7358786D01*
X2774643Y-7387357D01*
X2774643Y-7415929D01*
X2760357Y-7458786D01*
X2588928Y-7630214D01*
X2774643Y-7630214D01*
X2960357Y-7330214D02*
X2988928Y-7330214D01*
X3017500Y-7344500D01*
X3031786Y-7358786D01*
X3046071Y-7387357D01*
X3060357Y-7444500D01*
X3060357Y-7515929D01*
X3046071Y-7573071D01*
X3031786Y-7601643D01*
X3017500Y-7615929D01*
X2988928Y-7630214D01*
X2960357Y-7630214D01*
X2931786Y-7615929D01*
X2917500Y-7601643D01*
X2903214Y-7573071D01*
X2888928Y-7515929D01*
X2888928Y-7444500D01*
X2903214Y-7387357D01*
X2917500Y-7358786D01*
X2931786Y-7344500D01*
X2960357Y-7330214D01*
X3188928Y-7630214D02*
X3188928Y-7430214D01*
X3188928Y-7458786D02*
X3203214Y-7444500D01*
X3231786Y-7430214D01*
X3274643Y-7430214D01*
X3303214Y-7444500D01*
X3317500Y-7473071D01*
X3317500Y-7630214D01*
X3317500Y-7473071D02*
X3331786Y-7444500D01*
X3360357Y-7430214D01*
X3403214Y-7430214D01*
X3431786Y-7444500D01*
X3446071Y-7473071D01*
X3446071Y-7630214D01*
X3588928Y-7630214D02*
X3588928Y-7430214D01*
X3588928Y-7458786D02*
X3603214Y-7444500D01*
X3631786Y-7430214D01*
X3674643Y-7430214D01*
X3703214Y-7444500D01*
X3717500Y-7473071D01*
X3717500Y-7630214D01*
X3717500Y-7473071D02*
X3731786Y-7444500D01*
X3760357Y-7430214D01*
X3803214Y-7430214D01*
X3831786Y-7444500D01*
X3846071Y-7473071D01*
X3846071Y-7630214D01*
X4431786Y-7315929D02*
X4174643Y-7701643D01*
X4817500Y-7330214D02*
X4846071Y-7330214D01*
X4874643Y-7344500D01*
X4888928Y-7358786D01*
X4903214Y-7387357D01*
X4917500Y-7444500D01*
X4917500Y-7515929D01*
X4903214Y-7573071D01*
X4888928Y-7601643D01*
X4874643Y-7615929D01*
X4846071Y-7630214D01*
X4817500Y-7630214D01*
X4788928Y-7615929D01*
X4774643Y-7601643D01*
X4760357Y-7573071D01*
X4746071Y-7515929D01*
X4746071Y-7444500D01*
X4760357Y-7387357D01*
X4774643Y-7358786D01*
X4788928Y-7344500D01*
X4817500Y-7330214D01*
X5046071Y-7601643D02*
X5060357Y-7615929D01*
X5046071Y-7630214D01*
X5031786Y-7615929D01*
X5046071Y-7601643D01*
X5046071Y-7630214D01*
X5346071Y-7630214D02*
X5174643Y-7630214D01*
X5260357Y-7630214D02*
X5260357Y-7330214D01*
X5231786Y-7373071D01*
X5203214Y-7401643D01*
X5174643Y-7415929D01*
X5460357Y-7358786D02*
X5474643Y-7344500D01*
X5503214Y-7330214D01*
X5574643Y-7330214D01*
X5603214Y-7344500D01*
X5617500Y-7358786D01*
X5631786Y-7387357D01*
X5631786Y-7415929D01*
X5617500Y-7458786D01*
X5446071Y-7630214D01*
X5631786Y-7630214D01*
X5888928Y-7330214D02*
X5831786Y-7330214D01*
X5803214Y-7344500D01*
X5788928Y-7358786D01*
X5760357Y-7401643D01*
X5746071Y-7458786D01*
X5746071Y-7573071D01*
X5760357Y-7601643D01*
X5774643Y-7615929D01*
X5803214Y-7630214D01*
X5860357Y-7630214D01*
X5888928Y-7615929D01*
X5903214Y-7601643D01*
X5917500Y-7573071D01*
X5917500Y-7501643D01*
X5903214Y-7473071D01*
X5888928Y-7458786D01*
X5860357Y-7444500D01*
X5803214Y-7444500D01*
X5774643Y-7458786D01*
X5760357Y-7473071D01*
X5746071Y-7501643D01*
X6031786Y-7330214D02*
X6031786Y-7387357D01*
X6146071Y-7330214D02*
X6146071Y-7387357D01*
X6588928Y-7744500D02*
X6574643Y-7730214D01*
X6546071Y-7687357D01*
X6531786Y-7658786D01*
X6517500Y-7615929D01*
X6503214Y-7544500D01*
X6503214Y-7487357D01*
X6517500Y-7415929D01*
X6531786Y-7373071D01*
X6546071Y-7344500D01*
X6574643Y-7301643D01*
X6588928Y-7287357D01*
X6688928Y-7358786D02*
X6703214Y-7344500D01*
X6731786Y-7330214D01*
X6803214Y-7330214D01*
X6831786Y-7344500D01*
X6846071Y-7358786D01*
X6860357Y-7387357D01*
X6860357Y-7415929D01*
X6846071Y-7458786D01*
X6674643Y-7630214D01*
X6860357Y-7630214D01*
X7217500Y-7630214D02*
X7217500Y-7330214D01*
X7346071Y-7630214D02*
X7346071Y-7473071D01*
X7331786Y-7444500D01*
X7303214Y-7430214D01*
X7260357Y-7430214D01*
X7231786Y-7444500D01*
X7217500Y-7458786D01*
X7531786Y-7630214D02*
X7503214Y-7615929D01*
X7488928Y-7601643D01*
X7474643Y-7573071D01*
X7474643Y-7487357D01*
X7488928Y-7458786D01*
X7503214Y-7444500D01*
X7531786Y-7430214D01*
X7574643Y-7430214D01*
X7603214Y-7444500D01*
X7617500Y-7458786D01*
X7631786Y-7487357D01*
X7631786Y-7573071D01*
X7617500Y-7601643D01*
X7603214Y-7615929D01*
X7574643Y-7630214D01*
X7531786Y-7630214D01*
X7803214Y-7630214D02*
X7774643Y-7615929D01*
X7760357Y-7587357D01*
X7760357Y-7330214D01*
X8031786Y-7615929D02*
X8003214Y-7630214D01*
X7946071Y-7630214D01*
X7917500Y-7615929D01*
X7903214Y-7587357D01*
X7903214Y-7473071D01*
X7917500Y-7444500D01*
X7946071Y-7430214D01*
X8003214Y-7430214D01*
X8031786Y-7444500D01*
X8046071Y-7473071D01*
X8046071Y-7501643D01*
X7903214Y-7530214D01*
X8160357Y-7615929D02*
X8188928Y-7630214D01*
X8246071Y-7630214D01*
X8274643Y-7615929D01*
X8288928Y-7587357D01*
X8288928Y-7573071D01*
X8274643Y-7544500D01*
X8246071Y-7530214D01*
X8203214Y-7530214D01*
X8174643Y-7515929D01*
X8160357Y-7487357D01*
X8160357Y-7473071D01*
X8174643Y-7444500D01*
X8203214Y-7430214D01*
X8246071Y-7430214D01*
X8274643Y-7444500D01*
X8388928Y-7744500D02*
X8403214Y-7730214D01*
X8431786Y-7687357D01*
X8446071Y-7658786D01*
X8460357Y-7615929D01*
X8474643Y-7544500D01*
X8474643Y-7487357D01*
X8460357Y-7415929D01*
X8446071Y-7373071D01*
X8431786Y-7344500D01*
X8403214Y-7301643D01*
X8388928Y-7287357D01*
X8931786Y-7744500D02*
X8917500Y-7730214D01*
X8888928Y-7687357D01*
X8874643Y-7658786D01*
X8860357Y-7615929D01*
X8846071Y-7544500D01*
X8846071Y-7487357D01*
X8860357Y-7415929D01*
X8874643Y-7373071D01*
X8888928Y-7344500D01*
X8917500Y-7301643D01*
X8931786Y-7287357D01*
X9046071Y-7430214D02*
X9046071Y-7630214D01*
X9046071Y-7458786D02*
X9060357Y-7444500D01*
X9088928Y-7430214D01*
X9131786Y-7430214D01*
X9160357Y-7444500D01*
X9174643Y-7473071D01*
X9174643Y-7630214D01*
X9360357Y-7630214D02*
X9331786Y-7615929D01*
X9317500Y-7601643D01*
X9303214Y-7573071D01*
X9303214Y-7487357D01*
X9317500Y-7458786D01*
X9331786Y-7444500D01*
X9360357Y-7430214D01*
X9403214Y-7430214D01*
X9431786Y-7444500D01*
X9446071Y-7458786D01*
X9460357Y-7487357D01*
X9460357Y-7573071D01*
X9446071Y-7601643D01*
X9431786Y-7615929D01*
X9403214Y-7630214D01*
X9360357Y-7630214D01*
X9546071Y-7430214D02*
X9660357Y-7430214D01*
X9588928Y-7330214D02*
X9588928Y-7587357D01*
X9603214Y-7615929D01*
X9631786Y-7630214D01*
X9660357Y-7630214D01*
X9988928Y-7430214D02*
X9988928Y-7730214D01*
X9988928Y-7444500D02*
X10017500Y-7430214D01*
X10074643Y-7430214D01*
X10103214Y-7444500D01*
X10117500Y-7458786D01*
X10131786Y-7487357D01*
X10131786Y-7573071D01*
X10117500Y-7601643D01*
X10103214Y-7615929D01*
X10074643Y-7630214D01*
X10017500Y-7630214D01*
X9988928Y-7615929D01*
X10303214Y-7630214D02*
X10274643Y-7615929D01*
X10260357Y-7587357D01*
X10260357Y-7330214D01*
X10546071Y-7630214D02*
X10546071Y-7473071D01*
X10531786Y-7444500D01*
X10503214Y-7430214D01*
X10446071Y-7430214D01*
X10417500Y-7444500D01*
X10546071Y-7615929D02*
X10517500Y-7630214D01*
X10446071Y-7630214D01*
X10417500Y-7615929D01*
X10403214Y-7587357D01*
X10403214Y-7558786D01*
X10417500Y-7530214D01*
X10446071Y-7515929D01*
X10517500Y-7515929D01*
X10546071Y-7501643D01*
X10646071Y-7430214D02*
X10760357Y-7430214D01*
X10688928Y-7330214D02*
X10688928Y-7587357D01*
X10703214Y-7615929D01*
X10731786Y-7630214D01*
X10760357Y-7630214D01*
X10974643Y-7615929D02*
X10946071Y-7630214D01*
X10888928Y-7630214D01*
X10860357Y-7615929D01*
X10846071Y-7587357D01*
X10846071Y-7473071D01*
X10860357Y-7444500D01*
X10888928Y-7430214D01*
X10946071Y-7430214D01*
X10974643Y-7444500D01*
X10988928Y-7473071D01*
X10988928Y-7501643D01*
X10846071Y-7530214D01*
X11246071Y-7630214D02*
X11246071Y-7330214D01*
X11246071Y-7615929D02*
X11217500Y-7630214D01*
X11160357Y-7630214D01*
X11131786Y-7615929D01*
X11117500Y-7601643D01*
X11103214Y-7573071D01*
X11103214Y-7487357D01*
X11117500Y-7458786D01*
X11131786Y-7444500D01*
X11160357Y-7430214D01*
X11217500Y-7430214D01*
X11246071Y-7444500D01*
X11360357Y-7744500D02*
X11374643Y-7730214D01*
X11403214Y-7687357D01*
X11417500Y-7658786D01*
X11431786Y-7615929D01*
X11446071Y-7544500D01*
X11446071Y-7487357D01*
X11431786Y-7415929D01*
X11417500Y-7373071D01*
X11403214Y-7344500D01*
X11374643Y-7301643D01*
X11360357Y-7287357D01*
M02*
