%FSLAX45Y45*%
G04 Gerber Fmt 4.5, Leading zero omitted, Abs format (unit mm)*
G04 Created by KiCad (PCBNEW (5.1.4)-1) date 2019-12-12 19:52:41*
%MOMM*%
%LPD*%
G04 APERTURE LIST*
%ADD10C,0.050000*%
%ADD11C,0.200000*%
%ADD12C,0.300000*%
G04 APERTURE END LIST*
D10*
X1897400Y-2349500D02*
X1897400Y-5410200D01*
X1897400Y-2349500D02*
G75*
G02X2159000Y-2087900I261600J0D01*
G01*
X5092700Y-2087900D02*
G75*
G02X5354300Y-2349500I0J-261600D01*
G01*
X2159000Y-2087900D02*
X5092700Y-2087900D01*
X5354300Y-2349500D02*
X5354300Y-5410200D01*
X1897400Y-5410200D02*
X5354300Y-5410200D01*
D11*
X4881900Y-2240300D02*
X5201900Y-2560300D01*
X5201900Y-2240300D02*
X4881900Y-2560300D01*
X2049800Y-2240300D02*
X2369800Y-2560300D01*
X2369800Y-2240300D02*
X2049800Y-2560300D01*
D12*
X2181328Y-5878414D02*
X2181328Y-5578414D01*
X2252757Y-5578414D01*
X2295614Y-5592700D01*
X2324186Y-5621271D01*
X2338471Y-5649843D01*
X2352757Y-5706986D01*
X2352757Y-5749843D01*
X2338471Y-5806986D01*
X2324186Y-5835557D01*
X2295614Y-5864129D01*
X2252757Y-5878414D01*
X2181328Y-5878414D01*
X2481328Y-5878414D02*
X2481328Y-5678414D01*
X2481328Y-5735557D02*
X2495614Y-5706986D01*
X2509900Y-5692700D01*
X2538471Y-5678414D01*
X2567043Y-5678414D01*
X2667043Y-5878414D02*
X2667043Y-5678414D01*
X2667043Y-5578414D02*
X2652757Y-5592700D01*
X2667043Y-5606986D01*
X2681328Y-5592700D01*
X2667043Y-5578414D01*
X2667043Y-5606986D01*
X2852757Y-5878414D02*
X2824186Y-5864129D01*
X2809900Y-5835557D01*
X2809900Y-5578414D01*
X3009900Y-5878414D02*
X2981328Y-5864129D01*
X2967043Y-5835557D01*
X2967043Y-5578414D01*
X3352757Y-5878414D02*
X3352757Y-5578414D01*
X3452757Y-5792700D01*
X3552757Y-5578414D01*
X3552757Y-5878414D01*
X3824186Y-5878414D02*
X3824186Y-5721271D01*
X3809900Y-5692700D01*
X3781328Y-5678414D01*
X3724186Y-5678414D01*
X3695614Y-5692700D01*
X3824186Y-5864129D02*
X3795614Y-5878414D01*
X3724186Y-5878414D01*
X3695614Y-5864129D01*
X3681328Y-5835557D01*
X3681328Y-5806986D01*
X3695614Y-5778414D01*
X3724186Y-5764129D01*
X3795614Y-5764129D01*
X3824186Y-5749843D01*
X3967043Y-5678414D02*
X3967043Y-5978414D01*
X3967043Y-5692700D02*
X3995614Y-5678414D01*
X4052757Y-5678414D01*
X4081328Y-5692700D01*
X4095614Y-5706986D01*
X4109900Y-5735557D01*
X4109900Y-5821271D01*
X4095614Y-5849843D01*
X4081328Y-5864129D01*
X4052757Y-5878414D01*
X3995614Y-5878414D01*
X3967043Y-5864129D01*
X4238471Y-5849843D02*
X4252757Y-5864129D01*
X4238471Y-5878414D01*
X4224186Y-5864129D01*
X4238471Y-5849843D01*
X4238471Y-5878414D01*
X4238471Y-5692700D02*
X4252757Y-5706986D01*
X4238471Y-5721271D01*
X4224186Y-5706986D01*
X4238471Y-5692700D01*
X4238471Y-5721271D01*
X1574900Y-6212700D02*
X1894900Y-6532700D01*
X1894900Y-6212700D02*
X1574900Y-6532700D01*
X2152757Y-6208414D02*
X2338471Y-6208414D01*
X2238471Y-6322700D01*
X2281328Y-6322700D01*
X2309900Y-6336986D01*
X2324186Y-6351271D01*
X2338471Y-6379843D01*
X2338471Y-6451271D01*
X2324186Y-6479843D01*
X2309900Y-6494129D01*
X2281328Y-6508414D01*
X2195614Y-6508414D01*
X2167043Y-6494129D01*
X2152757Y-6479843D01*
X2467043Y-6479843D02*
X2481328Y-6494129D01*
X2467043Y-6508414D01*
X2452757Y-6494129D01*
X2467043Y-6479843D01*
X2467043Y-6508414D01*
X2595614Y-6236986D02*
X2609900Y-6222700D01*
X2638471Y-6208414D01*
X2709900Y-6208414D01*
X2738471Y-6222700D01*
X2752757Y-6236986D01*
X2767043Y-6265557D01*
X2767043Y-6294129D01*
X2752757Y-6336986D01*
X2581328Y-6508414D01*
X2767043Y-6508414D01*
X2952757Y-6208414D02*
X2981328Y-6208414D01*
X3009900Y-6222700D01*
X3024186Y-6236986D01*
X3038471Y-6265557D01*
X3052757Y-6322700D01*
X3052757Y-6394129D01*
X3038471Y-6451271D01*
X3024186Y-6479843D01*
X3009900Y-6494129D01*
X2981328Y-6508414D01*
X2952757Y-6508414D01*
X2924186Y-6494129D01*
X2909900Y-6479843D01*
X2895614Y-6451271D01*
X2881328Y-6394129D01*
X2881328Y-6322700D01*
X2895614Y-6265557D01*
X2909900Y-6236986D01*
X2924186Y-6222700D01*
X2952757Y-6208414D01*
X3181328Y-6508414D02*
X3181328Y-6308414D01*
X3181328Y-6336986D02*
X3195614Y-6322700D01*
X3224186Y-6308414D01*
X3267043Y-6308414D01*
X3295614Y-6322700D01*
X3309900Y-6351271D01*
X3309900Y-6508414D01*
X3309900Y-6351271D02*
X3324186Y-6322700D01*
X3352757Y-6308414D01*
X3395614Y-6308414D01*
X3424186Y-6322700D01*
X3438471Y-6351271D01*
X3438471Y-6508414D01*
X3581328Y-6508414D02*
X3581328Y-6308414D01*
X3581328Y-6336986D02*
X3595614Y-6322700D01*
X3624186Y-6308414D01*
X3667043Y-6308414D01*
X3695614Y-6322700D01*
X3709900Y-6351271D01*
X3709900Y-6508414D01*
X3709900Y-6351271D02*
X3724186Y-6322700D01*
X3752757Y-6308414D01*
X3795614Y-6308414D01*
X3824186Y-6322700D01*
X3838471Y-6351271D01*
X3838471Y-6508414D01*
X4424186Y-6194129D02*
X4167043Y-6579843D01*
X4809900Y-6208414D02*
X4838471Y-6208414D01*
X4867043Y-6222700D01*
X4881328Y-6236986D01*
X4895614Y-6265557D01*
X4909900Y-6322700D01*
X4909900Y-6394129D01*
X4895614Y-6451271D01*
X4881328Y-6479843D01*
X4867043Y-6494129D01*
X4838471Y-6508414D01*
X4809900Y-6508414D01*
X4781328Y-6494129D01*
X4767043Y-6479843D01*
X4752757Y-6451271D01*
X4738471Y-6394129D01*
X4738471Y-6322700D01*
X4752757Y-6265557D01*
X4767043Y-6236986D01*
X4781328Y-6222700D01*
X4809900Y-6208414D01*
X5038471Y-6479843D02*
X5052757Y-6494129D01*
X5038471Y-6508414D01*
X5024186Y-6494129D01*
X5038471Y-6479843D01*
X5038471Y-6508414D01*
X5338471Y-6508414D02*
X5167043Y-6508414D01*
X5252757Y-6508414D02*
X5252757Y-6208414D01*
X5224186Y-6251271D01*
X5195614Y-6279843D01*
X5167043Y-6294129D01*
X5452757Y-6236986D02*
X5467043Y-6222700D01*
X5495614Y-6208414D01*
X5567043Y-6208414D01*
X5595614Y-6222700D01*
X5609900Y-6236986D01*
X5624186Y-6265557D01*
X5624186Y-6294129D01*
X5609900Y-6336986D01*
X5438471Y-6508414D01*
X5624186Y-6508414D01*
X5881328Y-6208414D02*
X5824186Y-6208414D01*
X5795614Y-6222700D01*
X5781328Y-6236986D01*
X5752757Y-6279843D01*
X5738471Y-6336986D01*
X5738471Y-6451271D01*
X5752757Y-6479843D01*
X5767043Y-6494129D01*
X5795614Y-6508414D01*
X5852757Y-6508414D01*
X5881328Y-6494129D01*
X5895614Y-6479843D01*
X5909900Y-6451271D01*
X5909900Y-6379843D01*
X5895614Y-6351271D01*
X5881328Y-6336986D01*
X5852757Y-6322700D01*
X5795614Y-6322700D01*
X5767043Y-6336986D01*
X5752757Y-6351271D01*
X5738471Y-6379843D01*
X6024186Y-6208414D02*
X6024186Y-6265557D01*
X6138471Y-6208414D02*
X6138471Y-6265557D01*
X6581328Y-6622700D02*
X6567043Y-6608414D01*
X6538471Y-6565557D01*
X6524186Y-6536986D01*
X6509900Y-6494129D01*
X6495614Y-6422700D01*
X6495614Y-6365557D01*
X6509900Y-6294129D01*
X6524186Y-6251271D01*
X6538471Y-6222700D01*
X6567043Y-6179843D01*
X6581328Y-6165557D01*
X6681328Y-6236986D02*
X6695614Y-6222700D01*
X6724186Y-6208414D01*
X6795614Y-6208414D01*
X6824186Y-6222700D01*
X6838471Y-6236986D01*
X6852757Y-6265557D01*
X6852757Y-6294129D01*
X6838471Y-6336986D01*
X6667043Y-6508414D01*
X6852757Y-6508414D01*
X7209900Y-6508414D02*
X7209900Y-6208414D01*
X7338471Y-6508414D02*
X7338471Y-6351271D01*
X7324186Y-6322700D01*
X7295614Y-6308414D01*
X7252757Y-6308414D01*
X7224186Y-6322700D01*
X7209900Y-6336986D01*
X7524186Y-6508414D02*
X7495614Y-6494129D01*
X7481328Y-6479843D01*
X7467043Y-6451271D01*
X7467043Y-6365557D01*
X7481328Y-6336986D01*
X7495614Y-6322700D01*
X7524186Y-6308414D01*
X7567043Y-6308414D01*
X7595614Y-6322700D01*
X7609900Y-6336986D01*
X7624186Y-6365557D01*
X7624186Y-6451271D01*
X7609900Y-6479843D01*
X7595614Y-6494129D01*
X7567043Y-6508414D01*
X7524186Y-6508414D01*
X7795614Y-6508414D02*
X7767043Y-6494129D01*
X7752757Y-6465557D01*
X7752757Y-6208414D01*
X8024186Y-6494129D02*
X7995614Y-6508414D01*
X7938471Y-6508414D01*
X7909900Y-6494129D01*
X7895614Y-6465557D01*
X7895614Y-6351271D01*
X7909900Y-6322700D01*
X7938471Y-6308414D01*
X7995614Y-6308414D01*
X8024186Y-6322700D01*
X8038471Y-6351271D01*
X8038471Y-6379843D01*
X7895614Y-6408414D01*
X8152757Y-6494129D02*
X8181328Y-6508414D01*
X8238471Y-6508414D01*
X8267043Y-6494129D01*
X8281328Y-6465557D01*
X8281328Y-6451271D01*
X8267043Y-6422700D01*
X8238471Y-6408414D01*
X8195614Y-6408414D01*
X8167043Y-6394129D01*
X8152757Y-6365557D01*
X8152757Y-6351271D01*
X8167043Y-6322700D01*
X8195614Y-6308414D01*
X8238471Y-6308414D01*
X8267043Y-6322700D01*
X8381328Y-6622700D02*
X8395614Y-6608414D01*
X8424186Y-6565557D01*
X8438471Y-6536986D01*
X8452757Y-6494129D01*
X8467043Y-6422700D01*
X8467043Y-6365557D01*
X8452757Y-6294129D01*
X8438471Y-6251271D01*
X8424186Y-6222700D01*
X8395614Y-6179843D01*
X8381328Y-6165557D01*
X8924186Y-6622700D02*
X8909900Y-6608414D01*
X8881328Y-6565557D01*
X8867043Y-6536986D01*
X8852757Y-6494129D01*
X8838471Y-6422700D01*
X8838471Y-6365557D01*
X8852757Y-6294129D01*
X8867043Y-6251271D01*
X8881328Y-6222700D01*
X8909900Y-6179843D01*
X8924186Y-6165557D01*
X9038471Y-6308414D02*
X9038471Y-6508414D01*
X9038471Y-6336986D02*
X9052757Y-6322700D01*
X9081328Y-6308414D01*
X9124186Y-6308414D01*
X9152757Y-6322700D01*
X9167043Y-6351271D01*
X9167043Y-6508414D01*
X9352757Y-6508414D02*
X9324186Y-6494129D01*
X9309900Y-6479843D01*
X9295614Y-6451271D01*
X9295614Y-6365557D01*
X9309900Y-6336986D01*
X9324186Y-6322700D01*
X9352757Y-6308414D01*
X9395614Y-6308414D01*
X9424186Y-6322700D01*
X9438471Y-6336986D01*
X9452757Y-6365557D01*
X9452757Y-6451271D01*
X9438471Y-6479843D01*
X9424186Y-6494129D01*
X9395614Y-6508414D01*
X9352757Y-6508414D01*
X9538471Y-6308414D02*
X9652757Y-6308414D01*
X9581328Y-6208414D02*
X9581328Y-6465557D01*
X9595614Y-6494129D01*
X9624186Y-6508414D01*
X9652757Y-6508414D01*
X9981328Y-6308414D02*
X9981328Y-6608414D01*
X9981328Y-6322700D02*
X10009900Y-6308414D01*
X10067043Y-6308414D01*
X10095614Y-6322700D01*
X10109900Y-6336986D01*
X10124186Y-6365557D01*
X10124186Y-6451271D01*
X10109900Y-6479843D01*
X10095614Y-6494129D01*
X10067043Y-6508414D01*
X10009900Y-6508414D01*
X9981328Y-6494129D01*
X10295614Y-6508414D02*
X10267043Y-6494129D01*
X10252757Y-6465557D01*
X10252757Y-6208414D01*
X10538471Y-6508414D02*
X10538471Y-6351271D01*
X10524186Y-6322700D01*
X10495614Y-6308414D01*
X10438471Y-6308414D01*
X10409900Y-6322700D01*
X10538471Y-6494129D02*
X10509900Y-6508414D01*
X10438471Y-6508414D01*
X10409900Y-6494129D01*
X10395614Y-6465557D01*
X10395614Y-6436986D01*
X10409900Y-6408414D01*
X10438471Y-6394129D01*
X10509900Y-6394129D01*
X10538471Y-6379843D01*
X10638471Y-6308414D02*
X10752757Y-6308414D01*
X10681328Y-6208414D02*
X10681328Y-6465557D01*
X10695614Y-6494129D01*
X10724186Y-6508414D01*
X10752757Y-6508414D01*
X10967043Y-6494129D02*
X10938471Y-6508414D01*
X10881328Y-6508414D01*
X10852757Y-6494129D01*
X10838471Y-6465557D01*
X10838471Y-6351271D01*
X10852757Y-6322700D01*
X10881328Y-6308414D01*
X10938471Y-6308414D01*
X10967043Y-6322700D01*
X10981328Y-6351271D01*
X10981328Y-6379843D01*
X10838471Y-6408414D01*
X11238471Y-6508414D02*
X11238471Y-6208414D01*
X11238471Y-6494129D02*
X11209900Y-6508414D01*
X11152757Y-6508414D01*
X11124186Y-6494129D01*
X11109900Y-6479843D01*
X11095614Y-6451271D01*
X11095614Y-6365557D01*
X11109900Y-6336986D01*
X11124186Y-6322700D01*
X11152757Y-6308414D01*
X11209900Y-6308414D01*
X11238471Y-6322700D01*
X11352757Y-6622700D02*
X11367043Y-6608414D01*
X11395614Y-6565557D01*
X11409900Y-6536986D01*
X11424186Y-6494129D01*
X11438471Y-6422700D01*
X11438471Y-6365557D01*
X11424186Y-6294129D01*
X11409900Y-6251271D01*
X11395614Y-6222700D01*
X11367043Y-6179843D01*
X11352757Y-6165557D01*
M02*
