%FSLAX45Y45*%
G04 Gerber Fmt 4.5, Leading zero omitted, Abs format (unit mm)*
G04 Created by KiCad (PCBNEW (5.1.4)-1) date 2019-12-12 19:52:41*
%MOMM*%
%LPD*%
G04 APERTURE LIST*
%ADD10C,0.050000*%
%ADD11C,0.200000*%
%ADD12C,0.300000*%
G04 APERTURE END LIST*
D10*
X1897400Y-2349500D02*
X1897400Y-5410200D01*
X1897400Y-2349500D02*
G75*
G02X2159000Y-2087900I261600J0D01*
G01*
X5092700Y-2087900D02*
G75*
G02X5354300Y-2349500I0J-261600D01*
G01*
X2159000Y-2087900D02*
X5092700Y-2087900D01*
X5354300Y-2349500D02*
X5354300Y-5410200D01*
X1897400Y-5410200D02*
X5354300Y-5410200D01*
D11*
X2570800Y-3764600D02*
X2610800Y-3804600D01*
X2610800Y-3764600D02*
X2570800Y-3804600D01*
X3332800Y-4780600D02*
X3372800Y-4820600D01*
X3372800Y-4780600D02*
X3332800Y-4820600D01*
X3459800Y-2647000D02*
X3499800Y-2687000D01*
X3499800Y-2647000D02*
X3459800Y-2687000D01*
X3586800Y-3078800D02*
X3626800Y-3118800D01*
X3626800Y-3078800D02*
X3586800Y-3118800D01*
X3612200Y-4780600D02*
X3652200Y-4820600D01*
X3652200Y-4780600D02*
X3612200Y-4820600D01*
X3739200Y-2647000D02*
X3779200Y-2687000D01*
X3779200Y-2647000D02*
X3739200Y-2687000D01*
X3853500Y-3790000D02*
X3893500Y-3830000D01*
X3893500Y-3790000D02*
X3853500Y-3830000D01*
X4018600Y-4780600D02*
X4058600Y-4820600D01*
X4058600Y-4780600D02*
X4018600Y-4820600D01*
X4501200Y-4780600D02*
X4541200Y-4820600D01*
X4541200Y-4780600D02*
X4501200Y-4820600D01*
X4704400Y-3815400D02*
X4744400Y-3855400D01*
X4744400Y-3815400D02*
X4704400Y-3855400D01*
X4704400Y-4475800D02*
X4744400Y-4515800D01*
X4744400Y-4475800D02*
X4704400Y-4515800D01*
X5034600Y-4780600D02*
X5074600Y-4820600D01*
X5074600Y-4780600D02*
X5034600Y-4820600D01*
X5136200Y-3078800D02*
X5176200Y-3118800D01*
X5176200Y-3078800D02*
X5136200Y-3118800D01*
X5125000Y-3610000D02*
G75*
G03X5125000Y-3610000I-45000J0D01*
G01*
X5125000Y-3810000D02*
G75*
G03X5125000Y-3810000I-45000J0D01*
G01*
X5125000Y-4010000D02*
G75*
G03X5125000Y-4010000I-45000J0D01*
G01*
X2260600Y-3506000D02*
X2260600Y-3606000D01*
X2210600Y-3556000D02*
X2310600Y-3556000D01*
X2260600Y-3956000D02*
X2260600Y-4056000D01*
X2210600Y-4006000D02*
X2310600Y-4006000D01*
X2910600Y-3506000D02*
X2910600Y-3606000D01*
X2860600Y-3556000D02*
X2960600Y-3556000D01*
X2910600Y-3956000D02*
X2910600Y-4056000D01*
X2860600Y-4006000D02*
X2960600Y-4006000D01*
X3373500Y-2388400D02*
X3373500Y-2488400D01*
X3323500Y-2438400D02*
X3423500Y-2438400D01*
X3623500Y-2388400D02*
X3623500Y-2488400D01*
X3573500Y-2438400D02*
X3673500Y-2438400D01*
X3873500Y-2388400D02*
X3873500Y-2488400D01*
X3823500Y-2438400D02*
X3923500Y-2438400D01*
X2095500Y-4941100D02*
X2095500Y-5041100D01*
X2045500Y-4991100D02*
X2145500Y-4991100D01*
X2095500Y-5195100D02*
X2095500Y-5295100D01*
X2045500Y-5245100D02*
X2145500Y-5245100D01*
X2349500Y-4941100D02*
X2349500Y-5041100D01*
X2299500Y-4991100D02*
X2399500Y-4991100D01*
X2349500Y-5195100D02*
X2349500Y-5295100D01*
X2299500Y-5245100D02*
X2399500Y-5245100D01*
X2603500Y-4941100D02*
X2603500Y-5041100D01*
X2553500Y-4991100D02*
X2653500Y-4991100D01*
X2603500Y-5195100D02*
X2603500Y-5295100D01*
X2553500Y-5245100D02*
X2653500Y-5245100D01*
X2857500Y-4941100D02*
X2857500Y-5041100D01*
X2807500Y-4991100D02*
X2907500Y-4991100D01*
X2857500Y-5195100D02*
X2857500Y-5295100D01*
X2807500Y-5245100D02*
X2907500Y-5245100D01*
X3111500Y-4941100D02*
X3111500Y-5041100D01*
X3061500Y-4991100D02*
X3161500Y-4991100D01*
X3111500Y-5195100D02*
X3111500Y-5295100D01*
X3061500Y-5245100D02*
X3161500Y-5245100D01*
X3365500Y-4941100D02*
X3365500Y-5041100D01*
X3315500Y-4991100D02*
X3415500Y-4991100D01*
X3365500Y-5195100D02*
X3365500Y-5295100D01*
X3315500Y-5245100D02*
X3415500Y-5245100D01*
X3619500Y-4941100D02*
X3619500Y-5041100D01*
X3569500Y-4991100D02*
X3669500Y-4991100D01*
X3619500Y-5195100D02*
X3619500Y-5295100D01*
X3569500Y-5245100D02*
X3669500Y-5245100D01*
X3873500Y-4941100D02*
X3873500Y-5041100D01*
X3823500Y-4991100D02*
X3923500Y-4991100D01*
X3873500Y-5195100D02*
X3873500Y-5295100D01*
X3823500Y-5245100D02*
X3923500Y-5245100D01*
X4127500Y-4941100D02*
X4127500Y-5041100D01*
X4077500Y-4991100D02*
X4177500Y-4991100D01*
X4127500Y-5195100D02*
X4127500Y-5295100D01*
X4077500Y-5245100D02*
X4177500Y-5245100D01*
X4381500Y-4941100D02*
X4381500Y-5041100D01*
X4331500Y-4991100D02*
X4431500Y-4991100D01*
X4381500Y-5195100D02*
X4381500Y-5295100D01*
X4331500Y-5245100D02*
X4431500Y-5245100D01*
X4635500Y-4941100D02*
X4635500Y-5041100D01*
X4585500Y-4991100D02*
X4685500Y-4991100D01*
X4635500Y-5195100D02*
X4635500Y-5295100D01*
X4585500Y-5245100D02*
X4685500Y-5245100D01*
X4889500Y-4941100D02*
X4889500Y-5041100D01*
X4839500Y-4991100D02*
X4939500Y-4991100D01*
X4889500Y-5195100D02*
X4889500Y-5295100D01*
X4839500Y-5245100D02*
X4939500Y-5245100D01*
X5143500Y-4941100D02*
X5143500Y-5041100D01*
X5093500Y-4991100D02*
X5193500Y-4991100D01*
X5143500Y-5195100D02*
X5143500Y-5295100D01*
X5093500Y-5245100D02*
X5193500Y-5245100D01*
X3365500Y-3506000D02*
X3365500Y-3606000D01*
X3315500Y-3556000D02*
X3415500Y-3556000D01*
X3365500Y-3760000D02*
X3365500Y-3860000D01*
X3315500Y-3810000D02*
X3415500Y-3810000D01*
X3365500Y-4014000D02*
X3365500Y-4114000D01*
X3315500Y-4064000D02*
X3415500Y-4064000D01*
X3608500Y-3252000D02*
X3608500Y-3352000D01*
X3558500Y-3302000D02*
X3658500Y-3302000D01*
X3619500Y-4268000D02*
X3619500Y-4368000D01*
X3569500Y-4318000D02*
X3669500Y-4318000D01*
X4127500Y-3252000D02*
X4127500Y-3352000D01*
X4077500Y-3302000D02*
X4177500Y-3302000D01*
X4127500Y-4268000D02*
X4127500Y-4368000D01*
X4077500Y-4318000D02*
X4177500Y-4318000D01*
X4381500Y-3506000D02*
X4381500Y-3606000D01*
X4331500Y-3556000D02*
X4431500Y-3556000D01*
X4381500Y-3760000D02*
X4381500Y-3860000D01*
X4331500Y-3810000D02*
X4431500Y-3810000D01*
X4381500Y-4014000D02*
X4381500Y-4114000D01*
X4331500Y-4064000D02*
X4431500Y-4064000D01*
X5133034Y-3453033D02*
X5133034Y-3346966D01*
X5026967Y-3346966D01*
X5026967Y-3453033D01*
X5133034Y-3453033D01*
X5133034Y-4273034D02*
X5133034Y-4166966D01*
X5026967Y-4166966D01*
X5026967Y-4273034D01*
X5133034Y-4273034D01*
X3123500Y-2883400D02*
X3238500Y-2768400D01*
X3123500Y-2653400D01*
X3008500Y-2768400D01*
X3123500Y-2883400D01*
X4123500Y-2883400D02*
X4238500Y-2768400D01*
X4123500Y-2653400D01*
X4008500Y-2768400D01*
X4123500Y-2883400D01*
D12*
X2181328Y-5878414D02*
X2181328Y-5578414D01*
X2252757Y-5578414D01*
X2295614Y-5592700D01*
X2324186Y-5621271D01*
X2338471Y-5649843D01*
X2352757Y-5706986D01*
X2352757Y-5749843D01*
X2338471Y-5806986D01*
X2324186Y-5835557D01*
X2295614Y-5864129D01*
X2252757Y-5878414D01*
X2181328Y-5878414D01*
X2481328Y-5878414D02*
X2481328Y-5678414D01*
X2481328Y-5735557D02*
X2495614Y-5706986D01*
X2509900Y-5692700D01*
X2538471Y-5678414D01*
X2567043Y-5678414D01*
X2667043Y-5878414D02*
X2667043Y-5678414D01*
X2667043Y-5578414D02*
X2652757Y-5592700D01*
X2667043Y-5606986D01*
X2681328Y-5592700D01*
X2667043Y-5578414D01*
X2667043Y-5606986D01*
X2852757Y-5878414D02*
X2824186Y-5864129D01*
X2809900Y-5835557D01*
X2809900Y-5578414D01*
X3009900Y-5878414D02*
X2981328Y-5864129D01*
X2967043Y-5835557D01*
X2967043Y-5578414D01*
X3352757Y-5878414D02*
X3352757Y-5578414D01*
X3452757Y-5792700D01*
X3552757Y-5578414D01*
X3552757Y-5878414D01*
X3824186Y-5878414D02*
X3824186Y-5721271D01*
X3809900Y-5692700D01*
X3781328Y-5678414D01*
X3724186Y-5678414D01*
X3695614Y-5692700D01*
X3824186Y-5864129D02*
X3795614Y-5878414D01*
X3724186Y-5878414D01*
X3695614Y-5864129D01*
X3681328Y-5835557D01*
X3681328Y-5806986D01*
X3695614Y-5778414D01*
X3724186Y-5764129D01*
X3795614Y-5764129D01*
X3824186Y-5749843D01*
X3967043Y-5678414D02*
X3967043Y-5978414D01*
X3967043Y-5692700D02*
X3995614Y-5678414D01*
X4052757Y-5678414D01*
X4081328Y-5692700D01*
X4095614Y-5706986D01*
X4109900Y-5735557D01*
X4109900Y-5821271D01*
X4095614Y-5849843D01*
X4081328Y-5864129D01*
X4052757Y-5878414D01*
X3995614Y-5878414D01*
X3967043Y-5864129D01*
X4238471Y-5849843D02*
X4252757Y-5864129D01*
X4238471Y-5878414D01*
X4224186Y-5864129D01*
X4238471Y-5849843D01*
X4238471Y-5878414D01*
X4238471Y-5692700D02*
X4252757Y-5706986D01*
X4238471Y-5721271D01*
X4224186Y-5706986D01*
X4238471Y-5692700D01*
X4238471Y-5721271D01*
X1854900Y-6352700D02*
X1894900Y-6392700D01*
X1894900Y-6352700D02*
X1854900Y-6392700D01*
X2238471Y-6208414D02*
X2267043Y-6208414D01*
X2295614Y-6222700D01*
X2309900Y-6236986D01*
X2324186Y-6265557D01*
X2338471Y-6322700D01*
X2338471Y-6394129D01*
X2324186Y-6451271D01*
X2309900Y-6479843D01*
X2295614Y-6494129D01*
X2267043Y-6508414D01*
X2238471Y-6508414D01*
X2209900Y-6494129D01*
X2195614Y-6479843D01*
X2181328Y-6451271D01*
X2167043Y-6394129D01*
X2167043Y-6322700D01*
X2181328Y-6265557D01*
X2195614Y-6236986D01*
X2209900Y-6222700D01*
X2238471Y-6208414D01*
X2467043Y-6479843D02*
X2481328Y-6494129D01*
X2467043Y-6508414D01*
X2452757Y-6494129D01*
X2467043Y-6479843D01*
X2467043Y-6508414D01*
X2738471Y-6308414D02*
X2738471Y-6508414D01*
X2667043Y-6194129D02*
X2595614Y-6408414D01*
X2781328Y-6408414D01*
X2952757Y-6208414D02*
X2981328Y-6208414D01*
X3009900Y-6222700D01*
X3024186Y-6236986D01*
X3038471Y-6265557D01*
X3052757Y-6322700D01*
X3052757Y-6394129D01*
X3038471Y-6451271D01*
X3024186Y-6479843D01*
X3009900Y-6494129D01*
X2981328Y-6508414D01*
X2952757Y-6508414D01*
X2924186Y-6494129D01*
X2909900Y-6479843D01*
X2895614Y-6451271D01*
X2881328Y-6394129D01*
X2881328Y-6322700D01*
X2895614Y-6265557D01*
X2909900Y-6236986D01*
X2924186Y-6222700D01*
X2952757Y-6208414D01*
X3181328Y-6508414D02*
X3181328Y-6308414D01*
X3181328Y-6336986D02*
X3195614Y-6322700D01*
X3224186Y-6308414D01*
X3267043Y-6308414D01*
X3295614Y-6322700D01*
X3309900Y-6351271D01*
X3309900Y-6508414D01*
X3309900Y-6351271D02*
X3324186Y-6322700D01*
X3352757Y-6308414D01*
X3395614Y-6308414D01*
X3424186Y-6322700D01*
X3438471Y-6351271D01*
X3438471Y-6508414D01*
X3581328Y-6508414D02*
X3581328Y-6308414D01*
X3581328Y-6336986D02*
X3595614Y-6322700D01*
X3624186Y-6308414D01*
X3667043Y-6308414D01*
X3695614Y-6322700D01*
X3709900Y-6351271D01*
X3709900Y-6508414D01*
X3709900Y-6351271D02*
X3724186Y-6322700D01*
X3752757Y-6308414D01*
X3795614Y-6308414D01*
X3824186Y-6322700D01*
X3838471Y-6351271D01*
X3838471Y-6508414D01*
X4424186Y-6194129D02*
X4167043Y-6579843D01*
X4809900Y-6208414D02*
X4838471Y-6208414D01*
X4867043Y-6222700D01*
X4881328Y-6236986D01*
X4895614Y-6265557D01*
X4909900Y-6322700D01*
X4909900Y-6394129D01*
X4895614Y-6451271D01*
X4881328Y-6479843D01*
X4867043Y-6494129D01*
X4838471Y-6508414D01*
X4809900Y-6508414D01*
X4781328Y-6494129D01*
X4767043Y-6479843D01*
X4752757Y-6451271D01*
X4738471Y-6394129D01*
X4738471Y-6322700D01*
X4752757Y-6265557D01*
X4767043Y-6236986D01*
X4781328Y-6222700D01*
X4809900Y-6208414D01*
X5038471Y-6479843D02*
X5052757Y-6494129D01*
X5038471Y-6508414D01*
X5024186Y-6494129D01*
X5038471Y-6479843D01*
X5038471Y-6508414D01*
X5238471Y-6208414D02*
X5267043Y-6208414D01*
X5295614Y-6222700D01*
X5309900Y-6236986D01*
X5324186Y-6265557D01*
X5338471Y-6322700D01*
X5338471Y-6394129D01*
X5324186Y-6451271D01*
X5309900Y-6479843D01*
X5295614Y-6494129D01*
X5267043Y-6508414D01*
X5238471Y-6508414D01*
X5209900Y-6494129D01*
X5195614Y-6479843D01*
X5181328Y-6451271D01*
X5167043Y-6394129D01*
X5167043Y-6322700D01*
X5181328Y-6265557D01*
X5195614Y-6236986D01*
X5209900Y-6222700D01*
X5238471Y-6208414D01*
X5624186Y-6508414D02*
X5452757Y-6508414D01*
X5538471Y-6508414D02*
X5538471Y-6208414D01*
X5509900Y-6251271D01*
X5481328Y-6279843D01*
X5452757Y-6294129D01*
X5881328Y-6208414D02*
X5824186Y-6208414D01*
X5795614Y-6222700D01*
X5781328Y-6236986D01*
X5752757Y-6279843D01*
X5738471Y-6336986D01*
X5738471Y-6451271D01*
X5752757Y-6479843D01*
X5767043Y-6494129D01*
X5795614Y-6508414D01*
X5852757Y-6508414D01*
X5881328Y-6494129D01*
X5895614Y-6479843D01*
X5909900Y-6451271D01*
X5909900Y-6379843D01*
X5895614Y-6351271D01*
X5881328Y-6336986D01*
X5852757Y-6322700D01*
X5795614Y-6322700D01*
X5767043Y-6336986D01*
X5752757Y-6351271D01*
X5738471Y-6379843D01*
X6024186Y-6208414D02*
X6024186Y-6265557D01*
X6138471Y-6208414D02*
X6138471Y-6265557D01*
X6581328Y-6622700D02*
X6567043Y-6608414D01*
X6538471Y-6565557D01*
X6524186Y-6536986D01*
X6509900Y-6494129D01*
X6495614Y-6422700D01*
X6495614Y-6365557D01*
X6509900Y-6294129D01*
X6524186Y-6251271D01*
X6538471Y-6222700D01*
X6567043Y-6179843D01*
X6581328Y-6165557D01*
X6852757Y-6508414D02*
X6681328Y-6508414D01*
X6767043Y-6508414D02*
X6767043Y-6208414D01*
X6738471Y-6251271D01*
X6709900Y-6279843D01*
X6681328Y-6294129D01*
X6952757Y-6208414D02*
X7138471Y-6208414D01*
X7038471Y-6322700D01*
X7081328Y-6322700D01*
X7109900Y-6336986D01*
X7124186Y-6351271D01*
X7138471Y-6379843D01*
X7138471Y-6451271D01*
X7124186Y-6479843D01*
X7109900Y-6494129D01*
X7081328Y-6508414D01*
X6995614Y-6508414D01*
X6967043Y-6494129D01*
X6952757Y-6479843D01*
X7495614Y-6508414D02*
X7495614Y-6208414D01*
X7624186Y-6508414D02*
X7624186Y-6351271D01*
X7609900Y-6322700D01*
X7581328Y-6308414D01*
X7538471Y-6308414D01*
X7509900Y-6322700D01*
X7495614Y-6336986D01*
X7809900Y-6508414D02*
X7781328Y-6494129D01*
X7767043Y-6479843D01*
X7752757Y-6451271D01*
X7752757Y-6365557D01*
X7767043Y-6336986D01*
X7781328Y-6322700D01*
X7809900Y-6308414D01*
X7852757Y-6308414D01*
X7881328Y-6322700D01*
X7895614Y-6336986D01*
X7909900Y-6365557D01*
X7909900Y-6451271D01*
X7895614Y-6479843D01*
X7881328Y-6494129D01*
X7852757Y-6508414D01*
X7809900Y-6508414D01*
X8081328Y-6508414D02*
X8052757Y-6494129D01*
X8038471Y-6465557D01*
X8038471Y-6208414D01*
X8309900Y-6494129D02*
X8281328Y-6508414D01*
X8224186Y-6508414D01*
X8195614Y-6494129D01*
X8181328Y-6465557D01*
X8181328Y-6351271D01*
X8195614Y-6322700D01*
X8224186Y-6308414D01*
X8281328Y-6308414D01*
X8309900Y-6322700D01*
X8324186Y-6351271D01*
X8324186Y-6379843D01*
X8181328Y-6408414D01*
X8438471Y-6494129D02*
X8467043Y-6508414D01*
X8524186Y-6508414D01*
X8552757Y-6494129D01*
X8567043Y-6465557D01*
X8567043Y-6451271D01*
X8552757Y-6422700D01*
X8524186Y-6408414D01*
X8481328Y-6408414D01*
X8452757Y-6394129D01*
X8438471Y-6365557D01*
X8438471Y-6351271D01*
X8452757Y-6322700D01*
X8481328Y-6308414D01*
X8524186Y-6308414D01*
X8552757Y-6322700D01*
X8667043Y-6622700D02*
X8681328Y-6608414D01*
X8709900Y-6565557D01*
X8724186Y-6536986D01*
X8738471Y-6494129D01*
X8752757Y-6422700D01*
X8752757Y-6365557D01*
X8738471Y-6294129D01*
X8724186Y-6251271D01*
X8709900Y-6222700D01*
X8681328Y-6179843D01*
X8667043Y-6165557D01*
X1894900Y-6768700D02*
G75*
G03X1894900Y-6768700I-45000J0D01*
G01*
X2238471Y-6604414D02*
X2267043Y-6604414D01*
X2295614Y-6618700D01*
X2309900Y-6632986D01*
X2324186Y-6661557D01*
X2338471Y-6718700D01*
X2338471Y-6790129D01*
X2324186Y-6847271D01*
X2309900Y-6875843D01*
X2295614Y-6890129D01*
X2267043Y-6904414D01*
X2238471Y-6904414D01*
X2209900Y-6890129D01*
X2195614Y-6875843D01*
X2181328Y-6847271D01*
X2167043Y-6790129D01*
X2167043Y-6718700D01*
X2181328Y-6661557D01*
X2195614Y-6632986D01*
X2209900Y-6618700D01*
X2238471Y-6604414D01*
X2467043Y-6875843D02*
X2481328Y-6890129D01*
X2467043Y-6904414D01*
X2452757Y-6890129D01*
X2467043Y-6875843D01*
X2467043Y-6904414D01*
X2624186Y-6904414D02*
X2681328Y-6904414D01*
X2709900Y-6890129D01*
X2724186Y-6875843D01*
X2752757Y-6832986D01*
X2767043Y-6775843D01*
X2767043Y-6661557D01*
X2752757Y-6632986D01*
X2738471Y-6618700D01*
X2709900Y-6604414D01*
X2652757Y-6604414D01*
X2624186Y-6618700D01*
X2609900Y-6632986D01*
X2595614Y-6661557D01*
X2595614Y-6732986D01*
X2609900Y-6761557D01*
X2624186Y-6775843D01*
X2652757Y-6790129D01*
X2709900Y-6790129D01*
X2738471Y-6775843D01*
X2752757Y-6761557D01*
X2767043Y-6732986D01*
X2952757Y-6604414D02*
X2981328Y-6604414D01*
X3009900Y-6618700D01*
X3024186Y-6632986D01*
X3038471Y-6661557D01*
X3052757Y-6718700D01*
X3052757Y-6790129D01*
X3038471Y-6847271D01*
X3024186Y-6875843D01*
X3009900Y-6890129D01*
X2981328Y-6904414D01*
X2952757Y-6904414D01*
X2924186Y-6890129D01*
X2909900Y-6875843D01*
X2895614Y-6847271D01*
X2881328Y-6790129D01*
X2881328Y-6718700D01*
X2895614Y-6661557D01*
X2909900Y-6632986D01*
X2924186Y-6618700D01*
X2952757Y-6604414D01*
X3181328Y-6904414D02*
X3181328Y-6704414D01*
X3181328Y-6732986D02*
X3195614Y-6718700D01*
X3224186Y-6704414D01*
X3267043Y-6704414D01*
X3295614Y-6718700D01*
X3309900Y-6747271D01*
X3309900Y-6904414D01*
X3309900Y-6747271D02*
X3324186Y-6718700D01*
X3352757Y-6704414D01*
X3395614Y-6704414D01*
X3424186Y-6718700D01*
X3438471Y-6747271D01*
X3438471Y-6904414D01*
X3581328Y-6904414D02*
X3581328Y-6704414D01*
X3581328Y-6732986D02*
X3595614Y-6718700D01*
X3624186Y-6704414D01*
X3667043Y-6704414D01*
X3695614Y-6718700D01*
X3709900Y-6747271D01*
X3709900Y-6904414D01*
X3709900Y-6747271D02*
X3724186Y-6718700D01*
X3752757Y-6704414D01*
X3795614Y-6704414D01*
X3824186Y-6718700D01*
X3838471Y-6747271D01*
X3838471Y-6904414D01*
X4424186Y-6590129D02*
X4167043Y-6975843D01*
X4809900Y-6604414D02*
X4838471Y-6604414D01*
X4867043Y-6618700D01*
X4881328Y-6632986D01*
X4895614Y-6661557D01*
X4909900Y-6718700D01*
X4909900Y-6790129D01*
X4895614Y-6847271D01*
X4881328Y-6875843D01*
X4867043Y-6890129D01*
X4838471Y-6904414D01*
X4809900Y-6904414D01*
X4781328Y-6890129D01*
X4767043Y-6875843D01*
X4752757Y-6847271D01*
X4738471Y-6790129D01*
X4738471Y-6718700D01*
X4752757Y-6661557D01*
X4767043Y-6632986D01*
X4781328Y-6618700D01*
X4809900Y-6604414D01*
X5038471Y-6875843D02*
X5052757Y-6890129D01*
X5038471Y-6904414D01*
X5024186Y-6890129D01*
X5038471Y-6875843D01*
X5038471Y-6904414D01*
X5238471Y-6604414D02*
X5267043Y-6604414D01*
X5295614Y-6618700D01*
X5309900Y-6632986D01*
X5324186Y-6661557D01*
X5338471Y-6718700D01*
X5338471Y-6790129D01*
X5324186Y-6847271D01*
X5309900Y-6875843D01*
X5295614Y-6890129D01*
X5267043Y-6904414D01*
X5238471Y-6904414D01*
X5209900Y-6890129D01*
X5195614Y-6875843D01*
X5181328Y-6847271D01*
X5167043Y-6790129D01*
X5167043Y-6718700D01*
X5181328Y-6661557D01*
X5195614Y-6632986D01*
X5209900Y-6618700D01*
X5238471Y-6604414D01*
X5438471Y-6604414D02*
X5624186Y-6604414D01*
X5524186Y-6718700D01*
X5567043Y-6718700D01*
X5595614Y-6732986D01*
X5609900Y-6747271D01*
X5624186Y-6775843D01*
X5624186Y-6847271D01*
X5609900Y-6875843D01*
X5595614Y-6890129D01*
X5567043Y-6904414D01*
X5481328Y-6904414D01*
X5452757Y-6890129D01*
X5438471Y-6875843D01*
X5895614Y-6604414D02*
X5752757Y-6604414D01*
X5738471Y-6747271D01*
X5752757Y-6732986D01*
X5781328Y-6718700D01*
X5852757Y-6718700D01*
X5881328Y-6732986D01*
X5895614Y-6747271D01*
X5909900Y-6775843D01*
X5909900Y-6847271D01*
X5895614Y-6875843D01*
X5881328Y-6890129D01*
X5852757Y-6904414D01*
X5781328Y-6904414D01*
X5752757Y-6890129D01*
X5738471Y-6875843D01*
X6024186Y-6604414D02*
X6024186Y-6661557D01*
X6138471Y-6604414D02*
X6138471Y-6661557D01*
X6581328Y-7018700D02*
X6567043Y-7004414D01*
X6538471Y-6961557D01*
X6524186Y-6932986D01*
X6509900Y-6890129D01*
X6495614Y-6818700D01*
X6495614Y-6761557D01*
X6509900Y-6690129D01*
X6524186Y-6647271D01*
X6538471Y-6618700D01*
X6567043Y-6575843D01*
X6581328Y-6561557D01*
X6667043Y-6604414D02*
X6852757Y-6604414D01*
X6752757Y-6718700D01*
X6795614Y-6718700D01*
X6824186Y-6732986D01*
X6838471Y-6747271D01*
X6852757Y-6775843D01*
X6852757Y-6847271D01*
X6838471Y-6875843D01*
X6824186Y-6890129D01*
X6795614Y-6904414D01*
X6709900Y-6904414D01*
X6681328Y-6890129D01*
X6667043Y-6875843D01*
X7209900Y-6904414D02*
X7209900Y-6604414D01*
X7338471Y-6904414D02*
X7338471Y-6747271D01*
X7324186Y-6718700D01*
X7295614Y-6704414D01*
X7252757Y-6704414D01*
X7224186Y-6718700D01*
X7209900Y-6732986D01*
X7524186Y-6904414D02*
X7495614Y-6890129D01*
X7481328Y-6875843D01*
X7467043Y-6847271D01*
X7467043Y-6761557D01*
X7481328Y-6732986D01*
X7495614Y-6718700D01*
X7524186Y-6704414D01*
X7567043Y-6704414D01*
X7595614Y-6718700D01*
X7609900Y-6732986D01*
X7624186Y-6761557D01*
X7624186Y-6847271D01*
X7609900Y-6875843D01*
X7595614Y-6890129D01*
X7567043Y-6904414D01*
X7524186Y-6904414D01*
X7795614Y-6904414D02*
X7767043Y-6890129D01*
X7752757Y-6861557D01*
X7752757Y-6604414D01*
X8024186Y-6890129D02*
X7995614Y-6904414D01*
X7938471Y-6904414D01*
X7909900Y-6890129D01*
X7895614Y-6861557D01*
X7895614Y-6747271D01*
X7909900Y-6718700D01*
X7938471Y-6704414D01*
X7995614Y-6704414D01*
X8024186Y-6718700D01*
X8038471Y-6747271D01*
X8038471Y-6775843D01*
X7895614Y-6804414D01*
X8152757Y-6890129D02*
X8181328Y-6904414D01*
X8238471Y-6904414D01*
X8267043Y-6890129D01*
X8281328Y-6861557D01*
X8281328Y-6847271D01*
X8267043Y-6818700D01*
X8238471Y-6804414D01*
X8195614Y-6804414D01*
X8167043Y-6790129D01*
X8152757Y-6761557D01*
X8152757Y-6747271D01*
X8167043Y-6718700D01*
X8195614Y-6704414D01*
X8238471Y-6704414D01*
X8267043Y-6718700D01*
X8381328Y-7018700D02*
X8395614Y-7004414D01*
X8424186Y-6961557D01*
X8438471Y-6932986D01*
X8452757Y-6890129D01*
X8467043Y-6818700D01*
X8467043Y-6761557D01*
X8452757Y-6690129D01*
X8438471Y-6647271D01*
X8424186Y-6618700D01*
X8395614Y-6575843D01*
X8381328Y-6561557D01*
X1844900Y-7114700D02*
X1844900Y-7214700D01*
X1794900Y-7164700D02*
X1894900Y-7164700D01*
X2338471Y-7300414D02*
X2167043Y-7300414D01*
X2252757Y-7300414D02*
X2252757Y-7000414D01*
X2224186Y-7043271D01*
X2195614Y-7071843D01*
X2167043Y-7086129D01*
X2467043Y-7271843D02*
X2481328Y-7286129D01*
X2467043Y-7300414D01*
X2452757Y-7286129D01*
X2467043Y-7271843D01*
X2467043Y-7300414D01*
X2667043Y-7000414D02*
X2695614Y-7000414D01*
X2724186Y-7014700D01*
X2738471Y-7028986D01*
X2752757Y-7057557D01*
X2767043Y-7114700D01*
X2767043Y-7186129D01*
X2752757Y-7243271D01*
X2738471Y-7271843D01*
X2724186Y-7286129D01*
X2695614Y-7300414D01*
X2667043Y-7300414D01*
X2638471Y-7286129D01*
X2624186Y-7271843D01*
X2609900Y-7243271D01*
X2595614Y-7186129D01*
X2595614Y-7114700D01*
X2609900Y-7057557D01*
X2624186Y-7028986D01*
X2638471Y-7014700D01*
X2667043Y-7000414D01*
X2952757Y-7000414D02*
X2981328Y-7000414D01*
X3009900Y-7014700D01*
X3024186Y-7028986D01*
X3038471Y-7057557D01*
X3052757Y-7114700D01*
X3052757Y-7186129D01*
X3038471Y-7243271D01*
X3024186Y-7271843D01*
X3009900Y-7286129D01*
X2981328Y-7300414D01*
X2952757Y-7300414D01*
X2924186Y-7286129D01*
X2909900Y-7271843D01*
X2895614Y-7243271D01*
X2881328Y-7186129D01*
X2881328Y-7114700D01*
X2895614Y-7057557D01*
X2909900Y-7028986D01*
X2924186Y-7014700D01*
X2952757Y-7000414D01*
X3181328Y-7300414D02*
X3181328Y-7100414D01*
X3181328Y-7128986D02*
X3195614Y-7114700D01*
X3224186Y-7100414D01*
X3267043Y-7100414D01*
X3295614Y-7114700D01*
X3309900Y-7143271D01*
X3309900Y-7300414D01*
X3309900Y-7143271D02*
X3324186Y-7114700D01*
X3352757Y-7100414D01*
X3395614Y-7100414D01*
X3424186Y-7114700D01*
X3438471Y-7143271D01*
X3438471Y-7300414D01*
X3581328Y-7300414D02*
X3581328Y-7100414D01*
X3581328Y-7128986D02*
X3595614Y-7114700D01*
X3624186Y-7100414D01*
X3667043Y-7100414D01*
X3695614Y-7114700D01*
X3709900Y-7143271D01*
X3709900Y-7300414D01*
X3709900Y-7143271D02*
X3724186Y-7114700D01*
X3752757Y-7100414D01*
X3795614Y-7100414D01*
X3824186Y-7114700D01*
X3838471Y-7143271D01*
X3838471Y-7300414D01*
X4424186Y-6986129D02*
X4167043Y-7371843D01*
X4809900Y-7000414D02*
X4838471Y-7000414D01*
X4867043Y-7014700D01*
X4881328Y-7028986D01*
X4895614Y-7057557D01*
X4909900Y-7114700D01*
X4909900Y-7186129D01*
X4895614Y-7243271D01*
X4881328Y-7271843D01*
X4867043Y-7286129D01*
X4838471Y-7300414D01*
X4809900Y-7300414D01*
X4781328Y-7286129D01*
X4767043Y-7271843D01*
X4752757Y-7243271D01*
X4738471Y-7186129D01*
X4738471Y-7114700D01*
X4752757Y-7057557D01*
X4767043Y-7028986D01*
X4781328Y-7014700D01*
X4809900Y-7000414D01*
X5038471Y-7271843D02*
X5052757Y-7286129D01*
X5038471Y-7300414D01*
X5024186Y-7286129D01*
X5038471Y-7271843D01*
X5038471Y-7300414D01*
X5238471Y-7000414D02*
X5267043Y-7000414D01*
X5295614Y-7014700D01*
X5309900Y-7028986D01*
X5324186Y-7057557D01*
X5338471Y-7114700D01*
X5338471Y-7186129D01*
X5324186Y-7243271D01*
X5309900Y-7271843D01*
X5295614Y-7286129D01*
X5267043Y-7300414D01*
X5238471Y-7300414D01*
X5209900Y-7286129D01*
X5195614Y-7271843D01*
X5181328Y-7243271D01*
X5167043Y-7186129D01*
X5167043Y-7114700D01*
X5181328Y-7057557D01*
X5195614Y-7028986D01*
X5209900Y-7014700D01*
X5238471Y-7000414D01*
X5438471Y-7000414D02*
X5624186Y-7000414D01*
X5524186Y-7114700D01*
X5567043Y-7114700D01*
X5595614Y-7128986D01*
X5609900Y-7143271D01*
X5624186Y-7171843D01*
X5624186Y-7243271D01*
X5609900Y-7271843D01*
X5595614Y-7286129D01*
X5567043Y-7300414D01*
X5481328Y-7300414D01*
X5452757Y-7286129D01*
X5438471Y-7271843D01*
X5767043Y-7300414D02*
X5824186Y-7300414D01*
X5852757Y-7286129D01*
X5867043Y-7271843D01*
X5895614Y-7228986D01*
X5909900Y-7171843D01*
X5909900Y-7057557D01*
X5895614Y-7028986D01*
X5881328Y-7014700D01*
X5852757Y-7000414D01*
X5795614Y-7000414D01*
X5767043Y-7014700D01*
X5752757Y-7028986D01*
X5738471Y-7057557D01*
X5738471Y-7128986D01*
X5752757Y-7157557D01*
X5767043Y-7171843D01*
X5795614Y-7186129D01*
X5852757Y-7186129D01*
X5881328Y-7171843D01*
X5895614Y-7157557D01*
X5909900Y-7128986D01*
X6024186Y-7000414D02*
X6024186Y-7057557D01*
X6138471Y-7000414D02*
X6138471Y-7057557D01*
X6581328Y-7414700D02*
X6567043Y-7400414D01*
X6538471Y-7357557D01*
X6524186Y-7328986D01*
X6509900Y-7286129D01*
X6495614Y-7214700D01*
X6495614Y-7157557D01*
X6509900Y-7086129D01*
X6524186Y-7043271D01*
X6538471Y-7014700D01*
X6567043Y-6971843D01*
X6581328Y-6957557D01*
X6824186Y-7100414D02*
X6824186Y-7300414D01*
X6752757Y-6986129D02*
X6681328Y-7200414D01*
X6867043Y-7200414D01*
X6952757Y-7000414D02*
X7138471Y-7000414D01*
X7038471Y-7114700D01*
X7081328Y-7114700D01*
X7109900Y-7128986D01*
X7124186Y-7143271D01*
X7138471Y-7171843D01*
X7138471Y-7243271D01*
X7124186Y-7271843D01*
X7109900Y-7286129D01*
X7081328Y-7300414D01*
X6995614Y-7300414D01*
X6967043Y-7286129D01*
X6952757Y-7271843D01*
X7495614Y-7300414D02*
X7495614Y-7000414D01*
X7624186Y-7300414D02*
X7624186Y-7143271D01*
X7609900Y-7114700D01*
X7581328Y-7100414D01*
X7538471Y-7100414D01*
X7509900Y-7114700D01*
X7495614Y-7128986D01*
X7809900Y-7300414D02*
X7781328Y-7286129D01*
X7767043Y-7271843D01*
X7752757Y-7243271D01*
X7752757Y-7157557D01*
X7767043Y-7128986D01*
X7781328Y-7114700D01*
X7809900Y-7100414D01*
X7852757Y-7100414D01*
X7881328Y-7114700D01*
X7895614Y-7128986D01*
X7909900Y-7157557D01*
X7909900Y-7243271D01*
X7895614Y-7271843D01*
X7881328Y-7286129D01*
X7852757Y-7300414D01*
X7809900Y-7300414D01*
X8081328Y-7300414D02*
X8052757Y-7286129D01*
X8038471Y-7257557D01*
X8038471Y-7000414D01*
X8309900Y-7286129D02*
X8281328Y-7300414D01*
X8224186Y-7300414D01*
X8195614Y-7286129D01*
X8181328Y-7257557D01*
X8181328Y-7143271D01*
X8195614Y-7114700D01*
X8224186Y-7100414D01*
X8281328Y-7100414D01*
X8309900Y-7114700D01*
X8324186Y-7143271D01*
X8324186Y-7171843D01*
X8181328Y-7200414D01*
X8438471Y-7286129D02*
X8467043Y-7300414D01*
X8524186Y-7300414D01*
X8552757Y-7286129D01*
X8567043Y-7257557D01*
X8567043Y-7243271D01*
X8552757Y-7214700D01*
X8524186Y-7200414D01*
X8481328Y-7200414D01*
X8452757Y-7186129D01*
X8438471Y-7157557D01*
X8438471Y-7143271D01*
X8452757Y-7114700D01*
X8481328Y-7100414D01*
X8524186Y-7100414D01*
X8552757Y-7114700D01*
X8667043Y-7414700D02*
X8681328Y-7400414D01*
X8709900Y-7357557D01*
X8724186Y-7328986D01*
X8738471Y-7286129D01*
X8752757Y-7214700D01*
X8752757Y-7157557D01*
X8738471Y-7086129D01*
X8724186Y-7043271D01*
X8709900Y-7014700D01*
X8681328Y-6971843D01*
X8667043Y-6957557D01*
X1872933Y-7613734D02*
X1872933Y-7507667D01*
X1766866Y-7507667D01*
X1766866Y-7613734D01*
X1872933Y-7613734D01*
X2338471Y-7696414D02*
X2167043Y-7696414D01*
X2252757Y-7696414D02*
X2252757Y-7396414D01*
X2224186Y-7439271D01*
X2195614Y-7467843D01*
X2167043Y-7482129D01*
X2467043Y-7667843D02*
X2481328Y-7682129D01*
X2467043Y-7696414D01*
X2452757Y-7682129D01*
X2467043Y-7667843D01*
X2467043Y-7696414D01*
X2752757Y-7396414D02*
X2609900Y-7396414D01*
X2595614Y-7539271D01*
X2609900Y-7524986D01*
X2638471Y-7510700D01*
X2709900Y-7510700D01*
X2738471Y-7524986D01*
X2752757Y-7539271D01*
X2767043Y-7567843D01*
X2767043Y-7639271D01*
X2752757Y-7667843D01*
X2738471Y-7682129D01*
X2709900Y-7696414D01*
X2638471Y-7696414D01*
X2609900Y-7682129D01*
X2595614Y-7667843D01*
X2952757Y-7396414D02*
X2981328Y-7396414D01*
X3009900Y-7410700D01*
X3024186Y-7424986D01*
X3038471Y-7453557D01*
X3052757Y-7510700D01*
X3052757Y-7582129D01*
X3038471Y-7639271D01*
X3024186Y-7667843D01*
X3009900Y-7682129D01*
X2981328Y-7696414D01*
X2952757Y-7696414D01*
X2924186Y-7682129D01*
X2909900Y-7667843D01*
X2895614Y-7639271D01*
X2881328Y-7582129D01*
X2881328Y-7510700D01*
X2895614Y-7453557D01*
X2909900Y-7424986D01*
X2924186Y-7410700D01*
X2952757Y-7396414D01*
X3181328Y-7696414D02*
X3181328Y-7496414D01*
X3181328Y-7524986D02*
X3195614Y-7510700D01*
X3224186Y-7496414D01*
X3267043Y-7496414D01*
X3295614Y-7510700D01*
X3309900Y-7539271D01*
X3309900Y-7696414D01*
X3309900Y-7539271D02*
X3324186Y-7510700D01*
X3352757Y-7496414D01*
X3395614Y-7496414D01*
X3424186Y-7510700D01*
X3438471Y-7539271D01*
X3438471Y-7696414D01*
X3581328Y-7696414D02*
X3581328Y-7496414D01*
X3581328Y-7524986D02*
X3595614Y-7510700D01*
X3624186Y-7496414D01*
X3667043Y-7496414D01*
X3695614Y-7510700D01*
X3709900Y-7539271D01*
X3709900Y-7696414D01*
X3709900Y-7539271D02*
X3724186Y-7510700D01*
X3752757Y-7496414D01*
X3795614Y-7496414D01*
X3824186Y-7510700D01*
X3838471Y-7539271D01*
X3838471Y-7696414D01*
X4424186Y-7382129D02*
X4167043Y-7767843D01*
X4809900Y-7396414D02*
X4838471Y-7396414D01*
X4867043Y-7410700D01*
X4881328Y-7424986D01*
X4895614Y-7453557D01*
X4909900Y-7510700D01*
X4909900Y-7582129D01*
X4895614Y-7639271D01*
X4881328Y-7667843D01*
X4867043Y-7682129D01*
X4838471Y-7696414D01*
X4809900Y-7696414D01*
X4781328Y-7682129D01*
X4767043Y-7667843D01*
X4752757Y-7639271D01*
X4738471Y-7582129D01*
X4738471Y-7510700D01*
X4752757Y-7453557D01*
X4767043Y-7424986D01*
X4781328Y-7410700D01*
X4809900Y-7396414D01*
X5038471Y-7667843D02*
X5052757Y-7682129D01*
X5038471Y-7696414D01*
X5024186Y-7682129D01*
X5038471Y-7667843D01*
X5038471Y-7696414D01*
X5238471Y-7396414D02*
X5267043Y-7396414D01*
X5295614Y-7410700D01*
X5309900Y-7424986D01*
X5324186Y-7453557D01*
X5338471Y-7510700D01*
X5338471Y-7582129D01*
X5324186Y-7639271D01*
X5309900Y-7667843D01*
X5295614Y-7682129D01*
X5267043Y-7696414D01*
X5238471Y-7696414D01*
X5209900Y-7682129D01*
X5195614Y-7667843D01*
X5181328Y-7639271D01*
X5167043Y-7582129D01*
X5167043Y-7510700D01*
X5181328Y-7453557D01*
X5195614Y-7424986D01*
X5209900Y-7410700D01*
X5238471Y-7396414D01*
X5609900Y-7396414D02*
X5467043Y-7396414D01*
X5452757Y-7539271D01*
X5467043Y-7524986D01*
X5495614Y-7510700D01*
X5567043Y-7510700D01*
X5595614Y-7524986D01*
X5609900Y-7539271D01*
X5624186Y-7567843D01*
X5624186Y-7639271D01*
X5609900Y-7667843D01*
X5595614Y-7682129D01*
X5567043Y-7696414D01*
X5495614Y-7696414D01*
X5467043Y-7682129D01*
X5452757Y-7667843D01*
X5767043Y-7696414D02*
X5824186Y-7696414D01*
X5852757Y-7682129D01*
X5867043Y-7667843D01*
X5895614Y-7624986D01*
X5909900Y-7567843D01*
X5909900Y-7453557D01*
X5895614Y-7424986D01*
X5881328Y-7410700D01*
X5852757Y-7396414D01*
X5795614Y-7396414D01*
X5767043Y-7410700D01*
X5752757Y-7424986D01*
X5738471Y-7453557D01*
X5738471Y-7524986D01*
X5752757Y-7553557D01*
X5767043Y-7567843D01*
X5795614Y-7582129D01*
X5852757Y-7582129D01*
X5881328Y-7567843D01*
X5895614Y-7553557D01*
X5909900Y-7524986D01*
X6024186Y-7396414D02*
X6024186Y-7453557D01*
X6138471Y-7396414D02*
X6138471Y-7453557D01*
X6581328Y-7810700D02*
X6567043Y-7796414D01*
X6538471Y-7753557D01*
X6524186Y-7724986D01*
X6509900Y-7682129D01*
X6495614Y-7610700D01*
X6495614Y-7553557D01*
X6509900Y-7482129D01*
X6524186Y-7439271D01*
X6538471Y-7410700D01*
X6567043Y-7367843D01*
X6581328Y-7353557D01*
X6681328Y-7424986D02*
X6695614Y-7410700D01*
X6724186Y-7396414D01*
X6795614Y-7396414D01*
X6824186Y-7410700D01*
X6838471Y-7424986D01*
X6852757Y-7453557D01*
X6852757Y-7482129D01*
X6838471Y-7524986D01*
X6667043Y-7696414D01*
X6852757Y-7696414D01*
X7209900Y-7696414D02*
X7209900Y-7396414D01*
X7338471Y-7696414D02*
X7338471Y-7539271D01*
X7324186Y-7510700D01*
X7295614Y-7496414D01*
X7252757Y-7496414D01*
X7224186Y-7510700D01*
X7209900Y-7524986D01*
X7524186Y-7696414D02*
X7495614Y-7682129D01*
X7481328Y-7667843D01*
X7467043Y-7639271D01*
X7467043Y-7553557D01*
X7481328Y-7524986D01*
X7495614Y-7510700D01*
X7524186Y-7496414D01*
X7567043Y-7496414D01*
X7595614Y-7510700D01*
X7609900Y-7524986D01*
X7624186Y-7553557D01*
X7624186Y-7639271D01*
X7609900Y-7667843D01*
X7595614Y-7682129D01*
X7567043Y-7696414D01*
X7524186Y-7696414D01*
X7795614Y-7696414D02*
X7767043Y-7682129D01*
X7752757Y-7653557D01*
X7752757Y-7396414D01*
X8024186Y-7682129D02*
X7995614Y-7696414D01*
X7938471Y-7696414D01*
X7909900Y-7682129D01*
X7895614Y-7653557D01*
X7895614Y-7539271D01*
X7909900Y-7510700D01*
X7938471Y-7496414D01*
X7995614Y-7496414D01*
X8024186Y-7510700D01*
X8038471Y-7539271D01*
X8038471Y-7567843D01*
X7895614Y-7596414D01*
X8152757Y-7682129D02*
X8181328Y-7696414D01*
X8238471Y-7696414D01*
X8267043Y-7682129D01*
X8281328Y-7653557D01*
X8281328Y-7639271D01*
X8267043Y-7610700D01*
X8238471Y-7596414D01*
X8195614Y-7596414D01*
X8167043Y-7582129D01*
X8152757Y-7553557D01*
X8152757Y-7539271D01*
X8167043Y-7510700D01*
X8195614Y-7496414D01*
X8238471Y-7496414D01*
X8267043Y-7510700D01*
X8381328Y-7810700D02*
X8395614Y-7796414D01*
X8424186Y-7753557D01*
X8438471Y-7724986D01*
X8452757Y-7682129D01*
X8467043Y-7610700D01*
X8467043Y-7553557D01*
X8452757Y-7482129D01*
X8438471Y-7439271D01*
X8424186Y-7410700D01*
X8395614Y-7367843D01*
X8381328Y-7353557D01*
X1779900Y-8071700D02*
X1894900Y-7956700D01*
X1779900Y-7841700D01*
X1664900Y-7956700D01*
X1779900Y-8071700D01*
X2167043Y-7820986D02*
X2181328Y-7806700D01*
X2209900Y-7792414D01*
X2281328Y-7792414D01*
X2309900Y-7806700D01*
X2324186Y-7820986D01*
X2338471Y-7849557D01*
X2338471Y-7878129D01*
X2324186Y-7920986D01*
X2152757Y-8092414D01*
X2338471Y-8092414D01*
X2467043Y-8063843D02*
X2481328Y-8078129D01*
X2467043Y-8092414D01*
X2452757Y-8078129D01*
X2467043Y-8063843D01*
X2467043Y-8092414D01*
X2581328Y-7792414D02*
X2767043Y-7792414D01*
X2667043Y-7906700D01*
X2709900Y-7906700D01*
X2738471Y-7920986D01*
X2752757Y-7935271D01*
X2767043Y-7963843D01*
X2767043Y-8035271D01*
X2752757Y-8063843D01*
X2738471Y-8078129D01*
X2709900Y-8092414D01*
X2624186Y-8092414D01*
X2595614Y-8078129D01*
X2581328Y-8063843D01*
X2952757Y-7792414D02*
X2981328Y-7792414D01*
X3009900Y-7806700D01*
X3024186Y-7820986D01*
X3038471Y-7849557D01*
X3052757Y-7906700D01*
X3052757Y-7978129D01*
X3038471Y-8035271D01*
X3024186Y-8063843D01*
X3009900Y-8078129D01*
X2981328Y-8092414D01*
X2952757Y-8092414D01*
X2924186Y-8078129D01*
X2909900Y-8063843D01*
X2895614Y-8035271D01*
X2881328Y-7978129D01*
X2881328Y-7906700D01*
X2895614Y-7849557D01*
X2909900Y-7820986D01*
X2924186Y-7806700D01*
X2952757Y-7792414D01*
X3181328Y-8092414D02*
X3181328Y-7892414D01*
X3181328Y-7920986D02*
X3195614Y-7906700D01*
X3224186Y-7892414D01*
X3267043Y-7892414D01*
X3295614Y-7906700D01*
X3309900Y-7935271D01*
X3309900Y-8092414D01*
X3309900Y-7935271D02*
X3324186Y-7906700D01*
X3352757Y-7892414D01*
X3395614Y-7892414D01*
X3424186Y-7906700D01*
X3438471Y-7935271D01*
X3438471Y-8092414D01*
X3581328Y-8092414D02*
X3581328Y-7892414D01*
X3581328Y-7920986D02*
X3595614Y-7906700D01*
X3624186Y-7892414D01*
X3667043Y-7892414D01*
X3695614Y-7906700D01*
X3709900Y-7935271D01*
X3709900Y-8092414D01*
X3709900Y-7935271D02*
X3724186Y-7906700D01*
X3752757Y-7892414D01*
X3795614Y-7892414D01*
X3824186Y-7906700D01*
X3838471Y-7935271D01*
X3838471Y-8092414D01*
X4424186Y-7778129D02*
X4167043Y-8163843D01*
X4809900Y-7792414D02*
X4838471Y-7792414D01*
X4867043Y-7806700D01*
X4881328Y-7820986D01*
X4895614Y-7849557D01*
X4909900Y-7906700D01*
X4909900Y-7978129D01*
X4895614Y-8035271D01*
X4881328Y-8063843D01*
X4867043Y-8078129D01*
X4838471Y-8092414D01*
X4809900Y-8092414D01*
X4781328Y-8078129D01*
X4767043Y-8063843D01*
X4752757Y-8035271D01*
X4738471Y-7978129D01*
X4738471Y-7906700D01*
X4752757Y-7849557D01*
X4767043Y-7820986D01*
X4781328Y-7806700D01*
X4809900Y-7792414D01*
X5038471Y-8063843D02*
X5052757Y-8078129D01*
X5038471Y-8092414D01*
X5024186Y-8078129D01*
X5038471Y-8063843D01*
X5038471Y-8092414D01*
X5238471Y-7792414D02*
X5267043Y-7792414D01*
X5295614Y-7806700D01*
X5309900Y-7820986D01*
X5324186Y-7849557D01*
X5338471Y-7906700D01*
X5338471Y-7978129D01*
X5324186Y-8035271D01*
X5309900Y-8063843D01*
X5295614Y-8078129D01*
X5267043Y-8092414D01*
X5238471Y-8092414D01*
X5209900Y-8078129D01*
X5195614Y-8063843D01*
X5181328Y-8035271D01*
X5167043Y-7978129D01*
X5167043Y-7906700D01*
X5181328Y-7849557D01*
X5195614Y-7820986D01*
X5209900Y-7806700D01*
X5238471Y-7792414D01*
X5481328Y-8092414D02*
X5538471Y-8092414D01*
X5567043Y-8078129D01*
X5581328Y-8063843D01*
X5609900Y-8020986D01*
X5624186Y-7963843D01*
X5624186Y-7849557D01*
X5609900Y-7820986D01*
X5595614Y-7806700D01*
X5567043Y-7792414D01*
X5509900Y-7792414D01*
X5481328Y-7806700D01*
X5467043Y-7820986D01*
X5452757Y-7849557D01*
X5452757Y-7920986D01*
X5467043Y-7949557D01*
X5481328Y-7963843D01*
X5509900Y-7978129D01*
X5567043Y-7978129D01*
X5595614Y-7963843D01*
X5609900Y-7949557D01*
X5624186Y-7920986D01*
X5909900Y-8092414D02*
X5738471Y-8092414D01*
X5824186Y-8092414D02*
X5824186Y-7792414D01*
X5795614Y-7835271D01*
X5767043Y-7863843D01*
X5738471Y-7878129D01*
X6024186Y-7792414D02*
X6024186Y-7849557D01*
X6138471Y-7792414D02*
X6138471Y-7849557D01*
X6581328Y-8206700D02*
X6567043Y-8192414D01*
X6538471Y-8149557D01*
X6524186Y-8120986D01*
X6509900Y-8078129D01*
X6495614Y-8006700D01*
X6495614Y-7949557D01*
X6509900Y-7878129D01*
X6524186Y-7835271D01*
X6538471Y-7806700D01*
X6567043Y-7763843D01*
X6581328Y-7749557D01*
X6681328Y-7820986D02*
X6695614Y-7806700D01*
X6724186Y-7792414D01*
X6795614Y-7792414D01*
X6824186Y-7806700D01*
X6838471Y-7820986D01*
X6852757Y-7849557D01*
X6852757Y-7878129D01*
X6838471Y-7920986D01*
X6667043Y-8092414D01*
X6852757Y-8092414D01*
X7209900Y-8092414D02*
X7209900Y-7792414D01*
X7338471Y-8092414D02*
X7338471Y-7935271D01*
X7324186Y-7906700D01*
X7295614Y-7892414D01*
X7252757Y-7892414D01*
X7224186Y-7906700D01*
X7209900Y-7920986D01*
X7524186Y-8092414D02*
X7495614Y-8078129D01*
X7481328Y-8063843D01*
X7467043Y-8035271D01*
X7467043Y-7949557D01*
X7481328Y-7920986D01*
X7495614Y-7906700D01*
X7524186Y-7892414D01*
X7567043Y-7892414D01*
X7595614Y-7906700D01*
X7609900Y-7920986D01*
X7624186Y-7949557D01*
X7624186Y-8035271D01*
X7609900Y-8063843D01*
X7595614Y-8078129D01*
X7567043Y-8092414D01*
X7524186Y-8092414D01*
X7795614Y-8092414D02*
X7767043Y-8078129D01*
X7752757Y-8049557D01*
X7752757Y-7792414D01*
X8024186Y-8078129D02*
X7995614Y-8092414D01*
X7938471Y-8092414D01*
X7909900Y-8078129D01*
X7895614Y-8049557D01*
X7895614Y-7935271D01*
X7909900Y-7906700D01*
X7938471Y-7892414D01*
X7995614Y-7892414D01*
X8024186Y-7906700D01*
X8038471Y-7935271D01*
X8038471Y-7963843D01*
X7895614Y-7992414D01*
X8152757Y-8078129D02*
X8181328Y-8092414D01*
X8238471Y-8092414D01*
X8267043Y-8078129D01*
X8281328Y-8049557D01*
X8281328Y-8035271D01*
X8267043Y-8006700D01*
X8238471Y-7992414D01*
X8195614Y-7992414D01*
X8167043Y-7978129D01*
X8152757Y-7949557D01*
X8152757Y-7935271D01*
X8167043Y-7906700D01*
X8195614Y-7892414D01*
X8238471Y-7892414D01*
X8267043Y-7906700D01*
X8381328Y-8206700D02*
X8395614Y-8192414D01*
X8424186Y-8149557D01*
X8438471Y-8120986D01*
X8452757Y-8078129D01*
X8467043Y-8006700D01*
X8467043Y-7949557D01*
X8452757Y-7878129D01*
X8438471Y-7835271D01*
X8424186Y-7806700D01*
X8395614Y-7763843D01*
X8381328Y-7749557D01*
M02*
