G04 #@! TF.GenerationSoftware,KiCad,Pcbnew,(5.1.4)-1*
G04 #@! TF.CreationDate,2019-12-12T19:52:35+09:00*
G04 #@! TF.ProjectId,microcar_head,6d696372-6f63-4617-925f-686561642e6b,rev?*
G04 #@! TF.SameCoordinates,Original*
G04 #@! TF.FileFunction,Copper,L1,Top*
G04 #@! TF.FilePolarity,Positive*
%FSLAX46Y46*%
G04 Gerber Fmt 4.6, Leading zero omitted, Abs format (unit mm)*
G04 Created by KiCad (PCBNEW (5.1.4)-1) date 2019-12-12 19:52:35*
%MOMM*%
%LPD*%
G04 APERTURE LIST*
%ADD10O,1.700000X1.700000*%
%ADD11R,1.700000X1.700000*%
%ADD12C,1.700000*%
%ADD13C,1.600000*%
%ADD14R,3.000000X1.500000*%
%ADD15C,4.600000*%
%ADD16C,1.800000*%
%ADD17R,2.500000X1.500000*%
%ADD18O,2.500000X1.500000*%
%ADD19O,3.500000X2.200000*%
%ADD20C,0.800000*%
%ADD21C,0.400000*%
%ADD22C,0.254000*%
G04 APERTURE END LIST*
D10*
X20955000Y-49911000D03*
X20955000Y-52451000D03*
X23495000Y-49911000D03*
X23495000Y-52451000D03*
X26035000Y-49911000D03*
X26035000Y-52451000D03*
X28575000Y-49911000D03*
X28575000Y-52451000D03*
X31115000Y-49911000D03*
X31115000Y-52451000D03*
X33655000Y-49911000D03*
X33655000Y-52451000D03*
X36195000Y-49911000D03*
X36195000Y-52451000D03*
X38735000Y-49911000D03*
X38735000Y-52451000D03*
X41275000Y-49911000D03*
X41275000Y-52451000D03*
X43815000Y-49911000D03*
X43815000Y-52451000D03*
X46355000Y-49911000D03*
X46355000Y-52451000D03*
X48895000Y-49911000D03*
X48895000Y-52451000D03*
X51435000Y-49911000D03*
D11*
X51435000Y-52451000D03*
D12*
X22606000Y-35560000D03*
X29106000Y-35560000D03*
X22606000Y-40060000D03*
X29106000Y-40060000D03*
D13*
X33655000Y-38100000D03*
X33655000Y-40640000D03*
X33655000Y-35560000D03*
X43815000Y-35560000D03*
X43815000Y-38100000D03*
X43815000Y-40640000D03*
D14*
X41275000Y-43180000D03*
X36195000Y-43180000D03*
X36085000Y-33020000D03*
X41275000Y-33020000D03*
D15*
X41235000Y-27684000D03*
X31235000Y-27684000D03*
D16*
X38735000Y-24384000D03*
X36235000Y-24384000D03*
X33735000Y-24384000D03*
D17*
X50800000Y-40100000D03*
D18*
X50800000Y-38100000D03*
X50800000Y-36100000D03*
D19*
X50800000Y-42200000D03*
X50800000Y-34000000D03*
D20*
X33528000Y-48006000D03*
X36322000Y-48006000D03*
X45212000Y-48006000D03*
X38735000Y-38100000D03*
X37592000Y-26670000D03*
X50546000Y-48006000D03*
X47244000Y-44958000D03*
X51562000Y-30988000D03*
X36068000Y-30988000D03*
X25908000Y-37846000D03*
X40386000Y-48006000D03*
X34798000Y-26670000D03*
X47244000Y-38354000D03*
D21*
X46990000Y-48006000D02*
X45212000Y-48006000D01*
X48895000Y-49911000D02*
X46990000Y-48006000D01*
X45212000Y-48571685D02*
X45212000Y-48006000D01*
X45065001Y-48718684D02*
X45212000Y-48571685D01*
X45065001Y-50471003D02*
X45065001Y-48718684D01*
X45794997Y-51200999D02*
X45065001Y-50471003D01*
X48895000Y-49911000D02*
X47605001Y-51200999D01*
X47605001Y-51200999D02*
X45794997Y-51200999D01*
X51181000Y-52451000D02*
X51435000Y-52451000D01*
X41931002Y-24384000D02*
X46443999Y-28896997D01*
X38735000Y-24384000D02*
X41931002Y-24384000D01*
X46443999Y-28896997D02*
X46443999Y-45609997D01*
X46443999Y-45609997D02*
X50184999Y-49350997D01*
X50184999Y-49350997D02*
X50184999Y-51454999D01*
X50184999Y-51454999D02*
X51181000Y-52451000D01*
X34454999Y-38899999D02*
X33655000Y-38100000D01*
X34885001Y-38899999D02*
X34454999Y-38899999D01*
X38608000Y-42622998D02*
X34885001Y-38899999D01*
X38608000Y-44450000D02*
X38608000Y-42622998D01*
X43815000Y-49911000D02*
X43815000Y-49657000D01*
X43815000Y-49657000D02*
X38608000Y-44450000D01*
X34480007Y-44435009D02*
X33655000Y-43610002D01*
X42525001Y-51161001D02*
X40674999Y-51161001D01*
X33655000Y-41771370D02*
X33655000Y-40640000D01*
X43815000Y-52451000D02*
X42525001Y-51161001D01*
X40674999Y-51161001D02*
X40024999Y-50511001D01*
X33655000Y-43610002D02*
X33655000Y-41771370D01*
X40024999Y-50511001D02*
X40024999Y-49350997D01*
X40024999Y-49350997D02*
X35109011Y-44435009D01*
X35109011Y-44435009D02*
X34480007Y-44435009D01*
X29106000Y-35560000D02*
X22606000Y-35560000D01*
X32404999Y-51200999D02*
X32404999Y-38858999D01*
X33655000Y-52451000D02*
X32404999Y-51200999D01*
X32404999Y-38858999D02*
X29955999Y-36409999D01*
X29955999Y-36409999D02*
X29106000Y-35560000D01*
X50546000Y-38354000D02*
X50800000Y-38100000D01*
X47244000Y-38354000D02*
X50546000Y-38354000D01*
D22*
G36*
X47699822Y-50792355D02*
G01*
X47894731Y-51008588D01*
X48123756Y-51179416D01*
X48065986Y-51210294D01*
X47839866Y-51395866D01*
X47654294Y-51621986D01*
X47625000Y-51676791D01*
X47595706Y-51621986D01*
X47410134Y-51395866D01*
X47184014Y-51210294D01*
X47129209Y-51181000D01*
X47184014Y-51151706D01*
X47410134Y-50966134D01*
X47595706Y-50740014D01*
X47630201Y-50675477D01*
X47699822Y-50792355D01*
X47699822Y-50792355D01*
G37*
X47699822Y-50792355D02*
X47894731Y-51008588D01*
X48123756Y-51179416D01*
X48065986Y-51210294D01*
X47839866Y-51395866D01*
X47654294Y-51621986D01*
X47625000Y-51676791D01*
X47595706Y-51621986D01*
X47410134Y-51395866D01*
X47184014Y-51210294D01*
X47129209Y-51181000D01*
X47184014Y-51151706D01*
X47410134Y-50966134D01*
X47595706Y-50740014D01*
X47630201Y-50675477D01*
X47699822Y-50792355D01*
G36*
X45114294Y-50740014D02*
G01*
X45299866Y-50966134D01*
X45525986Y-51151706D01*
X45580791Y-51181000D01*
X45525986Y-51210294D01*
X45299866Y-51395866D01*
X45114294Y-51621986D01*
X45085000Y-51676791D01*
X45055706Y-51621986D01*
X44870134Y-51395866D01*
X44644014Y-51210294D01*
X44589209Y-51181000D01*
X44644014Y-51151706D01*
X44870134Y-50966134D01*
X45055706Y-50740014D01*
X45085000Y-50685209D01*
X45114294Y-50740014D01*
X45114294Y-50740014D01*
G37*
X45114294Y-50740014D02*
X45299866Y-50966134D01*
X45525986Y-51151706D01*
X45580791Y-51181000D01*
X45525986Y-51210294D01*
X45299866Y-51395866D01*
X45114294Y-51621986D01*
X45085000Y-51676791D01*
X45055706Y-51621986D01*
X44870134Y-51395866D01*
X44644014Y-51210294D01*
X44589209Y-51181000D01*
X44644014Y-51151706D01*
X44870134Y-50966134D01*
X45055706Y-50740014D01*
X45085000Y-50685209D01*
X45114294Y-50740014D01*
G36*
X49022000Y-49784000D02*
G01*
X49042000Y-49784000D01*
X49042000Y-50038000D01*
X49022000Y-50038000D01*
X49022000Y-50058000D01*
X48768000Y-50058000D01*
X48768000Y-50038000D01*
X48748000Y-50038000D01*
X48748000Y-49784000D01*
X48768000Y-49784000D01*
X48768000Y-49764000D01*
X49022000Y-49764000D01*
X49022000Y-49784000D01*
X49022000Y-49784000D01*
G37*
X49022000Y-49784000D02*
X49042000Y-49784000D01*
X49042000Y-50038000D01*
X49022000Y-50038000D01*
X49022000Y-50058000D01*
X48768000Y-50058000D01*
X48768000Y-50038000D01*
X48748000Y-50038000D01*
X48748000Y-49784000D01*
X48768000Y-49784000D01*
X48768000Y-49764000D01*
X49022000Y-49764000D01*
X49022000Y-49784000D01*
G36*
X48924188Y-39225518D02*
G01*
X48911928Y-39350000D01*
X48911928Y-40850000D01*
X48923008Y-40962496D01*
X48917234Y-40967234D01*
X48700421Y-41231422D01*
X48539314Y-41532832D01*
X48440105Y-41859881D01*
X48406606Y-42200000D01*
X48440105Y-42540119D01*
X48539314Y-42867168D01*
X48700421Y-43168578D01*
X48917234Y-43432766D01*
X49181422Y-43649579D01*
X49482832Y-43810686D01*
X49809881Y-43909895D01*
X50064775Y-43935000D01*
X51535225Y-43935000D01*
X51790119Y-43909895D01*
X52117168Y-43810686D01*
X52418578Y-43649579D01*
X52682766Y-43432766D01*
X52883001Y-43188779D01*
X52883001Y-49568752D01*
X52813599Y-49339966D01*
X52675706Y-49081986D01*
X52490134Y-48855866D01*
X52264014Y-48670294D01*
X52006034Y-48532401D01*
X51726111Y-48447487D01*
X51507950Y-48426000D01*
X51362050Y-48426000D01*
X51143889Y-48447487D01*
X50863966Y-48532401D01*
X50657585Y-48642714D01*
X47278999Y-45264130D01*
X47278999Y-39389000D01*
X47345939Y-39389000D01*
X47545898Y-39349226D01*
X47734256Y-39271205D01*
X47857285Y-39189000D01*
X48935266Y-39189000D01*
X48924188Y-39225518D01*
X48924188Y-39225518D01*
G37*
X48924188Y-39225518D02*
X48911928Y-39350000D01*
X48911928Y-40850000D01*
X48923008Y-40962496D01*
X48917234Y-40967234D01*
X48700421Y-41231422D01*
X48539314Y-41532832D01*
X48440105Y-41859881D01*
X48406606Y-42200000D01*
X48440105Y-42540119D01*
X48539314Y-42867168D01*
X48700421Y-43168578D01*
X48917234Y-43432766D01*
X49181422Y-43649579D01*
X49482832Y-43810686D01*
X49809881Y-43909895D01*
X50064775Y-43935000D01*
X51535225Y-43935000D01*
X51790119Y-43909895D01*
X52117168Y-43810686D01*
X52418578Y-43649579D01*
X52682766Y-43432766D01*
X52883001Y-43188779D01*
X52883001Y-49568752D01*
X52813599Y-49339966D01*
X52675706Y-49081986D01*
X52490134Y-48855866D01*
X52264014Y-48670294D01*
X52006034Y-48532401D01*
X51726111Y-48447487D01*
X51507950Y-48426000D01*
X51362050Y-48426000D01*
X51143889Y-48447487D01*
X50863966Y-48532401D01*
X50657585Y-48642714D01*
X47278999Y-45264130D01*
X47278999Y-39389000D01*
X47345939Y-39389000D01*
X47545898Y-39349226D01*
X47734256Y-39271205D01*
X47857285Y-39189000D01*
X48935266Y-39189000D01*
X48924188Y-39225518D01*
G36*
X51306304Y-21579356D02*
G01*
X51671168Y-21689515D01*
X52007683Y-21868442D01*
X52303031Y-22109323D01*
X52545974Y-22402990D01*
X52727246Y-22738245D01*
X52839949Y-23102328D01*
X52883000Y-23511930D01*
X52883000Y-33011221D01*
X52682766Y-32767234D01*
X52418578Y-32550421D01*
X52117168Y-32389314D01*
X51790119Y-32290105D01*
X51535225Y-32265000D01*
X50064775Y-32265000D01*
X49809881Y-32290105D01*
X49482832Y-32389314D01*
X49181422Y-32550421D01*
X48917234Y-32767234D01*
X48700421Y-33031422D01*
X48539314Y-33332832D01*
X48440105Y-33659881D01*
X48406606Y-34000000D01*
X48440105Y-34340119D01*
X48539314Y-34667168D01*
X48700421Y-34968578D01*
X48917234Y-35232766D01*
X49109023Y-35390163D01*
X49077858Y-35436132D01*
X48971827Y-35687316D01*
X48957682Y-35758815D01*
X49080344Y-35973000D01*
X50673000Y-35973000D01*
X50673000Y-35953000D01*
X50927000Y-35953000D01*
X50927000Y-35973000D01*
X52519656Y-35973000D01*
X52642318Y-35758815D01*
X52628173Y-35687316D01*
X52522142Y-35436132D01*
X52490977Y-35390163D01*
X52682766Y-35232766D01*
X52883000Y-34988779D01*
X52883001Y-41211221D01*
X52682766Y-40967234D01*
X52676992Y-40962496D01*
X52688072Y-40850000D01*
X52688072Y-39350000D01*
X52675812Y-39225518D01*
X52639502Y-39105820D01*
X52580537Y-38995506D01*
X52501185Y-38898815D01*
X52461060Y-38865886D01*
X52585764Y-38632581D01*
X52664960Y-38371507D01*
X52691701Y-38100000D01*
X52664960Y-37828493D01*
X52585764Y-37567419D01*
X52457157Y-37326812D01*
X52284081Y-37115919D01*
X52260591Y-37096642D01*
X52369145Y-36989540D01*
X52522142Y-36763868D01*
X52628173Y-36512684D01*
X52642318Y-36441185D01*
X52519656Y-36227000D01*
X50927000Y-36227000D01*
X50927000Y-36247000D01*
X50673000Y-36247000D01*
X50673000Y-36227000D01*
X49080344Y-36227000D01*
X48957682Y-36441185D01*
X48971827Y-36512684D01*
X49077858Y-36763868D01*
X49230855Y-36989540D01*
X49339409Y-37096642D01*
X49315919Y-37115919D01*
X49142843Y-37326812D01*
X49040116Y-37519000D01*
X47857285Y-37519000D01*
X47734256Y-37436795D01*
X47545898Y-37358774D01*
X47345939Y-37319000D01*
X47278999Y-37319000D01*
X47278999Y-28938015D01*
X47283039Y-28896997D01*
X47266917Y-28733309D01*
X47219171Y-28575910D01*
X47200034Y-28540108D01*
X47141635Y-28430851D01*
X47037290Y-28303706D01*
X47005432Y-28277561D01*
X42550448Y-23822579D01*
X42524293Y-23790709D01*
X42514744Y-23782872D01*
X48184000Y-23782872D01*
X48184000Y-24223128D01*
X48269890Y-24654925D01*
X48438369Y-25061669D01*
X48682962Y-25427729D01*
X48994271Y-25739038D01*
X49360331Y-25983631D01*
X49767075Y-26152110D01*
X50198872Y-26238000D01*
X50639128Y-26238000D01*
X51070925Y-26152110D01*
X51477669Y-25983631D01*
X51843729Y-25739038D01*
X52155038Y-25427729D01*
X52399631Y-25061669D01*
X52568110Y-24654925D01*
X52654000Y-24223128D01*
X52654000Y-23782872D01*
X52568110Y-23351075D01*
X52399631Y-22944331D01*
X52155038Y-22578271D01*
X51843729Y-22266962D01*
X51477669Y-22022369D01*
X51070925Y-21853890D01*
X50639128Y-21768000D01*
X50198872Y-21768000D01*
X49767075Y-21853890D01*
X49360331Y-22022369D01*
X48994271Y-22266962D01*
X48682962Y-22578271D01*
X48438369Y-22944331D01*
X48269890Y-23351075D01*
X48184000Y-23782872D01*
X42514744Y-23782872D01*
X42397148Y-23686364D01*
X42252089Y-23608828D01*
X42094691Y-23561082D01*
X41972021Y-23549000D01*
X41972020Y-23549000D01*
X41931002Y-23544960D01*
X41889984Y-23549000D01*
X40023199Y-23549000D01*
X39927312Y-23405495D01*
X39713505Y-23191688D01*
X39462095Y-23023701D01*
X39182743Y-22907989D01*
X38886184Y-22849000D01*
X38583816Y-22849000D01*
X38287257Y-22907989D01*
X38007905Y-23023701D01*
X37756495Y-23191688D01*
X37542688Y-23405495D01*
X37485000Y-23491831D01*
X37427312Y-23405495D01*
X37213505Y-23191688D01*
X36962095Y-23023701D01*
X36682743Y-22907989D01*
X36386184Y-22849000D01*
X36083816Y-22849000D01*
X35787257Y-22907989D01*
X35507905Y-23023701D01*
X35256495Y-23191688D01*
X35042688Y-23405495D01*
X34947262Y-23548310D01*
X34799080Y-23499525D01*
X33914605Y-24384000D01*
X34799080Y-25268475D01*
X34947262Y-25219690D01*
X35042688Y-25362505D01*
X35256495Y-25576312D01*
X35507905Y-25744299D01*
X35787257Y-25860011D01*
X36083816Y-25919000D01*
X36386184Y-25919000D01*
X36682743Y-25860011D01*
X36962095Y-25744299D01*
X37213505Y-25576312D01*
X37427312Y-25362505D01*
X37485000Y-25276169D01*
X37542688Y-25362505D01*
X37756495Y-25576312D01*
X38007905Y-25744299D01*
X38287257Y-25860011D01*
X38583816Y-25919000D01*
X38884441Y-25919000D01*
X38634037Y-26293756D01*
X38412791Y-26827892D01*
X38300000Y-27394928D01*
X38300000Y-27973072D01*
X38412791Y-28540108D01*
X38634037Y-29074244D01*
X38955237Y-29554953D01*
X39364047Y-29963763D01*
X39844756Y-30284963D01*
X40378892Y-30506209D01*
X40945928Y-30619000D01*
X41524072Y-30619000D01*
X42091108Y-30506209D01*
X42625244Y-30284963D01*
X43105953Y-29963763D01*
X43514763Y-29554953D01*
X43835963Y-29074244D01*
X44057209Y-28540108D01*
X44170000Y-27973072D01*
X44170000Y-27803866D01*
X45608999Y-29242866D01*
X45609000Y-45568968D01*
X45604959Y-45609997D01*
X45621081Y-45773685D01*
X45668827Y-45931083D01*
X45668828Y-45931084D01*
X45746364Y-46076143D01*
X45850709Y-46203288D01*
X45882573Y-46229438D01*
X48239447Y-48586314D01*
X48128080Y-48639359D01*
X47894731Y-48813412D01*
X47699822Y-49029645D01*
X47630201Y-49146523D01*
X47595706Y-49081986D01*
X47410134Y-48855866D01*
X47184014Y-48670294D01*
X46926034Y-48532401D01*
X46646111Y-48447487D01*
X46427950Y-48426000D01*
X46282050Y-48426000D01*
X46063889Y-48447487D01*
X45783966Y-48532401D01*
X45525986Y-48670294D01*
X45299866Y-48855866D01*
X45114294Y-49081986D01*
X45085000Y-49136791D01*
X45055706Y-49081986D01*
X44870134Y-48855866D01*
X44644014Y-48670294D01*
X44386034Y-48532401D01*
X44106111Y-48447487D01*
X43887950Y-48426000D01*
X43764868Y-48426000D01*
X39906939Y-44568072D01*
X42775000Y-44568072D01*
X42899482Y-44555812D01*
X43019180Y-44519502D01*
X43129494Y-44460537D01*
X43226185Y-44381185D01*
X43305537Y-44284494D01*
X43364502Y-44174180D01*
X43400812Y-44054482D01*
X43413072Y-43930000D01*
X43413072Y-42430000D01*
X43400812Y-42305518D01*
X43364502Y-42185820D01*
X43305537Y-42075506D01*
X43226185Y-41978815D01*
X43153662Y-41919297D01*
X43396426Y-42019853D01*
X43673665Y-42075000D01*
X43956335Y-42075000D01*
X44233574Y-42019853D01*
X44494727Y-41911680D01*
X44729759Y-41754637D01*
X44929637Y-41554759D01*
X45086680Y-41319727D01*
X45194853Y-41058574D01*
X45250000Y-40781335D01*
X45250000Y-40498665D01*
X45194853Y-40221426D01*
X45086680Y-39960273D01*
X44929637Y-39725241D01*
X44729759Y-39525363D01*
X44495872Y-39369085D01*
X44556514Y-39336671D01*
X44628097Y-39092702D01*
X43815000Y-38279605D01*
X43001903Y-39092702D01*
X43073486Y-39336671D01*
X43137992Y-39367194D01*
X43135273Y-39368320D01*
X42900241Y-39525363D01*
X42700363Y-39725241D01*
X42543320Y-39960273D01*
X42435147Y-40221426D01*
X42380000Y-40498665D01*
X42380000Y-40781335D01*
X42435147Y-41058574D01*
X42543320Y-41319727D01*
X42700363Y-41554759D01*
X42900241Y-41754637D01*
X43066979Y-41866047D01*
X43019180Y-41840498D01*
X42899482Y-41804188D01*
X42775000Y-41791928D01*
X39775000Y-41791928D01*
X39650518Y-41804188D01*
X39530820Y-41840498D01*
X39420506Y-41899463D01*
X39323815Y-41978815D01*
X39244463Y-42075506D01*
X39242260Y-42079628D01*
X39227439Y-42061568D01*
X39227437Y-42061566D01*
X39201291Y-42029707D01*
X39169432Y-42003561D01*
X35504447Y-38338578D01*
X35478292Y-38306708D01*
X35351147Y-38202363D01*
X35291559Y-38170512D01*
X42374783Y-38170512D01*
X42416213Y-38450130D01*
X42511397Y-38716292D01*
X42578329Y-38841514D01*
X42822298Y-38913097D01*
X43635395Y-38100000D01*
X43994605Y-38100000D01*
X44807702Y-38913097D01*
X45051671Y-38841514D01*
X45172571Y-38586004D01*
X45241300Y-38311816D01*
X45255217Y-38029488D01*
X45213787Y-37749870D01*
X45118603Y-37483708D01*
X45051671Y-37358486D01*
X44807702Y-37286903D01*
X43994605Y-38100000D01*
X43635395Y-38100000D01*
X42822298Y-37286903D01*
X42578329Y-37358486D01*
X42457429Y-37613996D01*
X42388700Y-37888184D01*
X42374783Y-38170512D01*
X35291559Y-38170512D01*
X35206088Y-38124827D01*
X35090000Y-38089612D01*
X35090000Y-37958665D01*
X35034853Y-37681426D01*
X34926680Y-37420273D01*
X34769637Y-37185241D01*
X34569759Y-36985363D01*
X34337241Y-36830000D01*
X34569759Y-36674637D01*
X34769637Y-36474759D01*
X34926680Y-36239727D01*
X35034853Y-35978574D01*
X35090000Y-35701335D01*
X35090000Y-35418665D01*
X35034853Y-35141426D01*
X34926680Y-34880273D01*
X34769637Y-34645241D01*
X34569759Y-34445363D01*
X34501666Y-34399865D01*
X34585000Y-34408072D01*
X37585000Y-34408072D01*
X37709482Y-34395812D01*
X37829180Y-34359502D01*
X37939494Y-34300537D01*
X38036185Y-34221185D01*
X38115537Y-34124494D01*
X38174502Y-34014180D01*
X38210812Y-33894482D01*
X38223072Y-33770000D01*
X38223072Y-32270000D01*
X39136928Y-32270000D01*
X39136928Y-33770000D01*
X39149188Y-33894482D01*
X39185498Y-34014180D01*
X39244463Y-34124494D01*
X39323815Y-34221185D01*
X39420506Y-34300537D01*
X39530820Y-34359502D01*
X39650518Y-34395812D01*
X39775000Y-34408072D01*
X42775000Y-34408072D01*
X42899482Y-34395812D01*
X43019180Y-34359502D01*
X43066979Y-34333953D01*
X42900241Y-34445363D01*
X42700363Y-34645241D01*
X42543320Y-34880273D01*
X42435147Y-35141426D01*
X42380000Y-35418665D01*
X42380000Y-35701335D01*
X42435147Y-35978574D01*
X42543320Y-36239727D01*
X42700363Y-36474759D01*
X42900241Y-36674637D01*
X43134128Y-36830915D01*
X43073486Y-36863329D01*
X43001903Y-37107298D01*
X43815000Y-37920395D01*
X44628097Y-37107298D01*
X44556514Y-36863329D01*
X44492008Y-36832806D01*
X44494727Y-36831680D01*
X44729759Y-36674637D01*
X44929637Y-36474759D01*
X45086680Y-36239727D01*
X45194853Y-35978574D01*
X45250000Y-35701335D01*
X45250000Y-35418665D01*
X45194853Y-35141426D01*
X45086680Y-34880273D01*
X44929637Y-34645241D01*
X44729759Y-34445363D01*
X44494727Y-34288320D01*
X44233574Y-34180147D01*
X43956335Y-34125000D01*
X43673665Y-34125000D01*
X43396426Y-34180147D01*
X43153662Y-34280703D01*
X43226185Y-34221185D01*
X43305537Y-34124494D01*
X43364502Y-34014180D01*
X43400812Y-33894482D01*
X43413072Y-33770000D01*
X43413072Y-32270000D01*
X43400812Y-32145518D01*
X43364502Y-32025820D01*
X43305537Y-31915506D01*
X43226185Y-31818815D01*
X43129494Y-31739463D01*
X43019180Y-31680498D01*
X42899482Y-31644188D01*
X42775000Y-31631928D01*
X39775000Y-31631928D01*
X39650518Y-31644188D01*
X39530820Y-31680498D01*
X39420506Y-31739463D01*
X39323815Y-31818815D01*
X39244463Y-31915506D01*
X39185498Y-32025820D01*
X39149188Y-32145518D01*
X39136928Y-32270000D01*
X38223072Y-32270000D01*
X38210812Y-32145518D01*
X38174502Y-32025820D01*
X38115537Y-31915506D01*
X38036185Y-31818815D01*
X37939494Y-31739463D01*
X37829180Y-31680498D01*
X37709482Y-31644188D01*
X37585000Y-31631928D01*
X34585000Y-31631928D01*
X34460518Y-31644188D01*
X34340820Y-31680498D01*
X34230506Y-31739463D01*
X34133815Y-31818815D01*
X34054463Y-31915506D01*
X33995498Y-32025820D01*
X33959188Y-32145518D01*
X33946928Y-32270000D01*
X33946928Y-33770000D01*
X33959188Y-33894482D01*
X33995498Y-34014180D01*
X34054463Y-34124494D01*
X34113816Y-34196816D01*
X34073574Y-34180147D01*
X33796335Y-34125000D01*
X33513665Y-34125000D01*
X33236426Y-34180147D01*
X32975273Y-34288320D01*
X32740241Y-34445363D01*
X32540363Y-34645241D01*
X32383320Y-34880273D01*
X32275147Y-35141426D01*
X32220000Y-35418665D01*
X32220000Y-35701335D01*
X32275147Y-35978574D01*
X32383320Y-36239727D01*
X32540363Y-36474759D01*
X32740241Y-36674637D01*
X32972759Y-36830000D01*
X32740241Y-36985363D01*
X32540363Y-37185241D01*
X32383320Y-37420273D01*
X32314145Y-37587277D01*
X30575441Y-35848574D01*
X30575437Y-35848569D01*
X30564807Y-35837939D01*
X30591000Y-35706260D01*
X30591000Y-35413740D01*
X30533932Y-35126842D01*
X30421990Y-34856589D01*
X30259475Y-34613368D01*
X30052632Y-34406525D01*
X29809411Y-34244010D01*
X29539158Y-34132068D01*
X29252260Y-34075000D01*
X28959740Y-34075000D01*
X28672842Y-34132068D01*
X28402589Y-34244010D01*
X28159368Y-34406525D01*
X27952525Y-34613368D01*
X27877935Y-34725000D01*
X23834065Y-34725000D01*
X23759475Y-34613368D01*
X23552632Y-34406525D01*
X23309411Y-34244010D01*
X23039158Y-34132068D01*
X22752260Y-34075000D01*
X22459740Y-34075000D01*
X22172842Y-34132068D01*
X21902589Y-34244010D01*
X21659368Y-34406525D01*
X21452525Y-34613368D01*
X21290010Y-34856589D01*
X21178068Y-35126842D01*
X21121000Y-35413740D01*
X21121000Y-35706260D01*
X21178068Y-35993158D01*
X21290010Y-36263411D01*
X21452525Y-36506632D01*
X21659368Y-36713475D01*
X21902589Y-36875990D01*
X22172842Y-36987932D01*
X22459740Y-37045000D01*
X22752260Y-37045000D01*
X23039158Y-36987932D01*
X23309411Y-36875990D01*
X23552632Y-36713475D01*
X23759475Y-36506632D01*
X23834065Y-36395000D01*
X27877935Y-36395000D01*
X27952525Y-36506632D01*
X28159368Y-36713475D01*
X28402589Y-36875990D01*
X28672842Y-36987932D01*
X28959740Y-37045000D01*
X29252260Y-37045000D01*
X29383939Y-37018807D01*
X29394569Y-37029437D01*
X29394574Y-37029441D01*
X31570000Y-39204868D01*
X31569999Y-48497202D01*
X31406111Y-48447487D01*
X31187950Y-48426000D01*
X31042050Y-48426000D01*
X30823889Y-48447487D01*
X30543966Y-48532401D01*
X30285986Y-48670294D01*
X30059866Y-48855866D01*
X29874294Y-49081986D01*
X29845000Y-49136791D01*
X29815706Y-49081986D01*
X29630134Y-48855866D01*
X29404014Y-48670294D01*
X29146034Y-48532401D01*
X28866111Y-48447487D01*
X28647950Y-48426000D01*
X28502050Y-48426000D01*
X28283889Y-48447487D01*
X28003966Y-48532401D01*
X27745986Y-48670294D01*
X27519866Y-48855866D01*
X27334294Y-49081986D01*
X27305000Y-49136791D01*
X27275706Y-49081986D01*
X27090134Y-48855866D01*
X26864014Y-48670294D01*
X26606034Y-48532401D01*
X26326111Y-48447487D01*
X26107950Y-48426000D01*
X25962050Y-48426000D01*
X25743889Y-48447487D01*
X25463966Y-48532401D01*
X25205986Y-48670294D01*
X24979866Y-48855866D01*
X24794294Y-49081986D01*
X24765000Y-49136791D01*
X24735706Y-49081986D01*
X24550134Y-48855866D01*
X24324014Y-48670294D01*
X24066034Y-48532401D01*
X23786111Y-48447487D01*
X23567950Y-48426000D01*
X23422050Y-48426000D01*
X23203889Y-48447487D01*
X22923966Y-48532401D01*
X22665986Y-48670294D01*
X22439866Y-48855866D01*
X22254294Y-49081986D01*
X22225000Y-49136791D01*
X22195706Y-49081986D01*
X22010134Y-48855866D01*
X21784014Y-48670294D01*
X21526034Y-48532401D01*
X21246111Y-48447487D01*
X21027950Y-48426000D01*
X20882050Y-48426000D01*
X20663889Y-48447487D01*
X20383966Y-48532401D01*
X20125986Y-48670294D01*
X19899866Y-48855866D01*
X19714294Y-49081986D01*
X19634000Y-49232206D01*
X19634000Y-41088397D01*
X21757208Y-41088397D01*
X21834843Y-41337472D01*
X22098883Y-41463371D01*
X22382411Y-41535339D01*
X22674531Y-41550611D01*
X22964019Y-41508599D01*
X23239747Y-41410919D01*
X23377157Y-41337472D01*
X23454792Y-41088397D01*
X28257208Y-41088397D01*
X28334843Y-41337472D01*
X28598883Y-41463371D01*
X28882411Y-41535339D01*
X29174531Y-41550611D01*
X29464019Y-41508599D01*
X29739747Y-41410919D01*
X29877157Y-41337472D01*
X29954792Y-41088397D01*
X29106000Y-40239605D01*
X28257208Y-41088397D01*
X23454792Y-41088397D01*
X22606000Y-40239605D01*
X21757208Y-41088397D01*
X19634000Y-41088397D01*
X19634000Y-40128531D01*
X21115389Y-40128531D01*
X21157401Y-40418019D01*
X21255081Y-40693747D01*
X21328528Y-40831157D01*
X21577603Y-40908792D01*
X22426395Y-40060000D01*
X22785605Y-40060000D01*
X23634397Y-40908792D01*
X23883472Y-40831157D01*
X24009371Y-40567117D01*
X24081339Y-40283589D01*
X24089445Y-40128531D01*
X27615389Y-40128531D01*
X27657401Y-40418019D01*
X27755081Y-40693747D01*
X27828528Y-40831157D01*
X28077603Y-40908792D01*
X28926395Y-40060000D01*
X29285605Y-40060000D01*
X30134397Y-40908792D01*
X30383472Y-40831157D01*
X30509371Y-40567117D01*
X30581339Y-40283589D01*
X30596611Y-39991469D01*
X30554599Y-39701981D01*
X30456919Y-39426253D01*
X30383472Y-39288843D01*
X30134397Y-39211208D01*
X29285605Y-40060000D01*
X28926395Y-40060000D01*
X28077603Y-39211208D01*
X27828528Y-39288843D01*
X27702629Y-39552883D01*
X27630661Y-39836411D01*
X27615389Y-40128531D01*
X24089445Y-40128531D01*
X24096611Y-39991469D01*
X24054599Y-39701981D01*
X23956919Y-39426253D01*
X23883472Y-39288843D01*
X23634397Y-39211208D01*
X22785605Y-40060000D01*
X22426395Y-40060000D01*
X21577603Y-39211208D01*
X21328528Y-39288843D01*
X21202629Y-39552883D01*
X21130661Y-39836411D01*
X21115389Y-40128531D01*
X19634000Y-40128531D01*
X19634000Y-39031603D01*
X21757208Y-39031603D01*
X22606000Y-39880395D01*
X23454792Y-39031603D01*
X28257208Y-39031603D01*
X29106000Y-39880395D01*
X29954792Y-39031603D01*
X29877157Y-38782528D01*
X29613117Y-38656629D01*
X29329589Y-38584661D01*
X29037469Y-38569389D01*
X28747981Y-38611401D01*
X28472253Y-38709081D01*
X28334843Y-38782528D01*
X28257208Y-39031603D01*
X23454792Y-39031603D01*
X23377157Y-38782528D01*
X23113117Y-38656629D01*
X22829589Y-38584661D01*
X22537469Y-38569389D01*
X22247981Y-38611401D01*
X21972253Y-38709081D01*
X21834843Y-38782528D01*
X21757208Y-39031603D01*
X19634000Y-39031603D01*
X19634000Y-27394928D01*
X28300000Y-27394928D01*
X28300000Y-27973072D01*
X28412791Y-28540108D01*
X28634037Y-29074244D01*
X28955237Y-29554953D01*
X29364047Y-29963763D01*
X29844756Y-30284963D01*
X30378892Y-30506209D01*
X30945928Y-30619000D01*
X31524072Y-30619000D01*
X32091108Y-30506209D01*
X32625244Y-30284963D01*
X33105953Y-29963763D01*
X33514763Y-29554953D01*
X33835963Y-29074244D01*
X34057209Y-28540108D01*
X34170000Y-27973072D01*
X34170000Y-27394928D01*
X34057209Y-26827892D01*
X33835963Y-26293756D01*
X33581463Y-25912871D01*
X33801553Y-25924991D01*
X34100907Y-25882397D01*
X34386199Y-25782222D01*
X34535792Y-25702261D01*
X34619475Y-25448080D01*
X33735000Y-24563605D01*
X33720858Y-24577748D01*
X33541253Y-24398143D01*
X33555395Y-24384000D01*
X32670920Y-23499525D01*
X32416739Y-23583208D01*
X32285842Y-23855775D01*
X32210635Y-24148642D01*
X32194009Y-24450553D01*
X32236603Y-24749907D01*
X32307338Y-24951356D01*
X32091108Y-24861791D01*
X31524072Y-24749000D01*
X30945928Y-24749000D01*
X30378892Y-24861791D01*
X29844756Y-25083037D01*
X29364047Y-25404237D01*
X28955237Y-25813047D01*
X28634037Y-26293756D01*
X28412791Y-26827892D01*
X28300000Y-27394928D01*
X19634000Y-27394928D01*
X19634000Y-23782872D01*
X19863000Y-23782872D01*
X19863000Y-24223128D01*
X19948890Y-24654925D01*
X20117369Y-25061669D01*
X20361962Y-25427729D01*
X20673271Y-25739038D01*
X21039331Y-25983631D01*
X21446075Y-26152110D01*
X21877872Y-26238000D01*
X22318128Y-26238000D01*
X22749925Y-26152110D01*
X23156669Y-25983631D01*
X23522729Y-25739038D01*
X23834038Y-25427729D01*
X24078631Y-25061669D01*
X24247110Y-24654925D01*
X24333000Y-24223128D01*
X24333000Y-23782872D01*
X24247110Y-23351075D01*
X24234206Y-23319920D01*
X32850525Y-23319920D01*
X33735000Y-24204395D01*
X34619475Y-23319920D01*
X34535792Y-23065739D01*
X34263225Y-22934842D01*
X33970358Y-22859635D01*
X33668447Y-22843009D01*
X33369093Y-22885603D01*
X33083801Y-22985778D01*
X32934208Y-23065739D01*
X32850525Y-23319920D01*
X24234206Y-23319920D01*
X24078631Y-22944331D01*
X23834038Y-22578271D01*
X23522729Y-22266962D01*
X23156669Y-22022369D01*
X22749925Y-21853890D01*
X22318128Y-21768000D01*
X21877872Y-21768000D01*
X21446075Y-21853890D01*
X21039331Y-22022369D01*
X20673271Y-22266962D01*
X20361962Y-22578271D01*
X20117369Y-22944331D01*
X19948890Y-23351075D01*
X19863000Y-23782872D01*
X19634000Y-23782872D01*
X19634000Y-23527278D01*
X19674356Y-23115696D01*
X19784515Y-22750832D01*
X19963442Y-22414317D01*
X20204323Y-22118969D01*
X20497990Y-21876026D01*
X20833245Y-21694754D01*
X21197328Y-21582051D01*
X21606930Y-21539000D01*
X50894722Y-21539000D01*
X51306304Y-21579356D01*
X51306304Y-21579356D01*
G37*
X51306304Y-21579356D02*
X51671168Y-21689515D01*
X52007683Y-21868442D01*
X52303031Y-22109323D01*
X52545974Y-22402990D01*
X52727246Y-22738245D01*
X52839949Y-23102328D01*
X52883000Y-23511930D01*
X52883000Y-33011221D01*
X52682766Y-32767234D01*
X52418578Y-32550421D01*
X52117168Y-32389314D01*
X51790119Y-32290105D01*
X51535225Y-32265000D01*
X50064775Y-32265000D01*
X49809881Y-32290105D01*
X49482832Y-32389314D01*
X49181422Y-32550421D01*
X48917234Y-32767234D01*
X48700421Y-33031422D01*
X48539314Y-33332832D01*
X48440105Y-33659881D01*
X48406606Y-34000000D01*
X48440105Y-34340119D01*
X48539314Y-34667168D01*
X48700421Y-34968578D01*
X48917234Y-35232766D01*
X49109023Y-35390163D01*
X49077858Y-35436132D01*
X48971827Y-35687316D01*
X48957682Y-35758815D01*
X49080344Y-35973000D01*
X50673000Y-35973000D01*
X50673000Y-35953000D01*
X50927000Y-35953000D01*
X50927000Y-35973000D01*
X52519656Y-35973000D01*
X52642318Y-35758815D01*
X52628173Y-35687316D01*
X52522142Y-35436132D01*
X52490977Y-35390163D01*
X52682766Y-35232766D01*
X52883000Y-34988779D01*
X52883001Y-41211221D01*
X52682766Y-40967234D01*
X52676992Y-40962496D01*
X52688072Y-40850000D01*
X52688072Y-39350000D01*
X52675812Y-39225518D01*
X52639502Y-39105820D01*
X52580537Y-38995506D01*
X52501185Y-38898815D01*
X52461060Y-38865886D01*
X52585764Y-38632581D01*
X52664960Y-38371507D01*
X52691701Y-38100000D01*
X52664960Y-37828493D01*
X52585764Y-37567419D01*
X52457157Y-37326812D01*
X52284081Y-37115919D01*
X52260591Y-37096642D01*
X52369145Y-36989540D01*
X52522142Y-36763868D01*
X52628173Y-36512684D01*
X52642318Y-36441185D01*
X52519656Y-36227000D01*
X50927000Y-36227000D01*
X50927000Y-36247000D01*
X50673000Y-36247000D01*
X50673000Y-36227000D01*
X49080344Y-36227000D01*
X48957682Y-36441185D01*
X48971827Y-36512684D01*
X49077858Y-36763868D01*
X49230855Y-36989540D01*
X49339409Y-37096642D01*
X49315919Y-37115919D01*
X49142843Y-37326812D01*
X49040116Y-37519000D01*
X47857285Y-37519000D01*
X47734256Y-37436795D01*
X47545898Y-37358774D01*
X47345939Y-37319000D01*
X47278999Y-37319000D01*
X47278999Y-28938015D01*
X47283039Y-28896997D01*
X47266917Y-28733309D01*
X47219171Y-28575910D01*
X47200034Y-28540108D01*
X47141635Y-28430851D01*
X47037290Y-28303706D01*
X47005432Y-28277561D01*
X42550448Y-23822579D01*
X42524293Y-23790709D01*
X42514744Y-23782872D01*
X48184000Y-23782872D01*
X48184000Y-24223128D01*
X48269890Y-24654925D01*
X48438369Y-25061669D01*
X48682962Y-25427729D01*
X48994271Y-25739038D01*
X49360331Y-25983631D01*
X49767075Y-26152110D01*
X50198872Y-26238000D01*
X50639128Y-26238000D01*
X51070925Y-26152110D01*
X51477669Y-25983631D01*
X51843729Y-25739038D01*
X52155038Y-25427729D01*
X52399631Y-25061669D01*
X52568110Y-24654925D01*
X52654000Y-24223128D01*
X52654000Y-23782872D01*
X52568110Y-23351075D01*
X52399631Y-22944331D01*
X52155038Y-22578271D01*
X51843729Y-22266962D01*
X51477669Y-22022369D01*
X51070925Y-21853890D01*
X50639128Y-21768000D01*
X50198872Y-21768000D01*
X49767075Y-21853890D01*
X49360331Y-22022369D01*
X48994271Y-22266962D01*
X48682962Y-22578271D01*
X48438369Y-22944331D01*
X48269890Y-23351075D01*
X48184000Y-23782872D01*
X42514744Y-23782872D01*
X42397148Y-23686364D01*
X42252089Y-23608828D01*
X42094691Y-23561082D01*
X41972021Y-23549000D01*
X41972020Y-23549000D01*
X41931002Y-23544960D01*
X41889984Y-23549000D01*
X40023199Y-23549000D01*
X39927312Y-23405495D01*
X39713505Y-23191688D01*
X39462095Y-23023701D01*
X39182743Y-22907989D01*
X38886184Y-22849000D01*
X38583816Y-22849000D01*
X38287257Y-22907989D01*
X38007905Y-23023701D01*
X37756495Y-23191688D01*
X37542688Y-23405495D01*
X37485000Y-23491831D01*
X37427312Y-23405495D01*
X37213505Y-23191688D01*
X36962095Y-23023701D01*
X36682743Y-22907989D01*
X36386184Y-22849000D01*
X36083816Y-22849000D01*
X35787257Y-22907989D01*
X35507905Y-23023701D01*
X35256495Y-23191688D01*
X35042688Y-23405495D01*
X34947262Y-23548310D01*
X34799080Y-23499525D01*
X33914605Y-24384000D01*
X34799080Y-25268475D01*
X34947262Y-25219690D01*
X35042688Y-25362505D01*
X35256495Y-25576312D01*
X35507905Y-25744299D01*
X35787257Y-25860011D01*
X36083816Y-25919000D01*
X36386184Y-25919000D01*
X36682743Y-25860011D01*
X36962095Y-25744299D01*
X37213505Y-25576312D01*
X37427312Y-25362505D01*
X37485000Y-25276169D01*
X37542688Y-25362505D01*
X37756495Y-25576312D01*
X38007905Y-25744299D01*
X38287257Y-25860011D01*
X38583816Y-25919000D01*
X38884441Y-25919000D01*
X38634037Y-26293756D01*
X38412791Y-26827892D01*
X38300000Y-27394928D01*
X38300000Y-27973072D01*
X38412791Y-28540108D01*
X38634037Y-29074244D01*
X38955237Y-29554953D01*
X39364047Y-29963763D01*
X39844756Y-30284963D01*
X40378892Y-30506209D01*
X40945928Y-30619000D01*
X41524072Y-30619000D01*
X42091108Y-30506209D01*
X42625244Y-30284963D01*
X43105953Y-29963763D01*
X43514763Y-29554953D01*
X43835963Y-29074244D01*
X44057209Y-28540108D01*
X44170000Y-27973072D01*
X44170000Y-27803866D01*
X45608999Y-29242866D01*
X45609000Y-45568968D01*
X45604959Y-45609997D01*
X45621081Y-45773685D01*
X45668827Y-45931083D01*
X45668828Y-45931084D01*
X45746364Y-46076143D01*
X45850709Y-46203288D01*
X45882573Y-46229438D01*
X48239447Y-48586314D01*
X48128080Y-48639359D01*
X47894731Y-48813412D01*
X47699822Y-49029645D01*
X47630201Y-49146523D01*
X47595706Y-49081986D01*
X47410134Y-48855866D01*
X47184014Y-48670294D01*
X46926034Y-48532401D01*
X46646111Y-48447487D01*
X46427950Y-48426000D01*
X46282050Y-48426000D01*
X46063889Y-48447487D01*
X45783966Y-48532401D01*
X45525986Y-48670294D01*
X45299866Y-48855866D01*
X45114294Y-49081986D01*
X45085000Y-49136791D01*
X45055706Y-49081986D01*
X44870134Y-48855866D01*
X44644014Y-48670294D01*
X44386034Y-48532401D01*
X44106111Y-48447487D01*
X43887950Y-48426000D01*
X43764868Y-48426000D01*
X39906939Y-44568072D01*
X42775000Y-44568072D01*
X42899482Y-44555812D01*
X43019180Y-44519502D01*
X43129494Y-44460537D01*
X43226185Y-44381185D01*
X43305537Y-44284494D01*
X43364502Y-44174180D01*
X43400812Y-44054482D01*
X43413072Y-43930000D01*
X43413072Y-42430000D01*
X43400812Y-42305518D01*
X43364502Y-42185820D01*
X43305537Y-42075506D01*
X43226185Y-41978815D01*
X43153662Y-41919297D01*
X43396426Y-42019853D01*
X43673665Y-42075000D01*
X43956335Y-42075000D01*
X44233574Y-42019853D01*
X44494727Y-41911680D01*
X44729759Y-41754637D01*
X44929637Y-41554759D01*
X45086680Y-41319727D01*
X45194853Y-41058574D01*
X45250000Y-40781335D01*
X45250000Y-40498665D01*
X45194853Y-40221426D01*
X45086680Y-39960273D01*
X44929637Y-39725241D01*
X44729759Y-39525363D01*
X44495872Y-39369085D01*
X44556514Y-39336671D01*
X44628097Y-39092702D01*
X43815000Y-38279605D01*
X43001903Y-39092702D01*
X43073486Y-39336671D01*
X43137992Y-39367194D01*
X43135273Y-39368320D01*
X42900241Y-39525363D01*
X42700363Y-39725241D01*
X42543320Y-39960273D01*
X42435147Y-40221426D01*
X42380000Y-40498665D01*
X42380000Y-40781335D01*
X42435147Y-41058574D01*
X42543320Y-41319727D01*
X42700363Y-41554759D01*
X42900241Y-41754637D01*
X43066979Y-41866047D01*
X43019180Y-41840498D01*
X42899482Y-41804188D01*
X42775000Y-41791928D01*
X39775000Y-41791928D01*
X39650518Y-41804188D01*
X39530820Y-41840498D01*
X39420506Y-41899463D01*
X39323815Y-41978815D01*
X39244463Y-42075506D01*
X39242260Y-42079628D01*
X39227439Y-42061568D01*
X39227437Y-42061566D01*
X39201291Y-42029707D01*
X39169432Y-42003561D01*
X35504447Y-38338578D01*
X35478292Y-38306708D01*
X35351147Y-38202363D01*
X35291559Y-38170512D01*
X42374783Y-38170512D01*
X42416213Y-38450130D01*
X42511397Y-38716292D01*
X42578329Y-38841514D01*
X42822298Y-38913097D01*
X43635395Y-38100000D01*
X43994605Y-38100000D01*
X44807702Y-38913097D01*
X45051671Y-38841514D01*
X45172571Y-38586004D01*
X45241300Y-38311816D01*
X45255217Y-38029488D01*
X45213787Y-37749870D01*
X45118603Y-37483708D01*
X45051671Y-37358486D01*
X44807702Y-37286903D01*
X43994605Y-38100000D01*
X43635395Y-38100000D01*
X42822298Y-37286903D01*
X42578329Y-37358486D01*
X42457429Y-37613996D01*
X42388700Y-37888184D01*
X42374783Y-38170512D01*
X35291559Y-38170512D01*
X35206088Y-38124827D01*
X35090000Y-38089612D01*
X35090000Y-37958665D01*
X35034853Y-37681426D01*
X34926680Y-37420273D01*
X34769637Y-37185241D01*
X34569759Y-36985363D01*
X34337241Y-36830000D01*
X34569759Y-36674637D01*
X34769637Y-36474759D01*
X34926680Y-36239727D01*
X35034853Y-35978574D01*
X35090000Y-35701335D01*
X35090000Y-35418665D01*
X35034853Y-35141426D01*
X34926680Y-34880273D01*
X34769637Y-34645241D01*
X34569759Y-34445363D01*
X34501666Y-34399865D01*
X34585000Y-34408072D01*
X37585000Y-34408072D01*
X37709482Y-34395812D01*
X37829180Y-34359502D01*
X37939494Y-34300537D01*
X38036185Y-34221185D01*
X38115537Y-34124494D01*
X38174502Y-34014180D01*
X38210812Y-33894482D01*
X38223072Y-33770000D01*
X38223072Y-32270000D01*
X39136928Y-32270000D01*
X39136928Y-33770000D01*
X39149188Y-33894482D01*
X39185498Y-34014180D01*
X39244463Y-34124494D01*
X39323815Y-34221185D01*
X39420506Y-34300537D01*
X39530820Y-34359502D01*
X39650518Y-34395812D01*
X39775000Y-34408072D01*
X42775000Y-34408072D01*
X42899482Y-34395812D01*
X43019180Y-34359502D01*
X43066979Y-34333953D01*
X42900241Y-34445363D01*
X42700363Y-34645241D01*
X42543320Y-34880273D01*
X42435147Y-35141426D01*
X42380000Y-35418665D01*
X42380000Y-35701335D01*
X42435147Y-35978574D01*
X42543320Y-36239727D01*
X42700363Y-36474759D01*
X42900241Y-36674637D01*
X43134128Y-36830915D01*
X43073486Y-36863329D01*
X43001903Y-37107298D01*
X43815000Y-37920395D01*
X44628097Y-37107298D01*
X44556514Y-36863329D01*
X44492008Y-36832806D01*
X44494727Y-36831680D01*
X44729759Y-36674637D01*
X44929637Y-36474759D01*
X45086680Y-36239727D01*
X45194853Y-35978574D01*
X45250000Y-35701335D01*
X45250000Y-35418665D01*
X45194853Y-35141426D01*
X45086680Y-34880273D01*
X44929637Y-34645241D01*
X44729759Y-34445363D01*
X44494727Y-34288320D01*
X44233574Y-34180147D01*
X43956335Y-34125000D01*
X43673665Y-34125000D01*
X43396426Y-34180147D01*
X43153662Y-34280703D01*
X43226185Y-34221185D01*
X43305537Y-34124494D01*
X43364502Y-34014180D01*
X43400812Y-33894482D01*
X43413072Y-33770000D01*
X43413072Y-32270000D01*
X43400812Y-32145518D01*
X43364502Y-32025820D01*
X43305537Y-31915506D01*
X43226185Y-31818815D01*
X43129494Y-31739463D01*
X43019180Y-31680498D01*
X42899482Y-31644188D01*
X42775000Y-31631928D01*
X39775000Y-31631928D01*
X39650518Y-31644188D01*
X39530820Y-31680498D01*
X39420506Y-31739463D01*
X39323815Y-31818815D01*
X39244463Y-31915506D01*
X39185498Y-32025820D01*
X39149188Y-32145518D01*
X39136928Y-32270000D01*
X38223072Y-32270000D01*
X38210812Y-32145518D01*
X38174502Y-32025820D01*
X38115537Y-31915506D01*
X38036185Y-31818815D01*
X37939494Y-31739463D01*
X37829180Y-31680498D01*
X37709482Y-31644188D01*
X37585000Y-31631928D01*
X34585000Y-31631928D01*
X34460518Y-31644188D01*
X34340820Y-31680498D01*
X34230506Y-31739463D01*
X34133815Y-31818815D01*
X34054463Y-31915506D01*
X33995498Y-32025820D01*
X33959188Y-32145518D01*
X33946928Y-32270000D01*
X33946928Y-33770000D01*
X33959188Y-33894482D01*
X33995498Y-34014180D01*
X34054463Y-34124494D01*
X34113816Y-34196816D01*
X34073574Y-34180147D01*
X33796335Y-34125000D01*
X33513665Y-34125000D01*
X33236426Y-34180147D01*
X32975273Y-34288320D01*
X32740241Y-34445363D01*
X32540363Y-34645241D01*
X32383320Y-34880273D01*
X32275147Y-35141426D01*
X32220000Y-35418665D01*
X32220000Y-35701335D01*
X32275147Y-35978574D01*
X32383320Y-36239727D01*
X32540363Y-36474759D01*
X32740241Y-36674637D01*
X32972759Y-36830000D01*
X32740241Y-36985363D01*
X32540363Y-37185241D01*
X32383320Y-37420273D01*
X32314145Y-37587277D01*
X30575441Y-35848574D01*
X30575437Y-35848569D01*
X30564807Y-35837939D01*
X30591000Y-35706260D01*
X30591000Y-35413740D01*
X30533932Y-35126842D01*
X30421990Y-34856589D01*
X30259475Y-34613368D01*
X30052632Y-34406525D01*
X29809411Y-34244010D01*
X29539158Y-34132068D01*
X29252260Y-34075000D01*
X28959740Y-34075000D01*
X28672842Y-34132068D01*
X28402589Y-34244010D01*
X28159368Y-34406525D01*
X27952525Y-34613368D01*
X27877935Y-34725000D01*
X23834065Y-34725000D01*
X23759475Y-34613368D01*
X23552632Y-34406525D01*
X23309411Y-34244010D01*
X23039158Y-34132068D01*
X22752260Y-34075000D01*
X22459740Y-34075000D01*
X22172842Y-34132068D01*
X21902589Y-34244010D01*
X21659368Y-34406525D01*
X21452525Y-34613368D01*
X21290010Y-34856589D01*
X21178068Y-35126842D01*
X21121000Y-35413740D01*
X21121000Y-35706260D01*
X21178068Y-35993158D01*
X21290010Y-36263411D01*
X21452525Y-36506632D01*
X21659368Y-36713475D01*
X21902589Y-36875990D01*
X22172842Y-36987932D01*
X22459740Y-37045000D01*
X22752260Y-37045000D01*
X23039158Y-36987932D01*
X23309411Y-36875990D01*
X23552632Y-36713475D01*
X23759475Y-36506632D01*
X23834065Y-36395000D01*
X27877935Y-36395000D01*
X27952525Y-36506632D01*
X28159368Y-36713475D01*
X28402589Y-36875990D01*
X28672842Y-36987932D01*
X28959740Y-37045000D01*
X29252260Y-37045000D01*
X29383939Y-37018807D01*
X29394569Y-37029437D01*
X29394574Y-37029441D01*
X31570000Y-39204868D01*
X31569999Y-48497202D01*
X31406111Y-48447487D01*
X31187950Y-48426000D01*
X31042050Y-48426000D01*
X30823889Y-48447487D01*
X30543966Y-48532401D01*
X30285986Y-48670294D01*
X30059866Y-48855866D01*
X29874294Y-49081986D01*
X29845000Y-49136791D01*
X29815706Y-49081986D01*
X29630134Y-48855866D01*
X29404014Y-48670294D01*
X29146034Y-48532401D01*
X28866111Y-48447487D01*
X28647950Y-48426000D01*
X28502050Y-48426000D01*
X28283889Y-48447487D01*
X28003966Y-48532401D01*
X27745986Y-48670294D01*
X27519866Y-48855866D01*
X27334294Y-49081986D01*
X27305000Y-49136791D01*
X27275706Y-49081986D01*
X27090134Y-48855866D01*
X26864014Y-48670294D01*
X26606034Y-48532401D01*
X26326111Y-48447487D01*
X26107950Y-48426000D01*
X25962050Y-48426000D01*
X25743889Y-48447487D01*
X25463966Y-48532401D01*
X25205986Y-48670294D01*
X24979866Y-48855866D01*
X24794294Y-49081986D01*
X24765000Y-49136791D01*
X24735706Y-49081986D01*
X24550134Y-48855866D01*
X24324014Y-48670294D01*
X24066034Y-48532401D01*
X23786111Y-48447487D01*
X23567950Y-48426000D01*
X23422050Y-48426000D01*
X23203889Y-48447487D01*
X22923966Y-48532401D01*
X22665986Y-48670294D01*
X22439866Y-48855866D01*
X22254294Y-49081986D01*
X22225000Y-49136791D01*
X22195706Y-49081986D01*
X22010134Y-48855866D01*
X21784014Y-48670294D01*
X21526034Y-48532401D01*
X21246111Y-48447487D01*
X21027950Y-48426000D01*
X20882050Y-48426000D01*
X20663889Y-48447487D01*
X20383966Y-48532401D01*
X20125986Y-48670294D01*
X19899866Y-48855866D01*
X19714294Y-49081986D01*
X19634000Y-49232206D01*
X19634000Y-41088397D01*
X21757208Y-41088397D01*
X21834843Y-41337472D01*
X22098883Y-41463371D01*
X22382411Y-41535339D01*
X22674531Y-41550611D01*
X22964019Y-41508599D01*
X23239747Y-41410919D01*
X23377157Y-41337472D01*
X23454792Y-41088397D01*
X28257208Y-41088397D01*
X28334843Y-41337472D01*
X28598883Y-41463371D01*
X28882411Y-41535339D01*
X29174531Y-41550611D01*
X29464019Y-41508599D01*
X29739747Y-41410919D01*
X29877157Y-41337472D01*
X29954792Y-41088397D01*
X29106000Y-40239605D01*
X28257208Y-41088397D01*
X23454792Y-41088397D01*
X22606000Y-40239605D01*
X21757208Y-41088397D01*
X19634000Y-41088397D01*
X19634000Y-40128531D01*
X21115389Y-40128531D01*
X21157401Y-40418019D01*
X21255081Y-40693747D01*
X21328528Y-40831157D01*
X21577603Y-40908792D01*
X22426395Y-40060000D01*
X22785605Y-40060000D01*
X23634397Y-40908792D01*
X23883472Y-40831157D01*
X24009371Y-40567117D01*
X24081339Y-40283589D01*
X24089445Y-40128531D01*
X27615389Y-40128531D01*
X27657401Y-40418019D01*
X27755081Y-40693747D01*
X27828528Y-40831157D01*
X28077603Y-40908792D01*
X28926395Y-40060000D01*
X29285605Y-40060000D01*
X30134397Y-40908792D01*
X30383472Y-40831157D01*
X30509371Y-40567117D01*
X30581339Y-40283589D01*
X30596611Y-39991469D01*
X30554599Y-39701981D01*
X30456919Y-39426253D01*
X30383472Y-39288843D01*
X30134397Y-39211208D01*
X29285605Y-40060000D01*
X28926395Y-40060000D01*
X28077603Y-39211208D01*
X27828528Y-39288843D01*
X27702629Y-39552883D01*
X27630661Y-39836411D01*
X27615389Y-40128531D01*
X24089445Y-40128531D01*
X24096611Y-39991469D01*
X24054599Y-39701981D01*
X23956919Y-39426253D01*
X23883472Y-39288843D01*
X23634397Y-39211208D01*
X22785605Y-40060000D01*
X22426395Y-40060000D01*
X21577603Y-39211208D01*
X21328528Y-39288843D01*
X21202629Y-39552883D01*
X21130661Y-39836411D01*
X21115389Y-40128531D01*
X19634000Y-40128531D01*
X19634000Y-39031603D01*
X21757208Y-39031603D01*
X22606000Y-39880395D01*
X23454792Y-39031603D01*
X28257208Y-39031603D01*
X29106000Y-39880395D01*
X29954792Y-39031603D01*
X29877157Y-38782528D01*
X29613117Y-38656629D01*
X29329589Y-38584661D01*
X29037469Y-38569389D01*
X28747981Y-38611401D01*
X28472253Y-38709081D01*
X28334843Y-38782528D01*
X28257208Y-39031603D01*
X23454792Y-39031603D01*
X23377157Y-38782528D01*
X23113117Y-38656629D01*
X22829589Y-38584661D01*
X22537469Y-38569389D01*
X22247981Y-38611401D01*
X21972253Y-38709081D01*
X21834843Y-38782528D01*
X21757208Y-39031603D01*
X19634000Y-39031603D01*
X19634000Y-27394928D01*
X28300000Y-27394928D01*
X28300000Y-27973072D01*
X28412791Y-28540108D01*
X28634037Y-29074244D01*
X28955237Y-29554953D01*
X29364047Y-29963763D01*
X29844756Y-30284963D01*
X30378892Y-30506209D01*
X30945928Y-30619000D01*
X31524072Y-30619000D01*
X32091108Y-30506209D01*
X32625244Y-30284963D01*
X33105953Y-29963763D01*
X33514763Y-29554953D01*
X33835963Y-29074244D01*
X34057209Y-28540108D01*
X34170000Y-27973072D01*
X34170000Y-27394928D01*
X34057209Y-26827892D01*
X33835963Y-26293756D01*
X33581463Y-25912871D01*
X33801553Y-25924991D01*
X34100907Y-25882397D01*
X34386199Y-25782222D01*
X34535792Y-25702261D01*
X34619475Y-25448080D01*
X33735000Y-24563605D01*
X33720858Y-24577748D01*
X33541253Y-24398143D01*
X33555395Y-24384000D01*
X32670920Y-23499525D01*
X32416739Y-23583208D01*
X32285842Y-23855775D01*
X32210635Y-24148642D01*
X32194009Y-24450553D01*
X32236603Y-24749907D01*
X32307338Y-24951356D01*
X32091108Y-24861791D01*
X31524072Y-24749000D01*
X30945928Y-24749000D01*
X30378892Y-24861791D01*
X29844756Y-25083037D01*
X29364047Y-25404237D01*
X28955237Y-25813047D01*
X28634037Y-26293756D01*
X28412791Y-26827892D01*
X28300000Y-27394928D01*
X19634000Y-27394928D01*
X19634000Y-23782872D01*
X19863000Y-23782872D01*
X19863000Y-24223128D01*
X19948890Y-24654925D01*
X20117369Y-25061669D01*
X20361962Y-25427729D01*
X20673271Y-25739038D01*
X21039331Y-25983631D01*
X21446075Y-26152110D01*
X21877872Y-26238000D01*
X22318128Y-26238000D01*
X22749925Y-26152110D01*
X23156669Y-25983631D01*
X23522729Y-25739038D01*
X23834038Y-25427729D01*
X24078631Y-25061669D01*
X24247110Y-24654925D01*
X24333000Y-24223128D01*
X24333000Y-23782872D01*
X24247110Y-23351075D01*
X24234206Y-23319920D01*
X32850525Y-23319920D01*
X33735000Y-24204395D01*
X34619475Y-23319920D01*
X34535792Y-23065739D01*
X34263225Y-22934842D01*
X33970358Y-22859635D01*
X33668447Y-22843009D01*
X33369093Y-22885603D01*
X33083801Y-22985778D01*
X32934208Y-23065739D01*
X32850525Y-23319920D01*
X24234206Y-23319920D01*
X24078631Y-22944331D01*
X23834038Y-22578271D01*
X23522729Y-22266962D01*
X23156669Y-22022369D01*
X22749925Y-21853890D01*
X22318128Y-21768000D01*
X21877872Y-21768000D01*
X21446075Y-21853890D01*
X21039331Y-22022369D01*
X20673271Y-22266962D01*
X20361962Y-22578271D01*
X20117369Y-22944331D01*
X19948890Y-23351075D01*
X19863000Y-23782872D01*
X19634000Y-23782872D01*
X19634000Y-23527278D01*
X19674356Y-23115696D01*
X19784515Y-22750832D01*
X19963442Y-22414317D01*
X20204323Y-22118969D01*
X20497990Y-21876026D01*
X20833245Y-21694754D01*
X21197328Y-21582051D01*
X21606930Y-21539000D01*
X50894722Y-21539000D01*
X51306304Y-21579356D01*
G36*
X33860565Y-44996435D02*
G01*
X33886716Y-45028300D01*
X34013861Y-45132645D01*
X34158920Y-45210181D01*
X34316318Y-45257927D01*
X34480006Y-45274049D01*
X34521025Y-45270009D01*
X34763144Y-45270009D01*
X38073754Y-48580620D01*
X37905986Y-48670294D01*
X37679866Y-48855866D01*
X37494294Y-49081986D01*
X37465000Y-49136791D01*
X37435706Y-49081986D01*
X37250134Y-48855866D01*
X37024014Y-48670294D01*
X36766034Y-48532401D01*
X36486111Y-48447487D01*
X36267950Y-48426000D01*
X36122050Y-48426000D01*
X35903889Y-48447487D01*
X35623966Y-48532401D01*
X35365986Y-48670294D01*
X35139866Y-48855866D01*
X34954294Y-49081986D01*
X34925000Y-49136791D01*
X34895706Y-49081986D01*
X34710134Y-48855866D01*
X34484014Y-48670294D01*
X34226034Y-48532401D01*
X33946111Y-48447487D01*
X33727950Y-48426000D01*
X33582050Y-48426000D01*
X33363889Y-48447487D01*
X33239999Y-48485069D01*
X33239999Y-44375868D01*
X33860565Y-44996435D01*
X33860565Y-44996435D01*
G37*
X33860565Y-44996435D02*
X33886716Y-45028300D01*
X34013861Y-45132645D01*
X34158920Y-45210181D01*
X34316318Y-45257927D01*
X34480006Y-45274049D01*
X34521025Y-45270009D01*
X34763144Y-45270009D01*
X38073754Y-48580620D01*
X37905986Y-48670294D01*
X37679866Y-48855866D01*
X37494294Y-49081986D01*
X37465000Y-49136791D01*
X37435706Y-49081986D01*
X37250134Y-48855866D01*
X37024014Y-48670294D01*
X36766034Y-48532401D01*
X36486111Y-48447487D01*
X36267950Y-48426000D01*
X36122050Y-48426000D01*
X35903889Y-48447487D01*
X35623966Y-48532401D01*
X35365986Y-48670294D01*
X35139866Y-48855866D01*
X34954294Y-49081986D01*
X34925000Y-49136791D01*
X34895706Y-49081986D01*
X34710134Y-48855866D01*
X34484014Y-48670294D01*
X34226034Y-48532401D01*
X33946111Y-48447487D01*
X33727950Y-48426000D01*
X33582050Y-48426000D01*
X33363889Y-48447487D01*
X33239999Y-48485069D01*
X33239999Y-44375868D01*
X33860565Y-44996435D01*
G36*
X37785082Y-44613688D02*
G01*
X37832828Y-44771086D01*
X37910364Y-44916145D01*
X38014709Y-45043291D01*
X38046579Y-45069446D01*
X41409161Y-48432029D01*
X41347950Y-48426000D01*
X41202050Y-48426000D01*
X40983889Y-48447487D01*
X40703966Y-48532401D01*
X40497585Y-48642714D01*
X36422941Y-44568072D01*
X37695000Y-44568072D01*
X37779767Y-44559723D01*
X37785082Y-44613688D01*
X37785082Y-44613688D01*
G37*
X37785082Y-44613688D02*
X37832828Y-44771086D01*
X37910364Y-44916145D01*
X38014709Y-45043291D01*
X38046579Y-45069446D01*
X41409161Y-48432029D01*
X41347950Y-48426000D01*
X41202050Y-48426000D01*
X40983889Y-48447487D01*
X40703966Y-48532401D01*
X40497585Y-48642714D01*
X36422941Y-44568072D01*
X37695000Y-44568072D01*
X37779767Y-44559723D01*
X37785082Y-44613688D01*
M02*
