G04 #@! TF.GenerationSoftware,KiCad,Pcbnew,(5.1.9)-1*
G04 #@! TF.CreationDate,2021-06-01T18:20:28+09:00*
G04 #@! TF.ProjectId,ramn,72616d6e-2e6b-4696-9361-645f70636258,rev?*
G04 #@! TF.SameCoordinates,Original*
G04 #@! TF.FileFunction,Copper,L2,Bot*
G04 #@! TF.FilePolarity,Positive*
%FSLAX46Y46*%
G04 Gerber Fmt 4.6, Leading zero omitted, Abs format (unit mm)*
G04 Created by KiCad (PCBNEW (5.1.9)-1) date 2021-06-01 18:20:28*
%MOMM*%
%LPD*%
G01*
G04 APERTURE LIST*
G04 #@! TA.AperFunction,ComponentPad*
%ADD10C,2.000000*%
G04 #@! TD*
G04 #@! TA.AperFunction,ComponentPad*
%ADD11R,2.000000X2.000000*%
G04 #@! TD*
G04 #@! TA.AperFunction,ComponentPad*
%ADD12C,3.000000*%
G04 #@! TD*
G04 #@! TA.AperFunction,ComponentPad*
%ADD13R,1.700000X1.700000*%
G04 #@! TD*
G04 #@! TA.AperFunction,ComponentPad*
%ADD14O,1.700000X1.700000*%
G04 #@! TD*
G04 #@! TA.AperFunction,ComponentPad*
%ADD15O,1.800000X1.150000*%
G04 #@! TD*
G04 #@! TA.AperFunction,ComponentPad*
%ADD16O,2.000000X1.450000*%
G04 #@! TD*
G04 #@! TA.AperFunction,ViaPad*
%ADD17C,0.800000*%
G04 #@! TD*
G04 #@! TA.AperFunction,ViaPad*
%ADD18C,1.000000*%
G04 #@! TD*
G04 #@! TA.AperFunction,Conductor*
%ADD19C,0.250000*%
G04 #@! TD*
G04 #@! TA.AperFunction,Conductor*
%ADD20C,1.000000*%
G04 #@! TD*
G04 #@! TA.AperFunction,Conductor*
%ADD21C,0.500000*%
G04 #@! TD*
G04 #@! TA.AperFunction,Conductor*
%ADD22C,0.450000*%
G04 #@! TD*
G04 #@! TA.AperFunction,Conductor*
%ADD23C,0.254000*%
G04 #@! TD*
G04 #@! TA.AperFunction,Conductor*
%ADD24C,0.100000*%
G04 #@! TD*
G04 APERTURE END LIST*
D10*
X121614000Y-52404000D03*
X124714000Y-52404000D03*
X121614000Y-54904000D03*
X124714000Y-54904000D03*
D11*
X121614000Y-57404000D03*
X124714000Y-57404000D03*
D12*
X43815000Y-85725000D03*
D13*
X86360000Y-93218000D03*
D14*
X86360000Y-95758000D03*
X88900000Y-93218000D03*
X88900000Y-95758000D03*
X91440000Y-93218000D03*
X91440000Y-95758000D03*
X93980000Y-93218000D03*
X93980000Y-95758000D03*
X96520000Y-93218000D03*
X96520000Y-95758000D03*
X99060000Y-93218000D03*
X99060000Y-95758000D03*
X101600000Y-93218000D03*
X101600000Y-95758000D03*
X104140000Y-93218000D03*
X104140000Y-95758000D03*
X106680000Y-93218000D03*
X106680000Y-95758000D03*
X109220000Y-93218000D03*
X109220000Y-95758000D03*
X111760000Y-93218000D03*
X111760000Y-95758000D03*
X114300000Y-93218000D03*
X114300000Y-95758000D03*
X116840000Y-93218000D03*
X116840000Y-95758000D03*
D13*
X50165000Y-93218000D03*
D14*
X50165000Y-95758000D03*
X52705000Y-93218000D03*
X52705000Y-95758000D03*
X55245000Y-93218000D03*
X55245000Y-95758000D03*
X57785000Y-93218000D03*
X57785000Y-95758000D03*
X60325000Y-93218000D03*
X60325000Y-95758000D03*
X62865000Y-93218000D03*
X62865000Y-95758000D03*
X65405000Y-93218000D03*
X65405000Y-95758000D03*
X67945000Y-93218000D03*
X67945000Y-95758000D03*
X70485000Y-93218000D03*
X70485000Y-95758000D03*
X73025000Y-93218000D03*
X73025000Y-95758000D03*
X75565000Y-93218000D03*
X75565000Y-95758000D03*
X78105000Y-93218000D03*
X78105000Y-95758000D03*
X80645000Y-93218000D03*
X80645000Y-95758000D03*
D13*
X116840000Y-47117000D03*
D14*
X116840000Y-44577000D03*
X114300000Y-47117000D03*
X114300000Y-44577000D03*
X111760000Y-47117000D03*
X111760000Y-44577000D03*
X109220000Y-47117000D03*
X109220000Y-44577000D03*
X106680000Y-47117000D03*
X106680000Y-44577000D03*
X104140000Y-47117000D03*
X104140000Y-44577000D03*
X101600000Y-47117000D03*
X101600000Y-44577000D03*
X99060000Y-47117000D03*
X99060000Y-44577000D03*
X96520000Y-47117000D03*
X96520000Y-44577000D03*
X93980000Y-47117000D03*
X93980000Y-44577000D03*
X91440000Y-47117000D03*
X91440000Y-44577000D03*
X88900000Y-47117000D03*
X88900000Y-44577000D03*
X86360000Y-47117000D03*
X86360000Y-44577000D03*
X50165000Y-44577000D03*
X50165000Y-47117000D03*
X52705000Y-44577000D03*
X52705000Y-47117000D03*
X55245000Y-44577000D03*
X55245000Y-47117000D03*
X57785000Y-44577000D03*
X57785000Y-47117000D03*
X60325000Y-44577000D03*
X60325000Y-47117000D03*
X62865000Y-44577000D03*
X62865000Y-47117000D03*
X65405000Y-44577000D03*
X65405000Y-47117000D03*
X67945000Y-44577000D03*
X67945000Y-47117000D03*
X70485000Y-44577000D03*
X70485000Y-47117000D03*
X73025000Y-44577000D03*
X73025000Y-47117000D03*
X75565000Y-44577000D03*
X75565000Y-47117000D03*
X78105000Y-44577000D03*
X78105000Y-47117000D03*
X80645000Y-44577000D03*
D13*
X80645000Y-47117000D03*
D12*
X104140000Y-66675000D03*
X123825000Y-62865000D03*
X118745000Y-62865000D03*
X123825000Y-71755000D03*
X118745000Y-71755000D03*
X93980000Y-66675000D03*
X83820000Y-66675000D03*
X43815000Y-76835000D03*
X43815000Y-67945000D03*
D15*
X42500000Y-62930000D03*
X42500000Y-55180000D03*
D16*
X46300000Y-62780000D03*
X46300000Y-55330000D03*
D17*
X49530000Y-50165000D03*
X67945000Y-81915000D03*
X54864000Y-51054000D03*
X58928000Y-60452000D03*
X64008000Y-63754000D03*
X61468000Y-66167000D03*
X50419000Y-62103000D03*
X81915000Y-50038000D03*
X59309000Y-64897000D03*
X71628000Y-62738000D03*
X74726800Y-69215000D03*
X74726800Y-67310000D03*
X80010000Y-64770000D03*
X76327000Y-60960000D03*
X48260000Y-67310000D03*
X48260000Y-69215000D03*
X92837000Y-55245000D03*
X91567000Y-55245000D03*
X94107000Y-55245000D03*
X95250000Y-55245000D03*
X94996000Y-57658000D03*
X94996000Y-58674000D03*
X92456000Y-59309000D03*
X91694000Y-60071000D03*
X90170000Y-56642000D03*
X97790000Y-53848000D03*
X90170000Y-50927000D03*
X92075000Y-69215000D03*
X85725000Y-69215000D03*
X101727000Y-54229000D03*
X105918000Y-53340000D03*
X105918000Y-54610000D03*
X106680000Y-66040000D03*
X111760000Y-66040000D03*
X111760000Y-67310000D03*
X99060000Y-69215000D03*
X46990000Y-83820000D03*
X116840000Y-69596000D03*
X116840000Y-66675000D03*
X121031000Y-74422000D03*
X104140000Y-81280000D03*
X109220000Y-81788000D03*
X109220000Y-82804000D03*
X108077000Y-81788000D03*
X104140000Y-84328000D03*
X104902000Y-82042000D03*
X106045000Y-80391000D03*
X112776000Y-80518000D03*
X111760000Y-85598000D03*
X69342000Y-84328000D03*
X70612000Y-84328000D03*
X75184000Y-85598000D03*
X67818000Y-80772000D03*
X71882000Y-80264000D03*
X71882000Y-81534000D03*
X76962000Y-81280000D03*
X64516000Y-88646000D03*
X48260000Y-73660000D03*
X48260000Y-76200000D03*
X48260000Y-78740000D03*
X48260000Y-81280000D03*
X45593000Y-81280000D03*
X45593000Y-78740000D03*
X91440000Y-74930000D03*
X96520000Y-75692000D03*
X88265000Y-78740000D03*
X48260000Y-61595000D03*
X57531000Y-58293000D03*
X101600000Y-67310000D03*
X78232000Y-90551000D03*
X58039000Y-73533000D03*
X99187000Y-80518000D03*
X93980000Y-80518000D03*
X73660000Y-57150000D03*
X120142000Y-89408000D03*
X65532000Y-57658000D03*
X100584000Y-59690000D03*
X106680000Y-84328000D03*
X76708000Y-50038000D03*
X79502000Y-50038000D03*
X78105000Y-50038000D03*
X102616000Y-86106000D03*
X100838000Y-88392000D03*
X101854000Y-87376000D03*
X109220000Y-88265000D03*
X105410000Y-84328000D03*
X48260000Y-64135000D03*
X48260000Y-62865000D03*
X50165000Y-55245000D03*
X48260000Y-55245000D03*
X48260000Y-56515000D03*
X50165000Y-56515000D03*
X110998000Y-49657000D03*
X118745000Y-78740000D03*
X57658000Y-80518000D03*
X73914000Y-50038000D03*
X92075000Y-64770000D03*
X85725000Y-64770000D03*
X66802000Y-53340000D03*
X76962000Y-53340000D03*
X88519000Y-90551000D03*
X73279000Y-88265000D03*
X50419000Y-89662000D03*
X82677000Y-90551000D03*
X90170000Y-58674000D03*
X66294000Y-86614000D03*
X52451000Y-87503000D03*
X114300000Y-82296000D03*
X114427000Y-57150000D03*
X85953600Y-84328000D03*
X52959000Y-67056000D03*
X113665000Y-49657000D03*
X115887500Y-49657000D03*
X54864000Y-52070000D03*
X65532000Y-87630000D03*
X121031000Y-83439000D03*
X113538000Y-74930000D03*
X62738000Y-80264000D03*
X80772000Y-78359000D03*
X80772000Y-79502000D03*
X117053999Y-78780001D03*
D18*
X51943000Y-68199000D03*
X50419000Y-68199000D03*
X77639999Y-61764999D03*
X76687499Y-62717499D03*
D17*
X120650000Y-79415000D03*
D18*
X51943000Y-69596000D03*
D17*
X92710000Y-76707994D03*
D18*
X78485984Y-60919014D03*
X74909499Y-64495499D03*
X74083999Y-65320999D03*
X50800000Y-87630000D03*
X52070000Y-88900000D03*
X82563010Y-79375000D03*
X84328000Y-88137998D03*
X84328000Y-85852000D03*
X88138000Y-81026000D03*
X50419000Y-69584990D03*
X111548999Y-61764999D03*
D17*
X60325000Y-57785000D03*
X53772466Y-63507337D03*
X51816000Y-62357000D03*
X50760000Y-51435000D03*
X55062698Y-57967302D03*
X52791998Y-62697998D03*
X56968874Y-60207386D03*
X50546000Y-67056000D03*
X42671996Y-53086000D03*
X58293000Y-63627000D03*
X59309000Y-59563008D03*
X62738000Y-69596000D03*
X58166000Y-56642000D03*
X57998990Y-55560020D03*
X78969994Y-57895000D03*
X60325000Y-55880000D03*
X94361000Y-86995000D03*
X65004123Y-59984010D03*
X55880000Y-64135000D03*
X58293000Y-86741002D03*
X64566750Y-82981750D03*
X87277000Y-87023000D03*
X100741695Y-82961695D03*
D18*
X112395000Y-56769004D03*
D17*
X99060000Y-56515000D03*
X116839999Y-65150999D03*
X73025000Y-80645000D03*
X73205686Y-76128479D03*
X74168000Y-76708008D03*
X72235000Y-76113010D03*
X71120000Y-76200000D03*
X109220000Y-80645000D03*
X109855000Y-76200000D03*
X110744000Y-76794990D03*
X108585000Y-76200000D03*
X107634997Y-76200000D03*
X86869991Y-55761346D03*
X86995000Y-58801000D03*
X85920035Y-58801000D03*
X81724500Y-71564500D03*
X116979806Y-74719501D03*
X113665000Y-71500999D03*
X81661006Y-73406000D03*
X64516000Y-80264000D03*
X68351198Y-75803291D03*
X104394000Y-75819000D03*
X101346000Y-78105000D03*
X116078000Y-58420000D03*
X98933000Y-59690000D03*
X105410000Y-62894315D03*
X93324121Y-63635020D03*
X106572537Y-63607463D03*
X92075000Y-63500000D03*
X105972762Y-79273684D03*
X65786002Y-59309000D03*
X93416155Y-60427297D03*
X66548000Y-58547000D03*
X57158440Y-64134967D03*
X69735001Y-79362997D03*
D19*
X49734998Y-50369998D02*
X49530000Y-50165000D01*
X77978000Y-44577000D02*
X76835000Y-45720000D01*
X78105000Y-44577000D02*
X77978000Y-44577000D01*
X114427000Y-44577000D02*
X115570000Y-45720000D01*
X114300000Y-44577000D02*
X114427000Y-44577000D01*
X114300000Y-44577000D02*
X114173000Y-44577000D01*
X88900000Y-95758000D02*
X90043000Y-94615000D01*
X53848000Y-94615000D02*
X53975000Y-94615000D01*
X52705000Y-95758000D02*
X53848000Y-94615000D01*
X51562000Y-94615000D02*
X51435000Y-94615000D01*
X52705000Y-95758000D02*
X51562000Y-94615000D01*
X115570000Y-45847000D02*
X114300000Y-44577000D01*
X115570000Y-48895000D02*
X115570000Y-45847000D01*
X89027000Y-95758000D02*
X90170000Y-94615000D01*
X88900000Y-95758000D02*
X89027000Y-95758000D01*
X90170000Y-94615000D02*
X90170000Y-91821000D01*
X90170000Y-91821000D02*
X89408000Y-91059000D01*
X51435000Y-92329000D02*
X50419000Y-91313000D01*
X52705000Y-95758000D02*
X51435000Y-94488000D01*
X51435000Y-94488000D02*
X51435000Y-92329000D01*
X53149500Y-91313000D02*
X50419000Y-91313000D01*
X53975000Y-94615000D02*
X53975000Y-92138500D01*
X53975000Y-92138500D02*
X53149500Y-91313000D01*
X79375000Y-45847000D02*
X79375000Y-48895000D01*
X78105000Y-44577000D02*
X79375000Y-45847000D01*
X113982500Y-48895000D02*
X114300000Y-48895000D01*
X113030000Y-47942500D02*
X113982500Y-48895000D01*
X113651999Y-57925001D02*
X114427000Y-57150000D01*
X106680000Y-55880000D02*
X108725001Y-57925001D01*
X108725001Y-57925001D02*
X113651999Y-57925001D01*
X76835000Y-48577500D02*
X77152500Y-48895000D01*
X77152500Y-48895000D02*
X78105000Y-48895000D01*
X76835000Y-45720000D02*
X76835000Y-48577500D01*
X114300000Y-44577000D02*
X113030000Y-45847000D01*
X113030000Y-45847000D02*
X113030000Y-47752000D01*
X87630000Y-94488000D02*
X88900000Y-95758000D01*
X87630000Y-91821000D02*
X87630000Y-94488000D01*
X88646000Y-90805000D02*
X87630000Y-91821000D01*
X82423000Y-48387000D02*
X81915000Y-48895000D01*
X82423000Y-46164500D02*
X82423000Y-48387000D01*
X82105500Y-45847000D02*
X82423000Y-46164500D01*
X79375000Y-45847000D02*
X82105500Y-45847000D01*
D20*
X77639999Y-61764999D02*
X76687499Y-62717499D01*
X43815000Y-76835000D02*
X43815000Y-76200000D01*
X47752000Y-86487000D02*
X48895000Y-87630000D01*
X48962919Y-95758000D02*
X50165000Y-95758000D01*
X48577500Y-95372581D02*
X48962919Y-95758000D01*
X48577500Y-87305498D02*
X48577500Y-95372581D01*
X43815000Y-76835000D02*
X43815000Y-82542998D01*
X43815000Y-82542998D02*
X48577500Y-87305498D01*
D19*
X95503994Y-73914000D02*
X92710000Y-76707994D01*
X115149000Y-73914000D02*
X95503994Y-73914000D01*
X120650000Y-79415000D02*
X115149000Y-73914000D01*
D20*
X77639999Y-61764999D02*
X78485984Y-60919014D01*
X48895000Y-87630000D02*
X50800000Y-87630000D01*
X52070000Y-88900000D02*
X50800000Y-87630000D01*
X43815000Y-76200000D02*
X50292000Y-69723000D01*
X74909499Y-64495499D02*
X74083999Y-65320999D01*
X86360000Y-95504990D02*
X85776988Y-95504990D01*
X85776988Y-95504990D02*
X84328000Y-94056002D01*
X84328000Y-94056002D02*
X84328000Y-88137998D01*
X84328000Y-88137998D02*
X84328000Y-85852000D01*
X84328000Y-81139990D02*
X84328000Y-85852000D01*
X82563010Y-79375000D02*
X84328000Y-81139990D01*
X84441990Y-81026000D02*
X84328000Y-81139990D01*
X88138000Y-81026000D02*
X84441990Y-81026000D01*
X50419000Y-69584990D02*
X50419000Y-68199000D01*
X51931990Y-69584990D02*
X51943000Y-69596000D01*
X50419000Y-69584990D02*
X51931990Y-69584990D01*
X51943000Y-69596000D02*
X51943000Y-68199000D01*
X51943000Y-68199000D02*
X50419000Y-68199000D01*
X50557010Y-69584990D02*
X51943000Y-68199000D01*
X50419000Y-69584990D02*
X50557010Y-69584990D01*
X110447001Y-61764999D02*
X111549011Y-61764999D01*
X77639999Y-61764999D02*
X110447001Y-61764999D01*
X118042081Y-44577000D02*
X116840000Y-44577000D01*
X118340001Y-44874920D02*
X118042081Y-44577000D01*
X118340001Y-58951999D02*
X118340001Y-44874920D01*
X115527001Y-61764999D02*
X118340001Y-58951999D01*
X74909499Y-64495499D02*
X80264000Y-69850000D01*
X82563010Y-77356010D02*
X82563010Y-79375000D01*
X80264000Y-69850000D02*
X80264000Y-75057000D01*
X80264000Y-75057000D02*
X82563010Y-77356010D01*
X50430010Y-69596000D02*
X50419000Y-69584990D01*
X51943000Y-69596000D02*
X50430010Y-69596000D01*
X111549011Y-61764999D02*
X111548999Y-61764999D01*
X111548999Y-61764999D02*
X115527001Y-61764999D01*
X110447001Y-61764999D02*
X111548999Y-61764999D01*
D19*
X60071000Y-57531000D02*
X60325000Y-57785000D01*
X57912000Y-57531000D02*
X60071000Y-57531000D01*
X57150000Y-49276000D02*
X57150000Y-56769000D01*
X57150000Y-56769000D02*
X57912000Y-57531000D01*
X55245000Y-47371000D02*
X57150000Y-49276000D01*
X55245000Y-47117000D02*
X55245000Y-47371000D01*
X56642000Y-50430600D02*
X56642000Y-58870300D01*
X56642000Y-58870300D02*
X53772466Y-61739834D01*
X53975000Y-47763600D02*
X56642000Y-50430600D01*
X53975000Y-46355000D02*
X53975000Y-47763600D01*
X53467000Y-45847000D02*
X53975000Y-46355000D01*
X52070000Y-45847000D02*
X53467000Y-45847000D01*
X50800000Y-47117000D02*
X52070000Y-45847000D01*
X53772466Y-61739834D02*
X53772466Y-63507337D01*
X50165000Y-47117000D02*
X50800000Y-47117000D01*
X55772011Y-58400989D02*
X51816000Y-62357000D01*
X55753000Y-50673000D02*
X55753000Y-55862300D01*
X48895000Y-46601999D02*
X48895000Y-47879000D01*
X55753000Y-55862300D02*
X55772011Y-55881311D01*
X49649999Y-45847000D02*
X48895000Y-46601999D01*
X55772011Y-55881311D02*
X55772011Y-58400989D01*
X53594000Y-48514000D02*
X55753000Y-50673000D01*
X51435000Y-45847000D02*
X49649999Y-45847000D01*
X49530000Y-48514000D02*
X53594000Y-48514000D01*
X48895000Y-47879000D02*
X49530000Y-48514000D01*
X52705000Y-44577000D02*
X51435000Y-45847000D01*
X55372000Y-57658000D02*
X55062698Y-57967302D01*
X50760000Y-51435000D02*
X55372000Y-56047000D01*
X55372000Y-56047000D02*
X55372000Y-57658000D01*
X52791998Y-62132313D02*
X52791998Y-62697998D01*
X56241989Y-58682322D02*
X52791998Y-62132313D01*
X56241989Y-50596289D02*
X56241989Y-58682322D01*
X52762700Y-47117000D02*
X56241989Y-50596289D01*
X52705000Y-47117000D02*
X52762700Y-47117000D01*
X54483000Y-63806315D02*
X52884315Y-65405000D01*
X48494990Y-46247010D02*
X50165000Y-44577000D01*
X48494990Y-50184010D02*
X48494990Y-46247010D01*
X52884315Y-65405000D02*
X45466000Y-65405000D01*
X45466000Y-65405000D02*
X44323000Y-64262000D01*
X44323000Y-64262000D02*
X44323000Y-54356000D01*
X44323000Y-54356000D02*
X48494990Y-50184010D01*
X54483000Y-61595000D02*
X54483000Y-63806315D01*
X56968874Y-60207386D02*
X55870614Y-60207386D01*
X55870614Y-60207386D02*
X54483000Y-61595000D01*
X50546000Y-65824022D02*
X50526989Y-65805011D01*
X50546000Y-67056000D02*
X50546000Y-65824022D01*
X42603005Y-53154991D02*
X42671996Y-53086000D01*
X43922989Y-54336993D02*
X42671996Y-53086000D01*
X43922989Y-64427689D02*
X43922989Y-54336993D01*
X45300311Y-65805011D02*
X43922989Y-64427689D01*
X50526989Y-65805011D02*
X45300311Y-65805011D01*
X53066989Y-65805011D02*
X55499000Y-63373000D01*
X50526989Y-65805011D02*
X53066989Y-65805011D01*
X55499000Y-63373000D02*
X58292982Y-63373000D01*
X58292982Y-63373000D02*
X58420000Y-63500018D01*
X62738000Y-62992008D02*
X62738000Y-69596000D01*
X59309000Y-59563008D02*
X62738000Y-62992008D01*
X61595000Y-45847000D02*
X60325000Y-44577000D01*
X60960000Y-48514000D02*
X61595000Y-47879000D01*
X59944000Y-48514000D02*
X60960000Y-48514000D01*
X58674000Y-49784000D02*
X59944000Y-48514000D01*
X61595000Y-47879000D02*
X61595000Y-45847000D01*
X58674000Y-56134000D02*
X58674000Y-49784000D01*
X58166000Y-56642000D02*
X58674000Y-56134000D01*
X57912000Y-55473030D02*
X57998990Y-55560020D01*
X57912000Y-49276000D02*
X57912000Y-55473030D01*
X60071000Y-47117000D02*
X57912000Y-49276000D01*
X60325000Y-47117000D02*
X60071000Y-47117000D01*
X73525994Y-52451000D02*
X78969994Y-57895000D01*
X63754000Y-52451000D02*
X73525994Y-52451000D01*
X60325000Y-55880000D02*
X63754000Y-52451000D01*
X65963800Y-60883800D02*
X65064010Y-59984010D01*
X72948800Y-60883800D02*
X65963800Y-60883800D01*
X91948000Y-79883000D02*
X72948800Y-60883800D01*
X91948000Y-84582000D02*
X91948000Y-79883000D01*
X65064010Y-59984010D02*
X65004123Y-59984010D01*
X94361000Y-86995000D02*
X91948000Y-84582000D01*
X58166002Y-86741002D02*
X58293000Y-86741002D01*
X56134000Y-64135000D02*
X55880000Y-64135000D01*
X55880000Y-85852000D02*
X55880000Y-64135000D01*
X56913000Y-86885000D02*
X55880000Y-85852000D01*
X58149002Y-86885000D02*
X56913000Y-86885000D01*
X58293000Y-86741002D02*
X58149002Y-86885000D01*
X76454000Y-83566000D02*
X76454000Y-92329000D01*
X76454000Y-92329000D02*
X75565000Y-93218000D01*
X75869750Y-82981750D02*
X76454000Y-83566000D01*
X64566750Y-82981750D02*
X75869750Y-82981750D01*
X87277000Y-87023000D02*
X87277000Y-87023032D01*
D21*
X86332000Y-87023000D02*
X87277000Y-87023000D01*
X85725000Y-87630000D02*
X86332000Y-87023000D01*
X85725000Y-92583000D02*
X85725000Y-87630000D01*
X86360000Y-93218000D02*
X85725000Y-92583000D01*
D19*
X112522000Y-92456000D02*
X111760000Y-93218000D01*
X112522000Y-87884000D02*
X112522000Y-92456000D01*
X107599695Y-82961695D02*
X112522000Y-87884000D01*
X100741695Y-82961695D02*
X107599695Y-82961695D01*
D21*
X117348000Y-47625000D02*
X117348000Y-51816004D01*
X117348000Y-51816004D02*
X112395000Y-56769004D01*
X116840000Y-47117000D02*
X117348000Y-47625000D01*
D19*
X91440000Y-48895000D02*
X99060000Y-56515000D01*
X91440000Y-47117000D02*
X91440000Y-48895000D01*
X124714000Y-54904000D02*
X121614000Y-54904000D01*
D22*
X121539001Y-65150999D02*
X116839999Y-65150999D01*
X123825000Y-62865000D02*
X121539001Y-65150999D01*
D19*
X121614000Y-57404000D02*
X124714000Y-57404000D01*
X74422000Y-80645000D02*
X73025000Y-80645000D01*
X76880013Y-83103013D02*
X74422000Y-80645000D01*
X76880013Y-94442987D02*
X76880013Y-83103013D01*
X75565000Y-95758000D02*
X76880013Y-94442987D01*
X73205686Y-76744696D02*
X73205686Y-76128479D01*
X78994000Y-92329000D02*
X78994000Y-81788000D01*
X78994000Y-81788000D02*
X74589009Y-77383009D01*
X78105000Y-93218000D02*
X78994000Y-92329000D01*
X74589009Y-77383009D02*
X73843999Y-77383009D01*
X73843999Y-77383009D02*
X73205686Y-76744696D01*
X79394011Y-94468989D02*
X79394011Y-81553015D01*
X79394011Y-81553015D02*
X74549004Y-76708008D01*
X78105000Y-95758000D02*
X79394011Y-94468989D01*
X74549004Y-76708008D02*
X74168000Y-76708008D01*
X72894533Y-75453477D02*
X72235000Y-76113010D01*
X79795001Y-92368001D02*
X79795001Y-81335997D01*
X73912481Y-75453477D02*
X72894533Y-75453477D01*
X80645000Y-93218000D02*
X79795001Y-92368001D01*
X79795001Y-81335997D02*
X73912481Y-75453477D01*
X74078170Y-75053466D02*
X72266534Y-75053466D01*
X80264000Y-90805000D02*
X80264000Y-81239296D01*
X81915000Y-92456000D02*
X80264000Y-90805000D01*
X81915000Y-94488000D02*
X81915000Y-92456000D01*
X80645000Y-95758000D02*
X81915000Y-94488000D01*
X80264000Y-81239296D02*
X74078170Y-75053466D01*
X72266534Y-75053466D02*
X71120000Y-76200000D01*
X113030000Y-94488000D02*
X111760000Y-95758000D01*
X109220000Y-80645000D02*
X113030000Y-84455000D01*
X113030000Y-84455000D02*
X113030000Y-94488000D01*
X115189001Y-82676999D02*
X115189000Y-82677000D01*
X114300000Y-93218000D02*
X114427000Y-93218000D01*
X114300000Y-93218000D02*
X115189000Y-92329000D01*
X115189000Y-92329000D02*
X115189000Y-81412394D01*
X115189000Y-81412394D02*
X111246606Y-77470000D01*
X111246606Y-77470000D02*
X110109000Y-77470000D01*
X109855000Y-77216000D02*
X109855000Y-76200000D01*
X110109000Y-77470000D02*
X109855000Y-77216000D01*
X115589011Y-94468989D02*
X115589011Y-81246707D01*
X115589011Y-81246707D02*
X111137294Y-76794990D01*
X114300000Y-95758000D02*
X115589011Y-94468989D01*
X111137294Y-76794990D02*
X110744000Y-76794990D01*
X116840000Y-92456000D02*
X116840000Y-93218000D01*
X116078000Y-91694000D02*
X116840000Y-92456000D01*
X116078000Y-81169998D02*
X116078000Y-91694000D01*
X110433001Y-75524999D02*
X116078000Y-81169998D01*
X108585000Y-76200000D02*
X109260001Y-75524999D01*
X109260001Y-75524999D02*
X110433001Y-75524999D01*
X118110000Y-92583000D02*
X118110000Y-94488000D01*
X107634997Y-76134003D02*
X108644011Y-75124989D01*
X107634997Y-76200000D02*
X107634997Y-76134003D01*
X108644011Y-75124989D02*
X110598691Y-75124989D01*
X118110000Y-94488000D02*
X116840000Y-95758000D01*
X110598691Y-75124989D02*
X116478010Y-81004309D01*
X116478010Y-81004309D02*
X116478010Y-90951010D01*
X116478010Y-90951010D02*
X118110000Y-92583000D01*
X95250000Y-45847000D02*
X96520000Y-44577000D01*
X90741500Y-45847000D02*
X95250000Y-45847000D01*
X90170000Y-47752000D02*
X90170000Y-46418500D01*
X87884000Y-48260000D02*
X89662000Y-48260000D01*
X86360000Y-49784000D02*
X87884000Y-48260000D01*
X89662000Y-48260000D02*
X90170000Y-47752000D01*
X86360000Y-55251355D02*
X86360000Y-49784000D01*
X90170000Y-46418500D02*
X90741500Y-45847000D01*
X86869991Y-55761346D02*
X86360000Y-55251355D01*
X85852000Y-57658000D02*
X86995000Y-58801000D01*
X85852000Y-49537001D02*
X85852000Y-57658000D01*
X87630000Y-47759001D02*
X85852000Y-49537001D01*
X87630000Y-46721998D02*
X87630000Y-47759001D01*
X90170000Y-45847000D02*
X88504998Y-45847000D01*
X88504998Y-45847000D02*
X87630000Y-46721998D01*
X91440000Y-44577000D02*
X90170000Y-45847000D01*
X85234999Y-46210001D02*
X85234999Y-58115964D01*
X85234999Y-58115964D02*
X85920035Y-58801000D01*
X85598000Y-45847000D02*
X85234999Y-46210001D01*
X87630000Y-45847000D02*
X85598000Y-45847000D01*
X88900000Y-44577000D02*
X87630000Y-45847000D01*
D22*
X81724500Y-71564500D02*
X81724500Y-73342506D01*
X81724500Y-73342506D02*
X81661006Y-73406000D01*
X113791999Y-71500999D02*
X113665000Y-71500999D01*
X116979806Y-74688806D02*
X113791999Y-71500999D01*
X116979806Y-74719501D02*
X116979806Y-74688806D01*
D19*
X68351198Y-75803291D02*
X68351198Y-75887245D01*
X68351198Y-76606198D02*
X68351198Y-75803291D01*
X70410002Y-79686998D02*
X70410002Y-78665002D01*
X70059002Y-80037998D02*
X70410002Y-79686998D01*
X69369998Y-80037998D02*
X70059002Y-80037998D01*
X70410002Y-78665002D02*
X68351198Y-76606198D01*
X68072000Y-78740000D02*
X69369998Y-80037998D01*
X64897000Y-78740000D02*
X68072000Y-78740000D01*
X64516000Y-79121000D02*
X64897000Y-78740000D01*
X64516000Y-80264000D02*
X64516000Y-79121000D01*
X101346000Y-77978000D02*
X101346000Y-78105000D01*
X101600000Y-78105000D02*
X101346000Y-78105000D01*
X103378000Y-76073000D02*
X101346000Y-78105000D01*
X103632000Y-75819000D02*
X103378000Y-76073000D01*
X104394000Y-75819000D02*
X103632000Y-75819000D01*
X116078000Y-59690000D02*
X116078000Y-58420000D01*
X114778011Y-60989989D02*
X116078000Y-59690000D01*
X100232989Y-60989989D02*
X100935011Y-60989989D01*
X98933000Y-59690000D02*
X100232989Y-60989989D01*
X100935011Y-60989989D02*
X114778011Y-60989989D01*
X93609980Y-63635020D02*
X93324121Y-63635020D01*
X94350685Y-62894315D02*
X93609980Y-63635020D01*
X105410000Y-62894315D02*
X94350685Y-62894315D01*
X93091000Y-64516000D02*
X92075000Y-63500000D01*
X94107000Y-64516000D02*
X93091000Y-64516000D01*
X95015537Y-63607463D02*
X94107000Y-64516000D01*
X106572537Y-63607463D02*
X95015537Y-63607463D01*
X65913000Y-59309000D02*
X65786002Y-59309000D01*
X67075011Y-60471011D02*
X65913000Y-59309000D01*
X73171011Y-60471011D02*
X67075011Y-60471011D01*
X92456000Y-79756000D02*
X73171011Y-60471011D01*
X105490446Y-79756000D02*
X92456000Y-79756000D01*
X105972762Y-79273684D02*
X105490446Y-79756000D01*
X66548000Y-58674000D02*
X66548000Y-58547000D01*
X67945000Y-60071000D02*
X66548000Y-58674000D01*
X79887004Y-60960000D02*
X78998004Y-60071000D01*
X78998004Y-60071000D02*
X67945000Y-60071000D01*
X92883452Y-60960000D02*
X79887004Y-60960000D01*
X93416155Y-60427297D02*
X92883452Y-60960000D01*
X68707000Y-78232000D02*
X69735001Y-79260001D01*
X61214000Y-78232000D02*
X68707000Y-78232000D01*
X60090011Y-77108011D02*
X61214000Y-78232000D01*
X69735001Y-79260001D02*
X69735001Y-79362997D01*
X60090011Y-67261274D02*
X60090011Y-77108011D01*
X57158440Y-64329703D02*
X60090011Y-67261274D01*
X57158440Y-64134967D02*
X57158440Y-64329703D01*
D23*
X85083000Y-44702774D02*
X85132074Y-44949487D01*
X85228337Y-45181886D01*
X85344922Y-45356368D01*
X85289842Y-45385809D01*
X85205789Y-45454789D01*
X85188499Y-45475857D01*
X84863856Y-45800500D01*
X84842788Y-45817790D01*
X84773808Y-45901843D01*
X84722551Y-45997739D01*
X84690987Y-46101791D01*
X84682999Y-46182892D01*
X84680329Y-46210001D01*
X84682999Y-46237107D01*
X84683000Y-58088848D01*
X84680329Y-58115964D01*
X84690988Y-58224174D01*
X84722551Y-58328226D01*
X84773808Y-58424121D01*
X84773809Y-58424122D01*
X84842789Y-58508175D01*
X84863850Y-58525460D01*
X85093035Y-58754645D01*
X85093035Y-58882452D01*
X85124817Y-59042227D01*
X85187158Y-59192731D01*
X85277663Y-59328181D01*
X85392854Y-59443372D01*
X85528304Y-59533877D01*
X85678808Y-59596218D01*
X85838583Y-59628000D01*
X86001487Y-59628000D01*
X86161262Y-59596218D01*
X86311766Y-59533877D01*
X86447216Y-59443372D01*
X86457518Y-59433071D01*
X86467819Y-59443372D01*
X86603269Y-59533877D01*
X86753773Y-59596218D01*
X86913548Y-59628000D01*
X87076452Y-59628000D01*
X87236227Y-59596218D01*
X87386731Y-59533877D01*
X87522181Y-59443372D01*
X87637372Y-59328181D01*
X87727877Y-59192731D01*
X87790218Y-59042227D01*
X87822000Y-58882452D01*
X87822000Y-58719548D01*
X87790218Y-58559773D01*
X87727877Y-58409269D01*
X87637372Y-58273819D01*
X87522181Y-58158628D01*
X87386731Y-58068123D01*
X87236227Y-58005782D01*
X87076452Y-57974000D01*
X86948645Y-57974000D01*
X86404000Y-57429356D01*
X86404000Y-56444604D01*
X86478260Y-56494223D01*
X86628764Y-56556564D01*
X86788539Y-56588346D01*
X86951443Y-56588346D01*
X87111218Y-56556564D01*
X87261722Y-56494223D01*
X87397172Y-56403718D01*
X87512363Y-56288527D01*
X87602868Y-56153077D01*
X87665209Y-56002573D01*
X87696991Y-55842798D01*
X87696991Y-55679894D01*
X87665209Y-55520119D01*
X87602868Y-55369615D01*
X87512363Y-55234165D01*
X87397172Y-55118974D01*
X87261722Y-55028469D01*
X87111218Y-54966128D01*
X86951443Y-54934346D01*
X86912000Y-54934346D01*
X86912000Y-50012644D01*
X88112646Y-48812000D01*
X89634894Y-48812000D01*
X89662000Y-48814670D01*
X89689106Y-48812000D01*
X89689109Y-48812000D01*
X89770211Y-48804012D01*
X89874263Y-48772448D01*
X89970158Y-48721191D01*
X90054211Y-48652211D01*
X90071500Y-48631144D01*
X90541154Y-48161492D01*
X90562211Y-48144211D01*
X90606858Y-48089809D01*
X90625960Y-48108911D01*
X90835114Y-48248663D01*
X90888001Y-48270569D01*
X90888001Y-48867884D01*
X90885330Y-48895000D01*
X90895989Y-49003210D01*
X90927552Y-49107262D01*
X90959905Y-49167790D01*
X90978810Y-49203158D01*
X91047790Y-49287211D01*
X91068852Y-49304496D01*
X98233000Y-56468646D01*
X98233000Y-56596452D01*
X98264782Y-56756227D01*
X98327123Y-56906731D01*
X98417628Y-57042181D01*
X98532819Y-57157372D01*
X98668269Y-57247877D01*
X98818773Y-57310218D01*
X98978548Y-57342000D01*
X99141452Y-57342000D01*
X99301227Y-57310218D01*
X99451731Y-57247877D01*
X99587181Y-57157372D01*
X99702372Y-57042181D01*
X99792877Y-56906731D01*
X99855218Y-56756227D01*
X99887000Y-56596452D01*
X99887000Y-56433548D01*
X99855218Y-56273773D01*
X99792877Y-56123269D01*
X99702372Y-55987819D01*
X99587181Y-55872628D01*
X99451731Y-55782123D01*
X99301227Y-55719782D01*
X99141452Y-55688000D01*
X99013646Y-55688000D01*
X91992000Y-48666356D01*
X91992000Y-48270569D01*
X92044886Y-48248663D01*
X92254040Y-48108911D01*
X92431911Y-47931040D01*
X92571663Y-47721886D01*
X92667926Y-47489487D01*
X92710000Y-47277966D01*
X92752074Y-47489487D01*
X92848337Y-47721886D01*
X92988089Y-47931040D01*
X93165960Y-48108911D01*
X93375114Y-48248663D01*
X93607513Y-48344926D01*
X93854226Y-48394000D01*
X94105774Y-48394000D01*
X94352487Y-48344926D01*
X94584886Y-48248663D01*
X94794040Y-48108911D01*
X94971911Y-47931040D01*
X95111663Y-47721886D01*
X95207926Y-47489487D01*
X95250000Y-47277966D01*
X95292074Y-47489487D01*
X95388337Y-47721886D01*
X95528089Y-47931040D01*
X95705960Y-48108911D01*
X95915114Y-48248663D01*
X96147513Y-48344926D01*
X96394226Y-48394000D01*
X96645774Y-48394000D01*
X96892487Y-48344926D01*
X97124886Y-48248663D01*
X97334040Y-48108911D01*
X97511911Y-47931040D01*
X97651663Y-47721886D01*
X97747926Y-47489487D01*
X97790000Y-47277966D01*
X97832074Y-47489487D01*
X97928337Y-47721886D01*
X98068089Y-47931040D01*
X98245960Y-48108911D01*
X98455114Y-48248663D01*
X98687513Y-48344926D01*
X98934226Y-48394000D01*
X99185774Y-48394000D01*
X99432487Y-48344926D01*
X99664886Y-48248663D01*
X99874040Y-48108911D01*
X100051911Y-47931040D01*
X100191663Y-47721886D01*
X100287926Y-47489487D01*
X100330000Y-47277966D01*
X100372074Y-47489487D01*
X100468337Y-47721886D01*
X100608089Y-47931040D01*
X100785960Y-48108911D01*
X100995114Y-48248663D01*
X101227513Y-48344926D01*
X101474226Y-48394000D01*
X101725774Y-48394000D01*
X101972487Y-48344926D01*
X102204886Y-48248663D01*
X102414040Y-48108911D01*
X102591911Y-47931040D01*
X102731663Y-47721886D01*
X102827926Y-47489487D01*
X102870000Y-47277966D01*
X102912074Y-47489487D01*
X103008337Y-47721886D01*
X103148089Y-47931040D01*
X103325960Y-48108911D01*
X103535114Y-48248663D01*
X103767513Y-48344926D01*
X104014226Y-48394000D01*
X104265774Y-48394000D01*
X104512487Y-48344926D01*
X104744886Y-48248663D01*
X104954040Y-48108911D01*
X105131911Y-47931040D01*
X105271663Y-47721886D01*
X105367926Y-47489487D01*
X105410000Y-47277966D01*
X105452074Y-47489487D01*
X105548337Y-47721886D01*
X105688089Y-47931040D01*
X105865960Y-48108911D01*
X106075114Y-48248663D01*
X106307513Y-48344926D01*
X106554226Y-48394000D01*
X106805774Y-48394000D01*
X107052487Y-48344926D01*
X107284886Y-48248663D01*
X107494040Y-48108911D01*
X107671911Y-47931040D01*
X107811663Y-47721886D01*
X107907926Y-47489487D01*
X107950000Y-47277966D01*
X107992074Y-47489487D01*
X108088337Y-47721886D01*
X108228089Y-47931040D01*
X108405960Y-48108911D01*
X108615114Y-48248663D01*
X108847513Y-48344926D01*
X109094226Y-48394000D01*
X109345774Y-48394000D01*
X109592487Y-48344926D01*
X109824886Y-48248663D01*
X110034040Y-48108911D01*
X110211911Y-47931040D01*
X110351663Y-47721886D01*
X110447926Y-47489487D01*
X110490000Y-47277966D01*
X110532074Y-47489487D01*
X110628337Y-47721886D01*
X110768089Y-47931040D01*
X110945960Y-48108911D01*
X111155114Y-48248663D01*
X111387513Y-48344926D01*
X111634226Y-48394000D01*
X111885774Y-48394000D01*
X112132487Y-48344926D01*
X112364886Y-48248663D01*
X112574040Y-48108911D01*
X112751911Y-47931040D01*
X112891663Y-47721886D01*
X112987926Y-47489487D01*
X113030000Y-47277966D01*
X113072074Y-47489487D01*
X113168337Y-47721886D01*
X113308089Y-47931040D01*
X113485960Y-48108911D01*
X113695114Y-48248663D01*
X113927513Y-48344926D01*
X114174226Y-48394000D01*
X114425774Y-48394000D01*
X114672487Y-48344926D01*
X114904886Y-48248663D01*
X115114040Y-48108911D01*
X115291911Y-47931040D01*
X115431663Y-47721886D01*
X115527926Y-47489487D01*
X115560934Y-47323544D01*
X115560934Y-47967000D01*
X115569178Y-48050707D01*
X115593595Y-48131196D01*
X115633245Y-48205376D01*
X115686605Y-48270395D01*
X115751624Y-48323755D01*
X115825804Y-48363405D01*
X115906293Y-48387822D01*
X115990000Y-48396066D01*
X116671000Y-48396066D01*
X116671001Y-51535580D01*
X112364578Y-55842004D01*
X112303699Y-55842004D01*
X112124604Y-55877628D01*
X111955901Y-55947508D01*
X111804072Y-56048956D01*
X111674952Y-56178076D01*
X111573504Y-56329905D01*
X111503624Y-56498608D01*
X111468000Y-56677703D01*
X111468000Y-56860305D01*
X111503624Y-57039400D01*
X111573504Y-57208103D01*
X111674952Y-57359932D01*
X111804072Y-57489052D01*
X111955901Y-57590500D01*
X112124604Y-57660380D01*
X112303699Y-57696004D01*
X112486301Y-57696004D01*
X112665396Y-57660380D01*
X112834099Y-57590500D01*
X112985928Y-57489052D01*
X113115048Y-57359932D01*
X113216496Y-57208103D01*
X113286376Y-57039400D01*
X113322000Y-56860305D01*
X113322000Y-56799426D01*
X117413001Y-52708425D01*
X117413001Y-58568023D01*
X116630000Y-59351024D01*
X116630000Y-59037553D01*
X116720372Y-58947181D01*
X116810877Y-58811731D01*
X116873218Y-58661227D01*
X116905000Y-58501452D01*
X116905000Y-58338548D01*
X116873218Y-58178773D01*
X116810877Y-58028269D01*
X116720372Y-57892819D01*
X116605181Y-57777628D01*
X116469731Y-57687123D01*
X116319227Y-57624782D01*
X116159452Y-57593000D01*
X115996548Y-57593000D01*
X115836773Y-57624782D01*
X115686269Y-57687123D01*
X115550819Y-57777628D01*
X115435628Y-57892819D01*
X115345123Y-58028269D01*
X115282782Y-58178773D01*
X115251000Y-58338548D01*
X115251000Y-58501452D01*
X115282782Y-58661227D01*
X115345123Y-58811731D01*
X115435628Y-58947181D01*
X115526001Y-59037554D01*
X115526000Y-59461354D01*
X114549367Y-60437989D01*
X100461635Y-60437989D01*
X99760000Y-59736355D01*
X99760000Y-59608548D01*
X99728218Y-59448773D01*
X99665877Y-59298269D01*
X99575372Y-59162819D01*
X99460181Y-59047628D01*
X99324731Y-58957123D01*
X99174227Y-58894782D01*
X99014452Y-58863000D01*
X98851548Y-58863000D01*
X98691773Y-58894782D01*
X98541269Y-58957123D01*
X98405819Y-59047628D01*
X98290628Y-59162819D01*
X98200123Y-59298269D01*
X98137782Y-59448773D01*
X98106000Y-59608548D01*
X98106000Y-59771452D01*
X98137782Y-59931227D01*
X98200123Y-60081731D01*
X98290628Y-60217181D01*
X98405819Y-60332372D01*
X98541269Y-60422877D01*
X98691773Y-60485218D01*
X98851548Y-60517000D01*
X98979355Y-60517000D01*
X99300354Y-60837999D01*
X94136356Y-60837999D01*
X94149032Y-60819028D01*
X94211373Y-60668524D01*
X94243155Y-60508749D01*
X94243155Y-60345845D01*
X94211373Y-60186070D01*
X94149032Y-60035566D01*
X94058527Y-59900116D01*
X93943336Y-59784925D01*
X93807886Y-59694420D01*
X93657382Y-59632079D01*
X93497607Y-59600297D01*
X93334703Y-59600297D01*
X93174928Y-59632079D01*
X93024424Y-59694420D01*
X92888974Y-59784925D01*
X92773783Y-59900116D01*
X92683278Y-60035566D01*
X92620937Y-60186070D01*
X92589155Y-60345845D01*
X92589155Y-60408000D01*
X80115650Y-60408000D01*
X79407504Y-59699856D01*
X79390215Y-59678789D01*
X79306162Y-59609809D01*
X79210267Y-59558552D01*
X79106215Y-59526988D01*
X79025113Y-59519000D01*
X79025110Y-59519000D01*
X78998004Y-59516330D01*
X78970898Y-59519000D01*
X68173646Y-59519000D01*
X67359752Y-58705107D01*
X67375000Y-58628452D01*
X67375000Y-58465548D01*
X67343218Y-58305773D01*
X67280877Y-58155269D01*
X67190372Y-58019819D01*
X67075181Y-57904628D01*
X66939731Y-57814123D01*
X66789227Y-57751782D01*
X66629452Y-57720000D01*
X66466548Y-57720000D01*
X66306773Y-57751782D01*
X66156269Y-57814123D01*
X66020819Y-57904628D01*
X65905628Y-58019819D01*
X65815123Y-58155269D01*
X65752782Y-58305773D01*
X65721000Y-58465548D01*
X65721000Y-58482000D01*
X65704550Y-58482000D01*
X65544775Y-58513782D01*
X65394271Y-58576123D01*
X65258821Y-58666628D01*
X65143630Y-58781819D01*
X65053125Y-58917269D01*
X64990784Y-59067773D01*
X64973033Y-59157010D01*
X64922671Y-59157010D01*
X64762896Y-59188792D01*
X64612392Y-59251133D01*
X64476942Y-59341638D01*
X64361751Y-59456829D01*
X64271246Y-59592279D01*
X64208905Y-59742783D01*
X64177123Y-59902558D01*
X64177123Y-60065462D01*
X64208905Y-60225237D01*
X64271246Y-60375741D01*
X64361751Y-60511191D01*
X64476942Y-60626382D01*
X64612392Y-60716887D01*
X64762896Y-60779228D01*
X64922671Y-60811010D01*
X65085575Y-60811010D01*
X65106252Y-60806897D01*
X65554307Y-61254953D01*
X65571589Y-61276011D01*
X65655642Y-61344991D01*
X65751537Y-61396248D01*
X65855589Y-61427812D01*
X65936691Y-61435800D01*
X65936701Y-61435800D01*
X65963799Y-61438469D01*
X65990897Y-61435800D01*
X72720156Y-61435800D01*
X74852855Y-63568499D01*
X74818198Y-63568499D01*
X74773304Y-63577429D01*
X74727776Y-63581913D01*
X74683996Y-63595193D01*
X74639103Y-63604123D01*
X74596820Y-63621638D01*
X74553036Y-63634919D01*
X74553034Y-63634920D01*
X74512678Y-63656491D01*
X74470400Y-63674003D01*
X74432351Y-63699426D01*
X74391993Y-63720998D01*
X74356621Y-63750027D01*
X74318571Y-63775451D01*
X74286207Y-63807815D01*
X74250840Y-63836840D01*
X74221815Y-63872207D01*
X73493074Y-64600949D01*
X73493071Y-64600951D01*
X73363951Y-64730071D01*
X73338523Y-64768126D01*
X73309498Y-64803494D01*
X73287928Y-64843848D01*
X73262503Y-64881900D01*
X73244990Y-64924180D01*
X73223419Y-64964536D01*
X73210138Y-65008320D01*
X73192623Y-65050603D01*
X73183693Y-65095496D01*
X73170413Y-65139276D01*
X73165929Y-65184804D01*
X73156999Y-65229698D01*
X73156999Y-65275472D01*
X73152515Y-65320999D01*
X73156999Y-65366526D01*
X73156999Y-65412300D01*
X73165929Y-65457194D01*
X73170413Y-65502722D01*
X73183693Y-65546502D01*
X73192623Y-65591395D01*
X73210138Y-65633678D01*
X73223419Y-65677462D01*
X73244990Y-65717818D01*
X73262503Y-65760098D01*
X73287928Y-65798150D01*
X73309498Y-65838504D01*
X73338523Y-65873872D01*
X73363951Y-65911927D01*
X73396315Y-65944291D01*
X73425340Y-65979658D01*
X73460707Y-66008683D01*
X73493071Y-66041047D01*
X73531126Y-66066475D01*
X73566494Y-66095500D01*
X73606848Y-66117070D01*
X73644900Y-66142495D01*
X73687180Y-66160008D01*
X73727536Y-66181579D01*
X73771320Y-66194860D01*
X73813603Y-66212375D01*
X73858496Y-66221305D01*
X73902276Y-66234585D01*
X73947804Y-66239069D01*
X73992698Y-66247999D01*
X74038472Y-66247999D01*
X74083999Y-66252483D01*
X74129526Y-66247999D01*
X74175300Y-66247999D01*
X74220194Y-66239069D01*
X74265722Y-66234585D01*
X74309502Y-66221305D01*
X74354395Y-66212375D01*
X74396678Y-66194860D01*
X74440462Y-66181579D01*
X74480818Y-66160008D01*
X74523098Y-66142495D01*
X74561150Y-66117070D01*
X74601504Y-66095500D01*
X74636872Y-66066475D01*
X74674927Y-66041047D01*
X74804047Y-65911927D01*
X74804049Y-65911924D01*
X74909499Y-65806474D01*
X79337000Y-70233976D01*
X79337001Y-75011463D01*
X79332516Y-75057000D01*
X79337001Y-75102537D01*
X79337001Y-75102538D01*
X79350414Y-75238724D01*
X79359451Y-75268515D01*
X79403420Y-75413463D01*
X79489499Y-75574505D01*
X79576312Y-75680287D01*
X79576317Y-75680292D01*
X79605342Y-75715659D01*
X79640708Y-75744683D01*
X81636010Y-77739986D01*
X81636011Y-79283694D01*
X81636010Y-79283699D01*
X81636010Y-79329473D01*
X81631526Y-79375000D01*
X81636010Y-79420527D01*
X81636010Y-79466301D01*
X81644940Y-79511194D01*
X81649424Y-79556724D01*
X81662704Y-79600503D01*
X81671634Y-79645396D01*
X81689149Y-79687679D01*
X81702430Y-79731463D01*
X81724001Y-79771819D01*
X81741514Y-79814099D01*
X81766939Y-79852151D01*
X81788509Y-79892505D01*
X81817534Y-79927873D01*
X81842962Y-79965928D01*
X81875332Y-79998298D01*
X81904352Y-80033659D01*
X81939713Y-80062679D01*
X81972082Y-80095048D01*
X81972085Y-80095050D01*
X83401000Y-81523966D01*
X83401001Y-85760694D01*
X83401000Y-85760699D01*
X83401000Y-85943301D01*
X83401001Y-85943306D01*
X83401000Y-88046697D01*
X83401000Y-88229299D01*
X83401001Y-88229304D01*
X83401000Y-94010475D01*
X83396516Y-94056002D01*
X83401000Y-94101529D01*
X83401000Y-94101539D01*
X83414413Y-94237725D01*
X83460406Y-94389342D01*
X83467420Y-94412465D01*
X83553499Y-94573507D01*
X83606013Y-94637495D01*
X83669341Y-94714661D01*
X83704713Y-94743690D01*
X84689022Y-95728000D01*
X81922000Y-95728000D01*
X81922000Y-95632226D01*
X81872926Y-95385513D01*
X81851019Y-95332626D01*
X82286154Y-94897492D01*
X82307211Y-94880211D01*
X82335426Y-94845831D01*
X82376191Y-94796159D01*
X82408375Y-94735946D01*
X82427448Y-94700263D01*
X82459012Y-94596211D01*
X82467000Y-94515109D01*
X82467000Y-94515099D01*
X82469669Y-94488001D01*
X82467000Y-94460903D01*
X82467000Y-92483108D01*
X82469670Y-92456000D01*
X82459012Y-92347789D01*
X82427448Y-92243737D01*
X82376191Y-92147842D01*
X82324492Y-92084846D01*
X82324491Y-92084845D01*
X82307211Y-92063789D01*
X82286154Y-92046508D01*
X80816000Y-90576356D01*
X80816000Y-81266404D01*
X80818670Y-81239296D01*
X80808012Y-81131085D01*
X80776448Y-81027033D01*
X80725191Y-80931138D01*
X80673492Y-80868142D01*
X80673491Y-80868141D01*
X80656211Y-80847085D01*
X80635154Y-80829804D01*
X74487671Y-74682323D01*
X74470381Y-74661255D01*
X74386328Y-74592275D01*
X74290433Y-74541018D01*
X74186381Y-74509454D01*
X74105279Y-74501466D01*
X74105276Y-74501466D01*
X74078170Y-74498796D01*
X74051064Y-74501466D01*
X72293640Y-74501466D01*
X72266534Y-74498796D01*
X72239428Y-74501466D01*
X72239425Y-74501466D01*
X72158323Y-74509454D01*
X72054271Y-74541018D01*
X71958376Y-74592275D01*
X71874323Y-74661255D01*
X71857038Y-74682317D01*
X71166356Y-75373000D01*
X71038548Y-75373000D01*
X70878773Y-75404782D01*
X70728269Y-75467123D01*
X70592819Y-75557628D01*
X70477628Y-75672819D01*
X70387123Y-75808269D01*
X70324782Y-75958773D01*
X70293000Y-76118548D01*
X70293000Y-76281452D01*
X70324782Y-76441227D01*
X70387123Y-76591731D01*
X70477628Y-76727181D01*
X70592819Y-76842372D01*
X70728269Y-76932877D01*
X70878773Y-76995218D01*
X71038548Y-77027000D01*
X71201452Y-77027000D01*
X71361227Y-76995218D01*
X71511731Y-76932877D01*
X71647181Y-76842372D01*
X71723616Y-76765937D01*
X71843269Y-76845887D01*
X71993773Y-76908228D01*
X72153548Y-76940010D01*
X72316452Y-76940010D01*
X72476227Y-76908228D01*
X72626731Y-76845887D01*
X72658868Y-76824414D01*
X72661674Y-76852906D01*
X72693238Y-76956958D01*
X72744495Y-77052854D01*
X72813475Y-77136907D01*
X72834542Y-77154196D01*
X73434503Y-77754158D01*
X73451788Y-77775220D01*
X73535841Y-77844200D01*
X73631736Y-77895457D01*
X73735788Y-77927021D01*
X73816890Y-77935009D01*
X73816893Y-77935009D01*
X73843999Y-77937679D01*
X73871105Y-77935009D01*
X74360365Y-77935009D01*
X78442001Y-82016646D01*
X78442000Y-91983015D01*
X78230774Y-91941000D01*
X77979226Y-91941000D01*
X77732513Y-91990074D01*
X77500114Y-92086337D01*
X77432013Y-92131841D01*
X77432013Y-83130110D01*
X77434682Y-83103012D01*
X77432013Y-83075914D01*
X77432013Y-83075904D01*
X77424025Y-82994802D01*
X77392461Y-82890750D01*
X77368601Y-82846111D01*
X77341204Y-82794854D01*
X77289504Y-82731858D01*
X77272224Y-82710802D01*
X77251167Y-82693521D01*
X74831500Y-80273856D01*
X74814211Y-80252789D01*
X74730158Y-80183809D01*
X74634263Y-80132552D01*
X74530211Y-80100988D01*
X74449109Y-80093000D01*
X74449106Y-80093000D01*
X74422000Y-80090330D01*
X74394894Y-80093000D01*
X73642553Y-80093000D01*
X73552181Y-80002628D01*
X73416731Y-79912123D01*
X73266227Y-79849782D01*
X73106452Y-79818000D01*
X72943548Y-79818000D01*
X72783773Y-79849782D01*
X72633269Y-79912123D01*
X72497819Y-80002628D01*
X72382628Y-80117819D01*
X72292123Y-80253269D01*
X72229782Y-80403773D01*
X72198000Y-80563548D01*
X72198000Y-80726452D01*
X72229782Y-80886227D01*
X72292123Y-81036731D01*
X72382628Y-81172181D01*
X72497819Y-81287372D01*
X72633269Y-81377877D01*
X72783773Y-81440218D01*
X72943548Y-81472000D01*
X73106452Y-81472000D01*
X73266227Y-81440218D01*
X73416731Y-81377877D01*
X73552181Y-81287372D01*
X73642553Y-81197000D01*
X74193356Y-81197000D01*
X75426105Y-82429750D01*
X65184303Y-82429750D01*
X65093931Y-82339378D01*
X64958481Y-82248873D01*
X64807977Y-82186532D01*
X64648202Y-82154750D01*
X64485298Y-82154750D01*
X64325523Y-82186532D01*
X64175019Y-82248873D01*
X64039569Y-82339378D01*
X63924378Y-82454569D01*
X63833873Y-82590019D01*
X63771532Y-82740523D01*
X63739750Y-82900298D01*
X63739750Y-83063202D01*
X63771532Y-83222977D01*
X63833873Y-83373481D01*
X63924378Y-83508931D01*
X64039569Y-83624122D01*
X64175019Y-83714627D01*
X64325523Y-83776968D01*
X64485298Y-83808750D01*
X64648202Y-83808750D01*
X64807977Y-83776968D01*
X64958481Y-83714627D01*
X65093931Y-83624122D01*
X65184303Y-83533750D01*
X75641105Y-83533750D01*
X75902000Y-83794645D01*
X75902001Y-91983015D01*
X75690774Y-91941000D01*
X75439226Y-91941000D01*
X75192513Y-91990074D01*
X74960114Y-92086337D01*
X74750960Y-92226089D01*
X74573089Y-92403960D01*
X74433337Y-92613114D01*
X74337074Y-92845513D01*
X74295000Y-93057034D01*
X74252926Y-92845513D01*
X74156663Y-92613114D01*
X74016911Y-92403960D01*
X73839040Y-92226089D01*
X73629886Y-92086337D01*
X73397487Y-91990074D01*
X73150774Y-91941000D01*
X72899226Y-91941000D01*
X72652513Y-91990074D01*
X72420114Y-92086337D01*
X72210960Y-92226089D01*
X72033089Y-92403960D01*
X71893337Y-92613114D01*
X71797074Y-92845513D01*
X71755000Y-93057034D01*
X71712926Y-92845513D01*
X71616663Y-92613114D01*
X71476911Y-92403960D01*
X71299040Y-92226089D01*
X71089886Y-92086337D01*
X70857487Y-91990074D01*
X70610774Y-91941000D01*
X70359226Y-91941000D01*
X70112513Y-91990074D01*
X69880114Y-92086337D01*
X69670960Y-92226089D01*
X69493089Y-92403960D01*
X69353337Y-92613114D01*
X69257074Y-92845513D01*
X69215000Y-93057034D01*
X69172926Y-92845513D01*
X69076663Y-92613114D01*
X68936911Y-92403960D01*
X68759040Y-92226089D01*
X68549886Y-92086337D01*
X68317487Y-91990074D01*
X68070774Y-91941000D01*
X67819226Y-91941000D01*
X67572513Y-91990074D01*
X67340114Y-92086337D01*
X67130960Y-92226089D01*
X66953089Y-92403960D01*
X66813337Y-92613114D01*
X66717074Y-92845513D01*
X66675000Y-93057034D01*
X66632926Y-92845513D01*
X66536663Y-92613114D01*
X66396911Y-92403960D01*
X66219040Y-92226089D01*
X66009886Y-92086337D01*
X65777487Y-91990074D01*
X65530774Y-91941000D01*
X65279226Y-91941000D01*
X65032513Y-91990074D01*
X64800114Y-92086337D01*
X64590960Y-92226089D01*
X64413089Y-92403960D01*
X64273337Y-92613114D01*
X64177074Y-92845513D01*
X64135000Y-93057034D01*
X64092926Y-92845513D01*
X63996663Y-92613114D01*
X63856911Y-92403960D01*
X63679040Y-92226089D01*
X63469886Y-92086337D01*
X63237487Y-91990074D01*
X62990774Y-91941000D01*
X62739226Y-91941000D01*
X62492513Y-91990074D01*
X62260114Y-92086337D01*
X62050960Y-92226089D01*
X61873089Y-92403960D01*
X61733337Y-92613114D01*
X61637074Y-92845513D01*
X61595000Y-93057034D01*
X61552926Y-92845513D01*
X61456663Y-92613114D01*
X61316911Y-92403960D01*
X61139040Y-92226089D01*
X60929886Y-92086337D01*
X60697487Y-91990074D01*
X60450774Y-91941000D01*
X60199226Y-91941000D01*
X59952513Y-91990074D01*
X59720114Y-92086337D01*
X59510960Y-92226089D01*
X59333089Y-92403960D01*
X59193337Y-92613114D01*
X59097074Y-92845513D01*
X59055000Y-93057034D01*
X59012926Y-92845513D01*
X58916663Y-92613114D01*
X58776911Y-92403960D01*
X58599040Y-92226089D01*
X58389886Y-92086337D01*
X58157487Y-91990074D01*
X57910774Y-91941000D01*
X57659226Y-91941000D01*
X57412513Y-91990074D01*
X57180114Y-92086337D01*
X56970960Y-92226089D01*
X56793089Y-92403960D01*
X56653337Y-92613114D01*
X56557074Y-92845513D01*
X56515000Y-93057034D01*
X56472926Y-92845513D01*
X56376663Y-92613114D01*
X56236911Y-92403960D01*
X56059040Y-92226089D01*
X55849886Y-92086337D01*
X55617487Y-91990074D01*
X55370774Y-91941000D01*
X55119226Y-91941000D01*
X54872513Y-91990074D01*
X54640114Y-92086337D01*
X54430960Y-92226089D01*
X54253089Y-92403960D01*
X54113337Y-92613114D01*
X54017074Y-92845513D01*
X53975000Y-93057034D01*
X53932926Y-92845513D01*
X53836663Y-92613114D01*
X53696911Y-92403960D01*
X53519040Y-92226089D01*
X53309886Y-92086337D01*
X53077487Y-91990074D01*
X52830774Y-91941000D01*
X52579226Y-91941000D01*
X52332513Y-91990074D01*
X52100114Y-92086337D01*
X51890960Y-92226089D01*
X51713089Y-92403960D01*
X51573337Y-92613114D01*
X51477074Y-92845513D01*
X51444066Y-93011456D01*
X51444066Y-92368000D01*
X51435822Y-92284293D01*
X51411405Y-92203804D01*
X51371755Y-92129624D01*
X51318395Y-92064605D01*
X51253376Y-92011245D01*
X51179196Y-91971595D01*
X51098707Y-91947178D01*
X51015000Y-91938934D01*
X49504500Y-91938934D01*
X49504500Y-88557000D01*
X50416025Y-88557000D01*
X51349952Y-89490928D01*
X51479072Y-89620048D01*
X51517122Y-89645472D01*
X51552494Y-89674501D01*
X51592852Y-89696073D01*
X51630901Y-89721496D01*
X51673179Y-89739008D01*
X51713535Y-89760579D01*
X51757319Y-89773861D01*
X51799604Y-89791376D01*
X51844496Y-89800306D01*
X51888276Y-89813586D01*
X51933806Y-89818070D01*
X51978699Y-89827000D01*
X52024472Y-89827000D01*
X52069999Y-89831484D01*
X52115526Y-89827000D01*
X52161301Y-89827000D01*
X52206195Y-89818070D01*
X52251723Y-89813586D01*
X52295500Y-89800306D01*
X52340396Y-89791376D01*
X52382686Y-89773859D01*
X52426463Y-89760579D01*
X52466813Y-89739012D01*
X52509099Y-89721496D01*
X52547153Y-89696070D01*
X52587505Y-89674501D01*
X52622873Y-89645476D01*
X52660928Y-89620048D01*
X52693292Y-89587684D01*
X52728659Y-89558659D01*
X52757684Y-89523292D01*
X52790048Y-89490928D01*
X52815476Y-89452873D01*
X52844501Y-89417505D01*
X52866070Y-89377153D01*
X52891496Y-89339099D01*
X52909012Y-89296813D01*
X52930579Y-89256463D01*
X52943859Y-89212686D01*
X52961376Y-89170396D01*
X52970306Y-89125500D01*
X52983586Y-89081723D01*
X52988070Y-89036195D01*
X52997000Y-88991301D01*
X52997000Y-88945526D01*
X53001484Y-88899999D01*
X52997000Y-88854472D01*
X52997000Y-88808699D01*
X52988070Y-88763806D01*
X52983586Y-88718276D01*
X52970306Y-88674496D01*
X52961376Y-88629604D01*
X52943861Y-88587319D01*
X52930579Y-88543535D01*
X52909008Y-88503179D01*
X52891496Y-88460901D01*
X52866073Y-88422852D01*
X52844501Y-88382494D01*
X52815472Y-88347122D01*
X52790048Y-88309072D01*
X52660928Y-88179952D01*
X51520050Y-87039075D01*
X51520048Y-87039072D01*
X51487684Y-87006708D01*
X51458659Y-86971341D01*
X51423292Y-86942316D01*
X51390928Y-86909952D01*
X51352873Y-86884524D01*
X51317505Y-86855499D01*
X51277150Y-86833928D01*
X51239099Y-86808504D01*
X51196823Y-86790992D01*
X51156464Y-86769420D01*
X51112674Y-86756137D01*
X51070396Y-86738624D01*
X51025513Y-86729696D01*
X50981724Y-86716413D01*
X50936184Y-86711928D01*
X50891301Y-86703000D01*
X50845527Y-86703000D01*
X50800000Y-86698516D01*
X50754473Y-86703000D01*
X49282250Y-86703000D01*
X49265188Y-86682210D01*
X49265184Y-86682206D01*
X49236159Y-86646839D01*
X49200794Y-86617816D01*
X44742000Y-82159023D01*
X44742000Y-78533182D01*
X45043391Y-78331799D01*
X45311799Y-78063391D01*
X45522685Y-77747777D01*
X45667947Y-77397085D01*
X45742000Y-77024793D01*
X45742000Y-76645207D01*
X45667947Y-76272915D01*
X45522685Y-75922223D01*
X45475047Y-75850928D01*
X50802976Y-70523000D01*
X51897462Y-70523000D01*
X51943000Y-70527485D01*
X51988537Y-70523000D01*
X52034301Y-70523000D01*
X52079184Y-70514072D01*
X52124724Y-70509587D01*
X52168513Y-70496304D01*
X52213396Y-70487376D01*
X52255674Y-70469863D01*
X52299464Y-70456580D01*
X52339823Y-70435008D01*
X52382099Y-70417496D01*
X52420150Y-70392072D01*
X52460505Y-70370501D01*
X52495873Y-70341476D01*
X52533928Y-70316048D01*
X52566292Y-70283684D01*
X52601659Y-70254659D01*
X52630684Y-70219292D01*
X52663048Y-70186928D01*
X52688476Y-70148873D01*
X52717501Y-70113505D01*
X52739072Y-70073150D01*
X52764496Y-70035099D01*
X52782008Y-69992823D01*
X52803580Y-69952464D01*
X52816863Y-69908674D01*
X52834376Y-69866396D01*
X52843304Y-69821513D01*
X52856587Y-69777724D01*
X52861072Y-69732184D01*
X52870000Y-69687301D01*
X52870000Y-69641537D01*
X52874485Y-69596000D01*
X52870000Y-69550462D01*
X52870000Y-68244538D01*
X52874485Y-68199000D01*
X52870000Y-68153462D01*
X52870000Y-68107699D01*
X52861072Y-68062816D01*
X52856587Y-68017276D01*
X52843304Y-67973487D01*
X52834376Y-67928604D01*
X52816863Y-67886326D01*
X52803580Y-67842536D01*
X52782008Y-67802177D01*
X52764496Y-67759901D01*
X52739072Y-67721850D01*
X52717501Y-67681495D01*
X52688476Y-67646127D01*
X52663048Y-67608072D01*
X52630684Y-67575708D01*
X52601659Y-67540341D01*
X52566292Y-67511316D01*
X52533928Y-67478952D01*
X52495873Y-67453524D01*
X52460505Y-67424499D01*
X52420150Y-67402928D01*
X52382099Y-67377504D01*
X52339823Y-67359992D01*
X52299464Y-67338420D01*
X52255674Y-67325137D01*
X52213396Y-67307624D01*
X52168513Y-67298696D01*
X52124724Y-67285413D01*
X52079184Y-67280928D01*
X52034301Y-67272000D01*
X51988538Y-67272000D01*
X51943000Y-67267515D01*
X51897463Y-67272000D01*
X51346236Y-67272000D01*
X51373000Y-67137452D01*
X51373000Y-66974548D01*
X51341218Y-66814773D01*
X51278877Y-66664269D01*
X51188372Y-66528819D01*
X51098000Y-66438447D01*
X51098000Y-66357011D01*
X53039883Y-66357011D01*
X53066989Y-66359681D01*
X53094095Y-66357011D01*
X53094098Y-66357011D01*
X53175200Y-66349023D01*
X53279252Y-66317459D01*
X53375147Y-66266202D01*
X53459200Y-66197222D01*
X53476490Y-66176154D01*
X55140911Y-64511734D01*
X55147123Y-64526731D01*
X55237628Y-64662181D01*
X55328001Y-64752554D01*
X55328000Y-85824894D01*
X55325330Y-85852000D01*
X55328000Y-85879106D01*
X55328000Y-85879108D01*
X55335988Y-85960210D01*
X55367552Y-86064262D01*
X55418809Y-86160158D01*
X55487789Y-86244211D01*
X55508856Y-86261500D01*
X56503508Y-87256154D01*
X56520789Y-87277211D01*
X56541845Y-87294491D01*
X56541846Y-87294492D01*
X56604842Y-87346191D01*
X56700737Y-87397448D01*
X56804789Y-87429012D01*
X56913000Y-87439670D01*
X56940108Y-87437000D01*
X57846076Y-87437000D01*
X57901269Y-87473879D01*
X58051773Y-87536220D01*
X58211548Y-87568002D01*
X58374452Y-87568002D01*
X58534227Y-87536220D01*
X58684731Y-87473879D01*
X58820181Y-87383374D01*
X58935372Y-87268183D01*
X59025877Y-87132733D01*
X59088218Y-86982229D01*
X59120000Y-86822454D01*
X59120000Y-86659550D01*
X59088218Y-86499775D01*
X59025877Y-86349271D01*
X58935372Y-86213821D01*
X58820181Y-86098630D01*
X58684731Y-86008125D01*
X58534227Y-85945784D01*
X58374452Y-85914002D01*
X58211548Y-85914002D01*
X58051773Y-85945784D01*
X57901269Y-86008125D01*
X57765819Y-86098630D01*
X57650628Y-86213821D01*
X57570995Y-86333000D01*
X57141646Y-86333000D01*
X56432000Y-85623356D01*
X56432000Y-64752553D01*
X56519237Y-64665317D01*
X56631259Y-64777339D01*
X56766709Y-64867844D01*
X56917213Y-64930185D01*
X56993441Y-64945348D01*
X59538011Y-67489920D01*
X59538012Y-77080895D01*
X59535341Y-77108011D01*
X59544982Y-77205887D01*
X59546000Y-77216222D01*
X59551749Y-77235175D01*
X59577563Y-77320273D01*
X59618620Y-77397085D01*
X59628821Y-77416169D01*
X59697801Y-77500222D01*
X59718863Y-77517507D01*
X60804507Y-78603153D01*
X60821789Y-78624211D01*
X60905842Y-78693191D01*
X61001737Y-78744448D01*
X61105789Y-78776012D01*
X61186891Y-78784000D01*
X61186901Y-78784000D01*
X61213999Y-78786669D01*
X61241097Y-78784000D01*
X64078480Y-78784000D01*
X64066326Y-78798810D01*
X64054809Y-78812843D01*
X64003552Y-78908738D01*
X63971989Y-79012790D01*
X63961330Y-79121000D01*
X63964001Y-79148115D01*
X63964001Y-79646446D01*
X63873628Y-79736819D01*
X63783123Y-79872269D01*
X63720782Y-80022773D01*
X63689000Y-80182548D01*
X63689000Y-80345452D01*
X63720782Y-80505227D01*
X63783123Y-80655731D01*
X63873628Y-80791181D01*
X63988819Y-80906372D01*
X64124269Y-80996877D01*
X64274773Y-81059218D01*
X64434548Y-81091000D01*
X64597452Y-81091000D01*
X64757227Y-81059218D01*
X64907731Y-80996877D01*
X65043181Y-80906372D01*
X65158372Y-80791181D01*
X65248877Y-80655731D01*
X65311218Y-80505227D01*
X65343000Y-80345452D01*
X65343000Y-80182548D01*
X65311218Y-80022773D01*
X65248877Y-79872269D01*
X65158372Y-79736819D01*
X65068000Y-79646447D01*
X65068000Y-79349645D01*
X65125645Y-79292000D01*
X67843356Y-79292000D01*
X68960506Y-80409152D01*
X68977787Y-80430209D01*
X68998843Y-80447489D01*
X69061839Y-80499189D01*
X69073136Y-80505227D01*
X69157735Y-80550446D01*
X69261787Y-80582010D01*
X69342889Y-80589998D01*
X69342899Y-80589998D01*
X69369997Y-80592667D01*
X69397095Y-80589998D01*
X70031896Y-80589998D01*
X70059002Y-80592668D01*
X70086108Y-80589998D01*
X70086111Y-80589998D01*
X70167213Y-80582010D01*
X70271265Y-80550446D01*
X70367160Y-80499189D01*
X70451213Y-80430209D01*
X70468503Y-80409141D01*
X70781145Y-80096499D01*
X70802213Y-80079209D01*
X70871193Y-79995156D01*
X70922450Y-79899261D01*
X70954014Y-79795209D01*
X70962002Y-79714107D01*
X70962002Y-79714104D01*
X70964672Y-79686998D01*
X70962002Y-79659892D01*
X70962002Y-78692110D01*
X70964672Y-78665002D01*
X70954014Y-78556791D01*
X70922450Y-78452739D01*
X70871193Y-78356844D01*
X70819494Y-78293848D01*
X70819493Y-78293847D01*
X70802213Y-78272791D01*
X70781156Y-78255510D01*
X68924843Y-76399199D01*
X68993570Y-76330472D01*
X69084075Y-76195022D01*
X69146416Y-76044518D01*
X69178198Y-75884743D01*
X69178198Y-75721839D01*
X69146416Y-75562064D01*
X69084075Y-75411560D01*
X68993570Y-75276110D01*
X68878379Y-75160919D01*
X68742929Y-75070414D01*
X68592425Y-75008073D01*
X68432650Y-74976291D01*
X68269746Y-74976291D01*
X68109971Y-75008073D01*
X67959467Y-75070414D01*
X67824017Y-75160919D01*
X67708826Y-75276110D01*
X67618321Y-75411560D01*
X67555980Y-75562064D01*
X67524198Y-75721839D01*
X67524198Y-75884743D01*
X67555980Y-76044518D01*
X67618321Y-76195022D01*
X67708826Y-76330472D01*
X67799198Y-76420844D01*
X67799198Y-76579092D01*
X67796528Y-76606198D01*
X67799198Y-76633304D01*
X67799198Y-76633306D01*
X67807186Y-76714408D01*
X67838750Y-76818460D01*
X67890007Y-76914356D01*
X67958987Y-76998409D01*
X67980054Y-77015698D01*
X68644355Y-77680000D01*
X61442646Y-77680000D01*
X60642011Y-76879367D01*
X60642011Y-67288371D01*
X60644680Y-67261273D01*
X60642011Y-67234175D01*
X60642011Y-67234165D01*
X60634023Y-67153063D01*
X60602459Y-67049011D01*
X60551202Y-66953116D01*
X60482222Y-66869063D01*
X60461165Y-66851782D01*
X58017334Y-64407953D01*
X58051773Y-64422218D01*
X58211548Y-64454000D01*
X58374452Y-64454000D01*
X58534227Y-64422218D01*
X58684731Y-64359877D01*
X58820181Y-64269372D01*
X58935372Y-64154181D01*
X59025877Y-64018731D01*
X59088218Y-63868227D01*
X59120000Y-63708452D01*
X59120000Y-63545548D01*
X59088218Y-63385773D01*
X59025877Y-63235269D01*
X58935372Y-63099819D01*
X58820181Y-62984628D01*
X58684731Y-62894123D01*
X58534227Y-62831782D01*
X58374452Y-62800000D01*
X58211548Y-62800000D01*
X58105976Y-62821000D01*
X55526106Y-62821000D01*
X55499000Y-62818330D01*
X55471894Y-62821000D01*
X55471891Y-62821000D01*
X55390789Y-62828988D01*
X55286737Y-62860552D01*
X55190842Y-62911809D01*
X55106789Y-62980789D01*
X55089504Y-63001851D01*
X55035000Y-63056355D01*
X55035000Y-61823644D01*
X56099260Y-60759386D01*
X56351321Y-60759386D01*
X56441693Y-60849758D01*
X56577143Y-60940263D01*
X56727647Y-61002604D01*
X56887422Y-61034386D01*
X57050326Y-61034386D01*
X57210101Y-61002604D01*
X57360605Y-60940263D01*
X57496055Y-60849758D01*
X57611246Y-60734567D01*
X57701751Y-60599117D01*
X57764092Y-60448613D01*
X57795874Y-60288838D01*
X57795874Y-60125934D01*
X57764092Y-59966159D01*
X57701751Y-59815655D01*
X57611246Y-59680205D01*
X57496055Y-59565014D01*
X57371152Y-59481556D01*
X58482000Y-59481556D01*
X58482000Y-59644460D01*
X58513782Y-59804235D01*
X58576123Y-59954739D01*
X58666628Y-60090189D01*
X58781819Y-60205380D01*
X58917269Y-60295885D01*
X59067773Y-60358226D01*
X59227548Y-60390008D01*
X59355356Y-60390008D01*
X62186000Y-63220654D01*
X62186001Y-68978446D01*
X62095628Y-69068819D01*
X62005123Y-69204269D01*
X61942782Y-69354773D01*
X61911000Y-69514548D01*
X61911000Y-69677452D01*
X61942782Y-69837227D01*
X62005123Y-69987731D01*
X62095628Y-70123181D01*
X62210819Y-70238372D01*
X62346269Y-70328877D01*
X62496773Y-70391218D01*
X62656548Y-70423000D01*
X62819452Y-70423000D01*
X62979227Y-70391218D01*
X63129731Y-70328877D01*
X63265181Y-70238372D01*
X63380372Y-70123181D01*
X63470877Y-69987731D01*
X63533218Y-69837227D01*
X63565000Y-69677452D01*
X63565000Y-69514548D01*
X63533218Y-69354773D01*
X63470877Y-69204269D01*
X63380372Y-69068819D01*
X63290000Y-68978447D01*
X63290000Y-63019105D01*
X63292669Y-62992007D01*
X63290000Y-62964909D01*
X63290000Y-62964899D01*
X63282012Y-62883797D01*
X63250448Y-62779745D01*
X63214301Y-62712119D01*
X63199191Y-62683849D01*
X63147491Y-62620853D01*
X63130211Y-62599797D01*
X63109154Y-62582516D01*
X60136000Y-59609364D01*
X60136000Y-59481556D01*
X60104218Y-59321781D01*
X60041877Y-59171277D01*
X59951372Y-59035827D01*
X59836181Y-58920636D01*
X59700731Y-58830131D01*
X59550227Y-58767790D01*
X59390452Y-58736008D01*
X59227548Y-58736008D01*
X59067773Y-58767790D01*
X58917269Y-58830131D01*
X58781819Y-58920636D01*
X58666628Y-59035827D01*
X58576123Y-59171277D01*
X58513782Y-59321781D01*
X58482000Y-59481556D01*
X57371152Y-59481556D01*
X57360605Y-59474509D01*
X57210101Y-59412168D01*
X57050326Y-59380386D01*
X56912559Y-59380386D01*
X57013149Y-59279796D01*
X57034211Y-59262511D01*
X57103191Y-59178458D01*
X57154448Y-59082563D01*
X57186012Y-58978511D01*
X57194000Y-58897409D01*
X57194000Y-58897406D01*
X57196670Y-58870300D01*
X57194000Y-58843194D01*
X57194000Y-57593645D01*
X57502507Y-57902153D01*
X57519789Y-57923211D01*
X57603842Y-57992191D01*
X57699737Y-58043448D01*
X57803789Y-58075012D01*
X57808866Y-58075512D01*
X57912000Y-58085670D01*
X57939108Y-58083000D01*
X59553298Y-58083000D01*
X59592123Y-58176731D01*
X59682628Y-58312181D01*
X59797819Y-58427372D01*
X59933269Y-58517877D01*
X60083773Y-58580218D01*
X60243548Y-58612000D01*
X60406452Y-58612000D01*
X60566227Y-58580218D01*
X60716731Y-58517877D01*
X60852181Y-58427372D01*
X60967372Y-58312181D01*
X61057877Y-58176731D01*
X61120218Y-58026227D01*
X61152000Y-57866452D01*
X61152000Y-57703548D01*
X61120218Y-57543773D01*
X61057877Y-57393269D01*
X60967372Y-57257819D01*
X60852181Y-57142628D01*
X60716731Y-57052123D01*
X60566227Y-56989782D01*
X60406452Y-56958000D01*
X60243548Y-56958000D01*
X60124774Y-56981626D01*
X60098109Y-56979000D01*
X60098106Y-56979000D01*
X60071000Y-56976330D01*
X60043894Y-56979000D01*
X58921547Y-56979000D01*
X58961218Y-56883227D01*
X58993000Y-56723452D01*
X58993000Y-56595646D01*
X59045154Y-56543492D01*
X59066211Y-56526211D01*
X59135191Y-56442158D01*
X59186448Y-56346263D01*
X59218012Y-56242211D01*
X59226000Y-56161109D01*
X59226000Y-56161099D01*
X59228669Y-56134001D01*
X59226000Y-56106903D01*
X59226000Y-55798548D01*
X59498000Y-55798548D01*
X59498000Y-55961452D01*
X59529782Y-56121227D01*
X59592123Y-56271731D01*
X59682628Y-56407181D01*
X59797819Y-56522372D01*
X59933269Y-56612877D01*
X60083773Y-56675218D01*
X60243548Y-56707000D01*
X60406452Y-56707000D01*
X60566227Y-56675218D01*
X60716731Y-56612877D01*
X60852181Y-56522372D01*
X60967372Y-56407181D01*
X61057877Y-56271731D01*
X61120218Y-56121227D01*
X61152000Y-55961452D01*
X61152000Y-55833644D01*
X63982646Y-53003000D01*
X73297350Y-53003000D01*
X78142994Y-57848646D01*
X78142994Y-57976452D01*
X78174776Y-58136227D01*
X78237117Y-58286731D01*
X78327622Y-58422181D01*
X78442813Y-58537372D01*
X78578263Y-58627877D01*
X78728767Y-58690218D01*
X78888542Y-58722000D01*
X79051446Y-58722000D01*
X79211221Y-58690218D01*
X79361725Y-58627877D01*
X79497175Y-58537372D01*
X79612366Y-58422181D01*
X79702871Y-58286731D01*
X79765212Y-58136227D01*
X79796994Y-57976452D01*
X79796994Y-57813548D01*
X79765212Y-57653773D01*
X79702871Y-57503269D01*
X79612366Y-57367819D01*
X79497175Y-57252628D01*
X79361725Y-57162123D01*
X79211221Y-57099782D01*
X79051446Y-57068000D01*
X78923640Y-57068000D01*
X73935495Y-52079857D01*
X73918205Y-52058789D01*
X73834152Y-51989809D01*
X73738257Y-51938552D01*
X73634205Y-51906988D01*
X73553103Y-51899000D01*
X73553100Y-51899000D01*
X73525994Y-51896330D01*
X73498888Y-51899000D01*
X63781097Y-51899000D01*
X63753999Y-51896331D01*
X63726901Y-51899000D01*
X63726891Y-51899000D01*
X63645789Y-51906988D01*
X63541737Y-51938552D01*
X63522716Y-51948719D01*
X63445841Y-51989809D01*
X63406221Y-52022325D01*
X63361789Y-52058789D01*
X63344508Y-52079846D01*
X60371356Y-55053000D01*
X60243548Y-55053000D01*
X60083773Y-55084782D01*
X59933269Y-55147123D01*
X59797819Y-55237628D01*
X59682628Y-55352819D01*
X59592123Y-55488269D01*
X59529782Y-55638773D01*
X59498000Y-55798548D01*
X59226000Y-55798548D01*
X59226000Y-50012644D01*
X60172646Y-49066000D01*
X60932894Y-49066000D01*
X60960000Y-49068670D01*
X60987106Y-49066000D01*
X60987109Y-49066000D01*
X61068211Y-49058012D01*
X61172263Y-49026448D01*
X61268158Y-48975191D01*
X61352211Y-48906211D01*
X61369500Y-48885144D01*
X61966154Y-48288492D01*
X61987211Y-48271211D01*
X62056191Y-48187158D01*
X62085632Y-48132078D01*
X62260114Y-48248663D01*
X62492513Y-48344926D01*
X62739226Y-48394000D01*
X62990774Y-48394000D01*
X63237487Y-48344926D01*
X63469886Y-48248663D01*
X63679040Y-48108911D01*
X63856911Y-47931040D01*
X63996663Y-47721886D01*
X64092926Y-47489487D01*
X64135000Y-47277966D01*
X64177074Y-47489487D01*
X64273337Y-47721886D01*
X64413089Y-47931040D01*
X64590960Y-48108911D01*
X64800114Y-48248663D01*
X65032513Y-48344926D01*
X65279226Y-48394000D01*
X65530774Y-48394000D01*
X65777487Y-48344926D01*
X66009886Y-48248663D01*
X66219040Y-48108911D01*
X66396911Y-47931040D01*
X66536663Y-47721886D01*
X66632926Y-47489487D01*
X66675000Y-47277966D01*
X66717074Y-47489487D01*
X66813337Y-47721886D01*
X66953089Y-47931040D01*
X67130960Y-48108911D01*
X67340114Y-48248663D01*
X67572513Y-48344926D01*
X67819226Y-48394000D01*
X68070774Y-48394000D01*
X68317487Y-48344926D01*
X68549886Y-48248663D01*
X68759040Y-48108911D01*
X68936911Y-47931040D01*
X69076663Y-47721886D01*
X69172926Y-47489487D01*
X69215000Y-47277966D01*
X69257074Y-47489487D01*
X69353337Y-47721886D01*
X69493089Y-47931040D01*
X69670960Y-48108911D01*
X69880114Y-48248663D01*
X70112513Y-48344926D01*
X70359226Y-48394000D01*
X70610774Y-48394000D01*
X70857487Y-48344926D01*
X71089886Y-48248663D01*
X71299040Y-48108911D01*
X71476911Y-47931040D01*
X71616663Y-47721886D01*
X71712926Y-47489487D01*
X71755000Y-47277966D01*
X71797074Y-47489487D01*
X71893337Y-47721886D01*
X72033089Y-47931040D01*
X72210960Y-48108911D01*
X72420114Y-48248663D01*
X72652513Y-48344926D01*
X72899226Y-48394000D01*
X73150774Y-48394000D01*
X73397487Y-48344926D01*
X73629886Y-48248663D01*
X73839040Y-48108911D01*
X74016911Y-47931040D01*
X74156663Y-47721886D01*
X74252926Y-47489487D01*
X74295000Y-47277966D01*
X74337074Y-47489487D01*
X74433337Y-47721886D01*
X74573089Y-47931040D01*
X74750960Y-48108911D01*
X74960114Y-48248663D01*
X75192513Y-48344926D01*
X75439226Y-48394000D01*
X75690774Y-48394000D01*
X75937487Y-48344926D01*
X76169886Y-48248663D01*
X76379040Y-48108911D01*
X76556911Y-47931040D01*
X76696663Y-47721886D01*
X76792926Y-47489487D01*
X76835000Y-47277966D01*
X76877074Y-47489487D01*
X76973337Y-47721886D01*
X77113089Y-47931040D01*
X77290960Y-48108911D01*
X77500114Y-48248663D01*
X77732513Y-48344926D01*
X77979226Y-48394000D01*
X78230774Y-48394000D01*
X78477487Y-48344926D01*
X78709886Y-48248663D01*
X78919040Y-48108911D01*
X79096911Y-47931040D01*
X79236663Y-47721886D01*
X79332926Y-47489487D01*
X79365934Y-47323544D01*
X79365934Y-47967000D01*
X79374178Y-48050707D01*
X79398595Y-48131196D01*
X79438245Y-48205376D01*
X79491605Y-48270395D01*
X79556624Y-48323755D01*
X79630804Y-48363405D01*
X79711293Y-48387822D01*
X79795000Y-48396066D01*
X81495000Y-48396066D01*
X81578707Y-48387822D01*
X81659196Y-48363405D01*
X81733376Y-48323755D01*
X81798395Y-48270395D01*
X81851755Y-48205376D01*
X81891405Y-48131196D01*
X81915822Y-48050707D01*
X81924066Y-47967000D01*
X81924066Y-46267000D01*
X81915822Y-46183293D01*
X81891405Y-46102804D01*
X81851755Y-46028624D01*
X81798395Y-45963605D01*
X81733376Y-45910245D01*
X81659196Y-45870595D01*
X81578707Y-45846178D01*
X81495000Y-45837934D01*
X80851544Y-45837934D01*
X81017487Y-45804926D01*
X81249886Y-45708663D01*
X81459040Y-45568911D01*
X81636911Y-45391040D01*
X81776663Y-45181886D01*
X81872926Y-44949487D01*
X81922000Y-44702774D01*
X81922000Y-44607000D01*
X85083000Y-44607000D01*
X85083000Y-44702774D01*
G04 #@! TA.AperFunction,Conductor*
D24*
G36*
X85083000Y-44702774D02*
G01*
X85132074Y-44949487D01*
X85228337Y-45181886D01*
X85344922Y-45356368D01*
X85289842Y-45385809D01*
X85205789Y-45454789D01*
X85188499Y-45475857D01*
X84863856Y-45800500D01*
X84842788Y-45817790D01*
X84773808Y-45901843D01*
X84722551Y-45997739D01*
X84690987Y-46101791D01*
X84682999Y-46182892D01*
X84680329Y-46210001D01*
X84682999Y-46237107D01*
X84683000Y-58088848D01*
X84680329Y-58115964D01*
X84690988Y-58224174D01*
X84722551Y-58328226D01*
X84773808Y-58424121D01*
X84773809Y-58424122D01*
X84842789Y-58508175D01*
X84863850Y-58525460D01*
X85093035Y-58754645D01*
X85093035Y-58882452D01*
X85124817Y-59042227D01*
X85187158Y-59192731D01*
X85277663Y-59328181D01*
X85392854Y-59443372D01*
X85528304Y-59533877D01*
X85678808Y-59596218D01*
X85838583Y-59628000D01*
X86001487Y-59628000D01*
X86161262Y-59596218D01*
X86311766Y-59533877D01*
X86447216Y-59443372D01*
X86457518Y-59433071D01*
X86467819Y-59443372D01*
X86603269Y-59533877D01*
X86753773Y-59596218D01*
X86913548Y-59628000D01*
X87076452Y-59628000D01*
X87236227Y-59596218D01*
X87386731Y-59533877D01*
X87522181Y-59443372D01*
X87637372Y-59328181D01*
X87727877Y-59192731D01*
X87790218Y-59042227D01*
X87822000Y-58882452D01*
X87822000Y-58719548D01*
X87790218Y-58559773D01*
X87727877Y-58409269D01*
X87637372Y-58273819D01*
X87522181Y-58158628D01*
X87386731Y-58068123D01*
X87236227Y-58005782D01*
X87076452Y-57974000D01*
X86948645Y-57974000D01*
X86404000Y-57429356D01*
X86404000Y-56444604D01*
X86478260Y-56494223D01*
X86628764Y-56556564D01*
X86788539Y-56588346D01*
X86951443Y-56588346D01*
X87111218Y-56556564D01*
X87261722Y-56494223D01*
X87397172Y-56403718D01*
X87512363Y-56288527D01*
X87602868Y-56153077D01*
X87665209Y-56002573D01*
X87696991Y-55842798D01*
X87696991Y-55679894D01*
X87665209Y-55520119D01*
X87602868Y-55369615D01*
X87512363Y-55234165D01*
X87397172Y-55118974D01*
X87261722Y-55028469D01*
X87111218Y-54966128D01*
X86951443Y-54934346D01*
X86912000Y-54934346D01*
X86912000Y-50012644D01*
X88112646Y-48812000D01*
X89634894Y-48812000D01*
X89662000Y-48814670D01*
X89689106Y-48812000D01*
X89689109Y-48812000D01*
X89770211Y-48804012D01*
X89874263Y-48772448D01*
X89970158Y-48721191D01*
X90054211Y-48652211D01*
X90071500Y-48631144D01*
X90541154Y-48161492D01*
X90562211Y-48144211D01*
X90606858Y-48089809D01*
X90625960Y-48108911D01*
X90835114Y-48248663D01*
X90888001Y-48270569D01*
X90888001Y-48867884D01*
X90885330Y-48895000D01*
X90895989Y-49003210D01*
X90927552Y-49107262D01*
X90959905Y-49167790D01*
X90978810Y-49203158D01*
X91047790Y-49287211D01*
X91068852Y-49304496D01*
X98233000Y-56468646D01*
X98233000Y-56596452D01*
X98264782Y-56756227D01*
X98327123Y-56906731D01*
X98417628Y-57042181D01*
X98532819Y-57157372D01*
X98668269Y-57247877D01*
X98818773Y-57310218D01*
X98978548Y-57342000D01*
X99141452Y-57342000D01*
X99301227Y-57310218D01*
X99451731Y-57247877D01*
X99587181Y-57157372D01*
X99702372Y-57042181D01*
X99792877Y-56906731D01*
X99855218Y-56756227D01*
X99887000Y-56596452D01*
X99887000Y-56433548D01*
X99855218Y-56273773D01*
X99792877Y-56123269D01*
X99702372Y-55987819D01*
X99587181Y-55872628D01*
X99451731Y-55782123D01*
X99301227Y-55719782D01*
X99141452Y-55688000D01*
X99013646Y-55688000D01*
X91992000Y-48666356D01*
X91992000Y-48270569D01*
X92044886Y-48248663D01*
X92254040Y-48108911D01*
X92431911Y-47931040D01*
X92571663Y-47721886D01*
X92667926Y-47489487D01*
X92710000Y-47277966D01*
X92752074Y-47489487D01*
X92848337Y-47721886D01*
X92988089Y-47931040D01*
X93165960Y-48108911D01*
X93375114Y-48248663D01*
X93607513Y-48344926D01*
X93854226Y-48394000D01*
X94105774Y-48394000D01*
X94352487Y-48344926D01*
X94584886Y-48248663D01*
X94794040Y-48108911D01*
X94971911Y-47931040D01*
X95111663Y-47721886D01*
X95207926Y-47489487D01*
X95250000Y-47277966D01*
X95292074Y-47489487D01*
X95388337Y-47721886D01*
X95528089Y-47931040D01*
X95705960Y-48108911D01*
X95915114Y-48248663D01*
X96147513Y-48344926D01*
X96394226Y-48394000D01*
X96645774Y-48394000D01*
X96892487Y-48344926D01*
X97124886Y-48248663D01*
X97334040Y-48108911D01*
X97511911Y-47931040D01*
X97651663Y-47721886D01*
X97747926Y-47489487D01*
X97790000Y-47277966D01*
X97832074Y-47489487D01*
X97928337Y-47721886D01*
X98068089Y-47931040D01*
X98245960Y-48108911D01*
X98455114Y-48248663D01*
X98687513Y-48344926D01*
X98934226Y-48394000D01*
X99185774Y-48394000D01*
X99432487Y-48344926D01*
X99664886Y-48248663D01*
X99874040Y-48108911D01*
X100051911Y-47931040D01*
X100191663Y-47721886D01*
X100287926Y-47489487D01*
X100330000Y-47277966D01*
X100372074Y-47489487D01*
X100468337Y-47721886D01*
X100608089Y-47931040D01*
X100785960Y-48108911D01*
X100995114Y-48248663D01*
X101227513Y-48344926D01*
X101474226Y-48394000D01*
X101725774Y-48394000D01*
X101972487Y-48344926D01*
X102204886Y-48248663D01*
X102414040Y-48108911D01*
X102591911Y-47931040D01*
X102731663Y-47721886D01*
X102827926Y-47489487D01*
X102870000Y-47277966D01*
X102912074Y-47489487D01*
X103008337Y-47721886D01*
X103148089Y-47931040D01*
X103325960Y-48108911D01*
X103535114Y-48248663D01*
X103767513Y-48344926D01*
X104014226Y-48394000D01*
X104265774Y-48394000D01*
X104512487Y-48344926D01*
X104744886Y-48248663D01*
X104954040Y-48108911D01*
X105131911Y-47931040D01*
X105271663Y-47721886D01*
X105367926Y-47489487D01*
X105410000Y-47277966D01*
X105452074Y-47489487D01*
X105548337Y-47721886D01*
X105688089Y-47931040D01*
X105865960Y-48108911D01*
X106075114Y-48248663D01*
X106307513Y-48344926D01*
X106554226Y-48394000D01*
X106805774Y-48394000D01*
X107052487Y-48344926D01*
X107284886Y-48248663D01*
X107494040Y-48108911D01*
X107671911Y-47931040D01*
X107811663Y-47721886D01*
X107907926Y-47489487D01*
X107950000Y-47277966D01*
X107992074Y-47489487D01*
X108088337Y-47721886D01*
X108228089Y-47931040D01*
X108405960Y-48108911D01*
X108615114Y-48248663D01*
X108847513Y-48344926D01*
X109094226Y-48394000D01*
X109345774Y-48394000D01*
X109592487Y-48344926D01*
X109824886Y-48248663D01*
X110034040Y-48108911D01*
X110211911Y-47931040D01*
X110351663Y-47721886D01*
X110447926Y-47489487D01*
X110490000Y-47277966D01*
X110532074Y-47489487D01*
X110628337Y-47721886D01*
X110768089Y-47931040D01*
X110945960Y-48108911D01*
X111155114Y-48248663D01*
X111387513Y-48344926D01*
X111634226Y-48394000D01*
X111885774Y-48394000D01*
X112132487Y-48344926D01*
X112364886Y-48248663D01*
X112574040Y-48108911D01*
X112751911Y-47931040D01*
X112891663Y-47721886D01*
X112987926Y-47489487D01*
X113030000Y-47277966D01*
X113072074Y-47489487D01*
X113168337Y-47721886D01*
X113308089Y-47931040D01*
X113485960Y-48108911D01*
X113695114Y-48248663D01*
X113927513Y-48344926D01*
X114174226Y-48394000D01*
X114425774Y-48394000D01*
X114672487Y-48344926D01*
X114904886Y-48248663D01*
X115114040Y-48108911D01*
X115291911Y-47931040D01*
X115431663Y-47721886D01*
X115527926Y-47489487D01*
X115560934Y-47323544D01*
X115560934Y-47967000D01*
X115569178Y-48050707D01*
X115593595Y-48131196D01*
X115633245Y-48205376D01*
X115686605Y-48270395D01*
X115751624Y-48323755D01*
X115825804Y-48363405D01*
X115906293Y-48387822D01*
X115990000Y-48396066D01*
X116671000Y-48396066D01*
X116671001Y-51535580D01*
X112364578Y-55842004D01*
X112303699Y-55842004D01*
X112124604Y-55877628D01*
X111955901Y-55947508D01*
X111804072Y-56048956D01*
X111674952Y-56178076D01*
X111573504Y-56329905D01*
X111503624Y-56498608D01*
X111468000Y-56677703D01*
X111468000Y-56860305D01*
X111503624Y-57039400D01*
X111573504Y-57208103D01*
X111674952Y-57359932D01*
X111804072Y-57489052D01*
X111955901Y-57590500D01*
X112124604Y-57660380D01*
X112303699Y-57696004D01*
X112486301Y-57696004D01*
X112665396Y-57660380D01*
X112834099Y-57590500D01*
X112985928Y-57489052D01*
X113115048Y-57359932D01*
X113216496Y-57208103D01*
X113286376Y-57039400D01*
X113322000Y-56860305D01*
X113322000Y-56799426D01*
X117413001Y-52708425D01*
X117413001Y-58568023D01*
X116630000Y-59351024D01*
X116630000Y-59037553D01*
X116720372Y-58947181D01*
X116810877Y-58811731D01*
X116873218Y-58661227D01*
X116905000Y-58501452D01*
X116905000Y-58338548D01*
X116873218Y-58178773D01*
X116810877Y-58028269D01*
X116720372Y-57892819D01*
X116605181Y-57777628D01*
X116469731Y-57687123D01*
X116319227Y-57624782D01*
X116159452Y-57593000D01*
X115996548Y-57593000D01*
X115836773Y-57624782D01*
X115686269Y-57687123D01*
X115550819Y-57777628D01*
X115435628Y-57892819D01*
X115345123Y-58028269D01*
X115282782Y-58178773D01*
X115251000Y-58338548D01*
X115251000Y-58501452D01*
X115282782Y-58661227D01*
X115345123Y-58811731D01*
X115435628Y-58947181D01*
X115526001Y-59037554D01*
X115526000Y-59461354D01*
X114549367Y-60437989D01*
X100461635Y-60437989D01*
X99760000Y-59736355D01*
X99760000Y-59608548D01*
X99728218Y-59448773D01*
X99665877Y-59298269D01*
X99575372Y-59162819D01*
X99460181Y-59047628D01*
X99324731Y-58957123D01*
X99174227Y-58894782D01*
X99014452Y-58863000D01*
X98851548Y-58863000D01*
X98691773Y-58894782D01*
X98541269Y-58957123D01*
X98405819Y-59047628D01*
X98290628Y-59162819D01*
X98200123Y-59298269D01*
X98137782Y-59448773D01*
X98106000Y-59608548D01*
X98106000Y-59771452D01*
X98137782Y-59931227D01*
X98200123Y-60081731D01*
X98290628Y-60217181D01*
X98405819Y-60332372D01*
X98541269Y-60422877D01*
X98691773Y-60485218D01*
X98851548Y-60517000D01*
X98979355Y-60517000D01*
X99300354Y-60837999D01*
X94136356Y-60837999D01*
X94149032Y-60819028D01*
X94211373Y-60668524D01*
X94243155Y-60508749D01*
X94243155Y-60345845D01*
X94211373Y-60186070D01*
X94149032Y-60035566D01*
X94058527Y-59900116D01*
X93943336Y-59784925D01*
X93807886Y-59694420D01*
X93657382Y-59632079D01*
X93497607Y-59600297D01*
X93334703Y-59600297D01*
X93174928Y-59632079D01*
X93024424Y-59694420D01*
X92888974Y-59784925D01*
X92773783Y-59900116D01*
X92683278Y-60035566D01*
X92620937Y-60186070D01*
X92589155Y-60345845D01*
X92589155Y-60408000D01*
X80115650Y-60408000D01*
X79407504Y-59699856D01*
X79390215Y-59678789D01*
X79306162Y-59609809D01*
X79210267Y-59558552D01*
X79106215Y-59526988D01*
X79025113Y-59519000D01*
X79025110Y-59519000D01*
X78998004Y-59516330D01*
X78970898Y-59519000D01*
X68173646Y-59519000D01*
X67359752Y-58705107D01*
X67375000Y-58628452D01*
X67375000Y-58465548D01*
X67343218Y-58305773D01*
X67280877Y-58155269D01*
X67190372Y-58019819D01*
X67075181Y-57904628D01*
X66939731Y-57814123D01*
X66789227Y-57751782D01*
X66629452Y-57720000D01*
X66466548Y-57720000D01*
X66306773Y-57751782D01*
X66156269Y-57814123D01*
X66020819Y-57904628D01*
X65905628Y-58019819D01*
X65815123Y-58155269D01*
X65752782Y-58305773D01*
X65721000Y-58465548D01*
X65721000Y-58482000D01*
X65704550Y-58482000D01*
X65544775Y-58513782D01*
X65394271Y-58576123D01*
X65258821Y-58666628D01*
X65143630Y-58781819D01*
X65053125Y-58917269D01*
X64990784Y-59067773D01*
X64973033Y-59157010D01*
X64922671Y-59157010D01*
X64762896Y-59188792D01*
X64612392Y-59251133D01*
X64476942Y-59341638D01*
X64361751Y-59456829D01*
X64271246Y-59592279D01*
X64208905Y-59742783D01*
X64177123Y-59902558D01*
X64177123Y-60065462D01*
X64208905Y-60225237D01*
X64271246Y-60375741D01*
X64361751Y-60511191D01*
X64476942Y-60626382D01*
X64612392Y-60716887D01*
X64762896Y-60779228D01*
X64922671Y-60811010D01*
X65085575Y-60811010D01*
X65106252Y-60806897D01*
X65554307Y-61254953D01*
X65571589Y-61276011D01*
X65655642Y-61344991D01*
X65751537Y-61396248D01*
X65855589Y-61427812D01*
X65936691Y-61435800D01*
X65936701Y-61435800D01*
X65963799Y-61438469D01*
X65990897Y-61435800D01*
X72720156Y-61435800D01*
X74852855Y-63568499D01*
X74818198Y-63568499D01*
X74773304Y-63577429D01*
X74727776Y-63581913D01*
X74683996Y-63595193D01*
X74639103Y-63604123D01*
X74596820Y-63621638D01*
X74553036Y-63634919D01*
X74553034Y-63634920D01*
X74512678Y-63656491D01*
X74470400Y-63674003D01*
X74432351Y-63699426D01*
X74391993Y-63720998D01*
X74356621Y-63750027D01*
X74318571Y-63775451D01*
X74286207Y-63807815D01*
X74250840Y-63836840D01*
X74221815Y-63872207D01*
X73493074Y-64600949D01*
X73493071Y-64600951D01*
X73363951Y-64730071D01*
X73338523Y-64768126D01*
X73309498Y-64803494D01*
X73287928Y-64843848D01*
X73262503Y-64881900D01*
X73244990Y-64924180D01*
X73223419Y-64964536D01*
X73210138Y-65008320D01*
X73192623Y-65050603D01*
X73183693Y-65095496D01*
X73170413Y-65139276D01*
X73165929Y-65184804D01*
X73156999Y-65229698D01*
X73156999Y-65275472D01*
X73152515Y-65320999D01*
X73156999Y-65366526D01*
X73156999Y-65412300D01*
X73165929Y-65457194D01*
X73170413Y-65502722D01*
X73183693Y-65546502D01*
X73192623Y-65591395D01*
X73210138Y-65633678D01*
X73223419Y-65677462D01*
X73244990Y-65717818D01*
X73262503Y-65760098D01*
X73287928Y-65798150D01*
X73309498Y-65838504D01*
X73338523Y-65873872D01*
X73363951Y-65911927D01*
X73396315Y-65944291D01*
X73425340Y-65979658D01*
X73460707Y-66008683D01*
X73493071Y-66041047D01*
X73531126Y-66066475D01*
X73566494Y-66095500D01*
X73606848Y-66117070D01*
X73644900Y-66142495D01*
X73687180Y-66160008D01*
X73727536Y-66181579D01*
X73771320Y-66194860D01*
X73813603Y-66212375D01*
X73858496Y-66221305D01*
X73902276Y-66234585D01*
X73947804Y-66239069D01*
X73992698Y-66247999D01*
X74038472Y-66247999D01*
X74083999Y-66252483D01*
X74129526Y-66247999D01*
X74175300Y-66247999D01*
X74220194Y-66239069D01*
X74265722Y-66234585D01*
X74309502Y-66221305D01*
X74354395Y-66212375D01*
X74396678Y-66194860D01*
X74440462Y-66181579D01*
X74480818Y-66160008D01*
X74523098Y-66142495D01*
X74561150Y-66117070D01*
X74601504Y-66095500D01*
X74636872Y-66066475D01*
X74674927Y-66041047D01*
X74804047Y-65911927D01*
X74804049Y-65911924D01*
X74909499Y-65806474D01*
X79337000Y-70233976D01*
X79337001Y-75011463D01*
X79332516Y-75057000D01*
X79337001Y-75102537D01*
X79337001Y-75102538D01*
X79350414Y-75238724D01*
X79359451Y-75268515D01*
X79403420Y-75413463D01*
X79489499Y-75574505D01*
X79576312Y-75680287D01*
X79576317Y-75680292D01*
X79605342Y-75715659D01*
X79640708Y-75744683D01*
X81636010Y-77739986D01*
X81636011Y-79283694D01*
X81636010Y-79283699D01*
X81636010Y-79329473D01*
X81631526Y-79375000D01*
X81636010Y-79420527D01*
X81636010Y-79466301D01*
X81644940Y-79511194D01*
X81649424Y-79556724D01*
X81662704Y-79600503D01*
X81671634Y-79645396D01*
X81689149Y-79687679D01*
X81702430Y-79731463D01*
X81724001Y-79771819D01*
X81741514Y-79814099D01*
X81766939Y-79852151D01*
X81788509Y-79892505D01*
X81817534Y-79927873D01*
X81842962Y-79965928D01*
X81875332Y-79998298D01*
X81904352Y-80033659D01*
X81939713Y-80062679D01*
X81972082Y-80095048D01*
X81972085Y-80095050D01*
X83401000Y-81523966D01*
X83401001Y-85760694D01*
X83401000Y-85760699D01*
X83401000Y-85943301D01*
X83401001Y-85943306D01*
X83401000Y-88046697D01*
X83401000Y-88229299D01*
X83401001Y-88229304D01*
X83401000Y-94010475D01*
X83396516Y-94056002D01*
X83401000Y-94101529D01*
X83401000Y-94101539D01*
X83414413Y-94237725D01*
X83460406Y-94389342D01*
X83467420Y-94412465D01*
X83553499Y-94573507D01*
X83606013Y-94637495D01*
X83669341Y-94714661D01*
X83704713Y-94743690D01*
X84689022Y-95728000D01*
X81922000Y-95728000D01*
X81922000Y-95632226D01*
X81872926Y-95385513D01*
X81851019Y-95332626D01*
X82286154Y-94897492D01*
X82307211Y-94880211D01*
X82335426Y-94845831D01*
X82376191Y-94796159D01*
X82408375Y-94735946D01*
X82427448Y-94700263D01*
X82459012Y-94596211D01*
X82467000Y-94515109D01*
X82467000Y-94515099D01*
X82469669Y-94488001D01*
X82467000Y-94460903D01*
X82467000Y-92483108D01*
X82469670Y-92456000D01*
X82459012Y-92347789D01*
X82427448Y-92243737D01*
X82376191Y-92147842D01*
X82324492Y-92084846D01*
X82324491Y-92084845D01*
X82307211Y-92063789D01*
X82286154Y-92046508D01*
X80816000Y-90576356D01*
X80816000Y-81266404D01*
X80818670Y-81239296D01*
X80808012Y-81131085D01*
X80776448Y-81027033D01*
X80725191Y-80931138D01*
X80673492Y-80868142D01*
X80673491Y-80868141D01*
X80656211Y-80847085D01*
X80635154Y-80829804D01*
X74487671Y-74682323D01*
X74470381Y-74661255D01*
X74386328Y-74592275D01*
X74290433Y-74541018D01*
X74186381Y-74509454D01*
X74105279Y-74501466D01*
X74105276Y-74501466D01*
X74078170Y-74498796D01*
X74051064Y-74501466D01*
X72293640Y-74501466D01*
X72266534Y-74498796D01*
X72239428Y-74501466D01*
X72239425Y-74501466D01*
X72158323Y-74509454D01*
X72054271Y-74541018D01*
X71958376Y-74592275D01*
X71874323Y-74661255D01*
X71857038Y-74682317D01*
X71166356Y-75373000D01*
X71038548Y-75373000D01*
X70878773Y-75404782D01*
X70728269Y-75467123D01*
X70592819Y-75557628D01*
X70477628Y-75672819D01*
X70387123Y-75808269D01*
X70324782Y-75958773D01*
X70293000Y-76118548D01*
X70293000Y-76281452D01*
X70324782Y-76441227D01*
X70387123Y-76591731D01*
X70477628Y-76727181D01*
X70592819Y-76842372D01*
X70728269Y-76932877D01*
X70878773Y-76995218D01*
X71038548Y-77027000D01*
X71201452Y-77027000D01*
X71361227Y-76995218D01*
X71511731Y-76932877D01*
X71647181Y-76842372D01*
X71723616Y-76765937D01*
X71843269Y-76845887D01*
X71993773Y-76908228D01*
X72153548Y-76940010D01*
X72316452Y-76940010D01*
X72476227Y-76908228D01*
X72626731Y-76845887D01*
X72658868Y-76824414D01*
X72661674Y-76852906D01*
X72693238Y-76956958D01*
X72744495Y-77052854D01*
X72813475Y-77136907D01*
X72834542Y-77154196D01*
X73434503Y-77754158D01*
X73451788Y-77775220D01*
X73535841Y-77844200D01*
X73631736Y-77895457D01*
X73735788Y-77927021D01*
X73816890Y-77935009D01*
X73816893Y-77935009D01*
X73843999Y-77937679D01*
X73871105Y-77935009D01*
X74360365Y-77935009D01*
X78442001Y-82016646D01*
X78442000Y-91983015D01*
X78230774Y-91941000D01*
X77979226Y-91941000D01*
X77732513Y-91990074D01*
X77500114Y-92086337D01*
X77432013Y-92131841D01*
X77432013Y-83130110D01*
X77434682Y-83103012D01*
X77432013Y-83075914D01*
X77432013Y-83075904D01*
X77424025Y-82994802D01*
X77392461Y-82890750D01*
X77368601Y-82846111D01*
X77341204Y-82794854D01*
X77289504Y-82731858D01*
X77272224Y-82710802D01*
X77251167Y-82693521D01*
X74831500Y-80273856D01*
X74814211Y-80252789D01*
X74730158Y-80183809D01*
X74634263Y-80132552D01*
X74530211Y-80100988D01*
X74449109Y-80093000D01*
X74449106Y-80093000D01*
X74422000Y-80090330D01*
X74394894Y-80093000D01*
X73642553Y-80093000D01*
X73552181Y-80002628D01*
X73416731Y-79912123D01*
X73266227Y-79849782D01*
X73106452Y-79818000D01*
X72943548Y-79818000D01*
X72783773Y-79849782D01*
X72633269Y-79912123D01*
X72497819Y-80002628D01*
X72382628Y-80117819D01*
X72292123Y-80253269D01*
X72229782Y-80403773D01*
X72198000Y-80563548D01*
X72198000Y-80726452D01*
X72229782Y-80886227D01*
X72292123Y-81036731D01*
X72382628Y-81172181D01*
X72497819Y-81287372D01*
X72633269Y-81377877D01*
X72783773Y-81440218D01*
X72943548Y-81472000D01*
X73106452Y-81472000D01*
X73266227Y-81440218D01*
X73416731Y-81377877D01*
X73552181Y-81287372D01*
X73642553Y-81197000D01*
X74193356Y-81197000D01*
X75426105Y-82429750D01*
X65184303Y-82429750D01*
X65093931Y-82339378D01*
X64958481Y-82248873D01*
X64807977Y-82186532D01*
X64648202Y-82154750D01*
X64485298Y-82154750D01*
X64325523Y-82186532D01*
X64175019Y-82248873D01*
X64039569Y-82339378D01*
X63924378Y-82454569D01*
X63833873Y-82590019D01*
X63771532Y-82740523D01*
X63739750Y-82900298D01*
X63739750Y-83063202D01*
X63771532Y-83222977D01*
X63833873Y-83373481D01*
X63924378Y-83508931D01*
X64039569Y-83624122D01*
X64175019Y-83714627D01*
X64325523Y-83776968D01*
X64485298Y-83808750D01*
X64648202Y-83808750D01*
X64807977Y-83776968D01*
X64958481Y-83714627D01*
X65093931Y-83624122D01*
X65184303Y-83533750D01*
X75641105Y-83533750D01*
X75902000Y-83794645D01*
X75902001Y-91983015D01*
X75690774Y-91941000D01*
X75439226Y-91941000D01*
X75192513Y-91990074D01*
X74960114Y-92086337D01*
X74750960Y-92226089D01*
X74573089Y-92403960D01*
X74433337Y-92613114D01*
X74337074Y-92845513D01*
X74295000Y-93057034D01*
X74252926Y-92845513D01*
X74156663Y-92613114D01*
X74016911Y-92403960D01*
X73839040Y-92226089D01*
X73629886Y-92086337D01*
X73397487Y-91990074D01*
X73150774Y-91941000D01*
X72899226Y-91941000D01*
X72652513Y-91990074D01*
X72420114Y-92086337D01*
X72210960Y-92226089D01*
X72033089Y-92403960D01*
X71893337Y-92613114D01*
X71797074Y-92845513D01*
X71755000Y-93057034D01*
X71712926Y-92845513D01*
X71616663Y-92613114D01*
X71476911Y-92403960D01*
X71299040Y-92226089D01*
X71089886Y-92086337D01*
X70857487Y-91990074D01*
X70610774Y-91941000D01*
X70359226Y-91941000D01*
X70112513Y-91990074D01*
X69880114Y-92086337D01*
X69670960Y-92226089D01*
X69493089Y-92403960D01*
X69353337Y-92613114D01*
X69257074Y-92845513D01*
X69215000Y-93057034D01*
X69172926Y-92845513D01*
X69076663Y-92613114D01*
X68936911Y-92403960D01*
X68759040Y-92226089D01*
X68549886Y-92086337D01*
X68317487Y-91990074D01*
X68070774Y-91941000D01*
X67819226Y-91941000D01*
X67572513Y-91990074D01*
X67340114Y-92086337D01*
X67130960Y-92226089D01*
X66953089Y-92403960D01*
X66813337Y-92613114D01*
X66717074Y-92845513D01*
X66675000Y-93057034D01*
X66632926Y-92845513D01*
X66536663Y-92613114D01*
X66396911Y-92403960D01*
X66219040Y-92226089D01*
X66009886Y-92086337D01*
X65777487Y-91990074D01*
X65530774Y-91941000D01*
X65279226Y-91941000D01*
X65032513Y-91990074D01*
X64800114Y-92086337D01*
X64590960Y-92226089D01*
X64413089Y-92403960D01*
X64273337Y-92613114D01*
X64177074Y-92845513D01*
X64135000Y-93057034D01*
X64092926Y-92845513D01*
X63996663Y-92613114D01*
X63856911Y-92403960D01*
X63679040Y-92226089D01*
X63469886Y-92086337D01*
X63237487Y-91990074D01*
X62990774Y-91941000D01*
X62739226Y-91941000D01*
X62492513Y-91990074D01*
X62260114Y-92086337D01*
X62050960Y-92226089D01*
X61873089Y-92403960D01*
X61733337Y-92613114D01*
X61637074Y-92845513D01*
X61595000Y-93057034D01*
X61552926Y-92845513D01*
X61456663Y-92613114D01*
X61316911Y-92403960D01*
X61139040Y-92226089D01*
X60929886Y-92086337D01*
X60697487Y-91990074D01*
X60450774Y-91941000D01*
X60199226Y-91941000D01*
X59952513Y-91990074D01*
X59720114Y-92086337D01*
X59510960Y-92226089D01*
X59333089Y-92403960D01*
X59193337Y-92613114D01*
X59097074Y-92845513D01*
X59055000Y-93057034D01*
X59012926Y-92845513D01*
X58916663Y-92613114D01*
X58776911Y-92403960D01*
X58599040Y-92226089D01*
X58389886Y-92086337D01*
X58157487Y-91990074D01*
X57910774Y-91941000D01*
X57659226Y-91941000D01*
X57412513Y-91990074D01*
X57180114Y-92086337D01*
X56970960Y-92226089D01*
X56793089Y-92403960D01*
X56653337Y-92613114D01*
X56557074Y-92845513D01*
X56515000Y-93057034D01*
X56472926Y-92845513D01*
X56376663Y-92613114D01*
X56236911Y-92403960D01*
X56059040Y-92226089D01*
X55849886Y-92086337D01*
X55617487Y-91990074D01*
X55370774Y-91941000D01*
X55119226Y-91941000D01*
X54872513Y-91990074D01*
X54640114Y-92086337D01*
X54430960Y-92226089D01*
X54253089Y-92403960D01*
X54113337Y-92613114D01*
X54017074Y-92845513D01*
X53975000Y-93057034D01*
X53932926Y-92845513D01*
X53836663Y-92613114D01*
X53696911Y-92403960D01*
X53519040Y-92226089D01*
X53309886Y-92086337D01*
X53077487Y-91990074D01*
X52830774Y-91941000D01*
X52579226Y-91941000D01*
X52332513Y-91990074D01*
X52100114Y-92086337D01*
X51890960Y-92226089D01*
X51713089Y-92403960D01*
X51573337Y-92613114D01*
X51477074Y-92845513D01*
X51444066Y-93011456D01*
X51444066Y-92368000D01*
X51435822Y-92284293D01*
X51411405Y-92203804D01*
X51371755Y-92129624D01*
X51318395Y-92064605D01*
X51253376Y-92011245D01*
X51179196Y-91971595D01*
X51098707Y-91947178D01*
X51015000Y-91938934D01*
X49504500Y-91938934D01*
X49504500Y-88557000D01*
X50416025Y-88557000D01*
X51349952Y-89490928D01*
X51479072Y-89620048D01*
X51517122Y-89645472D01*
X51552494Y-89674501D01*
X51592852Y-89696073D01*
X51630901Y-89721496D01*
X51673179Y-89739008D01*
X51713535Y-89760579D01*
X51757319Y-89773861D01*
X51799604Y-89791376D01*
X51844496Y-89800306D01*
X51888276Y-89813586D01*
X51933806Y-89818070D01*
X51978699Y-89827000D01*
X52024472Y-89827000D01*
X52069999Y-89831484D01*
X52115526Y-89827000D01*
X52161301Y-89827000D01*
X52206195Y-89818070D01*
X52251723Y-89813586D01*
X52295500Y-89800306D01*
X52340396Y-89791376D01*
X52382686Y-89773859D01*
X52426463Y-89760579D01*
X52466813Y-89739012D01*
X52509099Y-89721496D01*
X52547153Y-89696070D01*
X52587505Y-89674501D01*
X52622873Y-89645476D01*
X52660928Y-89620048D01*
X52693292Y-89587684D01*
X52728659Y-89558659D01*
X52757684Y-89523292D01*
X52790048Y-89490928D01*
X52815476Y-89452873D01*
X52844501Y-89417505D01*
X52866070Y-89377153D01*
X52891496Y-89339099D01*
X52909012Y-89296813D01*
X52930579Y-89256463D01*
X52943859Y-89212686D01*
X52961376Y-89170396D01*
X52970306Y-89125500D01*
X52983586Y-89081723D01*
X52988070Y-89036195D01*
X52997000Y-88991301D01*
X52997000Y-88945526D01*
X53001484Y-88899999D01*
X52997000Y-88854472D01*
X52997000Y-88808699D01*
X52988070Y-88763806D01*
X52983586Y-88718276D01*
X52970306Y-88674496D01*
X52961376Y-88629604D01*
X52943861Y-88587319D01*
X52930579Y-88543535D01*
X52909008Y-88503179D01*
X52891496Y-88460901D01*
X52866073Y-88422852D01*
X52844501Y-88382494D01*
X52815472Y-88347122D01*
X52790048Y-88309072D01*
X52660928Y-88179952D01*
X51520050Y-87039075D01*
X51520048Y-87039072D01*
X51487684Y-87006708D01*
X51458659Y-86971341D01*
X51423292Y-86942316D01*
X51390928Y-86909952D01*
X51352873Y-86884524D01*
X51317505Y-86855499D01*
X51277150Y-86833928D01*
X51239099Y-86808504D01*
X51196823Y-86790992D01*
X51156464Y-86769420D01*
X51112674Y-86756137D01*
X51070396Y-86738624D01*
X51025513Y-86729696D01*
X50981724Y-86716413D01*
X50936184Y-86711928D01*
X50891301Y-86703000D01*
X50845527Y-86703000D01*
X50800000Y-86698516D01*
X50754473Y-86703000D01*
X49282250Y-86703000D01*
X49265188Y-86682210D01*
X49265184Y-86682206D01*
X49236159Y-86646839D01*
X49200794Y-86617816D01*
X44742000Y-82159023D01*
X44742000Y-78533182D01*
X45043391Y-78331799D01*
X45311799Y-78063391D01*
X45522685Y-77747777D01*
X45667947Y-77397085D01*
X45742000Y-77024793D01*
X45742000Y-76645207D01*
X45667947Y-76272915D01*
X45522685Y-75922223D01*
X45475047Y-75850928D01*
X50802976Y-70523000D01*
X51897462Y-70523000D01*
X51943000Y-70527485D01*
X51988537Y-70523000D01*
X52034301Y-70523000D01*
X52079184Y-70514072D01*
X52124724Y-70509587D01*
X52168513Y-70496304D01*
X52213396Y-70487376D01*
X52255674Y-70469863D01*
X52299464Y-70456580D01*
X52339823Y-70435008D01*
X52382099Y-70417496D01*
X52420150Y-70392072D01*
X52460505Y-70370501D01*
X52495873Y-70341476D01*
X52533928Y-70316048D01*
X52566292Y-70283684D01*
X52601659Y-70254659D01*
X52630684Y-70219292D01*
X52663048Y-70186928D01*
X52688476Y-70148873D01*
X52717501Y-70113505D01*
X52739072Y-70073150D01*
X52764496Y-70035099D01*
X52782008Y-69992823D01*
X52803580Y-69952464D01*
X52816863Y-69908674D01*
X52834376Y-69866396D01*
X52843304Y-69821513D01*
X52856587Y-69777724D01*
X52861072Y-69732184D01*
X52870000Y-69687301D01*
X52870000Y-69641537D01*
X52874485Y-69596000D01*
X52870000Y-69550462D01*
X52870000Y-68244538D01*
X52874485Y-68199000D01*
X52870000Y-68153462D01*
X52870000Y-68107699D01*
X52861072Y-68062816D01*
X52856587Y-68017276D01*
X52843304Y-67973487D01*
X52834376Y-67928604D01*
X52816863Y-67886326D01*
X52803580Y-67842536D01*
X52782008Y-67802177D01*
X52764496Y-67759901D01*
X52739072Y-67721850D01*
X52717501Y-67681495D01*
X52688476Y-67646127D01*
X52663048Y-67608072D01*
X52630684Y-67575708D01*
X52601659Y-67540341D01*
X52566292Y-67511316D01*
X52533928Y-67478952D01*
X52495873Y-67453524D01*
X52460505Y-67424499D01*
X52420150Y-67402928D01*
X52382099Y-67377504D01*
X52339823Y-67359992D01*
X52299464Y-67338420D01*
X52255674Y-67325137D01*
X52213396Y-67307624D01*
X52168513Y-67298696D01*
X52124724Y-67285413D01*
X52079184Y-67280928D01*
X52034301Y-67272000D01*
X51988538Y-67272000D01*
X51943000Y-67267515D01*
X51897463Y-67272000D01*
X51346236Y-67272000D01*
X51373000Y-67137452D01*
X51373000Y-66974548D01*
X51341218Y-66814773D01*
X51278877Y-66664269D01*
X51188372Y-66528819D01*
X51098000Y-66438447D01*
X51098000Y-66357011D01*
X53039883Y-66357011D01*
X53066989Y-66359681D01*
X53094095Y-66357011D01*
X53094098Y-66357011D01*
X53175200Y-66349023D01*
X53279252Y-66317459D01*
X53375147Y-66266202D01*
X53459200Y-66197222D01*
X53476490Y-66176154D01*
X55140911Y-64511734D01*
X55147123Y-64526731D01*
X55237628Y-64662181D01*
X55328001Y-64752554D01*
X55328000Y-85824894D01*
X55325330Y-85852000D01*
X55328000Y-85879106D01*
X55328000Y-85879108D01*
X55335988Y-85960210D01*
X55367552Y-86064262D01*
X55418809Y-86160158D01*
X55487789Y-86244211D01*
X55508856Y-86261500D01*
X56503508Y-87256154D01*
X56520789Y-87277211D01*
X56541845Y-87294491D01*
X56541846Y-87294492D01*
X56604842Y-87346191D01*
X56700737Y-87397448D01*
X56804789Y-87429012D01*
X56913000Y-87439670D01*
X56940108Y-87437000D01*
X57846076Y-87437000D01*
X57901269Y-87473879D01*
X58051773Y-87536220D01*
X58211548Y-87568002D01*
X58374452Y-87568002D01*
X58534227Y-87536220D01*
X58684731Y-87473879D01*
X58820181Y-87383374D01*
X58935372Y-87268183D01*
X59025877Y-87132733D01*
X59088218Y-86982229D01*
X59120000Y-86822454D01*
X59120000Y-86659550D01*
X59088218Y-86499775D01*
X59025877Y-86349271D01*
X58935372Y-86213821D01*
X58820181Y-86098630D01*
X58684731Y-86008125D01*
X58534227Y-85945784D01*
X58374452Y-85914002D01*
X58211548Y-85914002D01*
X58051773Y-85945784D01*
X57901269Y-86008125D01*
X57765819Y-86098630D01*
X57650628Y-86213821D01*
X57570995Y-86333000D01*
X57141646Y-86333000D01*
X56432000Y-85623356D01*
X56432000Y-64752553D01*
X56519237Y-64665317D01*
X56631259Y-64777339D01*
X56766709Y-64867844D01*
X56917213Y-64930185D01*
X56993441Y-64945348D01*
X59538011Y-67489920D01*
X59538012Y-77080895D01*
X59535341Y-77108011D01*
X59544982Y-77205887D01*
X59546000Y-77216222D01*
X59551749Y-77235175D01*
X59577563Y-77320273D01*
X59618620Y-77397085D01*
X59628821Y-77416169D01*
X59697801Y-77500222D01*
X59718863Y-77517507D01*
X60804507Y-78603153D01*
X60821789Y-78624211D01*
X60905842Y-78693191D01*
X61001737Y-78744448D01*
X61105789Y-78776012D01*
X61186891Y-78784000D01*
X61186901Y-78784000D01*
X61213999Y-78786669D01*
X61241097Y-78784000D01*
X64078480Y-78784000D01*
X64066326Y-78798810D01*
X64054809Y-78812843D01*
X64003552Y-78908738D01*
X63971989Y-79012790D01*
X63961330Y-79121000D01*
X63964001Y-79148115D01*
X63964001Y-79646446D01*
X63873628Y-79736819D01*
X63783123Y-79872269D01*
X63720782Y-80022773D01*
X63689000Y-80182548D01*
X63689000Y-80345452D01*
X63720782Y-80505227D01*
X63783123Y-80655731D01*
X63873628Y-80791181D01*
X63988819Y-80906372D01*
X64124269Y-80996877D01*
X64274773Y-81059218D01*
X64434548Y-81091000D01*
X64597452Y-81091000D01*
X64757227Y-81059218D01*
X64907731Y-80996877D01*
X65043181Y-80906372D01*
X65158372Y-80791181D01*
X65248877Y-80655731D01*
X65311218Y-80505227D01*
X65343000Y-80345452D01*
X65343000Y-80182548D01*
X65311218Y-80022773D01*
X65248877Y-79872269D01*
X65158372Y-79736819D01*
X65068000Y-79646447D01*
X65068000Y-79349645D01*
X65125645Y-79292000D01*
X67843356Y-79292000D01*
X68960506Y-80409152D01*
X68977787Y-80430209D01*
X68998843Y-80447489D01*
X69061839Y-80499189D01*
X69073136Y-80505227D01*
X69157735Y-80550446D01*
X69261787Y-80582010D01*
X69342889Y-80589998D01*
X69342899Y-80589998D01*
X69369997Y-80592667D01*
X69397095Y-80589998D01*
X70031896Y-80589998D01*
X70059002Y-80592668D01*
X70086108Y-80589998D01*
X70086111Y-80589998D01*
X70167213Y-80582010D01*
X70271265Y-80550446D01*
X70367160Y-80499189D01*
X70451213Y-80430209D01*
X70468503Y-80409141D01*
X70781145Y-80096499D01*
X70802213Y-80079209D01*
X70871193Y-79995156D01*
X70922450Y-79899261D01*
X70954014Y-79795209D01*
X70962002Y-79714107D01*
X70962002Y-79714104D01*
X70964672Y-79686998D01*
X70962002Y-79659892D01*
X70962002Y-78692110D01*
X70964672Y-78665002D01*
X70954014Y-78556791D01*
X70922450Y-78452739D01*
X70871193Y-78356844D01*
X70819494Y-78293848D01*
X70819493Y-78293847D01*
X70802213Y-78272791D01*
X70781156Y-78255510D01*
X68924843Y-76399199D01*
X68993570Y-76330472D01*
X69084075Y-76195022D01*
X69146416Y-76044518D01*
X69178198Y-75884743D01*
X69178198Y-75721839D01*
X69146416Y-75562064D01*
X69084075Y-75411560D01*
X68993570Y-75276110D01*
X68878379Y-75160919D01*
X68742929Y-75070414D01*
X68592425Y-75008073D01*
X68432650Y-74976291D01*
X68269746Y-74976291D01*
X68109971Y-75008073D01*
X67959467Y-75070414D01*
X67824017Y-75160919D01*
X67708826Y-75276110D01*
X67618321Y-75411560D01*
X67555980Y-75562064D01*
X67524198Y-75721839D01*
X67524198Y-75884743D01*
X67555980Y-76044518D01*
X67618321Y-76195022D01*
X67708826Y-76330472D01*
X67799198Y-76420844D01*
X67799198Y-76579092D01*
X67796528Y-76606198D01*
X67799198Y-76633304D01*
X67799198Y-76633306D01*
X67807186Y-76714408D01*
X67838750Y-76818460D01*
X67890007Y-76914356D01*
X67958987Y-76998409D01*
X67980054Y-77015698D01*
X68644355Y-77680000D01*
X61442646Y-77680000D01*
X60642011Y-76879367D01*
X60642011Y-67288371D01*
X60644680Y-67261273D01*
X60642011Y-67234175D01*
X60642011Y-67234165D01*
X60634023Y-67153063D01*
X60602459Y-67049011D01*
X60551202Y-66953116D01*
X60482222Y-66869063D01*
X60461165Y-66851782D01*
X58017334Y-64407953D01*
X58051773Y-64422218D01*
X58211548Y-64454000D01*
X58374452Y-64454000D01*
X58534227Y-64422218D01*
X58684731Y-64359877D01*
X58820181Y-64269372D01*
X58935372Y-64154181D01*
X59025877Y-64018731D01*
X59088218Y-63868227D01*
X59120000Y-63708452D01*
X59120000Y-63545548D01*
X59088218Y-63385773D01*
X59025877Y-63235269D01*
X58935372Y-63099819D01*
X58820181Y-62984628D01*
X58684731Y-62894123D01*
X58534227Y-62831782D01*
X58374452Y-62800000D01*
X58211548Y-62800000D01*
X58105976Y-62821000D01*
X55526106Y-62821000D01*
X55499000Y-62818330D01*
X55471894Y-62821000D01*
X55471891Y-62821000D01*
X55390789Y-62828988D01*
X55286737Y-62860552D01*
X55190842Y-62911809D01*
X55106789Y-62980789D01*
X55089504Y-63001851D01*
X55035000Y-63056355D01*
X55035000Y-61823644D01*
X56099260Y-60759386D01*
X56351321Y-60759386D01*
X56441693Y-60849758D01*
X56577143Y-60940263D01*
X56727647Y-61002604D01*
X56887422Y-61034386D01*
X57050326Y-61034386D01*
X57210101Y-61002604D01*
X57360605Y-60940263D01*
X57496055Y-60849758D01*
X57611246Y-60734567D01*
X57701751Y-60599117D01*
X57764092Y-60448613D01*
X57795874Y-60288838D01*
X57795874Y-60125934D01*
X57764092Y-59966159D01*
X57701751Y-59815655D01*
X57611246Y-59680205D01*
X57496055Y-59565014D01*
X57371152Y-59481556D01*
X58482000Y-59481556D01*
X58482000Y-59644460D01*
X58513782Y-59804235D01*
X58576123Y-59954739D01*
X58666628Y-60090189D01*
X58781819Y-60205380D01*
X58917269Y-60295885D01*
X59067773Y-60358226D01*
X59227548Y-60390008D01*
X59355356Y-60390008D01*
X62186000Y-63220654D01*
X62186001Y-68978446D01*
X62095628Y-69068819D01*
X62005123Y-69204269D01*
X61942782Y-69354773D01*
X61911000Y-69514548D01*
X61911000Y-69677452D01*
X61942782Y-69837227D01*
X62005123Y-69987731D01*
X62095628Y-70123181D01*
X62210819Y-70238372D01*
X62346269Y-70328877D01*
X62496773Y-70391218D01*
X62656548Y-70423000D01*
X62819452Y-70423000D01*
X62979227Y-70391218D01*
X63129731Y-70328877D01*
X63265181Y-70238372D01*
X63380372Y-70123181D01*
X63470877Y-69987731D01*
X63533218Y-69837227D01*
X63565000Y-69677452D01*
X63565000Y-69514548D01*
X63533218Y-69354773D01*
X63470877Y-69204269D01*
X63380372Y-69068819D01*
X63290000Y-68978447D01*
X63290000Y-63019105D01*
X63292669Y-62992007D01*
X63290000Y-62964909D01*
X63290000Y-62964899D01*
X63282012Y-62883797D01*
X63250448Y-62779745D01*
X63214301Y-62712119D01*
X63199191Y-62683849D01*
X63147491Y-62620853D01*
X63130211Y-62599797D01*
X63109154Y-62582516D01*
X60136000Y-59609364D01*
X60136000Y-59481556D01*
X60104218Y-59321781D01*
X60041877Y-59171277D01*
X59951372Y-59035827D01*
X59836181Y-58920636D01*
X59700731Y-58830131D01*
X59550227Y-58767790D01*
X59390452Y-58736008D01*
X59227548Y-58736008D01*
X59067773Y-58767790D01*
X58917269Y-58830131D01*
X58781819Y-58920636D01*
X58666628Y-59035827D01*
X58576123Y-59171277D01*
X58513782Y-59321781D01*
X58482000Y-59481556D01*
X57371152Y-59481556D01*
X57360605Y-59474509D01*
X57210101Y-59412168D01*
X57050326Y-59380386D01*
X56912559Y-59380386D01*
X57013149Y-59279796D01*
X57034211Y-59262511D01*
X57103191Y-59178458D01*
X57154448Y-59082563D01*
X57186012Y-58978511D01*
X57194000Y-58897409D01*
X57194000Y-58897406D01*
X57196670Y-58870300D01*
X57194000Y-58843194D01*
X57194000Y-57593645D01*
X57502507Y-57902153D01*
X57519789Y-57923211D01*
X57603842Y-57992191D01*
X57699737Y-58043448D01*
X57803789Y-58075012D01*
X57808866Y-58075512D01*
X57912000Y-58085670D01*
X57939108Y-58083000D01*
X59553298Y-58083000D01*
X59592123Y-58176731D01*
X59682628Y-58312181D01*
X59797819Y-58427372D01*
X59933269Y-58517877D01*
X60083773Y-58580218D01*
X60243548Y-58612000D01*
X60406452Y-58612000D01*
X60566227Y-58580218D01*
X60716731Y-58517877D01*
X60852181Y-58427372D01*
X60967372Y-58312181D01*
X61057877Y-58176731D01*
X61120218Y-58026227D01*
X61152000Y-57866452D01*
X61152000Y-57703548D01*
X61120218Y-57543773D01*
X61057877Y-57393269D01*
X60967372Y-57257819D01*
X60852181Y-57142628D01*
X60716731Y-57052123D01*
X60566227Y-56989782D01*
X60406452Y-56958000D01*
X60243548Y-56958000D01*
X60124774Y-56981626D01*
X60098109Y-56979000D01*
X60098106Y-56979000D01*
X60071000Y-56976330D01*
X60043894Y-56979000D01*
X58921547Y-56979000D01*
X58961218Y-56883227D01*
X58993000Y-56723452D01*
X58993000Y-56595646D01*
X59045154Y-56543492D01*
X59066211Y-56526211D01*
X59135191Y-56442158D01*
X59186448Y-56346263D01*
X59218012Y-56242211D01*
X59226000Y-56161109D01*
X59226000Y-56161099D01*
X59228669Y-56134001D01*
X59226000Y-56106903D01*
X59226000Y-55798548D01*
X59498000Y-55798548D01*
X59498000Y-55961452D01*
X59529782Y-56121227D01*
X59592123Y-56271731D01*
X59682628Y-56407181D01*
X59797819Y-56522372D01*
X59933269Y-56612877D01*
X60083773Y-56675218D01*
X60243548Y-56707000D01*
X60406452Y-56707000D01*
X60566227Y-56675218D01*
X60716731Y-56612877D01*
X60852181Y-56522372D01*
X60967372Y-56407181D01*
X61057877Y-56271731D01*
X61120218Y-56121227D01*
X61152000Y-55961452D01*
X61152000Y-55833644D01*
X63982646Y-53003000D01*
X73297350Y-53003000D01*
X78142994Y-57848646D01*
X78142994Y-57976452D01*
X78174776Y-58136227D01*
X78237117Y-58286731D01*
X78327622Y-58422181D01*
X78442813Y-58537372D01*
X78578263Y-58627877D01*
X78728767Y-58690218D01*
X78888542Y-58722000D01*
X79051446Y-58722000D01*
X79211221Y-58690218D01*
X79361725Y-58627877D01*
X79497175Y-58537372D01*
X79612366Y-58422181D01*
X79702871Y-58286731D01*
X79765212Y-58136227D01*
X79796994Y-57976452D01*
X79796994Y-57813548D01*
X79765212Y-57653773D01*
X79702871Y-57503269D01*
X79612366Y-57367819D01*
X79497175Y-57252628D01*
X79361725Y-57162123D01*
X79211221Y-57099782D01*
X79051446Y-57068000D01*
X78923640Y-57068000D01*
X73935495Y-52079857D01*
X73918205Y-52058789D01*
X73834152Y-51989809D01*
X73738257Y-51938552D01*
X73634205Y-51906988D01*
X73553103Y-51899000D01*
X73553100Y-51899000D01*
X73525994Y-51896330D01*
X73498888Y-51899000D01*
X63781097Y-51899000D01*
X63753999Y-51896331D01*
X63726901Y-51899000D01*
X63726891Y-51899000D01*
X63645789Y-51906988D01*
X63541737Y-51938552D01*
X63522716Y-51948719D01*
X63445841Y-51989809D01*
X63406221Y-52022325D01*
X63361789Y-52058789D01*
X63344508Y-52079846D01*
X60371356Y-55053000D01*
X60243548Y-55053000D01*
X60083773Y-55084782D01*
X59933269Y-55147123D01*
X59797819Y-55237628D01*
X59682628Y-55352819D01*
X59592123Y-55488269D01*
X59529782Y-55638773D01*
X59498000Y-55798548D01*
X59226000Y-55798548D01*
X59226000Y-50012644D01*
X60172646Y-49066000D01*
X60932894Y-49066000D01*
X60960000Y-49068670D01*
X60987106Y-49066000D01*
X60987109Y-49066000D01*
X61068211Y-49058012D01*
X61172263Y-49026448D01*
X61268158Y-48975191D01*
X61352211Y-48906211D01*
X61369500Y-48885144D01*
X61966154Y-48288492D01*
X61987211Y-48271211D01*
X62056191Y-48187158D01*
X62085632Y-48132078D01*
X62260114Y-48248663D01*
X62492513Y-48344926D01*
X62739226Y-48394000D01*
X62990774Y-48394000D01*
X63237487Y-48344926D01*
X63469886Y-48248663D01*
X63679040Y-48108911D01*
X63856911Y-47931040D01*
X63996663Y-47721886D01*
X64092926Y-47489487D01*
X64135000Y-47277966D01*
X64177074Y-47489487D01*
X64273337Y-47721886D01*
X64413089Y-47931040D01*
X64590960Y-48108911D01*
X64800114Y-48248663D01*
X65032513Y-48344926D01*
X65279226Y-48394000D01*
X65530774Y-48394000D01*
X65777487Y-48344926D01*
X66009886Y-48248663D01*
X66219040Y-48108911D01*
X66396911Y-47931040D01*
X66536663Y-47721886D01*
X66632926Y-47489487D01*
X66675000Y-47277966D01*
X66717074Y-47489487D01*
X66813337Y-47721886D01*
X66953089Y-47931040D01*
X67130960Y-48108911D01*
X67340114Y-48248663D01*
X67572513Y-48344926D01*
X67819226Y-48394000D01*
X68070774Y-48394000D01*
X68317487Y-48344926D01*
X68549886Y-48248663D01*
X68759040Y-48108911D01*
X68936911Y-47931040D01*
X69076663Y-47721886D01*
X69172926Y-47489487D01*
X69215000Y-47277966D01*
X69257074Y-47489487D01*
X69353337Y-47721886D01*
X69493089Y-47931040D01*
X69670960Y-48108911D01*
X69880114Y-48248663D01*
X70112513Y-48344926D01*
X70359226Y-48394000D01*
X70610774Y-48394000D01*
X70857487Y-48344926D01*
X71089886Y-48248663D01*
X71299040Y-48108911D01*
X71476911Y-47931040D01*
X71616663Y-47721886D01*
X71712926Y-47489487D01*
X71755000Y-47277966D01*
X71797074Y-47489487D01*
X71893337Y-47721886D01*
X72033089Y-47931040D01*
X72210960Y-48108911D01*
X72420114Y-48248663D01*
X72652513Y-48344926D01*
X72899226Y-48394000D01*
X73150774Y-48394000D01*
X73397487Y-48344926D01*
X73629886Y-48248663D01*
X73839040Y-48108911D01*
X74016911Y-47931040D01*
X74156663Y-47721886D01*
X74252926Y-47489487D01*
X74295000Y-47277966D01*
X74337074Y-47489487D01*
X74433337Y-47721886D01*
X74573089Y-47931040D01*
X74750960Y-48108911D01*
X74960114Y-48248663D01*
X75192513Y-48344926D01*
X75439226Y-48394000D01*
X75690774Y-48394000D01*
X75937487Y-48344926D01*
X76169886Y-48248663D01*
X76379040Y-48108911D01*
X76556911Y-47931040D01*
X76696663Y-47721886D01*
X76792926Y-47489487D01*
X76835000Y-47277966D01*
X76877074Y-47489487D01*
X76973337Y-47721886D01*
X77113089Y-47931040D01*
X77290960Y-48108911D01*
X77500114Y-48248663D01*
X77732513Y-48344926D01*
X77979226Y-48394000D01*
X78230774Y-48394000D01*
X78477487Y-48344926D01*
X78709886Y-48248663D01*
X78919040Y-48108911D01*
X79096911Y-47931040D01*
X79236663Y-47721886D01*
X79332926Y-47489487D01*
X79365934Y-47323544D01*
X79365934Y-47967000D01*
X79374178Y-48050707D01*
X79398595Y-48131196D01*
X79438245Y-48205376D01*
X79491605Y-48270395D01*
X79556624Y-48323755D01*
X79630804Y-48363405D01*
X79711293Y-48387822D01*
X79795000Y-48396066D01*
X81495000Y-48396066D01*
X81578707Y-48387822D01*
X81659196Y-48363405D01*
X81733376Y-48323755D01*
X81798395Y-48270395D01*
X81851755Y-48205376D01*
X81891405Y-48131196D01*
X81915822Y-48050707D01*
X81924066Y-47967000D01*
X81924066Y-46267000D01*
X81915822Y-46183293D01*
X81891405Y-46102804D01*
X81851755Y-46028624D01*
X81798395Y-45963605D01*
X81733376Y-45910245D01*
X81659196Y-45870595D01*
X81578707Y-45846178D01*
X81495000Y-45837934D01*
X80851544Y-45837934D01*
X81017487Y-45804926D01*
X81249886Y-45708663D01*
X81459040Y-45568911D01*
X81636911Y-45391040D01*
X81776663Y-45181886D01*
X81872926Y-44949487D01*
X81922000Y-44702774D01*
X81922000Y-44607000D01*
X85083000Y-44607000D01*
X85083000Y-44702774D01*
G37*
G04 #@! TD.AperFunction*
D23*
X89027000Y-95631000D02*
X89047000Y-95631000D01*
X89047000Y-95728000D01*
X88753000Y-95728000D01*
X88753000Y-95631000D01*
X88773000Y-95631000D01*
X88773000Y-95611000D01*
X89027000Y-95611000D01*
X89027000Y-95631000D01*
G04 #@! TA.AperFunction,Conductor*
D24*
G36*
X89027000Y-95631000D02*
G01*
X89047000Y-95631000D01*
X89047000Y-95728000D01*
X88753000Y-95728000D01*
X88753000Y-95631000D01*
X88773000Y-95631000D01*
X88773000Y-95611000D01*
X89027000Y-95611000D01*
X89027000Y-95631000D01*
G37*
G04 #@! TD.AperFunction*
D23*
X119660050Y-49365824D02*
X120179176Y-49884950D01*
X120789604Y-50292824D01*
X121467874Y-50573773D01*
X122187923Y-50717000D01*
X122922077Y-50717000D01*
X123642126Y-50573773D01*
X124320396Y-50292824D01*
X124813000Y-49963677D01*
X124813000Y-50772000D01*
X124651405Y-50762282D01*
X124332325Y-50806039D01*
X124027912Y-50911205D01*
X123853956Y-51004186D01*
X123758192Y-51268587D01*
X124714000Y-52224395D01*
X124728143Y-52210253D01*
X124813000Y-52295110D01*
X124813000Y-52512890D01*
X124728143Y-52597748D01*
X124714000Y-52583605D01*
X123758192Y-53539413D01*
X123841886Y-53770489D01*
X123804340Y-53795576D01*
X123605576Y-53994340D01*
X123449409Y-54228062D01*
X123398072Y-54352000D01*
X122929928Y-54352000D01*
X122878591Y-54228062D01*
X122722424Y-53994340D01*
X122523660Y-53795576D01*
X122486114Y-53770489D01*
X122569808Y-53539413D01*
X121614000Y-52583605D01*
X120658192Y-53539413D01*
X120741886Y-53770489D01*
X120704340Y-53795576D01*
X120505576Y-53994340D01*
X120349409Y-54228062D01*
X120241838Y-54487759D01*
X120187000Y-54763453D01*
X120187000Y-55044547D01*
X120241838Y-55320241D01*
X120349409Y-55579938D01*
X120505576Y-55813660D01*
X120666850Y-55974934D01*
X120614000Y-55974934D01*
X120530293Y-55983178D01*
X120449804Y-56007595D01*
X120375624Y-56047245D01*
X120310605Y-56100605D01*
X120257245Y-56165624D01*
X120217595Y-56239804D01*
X120193178Y-56320293D01*
X120184934Y-56404000D01*
X120184934Y-58404000D01*
X120193178Y-58487707D01*
X120217595Y-58568196D01*
X120257245Y-58642376D01*
X120310605Y-58707395D01*
X120375624Y-58760755D01*
X120449804Y-58800405D01*
X120530293Y-58824822D01*
X120614000Y-58833066D01*
X122614000Y-58833066D01*
X122697707Y-58824822D01*
X122778196Y-58800405D01*
X122852376Y-58760755D01*
X122917395Y-58707395D01*
X122970755Y-58642376D01*
X123010405Y-58568196D01*
X123034822Y-58487707D01*
X123043066Y-58404000D01*
X123043066Y-57956000D01*
X123284934Y-57956000D01*
X123284934Y-58404000D01*
X123293178Y-58487707D01*
X123317595Y-58568196D01*
X123357245Y-58642376D01*
X123410605Y-58707395D01*
X123475624Y-58760755D01*
X123549804Y-58800405D01*
X123630293Y-58824822D01*
X123714000Y-58833066D01*
X124813000Y-58833066D01*
X124813000Y-61207577D01*
X124737777Y-61157315D01*
X124387085Y-61012053D01*
X124014793Y-60938000D01*
X123635207Y-60938000D01*
X123262915Y-61012053D01*
X122912223Y-61157315D01*
X122596609Y-61368201D01*
X122328201Y-61636609D01*
X122117315Y-61952223D01*
X121972053Y-62302915D01*
X121898000Y-62675207D01*
X121898000Y-63054793D01*
X121972053Y-63427085D01*
X122080071Y-63687863D01*
X121268935Y-64498999D01*
X119768056Y-64498999D01*
X119973391Y-64361799D01*
X120241799Y-64093391D01*
X120452685Y-63777777D01*
X120597947Y-63427085D01*
X120672000Y-63054793D01*
X120672000Y-62675207D01*
X120597947Y-62302915D01*
X120452685Y-61952223D01*
X120241799Y-61636609D01*
X119973391Y-61368201D01*
X119657777Y-61157315D01*
X119307085Y-61012053D01*
X118934793Y-60938000D01*
X118555207Y-60938000D01*
X118182915Y-61012053D01*
X117832223Y-61157315D01*
X117516609Y-61368201D01*
X117248201Y-61636609D01*
X117037315Y-61952223D01*
X116892053Y-62302915D01*
X116818000Y-62675207D01*
X116818000Y-63054793D01*
X116892053Y-63427085D01*
X117037315Y-63777777D01*
X117248201Y-64093391D01*
X117516609Y-64361799D01*
X117721944Y-64498999D01*
X117352771Y-64498999D01*
X117231730Y-64418122D01*
X117081226Y-64355781D01*
X116921451Y-64323999D01*
X116758547Y-64323999D01*
X116598772Y-64355781D01*
X116448268Y-64418122D01*
X116312818Y-64508627D01*
X116197627Y-64623818D01*
X116107122Y-64759268D01*
X116044781Y-64909772D01*
X116012999Y-65069547D01*
X116012999Y-65232451D01*
X116044781Y-65392226D01*
X116107122Y-65542730D01*
X116197627Y-65678180D01*
X116312818Y-65793371D01*
X116448268Y-65883876D01*
X116598772Y-65946217D01*
X116758547Y-65977999D01*
X116921451Y-65977999D01*
X117081226Y-65946217D01*
X117231730Y-65883876D01*
X117352771Y-65802999D01*
X121506979Y-65802999D01*
X121539001Y-65806153D01*
X121571023Y-65802999D01*
X121666815Y-65793564D01*
X121789718Y-65756282D01*
X121902985Y-65695740D01*
X122002265Y-65614263D01*
X122022686Y-65589380D01*
X123002137Y-64609929D01*
X123262915Y-64717947D01*
X123635207Y-64792000D01*
X124014793Y-64792000D01*
X124387085Y-64717947D01*
X124737777Y-64572685D01*
X124813000Y-64522422D01*
X124813000Y-70097578D01*
X124737777Y-70047315D01*
X124387085Y-69902053D01*
X124014793Y-69828000D01*
X123635207Y-69828000D01*
X123262915Y-69902053D01*
X122912223Y-70047315D01*
X122596609Y-70258201D01*
X122328201Y-70526609D01*
X122117315Y-70842223D01*
X121972053Y-71192915D01*
X121898000Y-71565207D01*
X121898000Y-71944793D01*
X121972053Y-72317085D01*
X122117315Y-72667777D01*
X122328201Y-72983391D01*
X122596609Y-73251799D01*
X122912223Y-73462685D01*
X123262915Y-73607947D01*
X123635207Y-73682000D01*
X124014793Y-73682000D01*
X124387085Y-73607947D01*
X124737777Y-73462685D01*
X124813001Y-73412422D01*
X124813001Y-90371323D01*
X124320396Y-90042176D01*
X123642126Y-89761227D01*
X122922077Y-89618000D01*
X122187923Y-89618000D01*
X121467874Y-89761227D01*
X120789604Y-90042176D01*
X120179176Y-90450050D01*
X119660050Y-90969176D01*
X119252176Y-91579604D01*
X118971227Y-92257874D01*
X118828000Y-92977923D01*
X118828000Y-93712077D01*
X118971227Y-94432126D01*
X119252176Y-95110396D01*
X119660050Y-95720824D01*
X119667226Y-95728000D01*
X118117000Y-95728000D01*
X118117000Y-95632226D01*
X118067926Y-95385513D01*
X118046019Y-95332626D01*
X118481154Y-94897492D01*
X118502211Y-94880211D01*
X118530426Y-94845831D01*
X118571191Y-94796159D01*
X118603375Y-94735946D01*
X118622448Y-94700263D01*
X118654012Y-94596211D01*
X118662000Y-94515109D01*
X118662000Y-94515099D01*
X118664669Y-94488001D01*
X118662000Y-94460903D01*
X118662000Y-92610097D01*
X118664669Y-92582999D01*
X118662000Y-92555901D01*
X118662000Y-92555891D01*
X118654012Y-92474789D01*
X118622448Y-92370737D01*
X118576243Y-92284293D01*
X118571191Y-92274841D01*
X118519491Y-92211845D01*
X118502211Y-92190789D01*
X118481154Y-92173508D01*
X117030010Y-90722366D01*
X117030010Y-81031406D01*
X117032679Y-81004308D01*
X117030010Y-80977210D01*
X117030010Y-80977200D01*
X117022022Y-80896098D01*
X116990458Y-80792046D01*
X116942699Y-80702695D01*
X116939201Y-80696150D01*
X116887501Y-80633154D01*
X116870221Y-80612098D01*
X116849165Y-80594818D01*
X111008187Y-74753840D01*
X110990902Y-74732778D01*
X110906849Y-74663798D01*
X110810954Y-74612541D01*
X110706902Y-74580977D01*
X110625800Y-74572989D01*
X110625797Y-74572989D01*
X110598691Y-74570319D01*
X110571585Y-74572989D01*
X108671108Y-74572989D01*
X108644010Y-74570320D01*
X108616912Y-74572989D01*
X108616902Y-74572989D01*
X108535800Y-74580977D01*
X108431748Y-74612541D01*
X108387109Y-74636401D01*
X108335852Y-74663798D01*
X108305380Y-74688806D01*
X108251800Y-74732778D01*
X108234519Y-74753835D01*
X107615355Y-75373000D01*
X107553545Y-75373000D01*
X107393770Y-75404782D01*
X107243266Y-75467123D01*
X107107816Y-75557628D01*
X106992625Y-75672819D01*
X106902120Y-75808269D01*
X106839779Y-75958773D01*
X106807997Y-76118548D01*
X106807997Y-76281452D01*
X106839779Y-76441227D01*
X106902120Y-76591731D01*
X106992625Y-76727181D01*
X107107816Y-76842372D01*
X107243266Y-76932877D01*
X107393770Y-76995218D01*
X107553545Y-77027000D01*
X107716449Y-77027000D01*
X107876224Y-76995218D01*
X108026728Y-76932877D01*
X108109999Y-76877237D01*
X108193269Y-76932877D01*
X108343773Y-76995218D01*
X108503548Y-77027000D01*
X108666452Y-77027000D01*
X108826227Y-76995218D01*
X108976731Y-76932877D01*
X109112181Y-76842372D01*
X109220000Y-76734553D01*
X109303000Y-76817553D01*
X109303000Y-77188894D01*
X109300330Y-77216000D01*
X109303000Y-77243106D01*
X109303000Y-77243108D01*
X109310988Y-77324210D01*
X109342552Y-77428262D01*
X109393809Y-77524158D01*
X109462789Y-77608211D01*
X109483856Y-77625500D01*
X109699503Y-77841148D01*
X109716789Y-77862211D01*
X109800842Y-77931191D01*
X109896737Y-77982448D01*
X110000789Y-78014012D01*
X110081891Y-78022000D01*
X110081901Y-78022000D01*
X110108999Y-78024669D01*
X110136097Y-78022000D01*
X111017962Y-78022000D01*
X114637001Y-81641041D01*
X114637001Y-82649885D01*
X114634330Y-82677000D01*
X114637001Y-82704115D01*
X114637000Y-91983015D01*
X114425774Y-91941000D01*
X114174226Y-91941000D01*
X113927513Y-91990074D01*
X113695114Y-92086337D01*
X113582000Y-92161917D01*
X113582000Y-84482108D01*
X113584670Y-84455000D01*
X113574012Y-84346789D01*
X113542448Y-84242737D01*
X113491191Y-84146842D01*
X113439492Y-84083846D01*
X113439491Y-84083845D01*
X113422211Y-84062789D01*
X113401154Y-84045508D01*
X110047000Y-80691356D01*
X110047000Y-80563548D01*
X110015218Y-80403773D01*
X109952877Y-80253269D01*
X109862372Y-80117819D01*
X109747181Y-80002628D01*
X109611731Y-79912123D01*
X109461227Y-79849782D01*
X109301452Y-79818000D01*
X109138548Y-79818000D01*
X108978773Y-79849782D01*
X108828269Y-79912123D01*
X108692819Y-80002628D01*
X108577628Y-80117819D01*
X108487123Y-80253269D01*
X108424782Y-80403773D01*
X108393000Y-80563548D01*
X108393000Y-80726452D01*
X108424782Y-80886227D01*
X108487123Y-81036731D01*
X108577628Y-81172181D01*
X108692819Y-81287372D01*
X108828269Y-81377877D01*
X108978773Y-81440218D01*
X109138548Y-81472000D01*
X109266356Y-81472000D01*
X112478000Y-84683646D01*
X112478000Y-87059354D01*
X108009196Y-82590552D01*
X107991906Y-82569484D01*
X107907853Y-82500504D01*
X107811958Y-82449247D01*
X107707906Y-82417683D01*
X107626804Y-82409695D01*
X107626801Y-82409695D01*
X107599695Y-82407025D01*
X107572589Y-82409695D01*
X101359248Y-82409695D01*
X101268876Y-82319323D01*
X101133426Y-82228818D01*
X100982922Y-82166477D01*
X100823147Y-82134695D01*
X100660243Y-82134695D01*
X100500468Y-82166477D01*
X100349964Y-82228818D01*
X100214514Y-82319323D01*
X100099323Y-82434514D01*
X100008818Y-82569964D01*
X99946477Y-82720468D01*
X99914695Y-82880243D01*
X99914695Y-83043147D01*
X99946477Y-83202922D01*
X100008818Y-83353426D01*
X100099323Y-83488876D01*
X100214514Y-83604067D01*
X100349964Y-83694572D01*
X100500468Y-83756913D01*
X100660243Y-83788695D01*
X100823147Y-83788695D01*
X100982922Y-83756913D01*
X101133426Y-83694572D01*
X101268876Y-83604067D01*
X101359248Y-83513695D01*
X107371051Y-83513695D01*
X111970000Y-88112646D01*
X111970001Y-91957754D01*
X111885774Y-91941000D01*
X111634226Y-91941000D01*
X111387513Y-91990074D01*
X111155114Y-92086337D01*
X110945960Y-92226089D01*
X110768089Y-92403960D01*
X110628337Y-92613114D01*
X110532074Y-92845513D01*
X110490000Y-93057034D01*
X110447926Y-92845513D01*
X110351663Y-92613114D01*
X110211911Y-92403960D01*
X110034040Y-92226089D01*
X109824886Y-92086337D01*
X109592487Y-91990074D01*
X109345774Y-91941000D01*
X109094226Y-91941000D01*
X108847513Y-91990074D01*
X108615114Y-92086337D01*
X108405960Y-92226089D01*
X108228089Y-92403960D01*
X108088337Y-92613114D01*
X107992074Y-92845513D01*
X107950000Y-93057034D01*
X107907926Y-92845513D01*
X107811663Y-92613114D01*
X107671911Y-92403960D01*
X107494040Y-92226089D01*
X107284886Y-92086337D01*
X107052487Y-91990074D01*
X106805774Y-91941000D01*
X106554226Y-91941000D01*
X106307513Y-91990074D01*
X106075114Y-92086337D01*
X105865960Y-92226089D01*
X105688089Y-92403960D01*
X105548337Y-92613114D01*
X105452074Y-92845513D01*
X105410000Y-93057034D01*
X105367926Y-92845513D01*
X105271663Y-92613114D01*
X105131911Y-92403960D01*
X104954040Y-92226089D01*
X104744886Y-92086337D01*
X104512487Y-91990074D01*
X104265774Y-91941000D01*
X104014226Y-91941000D01*
X103767513Y-91990074D01*
X103535114Y-92086337D01*
X103325960Y-92226089D01*
X103148089Y-92403960D01*
X103008337Y-92613114D01*
X102912074Y-92845513D01*
X102870000Y-93057034D01*
X102827926Y-92845513D01*
X102731663Y-92613114D01*
X102591911Y-92403960D01*
X102414040Y-92226089D01*
X102204886Y-92086337D01*
X101972487Y-91990074D01*
X101725774Y-91941000D01*
X101474226Y-91941000D01*
X101227513Y-91990074D01*
X100995114Y-92086337D01*
X100785960Y-92226089D01*
X100608089Y-92403960D01*
X100468337Y-92613114D01*
X100372074Y-92845513D01*
X100330000Y-93057034D01*
X100287926Y-92845513D01*
X100191663Y-92613114D01*
X100051911Y-92403960D01*
X99874040Y-92226089D01*
X99664886Y-92086337D01*
X99432487Y-91990074D01*
X99185774Y-91941000D01*
X98934226Y-91941000D01*
X98687513Y-91990074D01*
X98455114Y-92086337D01*
X98245960Y-92226089D01*
X98068089Y-92403960D01*
X97928337Y-92613114D01*
X97832074Y-92845513D01*
X97790000Y-93057034D01*
X97747926Y-92845513D01*
X97651663Y-92613114D01*
X97511911Y-92403960D01*
X97334040Y-92226089D01*
X97124886Y-92086337D01*
X96892487Y-91990074D01*
X96645774Y-91941000D01*
X96394226Y-91941000D01*
X96147513Y-91990074D01*
X95915114Y-92086337D01*
X95705960Y-92226089D01*
X95528089Y-92403960D01*
X95388337Y-92613114D01*
X95292074Y-92845513D01*
X95250000Y-93057034D01*
X95207926Y-92845513D01*
X95111663Y-92613114D01*
X94971911Y-92403960D01*
X94794040Y-92226089D01*
X94584886Y-92086337D01*
X94352487Y-91990074D01*
X94105774Y-91941000D01*
X93854226Y-91941000D01*
X93607513Y-91990074D01*
X93375114Y-92086337D01*
X93165960Y-92226089D01*
X92988089Y-92403960D01*
X92848337Y-92613114D01*
X92752074Y-92845513D01*
X92710000Y-93057034D01*
X92667926Y-92845513D01*
X92571663Y-92613114D01*
X92431911Y-92403960D01*
X92254040Y-92226089D01*
X92044886Y-92086337D01*
X91812487Y-91990074D01*
X91565774Y-91941000D01*
X91314226Y-91941000D01*
X91067513Y-91990074D01*
X90835114Y-92086337D01*
X90625960Y-92226089D01*
X90448089Y-92403960D01*
X90308337Y-92613114D01*
X90212074Y-92845513D01*
X90170000Y-93057034D01*
X90127926Y-92845513D01*
X90031663Y-92613114D01*
X89891911Y-92403960D01*
X89714040Y-92226089D01*
X89504886Y-92086337D01*
X89272487Y-91990074D01*
X89025774Y-91941000D01*
X88774226Y-91941000D01*
X88527513Y-91990074D01*
X88295114Y-92086337D01*
X88085960Y-92226089D01*
X87908089Y-92403960D01*
X87768337Y-92613114D01*
X87672074Y-92845513D01*
X87639066Y-93011456D01*
X87639066Y-92368000D01*
X87630822Y-92284293D01*
X87606405Y-92203804D01*
X87566755Y-92129624D01*
X87513395Y-92064605D01*
X87448376Y-92011245D01*
X87374196Y-91971595D01*
X87293707Y-91947178D01*
X87210000Y-91938934D01*
X86402000Y-91938934D01*
X86402000Y-87910422D01*
X86612423Y-87700000D01*
X86801643Y-87700000D01*
X86885269Y-87755877D01*
X87035773Y-87818218D01*
X87195548Y-87850000D01*
X87358452Y-87850000D01*
X87518227Y-87818218D01*
X87668731Y-87755877D01*
X87804181Y-87665372D01*
X87919372Y-87550181D01*
X88009877Y-87414731D01*
X88072218Y-87264227D01*
X88104000Y-87104452D01*
X88104000Y-86941548D01*
X88072218Y-86781773D01*
X88009877Y-86631269D01*
X87919372Y-86495819D01*
X87804181Y-86380628D01*
X87668731Y-86290123D01*
X87518227Y-86227782D01*
X87358452Y-86196000D01*
X87195548Y-86196000D01*
X87035773Y-86227782D01*
X86885269Y-86290123D01*
X86801643Y-86346000D01*
X86365252Y-86346000D01*
X86332000Y-86342725D01*
X86199285Y-86355796D01*
X86071670Y-86394508D01*
X85954059Y-86457372D01*
X85885246Y-86513846D01*
X85850973Y-86541973D01*
X85829778Y-86567799D01*
X85269799Y-87127778D01*
X85255000Y-87139924D01*
X85255000Y-81953000D01*
X88229301Y-81953000D01*
X88274184Y-81944072D01*
X88319724Y-81939587D01*
X88363513Y-81926304D01*
X88408396Y-81917376D01*
X88450674Y-81899863D01*
X88494464Y-81886580D01*
X88534823Y-81865008D01*
X88577099Y-81847496D01*
X88615150Y-81822072D01*
X88655505Y-81800501D01*
X88690873Y-81771476D01*
X88728928Y-81746048D01*
X88761292Y-81713684D01*
X88796659Y-81684659D01*
X88825684Y-81649292D01*
X88858048Y-81616928D01*
X88883476Y-81578873D01*
X88912501Y-81543505D01*
X88934072Y-81503150D01*
X88959496Y-81465099D01*
X88977008Y-81422823D01*
X88998580Y-81382464D01*
X89011863Y-81338674D01*
X89029376Y-81296396D01*
X89038304Y-81251513D01*
X89051587Y-81207724D01*
X89056072Y-81162184D01*
X89065000Y-81117301D01*
X89065000Y-81071538D01*
X89069485Y-81026000D01*
X89065000Y-80980462D01*
X89065000Y-80934699D01*
X89056072Y-80889816D01*
X89051587Y-80844276D01*
X89038304Y-80800487D01*
X89029376Y-80755604D01*
X89011863Y-80713326D01*
X88998580Y-80669536D01*
X88977008Y-80629177D01*
X88959496Y-80586901D01*
X88934072Y-80548850D01*
X88912501Y-80508495D01*
X88883476Y-80473127D01*
X88858048Y-80435072D01*
X88825684Y-80402708D01*
X88796659Y-80367341D01*
X88761292Y-80338316D01*
X88728928Y-80305952D01*
X88690873Y-80280524D01*
X88655505Y-80251499D01*
X88615150Y-80229928D01*
X88577099Y-80204504D01*
X88534823Y-80186992D01*
X88494464Y-80165420D01*
X88450674Y-80152137D01*
X88408396Y-80134624D01*
X88363513Y-80125696D01*
X88319724Y-80112413D01*
X88274184Y-80107928D01*
X88229301Y-80099000D01*
X84597986Y-80099000D01*
X83490010Y-78991025D01*
X83490010Y-77401536D01*
X83494494Y-77356009D01*
X83490010Y-77310482D01*
X83490010Y-77310472D01*
X83476597Y-77174286D01*
X83423590Y-76999546D01*
X83357789Y-76876442D01*
X83337511Y-76838504D01*
X83250698Y-76732722D01*
X83250694Y-76732718D01*
X83221669Y-76697351D01*
X83186303Y-76668327D01*
X81191000Y-74673025D01*
X81191000Y-74086575D01*
X81269275Y-74138877D01*
X81419779Y-74201218D01*
X81579554Y-74233000D01*
X81742458Y-74233000D01*
X81902233Y-74201218D01*
X82052737Y-74138877D01*
X82188187Y-74048372D01*
X82303378Y-73933181D01*
X82393883Y-73797731D01*
X82456224Y-73647227D01*
X82488006Y-73487452D01*
X82488006Y-73324548D01*
X82456224Y-73164773D01*
X82393883Y-73014269D01*
X82376500Y-72988254D01*
X82376500Y-72077272D01*
X82457377Y-71956231D01*
X82519718Y-71805727D01*
X82551500Y-71645952D01*
X82551500Y-71483048D01*
X82519718Y-71323273D01*
X82457556Y-71173201D01*
X91396001Y-80111647D01*
X91396000Y-84554894D01*
X91393330Y-84582000D01*
X91396000Y-84609106D01*
X91396000Y-84609108D01*
X91403988Y-84690210D01*
X91435552Y-84794262D01*
X91486809Y-84890158D01*
X91555789Y-84974211D01*
X91576856Y-84991500D01*
X93534000Y-86948646D01*
X93534000Y-87076452D01*
X93565782Y-87236227D01*
X93628123Y-87386731D01*
X93718628Y-87522181D01*
X93833819Y-87637372D01*
X93969269Y-87727877D01*
X94119773Y-87790218D01*
X94279548Y-87822000D01*
X94442452Y-87822000D01*
X94602227Y-87790218D01*
X94752731Y-87727877D01*
X94888181Y-87637372D01*
X95003372Y-87522181D01*
X95093877Y-87386731D01*
X95156218Y-87236227D01*
X95188000Y-87076452D01*
X95188000Y-86913548D01*
X95156218Y-86753773D01*
X95093877Y-86603269D01*
X95003372Y-86467819D01*
X94888181Y-86352628D01*
X94752731Y-86262123D01*
X94602227Y-86199782D01*
X94442452Y-86168000D01*
X94314646Y-86168000D01*
X92500000Y-84353356D01*
X92500000Y-80308000D01*
X105463340Y-80308000D01*
X105490446Y-80310670D01*
X105517552Y-80308000D01*
X105517555Y-80308000D01*
X105598657Y-80300012D01*
X105702709Y-80268448D01*
X105798604Y-80217191D01*
X105882657Y-80148211D01*
X105899946Y-80127144D01*
X105926406Y-80100684D01*
X106054214Y-80100684D01*
X106213989Y-80068902D01*
X106364493Y-80006561D01*
X106499943Y-79916056D01*
X106615134Y-79800865D01*
X106705639Y-79665415D01*
X106767980Y-79514911D01*
X106799762Y-79355136D01*
X106799762Y-79192232D01*
X106767980Y-79032457D01*
X106705639Y-78881953D01*
X106615134Y-78746503D01*
X106499943Y-78631312D01*
X106364493Y-78540807D01*
X106213989Y-78478466D01*
X106054214Y-78446684D01*
X105891310Y-78446684D01*
X105731535Y-78478466D01*
X105581031Y-78540807D01*
X105445581Y-78631312D01*
X105330390Y-78746503D01*
X105239885Y-78881953D01*
X105177544Y-79032457D01*
X105145762Y-79192232D01*
X105145762Y-79204000D01*
X92684645Y-79204000D01*
X91504193Y-78023548D01*
X100519000Y-78023548D01*
X100519000Y-78186452D01*
X100550782Y-78346227D01*
X100613123Y-78496731D01*
X100703628Y-78632181D01*
X100818819Y-78747372D01*
X100954269Y-78837877D01*
X101104773Y-78900218D01*
X101264548Y-78932000D01*
X101427452Y-78932000D01*
X101587227Y-78900218D01*
X101737731Y-78837877D01*
X101873181Y-78747372D01*
X101988372Y-78632181D01*
X102078877Y-78496731D01*
X102141218Y-78346227D01*
X102173000Y-78186452D01*
X102173000Y-78058644D01*
X103787491Y-76444154D01*
X103787495Y-76444149D01*
X103818546Y-76413099D01*
X103866819Y-76461372D01*
X104002269Y-76551877D01*
X104152773Y-76614218D01*
X104312548Y-76646000D01*
X104475452Y-76646000D01*
X104635227Y-76614218D01*
X104785731Y-76551877D01*
X104921181Y-76461372D01*
X105036372Y-76346181D01*
X105126877Y-76210731D01*
X105189218Y-76060227D01*
X105221000Y-75900452D01*
X105221000Y-75737548D01*
X105189218Y-75577773D01*
X105126877Y-75427269D01*
X105036372Y-75291819D01*
X104921181Y-75176628D01*
X104785731Y-75086123D01*
X104635227Y-75023782D01*
X104475452Y-74992000D01*
X104312548Y-74992000D01*
X104152773Y-75023782D01*
X104002269Y-75086123D01*
X103866819Y-75176628D01*
X103776447Y-75267000D01*
X103659097Y-75267000D01*
X103631999Y-75264331D01*
X103604901Y-75267000D01*
X103604891Y-75267000D01*
X103523789Y-75274988D01*
X103419737Y-75306552D01*
X103323842Y-75357809D01*
X103239789Y-75426789D01*
X103222503Y-75447852D01*
X103006851Y-75663505D01*
X103006846Y-75663509D01*
X101392356Y-77278000D01*
X101264548Y-77278000D01*
X101104773Y-77309782D01*
X100954269Y-77372123D01*
X100818819Y-77462628D01*
X100703628Y-77577819D01*
X100613123Y-77713269D01*
X100550782Y-77863773D01*
X100519000Y-78023548D01*
X91504193Y-78023548D01*
X90107187Y-76626542D01*
X91883000Y-76626542D01*
X91883000Y-76789446D01*
X91914782Y-76949221D01*
X91977123Y-77099725D01*
X92067628Y-77235175D01*
X92182819Y-77350366D01*
X92318269Y-77440871D01*
X92468773Y-77503212D01*
X92628548Y-77534994D01*
X92791452Y-77534994D01*
X92951227Y-77503212D01*
X93101731Y-77440871D01*
X93237181Y-77350366D01*
X93352372Y-77235175D01*
X93442877Y-77099725D01*
X93505218Y-76949221D01*
X93537000Y-76789446D01*
X93537000Y-76661638D01*
X95732640Y-74466000D01*
X114920356Y-74466000D01*
X119823000Y-79368646D01*
X119823000Y-79496452D01*
X119854782Y-79656227D01*
X119917123Y-79806731D01*
X120007628Y-79942181D01*
X120122819Y-80057372D01*
X120258269Y-80147877D01*
X120408773Y-80210218D01*
X120568548Y-80242000D01*
X120731452Y-80242000D01*
X120891227Y-80210218D01*
X121041731Y-80147877D01*
X121177181Y-80057372D01*
X121292372Y-79942181D01*
X121382877Y-79806731D01*
X121445218Y-79656227D01*
X121477000Y-79496452D01*
X121477000Y-79333548D01*
X121445218Y-79173773D01*
X121382877Y-79023269D01*
X121292372Y-78887819D01*
X121177181Y-78772628D01*
X121041731Y-78682123D01*
X120891227Y-78619782D01*
X120731452Y-78588000D01*
X120603646Y-78588000D01*
X117429376Y-75413731D01*
X117506987Y-75361873D01*
X117622178Y-75246682D01*
X117712683Y-75111232D01*
X117775024Y-74960728D01*
X117806806Y-74800953D01*
X117806806Y-74638049D01*
X117775024Y-74478274D01*
X117712683Y-74327770D01*
X117622178Y-74192320D01*
X117506987Y-74077129D01*
X117371537Y-73986624D01*
X117221033Y-73924283D01*
X117116571Y-73903504D01*
X114778274Y-71565207D01*
X116818000Y-71565207D01*
X116818000Y-71944793D01*
X116892053Y-72317085D01*
X117037315Y-72667777D01*
X117248201Y-72983391D01*
X117516609Y-73251799D01*
X117832223Y-73462685D01*
X118182915Y-73607947D01*
X118555207Y-73682000D01*
X118934793Y-73682000D01*
X119307085Y-73607947D01*
X119657777Y-73462685D01*
X119973391Y-73251799D01*
X120241799Y-72983391D01*
X120452685Y-72667777D01*
X120597947Y-72317085D01*
X120672000Y-71944793D01*
X120672000Y-71565207D01*
X120597947Y-71192915D01*
X120452685Y-70842223D01*
X120241799Y-70526609D01*
X119973391Y-70258201D01*
X119657777Y-70047315D01*
X119307085Y-69902053D01*
X118934793Y-69828000D01*
X118555207Y-69828000D01*
X118182915Y-69902053D01*
X117832223Y-70047315D01*
X117516609Y-70258201D01*
X117248201Y-70526609D01*
X117037315Y-70842223D01*
X116892053Y-71192915D01*
X116818000Y-71565207D01*
X114778274Y-71565207D01*
X114451294Y-71238228D01*
X114397877Y-71109268D01*
X114307372Y-70973818D01*
X114192181Y-70858627D01*
X114056731Y-70768122D01*
X113906227Y-70705781D01*
X113746452Y-70673999D01*
X113583548Y-70673999D01*
X113423773Y-70705781D01*
X113273269Y-70768122D01*
X113137819Y-70858627D01*
X113022628Y-70973818D01*
X112932123Y-71109268D01*
X112869782Y-71259772D01*
X112838000Y-71419547D01*
X112838000Y-71582451D01*
X112869782Y-71742226D01*
X112932123Y-71892730D01*
X113022628Y-72028180D01*
X113137819Y-72143371D01*
X113273269Y-72233876D01*
X113423773Y-72296217D01*
X113583548Y-72327999D01*
X113696933Y-72327999D01*
X114730934Y-73362000D01*
X95531091Y-73362000D01*
X95503993Y-73359331D01*
X95476895Y-73362000D01*
X95476885Y-73362000D01*
X95395783Y-73369988D01*
X95291731Y-73401552D01*
X95195836Y-73452809D01*
X95111783Y-73521789D01*
X95094502Y-73542846D01*
X92756356Y-75880994D01*
X92628548Y-75880994D01*
X92468773Y-75912776D01*
X92318269Y-75975117D01*
X92182819Y-76065622D01*
X92067628Y-76180813D01*
X91977123Y-76316263D01*
X91914782Y-76466767D01*
X91883000Y-76626542D01*
X90107187Y-76626542D01*
X79965852Y-66485207D01*
X81893000Y-66485207D01*
X81893000Y-66864793D01*
X81967053Y-67237085D01*
X82112315Y-67587777D01*
X82323201Y-67903391D01*
X82591609Y-68171799D01*
X82907223Y-68382685D01*
X83257915Y-68527947D01*
X83630207Y-68602000D01*
X84009793Y-68602000D01*
X84382085Y-68527947D01*
X84732777Y-68382685D01*
X85048391Y-68171799D01*
X85316799Y-67903391D01*
X85527685Y-67587777D01*
X85672947Y-67237085D01*
X85747000Y-66864793D01*
X85747000Y-66485207D01*
X85672947Y-66112915D01*
X85527685Y-65762223D01*
X85316799Y-65446609D01*
X85048391Y-65178201D01*
X84732777Y-64967315D01*
X84382085Y-64822053D01*
X84009793Y-64748000D01*
X83630207Y-64748000D01*
X83257915Y-64822053D01*
X82907223Y-64967315D01*
X82591609Y-65178201D01*
X82323201Y-65446609D01*
X82112315Y-65762223D01*
X81967053Y-66112915D01*
X81893000Y-66485207D01*
X79965852Y-66485207D01*
X77053581Y-63572937D01*
X77084318Y-63556508D01*
X77126598Y-63538995D01*
X77164650Y-63513570D01*
X77205004Y-63492000D01*
X77240372Y-63462975D01*
X77278427Y-63437547D01*
X77407547Y-63308427D01*
X77407549Y-63308424D01*
X78023975Y-62691999D01*
X91898036Y-62691999D01*
X91833773Y-62704782D01*
X91683269Y-62767123D01*
X91547819Y-62857628D01*
X91432628Y-62972819D01*
X91342123Y-63108269D01*
X91279782Y-63258773D01*
X91248000Y-63418548D01*
X91248000Y-63581452D01*
X91279782Y-63741227D01*
X91342123Y-63891731D01*
X91432628Y-64027181D01*
X91547819Y-64142372D01*
X91683269Y-64232877D01*
X91833773Y-64295218D01*
X91993548Y-64327000D01*
X92121356Y-64327000D01*
X92681504Y-64887149D01*
X92698789Y-64908211D01*
X92782842Y-64977191D01*
X92878737Y-65028448D01*
X92945446Y-65048684D01*
X92751609Y-65178201D01*
X92483201Y-65446609D01*
X92272315Y-65762223D01*
X92127053Y-66112915D01*
X92053000Y-66485207D01*
X92053000Y-66864793D01*
X92127053Y-67237085D01*
X92272315Y-67587777D01*
X92483201Y-67903391D01*
X92751609Y-68171799D01*
X93067223Y-68382685D01*
X93417915Y-68527947D01*
X93790207Y-68602000D01*
X94169793Y-68602000D01*
X94542085Y-68527947D01*
X94892777Y-68382685D01*
X95208391Y-68171799D01*
X95476799Y-67903391D01*
X95687685Y-67587777D01*
X95832947Y-67237085D01*
X95907000Y-66864793D01*
X95907000Y-66485207D01*
X102213000Y-66485207D01*
X102213000Y-66864793D01*
X102287053Y-67237085D01*
X102432315Y-67587777D01*
X102643201Y-67903391D01*
X102911609Y-68171799D01*
X103227223Y-68382685D01*
X103577915Y-68527947D01*
X103950207Y-68602000D01*
X104329793Y-68602000D01*
X104702085Y-68527947D01*
X105052777Y-68382685D01*
X105368391Y-68171799D01*
X105636799Y-67903391D01*
X105847685Y-67587777D01*
X105992947Y-67237085D01*
X106067000Y-66864793D01*
X106067000Y-66485207D01*
X105992947Y-66112915D01*
X105847685Y-65762223D01*
X105636799Y-65446609D01*
X105368391Y-65178201D01*
X105052777Y-64967315D01*
X104702085Y-64822053D01*
X104329793Y-64748000D01*
X103950207Y-64748000D01*
X103577915Y-64822053D01*
X103227223Y-64967315D01*
X102911609Y-65178201D01*
X102643201Y-65446609D01*
X102432315Y-65762223D01*
X102287053Y-66112915D01*
X102213000Y-66485207D01*
X95907000Y-66485207D01*
X95832947Y-66112915D01*
X95687685Y-65762223D01*
X95476799Y-65446609D01*
X95208391Y-65178201D01*
X94892777Y-64967315D01*
X94570020Y-64833624D01*
X95244183Y-64159463D01*
X105954984Y-64159463D01*
X106045356Y-64249835D01*
X106180806Y-64340340D01*
X106331310Y-64402681D01*
X106491085Y-64434463D01*
X106653989Y-64434463D01*
X106813764Y-64402681D01*
X106964268Y-64340340D01*
X107099718Y-64249835D01*
X107214909Y-64134644D01*
X107305414Y-63999194D01*
X107367755Y-63848690D01*
X107399537Y-63688915D01*
X107399537Y-63526011D01*
X107367755Y-63366236D01*
X107305414Y-63215732D01*
X107214909Y-63080282D01*
X107099718Y-62965091D01*
X106964268Y-62874586D01*
X106813764Y-62812245D01*
X106653989Y-62780463D01*
X106491085Y-62780463D01*
X106331310Y-62812245D01*
X106237000Y-62851310D01*
X106237000Y-62812863D01*
X106212958Y-62691999D01*
X115481474Y-62691999D01*
X115527001Y-62696483D01*
X115572528Y-62691999D01*
X115572539Y-62691999D01*
X115708725Y-62678586D01*
X115883465Y-62625579D01*
X116044506Y-62539500D01*
X116185660Y-62423658D01*
X116214689Y-62388286D01*
X118963294Y-59639682D01*
X118998660Y-59610658D01*
X119027685Y-59575291D01*
X119027689Y-59575287D01*
X119114503Y-59469505D01*
X119200581Y-59308463D01*
X119209061Y-59280509D01*
X119253588Y-59133723D01*
X119267001Y-58997537D01*
X119267001Y-58997526D01*
X119271485Y-58951999D01*
X119267001Y-58906472D01*
X119267001Y-52466595D01*
X119972282Y-52466595D01*
X120016039Y-52785675D01*
X120121205Y-53090088D01*
X120214186Y-53264044D01*
X120478587Y-53359808D01*
X121434395Y-52404000D01*
X121793605Y-52404000D01*
X122749413Y-53359808D01*
X123013814Y-53264044D01*
X123154704Y-52974429D01*
X123166157Y-52930746D01*
X123221205Y-53090088D01*
X123314186Y-53264044D01*
X123578587Y-53359808D01*
X124534395Y-52404000D01*
X123578587Y-51448192D01*
X123314186Y-51543956D01*
X123173296Y-51833571D01*
X123161843Y-51877254D01*
X123106795Y-51717912D01*
X123013814Y-51543956D01*
X122749413Y-51448192D01*
X121793605Y-52404000D01*
X121434395Y-52404000D01*
X120478587Y-51448192D01*
X120214186Y-51543956D01*
X120073296Y-51833571D01*
X119991616Y-52145108D01*
X119972282Y-52466595D01*
X119267001Y-52466595D01*
X119267001Y-51268587D01*
X120658192Y-51268587D01*
X121614000Y-52224395D01*
X122569808Y-51268587D01*
X122474044Y-51004186D01*
X122184429Y-50863296D01*
X121872892Y-50781616D01*
X121551405Y-50762282D01*
X121232325Y-50806039D01*
X120927912Y-50911205D01*
X120753956Y-51004186D01*
X120658192Y-51268587D01*
X119267001Y-51268587D01*
X119267001Y-48777583D01*
X119660050Y-49365824D01*
G04 #@! TA.AperFunction,Conductor*
D24*
G36*
X119660050Y-49365824D02*
G01*
X120179176Y-49884950D01*
X120789604Y-50292824D01*
X121467874Y-50573773D01*
X122187923Y-50717000D01*
X122922077Y-50717000D01*
X123642126Y-50573773D01*
X124320396Y-50292824D01*
X124813000Y-49963677D01*
X124813000Y-50772000D01*
X124651405Y-50762282D01*
X124332325Y-50806039D01*
X124027912Y-50911205D01*
X123853956Y-51004186D01*
X123758192Y-51268587D01*
X124714000Y-52224395D01*
X124728143Y-52210253D01*
X124813000Y-52295110D01*
X124813000Y-52512890D01*
X124728143Y-52597748D01*
X124714000Y-52583605D01*
X123758192Y-53539413D01*
X123841886Y-53770489D01*
X123804340Y-53795576D01*
X123605576Y-53994340D01*
X123449409Y-54228062D01*
X123398072Y-54352000D01*
X122929928Y-54352000D01*
X122878591Y-54228062D01*
X122722424Y-53994340D01*
X122523660Y-53795576D01*
X122486114Y-53770489D01*
X122569808Y-53539413D01*
X121614000Y-52583605D01*
X120658192Y-53539413D01*
X120741886Y-53770489D01*
X120704340Y-53795576D01*
X120505576Y-53994340D01*
X120349409Y-54228062D01*
X120241838Y-54487759D01*
X120187000Y-54763453D01*
X120187000Y-55044547D01*
X120241838Y-55320241D01*
X120349409Y-55579938D01*
X120505576Y-55813660D01*
X120666850Y-55974934D01*
X120614000Y-55974934D01*
X120530293Y-55983178D01*
X120449804Y-56007595D01*
X120375624Y-56047245D01*
X120310605Y-56100605D01*
X120257245Y-56165624D01*
X120217595Y-56239804D01*
X120193178Y-56320293D01*
X120184934Y-56404000D01*
X120184934Y-58404000D01*
X120193178Y-58487707D01*
X120217595Y-58568196D01*
X120257245Y-58642376D01*
X120310605Y-58707395D01*
X120375624Y-58760755D01*
X120449804Y-58800405D01*
X120530293Y-58824822D01*
X120614000Y-58833066D01*
X122614000Y-58833066D01*
X122697707Y-58824822D01*
X122778196Y-58800405D01*
X122852376Y-58760755D01*
X122917395Y-58707395D01*
X122970755Y-58642376D01*
X123010405Y-58568196D01*
X123034822Y-58487707D01*
X123043066Y-58404000D01*
X123043066Y-57956000D01*
X123284934Y-57956000D01*
X123284934Y-58404000D01*
X123293178Y-58487707D01*
X123317595Y-58568196D01*
X123357245Y-58642376D01*
X123410605Y-58707395D01*
X123475624Y-58760755D01*
X123549804Y-58800405D01*
X123630293Y-58824822D01*
X123714000Y-58833066D01*
X124813000Y-58833066D01*
X124813000Y-61207577D01*
X124737777Y-61157315D01*
X124387085Y-61012053D01*
X124014793Y-60938000D01*
X123635207Y-60938000D01*
X123262915Y-61012053D01*
X122912223Y-61157315D01*
X122596609Y-61368201D01*
X122328201Y-61636609D01*
X122117315Y-61952223D01*
X121972053Y-62302915D01*
X121898000Y-62675207D01*
X121898000Y-63054793D01*
X121972053Y-63427085D01*
X122080071Y-63687863D01*
X121268935Y-64498999D01*
X119768056Y-64498999D01*
X119973391Y-64361799D01*
X120241799Y-64093391D01*
X120452685Y-63777777D01*
X120597947Y-63427085D01*
X120672000Y-63054793D01*
X120672000Y-62675207D01*
X120597947Y-62302915D01*
X120452685Y-61952223D01*
X120241799Y-61636609D01*
X119973391Y-61368201D01*
X119657777Y-61157315D01*
X119307085Y-61012053D01*
X118934793Y-60938000D01*
X118555207Y-60938000D01*
X118182915Y-61012053D01*
X117832223Y-61157315D01*
X117516609Y-61368201D01*
X117248201Y-61636609D01*
X117037315Y-61952223D01*
X116892053Y-62302915D01*
X116818000Y-62675207D01*
X116818000Y-63054793D01*
X116892053Y-63427085D01*
X117037315Y-63777777D01*
X117248201Y-64093391D01*
X117516609Y-64361799D01*
X117721944Y-64498999D01*
X117352771Y-64498999D01*
X117231730Y-64418122D01*
X117081226Y-64355781D01*
X116921451Y-64323999D01*
X116758547Y-64323999D01*
X116598772Y-64355781D01*
X116448268Y-64418122D01*
X116312818Y-64508627D01*
X116197627Y-64623818D01*
X116107122Y-64759268D01*
X116044781Y-64909772D01*
X116012999Y-65069547D01*
X116012999Y-65232451D01*
X116044781Y-65392226D01*
X116107122Y-65542730D01*
X116197627Y-65678180D01*
X116312818Y-65793371D01*
X116448268Y-65883876D01*
X116598772Y-65946217D01*
X116758547Y-65977999D01*
X116921451Y-65977999D01*
X117081226Y-65946217D01*
X117231730Y-65883876D01*
X117352771Y-65802999D01*
X121506979Y-65802999D01*
X121539001Y-65806153D01*
X121571023Y-65802999D01*
X121666815Y-65793564D01*
X121789718Y-65756282D01*
X121902985Y-65695740D01*
X122002265Y-65614263D01*
X122022686Y-65589380D01*
X123002137Y-64609929D01*
X123262915Y-64717947D01*
X123635207Y-64792000D01*
X124014793Y-64792000D01*
X124387085Y-64717947D01*
X124737777Y-64572685D01*
X124813000Y-64522422D01*
X124813000Y-70097578D01*
X124737777Y-70047315D01*
X124387085Y-69902053D01*
X124014793Y-69828000D01*
X123635207Y-69828000D01*
X123262915Y-69902053D01*
X122912223Y-70047315D01*
X122596609Y-70258201D01*
X122328201Y-70526609D01*
X122117315Y-70842223D01*
X121972053Y-71192915D01*
X121898000Y-71565207D01*
X121898000Y-71944793D01*
X121972053Y-72317085D01*
X122117315Y-72667777D01*
X122328201Y-72983391D01*
X122596609Y-73251799D01*
X122912223Y-73462685D01*
X123262915Y-73607947D01*
X123635207Y-73682000D01*
X124014793Y-73682000D01*
X124387085Y-73607947D01*
X124737777Y-73462685D01*
X124813001Y-73412422D01*
X124813001Y-90371323D01*
X124320396Y-90042176D01*
X123642126Y-89761227D01*
X122922077Y-89618000D01*
X122187923Y-89618000D01*
X121467874Y-89761227D01*
X120789604Y-90042176D01*
X120179176Y-90450050D01*
X119660050Y-90969176D01*
X119252176Y-91579604D01*
X118971227Y-92257874D01*
X118828000Y-92977923D01*
X118828000Y-93712077D01*
X118971227Y-94432126D01*
X119252176Y-95110396D01*
X119660050Y-95720824D01*
X119667226Y-95728000D01*
X118117000Y-95728000D01*
X118117000Y-95632226D01*
X118067926Y-95385513D01*
X118046019Y-95332626D01*
X118481154Y-94897492D01*
X118502211Y-94880211D01*
X118530426Y-94845831D01*
X118571191Y-94796159D01*
X118603375Y-94735946D01*
X118622448Y-94700263D01*
X118654012Y-94596211D01*
X118662000Y-94515109D01*
X118662000Y-94515099D01*
X118664669Y-94488001D01*
X118662000Y-94460903D01*
X118662000Y-92610097D01*
X118664669Y-92582999D01*
X118662000Y-92555901D01*
X118662000Y-92555891D01*
X118654012Y-92474789D01*
X118622448Y-92370737D01*
X118576243Y-92284293D01*
X118571191Y-92274841D01*
X118519491Y-92211845D01*
X118502211Y-92190789D01*
X118481154Y-92173508D01*
X117030010Y-90722366D01*
X117030010Y-81031406D01*
X117032679Y-81004308D01*
X117030010Y-80977210D01*
X117030010Y-80977200D01*
X117022022Y-80896098D01*
X116990458Y-80792046D01*
X116942699Y-80702695D01*
X116939201Y-80696150D01*
X116887501Y-80633154D01*
X116870221Y-80612098D01*
X116849165Y-80594818D01*
X111008187Y-74753840D01*
X110990902Y-74732778D01*
X110906849Y-74663798D01*
X110810954Y-74612541D01*
X110706902Y-74580977D01*
X110625800Y-74572989D01*
X110625797Y-74572989D01*
X110598691Y-74570319D01*
X110571585Y-74572989D01*
X108671108Y-74572989D01*
X108644010Y-74570320D01*
X108616912Y-74572989D01*
X108616902Y-74572989D01*
X108535800Y-74580977D01*
X108431748Y-74612541D01*
X108387109Y-74636401D01*
X108335852Y-74663798D01*
X108305380Y-74688806D01*
X108251800Y-74732778D01*
X108234519Y-74753835D01*
X107615355Y-75373000D01*
X107553545Y-75373000D01*
X107393770Y-75404782D01*
X107243266Y-75467123D01*
X107107816Y-75557628D01*
X106992625Y-75672819D01*
X106902120Y-75808269D01*
X106839779Y-75958773D01*
X106807997Y-76118548D01*
X106807997Y-76281452D01*
X106839779Y-76441227D01*
X106902120Y-76591731D01*
X106992625Y-76727181D01*
X107107816Y-76842372D01*
X107243266Y-76932877D01*
X107393770Y-76995218D01*
X107553545Y-77027000D01*
X107716449Y-77027000D01*
X107876224Y-76995218D01*
X108026728Y-76932877D01*
X108109999Y-76877237D01*
X108193269Y-76932877D01*
X108343773Y-76995218D01*
X108503548Y-77027000D01*
X108666452Y-77027000D01*
X108826227Y-76995218D01*
X108976731Y-76932877D01*
X109112181Y-76842372D01*
X109220000Y-76734553D01*
X109303000Y-76817553D01*
X109303000Y-77188894D01*
X109300330Y-77216000D01*
X109303000Y-77243106D01*
X109303000Y-77243108D01*
X109310988Y-77324210D01*
X109342552Y-77428262D01*
X109393809Y-77524158D01*
X109462789Y-77608211D01*
X109483856Y-77625500D01*
X109699503Y-77841148D01*
X109716789Y-77862211D01*
X109800842Y-77931191D01*
X109896737Y-77982448D01*
X110000789Y-78014012D01*
X110081891Y-78022000D01*
X110081901Y-78022000D01*
X110108999Y-78024669D01*
X110136097Y-78022000D01*
X111017962Y-78022000D01*
X114637001Y-81641041D01*
X114637001Y-82649885D01*
X114634330Y-82677000D01*
X114637001Y-82704115D01*
X114637000Y-91983015D01*
X114425774Y-91941000D01*
X114174226Y-91941000D01*
X113927513Y-91990074D01*
X113695114Y-92086337D01*
X113582000Y-92161917D01*
X113582000Y-84482108D01*
X113584670Y-84455000D01*
X113574012Y-84346789D01*
X113542448Y-84242737D01*
X113491191Y-84146842D01*
X113439492Y-84083846D01*
X113439491Y-84083845D01*
X113422211Y-84062789D01*
X113401154Y-84045508D01*
X110047000Y-80691356D01*
X110047000Y-80563548D01*
X110015218Y-80403773D01*
X109952877Y-80253269D01*
X109862372Y-80117819D01*
X109747181Y-80002628D01*
X109611731Y-79912123D01*
X109461227Y-79849782D01*
X109301452Y-79818000D01*
X109138548Y-79818000D01*
X108978773Y-79849782D01*
X108828269Y-79912123D01*
X108692819Y-80002628D01*
X108577628Y-80117819D01*
X108487123Y-80253269D01*
X108424782Y-80403773D01*
X108393000Y-80563548D01*
X108393000Y-80726452D01*
X108424782Y-80886227D01*
X108487123Y-81036731D01*
X108577628Y-81172181D01*
X108692819Y-81287372D01*
X108828269Y-81377877D01*
X108978773Y-81440218D01*
X109138548Y-81472000D01*
X109266356Y-81472000D01*
X112478000Y-84683646D01*
X112478000Y-87059354D01*
X108009196Y-82590552D01*
X107991906Y-82569484D01*
X107907853Y-82500504D01*
X107811958Y-82449247D01*
X107707906Y-82417683D01*
X107626804Y-82409695D01*
X107626801Y-82409695D01*
X107599695Y-82407025D01*
X107572589Y-82409695D01*
X101359248Y-82409695D01*
X101268876Y-82319323D01*
X101133426Y-82228818D01*
X100982922Y-82166477D01*
X100823147Y-82134695D01*
X100660243Y-82134695D01*
X100500468Y-82166477D01*
X100349964Y-82228818D01*
X100214514Y-82319323D01*
X100099323Y-82434514D01*
X100008818Y-82569964D01*
X99946477Y-82720468D01*
X99914695Y-82880243D01*
X99914695Y-83043147D01*
X99946477Y-83202922D01*
X100008818Y-83353426D01*
X100099323Y-83488876D01*
X100214514Y-83604067D01*
X100349964Y-83694572D01*
X100500468Y-83756913D01*
X100660243Y-83788695D01*
X100823147Y-83788695D01*
X100982922Y-83756913D01*
X101133426Y-83694572D01*
X101268876Y-83604067D01*
X101359248Y-83513695D01*
X107371051Y-83513695D01*
X111970000Y-88112646D01*
X111970001Y-91957754D01*
X111885774Y-91941000D01*
X111634226Y-91941000D01*
X111387513Y-91990074D01*
X111155114Y-92086337D01*
X110945960Y-92226089D01*
X110768089Y-92403960D01*
X110628337Y-92613114D01*
X110532074Y-92845513D01*
X110490000Y-93057034D01*
X110447926Y-92845513D01*
X110351663Y-92613114D01*
X110211911Y-92403960D01*
X110034040Y-92226089D01*
X109824886Y-92086337D01*
X109592487Y-91990074D01*
X109345774Y-91941000D01*
X109094226Y-91941000D01*
X108847513Y-91990074D01*
X108615114Y-92086337D01*
X108405960Y-92226089D01*
X108228089Y-92403960D01*
X108088337Y-92613114D01*
X107992074Y-92845513D01*
X107950000Y-93057034D01*
X107907926Y-92845513D01*
X107811663Y-92613114D01*
X107671911Y-92403960D01*
X107494040Y-92226089D01*
X107284886Y-92086337D01*
X107052487Y-91990074D01*
X106805774Y-91941000D01*
X106554226Y-91941000D01*
X106307513Y-91990074D01*
X106075114Y-92086337D01*
X105865960Y-92226089D01*
X105688089Y-92403960D01*
X105548337Y-92613114D01*
X105452074Y-92845513D01*
X105410000Y-93057034D01*
X105367926Y-92845513D01*
X105271663Y-92613114D01*
X105131911Y-92403960D01*
X104954040Y-92226089D01*
X104744886Y-92086337D01*
X104512487Y-91990074D01*
X104265774Y-91941000D01*
X104014226Y-91941000D01*
X103767513Y-91990074D01*
X103535114Y-92086337D01*
X103325960Y-92226089D01*
X103148089Y-92403960D01*
X103008337Y-92613114D01*
X102912074Y-92845513D01*
X102870000Y-93057034D01*
X102827926Y-92845513D01*
X102731663Y-92613114D01*
X102591911Y-92403960D01*
X102414040Y-92226089D01*
X102204886Y-92086337D01*
X101972487Y-91990074D01*
X101725774Y-91941000D01*
X101474226Y-91941000D01*
X101227513Y-91990074D01*
X100995114Y-92086337D01*
X100785960Y-92226089D01*
X100608089Y-92403960D01*
X100468337Y-92613114D01*
X100372074Y-92845513D01*
X100330000Y-93057034D01*
X100287926Y-92845513D01*
X100191663Y-92613114D01*
X100051911Y-92403960D01*
X99874040Y-92226089D01*
X99664886Y-92086337D01*
X99432487Y-91990074D01*
X99185774Y-91941000D01*
X98934226Y-91941000D01*
X98687513Y-91990074D01*
X98455114Y-92086337D01*
X98245960Y-92226089D01*
X98068089Y-92403960D01*
X97928337Y-92613114D01*
X97832074Y-92845513D01*
X97790000Y-93057034D01*
X97747926Y-92845513D01*
X97651663Y-92613114D01*
X97511911Y-92403960D01*
X97334040Y-92226089D01*
X97124886Y-92086337D01*
X96892487Y-91990074D01*
X96645774Y-91941000D01*
X96394226Y-91941000D01*
X96147513Y-91990074D01*
X95915114Y-92086337D01*
X95705960Y-92226089D01*
X95528089Y-92403960D01*
X95388337Y-92613114D01*
X95292074Y-92845513D01*
X95250000Y-93057034D01*
X95207926Y-92845513D01*
X95111663Y-92613114D01*
X94971911Y-92403960D01*
X94794040Y-92226089D01*
X94584886Y-92086337D01*
X94352487Y-91990074D01*
X94105774Y-91941000D01*
X93854226Y-91941000D01*
X93607513Y-91990074D01*
X93375114Y-92086337D01*
X93165960Y-92226089D01*
X92988089Y-92403960D01*
X92848337Y-92613114D01*
X92752074Y-92845513D01*
X92710000Y-93057034D01*
X92667926Y-92845513D01*
X92571663Y-92613114D01*
X92431911Y-92403960D01*
X92254040Y-92226089D01*
X92044886Y-92086337D01*
X91812487Y-91990074D01*
X91565774Y-91941000D01*
X91314226Y-91941000D01*
X91067513Y-91990074D01*
X90835114Y-92086337D01*
X90625960Y-92226089D01*
X90448089Y-92403960D01*
X90308337Y-92613114D01*
X90212074Y-92845513D01*
X90170000Y-93057034D01*
X90127926Y-92845513D01*
X90031663Y-92613114D01*
X89891911Y-92403960D01*
X89714040Y-92226089D01*
X89504886Y-92086337D01*
X89272487Y-91990074D01*
X89025774Y-91941000D01*
X88774226Y-91941000D01*
X88527513Y-91990074D01*
X88295114Y-92086337D01*
X88085960Y-92226089D01*
X87908089Y-92403960D01*
X87768337Y-92613114D01*
X87672074Y-92845513D01*
X87639066Y-93011456D01*
X87639066Y-92368000D01*
X87630822Y-92284293D01*
X87606405Y-92203804D01*
X87566755Y-92129624D01*
X87513395Y-92064605D01*
X87448376Y-92011245D01*
X87374196Y-91971595D01*
X87293707Y-91947178D01*
X87210000Y-91938934D01*
X86402000Y-91938934D01*
X86402000Y-87910422D01*
X86612423Y-87700000D01*
X86801643Y-87700000D01*
X86885269Y-87755877D01*
X87035773Y-87818218D01*
X87195548Y-87850000D01*
X87358452Y-87850000D01*
X87518227Y-87818218D01*
X87668731Y-87755877D01*
X87804181Y-87665372D01*
X87919372Y-87550181D01*
X88009877Y-87414731D01*
X88072218Y-87264227D01*
X88104000Y-87104452D01*
X88104000Y-86941548D01*
X88072218Y-86781773D01*
X88009877Y-86631269D01*
X87919372Y-86495819D01*
X87804181Y-86380628D01*
X87668731Y-86290123D01*
X87518227Y-86227782D01*
X87358452Y-86196000D01*
X87195548Y-86196000D01*
X87035773Y-86227782D01*
X86885269Y-86290123D01*
X86801643Y-86346000D01*
X86365252Y-86346000D01*
X86332000Y-86342725D01*
X86199285Y-86355796D01*
X86071670Y-86394508D01*
X85954059Y-86457372D01*
X85885246Y-86513846D01*
X85850973Y-86541973D01*
X85829778Y-86567799D01*
X85269799Y-87127778D01*
X85255000Y-87139924D01*
X85255000Y-81953000D01*
X88229301Y-81953000D01*
X88274184Y-81944072D01*
X88319724Y-81939587D01*
X88363513Y-81926304D01*
X88408396Y-81917376D01*
X88450674Y-81899863D01*
X88494464Y-81886580D01*
X88534823Y-81865008D01*
X88577099Y-81847496D01*
X88615150Y-81822072D01*
X88655505Y-81800501D01*
X88690873Y-81771476D01*
X88728928Y-81746048D01*
X88761292Y-81713684D01*
X88796659Y-81684659D01*
X88825684Y-81649292D01*
X88858048Y-81616928D01*
X88883476Y-81578873D01*
X88912501Y-81543505D01*
X88934072Y-81503150D01*
X88959496Y-81465099D01*
X88977008Y-81422823D01*
X88998580Y-81382464D01*
X89011863Y-81338674D01*
X89029376Y-81296396D01*
X89038304Y-81251513D01*
X89051587Y-81207724D01*
X89056072Y-81162184D01*
X89065000Y-81117301D01*
X89065000Y-81071538D01*
X89069485Y-81026000D01*
X89065000Y-80980462D01*
X89065000Y-80934699D01*
X89056072Y-80889816D01*
X89051587Y-80844276D01*
X89038304Y-80800487D01*
X89029376Y-80755604D01*
X89011863Y-80713326D01*
X88998580Y-80669536D01*
X88977008Y-80629177D01*
X88959496Y-80586901D01*
X88934072Y-80548850D01*
X88912501Y-80508495D01*
X88883476Y-80473127D01*
X88858048Y-80435072D01*
X88825684Y-80402708D01*
X88796659Y-80367341D01*
X88761292Y-80338316D01*
X88728928Y-80305952D01*
X88690873Y-80280524D01*
X88655505Y-80251499D01*
X88615150Y-80229928D01*
X88577099Y-80204504D01*
X88534823Y-80186992D01*
X88494464Y-80165420D01*
X88450674Y-80152137D01*
X88408396Y-80134624D01*
X88363513Y-80125696D01*
X88319724Y-80112413D01*
X88274184Y-80107928D01*
X88229301Y-80099000D01*
X84597986Y-80099000D01*
X83490010Y-78991025D01*
X83490010Y-77401536D01*
X83494494Y-77356009D01*
X83490010Y-77310482D01*
X83490010Y-77310472D01*
X83476597Y-77174286D01*
X83423590Y-76999546D01*
X83357789Y-76876442D01*
X83337511Y-76838504D01*
X83250698Y-76732722D01*
X83250694Y-76732718D01*
X83221669Y-76697351D01*
X83186303Y-76668327D01*
X81191000Y-74673025D01*
X81191000Y-74086575D01*
X81269275Y-74138877D01*
X81419779Y-74201218D01*
X81579554Y-74233000D01*
X81742458Y-74233000D01*
X81902233Y-74201218D01*
X82052737Y-74138877D01*
X82188187Y-74048372D01*
X82303378Y-73933181D01*
X82393883Y-73797731D01*
X82456224Y-73647227D01*
X82488006Y-73487452D01*
X82488006Y-73324548D01*
X82456224Y-73164773D01*
X82393883Y-73014269D01*
X82376500Y-72988254D01*
X82376500Y-72077272D01*
X82457377Y-71956231D01*
X82519718Y-71805727D01*
X82551500Y-71645952D01*
X82551500Y-71483048D01*
X82519718Y-71323273D01*
X82457556Y-71173201D01*
X91396001Y-80111647D01*
X91396000Y-84554894D01*
X91393330Y-84582000D01*
X91396000Y-84609106D01*
X91396000Y-84609108D01*
X91403988Y-84690210D01*
X91435552Y-84794262D01*
X91486809Y-84890158D01*
X91555789Y-84974211D01*
X91576856Y-84991500D01*
X93534000Y-86948646D01*
X93534000Y-87076452D01*
X93565782Y-87236227D01*
X93628123Y-87386731D01*
X93718628Y-87522181D01*
X93833819Y-87637372D01*
X93969269Y-87727877D01*
X94119773Y-87790218D01*
X94279548Y-87822000D01*
X94442452Y-87822000D01*
X94602227Y-87790218D01*
X94752731Y-87727877D01*
X94888181Y-87637372D01*
X95003372Y-87522181D01*
X95093877Y-87386731D01*
X95156218Y-87236227D01*
X95188000Y-87076452D01*
X95188000Y-86913548D01*
X95156218Y-86753773D01*
X95093877Y-86603269D01*
X95003372Y-86467819D01*
X94888181Y-86352628D01*
X94752731Y-86262123D01*
X94602227Y-86199782D01*
X94442452Y-86168000D01*
X94314646Y-86168000D01*
X92500000Y-84353356D01*
X92500000Y-80308000D01*
X105463340Y-80308000D01*
X105490446Y-80310670D01*
X105517552Y-80308000D01*
X105517555Y-80308000D01*
X105598657Y-80300012D01*
X105702709Y-80268448D01*
X105798604Y-80217191D01*
X105882657Y-80148211D01*
X105899946Y-80127144D01*
X105926406Y-80100684D01*
X106054214Y-80100684D01*
X106213989Y-80068902D01*
X106364493Y-80006561D01*
X106499943Y-79916056D01*
X106615134Y-79800865D01*
X106705639Y-79665415D01*
X106767980Y-79514911D01*
X106799762Y-79355136D01*
X106799762Y-79192232D01*
X106767980Y-79032457D01*
X106705639Y-78881953D01*
X106615134Y-78746503D01*
X106499943Y-78631312D01*
X106364493Y-78540807D01*
X106213989Y-78478466D01*
X106054214Y-78446684D01*
X105891310Y-78446684D01*
X105731535Y-78478466D01*
X105581031Y-78540807D01*
X105445581Y-78631312D01*
X105330390Y-78746503D01*
X105239885Y-78881953D01*
X105177544Y-79032457D01*
X105145762Y-79192232D01*
X105145762Y-79204000D01*
X92684645Y-79204000D01*
X91504193Y-78023548D01*
X100519000Y-78023548D01*
X100519000Y-78186452D01*
X100550782Y-78346227D01*
X100613123Y-78496731D01*
X100703628Y-78632181D01*
X100818819Y-78747372D01*
X100954269Y-78837877D01*
X101104773Y-78900218D01*
X101264548Y-78932000D01*
X101427452Y-78932000D01*
X101587227Y-78900218D01*
X101737731Y-78837877D01*
X101873181Y-78747372D01*
X101988372Y-78632181D01*
X102078877Y-78496731D01*
X102141218Y-78346227D01*
X102173000Y-78186452D01*
X102173000Y-78058644D01*
X103787491Y-76444154D01*
X103787495Y-76444149D01*
X103818546Y-76413099D01*
X103866819Y-76461372D01*
X104002269Y-76551877D01*
X104152773Y-76614218D01*
X104312548Y-76646000D01*
X104475452Y-76646000D01*
X104635227Y-76614218D01*
X104785731Y-76551877D01*
X104921181Y-76461372D01*
X105036372Y-76346181D01*
X105126877Y-76210731D01*
X105189218Y-76060227D01*
X105221000Y-75900452D01*
X105221000Y-75737548D01*
X105189218Y-75577773D01*
X105126877Y-75427269D01*
X105036372Y-75291819D01*
X104921181Y-75176628D01*
X104785731Y-75086123D01*
X104635227Y-75023782D01*
X104475452Y-74992000D01*
X104312548Y-74992000D01*
X104152773Y-75023782D01*
X104002269Y-75086123D01*
X103866819Y-75176628D01*
X103776447Y-75267000D01*
X103659097Y-75267000D01*
X103631999Y-75264331D01*
X103604901Y-75267000D01*
X103604891Y-75267000D01*
X103523789Y-75274988D01*
X103419737Y-75306552D01*
X103323842Y-75357809D01*
X103239789Y-75426789D01*
X103222503Y-75447852D01*
X103006851Y-75663505D01*
X103006846Y-75663509D01*
X101392356Y-77278000D01*
X101264548Y-77278000D01*
X101104773Y-77309782D01*
X100954269Y-77372123D01*
X100818819Y-77462628D01*
X100703628Y-77577819D01*
X100613123Y-77713269D01*
X100550782Y-77863773D01*
X100519000Y-78023548D01*
X91504193Y-78023548D01*
X90107187Y-76626542D01*
X91883000Y-76626542D01*
X91883000Y-76789446D01*
X91914782Y-76949221D01*
X91977123Y-77099725D01*
X92067628Y-77235175D01*
X92182819Y-77350366D01*
X92318269Y-77440871D01*
X92468773Y-77503212D01*
X92628548Y-77534994D01*
X92791452Y-77534994D01*
X92951227Y-77503212D01*
X93101731Y-77440871D01*
X93237181Y-77350366D01*
X93352372Y-77235175D01*
X93442877Y-77099725D01*
X93505218Y-76949221D01*
X93537000Y-76789446D01*
X93537000Y-76661638D01*
X95732640Y-74466000D01*
X114920356Y-74466000D01*
X119823000Y-79368646D01*
X119823000Y-79496452D01*
X119854782Y-79656227D01*
X119917123Y-79806731D01*
X120007628Y-79942181D01*
X120122819Y-80057372D01*
X120258269Y-80147877D01*
X120408773Y-80210218D01*
X120568548Y-80242000D01*
X120731452Y-80242000D01*
X120891227Y-80210218D01*
X121041731Y-80147877D01*
X121177181Y-80057372D01*
X121292372Y-79942181D01*
X121382877Y-79806731D01*
X121445218Y-79656227D01*
X121477000Y-79496452D01*
X121477000Y-79333548D01*
X121445218Y-79173773D01*
X121382877Y-79023269D01*
X121292372Y-78887819D01*
X121177181Y-78772628D01*
X121041731Y-78682123D01*
X120891227Y-78619782D01*
X120731452Y-78588000D01*
X120603646Y-78588000D01*
X117429376Y-75413731D01*
X117506987Y-75361873D01*
X117622178Y-75246682D01*
X117712683Y-75111232D01*
X117775024Y-74960728D01*
X117806806Y-74800953D01*
X117806806Y-74638049D01*
X117775024Y-74478274D01*
X117712683Y-74327770D01*
X117622178Y-74192320D01*
X117506987Y-74077129D01*
X117371537Y-73986624D01*
X117221033Y-73924283D01*
X117116571Y-73903504D01*
X114778274Y-71565207D01*
X116818000Y-71565207D01*
X116818000Y-71944793D01*
X116892053Y-72317085D01*
X117037315Y-72667777D01*
X117248201Y-72983391D01*
X117516609Y-73251799D01*
X117832223Y-73462685D01*
X118182915Y-73607947D01*
X118555207Y-73682000D01*
X118934793Y-73682000D01*
X119307085Y-73607947D01*
X119657777Y-73462685D01*
X119973391Y-73251799D01*
X120241799Y-72983391D01*
X120452685Y-72667777D01*
X120597947Y-72317085D01*
X120672000Y-71944793D01*
X120672000Y-71565207D01*
X120597947Y-71192915D01*
X120452685Y-70842223D01*
X120241799Y-70526609D01*
X119973391Y-70258201D01*
X119657777Y-70047315D01*
X119307085Y-69902053D01*
X118934793Y-69828000D01*
X118555207Y-69828000D01*
X118182915Y-69902053D01*
X117832223Y-70047315D01*
X117516609Y-70258201D01*
X117248201Y-70526609D01*
X117037315Y-70842223D01*
X116892053Y-71192915D01*
X116818000Y-71565207D01*
X114778274Y-71565207D01*
X114451294Y-71238228D01*
X114397877Y-71109268D01*
X114307372Y-70973818D01*
X114192181Y-70858627D01*
X114056731Y-70768122D01*
X113906227Y-70705781D01*
X113746452Y-70673999D01*
X113583548Y-70673999D01*
X113423773Y-70705781D01*
X113273269Y-70768122D01*
X113137819Y-70858627D01*
X113022628Y-70973818D01*
X112932123Y-71109268D01*
X112869782Y-71259772D01*
X112838000Y-71419547D01*
X112838000Y-71582451D01*
X112869782Y-71742226D01*
X112932123Y-71892730D01*
X113022628Y-72028180D01*
X113137819Y-72143371D01*
X113273269Y-72233876D01*
X113423773Y-72296217D01*
X113583548Y-72327999D01*
X113696933Y-72327999D01*
X114730934Y-73362000D01*
X95531091Y-73362000D01*
X95503993Y-73359331D01*
X95476895Y-73362000D01*
X95476885Y-73362000D01*
X95395783Y-73369988D01*
X95291731Y-73401552D01*
X95195836Y-73452809D01*
X95111783Y-73521789D01*
X95094502Y-73542846D01*
X92756356Y-75880994D01*
X92628548Y-75880994D01*
X92468773Y-75912776D01*
X92318269Y-75975117D01*
X92182819Y-76065622D01*
X92067628Y-76180813D01*
X91977123Y-76316263D01*
X91914782Y-76466767D01*
X91883000Y-76626542D01*
X90107187Y-76626542D01*
X79965852Y-66485207D01*
X81893000Y-66485207D01*
X81893000Y-66864793D01*
X81967053Y-67237085D01*
X82112315Y-67587777D01*
X82323201Y-67903391D01*
X82591609Y-68171799D01*
X82907223Y-68382685D01*
X83257915Y-68527947D01*
X83630207Y-68602000D01*
X84009793Y-68602000D01*
X84382085Y-68527947D01*
X84732777Y-68382685D01*
X85048391Y-68171799D01*
X85316799Y-67903391D01*
X85527685Y-67587777D01*
X85672947Y-67237085D01*
X85747000Y-66864793D01*
X85747000Y-66485207D01*
X85672947Y-66112915D01*
X85527685Y-65762223D01*
X85316799Y-65446609D01*
X85048391Y-65178201D01*
X84732777Y-64967315D01*
X84382085Y-64822053D01*
X84009793Y-64748000D01*
X83630207Y-64748000D01*
X83257915Y-64822053D01*
X82907223Y-64967315D01*
X82591609Y-65178201D01*
X82323201Y-65446609D01*
X82112315Y-65762223D01*
X81967053Y-66112915D01*
X81893000Y-66485207D01*
X79965852Y-66485207D01*
X77053581Y-63572937D01*
X77084318Y-63556508D01*
X77126598Y-63538995D01*
X77164650Y-63513570D01*
X77205004Y-63492000D01*
X77240372Y-63462975D01*
X77278427Y-63437547D01*
X77407547Y-63308427D01*
X77407549Y-63308424D01*
X78023975Y-62691999D01*
X91898036Y-62691999D01*
X91833773Y-62704782D01*
X91683269Y-62767123D01*
X91547819Y-62857628D01*
X91432628Y-62972819D01*
X91342123Y-63108269D01*
X91279782Y-63258773D01*
X91248000Y-63418548D01*
X91248000Y-63581452D01*
X91279782Y-63741227D01*
X91342123Y-63891731D01*
X91432628Y-64027181D01*
X91547819Y-64142372D01*
X91683269Y-64232877D01*
X91833773Y-64295218D01*
X91993548Y-64327000D01*
X92121356Y-64327000D01*
X92681504Y-64887149D01*
X92698789Y-64908211D01*
X92782842Y-64977191D01*
X92878737Y-65028448D01*
X92945446Y-65048684D01*
X92751609Y-65178201D01*
X92483201Y-65446609D01*
X92272315Y-65762223D01*
X92127053Y-66112915D01*
X92053000Y-66485207D01*
X92053000Y-66864793D01*
X92127053Y-67237085D01*
X92272315Y-67587777D01*
X92483201Y-67903391D01*
X92751609Y-68171799D01*
X93067223Y-68382685D01*
X93417915Y-68527947D01*
X93790207Y-68602000D01*
X94169793Y-68602000D01*
X94542085Y-68527947D01*
X94892777Y-68382685D01*
X95208391Y-68171799D01*
X95476799Y-67903391D01*
X95687685Y-67587777D01*
X95832947Y-67237085D01*
X95907000Y-66864793D01*
X95907000Y-66485207D01*
X102213000Y-66485207D01*
X102213000Y-66864793D01*
X102287053Y-67237085D01*
X102432315Y-67587777D01*
X102643201Y-67903391D01*
X102911609Y-68171799D01*
X103227223Y-68382685D01*
X103577915Y-68527947D01*
X103950207Y-68602000D01*
X104329793Y-68602000D01*
X104702085Y-68527947D01*
X105052777Y-68382685D01*
X105368391Y-68171799D01*
X105636799Y-67903391D01*
X105847685Y-67587777D01*
X105992947Y-67237085D01*
X106067000Y-66864793D01*
X106067000Y-66485207D01*
X105992947Y-66112915D01*
X105847685Y-65762223D01*
X105636799Y-65446609D01*
X105368391Y-65178201D01*
X105052777Y-64967315D01*
X104702085Y-64822053D01*
X104329793Y-64748000D01*
X103950207Y-64748000D01*
X103577915Y-64822053D01*
X103227223Y-64967315D01*
X102911609Y-65178201D01*
X102643201Y-65446609D01*
X102432315Y-65762223D01*
X102287053Y-66112915D01*
X102213000Y-66485207D01*
X95907000Y-66485207D01*
X95832947Y-66112915D01*
X95687685Y-65762223D01*
X95476799Y-65446609D01*
X95208391Y-65178201D01*
X94892777Y-64967315D01*
X94570020Y-64833624D01*
X95244183Y-64159463D01*
X105954984Y-64159463D01*
X106045356Y-64249835D01*
X106180806Y-64340340D01*
X106331310Y-64402681D01*
X106491085Y-64434463D01*
X106653989Y-64434463D01*
X106813764Y-64402681D01*
X106964268Y-64340340D01*
X107099718Y-64249835D01*
X107214909Y-64134644D01*
X107305414Y-63999194D01*
X107367755Y-63848690D01*
X107399537Y-63688915D01*
X107399537Y-63526011D01*
X107367755Y-63366236D01*
X107305414Y-63215732D01*
X107214909Y-63080282D01*
X107099718Y-62965091D01*
X106964268Y-62874586D01*
X106813764Y-62812245D01*
X106653989Y-62780463D01*
X106491085Y-62780463D01*
X106331310Y-62812245D01*
X106237000Y-62851310D01*
X106237000Y-62812863D01*
X106212958Y-62691999D01*
X115481474Y-62691999D01*
X115527001Y-62696483D01*
X115572528Y-62691999D01*
X115572539Y-62691999D01*
X115708725Y-62678586D01*
X115883465Y-62625579D01*
X116044506Y-62539500D01*
X116185660Y-62423658D01*
X116214689Y-62388286D01*
X118963294Y-59639682D01*
X118998660Y-59610658D01*
X119027685Y-59575291D01*
X119027689Y-59575287D01*
X119114503Y-59469505D01*
X119200581Y-59308463D01*
X119209061Y-59280509D01*
X119253588Y-59133723D01*
X119267001Y-58997537D01*
X119267001Y-58997526D01*
X119271485Y-58951999D01*
X119267001Y-58906472D01*
X119267001Y-52466595D01*
X119972282Y-52466595D01*
X120016039Y-52785675D01*
X120121205Y-53090088D01*
X120214186Y-53264044D01*
X120478587Y-53359808D01*
X121434395Y-52404000D01*
X121793605Y-52404000D01*
X122749413Y-53359808D01*
X123013814Y-53264044D01*
X123154704Y-52974429D01*
X123166157Y-52930746D01*
X123221205Y-53090088D01*
X123314186Y-53264044D01*
X123578587Y-53359808D01*
X124534395Y-52404000D01*
X123578587Y-51448192D01*
X123314186Y-51543956D01*
X123173296Y-51833571D01*
X123161843Y-51877254D01*
X123106795Y-51717912D01*
X123013814Y-51543956D01*
X122749413Y-51448192D01*
X121793605Y-52404000D01*
X121434395Y-52404000D01*
X120478587Y-51448192D01*
X120214186Y-51543956D01*
X120073296Y-51833571D01*
X119991616Y-52145108D01*
X119972282Y-52466595D01*
X119267001Y-52466595D01*
X119267001Y-51268587D01*
X120658192Y-51268587D01*
X121614000Y-52224395D01*
X122569808Y-51268587D01*
X122474044Y-51004186D01*
X122184429Y-50863296D01*
X121872892Y-50781616D01*
X121551405Y-50762282D01*
X121232325Y-50806039D01*
X120927912Y-50911205D01*
X120753956Y-51004186D01*
X120658192Y-51268587D01*
X119267001Y-51268587D01*
X119267001Y-48777583D01*
X119660050Y-49365824D01*
G37*
G04 #@! TD.AperFunction*
D23*
X87672074Y-93590487D02*
X87768337Y-93822886D01*
X87908089Y-94032040D01*
X88085960Y-94209911D01*
X88295114Y-94349663D01*
X88361949Y-94377347D01*
X88133080Y-94486359D01*
X87899731Y-94660412D01*
X87704822Y-94876645D01*
X87555843Y-95126748D01*
X87521197Y-95224416D01*
X87491663Y-95153114D01*
X87351911Y-94943960D01*
X87174040Y-94766089D01*
X86964886Y-94626337D01*
X86732487Y-94530074D01*
X86566544Y-94497066D01*
X87210000Y-94497066D01*
X87293707Y-94488822D01*
X87374196Y-94464405D01*
X87448376Y-94424755D01*
X87513395Y-94371395D01*
X87566755Y-94306376D01*
X87606405Y-94232196D01*
X87630822Y-94151707D01*
X87639066Y-94068000D01*
X87639066Y-93424544D01*
X87672074Y-93590487D01*
G04 #@! TA.AperFunction,Conductor*
D24*
G36*
X87672074Y-93590487D02*
G01*
X87768337Y-93822886D01*
X87908089Y-94032040D01*
X88085960Y-94209911D01*
X88295114Y-94349663D01*
X88361949Y-94377347D01*
X88133080Y-94486359D01*
X87899731Y-94660412D01*
X87704822Y-94876645D01*
X87555843Y-95126748D01*
X87521197Y-95224416D01*
X87491663Y-95153114D01*
X87351911Y-94943960D01*
X87174040Y-94766089D01*
X86964886Y-94626337D01*
X86732487Y-94530074D01*
X86566544Y-94497066D01*
X87210000Y-94497066D01*
X87293707Y-94488822D01*
X87374196Y-94464405D01*
X87448376Y-94424755D01*
X87513395Y-94371395D01*
X87566755Y-94306376D01*
X87606405Y-94232196D01*
X87630822Y-94151707D01*
X87639066Y-94068000D01*
X87639066Y-93424544D01*
X87672074Y-93590487D01*
G37*
G04 #@! TD.AperFunction*
D23*
X51477074Y-93590487D02*
X51573337Y-93822886D01*
X51713089Y-94032040D01*
X51890960Y-94209911D01*
X52100114Y-94349663D01*
X52166949Y-94377347D01*
X51938080Y-94486359D01*
X51704731Y-94660412D01*
X51509822Y-94876645D01*
X51360843Y-95126748D01*
X51326197Y-95224416D01*
X51296663Y-95153114D01*
X51156911Y-94943960D01*
X50979040Y-94766089D01*
X50769886Y-94626337D01*
X50537487Y-94530074D01*
X50371544Y-94497066D01*
X51015000Y-94497066D01*
X51098707Y-94488822D01*
X51179196Y-94464405D01*
X51253376Y-94424755D01*
X51318395Y-94371395D01*
X51371755Y-94306376D01*
X51411405Y-94232196D01*
X51435822Y-94151707D01*
X51444066Y-94068000D01*
X51444066Y-93424544D01*
X51477074Y-93590487D01*
G04 #@! TA.AperFunction,Conductor*
D24*
G36*
X51477074Y-93590487D02*
G01*
X51573337Y-93822886D01*
X51713089Y-94032040D01*
X51890960Y-94209911D01*
X52100114Y-94349663D01*
X52166949Y-94377347D01*
X51938080Y-94486359D01*
X51704731Y-94660412D01*
X51509822Y-94876645D01*
X51360843Y-95126748D01*
X51326197Y-95224416D01*
X51296663Y-95153114D01*
X51156911Y-94943960D01*
X50979040Y-94766089D01*
X50769886Y-94626337D01*
X50537487Y-94530074D01*
X50371544Y-94497066D01*
X51015000Y-94497066D01*
X51098707Y-94488822D01*
X51179196Y-94464405D01*
X51253376Y-94424755D01*
X51318395Y-94371395D01*
X51371755Y-94306376D01*
X51411405Y-94232196D01*
X51435822Y-94151707D01*
X51444066Y-94068000D01*
X51444066Y-93424544D01*
X51477074Y-93590487D01*
G37*
G04 #@! TD.AperFunction*
D23*
X90212074Y-93590487D02*
X90308337Y-93822886D01*
X90448089Y-94032040D01*
X90625960Y-94209911D01*
X90835114Y-94349663D01*
X91067513Y-94445926D01*
X91279034Y-94488000D01*
X91067513Y-94530074D01*
X90835114Y-94626337D01*
X90625960Y-94766089D01*
X90448089Y-94943960D01*
X90308337Y-95153114D01*
X90278803Y-95224416D01*
X90244157Y-95126748D01*
X90095178Y-94876645D01*
X89900269Y-94660412D01*
X89666920Y-94486359D01*
X89438051Y-94377347D01*
X89504886Y-94349663D01*
X89714040Y-94209911D01*
X89891911Y-94032040D01*
X90031663Y-93822886D01*
X90127926Y-93590487D01*
X90170000Y-93378966D01*
X90212074Y-93590487D01*
G04 #@! TA.AperFunction,Conductor*
D24*
G36*
X90212074Y-93590487D02*
G01*
X90308337Y-93822886D01*
X90448089Y-94032040D01*
X90625960Y-94209911D01*
X90835114Y-94349663D01*
X91067513Y-94445926D01*
X91279034Y-94488000D01*
X91067513Y-94530074D01*
X90835114Y-94626337D01*
X90625960Y-94766089D01*
X90448089Y-94943960D01*
X90308337Y-95153114D01*
X90278803Y-95224416D01*
X90244157Y-95126748D01*
X90095178Y-94876645D01*
X89900269Y-94660412D01*
X89666920Y-94486359D01*
X89438051Y-94377347D01*
X89504886Y-94349663D01*
X89714040Y-94209911D01*
X89891911Y-94032040D01*
X90031663Y-93822886D01*
X90127926Y-93590487D01*
X90170000Y-93378966D01*
X90212074Y-93590487D01*
G37*
G04 #@! TD.AperFunction*
D23*
X54017074Y-93590487D02*
X54113337Y-93822886D01*
X54253089Y-94032040D01*
X54430960Y-94209911D01*
X54640114Y-94349663D01*
X54872513Y-94445926D01*
X55084034Y-94488000D01*
X54872513Y-94530074D01*
X54640114Y-94626337D01*
X54430960Y-94766089D01*
X54253089Y-94943960D01*
X54113337Y-95153114D01*
X54083803Y-95224416D01*
X54049157Y-95126748D01*
X53900178Y-94876645D01*
X53705269Y-94660412D01*
X53471920Y-94486359D01*
X53243051Y-94377347D01*
X53309886Y-94349663D01*
X53519040Y-94209911D01*
X53696911Y-94032040D01*
X53836663Y-93822886D01*
X53932926Y-93590487D01*
X53975000Y-93378966D01*
X54017074Y-93590487D01*
G04 #@! TA.AperFunction,Conductor*
D24*
G36*
X54017074Y-93590487D02*
G01*
X54113337Y-93822886D01*
X54253089Y-94032040D01*
X54430960Y-94209911D01*
X54640114Y-94349663D01*
X54872513Y-94445926D01*
X55084034Y-94488000D01*
X54872513Y-94530074D01*
X54640114Y-94626337D01*
X54430960Y-94766089D01*
X54253089Y-94943960D01*
X54113337Y-95153114D01*
X54083803Y-95224416D01*
X54049157Y-95126748D01*
X53900178Y-94876645D01*
X53705269Y-94660412D01*
X53471920Y-94486359D01*
X53243051Y-94377347D01*
X53309886Y-94349663D01*
X53519040Y-94209911D01*
X53696911Y-94032040D01*
X53836663Y-93822886D01*
X53932926Y-93590487D01*
X53975000Y-93378966D01*
X54017074Y-93590487D01*
G37*
G04 #@! TD.AperFunction*
D23*
X42107315Y-77747777D02*
X42318201Y-78063391D01*
X42586609Y-78331799D01*
X42888000Y-78533182D01*
X42888001Y-82497461D01*
X42883516Y-82542998D01*
X42901414Y-82724721D01*
X42954420Y-82899461D01*
X43040499Y-83060503D01*
X43127312Y-83166285D01*
X43127317Y-83166290D01*
X43156342Y-83201657D01*
X43191708Y-83230682D01*
X43565639Y-83604612D01*
X43354549Y-83629666D01*
X42954617Y-83759757D01*
X42658962Y-83917786D01*
X42502952Y-84233347D01*
X43815000Y-85545395D01*
X43829143Y-85531253D01*
X44008748Y-85710858D01*
X43994605Y-85725000D01*
X45306653Y-87037048D01*
X45622214Y-86881038D01*
X45813020Y-86506255D01*
X45927044Y-86101449D01*
X45936886Y-85975860D01*
X47032271Y-87071244D01*
X47064312Y-87110287D01*
X47650500Y-87696476D01*
X47650501Y-91426466D01*
X47344950Y-90969176D01*
X46825824Y-90450050D01*
X46215396Y-90042176D01*
X45537126Y-89761227D01*
X44817077Y-89618000D01*
X44082923Y-89618000D01*
X43362874Y-89761227D01*
X42684604Y-90042176D01*
X42074176Y-90450050D01*
X42067000Y-90457226D01*
X42067000Y-87216653D01*
X42502952Y-87216653D01*
X42658962Y-87532214D01*
X43033745Y-87723020D01*
X43438551Y-87837044D01*
X43857824Y-87869902D01*
X44275451Y-87820334D01*
X44675383Y-87690243D01*
X44971038Y-87532214D01*
X45127048Y-87216653D01*
X43815000Y-85904605D01*
X42502952Y-87216653D01*
X42067000Y-87216653D01*
X42067000Y-86910313D01*
X42323347Y-87037048D01*
X43635395Y-85725000D01*
X42323347Y-84412952D01*
X42067000Y-84539687D01*
X42067000Y-77650448D01*
X42107315Y-77747777D01*
G04 #@! TA.AperFunction,Conductor*
D24*
G36*
X42107315Y-77747777D02*
G01*
X42318201Y-78063391D01*
X42586609Y-78331799D01*
X42888000Y-78533182D01*
X42888001Y-82497461D01*
X42883516Y-82542998D01*
X42901414Y-82724721D01*
X42954420Y-82899461D01*
X43040499Y-83060503D01*
X43127312Y-83166285D01*
X43127317Y-83166290D01*
X43156342Y-83201657D01*
X43191708Y-83230682D01*
X43565639Y-83604612D01*
X43354549Y-83629666D01*
X42954617Y-83759757D01*
X42658962Y-83917786D01*
X42502952Y-84233347D01*
X43815000Y-85545395D01*
X43829143Y-85531253D01*
X44008748Y-85710858D01*
X43994605Y-85725000D01*
X45306653Y-87037048D01*
X45622214Y-86881038D01*
X45813020Y-86506255D01*
X45927044Y-86101449D01*
X45936886Y-85975860D01*
X47032271Y-87071244D01*
X47064312Y-87110287D01*
X47650500Y-87696476D01*
X47650501Y-91426466D01*
X47344950Y-90969176D01*
X46825824Y-90450050D01*
X46215396Y-90042176D01*
X45537126Y-89761227D01*
X44817077Y-89618000D01*
X44082923Y-89618000D01*
X43362874Y-89761227D01*
X42684604Y-90042176D01*
X42074176Y-90450050D01*
X42067000Y-90457226D01*
X42067000Y-87216653D01*
X42502952Y-87216653D01*
X42658962Y-87532214D01*
X43033745Y-87723020D01*
X43438551Y-87837044D01*
X43857824Y-87869902D01*
X44275451Y-87820334D01*
X44675383Y-87690243D01*
X44971038Y-87532214D01*
X45127048Y-87216653D01*
X43815000Y-85904605D01*
X42502952Y-87216653D01*
X42067000Y-87216653D01*
X42067000Y-86910313D01*
X42323347Y-87037048D01*
X43635395Y-85725000D01*
X42323347Y-84412952D01*
X42067000Y-84539687D01*
X42067000Y-77650448D01*
X42107315Y-77747777D01*
G37*
G04 #@! TD.AperFunction*
D23*
X43370989Y-64400583D02*
X43368319Y-64427689D01*
X43370989Y-64454795D01*
X43370989Y-64454797D01*
X43378977Y-64535899D01*
X43410541Y-64639951D01*
X43461798Y-64735847D01*
X43530778Y-64819900D01*
X43551845Y-64837189D01*
X44890818Y-66176164D01*
X44908100Y-66197222D01*
X44992153Y-66266202D01*
X45088048Y-66317459D01*
X45192100Y-66349023D01*
X45273202Y-66357011D01*
X45273212Y-66357011D01*
X45300310Y-66359680D01*
X45327408Y-66357011D01*
X49994001Y-66357011D01*
X49994001Y-66438446D01*
X49903628Y-66528819D01*
X49813123Y-66664269D01*
X49750782Y-66814773D01*
X49719000Y-66974548D01*
X49719000Y-67137452D01*
X49750782Y-67297227D01*
X49813123Y-67447731D01*
X49832159Y-67476221D01*
X49828072Y-67478952D01*
X49795708Y-67511316D01*
X49760341Y-67540341D01*
X49731316Y-67575708D01*
X49698952Y-67608072D01*
X49673524Y-67646127D01*
X49644499Y-67681495D01*
X49622928Y-67721850D01*
X49597504Y-67759901D01*
X49579992Y-67802177D01*
X49558420Y-67842536D01*
X49545137Y-67886326D01*
X49527624Y-67928604D01*
X49518696Y-67973487D01*
X49505413Y-68017276D01*
X49500928Y-68062816D01*
X49492000Y-68107699D01*
X49492000Y-68153462D01*
X49487515Y-68199000D01*
X49492000Y-68244538D01*
X49492000Y-68290301D01*
X49492001Y-68290306D01*
X49492000Y-69212024D01*
X43796025Y-74908000D01*
X43625207Y-74908000D01*
X43252915Y-74982053D01*
X42902223Y-75127315D01*
X42586609Y-75338201D01*
X42318201Y-75606609D01*
X42107315Y-75922223D01*
X42067000Y-76019552D01*
X42067000Y-68760448D01*
X42107315Y-68857777D01*
X42318201Y-69173391D01*
X42586609Y-69441799D01*
X42902223Y-69652685D01*
X43252915Y-69797947D01*
X43625207Y-69872000D01*
X44004793Y-69872000D01*
X44377085Y-69797947D01*
X44727777Y-69652685D01*
X45043391Y-69441799D01*
X45311799Y-69173391D01*
X45522685Y-68857777D01*
X45667947Y-68507085D01*
X45742000Y-68134793D01*
X45742000Y-67755207D01*
X45667947Y-67382915D01*
X45522685Y-67032223D01*
X45311799Y-66716609D01*
X45043391Y-66448201D01*
X44727777Y-66237315D01*
X44377085Y-66092053D01*
X44004793Y-66018000D01*
X43625207Y-66018000D01*
X43252915Y-66092053D01*
X42902223Y-66237315D01*
X42586609Y-66448201D01*
X42318201Y-66716609D01*
X42107315Y-67032223D01*
X42067000Y-67129552D01*
X42067000Y-63926211D01*
X42125777Y-63932000D01*
X42874223Y-63932000D01*
X43021426Y-63917502D01*
X43210304Y-63860206D01*
X43370989Y-63774319D01*
X43370989Y-64400583D01*
G04 #@! TA.AperFunction,Conductor*
D24*
G36*
X43370989Y-64400583D02*
G01*
X43368319Y-64427689D01*
X43370989Y-64454795D01*
X43370989Y-64454797D01*
X43378977Y-64535899D01*
X43410541Y-64639951D01*
X43461798Y-64735847D01*
X43530778Y-64819900D01*
X43551845Y-64837189D01*
X44890818Y-66176164D01*
X44908100Y-66197222D01*
X44992153Y-66266202D01*
X45088048Y-66317459D01*
X45192100Y-66349023D01*
X45273202Y-66357011D01*
X45273212Y-66357011D01*
X45300310Y-66359680D01*
X45327408Y-66357011D01*
X49994001Y-66357011D01*
X49994001Y-66438446D01*
X49903628Y-66528819D01*
X49813123Y-66664269D01*
X49750782Y-66814773D01*
X49719000Y-66974548D01*
X49719000Y-67137452D01*
X49750782Y-67297227D01*
X49813123Y-67447731D01*
X49832159Y-67476221D01*
X49828072Y-67478952D01*
X49795708Y-67511316D01*
X49760341Y-67540341D01*
X49731316Y-67575708D01*
X49698952Y-67608072D01*
X49673524Y-67646127D01*
X49644499Y-67681495D01*
X49622928Y-67721850D01*
X49597504Y-67759901D01*
X49579992Y-67802177D01*
X49558420Y-67842536D01*
X49545137Y-67886326D01*
X49527624Y-67928604D01*
X49518696Y-67973487D01*
X49505413Y-68017276D01*
X49500928Y-68062816D01*
X49492000Y-68107699D01*
X49492000Y-68153462D01*
X49487515Y-68199000D01*
X49492000Y-68244538D01*
X49492000Y-68290301D01*
X49492001Y-68290306D01*
X49492000Y-69212024D01*
X43796025Y-74908000D01*
X43625207Y-74908000D01*
X43252915Y-74982053D01*
X42902223Y-75127315D01*
X42586609Y-75338201D01*
X42318201Y-75606609D01*
X42107315Y-75922223D01*
X42067000Y-76019552D01*
X42067000Y-68760448D01*
X42107315Y-68857777D01*
X42318201Y-69173391D01*
X42586609Y-69441799D01*
X42902223Y-69652685D01*
X43252915Y-69797947D01*
X43625207Y-69872000D01*
X44004793Y-69872000D01*
X44377085Y-69797947D01*
X44727777Y-69652685D01*
X45043391Y-69441799D01*
X45311799Y-69173391D01*
X45522685Y-68857777D01*
X45667947Y-68507085D01*
X45742000Y-68134793D01*
X45742000Y-67755207D01*
X45667947Y-67382915D01*
X45522685Y-67032223D01*
X45311799Y-66716609D01*
X45043391Y-66448201D01*
X44727777Y-66237315D01*
X44377085Y-66092053D01*
X44004793Y-66018000D01*
X43625207Y-66018000D01*
X43252915Y-66092053D01*
X42902223Y-66237315D01*
X42586609Y-66448201D01*
X42318201Y-66716609D01*
X42107315Y-67032223D01*
X42067000Y-67129552D01*
X42067000Y-63926211D01*
X42125777Y-63932000D01*
X42874223Y-63932000D01*
X43021426Y-63917502D01*
X43210304Y-63860206D01*
X43370989Y-63774319D01*
X43370989Y-64400583D01*
G37*
G04 #@! TD.AperFunction*
D23*
X49120507Y-48885153D02*
X49137789Y-48906211D01*
X49158845Y-48923491D01*
X49158846Y-48923492D01*
X49221842Y-48975191D01*
X49317737Y-49026448D01*
X49421789Y-49058012D01*
X49530000Y-49068670D01*
X49557108Y-49066000D01*
X53365356Y-49066000D01*
X55201000Y-50901646D01*
X55201001Y-55095356D01*
X51587000Y-51481356D01*
X51587000Y-51353548D01*
X51555218Y-51193773D01*
X51492877Y-51043269D01*
X51402372Y-50907819D01*
X51287181Y-50792628D01*
X51151731Y-50702123D01*
X51001227Y-50639782D01*
X50841452Y-50608000D01*
X50678548Y-50608000D01*
X50518773Y-50639782D01*
X50368269Y-50702123D01*
X50232819Y-50792628D01*
X50117628Y-50907819D01*
X50027123Y-51043269D01*
X49964782Y-51193773D01*
X49933000Y-51353548D01*
X49933000Y-51516452D01*
X49964782Y-51676227D01*
X50027123Y-51826731D01*
X50117628Y-51962181D01*
X50232819Y-52077372D01*
X50368269Y-52167877D01*
X50518773Y-52230218D01*
X50678548Y-52262000D01*
X50806356Y-52262000D01*
X54820000Y-56275645D01*
X54820001Y-57172693D01*
X54670967Y-57234425D01*
X54535517Y-57324930D01*
X54420326Y-57440121D01*
X54329821Y-57575571D01*
X54267480Y-57726075D01*
X54235698Y-57885850D01*
X54235698Y-58048754D01*
X54267480Y-58208529D01*
X54329821Y-58359033D01*
X54420326Y-58494483D01*
X54535517Y-58609674D01*
X54670967Y-58700179D01*
X54685964Y-58706391D01*
X51862356Y-61530000D01*
X51734548Y-61530000D01*
X51574773Y-61561782D01*
X51424269Y-61624123D01*
X51288819Y-61714628D01*
X51173628Y-61829819D01*
X51083123Y-61965269D01*
X51020782Y-62115773D01*
X50989000Y-62275548D01*
X50989000Y-62438452D01*
X51020782Y-62598227D01*
X51083123Y-62748731D01*
X51173628Y-62884181D01*
X51288819Y-62999372D01*
X51424269Y-63089877D01*
X51574773Y-63152218D01*
X51734548Y-63184000D01*
X51897452Y-63184000D01*
X52057227Y-63152218D01*
X52091413Y-63138058D01*
X52149626Y-63225179D01*
X52264817Y-63340370D01*
X52400267Y-63430875D01*
X52550771Y-63493216D01*
X52710546Y-63524998D01*
X52873450Y-63524998D01*
X52945466Y-63510673D01*
X52945466Y-63588789D01*
X52977248Y-63748564D01*
X53039589Y-63899068D01*
X53130094Y-64034518D01*
X53245285Y-64149709D01*
X53313429Y-64195241D01*
X52655671Y-64853000D01*
X45694646Y-64853000D01*
X44875000Y-64033356D01*
X44875000Y-62856902D01*
X44889668Y-63005831D01*
X44955541Y-63222984D01*
X45062512Y-63423114D01*
X45206472Y-63598528D01*
X45381886Y-63742488D01*
X45582016Y-63849459D01*
X45799169Y-63915332D01*
X45968405Y-63932000D01*
X46631595Y-63932000D01*
X46800831Y-63915332D01*
X47017984Y-63849459D01*
X47218114Y-63742488D01*
X47393528Y-63598528D01*
X47537488Y-63423114D01*
X47644459Y-63222984D01*
X47710332Y-63005831D01*
X47732574Y-62780000D01*
X47710332Y-62554169D01*
X47644459Y-62337016D01*
X47537488Y-62136886D01*
X47393528Y-61961472D01*
X47218114Y-61817512D01*
X47017984Y-61710541D01*
X46800831Y-61644668D01*
X46631595Y-61628000D01*
X46077000Y-61628000D01*
X46077000Y-61473548D01*
X46045218Y-61313773D01*
X45982877Y-61163269D01*
X45892372Y-61027819D01*
X45777181Y-60912628D01*
X45641731Y-60822123D01*
X45491227Y-60759782D01*
X45331452Y-60728000D01*
X45168548Y-60728000D01*
X45008773Y-60759782D01*
X44875000Y-60815193D01*
X44875000Y-57294807D01*
X45008773Y-57350218D01*
X45168548Y-57382000D01*
X45331452Y-57382000D01*
X45491227Y-57350218D01*
X45641731Y-57287877D01*
X45777181Y-57197372D01*
X45892372Y-57082181D01*
X45982877Y-56946731D01*
X46045218Y-56796227D01*
X46077000Y-56636452D01*
X46077000Y-56482000D01*
X46631595Y-56482000D01*
X46800831Y-56465332D01*
X47017984Y-56399459D01*
X47218114Y-56292488D01*
X47393528Y-56148528D01*
X47537488Y-55973114D01*
X47644459Y-55772984D01*
X47710332Y-55555831D01*
X47732574Y-55330000D01*
X47710332Y-55104169D01*
X47644459Y-54887016D01*
X47537488Y-54686886D01*
X47393528Y-54511472D01*
X47218114Y-54367512D01*
X47017984Y-54260541D01*
X46800831Y-54194668D01*
X46631595Y-54178000D01*
X45968405Y-54178000D01*
X45799169Y-54194668D01*
X45582016Y-54260541D01*
X45381886Y-54367512D01*
X45206472Y-54511472D01*
X45062512Y-54686886D01*
X44955541Y-54887016D01*
X44889668Y-55104169D01*
X44875000Y-55253098D01*
X44875000Y-54584644D01*
X48866144Y-50593502D01*
X48887201Y-50576221D01*
X48956181Y-50492168D01*
X49007438Y-50396273D01*
X49039002Y-50292221D01*
X49046990Y-50211119D01*
X49046990Y-50211118D01*
X49049660Y-50184010D01*
X49046990Y-50156902D01*
X49046990Y-48811636D01*
X49120507Y-48885153D01*
G04 #@! TA.AperFunction,Conductor*
D24*
G36*
X49120507Y-48885153D02*
G01*
X49137789Y-48906211D01*
X49158845Y-48923491D01*
X49158846Y-48923492D01*
X49221842Y-48975191D01*
X49317737Y-49026448D01*
X49421789Y-49058012D01*
X49530000Y-49068670D01*
X49557108Y-49066000D01*
X53365356Y-49066000D01*
X55201000Y-50901646D01*
X55201001Y-55095356D01*
X51587000Y-51481356D01*
X51587000Y-51353548D01*
X51555218Y-51193773D01*
X51492877Y-51043269D01*
X51402372Y-50907819D01*
X51287181Y-50792628D01*
X51151731Y-50702123D01*
X51001227Y-50639782D01*
X50841452Y-50608000D01*
X50678548Y-50608000D01*
X50518773Y-50639782D01*
X50368269Y-50702123D01*
X50232819Y-50792628D01*
X50117628Y-50907819D01*
X50027123Y-51043269D01*
X49964782Y-51193773D01*
X49933000Y-51353548D01*
X49933000Y-51516452D01*
X49964782Y-51676227D01*
X50027123Y-51826731D01*
X50117628Y-51962181D01*
X50232819Y-52077372D01*
X50368269Y-52167877D01*
X50518773Y-52230218D01*
X50678548Y-52262000D01*
X50806356Y-52262000D01*
X54820000Y-56275645D01*
X54820001Y-57172693D01*
X54670967Y-57234425D01*
X54535517Y-57324930D01*
X54420326Y-57440121D01*
X54329821Y-57575571D01*
X54267480Y-57726075D01*
X54235698Y-57885850D01*
X54235698Y-58048754D01*
X54267480Y-58208529D01*
X54329821Y-58359033D01*
X54420326Y-58494483D01*
X54535517Y-58609674D01*
X54670967Y-58700179D01*
X54685964Y-58706391D01*
X51862356Y-61530000D01*
X51734548Y-61530000D01*
X51574773Y-61561782D01*
X51424269Y-61624123D01*
X51288819Y-61714628D01*
X51173628Y-61829819D01*
X51083123Y-61965269D01*
X51020782Y-62115773D01*
X50989000Y-62275548D01*
X50989000Y-62438452D01*
X51020782Y-62598227D01*
X51083123Y-62748731D01*
X51173628Y-62884181D01*
X51288819Y-62999372D01*
X51424269Y-63089877D01*
X51574773Y-63152218D01*
X51734548Y-63184000D01*
X51897452Y-63184000D01*
X52057227Y-63152218D01*
X52091413Y-63138058D01*
X52149626Y-63225179D01*
X52264817Y-63340370D01*
X52400267Y-63430875D01*
X52550771Y-63493216D01*
X52710546Y-63524998D01*
X52873450Y-63524998D01*
X52945466Y-63510673D01*
X52945466Y-63588789D01*
X52977248Y-63748564D01*
X53039589Y-63899068D01*
X53130094Y-64034518D01*
X53245285Y-64149709D01*
X53313429Y-64195241D01*
X52655671Y-64853000D01*
X45694646Y-64853000D01*
X44875000Y-64033356D01*
X44875000Y-62856902D01*
X44889668Y-63005831D01*
X44955541Y-63222984D01*
X45062512Y-63423114D01*
X45206472Y-63598528D01*
X45381886Y-63742488D01*
X45582016Y-63849459D01*
X45799169Y-63915332D01*
X45968405Y-63932000D01*
X46631595Y-63932000D01*
X46800831Y-63915332D01*
X47017984Y-63849459D01*
X47218114Y-63742488D01*
X47393528Y-63598528D01*
X47537488Y-63423114D01*
X47644459Y-63222984D01*
X47710332Y-63005831D01*
X47732574Y-62780000D01*
X47710332Y-62554169D01*
X47644459Y-62337016D01*
X47537488Y-62136886D01*
X47393528Y-61961472D01*
X47218114Y-61817512D01*
X47017984Y-61710541D01*
X46800831Y-61644668D01*
X46631595Y-61628000D01*
X46077000Y-61628000D01*
X46077000Y-61473548D01*
X46045218Y-61313773D01*
X45982877Y-61163269D01*
X45892372Y-61027819D01*
X45777181Y-60912628D01*
X45641731Y-60822123D01*
X45491227Y-60759782D01*
X45331452Y-60728000D01*
X45168548Y-60728000D01*
X45008773Y-60759782D01*
X44875000Y-60815193D01*
X44875000Y-57294807D01*
X45008773Y-57350218D01*
X45168548Y-57382000D01*
X45331452Y-57382000D01*
X45491227Y-57350218D01*
X45641731Y-57287877D01*
X45777181Y-57197372D01*
X45892372Y-57082181D01*
X45982877Y-56946731D01*
X46045218Y-56796227D01*
X46077000Y-56636452D01*
X46077000Y-56482000D01*
X46631595Y-56482000D01*
X46800831Y-56465332D01*
X47017984Y-56399459D01*
X47218114Y-56292488D01*
X47393528Y-56148528D01*
X47537488Y-55973114D01*
X47644459Y-55772984D01*
X47710332Y-55555831D01*
X47732574Y-55330000D01*
X47710332Y-55104169D01*
X47644459Y-54887016D01*
X47537488Y-54686886D01*
X47393528Y-54511472D01*
X47218114Y-54367512D01*
X47017984Y-54260541D01*
X46800831Y-54194668D01*
X46631595Y-54178000D01*
X45968405Y-54178000D01*
X45799169Y-54194668D01*
X45582016Y-54260541D01*
X45381886Y-54367512D01*
X45206472Y-54511472D01*
X45062512Y-54686886D01*
X44955541Y-54887016D01*
X44889668Y-55104169D01*
X44875000Y-55253098D01*
X44875000Y-54584644D01*
X48866144Y-50593502D01*
X48887201Y-50576221D01*
X48956181Y-50492168D01*
X49007438Y-50396273D01*
X49039002Y-50292221D01*
X49046990Y-50211119D01*
X49046990Y-50211118D01*
X49049660Y-50184010D01*
X49046990Y-50156902D01*
X49046990Y-48811636D01*
X49120507Y-48885153D01*
G37*
G04 #@! TD.AperFunction*
D23*
X77049074Y-61044949D02*
X77049071Y-61044951D01*
X77016707Y-61077315D01*
X76981340Y-61106340D01*
X76952315Y-61141707D01*
X76096574Y-61997449D01*
X76096571Y-61997451D01*
X75967451Y-62126571D01*
X75942023Y-62164626D01*
X75912998Y-62199994D01*
X75891428Y-62240348D01*
X75866003Y-62278400D01*
X75848490Y-62320680D01*
X75832061Y-62351417D01*
X74103644Y-60623000D01*
X77471022Y-60623000D01*
X77049074Y-61044949D01*
G04 #@! TA.AperFunction,Conductor*
D24*
G36*
X77049074Y-61044949D02*
G01*
X77049071Y-61044951D01*
X77016707Y-61077315D01*
X76981340Y-61106340D01*
X76952315Y-61141707D01*
X76096574Y-61997449D01*
X76096571Y-61997451D01*
X75967451Y-62126571D01*
X75942023Y-62164626D01*
X75912998Y-62199994D01*
X75891428Y-62240348D01*
X75866003Y-62278400D01*
X75848490Y-62320680D01*
X75832061Y-62351417D01*
X74103644Y-60623000D01*
X77471022Y-60623000D01*
X77049074Y-61044949D01*
G37*
G04 #@! TD.AperFunction*
D23*
X112955843Y-45208252D02*
X113104822Y-45458355D01*
X113299731Y-45674588D01*
X113533080Y-45848641D01*
X113761949Y-45957653D01*
X113695114Y-45985337D01*
X113485960Y-46125089D01*
X113308089Y-46302960D01*
X113168337Y-46512114D01*
X113072074Y-46744513D01*
X113030000Y-46956034D01*
X112987926Y-46744513D01*
X112891663Y-46512114D01*
X112751911Y-46302960D01*
X112574040Y-46125089D01*
X112364886Y-45985337D01*
X112132487Y-45889074D01*
X111920966Y-45847000D01*
X112132487Y-45804926D01*
X112364886Y-45708663D01*
X112574040Y-45568911D01*
X112751911Y-45391040D01*
X112891663Y-45181886D01*
X112921197Y-45110584D01*
X112955843Y-45208252D01*
G04 #@! TA.AperFunction,Conductor*
D24*
G36*
X112955843Y-45208252D02*
G01*
X113104822Y-45458355D01*
X113299731Y-45674588D01*
X113533080Y-45848641D01*
X113761949Y-45957653D01*
X113695114Y-45985337D01*
X113485960Y-46125089D01*
X113308089Y-46302960D01*
X113168337Y-46512114D01*
X113072074Y-46744513D01*
X113030000Y-46956034D01*
X112987926Y-46744513D01*
X112891663Y-46512114D01*
X112751911Y-46302960D01*
X112574040Y-46125089D01*
X112364886Y-45985337D01*
X112132487Y-45889074D01*
X111920966Y-45847000D01*
X112132487Y-45804926D01*
X112364886Y-45708663D01*
X112574040Y-45568911D01*
X112751911Y-45391040D01*
X112891663Y-45181886D01*
X112921197Y-45110584D01*
X112955843Y-45208252D01*
G37*
G04 #@! TD.AperFunction*
D23*
X76760843Y-45208252D02*
X76909822Y-45458355D01*
X77104731Y-45674588D01*
X77338080Y-45848641D01*
X77566949Y-45957653D01*
X77500114Y-45985337D01*
X77290960Y-46125089D01*
X77113089Y-46302960D01*
X76973337Y-46512114D01*
X76877074Y-46744513D01*
X76835000Y-46956034D01*
X76792926Y-46744513D01*
X76696663Y-46512114D01*
X76556911Y-46302960D01*
X76379040Y-46125089D01*
X76169886Y-45985337D01*
X75937487Y-45889074D01*
X75725966Y-45847000D01*
X75937487Y-45804926D01*
X76169886Y-45708663D01*
X76379040Y-45568911D01*
X76556911Y-45391040D01*
X76696663Y-45181886D01*
X76726197Y-45110584D01*
X76760843Y-45208252D01*
G04 #@! TA.AperFunction,Conductor*
D24*
G36*
X76760843Y-45208252D02*
G01*
X76909822Y-45458355D01*
X77104731Y-45674588D01*
X77338080Y-45848641D01*
X77566949Y-45957653D01*
X77500114Y-45985337D01*
X77290960Y-46125089D01*
X77113089Y-46302960D01*
X76973337Y-46512114D01*
X76877074Y-46744513D01*
X76835000Y-46956034D01*
X76792926Y-46744513D01*
X76696663Y-46512114D01*
X76556911Y-46302960D01*
X76379040Y-46125089D01*
X76169886Y-45985337D01*
X75937487Y-45889074D01*
X75725966Y-45847000D01*
X75937487Y-45804926D01*
X76169886Y-45708663D01*
X76379040Y-45568911D01*
X76556911Y-45391040D01*
X76696663Y-45181886D01*
X76726197Y-45110584D01*
X76760843Y-45208252D01*
G37*
G04 #@! TD.AperFunction*
D23*
X115708337Y-45181886D02*
X115848089Y-45391040D01*
X116025960Y-45568911D01*
X116235114Y-45708663D01*
X116467513Y-45804926D01*
X116633456Y-45837934D01*
X115990000Y-45837934D01*
X115906293Y-45846178D01*
X115825804Y-45870595D01*
X115751624Y-45910245D01*
X115686605Y-45963605D01*
X115633245Y-46028624D01*
X115593595Y-46102804D01*
X115569178Y-46183293D01*
X115560934Y-46267000D01*
X115560934Y-46910456D01*
X115527926Y-46744513D01*
X115431663Y-46512114D01*
X115291911Y-46302960D01*
X115114040Y-46125089D01*
X114904886Y-45985337D01*
X114838051Y-45957653D01*
X115066920Y-45848641D01*
X115300269Y-45674588D01*
X115495178Y-45458355D01*
X115644157Y-45208252D01*
X115678803Y-45110584D01*
X115708337Y-45181886D01*
G04 #@! TA.AperFunction,Conductor*
D24*
G36*
X115708337Y-45181886D02*
G01*
X115848089Y-45391040D01*
X116025960Y-45568911D01*
X116235114Y-45708663D01*
X116467513Y-45804926D01*
X116633456Y-45837934D01*
X115990000Y-45837934D01*
X115906293Y-45846178D01*
X115825804Y-45870595D01*
X115751624Y-45910245D01*
X115686605Y-45963605D01*
X115633245Y-46028624D01*
X115593595Y-46102804D01*
X115569178Y-46183293D01*
X115560934Y-46267000D01*
X115560934Y-46910456D01*
X115527926Y-46744513D01*
X115431663Y-46512114D01*
X115291911Y-46302960D01*
X115114040Y-46125089D01*
X114904886Y-45985337D01*
X114838051Y-45957653D01*
X115066920Y-45848641D01*
X115300269Y-45674588D01*
X115495178Y-45458355D01*
X115644157Y-45208252D01*
X115678803Y-45110584D01*
X115708337Y-45181886D01*
G37*
G04 #@! TD.AperFunction*
D23*
X79513337Y-45181886D02*
X79653089Y-45391040D01*
X79830960Y-45568911D01*
X80040114Y-45708663D01*
X80272513Y-45804926D01*
X80438456Y-45837934D01*
X79795000Y-45837934D01*
X79711293Y-45846178D01*
X79630804Y-45870595D01*
X79556624Y-45910245D01*
X79491605Y-45963605D01*
X79438245Y-46028624D01*
X79398595Y-46102804D01*
X79374178Y-46183293D01*
X79365934Y-46267000D01*
X79365934Y-46910456D01*
X79332926Y-46744513D01*
X79236663Y-46512114D01*
X79096911Y-46302960D01*
X78919040Y-46125089D01*
X78709886Y-45985337D01*
X78643051Y-45957653D01*
X78871920Y-45848641D01*
X79105269Y-45674588D01*
X79300178Y-45458355D01*
X79449157Y-45208252D01*
X79483803Y-45110584D01*
X79513337Y-45181886D01*
G04 #@! TA.AperFunction,Conductor*
D24*
G36*
X79513337Y-45181886D02*
G01*
X79653089Y-45391040D01*
X79830960Y-45568911D01*
X80040114Y-45708663D01*
X80272513Y-45804926D01*
X80438456Y-45837934D01*
X79795000Y-45837934D01*
X79711293Y-45846178D01*
X79630804Y-45870595D01*
X79556624Y-45910245D01*
X79491605Y-45963605D01*
X79438245Y-46028624D01*
X79398595Y-46102804D01*
X79374178Y-46183293D01*
X79365934Y-46267000D01*
X79365934Y-46910456D01*
X79332926Y-46744513D01*
X79236663Y-46512114D01*
X79096911Y-46302960D01*
X78919040Y-46125089D01*
X78709886Y-45985337D01*
X78643051Y-45957653D01*
X78871920Y-45848641D01*
X79105269Y-45674588D01*
X79300178Y-45458355D01*
X79449157Y-45208252D01*
X79483803Y-45110584D01*
X79513337Y-45181886D01*
G37*
G04 #@! TD.AperFunction*
D23*
X78252000Y-44704000D02*
X78232000Y-44704000D01*
X78232000Y-44724000D01*
X77978000Y-44724000D01*
X77978000Y-44704000D01*
X77958000Y-44704000D01*
X77958000Y-44607000D01*
X78252000Y-44607000D01*
X78252000Y-44704000D01*
G04 #@! TA.AperFunction,Conductor*
D24*
G36*
X78252000Y-44704000D02*
G01*
X78232000Y-44704000D01*
X78232000Y-44724000D01*
X77978000Y-44724000D01*
X77978000Y-44704000D01*
X77958000Y-44704000D01*
X77958000Y-44607000D01*
X78252000Y-44607000D01*
X78252000Y-44704000D01*
G37*
G04 #@! TD.AperFunction*
D23*
X114447000Y-44704000D02*
X114427000Y-44704000D01*
X114427000Y-44724000D01*
X114173000Y-44724000D01*
X114173000Y-44704000D01*
X114153000Y-44704000D01*
X114153000Y-44607000D01*
X114447000Y-44607000D01*
X114447000Y-44704000D01*
G04 #@! TA.AperFunction,Conductor*
D24*
G36*
X114447000Y-44704000D02*
G01*
X114427000Y-44704000D01*
X114427000Y-44724000D01*
X114173000Y-44724000D01*
X114173000Y-44704000D01*
X114153000Y-44704000D01*
X114153000Y-44607000D01*
X114447000Y-44607000D01*
X114447000Y-44704000D01*
G37*
G04 #@! TD.AperFunction*
M02*
