%FSLAX45Y45*%
G04 Gerber Fmt 4.5, Leading zero omitted, Abs format (unit mm)*
G04 Created by KiCad (PCBNEW (5.1.9)-1) date 2021-02-23 11:48:38*
%MOMM*%
%LPD*%
G01*
G04 APERTURE LIST*
%TA.AperFunction,Profile*%
%ADD10C,0.050000*%
%TD*%
%ADD11C,0.200000*%
%ADD12C,0.300000*%
G04 APERTURE END LIST*
D10*
X1897400Y-1625600D02*
X5354300Y-1625600D01*
X5354300Y-1625600D02*
X5354300Y-6604000D01*
X1897400Y-6604000D02*
X5354300Y-6604000D01*
X1897400Y-1625600D02*
X1897400Y-6604000D01*
D11*
X2100900Y-1834200D02*
X2140900Y-1874200D01*
X2140900Y-1834200D02*
X2100900Y-1874200D01*
X2100900Y-2824800D02*
X2140900Y-2864800D01*
X2140900Y-2824800D02*
X2100900Y-2864800D01*
X2456500Y-5047300D02*
X2496500Y-5087300D01*
X2496500Y-5047300D02*
X2456500Y-5087300D01*
X2773500Y-5047800D02*
X2813500Y-5087800D01*
X2813500Y-5047800D02*
X2773500Y-5087800D01*
X4827599Y-3751900D02*
X4867599Y-3791900D01*
X4867599Y-3751900D02*
X4827599Y-3791900D01*
X5123500Y-1834200D02*
X5163500Y-1874200D01*
X5163500Y-1834200D02*
X5123500Y-1874200D01*
X5123500Y-2824800D02*
X5163500Y-2864800D01*
X5163500Y-2824800D02*
X5123500Y-2864800D01*
X2132800Y-6159500D02*
G75*
G03*
X2132800Y-6159500I-50000J0D01*
G01*
X2132800Y-6413500D02*
G75*
G03*
X2132800Y-6413500I-50000J0D01*
G01*
X2386800Y-6159500D02*
G75*
G03*
X2386800Y-6159500I-50000J0D01*
G01*
X2386800Y-6413500D02*
G75*
G03*
X2386800Y-6413500I-50000J0D01*
G01*
X2640800Y-6159500D02*
G75*
G03*
X2640800Y-6159500I-50000J0D01*
G01*
X2640800Y-6413500D02*
G75*
G03*
X2640800Y-6413500I-50000J0D01*
G01*
X2894800Y-6159500D02*
G75*
G03*
X2894800Y-6159500I-50000J0D01*
G01*
X2894800Y-6413500D02*
G75*
G03*
X2894800Y-6413500I-50000J0D01*
G01*
X3148800Y-6159500D02*
G75*
G03*
X3148800Y-6159500I-50000J0D01*
G01*
X3148800Y-6413500D02*
G75*
G03*
X3148800Y-6413500I-50000J0D01*
G01*
X3402800Y-6159500D02*
G75*
G03*
X3402800Y-6159500I-50000J0D01*
G01*
X3402800Y-6413500D02*
G75*
G03*
X3402800Y-6413500I-50000J0D01*
G01*
X3656800Y-6159500D02*
G75*
G03*
X3656800Y-6159500I-50000J0D01*
G01*
X3656800Y-6413500D02*
G75*
G03*
X3656800Y-6413500I-50000J0D01*
G01*
X3910800Y-6159500D02*
G75*
G03*
X3910800Y-6159500I-50000J0D01*
G01*
X3910800Y-6413500D02*
G75*
G03*
X3910800Y-6413500I-50000J0D01*
G01*
X4164800Y-6159500D02*
G75*
G03*
X4164800Y-6159500I-50000J0D01*
G01*
X4164800Y-6413500D02*
G75*
G03*
X4164800Y-6413500I-50000J0D01*
G01*
X4418800Y-6159500D02*
G75*
G03*
X4418800Y-6159500I-50000J0D01*
G01*
X4418800Y-6413500D02*
G75*
G03*
X4418800Y-6413500I-50000J0D01*
G01*
X4672800Y-6159500D02*
G75*
G03*
X4672800Y-6159500I-50000J0D01*
G01*
X4672800Y-6413500D02*
G75*
G03*
X4672800Y-6413500I-50000J0D01*
G01*
X4926800Y-6159500D02*
G75*
G03*
X4926800Y-6159500I-50000J0D01*
G01*
X4926800Y-6413500D02*
G75*
G03*
X4926800Y-6413500I-50000J0D01*
G01*
X5180800Y-6159500D02*
G75*
G03*
X5180800Y-6159500I-50000J0D01*
G01*
X5180800Y-6413500D02*
G75*
G03*
X5180800Y-6413500I-50000J0D01*
G01*
X2476500Y-2679700D02*
X2476500Y-2781300D01*
X2425700Y-2730500D02*
X2527300Y-2730500D01*
X2476500Y-2933700D02*
X2476500Y-3035300D01*
X2425700Y-2984500D02*
X2527300Y-2984500D01*
X2730500Y-2679700D02*
X2730500Y-2781300D01*
X2679700Y-2730500D02*
X2781300Y-2730500D01*
X2730500Y-2933700D02*
X2730500Y-3035300D01*
X2679700Y-2984500D02*
X2781300Y-2984500D01*
X2984500Y-2679700D02*
X2984500Y-2781300D01*
X2933700Y-2730500D02*
X3035300Y-2730500D01*
X2984500Y-2933700D02*
X2984500Y-3035300D01*
X2933700Y-2984500D02*
X3035300Y-2984500D01*
X3238500Y-2679700D02*
X3238500Y-2781300D01*
X3187700Y-2730500D02*
X3289300Y-2730500D01*
X3238500Y-2933700D02*
X3238500Y-3035300D01*
X3187700Y-2984500D02*
X3289300Y-2984500D01*
X3492500Y-2679700D02*
X3492500Y-2781300D01*
X3441700Y-2730500D02*
X3543300Y-2730500D01*
X3492500Y-2933700D02*
X3492500Y-3035300D01*
X3441700Y-2984500D02*
X3543300Y-2984500D01*
X3746500Y-2679700D02*
X3746500Y-2781300D01*
X3695700Y-2730500D02*
X3797300Y-2730500D01*
X3746500Y-2933700D02*
X3746500Y-3035300D01*
X3695700Y-2984500D02*
X3797300Y-2984500D01*
X4000500Y-2679700D02*
X4000500Y-2781300D01*
X3949700Y-2730500D02*
X4051300Y-2730500D01*
X4000500Y-2933700D02*
X4000500Y-3035300D01*
X3949700Y-2984500D02*
X4051300Y-2984500D01*
X4254500Y-2679700D02*
X4254500Y-2781300D01*
X4203700Y-2730500D02*
X4305300Y-2730500D01*
X4254500Y-2933700D02*
X4254500Y-3035300D01*
X4203700Y-2984500D02*
X4305300Y-2984500D01*
X4508500Y-2679700D02*
X4508500Y-2781300D01*
X4457700Y-2730500D02*
X4559300Y-2730500D01*
X4508500Y-2933700D02*
X4508500Y-3035300D01*
X4457700Y-2984500D02*
X4559300Y-2984500D01*
X4762500Y-2679700D02*
X4762500Y-2781300D01*
X4711700Y-2730500D02*
X4813300Y-2730500D01*
X4762500Y-2933700D02*
X4762500Y-3035300D01*
X4711700Y-2984500D02*
X4813300Y-2984500D01*
X2173934Y-3570933D02*
X2173934Y-3464866D01*
X2067866Y-3464866D01*
X2067866Y-3570933D01*
X2173934Y-3570933D01*
X2186634Y-4853634D02*
X2186634Y-4747567D01*
X2080566Y-4747567D01*
X2080566Y-4853634D01*
X2186634Y-4853634D01*
X2186634Y-5475934D02*
X2186634Y-5369867D01*
X2080566Y-5369867D01*
X2080566Y-5475934D01*
X2186634Y-5475934D01*
X2656534Y-4205934D02*
X2656534Y-4099866D01*
X2550467Y-4099866D01*
X2550467Y-4205934D01*
X2656534Y-4205934D01*
X2656534Y-4840934D02*
X2656534Y-4734867D01*
X2550467Y-4734867D01*
X2550467Y-4840934D01*
X2656534Y-4840934D01*
X2656534Y-5475934D02*
X2656534Y-5369867D01*
X2550467Y-5369867D01*
X2550467Y-5475934D01*
X2656534Y-5475934D01*
X2669234Y-3570933D02*
X2669234Y-3464866D01*
X2563167Y-3464866D01*
X2563167Y-3570933D01*
X2669234Y-3570933D01*
X3164533Y-3570933D02*
X3164533Y-3464866D01*
X3058466Y-3464866D01*
X3058466Y-3570933D01*
X3164533Y-3570933D01*
X3164533Y-4205934D02*
X3164533Y-4099866D01*
X3058466Y-4099866D01*
X3058466Y-4205934D01*
X3164533Y-4205934D01*
X3164533Y-4840934D02*
X3164533Y-4734867D01*
X3058466Y-4734867D01*
X3058466Y-4840934D01*
X3164533Y-4840934D01*
X3164533Y-5475934D02*
X3164533Y-5369867D01*
X3058466Y-5369867D01*
X3058466Y-5475934D01*
X3164533Y-5475934D01*
X3672533Y-3570933D02*
X3672533Y-3464866D01*
X3566466Y-3464866D01*
X3566466Y-3570933D01*
X3672533Y-3570933D01*
X3672533Y-4205934D02*
X3672533Y-4099866D01*
X3566466Y-4099866D01*
X3566466Y-4205934D01*
X3672533Y-4205934D01*
X3672533Y-4840934D02*
X3672533Y-4734867D01*
X3566466Y-4734867D01*
X3566466Y-4840934D01*
X3672533Y-4840934D01*
X3672533Y-5475934D02*
X3672533Y-5369867D01*
X3566466Y-5369867D01*
X3566466Y-5475934D01*
X3672533Y-5475934D01*
X4180533Y-3570933D02*
X4180533Y-3464866D01*
X4074466Y-3464866D01*
X4074466Y-3570933D01*
X4180533Y-3570933D01*
X4180533Y-4205934D02*
X4180533Y-4099866D01*
X4074466Y-4099866D01*
X4074466Y-4205934D01*
X4180533Y-4205934D01*
X4180533Y-4840934D02*
X4180533Y-4734867D01*
X4074466Y-4734867D01*
X4074466Y-4840934D01*
X4180533Y-4840934D01*
X4180533Y-5475934D02*
X4180533Y-5369867D01*
X4074466Y-5369867D01*
X4074466Y-5475934D01*
X4180533Y-5475934D01*
X4688534Y-3570933D02*
X4688534Y-3464866D01*
X4582467Y-3464866D01*
X4582467Y-3570933D01*
X4688534Y-3570933D01*
X4688534Y-4205934D02*
X4688534Y-4099866D01*
X4582467Y-4099866D01*
X4582467Y-4205934D01*
X4688534Y-4205934D01*
X4688534Y-4840934D02*
X4688534Y-4734867D01*
X4582467Y-4734867D01*
X4582467Y-4840934D01*
X4688534Y-4840934D01*
X4688534Y-5475934D02*
X4688534Y-5369867D01*
X4582467Y-5369867D01*
X4582467Y-5475934D01*
X4688534Y-5475934D01*
X5196534Y-3570933D02*
X5196534Y-3464866D01*
X5090467Y-3464866D01*
X5090467Y-3570933D01*
X5196534Y-3570933D01*
X5196534Y-4205934D02*
X5196534Y-4099866D01*
X5090467Y-4099866D01*
X5090467Y-4205934D01*
X5196534Y-4205934D01*
X5196534Y-4840934D02*
X5196534Y-4734867D01*
X5090467Y-4734867D01*
X5090467Y-4840934D01*
X5196534Y-4840934D01*
X5196534Y-5475934D02*
X5196534Y-5369867D01*
X5090467Y-5369867D01*
X5090467Y-5475934D01*
X5196534Y-5475934D01*
D12*
X2181328Y-7072214D02*
X2181328Y-6772214D01*
X2252757Y-6772214D01*
X2295614Y-6786500D01*
X2324186Y-6815071D01*
X2338471Y-6843643D01*
X2352757Y-6900786D01*
X2352757Y-6943643D01*
X2338471Y-7000786D01*
X2324186Y-7029357D01*
X2295614Y-7057929D01*
X2252757Y-7072214D01*
X2181328Y-7072214D01*
X2481328Y-7072214D02*
X2481328Y-6872214D01*
X2481328Y-6929357D02*
X2495614Y-6900786D01*
X2509900Y-6886500D01*
X2538471Y-6872214D01*
X2567043Y-6872214D01*
X2667043Y-7072214D02*
X2667043Y-6872214D01*
X2667043Y-6772214D02*
X2652757Y-6786500D01*
X2667043Y-6800786D01*
X2681328Y-6786500D01*
X2667043Y-6772214D01*
X2667043Y-6800786D01*
X2852757Y-7072214D02*
X2824186Y-7057929D01*
X2809900Y-7029357D01*
X2809900Y-6772214D01*
X3009900Y-7072214D02*
X2981328Y-7057929D01*
X2967043Y-7029357D01*
X2967043Y-6772214D01*
X3352757Y-7072214D02*
X3352757Y-6772214D01*
X3452757Y-6986500D01*
X3552757Y-6772214D01*
X3552757Y-7072214D01*
X3824186Y-7072214D02*
X3824186Y-6915071D01*
X3809900Y-6886500D01*
X3781328Y-6872214D01*
X3724186Y-6872214D01*
X3695614Y-6886500D01*
X3824186Y-7057929D02*
X3795614Y-7072214D01*
X3724186Y-7072214D01*
X3695614Y-7057929D01*
X3681328Y-7029357D01*
X3681328Y-7000786D01*
X3695614Y-6972214D01*
X3724186Y-6957929D01*
X3795614Y-6957929D01*
X3824186Y-6943643D01*
X3967043Y-6872214D02*
X3967043Y-7172214D01*
X3967043Y-6886500D02*
X3995614Y-6872214D01*
X4052757Y-6872214D01*
X4081328Y-6886500D01*
X4095614Y-6900786D01*
X4109900Y-6929357D01*
X4109900Y-7015071D01*
X4095614Y-7043643D01*
X4081328Y-7057929D01*
X4052757Y-7072214D01*
X3995614Y-7072214D01*
X3967043Y-7057929D01*
X4238471Y-7043643D02*
X4252757Y-7057929D01*
X4238471Y-7072214D01*
X4224186Y-7057929D01*
X4238471Y-7043643D01*
X4238471Y-7072214D01*
X4238471Y-6886500D02*
X4252757Y-6900786D01*
X4238471Y-6915071D01*
X4224186Y-6900786D01*
X4238471Y-6886500D01*
X4238471Y-6915071D01*
X1854900Y-7546500D02*
X1894900Y-7586500D01*
X1894900Y-7546500D02*
X1854900Y-7586500D01*
X2238471Y-7402214D02*
X2267043Y-7402214D01*
X2295614Y-7416500D01*
X2309900Y-7430786D01*
X2324186Y-7459357D01*
X2338471Y-7516500D01*
X2338471Y-7587929D01*
X2324186Y-7645071D01*
X2309900Y-7673643D01*
X2295614Y-7687929D01*
X2267043Y-7702214D01*
X2238471Y-7702214D01*
X2209900Y-7687929D01*
X2195614Y-7673643D01*
X2181328Y-7645071D01*
X2167043Y-7587929D01*
X2167043Y-7516500D01*
X2181328Y-7459357D01*
X2195614Y-7430786D01*
X2209900Y-7416500D01*
X2238471Y-7402214D01*
X2467043Y-7673643D02*
X2481328Y-7687929D01*
X2467043Y-7702214D01*
X2452757Y-7687929D01*
X2467043Y-7673643D01*
X2467043Y-7702214D01*
X2738471Y-7502214D02*
X2738471Y-7702214D01*
X2667043Y-7387929D02*
X2595614Y-7602214D01*
X2781328Y-7602214D01*
X2952757Y-7402214D02*
X2981328Y-7402214D01*
X3009900Y-7416500D01*
X3024186Y-7430786D01*
X3038471Y-7459357D01*
X3052757Y-7516500D01*
X3052757Y-7587929D01*
X3038471Y-7645071D01*
X3024186Y-7673643D01*
X3009900Y-7687929D01*
X2981328Y-7702214D01*
X2952757Y-7702214D01*
X2924186Y-7687929D01*
X2909900Y-7673643D01*
X2895614Y-7645071D01*
X2881328Y-7587929D01*
X2881328Y-7516500D01*
X2895614Y-7459357D01*
X2909900Y-7430786D01*
X2924186Y-7416500D01*
X2952757Y-7402214D01*
X3181328Y-7702214D02*
X3181328Y-7502214D01*
X3181328Y-7530786D02*
X3195614Y-7516500D01*
X3224186Y-7502214D01*
X3267043Y-7502214D01*
X3295614Y-7516500D01*
X3309900Y-7545071D01*
X3309900Y-7702214D01*
X3309900Y-7545071D02*
X3324186Y-7516500D01*
X3352757Y-7502214D01*
X3395614Y-7502214D01*
X3424186Y-7516500D01*
X3438471Y-7545071D01*
X3438471Y-7702214D01*
X3581328Y-7702214D02*
X3581328Y-7502214D01*
X3581328Y-7530786D02*
X3595614Y-7516500D01*
X3624186Y-7502214D01*
X3667043Y-7502214D01*
X3695614Y-7516500D01*
X3709900Y-7545071D01*
X3709900Y-7702214D01*
X3709900Y-7545071D02*
X3724186Y-7516500D01*
X3752757Y-7502214D01*
X3795614Y-7502214D01*
X3824186Y-7516500D01*
X3838471Y-7545071D01*
X3838471Y-7702214D01*
X4424186Y-7387929D02*
X4167043Y-7773643D01*
X4809900Y-7402214D02*
X4838471Y-7402214D01*
X4867043Y-7416500D01*
X4881328Y-7430786D01*
X4895614Y-7459357D01*
X4909900Y-7516500D01*
X4909900Y-7587929D01*
X4895614Y-7645071D01*
X4881328Y-7673643D01*
X4867043Y-7687929D01*
X4838471Y-7702214D01*
X4809900Y-7702214D01*
X4781328Y-7687929D01*
X4767043Y-7673643D01*
X4752757Y-7645071D01*
X4738471Y-7587929D01*
X4738471Y-7516500D01*
X4752757Y-7459357D01*
X4767043Y-7430786D01*
X4781328Y-7416500D01*
X4809900Y-7402214D01*
X5038471Y-7673643D02*
X5052757Y-7687929D01*
X5038471Y-7702214D01*
X5024186Y-7687929D01*
X5038471Y-7673643D01*
X5038471Y-7702214D01*
X5238471Y-7402214D02*
X5267043Y-7402214D01*
X5295614Y-7416500D01*
X5309900Y-7430786D01*
X5324186Y-7459357D01*
X5338471Y-7516500D01*
X5338471Y-7587929D01*
X5324186Y-7645071D01*
X5309900Y-7673643D01*
X5295614Y-7687929D01*
X5267043Y-7702214D01*
X5238471Y-7702214D01*
X5209900Y-7687929D01*
X5195614Y-7673643D01*
X5181328Y-7645071D01*
X5167043Y-7587929D01*
X5167043Y-7516500D01*
X5181328Y-7459357D01*
X5195614Y-7430786D01*
X5209900Y-7416500D01*
X5238471Y-7402214D01*
X5624186Y-7702214D02*
X5452757Y-7702214D01*
X5538471Y-7702214D02*
X5538471Y-7402214D01*
X5509900Y-7445071D01*
X5481328Y-7473643D01*
X5452757Y-7487929D01*
X5881328Y-7402214D02*
X5824186Y-7402214D01*
X5795614Y-7416500D01*
X5781328Y-7430786D01*
X5752757Y-7473643D01*
X5738471Y-7530786D01*
X5738471Y-7645071D01*
X5752757Y-7673643D01*
X5767043Y-7687929D01*
X5795614Y-7702214D01*
X5852757Y-7702214D01*
X5881328Y-7687929D01*
X5895614Y-7673643D01*
X5909900Y-7645071D01*
X5909900Y-7573643D01*
X5895614Y-7545071D01*
X5881328Y-7530786D01*
X5852757Y-7516500D01*
X5795614Y-7516500D01*
X5767043Y-7530786D01*
X5752757Y-7545071D01*
X5738471Y-7573643D01*
X6024186Y-7402214D02*
X6024186Y-7459357D01*
X6138471Y-7402214D02*
X6138471Y-7459357D01*
X6581328Y-7816500D02*
X6567043Y-7802214D01*
X6538471Y-7759357D01*
X6524186Y-7730786D01*
X6509900Y-7687929D01*
X6495614Y-7616500D01*
X6495614Y-7559357D01*
X6509900Y-7487929D01*
X6524186Y-7445071D01*
X6538471Y-7416500D01*
X6567043Y-7373643D01*
X6581328Y-7359357D01*
X6667043Y-7402214D02*
X6867043Y-7402214D01*
X6738471Y-7702214D01*
X7209900Y-7702214D02*
X7209900Y-7402214D01*
X7338471Y-7702214D02*
X7338471Y-7545071D01*
X7324186Y-7516500D01*
X7295614Y-7502214D01*
X7252757Y-7502214D01*
X7224186Y-7516500D01*
X7209900Y-7530786D01*
X7524186Y-7702214D02*
X7495614Y-7687929D01*
X7481328Y-7673643D01*
X7467043Y-7645071D01*
X7467043Y-7559357D01*
X7481328Y-7530786D01*
X7495614Y-7516500D01*
X7524186Y-7502214D01*
X7567043Y-7502214D01*
X7595614Y-7516500D01*
X7609900Y-7530786D01*
X7624186Y-7559357D01*
X7624186Y-7645071D01*
X7609900Y-7673643D01*
X7595614Y-7687929D01*
X7567043Y-7702214D01*
X7524186Y-7702214D01*
X7795614Y-7702214D02*
X7767043Y-7687929D01*
X7752757Y-7659357D01*
X7752757Y-7402214D01*
X8024186Y-7687929D02*
X7995614Y-7702214D01*
X7938471Y-7702214D01*
X7909900Y-7687929D01*
X7895614Y-7659357D01*
X7895614Y-7545071D01*
X7909900Y-7516500D01*
X7938471Y-7502214D01*
X7995614Y-7502214D01*
X8024186Y-7516500D01*
X8038471Y-7545071D01*
X8038471Y-7573643D01*
X7895614Y-7602214D01*
X8152757Y-7687929D02*
X8181328Y-7702214D01*
X8238471Y-7702214D01*
X8267043Y-7687929D01*
X8281328Y-7659357D01*
X8281328Y-7645071D01*
X8267043Y-7616500D01*
X8238471Y-7602214D01*
X8195614Y-7602214D01*
X8167043Y-7587929D01*
X8152757Y-7559357D01*
X8152757Y-7545071D01*
X8167043Y-7516500D01*
X8195614Y-7502214D01*
X8238471Y-7502214D01*
X8267043Y-7516500D01*
X8381328Y-7816500D02*
X8395614Y-7802214D01*
X8424186Y-7759357D01*
X8438471Y-7730786D01*
X8452757Y-7687929D01*
X8467043Y-7616500D01*
X8467043Y-7559357D01*
X8452757Y-7487929D01*
X8438471Y-7445071D01*
X8424186Y-7416500D01*
X8395614Y-7373643D01*
X8381328Y-7359357D01*
X1894900Y-7962500D02*
G75*
G03*
X1894900Y-7962500I-50000J0D01*
G01*
X2338471Y-8098214D02*
X2167043Y-8098214D01*
X2252757Y-8098214D02*
X2252757Y-7798214D01*
X2224186Y-7841071D01*
X2195614Y-7869643D01*
X2167043Y-7883929D01*
X2467043Y-8069643D02*
X2481328Y-8083929D01*
X2467043Y-8098214D01*
X2452757Y-8083929D01*
X2467043Y-8069643D01*
X2467043Y-8098214D01*
X2667043Y-7798214D02*
X2695614Y-7798214D01*
X2724186Y-7812500D01*
X2738471Y-7826786D01*
X2752757Y-7855357D01*
X2767043Y-7912500D01*
X2767043Y-7983929D01*
X2752757Y-8041071D01*
X2738471Y-8069643D01*
X2724186Y-8083929D01*
X2695614Y-8098214D01*
X2667043Y-8098214D01*
X2638471Y-8083929D01*
X2624186Y-8069643D01*
X2609900Y-8041071D01*
X2595614Y-7983929D01*
X2595614Y-7912500D01*
X2609900Y-7855357D01*
X2624186Y-7826786D01*
X2638471Y-7812500D01*
X2667043Y-7798214D01*
X2952757Y-7798214D02*
X2981328Y-7798214D01*
X3009900Y-7812500D01*
X3024186Y-7826786D01*
X3038471Y-7855357D01*
X3052757Y-7912500D01*
X3052757Y-7983929D01*
X3038471Y-8041071D01*
X3024186Y-8069643D01*
X3009900Y-8083929D01*
X2981328Y-8098214D01*
X2952757Y-8098214D01*
X2924186Y-8083929D01*
X2909900Y-8069643D01*
X2895614Y-8041071D01*
X2881328Y-7983929D01*
X2881328Y-7912500D01*
X2895614Y-7855357D01*
X2909900Y-7826786D01*
X2924186Y-7812500D01*
X2952757Y-7798214D01*
X3181328Y-8098214D02*
X3181328Y-7898214D01*
X3181328Y-7926786D02*
X3195614Y-7912500D01*
X3224186Y-7898214D01*
X3267043Y-7898214D01*
X3295614Y-7912500D01*
X3309900Y-7941071D01*
X3309900Y-8098214D01*
X3309900Y-7941071D02*
X3324186Y-7912500D01*
X3352757Y-7898214D01*
X3395614Y-7898214D01*
X3424186Y-7912500D01*
X3438471Y-7941071D01*
X3438471Y-8098214D01*
X3581328Y-8098214D02*
X3581328Y-7898214D01*
X3581328Y-7926786D02*
X3595614Y-7912500D01*
X3624186Y-7898214D01*
X3667043Y-7898214D01*
X3695614Y-7912500D01*
X3709900Y-7941071D01*
X3709900Y-8098214D01*
X3709900Y-7941071D02*
X3724186Y-7912500D01*
X3752757Y-7898214D01*
X3795614Y-7898214D01*
X3824186Y-7912500D01*
X3838471Y-7941071D01*
X3838471Y-8098214D01*
X4424186Y-7783929D02*
X4167043Y-8169643D01*
X4809900Y-7798214D02*
X4838471Y-7798214D01*
X4867043Y-7812500D01*
X4881328Y-7826786D01*
X4895614Y-7855357D01*
X4909900Y-7912500D01*
X4909900Y-7983929D01*
X4895614Y-8041071D01*
X4881328Y-8069643D01*
X4867043Y-8083929D01*
X4838471Y-8098214D01*
X4809900Y-8098214D01*
X4781328Y-8083929D01*
X4767043Y-8069643D01*
X4752757Y-8041071D01*
X4738471Y-7983929D01*
X4738471Y-7912500D01*
X4752757Y-7855357D01*
X4767043Y-7826786D01*
X4781328Y-7812500D01*
X4809900Y-7798214D01*
X5038471Y-8069643D02*
X5052757Y-8083929D01*
X5038471Y-8098214D01*
X5024186Y-8083929D01*
X5038471Y-8069643D01*
X5038471Y-8098214D01*
X5238471Y-7798214D02*
X5267043Y-7798214D01*
X5295614Y-7812500D01*
X5309900Y-7826786D01*
X5324186Y-7855357D01*
X5338471Y-7912500D01*
X5338471Y-7983929D01*
X5324186Y-8041071D01*
X5309900Y-8069643D01*
X5295614Y-8083929D01*
X5267043Y-8098214D01*
X5238471Y-8098214D01*
X5209900Y-8083929D01*
X5195614Y-8069643D01*
X5181328Y-8041071D01*
X5167043Y-7983929D01*
X5167043Y-7912500D01*
X5181328Y-7855357D01*
X5195614Y-7826786D01*
X5209900Y-7812500D01*
X5238471Y-7798214D01*
X5438471Y-7798214D02*
X5624186Y-7798214D01*
X5524186Y-7912500D01*
X5567043Y-7912500D01*
X5595614Y-7926786D01*
X5609900Y-7941071D01*
X5624186Y-7969643D01*
X5624186Y-8041071D01*
X5609900Y-8069643D01*
X5595614Y-8083929D01*
X5567043Y-8098214D01*
X5481328Y-8098214D01*
X5452757Y-8083929D01*
X5438471Y-8069643D01*
X5767043Y-8098214D02*
X5824186Y-8098214D01*
X5852757Y-8083929D01*
X5867043Y-8069643D01*
X5895614Y-8026786D01*
X5909900Y-7969643D01*
X5909900Y-7855357D01*
X5895614Y-7826786D01*
X5881328Y-7812500D01*
X5852757Y-7798214D01*
X5795614Y-7798214D01*
X5767043Y-7812500D01*
X5752757Y-7826786D01*
X5738471Y-7855357D01*
X5738471Y-7926786D01*
X5752757Y-7955357D01*
X5767043Y-7969643D01*
X5795614Y-7983929D01*
X5852757Y-7983929D01*
X5881328Y-7969643D01*
X5895614Y-7955357D01*
X5909900Y-7926786D01*
X6024186Y-7798214D02*
X6024186Y-7855357D01*
X6138471Y-7798214D02*
X6138471Y-7855357D01*
X6581328Y-8212500D02*
X6567043Y-8198214D01*
X6538471Y-8155357D01*
X6524186Y-8126786D01*
X6509900Y-8083929D01*
X6495614Y-8012500D01*
X6495614Y-7955357D01*
X6509900Y-7883929D01*
X6524186Y-7841071D01*
X6538471Y-7812500D01*
X6567043Y-7769643D01*
X6581328Y-7755357D01*
X6681328Y-7826786D02*
X6695614Y-7812500D01*
X6724186Y-7798214D01*
X6795614Y-7798214D01*
X6824186Y-7812500D01*
X6838471Y-7826786D01*
X6852757Y-7855357D01*
X6852757Y-7883929D01*
X6838471Y-7926786D01*
X6667043Y-8098214D01*
X6852757Y-8098214D01*
X7109900Y-7798214D02*
X7052757Y-7798214D01*
X7024186Y-7812500D01*
X7009900Y-7826786D01*
X6981328Y-7869643D01*
X6967043Y-7926786D01*
X6967043Y-8041071D01*
X6981328Y-8069643D01*
X6995614Y-8083929D01*
X7024186Y-8098214D01*
X7081328Y-8098214D01*
X7109900Y-8083929D01*
X7124186Y-8069643D01*
X7138471Y-8041071D01*
X7138471Y-7969643D01*
X7124186Y-7941071D01*
X7109900Y-7926786D01*
X7081328Y-7912500D01*
X7024186Y-7912500D01*
X6995614Y-7926786D01*
X6981328Y-7941071D01*
X6967043Y-7969643D01*
X7495614Y-8098214D02*
X7495614Y-7798214D01*
X7624186Y-8098214D02*
X7624186Y-7941071D01*
X7609900Y-7912500D01*
X7581328Y-7898214D01*
X7538471Y-7898214D01*
X7509900Y-7912500D01*
X7495614Y-7926786D01*
X7809900Y-8098214D02*
X7781328Y-8083929D01*
X7767043Y-8069643D01*
X7752757Y-8041071D01*
X7752757Y-7955357D01*
X7767043Y-7926786D01*
X7781328Y-7912500D01*
X7809900Y-7898214D01*
X7852757Y-7898214D01*
X7881328Y-7912500D01*
X7895614Y-7926786D01*
X7909900Y-7955357D01*
X7909900Y-8041071D01*
X7895614Y-8069643D01*
X7881328Y-8083929D01*
X7852757Y-8098214D01*
X7809900Y-8098214D01*
X8081328Y-8098214D02*
X8052757Y-8083929D01*
X8038471Y-8055357D01*
X8038471Y-7798214D01*
X8309900Y-8083929D02*
X8281328Y-8098214D01*
X8224186Y-8098214D01*
X8195614Y-8083929D01*
X8181328Y-8055357D01*
X8181328Y-7941071D01*
X8195614Y-7912500D01*
X8224186Y-7898214D01*
X8281328Y-7898214D01*
X8309900Y-7912500D01*
X8324186Y-7941071D01*
X8324186Y-7969643D01*
X8181328Y-7998214D01*
X8438471Y-8083929D02*
X8467043Y-8098214D01*
X8524186Y-8098214D01*
X8552757Y-8083929D01*
X8567043Y-8055357D01*
X8567043Y-8041071D01*
X8552757Y-8012500D01*
X8524186Y-7998214D01*
X8481328Y-7998214D01*
X8452757Y-7983929D01*
X8438471Y-7955357D01*
X8438471Y-7941071D01*
X8452757Y-7912500D01*
X8481328Y-7898214D01*
X8524186Y-7898214D01*
X8552757Y-7912500D01*
X8667043Y-8212500D02*
X8681328Y-8198214D01*
X8709900Y-8155357D01*
X8724186Y-8126786D01*
X8738471Y-8083929D01*
X8752757Y-8012500D01*
X8752757Y-7955357D01*
X8738471Y-7883929D01*
X8724186Y-7841071D01*
X8709900Y-7812500D01*
X8681328Y-7769643D01*
X8667043Y-7755357D01*
X1844100Y-8307700D02*
X1844100Y-8409300D01*
X1793300Y-8358500D02*
X1894900Y-8358500D01*
X2338471Y-8494214D02*
X2167043Y-8494214D01*
X2252757Y-8494214D02*
X2252757Y-8194214D01*
X2224186Y-8237071D01*
X2195614Y-8265643D01*
X2167043Y-8279929D01*
X2467043Y-8465643D02*
X2481328Y-8479929D01*
X2467043Y-8494214D01*
X2452757Y-8479929D01*
X2467043Y-8465643D01*
X2467043Y-8494214D01*
X2667043Y-8194214D02*
X2695614Y-8194214D01*
X2724186Y-8208500D01*
X2738471Y-8222786D01*
X2752757Y-8251357D01*
X2767043Y-8308500D01*
X2767043Y-8379929D01*
X2752757Y-8437072D01*
X2738471Y-8465643D01*
X2724186Y-8479929D01*
X2695614Y-8494214D01*
X2667043Y-8494214D01*
X2638471Y-8479929D01*
X2624186Y-8465643D01*
X2609900Y-8437072D01*
X2595614Y-8379929D01*
X2595614Y-8308500D01*
X2609900Y-8251357D01*
X2624186Y-8222786D01*
X2638471Y-8208500D01*
X2667043Y-8194214D01*
X2881328Y-8222786D02*
X2895614Y-8208500D01*
X2924186Y-8194214D01*
X2995614Y-8194214D01*
X3024186Y-8208500D01*
X3038471Y-8222786D01*
X3052757Y-8251357D01*
X3052757Y-8279929D01*
X3038471Y-8322786D01*
X2867043Y-8494214D01*
X3052757Y-8494214D01*
X3181328Y-8494214D02*
X3181328Y-8294214D01*
X3181328Y-8322786D02*
X3195614Y-8308500D01*
X3224186Y-8294214D01*
X3267043Y-8294214D01*
X3295614Y-8308500D01*
X3309900Y-8337071D01*
X3309900Y-8494214D01*
X3309900Y-8337071D02*
X3324186Y-8308500D01*
X3352757Y-8294214D01*
X3395614Y-8294214D01*
X3424186Y-8308500D01*
X3438471Y-8337071D01*
X3438471Y-8494214D01*
X3581328Y-8494214D02*
X3581328Y-8294214D01*
X3581328Y-8322786D02*
X3595614Y-8308500D01*
X3624186Y-8294214D01*
X3667043Y-8294214D01*
X3695614Y-8308500D01*
X3709900Y-8337071D01*
X3709900Y-8494214D01*
X3709900Y-8337071D02*
X3724186Y-8308500D01*
X3752757Y-8294214D01*
X3795614Y-8294214D01*
X3824186Y-8308500D01*
X3838471Y-8337071D01*
X3838471Y-8494214D01*
X4424186Y-8179929D02*
X4167043Y-8565643D01*
X4809900Y-8194214D02*
X4838471Y-8194214D01*
X4867043Y-8208500D01*
X4881328Y-8222786D01*
X4895614Y-8251357D01*
X4909900Y-8308500D01*
X4909900Y-8379929D01*
X4895614Y-8437072D01*
X4881328Y-8465643D01*
X4867043Y-8479929D01*
X4838471Y-8494214D01*
X4809900Y-8494214D01*
X4781328Y-8479929D01*
X4767043Y-8465643D01*
X4752757Y-8437072D01*
X4738471Y-8379929D01*
X4738471Y-8308500D01*
X4752757Y-8251357D01*
X4767043Y-8222786D01*
X4781328Y-8208500D01*
X4809900Y-8194214D01*
X5038471Y-8465643D02*
X5052757Y-8479929D01*
X5038471Y-8494214D01*
X5024186Y-8479929D01*
X5038471Y-8465643D01*
X5038471Y-8494214D01*
X5238471Y-8194214D02*
X5267043Y-8194214D01*
X5295614Y-8208500D01*
X5309900Y-8222786D01*
X5324186Y-8251357D01*
X5338471Y-8308500D01*
X5338471Y-8379929D01*
X5324186Y-8437072D01*
X5309900Y-8465643D01*
X5295614Y-8479929D01*
X5267043Y-8494214D01*
X5238471Y-8494214D01*
X5209900Y-8479929D01*
X5195614Y-8465643D01*
X5181328Y-8437072D01*
X5167043Y-8379929D01*
X5167043Y-8308500D01*
X5181328Y-8251357D01*
X5195614Y-8222786D01*
X5209900Y-8208500D01*
X5238471Y-8194214D01*
X5595614Y-8294214D02*
X5595614Y-8494214D01*
X5524186Y-8179929D02*
X5452757Y-8394214D01*
X5638471Y-8394214D01*
X5809900Y-8194214D02*
X5838471Y-8194214D01*
X5867043Y-8208500D01*
X5881328Y-8222786D01*
X5895614Y-8251357D01*
X5909900Y-8308500D01*
X5909900Y-8379929D01*
X5895614Y-8437072D01*
X5881328Y-8465643D01*
X5867043Y-8479929D01*
X5838471Y-8494214D01*
X5809900Y-8494214D01*
X5781328Y-8479929D01*
X5767043Y-8465643D01*
X5752757Y-8437072D01*
X5738471Y-8379929D01*
X5738471Y-8308500D01*
X5752757Y-8251357D01*
X5767043Y-8222786D01*
X5781328Y-8208500D01*
X5809900Y-8194214D01*
X6024186Y-8194214D02*
X6024186Y-8251357D01*
X6138471Y-8194214D02*
X6138471Y-8251357D01*
X6581328Y-8608500D02*
X6567043Y-8594214D01*
X6538471Y-8551357D01*
X6524186Y-8522786D01*
X6509900Y-8479929D01*
X6495614Y-8408500D01*
X6495614Y-8351357D01*
X6509900Y-8279929D01*
X6524186Y-8237071D01*
X6538471Y-8208500D01*
X6567043Y-8165643D01*
X6581328Y-8151357D01*
X6681328Y-8222786D02*
X6695614Y-8208500D01*
X6724186Y-8194214D01*
X6795614Y-8194214D01*
X6824186Y-8208500D01*
X6838471Y-8222786D01*
X6852757Y-8251357D01*
X6852757Y-8279929D01*
X6838471Y-8322786D01*
X6667043Y-8494214D01*
X6852757Y-8494214D01*
X7038471Y-8194214D02*
X7067043Y-8194214D01*
X7095614Y-8208500D01*
X7109900Y-8222786D01*
X7124186Y-8251357D01*
X7138471Y-8308500D01*
X7138471Y-8379929D01*
X7124186Y-8437072D01*
X7109900Y-8465643D01*
X7095614Y-8479929D01*
X7067043Y-8494214D01*
X7038471Y-8494214D01*
X7009900Y-8479929D01*
X6995614Y-8465643D01*
X6981328Y-8437072D01*
X6967043Y-8379929D01*
X6967043Y-8308500D01*
X6981328Y-8251357D01*
X6995614Y-8222786D01*
X7009900Y-8208500D01*
X7038471Y-8194214D01*
X7495614Y-8494214D02*
X7495614Y-8194214D01*
X7624186Y-8494214D02*
X7624186Y-8337071D01*
X7609900Y-8308500D01*
X7581328Y-8294214D01*
X7538471Y-8294214D01*
X7509900Y-8308500D01*
X7495614Y-8322786D01*
X7809900Y-8494214D02*
X7781328Y-8479929D01*
X7767043Y-8465643D01*
X7752757Y-8437072D01*
X7752757Y-8351357D01*
X7767043Y-8322786D01*
X7781328Y-8308500D01*
X7809900Y-8294214D01*
X7852757Y-8294214D01*
X7881328Y-8308500D01*
X7895614Y-8322786D01*
X7909900Y-8351357D01*
X7909900Y-8437072D01*
X7895614Y-8465643D01*
X7881328Y-8479929D01*
X7852757Y-8494214D01*
X7809900Y-8494214D01*
X8081328Y-8494214D02*
X8052757Y-8479929D01*
X8038471Y-8451357D01*
X8038471Y-8194214D01*
X8309900Y-8479929D02*
X8281328Y-8494214D01*
X8224186Y-8494214D01*
X8195614Y-8479929D01*
X8181328Y-8451357D01*
X8181328Y-8337071D01*
X8195614Y-8308500D01*
X8224186Y-8294214D01*
X8281328Y-8294214D01*
X8309900Y-8308500D01*
X8324186Y-8337071D01*
X8324186Y-8365643D01*
X8181328Y-8394214D01*
X8438471Y-8479929D02*
X8467043Y-8494214D01*
X8524186Y-8494214D01*
X8552757Y-8479929D01*
X8567043Y-8451357D01*
X8567043Y-8437072D01*
X8552757Y-8408500D01*
X8524186Y-8394214D01*
X8481328Y-8394214D01*
X8452757Y-8379929D01*
X8438471Y-8351357D01*
X8438471Y-8337071D01*
X8452757Y-8308500D01*
X8481328Y-8294214D01*
X8524186Y-8294214D01*
X8552757Y-8308500D01*
X8667043Y-8608500D02*
X8681328Y-8594214D01*
X8709900Y-8551357D01*
X8724186Y-8522786D01*
X8738471Y-8479929D01*
X8752757Y-8408500D01*
X8752757Y-8351357D01*
X8738471Y-8279929D01*
X8724186Y-8237071D01*
X8709900Y-8208500D01*
X8681328Y-8165643D01*
X8667043Y-8151357D01*
X1872933Y-8807534D02*
X1872933Y-8701467D01*
X1766866Y-8701467D01*
X1766866Y-8807534D01*
X1872933Y-8807534D01*
X2338471Y-8890214D02*
X2167043Y-8890214D01*
X2252757Y-8890214D02*
X2252757Y-8590214D01*
X2224186Y-8633072D01*
X2195614Y-8661643D01*
X2167043Y-8675929D01*
X2467043Y-8861643D02*
X2481328Y-8875929D01*
X2467043Y-8890214D01*
X2452757Y-8875929D01*
X2467043Y-8861643D01*
X2467043Y-8890214D01*
X2752757Y-8590214D02*
X2609900Y-8590214D01*
X2595614Y-8733072D01*
X2609900Y-8718786D01*
X2638471Y-8704500D01*
X2709900Y-8704500D01*
X2738471Y-8718786D01*
X2752757Y-8733072D01*
X2767043Y-8761643D01*
X2767043Y-8833072D01*
X2752757Y-8861643D01*
X2738471Y-8875929D01*
X2709900Y-8890214D01*
X2638471Y-8890214D01*
X2609900Y-8875929D01*
X2595614Y-8861643D01*
X2952757Y-8590214D02*
X2981328Y-8590214D01*
X3009900Y-8604500D01*
X3024186Y-8618786D01*
X3038471Y-8647357D01*
X3052757Y-8704500D01*
X3052757Y-8775929D01*
X3038471Y-8833072D01*
X3024186Y-8861643D01*
X3009900Y-8875929D01*
X2981328Y-8890214D01*
X2952757Y-8890214D01*
X2924186Y-8875929D01*
X2909900Y-8861643D01*
X2895614Y-8833072D01*
X2881328Y-8775929D01*
X2881328Y-8704500D01*
X2895614Y-8647357D01*
X2909900Y-8618786D01*
X2924186Y-8604500D01*
X2952757Y-8590214D01*
X3181328Y-8890214D02*
X3181328Y-8690214D01*
X3181328Y-8718786D02*
X3195614Y-8704500D01*
X3224186Y-8690214D01*
X3267043Y-8690214D01*
X3295614Y-8704500D01*
X3309900Y-8733072D01*
X3309900Y-8890214D01*
X3309900Y-8733072D02*
X3324186Y-8704500D01*
X3352757Y-8690214D01*
X3395614Y-8690214D01*
X3424186Y-8704500D01*
X3438471Y-8733072D01*
X3438471Y-8890214D01*
X3581328Y-8890214D02*
X3581328Y-8690214D01*
X3581328Y-8718786D02*
X3595614Y-8704500D01*
X3624186Y-8690214D01*
X3667043Y-8690214D01*
X3695614Y-8704500D01*
X3709900Y-8733072D01*
X3709900Y-8890214D01*
X3709900Y-8733072D02*
X3724186Y-8704500D01*
X3752757Y-8690214D01*
X3795614Y-8690214D01*
X3824186Y-8704500D01*
X3838471Y-8733072D01*
X3838471Y-8890214D01*
X4424186Y-8575929D02*
X4167043Y-8961643D01*
X4809900Y-8590214D02*
X4838471Y-8590214D01*
X4867043Y-8604500D01*
X4881328Y-8618786D01*
X4895614Y-8647357D01*
X4909900Y-8704500D01*
X4909900Y-8775929D01*
X4895614Y-8833072D01*
X4881328Y-8861643D01*
X4867043Y-8875929D01*
X4838471Y-8890214D01*
X4809900Y-8890214D01*
X4781328Y-8875929D01*
X4767043Y-8861643D01*
X4752757Y-8833072D01*
X4738471Y-8775929D01*
X4738471Y-8704500D01*
X4752757Y-8647357D01*
X4767043Y-8618786D01*
X4781328Y-8604500D01*
X4809900Y-8590214D01*
X5038471Y-8861643D02*
X5052757Y-8875929D01*
X5038471Y-8890214D01*
X5024186Y-8875929D01*
X5038471Y-8861643D01*
X5038471Y-8890214D01*
X5238471Y-8590214D02*
X5267043Y-8590214D01*
X5295614Y-8604500D01*
X5309900Y-8618786D01*
X5324186Y-8647357D01*
X5338471Y-8704500D01*
X5338471Y-8775929D01*
X5324186Y-8833072D01*
X5309900Y-8861643D01*
X5295614Y-8875929D01*
X5267043Y-8890214D01*
X5238471Y-8890214D01*
X5209900Y-8875929D01*
X5195614Y-8861643D01*
X5181328Y-8833072D01*
X5167043Y-8775929D01*
X5167043Y-8704500D01*
X5181328Y-8647357D01*
X5195614Y-8618786D01*
X5209900Y-8604500D01*
X5238471Y-8590214D01*
X5609900Y-8590214D02*
X5467043Y-8590214D01*
X5452757Y-8733072D01*
X5467043Y-8718786D01*
X5495614Y-8704500D01*
X5567043Y-8704500D01*
X5595614Y-8718786D01*
X5609900Y-8733072D01*
X5624186Y-8761643D01*
X5624186Y-8833072D01*
X5609900Y-8861643D01*
X5595614Y-8875929D01*
X5567043Y-8890214D01*
X5495614Y-8890214D01*
X5467043Y-8875929D01*
X5452757Y-8861643D01*
X5767043Y-8890214D02*
X5824186Y-8890214D01*
X5852757Y-8875929D01*
X5867043Y-8861643D01*
X5895614Y-8818786D01*
X5909900Y-8761643D01*
X5909900Y-8647357D01*
X5895614Y-8618786D01*
X5881328Y-8604500D01*
X5852757Y-8590214D01*
X5795614Y-8590214D01*
X5767043Y-8604500D01*
X5752757Y-8618786D01*
X5738471Y-8647357D01*
X5738471Y-8718786D01*
X5752757Y-8747357D01*
X5767043Y-8761643D01*
X5795614Y-8775929D01*
X5852757Y-8775929D01*
X5881328Y-8761643D01*
X5895614Y-8747357D01*
X5909900Y-8718786D01*
X6024186Y-8590214D02*
X6024186Y-8647357D01*
X6138471Y-8590214D02*
X6138471Y-8647357D01*
X6581328Y-9004500D02*
X6567043Y-8990214D01*
X6538471Y-8947357D01*
X6524186Y-8918786D01*
X6509900Y-8875929D01*
X6495614Y-8804500D01*
X6495614Y-8747357D01*
X6509900Y-8675929D01*
X6524186Y-8633072D01*
X6538471Y-8604500D01*
X6567043Y-8561643D01*
X6581328Y-8547357D01*
X6681328Y-8618786D02*
X6695614Y-8604500D01*
X6724186Y-8590214D01*
X6795614Y-8590214D01*
X6824186Y-8604500D01*
X6838471Y-8618786D01*
X6852757Y-8647357D01*
X6852757Y-8675929D01*
X6838471Y-8718786D01*
X6667043Y-8890214D01*
X6852757Y-8890214D01*
X6952757Y-8590214D02*
X7152757Y-8590214D01*
X7024186Y-8890214D01*
X7495614Y-8890214D02*
X7495614Y-8590214D01*
X7624186Y-8890214D02*
X7624186Y-8733072D01*
X7609900Y-8704500D01*
X7581328Y-8690214D01*
X7538471Y-8690214D01*
X7509900Y-8704500D01*
X7495614Y-8718786D01*
X7809900Y-8890214D02*
X7781328Y-8875929D01*
X7767043Y-8861643D01*
X7752757Y-8833072D01*
X7752757Y-8747357D01*
X7767043Y-8718786D01*
X7781328Y-8704500D01*
X7809900Y-8690214D01*
X7852757Y-8690214D01*
X7881328Y-8704500D01*
X7895614Y-8718786D01*
X7909900Y-8747357D01*
X7909900Y-8833072D01*
X7895614Y-8861643D01*
X7881328Y-8875929D01*
X7852757Y-8890214D01*
X7809900Y-8890214D01*
X8081328Y-8890214D02*
X8052757Y-8875929D01*
X8038471Y-8847357D01*
X8038471Y-8590214D01*
X8309900Y-8875929D02*
X8281328Y-8890214D01*
X8224186Y-8890214D01*
X8195614Y-8875929D01*
X8181328Y-8847357D01*
X8181328Y-8733072D01*
X8195614Y-8704500D01*
X8224186Y-8690214D01*
X8281328Y-8690214D01*
X8309900Y-8704500D01*
X8324186Y-8733072D01*
X8324186Y-8761643D01*
X8181328Y-8790214D01*
X8438471Y-8875929D02*
X8467043Y-8890214D01*
X8524186Y-8890214D01*
X8552757Y-8875929D01*
X8567043Y-8847357D01*
X8567043Y-8833072D01*
X8552757Y-8804500D01*
X8524186Y-8790214D01*
X8481328Y-8790214D01*
X8452757Y-8775929D01*
X8438471Y-8747357D01*
X8438471Y-8733072D01*
X8452757Y-8704500D01*
X8481328Y-8690214D01*
X8524186Y-8690214D01*
X8552757Y-8704500D01*
X8667043Y-9004500D02*
X8681328Y-8990214D01*
X8709900Y-8947357D01*
X8724186Y-8918786D01*
X8738471Y-8875929D01*
X8752757Y-8804500D01*
X8752757Y-8747357D01*
X8738471Y-8675929D01*
X8724186Y-8633072D01*
X8709900Y-8604500D01*
X8681328Y-8561643D01*
X8667043Y-8547357D01*
M02*
