G04 #@! TF.GenerationSoftware,KiCad,Pcbnew,(5.1.9)-1*
G04 #@! TF.CreationDate,2021-02-23T11:48:30+09:00*
G04 #@! TF.ProjectId,debugger,64656275-6767-4657-922e-6b696361645f,rev?*
G04 #@! TF.SameCoordinates,Original*
G04 #@! TF.FileFunction,Legend,Top*
G04 #@! TF.FilePolarity,Positive*
%FSLAX46Y46*%
G04 Gerber Fmt 4.6, Leading zero omitted, Abs format (unit mm)*
G04 Created by KiCad (PCBNEW (5.1.9)-1) date 2021-02-23 11:48:30*
%MOMM*%
%LPD*%
G01*
G04 APERTURE LIST*
%ADD10C,0.120000*%
%ADD11C,0.150000*%
G04 APERTURE END LIST*
D10*
X26162000Y-59055000D02*
X48260000Y-59055000D01*
X26162000Y-57277000D02*
X26162000Y-59055000D01*
X48260000Y-57277000D02*
X26162000Y-57277000D01*
X48260000Y-59055000D02*
X48260000Y-57277000D01*
D11*
X27107809Y-58491380D02*
X26774476Y-58015190D01*
X26536380Y-58491380D02*
X26536380Y-57491380D01*
X26917333Y-57491380D01*
X27012571Y-57539000D01*
X27060190Y-57586619D01*
X27107809Y-57681857D01*
X27107809Y-57824714D01*
X27060190Y-57919952D01*
X27012571Y-57967571D01*
X26917333Y-58015190D01*
X26536380Y-58015190D01*
X27488761Y-58205666D02*
X27964952Y-58205666D01*
X27393523Y-58491380D02*
X27726857Y-57491380D01*
X28060190Y-58491380D01*
X28393523Y-58491380D02*
X28393523Y-57491380D01*
X28726857Y-58205666D01*
X29060190Y-57491380D01*
X29060190Y-58491380D01*
X29536380Y-58491380D02*
X29536380Y-57491380D01*
X30107809Y-58491380D01*
X30107809Y-57491380D01*
X31203047Y-57491380D02*
X31536380Y-58491380D01*
X31869714Y-57491380D01*
X32726857Y-58491380D02*
X32155428Y-58491380D01*
X32441142Y-58491380D02*
X32441142Y-57491380D01*
X32345904Y-57634238D01*
X32250666Y-57729476D01*
X32155428Y-57777095D01*
X33917333Y-58491380D02*
X33917333Y-57491380D01*
X34155428Y-57491380D01*
X34298285Y-57539000D01*
X34393523Y-57634238D01*
X34441142Y-57729476D01*
X34488761Y-57919952D01*
X34488761Y-58062809D01*
X34441142Y-58253285D01*
X34393523Y-58348523D01*
X34298285Y-58443761D01*
X34155428Y-58491380D01*
X33917333Y-58491380D01*
X35298285Y-58443761D02*
X35203047Y-58491380D01*
X35012571Y-58491380D01*
X34917333Y-58443761D01*
X34869714Y-58348523D01*
X34869714Y-57967571D01*
X34917333Y-57872333D01*
X35012571Y-57824714D01*
X35203047Y-57824714D01*
X35298285Y-57872333D01*
X35345904Y-57967571D01*
X35345904Y-58062809D01*
X34869714Y-58158047D01*
X35774476Y-58491380D02*
X35774476Y-57491380D01*
X35774476Y-57872333D02*
X35869714Y-57824714D01*
X36060190Y-57824714D01*
X36155428Y-57872333D01*
X36203047Y-57919952D01*
X36250666Y-58015190D01*
X36250666Y-58300904D01*
X36203047Y-58396142D01*
X36155428Y-58443761D01*
X36060190Y-58491380D01*
X35869714Y-58491380D01*
X35774476Y-58443761D01*
X37107809Y-57824714D02*
X37107809Y-58491380D01*
X36679238Y-57824714D02*
X36679238Y-58348523D01*
X36726857Y-58443761D01*
X36822095Y-58491380D01*
X36964952Y-58491380D01*
X37060190Y-58443761D01*
X37107809Y-58396142D01*
X38012571Y-57824714D02*
X38012571Y-58634238D01*
X37964952Y-58729476D01*
X37917333Y-58777095D01*
X37822095Y-58824714D01*
X37679238Y-58824714D01*
X37583999Y-58777095D01*
X38012571Y-58443761D02*
X37917333Y-58491380D01*
X37726857Y-58491380D01*
X37631619Y-58443761D01*
X37583999Y-58396142D01*
X37536380Y-58300904D01*
X37536380Y-58015190D01*
X37583999Y-57919952D01*
X37631619Y-57872333D01*
X37726857Y-57824714D01*
X37917333Y-57824714D01*
X38012571Y-57872333D01*
X38917333Y-57824714D02*
X38917333Y-58634238D01*
X38869714Y-58729476D01*
X38822095Y-58777095D01*
X38726857Y-58824714D01*
X38583999Y-58824714D01*
X38488761Y-58777095D01*
X38917333Y-58443761D02*
X38822095Y-58491380D01*
X38631619Y-58491380D01*
X38536380Y-58443761D01*
X38488761Y-58396142D01*
X38441142Y-58300904D01*
X38441142Y-58015190D01*
X38488761Y-57919952D01*
X38536380Y-57872333D01*
X38631619Y-57824714D01*
X38822095Y-57824714D01*
X38917333Y-57872333D01*
X39774476Y-58443761D02*
X39679238Y-58491380D01*
X39488761Y-58491380D01*
X39393523Y-58443761D01*
X39345904Y-58348523D01*
X39345904Y-57967571D01*
X39393523Y-57872333D01*
X39488761Y-57824714D01*
X39679238Y-57824714D01*
X39774476Y-57872333D01*
X39822095Y-57967571D01*
X39822095Y-58062809D01*
X39345904Y-58158047D01*
X40250666Y-58491380D02*
X40250666Y-57824714D01*
X40250666Y-58015190D02*
X40298285Y-57919952D01*
X40345904Y-57872333D01*
X40441142Y-57824714D01*
X40536380Y-57824714D01*
X41631619Y-58491380D02*
X41631619Y-57491380D01*
X41631619Y-57872333D02*
X41726857Y-57824714D01*
X41917333Y-57824714D01*
X42012571Y-57872333D01*
X42060190Y-57919952D01*
X42107809Y-58015190D01*
X42107809Y-58300904D01*
X42060190Y-58396142D01*
X42012571Y-58443761D01*
X41917333Y-58491380D01*
X41726857Y-58491380D01*
X41631619Y-58443761D01*
X42536380Y-58491380D02*
X42536380Y-57824714D01*
X42536380Y-58015190D02*
X42583999Y-57919952D01*
X42631619Y-57872333D01*
X42726857Y-57824714D01*
X42822095Y-57824714D01*
X43536380Y-58443761D02*
X43441142Y-58491380D01*
X43250666Y-58491380D01*
X43155428Y-58443761D01*
X43107809Y-58348523D01*
X43107809Y-57967571D01*
X43155428Y-57872333D01*
X43250666Y-57824714D01*
X43441142Y-57824714D01*
X43536380Y-57872333D01*
X43583999Y-57967571D01*
X43583999Y-58062809D01*
X43107809Y-58158047D01*
X44441142Y-58491380D02*
X44441142Y-57967571D01*
X44393523Y-57872333D01*
X44298285Y-57824714D01*
X44107809Y-57824714D01*
X44012571Y-57872333D01*
X44441142Y-58443761D02*
X44345904Y-58491380D01*
X44107809Y-58491380D01*
X44012571Y-58443761D01*
X43964952Y-58348523D01*
X43964952Y-58253285D01*
X44012571Y-58158047D01*
X44107809Y-58110428D01*
X44345904Y-58110428D01*
X44441142Y-58062809D01*
X44917333Y-58491380D02*
X44917333Y-57491380D01*
X45012571Y-58110428D02*
X45298285Y-58491380D01*
X45298285Y-57824714D02*
X44917333Y-58205666D01*
X45869714Y-58491380D02*
X45774476Y-58443761D01*
X45726857Y-58396142D01*
X45679238Y-58300904D01*
X45679238Y-58015190D01*
X45726857Y-57919952D01*
X45774476Y-57872333D01*
X45869714Y-57824714D01*
X46012571Y-57824714D01*
X46107809Y-57872333D01*
X46155428Y-57919952D01*
X46203047Y-58015190D01*
X46203047Y-58300904D01*
X46155428Y-58396142D01*
X46107809Y-58443761D01*
X46012571Y-58491380D01*
X45869714Y-58491380D01*
X47060190Y-57824714D02*
X47060190Y-58491380D01*
X46631619Y-57824714D02*
X46631619Y-58348523D01*
X46679238Y-58443761D01*
X46774476Y-58491380D01*
X46917333Y-58491380D01*
X47012571Y-58443761D01*
X47060190Y-58396142D01*
X47393523Y-57824714D02*
X47774476Y-57824714D01*
X47536380Y-57491380D02*
X47536380Y-58348523D01*
X47583999Y-58443761D01*
X47679238Y-58491380D01*
X47774476Y-58491380D01*
D10*
X52638000Y-60265000D02*
X52638000Y-62865000D01*
X52638000Y-60265000D02*
X19498000Y-60265000D01*
X19498000Y-60265000D02*
X19498000Y-65465000D01*
X50038000Y-65465000D02*
X19498000Y-65465000D01*
X50038000Y-62865000D02*
X50038000Y-65465000D01*
X52638000Y-62865000D02*
X50038000Y-62865000D01*
X52638000Y-65465000D02*
X51308000Y-65465000D01*
X52638000Y-64135000D02*
X52638000Y-65465000D01*
X33945000Y-25715000D02*
X33945000Y-16365000D01*
X52975000Y-25715000D02*
X19415000Y-25715000D01*
X52975000Y-25715000D02*
X52975000Y-16365000D01*
X38445000Y-25715000D02*
X38445000Y-16365000D01*
X19415000Y-25715000D02*
X19415000Y-16365000D01*
X19415000Y-16365000D02*
X52975000Y-16365000D01*
X23495000Y-29845000D02*
X23495000Y-31115000D01*
X23495000Y-31115000D02*
X24765000Y-31115000D01*
X22909000Y-35179000D02*
G75*
G03*
X22909000Y-35179000I-1700000J0D01*
G01*
X32815000Y-54229000D02*
G75*
G03*
X32815000Y-54229000I-1700000J0D01*
G01*
X32815000Y-35179000D02*
G75*
G03*
X32815000Y-35179000I-1700000J0D01*
G01*
X32815000Y-47879000D02*
G75*
G03*
X32815000Y-47879000I-1700000J0D01*
G01*
X37895000Y-41529000D02*
G75*
G03*
X37895000Y-41529000I-1700000J0D01*
G01*
X37895000Y-35179000D02*
G75*
G03*
X37895000Y-35179000I-1700000J0D01*
G01*
X37895000Y-47879000D02*
G75*
G03*
X37895000Y-47879000I-1700000J0D01*
G01*
X37895000Y-54229000D02*
G75*
G03*
X37895000Y-54229000I-1700000J0D01*
G01*
X42975000Y-41529000D02*
G75*
G03*
X42975000Y-41529000I-1700000J0D01*
G01*
X42975000Y-35179000D02*
G75*
G03*
X42975000Y-35179000I-1700000J0D01*
G01*
X32815000Y-41529000D02*
G75*
G03*
X32815000Y-41529000I-1700000J0D01*
G01*
X42975000Y-47879000D02*
G75*
G03*
X42975000Y-47879000I-1700000J0D01*
G01*
X42975000Y-54229000D02*
G75*
G03*
X42975000Y-54229000I-1700000J0D01*
G01*
X48055000Y-41529000D02*
G75*
G03*
X48055000Y-41529000I-1700000J0D01*
G01*
X48055000Y-35179000D02*
G75*
G03*
X48055000Y-35179000I-1700000J0D01*
G01*
X48055000Y-47879000D02*
G75*
G03*
X48055000Y-47879000I-1700000J0D01*
G01*
X48055000Y-54229000D02*
G75*
G03*
X48055000Y-54229000I-1700000J0D01*
G01*
X53135000Y-35179000D02*
G75*
G03*
X53135000Y-35179000I-1700000J0D01*
G01*
X27735000Y-54229000D02*
G75*
G03*
X27735000Y-54229000I-1700000J0D01*
G01*
X23036000Y-54229000D02*
G75*
G03*
X23036000Y-54229000I-1700000J0D01*
G01*
X27735000Y-47879000D02*
G75*
G03*
X27735000Y-47879000I-1700000J0D01*
G01*
X27862000Y-35179000D02*
G75*
G03*
X27862000Y-35179000I-1700000J0D01*
G01*
X23036000Y-48006000D02*
G75*
G03*
X23036000Y-48006000I-1700000J0D01*
G01*
X27735000Y-41529000D02*
G75*
G03*
X27735000Y-41529000I-1700000J0D01*
G01*
X53135000Y-41529000D02*
G75*
G03*
X53135000Y-41529000I-1700000J0D01*
G01*
X53135000Y-47879000D02*
G75*
G03*
X53135000Y-47879000I-1700000J0D01*
G01*
X53135000Y-54229000D02*
G75*
G03*
X53135000Y-54229000I-1700000J0D01*
G01*
D11*
X19859666Y-58761380D02*
X19859666Y-59475666D01*
X19812047Y-59618523D01*
X19716809Y-59713761D01*
X19573952Y-59761380D01*
X19478714Y-59761380D01*
X20383476Y-59761380D02*
X20573952Y-59761380D01*
X20669190Y-59713761D01*
X20716809Y-59666142D01*
X20812047Y-59523285D01*
X20859666Y-59332809D01*
X20859666Y-58951857D01*
X20812047Y-58856619D01*
X20764428Y-58809000D01*
X20669190Y-58761380D01*
X20478714Y-58761380D01*
X20383476Y-58809000D01*
X20335857Y-58856619D01*
X20288238Y-58951857D01*
X20288238Y-59189952D01*
X20335857Y-59285190D01*
X20383476Y-59332809D01*
X20478714Y-59380428D01*
X20669190Y-59380428D01*
X20764428Y-59332809D01*
X20812047Y-59285190D01*
X20859666Y-59189952D01*
X20018476Y-26376380D02*
X20018476Y-27090666D01*
X19970857Y-27233523D01*
X19875619Y-27328761D01*
X19732761Y-27376380D01*
X19637523Y-27376380D01*
X21018476Y-27376380D02*
X20447047Y-27376380D01*
X20732761Y-27376380D02*
X20732761Y-26376380D01*
X20637523Y-26519238D01*
X20542285Y-26614476D01*
X20447047Y-26662095D01*
X21637523Y-26376380D02*
X21732761Y-26376380D01*
X21828000Y-26424000D01*
X21875619Y-26471619D01*
X21923238Y-26566857D01*
X21970857Y-26757333D01*
X21970857Y-26995428D01*
X21923238Y-27185904D01*
X21875619Y-27281142D01*
X21828000Y-27328761D01*
X21732761Y-27376380D01*
X21637523Y-27376380D01*
X21542285Y-27328761D01*
X21494666Y-27281142D01*
X21447047Y-27185904D01*
X21399428Y-26995428D01*
X21399428Y-26757333D01*
X21447047Y-26566857D01*
X21494666Y-26471619D01*
X21542285Y-26424000D01*
X21637523Y-26376380D01*
X20447095Y-32139000D02*
X20351857Y-32091380D01*
X20209000Y-32091380D01*
X20066142Y-32139000D01*
X19970904Y-32234238D01*
X19923285Y-32329476D01*
X19875666Y-32519952D01*
X19875666Y-32662809D01*
X19923285Y-32853285D01*
X19970904Y-32948523D01*
X20066142Y-33043761D01*
X20209000Y-33091380D01*
X20304238Y-33091380D01*
X20447095Y-33043761D01*
X20494714Y-32996142D01*
X20494714Y-32662809D01*
X20304238Y-32662809D01*
X20923285Y-33091380D02*
X20923285Y-32091380D01*
X21494714Y-33091380D01*
X21494714Y-32091380D01*
X21970904Y-33091380D02*
X21970904Y-32091380D01*
X22209000Y-32091380D01*
X22351857Y-32139000D01*
X22447095Y-32234238D01*
X22494714Y-32329476D01*
X22542333Y-32519952D01*
X22542333Y-32662809D01*
X22494714Y-32853285D01*
X22447095Y-32948523D01*
X22351857Y-33043761D01*
X22209000Y-33091380D01*
X21970904Y-33091380D01*
X29400714Y-52268380D02*
X29400714Y-51268380D01*
X29781666Y-51268380D01*
X29876904Y-51316000D01*
X29924523Y-51363619D01*
X29972142Y-51458857D01*
X29972142Y-51601714D01*
X29924523Y-51696952D01*
X29876904Y-51744571D01*
X29781666Y-51792190D01*
X29400714Y-51792190D01*
X30734047Y-51744571D02*
X30876904Y-51792190D01*
X30924523Y-51839809D01*
X30972142Y-51935047D01*
X30972142Y-52077904D01*
X30924523Y-52173142D01*
X30876904Y-52220761D01*
X30781666Y-52268380D01*
X30400714Y-52268380D01*
X30400714Y-51268380D01*
X30734047Y-51268380D01*
X30829285Y-51316000D01*
X30876904Y-51363619D01*
X30924523Y-51458857D01*
X30924523Y-51554095D01*
X30876904Y-51649333D01*
X30829285Y-51696952D01*
X30734047Y-51744571D01*
X30400714Y-51744571D01*
X31924523Y-52268380D02*
X31353095Y-52268380D01*
X31638809Y-52268380D02*
X31638809Y-51268380D01*
X31543571Y-51411238D01*
X31448333Y-51506476D01*
X31353095Y-51554095D01*
X32257857Y-51268380D02*
X32876904Y-51268380D01*
X32543571Y-51649333D01*
X32686428Y-51649333D01*
X32781666Y-51696952D01*
X32829285Y-51744571D01*
X32876904Y-51839809D01*
X32876904Y-52077904D01*
X32829285Y-52173142D01*
X32781666Y-52220761D01*
X32686428Y-52268380D01*
X32400714Y-52268380D01*
X32305476Y-52220761D01*
X32257857Y-52173142D01*
X29400714Y-33091380D02*
X29400714Y-32091380D01*
X29781666Y-32091380D01*
X29876904Y-32139000D01*
X29924523Y-32186619D01*
X29972142Y-32281857D01*
X29972142Y-32424714D01*
X29924523Y-32519952D01*
X29876904Y-32567571D01*
X29781666Y-32615190D01*
X29400714Y-32615190D01*
X30734047Y-32567571D02*
X30876904Y-32615190D01*
X30924523Y-32662809D01*
X30972142Y-32758047D01*
X30972142Y-32900904D01*
X30924523Y-32996142D01*
X30876904Y-33043761D01*
X30781666Y-33091380D01*
X30400714Y-33091380D01*
X30400714Y-32091380D01*
X30734047Y-32091380D01*
X30829285Y-32139000D01*
X30876904Y-32186619D01*
X30924523Y-32281857D01*
X30924523Y-32377095D01*
X30876904Y-32472333D01*
X30829285Y-32519952D01*
X30734047Y-32567571D01*
X30400714Y-32567571D01*
X31924523Y-33091380D02*
X31353095Y-33091380D01*
X31638809Y-33091380D02*
X31638809Y-32091380D01*
X31543571Y-32234238D01*
X31448333Y-32329476D01*
X31353095Y-32377095D01*
X32829285Y-32091380D02*
X32353095Y-32091380D01*
X32305476Y-32567571D01*
X32353095Y-32519952D01*
X32448333Y-32472333D01*
X32686428Y-32472333D01*
X32781666Y-32519952D01*
X32829285Y-32567571D01*
X32876904Y-32662809D01*
X32876904Y-32900904D01*
X32829285Y-32996142D01*
X32781666Y-33043761D01*
X32686428Y-33091380D01*
X32448333Y-33091380D01*
X32353095Y-33043761D01*
X32305476Y-32996142D01*
X29400714Y-45918380D02*
X29400714Y-44918380D01*
X29781666Y-44918380D01*
X29876904Y-44966000D01*
X29924523Y-45013619D01*
X29972142Y-45108857D01*
X29972142Y-45251714D01*
X29924523Y-45346952D01*
X29876904Y-45394571D01*
X29781666Y-45442190D01*
X29400714Y-45442190D01*
X30734047Y-45394571D02*
X30876904Y-45442190D01*
X30924523Y-45489809D01*
X30972142Y-45585047D01*
X30972142Y-45727904D01*
X30924523Y-45823142D01*
X30876904Y-45870761D01*
X30781666Y-45918380D01*
X30400714Y-45918380D01*
X30400714Y-44918380D01*
X30734047Y-44918380D01*
X30829285Y-44966000D01*
X30876904Y-45013619D01*
X30924523Y-45108857D01*
X30924523Y-45204095D01*
X30876904Y-45299333D01*
X30829285Y-45346952D01*
X30734047Y-45394571D01*
X30400714Y-45394571D01*
X31924523Y-45918380D02*
X31353095Y-45918380D01*
X31638809Y-45918380D02*
X31638809Y-44918380D01*
X31543571Y-45061238D01*
X31448333Y-45156476D01*
X31353095Y-45204095D01*
X32781666Y-45251714D02*
X32781666Y-45918380D01*
X32543571Y-44870761D02*
X32305476Y-45585047D01*
X32924523Y-45585047D01*
X34480714Y-39441380D02*
X34480714Y-38441380D01*
X34861666Y-38441380D01*
X34956904Y-38489000D01*
X35004523Y-38536619D01*
X35052142Y-38631857D01*
X35052142Y-38774714D01*
X35004523Y-38869952D01*
X34956904Y-38917571D01*
X34861666Y-38965190D01*
X34480714Y-38965190D01*
X35814047Y-38917571D02*
X35956904Y-38965190D01*
X36004523Y-39012809D01*
X36052142Y-39108047D01*
X36052142Y-39250904D01*
X36004523Y-39346142D01*
X35956904Y-39393761D01*
X35861666Y-39441380D01*
X35480714Y-39441380D01*
X35480714Y-38441380D01*
X35814047Y-38441380D01*
X35909285Y-38489000D01*
X35956904Y-38536619D01*
X36004523Y-38631857D01*
X36004523Y-38727095D01*
X35956904Y-38822333D01*
X35909285Y-38869952D01*
X35814047Y-38917571D01*
X35480714Y-38917571D01*
X37004523Y-39441380D02*
X36433095Y-39441380D01*
X36718809Y-39441380D02*
X36718809Y-38441380D01*
X36623571Y-38584238D01*
X36528333Y-38679476D01*
X36433095Y-38727095D01*
X37385476Y-38536619D02*
X37433095Y-38489000D01*
X37528333Y-38441380D01*
X37766428Y-38441380D01*
X37861666Y-38489000D01*
X37909285Y-38536619D01*
X37956904Y-38631857D01*
X37956904Y-38727095D01*
X37909285Y-38869952D01*
X37337857Y-39441380D01*
X37956904Y-39441380D01*
X34480714Y-33091380D02*
X34480714Y-32091380D01*
X34861666Y-32091380D01*
X34956904Y-32139000D01*
X35004523Y-32186619D01*
X35052142Y-32281857D01*
X35052142Y-32424714D01*
X35004523Y-32519952D01*
X34956904Y-32567571D01*
X34861666Y-32615190D01*
X34480714Y-32615190D01*
X35814047Y-32567571D02*
X35956904Y-32615190D01*
X36004523Y-32662809D01*
X36052142Y-32758047D01*
X36052142Y-32900904D01*
X36004523Y-32996142D01*
X35956904Y-33043761D01*
X35861666Y-33091380D01*
X35480714Y-33091380D01*
X35480714Y-32091380D01*
X35814047Y-32091380D01*
X35909285Y-32139000D01*
X35956904Y-32186619D01*
X36004523Y-32281857D01*
X36004523Y-32377095D01*
X35956904Y-32472333D01*
X35909285Y-32519952D01*
X35814047Y-32567571D01*
X35480714Y-32567571D01*
X37004523Y-33091380D02*
X36433095Y-33091380D01*
X36718809Y-33091380D02*
X36718809Y-32091380D01*
X36623571Y-32234238D01*
X36528333Y-32329476D01*
X36433095Y-32377095D01*
X37956904Y-33091380D02*
X37385476Y-33091380D01*
X37671190Y-33091380D02*
X37671190Y-32091380D01*
X37575952Y-32234238D01*
X37480714Y-32329476D01*
X37385476Y-32377095D01*
X34480714Y-45918380D02*
X34480714Y-44918380D01*
X34861666Y-44918380D01*
X34956904Y-44966000D01*
X35004523Y-45013619D01*
X35052142Y-45108857D01*
X35052142Y-45251714D01*
X35004523Y-45346952D01*
X34956904Y-45394571D01*
X34861666Y-45442190D01*
X34480714Y-45442190D01*
X35814047Y-45394571D02*
X35956904Y-45442190D01*
X36004523Y-45489809D01*
X36052142Y-45585047D01*
X36052142Y-45727904D01*
X36004523Y-45823142D01*
X35956904Y-45870761D01*
X35861666Y-45918380D01*
X35480714Y-45918380D01*
X35480714Y-44918380D01*
X35814047Y-44918380D01*
X35909285Y-44966000D01*
X35956904Y-45013619D01*
X36004523Y-45108857D01*
X36004523Y-45204095D01*
X35956904Y-45299333D01*
X35909285Y-45346952D01*
X35814047Y-45394571D01*
X35480714Y-45394571D01*
X37004523Y-45918380D02*
X36433095Y-45918380D01*
X36718809Y-45918380D02*
X36718809Y-44918380D01*
X36623571Y-45061238D01*
X36528333Y-45156476D01*
X36433095Y-45204095D01*
X37623571Y-44918380D02*
X37718809Y-44918380D01*
X37814047Y-44966000D01*
X37861666Y-45013619D01*
X37909285Y-45108857D01*
X37956904Y-45299333D01*
X37956904Y-45537428D01*
X37909285Y-45727904D01*
X37861666Y-45823142D01*
X37814047Y-45870761D01*
X37718809Y-45918380D01*
X37623571Y-45918380D01*
X37528333Y-45870761D01*
X37480714Y-45823142D01*
X37433095Y-45727904D01*
X37385476Y-45537428D01*
X37385476Y-45299333D01*
X37433095Y-45108857D01*
X37480714Y-45013619D01*
X37528333Y-44966000D01*
X37623571Y-44918380D01*
X34956904Y-52268380D02*
X34956904Y-51268380D01*
X35337857Y-51268380D01*
X35433095Y-51316000D01*
X35480714Y-51363619D01*
X35528333Y-51458857D01*
X35528333Y-51601714D01*
X35480714Y-51696952D01*
X35433095Y-51744571D01*
X35337857Y-51792190D01*
X34956904Y-51792190D01*
X36290238Y-51744571D02*
X36433095Y-51792190D01*
X36480714Y-51839809D01*
X36528333Y-51935047D01*
X36528333Y-52077904D01*
X36480714Y-52173142D01*
X36433095Y-52220761D01*
X36337857Y-52268380D01*
X35956904Y-52268380D01*
X35956904Y-51268380D01*
X36290238Y-51268380D01*
X36385476Y-51316000D01*
X36433095Y-51363619D01*
X36480714Y-51458857D01*
X36480714Y-51554095D01*
X36433095Y-51649333D01*
X36385476Y-51696952D01*
X36290238Y-51744571D01*
X35956904Y-51744571D01*
X36909285Y-51363619D02*
X36956904Y-51316000D01*
X37052142Y-51268380D01*
X37290238Y-51268380D01*
X37385476Y-51316000D01*
X37433095Y-51363619D01*
X37480714Y-51458857D01*
X37480714Y-51554095D01*
X37433095Y-51696952D01*
X36861666Y-52268380D01*
X37480714Y-52268380D01*
X40036904Y-39441380D02*
X40036904Y-38441380D01*
X40417857Y-38441380D01*
X40513095Y-38489000D01*
X40560714Y-38536619D01*
X40608333Y-38631857D01*
X40608333Y-38774714D01*
X40560714Y-38869952D01*
X40513095Y-38917571D01*
X40417857Y-38965190D01*
X40036904Y-38965190D01*
X41370238Y-38917571D02*
X41513095Y-38965190D01*
X41560714Y-39012809D01*
X41608333Y-39108047D01*
X41608333Y-39250904D01*
X41560714Y-39346142D01*
X41513095Y-39393761D01*
X41417857Y-39441380D01*
X41036904Y-39441380D01*
X41036904Y-38441380D01*
X41370238Y-38441380D01*
X41465476Y-38489000D01*
X41513095Y-38536619D01*
X41560714Y-38631857D01*
X41560714Y-38727095D01*
X41513095Y-38822333D01*
X41465476Y-38869952D01*
X41370238Y-38917571D01*
X41036904Y-38917571D01*
X42560714Y-39441380D02*
X41989285Y-39441380D01*
X42275000Y-39441380D02*
X42275000Y-38441380D01*
X42179761Y-38584238D01*
X42084523Y-38679476D01*
X41989285Y-38727095D01*
X40036904Y-33091380D02*
X40036904Y-32091380D01*
X40417857Y-32091380D01*
X40513095Y-32139000D01*
X40560714Y-32186619D01*
X40608333Y-32281857D01*
X40608333Y-32424714D01*
X40560714Y-32519952D01*
X40513095Y-32567571D01*
X40417857Y-32615190D01*
X40036904Y-32615190D01*
X41370238Y-32567571D02*
X41513095Y-32615190D01*
X41560714Y-32662809D01*
X41608333Y-32758047D01*
X41608333Y-32900904D01*
X41560714Y-32996142D01*
X41513095Y-33043761D01*
X41417857Y-33091380D01*
X41036904Y-33091380D01*
X41036904Y-32091380D01*
X41370238Y-32091380D01*
X41465476Y-32139000D01*
X41513095Y-32186619D01*
X41560714Y-32281857D01*
X41560714Y-32377095D01*
X41513095Y-32472333D01*
X41465476Y-32519952D01*
X41370238Y-32567571D01*
X41036904Y-32567571D01*
X42227380Y-32091380D02*
X42322619Y-32091380D01*
X42417857Y-32139000D01*
X42465476Y-32186619D01*
X42513095Y-32281857D01*
X42560714Y-32472333D01*
X42560714Y-32710428D01*
X42513095Y-32900904D01*
X42465476Y-32996142D01*
X42417857Y-33043761D01*
X42322619Y-33091380D01*
X42227380Y-33091380D01*
X42132142Y-33043761D01*
X42084523Y-32996142D01*
X42036904Y-32900904D01*
X41989285Y-32710428D01*
X41989285Y-32472333D01*
X42036904Y-32281857D01*
X42084523Y-32186619D01*
X42132142Y-32139000D01*
X42227380Y-32091380D01*
X29948333Y-39441380D02*
X29948333Y-38441380D01*
X30329285Y-38441380D01*
X30424523Y-38489000D01*
X30472142Y-38536619D01*
X30519761Y-38631857D01*
X30519761Y-38774714D01*
X30472142Y-38869952D01*
X30424523Y-38917571D01*
X30329285Y-38965190D01*
X29948333Y-38965190D01*
X30900714Y-39155666D02*
X31376904Y-39155666D01*
X30805476Y-39441380D02*
X31138809Y-38441380D01*
X31472142Y-39441380D01*
X31948333Y-38869952D02*
X31853095Y-38822333D01*
X31805476Y-38774714D01*
X31757857Y-38679476D01*
X31757857Y-38631857D01*
X31805476Y-38536619D01*
X31853095Y-38489000D01*
X31948333Y-38441380D01*
X32138809Y-38441380D01*
X32234047Y-38489000D01*
X32281666Y-38536619D01*
X32329285Y-38631857D01*
X32329285Y-38679476D01*
X32281666Y-38774714D01*
X32234047Y-38822333D01*
X32138809Y-38869952D01*
X31948333Y-38869952D01*
X31853095Y-38917571D01*
X31805476Y-38965190D01*
X31757857Y-39060428D01*
X31757857Y-39250904D01*
X31805476Y-39346142D01*
X31853095Y-39393761D01*
X31948333Y-39441380D01*
X32138809Y-39441380D01*
X32234047Y-39393761D01*
X32281666Y-39346142D01*
X32329285Y-39250904D01*
X32329285Y-39060428D01*
X32281666Y-38965190D01*
X32234047Y-38917571D01*
X32138809Y-38869952D01*
X40108333Y-45918380D02*
X40108333Y-44918380D01*
X40489285Y-44918380D01*
X40584523Y-44966000D01*
X40632142Y-45013619D01*
X40679761Y-45108857D01*
X40679761Y-45251714D01*
X40632142Y-45346952D01*
X40584523Y-45394571D01*
X40489285Y-45442190D01*
X40108333Y-45442190D01*
X41060714Y-45632666D02*
X41536904Y-45632666D01*
X40965476Y-45918380D02*
X41298809Y-44918380D01*
X41632142Y-45918380D01*
X41870238Y-44918380D02*
X42536904Y-44918380D01*
X42108333Y-45918380D01*
X40108333Y-52268380D02*
X40108333Y-51268380D01*
X40489285Y-51268380D01*
X40584523Y-51316000D01*
X40632142Y-51363619D01*
X40679761Y-51458857D01*
X40679761Y-51601714D01*
X40632142Y-51696952D01*
X40584523Y-51744571D01*
X40489285Y-51792190D01*
X40108333Y-51792190D01*
X41060714Y-51982666D02*
X41536904Y-51982666D01*
X40965476Y-52268380D02*
X41298809Y-51268380D01*
X41632142Y-52268380D01*
X42394047Y-51268380D02*
X42203571Y-51268380D01*
X42108333Y-51316000D01*
X42060714Y-51363619D01*
X41965476Y-51506476D01*
X41917857Y-51696952D01*
X41917857Y-52077904D01*
X41965476Y-52173142D01*
X42013095Y-52220761D01*
X42108333Y-52268380D01*
X42298809Y-52268380D01*
X42394047Y-52220761D01*
X42441666Y-52173142D01*
X42489285Y-52077904D01*
X42489285Y-51839809D01*
X42441666Y-51744571D01*
X42394047Y-51696952D01*
X42298809Y-51649333D01*
X42108333Y-51649333D01*
X42013095Y-51696952D01*
X41965476Y-51744571D01*
X41917857Y-51839809D01*
X45188333Y-39441380D02*
X45188333Y-38441380D01*
X45569285Y-38441380D01*
X45664523Y-38489000D01*
X45712142Y-38536619D01*
X45759761Y-38631857D01*
X45759761Y-38774714D01*
X45712142Y-38869952D01*
X45664523Y-38917571D01*
X45569285Y-38965190D01*
X45188333Y-38965190D01*
X46140714Y-39155666D02*
X46616904Y-39155666D01*
X46045476Y-39441380D02*
X46378809Y-38441380D01*
X46712142Y-39441380D01*
X47521666Y-38441380D02*
X47045476Y-38441380D01*
X46997857Y-38917571D01*
X47045476Y-38869952D01*
X47140714Y-38822333D01*
X47378809Y-38822333D01*
X47474047Y-38869952D01*
X47521666Y-38917571D01*
X47569285Y-39012809D01*
X47569285Y-39250904D01*
X47521666Y-39346142D01*
X47474047Y-39393761D01*
X47378809Y-39441380D01*
X47140714Y-39441380D01*
X47045476Y-39393761D01*
X46997857Y-39346142D01*
X45315333Y-33091380D02*
X45315333Y-32091380D01*
X45696285Y-32091380D01*
X45791523Y-32139000D01*
X45839142Y-32186619D01*
X45886761Y-32281857D01*
X45886761Y-32424714D01*
X45839142Y-32519952D01*
X45791523Y-32567571D01*
X45696285Y-32615190D01*
X45315333Y-32615190D01*
X46267714Y-32805666D02*
X46743904Y-32805666D01*
X46172476Y-33091380D02*
X46505809Y-32091380D01*
X46839142Y-33091380D01*
X47601047Y-32424714D02*
X47601047Y-33091380D01*
X47362952Y-32043761D02*
X47124857Y-32758047D01*
X47743904Y-32758047D01*
X45188333Y-45918380D02*
X45188333Y-44918380D01*
X45569285Y-44918380D01*
X45664523Y-44966000D01*
X45712142Y-45013619D01*
X45759761Y-45108857D01*
X45759761Y-45251714D01*
X45712142Y-45346952D01*
X45664523Y-45394571D01*
X45569285Y-45442190D01*
X45188333Y-45442190D01*
X46140714Y-45632666D02*
X46616904Y-45632666D01*
X46045476Y-45918380D02*
X46378809Y-44918380D01*
X46712142Y-45918380D01*
X46950238Y-44918380D02*
X47569285Y-44918380D01*
X47235952Y-45299333D01*
X47378809Y-45299333D01*
X47474047Y-45346952D01*
X47521666Y-45394571D01*
X47569285Y-45489809D01*
X47569285Y-45727904D01*
X47521666Y-45823142D01*
X47474047Y-45870761D01*
X47378809Y-45918380D01*
X47093095Y-45918380D01*
X46997857Y-45870761D01*
X46950238Y-45823142D01*
X45188333Y-52268380D02*
X45188333Y-51268380D01*
X45569285Y-51268380D01*
X45664523Y-51316000D01*
X45712142Y-51363619D01*
X45759761Y-51458857D01*
X45759761Y-51601714D01*
X45712142Y-51696952D01*
X45664523Y-51744571D01*
X45569285Y-51792190D01*
X45188333Y-51792190D01*
X46140714Y-51982666D02*
X46616904Y-51982666D01*
X46045476Y-52268380D02*
X46378809Y-51268380D01*
X46712142Y-52268380D01*
X46997857Y-51363619D02*
X47045476Y-51316000D01*
X47140714Y-51268380D01*
X47378809Y-51268380D01*
X47474047Y-51316000D01*
X47521666Y-51363619D01*
X47569285Y-51458857D01*
X47569285Y-51554095D01*
X47521666Y-51696952D01*
X46950238Y-52268380D01*
X47569285Y-52268380D01*
X50268333Y-33091380D02*
X50268333Y-32091380D01*
X50649285Y-32091380D01*
X50744523Y-32139000D01*
X50792142Y-32186619D01*
X50839761Y-32281857D01*
X50839761Y-32424714D01*
X50792142Y-32519952D01*
X50744523Y-32567571D01*
X50649285Y-32615190D01*
X50268333Y-32615190D01*
X51220714Y-32805666D02*
X51696904Y-32805666D01*
X51125476Y-33091380D02*
X51458809Y-32091380D01*
X51792142Y-33091380D01*
X52649285Y-33091380D02*
X52077857Y-33091380D01*
X52363571Y-33091380D02*
X52363571Y-32091380D01*
X52268333Y-32234238D01*
X52173095Y-32329476D01*
X52077857Y-32377095D01*
X24463571Y-51601714D02*
X24463571Y-52268380D01*
X24463571Y-51696952D02*
X24511190Y-51649333D01*
X24606428Y-51601714D01*
X24749285Y-51601714D01*
X24844523Y-51649333D01*
X24892142Y-51744571D01*
X24892142Y-52268380D01*
X25939761Y-52268380D02*
X25606428Y-51792190D01*
X25368333Y-52268380D02*
X25368333Y-51268380D01*
X25749285Y-51268380D01*
X25844523Y-51316000D01*
X25892142Y-51363619D01*
X25939761Y-51458857D01*
X25939761Y-51601714D01*
X25892142Y-51696952D01*
X25844523Y-51744571D01*
X25749285Y-51792190D01*
X25368333Y-51792190D01*
X26320714Y-52220761D02*
X26463571Y-52268380D01*
X26701666Y-52268380D01*
X26796904Y-52220761D01*
X26844523Y-52173142D01*
X26892142Y-52077904D01*
X26892142Y-51982666D01*
X26844523Y-51887428D01*
X26796904Y-51839809D01*
X26701666Y-51792190D01*
X26511190Y-51744571D01*
X26415952Y-51696952D01*
X26368333Y-51649333D01*
X26320714Y-51554095D01*
X26320714Y-51458857D01*
X26368333Y-51363619D01*
X26415952Y-51316000D01*
X26511190Y-51268380D01*
X26749285Y-51268380D01*
X26892142Y-51316000D01*
X27177857Y-51268380D02*
X27749285Y-51268380D01*
X27463571Y-52268380D02*
X27463571Y-51268380D01*
X19740761Y-51268380D02*
X19740761Y-51982666D01*
X19693142Y-52125523D01*
X19597904Y-52220761D01*
X19455047Y-52268380D01*
X19359809Y-52268380D01*
X20074095Y-51268380D02*
X20645523Y-51268380D01*
X20359809Y-52268380D02*
X20359809Y-51268380D01*
X21550285Y-52268380D02*
X21216952Y-51792190D01*
X20978857Y-52268380D02*
X20978857Y-51268380D01*
X21359809Y-51268380D01*
X21455047Y-51316000D01*
X21502666Y-51363619D01*
X21550285Y-51458857D01*
X21550285Y-51601714D01*
X21502666Y-51696952D01*
X21455047Y-51744571D01*
X21359809Y-51792190D01*
X20978857Y-51792190D01*
X21931238Y-52220761D02*
X22074095Y-52268380D01*
X22312190Y-52268380D01*
X22407428Y-52220761D01*
X22455047Y-52173142D01*
X22502666Y-52077904D01*
X22502666Y-51982666D01*
X22455047Y-51887428D01*
X22407428Y-51839809D01*
X22312190Y-51792190D01*
X22121714Y-51744571D01*
X22026476Y-51696952D01*
X21978857Y-51649333D01*
X21931238Y-51554095D01*
X21931238Y-51458857D01*
X21978857Y-51363619D01*
X22026476Y-51316000D01*
X22121714Y-51268380D01*
X22359809Y-51268380D01*
X22502666Y-51316000D01*
X22788380Y-51268380D02*
X23359809Y-51268380D01*
X23074095Y-52268380D02*
X23074095Y-51268380D01*
X24749285Y-44918380D02*
X24749285Y-45632666D01*
X24701666Y-45775523D01*
X24606428Y-45870761D01*
X24463571Y-45918380D01*
X24368333Y-45918380D01*
X25082619Y-44918380D02*
X25654047Y-44918380D01*
X25368333Y-45918380D02*
X25368333Y-44918380D01*
X25987380Y-45918380D02*
X25987380Y-44918380D01*
X26320714Y-45632666D01*
X26654047Y-44918380D01*
X26654047Y-45918380D01*
X27082619Y-45870761D02*
X27225476Y-45918380D01*
X27463571Y-45918380D01*
X27558809Y-45870761D01*
X27606428Y-45823142D01*
X27654047Y-45727904D01*
X27654047Y-45632666D01*
X27606428Y-45537428D01*
X27558809Y-45489809D01*
X27463571Y-45442190D01*
X27273095Y-45394571D01*
X27177857Y-45346952D01*
X27130238Y-45299333D01*
X27082619Y-45204095D01*
X27082619Y-45108857D01*
X27130238Y-45013619D01*
X27177857Y-44966000D01*
X27273095Y-44918380D01*
X27511190Y-44918380D01*
X27654047Y-44966000D01*
X24900095Y-32091380D02*
X24900095Y-32805666D01*
X24852476Y-32948523D01*
X24757238Y-33043761D01*
X24614380Y-33091380D01*
X24519142Y-33091380D01*
X25233428Y-32091380D02*
X25804857Y-32091380D01*
X25519142Y-33091380D02*
X25519142Y-32091380D01*
X26138190Y-33091380D02*
X26138190Y-32091380D01*
X26376285Y-32091380D01*
X26519142Y-32139000D01*
X26614380Y-32234238D01*
X26662000Y-32329476D01*
X26709619Y-32519952D01*
X26709619Y-32662809D01*
X26662000Y-32853285D01*
X26614380Y-32948523D01*
X26519142Y-33043761D01*
X26376285Y-33091380D01*
X26138190Y-33091380D01*
X27328666Y-32091380D02*
X27519142Y-32091380D01*
X27614380Y-32139000D01*
X27709619Y-32234238D01*
X27757238Y-32424714D01*
X27757238Y-32758047D01*
X27709619Y-32948523D01*
X27614380Y-33043761D01*
X27519142Y-33091380D01*
X27328666Y-33091380D01*
X27233428Y-33043761D01*
X27138190Y-32948523D01*
X27090571Y-32758047D01*
X27090571Y-32424714D01*
X27138190Y-32234238D01*
X27233428Y-32139000D01*
X27328666Y-32091380D01*
X20359809Y-44918380D02*
X20359809Y-45632666D01*
X20312190Y-45775523D01*
X20216952Y-45870761D01*
X20074095Y-45918380D01*
X19978857Y-45918380D01*
X20693142Y-44918380D02*
X21264571Y-44918380D01*
X20978857Y-45918380D02*
X20978857Y-44918380D01*
X21597904Y-45918380D02*
X21597904Y-44918380D01*
X21836000Y-44918380D01*
X21978857Y-44966000D01*
X22074095Y-45061238D01*
X22121714Y-45156476D01*
X22169333Y-45346952D01*
X22169333Y-45489809D01*
X22121714Y-45680285D01*
X22074095Y-45775523D01*
X21978857Y-45870761D01*
X21836000Y-45918380D01*
X21597904Y-45918380D01*
X22597904Y-45918380D02*
X22597904Y-44918380D01*
X24796904Y-38441380D02*
X24796904Y-39155666D01*
X24749285Y-39298523D01*
X24654047Y-39393761D01*
X24511190Y-39441380D01*
X24415952Y-39441380D01*
X25130238Y-38441380D02*
X25701666Y-38441380D01*
X25415952Y-39441380D02*
X25415952Y-38441380D01*
X26606428Y-39346142D02*
X26558809Y-39393761D01*
X26415952Y-39441380D01*
X26320714Y-39441380D01*
X26177857Y-39393761D01*
X26082619Y-39298523D01*
X26035000Y-39203285D01*
X25987380Y-39012809D01*
X25987380Y-38869952D01*
X26035000Y-38679476D01*
X26082619Y-38584238D01*
X26177857Y-38489000D01*
X26320714Y-38441380D01*
X26415952Y-38441380D01*
X26558809Y-38489000D01*
X26606428Y-38536619D01*
X27035000Y-39441380D02*
X27035000Y-38441380D01*
X27606428Y-39441380D02*
X27177857Y-38869952D01*
X27606428Y-38441380D02*
X27035000Y-39012809D01*
X50673095Y-38489000D02*
X50577857Y-38441380D01*
X50435000Y-38441380D01*
X50292142Y-38489000D01*
X50196904Y-38584238D01*
X50149285Y-38679476D01*
X50101666Y-38869952D01*
X50101666Y-39012809D01*
X50149285Y-39203285D01*
X50196904Y-39298523D01*
X50292142Y-39393761D01*
X50435000Y-39441380D01*
X50530238Y-39441380D01*
X50673095Y-39393761D01*
X50720714Y-39346142D01*
X50720714Y-39012809D01*
X50530238Y-39012809D01*
X51149285Y-39441380D02*
X51149285Y-38441380D01*
X51720714Y-39441380D01*
X51720714Y-38441380D01*
X52196904Y-39441380D02*
X52196904Y-38441380D01*
X52435000Y-38441380D01*
X52577857Y-38489000D01*
X52673095Y-38584238D01*
X52720714Y-38679476D01*
X52768333Y-38869952D01*
X52768333Y-39012809D01*
X52720714Y-39203285D01*
X52673095Y-39298523D01*
X52577857Y-39393761D01*
X52435000Y-39441380D01*
X52196904Y-39441380D01*
X51244523Y-44918380D02*
X50768333Y-44918380D01*
X50720714Y-45394571D01*
X50768333Y-45346952D01*
X50863571Y-45299333D01*
X51101666Y-45299333D01*
X51196904Y-45346952D01*
X51244523Y-45394571D01*
X51292142Y-45489809D01*
X51292142Y-45727904D01*
X51244523Y-45823142D01*
X51196904Y-45870761D01*
X51101666Y-45918380D01*
X50863571Y-45918380D01*
X50768333Y-45870761D01*
X50720714Y-45823142D01*
X51577857Y-44918380D02*
X51911190Y-45918380D01*
X52244523Y-44918380D01*
X50196904Y-51268380D02*
X50815952Y-51268380D01*
X50482619Y-51649333D01*
X50625476Y-51649333D01*
X50720714Y-51696952D01*
X50768333Y-51744571D01*
X50815952Y-51839809D01*
X50815952Y-52077904D01*
X50768333Y-52173142D01*
X50720714Y-52220761D01*
X50625476Y-52268380D01*
X50339761Y-52268380D01*
X50244523Y-52220761D01*
X50196904Y-52173142D01*
X51101666Y-51268380D02*
X51435000Y-52268380D01*
X51768333Y-51268380D01*
X52006428Y-51268380D02*
X52625476Y-51268380D01*
X52292142Y-51649333D01*
X52435000Y-51649333D01*
X52530238Y-51696952D01*
X52577857Y-51744571D01*
X52625476Y-51839809D01*
X52625476Y-52077904D01*
X52577857Y-52173142D01*
X52530238Y-52220761D01*
X52435000Y-52268380D01*
X52149285Y-52268380D01*
X52054047Y-52220761D01*
X52006428Y-52173142D01*
M02*
