M48
; DRILL file {KiCad (5.1.4)-1} date 12/12/2019 19:55:24
; FORMAT={-:-/ absolute / inch / decimal}
; #@! TF.CreationDate,2019-12-12T19:55:24+09:00
; #@! TF.GenerationSoftware,Kicad,Pcbnew,(5.1.4)-1
; #@! TF.FileFunction,Plated,1,2,PTH
FMAT,2
INCH
T1C0.0157
T2C0.0394
T3C0.0398
T4C0.0591
%
G90
G05
T1
X0.795Y-1.17
X0.825Y-2.325
X0.8469Y-2.1349
X0.91Y-1.55
X0.95Y-1.625
X0.95Y-1.825
X0.95Y-2.22
X0.975Y-2.05
X1.05Y-1.6477
X1.075Y-1.475
X1.075Y-1.975
X1.085Y-2.195
X1.2Y-1.9
X1.275Y-1.625
X1.325Y-1.975
X1.35Y-2.125
X1.38Y-1.18
X1.395Y-1.58
X1.3965Y-1.475
X1.4Y-1.325
X1.425Y-2.225
X1.445Y-1.48
X1.5Y-2.35
X1.65Y-1.64
X1.6683Y-1.5639
X1.725Y-2.125
X1.725Y-2.175
X1.7549Y-1.5438
X1.78Y-1.76
X1.79Y-1.69
X1.7957Y-1.63
X1.8Y-1.27
X1.8Y-2.35
X1.81Y-1.15
X1.8193Y-1.87
X1.93Y-1.82
X1.95Y-1.9015
X1.96Y-1.48
X2.0Y-1.25
X2.025Y-1.525
X2.15Y-1.825
X2.2Y-1.55
X2.25Y-1.475
X2.305Y-2.17
X2.34Y-1.24
X2.34Y-1.87
X2.45Y-1.525
X2.63Y-1.58
X2.7Y-1.89
X2.89Y-1.775
T2
X0.8Y-2.425
X0.8Y-2.525
X0.9Y-2.425
X0.9Y-2.525
X1.0Y-2.425
X1.0Y-2.525
X1.1Y-2.425
X1.1Y-2.525
X1.2Y-2.425
X1.2Y-2.525
X1.3Y-2.425
X1.3Y-2.525
X1.4Y-2.425
X1.4Y-2.525
X1.5Y-2.425
X1.5Y-2.525
X1.6Y-2.425
X1.6Y-2.525
X1.7Y-2.425
X1.7Y-2.525
X1.8Y-2.425
X1.8Y-2.525
X1.9Y-2.425
X1.9Y-2.525
X2.0Y-2.425
X2.0Y-2.525
T3
X1.1247Y-1.7897
X1.1247Y-2.0903
X1.275Y-1.7274
X1.275Y-2.1526
X1.4253Y-1.7897
X1.4253Y-2.0903
T4
X1.5Y-1.075
X1.7Y-1.075
X0.96Y-1.3
X1.075Y-1.075
X1.3Y-1.075
X1.9Y-1.07
X1.2Y-1.3
T0
M30
