%FSLAX45Y45*%
G04 Gerber Fmt 4.5, Leading zero omitted, Abs format (unit mm)*
G04 Created by KiCad (PCBNEW (5.1.4)-1) date 2019-12-12 19:40:37*
%MOMM*%
%LPD*%
G04 APERTURE LIST*
%ADD10C,0.050000*%
%ADD11C,0.200000*%
%ADD12C,0.300000*%
G04 APERTURE END LIST*
D10*
X1206500Y-2065000D02*
G75*
G02X1430000Y-1841500I223500J0D01*
G01*
X4381500Y-1841500D02*
G75*
G02X4605000Y-2065000I0J-223500D01*
G01*
X4605000Y-2065000D02*
X4605000Y-6532000D01*
X1206500Y-6532000D02*
X4605000Y-6532000D01*
X1430000Y-1841500D02*
X4381500Y-1841500D01*
X1206500Y-2065000D02*
X1206500Y-6532000D01*
D11*
X1364300Y-5377500D02*
X1404300Y-5417500D01*
X1404300Y-5377500D02*
X1364300Y-5417500D01*
X1364300Y-6342700D02*
X1404300Y-6382700D01*
X1404300Y-6342700D02*
X1364300Y-6382700D01*
X1377000Y-4247200D02*
X1417000Y-4287200D01*
X1417000Y-4247200D02*
X1377000Y-4287200D01*
X1377000Y-4488500D02*
X1417000Y-4528500D01*
X1417000Y-4488500D02*
X1377000Y-4528500D01*
X1732600Y-5593400D02*
X1772600Y-5633400D01*
X1772600Y-5593400D02*
X1732600Y-5633400D01*
X1885000Y-5161600D02*
X1925000Y-5201600D01*
X1925000Y-5161600D02*
X1885000Y-5201600D01*
X1948500Y-2608900D02*
X1988500Y-2648900D01*
X1988500Y-2608900D02*
X1948500Y-2648900D01*
X1986600Y-5593400D02*
X2026600Y-5633400D01*
X2026600Y-5593400D02*
X1986600Y-5633400D01*
X2012000Y-4247200D02*
X2052000Y-4287200D01*
X2052000Y-4247200D02*
X2012000Y-4287200D01*
X2088200Y-2596200D02*
X2128200Y-2636200D01*
X2128200Y-2596200D02*
X2088200Y-2636200D01*
X2240600Y-5593400D02*
X2280600Y-5633400D01*
X2280600Y-5593400D02*
X2240600Y-5633400D01*
X2271769Y-5105031D02*
X2311769Y-5145031D01*
X2311769Y-5105031D02*
X2271769Y-5145031D01*
X2380300Y-4247200D02*
X2420300Y-4287200D01*
X2420300Y-4247200D02*
X2380300Y-4287200D01*
X2443800Y-6266500D02*
X2483800Y-6306500D01*
X2483800Y-6266500D02*
X2443800Y-6306500D01*
X2723200Y-4755200D02*
X2763200Y-4795200D01*
X2763200Y-4755200D02*
X2723200Y-4795200D01*
X2748600Y-5085400D02*
X2788600Y-5125400D01*
X2788600Y-5085400D02*
X2748600Y-5125400D01*
X2786700Y-2608900D02*
X2826700Y-2648900D01*
X2826700Y-2608900D02*
X2786700Y-2648900D01*
X2977200Y-4247200D02*
X3017200Y-4287200D01*
X3017200Y-4247200D02*
X2977200Y-4287200D01*
X3015300Y-5618800D02*
X3055300Y-5658800D01*
X3055300Y-5618800D02*
X3015300Y-5658800D01*
X3142300Y-4755200D02*
X3182300Y-4795200D01*
X3182300Y-4755200D02*
X3142300Y-4795200D01*
X3383600Y-5136200D02*
X3423600Y-5176200D01*
X3423600Y-5136200D02*
X3383600Y-5176200D01*
X3396300Y-4234500D02*
X3436300Y-4274500D01*
X3436300Y-4234500D02*
X3396300Y-4274500D01*
X3523300Y-2202500D02*
X3563300Y-2242500D01*
X3563300Y-2202500D02*
X3523300Y-2242500D01*
X3650300Y-4234500D02*
X3690300Y-4274500D01*
X3690300Y-4234500D02*
X3650300Y-4274500D01*
X3739200Y-5187000D02*
X3779200Y-5227000D01*
X3779200Y-5187000D02*
X3739200Y-5227000D01*
X3764600Y-6266500D02*
X3804600Y-6306500D01*
X3804600Y-6266500D02*
X3764600Y-6306500D01*
X3790000Y-4729800D02*
X3830000Y-4769800D01*
X3830000Y-4729800D02*
X3790000Y-4769800D01*
X4016600Y-5667600D02*
X4056600Y-5707600D01*
X4056600Y-5667600D02*
X4016600Y-5707600D01*
X4018600Y-6266500D02*
X4058600Y-6306500D01*
X4058600Y-6266500D02*
X4018600Y-6306500D01*
X4031300Y-2393000D02*
X4071300Y-2433000D01*
X4071300Y-2393000D02*
X4031300Y-2433000D01*
X4126550Y-5237800D02*
X4166550Y-5277800D01*
X4166550Y-5237800D02*
X4126550Y-5277800D01*
X4158300Y-2393000D02*
X4198300Y-2433000D01*
X4198300Y-2393000D02*
X4158300Y-2433000D01*
X4158300Y-4234500D02*
X4198300Y-4274500D01*
X4198300Y-4234500D02*
X4158300Y-4274500D01*
X4247200Y-5237800D02*
X4287200Y-5277800D01*
X4287200Y-5237800D02*
X4247200Y-5277800D01*
X4336100Y-6342700D02*
X4376100Y-6382700D01*
X4376100Y-6342700D02*
X4336100Y-6382700D01*
X4348800Y-4602800D02*
X4388800Y-4642800D01*
X4388800Y-4602800D02*
X4348800Y-4642800D01*
X4348800Y-4729800D02*
X4388800Y-4769800D01*
X4388800Y-4729800D02*
X4348800Y-4769800D01*
X4374200Y-5237800D02*
X4414200Y-5277800D01*
X4414200Y-5237800D02*
X4374200Y-5277800D01*
X4450400Y-6342700D02*
X4490400Y-6382700D01*
X4490400Y-6342700D02*
X4450400Y-6382700D01*
X4475800Y-4602800D02*
X4515800Y-4642800D01*
X4515800Y-4602800D02*
X4475800Y-4642800D01*
X4475800Y-4729800D02*
X4515800Y-4769800D01*
X4515800Y-4729800D02*
X4475800Y-4769800D01*
X1688300Y-4508500D02*
G75*
G03X1688300Y-4508500I-50000J0D01*
G01*
X1942300Y-4508500D02*
G75*
G03X1942300Y-4508500I-50000J0D01*
G01*
X2196300Y-4508500D02*
G75*
G03X2196300Y-4508500I-50000J0D01*
G01*
X2450300Y-4508500D02*
G75*
G03X2450300Y-4508500I-50000J0D01*
G01*
X2704300Y-4508500D02*
G75*
G03X2704300Y-4508500I-50000J0D01*
G01*
X2958300Y-4508500D02*
G75*
G03X2958300Y-4508500I-50000J0D01*
G01*
X3212300Y-4508500D02*
G75*
G03X3212300Y-4508500I-50000J0D01*
G01*
X3466300Y-4508500D02*
G75*
G03X3466300Y-4508500I-50000J0D01*
G01*
X3720300Y-4508500D02*
G75*
G03X3720300Y-4508500I-50000J0D01*
G01*
X3974300Y-4508500D02*
G75*
G03X3974300Y-4508500I-50000J0D01*
G01*
X4228300Y-4508500D02*
G75*
G03X4228300Y-4508500I-50000J0D01*
G01*
X1421600Y-5867400D02*
G75*
G03X1421600Y-5867400I-50000J0D01*
G01*
X1421600Y-6121400D02*
G75*
G03X1421600Y-6121400I-50000J0D01*
G01*
X1675600Y-5867400D02*
G75*
G03X1675600Y-5867400I-50000J0D01*
G01*
X1675600Y-6121400D02*
G75*
G03X1675600Y-6121400I-50000J0D01*
G01*
X1929600Y-5867400D02*
G75*
G03X1929600Y-5867400I-50000J0D01*
G01*
X1929600Y-6121400D02*
G75*
G03X1929600Y-6121400I-50000J0D01*
G01*
X2183600Y-5867400D02*
G75*
G03X2183600Y-5867400I-50000J0D01*
G01*
X2183600Y-6121400D02*
G75*
G03X2183600Y-6121400I-50000J0D01*
G01*
X2437600Y-5867400D02*
G75*
G03X2437600Y-5867400I-50000J0D01*
G01*
X2437600Y-6121400D02*
G75*
G03X2437600Y-6121400I-50000J0D01*
G01*
X2691600Y-5867400D02*
G75*
G03X2691600Y-5867400I-50000J0D01*
G01*
X2691600Y-6121400D02*
G75*
G03X2691600Y-6121400I-50000J0D01*
G01*
X2945600Y-5867400D02*
G75*
G03X2945600Y-5867400I-50000J0D01*
G01*
X2945600Y-6121400D02*
G75*
G03X2945600Y-6121400I-50000J0D01*
G01*
X3199600Y-5867400D02*
G75*
G03X3199600Y-5867400I-50000J0D01*
G01*
X3199600Y-6121400D02*
G75*
G03X3199600Y-6121400I-50000J0D01*
G01*
X3453600Y-5867400D02*
G75*
G03X3453600Y-5867400I-50000J0D01*
G01*
X3453600Y-6121400D02*
G75*
G03X3453600Y-6121400I-50000J0D01*
G01*
X3707600Y-5867400D02*
G75*
G03X3707600Y-5867400I-50000J0D01*
G01*
X3707600Y-6121400D02*
G75*
G03X3707600Y-6121400I-50000J0D01*
G01*
X3961600Y-5867400D02*
G75*
G03X3961600Y-5867400I-50000J0D01*
G01*
X3961600Y-6121400D02*
G75*
G03X3961600Y-6121400I-50000J0D01*
G01*
X4215600Y-5867400D02*
G75*
G03X4215600Y-5867400I-50000J0D01*
G01*
X4215600Y-6121400D02*
G75*
G03X4215600Y-6121400I-50000J0D01*
G01*
X4469600Y-5867400D02*
G75*
G03X4469600Y-5867400I-50000J0D01*
G01*
X4469600Y-6121400D02*
G75*
G03X4469600Y-6121400I-50000J0D01*
G01*
X1942300Y-5397500D02*
G75*
G03X1942300Y-5397500I-50000J0D01*
G01*
X2196300Y-5397500D02*
G75*
G03X2196300Y-5397500I-50000J0D01*
G01*
X2450300Y-5397500D02*
G75*
G03X2450300Y-5397500I-50000J0D01*
G01*
X2704300Y-5397500D02*
G75*
G03X2704300Y-5397500I-50000J0D01*
G01*
X2958300Y-5397500D02*
G75*
G03X2958300Y-5397500I-50000J0D01*
G01*
X3212300Y-5397500D02*
G75*
G03X3212300Y-5397500I-50000J0D01*
G01*
X3466300Y-5397500D02*
G75*
G03X3466300Y-5397500I-50000J0D01*
G01*
X3720300Y-5397500D02*
G75*
G03X3720300Y-5397500I-50000J0D01*
G01*
X3974300Y-5397500D02*
G75*
G03X3974300Y-5397500I-50000J0D01*
G01*
X2069300Y-2413000D02*
G75*
G03X2069300Y-2413000I-50000J0D01*
G01*
X2323300Y-2413000D02*
G75*
G03X2323300Y-2413000I-50000J0D01*
G01*
X2577300Y-2413000D02*
G75*
G03X2577300Y-2413000I-50000J0D01*
G01*
X2831300Y-2413000D02*
G75*
G03X2831300Y-2413000I-50000J0D01*
G01*
X3085300Y-2413000D02*
G75*
G03X3085300Y-2413000I-50000J0D01*
G01*
X3339300Y-2413000D02*
G75*
G03X3339300Y-2413000I-50000J0D01*
G01*
X3593300Y-2413000D02*
G75*
G03X3593300Y-2413000I-50000J0D01*
G01*
X3847300Y-2413000D02*
G75*
G03X3847300Y-2413000I-50000J0D01*
G01*
X1688300Y-2032000D02*
G75*
G03X1688300Y-2032000I-50000J0D01*
G01*
X1942300Y-2032000D02*
G75*
G03X1942300Y-2032000I-50000J0D01*
G01*
X2196300Y-2032000D02*
G75*
G03X2196300Y-2032000I-50000J0D01*
G01*
X2450300Y-2032000D02*
G75*
G03X2450300Y-2032000I-50000J0D01*
G01*
X2704300Y-2032000D02*
G75*
G03X2704300Y-2032000I-50000J0D01*
G01*
X2958300Y-2032000D02*
G75*
G03X2958300Y-2032000I-50000J0D01*
G01*
X3212300Y-2032000D02*
G75*
G03X3212300Y-2032000I-50000J0D01*
G01*
X3466300Y-2032000D02*
G75*
G03X3466300Y-2032000I-50000J0D01*
G01*
X3720300Y-2032000D02*
G75*
G03X3720300Y-2032000I-50000J0D01*
G01*
X3974300Y-2032000D02*
G75*
G03X3974300Y-2032000I-50000J0D01*
G01*
X4228300Y-2032000D02*
G75*
G03X4228300Y-2032000I-50000J0D01*
G01*
X1434300Y-4953000D02*
G75*
G03X1434300Y-4953000I-50000J0D01*
G01*
X1688300Y-4953000D02*
G75*
G03X1688300Y-4953000I-50000J0D01*
G01*
X1942300Y-4953000D02*
G75*
G03X1942300Y-4953000I-50000J0D01*
G01*
X2196300Y-4953000D02*
G75*
G03X2196300Y-4953000I-50000J0D01*
G01*
X2450300Y-4953000D02*
G75*
G03X2450300Y-4953000I-50000J0D01*
G01*
X2704300Y-4953000D02*
G75*
G03X2704300Y-4953000I-50000J0D01*
G01*
X2958300Y-4953000D02*
G75*
G03X2958300Y-4953000I-50000J0D01*
G01*
X3212300Y-4953000D02*
G75*
G03X3212300Y-4953000I-50000J0D01*
G01*
X3466300Y-4953000D02*
G75*
G03X3466300Y-4953000I-50000J0D01*
G01*
X3720300Y-4953000D02*
G75*
G03X3720300Y-4953000I-50000J0D01*
G01*
X3974300Y-4953000D02*
G75*
G03X3974300Y-4953000I-50000J0D01*
G01*
X4228300Y-4953000D02*
G75*
G03X4228300Y-4953000I-50000J0D01*
G01*
X4482300Y-4953000D02*
G75*
G03X4482300Y-4953000I-50000J0D01*
G01*
D12*
X1490428Y-7000214D02*
X1490428Y-6700214D01*
X1561857Y-6700214D01*
X1604714Y-6714500D01*
X1633286Y-6743071D01*
X1647571Y-6771643D01*
X1661857Y-6828786D01*
X1661857Y-6871643D01*
X1647571Y-6928786D01*
X1633286Y-6957357D01*
X1604714Y-6985929D01*
X1561857Y-7000214D01*
X1490428Y-7000214D01*
X1790428Y-7000214D02*
X1790428Y-6800214D01*
X1790428Y-6857357D02*
X1804714Y-6828786D01*
X1819000Y-6814500D01*
X1847571Y-6800214D01*
X1876143Y-6800214D01*
X1976143Y-7000214D02*
X1976143Y-6800214D01*
X1976143Y-6700214D02*
X1961857Y-6714500D01*
X1976143Y-6728786D01*
X1990428Y-6714500D01*
X1976143Y-6700214D01*
X1976143Y-6728786D01*
X2161857Y-7000214D02*
X2133286Y-6985929D01*
X2119000Y-6957357D01*
X2119000Y-6700214D01*
X2319000Y-7000214D02*
X2290428Y-6985929D01*
X2276143Y-6957357D01*
X2276143Y-6700214D01*
X2661857Y-7000214D02*
X2661857Y-6700214D01*
X2761857Y-6914500D01*
X2861857Y-6700214D01*
X2861857Y-7000214D01*
X3133286Y-7000214D02*
X3133286Y-6843071D01*
X3119000Y-6814500D01*
X3090428Y-6800214D01*
X3033286Y-6800214D01*
X3004714Y-6814500D01*
X3133286Y-6985929D02*
X3104714Y-7000214D01*
X3033286Y-7000214D01*
X3004714Y-6985929D01*
X2990428Y-6957357D01*
X2990428Y-6928786D01*
X3004714Y-6900214D01*
X3033286Y-6885929D01*
X3104714Y-6885929D01*
X3133286Y-6871643D01*
X3276143Y-6800214D02*
X3276143Y-7100214D01*
X3276143Y-6814500D02*
X3304714Y-6800214D01*
X3361857Y-6800214D01*
X3390428Y-6814500D01*
X3404714Y-6828786D01*
X3419000Y-6857357D01*
X3419000Y-6943071D01*
X3404714Y-6971643D01*
X3390428Y-6985929D01*
X3361857Y-7000214D01*
X3304714Y-7000214D01*
X3276143Y-6985929D01*
X3547571Y-6971643D02*
X3561857Y-6985929D01*
X3547571Y-7000214D01*
X3533286Y-6985929D01*
X3547571Y-6971643D01*
X3547571Y-7000214D01*
X3547571Y-6814500D02*
X3561857Y-6828786D01*
X3547571Y-6843071D01*
X3533286Y-6828786D01*
X3547571Y-6814500D01*
X3547571Y-6843071D01*
X1164000Y-7474500D02*
X1204000Y-7514500D01*
X1204000Y-7474500D02*
X1164000Y-7514500D01*
X1547571Y-7330214D02*
X1576143Y-7330214D01*
X1604714Y-7344500D01*
X1619000Y-7358786D01*
X1633286Y-7387357D01*
X1647571Y-7444500D01*
X1647571Y-7515929D01*
X1633286Y-7573071D01*
X1619000Y-7601643D01*
X1604714Y-7615929D01*
X1576143Y-7630214D01*
X1547571Y-7630214D01*
X1519000Y-7615929D01*
X1504714Y-7601643D01*
X1490428Y-7573071D01*
X1476143Y-7515929D01*
X1476143Y-7444500D01*
X1490428Y-7387357D01*
X1504714Y-7358786D01*
X1519000Y-7344500D01*
X1547571Y-7330214D01*
X1776143Y-7601643D02*
X1790428Y-7615929D01*
X1776143Y-7630214D01*
X1761857Y-7615929D01*
X1776143Y-7601643D01*
X1776143Y-7630214D01*
X2047571Y-7430214D02*
X2047571Y-7630214D01*
X1976143Y-7315929D02*
X1904714Y-7530214D01*
X2090428Y-7530214D01*
X2261857Y-7330214D02*
X2290428Y-7330214D01*
X2319000Y-7344500D01*
X2333286Y-7358786D01*
X2347571Y-7387357D01*
X2361857Y-7444500D01*
X2361857Y-7515929D01*
X2347571Y-7573071D01*
X2333286Y-7601643D01*
X2319000Y-7615929D01*
X2290428Y-7630214D01*
X2261857Y-7630214D01*
X2233286Y-7615929D01*
X2219000Y-7601643D01*
X2204714Y-7573071D01*
X2190428Y-7515929D01*
X2190428Y-7444500D01*
X2204714Y-7387357D01*
X2219000Y-7358786D01*
X2233286Y-7344500D01*
X2261857Y-7330214D01*
X2490428Y-7630214D02*
X2490428Y-7430214D01*
X2490428Y-7458786D02*
X2504714Y-7444500D01*
X2533286Y-7430214D01*
X2576143Y-7430214D01*
X2604714Y-7444500D01*
X2619000Y-7473071D01*
X2619000Y-7630214D01*
X2619000Y-7473071D02*
X2633286Y-7444500D01*
X2661857Y-7430214D01*
X2704714Y-7430214D01*
X2733286Y-7444500D01*
X2747571Y-7473071D01*
X2747571Y-7630214D01*
X2890428Y-7630214D02*
X2890428Y-7430214D01*
X2890428Y-7458786D02*
X2904714Y-7444500D01*
X2933286Y-7430214D01*
X2976143Y-7430214D01*
X3004714Y-7444500D01*
X3019000Y-7473071D01*
X3019000Y-7630214D01*
X3019000Y-7473071D02*
X3033286Y-7444500D01*
X3061857Y-7430214D01*
X3104714Y-7430214D01*
X3133286Y-7444500D01*
X3147571Y-7473071D01*
X3147571Y-7630214D01*
X3733286Y-7315929D02*
X3476143Y-7701643D01*
X4119000Y-7330214D02*
X4147571Y-7330214D01*
X4176143Y-7344500D01*
X4190428Y-7358786D01*
X4204714Y-7387357D01*
X4219000Y-7444500D01*
X4219000Y-7515929D01*
X4204714Y-7573071D01*
X4190428Y-7601643D01*
X4176143Y-7615929D01*
X4147571Y-7630214D01*
X4119000Y-7630214D01*
X4090428Y-7615929D01*
X4076143Y-7601643D01*
X4061857Y-7573071D01*
X4047571Y-7515929D01*
X4047571Y-7444500D01*
X4061857Y-7387357D01*
X4076143Y-7358786D01*
X4090428Y-7344500D01*
X4119000Y-7330214D01*
X4347571Y-7601643D02*
X4361857Y-7615929D01*
X4347571Y-7630214D01*
X4333286Y-7615929D01*
X4347571Y-7601643D01*
X4347571Y-7630214D01*
X4547571Y-7330214D02*
X4576143Y-7330214D01*
X4604714Y-7344500D01*
X4619000Y-7358786D01*
X4633286Y-7387357D01*
X4647571Y-7444500D01*
X4647571Y-7515929D01*
X4633286Y-7573071D01*
X4619000Y-7601643D01*
X4604714Y-7615929D01*
X4576143Y-7630214D01*
X4547571Y-7630214D01*
X4519000Y-7615929D01*
X4504714Y-7601643D01*
X4490428Y-7573071D01*
X4476143Y-7515929D01*
X4476143Y-7444500D01*
X4490428Y-7387357D01*
X4504714Y-7358786D01*
X4519000Y-7344500D01*
X4547571Y-7330214D01*
X4933286Y-7630214D02*
X4761857Y-7630214D01*
X4847571Y-7630214D02*
X4847571Y-7330214D01*
X4819000Y-7373071D01*
X4790428Y-7401643D01*
X4761857Y-7415929D01*
X5190428Y-7330214D02*
X5133286Y-7330214D01*
X5104714Y-7344500D01*
X5090428Y-7358786D01*
X5061857Y-7401643D01*
X5047571Y-7458786D01*
X5047571Y-7573071D01*
X5061857Y-7601643D01*
X5076143Y-7615929D01*
X5104714Y-7630214D01*
X5161857Y-7630214D01*
X5190428Y-7615929D01*
X5204714Y-7601643D01*
X5219000Y-7573071D01*
X5219000Y-7501643D01*
X5204714Y-7473071D01*
X5190428Y-7458786D01*
X5161857Y-7444500D01*
X5104714Y-7444500D01*
X5076143Y-7458786D01*
X5061857Y-7473071D01*
X5047571Y-7501643D01*
X5333286Y-7330214D02*
X5333286Y-7387357D01*
X5447571Y-7330214D02*
X5447571Y-7387357D01*
X5890428Y-7744500D02*
X5876143Y-7730214D01*
X5847571Y-7687357D01*
X5833286Y-7658786D01*
X5819000Y-7615929D01*
X5804714Y-7544500D01*
X5804714Y-7487357D01*
X5819000Y-7415929D01*
X5833286Y-7373071D01*
X5847571Y-7344500D01*
X5876143Y-7301643D01*
X5890428Y-7287357D01*
X6133286Y-7430214D02*
X6133286Y-7630214D01*
X6061857Y-7315929D02*
X5990428Y-7530214D01*
X6176143Y-7530214D01*
X6447571Y-7630214D02*
X6276143Y-7630214D01*
X6361857Y-7630214D02*
X6361857Y-7330214D01*
X6333286Y-7373071D01*
X6304714Y-7401643D01*
X6276143Y-7415929D01*
X6804714Y-7630214D02*
X6804714Y-7330214D01*
X6933286Y-7630214D02*
X6933286Y-7473071D01*
X6919000Y-7444500D01*
X6890428Y-7430214D01*
X6847571Y-7430214D01*
X6819000Y-7444500D01*
X6804714Y-7458786D01*
X7119000Y-7630214D02*
X7090428Y-7615929D01*
X7076143Y-7601643D01*
X7061857Y-7573071D01*
X7061857Y-7487357D01*
X7076143Y-7458786D01*
X7090428Y-7444500D01*
X7119000Y-7430214D01*
X7161857Y-7430214D01*
X7190428Y-7444500D01*
X7204714Y-7458786D01*
X7219000Y-7487357D01*
X7219000Y-7573071D01*
X7204714Y-7601643D01*
X7190428Y-7615929D01*
X7161857Y-7630214D01*
X7119000Y-7630214D01*
X7390428Y-7630214D02*
X7361857Y-7615929D01*
X7347571Y-7587357D01*
X7347571Y-7330214D01*
X7619000Y-7615929D02*
X7590428Y-7630214D01*
X7533286Y-7630214D01*
X7504714Y-7615929D01*
X7490428Y-7587357D01*
X7490428Y-7473071D01*
X7504714Y-7444500D01*
X7533286Y-7430214D01*
X7590428Y-7430214D01*
X7619000Y-7444500D01*
X7633286Y-7473071D01*
X7633286Y-7501643D01*
X7490428Y-7530214D01*
X7747571Y-7615929D02*
X7776143Y-7630214D01*
X7833286Y-7630214D01*
X7861857Y-7615929D01*
X7876143Y-7587357D01*
X7876143Y-7573071D01*
X7861857Y-7544500D01*
X7833286Y-7530214D01*
X7790428Y-7530214D01*
X7761857Y-7515929D01*
X7747571Y-7487357D01*
X7747571Y-7473071D01*
X7761857Y-7444500D01*
X7790428Y-7430214D01*
X7833286Y-7430214D01*
X7861857Y-7444500D01*
X7976143Y-7744500D02*
X7990428Y-7730214D01*
X8019000Y-7687357D01*
X8033286Y-7658786D01*
X8047571Y-7615929D01*
X8061857Y-7544500D01*
X8061857Y-7487357D01*
X8047571Y-7415929D01*
X8033286Y-7373071D01*
X8019000Y-7344500D01*
X7990428Y-7301643D01*
X7976143Y-7287357D01*
X1204000Y-7890500D02*
G75*
G03X1204000Y-7890500I-50000J0D01*
G01*
X1647571Y-8026214D02*
X1476143Y-8026214D01*
X1561857Y-8026214D02*
X1561857Y-7726214D01*
X1533286Y-7769071D01*
X1504714Y-7797643D01*
X1476143Y-7811929D01*
X1776143Y-7997643D02*
X1790428Y-8011929D01*
X1776143Y-8026214D01*
X1761857Y-8011929D01*
X1776143Y-7997643D01*
X1776143Y-8026214D01*
X1976143Y-7726214D02*
X2004714Y-7726214D01*
X2033286Y-7740500D01*
X2047571Y-7754786D01*
X2061857Y-7783357D01*
X2076143Y-7840500D01*
X2076143Y-7911929D01*
X2061857Y-7969071D01*
X2047571Y-7997643D01*
X2033286Y-8011929D01*
X2004714Y-8026214D01*
X1976143Y-8026214D01*
X1947571Y-8011929D01*
X1933286Y-7997643D01*
X1919000Y-7969071D01*
X1904714Y-7911929D01*
X1904714Y-7840500D01*
X1919000Y-7783357D01*
X1933286Y-7754786D01*
X1947571Y-7740500D01*
X1976143Y-7726214D01*
X2261857Y-7726214D02*
X2290428Y-7726214D01*
X2319000Y-7740500D01*
X2333286Y-7754786D01*
X2347571Y-7783357D01*
X2361857Y-7840500D01*
X2361857Y-7911929D01*
X2347571Y-7969071D01*
X2333286Y-7997643D01*
X2319000Y-8011929D01*
X2290428Y-8026214D01*
X2261857Y-8026214D01*
X2233286Y-8011929D01*
X2219000Y-7997643D01*
X2204714Y-7969071D01*
X2190428Y-7911929D01*
X2190428Y-7840500D01*
X2204714Y-7783357D01*
X2219000Y-7754786D01*
X2233286Y-7740500D01*
X2261857Y-7726214D01*
X2490428Y-8026214D02*
X2490428Y-7826214D01*
X2490428Y-7854786D02*
X2504714Y-7840500D01*
X2533286Y-7826214D01*
X2576143Y-7826214D01*
X2604714Y-7840500D01*
X2619000Y-7869071D01*
X2619000Y-8026214D01*
X2619000Y-7869071D02*
X2633286Y-7840500D01*
X2661857Y-7826214D01*
X2704714Y-7826214D01*
X2733286Y-7840500D01*
X2747571Y-7869071D01*
X2747571Y-8026214D01*
X2890428Y-8026214D02*
X2890428Y-7826214D01*
X2890428Y-7854786D02*
X2904714Y-7840500D01*
X2933286Y-7826214D01*
X2976143Y-7826214D01*
X3004714Y-7840500D01*
X3019000Y-7869071D01*
X3019000Y-8026214D01*
X3019000Y-7869071D02*
X3033286Y-7840500D01*
X3061857Y-7826214D01*
X3104714Y-7826214D01*
X3133286Y-7840500D01*
X3147571Y-7869071D01*
X3147571Y-8026214D01*
X3733286Y-7711929D02*
X3476143Y-8097643D01*
X4119000Y-7726214D02*
X4147571Y-7726214D01*
X4176143Y-7740500D01*
X4190428Y-7754786D01*
X4204714Y-7783357D01*
X4219000Y-7840500D01*
X4219000Y-7911929D01*
X4204714Y-7969071D01*
X4190428Y-7997643D01*
X4176143Y-8011929D01*
X4147571Y-8026214D01*
X4119000Y-8026214D01*
X4090428Y-8011929D01*
X4076143Y-7997643D01*
X4061857Y-7969071D01*
X4047571Y-7911929D01*
X4047571Y-7840500D01*
X4061857Y-7783357D01*
X4076143Y-7754786D01*
X4090428Y-7740500D01*
X4119000Y-7726214D01*
X4347571Y-7997643D02*
X4361857Y-8011929D01*
X4347571Y-8026214D01*
X4333286Y-8011929D01*
X4347571Y-7997643D01*
X4347571Y-8026214D01*
X4547571Y-7726214D02*
X4576143Y-7726214D01*
X4604714Y-7740500D01*
X4619000Y-7754786D01*
X4633286Y-7783357D01*
X4647571Y-7840500D01*
X4647571Y-7911929D01*
X4633286Y-7969071D01*
X4619000Y-7997643D01*
X4604714Y-8011929D01*
X4576143Y-8026214D01*
X4547571Y-8026214D01*
X4519000Y-8011929D01*
X4504714Y-7997643D01*
X4490428Y-7969071D01*
X4476143Y-7911929D01*
X4476143Y-7840500D01*
X4490428Y-7783357D01*
X4504714Y-7754786D01*
X4519000Y-7740500D01*
X4547571Y-7726214D01*
X4747571Y-7726214D02*
X4933286Y-7726214D01*
X4833286Y-7840500D01*
X4876143Y-7840500D01*
X4904714Y-7854786D01*
X4919000Y-7869071D01*
X4933286Y-7897643D01*
X4933286Y-7969071D01*
X4919000Y-7997643D01*
X4904714Y-8011929D01*
X4876143Y-8026214D01*
X4790428Y-8026214D01*
X4761857Y-8011929D01*
X4747571Y-7997643D01*
X5076143Y-8026214D02*
X5133286Y-8026214D01*
X5161857Y-8011929D01*
X5176143Y-7997643D01*
X5204714Y-7954786D01*
X5219000Y-7897643D01*
X5219000Y-7783357D01*
X5204714Y-7754786D01*
X5190428Y-7740500D01*
X5161857Y-7726214D01*
X5104714Y-7726214D01*
X5076143Y-7740500D01*
X5061857Y-7754786D01*
X5047571Y-7783357D01*
X5047571Y-7854786D01*
X5061857Y-7883357D01*
X5076143Y-7897643D01*
X5104714Y-7911929D01*
X5161857Y-7911929D01*
X5190428Y-7897643D01*
X5204714Y-7883357D01*
X5219000Y-7854786D01*
X5333286Y-7726214D02*
X5333286Y-7783357D01*
X5447571Y-7726214D02*
X5447571Y-7783357D01*
X5890428Y-8140500D02*
X5876143Y-8126214D01*
X5847571Y-8083357D01*
X5833286Y-8054786D01*
X5819000Y-8011929D01*
X5804714Y-7940500D01*
X5804714Y-7883357D01*
X5819000Y-7811929D01*
X5833286Y-7769071D01*
X5847571Y-7740500D01*
X5876143Y-7697643D01*
X5890428Y-7683357D01*
X5976143Y-7726214D02*
X6176143Y-7726214D01*
X6047571Y-8026214D01*
X6333286Y-7854786D02*
X6304714Y-7840500D01*
X6290428Y-7826214D01*
X6276143Y-7797643D01*
X6276143Y-7783357D01*
X6290428Y-7754786D01*
X6304714Y-7740500D01*
X6333286Y-7726214D01*
X6390428Y-7726214D01*
X6419000Y-7740500D01*
X6433286Y-7754786D01*
X6447571Y-7783357D01*
X6447571Y-7797643D01*
X6433286Y-7826214D01*
X6419000Y-7840500D01*
X6390428Y-7854786D01*
X6333286Y-7854786D01*
X6304714Y-7869071D01*
X6290428Y-7883357D01*
X6276143Y-7911929D01*
X6276143Y-7969071D01*
X6290428Y-7997643D01*
X6304714Y-8011929D01*
X6333286Y-8026214D01*
X6390428Y-8026214D01*
X6419000Y-8011929D01*
X6433286Y-7997643D01*
X6447571Y-7969071D01*
X6447571Y-7911929D01*
X6433286Y-7883357D01*
X6419000Y-7869071D01*
X6390428Y-7854786D01*
X6804714Y-8026214D02*
X6804714Y-7726214D01*
X6933286Y-8026214D02*
X6933286Y-7869071D01*
X6919000Y-7840500D01*
X6890428Y-7826214D01*
X6847571Y-7826214D01*
X6819000Y-7840500D01*
X6804714Y-7854786D01*
X7119000Y-8026214D02*
X7090428Y-8011929D01*
X7076143Y-7997643D01*
X7061857Y-7969071D01*
X7061857Y-7883357D01*
X7076143Y-7854786D01*
X7090428Y-7840500D01*
X7119000Y-7826214D01*
X7161857Y-7826214D01*
X7190428Y-7840500D01*
X7204714Y-7854786D01*
X7219000Y-7883357D01*
X7219000Y-7969071D01*
X7204714Y-7997643D01*
X7190428Y-8011929D01*
X7161857Y-8026214D01*
X7119000Y-8026214D01*
X7390428Y-8026214D02*
X7361857Y-8011929D01*
X7347571Y-7983357D01*
X7347571Y-7726214D01*
X7619000Y-8011929D02*
X7590428Y-8026214D01*
X7533286Y-8026214D01*
X7504714Y-8011929D01*
X7490428Y-7983357D01*
X7490428Y-7869071D01*
X7504714Y-7840500D01*
X7533286Y-7826214D01*
X7590428Y-7826214D01*
X7619000Y-7840500D01*
X7633286Y-7869071D01*
X7633286Y-7897643D01*
X7490428Y-7926214D01*
X7747571Y-8011929D02*
X7776143Y-8026214D01*
X7833286Y-8026214D01*
X7861857Y-8011929D01*
X7876143Y-7983357D01*
X7876143Y-7969071D01*
X7861857Y-7940500D01*
X7833286Y-7926214D01*
X7790428Y-7926214D01*
X7761857Y-7911929D01*
X7747571Y-7883357D01*
X7747571Y-7869071D01*
X7761857Y-7840500D01*
X7790428Y-7826214D01*
X7833286Y-7826214D01*
X7861857Y-7840500D01*
X7976143Y-8140500D02*
X7990428Y-8126214D01*
X8019000Y-8083357D01*
X8033286Y-8054786D01*
X8047571Y-8011929D01*
X8061857Y-7940500D01*
X8061857Y-7883357D01*
X8047571Y-7811929D01*
X8033286Y-7769071D01*
X8019000Y-7740500D01*
X7990428Y-7697643D01*
X7976143Y-7683357D01*
M02*
