G04 #@! TF.GenerationSoftware,KiCad,Pcbnew,7.0.9*
G04 #@! TF.CreationDate,2025-01-29T12:58:33-06:00*
G04 #@! TF.ProjectId,powertrain,706f7765-7274-4726-9169-6e2e6b696361,rev?*
G04 #@! TF.SameCoordinates,Original*
G04 #@! TF.FileFunction,Soldermask,Bot*
G04 #@! TF.FilePolarity,Negative*
%FSLAX46Y46*%
G04 Gerber Fmt 4.6, Leading zero omitted, Abs format (unit mm)*
G04 Created by KiCad (PCBNEW 7.0.9) date 2025-01-29 12:58:33*
%MOMM*%
%LPD*%
G01*
G04 APERTURE LIST*
%ADD10R,1.750000X1.750000*%
%ADD11C,1.750000*%
%ADD12C,2.700000*%
%ADD13C,3.000000*%
%ADD14C,3.200000*%
%ADD15R,1.700000X1.700000*%
%ADD16O,1.700000X1.700000*%
%ADD17C,0.750000*%
%ADD18C,1.050000*%
G04 APERTURE END LIST*
D10*
X63900000Y-57116000D03*
D11*
X67400000Y-57116000D03*
X63900000Y-28616000D03*
D12*
X69850000Y-52966000D03*
X61450000Y-51766000D03*
X61450000Y-33966000D03*
X69850000Y-32766000D03*
D13*
X43180000Y-56515000D03*
X36830000Y-51435000D03*
X36830000Y-56515000D03*
X36830000Y-46355000D03*
D10*
X52978000Y-57166000D03*
D11*
X56478000Y-57166000D03*
X52978000Y-28666000D03*
D12*
X58928000Y-53016000D03*
X50528000Y-51816000D03*
X50528000Y-34016000D03*
X58928000Y-32816000D03*
D13*
X43180000Y-51435000D03*
D14*
X35560000Y-23749000D03*
X68326000Y-23749000D03*
D15*
X69215000Y-63500000D03*
D16*
X69215000Y-60960000D03*
X66675000Y-63500000D03*
X66675000Y-60960000D03*
X64135000Y-63500000D03*
X64135000Y-60960000D03*
X61595000Y-63500000D03*
X61595000Y-60960000D03*
X59055000Y-63500000D03*
X59055000Y-60960000D03*
X56515000Y-63500000D03*
X56515000Y-60960000D03*
X53975000Y-63500000D03*
X53975000Y-60960000D03*
X51435000Y-63500000D03*
X51435000Y-60960000D03*
X48895000Y-63500000D03*
X48895000Y-60960000D03*
X46355000Y-63500000D03*
X46355000Y-60960000D03*
X43815000Y-63500000D03*
X43815000Y-60960000D03*
X41275000Y-63500000D03*
X41275000Y-60960000D03*
X38735000Y-63500000D03*
X38735000Y-60960000D03*
D17*
X40023142Y-33382858D03*
D18*
X42710148Y-30695852D03*
M02*
