M48
; DRILL file {KiCad (5.1.9)-1} date 02/23/21 11:14:57
; FORMAT={-:-/ absolute / inch / decimal}
; #@! TF.CreationDate,2021-02-23T11:14:57+09:00
; #@! TF.GenerationSoftware,Kicad,Pcbnew,(5.1.9)-1
; #@! TF.FileFunction,Plated,1,2,PTH
FMAT,2
INCH
T1C0.0157
T2C0.0394
T3C0.0591
%
G90
G05
T1
X1.37Y-2.4
X1.39Y-1.71
X1.6Y-0.9
X1.97Y-2.07
X1.98Y-1.31
X1.98Y-1.79
X2.38Y-2.1
X2.5Y-0.9
T2
X1.525Y-2.4
X1.525Y-2.5
X1.625Y-2.4
X1.625Y-2.5
X1.725Y-2.4
X1.725Y-2.5
X1.825Y-2.4
X1.825Y-2.5
X1.925Y-2.4
X1.925Y-2.5
X2.025Y-2.4
X2.025Y-2.5
X2.125Y-2.4
X2.125Y-2.5
X2.225Y-2.4
X2.225Y-2.5
X2.325Y-2.4
X2.325Y-2.5
X2.425Y-2.4
X2.425Y-2.5
X2.525Y-2.4
X2.525Y-2.5
X2.625Y-2.4
X2.625Y-2.5
X2.725Y-2.4
X2.725Y-2.5
T3
X1.45Y-1.825
X1.45Y-2.025
X1.45Y-2.225
X1.7Y-2.025
X1.7Y-2.225
X2.0924Y-2.1062
X2.24Y-1.3188
X2.24Y-2.1062
X2.5224Y-2.1062
X2.67Y-1.3188
X2.67Y-2.1062
T0
M30
