G04 #@! TF.GenerationSoftware,KiCad,Pcbnew,7.0.9*
G04 #@! TF.CreationDate,2025-01-29T12:58:33-06:00*
G04 #@! TF.ProjectId,powertrain,706f7765-7274-4726-9169-6e2e6b696361,rev?*
G04 #@! TF.SameCoordinates,Original*
G04 #@! TF.FileFunction,Copper,L1,Top*
G04 #@! TF.FilePolarity,Positive*
%FSLAX46Y46*%
G04 Gerber Fmt 4.6, Leading zero omitted, Abs format (unit mm)*
G04 Created by KiCad (PCBNEW 7.0.9) date 2025-01-29 12:58:33*
%MOMM*%
%LPD*%
G01*
G04 APERTURE LIST*
G04 Aperture macros list*
%AMRoundRect*
0 Rectangle with rounded corners*
0 $1 Rounding radius*
0 $2 $3 $4 $5 $6 $7 $8 $9 X,Y pos of 4 corners*
0 Add a 4 corners polygon primitive as box body*
4,1,4,$2,$3,$4,$5,$6,$7,$8,$9,$2,$3,0*
0 Add four circle primitives for the rounded corners*
1,1,$1+$1,$2,$3*
1,1,$1+$1,$4,$5*
1,1,$1+$1,$6,$7*
1,1,$1+$1,$8,$9*
0 Add four rect primitives between the rounded corners*
20,1,$1+$1,$2,$3,$4,$5,0*
20,1,$1+$1,$4,$5,$6,$7,0*
20,1,$1+$1,$6,$7,$8,$9,0*
20,1,$1+$1,$8,$9,$2,$3,0*%
%AMRotRect*
0 Rectangle, with rotation*
0 The origin of the aperture is its center*
0 $1 length*
0 $2 width*
0 $3 Rotation angle, in degrees counterclockwise*
0 Add horizontal line*
21,1,$1,$2,0,0,$3*%
G04 Aperture macros list end*
G04 #@! TA.AperFunction,ComponentPad*
%ADD10R,1.750000X1.750000*%
G04 #@! TD*
G04 #@! TA.AperFunction,ComponentPad*
%ADD11C,1.750000*%
G04 #@! TD*
G04 #@! TA.AperFunction,ComponentPad*
%ADD12C,2.700000*%
G04 #@! TD*
G04 #@! TA.AperFunction,ComponentPad*
%ADD13C,3.000000*%
G04 #@! TD*
G04 #@! TA.AperFunction,SMDPad,CuDef*
%ADD14RoundRect,0.200000X0.275000X-0.200000X0.275000X0.200000X-0.275000X0.200000X-0.275000X-0.200000X0*%
G04 #@! TD*
G04 #@! TA.AperFunction,SMDPad,CuDef*
%ADD15RoundRect,0.200000X-0.275000X0.200000X-0.275000X-0.200000X0.275000X-0.200000X0.275000X0.200000X0*%
G04 #@! TD*
G04 #@! TA.AperFunction,SMDPad,CuDef*
%ADD16RoundRect,0.225000X0.250000X-0.225000X0.250000X0.225000X-0.250000X0.225000X-0.250000X-0.225000X0*%
G04 #@! TD*
G04 #@! TA.AperFunction,ComponentPad*
%ADD17R,1.700000X1.700000*%
G04 #@! TD*
G04 #@! TA.AperFunction,ComponentPad*
%ADD18O,1.700000X1.700000*%
G04 #@! TD*
G04 #@! TA.AperFunction,SMDPad,CuDef*
%ADD19RoundRect,0.225000X-0.250000X0.225000X-0.250000X-0.225000X0.250000X-0.225000X0.250000X0.225000X0*%
G04 #@! TD*
G04 #@! TA.AperFunction,SMDPad,CuDef*
%ADD20RoundRect,0.218750X0.256250X-0.218750X0.256250X0.218750X-0.256250X0.218750X-0.256250X-0.218750X0*%
G04 #@! TD*
G04 #@! TA.AperFunction,SMDPad,CuDef*
%ADD21R,1.100000X1.100000*%
G04 #@! TD*
G04 #@! TA.AperFunction,SMDPad,CuDef*
%ADD22RotRect,2.000000X1.800000X135.000000*%
G04 #@! TD*
G04 #@! TA.AperFunction,SMDPad,CuDef*
%ADD23RotRect,1.350000X1.000000X135.000000*%
G04 #@! TD*
G04 #@! TA.AperFunction,SMDPad,CuDef*
%ADD24C,1.000000*%
G04 #@! TD*
G04 #@! TA.AperFunction,ViaPad*
%ADD25C,0.800000*%
G04 #@! TD*
G04 #@! TA.AperFunction,Conductor*
%ADD26C,0.400000*%
G04 #@! TD*
G04 APERTURE END LIST*
D10*
X63900000Y-57116000D03*
D11*
X67400000Y-57116000D03*
X63900000Y-28616000D03*
D12*
X69850000Y-52966000D03*
X61450000Y-51766000D03*
X61450000Y-33966000D03*
X69850000Y-32766000D03*
D13*
X43180000Y-56515000D03*
X36830000Y-51435000D03*
X36830000Y-56515000D03*
X36830000Y-46355000D03*
D14*
X37338000Y-40703000D03*
X37338000Y-39053000D03*
D15*
X44958000Y-39053000D03*
X44958000Y-40703000D03*
X34798000Y-39053000D03*
X34798000Y-40703000D03*
D14*
X39878000Y-40703000D03*
X39878000Y-39053000D03*
D15*
X42418000Y-39053000D03*
X42418000Y-40703000D03*
D10*
X52978000Y-57166000D03*
D11*
X56478000Y-57166000D03*
X52978000Y-28666000D03*
D12*
X58928000Y-53016000D03*
X50528000Y-51816000D03*
X50528000Y-34016000D03*
X58928000Y-32816000D03*
D13*
X43180000Y-51435000D03*
D16*
X46736000Y-57163000D03*
X46736000Y-55613000D03*
D17*
X69215000Y-63500000D03*
D18*
X69215000Y-60960000D03*
X66675000Y-63500000D03*
X66675000Y-60960000D03*
X64135000Y-63500000D03*
X64135000Y-60960000D03*
X61595000Y-63500000D03*
X61595000Y-60960000D03*
X59055000Y-63500000D03*
X59055000Y-60960000D03*
X56515000Y-63500000D03*
X56515000Y-60960000D03*
X53975000Y-63500000D03*
X53975000Y-60960000D03*
X51435000Y-63500000D03*
X51435000Y-60960000D03*
X48895000Y-63500000D03*
X48895000Y-60960000D03*
X46355000Y-63500000D03*
X46355000Y-60960000D03*
X43815000Y-63500000D03*
X43815000Y-60960000D03*
X41275000Y-63500000D03*
X41275000Y-60960000D03*
X38735000Y-63500000D03*
X38735000Y-60960000D03*
D19*
X48768000Y-55613000D03*
X48768000Y-57163000D03*
D20*
X47498000Y-40665500D03*
X47498000Y-39090500D03*
D21*
X44704000Y-45336000D03*
X44704000Y-48136000D03*
X40894000Y-45336000D03*
X40894000Y-48136000D03*
X48514000Y-45336000D03*
X48514000Y-48136000D03*
D22*
X38502862Y-34903138D03*
X44230427Y-29175573D03*
D23*
X43028346Y-35680955D03*
X44035973Y-34673328D03*
X45043600Y-33665701D03*
X37972532Y-30625142D03*
X38980159Y-29617515D03*
X39987786Y-28609887D03*
D24*
X34798000Y-63246000D03*
X34544000Y-26924000D03*
X69342000Y-26924000D03*
D25*
X40640000Y-22860000D03*
X34798000Y-60960000D03*
X35306000Y-43434000D03*
X60198000Y-55118000D03*
X51054000Y-45466000D03*
X63500000Y-22860000D03*
X49022000Y-31750000D03*
X51054000Y-57150000D03*
D26*
X47218000Y-55613000D02*
X48768000Y-57163000D01*
X46736000Y-55613000D02*
X47218000Y-55613000D01*
X63900000Y-57116000D02*
X63900000Y-49676000D01*
X56896000Y-49022000D02*
X48539500Y-40665500D01*
X48539500Y-40665500D02*
X47498000Y-40665500D01*
X63900000Y-49676000D02*
X63246000Y-49022000D01*
X56985998Y-49022000D02*
X63246000Y-49022000D01*
X47003000Y-53848000D02*
X48768000Y-55613000D01*
X46482000Y-53848000D02*
X47003000Y-53848000D01*
X38354000Y-53848000D02*
X36830000Y-52324000D01*
X56478000Y-57166000D02*
X54925000Y-55613000D01*
X36830000Y-52324000D02*
X36830000Y-51435000D01*
X46482000Y-47244000D02*
X46482000Y-53848000D01*
X54925000Y-55613000D02*
X49276000Y-55613000D01*
X46482000Y-53848000D02*
X38354000Y-53848000D01*
X44704000Y-45466000D02*
X46482000Y-47244000D01*
X44704000Y-45336000D02*
X44704000Y-45466000D01*
X65934011Y-58581989D02*
X61375989Y-58581989D01*
X67400000Y-57116000D02*
X65934011Y-58581989D01*
X48154989Y-58581989D02*
X61375989Y-58581989D01*
X62865000Y-60071000D02*
X62865000Y-61540002D01*
X65405000Y-62230000D02*
X66675000Y-63500000D01*
X46736000Y-57163000D02*
X44021010Y-54448010D01*
X40894000Y-45336000D02*
X37849000Y-45336000D01*
X44021010Y-54448010D02*
X36341509Y-54448010D01*
X37849000Y-45336000D02*
X36830000Y-46355000D01*
X34798000Y-52904501D02*
X34798000Y-48387000D01*
X63554998Y-62230000D02*
X65405000Y-62230000D01*
X62865000Y-61540002D02*
X63554998Y-62230000D01*
X34798000Y-48387000D02*
X36830000Y-46355000D01*
X61375989Y-58581989D02*
X62865000Y-60071000D01*
X36341509Y-54448010D02*
X34798000Y-52904501D01*
X46736000Y-57163000D02*
X48154989Y-58581989D01*
X38608000Y-55880000D02*
X37465000Y-55880000D01*
X37465000Y-55880000D02*
X36830000Y-56515000D01*
X34197991Y-46175007D02*
X36684998Y-43688000D01*
X61595000Y-60960000D02*
X59817000Y-59182000D01*
X44958000Y-37610609D02*
X43028346Y-35680955D01*
X46612000Y-43688000D02*
X48514000Y-45590000D01*
X36684998Y-43688000D02*
X46612000Y-43688000D01*
X48514000Y-45590000D02*
X48514000Y-43434000D01*
X41910000Y-59182000D02*
X38608000Y-55880000D01*
X46253500Y-39090500D02*
X44995500Y-39090500D01*
X34197991Y-53882991D02*
X34197991Y-46175007D01*
X44958000Y-39053000D02*
X44958000Y-37610609D01*
X48514000Y-43434000D02*
X46253500Y-41173500D01*
X46253500Y-41173500D02*
X46253500Y-39090500D01*
X47498000Y-39090500D02*
X46253500Y-39090500D01*
X44995500Y-39090500D02*
X44958000Y-39053000D01*
X36830000Y-56515000D02*
X34197991Y-53882991D01*
X59817000Y-59182000D02*
X41910000Y-59182000D01*
X44068000Y-40703000D02*
X42418000Y-39053000D01*
X42765969Y-34196031D02*
X43558676Y-34196031D01*
X44958000Y-40703000D02*
X44068000Y-40703000D01*
X42418000Y-39053000D02*
X41797486Y-38432486D01*
X41797486Y-35164514D02*
X42765969Y-34196031D01*
X41797486Y-38432486D02*
X41797486Y-35164514D01*
X43558676Y-34196031D02*
X44035973Y-34673328D01*
X41021000Y-35092457D02*
X42925053Y-33188404D01*
X42925053Y-33188404D02*
X44566303Y-33188404D01*
X42418000Y-40703000D02*
X40957000Y-40703000D01*
X40957000Y-40703000D02*
X39878000Y-40703000D01*
X44566303Y-33188404D02*
X45043600Y-33665701D01*
X40957000Y-40703000D02*
X41021000Y-40639000D01*
X41021000Y-40639000D02*
X41021000Y-35092457D01*
X40259000Y-34925000D02*
X41148000Y-34036000D01*
X39878000Y-39053000D02*
X38988000Y-39053000D01*
X40259000Y-38672000D02*
X40259000Y-34925000D01*
X41148000Y-33058164D02*
X38714978Y-30625142D01*
X38714978Y-30625142D02*
X37972532Y-30625142D01*
X41148000Y-34036000D02*
X41148000Y-33058164D01*
X38988000Y-39053000D02*
X37338000Y-40703000D01*
X39878000Y-39053000D02*
X40259000Y-38672000D01*
X39987786Y-28609887D02*
X39510489Y-28132590D01*
X36764410Y-28132590D02*
X34798000Y-30099000D01*
X34798000Y-30099000D02*
X34798000Y-39053000D01*
X39510489Y-28132590D02*
X36764410Y-28132590D01*
X37338000Y-39053000D02*
X34798000Y-39053000D01*
G04 #@! TA.AperFunction,Conductor*
G36*
X66143386Y-20670502D02*
G01*
X66189879Y-20724158D01*
X66199983Y-20794432D01*
X66170489Y-20859012D01*
X66154559Y-20874420D01*
X65913493Y-21069631D01*
X65913477Y-21069645D01*
X65646645Y-21336477D01*
X65646631Y-21336493D01*
X65409143Y-21629765D01*
X65409131Y-21629782D01*
X65203595Y-21946282D01*
X65203591Y-21946288D01*
X65032265Y-22282536D01*
X65032261Y-22282544D01*
X64897023Y-22634850D01*
X64799346Y-22999388D01*
X64740308Y-23372137D01*
X64720559Y-23748993D01*
X64720559Y-23749006D01*
X64740308Y-24125862D01*
X64799346Y-24498611D01*
X64897023Y-24863149D01*
X65032261Y-25215455D01*
X65032265Y-25215463D01*
X65203597Y-25551720D01*
X65409131Y-25868217D01*
X65409143Y-25868234D01*
X65646631Y-26161506D01*
X65646645Y-26161522D01*
X65913477Y-26428354D01*
X65913485Y-26428361D01*
X65913489Y-26428365D01*
X65913493Y-26428368D01*
X66206765Y-26665856D01*
X66206782Y-26665868D01*
X66332716Y-26747650D01*
X66523280Y-26871403D01*
X66859535Y-27042734D01*
X66859539Y-27042735D01*
X66859544Y-27042738D01*
X67211850Y-27177976D01*
X67211855Y-27177977D01*
X67211857Y-27177978D01*
X67576387Y-27275653D01*
X67949129Y-27334690D01*
X67949131Y-27334690D01*
X67949137Y-27334691D01*
X68231713Y-27349500D01*
X68359458Y-27349500D01*
X68427579Y-27369502D01*
X68470580Y-27416104D01*
X68485260Y-27443568D01*
X68506090Y-27482538D01*
X68631117Y-27634883D01*
X68783462Y-27759910D01*
X68957273Y-27852814D01*
X69145868Y-27910024D01*
X69145872Y-27910024D01*
X69145874Y-27910025D01*
X69341997Y-27929341D01*
X69342000Y-27929341D01*
X69342003Y-27929341D01*
X69538124Y-27910025D01*
X69538126Y-27910025D01*
X69538127Y-27910024D01*
X69538132Y-27910024D01*
X69726727Y-27852814D01*
X69900538Y-27759910D01*
X70052883Y-27634883D01*
X70177910Y-27482538D01*
X70270814Y-27308727D01*
X70328024Y-27120132D01*
X70347341Y-26924000D01*
X70342160Y-26871402D01*
X70336842Y-26817404D01*
X70350070Y-26747650D01*
X70393609Y-26699381D01*
X70445225Y-26665863D01*
X70738511Y-26428365D01*
X71005365Y-26161511D01*
X71127611Y-26010549D01*
X71200580Y-25920441D01*
X71258994Y-25880089D01*
X71329951Y-25877723D01*
X71390923Y-25914096D01*
X71422551Y-25977658D01*
X71424500Y-25999735D01*
X71424500Y-31407994D01*
X71404498Y-31476115D01*
X71350842Y-31522608D01*
X71280568Y-31532712D01*
X71215988Y-31503218D01*
X71209405Y-31497089D01*
X71070177Y-31357861D01*
X71070168Y-31357853D01*
X71000894Y-31305995D01*
X70857347Y-31198537D01*
X70715587Y-31121130D01*
X70624020Y-31071130D01*
X70374929Y-30978225D01*
X70115170Y-30921718D01*
X70115172Y-30921718D01*
X69850000Y-30902753D01*
X69584828Y-30921718D01*
X69325071Y-30978225D01*
X69325070Y-30978225D01*
X69075979Y-31071130D01*
X68842653Y-31198537D01*
X68629831Y-31357853D01*
X68629822Y-31357861D01*
X68441861Y-31545822D01*
X68441853Y-31545831D01*
X68282537Y-31758653D01*
X68155130Y-31991979D01*
X68062225Y-32241070D01*
X68062225Y-32241071D01*
X68005718Y-32500828D01*
X67986753Y-32766000D01*
X68005718Y-33031171D01*
X68062225Y-33290928D01*
X68062225Y-33290929D01*
X68155130Y-33540020D01*
X68212296Y-33644710D01*
X68282537Y-33773347D01*
X68426755Y-33966000D01*
X68441853Y-33986168D01*
X68441861Y-33986177D01*
X68629822Y-34174138D01*
X68629831Y-34174146D01*
X68629833Y-34174148D01*
X68842653Y-34333463D01*
X69075979Y-34460869D01*
X69325063Y-34553772D01*
X69325066Y-34553772D01*
X69325070Y-34553774D01*
X69475400Y-34586476D01*
X69584832Y-34610282D01*
X69850000Y-34629247D01*
X70115168Y-34610282D01*
X70374928Y-34553774D01*
X70374929Y-34553774D01*
X70374930Y-34553773D01*
X70374937Y-34553772D01*
X70624021Y-34460869D01*
X70857347Y-34333463D01*
X71070167Y-34174148D01*
X71129707Y-34114608D01*
X71209405Y-34034911D01*
X71271717Y-34000885D01*
X71342532Y-34005950D01*
X71399368Y-34048497D01*
X71424179Y-34115017D01*
X71424500Y-34124006D01*
X71424500Y-51607994D01*
X71404498Y-51676115D01*
X71350842Y-51722608D01*
X71280568Y-51732712D01*
X71215988Y-51703218D01*
X71209405Y-51697089D01*
X71070177Y-51557861D01*
X71070168Y-51557853D01*
X70964707Y-51478906D01*
X70857347Y-51398537D01*
X70679442Y-51301393D01*
X70624020Y-51271130D01*
X70374929Y-51178225D01*
X70115170Y-51121718D01*
X70115172Y-51121718D01*
X69850000Y-51102753D01*
X69584828Y-51121718D01*
X69325071Y-51178225D01*
X69325070Y-51178225D01*
X69075979Y-51271130D01*
X68842653Y-51398537D01*
X68629831Y-51557853D01*
X68629822Y-51557861D01*
X68441861Y-51745822D01*
X68441853Y-51745831D01*
X68282537Y-51958653D01*
X68155130Y-52191979D01*
X68062225Y-52441070D01*
X68062225Y-52441071D01*
X68005718Y-52700828D01*
X67986753Y-52966000D01*
X68005718Y-53231171D01*
X68062225Y-53490928D01*
X68062225Y-53490929D01*
X68155130Y-53740020D01*
X68182433Y-53790021D01*
X68282537Y-53973347D01*
X68419295Y-54156034D01*
X68441853Y-54186168D01*
X68441861Y-54186177D01*
X68629822Y-54374138D01*
X68629831Y-54374146D01*
X68629833Y-54374148D01*
X68842653Y-54533463D01*
X69075979Y-54660869D01*
X69325063Y-54753772D01*
X69325066Y-54753772D01*
X69325070Y-54753774D01*
X69475400Y-54786476D01*
X69584832Y-54810282D01*
X69850000Y-54829247D01*
X70115168Y-54810282D01*
X70374928Y-54753774D01*
X70374929Y-54753774D01*
X70374930Y-54753773D01*
X70374937Y-54753772D01*
X70624021Y-54660869D01*
X70857347Y-54533463D01*
X71070167Y-54374148D01*
X71139669Y-54304646D01*
X71209405Y-54234911D01*
X71271717Y-54200885D01*
X71342532Y-54205950D01*
X71399368Y-54248497D01*
X71424179Y-54315017D01*
X71424500Y-54324006D01*
X71424500Y-65168500D01*
X71404498Y-65236621D01*
X71350842Y-65283114D01*
X71298500Y-65294500D01*
X34926903Y-65294500D01*
X34923099Y-65294385D01*
X34876853Y-65291587D01*
X34625718Y-65276396D01*
X34618159Y-65275478D01*
X34432486Y-65241452D01*
X34326990Y-65222120D01*
X34319600Y-65220298D01*
X34036984Y-65132231D01*
X34029864Y-65129531D01*
X33759930Y-65008043D01*
X33753193Y-65004507D01*
X33602886Y-64913644D01*
X33499858Y-64851362D01*
X33493602Y-64847043D01*
X33260575Y-64664478D01*
X33254884Y-64659436D01*
X33045562Y-64450114D01*
X33040521Y-64444424D01*
X33034421Y-64436638D01*
X32857953Y-64211394D01*
X32853639Y-64205144D01*
X32703561Y-63956883D01*
X32700492Y-63951806D01*
X32696959Y-63945075D01*
X32575464Y-63675125D01*
X32572768Y-63668015D01*
X32502378Y-63442126D01*
X32484699Y-63385394D01*
X32482882Y-63378021D01*
X32458689Y-63246003D01*
X33792659Y-63246003D01*
X33811974Y-63442124D01*
X33811974Y-63442126D01*
X33869186Y-63630728D01*
X33919238Y-63724368D01*
X33962090Y-63804538D01*
X34087117Y-63956883D01*
X34239462Y-64081910D01*
X34413273Y-64174814D01*
X34601868Y-64232024D01*
X34601872Y-64232024D01*
X34601874Y-64232025D01*
X34797997Y-64251341D01*
X34798000Y-64251341D01*
X34798003Y-64251341D01*
X34994124Y-64232025D01*
X34994126Y-64232025D01*
X34994127Y-64232024D01*
X34994132Y-64232024D01*
X35182727Y-64174814D01*
X35356538Y-64081910D01*
X35508883Y-63956883D01*
X35633910Y-63804538D01*
X35726814Y-63630727D01*
X35784024Y-63442132D01*
X35800423Y-63275632D01*
X35803341Y-63246003D01*
X35803341Y-63245996D01*
X35784025Y-63049875D01*
X35784025Y-63049873D01*
X35784024Y-63049870D01*
X35784024Y-63049868D01*
X35726814Y-62861273D01*
X35633910Y-62687462D01*
X35508883Y-62535117D01*
X35356538Y-62410090D01*
X35260602Y-62358811D01*
X35182728Y-62317186D01*
X34994125Y-62259974D01*
X34798003Y-62240659D01*
X34797997Y-62240659D01*
X34601875Y-62259974D01*
X34601873Y-62259974D01*
X34413271Y-62317186D01*
X34239461Y-62410090D01*
X34087117Y-62535117D01*
X33962090Y-62687461D01*
X33869186Y-62861271D01*
X33811974Y-63049873D01*
X33811974Y-63049875D01*
X33792659Y-63245996D01*
X33792659Y-63246003D01*
X32458689Y-63246003D01*
X32429520Y-63086833D01*
X32428604Y-63079291D01*
X32410614Y-62781900D01*
X32410500Y-62778097D01*
X32410500Y-40957000D01*
X33815001Y-40957000D01*
X33815001Y-40960221D01*
X33821481Y-41031553D01*
X33872633Y-41195706D01*
X33961578Y-41342840D01*
X33961586Y-41342850D01*
X34083149Y-41464413D01*
X34083159Y-41464421D01*
X34230293Y-41553366D01*
X34394447Y-41604518D01*
X34465777Y-41610999D01*
X34543999Y-41610998D01*
X34544000Y-41610998D01*
X34544000Y-40957000D01*
X35052000Y-40957000D01*
X35052000Y-41610999D01*
X35130222Y-41610999D01*
X35201553Y-41604518D01*
X35365706Y-41553366D01*
X35512840Y-41464421D01*
X35512850Y-41464413D01*
X35634413Y-41342850D01*
X35634421Y-41342840D01*
X35723366Y-41195706D01*
X35774518Y-41031553D01*
X35774518Y-41031552D01*
X35781000Y-40960222D01*
X35781000Y-40957000D01*
X35052000Y-40957000D01*
X34544000Y-40957000D01*
X33815001Y-40957000D01*
X32410500Y-40957000D01*
X32410500Y-25935365D01*
X32430502Y-25867244D01*
X32484158Y-25820751D01*
X32554432Y-25810647D01*
X32619012Y-25840141D01*
X32641155Y-25865572D01*
X32641191Y-25865547D01*
X32641484Y-25865950D01*
X32642176Y-25866745D01*
X32643136Y-25868224D01*
X32643143Y-25868234D01*
X32880631Y-26161506D01*
X32880645Y-26161522D01*
X33147477Y-26428354D01*
X33147485Y-26428361D01*
X33147489Y-26428365D01*
X33147493Y-26428368D01*
X33440768Y-26665858D01*
X33440779Y-26665866D01*
X33492387Y-26699380D01*
X33538625Y-26753256D01*
X33549157Y-26817403D01*
X33538659Y-26923996D01*
X33538659Y-26924003D01*
X33557974Y-27120124D01*
X33557974Y-27120126D01*
X33615186Y-27308728D01*
X33687260Y-27443568D01*
X33708090Y-27482538D01*
X33833117Y-27634883D01*
X33985462Y-27759910D01*
X34159273Y-27852814D01*
X34347868Y-27910024D01*
X34347872Y-27910024D01*
X34347874Y-27910025D01*
X34543997Y-27929341D01*
X34544000Y-27929341D01*
X34544003Y-27929341D01*
X34740124Y-27910025D01*
X34740126Y-27910025D01*
X34740127Y-27910024D01*
X34740132Y-27910024D01*
X34928727Y-27852814D01*
X35102538Y-27759910D01*
X35254883Y-27634883D01*
X35379910Y-27482538D01*
X35385073Y-27472876D01*
X35415419Y-27416105D01*
X35465170Y-27365456D01*
X35526541Y-27349500D01*
X35654287Y-27349500D01*
X35936862Y-27334691D01*
X35936866Y-27334690D01*
X35936871Y-27334690D01*
X36309613Y-27275653D01*
X36342623Y-27266808D01*
X36413600Y-27268496D01*
X36472396Y-27308290D01*
X36500345Y-27373554D01*
X36488572Y-27443568D01*
X36440816Y-27496102D01*
X36433793Y-27500080D01*
X36432740Y-27500632D01*
X36424339Y-27506431D01*
X36404484Y-27517629D01*
X36395187Y-27521813D01*
X36395186Y-27521814D01*
X36345824Y-27560485D01*
X36342761Y-27562739D01*
X36291137Y-27598373D01*
X36291137Y-27598374D01*
X36249536Y-27645330D01*
X36246928Y-27648101D01*
X34313511Y-29581518D01*
X34310740Y-29584126D01*
X34263784Y-29625726D01*
X34228157Y-29677339D01*
X34225904Y-29680401D01*
X34187227Y-29729769D01*
X34187222Y-29729779D01*
X34183035Y-29739080D01*
X34171846Y-29758921D01*
X34166045Y-29767326D01*
X34143807Y-29825961D01*
X34142351Y-29829476D01*
X34116613Y-29886665D01*
X34116609Y-29886678D01*
X34114770Y-29896711D01*
X34108651Y-29918661D01*
X34105034Y-29928199D01*
X34097476Y-29990441D01*
X34096904Y-29994201D01*
X34086123Y-30053041D01*
X34085598Y-30055907D01*
X34087716Y-30090927D01*
X34089385Y-30118508D01*
X34089500Y-30122313D01*
X34089500Y-38232338D01*
X34069498Y-38300459D01*
X34052595Y-38321433D01*
X33961188Y-38412839D01*
X33961184Y-38412844D01*
X33872172Y-38560088D01*
X33872170Y-38560093D01*
X33820986Y-38724353D01*
X33814500Y-38795737D01*
X33814500Y-39310261D01*
X33820986Y-39381646D01*
X33820986Y-39381647D01*
X33872170Y-39545906D01*
X33872172Y-39545911D01*
X33872173Y-39545913D01*
X33961184Y-39693155D01*
X33961188Y-39693160D01*
X34057287Y-39789259D01*
X34091313Y-39851571D01*
X34086248Y-39922386D01*
X34057287Y-39967449D01*
X33961586Y-40063149D01*
X33961578Y-40063159D01*
X33872633Y-40210293D01*
X33821481Y-40374446D01*
X33821481Y-40374447D01*
X33815000Y-40445777D01*
X33815000Y-40449000D01*
X35780999Y-40449000D01*
X35780999Y-40445778D01*
X35774518Y-40374446D01*
X35723366Y-40210293D01*
X35634421Y-40063159D01*
X35634413Y-40063149D01*
X35547859Y-39976595D01*
X35513833Y-39914283D01*
X35518898Y-39843468D01*
X35561445Y-39786632D01*
X35627965Y-39761821D01*
X35636954Y-39761500D01*
X36498338Y-39761500D01*
X36566459Y-39781502D01*
X36612952Y-39835158D01*
X36623056Y-39905432D01*
X36593562Y-39970012D01*
X36587433Y-39976595D01*
X36501188Y-40062839D01*
X36501184Y-40062844D01*
X36412172Y-40210088D01*
X36412170Y-40210093D01*
X36360986Y-40374353D01*
X36354500Y-40445737D01*
X36354500Y-40960261D01*
X36360986Y-41031646D01*
X36360986Y-41031647D01*
X36412170Y-41195906D01*
X36412172Y-41195911D01*
X36412173Y-41195913D01*
X36459329Y-41273919D01*
X36501184Y-41343155D01*
X36501188Y-41343160D01*
X36622839Y-41464811D01*
X36622844Y-41464815D01*
X36622845Y-41464816D01*
X36770087Y-41553827D01*
X36934351Y-41605013D01*
X37005735Y-41611500D01*
X37670264Y-41611499D01*
X37741649Y-41605013D01*
X37905913Y-41553827D01*
X38053155Y-41464816D01*
X38174816Y-41343155D01*
X38263827Y-41195913D01*
X38315013Y-41031649D01*
X38321500Y-40960265D01*
X38321499Y-40773660D01*
X38341501Y-40705540D01*
X38358399Y-40684569D01*
X38679405Y-40363563D01*
X38741717Y-40329539D01*
X38812533Y-40334604D01*
X38869368Y-40377151D01*
X38894179Y-40443671D01*
X38894500Y-40452660D01*
X38894500Y-40960261D01*
X38900986Y-41031646D01*
X38900986Y-41031647D01*
X38952170Y-41195906D01*
X38952172Y-41195911D01*
X38952173Y-41195913D01*
X38999329Y-41273919D01*
X39041184Y-41343155D01*
X39041188Y-41343160D01*
X39162839Y-41464811D01*
X39162844Y-41464815D01*
X39162845Y-41464816D01*
X39310087Y-41553827D01*
X39474351Y-41605013D01*
X39545735Y-41611500D01*
X40210264Y-41611499D01*
X40281649Y-41605013D01*
X40445913Y-41553827D01*
X40593155Y-41464816D01*
X40599371Y-41458600D01*
X40609567Y-41448405D01*
X40671879Y-41414379D01*
X40698662Y-41411500D01*
X40914141Y-41411500D01*
X40933685Y-41411500D01*
X40937488Y-41411614D01*
X41000093Y-41415402D01*
X41010123Y-41413563D01*
X41032835Y-41411500D01*
X41597338Y-41411500D01*
X41665459Y-41431502D01*
X41686433Y-41448405D01*
X41702839Y-41464811D01*
X41702844Y-41464815D01*
X41702845Y-41464816D01*
X41850087Y-41553827D01*
X42014351Y-41605013D01*
X42085735Y-41611500D01*
X42750264Y-41611499D01*
X42821649Y-41605013D01*
X42985913Y-41553827D01*
X43133155Y-41464816D01*
X43254816Y-41343155D01*
X43341674Y-41199473D01*
X43394030Y-41151528D01*
X43464000Y-41139498D01*
X43529366Y-41167207D01*
X43538595Y-41175566D01*
X43550541Y-41187512D01*
X43553127Y-41190258D01*
X43594727Y-41237215D01*
X43646360Y-41272855D01*
X43649375Y-41275073D01*
X43698774Y-41313775D01*
X43708070Y-41317958D01*
X43727935Y-41329163D01*
X43736320Y-41334951D01*
X43736322Y-41334952D01*
X43736325Y-41334954D01*
X43757950Y-41343155D01*
X43794967Y-41357194D01*
X43798485Y-41358651D01*
X43855669Y-41384388D01*
X43865696Y-41386225D01*
X43887662Y-41392347D01*
X43897199Y-41395965D01*
X43959473Y-41403525D01*
X43963216Y-41404095D01*
X44024907Y-41415401D01*
X44087502Y-41411614D01*
X44091302Y-41411500D01*
X44137338Y-41411500D01*
X44205459Y-41431502D01*
X44226433Y-41448405D01*
X44242839Y-41464811D01*
X44242844Y-41464815D01*
X44242845Y-41464816D01*
X44390087Y-41553827D01*
X44554351Y-41605013D01*
X44625735Y-41611500D01*
X45290264Y-41611499D01*
X45361649Y-41605013D01*
X45525913Y-41553827D01*
X45525922Y-41553821D01*
X45528680Y-41552581D01*
X45530891Y-41552275D01*
X45533190Y-41551559D01*
X45533309Y-41551941D01*
X45599008Y-41542860D01*
X45663427Y-41572705D01*
X45679595Y-41589787D01*
X45681408Y-41592102D01*
X45683656Y-41595159D01*
X45718032Y-41644959D01*
X45719285Y-41646773D01*
X45766250Y-41688380D01*
X45768994Y-41690964D01*
X46854991Y-42776961D01*
X46889017Y-42839273D01*
X46883952Y-42910088D01*
X46841405Y-42966924D01*
X46774885Y-42991735D01*
X46750709Y-42991137D01*
X46723426Y-42987824D01*
X46720541Y-42987474D01*
X46716786Y-42986902D01*
X46675760Y-42979385D01*
X46655094Y-42975598D01*
X46655093Y-42975598D01*
X46592488Y-42979385D01*
X46588685Y-42979500D01*
X36708313Y-42979500D01*
X36704509Y-42979385D01*
X36641905Y-42975598D01*
X36641904Y-42975598D01*
X36580199Y-42986904D01*
X36576439Y-42987476D01*
X36514197Y-42995034D01*
X36504659Y-42998651D01*
X36482709Y-43004770D01*
X36472676Y-43006609D01*
X36472663Y-43006613D01*
X36415474Y-43032351D01*
X36411959Y-43033807D01*
X36353324Y-43056045D01*
X36344919Y-43061846D01*
X36325078Y-43073035D01*
X36315777Y-43077222D01*
X36315767Y-43077227D01*
X36266399Y-43115904D01*
X36263337Y-43118157D01*
X36211724Y-43153784D01*
X36170124Y-43200740D01*
X36167516Y-43203511D01*
X33713502Y-45657525D01*
X33710731Y-45660133D01*
X33663775Y-45701733D01*
X33628148Y-45753346D01*
X33625895Y-45756408D01*
X33587218Y-45805776D01*
X33587213Y-45805786D01*
X33583026Y-45815087D01*
X33571837Y-45834928D01*
X33566036Y-45843333D01*
X33543798Y-45901968D01*
X33542342Y-45905483D01*
X33516604Y-45962672D01*
X33516600Y-45962685D01*
X33514761Y-45972718D01*
X33508642Y-45994668D01*
X33505025Y-46004206D01*
X33497467Y-46066448D01*
X33496895Y-46070208D01*
X33485589Y-46131913D01*
X33489376Y-46194515D01*
X33489491Y-46198320D01*
X33489491Y-53859676D01*
X33489376Y-53863479D01*
X33485589Y-53926084D01*
X33496893Y-53987773D01*
X33497466Y-53991535D01*
X33505024Y-54053785D01*
X33505025Y-54053789D01*
X33508641Y-54063324D01*
X33514762Y-54085280D01*
X33516603Y-54095323D01*
X33542344Y-54152519D01*
X33543800Y-54156034D01*
X33555229Y-54186167D01*
X33566037Y-54214666D01*
X33571831Y-54223060D01*
X33583026Y-54242910D01*
X33587214Y-54252213D01*
X33587216Y-54252217D01*
X33611440Y-54283137D01*
X33625890Y-54301581D01*
X33628145Y-54304646D01*
X33663774Y-54356262D01*
X33663775Y-54356263D01*
X33663776Y-54356264D01*
X33710741Y-54397871D01*
X33713485Y-54400455D01*
X34353929Y-55040899D01*
X34938333Y-55625303D01*
X34972359Y-55687615D01*
X34967963Y-55756592D01*
X34891464Y-55971840D01*
X34891460Y-55971853D01*
X34858224Y-56131795D01*
X34850968Y-56166716D01*
X34835557Y-56240877D01*
X34835556Y-56240883D01*
X34816807Y-56514995D01*
X34816807Y-56515004D01*
X34835556Y-56789116D01*
X34835557Y-56789122D01*
X34835558Y-56789130D01*
X34866217Y-56936670D01*
X34891460Y-57058146D01*
X34891462Y-57058154D01*
X34974216Y-57291000D01*
X34983477Y-57317058D01*
X35097615Y-57537336D01*
X35109892Y-57561028D01*
X35113936Y-57566757D01*
X35268343Y-57785502D01*
X35455889Y-57986314D01*
X35669031Y-58159718D01*
X35903800Y-58302484D01*
X35903802Y-58302485D01*
X35966154Y-58329568D01*
X36155823Y-58411953D01*
X36420404Y-58486085D01*
X36515504Y-58499156D01*
X36692604Y-58523499D01*
X36692615Y-58523500D01*
X36967385Y-58523500D01*
X36967395Y-58523499D01*
X37096945Y-58505692D01*
X37239596Y-58486085D01*
X37504177Y-58411953D01*
X37756200Y-58302484D01*
X37990969Y-58159718D01*
X38204111Y-57986314D01*
X38391657Y-57785502D01*
X38550111Y-57561023D01*
X38676523Y-57317058D01*
X38705850Y-57234537D01*
X38747508Y-57177051D01*
X38813635Y-57151210D01*
X38883235Y-57165222D01*
X38913669Y-57187639D01*
X41130832Y-59404802D01*
X41164858Y-59467114D01*
X41159793Y-59537929D01*
X41117246Y-59594765D01*
X41062476Y-59618178D01*
X40940379Y-59638552D01*
X40940360Y-59638557D01*
X40727428Y-59711656D01*
X40727426Y-59711658D01*
X40529426Y-59818810D01*
X40529424Y-59818811D01*
X40351762Y-59957091D01*
X40199279Y-60122729D01*
X40110483Y-60258643D01*
X40056479Y-60304731D01*
X39986131Y-60314306D01*
X39921774Y-60284329D01*
X39899517Y-60258643D01*
X39810720Y-60122729D01*
X39664743Y-59964158D01*
X39658240Y-59957094D01*
X39658239Y-59957093D01*
X39658237Y-59957091D01*
X39572681Y-59890500D01*
X39480576Y-59818811D01*
X39282574Y-59711658D01*
X39282572Y-59711657D01*
X39282571Y-59711656D01*
X39069639Y-59638557D01*
X39069630Y-59638555D01*
X38992029Y-59625606D01*
X38847569Y-59601500D01*
X38622431Y-59601500D01*
X38477971Y-59625606D01*
X38400369Y-59638555D01*
X38400360Y-59638557D01*
X38187428Y-59711656D01*
X38187426Y-59711658D01*
X37989426Y-59818810D01*
X37989424Y-59818811D01*
X37811762Y-59957091D01*
X37659279Y-60122729D01*
X37659275Y-60122734D01*
X37536141Y-60311206D01*
X37445703Y-60517386D01*
X37445702Y-60517387D01*
X37390437Y-60735624D01*
X37390436Y-60735630D01*
X37390436Y-60735632D01*
X37371844Y-60960000D01*
X37389232Y-61169844D01*
X37390437Y-61184375D01*
X37445702Y-61402612D01*
X37445703Y-61402613D01*
X37445704Y-61402616D01*
X37531427Y-61598046D01*
X37536141Y-61608793D01*
X37659275Y-61797265D01*
X37659279Y-61797270D01*
X37811762Y-61962908D01*
X37866331Y-62005381D01*
X37989424Y-62101189D01*
X38022153Y-62118901D01*
X38022680Y-62119186D01*
X38073071Y-62169200D01*
X38088423Y-62238516D01*
X38063862Y-62305129D01*
X38022680Y-62340813D01*
X37989426Y-62358810D01*
X37989424Y-62358811D01*
X37811762Y-62497091D01*
X37659279Y-62662729D01*
X37659275Y-62662734D01*
X37536141Y-62851206D01*
X37445703Y-63057386D01*
X37445702Y-63057387D01*
X37390437Y-63275624D01*
X37390436Y-63275630D01*
X37390436Y-63275632D01*
X37371844Y-63500000D01*
X37386356Y-63675135D01*
X37390437Y-63724375D01*
X37445702Y-63942612D01*
X37445703Y-63942613D01*
X37445704Y-63942616D01*
X37506803Y-64081909D01*
X37536141Y-64148793D01*
X37659275Y-64337265D01*
X37659279Y-64337270D01*
X37811762Y-64502908D01*
X37866331Y-64545381D01*
X37989424Y-64641189D01*
X38187426Y-64748342D01*
X38187427Y-64748342D01*
X38187428Y-64748343D01*
X38299227Y-64786723D01*
X38400365Y-64821444D01*
X38622431Y-64858500D01*
X38622435Y-64858500D01*
X38847565Y-64858500D01*
X38847569Y-64858500D01*
X39069635Y-64821444D01*
X39282574Y-64748342D01*
X39480576Y-64641189D01*
X39658240Y-64502906D01*
X39810722Y-64337268D01*
X39899518Y-64201354D01*
X39953520Y-64155268D01*
X40023868Y-64145692D01*
X40088225Y-64175669D01*
X40110480Y-64201353D01*
X40143139Y-64251341D01*
X40199275Y-64337265D01*
X40199279Y-64337270D01*
X40351762Y-64502908D01*
X40406331Y-64545381D01*
X40529424Y-64641189D01*
X40727426Y-64748342D01*
X40727427Y-64748342D01*
X40727428Y-64748343D01*
X40839227Y-64786723D01*
X40940365Y-64821444D01*
X41162431Y-64858500D01*
X41162435Y-64858500D01*
X41387565Y-64858500D01*
X41387569Y-64858500D01*
X41609635Y-64821444D01*
X41822574Y-64748342D01*
X42020576Y-64641189D01*
X42198240Y-64502906D01*
X42350722Y-64337268D01*
X42439518Y-64201354D01*
X42493520Y-64155268D01*
X42563868Y-64145692D01*
X42628225Y-64175669D01*
X42650480Y-64201353D01*
X42683139Y-64251341D01*
X42739275Y-64337265D01*
X42739279Y-64337270D01*
X42891762Y-64502908D01*
X42946331Y-64545381D01*
X43069424Y-64641189D01*
X43267426Y-64748342D01*
X43267427Y-64748342D01*
X43267428Y-64748343D01*
X43379227Y-64786723D01*
X43480365Y-64821444D01*
X43702431Y-64858500D01*
X43702435Y-64858500D01*
X43927565Y-64858500D01*
X43927569Y-64858500D01*
X44149635Y-64821444D01*
X44362574Y-64748342D01*
X44560576Y-64641189D01*
X44738240Y-64502906D01*
X44890722Y-64337268D01*
X44979518Y-64201354D01*
X45033520Y-64155268D01*
X45103868Y-64145692D01*
X45168225Y-64175669D01*
X45190480Y-64201353D01*
X45223139Y-64251341D01*
X45279275Y-64337265D01*
X45279279Y-64337270D01*
X45431762Y-64502908D01*
X45486331Y-64545381D01*
X45609424Y-64641189D01*
X45807426Y-64748342D01*
X45807427Y-64748342D01*
X45807428Y-64748343D01*
X45919227Y-64786723D01*
X46020365Y-64821444D01*
X46242431Y-64858500D01*
X46242435Y-64858500D01*
X46467565Y-64858500D01*
X46467569Y-64858500D01*
X46689635Y-64821444D01*
X46902574Y-64748342D01*
X47100576Y-64641189D01*
X47278240Y-64502906D01*
X47430722Y-64337268D01*
X47519518Y-64201354D01*
X47573520Y-64155268D01*
X47643868Y-64145692D01*
X47708225Y-64175669D01*
X47730480Y-64201353D01*
X47763139Y-64251341D01*
X47819275Y-64337265D01*
X47819279Y-64337270D01*
X47971762Y-64502908D01*
X48026331Y-64545381D01*
X48149424Y-64641189D01*
X48347426Y-64748342D01*
X48347427Y-64748342D01*
X48347428Y-64748343D01*
X48459227Y-64786723D01*
X48560365Y-64821444D01*
X48782431Y-64858500D01*
X48782435Y-64858500D01*
X49007565Y-64858500D01*
X49007569Y-64858500D01*
X49229635Y-64821444D01*
X49442574Y-64748342D01*
X49640576Y-64641189D01*
X49818240Y-64502906D01*
X49970722Y-64337268D01*
X50059518Y-64201354D01*
X50113520Y-64155268D01*
X50183868Y-64145692D01*
X50248225Y-64175669D01*
X50270480Y-64201353D01*
X50303139Y-64251341D01*
X50359275Y-64337265D01*
X50359279Y-64337270D01*
X50511762Y-64502908D01*
X50566331Y-64545381D01*
X50689424Y-64641189D01*
X50887426Y-64748342D01*
X50887427Y-64748342D01*
X50887428Y-64748343D01*
X50999227Y-64786723D01*
X51100365Y-64821444D01*
X51322431Y-64858500D01*
X51322435Y-64858500D01*
X51547565Y-64858500D01*
X51547569Y-64858500D01*
X51769635Y-64821444D01*
X51982574Y-64748342D01*
X52180576Y-64641189D01*
X52358240Y-64502906D01*
X52510722Y-64337268D01*
X52599518Y-64201354D01*
X52653520Y-64155268D01*
X52723868Y-64145692D01*
X52788225Y-64175669D01*
X52810480Y-64201353D01*
X52843139Y-64251341D01*
X52899275Y-64337265D01*
X52899279Y-64337270D01*
X53051762Y-64502908D01*
X53106331Y-64545381D01*
X53229424Y-64641189D01*
X53427426Y-64748342D01*
X53427427Y-64748342D01*
X53427428Y-64748343D01*
X53539227Y-64786723D01*
X53640365Y-64821444D01*
X53862431Y-64858500D01*
X53862435Y-64858500D01*
X54087565Y-64858500D01*
X54087569Y-64858500D01*
X54309635Y-64821444D01*
X54522574Y-64748342D01*
X54720576Y-64641189D01*
X54898240Y-64502906D01*
X55050722Y-64337268D01*
X55139518Y-64201354D01*
X55193520Y-64155268D01*
X55263868Y-64145692D01*
X55328225Y-64175669D01*
X55350480Y-64201353D01*
X55383139Y-64251341D01*
X55439275Y-64337265D01*
X55439279Y-64337270D01*
X55591762Y-64502908D01*
X55646331Y-64545381D01*
X55769424Y-64641189D01*
X55967426Y-64748342D01*
X55967427Y-64748342D01*
X55967428Y-64748343D01*
X56079227Y-64786723D01*
X56180365Y-64821444D01*
X56402431Y-64858500D01*
X56402435Y-64858500D01*
X56627565Y-64858500D01*
X56627569Y-64858500D01*
X56849635Y-64821444D01*
X57062574Y-64748342D01*
X57260576Y-64641189D01*
X57438240Y-64502906D01*
X57590722Y-64337268D01*
X57679518Y-64201354D01*
X57733520Y-64155268D01*
X57803868Y-64145692D01*
X57868225Y-64175669D01*
X57890480Y-64201353D01*
X57923139Y-64251341D01*
X57979275Y-64337265D01*
X57979279Y-64337270D01*
X58131762Y-64502908D01*
X58186331Y-64545381D01*
X58309424Y-64641189D01*
X58507426Y-64748342D01*
X58507427Y-64748342D01*
X58507428Y-64748343D01*
X58619227Y-64786723D01*
X58720365Y-64821444D01*
X58942431Y-64858500D01*
X58942435Y-64858500D01*
X59167565Y-64858500D01*
X59167569Y-64858500D01*
X59389635Y-64821444D01*
X59602574Y-64748342D01*
X59800576Y-64641189D01*
X59978240Y-64502906D01*
X60130722Y-64337268D01*
X60219518Y-64201354D01*
X60273520Y-64155268D01*
X60343868Y-64145692D01*
X60408225Y-64175669D01*
X60430480Y-64201353D01*
X60463139Y-64251341D01*
X60519275Y-64337265D01*
X60519279Y-64337270D01*
X60671762Y-64502908D01*
X60726331Y-64545381D01*
X60849424Y-64641189D01*
X61047426Y-64748342D01*
X61047427Y-64748342D01*
X61047428Y-64748343D01*
X61159227Y-64786723D01*
X61260365Y-64821444D01*
X61482431Y-64858500D01*
X61482435Y-64858500D01*
X61707565Y-64858500D01*
X61707569Y-64858500D01*
X61929635Y-64821444D01*
X62142574Y-64748342D01*
X62340576Y-64641189D01*
X62518240Y-64502906D01*
X62670722Y-64337268D01*
X62759518Y-64201354D01*
X62813520Y-64155268D01*
X62883868Y-64145692D01*
X62948225Y-64175669D01*
X62970480Y-64201353D01*
X63003139Y-64251341D01*
X63059275Y-64337265D01*
X63059279Y-64337270D01*
X63211762Y-64502908D01*
X63266331Y-64545381D01*
X63389424Y-64641189D01*
X63587426Y-64748342D01*
X63587427Y-64748342D01*
X63587428Y-64748343D01*
X63699227Y-64786723D01*
X63800365Y-64821444D01*
X64022431Y-64858500D01*
X64022435Y-64858500D01*
X64247565Y-64858500D01*
X64247569Y-64858500D01*
X64469635Y-64821444D01*
X64682574Y-64748342D01*
X64880576Y-64641189D01*
X65058240Y-64502906D01*
X65210722Y-64337268D01*
X65299518Y-64201354D01*
X65353520Y-64155268D01*
X65423868Y-64145692D01*
X65488225Y-64175669D01*
X65510480Y-64201353D01*
X65543139Y-64251341D01*
X65599275Y-64337265D01*
X65599279Y-64337270D01*
X65751762Y-64502908D01*
X65806331Y-64545381D01*
X65929424Y-64641189D01*
X66127426Y-64748342D01*
X66127427Y-64748342D01*
X66127428Y-64748343D01*
X66239227Y-64786723D01*
X66340365Y-64821444D01*
X66562431Y-64858500D01*
X66562435Y-64858500D01*
X66787565Y-64858500D01*
X66787569Y-64858500D01*
X67009635Y-64821444D01*
X67222574Y-64748342D01*
X67420576Y-64641189D01*
X67598240Y-64502906D01*
X67659245Y-64436637D01*
X67720096Y-64400067D01*
X67791061Y-64402200D01*
X67849606Y-64442362D01*
X67870000Y-64477941D01*
X67914111Y-64596204D01*
X67914112Y-64596207D01*
X68001738Y-64713261D01*
X68118792Y-64800887D01*
X68118794Y-64800888D01*
X68118796Y-64800889D01*
X68173900Y-64821442D01*
X68255795Y-64851988D01*
X68255803Y-64851990D01*
X68316350Y-64858499D01*
X68316355Y-64858499D01*
X68316362Y-64858500D01*
X68316368Y-64858500D01*
X70113632Y-64858500D01*
X70113638Y-64858500D01*
X70113645Y-64858499D01*
X70113649Y-64858499D01*
X70174196Y-64851990D01*
X70174199Y-64851989D01*
X70174201Y-64851989D01*
X70175872Y-64851366D01*
X70193045Y-64844960D01*
X70311204Y-64800889D01*
X70381399Y-64748342D01*
X70428261Y-64713261D01*
X70515887Y-64596207D01*
X70515887Y-64596206D01*
X70515889Y-64596204D01*
X70566989Y-64459201D01*
X70568256Y-64447422D01*
X70573499Y-64398649D01*
X70573500Y-64398632D01*
X70573500Y-62601367D01*
X70573499Y-62601350D01*
X70566990Y-62540803D01*
X70566988Y-62540795D01*
X70537924Y-62462875D01*
X70515889Y-62403796D01*
X70515888Y-62403794D01*
X70515887Y-62403792D01*
X70428261Y-62286738D01*
X70311207Y-62199112D01*
X70311203Y-62199110D01*
X70196192Y-62156213D01*
X70139356Y-62113667D01*
X70114546Y-62047146D01*
X70129638Y-61977772D01*
X70147525Y-61952820D01*
X70290714Y-61797277D01*
X70290724Y-61797265D01*
X70357024Y-61695785D01*
X70413860Y-61608791D01*
X70504296Y-61402616D01*
X70559564Y-61184368D01*
X70578156Y-60960000D01*
X70559564Y-60735632D01*
X70504296Y-60517384D01*
X70413860Y-60311209D01*
X70396597Y-60284786D01*
X70290724Y-60122734D01*
X70290720Y-60122729D01*
X70144743Y-59964158D01*
X70138240Y-59957094D01*
X70138239Y-59957093D01*
X70138237Y-59957091D01*
X70052681Y-59890500D01*
X69960576Y-59818811D01*
X69762574Y-59711658D01*
X69762572Y-59711657D01*
X69762571Y-59711656D01*
X69549639Y-59638557D01*
X69549630Y-59638555D01*
X69472029Y-59625606D01*
X69327569Y-59601500D01*
X69102431Y-59601500D01*
X68957971Y-59625606D01*
X68880369Y-59638555D01*
X68880360Y-59638557D01*
X68667428Y-59711656D01*
X68667426Y-59711658D01*
X68469426Y-59818810D01*
X68469424Y-59818811D01*
X68291762Y-59957091D01*
X68139279Y-60122729D01*
X68050183Y-60259101D01*
X67996179Y-60305189D01*
X67925831Y-60314764D01*
X67861474Y-60284786D01*
X67839217Y-60259100D01*
X67750327Y-60123044D01*
X67597902Y-59957465D01*
X67420301Y-59819232D01*
X67420300Y-59819231D01*
X67222371Y-59712117D01*
X67222369Y-59712116D01*
X67009512Y-59639043D01*
X67009501Y-59639040D01*
X66929000Y-59625606D01*
X66929000Y-60526325D01*
X66817315Y-60475320D01*
X66710763Y-60460000D01*
X66639237Y-60460000D01*
X66532685Y-60475320D01*
X66421000Y-60526325D01*
X66421000Y-59625607D01*
X66420999Y-59625606D01*
X66340498Y-59639040D01*
X66340487Y-59639043D01*
X66127630Y-59712116D01*
X66127628Y-59712117D01*
X65929699Y-59819231D01*
X65929698Y-59819232D01*
X65752097Y-59957465D01*
X65599670Y-60123045D01*
X65510780Y-60259101D01*
X65456776Y-60305189D01*
X65386428Y-60314764D01*
X65322071Y-60284786D01*
X65299816Y-60259101D01*
X65260884Y-60199511D01*
X65210724Y-60122734D01*
X65210720Y-60122729D01*
X65064743Y-59964158D01*
X65058240Y-59957094D01*
X65058239Y-59957093D01*
X65058237Y-59957091D01*
X64972681Y-59890500D01*
X64880576Y-59818811D01*
X64682574Y-59711658D01*
X64682572Y-59711657D01*
X64682571Y-59711656D01*
X64469639Y-59638557D01*
X64469630Y-59638555D01*
X64392029Y-59625606D01*
X64247569Y-59601500D01*
X64022431Y-59601500D01*
X63877971Y-59625606D01*
X63800369Y-59638555D01*
X63800360Y-59638557D01*
X63590343Y-59710656D01*
X63519418Y-59713856D01*
X63458023Y-59678204D01*
X63450249Y-59669193D01*
X63448202Y-59666580D01*
X63437088Y-59652394D01*
X63434852Y-59649356D01*
X63399215Y-59597727D01*
X63352249Y-59556119D01*
X63349503Y-59553533D01*
X63301554Y-59505584D01*
X63267528Y-59443272D01*
X63272593Y-59372457D01*
X63315140Y-59315621D01*
X63381660Y-59290810D01*
X63390649Y-59290489D01*
X65910696Y-59290489D01*
X65914499Y-59290603D01*
X65977104Y-59294391D01*
X66038823Y-59283080D01*
X66042536Y-59282515D01*
X66104812Y-59274954D01*
X66114341Y-59271339D01*
X66136315Y-59265215D01*
X66146340Y-59263378D01*
X66203563Y-59237623D01*
X66207020Y-59236191D01*
X66265686Y-59213943D01*
X66274077Y-59208150D01*
X66293933Y-59196950D01*
X66303237Y-59192764D01*
X66352647Y-59154052D01*
X66355632Y-59151856D01*
X66407284Y-59116204D01*
X66448907Y-59069220D01*
X66451460Y-59066508D01*
X67010776Y-58507192D01*
X67073086Y-58473168D01*
X67120603Y-58472007D01*
X67285360Y-58499500D01*
X67285365Y-58499500D01*
X67514636Y-58499500D01*
X67514640Y-58499500D01*
X67740793Y-58461762D01*
X67957650Y-58387315D01*
X68159296Y-58278190D01*
X68340231Y-58137363D01*
X68495518Y-57968676D01*
X68620922Y-57776730D01*
X68713023Y-57566761D01*
X68769308Y-57344497D01*
X68788242Y-57116000D01*
X68769308Y-56887503D01*
X68744397Y-56789130D01*
X68713024Y-56665242D01*
X68713021Y-56665235D01*
X68701895Y-56639871D01*
X68620922Y-56455270D01*
X68495518Y-56263324D01*
X68340231Y-56094637D01*
X68159296Y-55953810D01*
X68159295Y-55953809D01*
X68050042Y-55894685D01*
X67957650Y-55844685D01*
X67957648Y-55844684D01*
X67957647Y-55844683D01*
X67740797Y-55770239D01*
X67740788Y-55770237D01*
X67659016Y-55756592D01*
X67514640Y-55732500D01*
X67285360Y-55732500D01*
X67140984Y-55756592D01*
X67059211Y-55770237D01*
X67059202Y-55770239D01*
X66842352Y-55844683D01*
X66842350Y-55844685D01*
X66640704Y-55953809D01*
X66640703Y-55953810D01*
X66459766Y-56094639D01*
X66304479Y-56263327D01*
X66179080Y-56455267D01*
X66179073Y-56455279D01*
X66086978Y-56665235D01*
X66086975Y-56665242D01*
X66030693Y-56887495D01*
X66030692Y-56887501D01*
X66030692Y-56887503D01*
X66028911Y-56909000D01*
X66011758Y-57115999D01*
X66030692Y-57344500D01*
X66030693Y-57344504D01*
X66041171Y-57385882D01*
X66038502Y-57456829D01*
X66008122Y-57505906D01*
X65677446Y-57836584D01*
X65615134Y-57870609D01*
X65588350Y-57873489D01*
X65409500Y-57873489D01*
X65341379Y-57853487D01*
X65294886Y-57799831D01*
X65283500Y-57747489D01*
X65283500Y-56192367D01*
X65283499Y-56192350D01*
X65276990Y-56131803D01*
X65276988Y-56131795D01*
X65229251Y-56003810D01*
X65225889Y-55994796D01*
X65225888Y-55994794D01*
X65225887Y-55994792D01*
X65138261Y-55877738D01*
X65021207Y-55790112D01*
X65021202Y-55790110D01*
X64884204Y-55739011D01*
X64884196Y-55739009D01*
X64823649Y-55732500D01*
X64823638Y-55732500D01*
X64734500Y-55732500D01*
X64666379Y-55712498D01*
X64619886Y-55658842D01*
X64608500Y-55606500D01*
X64608500Y-49699319D01*
X64608615Y-49695514D01*
X64611518Y-49647516D01*
X64612402Y-49632908D01*
X64601092Y-49571193D01*
X64600525Y-49567470D01*
X64592965Y-49505199D01*
X64592964Y-49505196D01*
X64589351Y-49495668D01*
X64583227Y-49473702D01*
X64581389Y-49463671D01*
X64555642Y-49406466D01*
X64554200Y-49402986D01*
X64531954Y-49344325D01*
X64526161Y-49335933D01*
X64514958Y-49316070D01*
X64510775Y-49306775D01*
X64472083Y-49257389D01*
X64469852Y-49254355D01*
X64456951Y-49235666D01*
X64434215Y-49202727D01*
X64424364Y-49194000D01*
X64387257Y-49161126D01*
X64384503Y-49158533D01*
X63763464Y-48537494D01*
X63760880Y-48534750D01*
X63719273Y-48487785D01*
X63719270Y-48487783D01*
X63719271Y-48487783D01*
X63667655Y-48452154D01*
X63664590Y-48449899D01*
X63646146Y-48435449D01*
X63615226Y-48411225D01*
X63615222Y-48411223D01*
X63605919Y-48407035D01*
X63586069Y-48395840D01*
X63577675Y-48390046D01*
X63554705Y-48381334D01*
X63519043Y-48367809D01*
X63515528Y-48366353D01*
X63458332Y-48340612D01*
X63458330Y-48340611D01*
X63458329Y-48340611D01*
X63448286Y-48338770D01*
X63426336Y-48332650D01*
X63416801Y-48329035D01*
X63416800Y-48329034D01*
X63416798Y-48329034D01*
X63416794Y-48329033D01*
X63364362Y-48322667D01*
X63354537Y-48321473D01*
X63350786Y-48320902D01*
X63309760Y-48313385D01*
X63289094Y-48309598D01*
X63289093Y-48309598D01*
X63226488Y-48313385D01*
X63222685Y-48313500D01*
X57241660Y-48313500D01*
X57173539Y-48293498D01*
X57152565Y-48276595D01*
X53166389Y-44290419D01*
X49056964Y-40180994D01*
X49054380Y-40178250D01*
X49012773Y-40131285D01*
X49012770Y-40131283D01*
X49012771Y-40131283D01*
X48961155Y-40095654D01*
X48958090Y-40093399D01*
X48939646Y-40078949D01*
X48908726Y-40054725D01*
X48908722Y-40054723D01*
X48899419Y-40050535D01*
X48879569Y-40039340D01*
X48871175Y-40033546D01*
X48848205Y-40024834D01*
X48812543Y-40011309D01*
X48809028Y-40009853D01*
X48751832Y-39984112D01*
X48751830Y-39984111D01*
X48751829Y-39984111D01*
X48741786Y-39982270D01*
X48719836Y-39976150D01*
X48710301Y-39972535D01*
X48710300Y-39972534D01*
X48710298Y-39972534D01*
X48710294Y-39972533D01*
X48657862Y-39966167D01*
X48648037Y-39964973D01*
X48644286Y-39964402D01*
X48603260Y-39956885D01*
X48582594Y-39953098D01*
X48582593Y-39953098D01*
X48519988Y-39956885D01*
X48516185Y-39957000D01*
X48434936Y-39957000D01*
X48366815Y-39936998D01*
X48320322Y-39883342D01*
X48310218Y-39813068D01*
X48327695Y-39764853D01*
X48328598Y-39763388D01*
X48328600Y-39763387D01*
X48417849Y-39618692D01*
X48471324Y-39457314D01*
X48481500Y-39357711D01*
X48481499Y-38823290D01*
X48471324Y-38723686D01*
X48417849Y-38562308D01*
X48328600Y-38417613D01*
X48328599Y-38417612D01*
X48328594Y-38417606D01*
X48208393Y-38297405D01*
X48208387Y-38297400D01*
X48063692Y-38208151D01*
X48045642Y-38202170D01*
X47902314Y-38154676D01*
X47902311Y-38154675D01*
X47902309Y-38154675D01*
X47802719Y-38144500D01*
X47193289Y-38144500D01*
X47093690Y-38154675D01*
X47093687Y-38154675D01*
X47093686Y-38154676D01*
X47013723Y-38181172D01*
X46932307Y-38208151D01*
X46787612Y-38297400D01*
X46787611Y-38297401D01*
X46763765Y-38321248D01*
X46739916Y-38345096D01*
X46677607Y-38379120D01*
X46650823Y-38382000D01*
X45816161Y-38382000D01*
X45748040Y-38361998D01*
X45727066Y-38345095D01*
X45703405Y-38321434D01*
X45669379Y-38259122D01*
X45666500Y-38232339D01*
X45666500Y-37633928D01*
X45666615Y-37630123D01*
X45670402Y-37567517D01*
X45659092Y-37505802D01*
X45658525Y-37502079D01*
X45650965Y-37439808D01*
X45650964Y-37439805D01*
X45647351Y-37430277D01*
X45641227Y-37408311D01*
X45639389Y-37398282D01*
X45639389Y-37398280D01*
X45613646Y-37341082D01*
X45612189Y-37337565D01*
X45589957Y-37278941D01*
X45589955Y-37278938D01*
X45589954Y-37278934D01*
X45584163Y-37270544D01*
X45572958Y-37250679D01*
X45568775Y-37241383D01*
X45530088Y-37192004D01*
X45527846Y-37188957D01*
X45492215Y-37137336D01*
X45445249Y-37095728D01*
X45442503Y-37093142D01*
X44452618Y-36103257D01*
X44418592Y-36040945D01*
X44423657Y-35970130D01*
X44462654Y-35916052D01*
X44484888Y-35898135D01*
X45260780Y-35122243D01*
X45299000Y-35074815D01*
X45325276Y-35017276D01*
X45371768Y-34963621D01*
X45387549Y-34955004D01*
X45445085Y-34928729D01*
X45445085Y-34928728D01*
X45445087Y-34928728D01*
X45492515Y-34890508D01*
X46268407Y-34114616D01*
X46306627Y-34067188D01*
X46330004Y-34016000D01*
X48664753Y-34016000D01*
X48683718Y-34281171D01*
X48740225Y-34540928D01*
X48740225Y-34540929D01*
X48833130Y-34790020D01*
X48833131Y-34790021D01*
X48960537Y-35023347D01*
X49082430Y-35186177D01*
X49119853Y-35236168D01*
X49119861Y-35236177D01*
X49307822Y-35424138D01*
X49307831Y-35424146D01*
X49307833Y-35424148D01*
X49520653Y-35583463D01*
X49753979Y-35710869D01*
X50003063Y-35803772D01*
X50003066Y-35803772D01*
X50003070Y-35803774D01*
X50120168Y-35829247D01*
X50262832Y-35860282D01*
X50528000Y-35879247D01*
X50793168Y-35860282D01*
X51052928Y-35803774D01*
X51052929Y-35803774D01*
X51052930Y-35803773D01*
X51052937Y-35803772D01*
X51302021Y-35710869D01*
X51535347Y-35583463D01*
X51748167Y-35424148D01*
X51936148Y-35236167D01*
X52095463Y-35023347D01*
X52222869Y-34790021D01*
X52315772Y-34540937D01*
X52372282Y-34281168D01*
X52391247Y-34016000D01*
X52372282Y-33750832D01*
X52350630Y-33651299D01*
X52315774Y-33491071D01*
X52315774Y-33491070D01*
X52315772Y-33491066D01*
X52315772Y-33491063D01*
X52222869Y-33241979D01*
X52095463Y-33008653D01*
X51951245Y-32816000D01*
X57064753Y-32816000D01*
X57083718Y-33081171D01*
X57140225Y-33340928D01*
X57140225Y-33340929D01*
X57233130Y-33590020D01*
X57290967Y-33695940D01*
X57360537Y-33823347D01*
X57504755Y-34016000D01*
X57519853Y-34036168D01*
X57519861Y-34036177D01*
X57707822Y-34224138D01*
X57707831Y-34224146D01*
X57707833Y-34224148D01*
X57920653Y-34383463D01*
X58153979Y-34510869D01*
X58403063Y-34603772D01*
X58403066Y-34603772D01*
X58403070Y-34603774D01*
X58520168Y-34629247D01*
X58662832Y-34660282D01*
X58928000Y-34679247D01*
X59193168Y-34660282D01*
X59452937Y-34603772D01*
X59555559Y-34565495D01*
X59626372Y-34560431D01*
X59688684Y-34594456D01*
X59717644Y-34639518D01*
X59755129Y-34740016D01*
X59755131Y-34740021D01*
X59882537Y-34973347D01*
X60041852Y-35186167D01*
X60041853Y-35186168D01*
X60041861Y-35186177D01*
X60229822Y-35374138D01*
X60229831Y-35374146D01*
X60229833Y-35374148D01*
X60442653Y-35533463D01*
X60675979Y-35660869D01*
X60925063Y-35753772D01*
X60925066Y-35753772D01*
X60925070Y-35753774D01*
X61075400Y-35786476D01*
X61184832Y-35810282D01*
X61450000Y-35829247D01*
X61715168Y-35810282D01*
X61974928Y-35753774D01*
X61974929Y-35753774D01*
X61974930Y-35753773D01*
X61974937Y-35753772D01*
X62224021Y-35660869D01*
X62457347Y-35533463D01*
X62670167Y-35374148D01*
X62858148Y-35186167D01*
X63017463Y-34973347D01*
X63144869Y-34740021D01*
X63237772Y-34490937D01*
X63294282Y-34231168D01*
X63313247Y-33966000D01*
X63294282Y-33700832D01*
X63248651Y-33491071D01*
X63237774Y-33441071D01*
X63237774Y-33441070D01*
X63237772Y-33441066D01*
X63237772Y-33441063D01*
X63144869Y-33191979D01*
X63017463Y-32958653D01*
X62858148Y-32745833D01*
X62858146Y-32745831D01*
X62858138Y-32745822D01*
X62670177Y-32557861D01*
X62670168Y-32557853D01*
X62647229Y-32540681D01*
X62457347Y-32398537D01*
X62315587Y-32321130D01*
X62224020Y-32271130D01*
X61974929Y-32178225D01*
X61715170Y-32121718D01*
X61715172Y-32121718D01*
X61450000Y-32102753D01*
X61184828Y-32121718D01*
X60925071Y-32178225D01*
X60925064Y-32178227D01*
X60822440Y-32216503D01*
X60751624Y-32221567D01*
X60689312Y-32187541D01*
X60660353Y-32142479D01*
X60622869Y-32041979D01*
X60572050Y-31948912D01*
X60495463Y-31808653D01*
X60336148Y-31595833D01*
X60336146Y-31595831D01*
X60336138Y-31595822D01*
X60148177Y-31407861D01*
X60148168Y-31407853D01*
X60136307Y-31398974D01*
X59935347Y-31248537D01*
X59807940Y-31178967D01*
X59702020Y-31121130D01*
X59452929Y-31028225D01*
X59193170Y-30971718D01*
X59193172Y-30971718D01*
X58928000Y-30952753D01*
X58662828Y-30971718D01*
X58403071Y-31028225D01*
X58403070Y-31028225D01*
X58153979Y-31121130D01*
X57920653Y-31248537D01*
X57707831Y-31407853D01*
X57707822Y-31407861D01*
X57519861Y-31595822D01*
X57519853Y-31595831D01*
X57360537Y-31808653D01*
X57233130Y-32041979D01*
X57140225Y-32291070D01*
X57140225Y-32291071D01*
X57083718Y-32550828D01*
X57064753Y-32816000D01*
X51951245Y-32816000D01*
X51936148Y-32795833D01*
X51936146Y-32795831D01*
X51936138Y-32795822D01*
X51748177Y-32607861D01*
X51748168Y-32607853D01*
X51748167Y-32607852D01*
X51535347Y-32448537D01*
X51407940Y-32378967D01*
X51302020Y-32321130D01*
X51052929Y-32228225D01*
X50793170Y-32171718D01*
X50793172Y-32171718D01*
X50528000Y-32152753D01*
X50262828Y-32171718D01*
X50003071Y-32228225D01*
X50003070Y-32228225D01*
X49753979Y-32321130D01*
X49520653Y-32448537D01*
X49307831Y-32607853D01*
X49307822Y-32607861D01*
X49119861Y-32795822D01*
X49119853Y-32795831D01*
X48960537Y-33008653D01*
X48833130Y-33241979D01*
X48740225Y-33491070D01*
X48740225Y-33491071D01*
X48683718Y-33750828D01*
X48664753Y-34016000D01*
X46330004Y-34016000D01*
X46367370Y-33934179D01*
X46388179Y-33789445D01*
X46367370Y-33644711D01*
X46306627Y-33511702D01*
X46268407Y-33464273D01*
X46268400Y-33464266D01*
X46268392Y-33464257D01*
X45245043Y-32440908D01*
X45245033Y-32440899D01*
X45245028Y-32440894D01*
X45197599Y-32402674D01*
X45064590Y-32341931D01*
X44919856Y-32321122D01*
X44775121Y-32341931D01*
X44642109Y-32402676D01*
X44594688Y-32440891D01*
X44594684Y-32440894D01*
X44592580Y-32442999D01*
X44530268Y-32477025D01*
X44503485Y-32479904D01*
X42948372Y-32479904D01*
X42944572Y-32479789D01*
X42881961Y-32476002D01*
X42881960Y-32476002D01*
X42881958Y-32476002D01*
X42820271Y-32487306D01*
X42816512Y-32487878D01*
X42808231Y-32488884D01*
X42754255Y-32495438D01*
X42754248Y-32495439D01*
X42744714Y-32499055D01*
X42722763Y-32505174D01*
X42712731Y-32507013D01*
X42712717Y-32507017D01*
X42655532Y-32532754D01*
X42652018Y-32534209D01*
X42608191Y-32550832D01*
X42593378Y-32556450D01*
X42593377Y-32556450D01*
X42593376Y-32556451D01*
X42584982Y-32562245D01*
X42565127Y-32573443D01*
X42555830Y-32577627D01*
X42555829Y-32577628D01*
X42506467Y-32616299D01*
X42503404Y-32618553D01*
X42451780Y-32654187D01*
X42451780Y-32654188D01*
X42410187Y-32701135D01*
X42407579Y-32703906D01*
X42066712Y-33044774D01*
X42004399Y-33078799D01*
X41933584Y-33073735D01*
X41876748Y-33031188D01*
X41853680Y-32978396D01*
X41849091Y-32953352D01*
X41848526Y-32949639D01*
X41840965Y-32887363D01*
X41840964Y-32887360D01*
X41837351Y-32877832D01*
X41831227Y-32855866D01*
X41829389Y-32845837D01*
X41829389Y-32845835D01*
X41803646Y-32788637D01*
X41802189Y-32785120D01*
X41779957Y-32726496D01*
X41779955Y-32726493D01*
X41779954Y-32726489D01*
X41774163Y-32718099D01*
X41762958Y-32698234D01*
X41758775Y-32688938D01*
X41720088Y-32639559D01*
X41717846Y-32636512D01*
X41682215Y-32584891D01*
X41635249Y-32543283D01*
X41632503Y-32540697D01*
X39787658Y-30695852D01*
X41929741Y-30695852D01*
X41949306Y-30869503D01*
X41949307Y-30869511D01*
X41985072Y-30971718D01*
X42007026Y-31034458D01*
X42061486Y-31121131D01*
X42100004Y-31182432D01*
X42223567Y-31305995D01*
X42223569Y-31305996D01*
X42223572Y-31305999D01*
X42371542Y-31398974D01*
X42536491Y-31456693D01*
X42629423Y-31467163D01*
X42666594Y-31471352D01*
X42666596Y-31471352D01*
X42753702Y-31471352D01*
X42786226Y-31467687D01*
X42883805Y-31456693D01*
X43048754Y-31398974D01*
X43196724Y-31305999D01*
X43320295Y-31182428D01*
X43413270Y-31034458D01*
X43470989Y-30869509D01*
X43488422Y-30714777D01*
X43515925Y-30649326D01*
X43574449Y-30609133D01*
X43645412Y-30606960D01*
X43702723Y-30639789D01*
X43975966Y-30913032D01*
X44023395Y-30951252D01*
X44156404Y-31011995D01*
X44156409Y-31011995D01*
X44156410Y-31011996D01*
X44301135Y-31032805D01*
X44301138Y-31032805D01*
X44301141Y-31032805D01*
X44445865Y-31011996D01*
X44445864Y-31011996D01*
X44445872Y-31011995D01*
X44578881Y-30951252D01*
X44626309Y-30913032D01*
X45967886Y-29571455D01*
X46006106Y-29524027D01*
X46066849Y-29391018D01*
X46071005Y-29362115D01*
X46087659Y-29246287D01*
X46087659Y-29246280D01*
X46066850Y-29101556D01*
X46066849Y-29101555D01*
X46066849Y-29101550D01*
X46006106Y-28968541D01*
X45967886Y-28921112D01*
X45967879Y-28921105D01*
X45967871Y-28921096D01*
X45712775Y-28666000D01*
X51590260Y-28666000D01*
X51609188Y-28894419D01*
X51665451Y-29116596D01*
X51757519Y-29326490D01*
X51836859Y-29447929D01*
X52413569Y-28871219D01*
X52453901Y-28968588D01*
X52550075Y-29093925D01*
X52675412Y-29190099D01*
X52772779Y-29230429D01*
X52194496Y-29808712D01*
X52218976Y-29827767D01*
X52218981Y-29827770D01*
X52420551Y-29936855D01*
X52420554Y-29936856D01*
X52637325Y-30011274D01*
X52637334Y-30011276D01*
X52863405Y-30049000D01*
X53092595Y-30049000D01*
X53318665Y-30011276D01*
X53318674Y-30011274D01*
X53535445Y-29936856D01*
X53535448Y-29936854D01*
X53737018Y-29827771D01*
X53761503Y-29808712D01*
X53183220Y-29230429D01*
X53280588Y-29190099D01*
X53405925Y-29093925D01*
X53502099Y-28968589D01*
X53542429Y-28871220D01*
X54119138Y-29447929D01*
X54119139Y-29447929D01*
X54198480Y-29326490D01*
X54290548Y-29116596D01*
X54346811Y-28894419D01*
X54365739Y-28666000D01*
X54361596Y-28616000D01*
X62512260Y-28616000D01*
X62531188Y-28844419D01*
X62587451Y-29066596D01*
X62679519Y-29276490D01*
X62758859Y-29397929D01*
X63335569Y-28821219D01*
X63375901Y-28918588D01*
X63472075Y-29043925D01*
X63597412Y-29140099D01*
X63694779Y-29180429D01*
X63116496Y-29758712D01*
X63140976Y-29777767D01*
X63140981Y-29777770D01*
X63342551Y-29886855D01*
X63342554Y-29886856D01*
X63559325Y-29961274D01*
X63559334Y-29961276D01*
X63785405Y-29999000D01*
X64014595Y-29999000D01*
X64240665Y-29961276D01*
X64240674Y-29961274D01*
X64457445Y-29886856D01*
X64457448Y-29886854D01*
X64659018Y-29777771D01*
X64683503Y-29758712D01*
X64105220Y-29180429D01*
X64202588Y-29140099D01*
X64327925Y-29043925D01*
X64424099Y-28918589D01*
X64464429Y-28821220D01*
X65041138Y-29397929D01*
X65041139Y-29397929D01*
X65120480Y-29276490D01*
X65212548Y-29066596D01*
X65268811Y-28844419D01*
X65287739Y-28616000D01*
X65268811Y-28387580D01*
X65212548Y-28165403D01*
X65120480Y-27955509D01*
X65041139Y-27834069D01*
X64464429Y-28410779D01*
X64424099Y-28313412D01*
X64327925Y-28188075D01*
X64202588Y-28091901D01*
X64105219Y-28051569D01*
X64683502Y-27473286D01*
X64683502Y-27473285D01*
X64659025Y-27454233D01*
X64457448Y-27345144D01*
X64457445Y-27345143D01*
X64240674Y-27270725D01*
X64240665Y-27270723D01*
X64014595Y-27233000D01*
X63785405Y-27233000D01*
X63559334Y-27270723D01*
X63559325Y-27270725D01*
X63342554Y-27345143D01*
X63342551Y-27345144D01*
X63140978Y-27454230D01*
X63140969Y-27454236D01*
X63116496Y-27473285D01*
X63116496Y-27473287D01*
X63694779Y-28051570D01*
X63597412Y-28091901D01*
X63472075Y-28188075D01*
X63375901Y-28313411D01*
X63335570Y-28410779D01*
X62758859Y-27834068D01*
X62758858Y-27834069D01*
X62679523Y-27955500D01*
X62679519Y-27955508D01*
X62587451Y-28165403D01*
X62531188Y-28387580D01*
X62512260Y-28616000D01*
X54361596Y-28616000D01*
X54346811Y-28437580D01*
X54290548Y-28215403D01*
X54198480Y-28005509D01*
X54119139Y-27884069D01*
X53542429Y-28460779D01*
X53502099Y-28363412D01*
X53405925Y-28238075D01*
X53280588Y-28141901D01*
X53183219Y-28101569D01*
X53761502Y-27523286D01*
X53761502Y-27523285D01*
X53737025Y-27504233D01*
X53535448Y-27395144D01*
X53535445Y-27395143D01*
X53318674Y-27320725D01*
X53318665Y-27320723D01*
X53092595Y-27283000D01*
X52863405Y-27283000D01*
X52637334Y-27320723D01*
X52637325Y-27320725D01*
X52420554Y-27395143D01*
X52420551Y-27395144D01*
X52218978Y-27504230D01*
X52218969Y-27504236D01*
X52194496Y-27523285D01*
X52194496Y-27523287D01*
X52772779Y-28101570D01*
X52675412Y-28141901D01*
X52550075Y-28238075D01*
X52453901Y-28363411D01*
X52413570Y-28460779D01*
X51836859Y-27884068D01*
X51836858Y-27884069D01*
X51757523Y-28005500D01*
X51757519Y-28005508D01*
X51665451Y-28215403D01*
X51609188Y-28437580D01*
X51590260Y-28666000D01*
X45712775Y-28666000D01*
X44484903Y-27438128D01*
X44484893Y-27438119D01*
X44484888Y-27438114D01*
X44437459Y-27399894D01*
X44304450Y-27339151D01*
X44304448Y-27339150D01*
X44304443Y-27339149D01*
X44159719Y-27318341D01*
X44159713Y-27318341D01*
X44014988Y-27339149D01*
X44014982Y-27339151D01*
X43892377Y-27395143D01*
X43881969Y-27399896D01*
X43834552Y-27438107D01*
X43834528Y-27438129D01*
X42492983Y-28779674D01*
X42492961Y-28779698D01*
X42454750Y-28827115D01*
X42454748Y-28827118D01*
X42454748Y-28827119D01*
X42439233Y-28861092D01*
X42394005Y-28960128D01*
X42394003Y-28960134D01*
X42373195Y-29104858D01*
X42373195Y-29104865D01*
X42394003Y-29249589D01*
X42394004Y-29249594D01*
X42394005Y-29249596D01*
X42454748Y-29382605D01*
X42492968Y-29430034D01*
X42492973Y-29430039D01*
X42492982Y-29430049D01*
X42768190Y-29705257D01*
X42802216Y-29767569D01*
X42797151Y-29838384D01*
X42754604Y-29895220D01*
X42688084Y-29920031D01*
X42679095Y-29920352D01*
X42666594Y-29920352D01*
X42536496Y-29935010D01*
X42536488Y-29935011D01*
X42371544Y-29992729D01*
X42371542Y-29992729D01*
X42371542Y-29992730D01*
X42352950Y-30004412D01*
X42223567Y-30085708D01*
X42100004Y-30209271D01*
X42100001Y-30209276D01*
X42007393Y-30356663D01*
X42007025Y-30357248D01*
X41949307Y-30522192D01*
X41949306Y-30522200D01*
X41929741Y-30695852D01*
X39787658Y-30695852D01*
X39232442Y-30140636D01*
X39229858Y-30137892D01*
X39188251Y-30090927D01*
X39188248Y-30090925D01*
X39188249Y-30090925D01*
X39136633Y-30055296D01*
X39133568Y-30053041D01*
X39115124Y-30038591D01*
X39084204Y-30014367D01*
X39084200Y-30014365D01*
X39074897Y-30010177D01*
X39055047Y-29998982D01*
X39046653Y-29993188D01*
X39046651Y-29993187D01*
X38991341Y-29972210D01*
X38946928Y-29943494D01*
X38710044Y-29706610D01*
X38676018Y-29644298D01*
X38681083Y-29573483D01*
X38710043Y-29528420D01*
X38891062Y-29347400D01*
X38953374Y-29313375D01*
X39024190Y-29318439D01*
X39069253Y-29347400D01*
X39996270Y-30274417D01*
X39996271Y-30274417D01*
X40204572Y-30066116D01*
X40204580Y-30066107D01*
X40242759Y-30018729D01*
X40242764Y-30018721D01*
X40268768Y-29961780D01*
X40315260Y-29908124D01*
X40331034Y-29899510D01*
X40389273Y-29872914D01*
X40436701Y-29834694D01*
X41212593Y-29058802D01*
X41250813Y-29011374D01*
X41311556Y-28878365D01*
X41332365Y-28733631D01*
X41311556Y-28588897D01*
X41250813Y-28455888D01*
X41212593Y-28408459D01*
X41212586Y-28408452D01*
X41212578Y-28408443D01*
X40189229Y-27385094D01*
X40189219Y-27385085D01*
X40189214Y-27385080D01*
X40141785Y-27346860D01*
X40008776Y-27286117D01*
X39864042Y-27265308D01*
X39719307Y-27286117D01*
X39648747Y-27318341D01*
X39602626Y-27339404D01*
X39586295Y-27346862D01*
X39538874Y-27385077D01*
X39538870Y-27385080D01*
X39536766Y-27387185D01*
X39474454Y-27421211D01*
X39447671Y-27424090D01*
X36787729Y-27424090D01*
X36783929Y-27423975D01*
X36721318Y-27420188D01*
X36715681Y-27419847D01*
X36648893Y-27395769D01*
X36605724Y-27339404D01*
X36599882Y-27268648D01*
X36633220Y-27205966D01*
X36678135Y-27176446D01*
X37026455Y-27042738D01*
X37026456Y-27042737D01*
X37026465Y-27042734D01*
X37362720Y-26871403D01*
X37679225Y-26665863D01*
X37679231Y-26665857D01*
X37679234Y-26665856D01*
X37742419Y-26614689D01*
X37972511Y-26428365D01*
X38239365Y-26161511D01*
X38434579Y-25920441D01*
X38476856Y-25868234D01*
X38476857Y-25868231D01*
X38476863Y-25868225D01*
X38682403Y-25551721D01*
X38853734Y-25215465D01*
X38988978Y-24863143D01*
X39086653Y-24498613D01*
X39145690Y-24125871D01*
X39145690Y-24125866D01*
X39145691Y-24125862D01*
X39165441Y-23749006D01*
X39165441Y-23748993D01*
X39145691Y-23372137D01*
X39086653Y-22999388D01*
X38988976Y-22634850D01*
X38853738Y-22282544D01*
X38853734Y-22282536D01*
X38853734Y-22282535D01*
X38682403Y-21946280D01*
X38476863Y-21629775D01*
X38476856Y-21629765D01*
X38239368Y-21336493D01*
X38239365Y-21336489D01*
X38239361Y-21336485D01*
X38239354Y-21336477D01*
X37972522Y-21069645D01*
X37972506Y-21069631D01*
X37731441Y-20874420D01*
X37691089Y-20816006D01*
X37688723Y-20745049D01*
X37725096Y-20684077D01*
X37788658Y-20652449D01*
X37810735Y-20650500D01*
X66075265Y-20650500D01*
X66143386Y-20670502D01*
G37*
G04 #@! TD.AperFunction*
G04 #@! TA.AperFunction,Conductor*
G36*
X51536621Y-56341502D02*
G01*
X51583114Y-56395158D01*
X51594500Y-56447500D01*
X51594500Y-57747489D01*
X51574498Y-57815610D01*
X51520842Y-57862103D01*
X51468500Y-57873489D01*
X49803675Y-57873489D01*
X49735554Y-57853487D01*
X49689061Y-57799831D01*
X49678957Y-57729557D01*
X49685613Y-57707210D01*
X49684538Y-57706854D01*
X49740742Y-57537241D01*
X49740744Y-57537229D01*
X49750999Y-57436852D01*
X49751000Y-57436852D01*
X49751000Y-57417000D01*
X48640000Y-57417000D01*
X48571879Y-57396998D01*
X48525386Y-57343342D01*
X48514000Y-57291000D01*
X48514000Y-57035000D01*
X48534002Y-56966879D01*
X48587658Y-56920386D01*
X48640000Y-56909000D01*
X49751000Y-56909000D01*
X49751000Y-56889147D01*
X49740744Y-56788770D01*
X49740742Y-56788758D01*
X49686847Y-56626115D01*
X49617476Y-56513647D01*
X49598739Y-56445168D01*
X49619998Y-56377429D01*
X49674505Y-56331937D01*
X49724717Y-56321500D01*
X51468500Y-56321500D01*
X51536621Y-56341502D01*
G37*
G04 #@! TD.AperFunction*
G04 #@! TA.AperFunction,Conductor*
G36*
X48335418Y-41466788D02*
G01*
X48354442Y-41482412D01*
X56425313Y-49553284D01*
X56425326Y-49553296D01*
X56526772Y-49632773D01*
X56526773Y-49632774D01*
X56526774Y-49632774D01*
X56526775Y-49632775D01*
X56683671Y-49703389D01*
X56852908Y-49734402D01*
X56923159Y-49730152D01*
X56939311Y-49730646D01*
X56939334Y-49730270D01*
X56943136Y-49730500D01*
X56943139Y-49730500D01*
X60892397Y-49730500D01*
X60960518Y-49750502D01*
X61007011Y-49804158D01*
X61017115Y-49874432D01*
X60987621Y-49939012D01*
X60929235Y-49976538D01*
X60929279Y-49976656D01*
X60928738Y-49976857D01*
X60927904Y-49977394D01*
X60925063Y-49978228D01*
X60675979Y-50071130D01*
X60442653Y-50198537D01*
X60229831Y-50357853D01*
X60229822Y-50357861D01*
X60041861Y-50545822D01*
X60041853Y-50545831D01*
X59882537Y-50758653D01*
X59755131Y-50991977D01*
X59684903Y-51180268D01*
X59642356Y-51237103D01*
X59575836Y-51261914D01*
X59522816Y-51254291D01*
X59452937Y-51228228D01*
X59452929Y-51228225D01*
X59193170Y-51171718D01*
X59193172Y-51171718D01*
X58928000Y-51152753D01*
X58662828Y-51171718D01*
X58403071Y-51228225D01*
X58403070Y-51228225D01*
X58153979Y-51321130D01*
X57920653Y-51448537D01*
X57707831Y-51607853D01*
X57707822Y-51607861D01*
X57519861Y-51795822D01*
X57519853Y-51795831D01*
X57360537Y-52008653D01*
X57233130Y-52241979D01*
X57140225Y-52491070D01*
X57140225Y-52491071D01*
X57083718Y-52750828D01*
X57064753Y-53016000D01*
X57083718Y-53281171D01*
X57140225Y-53540928D01*
X57140225Y-53540929D01*
X57233130Y-53790020D01*
X57290967Y-53895940D01*
X57360537Y-54023347D01*
X57517091Y-54232479D01*
X57519853Y-54236168D01*
X57519861Y-54236177D01*
X57707822Y-54424138D01*
X57707831Y-54424146D01*
X57707833Y-54424148D01*
X57920653Y-54583463D01*
X58153979Y-54710869D01*
X58403063Y-54803772D01*
X58403066Y-54803772D01*
X58403070Y-54803774D01*
X58520168Y-54829247D01*
X58662832Y-54860282D01*
X58928000Y-54879247D01*
X59193168Y-54860282D01*
X59452928Y-54803774D01*
X59452929Y-54803774D01*
X59452930Y-54803773D01*
X59452937Y-54803772D01*
X59702021Y-54710869D01*
X59935347Y-54583463D01*
X60148167Y-54424148D01*
X60336148Y-54236167D01*
X60495463Y-54023347D01*
X60622869Y-53790021D01*
X60693097Y-53601729D01*
X60735643Y-53544896D01*
X60802163Y-53520085D01*
X60855181Y-53527707D01*
X60925063Y-53553772D01*
X60925066Y-53553772D01*
X60925070Y-53553774D01*
X61075400Y-53586476D01*
X61184832Y-53610282D01*
X61450000Y-53629247D01*
X61715168Y-53610282D01*
X61974928Y-53553774D01*
X61974929Y-53553774D01*
X61974930Y-53553773D01*
X61974937Y-53553772D01*
X62224021Y-53460869D01*
X62457347Y-53333463D01*
X62670167Y-53174148D01*
X62858148Y-52986167D01*
X62964633Y-52843918D01*
X63021467Y-52801373D01*
X63092283Y-52796308D01*
X63154595Y-52830333D01*
X63188620Y-52892646D01*
X63191500Y-52919429D01*
X63191500Y-55606500D01*
X63171498Y-55674621D01*
X63117842Y-55721114D01*
X63065500Y-55732500D01*
X62976350Y-55732500D01*
X62915803Y-55739009D01*
X62915795Y-55739011D01*
X62778797Y-55790110D01*
X62778792Y-55790112D01*
X62661738Y-55877738D01*
X62574112Y-55994792D01*
X62574110Y-55994797D01*
X62523011Y-56131795D01*
X62523009Y-56131803D01*
X62516500Y-56192350D01*
X62516500Y-57747489D01*
X62496498Y-57815610D01*
X62442842Y-57862103D01*
X62390500Y-57873489D01*
X61451824Y-57873489D01*
X61429112Y-57871425D01*
X61419082Y-57869587D01*
X61356477Y-57873374D01*
X61352674Y-57873489D01*
X57871269Y-57873489D01*
X57803148Y-57853487D01*
X57756655Y-57799831D01*
X57746551Y-57729557D01*
X57755882Y-57696875D01*
X57766099Y-57673581D01*
X57791023Y-57616761D01*
X57847308Y-57394497D01*
X57866242Y-57166000D01*
X57847308Y-56937503D01*
X57791023Y-56715239D01*
X57703188Y-56514995D01*
X57698926Y-56505279D01*
X57698925Y-56505278D01*
X57698922Y-56505270D01*
X57573518Y-56313324D01*
X57418231Y-56144637D01*
X57237296Y-56003810D01*
X57237295Y-56003809D01*
X57144774Y-55953739D01*
X57035650Y-55894685D01*
X57035648Y-55894684D01*
X57035647Y-55894683D01*
X56818797Y-55820239D01*
X56818788Y-55820237D01*
X56773821Y-55812733D01*
X56592640Y-55782500D01*
X56363360Y-55782500D01*
X56198608Y-55809992D01*
X56128124Y-55801474D01*
X56088775Y-55774805D01*
X55782941Y-55468971D01*
X55442464Y-55128494D01*
X55439880Y-55125750D01*
X55398273Y-55078785D01*
X55398270Y-55078783D01*
X55398271Y-55078783D01*
X55346655Y-55043154D01*
X55343590Y-55040899D01*
X55325146Y-55026449D01*
X55294226Y-55002225D01*
X55294222Y-55002223D01*
X55284919Y-54998035D01*
X55265069Y-54986840D01*
X55256675Y-54981046D01*
X55233705Y-54972334D01*
X55198043Y-54958809D01*
X55194528Y-54957353D01*
X55137332Y-54931612D01*
X55137330Y-54931611D01*
X55137329Y-54931611D01*
X55127286Y-54929770D01*
X55105336Y-54923650D01*
X55095801Y-54920035D01*
X55095800Y-54920034D01*
X55095798Y-54920034D01*
X55095794Y-54920033D01*
X55043362Y-54913667D01*
X55033537Y-54912473D01*
X55029786Y-54911902D01*
X54988760Y-54904385D01*
X54968094Y-54900598D01*
X54968093Y-54900598D01*
X54905488Y-54904385D01*
X54901685Y-54904500D01*
X49624015Y-54904500D01*
X49555894Y-54884498D01*
X49534924Y-54867599D01*
X49476040Y-54808715D01*
X49330101Y-54718698D01*
X49167336Y-54664764D01*
X49167333Y-54664763D01*
X49066880Y-54654500D01*
X49066872Y-54654500D01*
X48863660Y-54654500D01*
X48795539Y-54634498D01*
X48774565Y-54617595D01*
X48148505Y-53991535D01*
X47520464Y-53363494D01*
X47517880Y-53360750D01*
X47476273Y-53313785D01*
X47476270Y-53313783D01*
X47476271Y-53313783D01*
X47424655Y-53278154D01*
X47421590Y-53275899D01*
X47403146Y-53261449D01*
X47372226Y-53237225D01*
X47372222Y-53237223D01*
X47362919Y-53233035D01*
X47343069Y-53221840D01*
X47334675Y-53216046D01*
X47311705Y-53207334D01*
X47276043Y-53193809D01*
X47272529Y-53192353D01*
X47264791Y-53188871D01*
X47210880Y-53142675D01*
X47190502Y-53074665D01*
X47190500Y-53073970D01*
X47190500Y-51816000D01*
X48664753Y-51816000D01*
X48683718Y-52081171D01*
X48740225Y-52340928D01*
X48740225Y-52340929D01*
X48833130Y-52590020D01*
X48874208Y-52665248D01*
X48960537Y-52823347D01*
X49082430Y-52986177D01*
X49119853Y-53036168D01*
X49119861Y-53036177D01*
X49307822Y-53224138D01*
X49307831Y-53224146D01*
X49307833Y-53224148D01*
X49520653Y-53383463D01*
X49753979Y-53510869D01*
X50003063Y-53603772D01*
X50003066Y-53603772D01*
X50003070Y-53603774D01*
X50120168Y-53629247D01*
X50262832Y-53660282D01*
X50528000Y-53679247D01*
X50793168Y-53660282D01*
X51052928Y-53603774D01*
X51052929Y-53603774D01*
X51052930Y-53603773D01*
X51052937Y-53603772D01*
X51302021Y-53510869D01*
X51535347Y-53383463D01*
X51748167Y-53224148D01*
X51936148Y-53036167D01*
X52095463Y-52823347D01*
X52222869Y-52590021D01*
X52315772Y-52340937D01*
X52372282Y-52081168D01*
X52391247Y-51816000D01*
X52372282Y-51550832D01*
X52315772Y-51291063D01*
X52222869Y-51041979D01*
X52095463Y-50808653D01*
X51936148Y-50595833D01*
X51936146Y-50595831D01*
X51936138Y-50595822D01*
X51748177Y-50407861D01*
X51748168Y-50407853D01*
X51722945Y-50388971D01*
X51535347Y-50248537D01*
X51381442Y-50164498D01*
X51302020Y-50121130D01*
X51052929Y-50028225D01*
X50793170Y-49971718D01*
X50793172Y-49971718D01*
X50528000Y-49952753D01*
X50262828Y-49971718D01*
X50003071Y-50028225D01*
X50003070Y-50028225D01*
X49753979Y-50121130D01*
X49520653Y-50248537D01*
X49307831Y-50407853D01*
X49307822Y-50407861D01*
X49119861Y-50595822D01*
X49119853Y-50595831D01*
X48960537Y-50808653D01*
X48833130Y-51041979D01*
X48740225Y-51291070D01*
X48740225Y-51291071D01*
X48683718Y-51550828D01*
X48664753Y-51816000D01*
X47190500Y-51816000D01*
X47190500Y-48390000D01*
X47456000Y-48390000D01*
X47456000Y-48734597D01*
X47462505Y-48795093D01*
X47513555Y-48931964D01*
X47513555Y-48931965D01*
X47601095Y-49048904D01*
X47718034Y-49136444D01*
X47854906Y-49187494D01*
X47915402Y-49193999D01*
X47915415Y-49194000D01*
X48260000Y-49194000D01*
X48260000Y-48390000D01*
X48768000Y-48390000D01*
X48768000Y-49194000D01*
X49112585Y-49194000D01*
X49112597Y-49193999D01*
X49173093Y-49187494D01*
X49309964Y-49136444D01*
X49309965Y-49136444D01*
X49426904Y-49048904D01*
X49514444Y-48931965D01*
X49514444Y-48931964D01*
X49565494Y-48795093D01*
X49571999Y-48734597D01*
X49572000Y-48734585D01*
X49572000Y-48390000D01*
X48768000Y-48390000D01*
X48260000Y-48390000D01*
X47456000Y-48390000D01*
X47190500Y-48390000D01*
X47190500Y-47882000D01*
X47456000Y-47882000D01*
X48260000Y-47882000D01*
X48260000Y-47078000D01*
X48768000Y-47078000D01*
X48768000Y-47882000D01*
X49572000Y-47882000D01*
X49572000Y-47537414D01*
X49571999Y-47537402D01*
X49565494Y-47476906D01*
X49514444Y-47340035D01*
X49514444Y-47340034D01*
X49426904Y-47223095D01*
X49309965Y-47135555D01*
X49173093Y-47084505D01*
X49112597Y-47078000D01*
X48768000Y-47078000D01*
X48260000Y-47078000D01*
X47915402Y-47078000D01*
X47854906Y-47084505D01*
X47718035Y-47135555D01*
X47718034Y-47135555D01*
X47601095Y-47223095D01*
X47513555Y-47340034D01*
X47513555Y-47340035D01*
X47462505Y-47476906D01*
X47456000Y-47537402D01*
X47456000Y-47882000D01*
X47190500Y-47882000D01*
X47190500Y-47267319D01*
X47190615Y-47263514D01*
X47194402Y-47200908D01*
X47183092Y-47139193D01*
X47182525Y-47135470D01*
X47174965Y-47073199D01*
X47174964Y-47073196D01*
X47171351Y-47063668D01*
X47165227Y-47041702D01*
X47163389Y-47031673D01*
X47163389Y-47031671D01*
X47137646Y-46974473D01*
X47136189Y-46970956D01*
X47113957Y-46912332D01*
X47113955Y-46912329D01*
X47113954Y-46912325D01*
X47108163Y-46903935D01*
X47096958Y-46884070D01*
X47092775Y-46874774D01*
X47054088Y-46825395D01*
X47051846Y-46822348D01*
X47016215Y-46770727D01*
X46969249Y-46729119D01*
X46966503Y-46726533D01*
X45799405Y-45559435D01*
X45765379Y-45497123D01*
X45762500Y-45470340D01*
X45762500Y-44737367D01*
X45762499Y-44737350D01*
X45755990Y-44676803D01*
X45755989Y-44676802D01*
X45755989Y-44676799D01*
X45714860Y-44566531D01*
X45709796Y-44495717D01*
X45743821Y-44433405D01*
X45806133Y-44399380D01*
X45832917Y-44396500D01*
X46266340Y-44396500D01*
X46334461Y-44416502D01*
X46355435Y-44433405D01*
X47418595Y-45496565D01*
X47452621Y-45558877D01*
X47455500Y-45585660D01*
X47455500Y-45934649D01*
X47462009Y-45995196D01*
X47462011Y-45995204D01*
X47513110Y-46132202D01*
X47513112Y-46132207D01*
X47600738Y-46249261D01*
X47717792Y-46336887D01*
X47717794Y-46336888D01*
X47717796Y-46336889D01*
X47766340Y-46354995D01*
X47854795Y-46387988D01*
X47854803Y-46387990D01*
X47915350Y-46394499D01*
X47915355Y-46394499D01*
X47915362Y-46394500D01*
X47915368Y-46394500D01*
X49112632Y-46394500D01*
X49112638Y-46394500D01*
X49112645Y-46394499D01*
X49112649Y-46394499D01*
X49173196Y-46387990D01*
X49173199Y-46387989D01*
X49173201Y-46387989D01*
X49310204Y-46336889D01*
X49427261Y-46249261D01*
X49466819Y-46196418D01*
X49514887Y-46132207D01*
X49514887Y-46132206D01*
X49514889Y-46132204D01*
X49565989Y-45995201D01*
X49566047Y-45994668D01*
X49572499Y-45934649D01*
X49572500Y-45934632D01*
X49572500Y-44737367D01*
X49572499Y-44737350D01*
X49565990Y-44676803D01*
X49565988Y-44676795D01*
X49514889Y-44539797D01*
X49514887Y-44539792D01*
X49427261Y-44422738D01*
X49310203Y-44335110D01*
X49304462Y-44332969D01*
X49247628Y-44290419D01*
X49222821Y-44223898D01*
X49222500Y-44214915D01*
X49222500Y-43457319D01*
X49222615Y-43453514D01*
X49226402Y-43390908D01*
X49215092Y-43329193D01*
X49214525Y-43325470D01*
X49206965Y-43263199D01*
X49206964Y-43263196D01*
X49203351Y-43253668D01*
X49197227Y-43231702D01*
X49195389Y-43221673D01*
X49195389Y-43221671D01*
X49169646Y-43164473D01*
X49168189Y-43160956D01*
X49145957Y-43102332D01*
X49145955Y-43102329D01*
X49145954Y-43102325D01*
X49140163Y-43093935D01*
X49128958Y-43074070D01*
X49124775Y-43064774D01*
X49086088Y-43015395D01*
X49083846Y-43012348D01*
X49048215Y-42960727D01*
X49001249Y-42919119D01*
X48998503Y-42916533D01*
X47882251Y-41800281D01*
X47848225Y-41737969D01*
X47853290Y-41667154D01*
X47895837Y-41610318D01*
X47931709Y-41591583D01*
X48063692Y-41547849D01*
X48199201Y-41464265D01*
X48267679Y-41445529D01*
X48335418Y-41466788D01*
G37*
G04 #@! TD.AperFunction*
G04 #@! TA.AperFunction,Conductor*
G36*
X47832441Y-56136127D02*
G01*
X47858944Y-56166713D01*
X47938715Y-56296040D01*
X47941928Y-56299253D01*
X47975956Y-56361561D01*
X47970895Y-56432377D01*
X47941938Y-56477442D01*
X47939112Y-56480267D01*
X47939109Y-56480271D01*
X47859534Y-56609283D01*
X47806748Y-56656761D01*
X47736673Y-56668164D01*
X47671557Y-56639871D01*
X47645055Y-56609287D01*
X47565285Y-56479960D01*
X47562070Y-56476745D01*
X47528043Y-56414438D01*
X47533104Y-56343622D01*
X47562072Y-56298546D01*
X47564891Y-56295726D01*
X47564892Y-56295725D01*
X47644465Y-56166717D01*
X47697250Y-56119238D01*
X47767325Y-56107835D01*
X47832441Y-56136127D01*
G37*
G04 #@! TD.AperFunction*
G04 #@! TA.AperFunction,Conductor*
G36*
X43643204Y-44416502D02*
G01*
X43689697Y-44470158D01*
X43699801Y-44540432D01*
X43693140Y-44566528D01*
X43652011Y-44676799D01*
X43652010Y-44676802D01*
X43652009Y-44676803D01*
X43645500Y-44737350D01*
X43645500Y-45934649D01*
X43652009Y-45995196D01*
X43652011Y-45995204D01*
X43703110Y-46132202D01*
X43703112Y-46132207D01*
X43790738Y-46249261D01*
X43907792Y-46336887D01*
X43907794Y-46336888D01*
X43907796Y-46336889D01*
X43956340Y-46354995D01*
X44044795Y-46387988D01*
X44044803Y-46387990D01*
X44105350Y-46394499D01*
X44105355Y-46394499D01*
X44105362Y-46394500D01*
X44578340Y-46394500D01*
X44646461Y-46414502D01*
X44667435Y-46431405D01*
X45098935Y-46862905D01*
X45132961Y-46925217D01*
X45127896Y-46996032D01*
X45085349Y-47052868D01*
X45018829Y-47077679D01*
X45009840Y-47078000D01*
X44958000Y-47078000D01*
X44958000Y-49194000D01*
X45302585Y-49194000D01*
X45302597Y-49193999D01*
X45363093Y-49187494D01*
X45499964Y-49136444D01*
X45499965Y-49136444D01*
X45571991Y-49082526D01*
X45638511Y-49057715D01*
X45707885Y-49072806D01*
X45758087Y-49123008D01*
X45773500Y-49183394D01*
X45773500Y-53013500D01*
X45753498Y-53081621D01*
X45699842Y-53128114D01*
X45647500Y-53139500D01*
X44535961Y-53139500D01*
X44467840Y-53119498D01*
X44421347Y-53065842D01*
X44414203Y-53028412D01*
X43501798Y-52116007D01*
X43518891Y-52109787D01*
X43665373Y-52013445D01*
X43785688Y-51885918D01*
X43860517Y-51756307D01*
X44769457Y-52665247D01*
X44899682Y-52480762D01*
X44899685Y-52480756D01*
X45026061Y-52236865D01*
X45118055Y-51978019D01*
X45118057Y-51978011D01*
X45173946Y-51709054D01*
X45173947Y-51709048D01*
X45192692Y-51435004D01*
X45192692Y-51434995D01*
X45173947Y-51160951D01*
X45173946Y-51160945D01*
X45118057Y-50891988D01*
X45118055Y-50891980D01*
X45026061Y-50633134D01*
X44899685Y-50389243D01*
X44899681Y-50389237D01*
X44769457Y-50204750D01*
X43858899Y-51115307D01*
X43833941Y-51057447D01*
X43729244Y-50916815D01*
X43594938Y-50804118D01*
X43499567Y-50756221D01*
X44409283Y-49846504D01*
X44340680Y-49790691D01*
X44105969Y-49647961D01*
X43854010Y-49538519D01*
X43589490Y-49464404D01*
X43317364Y-49427000D01*
X43042635Y-49427000D01*
X42770509Y-49464404D01*
X42505989Y-49538519D01*
X42254030Y-49647961D01*
X42019325Y-49790687D01*
X41950715Y-49846505D01*
X41950714Y-49846505D01*
X42858201Y-50753992D01*
X42841109Y-50760213D01*
X42694627Y-50856555D01*
X42574312Y-50984082D01*
X42499482Y-51113691D01*
X41590541Y-50204750D01*
X41460317Y-50389236D01*
X41333938Y-50633134D01*
X41241944Y-50891980D01*
X41241942Y-50891988D01*
X41186053Y-51160945D01*
X41186052Y-51160951D01*
X41167308Y-51434995D01*
X41167308Y-51435004D01*
X41186052Y-51709048D01*
X41186053Y-51709054D01*
X41241942Y-51978011D01*
X41241944Y-51978019D01*
X41333938Y-52236865D01*
X41460314Y-52480756D01*
X41460316Y-52480759D01*
X41590541Y-52665248D01*
X42501099Y-51754690D01*
X42526059Y-51812553D01*
X42630756Y-51953185D01*
X42765062Y-52065882D01*
X42860430Y-52113777D01*
X41944450Y-53029757D01*
X41933385Y-53076104D01*
X41882180Y-53125283D01*
X41824038Y-53139500D01*
X38699661Y-53139500D01*
X38631540Y-53119498D01*
X38610566Y-53102595D01*
X38391712Y-52883741D01*
X38357686Y-52821429D01*
X38362751Y-52750614D01*
X38388725Y-52708641D01*
X38391657Y-52705502D01*
X38550111Y-52481023D01*
X38676523Y-52237058D01*
X38768538Y-51978153D01*
X38824442Y-51709130D01*
X38826700Y-51676115D01*
X38843193Y-51435004D01*
X38843193Y-51434995D01*
X38824443Y-51160883D01*
X38824442Y-51160877D01*
X38824442Y-51160870D01*
X38768538Y-50891847D01*
X38676523Y-50632942D01*
X38550111Y-50388977D01*
X38391657Y-50164498D01*
X38204111Y-49963686D01*
X37990969Y-49790282D01*
X37756200Y-49647516D01*
X37756201Y-49647516D01*
X37756197Y-49647514D01*
X37504180Y-49538048D01*
X37504178Y-49538047D01*
X37504177Y-49538047D01*
X37314721Y-49484964D01*
X37239593Y-49463914D01*
X36967395Y-49426500D01*
X36967385Y-49426500D01*
X36692615Y-49426500D01*
X36692604Y-49426500D01*
X36420406Y-49463914D01*
X36155819Y-49538048D01*
X35903799Y-49647516D01*
X35697967Y-49772685D01*
X35629371Y-49790989D01*
X35561768Y-49769301D01*
X35516622Y-49714508D01*
X35506500Y-49665028D01*
X35506500Y-48732660D01*
X35526502Y-48664539D01*
X35543400Y-48643569D01*
X35796968Y-48390000D01*
X39836000Y-48390000D01*
X39836000Y-48734597D01*
X39842505Y-48795093D01*
X39893555Y-48931964D01*
X39893555Y-48931965D01*
X39981095Y-49048904D01*
X40098034Y-49136444D01*
X40234906Y-49187494D01*
X40295402Y-49193999D01*
X40295415Y-49194000D01*
X40640000Y-49194000D01*
X40640000Y-48390000D01*
X41148000Y-48390000D01*
X41148000Y-49194000D01*
X41492585Y-49194000D01*
X41492597Y-49193999D01*
X41553093Y-49187494D01*
X41689964Y-49136444D01*
X41689965Y-49136444D01*
X41806904Y-49048904D01*
X41894444Y-48931965D01*
X41894444Y-48931964D01*
X41945494Y-48795093D01*
X41951999Y-48734597D01*
X41952000Y-48734585D01*
X41952000Y-48390000D01*
X43646000Y-48390000D01*
X43646000Y-48734597D01*
X43652505Y-48795093D01*
X43703555Y-48931964D01*
X43703555Y-48931965D01*
X43791095Y-49048904D01*
X43908034Y-49136444D01*
X44044906Y-49187494D01*
X44105402Y-49193999D01*
X44105415Y-49194000D01*
X44450000Y-49194000D01*
X44450000Y-48390000D01*
X43646000Y-48390000D01*
X41952000Y-48390000D01*
X41148000Y-48390000D01*
X40640000Y-48390000D01*
X39836000Y-48390000D01*
X35796968Y-48390000D01*
X35941245Y-48245723D01*
X36003556Y-48211700D01*
X36074371Y-48216764D01*
X36080534Y-48219250D01*
X36155823Y-48251953D01*
X36420404Y-48326085D01*
X36497691Y-48336708D01*
X36692604Y-48363499D01*
X36692615Y-48363500D01*
X36967385Y-48363500D01*
X36967395Y-48363499D01*
X37096945Y-48345692D01*
X37239596Y-48326085D01*
X37504177Y-48251953D01*
X37756200Y-48142484D01*
X37990969Y-47999718D01*
X38135664Y-47882000D01*
X39836000Y-47882000D01*
X40640000Y-47882000D01*
X40640000Y-47078000D01*
X41148000Y-47078000D01*
X41148000Y-47882000D01*
X41952000Y-47882000D01*
X43646000Y-47882000D01*
X44450000Y-47882000D01*
X44450000Y-47078000D01*
X44105402Y-47078000D01*
X44044906Y-47084505D01*
X43908035Y-47135555D01*
X43908034Y-47135555D01*
X43791095Y-47223095D01*
X43703555Y-47340034D01*
X43703555Y-47340035D01*
X43652505Y-47476906D01*
X43646000Y-47537402D01*
X43646000Y-47882000D01*
X41952000Y-47882000D01*
X41952000Y-47537414D01*
X41951999Y-47537402D01*
X41945494Y-47476906D01*
X41894444Y-47340035D01*
X41894444Y-47340034D01*
X41806904Y-47223095D01*
X41689965Y-47135555D01*
X41553093Y-47084505D01*
X41492597Y-47078000D01*
X41148000Y-47078000D01*
X40640000Y-47078000D01*
X40295402Y-47078000D01*
X40234906Y-47084505D01*
X40098035Y-47135555D01*
X40098034Y-47135555D01*
X39981095Y-47223095D01*
X39893555Y-47340034D01*
X39893555Y-47340035D01*
X39842505Y-47476906D01*
X39836000Y-47537402D01*
X39836000Y-47882000D01*
X38135664Y-47882000D01*
X38204111Y-47826314D01*
X38391657Y-47625502D01*
X38550111Y-47401023D01*
X38676523Y-47157058D01*
X38768538Y-46898153D01*
X38824442Y-46629130D01*
X38840491Y-46394499D01*
X38843193Y-46355004D01*
X38843193Y-46354995D01*
X38831162Y-46179098D01*
X38846469Y-46109771D01*
X38896827Y-46059725D01*
X38956868Y-46044500D01*
X39772916Y-46044500D01*
X39841037Y-46064502D01*
X39887530Y-46118158D01*
X39890971Y-46126467D01*
X39893110Y-46132202D01*
X39893112Y-46132207D01*
X39980738Y-46249261D01*
X40097792Y-46336887D01*
X40097794Y-46336888D01*
X40097796Y-46336889D01*
X40146340Y-46354995D01*
X40234795Y-46387988D01*
X40234803Y-46387990D01*
X40295350Y-46394499D01*
X40295355Y-46394499D01*
X40295362Y-46394500D01*
X40295368Y-46394500D01*
X41492632Y-46394500D01*
X41492638Y-46394500D01*
X41492645Y-46394499D01*
X41492649Y-46394499D01*
X41553196Y-46387990D01*
X41553199Y-46387989D01*
X41553201Y-46387989D01*
X41690204Y-46336889D01*
X41807261Y-46249261D01*
X41846819Y-46196418D01*
X41894887Y-46132207D01*
X41894887Y-46132206D01*
X41894889Y-46132204D01*
X41945989Y-45995201D01*
X41946047Y-45994668D01*
X41952499Y-45934649D01*
X41952500Y-45934632D01*
X41952500Y-44737367D01*
X41952499Y-44737350D01*
X41945990Y-44676803D01*
X41945989Y-44676802D01*
X41945989Y-44676799D01*
X41904860Y-44566531D01*
X41899796Y-44495717D01*
X41933821Y-44433405D01*
X41996133Y-44399380D01*
X42022917Y-44396500D01*
X43575083Y-44396500D01*
X43643204Y-44416502D01*
G37*
G04 #@! TD.AperFunction*
M02*
