%TF.GenerationSoftware,KiCad,Pcbnew,7.0.10*%
%TF.CreationDate,2024-04-23T18:14:47+09:00*%
%TF.ProjectId,ramn,72616d6e-2e6b-4696-9361-645f70636258,rev?*%
%TF.SameCoordinates,Original*%
%TF.FileFunction,Drillmap*%
%TF.FilePolarity,Positive*%
%FSLAX45Y45*%
G04 Gerber Fmt 4.5, Leading zero omitted, Abs format (unit mm)*
G04 Created by KiCad (PCBNEW 7.0.10) date 2024-04-23 18:14:47*
%MOMM*%
%LPD*%
G01*
G04 APERTURE LIST*
%ADD10C,0.050000*%
%ADD11C,0.200000*%
%ADD12C,0.100000*%
%ADD13C,0.320000*%
G04 APERTURE END LIST*
D10*
X4381500Y-9715500D02*
X12306500Y-9715500D01*
X4064000Y-4635500D02*
X4064000Y-9398000D01*
X12624000Y-4623000D02*
X12624000Y-9398000D01*
X12306500Y-9715500D02*
G75*
G03*
X12624000Y-9398000I0J317500D01*
G01*
X12624000Y-4623000D02*
G75*
G03*
X12319000Y-4318000I-305000J0D01*
G01*
X4381500Y-4318000D02*
X12319000Y-4318000D01*
X4381500Y-4318000D02*
G75*
G03*
X4064000Y-4635500I0J-317500D01*
G01*
X4064000Y-9398000D02*
G75*
G03*
X4381500Y-9715500I317500J0D01*
G01*
D11*
D12*
X4485000Y-5615500D02*
X4565000Y-5695500D01*
X4565000Y-5615500D02*
X4485000Y-5695500D01*
X4485000Y-6115500D02*
X4565000Y-6195500D01*
X4565000Y-6115500D02*
X4485000Y-6195500D01*
D13*
X4605000Y-4699000D02*
G75*
G03*
X4285000Y-4699000I-160000J0D01*
G01*
X4285000Y-4699000D02*
G75*
G03*
X4605000Y-4699000I160000J0D01*
G01*
X4605000Y-9334500D02*
G75*
G03*
X4285000Y-9334500I-160000J0D01*
G01*
X4285000Y-9334500D02*
G75*
G03*
X4605000Y-9334500I160000J0D01*
G01*
X12415500Y-4699000D02*
G75*
G03*
X12095500Y-4699000I-160000J0D01*
G01*
X12095500Y-4699000D02*
G75*
G03*
X12415500Y-4699000I160000J0D01*
G01*
X12415500Y-9334500D02*
G75*
G03*
X12095500Y-9334500I-160000J0D01*
G01*
X12095500Y-9334500D02*
G75*
G03*
X12415500Y-9334500I160000J0D01*
G01*
D11*
X4322277Y-10029484D02*
X4322277Y-9829484D01*
X4322277Y-9829484D02*
X4369896Y-9829484D01*
X4369896Y-9829484D02*
X4398467Y-9839008D01*
X4398467Y-9839008D02*
X4417515Y-9858055D01*
X4417515Y-9858055D02*
X4427039Y-9877103D01*
X4427039Y-9877103D02*
X4436563Y-9915198D01*
X4436563Y-9915198D02*
X4436563Y-9943770D01*
X4436563Y-9943770D02*
X4427039Y-9981865D01*
X4427039Y-9981865D02*
X4417515Y-10000912D01*
X4417515Y-10000912D02*
X4398467Y-10019960D01*
X4398467Y-10019960D02*
X4369896Y-10029484D01*
X4369896Y-10029484D02*
X4322277Y-10029484D01*
X4522277Y-10029484D02*
X4522277Y-9896150D01*
X4522277Y-9934246D02*
X4531801Y-9915198D01*
X4531801Y-9915198D02*
X4541324Y-9905674D01*
X4541324Y-9905674D02*
X4560372Y-9896150D01*
X4560372Y-9896150D02*
X4579420Y-9896150D01*
X4646086Y-10029484D02*
X4646086Y-9896150D01*
X4646086Y-9829484D02*
X4636563Y-9839008D01*
X4636563Y-9839008D02*
X4646086Y-9848531D01*
X4646086Y-9848531D02*
X4655610Y-9839008D01*
X4655610Y-9839008D02*
X4646086Y-9829484D01*
X4646086Y-9829484D02*
X4646086Y-9848531D01*
X4769896Y-10029484D02*
X4750848Y-10019960D01*
X4750848Y-10019960D02*
X4741324Y-10000912D01*
X4741324Y-10000912D02*
X4741324Y-9829484D01*
X4874658Y-10029484D02*
X4855610Y-10019960D01*
X4855610Y-10019960D02*
X4846086Y-10000912D01*
X4846086Y-10000912D02*
X4846086Y-9829484D01*
X5103229Y-10029484D02*
X5103229Y-9829484D01*
X5103229Y-9829484D02*
X5169896Y-9972341D01*
X5169896Y-9972341D02*
X5236563Y-9829484D01*
X5236563Y-9829484D02*
X5236563Y-10029484D01*
X5417515Y-10029484D02*
X5417515Y-9924722D01*
X5417515Y-9924722D02*
X5407991Y-9905674D01*
X5407991Y-9905674D02*
X5388944Y-9896150D01*
X5388944Y-9896150D02*
X5350848Y-9896150D01*
X5350848Y-9896150D02*
X5331801Y-9905674D01*
X5417515Y-10019960D02*
X5398467Y-10029484D01*
X5398467Y-10029484D02*
X5350848Y-10029484D01*
X5350848Y-10029484D02*
X5331801Y-10019960D01*
X5331801Y-10019960D02*
X5322277Y-10000912D01*
X5322277Y-10000912D02*
X5322277Y-9981865D01*
X5322277Y-9981865D02*
X5331801Y-9962817D01*
X5331801Y-9962817D02*
X5350848Y-9953293D01*
X5350848Y-9953293D02*
X5398467Y-9953293D01*
X5398467Y-9953293D02*
X5417515Y-9943770D01*
X5512753Y-9896150D02*
X5512753Y-10096150D01*
X5512753Y-9905674D02*
X5531801Y-9896150D01*
X5531801Y-9896150D02*
X5569896Y-9896150D01*
X5569896Y-9896150D02*
X5588944Y-9905674D01*
X5588944Y-9905674D02*
X5598467Y-9915198D01*
X5598467Y-9915198D02*
X5607991Y-9934246D01*
X5607991Y-9934246D02*
X5607991Y-9991389D01*
X5607991Y-9991389D02*
X5598467Y-10010436D01*
X5598467Y-10010436D02*
X5588944Y-10019960D01*
X5588944Y-10019960D02*
X5569896Y-10029484D01*
X5569896Y-10029484D02*
X5531801Y-10029484D01*
X5531801Y-10029484D02*
X5512753Y-10019960D01*
X5693705Y-10010436D02*
X5703229Y-10019960D01*
X5703229Y-10019960D02*
X5693705Y-10029484D01*
X5693705Y-10029484D02*
X5684182Y-10019960D01*
X5684182Y-10019960D02*
X5693705Y-10010436D01*
X5693705Y-10010436D02*
X5693705Y-10029484D01*
X5693705Y-9905674D02*
X5703229Y-9915198D01*
X5703229Y-9915198D02*
X5693705Y-9924722D01*
X5693705Y-9924722D02*
X5684182Y-9915198D01*
X5684182Y-9915198D02*
X5693705Y-9905674D01*
X5693705Y-9905674D02*
X5693705Y-9924722D01*
D12*
X3981500Y-10318000D02*
X4061500Y-10398000D01*
X4061500Y-10318000D02*
X3981500Y-10398000D01*
D11*
X4360372Y-10249484D02*
X4379420Y-10249484D01*
X4379420Y-10249484D02*
X4398467Y-10259008D01*
X4398467Y-10259008D02*
X4407991Y-10268531D01*
X4407991Y-10268531D02*
X4417515Y-10287579D01*
X4417515Y-10287579D02*
X4427039Y-10325674D01*
X4427039Y-10325674D02*
X4427039Y-10373293D01*
X4427039Y-10373293D02*
X4417515Y-10411389D01*
X4417515Y-10411389D02*
X4407991Y-10430436D01*
X4407991Y-10430436D02*
X4398467Y-10439960D01*
X4398467Y-10439960D02*
X4379420Y-10449484D01*
X4379420Y-10449484D02*
X4360372Y-10449484D01*
X4360372Y-10449484D02*
X4341324Y-10439960D01*
X4341324Y-10439960D02*
X4331801Y-10430436D01*
X4331801Y-10430436D02*
X4322277Y-10411389D01*
X4322277Y-10411389D02*
X4312753Y-10373293D01*
X4312753Y-10373293D02*
X4312753Y-10325674D01*
X4312753Y-10325674D02*
X4322277Y-10287579D01*
X4322277Y-10287579D02*
X4331801Y-10268531D01*
X4331801Y-10268531D02*
X4341324Y-10259008D01*
X4341324Y-10259008D02*
X4360372Y-10249484D01*
X4512753Y-10430436D02*
X4522277Y-10439960D01*
X4522277Y-10439960D02*
X4512753Y-10449484D01*
X4512753Y-10449484D02*
X4503229Y-10439960D01*
X4503229Y-10439960D02*
X4512753Y-10430436D01*
X4512753Y-10430436D02*
X4512753Y-10449484D01*
X4636563Y-10335198D02*
X4617515Y-10325674D01*
X4617515Y-10325674D02*
X4607991Y-10316150D01*
X4607991Y-10316150D02*
X4598467Y-10297103D01*
X4598467Y-10297103D02*
X4598467Y-10287579D01*
X4598467Y-10287579D02*
X4607991Y-10268531D01*
X4607991Y-10268531D02*
X4617515Y-10259008D01*
X4617515Y-10259008D02*
X4636563Y-10249484D01*
X4636563Y-10249484D02*
X4674658Y-10249484D01*
X4674658Y-10249484D02*
X4693705Y-10259008D01*
X4693705Y-10259008D02*
X4703229Y-10268531D01*
X4703229Y-10268531D02*
X4712753Y-10287579D01*
X4712753Y-10287579D02*
X4712753Y-10297103D01*
X4712753Y-10297103D02*
X4703229Y-10316150D01*
X4703229Y-10316150D02*
X4693705Y-10325674D01*
X4693705Y-10325674D02*
X4674658Y-10335198D01*
X4674658Y-10335198D02*
X4636563Y-10335198D01*
X4636563Y-10335198D02*
X4617515Y-10344722D01*
X4617515Y-10344722D02*
X4607991Y-10354246D01*
X4607991Y-10354246D02*
X4598467Y-10373293D01*
X4598467Y-10373293D02*
X4598467Y-10411389D01*
X4598467Y-10411389D02*
X4607991Y-10430436D01*
X4607991Y-10430436D02*
X4617515Y-10439960D01*
X4617515Y-10439960D02*
X4636563Y-10449484D01*
X4636563Y-10449484D02*
X4674658Y-10449484D01*
X4674658Y-10449484D02*
X4693705Y-10439960D01*
X4693705Y-10439960D02*
X4703229Y-10430436D01*
X4703229Y-10430436D02*
X4712753Y-10411389D01*
X4712753Y-10411389D02*
X4712753Y-10373293D01*
X4712753Y-10373293D02*
X4703229Y-10354246D01*
X4703229Y-10354246D02*
X4693705Y-10344722D01*
X4693705Y-10344722D02*
X4674658Y-10335198D01*
X4836563Y-10249484D02*
X4855610Y-10249484D01*
X4855610Y-10249484D02*
X4874658Y-10259008D01*
X4874658Y-10259008D02*
X4884182Y-10268531D01*
X4884182Y-10268531D02*
X4893705Y-10287579D01*
X4893705Y-10287579D02*
X4903229Y-10325674D01*
X4903229Y-10325674D02*
X4903229Y-10373293D01*
X4903229Y-10373293D02*
X4893705Y-10411389D01*
X4893705Y-10411389D02*
X4884182Y-10430436D01*
X4884182Y-10430436D02*
X4874658Y-10439960D01*
X4874658Y-10439960D02*
X4855610Y-10449484D01*
X4855610Y-10449484D02*
X4836563Y-10449484D01*
X4836563Y-10449484D02*
X4817515Y-10439960D01*
X4817515Y-10439960D02*
X4807991Y-10430436D01*
X4807991Y-10430436D02*
X4798467Y-10411389D01*
X4798467Y-10411389D02*
X4788944Y-10373293D01*
X4788944Y-10373293D02*
X4788944Y-10325674D01*
X4788944Y-10325674D02*
X4798467Y-10287579D01*
X4798467Y-10287579D02*
X4807991Y-10268531D01*
X4807991Y-10268531D02*
X4817515Y-10259008D01*
X4817515Y-10259008D02*
X4836563Y-10249484D01*
X5027039Y-10249484D02*
X5046086Y-10249484D01*
X5046086Y-10249484D02*
X5065134Y-10259008D01*
X5065134Y-10259008D02*
X5074658Y-10268531D01*
X5074658Y-10268531D02*
X5084182Y-10287579D01*
X5084182Y-10287579D02*
X5093705Y-10325674D01*
X5093705Y-10325674D02*
X5093705Y-10373293D01*
X5093705Y-10373293D02*
X5084182Y-10411389D01*
X5084182Y-10411389D02*
X5074658Y-10430436D01*
X5074658Y-10430436D02*
X5065134Y-10439960D01*
X5065134Y-10439960D02*
X5046086Y-10449484D01*
X5046086Y-10449484D02*
X5027039Y-10449484D01*
X5027039Y-10449484D02*
X5007991Y-10439960D01*
X5007991Y-10439960D02*
X4998467Y-10430436D01*
X4998467Y-10430436D02*
X4988944Y-10411389D01*
X4988944Y-10411389D02*
X4979420Y-10373293D01*
X4979420Y-10373293D02*
X4979420Y-10325674D01*
X4979420Y-10325674D02*
X4988944Y-10287579D01*
X4988944Y-10287579D02*
X4998467Y-10268531D01*
X4998467Y-10268531D02*
X5007991Y-10259008D01*
X5007991Y-10259008D02*
X5027039Y-10249484D01*
X5179420Y-10449484D02*
X5179420Y-10316150D01*
X5179420Y-10335198D02*
X5188944Y-10325674D01*
X5188944Y-10325674D02*
X5207991Y-10316150D01*
X5207991Y-10316150D02*
X5236563Y-10316150D01*
X5236563Y-10316150D02*
X5255610Y-10325674D01*
X5255610Y-10325674D02*
X5265134Y-10344722D01*
X5265134Y-10344722D02*
X5265134Y-10449484D01*
X5265134Y-10344722D02*
X5274658Y-10325674D01*
X5274658Y-10325674D02*
X5293705Y-10316150D01*
X5293705Y-10316150D02*
X5322277Y-10316150D01*
X5322277Y-10316150D02*
X5341325Y-10325674D01*
X5341325Y-10325674D02*
X5350848Y-10344722D01*
X5350848Y-10344722D02*
X5350848Y-10449484D01*
X5446086Y-10449484D02*
X5446086Y-10316150D01*
X5446086Y-10335198D02*
X5455610Y-10325674D01*
X5455610Y-10325674D02*
X5474658Y-10316150D01*
X5474658Y-10316150D02*
X5503229Y-10316150D01*
X5503229Y-10316150D02*
X5522277Y-10325674D01*
X5522277Y-10325674D02*
X5531801Y-10344722D01*
X5531801Y-10344722D02*
X5531801Y-10449484D01*
X5531801Y-10344722D02*
X5541325Y-10325674D01*
X5541325Y-10325674D02*
X5560372Y-10316150D01*
X5560372Y-10316150D02*
X5588944Y-10316150D01*
X5588944Y-10316150D02*
X5607991Y-10325674D01*
X5607991Y-10325674D02*
X5617515Y-10344722D01*
X5617515Y-10344722D02*
X5617515Y-10449484D01*
X6007991Y-10239960D02*
X5836563Y-10497103D01*
X6265134Y-10249484D02*
X6284182Y-10249484D01*
X6284182Y-10249484D02*
X6303229Y-10259008D01*
X6303229Y-10259008D02*
X6312753Y-10268531D01*
X6312753Y-10268531D02*
X6322277Y-10287579D01*
X6322277Y-10287579D02*
X6331801Y-10325674D01*
X6331801Y-10325674D02*
X6331801Y-10373293D01*
X6331801Y-10373293D02*
X6322277Y-10411389D01*
X6322277Y-10411389D02*
X6312753Y-10430436D01*
X6312753Y-10430436D02*
X6303229Y-10439960D01*
X6303229Y-10439960D02*
X6284182Y-10449484D01*
X6284182Y-10449484D02*
X6265134Y-10449484D01*
X6265134Y-10449484D02*
X6246086Y-10439960D01*
X6246086Y-10439960D02*
X6236563Y-10430436D01*
X6236563Y-10430436D02*
X6227039Y-10411389D01*
X6227039Y-10411389D02*
X6217515Y-10373293D01*
X6217515Y-10373293D02*
X6217515Y-10325674D01*
X6217515Y-10325674D02*
X6227039Y-10287579D01*
X6227039Y-10287579D02*
X6236563Y-10268531D01*
X6236563Y-10268531D02*
X6246086Y-10259008D01*
X6246086Y-10259008D02*
X6265134Y-10249484D01*
X6417515Y-10430436D02*
X6427039Y-10439960D01*
X6427039Y-10439960D02*
X6417515Y-10449484D01*
X6417515Y-10449484D02*
X6407991Y-10439960D01*
X6407991Y-10439960D02*
X6417515Y-10430436D01*
X6417515Y-10430436D02*
X6417515Y-10449484D01*
X6550848Y-10249484D02*
X6569896Y-10249484D01*
X6569896Y-10249484D02*
X6588944Y-10259008D01*
X6588944Y-10259008D02*
X6598467Y-10268531D01*
X6598467Y-10268531D02*
X6607991Y-10287579D01*
X6607991Y-10287579D02*
X6617515Y-10325674D01*
X6617515Y-10325674D02*
X6617515Y-10373293D01*
X6617515Y-10373293D02*
X6607991Y-10411389D01*
X6607991Y-10411389D02*
X6598467Y-10430436D01*
X6598467Y-10430436D02*
X6588944Y-10439960D01*
X6588944Y-10439960D02*
X6569896Y-10449484D01*
X6569896Y-10449484D02*
X6550848Y-10449484D01*
X6550848Y-10449484D02*
X6531801Y-10439960D01*
X6531801Y-10439960D02*
X6522277Y-10430436D01*
X6522277Y-10430436D02*
X6512753Y-10411389D01*
X6512753Y-10411389D02*
X6503229Y-10373293D01*
X6503229Y-10373293D02*
X6503229Y-10325674D01*
X6503229Y-10325674D02*
X6512753Y-10287579D01*
X6512753Y-10287579D02*
X6522277Y-10268531D01*
X6522277Y-10268531D02*
X6531801Y-10259008D01*
X6531801Y-10259008D02*
X6550848Y-10249484D01*
X6684182Y-10249484D02*
X6807991Y-10249484D01*
X6807991Y-10249484D02*
X6741325Y-10325674D01*
X6741325Y-10325674D02*
X6769896Y-10325674D01*
X6769896Y-10325674D02*
X6788944Y-10335198D01*
X6788944Y-10335198D02*
X6798467Y-10344722D01*
X6798467Y-10344722D02*
X6807991Y-10363770D01*
X6807991Y-10363770D02*
X6807991Y-10411389D01*
X6807991Y-10411389D02*
X6798467Y-10430436D01*
X6798467Y-10430436D02*
X6788944Y-10439960D01*
X6788944Y-10439960D02*
X6769896Y-10449484D01*
X6769896Y-10449484D02*
X6712753Y-10449484D01*
X6712753Y-10449484D02*
X6693706Y-10439960D01*
X6693706Y-10439960D02*
X6684182Y-10430436D01*
X6998467Y-10449484D02*
X6884182Y-10449484D01*
X6941325Y-10449484D02*
X6941325Y-10249484D01*
X6941325Y-10249484D02*
X6922277Y-10278055D01*
X6922277Y-10278055D02*
X6903229Y-10297103D01*
X6903229Y-10297103D02*
X6884182Y-10306627D01*
X7179420Y-10249484D02*
X7084182Y-10249484D01*
X7084182Y-10249484D02*
X7074658Y-10344722D01*
X7074658Y-10344722D02*
X7084182Y-10335198D01*
X7084182Y-10335198D02*
X7103229Y-10325674D01*
X7103229Y-10325674D02*
X7150848Y-10325674D01*
X7150848Y-10325674D02*
X7169896Y-10335198D01*
X7169896Y-10335198D02*
X7179420Y-10344722D01*
X7179420Y-10344722D02*
X7188944Y-10363770D01*
X7188944Y-10363770D02*
X7188944Y-10411389D01*
X7188944Y-10411389D02*
X7179420Y-10430436D01*
X7179420Y-10430436D02*
X7169896Y-10439960D01*
X7169896Y-10439960D02*
X7150848Y-10449484D01*
X7150848Y-10449484D02*
X7103229Y-10449484D01*
X7103229Y-10449484D02*
X7084182Y-10439960D01*
X7084182Y-10439960D02*
X7074658Y-10430436D01*
X7265134Y-10249484D02*
X7265134Y-10287579D01*
X7341325Y-10249484D02*
X7341325Y-10287579D01*
X7636563Y-10525674D02*
X7627039Y-10516150D01*
X7627039Y-10516150D02*
X7607991Y-10487579D01*
X7607991Y-10487579D02*
X7598468Y-10468531D01*
X7598468Y-10468531D02*
X7588944Y-10439960D01*
X7588944Y-10439960D02*
X7579420Y-10392341D01*
X7579420Y-10392341D02*
X7579420Y-10354246D01*
X7579420Y-10354246D02*
X7588944Y-10306627D01*
X7588944Y-10306627D02*
X7598468Y-10278055D01*
X7598468Y-10278055D02*
X7607991Y-10259008D01*
X7607991Y-10259008D02*
X7627039Y-10230436D01*
X7627039Y-10230436D02*
X7636563Y-10220912D01*
X7703229Y-10268531D02*
X7712753Y-10259008D01*
X7712753Y-10259008D02*
X7731801Y-10249484D01*
X7731801Y-10249484D02*
X7779420Y-10249484D01*
X7779420Y-10249484D02*
X7798468Y-10259008D01*
X7798468Y-10259008D02*
X7807991Y-10268531D01*
X7807991Y-10268531D02*
X7817515Y-10287579D01*
X7817515Y-10287579D02*
X7817515Y-10306627D01*
X7817515Y-10306627D02*
X7807991Y-10335198D01*
X7807991Y-10335198D02*
X7693706Y-10449484D01*
X7693706Y-10449484D02*
X7817515Y-10449484D01*
X8055610Y-10449484D02*
X8055610Y-10249484D01*
X8141325Y-10449484D02*
X8141325Y-10344722D01*
X8141325Y-10344722D02*
X8131801Y-10325674D01*
X8131801Y-10325674D02*
X8112753Y-10316150D01*
X8112753Y-10316150D02*
X8084182Y-10316150D01*
X8084182Y-10316150D02*
X8065134Y-10325674D01*
X8065134Y-10325674D02*
X8055610Y-10335198D01*
X8265134Y-10449484D02*
X8246087Y-10439960D01*
X8246087Y-10439960D02*
X8236563Y-10430436D01*
X8236563Y-10430436D02*
X8227039Y-10411389D01*
X8227039Y-10411389D02*
X8227039Y-10354246D01*
X8227039Y-10354246D02*
X8236563Y-10335198D01*
X8236563Y-10335198D02*
X8246087Y-10325674D01*
X8246087Y-10325674D02*
X8265134Y-10316150D01*
X8265134Y-10316150D02*
X8293706Y-10316150D01*
X8293706Y-10316150D02*
X8312753Y-10325674D01*
X8312753Y-10325674D02*
X8322277Y-10335198D01*
X8322277Y-10335198D02*
X8331801Y-10354246D01*
X8331801Y-10354246D02*
X8331801Y-10411389D01*
X8331801Y-10411389D02*
X8322277Y-10430436D01*
X8322277Y-10430436D02*
X8312753Y-10439960D01*
X8312753Y-10439960D02*
X8293706Y-10449484D01*
X8293706Y-10449484D02*
X8265134Y-10449484D01*
X8446087Y-10449484D02*
X8427039Y-10439960D01*
X8427039Y-10439960D02*
X8417515Y-10420912D01*
X8417515Y-10420912D02*
X8417515Y-10249484D01*
X8598468Y-10439960D02*
X8579420Y-10449484D01*
X8579420Y-10449484D02*
X8541325Y-10449484D01*
X8541325Y-10449484D02*
X8522277Y-10439960D01*
X8522277Y-10439960D02*
X8512753Y-10420912D01*
X8512753Y-10420912D02*
X8512753Y-10344722D01*
X8512753Y-10344722D02*
X8522277Y-10325674D01*
X8522277Y-10325674D02*
X8541325Y-10316150D01*
X8541325Y-10316150D02*
X8579420Y-10316150D01*
X8579420Y-10316150D02*
X8598468Y-10325674D01*
X8598468Y-10325674D02*
X8607992Y-10344722D01*
X8607992Y-10344722D02*
X8607992Y-10363770D01*
X8607992Y-10363770D02*
X8512753Y-10382817D01*
X8684182Y-10439960D02*
X8703230Y-10449484D01*
X8703230Y-10449484D02*
X8741325Y-10449484D01*
X8741325Y-10449484D02*
X8760373Y-10439960D01*
X8760373Y-10439960D02*
X8769896Y-10420912D01*
X8769896Y-10420912D02*
X8769896Y-10411389D01*
X8769896Y-10411389D02*
X8760373Y-10392341D01*
X8760373Y-10392341D02*
X8741325Y-10382817D01*
X8741325Y-10382817D02*
X8712753Y-10382817D01*
X8712753Y-10382817D02*
X8693706Y-10373293D01*
X8693706Y-10373293D02*
X8684182Y-10354246D01*
X8684182Y-10354246D02*
X8684182Y-10344722D01*
X8684182Y-10344722D02*
X8693706Y-10325674D01*
X8693706Y-10325674D02*
X8712753Y-10316150D01*
X8712753Y-10316150D02*
X8741325Y-10316150D01*
X8741325Y-10316150D02*
X8760373Y-10325674D01*
X8836563Y-10525674D02*
X8846087Y-10516150D01*
X8846087Y-10516150D02*
X8865134Y-10487579D01*
X8865134Y-10487579D02*
X8874658Y-10468531D01*
X8874658Y-10468531D02*
X8884182Y-10439960D01*
X8884182Y-10439960D02*
X8893706Y-10392341D01*
X8893706Y-10392341D02*
X8893706Y-10354246D01*
X8893706Y-10354246D02*
X8884182Y-10306627D01*
X8884182Y-10306627D02*
X8874658Y-10278055D01*
X8874658Y-10278055D02*
X8865134Y-10259008D01*
X8865134Y-10259008D02*
X8846087Y-10230436D01*
X8846087Y-10230436D02*
X8836563Y-10220912D01*
X9198468Y-10525674D02*
X9188944Y-10516150D01*
X9188944Y-10516150D02*
X9169896Y-10487579D01*
X9169896Y-10487579D02*
X9160373Y-10468531D01*
X9160373Y-10468531D02*
X9150849Y-10439960D01*
X9150849Y-10439960D02*
X9141325Y-10392341D01*
X9141325Y-10392341D02*
X9141325Y-10354246D01*
X9141325Y-10354246D02*
X9150849Y-10306627D01*
X9150849Y-10306627D02*
X9160373Y-10278055D01*
X9160373Y-10278055D02*
X9169896Y-10259008D01*
X9169896Y-10259008D02*
X9188944Y-10230436D01*
X9188944Y-10230436D02*
X9198468Y-10220912D01*
X9274658Y-10316150D02*
X9274658Y-10449484D01*
X9274658Y-10335198D02*
X9284182Y-10325674D01*
X9284182Y-10325674D02*
X9303230Y-10316150D01*
X9303230Y-10316150D02*
X9331801Y-10316150D01*
X9331801Y-10316150D02*
X9350849Y-10325674D01*
X9350849Y-10325674D02*
X9360373Y-10344722D01*
X9360373Y-10344722D02*
X9360373Y-10449484D01*
X9484182Y-10449484D02*
X9465134Y-10439960D01*
X9465134Y-10439960D02*
X9455611Y-10430436D01*
X9455611Y-10430436D02*
X9446087Y-10411389D01*
X9446087Y-10411389D02*
X9446087Y-10354246D01*
X9446087Y-10354246D02*
X9455611Y-10335198D01*
X9455611Y-10335198D02*
X9465134Y-10325674D01*
X9465134Y-10325674D02*
X9484182Y-10316150D01*
X9484182Y-10316150D02*
X9512754Y-10316150D01*
X9512754Y-10316150D02*
X9531801Y-10325674D01*
X9531801Y-10325674D02*
X9541325Y-10335198D01*
X9541325Y-10335198D02*
X9550849Y-10354246D01*
X9550849Y-10354246D02*
X9550849Y-10411389D01*
X9550849Y-10411389D02*
X9541325Y-10430436D01*
X9541325Y-10430436D02*
X9531801Y-10439960D01*
X9531801Y-10439960D02*
X9512754Y-10449484D01*
X9512754Y-10449484D02*
X9484182Y-10449484D01*
X9607992Y-10316150D02*
X9684182Y-10316150D01*
X9636563Y-10249484D02*
X9636563Y-10420912D01*
X9636563Y-10420912D02*
X9646087Y-10439960D01*
X9646087Y-10439960D02*
X9665134Y-10449484D01*
X9665134Y-10449484D02*
X9684182Y-10449484D01*
X9903230Y-10316150D02*
X9903230Y-10516150D01*
X9903230Y-10325674D02*
X9922277Y-10316150D01*
X9922277Y-10316150D02*
X9960373Y-10316150D01*
X9960373Y-10316150D02*
X9979420Y-10325674D01*
X9979420Y-10325674D02*
X9988944Y-10335198D01*
X9988944Y-10335198D02*
X9998468Y-10354246D01*
X9998468Y-10354246D02*
X9998468Y-10411389D01*
X9998468Y-10411389D02*
X9988944Y-10430436D01*
X9988944Y-10430436D02*
X9979420Y-10439960D01*
X9979420Y-10439960D02*
X9960373Y-10449484D01*
X9960373Y-10449484D02*
X9922277Y-10449484D01*
X9922277Y-10449484D02*
X9903230Y-10439960D01*
X10112754Y-10449484D02*
X10093706Y-10439960D01*
X10093706Y-10439960D02*
X10084182Y-10420912D01*
X10084182Y-10420912D02*
X10084182Y-10249484D01*
X10274658Y-10449484D02*
X10274658Y-10344722D01*
X10274658Y-10344722D02*
X10265135Y-10325674D01*
X10265135Y-10325674D02*
X10246087Y-10316150D01*
X10246087Y-10316150D02*
X10207992Y-10316150D01*
X10207992Y-10316150D02*
X10188944Y-10325674D01*
X10274658Y-10439960D02*
X10255611Y-10449484D01*
X10255611Y-10449484D02*
X10207992Y-10449484D01*
X10207992Y-10449484D02*
X10188944Y-10439960D01*
X10188944Y-10439960D02*
X10179420Y-10420912D01*
X10179420Y-10420912D02*
X10179420Y-10401865D01*
X10179420Y-10401865D02*
X10188944Y-10382817D01*
X10188944Y-10382817D02*
X10207992Y-10373293D01*
X10207992Y-10373293D02*
X10255611Y-10373293D01*
X10255611Y-10373293D02*
X10274658Y-10363770D01*
X10341325Y-10316150D02*
X10417515Y-10316150D01*
X10369896Y-10249484D02*
X10369896Y-10420912D01*
X10369896Y-10420912D02*
X10379420Y-10439960D01*
X10379420Y-10439960D02*
X10398468Y-10449484D01*
X10398468Y-10449484D02*
X10417515Y-10449484D01*
X10560373Y-10439960D02*
X10541325Y-10449484D01*
X10541325Y-10449484D02*
X10503230Y-10449484D01*
X10503230Y-10449484D02*
X10484182Y-10439960D01*
X10484182Y-10439960D02*
X10474658Y-10420912D01*
X10474658Y-10420912D02*
X10474658Y-10344722D01*
X10474658Y-10344722D02*
X10484182Y-10325674D01*
X10484182Y-10325674D02*
X10503230Y-10316150D01*
X10503230Y-10316150D02*
X10541325Y-10316150D01*
X10541325Y-10316150D02*
X10560373Y-10325674D01*
X10560373Y-10325674D02*
X10569896Y-10344722D01*
X10569896Y-10344722D02*
X10569896Y-10363770D01*
X10569896Y-10363770D02*
X10474658Y-10382817D01*
X10741325Y-10449484D02*
X10741325Y-10249484D01*
X10741325Y-10439960D02*
X10722277Y-10449484D01*
X10722277Y-10449484D02*
X10684182Y-10449484D01*
X10684182Y-10449484D02*
X10665135Y-10439960D01*
X10665135Y-10439960D02*
X10655611Y-10430436D01*
X10655611Y-10430436D02*
X10646087Y-10411389D01*
X10646087Y-10411389D02*
X10646087Y-10354246D01*
X10646087Y-10354246D02*
X10655611Y-10335198D01*
X10655611Y-10335198D02*
X10665135Y-10325674D01*
X10665135Y-10325674D02*
X10684182Y-10316150D01*
X10684182Y-10316150D02*
X10722277Y-10316150D01*
X10722277Y-10316150D02*
X10741325Y-10325674D01*
X10817516Y-10525674D02*
X10827039Y-10516150D01*
X10827039Y-10516150D02*
X10846087Y-10487579D01*
X10846087Y-10487579D02*
X10855611Y-10468531D01*
X10855611Y-10468531D02*
X10865135Y-10439960D01*
X10865135Y-10439960D02*
X10874658Y-10392341D01*
X10874658Y-10392341D02*
X10874658Y-10354246D01*
X10874658Y-10354246D02*
X10865135Y-10306627D01*
X10865135Y-10306627D02*
X10855611Y-10278055D01*
X10855611Y-10278055D02*
X10846087Y-10259008D01*
X10846087Y-10259008D02*
X10827039Y-10230436D01*
X10827039Y-10230436D02*
X10817516Y-10220912D01*
X4061500Y-10622000D02*
G75*
G03*
X3861500Y-10622000I-100000J0D01*
G01*
X3861500Y-10622000D02*
G75*
G03*
X4061500Y-10622000I100000J0D01*
G01*
X4303229Y-10513484D02*
X4427039Y-10513484D01*
X4427039Y-10513484D02*
X4360372Y-10589674D01*
X4360372Y-10589674D02*
X4388944Y-10589674D01*
X4388944Y-10589674D02*
X4407991Y-10599198D01*
X4407991Y-10599198D02*
X4417515Y-10608722D01*
X4417515Y-10608722D02*
X4427039Y-10627770D01*
X4427039Y-10627770D02*
X4427039Y-10675389D01*
X4427039Y-10675389D02*
X4417515Y-10694436D01*
X4417515Y-10694436D02*
X4407991Y-10703960D01*
X4407991Y-10703960D02*
X4388944Y-10713484D01*
X4388944Y-10713484D02*
X4331801Y-10713484D01*
X4331801Y-10713484D02*
X4312753Y-10703960D01*
X4312753Y-10703960D02*
X4303229Y-10694436D01*
X4512753Y-10694436D02*
X4522277Y-10703960D01*
X4522277Y-10703960D02*
X4512753Y-10713484D01*
X4512753Y-10713484D02*
X4503229Y-10703960D01*
X4503229Y-10703960D02*
X4512753Y-10694436D01*
X4512753Y-10694436D02*
X4512753Y-10713484D01*
X4598467Y-10532531D02*
X4607991Y-10523008D01*
X4607991Y-10523008D02*
X4627039Y-10513484D01*
X4627039Y-10513484D02*
X4674658Y-10513484D01*
X4674658Y-10513484D02*
X4693705Y-10523008D01*
X4693705Y-10523008D02*
X4703229Y-10532531D01*
X4703229Y-10532531D02*
X4712753Y-10551579D01*
X4712753Y-10551579D02*
X4712753Y-10570627D01*
X4712753Y-10570627D02*
X4703229Y-10599198D01*
X4703229Y-10599198D02*
X4588944Y-10713484D01*
X4588944Y-10713484D02*
X4712753Y-10713484D01*
X4836563Y-10513484D02*
X4855610Y-10513484D01*
X4855610Y-10513484D02*
X4874658Y-10523008D01*
X4874658Y-10523008D02*
X4884182Y-10532531D01*
X4884182Y-10532531D02*
X4893705Y-10551579D01*
X4893705Y-10551579D02*
X4903229Y-10589674D01*
X4903229Y-10589674D02*
X4903229Y-10637293D01*
X4903229Y-10637293D02*
X4893705Y-10675389D01*
X4893705Y-10675389D02*
X4884182Y-10694436D01*
X4884182Y-10694436D02*
X4874658Y-10703960D01*
X4874658Y-10703960D02*
X4855610Y-10713484D01*
X4855610Y-10713484D02*
X4836563Y-10713484D01*
X4836563Y-10713484D02*
X4817515Y-10703960D01*
X4817515Y-10703960D02*
X4807991Y-10694436D01*
X4807991Y-10694436D02*
X4798467Y-10675389D01*
X4798467Y-10675389D02*
X4788944Y-10637293D01*
X4788944Y-10637293D02*
X4788944Y-10589674D01*
X4788944Y-10589674D02*
X4798467Y-10551579D01*
X4798467Y-10551579D02*
X4807991Y-10532531D01*
X4807991Y-10532531D02*
X4817515Y-10523008D01*
X4817515Y-10523008D02*
X4836563Y-10513484D01*
X5027039Y-10513484D02*
X5046086Y-10513484D01*
X5046086Y-10513484D02*
X5065134Y-10523008D01*
X5065134Y-10523008D02*
X5074658Y-10532531D01*
X5074658Y-10532531D02*
X5084182Y-10551579D01*
X5084182Y-10551579D02*
X5093705Y-10589674D01*
X5093705Y-10589674D02*
X5093705Y-10637293D01*
X5093705Y-10637293D02*
X5084182Y-10675389D01*
X5084182Y-10675389D02*
X5074658Y-10694436D01*
X5074658Y-10694436D02*
X5065134Y-10703960D01*
X5065134Y-10703960D02*
X5046086Y-10713484D01*
X5046086Y-10713484D02*
X5027039Y-10713484D01*
X5027039Y-10713484D02*
X5007991Y-10703960D01*
X5007991Y-10703960D02*
X4998467Y-10694436D01*
X4998467Y-10694436D02*
X4988944Y-10675389D01*
X4988944Y-10675389D02*
X4979420Y-10637293D01*
X4979420Y-10637293D02*
X4979420Y-10589674D01*
X4979420Y-10589674D02*
X4988944Y-10551579D01*
X4988944Y-10551579D02*
X4998467Y-10532531D01*
X4998467Y-10532531D02*
X5007991Y-10523008D01*
X5007991Y-10523008D02*
X5027039Y-10513484D01*
X5179420Y-10713484D02*
X5179420Y-10580150D01*
X5179420Y-10599198D02*
X5188944Y-10589674D01*
X5188944Y-10589674D02*
X5207991Y-10580150D01*
X5207991Y-10580150D02*
X5236563Y-10580150D01*
X5236563Y-10580150D02*
X5255610Y-10589674D01*
X5255610Y-10589674D02*
X5265134Y-10608722D01*
X5265134Y-10608722D02*
X5265134Y-10713484D01*
X5265134Y-10608722D02*
X5274658Y-10589674D01*
X5274658Y-10589674D02*
X5293705Y-10580150D01*
X5293705Y-10580150D02*
X5322277Y-10580150D01*
X5322277Y-10580150D02*
X5341325Y-10589674D01*
X5341325Y-10589674D02*
X5350848Y-10608722D01*
X5350848Y-10608722D02*
X5350848Y-10713484D01*
X5446086Y-10713484D02*
X5446086Y-10580150D01*
X5446086Y-10599198D02*
X5455610Y-10589674D01*
X5455610Y-10589674D02*
X5474658Y-10580150D01*
X5474658Y-10580150D02*
X5503229Y-10580150D01*
X5503229Y-10580150D02*
X5522277Y-10589674D01*
X5522277Y-10589674D02*
X5531801Y-10608722D01*
X5531801Y-10608722D02*
X5531801Y-10713484D01*
X5531801Y-10608722D02*
X5541325Y-10589674D01*
X5541325Y-10589674D02*
X5560372Y-10580150D01*
X5560372Y-10580150D02*
X5588944Y-10580150D01*
X5588944Y-10580150D02*
X5607991Y-10589674D01*
X5607991Y-10589674D02*
X5617515Y-10608722D01*
X5617515Y-10608722D02*
X5617515Y-10713484D01*
X6007991Y-10503960D02*
X5836563Y-10761103D01*
X6265134Y-10513484D02*
X6284182Y-10513484D01*
X6284182Y-10513484D02*
X6303229Y-10523008D01*
X6303229Y-10523008D02*
X6312753Y-10532531D01*
X6312753Y-10532531D02*
X6322277Y-10551579D01*
X6322277Y-10551579D02*
X6331801Y-10589674D01*
X6331801Y-10589674D02*
X6331801Y-10637293D01*
X6331801Y-10637293D02*
X6322277Y-10675389D01*
X6322277Y-10675389D02*
X6312753Y-10694436D01*
X6312753Y-10694436D02*
X6303229Y-10703960D01*
X6303229Y-10703960D02*
X6284182Y-10713484D01*
X6284182Y-10713484D02*
X6265134Y-10713484D01*
X6265134Y-10713484D02*
X6246086Y-10703960D01*
X6246086Y-10703960D02*
X6236563Y-10694436D01*
X6236563Y-10694436D02*
X6227039Y-10675389D01*
X6227039Y-10675389D02*
X6217515Y-10637293D01*
X6217515Y-10637293D02*
X6217515Y-10589674D01*
X6217515Y-10589674D02*
X6227039Y-10551579D01*
X6227039Y-10551579D02*
X6236563Y-10532531D01*
X6236563Y-10532531D02*
X6246086Y-10523008D01*
X6246086Y-10523008D02*
X6265134Y-10513484D01*
X6417515Y-10694436D02*
X6427039Y-10703960D01*
X6427039Y-10703960D02*
X6417515Y-10713484D01*
X6417515Y-10713484D02*
X6407991Y-10703960D01*
X6407991Y-10703960D02*
X6417515Y-10694436D01*
X6417515Y-10694436D02*
X6417515Y-10713484D01*
X6617515Y-10713484D02*
X6503229Y-10713484D01*
X6560372Y-10713484D02*
X6560372Y-10513484D01*
X6560372Y-10513484D02*
X6541325Y-10542055D01*
X6541325Y-10542055D02*
X6522277Y-10561103D01*
X6522277Y-10561103D02*
X6503229Y-10570627D01*
X6693706Y-10532531D02*
X6703229Y-10523008D01*
X6703229Y-10523008D02*
X6722277Y-10513484D01*
X6722277Y-10513484D02*
X6769896Y-10513484D01*
X6769896Y-10513484D02*
X6788944Y-10523008D01*
X6788944Y-10523008D02*
X6798467Y-10532531D01*
X6798467Y-10532531D02*
X6807991Y-10551579D01*
X6807991Y-10551579D02*
X6807991Y-10570627D01*
X6807991Y-10570627D02*
X6798467Y-10599198D01*
X6798467Y-10599198D02*
X6684182Y-10713484D01*
X6684182Y-10713484D02*
X6807991Y-10713484D01*
X6979420Y-10513484D02*
X6941325Y-10513484D01*
X6941325Y-10513484D02*
X6922277Y-10523008D01*
X6922277Y-10523008D02*
X6912753Y-10532531D01*
X6912753Y-10532531D02*
X6893706Y-10561103D01*
X6893706Y-10561103D02*
X6884182Y-10599198D01*
X6884182Y-10599198D02*
X6884182Y-10675389D01*
X6884182Y-10675389D02*
X6893706Y-10694436D01*
X6893706Y-10694436D02*
X6903229Y-10703960D01*
X6903229Y-10703960D02*
X6922277Y-10713484D01*
X6922277Y-10713484D02*
X6960372Y-10713484D01*
X6960372Y-10713484D02*
X6979420Y-10703960D01*
X6979420Y-10703960D02*
X6988944Y-10694436D01*
X6988944Y-10694436D02*
X6998467Y-10675389D01*
X6998467Y-10675389D02*
X6998467Y-10627770D01*
X6998467Y-10627770D02*
X6988944Y-10608722D01*
X6988944Y-10608722D02*
X6979420Y-10599198D01*
X6979420Y-10599198D02*
X6960372Y-10589674D01*
X6960372Y-10589674D02*
X6922277Y-10589674D01*
X6922277Y-10589674D02*
X6903229Y-10599198D01*
X6903229Y-10599198D02*
X6893706Y-10608722D01*
X6893706Y-10608722D02*
X6884182Y-10627770D01*
X7122277Y-10513484D02*
X7141325Y-10513484D01*
X7141325Y-10513484D02*
X7160372Y-10523008D01*
X7160372Y-10523008D02*
X7169896Y-10532531D01*
X7169896Y-10532531D02*
X7179420Y-10551579D01*
X7179420Y-10551579D02*
X7188944Y-10589674D01*
X7188944Y-10589674D02*
X7188944Y-10637293D01*
X7188944Y-10637293D02*
X7179420Y-10675389D01*
X7179420Y-10675389D02*
X7169896Y-10694436D01*
X7169896Y-10694436D02*
X7160372Y-10703960D01*
X7160372Y-10703960D02*
X7141325Y-10713484D01*
X7141325Y-10713484D02*
X7122277Y-10713484D01*
X7122277Y-10713484D02*
X7103229Y-10703960D01*
X7103229Y-10703960D02*
X7093706Y-10694436D01*
X7093706Y-10694436D02*
X7084182Y-10675389D01*
X7084182Y-10675389D02*
X7074658Y-10637293D01*
X7074658Y-10637293D02*
X7074658Y-10589674D01*
X7074658Y-10589674D02*
X7084182Y-10551579D01*
X7084182Y-10551579D02*
X7093706Y-10532531D01*
X7093706Y-10532531D02*
X7103229Y-10523008D01*
X7103229Y-10523008D02*
X7122277Y-10513484D01*
X7265134Y-10513484D02*
X7265134Y-10551579D01*
X7341325Y-10513484D02*
X7341325Y-10551579D01*
X7636563Y-10789674D02*
X7627039Y-10780150D01*
X7627039Y-10780150D02*
X7607991Y-10751579D01*
X7607991Y-10751579D02*
X7598468Y-10732531D01*
X7598468Y-10732531D02*
X7588944Y-10703960D01*
X7588944Y-10703960D02*
X7579420Y-10656341D01*
X7579420Y-10656341D02*
X7579420Y-10618246D01*
X7579420Y-10618246D02*
X7588944Y-10570627D01*
X7588944Y-10570627D02*
X7598468Y-10542055D01*
X7598468Y-10542055D02*
X7607991Y-10523008D01*
X7607991Y-10523008D02*
X7627039Y-10494436D01*
X7627039Y-10494436D02*
X7636563Y-10484912D01*
X7798468Y-10580150D02*
X7798468Y-10713484D01*
X7750848Y-10503960D02*
X7703229Y-10646817D01*
X7703229Y-10646817D02*
X7827039Y-10646817D01*
X8055610Y-10713484D02*
X8055610Y-10513484D01*
X8141325Y-10713484D02*
X8141325Y-10608722D01*
X8141325Y-10608722D02*
X8131801Y-10589674D01*
X8131801Y-10589674D02*
X8112753Y-10580150D01*
X8112753Y-10580150D02*
X8084182Y-10580150D01*
X8084182Y-10580150D02*
X8065134Y-10589674D01*
X8065134Y-10589674D02*
X8055610Y-10599198D01*
X8265134Y-10713484D02*
X8246087Y-10703960D01*
X8246087Y-10703960D02*
X8236563Y-10694436D01*
X8236563Y-10694436D02*
X8227039Y-10675389D01*
X8227039Y-10675389D02*
X8227039Y-10618246D01*
X8227039Y-10618246D02*
X8236563Y-10599198D01*
X8236563Y-10599198D02*
X8246087Y-10589674D01*
X8246087Y-10589674D02*
X8265134Y-10580150D01*
X8265134Y-10580150D02*
X8293706Y-10580150D01*
X8293706Y-10580150D02*
X8312753Y-10589674D01*
X8312753Y-10589674D02*
X8322277Y-10599198D01*
X8322277Y-10599198D02*
X8331801Y-10618246D01*
X8331801Y-10618246D02*
X8331801Y-10675389D01*
X8331801Y-10675389D02*
X8322277Y-10694436D01*
X8322277Y-10694436D02*
X8312753Y-10703960D01*
X8312753Y-10703960D02*
X8293706Y-10713484D01*
X8293706Y-10713484D02*
X8265134Y-10713484D01*
X8446087Y-10713484D02*
X8427039Y-10703960D01*
X8427039Y-10703960D02*
X8417515Y-10684912D01*
X8417515Y-10684912D02*
X8417515Y-10513484D01*
X8598468Y-10703960D02*
X8579420Y-10713484D01*
X8579420Y-10713484D02*
X8541325Y-10713484D01*
X8541325Y-10713484D02*
X8522277Y-10703960D01*
X8522277Y-10703960D02*
X8512753Y-10684912D01*
X8512753Y-10684912D02*
X8512753Y-10608722D01*
X8512753Y-10608722D02*
X8522277Y-10589674D01*
X8522277Y-10589674D02*
X8541325Y-10580150D01*
X8541325Y-10580150D02*
X8579420Y-10580150D01*
X8579420Y-10580150D02*
X8598468Y-10589674D01*
X8598468Y-10589674D02*
X8607992Y-10608722D01*
X8607992Y-10608722D02*
X8607992Y-10627770D01*
X8607992Y-10627770D02*
X8512753Y-10646817D01*
X8684182Y-10703960D02*
X8703230Y-10713484D01*
X8703230Y-10713484D02*
X8741325Y-10713484D01*
X8741325Y-10713484D02*
X8760373Y-10703960D01*
X8760373Y-10703960D02*
X8769896Y-10684912D01*
X8769896Y-10684912D02*
X8769896Y-10675389D01*
X8769896Y-10675389D02*
X8760373Y-10656341D01*
X8760373Y-10656341D02*
X8741325Y-10646817D01*
X8741325Y-10646817D02*
X8712753Y-10646817D01*
X8712753Y-10646817D02*
X8693706Y-10637293D01*
X8693706Y-10637293D02*
X8684182Y-10618246D01*
X8684182Y-10618246D02*
X8684182Y-10608722D01*
X8684182Y-10608722D02*
X8693706Y-10589674D01*
X8693706Y-10589674D02*
X8712753Y-10580150D01*
X8712753Y-10580150D02*
X8741325Y-10580150D01*
X8741325Y-10580150D02*
X8760373Y-10589674D01*
X8836563Y-10789674D02*
X8846087Y-10780150D01*
X8846087Y-10780150D02*
X8865134Y-10751579D01*
X8865134Y-10751579D02*
X8874658Y-10732531D01*
X8874658Y-10732531D02*
X8884182Y-10703960D01*
X8884182Y-10703960D02*
X8893706Y-10656341D01*
X8893706Y-10656341D02*
X8893706Y-10618246D01*
X8893706Y-10618246D02*
X8884182Y-10570627D01*
X8884182Y-10570627D02*
X8874658Y-10542055D01*
X8874658Y-10542055D02*
X8865134Y-10523008D01*
X8865134Y-10523008D02*
X8846087Y-10494436D01*
X8846087Y-10494436D02*
X8836563Y-10484912D01*
X9198468Y-10789674D02*
X9188944Y-10780150D01*
X9188944Y-10780150D02*
X9169896Y-10751579D01*
X9169896Y-10751579D02*
X9160373Y-10732531D01*
X9160373Y-10732531D02*
X9150849Y-10703960D01*
X9150849Y-10703960D02*
X9141325Y-10656341D01*
X9141325Y-10656341D02*
X9141325Y-10618246D01*
X9141325Y-10618246D02*
X9150849Y-10570627D01*
X9150849Y-10570627D02*
X9160373Y-10542055D01*
X9160373Y-10542055D02*
X9169896Y-10523008D01*
X9169896Y-10523008D02*
X9188944Y-10494436D01*
X9188944Y-10494436D02*
X9198468Y-10484912D01*
X9274658Y-10580150D02*
X9274658Y-10713484D01*
X9274658Y-10599198D02*
X9284182Y-10589674D01*
X9284182Y-10589674D02*
X9303230Y-10580150D01*
X9303230Y-10580150D02*
X9331801Y-10580150D01*
X9331801Y-10580150D02*
X9350849Y-10589674D01*
X9350849Y-10589674D02*
X9360373Y-10608722D01*
X9360373Y-10608722D02*
X9360373Y-10713484D01*
X9484182Y-10713484D02*
X9465134Y-10703960D01*
X9465134Y-10703960D02*
X9455611Y-10694436D01*
X9455611Y-10694436D02*
X9446087Y-10675389D01*
X9446087Y-10675389D02*
X9446087Y-10618246D01*
X9446087Y-10618246D02*
X9455611Y-10599198D01*
X9455611Y-10599198D02*
X9465134Y-10589674D01*
X9465134Y-10589674D02*
X9484182Y-10580150D01*
X9484182Y-10580150D02*
X9512754Y-10580150D01*
X9512754Y-10580150D02*
X9531801Y-10589674D01*
X9531801Y-10589674D02*
X9541325Y-10599198D01*
X9541325Y-10599198D02*
X9550849Y-10618246D01*
X9550849Y-10618246D02*
X9550849Y-10675389D01*
X9550849Y-10675389D02*
X9541325Y-10694436D01*
X9541325Y-10694436D02*
X9531801Y-10703960D01*
X9531801Y-10703960D02*
X9512754Y-10713484D01*
X9512754Y-10713484D02*
X9484182Y-10713484D01*
X9607992Y-10580150D02*
X9684182Y-10580150D01*
X9636563Y-10513484D02*
X9636563Y-10684912D01*
X9636563Y-10684912D02*
X9646087Y-10703960D01*
X9646087Y-10703960D02*
X9665134Y-10713484D01*
X9665134Y-10713484D02*
X9684182Y-10713484D01*
X9903230Y-10580150D02*
X9903230Y-10780150D01*
X9903230Y-10589674D02*
X9922277Y-10580150D01*
X9922277Y-10580150D02*
X9960373Y-10580150D01*
X9960373Y-10580150D02*
X9979420Y-10589674D01*
X9979420Y-10589674D02*
X9988944Y-10599198D01*
X9988944Y-10599198D02*
X9998468Y-10618246D01*
X9998468Y-10618246D02*
X9998468Y-10675389D01*
X9998468Y-10675389D02*
X9988944Y-10694436D01*
X9988944Y-10694436D02*
X9979420Y-10703960D01*
X9979420Y-10703960D02*
X9960373Y-10713484D01*
X9960373Y-10713484D02*
X9922277Y-10713484D01*
X9922277Y-10713484D02*
X9903230Y-10703960D01*
X10112754Y-10713484D02*
X10093706Y-10703960D01*
X10093706Y-10703960D02*
X10084182Y-10684912D01*
X10084182Y-10684912D02*
X10084182Y-10513484D01*
X10274658Y-10713484D02*
X10274658Y-10608722D01*
X10274658Y-10608722D02*
X10265135Y-10589674D01*
X10265135Y-10589674D02*
X10246087Y-10580150D01*
X10246087Y-10580150D02*
X10207992Y-10580150D01*
X10207992Y-10580150D02*
X10188944Y-10589674D01*
X10274658Y-10703960D02*
X10255611Y-10713484D01*
X10255611Y-10713484D02*
X10207992Y-10713484D01*
X10207992Y-10713484D02*
X10188944Y-10703960D01*
X10188944Y-10703960D02*
X10179420Y-10684912D01*
X10179420Y-10684912D02*
X10179420Y-10665865D01*
X10179420Y-10665865D02*
X10188944Y-10646817D01*
X10188944Y-10646817D02*
X10207992Y-10637293D01*
X10207992Y-10637293D02*
X10255611Y-10637293D01*
X10255611Y-10637293D02*
X10274658Y-10627770D01*
X10341325Y-10580150D02*
X10417515Y-10580150D01*
X10369896Y-10513484D02*
X10369896Y-10684912D01*
X10369896Y-10684912D02*
X10379420Y-10703960D01*
X10379420Y-10703960D02*
X10398468Y-10713484D01*
X10398468Y-10713484D02*
X10417515Y-10713484D01*
X10560373Y-10703960D02*
X10541325Y-10713484D01*
X10541325Y-10713484D02*
X10503230Y-10713484D01*
X10503230Y-10713484D02*
X10484182Y-10703960D01*
X10484182Y-10703960D02*
X10474658Y-10684912D01*
X10474658Y-10684912D02*
X10474658Y-10608722D01*
X10474658Y-10608722D02*
X10484182Y-10589674D01*
X10484182Y-10589674D02*
X10503230Y-10580150D01*
X10503230Y-10580150D02*
X10541325Y-10580150D01*
X10541325Y-10580150D02*
X10560373Y-10589674D01*
X10560373Y-10589674D02*
X10569896Y-10608722D01*
X10569896Y-10608722D02*
X10569896Y-10627770D01*
X10569896Y-10627770D02*
X10474658Y-10646817D01*
X10741325Y-10713484D02*
X10741325Y-10513484D01*
X10741325Y-10703960D02*
X10722277Y-10713484D01*
X10722277Y-10713484D02*
X10684182Y-10713484D01*
X10684182Y-10713484D02*
X10665135Y-10703960D01*
X10665135Y-10703960D02*
X10655611Y-10694436D01*
X10655611Y-10694436D02*
X10646087Y-10675389D01*
X10646087Y-10675389D02*
X10646087Y-10618246D01*
X10646087Y-10618246D02*
X10655611Y-10599198D01*
X10655611Y-10599198D02*
X10665135Y-10589674D01*
X10665135Y-10589674D02*
X10684182Y-10580150D01*
X10684182Y-10580150D02*
X10722277Y-10580150D01*
X10722277Y-10580150D02*
X10741325Y-10589674D01*
X10817516Y-10789674D02*
X10827039Y-10780150D01*
X10827039Y-10780150D02*
X10846087Y-10751579D01*
X10846087Y-10751579D02*
X10855611Y-10732531D01*
X10855611Y-10732531D02*
X10865135Y-10703960D01*
X10865135Y-10703960D02*
X10874658Y-10656341D01*
X10874658Y-10656341D02*
X10874658Y-10618246D01*
X10874658Y-10618246D02*
X10865135Y-10570627D01*
X10865135Y-10570627D02*
X10855611Y-10542055D01*
X10855611Y-10542055D02*
X10846087Y-10523008D01*
X10846087Y-10523008D02*
X10827039Y-10494436D01*
X10827039Y-10494436D02*
X10817516Y-10484912D01*
M02*
