G04 #@! TF.GenerationSoftware,KiCad,Pcbnew,7.0.10*
G04 #@! TF.CreationDate,2024-04-23T17:25:28+09:00*
G04 #@! TF.ProjectId,ramn,72616d6e-2e6b-4696-9361-645f70636258,rev?*
G04 #@! TF.SameCoordinates,Original*
G04 #@! TF.FileFunction,Soldermask,Top*
G04 #@! TF.FilePolarity,Negative*
%FSLAX46Y46*%
G04 Gerber Fmt 4.6, Leading zero omitted, Abs format (unit mm)*
G04 Created by KiCad (PCBNEW 7.0.10) date 2024-04-23 17:25:28*
%MOMM*%
%LPD*%
G01*
G04 APERTURE LIST*
G04 Aperture macros list*
%AMRoundRect*
0 Rectangle with rounded corners*
0 $1 Rounding radius*
0 $2 $3 $4 $5 $6 $7 $8 $9 X,Y pos of 4 corners*
0 Add a 4 corners polygon primitive as box body*
4,1,4,$2,$3,$4,$5,$6,$7,$8,$9,$2,$3,0*
0 Add four circle primitives for the rounded corners*
1,1,$1+$1,$2,$3*
1,1,$1+$1,$4,$5*
1,1,$1+$1,$6,$7*
1,1,$1+$1,$8,$9*
0 Add four rect primitives between the rounded corners*
20,1,$1+$1,$2,$3,$4,$5,0*
20,1,$1+$1,$4,$5,$6,$7,0*
20,1,$1+$1,$6,$7,$8,$9,0*
20,1,$1+$1,$8,$9,$2,$3,0*%
G04 Aperture macros list end*
%ADD10RoundRect,0.225000X0.250000X-0.225000X0.250000X0.225000X-0.250000X0.225000X-0.250000X-0.225000X0*%
%ADD11RoundRect,0.225000X-0.250000X0.225000X-0.250000X-0.225000X0.250000X-0.225000X0.250000X0.225000X0*%
%ADD12RoundRect,0.200000X-0.275000X0.200000X-0.275000X-0.200000X0.275000X-0.200000X0.275000X0.200000X0*%
%ADD13R,2.700000X1.500000*%
%ADD14C,3.000000*%
%ADD15RoundRect,0.250000X-0.325000X-0.650000X0.325000X-0.650000X0.325000X0.650000X-0.325000X0.650000X0*%
%ADD16RoundRect,0.150000X-0.150000X0.825000X-0.150000X-0.825000X0.150000X-0.825000X0.150000X0.825000X0*%
%ADD17R,0.510000X0.700000*%
%ADD18RoundRect,0.225000X0.225000X0.250000X-0.225000X0.250000X-0.225000X-0.250000X0.225000X-0.250000X0*%
%ADD19RoundRect,0.225000X-0.225000X-0.250000X0.225000X-0.250000X0.225000X0.250000X-0.225000X0.250000X0*%
%ADD20RoundRect,0.250000X-0.650000X0.325000X-0.650000X-0.325000X0.650000X-0.325000X0.650000X0.325000X0*%
%ADD21RoundRect,0.250000X0.325000X0.650000X-0.325000X0.650000X-0.325000X-0.650000X0.325000X-0.650000X0*%
%ADD22RoundRect,0.150000X-0.825000X-0.150000X0.825000X-0.150000X0.825000X0.150000X-0.825000X0.150000X0*%
%ADD23RoundRect,0.075000X0.662500X0.075000X-0.662500X0.075000X-0.662500X-0.075000X0.662500X-0.075000X0*%
%ADD24RoundRect,0.075000X0.075000X0.662500X-0.075000X0.662500X-0.075000X-0.662500X0.075000X-0.662500X0*%
%ADD25RoundRect,0.200000X0.275000X-0.200000X0.275000X0.200000X-0.275000X0.200000X-0.275000X-0.200000X0*%
%ADD26RoundRect,0.250000X0.650000X-0.325000X0.650000X0.325000X-0.650000X0.325000X-0.650000X-0.325000X0*%
%ADD27RoundRect,0.150000X0.150000X-0.825000X0.150000X0.825000X-0.150000X0.825000X-0.150000X-0.825000X0*%
%ADD28C,3.200000*%
%ADD29RoundRect,0.200000X-0.200000X-0.275000X0.200000X-0.275000X0.200000X0.275000X-0.200000X0.275000X0*%
%ADD30R,1.700000X1.700000*%
%ADD31O,1.700000X1.700000*%
%ADD32RoundRect,0.075000X-0.662500X-0.075000X0.662500X-0.075000X0.662500X0.075000X-0.662500X0.075000X0*%
%ADD33RoundRect,0.075000X-0.075000X-0.662500X0.075000X-0.662500X0.075000X0.662500X-0.075000X0.662500X0*%
%ADD34O,0.800000X0.800000*%
%ADD35R,1.300000X0.450000*%
%ADD36O,1.800000X1.150000*%
%ADD37O,2.000000X1.450000*%
%ADD38RoundRect,0.200000X0.200000X0.275000X-0.200000X0.275000X-0.200000X-0.275000X0.200000X-0.275000X0*%
%ADD39C,1.000000*%
%ADD40C,2.000000*%
%ADD41R,0.700000X0.510000*%
%ADD42RoundRect,0.150000X0.150000X0.200000X-0.150000X0.200000X-0.150000X-0.200000X0.150000X-0.200000X0*%
%ADD43RoundRect,0.150000X-0.200000X0.150000X-0.200000X-0.150000X0.200000X-0.150000X0.200000X0.150000X0*%
%ADD44RoundRect,0.150000X0.200000X-0.150000X0.200000X0.150000X-0.200000X0.150000X-0.200000X-0.150000X0*%
%ADD45R,2.000000X2.000000*%
G04 APERTURE END LIST*
D10*
X55245000Y-76340000D03*
X55245000Y-74790000D03*
D11*
X72009000Y-53920000D03*
X72009000Y-55470000D03*
D12*
X57150000Y-74740000D03*
X57150000Y-76390000D03*
D10*
X72009000Y-59110000D03*
X72009000Y-57560000D03*
D13*
X69215000Y-57465000D03*
X69215000Y-55565000D03*
D11*
X54356000Y-70406000D03*
X54356000Y-71956000D03*
D10*
X64770000Y-55385000D03*
X64770000Y-53835000D03*
D14*
X43815000Y-76835000D03*
D15*
X64565000Y-61595000D03*
X67515000Y-61595000D03*
D10*
X53800000Y-53275000D03*
X53800000Y-51725000D03*
D16*
X60071000Y-66486000D03*
X58801000Y-66486000D03*
X57531000Y-66486000D03*
X56261000Y-66486000D03*
X56261000Y-71436000D03*
X57531000Y-71436000D03*
X58801000Y-71436000D03*
X60071000Y-71436000D03*
D11*
X86360000Y-80505000D03*
X86360000Y-82055000D03*
X74930000Y-86855000D03*
X74930000Y-88405000D03*
D17*
X54803000Y-86885000D03*
X55753000Y-86885000D03*
X56703000Y-86885000D03*
X56703000Y-84565000D03*
X54803000Y-84565000D03*
D15*
X53770000Y-88900000D03*
X56720000Y-88900000D03*
X53770000Y-82550000D03*
X56720000Y-82550000D03*
D18*
X114440000Y-64135000D03*
X112890000Y-64135000D03*
X110630000Y-64135000D03*
X109080000Y-64135000D03*
D19*
X102730000Y-53467000D03*
X104280000Y-53467000D03*
D20*
X100330000Y-61390000D03*
X100330000Y-64340000D03*
D10*
X100330000Y-56020000D03*
X100330000Y-54470000D03*
X88798400Y-53302200D03*
X88798400Y-51752200D03*
D11*
X97155000Y-62725000D03*
X97155000Y-64275000D03*
D21*
X83390000Y-55880000D03*
X80440000Y-55880000D03*
X83390000Y-62230000D03*
X80440000Y-62230000D03*
D22*
X109285000Y-58420000D03*
X109285000Y-59690000D03*
X109285000Y-60960000D03*
X109285000Y-62230000D03*
X114235000Y-62230000D03*
X114235000Y-60960000D03*
X114235000Y-59690000D03*
X114235000Y-58420000D03*
D23*
X96872500Y-60535000D03*
X96872500Y-60035000D03*
X96872500Y-59535000D03*
X96872500Y-59035000D03*
X96872500Y-58535000D03*
X96872500Y-58035000D03*
X96872500Y-57535000D03*
X96872500Y-57035000D03*
X96872500Y-56535000D03*
X96872500Y-56035000D03*
X96872500Y-55535000D03*
X96872500Y-55035000D03*
D24*
X95460000Y-53622500D03*
X94960000Y-53622500D03*
X94460000Y-53622500D03*
X93960000Y-53622500D03*
X93460000Y-53622500D03*
X92960000Y-53622500D03*
X92460000Y-53622500D03*
X91960000Y-53622500D03*
X91460000Y-53622500D03*
X90960000Y-53622500D03*
X90460000Y-53622500D03*
X89960000Y-53622500D03*
D23*
X88547500Y-55035000D03*
X88547500Y-55535000D03*
X88547500Y-56035000D03*
X88547500Y-56535000D03*
X88547500Y-57035000D03*
X88547500Y-57535000D03*
X88547500Y-58035000D03*
X88547500Y-58535000D03*
X88547500Y-59035000D03*
X88547500Y-59535000D03*
X88547500Y-60035000D03*
X88547500Y-60535000D03*
D24*
X89960000Y-61947500D03*
X90460000Y-61947500D03*
X90960000Y-61947500D03*
X91460000Y-61947500D03*
X91960000Y-61947500D03*
X92460000Y-61947500D03*
X92960000Y-61947500D03*
X93460000Y-61947500D03*
X93960000Y-61947500D03*
X94460000Y-61947500D03*
X94960000Y-61947500D03*
X95460000Y-61947500D03*
D17*
X82230000Y-57895000D03*
X81280000Y-57895000D03*
X80330000Y-57895000D03*
X80330000Y-60215000D03*
X82230000Y-60215000D03*
D13*
X103505000Y-57465000D03*
X103505000Y-55565000D03*
D20*
X65405000Y-65217000D03*
X65405000Y-68167000D03*
D25*
X53340000Y-76390000D03*
X53340000Y-74740000D03*
D14*
X93980000Y-66675000D03*
D11*
X99695000Y-84061000D03*
X99695000Y-85611000D03*
X111125000Y-86855000D03*
X111125000Y-88405000D03*
D26*
X62865000Y-78945000D03*
X62865000Y-75995000D03*
D27*
X80405000Y-81535000D03*
X81675000Y-81535000D03*
X82945000Y-81535000D03*
X84215000Y-81535000D03*
X84215000Y-76585000D03*
X82945000Y-76585000D03*
X81675000Y-76585000D03*
X80405000Y-76585000D03*
D26*
X99060000Y-78945000D03*
X99060000Y-75995000D03*
D15*
X90092000Y-82550000D03*
X93042000Y-82550000D03*
D17*
X91125000Y-86885000D03*
X92075000Y-86885000D03*
X93025000Y-86885000D03*
X93025000Y-84565000D03*
X91125000Y-84565000D03*
D18*
X61100000Y-87249000D03*
X59550000Y-87249000D03*
X97447500Y-81407000D03*
X95897500Y-81407000D03*
D11*
X63500000Y-84061000D03*
X63500000Y-85611000D03*
D18*
X97295000Y-87249000D03*
X95745000Y-87249000D03*
D28*
X44450000Y-93345000D03*
D18*
X110757000Y-53086000D03*
X109207000Y-53086000D03*
D29*
X109157000Y-51308000D03*
X110807000Y-51308000D03*
D28*
X122555000Y-46990000D03*
D11*
X122555000Y-80505000D03*
X122555000Y-82055000D03*
D27*
X116840000Y-81535000D03*
X118110000Y-81535000D03*
X119380000Y-81535000D03*
X120650000Y-81535000D03*
X120650000Y-76585000D03*
X119380000Y-76585000D03*
X118110000Y-76585000D03*
X116840000Y-76585000D03*
D14*
X43815000Y-67945000D03*
D30*
X86360000Y-93218000D03*
D31*
X86360000Y-95758000D03*
X88900000Y-93218000D03*
X88900000Y-95758000D03*
X91440000Y-93218000D03*
X91440000Y-95758000D03*
X93980000Y-93218000D03*
X93980000Y-95758000D03*
X96520000Y-93218000D03*
X96520000Y-95758000D03*
X99060000Y-93218000D03*
X99060000Y-95758000D03*
X101600000Y-93218000D03*
X101600000Y-95758000D03*
X104140000Y-93218000D03*
X104140000Y-95758000D03*
X106680000Y-93218000D03*
X106680000Y-95758000D03*
X109220000Y-93218000D03*
X109220000Y-95758000D03*
X111760000Y-93218000D03*
X111760000Y-95758000D03*
X114300000Y-93218000D03*
X114300000Y-95758000D03*
X116840000Y-93218000D03*
X116840000Y-95758000D03*
D30*
X80645000Y-47117000D03*
D31*
X80645000Y-44577000D03*
X78105000Y-47117000D03*
X78105000Y-44577000D03*
X75565000Y-47117000D03*
X75565000Y-44577000D03*
X73025000Y-47117000D03*
X73025000Y-44577000D03*
X70485000Y-47117000D03*
X70485000Y-44577000D03*
X67945000Y-47117000D03*
X67945000Y-44577000D03*
X65405000Y-47117000D03*
X65405000Y-44577000D03*
X62865000Y-47117000D03*
X62865000Y-44577000D03*
X60325000Y-47117000D03*
X60325000Y-44577000D03*
X57785000Y-47117000D03*
X57785000Y-44577000D03*
X55245000Y-47117000D03*
X55245000Y-44577000D03*
X52705000Y-47117000D03*
X52705000Y-44577000D03*
X50165000Y-47117000D03*
X50165000Y-44577000D03*
D30*
X50165000Y-93218000D03*
D31*
X50165000Y-95758000D03*
X52705000Y-93218000D03*
X52705000Y-95758000D03*
X55245000Y-93218000D03*
X55245000Y-95758000D03*
X57785000Y-93218000D03*
X57785000Y-95758000D03*
X60325000Y-93218000D03*
X60325000Y-95758000D03*
X62865000Y-93218000D03*
X62865000Y-95758000D03*
X65405000Y-93218000D03*
X65405000Y-95758000D03*
X67945000Y-93218000D03*
X67945000Y-95758000D03*
X70485000Y-93218000D03*
X70485000Y-95758000D03*
X73025000Y-93218000D03*
X73025000Y-95758000D03*
X75565000Y-93218000D03*
X75565000Y-95758000D03*
X78105000Y-93218000D03*
X78105000Y-95758000D03*
X80645000Y-93218000D03*
X80645000Y-95758000D03*
D30*
X116840000Y-47117000D03*
D31*
X116840000Y-44577000D03*
X114300000Y-47117000D03*
X114300000Y-44577000D03*
X111760000Y-47117000D03*
X111760000Y-44577000D03*
X109220000Y-47117000D03*
X109220000Y-44577000D03*
X106680000Y-47117000D03*
X106680000Y-44577000D03*
X104140000Y-47117000D03*
X104140000Y-44577000D03*
X101600000Y-47117000D03*
X101600000Y-44577000D03*
X99060000Y-47117000D03*
X99060000Y-44577000D03*
X96520000Y-47117000D03*
X96520000Y-44577000D03*
X93980000Y-47117000D03*
X93980000Y-44577000D03*
X91440000Y-47117000D03*
X91440000Y-44577000D03*
X88900000Y-47117000D03*
X88900000Y-44577000D03*
X86360000Y-47117000D03*
X86360000Y-44577000D03*
D14*
X43815000Y-85725000D03*
D32*
X102517500Y-79165000D03*
X102517500Y-79665000D03*
X102517500Y-80165000D03*
X102517500Y-80665000D03*
X102517500Y-81165000D03*
X102517500Y-81665000D03*
X102517500Y-82165000D03*
X102517500Y-82665000D03*
X102517500Y-83165000D03*
X102517500Y-83665000D03*
X102517500Y-84165000D03*
X102517500Y-84665000D03*
D33*
X103930000Y-86077500D03*
X104430000Y-86077500D03*
X104930000Y-86077500D03*
X105430000Y-86077500D03*
X105930000Y-86077500D03*
X106430000Y-86077500D03*
X106930000Y-86077500D03*
X107430000Y-86077500D03*
X107930000Y-86077500D03*
X108430000Y-86077500D03*
X108930000Y-86077500D03*
X109430000Y-86077500D03*
D32*
X110842500Y-84665000D03*
X110842500Y-84165000D03*
X110842500Y-83665000D03*
X110842500Y-83165000D03*
X110842500Y-82665000D03*
X110842500Y-82165000D03*
X110842500Y-81665000D03*
X110842500Y-81165000D03*
X110842500Y-80665000D03*
X110842500Y-80165000D03*
X110842500Y-79665000D03*
X110842500Y-79165000D03*
D33*
X109430000Y-77752500D03*
X108930000Y-77752500D03*
X108430000Y-77752500D03*
X107930000Y-77752500D03*
X107430000Y-77752500D03*
X106930000Y-77752500D03*
X106430000Y-77752500D03*
X105930000Y-77752500D03*
X105430000Y-77752500D03*
X104930000Y-77752500D03*
X104430000Y-77752500D03*
X103930000Y-77752500D03*
D34*
X45250000Y-56555000D03*
X45250000Y-61555000D03*
D35*
X46350000Y-57755000D03*
X46350000Y-58405000D03*
X46350000Y-59055000D03*
X46350000Y-59705000D03*
X46350000Y-60355000D03*
D36*
X42500000Y-55180000D03*
D37*
X46300000Y-55330000D03*
X46300000Y-62780000D03*
D36*
X42500000Y-62930000D03*
D23*
X61947500Y-60535000D03*
X61947500Y-60035000D03*
X61947500Y-59535000D03*
X61947500Y-59035000D03*
X61947500Y-58535000D03*
X61947500Y-58035000D03*
X61947500Y-57535000D03*
X61947500Y-57035000D03*
X61947500Y-56535000D03*
X61947500Y-56035000D03*
X61947500Y-55535000D03*
X61947500Y-55035000D03*
D24*
X60535000Y-53622500D03*
X60035000Y-53622500D03*
X59535000Y-53622500D03*
X59035000Y-53622500D03*
X58535000Y-53622500D03*
X58035000Y-53622500D03*
X57535000Y-53622500D03*
X57035000Y-53622500D03*
X56535000Y-53622500D03*
X56035000Y-53622500D03*
X55535000Y-53622500D03*
X55035000Y-53622500D03*
D23*
X53622500Y-55035000D03*
X53622500Y-55535000D03*
X53622500Y-56035000D03*
X53622500Y-56535000D03*
X53622500Y-57035000D03*
X53622500Y-57535000D03*
X53622500Y-58035000D03*
X53622500Y-58535000D03*
X53622500Y-59035000D03*
X53622500Y-59535000D03*
X53622500Y-60035000D03*
X53622500Y-60535000D03*
D24*
X55035000Y-61947500D03*
X55535000Y-61947500D03*
X56035000Y-61947500D03*
X56535000Y-61947500D03*
X57035000Y-61947500D03*
X57535000Y-61947500D03*
X58035000Y-61947500D03*
X58535000Y-61947500D03*
X59035000Y-61947500D03*
X59535000Y-61947500D03*
X60035000Y-61947500D03*
X60535000Y-61947500D03*
D11*
X62230000Y-62725000D03*
X62230000Y-64275000D03*
D14*
X118745000Y-71755000D03*
D25*
X96393000Y-78930000D03*
X96393000Y-77280000D03*
D12*
X77470000Y-66485000D03*
X77470000Y-68135000D03*
D28*
X122555000Y-93345000D03*
D12*
X78105000Y-76010000D03*
X78105000Y-77660000D03*
D14*
X123825000Y-62865000D03*
D12*
X122301000Y-66485000D03*
X122301000Y-68135000D03*
D25*
X43815000Y-73215000D03*
X43815000Y-71565000D03*
D20*
X71755000Y-65217000D03*
X71755000Y-68167000D03*
D32*
X66322500Y-79165000D03*
X66322500Y-79665000D03*
X66322500Y-80165000D03*
X66322500Y-80665000D03*
X66322500Y-81165000D03*
X66322500Y-81665000D03*
X66322500Y-82165000D03*
X66322500Y-82665000D03*
X66322500Y-83165000D03*
X66322500Y-83665000D03*
X66322500Y-84165000D03*
X66322500Y-84665000D03*
D33*
X67735000Y-86077500D03*
X68235000Y-86077500D03*
X68735000Y-86077500D03*
X69235000Y-86077500D03*
X69735000Y-86077500D03*
X70235000Y-86077500D03*
X70735000Y-86077500D03*
X71235000Y-86077500D03*
X71735000Y-86077500D03*
X72235000Y-86077500D03*
X72735000Y-86077500D03*
X73235000Y-86077500D03*
D32*
X74647500Y-84665000D03*
X74647500Y-84165000D03*
X74647500Y-83665000D03*
X74647500Y-83165000D03*
X74647500Y-82665000D03*
X74647500Y-82165000D03*
X74647500Y-81665000D03*
X74647500Y-81165000D03*
X74647500Y-80665000D03*
X74647500Y-80165000D03*
X74647500Y-79665000D03*
X74647500Y-79165000D03*
D33*
X73235000Y-77752500D03*
X72735000Y-77752500D03*
X72235000Y-77752500D03*
X71735000Y-77752500D03*
X71235000Y-77752500D03*
X70735000Y-77752500D03*
X70235000Y-77752500D03*
X69735000Y-77752500D03*
X69235000Y-77752500D03*
X68735000Y-77752500D03*
X68235000Y-77752500D03*
X67735000Y-77752500D03*
D13*
X96520000Y-83378000D03*
X96520000Y-85278000D03*
D14*
X123825000Y-71755000D03*
X118745000Y-62865000D03*
X104140000Y-66675000D03*
X83820000Y-66675000D03*
D38*
X89725000Y-66675000D03*
X88075000Y-66675000D03*
D12*
X120396000Y-66485000D03*
X120396000Y-68135000D03*
D25*
X51816000Y-66103000D03*
X51816000Y-64453000D03*
D12*
X50292000Y-64453000D03*
X50292000Y-66103000D03*
D28*
X44450000Y-46990000D03*
D39*
X42545000Y-51435000D03*
D40*
X46990000Y-95504000D03*
X119888000Y-95504000D03*
D39*
X106680000Y-58420000D03*
D10*
X122555000Y-77610000D03*
X122555000Y-76060000D03*
D25*
X116840000Y-57340000D03*
X116840000Y-55690000D03*
D19*
X102730000Y-59436000D03*
X104280000Y-59436000D03*
D41*
X67420000Y-66233000D03*
X67420000Y-67183000D03*
X67420000Y-68133000D03*
X69740000Y-68133000D03*
X69740000Y-66233000D03*
D40*
X46990000Y-44958000D03*
D42*
X68007000Y-64643000D03*
X69407000Y-64643000D03*
D43*
X53086000Y-86425000D03*
X53086000Y-85025000D03*
D44*
X83820000Y-58355000D03*
X83820000Y-59755000D03*
D19*
X44691000Y-51435000D03*
X46241000Y-51435000D03*
D29*
X44641000Y-53086000D03*
X46291000Y-53086000D03*
D45*
X121614000Y-57404000D03*
X124714000Y-57404000D03*
D40*
X121614000Y-54904000D03*
X124714000Y-54904000D03*
X121614000Y-52404000D03*
X124714000Y-52404000D03*
D10*
X66040000Y-76975000D03*
X66040000Y-75425000D03*
D18*
X61100000Y-81407000D03*
X59550000Y-81407000D03*
D13*
X60325000Y-83378000D03*
X60325000Y-85278000D03*
D25*
X60071000Y-78930000D03*
X60071000Y-77280000D03*
D10*
X54356000Y-67516000D03*
X54356000Y-65966000D03*
D15*
X90092000Y-88900000D03*
X93042000Y-88900000D03*
D43*
X89535000Y-86425000D03*
X89535000Y-85025000D03*
D38*
X110807000Y-54864000D03*
X109157000Y-54864000D03*
D12*
X114935000Y-76010000D03*
X114935000Y-77660000D03*
D39*
X106680000Y-61595000D03*
D11*
X86360000Y-76060000D03*
X86360000Y-77610000D03*
D10*
X102235000Y-76975000D03*
X102235000Y-75425000D03*
X55700000Y-51800000D03*
X55700000Y-50250000D03*
D11*
X72500000Y-87800000D03*
X72500000Y-89350000D03*
D10*
X90678000Y-51917600D03*
X90678000Y-50367600D03*
D11*
X108700000Y-87825000D03*
X108700000Y-89375000D03*
M02*
