M48
; DRILL file {KiCad (5.1.4)-1} date 12/12/2019 19:33:24
; FORMAT={-:-/ absolute / inch / decimal}
; #@! TF.CreationDate,2019-12-12T19:33:24+09:00
; #@! TF.GenerationSoftware,Kicad,Pcbnew,(5.1.4)-1
; #@! TF.FileFunction,Plated,1,2,PTH
FMAT,2
INCH
T1C0.0157
T2C0.0217
T3C0.0335
T4C0.0394
T5C0.0433
T6C0.0591
%
G90
G05
T1
X1.65Y-2.1
X1.65Y-1.85
X1.65Y-3.675
X1.675Y-2.25
X1.675Y-2.325
X1.675Y-2.4
X1.75Y-1.75
X1.75Y-3.775
X1.795Y-3.1
X1.795Y-3.2
X1.8Y-3.45
X1.85Y-1.95
X1.85Y-3.3
X1.85Y-3.45
X1.85Y-3.675
X1.85Y-3.725
X1.85Y-3.775
X1.9Y-2.125
X1.9Y-2.175
X1.9Y-2.225
X1.9Y-2.425
X1.9Y-2.475
X1.9Y-2.525
X1.9Y-2.65
X1.9Y-2.725
X1.9Y-2.9
X1.9Y-3.0
X1.9Y-3.1
X1.9Y-3.2
X1.95Y-1.975
X1.975Y-2.125
X1.975Y-2.175
X1.975Y-2.225
X1.985Y-3.51
X1.985Y-3.55
X1.985Y-3.595
X1.99Y-2.475
X1.99Y-2.525
X1.9984Y-2.025
X2.0Y-3.45
X2.0126Y-2.7124
X2.04Y-2.455
X2.04Y-2.525
X2.05Y-2.675
X2.05Y-3.4
X2.05Y-3.5
X2.05Y-3.55
X2.055Y-2.77
X2.0784Y-2.4684
X2.0875Y-2.6375
X2.117Y-2.5003
X2.125Y-3.725
X2.15Y-2.06
X2.16Y-2.02
X2.1678Y-2.2822
X2.2Y-2.525
X2.2429Y-2.3704
X2.25Y-3.425
X2.2503Y-2.525
X2.265Y-2.3
X2.285Y-2.895
X2.2944Y-2.1874
X2.295Y-3.055
X2.3Y-2.2277
X2.3Y-2.5
X2.32Y-2.38
X2.335Y-2.345
X2.335Y-2.555
X2.375Y-2.2
X2.375Y-2.275
X2.41Y-2.6
X2.41Y-2.64
X2.45Y-2.755
X2.46Y-2.095
X2.475Y-3.175
X2.51Y-2.75
X2.52Y-2.51
X2.54Y-3.16
X2.542Y-3.267
X2.55Y-2.35
X2.56Y-2.51
X2.58Y-3.45
X2.595Y-2.2625
X2.6Y-2.3235
X2.61Y-3.41
X2.62Y-2.12
X2.62Y-2.16
X2.6256Y-2.2962
X2.67Y-2.12
X2.67Y-3.18
X2.675Y-3.225
X2.68Y-3.32
X2.7Y-2.03
X2.7Y-2.7
X2.7Y-2.93
X2.72Y-3.12
X2.73Y-3.32
X2.76Y-3.12
X2.77Y-2.425
X2.775Y-1.925
X2.78Y-3.32
X2.8Y-3.0
X2.83Y-3.16
X2.83Y-3.21
X2.84Y-2.425
X2.8439Y-2.9966
X2.87Y-3.48
X2.875Y-3.175
X2.8821Y-2.9972
X2.9Y-2.1
X2.9Y-2.15
X2.9Y-2.25
X2.92Y-3.02
X2.93Y-3.6055
X2.95Y-2.1
X2.95Y-2.15
X2.95Y-2.65
X2.95Y-2.725
X2.96Y-3.37
X2.9805Y-3.6055
X3.0Y-2.375
X3.0192Y-2.4692
X3.025Y-1.8
X3.03Y-3.2
X3.0567Y-2.4317
X3.075Y-1.925
X3.075Y-1.975
X3.08Y-3.56
X3.0942Y-2.3942
X3.1091Y-2.2793
X3.125Y-1.925
X3.125Y-1.975
X3.125Y-2.55
X3.175Y-3.1
X3.1825Y-2.935
X3.22Y-3.38
X3.225Y-1.925
X3.225Y-1.975
X3.225Y-2.55
X3.25Y-3.125
X3.28Y-3.36
X3.31Y-3.67
X3.3175Y-1.73
X3.325Y-1.925
X3.33Y-2.935
X3.33Y-3.525
X3.345Y-3.475
X3.35Y-3.585
X3.375Y-2.55
X3.375Y-2.725
X3.375Y-3.325
X3.3871Y-2.3239
X3.42Y-2.2775
X3.4201Y-2.1953
X3.425Y-2.35
X3.475Y-3.1
X3.475Y-3.475
X3.5Y-2.55
X3.54Y-2.225
X3.55Y-2.005
X3.55Y-2.325
X3.55Y-3.725
X3.6Y-2.175
X3.6Y-2.95
X3.6Y-3.0
X3.615Y-2.365
X3.625Y-2.5
X3.625Y-2.55
X3.625Y-2.725
X3.625Y-3.05
X3.65Y-2.175
X3.65Y-2.225
X3.65Y-2.335
X3.6742Y-2.5053
X3.675Y-3.425
X3.6778Y-2.379
X3.7Y-2.175
X3.7Y-3.165
X3.75Y-1.8
X3.75Y-2.175
X3.75Y-2.26
X3.755Y-2.33
X3.8Y-2.6
X3.8Y-2.98
X3.85Y-2.12
X3.87Y-3.165
X3.8825Y-2.3525
X3.9Y-2.225
X3.9Y-2.725
X3.967Y-3.267
X3.97Y-3.48
X3.975Y-2.615
X3.985Y-2.475
X3.99Y-2.095
X4.01Y-3.44
X4.04Y-3.39
X4.1Y-1.955
X4.1Y-3.2
X4.1Y-3.32
X4.13Y-3.23
X4.15Y-2.4762
X4.15Y-3.32
X4.1722Y-3.121
X4.18Y-3.16
X4.1958Y-2.5042
X4.2Y-2.1
X4.2Y-2.15
X4.2Y-2.2
X4.2Y-2.6
X4.2Y-3.32
X4.21Y-3.58
X4.2376Y-3.0
X4.25Y-3.22
X4.275Y-3.0
X4.3Y-3.175
X4.3Y-3.22
X4.3Y-3.26
X4.3Y-3.475
X4.325Y-3.0
X4.35Y-1.925
X4.36Y-3.0234
X4.365Y-2.915
X4.395Y-2.435
X4.4Y-2.6
X4.4Y-2.65
X4.4Y-3.37
X4.4Y-3.61
X4.425Y-2.25
X4.43Y-2.97
X4.44Y-3.17
X4.45Y-1.805
X4.48Y-3.21
X4.495Y-3.61
X4.5Y-1.925
X4.505Y-2.25
X4.55Y-1.925
X4.56Y-2.3
X4.6Y-2.625
X4.6Y-2.675
X4.6Y-3.075
X4.625Y-3.4
X4.625Y-3.44
X4.6525Y-2.38
X4.675Y-3.1
X4.69Y-3.38
X4.7Y-3.675
X4.74Y-1.75
X4.74Y-1.8
X4.75Y-3.1266
X4.765Y-2.93
X4.775Y-3.775
X4.81Y-1.75
X4.8161Y-3.1139
X4.9Y-3.3
X4.925Y-1.825
X4.925Y-2.075
X4.925Y-2.15
X4.925Y-2.6
X4.925Y-2.7
X4.925Y-3.575
T4
X3.4Y-1.755
X3.4Y-1.855
X3.5Y-1.755
X3.5Y-1.855
X3.6Y-1.755
X3.6Y-1.855
X3.7Y-1.755
X3.7Y-1.855
X3.8Y-1.755
X3.8Y-1.855
X3.9Y-1.755
X3.9Y-1.855
X4.0Y-1.755
X4.0Y-1.855
X4.1Y-1.755
X4.1Y-1.855
X4.2Y-1.755
X4.2Y-1.855
X4.3Y-1.755
X4.3Y-1.855
X4.4Y-1.755
X4.4Y-1.855
X4.5Y-1.755
X4.5Y-1.855
X4.6Y-1.755
X4.6Y-1.855
X1.975Y-1.755
X1.975Y-1.855
X2.075Y-1.755
X2.075Y-1.855
X2.175Y-1.755
X2.175Y-1.855
X2.275Y-1.755
X2.275Y-1.855
X2.375Y-1.755
X2.375Y-1.855
X2.475Y-1.755
X2.475Y-1.855
X2.575Y-1.755
X2.575Y-1.855
X2.675Y-1.755
X2.675Y-1.855
X2.775Y-1.755
X2.775Y-1.855
X2.875Y-1.755
X2.875Y-1.855
X2.975Y-1.755
X2.975Y-1.855
X3.075Y-1.755
X3.075Y-1.855
X3.175Y-1.755
X3.175Y-1.855
X3.4Y-3.67
X3.4Y-3.77
X3.5Y-3.67
X3.5Y-3.77
X3.6Y-3.67
X3.6Y-3.77
X3.7Y-3.67
X3.7Y-3.77
X3.8Y-3.67
X3.8Y-3.77
X3.9Y-3.67
X3.9Y-3.77
X4.0Y-3.67
X4.0Y-3.77
X4.1Y-3.67
X4.1Y-3.77
X4.2Y-3.67
X4.2Y-3.77
X4.3Y-3.67
X4.3Y-3.77
X4.4Y-3.67
X4.4Y-3.77
X4.5Y-3.67
X4.5Y-3.77
X4.6Y-3.67
X4.6Y-3.77
X1.975Y-3.67
X1.975Y-3.77
X2.075Y-3.67
X2.075Y-3.77
X2.175Y-3.67
X2.175Y-3.77
X2.275Y-3.67
X2.275Y-3.77
X2.375Y-3.67
X2.375Y-3.77
X2.475Y-3.67
X2.475Y-3.77
X2.575Y-3.67
X2.575Y-3.77
X2.675Y-3.67
X2.675Y-3.77
X2.775Y-3.67
X2.775Y-3.77
X2.875Y-3.67
X2.875Y-3.77
X2.975Y-3.67
X2.975Y-3.77
X3.075Y-3.67
X3.075Y-3.77
X3.175Y-3.67
X3.175Y-3.77
T5
X4.825Y-2.075
X4.825Y-2.175
X4.825Y-2.275
T6
X4.675Y-2.825
X1.725Y-2.675
X3.3Y-2.625
X1.725Y-3.025
X1.725Y-3.375
X4.875Y-2.825
X3.7Y-2.625
X4.675Y-2.475
X4.875Y-2.475
X4.1Y-2.625
T2
G00X1.686Y-2.1724
M15
G01X1.6604Y-2.1724
M16
G05
G00X1.686Y-2.4776
M15
G01X1.6604Y-2.4776
M16
G05
T3
G00X1.8337Y-2.1783
M15
G01X1.812Y-2.1783
M16
G05
G00X1.8337Y-2.4717
M15
G01X1.812Y-2.4717
M16
G05
T0
M30
