%FSLAX45Y45*%
G04 Gerber Fmt 4.5, Leading zero omitted, Abs format (unit mm)*
G04 Created by KiCad (PCBNEW (5.1.4)-1) date 2019-12-12 19:33:22*
%MOMM*%
%LPD*%
G04 APERTURE LIST*
%ADD10C,0.050000*%
%ADD11C,0.200000*%
%ADD12C,0.300000*%
G04 APERTURE END LIST*
D10*
X12319000Y-4318000D02*
G75*
G02X12624000Y-4623000I0J-305000D01*
G01*
X4381500Y-9715500D02*
G75*
G02X4064000Y-9398000I0J317500D01*
G01*
X4064000Y-4635500D02*
G75*
G02X4381500Y-4318000I317500J0D01*
G01*
X12624000Y-9398000D02*
G75*
G02X12306500Y-9715500I-317500J0D01*
G01*
X12624000Y-4623000D02*
X12624000Y-9398000D01*
X4064000Y-4635500D02*
X4064000Y-9398000D01*
X4381500Y-9715500D02*
X12306500Y-9715500D01*
X4381500Y-4318000D02*
X12319000Y-4318000D01*
D11*
X4171000Y-5314000D02*
X4211000Y-5354000D01*
X4211000Y-5314000D02*
X4171000Y-5354000D01*
X4171000Y-4679000D02*
X4211000Y-4719000D01*
X4211000Y-4679000D02*
X4171000Y-4719000D01*
X4171000Y-9314500D02*
X4211000Y-9354500D01*
X4211000Y-9314500D02*
X4171000Y-9354500D01*
X4234500Y-5695000D02*
X4274500Y-5735000D01*
X4274500Y-5695000D02*
X4234500Y-5735000D01*
X4234500Y-5885500D02*
X4274500Y-5925500D01*
X4274500Y-5885500D02*
X4234500Y-5925500D01*
X4234500Y-6076000D02*
X4274500Y-6116000D01*
X4274500Y-6076000D02*
X4234500Y-6116000D01*
X4425000Y-4425000D02*
X4465000Y-4465000D01*
X4465000Y-4425000D02*
X4425000Y-4465000D01*
X4425000Y-9568500D02*
X4465000Y-9608500D01*
X4465000Y-9568500D02*
X4425000Y-9608500D01*
X4539300Y-7854000D02*
X4579300Y-7894000D01*
X4579300Y-7854000D02*
X4539300Y-7894000D01*
X4539300Y-8108000D02*
X4579300Y-8148000D01*
X4579300Y-8108000D02*
X4539300Y-8148000D01*
X4552000Y-8743000D02*
X4592000Y-8783000D01*
X4592000Y-8743000D02*
X4552000Y-8783000D01*
X4679000Y-4933000D02*
X4719000Y-4973000D01*
X4719000Y-4933000D02*
X4679000Y-4973000D01*
X4679000Y-8362000D02*
X4719000Y-8402000D01*
X4719000Y-8362000D02*
X4679000Y-8402000D01*
X4679000Y-8743000D02*
X4719000Y-8783000D01*
X4719000Y-8743000D02*
X4679000Y-8783000D01*
X4679000Y-9314500D02*
X4719000Y-9354500D01*
X4719000Y-9314500D02*
X4679000Y-9354500D01*
X4679000Y-9441500D02*
X4719000Y-9481500D01*
X4719000Y-9441500D02*
X4679000Y-9481500D01*
X4679000Y-9568500D02*
X4719000Y-9608500D01*
X4719000Y-9568500D02*
X4679000Y-9608500D01*
X4806000Y-5377500D02*
X4846000Y-5417500D01*
X4846000Y-5377500D02*
X4806000Y-5417500D01*
X4806000Y-5504500D02*
X4846000Y-5544500D01*
X4846000Y-5504500D02*
X4806000Y-5544500D01*
X4806000Y-5631500D02*
X4846000Y-5671500D01*
X4846000Y-5631500D02*
X4806000Y-5671500D01*
X4806000Y-6139500D02*
X4846000Y-6179500D01*
X4846000Y-6139500D02*
X4806000Y-6179500D01*
X4806000Y-6266500D02*
X4846000Y-6306500D01*
X4846000Y-6266500D02*
X4806000Y-6306500D01*
X4806000Y-6393500D02*
X4846000Y-6433500D01*
X4846000Y-6393500D02*
X4806000Y-6433500D01*
X4806000Y-6711000D02*
X4846000Y-6751000D01*
X4846000Y-6711000D02*
X4806000Y-6751000D01*
X4806000Y-6901500D02*
X4846000Y-6941500D01*
X4846000Y-6901500D02*
X4806000Y-6941500D01*
X4806000Y-7346000D02*
X4846000Y-7386000D01*
X4846000Y-7346000D02*
X4806000Y-7386000D01*
X4806000Y-7600000D02*
X4846000Y-7640000D01*
X4846000Y-7600000D02*
X4806000Y-7640000D01*
X4806000Y-7854000D02*
X4846000Y-7894000D01*
X4846000Y-7854000D02*
X4806000Y-7894000D01*
X4806000Y-8108000D02*
X4846000Y-8148000D01*
X4846000Y-8108000D02*
X4806000Y-8148000D01*
X4933000Y-4996500D02*
X4973000Y-5036500D01*
X4973000Y-4996500D02*
X4933000Y-5036500D01*
X4996500Y-5377500D02*
X5036500Y-5417500D01*
X5036500Y-5377500D02*
X4996500Y-5417500D01*
X4996500Y-5504500D02*
X5036500Y-5544500D01*
X5036500Y-5504500D02*
X4996500Y-5544500D01*
X4996500Y-5631500D02*
X5036500Y-5671500D01*
X5036500Y-5631500D02*
X4996500Y-5671500D01*
X5021900Y-8895400D02*
X5061900Y-8935400D01*
X5061900Y-8895400D02*
X5021900Y-8935400D01*
X5021900Y-8997000D02*
X5061900Y-9037000D01*
X5061900Y-8997000D02*
X5021900Y-9037000D01*
X5021900Y-9111300D02*
X5061900Y-9151300D01*
X5061900Y-9111300D02*
X5021900Y-9151300D01*
X5034600Y-6266500D02*
X5074600Y-6306500D01*
X5074600Y-6266500D02*
X5034600Y-6306500D01*
X5034600Y-6393500D02*
X5074600Y-6433500D01*
X5074600Y-6393500D02*
X5034600Y-6433500D01*
X5056000Y-5123500D02*
X5096000Y-5163500D01*
X5096000Y-5123500D02*
X5056000Y-5163500D01*
X5060000Y-8743000D02*
X5100000Y-8783000D01*
X5100000Y-8743000D02*
X5060000Y-8783000D01*
X5091890Y-6869610D02*
X5131890Y-6909610D01*
X5131890Y-6869610D02*
X5091890Y-6909610D01*
X5161600Y-6215700D02*
X5201600Y-6255700D01*
X5201600Y-6215700D02*
X5161600Y-6255700D01*
X5161600Y-6393500D02*
X5201600Y-6433500D01*
X5201600Y-6393500D02*
X5161600Y-6433500D01*
X5187000Y-6774500D02*
X5227000Y-6814500D01*
X5227000Y-6774500D02*
X5187000Y-6814500D01*
X5187000Y-8616000D02*
X5227000Y-8656000D01*
X5227000Y-8616000D02*
X5187000Y-8656000D01*
X5187000Y-8870000D02*
X5227000Y-8910000D01*
X5227000Y-8870000D02*
X5187000Y-8910000D01*
X5187000Y-8997000D02*
X5227000Y-9037000D01*
X5227000Y-8997000D02*
X5187000Y-9037000D01*
X5199700Y-7015800D02*
X5239700Y-7055800D01*
X5239700Y-7015800D02*
X5199700Y-7055800D01*
X5259200Y-6249800D02*
X5299200Y-6289800D01*
X5299200Y-6249800D02*
X5259200Y-6289800D01*
X5282250Y-6679250D02*
X5322250Y-6719250D01*
X5322250Y-6679250D02*
X5282250Y-6719250D01*
X5357247Y-6330734D02*
X5397247Y-6370734D01*
X5397247Y-6330734D02*
X5357247Y-6370734D01*
X5377500Y-9441500D02*
X5417500Y-9481500D01*
X5417500Y-9441500D02*
X5377500Y-9481500D01*
X5441000Y-5212400D02*
X5481000Y-5252400D01*
X5481000Y-5212400D02*
X5441000Y-5252400D01*
X5466400Y-5110800D02*
X5506400Y-5150800D01*
X5506400Y-5110800D02*
X5466400Y-5150800D01*
X5486270Y-5776730D02*
X5526270Y-5816730D01*
X5526270Y-5776730D02*
X5486270Y-5816730D01*
X5568000Y-6393500D02*
X5608000Y-6433500D01*
X5608000Y-6393500D02*
X5568000Y-6433500D01*
X5676887Y-6000739D02*
X5716887Y-6040739D01*
X5716887Y-6000739D02*
X5676887Y-6040739D01*
X5695000Y-8679500D02*
X5735000Y-8719500D01*
X5735000Y-8679500D02*
X5695000Y-8719500D01*
X5695844Y-6393497D02*
X5735844Y-6433497D01*
X5735844Y-6393497D02*
X5695844Y-6433497D01*
X5733100Y-5822000D02*
X5773100Y-5862000D01*
X5773100Y-5822000D02*
X5733100Y-5862000D01*
X5783900Y-7333300D02*
X5823900Y-7373300D01*
X5823900Y-7333300D02*
X5783900Y-7373300D01*
X5807690Y-5536002D02*
X5847690Y-5576002D01*
X5847690Y-5536002D02*
X5807690Y-5576002D01*
X5809300Y-7739700D02*
X5849300Y-7779700D01*
X5849300Y-7739700D02*
X5809300Y-7779700D01*
X5821997Y-5638298D02*
X5861997Y-5678298D01*
X5861997Y-5638298D02*
X5821997Y-5678298D01*
X5822000Y-6330002D02*
X5862000Y-6370002D01*
X5862000Y-6330002D02*
X5822000Y-6370002D01*
X5872800Y-6025200D02*
X5912800Y-6065200D01*
X5912800Y-6025200D02*
X5872800Y-6065200D01*
X5910900Y-5936301D02*
X5950900Y-5976301D01*
X5950900Y-5936301D02*
X5910900Y-5976301D01*
X5910900Y-6469700D02*
X5950900Y-6509700D01*
X5950900Y-6469700D02*
X5910900Y-6509700D01*
X6012500Y-5568000D02*
X6052500Y-5608000D01*
X6052500Y-5568000D02*
X6012500Y-5608000D01*
X6012500Y-5758500D02*
X6052500Y-5798500D01*
X6052500Y-5758500D02*
X6012500Y-5798500D01*
X6101400Y-6584000D02*
X6141400Y-6624000D01*
X6141400Y-6584000D02*
X6101400Y-6624000D01*
X6101400Y-6685600D02*
X6141400Y-6725600D01*
X6141400Y-6685600D02*
X6101400Y-6725600D01*
X6203000Y-6977700D02*
X6243000Y-7017700D01*
X6243000Y-6977700D02*
X6203000Y-7017700D01*
X6228400Y-5301300D02*
X6268400Y-5341300D01*
X6268400Y-5301300D02*
X6228400Y-5341300D01*
X6266500Y-8044500D02*
X6306500Y-8084500D01*
X6306500Y-8044500D02*
X6266500Y-8084500D01*
X6355400Y-6965000D02*
X6395400Y-7005000D01*
X6395400Y-6965000D02*
X6355400Y-7005000D01*
X6380800Y-6355400D02*
X6420800Y-6395400D01*
X6420800Y-6355400D02*
X6380800Y-6395400D01*
X6431600Y-8006400D02*
X6471600Y-8046400D01*
X6471600Y-8006400D02*
X6431600Y-8046400D01*
X6436675Y-8278175D02*
X6476675Y-8318175D01*
X6476675Y-8278175D02*
X6436675Y-8318175D01*
X6457002Y-5949000D02*
X6497002Y-5989000D01*
X6497002Y-5949000D02*
X6457002Y-5989000D01*
X6482400Y-6355400D02*
X6522400Y-6395400D01*
X6522400Y-6355400D02*
X6482400Y-6395400D01*
X6533200Y-8743000D02*
X6573200Y-8783000D01*
X6573200Y-8743000D02*
X6533200Y-8783000D01*
X6571300Y-5726750D02*
X6611300Y-5766750D01*
X6611300Y-5726750D02*
X6571300Y-5766750D01*
X6584001Y-5881612D02*
X6624001Y-5921612D01*
X6624001Y-5881612D02*
X6584001Y-5921612D01*
X6609400Y-8641400D02*
X6649400Y-8681400D01*
X6649400Y-8641400D02*
X6609400Y-8681400D01*
X6634800Y-5364800D02*
X6674800Y-5404800D01*
X6674800Y-5364800D02*
X6634800Y-5404800D01*
X6634800Y-5466400D02*
X6674800Y-5506400D01*
X6674800Y-5466400D02*
X6634800Y-5506400D01*
X6649040Y-5812360D02*
X6689040Y-5852360D01*
X6689040Y-5812360D02*
X6649040Y-5852360D01*
X6761800Y-5364800D02*
X6801800Y-5404800D01*
X6801800Y-5364800D02*
X6761800Y-5404800D01*
X6761800Y-8057200D02*
X6801800Y-8097200D01*
X6801800Y-8057200D02*
X6761800Y-8097200D01*
X6774500Y-8171500D02*
X6814500Y-8211500D01*
X6814500Y-8171500D02*
X6774500Y-8211500D01*
X6787200Y-8412800D02*
X6827200Y-8452800D01*
X6827200Y-8412800D02*
X6787200Y-8452800D01*
X6838000Y-5136200D02*
X6878000Y-5176200D01*
X6878000Y-5136200D02*
X6838000Y-5176200D01*
X6838000Y-6838000D02*
X6878000Y-6878000D01*
X6878000Y-6838000D02*
X6838000Y-6878000D01*
X6838000Y-7422200D02*
X6878000Y-7462200D01*
X6878000Y-7422200D02*
X6838000Y-7462200D01*
X6888800Y-7904800D02*
X6928800Y-7944800D01*
X6928800Y-7904800D02*
X6888800Y-7944800D01*
X6914200Y-8412800D02*
X6954200Y-8452800D01*
X6954200Y-8412800D02*
X6914200Y-8452800D01*
X6990399Y-7904800D02*
X7030399Y-7944800D01*
X7030399Y-7904800D02*
X6990399Y-7944800D01*
X7015800Y-6139500D02*
X7055800Y-6179500D01*
X7055800Y-6139500D02*
X7015800Y-6179500D01*
X7028500Y-4869500D02*
X7068500Y-4909500D01*
X7068500Y-4869500D02*
X7028500Y-4909500D01*
X7041200Y-8412800D02*
X7081200Y-8452800D01*
X7081200Y-8412800D02*
X7041200Y-8452800D01*
X7092000Y-7600000D02*
X7132000Y-7640000D01*
X7132000Y-7600000D02*
X7092000Y-7640000D01*
X7168200Y-8006400D02*
X7208200Y-8046400D01*
X7208200Y-8006400D02*
X7168200Y-8046400D01*
X7168200Y-8133400D02*
X7208200Y-8173400D01*
X7208200Y-8133400D02*
X7168200Y-8173400D01*
X7193600Y-6139500D02*
X7233600Y-6179500D01*
X7233600Y-6139500D02*
X7193600Y-6179500D01*
X7203500Y-7591301D02*
X7243500Y-7631301D01*
X7243500Y-7591301D02*
X7203500Y-7631301D01*
X7269800Y-8819200D02*
X7309800Y-8859200D01*
X7309800Y-8819200D02*
X7269800Y-8859200D01*
X7282500Y-8044500D02*
X7322500Y-8084500D01*
X7322500Y-8044500D02*
X7282500Y-8084500D01*
X7300569Y-7592848D02*
X7340569Y-7632848D01*
X7340569Y-7592848D02*
X7300569Y-7632848D01*
X7346000Y-5314000D02*
X7386000Y-5354000D01*
X7386000Y-5314000D02*
X7346000Y-5354000D01*
X7346000Y-5441000D02*
X7386000Y-5481000D01*
X7386000Y-5441000D02*
X7346000Y-5481000D01*
X7346000Y-5695000D02*
X7386000Y-5735000D01*
X7386000Y-5695000D02*
X7346000Y-5735000D01*
X7396800Y-7650801D02*
X7436800Y-7690801D01*
X7436800Y-7650801D02*
X7396800Y-7690801D01*
X7422200Y-9138000D02*
X7462200Y-9178000D01*
X7462200Y-9138000D02*
X7422200Y-9178000D01*
X7473000Y-5314000D02*
X7513000Y-5354000D01*
X7513000Y-5314000D02*
X7473000Y-5354000D01*
X7473000Y-5441000D02*
X7513000Y-5481000D01*
X7513000Y-5441000D02*
X7473000Y-5481000D01*
X7473000Y-6711000D02*
X7513000Y-6751000D01*
X7513000Y-6711000D02*
X7473000Y-6751000D01*
X7473000Y-6901500D02*
X7513000Y-6941500D01*
X7513000Y-6901500D02*
X7473000Y-6941500D01*
X7498400Y-8539800D02*
X7538400Y-8579800D01*
X7538400Y-8539800D02*
X7498400Y-8579800D01*
X7550500Y-9138000D02*
X7590500Y-9178000D01*
X7590500Y-9138000D02*
X7550500Y-9178000D01*
X7600000Y-6012500D02*
X7640000Y-6052500D01*
X7640000Y-6012500D02*
X7600000Y-6052500D01*
X7648750Y-6251750D02*
X7688750Y-6291750D01*
X7688750Y-6251750D02*
X7648750Y-6291750D01*
X7663500Y-4552000D02*
X7703500Y-4592000D01*
X7703500Y-4552000D02*
X7663500Y-4592000D01*
X7676200Y-8108000D02*
X7716200Y-8148000D01*
X7716200Y-8108000D02*
X7676200Y-8148000D01*
X7744000Y-6156500D02*
X7784000Y-6196500D01*
X7784000Y-6156500D02*
X7744000Y-6196500D01*
X7790500Y-4869500D02*
X7830500Y-4909500D01*
X7830500Y-4869500D02*
X7790500Y-4909500D01*
X7790500Y-4996500D02*
X7830500Y-5036500D01*
X7830500Y-4996500D02*
X7790500Y-5036500D01*
X7803200Y-9022400D02*
X7843200Y-9062400D01*
X7843200Y-9022400D02*
X7803200Y-9062400D01*
X7839250Y-6061250D02*
X7879250Y-6101250D01*
X7879250Y-6061250D02*
X7839250Y-6101250D01*
X7876999Y-5769500D02*
X7916999Y-5809500D01*
X7916999Y-5769500D02*
X7876999Y-5809500D01*
X7917500Y-4869500D02*
X7957500Y-4909500D01*
X7957500Y-4869500D02*
X7917500Y-4909500D01*
X7917500Y-4996500D02*
X7957500Y-5036500D01*
X7957500Y-4996500D02*
X7917500Y-5036500D01*
X7917500Y-6457000D02*
X7957500Y-6497000D01*
X7957500Y-6457000D02*
X7917500Y-6497000D01*
X8044500Y-7854000D02*
X8084500Y-7894000D01*
X8084500Y-7854000D02*
X8044500Y-7894000D01*
X8063550Y-7434900D02*
X8103550Y-7474900D01*
X8103550Y-7434900D02*
X8063550Y-7474900D01*
X8158800Y-8565199D02*
X8198800Y-8605199D01*
X8198800Y-8565199D02*
X8158800Y-8605199D01*
X8171500Y-4869500D02*
X8211500Y-4909500D01*
X8211500Y-4869500D02*
X8171500Y-4909500D01*
X8171500Y-4996500D02*
X8211500Y-5036500D01*
X8211500Y-4996500D02*
X8171500Y-5036500D01*
X8171500Y-6457000D02*
X8211500Y-6497000D01*
X8211500Y-6457000D02*
X8171500Y-6497000D01*
X8235000Y-7917500D02*
X8275000Y-7957500D01*
X8275000Y-7917500D02*
X8235000Y-7957500D01*
X8311200Y-8514400D02*
X8351200Y-8554400D01*
X8351200Y-8514400D02*
X8311200Y-8554400D01*
X8387400Y-9301800D02*
X8427400Y-9341800D01*
X8427400Y-9301800D02*
X8387400Y-9341800D01*
X8406450Y-4374200D02*
X8446450Y-4414200D01*
X8446450Y-4374200D02*
X8406450Y-4414200D01*
X8425500Y-4869500D02*
X8465500Y-4909500D01*
X8465500Y-4869500D02*
X8425500Y-4909500D01*
X8438200Y-7434900D02*
X8478200Y-7474900D01*
X8478200Y-7434900D02*
X8438200Y-7474900D01*
X8438200Y-8933500D02*
X8478200Y-8973500D01*
X8478200Y-8933500D02*
X8438200Y-8973500D01*
X8476300Y-8806500D02*
X8516300Y-8846500D01*
X8516300Y-8806500D02*
X8476300Y-8846500D01*
X8489000Y-9085900D02*
X8529000Y-9125900D01*
X8529000Y-9085900D02*
X8489000Y-9125900D01*
X8552500Y-6457000D02*
X8592500Y-6497000D01*
X8592500Y-6457000D02*
X8552500Y-6497000D01*
X8552500Y-6901500D02*
X8592500Y-6941500D01*
X8592500Y-6901500D02*
X8552500Y-6941500D01*
X8552500Y-8425500D02*
X8592500Y-8465500D01*
X8592500Y-8425500D02*
X8552500Y-8465500D01*
X8583353Y-5882769D02*
X8623353Y-5922769D01*
X8623353Y-5882769D02*
X8583353Y-5922769D01*
X8666800Y-5764850D02*
X8706800Y-5804850D01*
X8706800Y-5764850D02*
X8666800Y-5804850D01*
X8666999Y-5556135D02*
X8706999Y-5596135D01*
X8706999Y-5556135D02*
X8666999Y-5596135D01*
X8679500Y-5949000D02*
X8719500Y-5989000D01*
X8719500Y-5949000D02*
X8679500Y-5989000D01*
X8806500Y-7854000D02*
X8846500Y-7894000D01*
X8846500Y-7854000D02*
X8806500Y-7894000D01*
X8806500Y-8806499D02*
X8846500Y-8846499D01*
X8846500Y-8806499D02*
X8806500Y-8846499D01*
X8870000Y-6457000D02*
X8910000Y-6497000D01*
X8910000Y-6457000D02*
X8870000Y-6497000D01*
X8971600Y-5631500D02*
X9011600Y-5671500D01*
X9011600Y-5631500D02*
X8971600Y-5671500D01*
X8997000Y-5072700D02*
X9037000Y-5112700D01*
X9037000Y-5072700D02*
X8997000Y-5112700D01*
X8997000Y-5885500D02*
X9037000Y-5925500D01*
X9037000Y-5885500D02*
X8997000Y-5925500D01*
X8997000Y-9441500D02*
X9037000Y-9481500D01*
X9037000Y-9441500D02*
X8997000Y-9481500D01*
X9124000Y-5504500D02*
X9164000Y-5544500D01*
X9164000Y-5504500D02*
X9124000Y-5544500D01*
X9124000Y-7473000D02*
X9164000Y-7513000D01*
X9164000Y-7473000D02*
X9124000Y-7513000D01*
X9124000Y-7600000D02*
X9164000Y-7640000D01*
X9164000Y-7600000D02*
X9124000Y-7640000D01*
X9162100Y-5987100D02*
X9202100Y-6027100D01*
X9202100Y-5987100D02*
X9162100Y-6027100D01*
X9187500Y-6330000D02*
X9227500Y-6370000D01*
X9227500Y-6330000D02*
X9187500Y-6370000D01*
X9187500Y-6457000D02*
X9227500Y-6497000D01*
X9227500Y-6457000D02*
X9187500Y-6497000D01*
X9187500Y-6901500D02*
X9227500Y-6941500D01*
X9227500Y-6901500D02*
X9187500Y-6941500D01*
X9187500Y-7727000D02*
X9227500Y-7767000D01*
X9227500Y-7727000D02*
X9187500Y-7767000D01*
X9251000Y-5504500D02*
X9291000Y-5544500D01*
X9291000Y-5504500D02*
X9251000Y-5544500D01*
X9251000Y-5631500D02*
X9291000Y-5671500D01*
X9291000Y-5631500D02*
X9251000Y-5671500D01*
X9251000Y-5910900D02*
X9291000Y-5950900D01*
X9291000Y-5910900D02*
X9251000Y-5950900D01*
X9312412Y-6343502D02*
X9352412Y-6383502D01*
X9352412Y-6343502D02*
X9312412Y-6383502D01*
X9314500Y-8679500D02*
X9354500Y-8719500D01*
X9354500Y-8679500D02*
X9314500Y-8719500D01*
X9321616Y-6022730D02*
X9361616Y-6062730D01*
X9361616Y-6022730D02*
X9321616Y-6062730D01*
X9378000Y-5504500D02*
X9418000Y-5544500D01*
X9418000Y-5504500D02*
X9378000Y-5544500D01*
X9378000Y-8019100D02*
X9418000Y-8059100D01*
X9418000Y-8019100D02*
X9378000Y-8059100D01*
X9505000Y-4551999D02*
X9545000Y-4591999D01*
X9545000Y-4551999D02*
X9505000Y-4591999D01*
X9505000Y-5504500D02*
X9545000Y-5544500D01*
X9545000Y-5504500D02*
X9505000Y-5544500D01*
X9505000Y-5720400D02*
X9545000Y-5760400D01*
X9545000Y-5720400D02*
X9505000Y-5760400D01*
X9517700Y-5898200D02*
X9557700Y-5938200D01*
X9557700Y-5898200D02*
X9517700Y-5938200D01*
X9632000Y-6584000D02*
X9672000Y-6624000D01*
X9672000Y-6584000D02*
X9632000Y-6624000D01*
X9632000Y-7549200D02*
X9672000Y-7589200D01*
X9672000Y-7549200D02*
X9632000Y-7589200D01*
X9759000Y-5364800D02*
X9799000Y-5404800D01*
X9799000Y-5364800D02*
X9759000Y-5404800D01*
X9809800Y-8019100D02*
X9849800Y-8059100D01*
X9849800Y-8019100D02*
X9809800Y-8059100D01*
X9841550Y-5955350D02*
X9881550Y-5995350D01*
X9881550Y-5955350D02*
X9841550Y-5995350D01*
X9886000Y-5631500D02*
X9926000Y-5671500D01*
X9926000Y-5631500D02*
X9886000Y-5671500D01*
X9886000Y-6901500D02*
X9926000Y-6941500D01*
X9926000Y-6901500D02*
X9886000Y-6941500D01*
X10056175Y-8278175D02*
X10096175Y-8318175D01*
X10096175Y-8278175D02*
X10056175Y-8318175D01*
X10063800Y-8819200D02*
X10103800Y-8859200D01*
X10103800Y-8819200D02*
X10063800Y-8859200D01*
X10076500Y-6622100D02*
X10116500Y-6662100D01*
X10116500Y-6622100D02*
X10076500Y-6662100D01*
X10101900Y-6266500D02*
X10141900Y-6306500D01*
X10141900Y-6266500D02*
X10101900Y-6306500D01*
X10114600Y-5301300D02*
X10154600Y-5341300D01*
X10154600Y-5301300D02*
X10114600Y-5341300D01*
X10165400Y-8717600D02*
X10205400Y-8757600D01*
X10205400Y-8717600D02*
X10165400Y-8757600D01*
X10241600Y-8590600D02*
X10281600Y-8630600D01*
X10281600Y-8590600D02*
X10241600Y-8630600D01*
X10394000Y-4945700D02*
X10434000Y-4985700D01*
X10434000Y-4945700D02*
X10394000Y-4985700D01*
X10394000Y-8108000D02*
X10434000Y-8148000D01*
X10434000Y-8108000D02*
X10394000Y-8148000D01*
X10394000Y-8412800D02*
X10434000Y-8452800D01*
X10434000Y-8412800D02*
X10394000Y-8452800D01*
X10470200Y-8184200D02*
X10510200Y-8224200D01*
X10510200Y-8184200D02*
X10470200Y-8224200D01*
X10521000Y-6269431D02*
X10561000Y-6309431D01*
X10561000Y-6269431D02*
X10521000Y-6309431D01*
X10521000Y-8412800D02*
X10561000Y-8452800D01*
X10561000Y-8412800D02*
X10521000Y-8452800D01*
X10577276Y-7907368D02*
X10617276Y-7947368D01*
X10617276Y-7907368D02*
X10577276Y-7947368D01*
X10597200Y-8006400D02*
X10637200Y-8046400D01*
X10637200Y-8006400D02*
X10597200Y-8046400D01*
X10637254Y-6340746D02*
X10677254Y-6380746D01*
X10677254Y-6340746D02*
X10637254Y-6380746D01*
X10648000Y-5314000D02*
X10688000Y-5354000D01*
X10688000Y-5314000D02*
X10648000Y-5354000D01*
X10648000Y-5441000D02*
X10688000Y-5481000D01*
X10688000Y-5441000D02*
X10648000Y-5481000D01*
X10648000Y-5568000D02*
X10688000Y-5608000D01*
X10688000Y-5568000D02*
X10648000Y-5608000D01*
X10648000Y-6584000D02*
X10688000Y-6624000D01*
X10688000Y-6584000D02*
X10648000Y-6624000D01*
X10648000Y-8412800D02*
X10688000Y-8452800D01*
X10688000Y-8412800D02*
X10648000Y-8452800D01*
X10673400Y-9073200D02*
X10713400Y-9113200D01*
X10713400Y-9073200D02*
X10673400Y-9113200D01*
X10743500Y-7600000D02*
X10783500Y-7640000D01*
X10783500Y-7600000D02*
X10743500Y-7640000D01*
X10775000Y-8158800D02*
X10815000Y-8198800D01*
X10815000Y-8158800D02*
X10775000Y-8198800D01*
X10838500Y-7600000D02*
X10878500Y-7640000D01*
X10878500Y-7600000D02*
X10838500Y-7640000D01*
X10902000Y-8044500D02*
X10942000Y-8084500D01*
X10942000Y-8044500D02*
X10902000Y-8084500D01*
X10902000Y-8158800D02*
X10942000Y-8198800D01*
X10942000Y-8158800D02*
X10902000Y-8198800D01*
X10902000Y-8260400D02*
X10942000Y-8300400D01*
X10942000Y-8260400D02*
X10902000Y-8300400D01*
X10902000Y-8806500D02*
X10942000Y-8846500D01*
X10942000Y-8806500D02*
X10902000Y-8846500D01*
X10965500Y-7600000D02*
X11005500Y-7640000D01*
X11005500Y-7600000D02*
X10965500Y-7640000D01*
X11029000Y-4869500D02*
X11069000Y-4909500D01*
X11069000Y-4869500D02*
X11029000Y-4909500D01*
X11054400Y-7659499D02*
X11094400Y-7699499D01*
X11094400Y-7659499D02*
X11054400Y-7699499D01*
X11067100Y-7384100D02*
X11107100Y-7424100D01*
X11107100Y-7384100D02*
X11067100Y-7424100D01*
X11143300Y-6164899D02*
X11183300Y-6204899D01*
X11183300Y-6164899D02*
X11143300Y-6204899D01*
X11156000Y-6584000D02*
X11196000Y-6624000D01*
X11196000Y-6584000D02*
X11156000Y-6624000D01*
X11156000Y-6711000D02*
X11196000Y-6751000D01*
X11196000Y-6711000D02*
X11156000Y-6751000D01*
X11156000Y-8539800D02*
X11196000Y-8579800D01*
X11196000Y-8539800D02*
X11156000Y-8579800D01*
X11156000Y-9149400D02*
X11196000Y-9189400D01*
X11196000Y-9149400D02*
X11156000Y-9189400D01*
X11219500Y-5695000D02*
X11259500Y-5735000D01*
X11259500Y-5695000D02*
X11219500Y-5735000D01*
X11232200Y-7523800D02*
X11272200Y-7563800D01*
X11272200Y-7523800D02*
X11232200Y-7563800D01*
X11257600Y-8031800D02*
X11297600Y-8071800D01*
X11297600Y-8031800D02*
X11257600Y-8071800D01*
X11283000Y-4564700D02*
X11323000Y-4604700D01*
X11323000Y-4564700D02*
X11283000Y-4604700D01*
X11359200Y-8133400D02*
X11399200Y-8173400D01*
X11399200Y-8133400D02*
X11359200Y-8173400D01*
X11397300Y-9149400D02*
X11437300Y-9189400D01*
X11437300Y-9149400D02*
X11397300Y-9189400D01*
X11410000Y-4869500D02*
X11450000Y-4909500D01*
X11450000Y-4869500D02*
X11410000Y-4909500D01*
X11422700Y-5695000D02*
X11462700Y-5735000D01*
X11462700Y-5695000D02*
X11422700Y-5735000D01*
X11537000Y-4869500D02*
X11577000Y-4909500D01*
X11577000Y-4869500D02*
X11537000Y-4909500D01*
X11562399Y-5822000D02*
X11602399Y-5862000D01*
X11602399Y-5822000D02*
X11562399Y-5862000D01*
X11664000Y-6647500D02*
X11704000Y-6687500D01*
X11704000Y-6647500D02*
X11664000Y-6687500D01*
X11664000Y-6774500D02*
X11704000Y-6814500D01*
X11704000Y-6774500D02*
X11664000Y-6814500D01*
X11664000Y-7790500D02*
X11704000Y-7830500D01*
X11704000Y-7790500D02*
X11664000Y-7830500D01*
X11727500Y-8616000D02*
X11767500Y-8656000D01*
X11767500Y-8616000D02*
X11727500Y-8656000D01*
X11727500Y-8717600D02*
X11767500Y-8757600D01*
X11767500Y-8717600D02*
X11727500Y-8757600D01*
X11797350Y-6025200D02*
X11837350Y-6065200D01*
X11837350Y-6025200D02*
X11797350Y-6065200D01*
X11854500Y-7854000D02*
X11894500Y-7894000D01*
X11894500Y-7854000D02*
X11854500Y-7894000D01*
X11892600Y-8565200D02*
X11932600Y-8605200D01*
X11932600Y-8565200D02*
X11892600Y-8605200D01*
X11918000Y-9314500D02*
X11958000Y-9354500D01*
X11958000Y-9314500D02*
X11918000Y-9354500D01*
X12019600Y-4425000D02*
X12059600Y-4465000D01*
X12059600Y-4425000D02*
X12019600Y-4465000D01*
X12019600Y-4552000D02*
X12059600Y-4592000D01*
X12059600Y-4552000D02*
X12019600Y-4592000D01*
X12045000Y-7921500D02*
X12085000Y-7961500D01*
X12085000Y-7921500D02*
X12045000Y-7961500D01*
X12083100Y-7422200D02*
X12123100Y-7462200D01*
X12123100Y-7422200D02*
X12083100Y-7462200D01*
X12108500Y-9568500D02*
X12148500Y-9608500D01*
X12148500Y-9568500D02*
X12108500Y-9608500D01*
X12197400Y-4425000D02*
X12237400Y-4465000D01*
X12237400Y-4425000D02*
X12197400Y-4465000D01*
X12212889Y-7889311D02*
X12252889Y-7929311D01*
X12252889Y-7889311D02*
X12212889Y-7929311D01*
X12426000Y-8362000D02*
X12466000Y-8402000D01*
X12466000Y-8362000D02*
X12426000Y-8402000D01*
X12489500Y-4615500D02*
X12529500Y-4655500D01*
X12529500Y-4615500D02*
X12489500Y-4655500D01*
X12489500Y-5250500D02*
X12529500Y-5290500D01*
X12529500Y-5250500D02*
X12489500Y-5290500D01*
X12489500Y-5441000D02*
X12529500Y-5481000D01*
X12529500Y-5441000D02*
X12489500Y-5481000D01*
X12489500Y-6584000D02*
X12529500Y-6624000D01*
X12529500Y-6584000D02*
X12489500Y-6624000D01*
X12489500Y-6838000D02*
X12529500Y-6878000D01*
X12529500Y-6838000D02*
X12489500Y-6878000D01*
X12489500Y-9060500D02*
X12529500Y-9100500D01*
X12529500Y-9060500D02*
X12489500Y-9100500D01*
X4277500Y-5518000D02*
G75*
G03X4277500Y-5518000I-27500J0D01*
G01*
X4282500Y-5500500D02*
X4217500Y-5500500D01*
X4282500Y-5535500D02*
X4217500Y-5535500D01*
X4217500Y-5500500D02*
G75*
G03X4217500Y-5535500I0J-17500D01*
G01*
X4282500Y-5535500D02*
G75*
G03X4282500Y-5500500I0J17500D01*
G01*
X4277500Y-6293000D02*
G75*
G03X4277500Y-6293000I-27500J0D01*
G01*
X4282500Y-6275500D02*
X4217500Y-6275500D01*
X4282500Y-6310500D02*
X4217500Y-6310500D01*
X4217500Y-6275500D02*
G75*
G03X4217500Y-6310500I0J-17500D01*
G01*
X4282500Y-6310500D02*
G75*
G03X4282500Y-6275500I0J17500D01*
G01*
X4630000Y-5490500D02*
X4630000Y-5575500D01*
X4587500Y-5533000D02*
X4672500Y-5533000D01*
X4657500Y-5500500D02*
X4602500Y-5500500D01*
X4657500Y-5565500D02*
X4602500Y-5565500D01*
X4602500Y-5500500D02*
G75*
G03X4602500Y-5565500I0J-32500D01*
G01*
X4657500Y-5565500D02*
G75*
G03X4657500Y-5500500I0J32500D01*
G01*
X4630000Y-6235500D02*
X4630000Y-6320500D01*
X4587500Y-6278000D02*
X4672500Y-6278000D01*
X4657500Y-6245500D02*
X4602500Y-6245500D01*
X4657500Y-6310500D02*
X4602500Y-6310500D01*
X4602500Y-6245500D02*
G75*
G03X4602500Y-6310500I0J-32500D01*
G01*
X4657500Y-6310500D02*
G75*
G03X4657500Y-6245500I0J32500D01*
G01*
X8671356Y-4493056D02*
X8671356Y-4422344D01*
X8600644Y-4422344D01*
X8600644Y-4493056D01*
X8671356Y-4493056D01*
X8671356Y-4747056D02*
X8671356Y-4676344D01*
X8600644Y-4676344D01*
X8600644Y-4747056D01*
X8671356Y-4747056D01*
X8925356Y-4493056D02*
X8925356Y-4422344D01*
X8854644Y-4422344D01*
X8854644Y-4493056D01*
X8925356Y-4493056D01*
X8925356Y-4747056D02*
X8925356Y-4676344D01*
X8854644Y-4676344D01*
X8854644Y-4747056D01*
X8925356Y-4747056D01*
X9179356Y-4493056D02*
X9179356Y-4422344D01*
X9108644Y-4422344D01*
X9108644Y-4493056D01*
X9179356Y-4493056D01*
X9179356Y-4747056D02*
X9179356Y-4676344D01*
X9108644Y-4676344D01*
X9108644Y-4747056D01*
X9179356Y-4747056D01*
X9433356Y-4493056D02*
X9433356Y-4422344D01*
X9362644Y-4422344D01*
X9362644Y-4493056D01*
X9433356Y-4493056D01*
X9433356Y-4747056D02*
X9433356Y-4676344D01*
X9362644Y-4676344D01*
X9362644Y-4747056D01*
X9433356Y-4747056D01*
X9687356Y-4493056D02*
X9687356Y-4422344D01*
X9616644Y-4422344D01*
X9616644Y-4493056D01*
X9687356Y-4493056D01*
X9687356Y-4747056D02*
X9687356Y-4676344D01*
X9616644Y-4676344D01*
X9616644Y-4747056D01*
X9687356Y-4747056D01*
X9941356Y-4493056D02*
X9941356Y-4422344D01*
X9870644Y-4422344D01*
X9870644Y-4493056D01*
X9941356Y-4493056D01*
X9941356Y-4747056D02*
X9941356Y-4676344D01*
X9870644Y-4676344D01*
X9870644Y-4747056D01*
X9941356Y-4747056D01*
X10195356Y-4493056D02*
X10195356Y-4422344D01*
X10124644Y-4422344D01*
X10124644Y-4493056D01*
X10195356Y-4493056D01*
X10195356Y-4747056D02*
X10195356Y-4676344D01*
X10124644Y-4676344D01*
X10124644Y-4747056D01*
X10195356Y-4747056D01*
X10449356Y-4493056D02*
X10449356Y-4422344D01*
X10378644Y-4422344D01*
X10378644Y-4493056D01*
X10449356Y-4493056D01*
X10449356Y-4747056D02*
X10449356Y-4676344D01*
X10378644Y-4676344D01*
X10378644Y-4747056D01*
X10449356Y-4747056D01*
X10703356Y-4493056D02*
X10703356Y-4422344D01*
X10632644Y-4422344D01*
X10632644Y-4493056D01*
X10703356Y-4493056D01*
X10703356Y-4747056D02*
X10703356Y-4676344D01*
X10632644Y-4676344D01*
X10632644Y-4747056D01*
X10703356Y-4747056D01*
X10957356Y-4493056D02*
X10957356Y-4422344D01*
X10886644Y-4422344D01*
X10886644Y-4493056D01*
X10957356Y-4493056D01*
X10957356Y-4747056D02*
X10957356Y-4676344D01*
X10886644Y-4676344D01*
X10886644Y-4747056D01*
X10957356Y-4747056D01*
X11211356Y-4493056D02*
X11211356Y-4422344D01*
X11140644Y-4422344D01*
X11140644Y-4493056D01*
X11211356Y-4493056D01*
X11211356Y-4747056D02*
X11211356Y-4676344D01*
X11140644Y-4676344D01*
X11140644Y-4747056D01*
X11211356Y-4747056D01*
X11465356Y-4493056D02*
X11465356Y-4422344D01*
X11394644Y-4422344D01*
X11394644Y-4493056D01*
X11465356Y-4493056D01*
X11465356Y-4747056D02*
X11465356Y-4676344D01*
X11394644Y-4676344D01*
X11394644Y-4747056D01*
X11465356Y-4747056D01*
X11719356Y-4493056D02*
X11719356Y-4422344D01*
X11648644Y-4422344D01*
X11648644Y-4493056D01*
X11719356Y-4493056D01*
X11719356Y-4747056D02*
X11719356Y-4676344D01*
X11648644Y-4676344D01*
X11648644Y-4747056D01*
X11719356Y-4747056D01*
X5051856Y-4493056D02*
X5051856Y-4422344D01*
X4981144Y-4422344D01*
X4981144Y-4493056D01*
X5051856Y-4493056D01*
X5051856Y-4747056D02*
X5051856Y-4676344D01*
X4981144Y-4676344D01*
X4981144Y-4747056D01*
X5051856Y-4747056D01*
X5305856Y-4493056D02*
X5305856Y-4422344D01*
X5235144Y-4422344D01*
X5235144Y-4493056D01*
X5305856Y-4493056D01*
X5305856Y-4747056D02*
X5305856Y-4676344D01*
X5235144Y-4676344D01*
X5235144Y-4747056D01*
X5305856Y-4747056D01*
X5559856Y-4493056D02*
X5559856Y-4422344D01*
X5489144Y-4422344D01*
X5489144Y-4493056D01*
X5559856Y-4493056D01*
X5559856Y-4747056D02*
X5559856Y-4676344D01*
X5489144Y-4676344D01*
X5489144Y-4747056D01*
X5559856Y-4747056D01*
X5813856Y-4493056D02*
X5813856Y-4422344D01*
X5743144Y-4422344D01*
X5743144Y-4493056D01*
X5813856Y-4493056D01*
X5813856Y-4747056D02*
X5813856Y-4676344D01*
X5743144Y-4676344D01*
X5743144Y-4747056D01*
X5813856Y-4747056D01*
X6067856Y-4493056D02*
X6067856Y-4422344D01*
X5997144Y-4422344D01*
X5997144Y-4493056D01*
X6067856Y-4493056D01*
X6067856Y-4747056D02*
X6067856Y-4676344D01*
X5997144Y-4676344D01*
X5997144Y-4747056D01*
X6067856Y-4747056D01*
X6321856Y-4493056D02*
X6321856Y-4422344D01*
X6251144Y-4422344D01*
X6251144Y-4493056D01*
X6321856Y-4493056D01*
X6321856Y-4747056D02*
X6321856Y-4676344D01*
X6251144Y-4676344D01*
X6251144Y-4747056D01*
X6321856Y-4747056D01*
X6575856Y-4493056D02*
X6575856Y-4422344D01*
X6505144Y-4422344D01*
X6505144Y-4493056D01*
X6575856Y-4493056D01*
X6575856Y-4747056D02*
X6575856Y-4676344D01*
X6505144Y-4676344D01*
X6505144Y-4747056D01*
X6575856Y-4747056D01*
X6829856Y-4493056D02*
X6829856Y-4422344D01*
X6759144Y-4422344D01*
X6759144Y-4493056D01*
X6829856Y-4493056D01*
X6829856Y-4747056D02*
X6829856Y-4676344D01*
X6759144Y-4676344D01*
X6759144Y-4747056D01*
X6829856Y-4747056D01*
X7083856Y-4493056D02*
X7083856Y-4422344D01*
X7013144Y-4422344D01*
X7013144Y-4493056D01*
X7083856Y-4493056D01*
X7083856Y-4747056D02*
X7083856Y-4676344D01*
X7013144Y-4676344D01*
X7013144Y-4747056D01*
X7083856Y-4747056D01*
X7337856Y-4493056D02*
X7337856Y-4422344D01*
X7267144Y-4422344D01*
X7267144Y-4493056D01*
X7337856Y-4493056D01*
X7337856Y-4747056D02*
X7337856Y-4676344D01*
X7267144Y-4676344D01*
X7267144Y-4747056D01*
X7337856Y-4747056D01*
X7591856Y-4493056D02*
X7591856Y-4422344D01*
X7521144Y-4422344D01*
X7521144Y-4493056D01*
X7591856Y-4493056D01*
X7591856Y-4747056D02*
X7591856Y-4676344D01*
X7521144Y-4676344D01*
X7521144Y-4747056D01*
X7591856Y-4747056D01*
X7845856Y-4493056D02*
X7845856Y-4422344D01*
X7775144Y-4422344D01*
X7775144Y-4493056D01*
X7845856Y-4493056D01*
X7845856Y-4747056D02*
X7845856Y-4676344D01*
X7775144Y-4676344D01*
X7775144Y-4747056D01*
X7845856Y-4747056D01*
X8099856Y-4493056D02*
X8099856Y-4422344D01*
X8029144Y-4422344D01*
X8029144Y-4493056D01*
X8099856Y-4493056D01*
X8099856Y-4747056D02*
X8099856Y-4676344D01*
X8029144Y-4676344D01*
X8029144Y-4747056D01*
X8099856Y-4747056D01*
X8671356Y-9357156D02*
X8671356Y-9286444D01*
X8600644Y-9286444D01*
X8600644Y-9357156D01*
X8671356Y-9357156D01*
X8671356Y-9611156D02*
X8671356Y-9540444D01*
X8600644Y-9540444D01*
X8600644Y-9611156D01*
X8671356Y-9611156D01*
X8925356Y-9357156D02*
X8925356Y-9286444D01*
X8854644Y-9286444D01*
X8854644Y-9357156D01*
X8925356Y-9357156D01*
X8925356Y-9611156D02*
X8925356Y-9540444D01*
X8854644Y-9540444D01*
X8854644Y-9611156D01*
X8925356Y-9611156D01*
X9179356Y-9357156D02*
X9179356Y-9286444D01*
X9108644Y-9286444D01*
X9108644Y-9357156D01*
X9179356Y-9357156D01*
X9179356Y-9611156D02*
X9179356Y-9540444D01*
X9108644Y-9540444D01*
X9108644Y-9611156D01*
X9179356Y-9611156D01*
X9433356Y-9357156D02*
X9433356Y-9286444D01*
X9362644Y-9286444D01*
X9362644Y-9357156D01*
X9433356Y-9357156D01*
X9433356Y-9611156D02*
X9433356Y-9540444D01*
X9362644Y-9540444D01*
X9362644Y-9611156D01*
X9433356Y-9611156D01*
X9687356Y-9357156D02*
X9687356Y-9286444D01*
X9616644Y-9286444D01*
X9616644Y-9357156D01*
X9687356Y-9357156D01*
X9687356Y-9611156D02*
X9687356Y-9540444D01*
X9616644Y-9540444D01*
X9616644Y-9611156D01*
X9687356Y-9611156D01*
X9941356Y-9357156D02*
X9941356Y-9286444D01*
X9870644Y-9286444D01*
X9870644Y-9357156D01*
X9941356Y-9357156D01*
X9941356Y-9611156D02*
X9941356Y-9540444D01*
X9870644Y-9540444D01*
X9870644Y-9611156D01*
X9941356Y-9611156D01*
X10195356Y-9357156D02*
X10195356Y-9286444D01*
X10124644Y-9286444D01*
X10124644Y-9357156D01*
X10195356Y-9357156D01*
X10195356Y-9611156D02*
X10195356Y-9540444D01*
X10124644Y-9540444D01*
X10124644Y-9611156D01*
X10195356Y-9611156D01*
X10449356Y-9357156D02*
X10449356Y-9286444D01*
X10378644Y-9286444D01*
X10378644Y-9357156D01*
X10449356Y-9357156D01*
X10449356Y-9611156D02*
X10449356Y-9540444D01*
X10378644Y-9540444D01*
X10378644Y-9611156D01*
X10449356Y-9611156D01*
X10703356Y-9357156D02*
X10703356Y-9286444D01*
X10632644Y-9286444D01*
X10632644Y-9357156D01*
X10703356Y-9357156D01*
X10703356Y-9611156D02*
X10703356Y-9540444D01*
X10632644Y-9540444D01*
X10632644Y-9611156D01*
X10703356Y-9611156D01*
X10957356Y-9357156D02*
X10957356Y-9286444D01*
X10886644Y-9286444D01*
X10886644Y-9357156D01*
X10957356Y-9357156D01*
X10957356Y-9611156D02*
X10957356Y-9540444D01*
X10886644Y-9540444D01*
X10886644Y-9611156D01*
X10957356Y-9611156D01*
X11211356Y-9357156D02*
X11211356Y-9286444D01*
X11140644Y-9286444D01*
X11140644Y-9357156D01*
X11211356Y-9357156D01*
X11211356Y-9611156D02*
X11211356Y-9540444D01*
X11140644Y-9540444D01*
X11140644Y-9611156D01*
X11211356Y-9611156D01*
X11465356Y-9357156D02*
X11465356Y-9286444D01*
X11394644Y-9286444D01*
X11394644Y-9357156D01*
X11465356Y-9357156D01*
X11465356Y-9611156D02*
X11465356Y-9540444D01*
X11394644Y-9540444D01*
X11394644Y-9611156D01*
X11465356Y-9611156D01*
X11719356Y-9357156D02*
X11719356Y-9286444D01*
X11648644Y-9286444D01*
X11648644Y-9357156D01*
X11719356Y-9357156D01*
X11719356Y-9611156D02*
X11719356Y-9540444D01*
X11648644Y-9540444D01*
X11648644Y-9611156D01*
X11719356Y-9611156D01*
X5051856Y-9357156D02*
X5051856Y-9286444D01*
X4981144Y-9286444D01*
X4981144Y-9357156D01*
X5051856Y-9357156D01*
X5051856Y-9611156D02*
X5051856Y-9540444D01*
X4981144Y-9540444D01*
X4981144Y-9611156D01*
X5051856Y-9611156D01*
X5305856Y-9357156D02*
X5305856Y-9286444D01*
X5235144Y-9286444D01*
X5235144Y-9357156D01*
X5305856Y-9357156D01*
X5305856Y-9611156D02*
X5305856Y-9540444D01*
X5235144Y-9540444D01*
X5235144Y-9611156D01*
X5305856Y-9611156D01*
X5559856Y-9357156D02*
X5559856Y-9286444D01*
X5489144Y-9286444D01*
X5489144Y-9357156D01*
X5559856Y-9357156D01*
X5559856Y-9611156D02*
X5559856Y-9540444D01*
X5489144Y-9540444D01*
X5489144Y-9611156D01*
X5559856Y-9611156D01*
X5813856Y-9357156D02*
X5813856Y-9286444D01*
X5743144Y-9286444D01*
X5743144Y-9357156D01*
X5813856Y-9357156D01*
X5813856Y-9611156D02*
X5813856Y-9540444D01*
X5743144Y-9540444D01*
X5743144Y-9611156D01*
X5813856Y-9611156D01*
X6067856Y-9357156D02*
X6067856Y-9286444D01*
X5997144Y-9286444D01*
X5997144Y-9357156D01*
X6067856Y-9357156D01*
X6067856Y-9611156D02*
X6067856Y-9540444D01*
X5997144Y-9540444D01*
X5997144Y-9611156D01*
X6067856Y-9611156D01*
X6321856Y-9357156D02*
X6321856Y-9286444D01*
X6251144Y-9286444D01*
X6251144Y-9357156D01*
X6321856Y-9357156D01*
X6321856Y-9611156D02*
X6321856Y-9540444D01*
X6251144Y-9540444D01*
X6251144Y-9611156D01*
X6321856Y-9611156D01*
X6575856Y-9357156D02*
X6575856Y-9286444D01*
X6505144Y-9286444D01*
X6505144Y-9357156D01*
X6575856Y-9357156D01*
X6575856Y-9611156D02*
X6575856Y-9540444D01*
X6505144Y-9540444D01*
X6505144Y-9611156D01*
X6575856Y-9611156D01*
X6829856Y-9357156D02*
X6829856Y-9286444D01*
X6759144Y-9286444D01*
X6759144Y-9357156D01*
X6829856Y-9357156D01*
X6829856Y-9611156D02*
X6829856Y-9540444D01*
X6759144Y-9540444D01*
X6759144Y-9611156D01*
X6829856Y-9611156D01*
X7083856Y-9357156D02*
X7083856Y-9286444D01*
X7013144Y-9286444D01*
X7013144Y-9357156D01*
X7083856Y-9357156D01*
X7083856Y-9611156D02*
X7083856Y-9540444D01*
X7013144Y-9540444D01*
X7013144Y-9611156D01*
X7083856Y-9611156D01*
X7337856Y-9357156D02*
X7337856Y-9286444D01*
X7267144Y-9286444D01*
X7267144Y-9357156D01*
X7337856Y-9357156D01*
X7337856Y-9611156D02*
X7337856Y-9540444D01*
X7267144Y-9540444D01*
X7267144Y-9611156D01*
X7337856Y-9611156D01*
X7591856Y-9357156D02*
X7591856Y-9286444D01*
X7521144Y-9286444D01*
X7521144Y-9357156D01*
X7591856Y-9357156D01*
X7591856Y-9611156D02*
X7591856Y-9540444D01*
X7521144Y-9540444D01*
X7521144Y-9611156D01*
X7591856Y-9611156D01*
X7845856Y-9357156D02*
X7845856Y-9286444D01*
X7775144Y-9286444D01*
X7775144Y-9357156D01*
X7845856Y-9357156D01*
X7845856Y-9611156D02*
X7845856Y-9540444D01*
X7775144Y-9540444D01*
X7775144Y-9611156D01*
X7845856Y-9611156D01*
X8099856Y-9357156D02*
X8099856Y-9286444D01*
X8029144Y-9286444D01*
X8029144Y-9357156D01*
X8099856Y-9357156D01*
X8099856Y-9611156D02*
X8099856Y-9540444D01*
X8029144Y-9540444D01*
X8029144Y-9611156D01*
X8099856Y-9611156D01*
X12255500Y-5325500D02*
X12310500Y-5270500D01*
X12255500Y-5215500D01*
X12200500Y-5270500D01*
X12255500Y-5325500D01*
X12255500Y-5579500D02*
X12310500Y-5524500D01*
X12255500Y-5469500D01*
X12200500Y-5524500D01*
X12255500Y-5579500D01*
X12255500Y-5833500D02*
X12310500Y-5778500D01*
X12255500Y-5723500D01*
X12200500Y-5778500D01*
X12255500Y-5833500D01*
X11799500Y-7100500D02*
X11949500Y-7250500D01*
X11949500Y-7100500D02*
X11799500Y-7250500D01*
X11949500Y-7175500D02*
G75*
G03X11949500Y-7175500I-75000J0D01*
G01*
X4306500Y-6719500D02*
X4456500Y-6869500D01*
X4456500Y-6719500D02*
X4306500Y-6869500D01*
X4456500Y-6794500D02*
G75*
G03X4456500Y-6794500I-75000J0D01*
G01*
X8307000Y-6592500D02*
X8457000Y-6742500D01*
X8457000Y-6592500D02*
X8307000Y-6742500D01*
X8457000Y-6667500D02*
G75*
G03X8457000Y-6667500I-75000J0D01*
G01*
X4306500Y-7608500D02*
X4456500Y-7758500D01*
X4456500Y-7608500D02*
X4306500Y-7758500D01*
X4456500Y-7683500D02*
G75*
G03X4456500Y-7683500I-75000J0D01*
G01*
X4306500Y-8497500D02*
X4456500Y-8647500D01*
X4456500Y-8497500D02*
X4306500Y-8647500D01*
X4456500Y-8572500D02*
G75*
G03X4456500Y-8572500I-75000J0D01*
G01*
X12307500Y-7100500D02*
X12457500Y-7250500D01*
X12457500Y-7100500D02*
X12307500Y-7250500D01*
X12457500Y-7175500D02*
G75*
G03X12457500Y-7175500I-75000J0D01*
G01*
X9323000Y-6592500D02*
X9473000Y-6742500D01*
X9473000Y-6592500D02*
X9323000Y-6742500D01*
X9473000Y-6667500D02*
G75*
G03X9473000Y-6667500I-75000J0D01*
G01*
X11799500Y-6211500D02*
X11949500Y-6361500D01*
X11949500Y-6211500D02*
X11799500Y-6361500D01*
X11949500Y-6286500D02*
G75*
G03X11949500Y-6286500I-75000J0D01*
G01*
X12307500Y-6211500D02*
X12457500Y-6361500D01*
X12457500Y-6211500D02*
X12307500Y-6361500D01*
X12457500Y-6286500D02*
G75*
G03X12457500Y-6286500I-75000J0D01*
G01*
X10339000Y-6592500D02*
X10489000Y-6742500D01*
X10489000Y-6592500D02*
X10339000Y-6742500D01*
X10489000Y-6667500D02*
G75*
G03X10489000Y-6667500I-75000J0D01*
G01*
D12*
X4347928Y-10183714D02*
X4347928Y-9883714D01*
X4419357Y-9883714D01*
X4462214Y-9898000D01*
X4490786Y-9926572D01*
X4505071Y-9955143D01*
X4519357Y-10012286D01*
X4519357Y-10055143D01*
X4505071Y-10112286D01*
X4490786Y-10140857D01*
X4462214Y-10169429D01*
X4419357Y-10183714D01*
X4347928Y-10183714D01*
X4647928Y-10183714D02*
X4647928Y-9983714D01*
X4647928Y-10040857D02*
X4662214Y-10012286D01*
X4676500Y-9998000D01*
X4705071Y-9983714D01*
X4733643Y-9983714D01*
X4833643Y-10183714D02*
X4833643Y-9983714D01*
X4833643Y-9883714D02*
X4819357Y-9898000D01*
X4833643Y-9912286D01*
X4847928Y-9898000D01*
X4833643Y-9883714D01*
X4833643Y-9912286D01*
X5019357Y-10183714D02*
X4990786Y-10169429D01*
X4976500Y-10140857D01*
X4976500Y-9883714D01*
X5176500Y-10183714D02*
X5147928Y-10169429D01*
X5133643Y-10140857D01*
X5133643Y-9883714D01*
X5519357Y-10183714D02*
X5519357Y-9883714D01*
X5619357Y-10098000D01*
X5719357Y-9883714D01*
X5719357Y-10183714D01*
X5990786Y-10183714D02*
X5990786Y-10026572D01*
X5976500Y-9998000D01*
X5947928Y-9983714D01*
X5890786Y-9983714D01*
X5862214Y-9998000D01*
X5990786Y-10169429D02*
X5962214Y-10183714D01*
X5890786Y-10183714D01*
X5862214Y-10169429D01*
X5847928Y-10140857D01*
X5847928Y-10112286D01*
X5862214Y-10083714D01*
X5890786Y-10069429D01*
X5962214Y-10069429D01*
X5990786Y-10055143D01*
X6133643Y-9983714D02*
X6133643Y-10283714D01*
X6133643Y-9998000D02*
X6162214Y-9983714D01*
X6219357Y-9983714D01*
X6247928Y-9998000D01*
X6262214Y-10012286D01*
X6276500Y-10040857D01*
X6276500Y-10126572D01*
X6262214Y-10155143D01*
X6247928Y-10169429D01*
X6219357Y-10183714D01*
X6162214Y-10183714D01*
X6133643Y-10169429D01*
X6405071Y-10155143D02*
X6419357Y-10169429D01*
X6405071Y-10183714D01*
X6390786Y-10169429D01*
X6405071Y-10155143D01*
X6405071Y-10183714D01*
X6405071Y-9998000D02*
X6419357Y-10012286D01*
X6405071Y-10026572D01*
X6390786Y-10012286D01*
X6405071Y-9998000D01*
X6405071Y-10026572D01*
X4021500Y-10658000D02*
X4061500Y-10698000D01*
X4061500Y-10658000D02*
X4021500Y-10698000D01*
X4405071Y-10513714D02*
X4433643Y-10513714D01*
X4462214Y-10528000D01*
X4476500Y-10542286D01*
X4490786Y-10570857D01*
X4505071Y-10628000D01*
X4505071Y-10699429D01*
X4490786Y-10756572D01*
X4476500Y-10785143D01*
X4462214Y-10799429D01*
X4433643Y-10813714D01*
X4405071Y-10813714D01*
X4376500Y-10799429D01*
X4362214Y-10785143D01*
X4347928Y-10756572D01*
X4333643Y-10699429D01*
X4333643Y-10628000D01*
X4347928Y-10570857D01*
X4362214Y-10542286D01*
X4376500Y-10528000D01*
X4405071Y-10513714D01*
X4633643Y-10785143D02*
X4647928Y-10799429D01*
X4633643Y-10813714D01*
X4619357Y-10799429D01*
X4633643Y-10785143D01*
X4633643Y-10813714D01*
X4905071Y-10613714D02*
X4905071Y-10813714D01*
X4833643Y-10499429D02*
X4762214Y-10713714D01*
X4947928Y-10713714D01*
X5119357Y-10513714D02*
X5147928Y-10513714D01*
X5176500Y-10528000D01*
X5190786Y-10542286D01*
X5205071Y-10570857D01*
X5219357Y-10628000D01*
X5219357Y-10699429D01*
X5205071Y-10756572D01*
X5190786Y-10785143D01*
X5176500Y-10799429D01*
X5147928Y-10813714D01*
X5119357Y-10813714D01*
X5090786Y-10799429D01*
X5076500Y-10785143D01*
X5062214Y-10756572D01*
X5047928Y-10699429D01*
X5047928Y-10628000D01*
X5062214Y-10570857D01*
X5076500Y-10542286D01*
X5090786Y-10528000D01*
X5119357Y-10513714D01*
X5347928Y-10813714D02*
X5347928Y-10613714D01*
X5347928Y-10642286D02*
X5362214Y-10628000D01*
X5390786Y-10613714D01*
X5433643Y-10613714D01*
X5462214Y-10628000D01*
X5476500Y-10656572D01*
X5476500Y-10813714D01*
X5476500Y-10656572D02*
X5490786Y-10628000D01*
X5519357Y-10613714D01*
X5562214Y-10613714D01*
X5590786Y-10628000D01*
X5605071Y-10656572D01*
X5605071Y-10813714D01*
X5747928Y-10813714D02*
X5747928Y-10613714D01*
X5747928Y-10642286D02*
X5762214Y-10628000D01*
X5790786Y-10613714D01*
X5833643Y-10613714D01*
X5862214Y-10628000D01*
X5876500Y-10656572D01*
X5876500Y-10813714D01*
X5876500Y-10656572D02*
X5890786Y-10628000D01*
X5919357Y-10613714D01*
X5962214Y-10613714D01*
X5990786Y-10628000D01*
X6005071Y-10656572D01*
X6005071Y-10813714D01*
X6590786Y-10499429D02*
X6333643Y-10885143D01*
X6976500Y-10513714D02*
X7005071Y-10513714D01*
X7033643Y-10528000D01*
X7047928Y-10542286D01*
X7062214Y-10570857D01*
X7076500Y-10628000D01*
X7076500Y-10699429D01*
X7062214Y-10756572D01*
X7047928Y-10785143D01*
X7033643Y-10799429D01*
X7005071Y-10813714D01*
X6976500Y-10813714D01*
X6947928Y-10799429D01*
X6933643Y-10785143D01*
X6919357Y-10756572D01*
X6905071Y-10699429D01*
X6905071Y-10628000D01*
X6919357Y-10570857D01*
X6933643Y-10542286D01*
X6947928Y-10528000D01*
X6976500Y-10513714D01*
X7205071Y-10785143D02*
X7219357Y-10799429D01*
X7205071Y-10813714D01*
X7190786Y-10799429D01*
X7205071Y-10785143D01*
X7205071Y-10813714D01*
X7405071Y-10513714D02*
X7433643Y-10513714D01*
X7462214Y-10528000D01*
X7476500Y-10542286D01*
X7490786Y-10570857D01*
X7505071Y-10628000D01*
X7505071Y-10699429D01*
X7490786Y-10756572D01*
X7476500Y-10785143D01*
X7462214Y-10799429D01*
X7433643Y-10813714D01*
X7405071Y-10813714D01*
X7376500Y-10799429D01*
X7362214Y-10785143D01*
X7347928Y-10756572D01*
X7333643Y-10699429D01*
X7333643Y-10628000D01*
X7347928Y-10570857D01*
X7362214Y-10542286D01*
X7376500Y-10528000D01*
X7405071Y-10513714D01*
X7790786Y-10813714D02*
X7619357Y-10813714D01*
X7705071Y-10813714D02*
X7705071Y-10513714D01*
X7676500Y-10556572D01*
X7647928Y-10585143D01*
X7619357Y-10599429D01*
X8047928Y-10513714D02*
X7990786Y-10513714D01*
X7962214Y-10528000D01*
X7947928Y-10542286D01*
X7919357Y-10585143D01*
X7905071Y-10642286D01*
X7905071Y-10756572D01*
X7919357Y-10785143D01*
X7933643Y-10799429D01*
X7962214Y-10813714D01*
X8019357Y-10813714D01*
X8047928Y-10799429D01*
X8062214Y-10785143D01*
X8076500Y-10756572D01*
X8076500Y-10685143D01*
X8062214Y-10656572D01*
X8047928Y-10642286D01*
X8019357Y-10628000D01*
X7962214Y-10628000D01*
X7933643Y-10642286D01*
X7919357Y-10656572D01*
X7905071Y-10685143D01*
X8190786Y-10513714D02*
X8190786Y-10570857D01*
X8305071Y-10513714D02*
X8305071Y-10570857D01*
X8747928Y-10928000D02*
X8733643Y-10913714D01*
X8705071Y-10870857D01*
X8690786Y-10842286D01*
X8676500Y-10799429D01*
X8662214Y-10728000D01*
X8662214Y-10670857D01*
X8676500Y-10599429D01*
X8690786Y-10556572D01*
X8705071Y-10528000D01*
X8733643Y-10485143D01*
X8747928Y-10470857D01*
X8847928Y-10542286D02*
X8862214Y-10528000D01*
X8890786Y-10513714D01*
X8962214Y-10513714D01*
X8990786Y-10528000D01*
X9005071Y-10542286D01*
X9019357Y-10570857D01*
X9019357Y-10599429D01*
X9005071Y-10642286D01*
X8833643Y-10813714D01*
X9019357Y-10813714D01*
X9276500Y-10513714D02*
X9219357Y-10513714D01*
X9190786Y-10528000D01*
X9176500Y-10542286D01*
X9147928Y-10585143D01*
X9133643Y-10642286D01*
X9133643Y-10756572D01*
X9147928Y-10785143D01*
X9162214Y-10799429D01*
X9190786Y-10813714D01*
X9247928Y-10813714D01*
X9276500Y-10799429D01*
X9290786Y-10785143D01*
X9305071Y-10756572D01*
X9305071Y-10685143D01*
X9290786Y-10656572D01*
X9276500Y-10642286D01*
X9247928Y-10628000D01*
X9190786Y-10628000D01*
X9162214Y-10642286D01*
X9147928Y-10656572D01*
X9133643Y-10685143D01*
X9490786Y-10513714D02*
X9519357Y-10513714D01*
X9547928Y-10528000D01*
X9562214Y-10542286D01*
X9576500Y-10570857D01*
X9590786Y-10628000D01*
X9590786Y-10699429D01*
X9576500Y-10756572D01*
X9562214Y-10785143D01*
X9547928Y-10799429D01*
X9519357Y-10813714D01*
X9490786Y-10813714D01*
X9462214Y-10799429D01*
X9447928Y-10785143D01*
X9433643Y-10756572D01*
X9419357Y-10699429D01*
X9419357Y-10628000D01*
X9433643Y-10570857D01*
X9447928Y-10542286D01*
X9462214Y-10528000D01*
X9490786Y-10513714D01*
X9947928Y-10813714D02*
X9947928Y-10513714D01*
X10076500Y-10813714D02*
X10076500Y-10656572D01*
X10062214Y-10628000D01*
X10033643Y-10613714D01*
X9990786Y-10613714D01*
X9962214Y-10628000D01*
X9947928Y-10642286D01*
X10262214Y-10813714D02*
X10233643Y-10799429D01*
X10219357Y-10785143D01*
X10205071Y-10756572D01*
X10205071Y-10670857D01*
X10219357Y-10642286D01*
X10233643Y-10628000D01*
X10262214Y-10613714D01*
X10305071Y-10613714D01*
X10333643Y-10628000D01*
X10347928Y-10642286D01*
X10362214Y-10670857D01*
X10362214Y-10756572D01*
X10347928Y-10785143D01*
X10333643Y-10799429D01*
X10305071Y-10813714D01*
X10262214Y-10813714D01*
X10533643Y-10813714D02*
X10505071Y-10799429D01*
X10490786Y-10770857D01*
X10490786Y-10513714D01*
X10762214Y-10799429D02*
X10733643Y-10813714D01*
X10676500Y-10813714D01*
X10647928Y-10799429D01*
X10633643Y-10770857D01*
X10633643Y-10656572D01*
X10647928Y-10628000D01*
X10676500Y-10613714D01*
X10733643Y-10613714D01*
X10762214Y-10628000D01*
X10776500Y-10656572D01*
X10776500Y-10685143D01*
X10633643Y-10713714D01*
X10890786Y-10799429D02*
X10919357Y-10813714D01*
X10976500Y-10813714D01*
X11005071Y-10799429D01*
X11019357Y-10770857D01*
X11019357Y-10756572D01*
X11005071Y-10728000D01*
X10976500Y-10713714D01*
X10933643Y-10713714D01*
X10905071Y-10699429D01*
X10890786Y-10670857D01*
X10890786Y-10656572D01*
X10905071Y-10628000D01*
X10933643Y-10613714D01*
X10976500Y-10613714D01*
X11005071Y-10628000D01*
X11119357Y-10928000D02*
X11133643Y-10913714D01*
X11162214Y-10870857D01*
X11176500Y-10842286D01*
X11190786Y-10799429D01*
X11205071Y-10728000D01*
X11205071Y-10670857D01*
X11190786Y-10599429D01*
X11176500Y-10556572D01*
X11162214Y-10528000D01*
X11133643Y-10485143D01*
X11119357Y-10470857D01*
X4061500Y-11074000D02*
G75*
G03X4061500Y-11074000I-27500J0D01*
G01*
X4405071Y-10909714D02*
X4433643Y-10909714D01*
X4462214Y-10924000D01*
X4476500Y-10938286D01*
X4490786Y-10966857D01*
X4505071Y-11024000D01*
X4505071Y-11095429D01*
X4490786Y-11152572D01*
X4476500Y-11181143D01*
X4462214Y-11195429D01*
X4433643Y-11209714D01*
X4405071Y-11209714D01*
X4376500Y-11195429D01*
X4362214Y-11181143D01*
X4347928Y-11152572D01*
X4333643Y-11095429D01*
X4333643Y-11024000D01*
X4347928Y-10966857D01*
X4362214Y-10938286D01*
X4376500Y-10924000D01*
X4405071Y-10909714D01*
X4633643Y-11181143D02*
X4647928Y-11195429D01*
X4633643Y-11209714D01*
X4619357Y-11195429D01*
X4633643Y-11181143D01*
X4633643Y-11209714D01*
X4919357Y-10909714D02*
X4776500Y-10909714D01*
X4762214Y-11052572D01*
X4776500Y-11038286D01*
X4805071Y-11024000D01*
X4876500Y-11024000D01*
X4905071Y-11038286D01*
X4919357Y-11052572D01*
X4933643Y-11081143D01*
X4933643Y-11152572D01*
X4919357Y-11181143D01*
X4905071Y-11195429D01*
X4876500Y-11209714D01*
X4805071Y-11209714D01*
X4776500Y-11195429D01*
X4762214Y-11181143D01*
X5205071Y-10909714D02*
X5062214Y-10909714D01*
X5047928Y-11052572D01*
X5062214Y-11038286D01*
X5090786Y-11024000D01*
X5162214Y-11024000D01*
X5190786Y-11038286D01*
X5205071Y-11052572D01*
X5219357Y-11081143D01*
X5219357Y-11152572D01*
X5205071Y-11181143D01*
X5190786Y-11195429D01*
X5162214Y-11209714D01*
X5090786Y-11209714D01*
X5062214Y-11195429D01*
X5047928Y-11181143D01*
X5347928Y-11209714D02*
X5347928Y-11009714D01*
X5347928Y-11038286D02*
X5362214Y-11024000D01*
X5390786Y-11009714D01*
X5433643Y-11009714D01*
X5462214Y-11024000D01*
X5476500Y-11052572D01*
X5476500Y-11209714D01*
X5476500Y-11052572D02*
X5490786Y-11024000D01*
X5519357Y-11009714D01*
X5562214Y-11009714D01*
X5590786Y-11024000D01*
X5605071Y-11052572D01*
X5605071Y-11209714D01*
X5747928Y-11209714D02*
X5747928Y-11009714D01*
X5747928Y-11038286D02*
X5762214Y-11024000D01*
X5790786Y-11009714D01*
X5833643Y-11009714D01*
X5862214Y-11024000D01*
X5876500Y-11052572D01*
X5876500Y-11209714D01*
X5876500Y-11052572D02*
X5890786Y-11024000D01*
X5919357Y-11009714D01*
X5962214Y-11009714D01*
X5990786Y-11024000D01*
X6005071Y-11052572D01*
X6005071Y-11209714D01*
X6590786Y-10895429D02*
X6333643Y-11281143D01*
X6976500Y-10909714D02*
X7005071Y-10909714D01*
X7033643Y-10924000D01*
X7047928Y-10938286D01*
X7062214Y-10966857D01*
X7076500Y-11024000D01*
X7076500Y-11095429D01*
X7062214Y-11152572D01*
X7047928Y-11181143D01*
X7033643Y-11195429D01*
X7005071Y-11209714D01*
X6976500Y-11209714D01*
X6947928Y-11195429D01*
X6933643Y-11181143D01*
X6919357Y-11152572D01*
X6905071Y-11095429D01*
X6905071Y-11024000D01*
X6919357Y-10966857D01*
X6933643Y-10938286D01*
X6947928Y-10924000D01*
X6976500Y-10909714D01*
X7205071Y-11181143D02*
X7219357Y-11195429D01*
X7205071Y-11209714D01*
X7190786Y-11195429D01*
X7205071Y-11181143D01*
X7205071Y-11209714D01*
X7405071Y-10909714D02*
X7433643Y-10909714D01*
X7462214Y-10924000D01*
X7476500Y-10938286D01*
X7490786Y-10966857D01*
X7505071Y-11024000D01*
X7505071Y-11095429D01*
X7490786Y-11152572D01*
X7476500Y-11181143D01*
X7462214Y-11195429D01*
X7433643Y-11209714D01*
X7405071Y-11209714D01*
X7376500Y-11195429D01*
X7362214Y-11181143D01*
X7347928Y-11152572D01*
X7333643Y-11095429D01*
X7333643Y-11024000D01*
X7347928Y-10966857D01*
X7362214Y-10938286D01*
X7376500Y-10924000D01*
X7405071Y-10909714D01*
X7619357Y-10938286D02*
X7633643Y-10924000D01*
X7662214Y-10909714D01*
X7733643Y-10909714D01*
X7762214Y-10924000D01*
X7776500Y-10938286D01*
X7790786Y-10966857D01*
X7790786Y-10995429D01*
X7776500Y-11038286D01*
X7605071Y-11209714D01*
X7790786Y-11209714D01*
X7905071Y-10938286D02*
X7919357Y-10924000D01*
X7947928Y-10909714D01*
X8019357Y-10909714D01*
X8047928Y-10924000D01*
X8062214Y-10938286D01*
X8076500Y-10966857D01*
X8076500Y-10995429D01*
X8062214Y-11038286D01*
X7890786Y-11209714D01*
X8076500Y-11209714D01*
X8190786Y-10909714D02*
X8190786Y-10966857D01*
X8305071Y-10909714D02*
X8305071Y-10966857D01*
X8747928Y-11324000D02*
X8733643Y-11309714D01*
X8705071Y-11266857D01*
X8690786Y-11238286D01*
X8676500Y-11195429D01*
X8662214Y-11124000D01*
X8662214Y-11066857D01*
X8676500Y-10995429D01*
X8690786Y-10952572D01*
X8705071Y-10924000D01*
X8733643Y-10881143D01*
X8747928Y-10866857D01*
X8919357Y-10909714D02*
X8947928Y-10909714D01*
X8976500Y-10924000D01*
X8990786Y-10938286D01*
X9005071Y-10966857D01*
X9019357Y-11024000D01*
X9019357Y-11095429D01*
X9005071Y-11152572D01*
X8990786Y-11181143D01*
X8976500Y-11195429D01*
X8947928Y-11209714D01*
X8919357Y-11209714D01*
X8890786Y-11195429D01*
X8876500Y-11181143D01*
X8862214Y-11152572D01*
X8847928Y-11095429D01*
X8847928Y-11024000D01*
X8862214Y-10966857D01*
X8876500Y-10938286D01*
X8890786Y-10924000D01*
X8919357Y-10909714D01*
X9376500Y-11209714D02*
X9376500Y-10909714D01*
X9505071Y-11209714D02*
X9505071Y-11052572D01*
X9490786Y-11024000D01*
X9462214Y-11009714D01*
X9419357Y-11009714D01*
X9390786Y-11024000D01*
X9376500Y-11038286D01*
X9690786Y-11209714D02*
X9662214Y-11195429D01*
X9647928Y-11181143D01*
X9633643Y-11152572D01*
X9633643Y-11066857D01*
X9647928Y-11038286D01*
X9662214Y-11024000D01*
X9690786Y-11009714D01*
X9733643Y-11009714D01*
X9762214Y-11024000D01*
X9776500Y-11038286D01*
X9790786Y-11066857D01*
X9790786Y-11152572D01*
X9776500Y-11181143D01*
X9762214Y-11195429D01*
X9733643Y-11209714D01*
X9690786Y-11209714D01*
X9962214Y-11209714D02*
X9933643Y-11195429D01*
X9919357Y-11166857D01*
X9919357Y-10909714D01*
X10190786Y-11195429D02*
X10162214Y-11209714D01*
X10105071Y-11209714D01*
X10076500Y-11195429D01*
X10062214Y-11166857D01*
X10062214Y-11052572D01*
X10076500Y-11024000D01*
X10105071Y-11009714D01*
X10162214Y-11009714D01*
X10190786Y-11024000D01*
X10205071Y-11052572D01*
X10205071Y-11081143D01*
X10062214Y-11109714D01*
X10319357Y-11195429D02*
X10347928Y-11209714D01*
X10405071Y-11209714D01*
X10433643Y-11195429D01*
X10447928Y-11166857D01*
X10447928Y-11152572D01*
X10433643Y-11124000D01*
X10405071Y-11109714D01*
X10362214Y-11109714D01*
X10333643Y-11095429D01*
X10319357Y-11066857D01*
X10319357Y-11052572D01*
X10333643Y-11024000D01*
X10362214Y-11009714D01*
X10405071Y-11009714D01*
X10433643Y-11024000D01*
X10805071Y-11095429D02*
X11033643Y-11095429D01*
X10919357Y-11209714D02*
X10919357Y-10981143D01*
X11390786Y-10938286D02*
X11405071Y-10924000D01*
X11433643Y-10909714D01*
X11505071Y-10909714D01*
X11533643Y-10924000D01*
X11547928Y-10938286D01*
X11562214Y-10966857D01*
X11562214Y-10995429D01*
X11547928Y-11038286D01*
X11376500Y-11209714D01*
X11562214Y-11209714D01*
X11905071Y-11195429D02*
X11933643Y-11209714D01*
X11990786Y-11209714D01*
X12019357Y-11195429D01*
X12033643Y-11166857D01*
X12033643Y-11152572D01*
X12019357Y-11124000D01*
X11990786Y-11109714D01*
X11947928Y-11109714D01*
X11919357Y-11095429D01*
X11905071Y-11066857D01*
X11905071Y-11052572D01*
X11919357Y-11024000D01*
X11947928Y-11009714D01*
X11990786Y-11009714D01*
X12019357Y-11024000D01*
X12205071Y-11209714D02*
X12176500Y-11195429D01*
X12162214Y-11166857D01*
X12162214Y-10909714D01*
X12362214Y-11209714D02*
X12333643Y-11195429D01*
X12319357Y-11181143D01*
X12305071Y-11152572D01*
X12305071Y-11066857D01*
X12319357Y-11038286D01*
X12333643Y-11024000D01*
X12362214Y-11009714D01*
X12405071Y-11009714D01*
X12433643Y-11024000D01*
X12447928Y-11038286D01*
X12462214Y-11066857D01*
X12462214Y-11152572D01*
X12447928Y-11181143D01*
X12433643Y-11195429D01*
X12405071Y-11209714D01*
X12362214Y-11209714D01*
X12547928Y-11009714D02*
X12662214Y-11009714D01*
X12590786Y-10909714D02*
X12590786Y-11166857D01*
X12605071Y-11195429D01*
X12633643Y-11209714D01*
X12662214Y-11209714D01*
X12747928Y-11195429D02*
X12776500Y-11209714D01*
X12833643Y-11209714D01*
X12862214Y-11195429D01*
X12876500Y-11166857D01*
X12876500Y-11152572D01*
X12862214Y-11124000D01*
X12833643Y-11109714D01*
X12790786Y-11109714D01*
X12762214Y-11095429D01*
X12747928Y-11066857D01*
X12747928Y-11052572D01*
X12762214Y-11024000D01*
X12790786Y-11009714D01*
X12833643Y-11009714D01*
X12862214Y-11024000D01*
X12976500Y-11324000D02*
X12990786Y-11309714D01*
X13019357Y-11266857D01*
X13033643Y-11238286D01*
X13047928Y-11195429D01*
X13062214Y-11124000D01*
X13062214Y-11066857D01*
X13047928Y-10995429D01*
X13033643Y-10952572D01*
X13019357Y-10924000D01*
X12990786Y-10881143D01*
X12976500Y-10866857D01*
X4019000Y-11427500D02*
X4019000Y-11512500D01*
X3976500Y-11470000D02*
X4061500Y-11470000D01*
X4405071Y-11305714D02*
X4433643Y-11305714D01*
X4462214Y-11320000D01*
X4476500Y-11334286D01*
X4490786Y-11362857D01*
X4505071Y-11420000D01*
X4505071Y-11491429D01*
X4490786Y-11548571D01*
X4476500Y-11577143D01*
X4462214Y-11591429D01*
X4433643Y-11605714D01*
X4405071Y-11605714D01*
X4376500Y-11591429D01*
X4362214Y-11577143D01*
X4347928Y-11548571D01*
X4333643Y-11491429D01*
X4333643Y-11420000D01*
X4347928Y-11362857D01*
X4362214Y-11334286D01*
X4376500Y-11320000D01*
X4405071Y-11305714D01*
X4633643Y-11577143D02*
X4647928Y-11591429D01*
X4633643Y-11605714D01*
X4619357Y-11591429D01*
X4633643Y-11577143D01*
X4633643Y-11605714D01*
X4819357Y-11434286D02*
X4790786Y-11420000D01*
X4776500Y-11405714D01*
X4762214Y-11377143D01*
X4762214Y-11362857D01*
X4776500Y-11334286D01*
X4790786Y-11320000D01*
X4819357Y-11305714D01*
X4876500Y-11305714D01*
X4905071Y-11320000D01*
X4919357Y-11334286D01*
X4933643Y-11362857D01*
X4933643Y-11377143D01*
X4919357Y-11405714D01*
X4905071Y-11420000D01*
X4876500Y-11434286D01*
X4819357Y-11434286D01*
X4790786Y-11448571D01*
X4776500Y-11462857D01*
X4762214Y-11491429D01*
X4762214Y-11548571D01*
X4776500Y-11577143D01*
X4790786Y-11591429D01*
X4819357Y-11605714D01*
X4876500Y-11605714D01*
X4905071Y-11591429D01*
X4919357Y-11577143D01*
X4933643Y-11548571D01*
X4933643Y-11491429D01*
X4919357Y-11462857D01*
X4905071Y-11448571D01*
X4876500Y-11434286D01*
X5205071Y-11305714D02*
X5062214Y-11305714D01*
X5047928Y-11448571D01*
X5062214Y-11434286D01*
X5090786Y-11420000D01*
X5162214Y-11420000D01*
X5190786Y-11434286D01*
X5205071Y-11448571D01*
X5219357Y-11477143D01*
X5219357Y-11548571D01*
X5205071Y-11577143D01*
X5190786Y-11591429D01*
X5162214Y-11605714D01*
X5090786Y-11605714D01*
X5062214Y-11591429D01*
X5047928Y-11577143D01*
X5347928Y-11605714D02*
X5347928Y-11405714D01*
X5347928Y-11434286D02*
X5362214Y-11420000D01*
X5390786Y-11405714D01*
X5433643Y-11405714D01*
X5462214Y-11420000D01*
X5476500Y-11448571D01*
X5476500Y-11605714D01*
X5476500Y-11448571D02*
X5490786Y-11420000D01*
X5519357Y-11405714D01*
X5562214Y-11405714D01*
X5590786Y-11420000D01*
X5605071Y-11448571D01*
X5605071Y-11605714D01*
X5747928Y-11605714D02*
X5747928Y-11405714D01*
X5747928Y-11434286D02*
X5762214Y-11420000D01*
X5790786Y-11405714D01*
X5833643Y-11405714D01*
X5862214Y-11420000D01*
X5876500Y-11448571D01*
X5876500Y-11605714D01*
X5876500Y-11448571D02*
X5890786Y-11420000D01*
X5919357Y-11405714D01*
X5962214Y-11405714D01*
X5990786Y-11420000D01*
X6005071Y-11448571D01*
X6005071Y-11605714D01*
X6590786Y-11291429D02*
X6333643Y-11677143D01*
X6976500Y-11305714D02*
X7005071Y-11305714D01*
X7033643Y-11320000D01*
X7047928Y-11334286D01*
X7062214Y-11362857D01*
X7076500Y-11420000D01*
X7076500Y-11491429D01*
X7062214Y-11548571D01*
X7047928Y-11577143D01*
X7033643Y-11591429D01*
X7005071Y-11605714D01*
X6976500Y-11605714D01*
X6947928Y-11591429D01*
X6933643Y-11577143D01*
X6919357Y-11548571D01*
X6905071Y-11491429D01*
X6905071Y-11420000D01*
X6919357Y-11362857D01*
X6933643Y-11334286D01*
X6947928Y-11320000D01*
X6976500Y-11305714D01*
X7205071Y-11577143D02*
X7219357Y-11591429D01*
X7205071Y-11605714D01*
X7190786Y-11591429D01*
X7205071Y-11577143D01*
X7205071Y-11605714D01*
X7405071Y-11305714D02*
X7433643Y-11305714D01*
X7462214Y-11320000D01*
X7476500Y-11334286D01*
X7490786Y-11362857D01*
X7505071Y-11420000D01*
X7505071Y-11491429D01*
X7490786Y-11548571D01*
X7476500Y-11577143D01*
X7462214Y-11591429D01*
X7433643Y-11605714D01*
X7405071Y-11605714D01*
X7376500Y-11591429D01*
X7362214Y-11577143D01*
X7347928Y-11548571D01*
X7333643Y-11491429D01*
X7333643Y-11420000D01*
X7347928Y-11362857D01*
X7362214Y-11334286D01*
X7376500Y-11320000D01*
X7405071Y-11305714D01*
X7605071Y-11305714D02*
X7790786Y-11305714D01*
X7690786Y-11420000D01*
X7733643Y-11420000D01*
X7762214Y-11434286D01*
X7776500Y-11448571D01*
X7790786Y-11477143D01*
X7790786Y-11548571D01*
X7776500Y-11577143D01*
X7762214Y-11591429D01*
X7733643Y-11605714D01*
X7647928Y-11605714D01*
X7619357Y-11591429D01*
X7605071Y-11577143D01*
X7890786Y-11305714D02*
X8076500Y-11305714D01*
X7976500Y-11420000D01*
X8019357Y-11420000D01*
X8047928Y-11434286D01*
X8062214Y-11448571D01*
X8076500Y-11477143D01*
X8076500Y-11548571D01*
X8062214Y-11577143D01*
X8047928Y-11591429D01*
X8019357Y-11605714D01*
X7933643Y-11605714D01*
X7905071Y-11591429D01*
X7890786Y-11577143D01*
X8190786Y-11305714D02*
X8190786Y-11362857D01*
X8305071Y-11305714D02*
X8305071Y-11362857D01*
X8747928Y-11720000D02*
X8733643Y-11705714D01*
X8705071Y-11662857D01*
X8690786Y-11634286D01*
X8676500Y-11591429D01*
X8662214Y-11520000D01*
X8662214Y-11462857D01*
X8676500Y-11391429D01*
X8690786Y-11348571D01*
X8705071Y-11320000D01*
X8733643Y-11277143D01*
X8747928Y-11262857D01*
X8919357Y-11305714D02*
X8947928Y-11305714D01*
X8976500Y-11320000D01*
X8990786Y-11334286D01*
X9005071Y-11362857D01*
X9019357Y-11420000D01*
X9019357Y-11491429D01*
X9005071Y-11548571D01*
X8990786Y-11577143D01*
X8976500Y-11591429D01*
X8947928Y-11605714D01*
X8919357Y-11605714D01*
X8890786Y-11591429D01*
X8876500Y-11577143D01*
X8862214Y-11548571D01*
X8847928Y-11491429D01*
X8847928Y-11420000D01*
X8862214Y-11362857D01*
X8876500Y-11334286D01*
X8890786Y-11320000D01*
X8919357Y-11305714D01*
X9376500Y-11605714D02*
X9376500Y-11305714D01*
X9505071Y-11605714D02*
X9505071Y-11448571D01*
X9490786Y-11420000D01*
X9462214Y-11405714D01*
X9419357Y-11405714D01*
X9390786Y-11420000D01*
X9376500Y-11434286D01*
X9690786Y-11605714D02*
X9662214Y-11591429D01*
X9647928Y-11577143D01*
X9633643Y-11548571D01*
X9633643Y-11462857D01*
X9647928Y-11434286D01*
X9662214Y-11420000D01*
X9690786Y-11405714D01*
X9733643Y-11405714D01*
X9762214Y-11420000D01*
X9776500Y-11434286D01*
X9790786Y-11462857D01*
X9790786Y-11548571D01*
X9776500Y-11577143D01*
X9762214Y-11591429D01*
X9733643Y-11605714D01*
X9690786Y-11605714D01*
X9962214Y-11605714D02*
X9933643Y-11591429D01*
X9919357Y-11562857D01*
X9919357Y-11305714D01*
X10190786Y-11591429D02*
X10162214Y-11605714D01*
X10105071Y-11605714D01*
X10076500Y-11591429D01*
X10062214Y-11562857D01*
X10062214Y-11448571D01*
X10076500Y-11420000D01*
X10105071Y-11405714D01*
X10162214Y-11405714D01*
X10190786Y-11420000D01*
X10205071Y-11448571D01*
X10205071Y-11477143D01*
X10062214Y-11505714D01*
X10319357Y-11591429D02*
X10347928Y-11605714D01*
X10405071Y-11605714D01*
X10433643Y-11591429D01*
X10447928Y-11562857D01*
X10447928Y-11548571D01*
X10433643Y-11520000D01*
X10405071Y-11505714D01*
X10362214Y-11505714D01*
X10333643Y-11491429D01*
X10319357Y-11462857D01*
X10319357Y-11448571D01*
X10333643Y-11420000D01*
X10362214Y-11405714D01*
X10405071Y-11405714D01*
X10433643Y-11420000D01*
X10805071Y-11491429D02*
X11033643Y-11491429D01*
X10919357Y-11605714D02*
X10919357Y-11377143D01*
X11390786Y-11334286D02*
X11405071Y-11320000D01*
X11433643Y-11305714D01*
X11505071Y-11305714D01*
X11533643Y-11320000D01*
X11547928Y-11334286D01*
X11562214Y-11362857D01*
X11562214Y-11391429D01*
X11547928Y-11434286D01*
X11376500Y-11605714D01*
X11562214Y-11605714D01*
X11905071Y-11591429D02*
X11933643Y-11605714D01*
X11990786Y-11605714D01*
X12019357Y-11591429D01*
X12033643Y-11562857D01*
X12033643Y-11548571D01*
X12019357Y-11520000D01*
X11990786Y-11505714D01*
X11947928Y-11505714D01*
X11919357Y-11491429D01*
X11905071Y-11462857D01*
X11905071Y-11448571D01*
X11919357Y-11420000D01*
X11947928Y-11405714D01*
X11990786Y-11405714D01*
X12019357Y-11420000D01*
X12205071Y-11605714D02*
X12176500Y-11591429D01*
X12162214Y-11562857D01*
X12162214Y-11305714D01*
X12362214Y-11605714D02*
X12333643Y-11591429D01*
X12319357Y-11577143D01*
X12305071Y-11548571D01*
X12305071Y-11462857D01*
X12319357Y-11434286D01*
X12333643Y-11420000D01*
X12362214Y-11405714D01*
X12405071Y-11405714D01*
X12433643Y-11420000D01*
X12447928Y-11434286D01*
X12462214Y-11462857D01*
X12462214Y-11548571D01*
X12447928Y-11577143D01*
X12433643Y-11591429D01*
X12405071Y-11605714D01*
X12362214Y-11605714D01*
X12547928Y-11405714D02*
X12662214Y-11405714D01*
X12590786Y-11305714D02*
X12590786Y-11562857D01*
X12605071Y-11591429D01*
X12633643Y-11605714D01*
X12662214Y-11605714D01*
X12747928Y-11591429D02*
X12776500Y-11605714D01*
X12833643Y-11605714D01*
X12862214Y-11591429D01*
X12876500Y-11562857D01*
X12876500Y-11548571D01*
X12862214Y-11520000D01*
X12833643Y-11505714D01*
X12790786Y-11505714D01*
X12762214Y-11491429D01*
X12747928Y-11462857D01*
X12747928Y-11448571D01*
X12762214Y-11420000D01*
X12790786Y-11405714D01*
X12833643Y-11405714D01*
X12862214Y-11420000D01*
X12976500Y-11720000D02*
X12990786Y-11705714D01*
X13019357Y-11662857D01*
X13033643Y-11634286D01*
X13047928Y-11591429D01*
X13062214Y-11520000D01*
X13062214Y-11462857D01*
X13047928Y-11391429D01*
X13033643Y-11348571D01*
X13019357Y-11320000D01*
X12990786Y-11277143D01*
X12976500Y-11262857D01*
X4046856Y-11901356D02*
X4046856Y-11830644D01*
X3976144Y-11830644D01*
X3976144Y-11901356D01*
X4046856Y-11901356D01*
X4505071Y-12001714D02*
X4333643Y-12001714D01*
X4419357Y-12001714D02*
X4419357Y-11701714D01*
X4390786Y-11744571D01*
X4362214Y-11773143D01*
X4333643Y-11787429D01*
X4633643Y-11973143D02*
X4647928Y-11987429D01*
X4633643Y-12001714D01*
X4619357Y-11987429D01*
X4633643Y-11973143D01*
X4633643Y-12001714D01*
X4833643Y-11701714D02*
X4862214Y-11701714D01*
X4890786Y-11716000D01*
X4905071Y-11730286D01*
X4919357Y-11758857D01*
X4933643Y-11816000D01*
X4933643Y-11887429D01*
X4919357Y-11944571D01*
X4905071Y-11973143D01*
X4890786Y-11987429D01*
X4862214Y-12001714D01*
X4833643Y-12001714D01*
X4805071Y-11987429D01*
X4790786Y-11973143D01*
X4776500Y-11944571D01*
X4762214Y-11887429D01*
X4762214Y-11816000D01*
X4776500Y-11758857D01*
X4790786Y-11730286D01*
X4805071Y-11716000D01*
X4833643Y-11701714D01*
X5119357Y-11701714D02*
X5147928Y-11701714D01*
X5176500Y-11716000D01*
X5190786Y-11730286D01*
X5205071Y-11758857D01*
X5219357Y-11816000D01*
X5219357Y-11887429D01*
X5205071Y-11944571D01*
X5190786Y-11973143D01*
X5176500Y-11987429D01*
X5147928Y-12001714D01*
X5119357Y-12001714D01*
X5090786Y-11987429D01*
X5076500Y-11973143D01*
X5062214Y-11944571D01*
X5047928Y-11887429D01*
X5047928Y-11816000D01*
X5062214Y-11758857D01*
X5076500Y-11730286D01*
X5090786Y-11716000D01*
X5119357Y-11701714D01*
X5347928Y-12001714D02*
X5347928Y-11801714D01*
X5347928Y-11830286D02*
X5362214Y-11816000D01*
X5390786Y-11801714D01*
X5433643Y-11801714D01*
X5462214Y-11816000D01*
X5476500Y-11844571D01*
X5476500Y-12001714D01*
X5476500Y-11844571D02*
X5490786Y-11816000D01*
X5519357Y-11801714D01*
X5562214Y-11801714D01*
X5590786Y-11816000D01*
X5605071Y-11844571D01*
X5605071Y-12001714D01*
X5747928Y-12001714D02*
X5747928Y-11801714D01*
X5747928Y-11830286D02*
X5762214Y-11816000D01*
X5790786Y-11801714D01*
X5833643Y-11801714D01*
X5862214Y-11816000D01*
X5876500Y-11844571D01*
X5876500Y-12001714D01*
X5876500Y-11844571D02*
X5890786Y-11816000D01*
X5919357Y-11801714D01*
X5962214Y-11801714D01*
X5990786Y-11816000D01*
X6005071Y-11844571D01*
X6005071Y-12001714D01*
X6590786Y-11687429D02*
X6333643Y-12073143D01*
X6976500Y-11701714D02*
X7005071Y-11701714D01*
X7033643Y-11716000D01*
X7047928Y-11730286D01*
X7062214Y-11758857D01*
X7076500Y-11816000D01*
X7076500Y-11887429D01*
X7062214Y-11944571D01*
X7047928Y-11973143D01*
X7033643Y-11987429D01*
X7005071Y-12001714D01*
X6976500Y-12001714D01*
X6947928Y-11987429D01*
X6933643Y-11973143D01*
X6919357Y-11944571D01*
X6905071Y-11887429D01*
X6905071Y-11816000D01*
X6919357Y-11758857D01*
X6933643Y-11730286D01*
X6947928Y-11716000D01*
X6976500Y-11701714D01*
X7205071Y-11973143D02*
X7219357Y-11987429D01*
X7205071Y-12001714D01*
X7190786Y-11987429D01*
X7205071Y-11973143D01*
X7205071Y-12001714D01*
X7405071Y-11701714D02*
X7433643Y-11701714D01*
X7462214Y-11716000D01*
X7476500Y-11730286D01*
X7490786Y-11758857D01*
X7505071Y-11816000D01*
X7505071Y-11887429D01*
X7490786Y-11944571D01*
X7476500Y-11973143D01*
X7462214Y-11987429D01*
X7433643Y-12001714D01*
X7405071Y-12001714D01*
X7376500Y-11987429D01*
X7362214Y-11973143D01*
X7347928Y-11944571D01*
X7333643Y-11887429D01*
X7333643Y-11816000D01*
X7347928Y-11758857D01*
X7362214Y-11730286D01*
X7376500Y-11716000D01*
X7405071Y-11701714D01*
X7605071Y-11701714D02*
X7790786Y-11701714D01*
X7690786Y-11816000D01*
X7733643Y-11816000D01*
X7762214Y-11830286D01*
X7776500Y-11844571D01*
X7790786Y-11873143D01*
X7790786Y-11944571D01*
X7776500Y-11973143D01*
X7762214Y-11987429D01*
X7733643Y-12001714D01*
X7647928Y-12001714D01*
X7619357Y-11987429D01*
X7605071Y-11973143D01*
X7933643Y-12001714D02*
X7990786Y-12001714D01*
X8019357Y-11987429D01*
X8033643Y-11973143D01*
X8062214Y-11930286D01*
X8076500Y-11873143D01*
X8076500Y-11758857D01*
X8062214Y-11730286D01*
X8047928Y-11716000D01*
X8019357Y-11701714D01*
X7962214Y-11701714D01*
X7933643Y-11716000D01*
X7919357Y-11730286D01*
X7905071Y-11758857D01*
X7905071Y-11830286D01*
X7919357Y-11858857D01*
X7933643Y-11873143D01*
X7962214Y-11887429D01*
X8019357Y-11887429D01*
X8047928Y-11873143D01*
X8062214Y-11858857D01*
X8076500Y-11830286D01*
X8190786Y-11701714D02*
X8190786Y-11758857D01*
X8305071Y-11701714D02*
X8305071Y-11758857D01*
X8747928Y-12116000D02*
X8733643Y-12101714D01*
X8705071Y-12058857D01*
X8690786Y-12030286D01*
X8676500Y-11987429D01*
X8662214Y-11916000D01*
X8662214Y-11858857D01*
X8676500Y-11787429D01*
X8690786Y-11744571D01*
X8705071Y-11716000D01*
X8733643Y-11673143D01*
X8747928Y-11658857D01*
X9019357Y-12001714D02*
X8847928Y-12001714D01*
X8933643Y-12001714D02*
X8933643Y-11701714D01*
X8905071Y-11744571D01*
X8876500Y-11773143D01*
X8847928Y-11787429D01*
X9205071Y-11701714D02*
X9233643Y-11701714D01*
X9262214Y-11716000D01*
X9276500Y-11730286D01*
X9290786Y-11758857D01*
X9305071Y-11816000D01*
X9305071Y-11887429D01*
X9290786Y-11944571D01*
X9276500Y-11973143D01*
X9262214Y-11987429D01*
X9233643Y-12001714D01*
X9205071Y-12001714D01*
X9176500Y-11987429D01*
X9162214Y-11973143D01*
X9147928Y-11944571D01*
X9133643Y-11887429D01*
X9133643Y-11816000D01*
X9147928Y-11758857D01*
X9162214Y-11730286D01*
X9176500Y-11716000D01*
X9205071Y-11701714D01*
X9562214Y-11801714D02*
X9562214Y-12001714D01*
X9490786Y-11687429D02*
X9419357Y-11901714D01*
X9605071Y-11901714D01*
X9947928Y-12001714D02*
X9947928Y-11701714D01*
X10076500Y-12001714D02*
X10076500Y-11844571D01*
X10062214Y-11816000D01*
X10033643Y-11801714D01*
X9990786Y-11801714D01*
X9962214Y-11816000D01*
X9947928Y-11830286D01*
X10262214Y-12001714D02*
X10233643Y-11987429D01*
X10219357Y-11973143D01*
X10205071Y-11944571D01*
X10205071Y-11858857D01*
X10219357Y-11830286D01*
X10233643Y-11816000D01*
X10262214Y-11801714D01*
X10305071Y-11801714D01*
X10333643Y-11816000D01*
X10347928Y-11830286D01*
X10362214Y-11858857D01*
X10362214Y-11944571D01*
X10347928Y-11973143D01*
X10333643Y-11987429D01*
X10305071Y-12001714D01*
X10262214Y-12001714D01*
X10533643Y-12001714D02*
X10505071Y-11987429D01*
X10490786Y-11958857D01*
X10490786Y-11701714D01*
X10762214Y-11987429D02*
X10733643Y-12001714D01*
X10676500Y-12001714D01*
X10647928Y-11987429D01*
X10633643Y-11958857D01*
X10633643Y-11844571D01*
X10647928Y-11816000D01*
X10676500Y-11801714D01*
X10733643Y-11801714D01*
X10762214Y-11816000D01*
X10776500Y-11844571D01*
X10776500Y-11873143D01*
X10633643Y-11901714D01*
X10890786Y-11987429D02*
X10919357Y-12001714D01*
X10976500Y-12001714D01*
X11005071Y-11987429D01*
X11019357Y-11958857D01*
X11019357Y-11944571D01*
X11005071Y-11916000D01*
X10976500Y-11901714D01*
X10933643Y-11901714D01*
X10905071Y-11887429D01*
X10890786Y-11858857D01*
X10890786Y-11844571D01*
X10905071Y-11816000D01*
X10933643Y-11801714D01*
X10976500Y-11801714D01*
X11005071Y-11816000D01*
X11119357Y-12116000D02*
X11133643Y-12101714D01*
X11162214Y-12058857D01*
X11176500Y-12030286D01*
X11190786Y-11987429D01*
X11205071Y-11916000D01*
X11205071Y-11858857D01*
X11190786Y-11787429D01*
X11176500Y-11744571D01*
X11162214Y-11716000D01*
X11133643Y-11673143D01*
X11119357Y-11658857D01*
X4006500Y-12317000D02*
X4061500Y-12262000D01*
X4006500Y-12207000D01*
X3951500Y-12262000D01*
X4006500Y-12317000D01*
X4505071Y-12397714D02*
X4333643Y-12397714D01*
X4419357Y-12397714D02*
X4419357Y-12097714D01*
X4390786Y-12140571D01*
X4362214Y-12169143D01*
X4333643Y-12183429D01*
X4633643Y-12369143D02*
X4647928Y-12383429D01*
X4633643Y-12397714D01*
X4619357Y-12383429D01*
X4633643Y-12369143D01*
X4633643Y-12397714D01*
X4933643Y-12397714D02*
X4762214Y-12397714D01*
X4847928Y-12397714D02*
X4847928Y-12097714D01*
X4819357Y-12140571D01*
X4790786Y-12169143D01*
X4762214Y-12183429D01*
X5119357Y-12097714D02*
X5147928Y-12097714D01*
X5176500Y-12112000D01*
X5190786Y-12126286D01*
X5205071Y-12154857D01*
X5219357Y-12212000D01*
X5219357Y-12283429D01*
X5205071Y-12340571D01*
X5190786Y-12369143D01*
X5176500Y-12383429D01*
X5147928Y-12397714D01*
X5119357Y-12397714D01*
X5090786Y-12383429D01*
X5076500Y-12369143D01*
X5062214Y-12340571D01*
X5047928Y-12283429D01*
X5047928Y-12212000D01*
X5062214Y-12154857D01*
X5076500Y-12126286D01*
X5090786Y-12112000D01*
X5119357Y-12097714D01*
X5347928Y-12397714D02*
X5347928Y-12197714D01*
X5347928Y-12226286D02*
X5362214Y-12212000D01*
X5390786Y-12197714D01*
X5433643Y-12197714D01*
X5462214Y-12212000D01*
X5476500Y-12240571D01*
X5476500Y-12397714D01*
X5476500Y-12240571D02*
X5490786Y-12212000D01*
X5519357Y-12197714D01*
X5562214Y-12197714D01*
X5590786Y-12212000D01*
X5605071Y-12240571D01*
X5605071Y-12397714D01*
X5747928Y-12397714D02*
X5747928Y-12197714D01*
X5747928Y-12226286D02*
X5762214Y-12212000D01*
X5790786Y-12197714D01*
X5833643Y-12197714D01*
X5862214Y-12212000D01*
X5876500Y-12240571D01*
X5876500Y-12397714D01*
X5876500Y-12240571D02*
X5890786Y-12212000D01*
X5919357Y-12197714D01*
X5962214Y-12197714D01*
X5990786Y-12212000D01*
X6005071Y-12240571D01*
X6005071Y-12397714D01*
X6590786Y-12083429D02*
X6333643Y-12469143D01*
X6976500Y-12097714D02*
X7005071Y-12097714D01*
X7033643Y-12112000D01*
X7047928Y-12126286D01*
X7062214Y-12154857D01*
X7076500Y-12212000D01*
X7076500Y-12283429D01*
X7062214Y-12340571D01*
X7047928Y-12369143D01*
X7033643Y-12383429D01*
X7005071Y-12397714D01*
X6976500Y-12397714D01*
X6947928Y-12383429D01*
X6933643Y-12369143D01*
X6919357Y-12340571D01*
X6905071Y-12283429D01*
X6905071Y-12212000D01*
X6919357Y-12154857D01*
X6933643Y-12126286D01*
X6947928Y-12112000D01*
X6976500Y-12097714D01*
X7205071Y-12369143D02*
X7219357Y-12383429D01*
X7205071Y-12397714D01*
X7190786Y-12383429D01*
X7205071Y-12369143D01*
X7205071Y-12397714D01*
X7405071Y-12097714D02*
X7433643Y-12097714D01*
X7462214Y-12112000D01*
X7476500Y-12126286D01*
X7490786Y-12154857D01*
X7505071Y-12212000D01*
X7505071Y-12283429D01*
X7490786Y-12340571D01*
X7476500Y-12369143D01*
X7462214Y-12383429D01*
X7433643Y-12397714D01*
X7405071Y-12397714D01*
X7376500Y-12383429D01*
X7362214Y-12369143D01*
X7347928Y-12340571D01*
X7333643Y-12283429D01*
X7333643Y-12212000D01*
X7347928Y-12154857D01*
X7362214Y-12126286D01*
X7376500Y-12112000D01*
X7405071Y-12097714D01*
X7762214Y-12197714D02*
X7762214Y-12397714D01*
X7690786Y-12083429D02*
X7619357Y-12297714D01*
X7805071Y-12297714D01*
X7890786Y-12097714D02*
X8076500Y-12097714D01*
X7976500Y-12212000D01*
X8019357Y-12212000D01*
X8047928Y-12226286D01*
X8062214Y-12240571D01*
X8076500Y-12269143D01*
X8076500Y-12340571D01*
X8062214Y-12369143D01*
X8047928Y-12383429D01*
X8019357Y-12397714D01*
X7933643Y-12397714D01*
X7905071Y-12383429D01*
X7890786Y-12369143D01*
X8190786Y-12097714D02*
X8190786Y-12154857D01*
X8305071Y-12097714D02*
X8305071Y-12154857D01*
X8747928Y-12512000D02*
X8733643Y-12497714D01*
X8705071Y-12454857D01*
X8690786Y-12426286D01*
X8676500Y-12383429D01*
X8662214Y-12312000D01*
X8662214Y-12254857D01*
X8676500Y-12183429D01*
X8690786Y-12140571D01*
X8705071Y-12112000D01*
X8733643Y-12069143D01*
X8747928Y-12054857D01*
X8833643Y-12097714D02*
X9019357Y-12097714D01*
X8919357Y-12212000D01*
X8962214Y-12212000D01*
X8990786Y-12226286D01*
X9005071Y-12240571D01*
X9019357Y-12269143D01*
X9019357Y-12340571D01*
X9005071Y-12369143D01*
X8990786Y-12383429D01*
X8962214Y-12397714D01*
X8876500Y-12397714D01*
X8847928Y-12383429D01*
X8833643Y-12369143D01*
X9376500Y-12397714D02*
X9376500Y-12097714D01*
X9505071Y-12397714D02*
X9505071Y-12240571D01*
X9490786Y-12212000D01*
X9462214Y-12197714D01*
X9419357Y-12197714D01*
X9390786Y-12212000D01*
X9376500Y-12226286D01*
X9690786Y-12397714D02*
X9662214Y-12383429D01*
X9647928Y-12369143D01*
X9633643Y-12340571D01*
X9633643Y-12254857D01*
X9647928Y-12226286D01*
X9662214Y-12212000D01*
X9690786Y-12197714D01*
X9733643Y-12197714D01*
X9762214Y-12212000D01*
X9776500Y-12226286D01*
X9790786Y-12254857D01*
X9790786Y-12340571D01*
X9776500Y-12369143D01*
X9762214Y-12383429D01*
X9733643Y-12397714D01*
X9690786Y-12397714D01*
X9962214Y-12397714D02*
X9933643Y-12383429D01*
X9919357Y-12354857D01*
X9919357Y-12097714D01*
X10190786Y-12383429D02*
X10162214Y-12397714D01*
X10105071Y-12397714D01*
X10076500Y-12383429D01*
X10062214Y-12354857D01*
X10062214Y-12240571D01*
X10076500Y-12212000D01*
X10105071Y-12197714D01*
X10162214Y-12197714D01*
X10190786Y-12212000D01*
X10205071Y-12240571D01*
X10205071Y-12269143D01*
X10062214Y-12297714D01*
X10319357Y-12383429D02*
X10347928Y-12397714D01*
X10405071Y-12397714D01*
X10433643Y-12383429D01*
X10447928Y-12354857D01*
X10447928Y-12340571D01*
X10433643Y-12312000D01*
X10405071Y-12297714D01*
X10362214Y-12297714D01*
X10333643Y-12283429D01*
X10319357Y-12254857D01*
X10319357Y-12240571D01*
X10333643Y-12212000D01*
X10362214Y-12197714D01*
X10405071Y-12197714D01*
X10433643Y-12212000D01*
X10547928Y-12512000D02*
X10562214Y-12497714D01*
X10590786Y-12454857D01*
X10605071Y-12426286D01*
X10619357Y-12383429D01*
X10633643Y-12312000D01*
X10633643Y-12254857D01*
X10619357Y-12183429D01*
X10605071Y-12140571D01*
X10590786Y-12112000D01*
X10562214Y-12069143D01*
X10547928Y-12054857D01*
X3911500Y-12583000D02*
X4061500Y-12733000D01*
X4061500Y-12583000D02*
X3911500Y-12733000D01*
X4061500Y-12658000D02*
G75*
G03X4061500Y-12658000I-75000J0D01*
G01*
X4505071Y-12793714D02*
X4333643Y-12793714D01*
X4419357Y-12793714D02*
X4419357Y-12493714D01*
X4390786Y-12536571D01*
X4362214Y-12565143D01*
X4333643Y-12579429D01*
X4633643Y-12765143D02*
X4647928Y-12779429D01*
X4633643Y-12793714D01*
X4619357Y-12779429D01*
X4633643Y-12765143D01*
X4633643Y-12793714D01*
X4919357Y-12493714D02*
X4776500Y-12493714D01*
X4762214Y-12636571D01*
X4776500Y-12622286D01*
X4805071Y-12608000D01*
X4876500Y-12608000D01*
X4905071Y-12622286D01*
X4919357Y-12636571D01*
X4933643Y-12665143D01*
X4933643Y-12736571D01*
X4919357Y-12765143D01*
X4905071Y-12779429D01*
X4876500Y-12793714D01*
X4805071Y-12793714D01*
X4776500Y-12779429D01*
X4762214Y-12765143D01*
X5119357Y-12493714D02*
X5147928Y-12493714D01*
X5176500Y-12508000D01*
X5190786Y-12522286D01*
X5205071Y-12550857D01*
X5219357Y-12608000D01*
X5219357Y-12679429D01*
X5205071Y-12736571D01*
X5190786Y-12765143D01*
X5176500Y-12779429D01*
X5147928Y-12793714D01*
X5119357Y-12793714D01*
X5090786Y-12779429D01*
X5076500Y-12765143D01*
X5062214Y-12736571D01*
X5047928Y-12679429D01*
X5047928Y-12608000D01*
X5062214Y-12550857D01*
X5076500Y-12522286D01*
X5090786Y-12508000D01*
X5119357Y-12493714D01*
X5347928Y-12793714D02*
X5347928Y-12593714D01*
X5347928Y-12622286D02*
X5362214Y-12608000D01*
X5390786Y-12593714D01*
X5433643Y-12593714D01*
X5462214Y-12608000D01*
X5476500Y-12636571D01*
X5476500Y-12793714D01*
X5476500Y-12636571D02*
X5490786Y-12608000D01*
X5519357Y-12593714D01*
X5562214Y-12593714D01*
X5590786Y-12608000D01*
X5605071Y-12636571D01*
X5605071Y-12793714D01*
X5747928Y-12793714D02*
X5747928Y-12593714D01*
X5747928Y-12622286D02*
X5762214Y-12608000D01*
X5790786Y-12593714D01*
X5833643Y-12593714D01*
X5862214Y-12608000D01*
X5876500Y-12636571D01*
X5876500Y-12793714D01*
X5876500Y-12636571D02*
X5890786Y-12608000D01*
X5919357Y-12593714D01*
X5962214Y-12593714D01*
X5990786Y-12608000D01*
X6005071Y-12636571D01*
X6005071Y-12793714D01*
X6590786Y-12479429D02*
X6333643Y-12865143D01*
X6976500Y-12493714D02*
X7005071Y-12493714D01*
X7033643Y-12508000D01*
X7047928Y-12522286D01*
X7062214Y-12550857D01*
X7076500Y-12608000D01*
X7076500Y-12679429D01*
X7062214Y-12736571D01*
X7047928Y-12765143D01*
X7033643Y-12779429D01*
X7005071Y-12793714D01*
X6976500Y-12793714D01*
X6947928Y-12779429D01*
X6933643Y-12765143D01*
X6919357Y-12736571D01*
X6905071Y-12679429D01*
X6905071Y-12608000D01*
X6919357Y-12550857D01*
X6933643Y-12522286D01*
X6947928Y-12508000D01*
X6976500Y-12493714D01*
X7205071Y-12765143D02*
X7219357Y-12779429D01*
X7205071Y-12793714D01*
X7190786Y-12779429D01*
X7205071Y-12765143D01*
X7205071Y-12793714D01*
X7405071Y-12493714D02*
X7433643Y-12493714D01*
X7462214Y-12508000D01*
X7476500Y-12522286D01*
X7490786Y-12550857D01*
X7505071Y-12608000D01*
X7505071Y-12679429D01*
X7490786Y-12736571D01*
X7476500Y-12765143D01*
X7462214Y-12779429D01*
X7433643Y-12793714D01*
X7405071Y-12793714D01*
X7376500Y-12779429D01*
X7362214Y-12765143D01*
X7347928Y-12736571D01*
X7333643Y-12679429D01*
X7333643Y-12608000D01*
X7347928Y-12550857D01*
X7362214Y-12522286D01*
X7376500Y-12508000D01*
X7405071Y-12493714D01*
X7776500Y-12493714D02*
X7633643Y-12493714D01*
X7619357Y-12636571D01*
X7633643Y-12622286D01*
X7662214Y-12608000D01*
X7733643Y-12608000D01*
X7762214Y-12622286D01*
X7776500Y-12636571D01*
X7790786Y-12665143D01*
X7790786Y-12736571D01*
X7776500Y-12765143D01*
X7762214Y-12779429D01*
X7733643Y-12793714D01*
X7662214Y-12793714D01*
X7633643Y-12779429D01*
X7619357Y-12765143D01*
X7933643Y-12793714D02*
X7990786Y-12793714D01*
X8019357Y-12779429D01*
X8033643Y-12765143D01*
X8062214Y-12722286D01*
X8076500Y-12665143D01*
X8076500Y-12550857D01*
X8062214Y-12522286D01*
X8047928Y-12508000D01*
X8019357Y-12493714D01*
X7962214Y-12493714D01*
X7933643Y-12508000D01*
X7919357Y-12522286D01*
X7905071Y-12550857D01*
X7905071Y-12622286D01*
X7919357Y-12650857D01*
X7933643Y-12665143D01*
X7962214Y-12679429D01*
X8019357Y-12679429D01*
X8047928Y-12665143D01*
X8062214Y-12650857D01*
X8076500Y-12622286D01*
X8190786Y-12493714D02*
X8190786Y-12550857D01*
X8305071Y-12493714D02*
X8305071Y-12550857D01*
X8747928Y-12908000D02*
X8733643Y-12893714D01*
X8705071Y-12850857D01*
X8690786Y-12822286D01*
X8676500Y-12779429D01*
X8662214Y-12708000D01*
X8662214Y-12650857D01*
X8676500Y-12579429D01*
X8690786Y-12536571D01*
X8705071Y-12508000D01*
X8733643Y-12465143D01*
X8747928Y-12450857D01*
X9019357Y-12793714D02*
X8847928Y-12793714D01*
X8933643Y-12793714D02*
X8933643Y-12493714D01*
X8905071Y-12536571D01*
X8876500Y-12565143D01*
X8847928Y-12579429D01*
X9205071Y-12493714D02*
X9233643Y-12493714D01*
X9262214Y-12508000D01*
X9276500Y-12522286D01*
X9290786Y-12550857D01*
X9305071Y-12608000D01*
X9305071Y-12679429D01*
X9290786Y-12736571D01*
X9276500Y-12765143D01*
X9262214Y-12779429D01*
X9233643Y-12793714D01*
X9205071Y-12793714D01*
X9176500Y-12779429D01*
X9162214Y-12765143D01*
X9147928Y-12736571D01*
X9133643Y-12679429D01*
X9133643Y-12608000D01*
X9147928Y-12550857D01*
X9162214Y-12522286D01*
X9176500Y-12508000D01*
X9205071Y-12493714D01*
X9662214Y-12793714D02*
X9662214Y-12493714D01*
X9790786Y-12793714D02*
X9790786Y-12636571D01*
X9776500Y-12608000D01*
X9747928Y-12593714D01*
X9705071Y-12593714D01*
X9676500Y-12608000D01*
X9662214Y-12622286D01*
X9976500Y-12793714D02*
X9947928Y-12779429D01*
X9933643Y-12765143D01*
X9919357Y-12736571D01*
X9919357Y-12650857D01*
X9933643Y-12622286D01*
X9947928Y-12608000D01*
X9976500Y-12593714D01*
X10019357Y-12593714D01*
X10047928Y-12608000D01*
X10062214Y-12622286D01*
X10076500Y-12650857D01*
X10076500Y-12736571D01*
X10062214Y-12765143D01*
X10047928Y-12779429D01*
X10019357Y-12793714D01*
X9976500Y-12793714D01*
X10247928Y-12793714D02*
X10219357Y-12779429D01*
X10205071Y-12750857D01*
X10205071Y-12493714D01*
X10476500Y-12779429D02*
X10447928Y-12793714D01*
X10390786Y-12793714D01*
X10362214Y-12779429D01*
X10347928Y-12750857D01*
X10347928Y-12636571D01*
X10362214Y-12608000D01*
X10390786Y-12593714D01*
X10447928Y-12593714D01*
X10476500Y-12608000D01*
X10490786Y-12636571D01*
X10490786Y-12665143D01*
X10347928Y-12693714D01*
X10605071Y-12779429D02*
X10633643Y-12793714D01*
X10690786Y-12793714D01*
X10719357Y-12779429D01*
X10733643Y-12750857D01*
X10733643Y-12736571D01*
X10719357Y-12708000D01*
X10690786Y-12693714D01*
X10647928Y-12693714D01*
X10619357Y-12679429D01*
X10605071Y-12650857D01*
X10605071Y-12636571D01*
X10619357Y-12608000D01*
X10647928Y-12593714D01*
X10690786Y-12593714D01*
X10719357Y-12608000D01*
X10833643Y-12908000D02*
X10847928Y-12893714D01*
X10876500Y-12850857D01*
X10890786Y-12822286D01*
X10905071Y-12779429D01*
X10919357Y-12708000D01*
X10919357Y-12650857D01*
X10905071Y-12579429D01*
X10890786Y-12536571D01*
X10876500Y-12508000D01*
X10847928Y-12465143D01*
X10833643Y-12450857D01*
M02*
