G04 #@! TF.GenerationSoftware,KiCad,Pcbnew,(5.1.4)-1*
G04 #@! TF.CreationDate,2019-12-12T19:33:13+09:00*
G04 #@! TF.ProjectId,microevalb,6d696372-6f65-4766-916c-622e6b696361,rev?*
G04 #@! TF.SameCoordinates,Original*
G04 #@! TF.FileFunction,Soldermask,Bot*
G04 #@! TF.FilePolarity,Negative*
%FSLAX46Y46*%
G04 Gerber Fmt 4.6, Leading zero omitted, Abs format (unit mm)*
G04 Created by KiCad (PCBNEW (5.1.4)-1) date 2019-12-12 19:33:13*
%MOMM*%
%LPD*%
G04 APERTURE LIST*
%ADD10C,0.100000*%
G04 APERTURE END LIST*
D10*
G36*
X50275443Y-94863519D02*
G01*
X50341627Y-94870037D01*
X50511466Y-94921557D01*
X50667991Y-95005222D01*
X50703729Y-95034552D01*
X50805186Y-95117814D01*
X50888448Y-95219271D01*
X50917778Y-95255009D01*
X51001443Y-95411534D01*
X51052963Y-95581373D01*
X51070359Y-95758000D01*
X51052963Y-95934627D01*
X51001443Y-96104466D01*
X50917778Y-96260991D01*
X50888448Y-96296729D01*
X50805186Y-96398186D01*
X50703729Y-96481448D01*
X50667991Y-96510778D01*
X50511466Y-96594443D01*
X50341627Y-96645963D01*
X50275442Y-96652482D01*
X50209260Y-96659000D01*
X50120740Y-96659000D01*
X50054558Y-96652482D01*
X49988373Y-96645963D01*
X49818534Y-96594443D01*
X49662009Y-96510778D01*
X49626271Y-96481448D01*
X49524814Y-96398186D01*
X49441552Y-96296729D01*
X49412222Y-96260991D01*
X49328557Y-96104466D01*
X49277037Y-95934627D01*
X49259641Y-95758000D01*
X49277037Y-95581373D01*
X49328557Y-95411534D01*
X49412222Y-95255009D01*
X49441552Y-95219271D01*
X49524814Y-95117814D01*
X49626271Y-95034552D01*
X49662009Y-95005222D01*
X49818534Y-94921557D01*
X49988373Y-94870037D01*
X50054557Y-94863519D01*
X50120740Y-94857000D01*
X50209260Y-94857000D01*
X50275443Y-94863519D01*
X50275443Y-94863519D01*
G37*
G36*
X86470443Y-94863519D02*
G01*
X86536627Y-94870037D01*
X86706466Y-94921557D01*
X86862991Y-95005222D01*
X86898729Y-95034552D01*
X87000186Y-95117814D01*
X87083448Y-95219271D01*
X87112778Y-95255009D01*
X87196443Y-95411534D01*
X87247963Y-95581373D01*
X87265359Y-95758000D01*
X87247963Y-95934627D01*
X87196443Y-96104466D01*
X87112778Y-96260991D01*
X87083448Y-96296729D01*
X87000186Y-96398186D01*
X86898729Y-96481448D01*
X86862991Y-96510778D01*
X86706466Y-96594443D01*
X86536627Y-96645963D01*
X86470442Y-96652482D01*
X86404260Y-96659000D01*
X86315740Y-96659000D01*
X86249558Y-96652482D01*
X86183373Y-96645963D01*
X86013534Y-96594443D01*
X85857009Y-96510778D01*
X85821271Y-96481448D01*
X85719814Y-96398186D01*
X85636552Y-96296729D01*
X85607222Y-96260991D01*
X85523557Y-96104466D01*
X85472037Y-95934627D01*
X85454641Y-95758000D01*
X85472037Y-95581373D01*
X85523557Y-95411534D01*
X85607222Y-95255009D01*
X85636552Y-95219271D01*
X85719814Y-95117814D01*
X85821271Y-95034552D01*
X85857009Y-95005222D01*
X86013534Y-94921557D01*
X86183373Y-94870037D01*
X86249557Y-94863519D01*
X86315740Y-94857000D01*
X86404260Y-94857000D01*
X86470443Y-94863519D01*
X86470443Y-94863519D01*
G37*
G36*
X116950443Y-94863519D02*
G01*
X117016627Y-94870037D01*
X117186466Y-94921557D01*
X117342991Y-95005222D01*
X117378729Y-95034552D01*
X117480186Y-95117814D01*
X117563448Y-95219271D01*
X117592778Y-95255009D01*
X117676443Y-95411534D01*
X117727963Y-95581373D01*
X117745359Y-95758000D01*
X117727963Y-95934627D01*
X117676443Y-96104466D01*
X117592778Y-96260991D01*
X117563448Y-96296729D01*
X117480186Y-96398186D01*
X117378729Y-96481448D01*
X117342991Y-96510778D01*
X117186466Y-96594443D01*
X117016627Y-96645963D01*
X116950443Y-96652481D01*
X116884260Y-96659000D01*
X116795740Y-96659000D01*
X116729558Y-96652482D01*
X116663373Y-96645963D01*
X116493534Y-96594443D01*
X116337009Y-96510778D01*
X116301271Y-96481448D01*
X116199814Y-96398186D01*
X116116552Y-96296729D01*
X116087222Y-96260991D01*
X116003557Y-96104466D01*
X115952037Y-95934627D01*
X115934641Y-95758000D01*
X115952037Y-95581373D01*
X116003557Y-95411534D01*
X116087222Y-95255009D01*
X116116552Y-95219271D01*
X116199814Y-95117814D01*
X116301271Y-95034552D01*
X116337009Y-95005222D01*
X116493534Y-94921557D01*
X116663373Y-94870037D01*
X116729558Y-94863518D01*
X116795740Y-94857000D01*
X116884260Y-94857000D01*
X116950443Y-94863519D01*
X116950443Y-94863519D01*
G37*
G36*
X111870443Y-94863519D02*
G01*
X111936627Y-94870037D01*
X112106466Y-94921557D01*
X112262991Y-95005222D01*
X112298729Y-95034552D01*
X112400186Y-95117814D01*
X112483448Y-95219271D01*
X112512778Y-95255009D01*
X112596443Y-95411534D01*
X112647963Y-95581373D01*
X112665359Y-95758000D01*
X112647963Y-95934627D01*
X112596443Y-96104466D01*
X112512778Y-96260991D01*
X112483448Y-96296729D01*
X112400186Y-96398186D01*
X112298729Y-96481448D01*
X112262991Y-96510778D01*
X112106466Y-96594443D01*
X111936627Y-96645963D01*
X111870443Y-96652481D01*
X111804260Y-96659000D01*
X111715740Y-96659000D01*
X111649558Y-96652482D01*
X111583373Y-96645963D01*
X111413534Y-96594443D01*
X111257009Y-96510778D01*
X111221271Y-96481448D01*
X111119814Y-96398186D01*
X111036552Y-96296729D01*
X111007222Y-96260991D01*
X110923557Y-96104466D01*
X110872037Y-95934627D01*
X110854641Y-95758000D01*
X110872037Y-95581373D01*
X110923557Y-95411534D01*
X111007222Y-95255009D01*
X111036552Y-95219271D01*
X111119814Y-95117814D01*
X111221271Y-95034552D01*
X111257009Y-95005222D01*
X111413534Y-94921557D01*
X111583373Y-94870037D01*
X111649558Y-94863518D01*
X111715740Y-94857000D01*
X111804260Y-94857000D01*
X111870443Y-94863519D01*
X111870443Y-94863519D01*
G37*
G36*
X109330443Y-94863519D02*
G01*
X109396627Y-94870037D01*
X109566466Y-94921557D01*
X109722991Y-95005222D01*
X109758729Y-95034552D01*
X109860186Y-95117814D01*
X109943448Y-95219271D01*
X109972778Y-95255009D01*
X110056443Y-95411534D01*
X110107963Y-95581373D01*
X110125359Y-95758000D01*
X110107963Y-95934627D01*
X110056443Y-96104466D01*
X109972778Y-96260991D01*
X109943448Y-96296729D01*
X109860186Y-96398186D01*
X109758729Y-96481448D01*
X109722991Y-96510778D01*
X109566466Y-96594443D01*
X109396627Y-96645963D01*
X109330443Y-96652481D01*
X109264260Y-96659000D01*
X109175740Y-96659000D01*
X109109558Y-96652482D01*
X109043373Y-96645963D01*
X108873534Y-96594443D01*
X108717009Y-96510778D01*
X108681271Y-96481448D01*
X108579814Y-96398186D01*
X108496552Y-96296729D01*
X108467222Y-96260991D01*
X108383557Y-96104466D01*
X108332037Y-95934627D01*
X108314641Y-95758000D01*
X108332037Y-95581373D01*
X108383557Y-95411534D01*
X108467222Y-95255009D01*
X108496552Y-95219271D01*
X108579814Y-95117814D01*
X108681271Y-95034552D01*
X108717009Y-95005222D01*
X108873534Y-94921557D01*
X109043373Y-94870037D01*
X109109557Y-94863519D01*
X109175740Y-94857000D01*
X109264260Y-94857000D01*
X109330443Y-94863519D01*
X109330443Y-94863519D01*
G37*
G36*
X106790443Y-94863519D02*
G01*
X106856627Y-94870037D01*
X107026466Y-94921557D01*
X107182991Y-95005222D01*
X107218729Y-95034552D01*
X107320186Y-95117814D01*
X107403448Y-95219271D01*
X107432778Y-95255009D01*
X107516443Y-95411534D01*
X107567963Y-95581373D01*
X107585359Y-95758000D01*
X107567963Y-95934627D01*
X107516443Y-96104466D01*
X107432778Y-96260991D01*
X107403448Y-96296729D01*
X107320186Y-96398186D01*
X107218729Y-96481448D01*
X107182991Y-96510778D01*
X107026466Y-96594443D01*
X106856627Y-96645963D01*
X106790443Y-96652481D01*
X106724260Y-96659000D01*
X106635740Y-96659000D01*
X106569558Y-96652482D01*
X106503373Y-96645963D01*
X106333534Y-96594443D01*
X106177009Y-96510778D01*
X106141271Y-96481448D01*
X106039814Y-96398186D01*
X105956552Y-96296729D01*
X105927222Y-96260991D01*
X105843557Y-96104466D01*
X105792037Y-95934627D01*
X105774641Y-95758000D01*
X105792037Y-95581373D01*
X105843557Y-95411534D01*
X105927222Y-95255009D01*
X105956552Y-95219271D01*
X106039814Y-95117814D01*
X106141271Y-95034552D01*
X106177009Y-95005222D01*
X106333534Y-94921557D01*
X106503373Y-94870037D01*
X106569557Y-94863519D01*
X106635740Y-94857000D01*
X106724260Y-94857000D01*
X106790443Y-94863519D01*
X106790443Y-94863519D01*
G37*
G36*
X104250443Y-94863519D02*
G01*
X104316627Y-94870037D01*
X104486466Y-94921557D01*
X104642991Y-95005222D01*
X104678729Y-95034552D01*
X104780186Y-95117814D01*
X104863448Y-95219271D01*
X104892778Y-95255009D01*
X104976443Y-95411534D01*
X105027963Y-95581373D01*
X105045359Y-95758000D01*
X105027963Y-95934627D01*
X104976443Y-96104466D01*
X104892778Y-96260991D01*
X104863448Y-96296729D01*
X104780186Y-96398186D01*
X104678729Y-96481448D01*
X104642991Y-96510778D01*
X104486466Y-96594443D01*
X104316627Y-96645963D01*
X104250443Y-96652481D01*
X104184260Y-96659000D01*
X104095740Y-96659000D01*
X104029558Y-96652482D01*
X103963373Y-96645963D01*
X103793534Y-96594443D01*
X103637009Y-96510778D01*
X103601271Y-96481448D01*
X103499814Y-96398186D01*
X103416552Y-96296729D01*
X103387222Y-96260991D01*
X103303557Y-96104466D01*
X103252037Y-95934627D01*
X103234641Y-95758000D01*
X103252037Y-95581373D01*
X103303557Y-95411534D01*
X103387222Y-95255009D01*
X103416552Y-95219271D01*
X103499814Y-95117814D01*
X103601271Y-95034552D01*
X103637009Y-95005222D01*
X103793534Y-94921557D01*
X103963373Y-94870037D01*
X104029557Y-94863519D01*
X104095740Y-94857000D01*
X104184260Y-94857000D01*
X104250443Y-94863519D01*
X104250443Y-94863519D01*
G37*
G36*
X101710443Y-94863519D02*
G01*
X101776627Y-94870037D01*
X101946466Y-94921557D01*
X102102991Y-95005222D01*
X102138729Y-95034552D01*
X102240186Y-95117814D01*
X102323448Y-95219271D01*
X102352778Y-95255009D01*
X102436443Y-95411534D01*
X102487963Y-95581373D01*
X102505359Y-95758000D01*
X102487963Y-95934627D01*
X102436443Y-96104466D01*
X102352778Y-96260991D01*
X102323448Y-96296729D01*
X102240186Y-96398186D01*
X102138729Y-96481448D01*
X102102991Y-96510778D01*
X101946466Y-96594443D01*
X101776627Y-96645963D01*
X101710443Y-96652481D01*
X101644260Y-96659000D01*
X101555740Y-96659000D01*
X101489558Y-96652482D01*
X101423373Y-96645963D01*
X101253534Y-96594443D01*
X101097009Y-96510778D01*
X101061271Y-96481448D01*
X100959814Y-96398186D01*
X100876552Y-96296729D01*
X100847222Y-96260991D01*
X100763557Y-96104466D01*
X100712037Y-95934627D01*
X100694641Y-95758000D01*
X100712037Y-95581373D01*
X100763557Y-95411534D01*
X100847222Y-95255009D01*
X100876552Y-95219271D01*
X100959814Y-95117814D01*
X101061271Y-95034552D01*
X101097009Y-95005222D01*
X101253534Y-94921557D01*
X101423373Y-94870037D01*
X101489557Y-94863519D01*
X101555740Y-94857000D01*
X101644260Y-94857000D01*
X101710443Y-94863519D01*
X101710443Y-94863519D01*
G37*
G36*
X99170443Y-94863519D02*
G01*
X99236627Y-94870037D01*
X99406466Y-94921557D01*
X99562991Y-95005222D01*
X99598729Y-95034552D01*
X99700186Y-95117814D01*
X99783448Y-95219271D01*
X99812778Y-95255009D01*
X99896443Y-95411534D01*
X99947963Y-95581373D01*
X99965359Y-95758000D01*
X99947963Y-95934627D01*
X99896443Y-96104466D01*
X99812778Y-96260991D01*
X99783448Y-96296729D01*
X99700186Y-96398186D01*
X99598729Y-96481448D01*
X99562991Y-96510778D01*
X99406466Y-96594443D01*
X99236627Y-96645963D01*
X99170443Y-96652481D01*
X99104260Y-96659000D01*
X99015740Y-96659000D01*
X98949558Y-96652482D01*
X98883373Y-96645963D01*
X98713534Y-96594443D01*
X98557009Y-96510778D01*
X98521271Y-96481448D01*
X98419814Y-96398186D01*
X98336552Y-96296729D01*
X98307222Y-96260991D01*
X98223557Y-96104466D01*
X98172037Y-95934627D01*
X98154641Y-95758000D01*
X98172037Y-95581373D01*
X98223557Y-95411534D01*
X98307222Y-95255009D01*
X98336552Y-95219271D01*
X98419814Y-95117814D01*
X98521271Y-95034552D01*
X98557009Y-95005222D01*
X98713534Y-94921557D01*
X98883373Y-94870037D01*
X98949557Y-94863519D01*
X99015740Y-94857000D01*
X99104260Y-94857000D01*
X99170443Y-94863519D01*
X99170443Y-94863519D01*
G37*
G36*
X96630443Y-94863519D02*
G01*
X96696627Y-94870037D01*
X96866466Y-94921557D01*
X97022991Y-95005222D01*
X97058729Y-95034552D01*
X97160186Y-95117814D01*
X97243448Y-95219271D01*
X97272778Y-95255009D01*
X97356443Y-95411534D01*
X97407963Y-95581373D01*
X97425359Y-95758000D01*
X97407963Y-95934627D01*
X97356443Y-96104466D01*
X97272778Y-96260991D01*
X97243448Y-96296729D01*
X97160186Y-96398186D01*
X97058729Y-96481448D01*
X97022991Y-96510778D01*
X96866466Y-96594443D01*
X96696627Y-96645963D01*
X96630443Y-96652481D01*
X96564260Y-96659000D01*
X96475740Y-96659000D01*
X96409558Y-96652482D01*
X96343373Y-96645963D01*
X96173534Y-96594443D01*
X96017009Y-96510778D01*
X95981271Y-96481448D01*
X95879814Y-96398186D01*
X95796552Y-96296729D01*
X95767222Y-96260991D01*
X95683557Y-96104466D01*
X95632037Y-95934627D01*
X95614641Y-95758000D01*
X95632037Y-95581373D01*
X95683557Y-95411534D01*
X95767222Y-95255009D01*
X95796552Y-95219271D01*
X95879814Y-95117814D01*
X95981271Y-95034552D01*
X96017009Y-95005222D01*
X96173534Y-94921557D01*
X96343373Y-94870037D01*
X96409557Y-94863519D01*
X96475740Y-94857000D01*
X96564260Y-94857000D01*
X96630443Y-94863519D01*
X96630443Y-94863519D01*
G37*
G36*
X94090443Y-94863519D02*
G01*
X94156627Y-94870037D01*
X94326466Y-94921557D01*
X94482991Y-95005222D01*
X94518729Y-95034552D01*
X94620186Y-95117814D01*
X94703448Y-95219271D01*
X94732778Y-95255009D01*
X94816443Y-95411534D01*
X94867963Y-95581373D01*
X94885359Y-95758000D01*
X94867963Y-95934627D01*
X94816443Y-96104466D01*
X94732778Y-96260991D01*
X94703448Y-96296729D01*
X94620186Y-96398186D01*
X94518729Y-96481448D01*
X94482991Y-96510778D01*
X94326466Y-96594443D01*
X94156627Y-96645963D01*
X94090443Y-96652481D01*
X94024260Y-96659000D01*
X93935740Y-96659000D01*
X93869558Y-96652482D01*
X93803373Y-96645963D01*
X93633534Y-96594443D01*
X93477009Y-96510778D01*
X93441271Y-96481448D01*
X93339814Y-96398186D01*
X93256552Y-96296729D01*
X93227222Y-96260991D01*
X93143557Y-96104466D01*
X93092037Y-95934627D01*
X93074641Y-95758000D01*
X93092037Y-95581373D01*
X93143557Y-95411534D01*
X93227222Y-95255009D01*
X93256552Y-95219271D01*
X93339814Y-95117814D01*
X93441271Y-95034552D01*
X93477009Y-95005222D01*
X93633534Y-94921557D01*
X93803373Y-94870037D01*
X93869557Y-94863519D01*
X93935740Y-94857000D01*
X94024260Y-94857000D01*
X94090443Y-94863519D01*
X94090443Y-94863519D01*
G37*
G36*
X91550443Y-94863519D02*
G01*
X91616627Y-94870037D01*
X91786466Y-94921557D01*
X91942991Y-95005222D01*
X91978729Y-95034552D01*
X92080186Y-95117814D01*
X92163448Y-95219271D01*
X92192778Y-95255009D01*
X92276443Y-95411534D01*
X92327963Y-95581373D01*
X92345359Y-95758000D01*
X92327963Y-95934627D01*
X92276443Y-96104466D01*
X92192778Y-96260991D01*
X92163448Y-96296729D01*
X92080186Y-96398186D01*
X91978729Y-96481448D01*
X91942991Y-96510778D01*
X91786466Y-96594443D01*
X91616627Y-96645963D01*
X91550442Y-96652482D01*
X91484260Y-96659000D01*
X91395740Y-96659000D01*
X91329558Y-96652482D01*
X91263373Y-96645963D01*
X91093534Y-96594443D01*
X90937009Y-96510778D01*
X90901271Y-96481448D01*
X90799814Y-96398186D01*
X90716552Y-96296729D01*
X90687222Y-96260991D01*
X90603557Y-96104466D01*
X90552037Y-95934627D01*
X90534641Y-95758000D01*
X90552037Y-95581373D01*
X90603557Y-95411534D01*
X90687222Y-95255009D01*
X90716552Y-95219271D01*
X90799814Y-95117814D01*
X90901271Y-95034552D01*
X90937009Y-95005222D01*
X91093534Y-94921557D01*
X91263373Y-94870037D01*
X91329557Y-94863519D01*
X91395740Y-94857000D01*
X91484260Y-94857000D01*
X91550443Y-94863519D01*
X91550443Y-94863519D01*
G37*
G36*
X89010443Y-94863519D02*
G01*
X89076627Y-94870037D01*
X89246466Y-94921557D01*
X89402991Y-95005222D01*
X89438729Y-95034552D01*
X89540186Y-95117814D01*
X89623448Y-95219271D01*
X89652778Y-95255009D01*
X89736443Y-95411534D01*
X89787963Y-95581373D01*
X89805359Y-95758000D01*
X89787963Y-95934627D01*
X89736443Y-96104466D01*
X89652778Y-96260991D01*
X89623448Y-96296729D01*
X89540186Y-96398186D01*
X89438729Y-96481448D01*
X89402991Y-96510778D01*
X89246466Y-96594443D01*
X89076627Y-96645963D01*
X89010442Y-96652482D01*
X88944260Y-96659000D01*
X88855740Y-96659000D01*
X88789558Y-96652482D01*
X88723373Y-96645963D01*
X88553534Y-96594443D01*
X88397009Y-96510778D01*
X88361271Y-96481448D01*
X88259814Y-96398186D01*
X88176552Y-96296729D01*
X88147222Y-96260991D01*
X88063557Y-96104466D01*
X88012037Y-95934627D01*
X87994641Y-95758000D01*
X88012037Y-95581373D01*
X88063557Y-95411534D01*
X88147222Y-95255009D01*
X88176552Y-95219271D01*
X88259814Y-95117814D01*
X88361271Y-95034552D01*
X88397009Y-95005222D01*
X88553534Y-94921557D01*
X88723373Y-94870037D01*
X88789557Y-94863519D01*
X88855740Y-94857000D01*
X88944260Y-94857000D01*
X89010443Y-94863519D01*
X89010443Y-94863519D01*
G37*
G36*
X114410443Y-94863519D02*
G01*
X114476627Y-94870037D01*
X114646466Y-94921557D01*
X114802991Y-95005222D01*
X114838729Y-95034552D01*
X114940186Y-95117814D01*
X115023448Y-95219271D01*
X115052778Y-95255009D01*
X115136443Y-95411534D01*
X115187963Y-95581373D01*
X115205359Y-95758000D01*
X115187963Y-95934627D01*
X115136443Y-96104466D01*
X115052778Y-96260991D01*
X115023448Y-96296729D01*
X114940186Y-96398186D01*
X114838729Y-96481448D01*
X114802991Y-96510778D01*
X114646466Y-96594443D01*
X114476627Y-96645963D01*
X114410443Y-96652481D01*
X114344260Y-96659000D01*
X114255740Y-96659000D01*
X114189558Y-96652482D01*
X114123373Y-96645963D01*
X113953534Y-96594443D01*
X113797009Y-96510778D01*
X113761271Y-96481448D01*
X113659814Y-96398186D01*
X113576552Y-96296729D01*
X113547222Y-96260991D01*
X113463557Y-96104466D01*
X113412037Y-95934627D01*
X113394641Y-95758000D01*
X113412037Y-95581373D01*
X113463557Y-95411534D01*
X113547222Y-95255009D01*
X113576552Y-95219271D01*
X113659814Y-95117814D01*
X113761271Y-95034552D01*
X113797009Y-95005222D01*
X113953534Y-94921557D01*
X114123373Y-94870037D01*
X114189558Y-94863518D01*
X114255740Y-94857000D01*
X114344260Y-94857000D01*
X114410443Y-94863519D01*
X114410443Y-94863519D01*
G37*
G36*
X78215443Y-94863519D02*
G01*
X78281627Y-94870037D01*
X78451466Y-94921557D01*
X78607991Y-95005222D01*
X78643729Y-95034552D01*
X78745186Y-95117814D01*
X78828448Y-95219271D01*
X78857778Y-95255009D01*
X78941443Y-95411534D01*
X78992963Y-95581373D01*
X79010359Y-95758000D01*
X78992963Y-95934627D01*
X78941443Y-96104466D01*
X78857778Y-96260991D01*
X78828448Y-96296729D01*
X78745186Y-96398186D01*
X78643729Y-96481448D01*
X78607991Y-96510778D01*
X78451466Y-96594443D01*
X78281627Y-96645963D01*
X78215442Y-96652482D01*
X78149260Y-96659000D01*
X78060740Y-96659000D01*
X77994558Y-96652482D01*
X77928373Y-96645963D01*
X77758534Y-96594443D01*
X77602009Y-96510778D01*
X77566271Y-96481448D01*
X77464814Y-96398186D01*
X77381552Y-96296729D01*
X77352222Y-96260991D01*
X77268557Y-96104466D01*
X77217037Y-95934627D01*
X77199641Y-95758000D01*
X77217037Y-95581373D01*
X77268557Y-95411534D01*
X77352222Y-95255009D01*
X77381552Y-95219271D01*
X77464814Y-95117814D01*
X77566271Y-95034552D01*
X77602009Y-95005222D01*
X77758534Y-94921557D01*
X77928373Y-94870037D01*
X77994557Y-94863519D01*
X78060740Y-94857000D01*
X78149260Y-94857000D01*
X78215443Y-94863519D01*
X78215443Y-94863519D01*
G37*
G36*
X75675443Y-94863519D02*
G01*
X75741627Y-94870037D01*
X75911466Y-94921557D01*
X76067991Y-95005222D01*
X76103729Y-95034552D01*
X76205186Y-95117814D01*
X76288448Y-95219271D01*
X76317778Y-95255009D01*
X76401443Y-95411534D01*
X76452963Y-95581373D01*
X76470359Y-95758000D01*
X76452963Y-95934627D01*
X76401443Y-96104466D01*
X76317778Y-96260991D01*
X76288448Y-96296729D01*
X76205186Y-96398186D01*
X76103729Y-96481448D01*
X76067991Y-96510778D01*
X75911466Y-96594443D01*
X75741627Y-96645963D01*
X75675442Y-96652482D01*
X75609260Y-96659000D01*
X75520740Y-96659000D01*
X75454558Y-96652482D01*
X75388373Y-96645963D01*
X75218534Y-96594443D01*
X75062009Y-96510778D01*
X75026271Y-96481448D01*
X74924814Y-96398186D01*
X74841552Y-96296729D01*
X74812222Y-96260991D01*
X74728557Y-96104466D01*
X74677037Y-95934627D01*
X74659641Y-95758000D01*
X74677037Y-95581373D01*
X74728557Y-95411534D01*
X74812222Y-95255009D01*
X74841552Y-95219271D01*
X74924814Y-95117814D01*
X75026271Y-95034552D01*
X75062009Y-95005222D01*
X75218534Y-94921557D01*
X75388373Y-94870037D01*
X75454557Y-94863519D01*
X75520740Y-94857000D01*
X75609260Y-94857000D01*
X75675443Y-94863519D01*
X75675443Y-94863519D01*
G37*
G36*
X73135443Y-94863519D02*
G01*
X73201627Y-94870037D01*
X73371466Y-94921557D01*
X73527991Y-95005222D01*
X73563729Y-95034552D01*
X73665186Y-95117814D01*
X73748448Y-95219271D01*
X73777778Y-95255009D01*
X73861443Y-95411534D01*
X73912963Y-95581373D01*
X73930359Y-95758000D01*
X73912963Y-95934627D01*
X73861443Y-96104466D01*
X73777778Y-96260991D01*
X73748448Y-96296729D01*
X73665186Y-96398186D01*
X73563729Y-96481448D01*
X73527991Y-96510778D01*
X73371466Y-96594443D01*
X73201627Y-96645963D01*
X73135442Y-96652482D01*
X73069260Y-96659000D01*
X72980740Y-96659000D01*
X72914558Y-96652482D01*
X72848373Y-96645963D01*
X72678534Y-96594443D01*
X72522009Y-96510778D01*
X72486271Y-96481448D01*
X72384814Y-96398186D01*
X72301552Y-96296729D01*
X72272222Y-96260991D01*
X72188557Y-96104466D01*
X72137037Y-95934627D01*
X72119641Y-95758000D01*
X72137037Y-95581373D01*
X72188557Y-95411534D01*
X72272222Y-95255009D01*
X72301552Y-95219271D01*
X72384814Y-95117814D01*
X72486271Y-95034552D01*
X72522009Y-95005222D01*
X72678534Y-94921557D01*
X72848373Y-94870037D01*
X72914557Y-94863519D01*
X72980740Y-94857000D01*
X73069260Y-94857000D01*
X73135443Y-94863519D01*
X73135443Y-94863519D01*
G37*
G36*
X70595443Y-94863519D02*
G01*
X70661627Y-94870037D01*
X70831466Y-94921557D01*
X70987991Y-95005222D01*
X71023729Y-95034552D01*
X71125186Y-95117814D01*
X71208448Y-95219271D01*
X71237778Y-95255009D01*
X71321443Y-95411534D01*
X71372963Y-95581373D01*
X71390359Y-95758000D01*
X71372963Y-95934627D01*
X71321443Y-96104466D01*
X71237778Y-96260991D01*
X71208448Y-96296729D01*
X71125186Y-96398186D01*
X71023729Y-96481448D01*
X70987991Y-96510778D01*
X70831466Y-96594443D01*
X70661627Y-96645963D01*
X70595442Y-96652482D01*
X70529260Y-96659000D01*
X70440740Y-96659000D01*
X70374558Y-96652482D01*
X70308373Y-96645963D01*
X70138534Y-96594443D01*
X69982009Y-96510778D01*
X69946271Y-96481448D01*
X69844814Y-96398186D01*
X69761552Y-96296729D01*
X69732222Y-96260991D01*
X69648557Y-96104466D01*
X69597037Y-95934627D01*
X69579641Y-95758000D01*
X69597037Y-95581373D01*
X69648557Y-95411534D01*
X69732222Y-95255009D01*
X69761552Y-95219271D01*
X69844814Y-95117814D01*
X69946271Y-95034552D01*
X69982009Y-95005222D01*
X70138534Y-94921557D01*
X70308373Y-94870037D01*
X70374557Y-94863519D01*
X70440740Y-94857000D01*
X70529260Y-94857000D01*
X70595443Y-94863519D01*
X70595443Y-94863519D01*
G37*
G36*
X68055443Y-94863519D02*
G01*
X68121627Y-94870037D01*
X68291466Y-94921557D01*
X68447991Y-95005222D01*
X68483729Y-95034552D01*
X68585186Y-95117814D01*
X68668448Y-95219271D01*
X68697778Y-95255009D01*
X68781443Y-95411534D01*
X68832963Y-95581373D01*
X68850359Y-95758000D01*
X68832963Y-95934627D01*
X68781443Y-96104466D01*
X68697778Y-96260991D01*
X68668448Y-96296729D01*
X68585186Y-96398186D01*
X68483729Y-96481448D01*
X68447991Y-96510778D01*
X68291466Y-96594443D01*
X68121627Y-96645963D01*
X68055442Y-96652482D01*
X67989260Y-96659000D01*
X67900740Y-96659000D01*
X67834558Y-96652482D01*
X67768373Y-96645963D01*
X67598534Y-96594443D01*
X67442009Y-96510778D01*
X67406271Y-96481448D01*
X67304814Y-96398186D01*
X67221552Y-96296729D01*
X67192222Y-96260991D01*
X67108557Y-96104466D01*
X67057037Y-95934627D01*
X67039641Y-95758000D01*
X67057037Y-95581373D01*
X67108557Y-95411534D01*
X67192222Y-95255009D01*
X67221552Y-95219271D01*
X67304814Y-95117814D01*
X67406271Y-95034552D01*
X67442009Y-95005222D01*
X67598534Y-94921557D01*
X67768373Y-94870037D01*
X67834557Y-94863519D01*
X67900740Y-94857000D01*
X67989260Y-94857000D01*
X68055443Y-94863519D01*
X68055443Y-94863519D01*
G37*
G36*
X65515443Y-94863519D02*
G01*
X65581627Y-94870037D01*
X65751466Y-94921557D01*
X65907991Y-95005222D01*
X65943729Y-95034552D01*
X66045186Y-95117814D01*
X66128448Y-95219271D01*
X66157778Y-95255009D01*
X66241443Y-95411534D01*
X66292963Y-95581373D01*
X66310359Y-95758000D01*
X66292963Y-95934627D01*
X66241443Y-96104466D01*
X66157778Y-96260991D01*
X66128448Y-96296729D01*
X66045186Y-96398186D01*
X65943729Y-96481448D01*
X65907991Y-96510778D01*
X65751466Y-96594443D01*
X65581627Y-96645963D01*
X65515442Y-96652482D01*
X65449260Y-96659000D01*
X65360740Y-96659000D01*
X65294558Y-96652482D01*
X65228373Y-96645963D01*
X65058534Y-96594443D01*
X64902009Y-96510778D01*
X64866271Y-96481448D01*
X64764814Y-96398186D01*
X64681552Y-96296729D01*
X64652222Y-96260991D01*
X64568557Y-96104466D01*
X64517037Y-95934627D01*
X64499641Y-95758000D01*
X64517037Y-95581373D01*
X64568557Y-95411534D01*
X64652222Y-95255009D01*
X64681552Y-95219271D01*
X64764814Y-95117814D01*
X64866271Y-95034552D01*
X64902009Y-95005222D01*
X65058534Y-94921557D01*
X65228373Y-94870037D01*
X65294557Y-94863519D01*
X65360740Y-94857000D01*
X65449260Y-94857000D01*
X65515443Y-94863519D01*
X65515443Y-94863519D01*
G37*
G36*
X62975443Y-94863519D02*
G01*
X63041627Y-94870037D01*
X63211466Y-94921557D01*
X63367991Y-95005222D01*
X63403729Y-95034552D01*
X63505186Y-95117814D01*
X63588448Y-95219271D01*
X63617778Y-95255009D01*
X63701443Y-95411534D01*
X63752963Y-95581373D01*
X63770359Y-95758000D01*
X63752963Y-95934627D01*
X63701443Y-96104466D01*
X63617778Y-96260991D01*
X63588448Y-96296729D01*
X63505186Y-96398186D01*
X63403729Y-96481448D01*
X63367991Y-96510778D01*
X63211466Y-96594443D01*
X63041627Y-96645963D01*
X62975442Y-96652482D01*
X62909260Y-96659000D01*
X62820740Y-96659000D01*
X62754558Y-96652482D01*
X62688373Y-96645963D01*
X62518534Y-96594443D01*
X62362009Y-96510778D01*
X62326271Y-96481448D01*
X62224814Y-96398186D01*
X62141552Y-96296729D01*
X62112222Y-96260991D01*
X62028557Y-96104466D01*
X61977037Y-95934627D01*
X61959641Y-95758000D01*
X61977037Y-95581373D01*
X62028557Y-95411534D01*
X62112222Y-95255009D01*
X62141552Y-95219271D01*
X62224814Y-95117814D01*
X62326271Y-95034552D01*
X62362009Y-95005222D01*
X62518534Y-94921557D01*
X62688373Y-94870037D01*
X62754557Y-94863519D01*
X62820740Y-94857000D01*
X62909260Y-94857000D01*
X62975443Y-94863519D01*
X62975443Y-94863519D01*
G37*
G36*
X60435443Y-94863519D02*
G01*
X60501627Y-94870037D01*
X60671466Y-94921557D01*
X60827991Y-95005222D01*
X60863729Y-95034552D01*
X60965186Y-95117814D01*
X61048448Y-95219271D01*
X61077778Y-95255009D01*
X61161443Y-95411534D01*
X61212963Y-95581373D01*
X61230359Y-95758000D01*
X61212963Y-95934627D01*
X61161443Y-96104466D01*
X61077778Y-96260991D01*
X61048448Y-96296729D01*
X60965186Y-96398186D01*
X60863729Y-96481448D01*
X60827991Y-96510778D01*
X60671466Y-96594443D01*
X60501627Y-96645963D01*
X60435442Y-96652482D01*
X60369260Y-96659000D01*
X60280740Y-96659000D01*
X60214558Y-96652482D01*
X60148373Y-96645963D01*
X59978534Y-96594443D01*
X59822009Y-96510778D01*
X59786271Y-96481448D01*
X59684814Y-96398186D01*
X59601552Y-96296729D01*
X59572222Y-96260991D01*
X59488557Y-96104466D01*
X59437037Y-95934627D01*
X59419641Y-95758000D01*
X59437037Y-95581373D01*
X59488557Y-95411534D01*
X59572222Y-95255009D01*
X59601552Y-95219271D01*
X59684814Y-95117814D01*
X59786271Y-95034552D01*
X59822009Y-95005222D01*
X59978534Y-94921557D01*
X60148373Y-94870037D01*
X60214557Y-94863519D01*
X60280740Y-94857000D01*
X60369260Y-94857000D01*
X60435443Y-94863519D01*
X60435443Y-94863519D01*
G37*
G36*
X57895443Y-94863519D02*
G01*
X57961627Y-94870037D01*
X58131466Y-94921557D01*
X58287991Y-95005222D01*
X58323729Y-95034552D01*
X58425186Y-95117814D01*
X58508448Y-95219271D01*
X58537778Y-95255009D01*
X58621443Y-95411534D01*
X58672963Y-95581373D01*
X58690359Y-95758000D01*
X58672963Y-95934627D01*
X58621443Y-96104466D01*
X58537778Y-96260991D01*
X58508448Y-96296729D01*
X58425186Y-96398186D01*
X58323729Y-96481448D01*
X58287991Y-96510778D01*
X58131466Y-96594443D01*
X57961627Y-96645963D01*
X57895442Y-96652482D01*
X57829260Y-96659000D01*
X57740740Y-96659000D01*
X57674558Y-96652482D01*
X57608373Y-96645963D01*
X57438534Y-96594443D01*
X57282009Y-96510778D01*
X57246271Y-96481448D01*
X57144814Y-96398186D01*
X57061552Y-96296729D01*
X57032222Y-96260991D01*
X56948557Y-96104466D01*
X56897037Y-95934627D01*
X56879641Y-95758000D01*
X56897037Y-95581373D01*
X56948557Y-95411534D01*
X57032222Y-95255009D01*
X57061552Y-95219271D01*
X57144814Y-95117814D01*
X57246271Y-95034552D01*
X57282009Y-95005222D01*
X57438534Y-94921557D01*
X57608373Y-94870037D01*
X57674557Y-94863519D01*
X57740740Y-94857000D01*
X57829260Y-94857000D01*
X57895443Y-94863519D01*
X57895443Y-94863519D01*
G37*
G36*
X55355443Y-94863519D02*
G01*
X55421627Y-94870037D01*
X55591466Y-94921557D01*
X55747991Y-95005222D01*
X55783729Y-95034552D01*
X55885186Y-95117814D01*
X55968448Y-95219271D01*
X55997778Y-95255009D01*
X56081443Y-95411534D01*
X56132963Y-95581373D01*
X56150359Y-95758000D01*
X56132963Y-95934627D01*
X56081443Y-96104466D01*
X55997778Y-96260991D01*
X55968448Y-96296729D01*
X55885186Y-96398186D01*
X55783729Y-96481448D01*
X55747991Y-96510778D01*
X55591466Y-96594443D01*
X55421627Y-96645963D01*
X55355442Y-96652482D01*
X55289260Y-96659000D01*
X55200740Y-96659000D01*
X55134558Y-96652482D01*
X55068373Y-96645963D01*
X54898534Y-96594443D01*
X54742009Y-96510778D01*
X54706271Y-96481448D01*
X54604814Y-96398186D01*
X54521552Y-96296729D01*
X54492222Y-96260991D01*
X54408557Y-96104466D01*
X54357037Y-95934627D01*
X54339641Y-95758000D01*
X54357037Y-95581373D01*
X54408557Y-95411534D01*
X54492222Y-95255009D01*
X54521552Y-95219271D01*
X54604814Y-95117814D01*
X54706271Y-95034552D01*
X54742009Y-95005222D01*
X54898534Y-94921557D01*
X55068373Y-94870037D01*
X55134557Y-94863519D01*
X55200740Y-94857000D01*
X55289260Y-94857000D01*
X55355443Y-94863519D01*
X55355443Y-94863519D01*
G37*
G36*
X52815443Y-94863519D02*
G01*
X52881627Y-94870037D01*
X53051466Y-94921557D01*
X53207991Y-95005222D01*
X53243729Y-95034552D01*
X53345186Y-95117814D01*
X53428448Y-95219271D01*
X53457778Y-95255009D01*
X53541443Y-95411534D01*
X53592963Y-95581373D01*
X53610359Y-95758000D01*
X53592963Y-95934627D01*
X53541443Y-96104466D01*
X53457778Y-96260991D01*
X53428448Y-96296729D01*
X53345186Y-96398186D01*
X53243729Y-96481448D01*
X53207991Y-96510778D01*
X53051466Y-96594443D01*
X52881627Y-96645963D01*
X52815442Y-96652482D01*
X52749260Y-96659000D01*
X52660740Y-96659000D01*
X52594558Y-96652482D01*
X52528373Y-96645963D01*
X52358534Y-96594443D01*
X52202009Y-96510778D01*
X52166271Y-96481448D01*
X52064814Y-96398186D01*
X51981552Y-96296729D01*
X51952222Y-96260991D01*
X51868557Y-96104466D01*
X51817037Y-95934627D01*
X51799641Y-95758000D01*
X51817037Y-95581373D01*
X51868557Y-95411534D01*
X51952222Y-95255009D01*
X51981552Y-95219271D01*
X52064814Y-95117814D01*
X52166271Y-95034552D01*
X52202009Y-95005222D01*
X52358534Y-94921557D01*
X52528373Y-94870037D01*
X52594557Y-94863519D01*
X52660740Y-94857000D01*
X52749260Y-94857000D01*
X52815443Y-94863519D01*
X52815443Y-94863519D01*
G37*
G36*
X80755443Y-94863519D02*
G01*
X80821627Y-94870037D01*
X80991466Y-94921557D01*
X81147991Y-95005222D01*
X81183729Y-95034552D01*
X81285186Y-95117814D01*
X81368448Y-95219271D01*
X81397778Y-95255009D01*
X81481443Y-95411534D01*
X81532963Y-95581373D01*
X81550359Y-95758000D01*
X81532963Y-95934627D01*
X81481443Y-96104466D01*
X81397778Y-96260991D01*
X81368448Y-96296729D01*
X81285186Y-96398186D01*
X81183729Y-96481448D01*
X81147991Y-96510778D01*
X80991466Y-96594443D01*
X80821627Y-96645963D01*
X80755442Y-96652482D01*
X80689260Y-96659000D01*
X80600740Y-96659000D01*
X80534558Y-96652482D01*
X80468373Y-96645963D01*
X80298534Y-96594443D01*
X80142009Y-96510778D01*
X80106271Y-96481448D01*
X80004814Y-96398186D01*
X79921552Y-96296729D01*
X79892222Y-96260991D01*
X79808557Y-96104466D01*
X79757037Y-95934627D01*
X79739641Y-95758000D01*
X79757037Y-95581373D01*
X79808557Y-95411534D01*
X79892222Y-95255009D01*
X79921552Y-95219271D01*
X80004814Y-95117814D01*
X80106271Y-95034552D01*
X80142009Y-95005222D01*
X80298534Y-94921557D01*
X80468373Y-94870037D01*
X80534557Y-94863519D01*
X80600740Y-94857000D01*
X80689260Y-94857000D01*
X80755443Y-94863519D01*
X80755443Y-94863519D01*
G37*
G36*
X122930256Y-91736298D02*
G01*
X123036579Y-91757447D01*
X123337042Y-91881903D01*
X123607451Y-92062585D01*
X123837415Y-92292549D01*
X124018097Y-92562958D01*
X124018098Y-92562960D01*
X124142553Y-92863422D01*
X124206000Y-93182389D01*
X124206000Y-93507611D01*
X124194690Y-93564468D01*
X124142553Y-93826579D01*
X124018097Y-94127042D01*
X123837415Y-94397451D01*
X123607451Y-94627415D01*
X123337042Y-94808097D01*
X123036579Y-94932553D01*
X122930256Y-94953702D01*
X122717611Y-94996000D01*
X122392389Y-94996000D01*
X122179744Y-94953702D01*
X122073421Y-94932553D01*
X121772958Y-94808097D01*
X121502549Y-94627415D01*
X121272585Y-94397451D01*
X121091903Y-94127042D01*
X120967447Y-93826579D01*
X120915310Y-93564468D01*
X120904000Y-93507611D01*
X120904000Y-93182389D01*
X120967447Y-92863422D01*
X121091902Y-92562960D01*
X121091903Y-92562958D01*
X121272585Y-92292549D01*
X121502549Y-92062585D01*
X121772958Y-91881903D01*
X122073421Y-91757447D01*
X122179744Y-91736298D01*
X122392389Y-91694000D01*
X122717611Y-91694000D01*
X122930256Y-91736298D01*
X122930256Y-91736298D01*
G37*
G36*
X44825256Y-91736298D02*
G01*
X44931579Y-91757447D01*
X45232042Y-91881903D01*
X45502451Y-92062585D01*
X45732415Y-92292549D01*
X45913097Y-92562958D01*
X45913098Y-92562960D01*
X46037553Y-92863422D01*
X46101000Y-93182389D01*
X46101000Y-93507611D01*
X46089690Y-93564468D01*
X46037553Y-93826579D01*
X45913097Y-94127042D01*
X45732415Y-94397451D01*
X45502451Y-94627415D01*
X45232042Y-94808097D01*
X44931579Y-94932553D01*
X44825256Y-94953702D01*
X44612611Y-94996000D01*
X44287389Y-94996000D01*
X44074744Y-94953702D01*
X43968421Y-94932553D01*
X43667958Y-94808097D01*
X43397549Y-94627415D01*
X43167585Y-94397451D01*
X42986903Y-94127042D01*
X42862447Y-93826579D01*
X42810310Y-93564468D01*
X42799000Y-93507611D01*
X42799000Y-93182389D01*
X42862447Y-92863422D01*
X42986902Y-92562960D01*
X42986903Y-92562958D01*
X43167585Y-92292549D01*
X43397549Y-92062585D01*
X43667958Y-91881903D01*
X43968421Y-91757447D01*
X44074744Y-91736298D01*
X44287389Y-91694000D01*
X44612611Y-91694000D01*
X44825256Y-91736298D01*
X44825256Y-91736298D01*
G37*
G36*
X75675442Y-92323518D02*
G01*
X75741627Y-92330037D01*
X75911466Y-92381557D01*
X76067991Y-92465222D01*
X76103729Y-92494552D01*
X76205186Y-92577814D01*
X76288448Y-92679271D01*
X76317778Y-92715009D01*
X76317779Y-92715011D01*
X76397107Y-92863421D01*
X76401443Y-92871534D01*
X76452963Y-93041373D01*
X76470359Y-93218000D01*
X76452963Y-93394627D01*
X76401443Y-93564466D01*
X76317778Y-93720991D01*
X76288448Y-93756729D01*
X76205186Y-93858186D01*
X76103729Y-93941448D01*
X76067991Y-93970778D01*
X75911466Y-94054443D01*
X75741627Y-94105963D01*
X75675442Y-94112482D01*
X75609260Y-94119000D01*
X75520740Y-94119000D01*
X75454558Y-94112482D01*
X75388373Y-94105963D01*
X75218534Y-94054443D01*
X75062009Y-93970778D01*
X75026271Y-93941448D01*
X74924814Y-93858186D01*
X74841552Y-93756729D01*
X74812222Y-93720991D01*
X74728557Y-93564466D01*
X74677037Y-93394627D01*
X74659641Y-93218000D01*
X74677037Y-93041373D01*
X74728557Y-92871534D01*
X74732894Y-92863421D01*
X74812221Y-92715011D01*
X74812222Y-92715009D01*
X74841552Y-92679271D01*
X74924814Y-92577814D01*
X75026271Y-92494552D01*
X75062009Y-92465222D01*
X75218534Y-92381557D01*
X75388373Y-92330037D01*
X75454558Y-92323518D01*
X75520740Y-92317000D01*
X75609260Y-92317000D01*
X75675442Y-92323518D01*
X75675442Y-92323518D01*
G37*
G36*
X87261000Y-94119000D02*
G01*
X85459000Y-94119000D01*
X85459000Y-92317000D01*
X87261000Y-92317000D01*
X87261000Y-94119000D01*
X87261000Y-94119000D01*
G37*
G36*
X116950442Y-92323518D02*
G01*
X117016627Y-92330037D01*
X117186466Y-92381557D01*
X117342991Y-92465222D01*
X117378729Y-92494552D01*
X117480186Y-92577814D01*
X117563448Y-92679271D01*
X117592778Y-92715009D01*
X117592779Y-92715011D01*
X117672107Y-92863421D01*
X117676443Y-92871534D01*
X117727963Y-93041373D01*
X117745359Y-93218000D01*
X117727963Y-93394627D01*
X117676443Y-93564466D01*
X117592778Y-93720991D01*
X117563448Y-93756729D01*
X117480186Y-93858186D01*
X117378729Y-93941448D01*
X117342991Y-93970778D01*
X117186466Y-94054443D01*
X117016627Y-94105963D01*
X116950442Y-94112482D01*
X116884260Y-94119000D01*
X116795740Y-94119000D01*
X116729558Y-94112482D01*
X116663373Y-94105963D01*
X116493534Y-94054443D01*
X116337009Y-93970778D01*
X116301271Y-93941448D01*
X116199814Y-93858186D01*
X116116552Y-93756729D01*
X116087222Y-93720991D01*
X116003557Y-93564466D01*
X115952037Y-93394627D01*
X115934641Y-93218000D01*
X115952037Y-93041373D01*
X116003557Y-92871534D01*
X116007894Y-92863421D01*
X116087221Y-92715011D01*
X116087222Y-92715009D01*
X116116552Y-92679271D01*
X116199814Y-92577814D01*
X116301271Y-92494552D01*
X116337009Y-92465222D01*
X116493534Y-92381557D01*
X116663373Y-92330037D01*
X116729558Y-92323518D01*
X116795740Y-92317000D01*
X116884260Y-92317000D01*
X116950442Y-92323518D01*
X116950442Y-92323518D01*
G37*
G36*
X52815442Y-92323518D02*
G01*
X52881627Y-92330037D01*
X53051466Y-92381557D01*
X53207991Y-92465222D01*
X53243729Y-92494552D01*
X53345186Y-92577814D01*
X53428448Y-92679271D01*
X53457778Y-92715009D01*
X53457779Y-92715011D01*
X53537107Y-92863421D01*
X53541443Y-92871534D01*
X53592963Y-93041373D01*
X53610359Y-93218000D01*
X53592963Y-93394627D01*
X53541443Y-93564466D01*
X53457778Y-93720991D01*
X53428448Y-93756729D01*
X53345186Y-93858186D01*
X53243729Y-93941448D01*
X53207991Y-93970778D01*
X53051466Y-94054443D01*
X52881627Y-94105963D01*
X52815442Y-94112482D01*
X52749260Y-94119000D01*
X52660740Y-94119000D01*
X52594558Y-94112482D01*
X52528373Y-94105963D01*
X52358534Y-94054443D01*
X52202009Y-93970778D01*
X52166271Y-93941448D01*
X52064814Y-93858186D01*
X51981552Y-93756729D01*
X51952222Y-93720991D01*
X51868557Y-93564466D01*
X51817037Y-93394627D01*
X51799641Y-93218000D01*
X51817037Y-93041373D01*
X51868557Y-92871534D01*
X51872894Y-92863421D01*
X51952221Y-92715011D01*
X51952222Y-92715009D01*
X51981552Y-92679271D01*
X52064814Y-92577814D01*
X52166271Y-92494552D01*
X52202009Y-92465222D01*
X52358534Y-92381557D01*
X52528373Y-92330037D01*
X52594558Y-92323518D01*
X52660740Y-92317000D01*
X52749260Y-92317000D01*
X52815442Y-92323518D01*
X52815442Y-92323518D01*
G37*
G36*
X114410442Y-92323518D02*
G01*
X114476627Y-92330037D01*
X114646466Y-92381557D01*
X114802991Y-92465222D01*
X114838729Y-92494552D01*
X114940186Y-92577814D01*
X115023448Y-92679271D01*
X115052778Y-92715009D01*
X115052779Y-92715011D01*
X115132107Y-92863421D01*
X115136443Y-92871534D01*
X115187963Y-93041373D01*
X115205359Y-93218000D01*
X115187963Y-93394627D01*
X115136443Y-93564466D01*
X115052778Y-93720991D01*
X115023448Y-93756729D01*
X114940186Y-93858186D01*
X114838729Y-93941448D01*
X114802991Y-93970778D01*
X114646466Y-94054443D01*
X114476627Y-94105963D01*
X114410442Y-94112482D01*
X114344260Y-94119000D01*
X114255740Y-94119000D01*
X114189558Y-94112482D01*
X114123373Y-94105963D01*
X113953534Y-94054443D01*
X113797009Y-93970778D01*
X113761271Y-93941448D01*
X113659814Y-93858186D01*
X113576552Y-93756729D01*
X113547222Y-93720991D01*
X113463557Y-93564466D01*
X113412037Y-93394627D01*
X113394641Y-93218000D01*
X113412037Y-93041373D01*
X113463557Y-92871534D01*
X113467894Y-92863421D01*
X113547221Y-92715011D01*
X113547222Y-92715009D01*
X113576552Y-92679271D01*
X113659814Y-92577814D01*
X113761271Y-92494552D01*
X113797009Y-92465222D01*
X113953534Y-92381557D01*
X114123373Y-92330037D01*
X114189558Y-92323518D01*
X114255740Y-92317000D01*
X114344260Y-92317000D01*
X114410442Y-92323518D01*
X114410442Y-92323518D01*
G37*
G36*
X55355442Y-92323518D02*
G01*
X55421627Y-92330037D01*
X55591466Y-92381557D01*
X55747991Y-92465222D01*
X55783729Y-92494552D01*
X55885186Y-92577814D01*
X55968448Y-92679271D01*
X55997778Y-92715009D01*
X55997779Y-92715011D01*
X56077107Y-92863421D01*
X56081443Y-92871534D01*
X56132963Y-93041373D01*
X56150359Y-93218000D01*
X56132963Y-93394627D01*
X56081443Y-93564466D01*
X55997778Y-93720991D01*
X55968448Y-93756729D01*
X55885186Y-93858186D01*
X55783729Y-93941448D01*
X55747991Y-93970778D01*
X55591466Y-94054443D01*
X55421627Y-94105963D01*
X55355442Y-94112482D01*
X55289260Y-94119000D01*
X55200740Y-94119000D01*
X55134558Y-94112482D01*
X55068373Y-94105963D01*
X54898534Y-94054443D01*
X54742009Y-93970778D01*
X54706271Y-93941448D01*
X54604814Y-93858186D01*
X54521552Y-93756729D01*
X54492222Y-93720991D01*
X54408557Y-93564466D01*
X54357037Y-93394627D01*
X54339641Y-93218000D01*
X54357037Y-93041373D01*
X54408557Y-92871534D01*
X54412894Y-92863421D01*
X54492221Y-92715011D01*
X54492222Y-92715009D01*
X54521552Y-92679271D01*
X54604814Y-92577814D01*
X54706271Y-92494552D01*
X54742009Y-92465222D01*
X54898534Y-92381557D01*
X55068373Y-92330037D01*
X55134558Y-92323518D01*
X55200740Y-92317000D01*
X55289260Y-92317000D01*
X55355442Y-92323518D01*
X55355442Y-92323518D01*
G37*
G36*
X111870442Y-92323518D02*
G01*
X111936627Y-92330037D01*
X112106466Y-92381557D01*
X112262991Y-92465222D01*
X112298729Y-92494552D01*
X112400186Y-92577814D01*
X112483448Y-92679271D01*
X112512778Y-92715009D01*
X112512779Y-92715011D01*
X112592107Y-92863421D01*
X112596443Y-92871534D01*
X112647963Y-93041373D01*
X112665359Y-93218000D01*
X112647963Y-93394627D01*
X112596443Y-93564466D01*
X112512778Y-93720991D01*
X112483448Y-93756729D01*
X112400186Y-93858186D01*
X112298729Y-93941448D01*
X112262991Y-93970778D01*
X112106466Y-94054443D01*
X111936627Y-94105963D01*
X111870442Y-94112482D01*
X111804260Y-94119000D01*
X111715740Y-94119000D01*
X111649558Y-94112482D01*
X111583373Y-94105963D01*
X111413534Y-94054443D01*
X111257009Y-93970778D01*
X111221271Y-93941448D01*
X111119814Y-93858186D01*
X111036552Y-93756729D01*
X111007222Y-93720991D01*
X110923557Y-93564466D01*
X110872037Y-93394627D01*
X110854641Y-93218000D01*
X110872037Y-93041373D01*
X110923557Y-92871534D01*
X110927894Y-92863421D01*
X111007221Y-92715011D01*
X111007222Y-92715009D01*
X111036552Y-92679271D01*
X111119814Y-92577814D01*
X111221271Y-92494552D01*
X111257009Y-92465222D01*
X111413534Y-92381557D01*
X111583373Y-92330037D01*
X111649558Y-92323518D01*
X111715740Y-92317000D01*
X111804260Y-92317000D01*
X111870442Y-92323518D01*
X111870442Y-92323518D01*
G37*
G36*
X57895442Y-92323518D02*
G01*
X57961627Y-92330037D01*
X58131466Y-92381557D01*
X58287991Y-92465222D01*
X58323729Y-92494552D01*
X58425186Y-92577814D01*
X58508448Y-92679271D01*
X58537778Y-92715009D01*
X58537779Y-92715011D01*
X58617107Y-92863421D01*
X58621443Y-92871534D01*
X58672963Y-93041373D01*
X58690359Y-93218000D01*
X58672963Y-93394627D01*
X58621443Y-93564466D01*
X58537778Y-93720991D01*
X58508448Y-93756729D01*
X58425186Y-93858186D01*
X58323729Y-93941448D01*
X58287991Y-93970778D01*
X58131466Y-94054443D01*
X57961627Y-94105963D01*
X57895442Y-94112482D01*
X57829260Y-94119000D01*
X57740740Y-94119000D01*
X57674558Y-94112482D01*
X57608373Y-94105963D01*
X57438534Y-94054443D01*
X57282009Y-93970778D01*
X57246271Y-93941448D01*
X57144814Y-93858186D01*
X57061552Y-93756729D01*
X57032222Y-93720991D01*
X56948557Y-93564466D01*
X56897037Y-93394627D01*
X56879641Y-93218000D01*
X56897037Y-93041373D01*
X56948557Y-92871534D01*
X56952894Y-92863421D01*
X57032221Y-92715011D01*
X57032222Y-92715009D01*
X57061552Y-92679271D01*
X57144814Y-92577814D01*
X57246271Y-92494552D01*
X57282009Y-92465222D01*
X57438534Y-92381557D01*
X57608373Y-92330037D01*
X57674558Y-92323518D01*
X57740740Y-92317000D01*
X57829260Y-92317000D01*
X57895442Y-92323518D01*
X57895442Y-92323518D01*
G37*
G36*
X109330442Y-92323518D02*
G01*
X109396627Y-92330037D01*
X109566466Y-92381557D01*
X109722991Y-92465222D01*
X109758729Y-92494552D01*
X109860186Y-92577814D01*
X109943448Y-92679271D01*
X109972778Y-92715009D01*
X109972779Y-92715011D01*
X110052107Y-92863421D01*
X110056443Y-92871534D01*
X110107963Y-93041373D01*
X110125359Y-93218000D01*
X110107963Y-93394627D01*
X110056443Y-93564466D01*
X109972778Y-93720991D01*
X109943448Y-93756729D01*
X109860186Y-93858186D01*
X109758729Y-93941448D01*
X109722991Y-93970778D01*
X109566466Y-94054443D01*
X109396627Y-94105963D01*
X109330442Y-94112482D01*
X109264260Y-94119000D01*
X109175740Y-94119000D01*
X109109558Y-94112482D01*
X109043373Y-94105963D01*
X108873534Y-94054443D01*
X108717009Y-93970778D01*
X108681271Y-93941448D01*
X108579814Y-93858186D01*
X108496552Y-93756729D01*
X108467222Y-93720991D01*
X108383557Y-93564466D01*
X108332037Y-93394627D01*
X108314641Y-93218000D01*
X108332037Y-93041373D01*
X108383557Y-92871534D01*
X108387894Y-92863421D01*
X108467221Y-92715011D01*
X108467222Y-92715009D01*
X108496552Y-92679271D01*
X108579814Y-92577814D01*
X108681271Y-92494552D01*
X108717009Y-92465222D01*
X108873534Y-92381557D01*
X109043373Y-92330037D01*
X109109558Y-92323518D01*
X109175740Y-92317000D01*
X109264260Y-92317000D01*
X109330442Y-92323518D01*
X109330442Y-92323518D01*
G37*
G36*
X60435442Y-92323518D02*
G01*
X60501627Y-92330037D01*
X60671466Y-92381557D01*
X60827991Y-92465222D01*
X60863729Y-92494552D01*
X60965186Y-92577814D01*
X61048448Y-92679271D01*
X61077778Y-92715009D01*
X61077779Y-92715011D01*
X61157107Y-92863421D01*
X61161443Y-92871534D01*
X61212963Y-93041373D01*
X61230359Y-93218000D01*
X61212963Y-93394627D01*
X61161443Y-93564466D01*
X61077778Y-93720991D01*
X61048448Y-93756729D01*
X60965186Y-93858186D01*
X60863729Y-93941448D01*
X60827991Y-93970778D01*
X60671466Y-94054443D01*
X60501627Y-94105963D01*
X60435442Y-94112482D01*
X60369260Y-94119000D01*
X60280740Y-94119000D01*
X60214558Y-94112482D01*
X60148373Y-94105963D01*
X59978534Y-94054443D01*
X59822009Y-93970778D01*
X59786271Y-93941448D01*
X59684814Y-93858186D01*
X59601552Y-93756729D01*
X59572222Y-93720991D01*
X59488557Y-93564466D01*
X59437037Y-93394627D01*
X59419641Y-93218000D01*
X59437037Y-93041373D01*
X59488557Y-92871534D01*
X59492894Y-92863421D01*
X59572221Y-92715011D01*
X59572222Y-92715009D01*
X59601552Y-92679271D01*
X59684814Y-92577814D01*
X59786271Y-92494552D01*
X59822009Y-92465222D01*
X59978534Y-92381557D01*
X60148373Y-92330037D01*
X60214558Y-92323518D01*
X60280740Y-92317000D01*
X60369260Y-92317000D01*
X60435442Y-92323518D01*
X60435442Y-92323518D01*
G37*
G36*
X106790442Y-92323518D02*
G01*
X106856627Y-92330037D01*
X107026466Y-92381557D01*
X107182991Y-92465222D01*
X107218729Y-92494552D01*
X107320186Y-92577814D01*
X107403448Y-92679271D01*
X107432778Y-92715009D01*
X107432779Y-92715011D01*
X107512107Y-92863421D01*
X107516443Y-92871534D01*
X107567963Y-93041373D01*
X107585359Y-93218000D01*
X107567963Y-93394627D01*
X107516443Y-93564466D01*
X107432778Y-93720991D01*
X107403448Y-93756729D01*
X107320186Y-93858186D01*
X107218729Y-93941448D01*
X107182991Y-93970778D01*
X107026466Y-94054443D01*
X106856627Y-94105963D01*
X106790442Y-94112482D01*
X106724260Y-94119000D01*
X106635740Y-94119000D01*
X106569558Y-94112482D01*
X106503373Y-94105963D01*
X106333534Y-94054443D01*
X106177009Y-93970778D01*
X106141271Y-93941448D01*
X106039814Y-93858186D01*
X105956552Y-93756729D01*
X105927222Y-93720991D01*
X105843557Y-93564466D01*
X105792037Y-93394627D01*
X105774641Y-93218000D01*
X105792037Y-93041373D01*
X105843557Y-92871534D01*
X105847894Y-92863421D01*
X105927221Y-92715011D01*
X105927222Y-92715009D01*
X105956552Y-92679271D01*
X106039814Y-92577814D01*
X106141271Y-92494552D01*
X106177009Y-92465222D01*
X106333534Y-92381557D01*
X106503373Y-92330037D01*
X106569558Y-92323518D01*
X106635740Y-92317000D01*
X106724260Y-92317000D01*
X106790442Y-92323518D01*
X106790442Y-92323518D01*
G37*
G36*
X62975442Y-92323518D02*
G01*
X63041627Y-92330037D01*
X63211466Y-92381557D01*
X63367991Y-92465222D01*
X63403729Y-92494552D01*
X63505186Y-92577814D01*
X63588448Y-92679271D01*
X63617778Y-92715009D01*
X63617779Y-92715011D01*
X63697107Y-92863421D01*
X63701443Y-92871534D01*
X63752963Y-93041373D01*
X63770359Y-93218000D01*
X63752963Y-93394627D01*
X63701443Y-93564466D01*
X63617778Y-93720991D01*
X63588448Y-93756729D01*
X63505186Y-93858186D01*
X63403729Y-93941448D01*
X63367991Y-93970778D01*
X63211466Y-94054443D01*
X63041627Y-94105963D01*
X62975442Y-94112482D01*
X62909260Y-94119000D01*
X62820740Y-94119000D01*
X62754558Y-94112482D01*
X62688373Y-94105963D01*
X62518534Y-94054443D01*
X62362009Y-93970778D01*
X62326271Y-93941448D01*
X62224814Y-93858186D01*
X62141552Y-93756729D01*
X62112222Y-93720991D01*
X62028557Y-93564466D01*
X61977037Y-93394627D01*
X61959641Y-93218000D01*
X61977037Y-93041373D01*
X62028557Y-92871534D01*
X62032894Y-92863421D01*
X62112221Y-92715011D01*
X62112222Y-92715009D01*
X62141552Y-92679271D01*
X62224814Y-92577814D01*
X62326271Y-92494552D01*
X62362009Y-92465222D01*
X62518534Y-92381557D01*
X62688373Y-92330037D01*
X62754558Y-92323518D01*
X62820740Y-92317000D01*
X62909260Y-92317000D01*
X62975442Y-92323518D01*
X62975442Y-92323518D01*
G37*
G36*
X104250442Y-92323518D02*
G01*
X104316627Y-92330037D01*
X104486466Y-92381557D01*
X104642991Y-92465222D01*
X104678729Y-92494552D01*
X104780186Y-92577814D01*
X104863448Y-92679271D01*
X104892778Y-92715009D01*
X104892779Y-92715011D01*
X104972107Y-92863421D01*
X104976443Y-92871534D01*
X105027963Y-93041373D01*
X105045359Y-93218000D01*
X105027963Y-93394627D01*
X104976443Y-93564466D01*
X104892778Y-93720991D01*
X104863448Y-93756729D01*
X104780186Y-93858186D01*
X104678729Y-93941448D01*
X104642991Y-93970778D01*
X104486466Y-94054443D01*
X104316627Y-94105963D01*
X104250442Y-94112482D01*
X104184260Y-94119000D01*
X104095740Y-94119000D01*
X104029558Y-94112482D01*
X103963373Y-94105963D01*
X103793534Y-94054443D01*
X103637009Y-93970778D01*
X103601271Y-93941448D01*
X103499814Y-93858186D01*
X103416552Y-93756729D01*
X103387222Y-93720991D01*
X103303557Y-93564466D01*
X103252037Y-93394627D01*
X103234641Y-93218000D01*
X103252037Y-93041373D01*
X103303557Y-92871534D01*
X103307894Y-92863421D01*
X103387221Y-92715011D01*
X103387222Y-92715009D01*
X103416552Y-92679271D01*
X103499814Y-92577814D01*
X103601271Y-92494552D01*
X103637009Y-92465222D01*
X103793534Y-92381557D01*
X103963373Y-92330037D01*
X104029558Y-92323518D01*
X104095740Y-92317000D01*
X104184260Y-92317000D01*
X104250442Y-92323518D01*
X104250442Y-92323518D01*
G37*
G36*
X101710442Y-92323518D02*
G01*
X101776627Y-92330037D01*
X101946466Y-92381557D01*
X102102991Y-92465222D01*
X102138729Y-92494552D01*
X102240186Y-92577814D01*
X102323448Y-92679271D01*
X102352778Y-92715009D01*
X102352779Y-92715011D01*
X102432107Y-92863421D01*
X102436443Y-92871534D01*
X102487963Y-93041373D01*
X102505359Y-93218000D01*
X102487963Y-93394627D01*
X102436443Y-93564466D01*
X102352778Y-93720991D01*
X102323448Y-93756729D01*
X102240186Y-93858186D01*
X102138729Y-93941448D01*
X102102991Y-93970778D01*
X101946466Y-94054443D01*
X101776627Y-94105963D01*
X101710442Y-94112482D01*
X101644260Y-94119000D01*
X101555740Y-94119000D01*
X101489558Y-94112482D01*
X101423373Y-94105963D01*
X101253534Y-94054443D01*
X101097009Y-93970778D01*
X101061271Y-93941448D01*
X100959814Y-93858186D01*
X100876552Y-93756729D01*
X100847222Y-93720991D01*
X100763557Y-93564466D01*
X100712037Y-93394627D01*
X100694641Y-93218000D01*
X100712037Y-93041373D01*
X100763557Y-92871534D01*
X100767894Y-92863421D01*
X100847221Y-92715011D01*
X100847222Y-92715009D01*
X100876552Y-92679271D01*
X100959814Y-92577814D01*
X101061271Y-92494552D01*
X101097009Y-92465222D01*
X101253534Y-92381557D01*
X101423373Y-92330037D01*
X101489558Y-92323518D01*
X101555740Y-92317000D01*
X101644260Y-92317000D01*
X101710442Y-92323518D01*
X101710442Y-92323518D01*
G37*
G36*
X80755442Y-92323518D02*
G01*
X80821627Y-92330037D01*
X80991466Y-92381557D01*
X81147991Y-92465222D01*
X81183729Y-92494552D01*
X81285186Y-92577814D01*
X81368448Y-92679271D01*
X81397778Y-92715009D01*
X81397779Y-92715011D01*
X81477107Y-92863421D01*
X81481443Y-92871534D01*
X81532963Y-93041373D01*
X81550359Y-93218000D01*
X81532963Y-93394627D01*
X81481443Y-93564466D01*
X81397778Y-93720991D01*
X81368448Y-93756729D01*
X81285186Y-93858186D01*
X81183729Y-93941448D01*
X81147991Y-93970778D01*
X80991466Y-94054443D01*
X80821627Y-94105963D01*
X80755442Y-94112482D01*
X80689260Y-94119000D01*
X80600740Y-94119000D01*
X80534558Y-94112482D01*
X80468373Y-94105963D01*
X80298534Y-94054443D01*
X80142009Y-93970778D01*
X80106271Y-93941448D01*
X80004814Y-93858186D01*
X79921552Y-93756729D01*
X79892222Y-93720991D01*
X79808557Y-93564466D01*
X79757037Y-93394627D01*
X79739641Y-93218000D01*
X79757037Y-93041373D01*
X79808557Y-92871534D01*
X79812894Y-92863421D01*
X79892221Y-92715011D01*
X79892222Y-92715009D01*
X79921552Y-92679271D01*
X80004814Y-92577814D01*
X80106271Y-92494552D01*
X80142009Y-92465222D01*
X80298534Y-92381557D01*
X80468373Y-92330037D01*
X80534558Y-92323518D01*
X80600740Y-92317000D01*
X80689260Y-92317000D01*
X80755442Y-92323518D01*
X80755442Y-92323518D01*
G37*
G36*
X51066000Y-94119000D02*
G01*
X49264000Y-94119000D01*
X49264000Y-92317000D01*
X51066000Y-92317000D01*
X51066000Y-94119000D01*
X51066000Y-94119000D01*
G37*
G36*
X89010442Y-92323518D02*
G01*
X89076627Y-92330037D01*
X89246466Y-92381557D01*
X89402991Y-92465222D01*
X89438729Y-92494552D01*
X89540186Y-92577814D01*
X89623448Y-92679271D01*
X89652778Y-92715009D01*
X89652779Y-92715011D01*
X89732107Y-92863421D01*
X89736443Y-92871534D01*
X89787963Y-93041373D01*
X89805359Y-93218000D01*
X89787963Y-93394627D01*
X89736443Y-93564466D01*
X89652778Y-93720991D01*
X89623448Y-93756729D01*
X89540186Y-93858186D01*
X89438729Y-93941448D01*
X89402991Y-93970778D01*
X89246466Y-94054443D01*
X89076627Y-94105963D01*
X89010442Y-94112482D01*
X88944260Y-94119000D01*
X88855740Y-94119000D01*
X88789558Y-94112482D01*
X88723373Y-94105963D01*
X88553534Y-94054443D01*
X88397009Y-93970778D01*
X88361271Y-93941448D01*
X88259814Y-93858186D01*
X88176552Y-93756729D01*
X88147222Y-93720991D01*
X88063557Y-93564466D01*
X88012037Y-93394627D01*
X87994641Y-93218000D01*
X88012037Y-93041373D01*
X88063557Y-92871534D01*
X88067894Y-92863421D01*
X88147221Y-92715011D01*
X88147222Y-92715009D01*
X88176552Y-92679271D01*
X88259814Y-92577814D01*
X88361271Y-92494552D01*
X88397009Y-92465222D01*
X88553534Y-92381557D01*
X88723373Y-92330037D01*
X88789558Y-92323518D01*
X88855740Y-92317000D01*
X88944260Y-92317000D01*
X89010442Y-92323518D01*
X89010442Y-92323518D01*
G37*
G36*
X78215442Y-92323518D02*
G01*
X78281627Y-92330037D01*
X78451466Y-92381557D01*
X78607991Y-92465222D01*
X78643729Y-92494552D01*
X78745186Y-92577814D01*
X78828448Y-92679271D01*
X78857778Y-92715009D01*
X78857779Y-92715011D01*
X78937107Y-92863421D01*
X78941443Y-92871534D01*
X78992963Y-93041373D01*
X79010359Y-93218000D01*
X78992963Y-93394627D01*
X78941443Y-93564466D01*
X78857778Y-93720991D01*
X78828448Y-93756729D01*
X78745186Y-93858186D01*
X78643729Y-93941448D01*
X78607991Y-93970778D01*
X78451466Y-94054443D01*
X78281627Y-94105963D01*
X78215442Y-94112482D01*
X78149260Y-94119000D01*
X78060740Y-94119000D01*
X77994558Y-94112482D01*
X77928373Y-94105963D01*
X77758534Y-94054443D01*
X77602009Y-93970778D01*
X77566271Y-93941448D01*
X77464814Y-93858186D01*
X77381552Y-93756729D01*
X77352222Y-93720991D01*
X77268557Y-93564466D01*
X77217037Y-93394627D01*
X77199641Y-93218000D01*
X77217037Y-93041373D01*
X77268557Y-92871534D01*
X77272894Y-92863421D01*
X77352221Y-92715011D01*
X77352222Y-92715009D01*
X77381552Y-92679271D01*
X77464814Y-92577814D01*
X77566271Y-92494552D01*
X77602009Y-92465222D01*
X77758534Y-92381557D01*
X77928373Y-92330037D01*
X77994558Y-92323518D01*
X78060740Y-92317000D01*
X78149260Y-92317000D01*
X78215442Y-92323518D01*
X78215442Y-92323518D01*
G37*
G36*
X91550442Y-92323518D02*
G01*
X91616627Y-92330037D01*
X91786466Y-92381557D01*
X91942991Y-92465222D01*
X91978729Y-92494552D01*
X92080186Y-92577814D01*
X92163448Y-92679271D01*
X92192778Y-92715009D01*
X92192779Y-92715011D01*
X92272107Y-92863421D01*
X92276443Y-92871534D01*
X92327963Y-93041373D01*
X92345359Y-93218000D01*
X92327963Y-93394627D01*
X92276443Y-93564466D01*
X92192778Y-93720991D01*
X92163448Y-93756729D01*
X92080186Y-93858186D01*
X91978729Y-93941448D01*
X91942991Y-93970778D01*
X91786466Y-94054443D01*
X91616627Y-94105963D01*
X91550442Y-94112482D01*
X91484260Y-94119000D01*
X91395740Y-94119000D01*
X91329558Y-94112482D01*
X91263373Y-94105963D01*
X91093534Y-94054443D01*
X90937009Y-93970778D01*
X90901271Y-93941448D01*
X90799814Y-93858186D01*
X90716552Y-93756729D01*
X90687222Y-93720991D01*
X90603557Y-93564466D01*
X90552037Y-93394627D01*
X90534641Y-93218000D01*
X90552037Y-93041373D01*
X90603557Y-92871534D01*
X90607894Y-92863421D01*
X90687221Y-92715011D01*
X90687222Y-92715009D01*
X90716552Y-92679271D01*
X90799814Y-92577814D01*
X90901271Y-92494552D01*
X90937009Y-92465222D01*
X91093534Y-92381557D01*
X91263373Y-92330037D01*
X91329558Y-92323518D01*
X91395740Y-92317000D01*
X91484260Y-92317000D01*
X91550442Y-92323518D01*
X91550442Y-92323518D01*
G37*
G36*
X94090442Y-92323518D02*
G01*
X94156627Y-92330037D01*
X94326466Y-92381557D01*
X94482991Y-92465222D01*
X94518729Y-92494552D01*
X94620186Y-92577814D01*
X94703448Y-92679271D01*
X94732778Y-92715009D01*
X94732779Y-92715011D01*
X94812107Y-92863421D01*
X94816443Y-92871534D01*
X94867963Y-93041373D01*
X94885359Y-93218000D01*
X94867963Y-93394627D01*
X94816443Y-93564466D01*
X94732778Y-93720991D01*
X94703448Y-93756729D01*
X94620186Y-93858186D01*
X94518729Y-93941448D01*
X94482991Y-93970778D01*
X94326466Y-94054443D01*
X94156627Y-94105963D01*
X94090442Y-94112482D01*
X94024260Y-94119000D01*
X93935740Y-94119000D01*
X93869558Y-94112482D01*
X93803373Y-94105963D01*
X93633534Y-94054443D01*
X93477009Y-93970778D01*
X93441271Y-93941448D01*
X93339814Y-93858186D01*
X93256552Y-93756729D01*
X93227222Y-93720991D01*
X93143557Y-93564466D01*
X93092037Y-93394627D01*
X93074641Y-93218000D01*
X93092037Y-93041373D01*
X93143557Y-92871534D01*
X93147894Y-92863421D01*
X93227221Y-92715011D01*
X93227222Y-92715009D01*
X93256552Y-92679271D01*
X93339814Y-92577814D01*
X93441271Y-92494552D01*
X93477009Y-92465222D01*
X93633534Y-92381557D01*
X93803373Y-92330037D01*
X93869558Y-92323518D01*
X93935740Y-92317000D01*
X94024260Y-92317000D01*
X94090442Y-92323518D01*
X94090442Y-92323518D01*
G37*
G36*
X73135442Y-92323518D02*
G01*
X73201627Y-92330037D01*
X73371466Y-92381557D01*
X73527991Y-92465222D01*
X73563729Y-92494552D01*
X73665186Y-92577814D01*
X73748448Y-92679271D01*
X73777778Y-92715009D01*
X73777779Y-92715011D01*
X73857107Y-92863421D01*
X73861443Y-92871534D01*
X73912963Y-93041373D01*
X73930359Y-93218000D01*
X73912963Y-93394627D01*
X73861443Y-93564466D01*
X73777778Y-93720991D01*
X73748448Y-93756729D01*
X73665186Y-93858186D01*
X73563729Y-93941448D01*
X73527991Y-93970778D01*
X73371466Y-94054443D01*
X73201627Y-94105963D01*
X73135442Y-94112482D01*
X73069260Y-94119000D01*
X72980740Y-94119000D01*
X72914558Y-94112482D01*
X72848373Y-94105963D01*
X72678534Y-94054443D01*
X72522009Y-93970778D01*
X72486271Y-93941448D01*
X72384814Y-93858186D01*
X72301552Y-93756729D01*
X72272222Y-93720991D01*
X72188557Y-93564466D01*
X72137037Y-93394627D01*
X72119641Y-93218000D01*
X72137037Y-93041373D01*
X72188557Y-92871534D01*
X72192894Y-92863421D01*
X72272221Y-92715011D01*
X72272222Y-92715009D01*
X72301552Y-92679271D01*
X72384814Y-92577814D01*
X72486271Y-92494552D01*
X72522009Y-92465222D01*
X72678534Y-92381557D01*
X72848373Y-92330037D01*
X72914558Y-92323518D01*
X72980740Y-92317000D01*
X73069260Y-92317000D01*
X73135442Y-92323518D01*
X73135442Y-92323518D01*
G37*
G36*
X65515442Y-92323518D02*
G01*
X65581627Y-92330037D01*
X65751466Y-92381557D01*
X65907991Y-92465222D01*
X65943729Y-92494552D01*
X66045186Y-92577814D01*
X66128448Y-92679271D01*
X66157778Y-92715009D01*
X66157779Y-92715011D01*
X66237107Y-92863421D01*
X66241443Y-92871534D01*
X66292963Y-93041373D01*
X66310359Y-93218000D01*
X66292963Y-93394627D01*
X66241443Y-93564466D01*
X66157778Y-93720991D01*
X66128448Y-93756729D01*
X66045186Y-93858186D01*
X65943729Y-93941448D01*
X65907991Y-93970778D01*
X65751466Y-94054443D01*
X65581627Y-94105963D01*
X65515442Y-94112482D01*
X65449260Y-94119000D01*
X65360740Y-94119000D01*
X65294558Y-94112482D01*
X65228373Y-94105963D01*
X65058534Y-94054443D01*
X64902009Y-93970778D01*
X64866271Y-93941448D01*
X64764814Y-93858186D01*
X64681552Y-93756729D01*
X64652222Y-93720991D01*
X64568557Y-93564466D01*
X64517037Y-93394627D01*
X64499641Y-93218000D01*
X64517037Y-93041373D01*
X64568557Y-92871534D01*
X64572894Y-92863421D01*
X64652221Y-92715011D01*
X64652222Y-92715009D01*
X64681552Y-92679271D01*
X64764814Y-92577814D01*
X64866271Y-92494552D01*
X64902009Y-92465222D01*
X65058534Y-92381557D01*
X65228373Y-92330037D01*
X65294558Y-92323518D01*
X65360740Y-92317000D01*
X65449260Y-92317000D01*
X65515442Y-92323518D01*
X65515442Y-92323518D01*
G37*
G36*
X68055442Y-92323518D02*
G01*
X68121627Y-92330037D01*
X68291466Y-92381557D01*
X68447991Y-92465222D01*
X68483729Y-92494552D01*
X68585186Y-92577814D01*
X68668448Y-92679271D01*
X68697778Y-92715009D01*
X68697779Y-92715011D01*
X68777107Y-92863421D01*
X68781443Y-92871534D01*
X68832963Y-93041373D01*
X68850359Y-93218000D01*
X68832963Y-93394627D01*
X68781443Y-93564466D01*
X68697778Y-93720991D01*
X68668448Y-93756729D01*
X68585186Y-93858186D01*
X68483729Y-93941448D01*
X68447991Y-93970778D01*
X68291466Y-94054443D01*
X68121627Y-94105963D01*
X68055442Y-94112482D01*
X67989260Y-94119000D01*
X67900740Y-94119000D01*
X67834558Y-94112482D01*
X67768373Y-94105963D01*
X67598534Y-94054443D01*
X67442009Y-93970778D01*
X67406271Y-93941448D01*
X67304814Y-93858186D01*
X67221552Y-93756729D01*
X67192222Y-93720991D01*
X67108557Y-93564466D01*
X67057037Y-93394627D01*
X67039641Y-93218000D01*
X67057037Y-93041373D01*
X67108557Y-92871534D01*
X67112894Y-92863421D01*
X67192221Y-92715011D01*
X67192222Y-92715009D01*
X67221552Y-92679271D01*
X67304814Y-92577814D01*
X67406271Y-92494552D01*
X67442009Y-92465222D01*
X67598534Y-92381557D01*
X67768373Y-92330037D01*
X67834558Y-92323518D01*
X67900740Y-92317000D01*
X67989260Y-92317000D01*
X68055442Y-92323518D01*
X68055442Y-92323518D01*
G37*
G36*
X99170442Y-92323518D02*
G01*
X99236627Y-92330037D01*
X99406466Y-92381557D01*
X99562991Y-92465222D01*
X99598729Y-92494552D01*
X99700186Y-92577814D01*
X99783448Y-92679271D01*
X99812778Y-92715009D01*
X99812779Y-92715011D01*
X99892107Y-92863421D01*
X99896443Y-92871534D01*
X99947963Y-93041373D01*
X99965359Y-93218000D01*
X99947963Y-93394627D01*
X99896443Y-93564466D01*
X99812778Y-93720991D01*
X99783448Y-93756729D01*
X99700186Y-93858186D01*
X99598729Y-93941448D01*
X99562991Y-93970778D01*
X99406466Y-94054443D01*
X99236627Y-94105963D01*
X99170442Y-94112482D01*
X99104260Y-94119000D01*
X99015740Y-94119000D01*
X98949558Y-94112482D01*
X98883373Y-94105963D01*
X98713534Y-94054443D01*
X98557009Y-93970778D01*
X98521271Y-93941448D01*
X98419814Y-93858186D01*
X98336552Y-93756729D01*
X98307222Y-93720991D01*
X98223557Y-93564466D01*
X98172037Y-93394627D01*
X98154641Y-93218000D01*
X98172037Y-93041373D01*
X98223557Y-92871534D01*
X98227894Y-92863421D01*
X98307221Y-92715011D01*
X98307222Y-92715009D01*
X98336552Y-92679271D01*
X98419814Y-92577814D01*
X98521271Y-92494552D01*
X98557009Y-92465222D01*
X98713534Y-92381557D01*
X98883373Y-92330037D01*
X98949558Y-92323518D01*
X99015740Y-92317000D01*
X99104260Y-92317000D01*
X99170442Y-92323518D01*
X99170442Y-92323518D01*
G37*
G36*
X70595442Y-92323518D02*
G01*
X70661627Y-92330037D01*
X70831466Y-92381557D01*
X70987991Y-92465222D01*
X71023729Y-92494552D01*
X71125186Y-92577814D01*
X71208448Y-92679271D01*
X71237778Y-92715009D01*
X71237779Y-92715011D01*
X71317107Y-92863421D01*
X71321443Y-92871534D01*
X71372963Y-93041373D01*
X71390359Y-93218000D01*
X71372963Y-93394627D01*
X71321443Y-93564466D01*
X71237778Y-93720991D01*
X71208448Y-93756729D01*
X71125186Y-93858186D01*
X71023729Y-93941448D01*
X70987991Y-93970778D01*
X70831466Y-94054443D01*
X70661627Y-94105963D01*
X70595442Y-94112482D01*
X70529260Y-94119000D01*
X70440740Y-94119000D01*
X70374558Y-94112482D01*
X70308373Y-94105963D01*
X70138534Y-94054443D01*
X69982009Y-93970778D01*
X69946271Y-93941448D01*
X69844814Y-93858186D01*
X69761552Y-93756729D01*
X69732222Y-93720991D01*
X69648557Y-93564466D01*
X69597037Y-93394627D01*
X69579641Y-93218000D01*
X69597037Y-93041373D01*
X69648557Y-92871534D01*
X69652894Y-92863421D01*
X69732221Y-92715011D01*
X69732222Y-92715009D01*
X69761552Y-92679271D01*
X69844814Y-92577814D01*
X69946271Y-92494552D01*
X69982009Y-92465222D01*
X70138534Y-92381557D01*
X70308373Y-92330037D01*
X70374558Y-92323518D01*
X70440740Y-92317000D01*
X70529260Y-92317000D01*
X70595442Y-92323518D01*
X70595442Y-92323518D01*
G37*
G36*
X96630442Y-92323518D02*
G01*
X96696627Y-92330037D01*
X96866466Y-92381557D01*
X97022991Y-92465222D01*
X97058729Y-92494552D01*
X97160186Y-92577814D01*
X97243448Y-92679271D01*
X97272778Y-92715009D01*
X97272779Y-92715011D01*
X97352107Y-92863421D01*
X97356443Y-92871534D01*
X97407963Y-93041373D01*
X97425359Y-93218000D01*
X97407963Y-93394627D01*
X97356443Y-93564466D01*
X97272778Y-93720991D01*
X97243448Y-93756729D01*
X97160186Y-93858186D01*
X97058729Y-93941448D01*
X97022991Y-93970778D01*
X96866466Y-94054443D01*
X96696627Y-94105963D01*
X96630442Y-94112482D01*
X96564260Y-94119000D01*
X96475740Y-94119000D01*
X96409558Y-94112482D01*
X96343373Y-94105963D01*
X96173534Y-94054443D01*
X96017009Y-93970778D01*
X95981271Y-93941448D01*
X95879814Y-93858186D01*
X95796552Y-93756729D01*
X95767222Y-93720991D01*
X95683557Y-93564466D01*
X95632037Y-93394627D01*
X95614641Y-93218000D01*
X95632037Y-93041373D01*
X95683557Y-92871534D01*
X95687894Y-92863421D01*
X95767221Y-92715011D01*
X95767222Y-92715009D01*
X95796552Y-92679271D01*
X95879814Y-92577814D01*
X95981271Y-92494552D01*
X96017009Y-92465222D01*
X96173534Y-92381557D01*
X96343373Y-92330037D01*
X96409558Y-92323518D01*
X96475740Y-92317000D01*
X96564260Y-92317000D01*
X96630442Y-92323518D01*
X96630442Y-92323518D01*
G37*
G36*
X44117585Y-84203802D02*
G01*
X44267410Y-84233604D01*
X44549674Y-84350521D01*
X44803705Y-84520259D01*
X45019741Y-84736295D01*
X45189479Y-84990326D01*
X45306396Y-85272590D01*
X45366000Y-85572240D01*
X45366000Y-85877760D01*
X45306396Y-86177410D01*
X45189479Y-86459674D01*
X45019741Y-86713705D01*
X44803705Y-86929741D01*
X44549674Y-87099479D01*
X44267410Y-87216396D01*
X44117585Y-87246198D01*
X43967761Y-87276000D01*
X43662239Y-87276000D01*
X43512415Y-87246198D01*
X43362590Y-87216396D01*
X43080326Y-87099479D01*
X42826295Y-86929741D01*
X42610259Y-86713705D01*
X42440521Y-86459674D01*
X42323604Y-86177410D01*
X42264000Y-85877760D01*
X42264000Y-85572240D01*
X42323604Y-85272590D01*
X42440521Y-84990326D01*
X42610259Y-84736295D01*
X42826295Y-84520259D01*
X43080326Y-84350521D01*
X43362590Y-84233604D01*
X43512415Y-84203802D01*
X43662239Y-84174000D01*
X43967761Y-84174000D01*
X44117585Y-84203802D01*
X44117585Y-84203802D01*
G37*
G36*
X44117585Y-75313802D02*
G01*
X44267410Y-75343604D01*
X44549674Y-75460521D01*
X44803705Y-75630259D01*
X45019741Y-75846295D01*
X45189479Y-76100326D01*
X45306396Y-76382590D01*
X45366000Y-76682240D01*
X45366000Y-76987760D01*
X45306396Y-77287410D01*
X45189479Y-77569674D01*
X45019741Y-77823705D01*
X44803705Y-78039741D01*
X44549674Y-78209479D01*
X44267410Y-78326396D01*
X44117585Y-78356198D01*
X43967761Y-78386000D01*
X43662239Y-78386000D01*
X43512415Y-78356198D01*
X43362590Y-78326396D01*
X43080326Y-78209479D01*
X42826295Y-78039741D01*
X42610259Y-77823705D01*
X42440521Y-77569674D01*
X42323604Y-77287410D01*
X42264000Y-76987760D01*
X42264000Y-76682240D01*
X42323604Y-76382590D01*
X42440521Y-76100326D01*
X42610259Y-75846295D01*
X42826295Y-75630259D01*
X43080326Y-75460521D01*
X43362590Y-75343604D01*
X43512415Y-75313802D01*
X43662239Y-75284000D01*
X43967761Y-75284000D01*
X44117585Y-75313802D01*
X44117585Y-75313802D01*
G37*
G36*
X124127585Y-70233802D02*
G01*
X124277410Y-70263604D01*
X124559674Y-70380521D01*
X124813705Y-70550259D01*
X125029741Y-70766295D01*
X125199479Y-71020326D01*
X125316396Y-71302590D01*
X125376000Y-71602240D01*
X125376000Y-71907760D01*
X125316396Y-72207410D01*
X125199479Y-72489674D01*
X125029741Y-72743705D01*
X124813705Y-72959741D01*
X124559674Y-73129479D01*
X124277410Y-73246396D01*
X124127585Y-73276198D01*
X123977761Y-73306000D01*
X123672239Y-73306000D01*
X123522415Y-73276198D01*
X123372590Y-73246396D01*
X123090326Y-73129479D01*
X122836295Y-72959741D01*
X122620259Y-72743705D01*
X122450521Y-72489674D01*
X122333604Y-72207410D01*
X122274000Y-71907760D01*
X122274000Y-71602240D01*
X122333604Y-71302590D01*
X122450521Y-71020326D01*
X122620259Y-70766295D01*
X122836295Y-70550259D01*
X123090326Y-70380521D01*
X123372590Y-70263604D01*
X123522415Y-70233802D01*
X123672239Y-70204000D01*
X123977761Y-70204000D01*
X124127585Y-70233802D01*
X124127585Y-70233802D01*
G37*
G36*
X119047585Y-70233802D02*
G01*
X119197410Y-70263604D01*
X119479674Y-70380521D01*
X119733705Y-70550259D01*
X119949741Y-70766295D01*
X120119479Y-71020326D01*
X120236396Y-71302590D01*
X120296000Y-71602240D01*
X120296000Y-71907760D01*
X120236396Y-72207410D01*
X120119479Y-72489674D01*
X119949741Y-72743705D01*
X119733705Y-72959741D01*
X119479674Y-73129479D01*
X119197410Y-73246396D01*
X119047585Y-73276198D01*
X118897761Y-73306000D01*
X118592239Y-73306000D01*
X118442415Y-73276198D01*
X118292590Y-73246396D01*
X118010326Y-73129479D01*
X117756295Y-72959741D01*
X117540259Y-72743705D01*
X117370521Y-72489674D01*
X117253604Y-72207410D01*
X117194000Y-71907760D01*
X117194000Y-71602240D01*
X117253604Y-71302590D01*
X117370521Y-71020326D01*
X117540259Y-70766295D01*
X117756295Y-70550259D01*
X118010326Y-70380521D01*
X118292590Y-70263604D01*
X118442415Y-70233802D01*
X118592239Y-70204000D01*
X118897761Y-70204000D01*
X119047585Y-70233802D01*
X119047585Y-70233802D01*
G37*
G36*
X44117585Y-66423802D02*
G01*
X44267410Y-66453604D01*
X44549674Y-66570521D01*
X44803705Y-66740259D01*
X45019741Y-66956295D01*
X45189479Y-67210326D01*
X45272050Y-67409672D01*
X45306396Y-67492591D01*
X45366000Y-67792239D01*
X45366000Y-68097761D01*
X45340492Y-68226000D01*
X45306396Y-68397410D01*
X45189479Y-68679674D01*
X45019741Y-68933705D01*
X44803705Y-69149741D01*
X44549674Y-69319479D01*
X44267410Y-69436396D01*
X44117585Y-69466198D01*
X43967761Y-69496000D01*
X43662239Y-69496000D01*
X43512415Y-69466198D01*
X43362590Y-69436396D01*
X43080326Y-69319479D01*
X42826295Y-69149741D01*
X42610259Y-68933705D01*
X42440521Y-68679674D01*
X42323604Y-68397410D01*
X42289508Y-68226000D01*
X42264000Y-68097761D01*
X42264000Y-67792239D01*
X42323604Y-67492591D01*
X42357950Y-67409672D01*
X42440521Y-67210326D01*
X42610259Y-66956295D01*
X42826295Y-66740259D01*
X43080326Y-66570521D01*
X43362590Y-66453604D01*
X43512415Y-66423802D01*
X43662239Y-66394000D01*
X43967761Y-66394000D01*
X44117585Y-66423802D01*
X44117585Y-66423802D01*
G37*
G36*
X104442585Y-65153802D02*
G01*
X104592410Y-65183604D01*
X104874674Y-65300521D01*
X105128705Y-65470259D01*
X105344741Y-65686295D01*
X105514479Y-65940326D01*
X105631396Y-66222590D01*
X105631396Y-66222591D01*
X105677348Y-66453604D01*
X105691000Y-66522240D01*
X105691000Y-66827760D01*
X105631396Y-67127410D01*
X105514479Y-67409674D01*
X105344741Y-67663705D01*
X105128705Y-67879741D01*
X104874674Y-68049479D01*
X104592410Y-68166396D01*
X104442585Y-68196198D01*
X104292761Y-68226000D01*
X103987239Y-68226000D01*
X103837415Y-68196198D01*
X103687590Y-68166396D01*
X103405326Y-68049479D01*
X103151295Y-67879741D01*
X102935259Y-67663705D01*
X102765521Y-67409674D01*
X102648604Y-67127410D01*
X102589000Y-66827760D01*
X102589000Y-66522240D01*
X102602653Y-66453604D01*
X102648604Y-66222591D01*
X102648604Y-66222590D01*
X102765521Y-65940326D01*
X102935259Y-65686295D01*
X103151295Y-65470259D01*
X103405326Y-65300521D01*
X103687590Y-65183604D01*
X103837415Y-65153802D01*
X103987239Y-65124000D01*
X104292761Y-65124000D01*
X104442585Y-65153802D01*
X104442585Y-65153802D01*
G37*
G36*
X94282585Y-65153802D02*
G01*
X94432410Y-65183604D01*
X94714674Y-65300521D01*
X94968705Y-65470259D01*
X95184741Y-65686295D01*
X95354479Y-65940326D01*
X95471396Y-66222590D01*
X95471396Y-66222591D01*
X95517348Y-66453604D01*
X95531000Y-66522240D01*
X95531000Y-66827760D01*
X95471396Y-67127410D01*
X95354479Y-67409674D01*
X95184741Y-67663705D01*
X94968705Y-67879741D01*
X94714674Y-68049479D01*
X94432410Y-68166396D01*
X94282585Y-68196198D01*
X94132761Y-68226000D01*
X93827239Y-68226000D01*
X93677415Y-68196198D01*
X93527590Y-68166396D01*
X93245326Y-68049479D01*
X92991295Y-67879741D01*
X92775259Y-67663705D01*
X92605521Y-67409674D01*
X92488604Y-67127410D01*
X92429000Y-66827760D01*
X92429000Y-66522240D01*
X92442653Y-66453604D01*
X92488604Y-66222591D01*
X92488604Y-66222590D01*
X92605521Y-65940326D01*
X92775259Y-65686295D01*
X92991295Y-65470259D01*
X93245326Y-65300521D01*
X93527590Y-65183604D01*
X93677415Y-65153802D01*
X93827239Y-65124000D01*
X94132761Y-65124000D01*
X94282585Y-65153802D01*
X94282585Y-65153802D01*
G37*
G36*
X84122585Y-65153802D02*
G01*
X84272410Y-65183604D01*
X84554674Y-65300521D01*
X84808705Y-65470259D01*
X85024741Y-65686295D01*
X85194479Y-65940326D01*
X85311396Y-66222590D01*
X85311396Y-66222591D01*
X85357348Y-66453604D01*
X85371000Y-66522240D01*
X85371000Y-66827760D01*
X85311396Y-67127410D01*
X85194479Y-67409674D01*
X85024741Y-67663705D01*
X84808705Y-67879741D01*
X84554674Y-68049479D01*
X84272410Y-68166396D01*
X84122585Y-68196198D01*
X83972761Y-68226000D01*
X83667239Y-68226000D01*
X83517415Y-68196198D01*
X83367590Y-68166396D01*
X83085326Y-68049479D01*
X82831295Y-67879741D01*
X82615259Y-67663705D01*
X82445521Y-67409674D01*
X82328604Y-67127410D01*
X82269000Y-66827760D01*
X82269000Y-66522240D01*
X82282653Y-66453604D01*
X82328604Y-66222591D01*
X82328604Y-66222590D01*
X82445521Y-65940326D01*
X82615259Y-65686295D01*
X82831295Y-65470259D01*
X83085326Y-65300521D01*
X83367590Y-65183604D01*
X83517415Y-65153802D01*
X83667239Y-65124000D01*
X83972761Y-65124000D01*
X84122585Y-65153802D01*
X84122585Y-65153802D01*
G37*
G36*
X119047585Y-61343802D02*
G01*
X119197410Y-61373604D01*
X119479674Y-61490521D01*
X119733705Y-61660259D01*
X119949741Y-61876295D01*
X120119479Y-62130326D01*
X120236396Y-62412590D01*
X120250123Y-62481601D01*
X120269802Y-62580531D01*
X120296000Y-62712240D01*
X120296000Y-63017760D01*
X120236396Y-63317410D01*
X120119479Y-63599674D01*
X119949741Y-63853705D01*
X119733705Y-64069741D01*
X119479674Y-64239479D01*
X119197410Y-64356396D01*
X119047585Y-64386198D01*
X118897761Y-64416000D01*
X118592239Y-64416000D01*
X118442415Y-64386198D01*
X118292590Y-64356396D01*
X118010326Y-64239479D01*
X117756295Y-64069741D01*
X117540259Y-63853705D01*
X117370521Y-63599674D01*
X117253604Y-63317410D01*
X117194000Y-63017760D01*
X117194000Y-62712240D01*
X117220199Y-62580531D01*
X117239877Y-62481601D01*
X117253604Y-62412590D01*
X117370521Y-62130326D01*
X117540259Y-61876295D01*
X117756295Y-61660259D01*
X118010326Y-61490521D01*
X118292590Y-61373604D01*
X118442415Y-61343802D01*
X118592239Y-61314000D01*
X118897761Y-61314000D01*
X119047585Y-61343802D01*
X119047585Y-61343802D01*
G37*
G36*
X124127585Y-61343802D02*
G01*
X124277410Y-61373604D01*
X124559674Y-61490521D01*
X124813705Y-61660259D01*
X125029741Y-61876295D01*
X125199479Y-62130326D01*
X125316396Y-62412590D01*
X125330123Y-62481601D01*
X125349802Y-62580531D01*
X125376000Y-62712240D01*
X125376000Y-63017760D01*
X125316396Y-63317410D01*
X125199479Y-63599674D01*
X125029741Y-63853705D01*
X124813705Y-64069741D01*
X124559674Y-64239479D01*
X124277410Y-64356396D01*
X124127585Y-64386198D01*
X123977761Y-64416000D01*
X123672239Y-64416000D01*
X123522415Y-64386198D01*
X123372590Y-64356396D01*
X123090326Y-64239479D01*
X122836295Y-64069741D01*
X122620259Y-63853705D01*
X122450521Y-63599674D01*
X122333604Y-63317410D01*
X122274000Y-63017760D01*
X122274000Y-62712240D01*
X122300199Y-62580531D01*
X122319877Y-62481601D01*
X122333604Y-62412590D01*
X122450521Y-62130326D01*
X122620259Y-61876295D01*
X122836295Y-61660259D01*
X123090326Y-61490521D01*
X123372590Y-61373604D01*
X123522415Y-61343802D01*
X123672239Y-61314000D01*
X123977761Y-61314000D01*
X124127585Y-61343802D01*
X124127585Y-61343802D01*
G37*
G36*
X45338410Y-61110525D02*
G01*
X45423426Y-61136314D01*
X45501775Y-61178193D01*
X45570449Y-61234551D01*
X45626807Y-61303225D01*
X45668686Y-61381574D01*
X45694475Y-61466590D01*
X45703182Y-61555000D01*
X45694475Y-61643410D01*
X45668686Y-61728426D01*
X45626807Y-61806775D01*
X45577851Y-61866428D01*
X45564238Y-61886802D01*
X45554860Y-61909441D01*
X45550080Y-61933474D01*
X45550080Y-61957978D01*
X45554861Y-61982012D01*
X45564238Y-62004650D01*
X45577852Y-62025025D01*
X45595179Y-62042352D01*
X45615553Y-62055965D01*
X45638192Y-62065343D01*
X45662225Y-62070123D01*
X45686729Y-62070123D01*
X45710763Y-62065342D01*
X45719216Y-62061841D01*
X45872879Y-62015228D01*
X45986882Y-62004000D01*
X46613118Y-62004000D01*
X46727121Y-62015228D01*
X46856671Y-62054527D01*
X46861413Y-62055965D01*
X46873402Y-62059602D01*
X47008204Y-62131655D01*
X47008207Y-62131657D01*
X47008208Y-62131658D01*
X47043956Y-62160996D01*
X47126369Y-62228631D01*
X47223345Y-62346796D01*
X47295398Y-62481598D01*
X47339772Y-62627879D01*
X47354754Y-62780000D01*
X47339772Y-62932121D01*
X47295398Y-63078402D01*
X47223345Y-63213204D01*
X47223343Y-63213207D01*
X47223342Y-63213208D01*
X47137826Y-63317409D01*
X47126369Y-63331369D01*
X47008204Y-63428345D01*
X46873402Y-63500398D01*
X46727121Y-63544772D01*
X46613118Y-63556000D01*
X45986882Y-63556000D01*
X45872879Y-63544772D01*
X45726598Y-63500398D01*
X45591796Y-63428345D01*
X45473631Y-63331369D01*
X45462174Y-63317409D01*
X45376658Y-63213208D01*
X45376657Y-63213207D01*
X45376655Y-63213204D01*
X45304602Y-63078402D01*
X45260228Y-62932121D01*
X45245246Y-62780000D01*
X45260228Y-62627879D01*
X45304602Y-62481598D01*
X45376655Y-62346796D01*
X45473633Y-62228629D01*
X45510105Y-62198697D01*
X45527432Y-62181370D01*
X45541046Y-62160996D01*
X45550423Y-62138357D01*
X45555204Y-62114324D01*
X45555204Y-62089820D01*
X45550424Y-62065787D01*
X45541047Y-62043148D01*
X45527433Y-62022773D01*
X45510106Y-62005446D01*
X45489732Y-61991832D01*
X45467093Y-61982455D01*
X45443060Y-61977674D01*
X45418556Y-61977674D01*
X45394523Y-61982454D01*
X45338412Y-61999475D01*
X45272158Y-62006000D01*
X45227842Y-62006000D01*
X45161590Y-61999475D01*
X45076574Y-61973686D01*
X44998225Y-61931807D01*
X44929551Y-61875449D01*
X44873193Y-61806775D01*
X44831314Y-61728426D01*
X44805525Y-61643410D01*
X44796818Y-61555000D01*
X44805525Y-61466590D01*
X44831314Y-61381574D01*
X44873193Y-61303225D01*
X44929551Y-61234551D01*
X44998225Y-61178193D01*
X45076574Y-61136314D01*
X45161590Y-61110525D01*
X45227842Y-61104000D01*
X45272158Y-61104000D01*
X45338410Y-61110525D01*
X45338410Y-61110525D01*
G37*
G36*
X42947715Y-62313058D02*
G01*
X43043753Y-62342191D01*
X43058935Y-62346796D01*
X43065722Y-62348855D01*
X43174468Y-62406981D01*
X43269790Y-62485210D01*
X43348019Y-62580532D01*
X43406145Y-62689278D01*
X43441942Y-62807285D01*
X43454028Y-62930000D01*
X43441942Y-63052715D01*
X43406145Y-63170722D01*
X43348019Y-63279468D01*
X43269790Y-63374790D01*
X43174468Y-63453019D01*
X43065722Y-63511145D01*
X42947715Y-63546942D01*
X42855746Y-63556000D01*
X42144254Y-63556000D01*
X42052285Y-63546942D01*
X41934278Y-63511145D01*
X41825532Y-63453019D01*
X41730210Y-63374790D01*
X41651981Y-63279468D01*
X41593855Y-63170722D01*
X41558058Y-63052715D01*
X41545972Y-62930000D01*
X41558058Y-62807285D01*
X41593855Y-62689278D01*
X41651981Y-62580532D01*
X41730210Y-62485210D01*
X41825532Y-62406981D01*
X41934278Y-62348855D01*
X41941066Y-62346796D01*
X41956247Y-62342191D01*
X42052285Y-62313058D01*
X42144254Y-62304000D01*
X42855746Y-62304000D01*
X42947715Y-62313058D01*
X42947715Y-62313058D01*
G37*
G36*
X123656000Y-58886000D02*
G01*
X121454000Y-58886000D01*
X121454000Y-56684000D01*
X123656000Y-56684000D01*
X123656000Y-58886000D01*
X123656000Y-58886000D01*
G37*
G36*
X46727121Y-54565228D02*
G01*
X46873402Y-54609602D01*
X47008204Y-54681655D01*
X47008207Y-54681657D01*
X47008208Y-54681658D01*
X47126369Y-54778631D01*
X47168963Y-54830531D01*
X47223345Y-54896796D01*
X47295398Y-55031598D01*
X47339772Y-55177879D01*
X47354754Y-55330000D01*
X47339772Y-55482121D01*
X47295398Y-55628402D01*
X47223345Y-55763204D01*
X47223343Y-55763207D01*
X47223342Y-55763208D01*
X47126369Y-55881369D01*
X47016371Y-55971643D01*
X47008204Y-55978345D01*
X46873402Y-56050398D01*
X46727121Y-56094772D01*
X46613118Y-56106000D01*
X45986882Y-56106000D01*
X45872879Y-56094772D01*
X45719210Y-56048157D01*
X45710751Y-56044654D01*
X45686717Y-56039876D01*
X45662213Y-56039878D01*
X45638180Y-56044661D01*
X45615542Y-56054041D01*
X45595169Y-56067656D01*
X45577844Y-56084985D01*
X45564232Y-56105361D01*
X45554857Y-56128000D01*
X45550079Y-56152034D01*
X45550081Y-56176538D01*
X45554864Y-56200571D01*
X45564244Y-56223209D01*
X45577851Y-56243572D01*
X45626807Y-56303225D01*
X45668686Y-56381574D01*
X45694475Y-56466590D01*
X45703182Y-56555000D01*
X45694475Y-56643410D01*
X45668686Y-56728426D01*
X45626807Y-56806775D01*
X45570449Y-56875449D01*
X45501775Y-56931807D01*
X45423426Y-56973686D01*
X45338410Y-56999475D01*
X45272158Y-57006000D01*
X45227842Y-57006000D01*
X45161590Y-56999475D01*
X45076574Y-56973686D01*
X44998225Y-56931807D01*
X44929551Y-56875449D01*
X44873193Y-56806775D01*
X44831314Y-56728426D01*
X44805525Y-56643410D01*
X44796818Y-56555000D01*
X44805525Y-56466590D01*
X44831314Y-56381574D01*
X44873193Y-56303225D01*
X44929551Y-56234551D01*
X44998225Y-56178193D01*
X45076574Y-56136314D01*
X45161590Y-56110525D01*
X45227842Y-56104000D01*
X45272158Y-56104000D01*
X45338412Y-56110525D01*
X45394523Y-56127546D01*
X45418556Y-56132326D01*
X45443060Y-56132326D01*
X45467093Y-56127545D01*
X45489732Y-56118168D01*
X45510106Y-56104554D01*
X45527433Y-56087227D01*
X45541047Y-56066852D01*
X45550424Y-56044213D01*
X45555204Y-56020180D01*
X45555204Y-55995676D01*
X45550423Y-55971643D01*
X45541046Y-55949004D01*
X45527432Y-55928630D01*
X45510105Y-55911303D01*
X45473633Y-55881371D01*
X45379376Y-55766519D01*
X45376658Y-55763208D01*
X45376657Y-55763207D01*
X45376655Y-55763204D01*
X45304602Y-55628402D01*
X45260228Y-55482121D01*
X45245246Y-55330000D01*
X45260228Y-55177879D01*
X45304602Y-55031598D01*
X45376655Y-54896796D01*
X45431038Y-54830531D01*
X45473631Y-54778631D01*
X45591792Y-54681658D01*
X45591793Y-54681657D01*
X45591796Y-54681655D01*
X45726598Y-54609602D01*
X45872879Y-54565228D01*
X45986882Y-54554000D01*
X46613118Y-54554000D01*
X46727121Y-54565228D01*
X46727121Y-54565228D01*
G37*
G36*
X122769794Y-54165155D02*
G01*
X122876150Y-54186311D01*
X123076520Y-54269307D01*
X123256844Y-54389795D01*
X123410205Y-54543156D01*
X123530693Y-54723480D01*
X123553537Y-54778631D01*
X123613689Y-54923850D01*
X123656000Y-55136561D01*
X123656000Y-55353439D01*
X123620986Y-55529468D01*
X123613689Y-55566149D01*
X123530693Y-55766520D01*
X123410205Y-55946844D01*
X123256844Y-56100205D01*
X123076520Y-56220693D01*
X123043061Y-56234552D01*
X122876150Y-56303689D01*
X122769794Y-56324845D01*
X122663440Y-56346000D01*
X122446560Y-56346000D01*
X122340206Y-56324845D01*
X122233850Y-56303689D01*
X122066939Y-56234552D01*
X122033480Y-56220693D01*
X121853156Y-56100205D01*
X121699795Y-55946844D01*
X121579307Y-55766520D01*
X121496311Y-55566149D01*
X121489015Y-55529468D01*
X121454000Y-55353439D01*
X121454000Y-55136561D01*
X121496311Y-54923850D01*
X121556463Y-54778631D01*
X121579307Y-54723480D01*
X121699795Y-54543156D01*
X121853156Y-54389795D01*
X122033480Y-54269307D01*
X122233850Y-54186311D01*
X122340206Y-54165155D01*
X122446560Y-54144000D01*
X122663440Y-54144000D01*
X122769794Y-54165155D01*
X122769794Y-54165155D01*
G37*
G36*
X42947715Y-54563058D02*
G01*
X43065722Y-54598855D01*
X43174468Y-54656981D01*
X43269790Y-54735210D01*
X43348019Y-54830532D01*
X43406145Y-54939278D01*
X43441942Y-55057285D01*
X43454028Y-55180000D01*
X43441942Y-55302715D01*
X43406145Y-55420722D01*
X43348019Y-55529468D01*
X43269790Y-55624790D01*
X43174468Y-55703019D01*
X43065722Y-55761145D01*
X43065719Y-55761146D01*
X43058921Y-55763208D01*
X42947715Y-55796942D01*
X42855746Y-55806000D01*
X42144254Y-55806000D01*
X42052285Y-55796942D01*
X41941079Y-55763208D01*
X41934281Y-55761146D01*
X41934278Y-55761145D01*
X41825532Y-55703019D01*
X41730210Y-55624790D01*
X41651981Y-55529468D01*
X41593855Y-55420722D01*
X41558058Y-55302715D01*
X41545972Y-55180000D01*
X41558058Y-55057285D01*
X41593855Y-54939278D01*
X41651981Y-54830532D01*
X41730210Y-54735210D01*
X41825532Y-54656981D01*
X41934278Y-54598855D01*
X42052285Y-54563058D01*
X42144254Y-54554000D01*
X42855746Y-54554000D01*
X42947715Y-54563058D01*
X42947715Y-54563058D01*
G37*
G36*
X122769795Y-51625156D02*
G01*
X122876150Y-51646311D01*
X122976334Y-51687809D01*
X123076520Y-51729307D01*
X123256844Y-51849795D01*
X123410205Y-52003156D01*
X123530693Y-52183480D01*
X123613689Y-52383851D01*
X123656000Y-52596560D01*
X123656000Y-52813440D01*
X123613689Y-53026149D01*
X123530693Y-53226520D01*
X123410205Y-53406844D01*
X123256844Y-53560205D01*
X123076520Y-53680693D01*
X122876150Y-53763689D01*
X122769795Y-53784844D01*
X122663440Y-53806000D01*
X122446560Y-53806000D01*
X122340205Y-53784844D01*
X122233850Y-53763689D01*
X122033480Y-53680693D01*
X121853156Y-53560205D01*
X121699795Y-53406844D01*
X121579307Y-53226520D01*
X121496311Y-53026149D01*
X121454000Y-52813440D01*
X121454000Y-52596560D01*
X121496311Y-52383851D01*
X121579307Y-52183480D01*
X121699795Y-52003156D01*
X121853156Y-51849795D01*
X122033480Y-51729307D01*
X122133666Y-51687809D01*
X122233850Y-51646311D01*
X122340206Y-51625155D01*
X122446560Y-51604000D01*
X122663440Y-51604000D01*
X122769795Y-51625156D01*
X122769795Y-51625156D01*
G37*
G36*
X44825256Y-45381298D02*
G01*
X44931579Y-45402447D01*
X45232042Y-45526903D01*
X45502451Y-45707585D01*
X45732415Y-45937549D01*
X45732416Y-45937551D01*
X45913098Y-46207960D01*
X46037553Y-46508422D01*
X46089691Y-46770534D01*
X46101000Y-46827391D01*
X46101000Y-47152609D01*
X46037553Y-47471579D01*
X45913097Y-47772042D01*
X45732415Y-48042451D01*
X45502451Y-48272415D01*
X45232042Y-48453097D01*
X44931579Y-48577553D01*
X44825256Y-48598702D01*
X44612611Y-48641000D01*
X44287389Y-48641000D01*
X44074744Y-48598702D01*
X43968421Y-48577553D01*
X43667958Y-48453097D01*
X43397549Y-48272415D01*
X43167585Y-48042451D01*
X42986903Y-47772042D01*
X42862447Y-47471579D01*
X42799000Y-47152609D01*
X42799000Y-46827391D01*
X42810310Y-46770534D01*
X42862447Y-46508422D01*
X42986902Y-46207960D01*
X43167584Y-45937551D01*
X43167585Y-45937549D01*
X43397549Y-45707585D01*
X43667958Y-45526903D01*
X43968421Y-45402447D01*
X44074744Y-45381298D01*
X44287389Y-45339000D01*
X44612611Y-45339000D01*
X44825256Y-45381298D01*
X44825256Y-45381298D01*
G37*
G36*
X122930256Y-45381298D02*
G01*
X123036579Y-45402447D01*
X123337042Y-45526903D01*
X123607451Y-45707585D01*
X123837415Y-45937549D01*
X123837416Y-45937551D01*
X124018098Y-46207960D01*
X124142553Y-46508422D01*
X124194691Y-46770534D01*
X124206000Y-46827391D01*
X124206000Y-47152609D01*
X124142553Y-47471579D01*
X124018097Y-47772042D01*
X123837415Y-48042451D01*
X123607451Y-48272415D01*
X123337042Y-48453097D01*
X123036579Y-48577553D01*
X122930256Y-48598702D01*
X122717611Y-48641000D01*
X122392389Y-48641000D01*
X122179744Y-48598702D01*
X122073421Y-48577553D01*
X121772958Y-48453097D01*
X121502549Y-48272415D01*
X121272585Y-48042451D01*
X121091903Y-47772042D01*
X120967447Y-47471579D01*
X120904000Y-47152609D01*
X120904000Y-46827391D01*
X120915310Y-46770534D01*
X120967447Y-46508422D01*
X121091902Y-46207960D01*
X121272584Y-45937551D01*
X121272585Y-45937549D01*
X121502549Y-45707585D01*
X121772958Y-45526903D01*
X122073421Y-45402447D01*
X122179744Y-45381298D01*
X122392389Y-45339000D01*
X122717611Y-45339000D01*
X122930256Y-45381298D01*
X122930256Y-45381298D01*
G37*
G36*
X94090443Y-46222519D02*
G01*
X94156627Y-46229037D01*
X94326466Y-46280557D01*
X94482991Y-46364222D01*
X94518729Y-46393552D01*
X94620186Y-46476814D01*
X94703448Y-46578271D01*
X94732778Y-46614009D01*
X94816443Y-46770534D01*
X94867963Y-46940373D01*
X94885359Y-47117000D01*
X94867963Y-47293627D01*
X94816443Y-47463466D01*
X94816442Y-47463468D01*
X94774610Y-47541729D01*
X94732778Y-47619991D01*
X94703448Y-47655729D01*
X94620186Y-47757186D01*
X94518729Y-47840448D01*
X94482991Y-47869778D01*
X94326466Y-47953443D01*
X94156627Y-48004963D01*
X94090442Y-48011482D01*
X94024260Y-48018000D01*
X93935740Y-48018000D01*
X93869558Y-48011482D01*
X93803373Y-48004963D01*
X93633534Y-47953443D01*
X93477009Y-47869778D01*
X93441271Y-47840448D01*
X93339814Y-47757186D01*
X93256552Y-47655729D01*
X93227222Y-47619991D01*
X93185390Y-47541729D01*
X93143558Y-47463468D01*
X93143557Y-47463466D01*
X93092037Y-47293627D01*
X93074641Y-47117000D01*
X93092037Y-46940373D01*
X93143557Y-46770534D01*
X93227222Y-46614009D01*
X93256552Y-46578271D01*
X93339814Y-46476814D01*
X93441271Y-46393552D01*
X93477009Y-46364222D01*
X93633534Y-46280557D01*
X93803373Y-46229037D01*
X93869557Y-46222519D01*
X93935740Y-46216000D01*
X94024260Y-46216000D01*
X94090443Y-46222519D01*
X94090443Y-46222519D01*
G37*
G36*
X104250443Y-46222519D02*
G01*
X104316627Y-46229037D01*
X104486466Y-46280557D01*
X104642991Y-46364222D01*
X104678729Y-46393552D01*
X104780186Y-46476814D01*
X104863448Y-46578271D01*
X104892778Y-46614009D01*
X104976443Y-46770534D01*
X105027963Y-46940373D01*
X105045359Y-47117000D01*
X105027963Y-47293627D01*
X104976443Y-47463466D01*
X104976442Y-47463468D01*
X104934610Y-47541729D01*
X104892778Y-47619991D01*
X104863448Y-47655729D01*
X104780186Y-47757186D01*
X104678729Y-47840448D01*
X104642991Y-47869778D01*
X104486466Y-47953443D01*
X104316627Y-48004963D01*
X104250442Y-48011482D01*
X104184260Y-48018000D01*
X104095740Y-48018000D01*
X104029558Y-48011482D01*
X103963373Y-48004963D01*
X103793534Y-47953443D01*
X103637009Y-47869778D01*
X103601271Y-47840448D01*
X103499814Y-47757186D01*
X103416552Y-47655729D01*
X103387222Y-47619991D01*
X103345390Y-47541729D01*
X103303558Y-47463468D01*
X103303557Y-47463466D01*
X103252037Y-47293627D01*
X103234641Y-47117000D01*
X103252037Y-46940373D01*
X103303557Y-46770534D01*
X103387222Y-46614009D01*
X103416552Y-46578271D01*
X103499814Y-46476814D01*
X103601271Y-46393552D01*
X103637009Y-46364222D01*
X103793534Y-46280557D01*
X103963373Y-46229037D01*
X104029557Y-46222519D01*
X104095740Y-46216000D01*
X104184260Y-46216000D01*
X104250443Y-46222519D01*
X104250443Y-46222519D01*
G37*
G36*
X101710443Y-46222519D02*
G01*
X101776627Y-46229037D01*
X101946466Y-46280557D01*
X102102991Y-46364222D01*
X102138729Y-46393552D01*
X102240186Y-46476814D01*
X102323448Y-46578271D01*
X102352778Y-46614009D01*
X102436443Y-46770534D01*
X102487963Y-46940373D01*
X102505359Y-47117000D01*
X102487963Y-47293627D01*
X102436443Y-47463466D01*
X102436442Y-47463468D01*
X102394610Y-47541729D01*
X102352778Y-47619991D01*
X102323448Y-47655729D01*
X102240186Y-47757186D01*
X102138729Y-47840448D01*
X102102991Y-47869778D01*
X101946466Y-47953443D01*
X101776627Y-48004963D01*
X101710442Y-48011482D01*
X101644260Y-48018000D01*
X101555740Y-48018000D01*
X101489558Y-48011482D01*
X101423373Y-48004963D01*
X101253534Y-47953443D01*
X101097009Y-47869778D01*
X101061271Y-47840448D01*
X100959814Y-47757186D01*
X100876552Y-47655729D01*
X100847222Y-47619991D01*
X100805390Y-47541729D01*
X100763558Y-47463468D01*
X100763557Y-47463466D01*
X100712037Y-47293627D01*
X100694641Y-47117000D01*
X100712037Y-46940373D01*
X100763557Y-46770534D01*
X100847222Y-46614009D01*
X100876552Y-46578271D01*
X100959814Y-46476814D01*
X101061271Y-46393552D01*
X101097009Y-46364222D01*
X101253534Y-46280557D01*
X101423373Y-46229037D01*
X101489557Y-46222519D01*
X101555740Y-46216000D01*
X101644260Y-46216000D01*
X101710443Y-46222519D01*
X101710443Y-46222519D01*
G37*
G36*
X62975443Y-46222519D02*
G01*
X63041627Y-46229037D01*
X63211466Y-46280557D01*
X63367991Y-46364222D01*
X63403729Y-46393552D01*
X63505186Y-46476814D01*
X63588448Y-46578271D01*
X63617778Y-46614009D01*
X63701443Y-46770534D01*
X63752963Y-46940373D01*
X63770359Y-47117000D01*
X63752963Y-47293627D01*
X63701443Y-47463466D01*
X63701442Y-47463468D01*
X63659610Y-47541729D01*
X63617778Y-47619991D01*
X63588448Y-47655729D01*
X63505186Y-47757186D01*
X63403729Y-47840448D01*
X63367991Y-47869778D01*
X63211466Y-47953443D01*
X63041627Y-48004963D01*
X62975442Y-48011482D01*
X62909260Y-48018000D01*
X62820740Y-48018000D01*
X62754558Y-48011482D01*
X62688373Y-48004963D01*
X62518534Y-47953443D01*
X62362009Y-47869778D01*
X62326271Y-47840448D01*
X62224814Y-47757186D01*
X62141552Y-47655729D01*
X62112222Y-47619991D01*
X62070390Y-47541729D01*
X62028558Y-47463468D01*
X62028557Y-47463466D01*
X61977037Y-47293627D01*
X61959641Y-47117000D01*
X61977037Y-46940373D01*
X62028557Y-46770534D01*
X62112222Y-46614009D01*
X62141552Y-46578271D01*
X62224814Y-46476814D01*
X62326271Y-46393552D01*
X62362009Y-46364222D01*
X62518534Y-46280557D01*
X62688373Y-46229037D01*
X62754557Y-46222519D01*
X62820740Y-46216000D01*
X62909260Y-46216000D01*
X62975443Y-46222519D01*
X62975443Y-46222519D01*
G37*
G36*
X99170443Y-46222519D02*
G01*
X99236627Y-46229037D01*
X99406466Y-46280557D01*
X99562991Y-46364222D01*
X99598729Y-46393552D01*
X99700186Y-46476814D01*
X99783448Y-46578271D01*
X99812778Y-46614009D01*
X99896443Y-46770534D01*
X99947963Y-46940373D01*
X99965359Y-47117000D01*
X99947963Y-47293627D01*
X99896443Y-47463466D01*
X99896442Y-47463468D01*
X99854610Y-47541729D01*
X99812778Y-47619991D01*
X99783448Y-47655729D01*
X99700186Y-47757186D01*
X99598729Y-47840448D01*
X99562991Y-47869778D01*
X99406466Y-47953443D01*
X99236627Y-48004963D01*
X99170442Y-48011482D01*
X99104260Y-48018000D01*
X99015740Y-48018000D01*
X98949558Y-48011482D01*
X98883373Y-48004963D01*
X98713534Y-47953443D01*
X98557009Y-47869778D01*
X98521271Y-47840448D01*
X98419814Y-47757186D01*
X98336552Y-47655729D01*
X98307222Y-47619991D01*
X98265390Y-47541729D01*
X98223558Y-47463468D01*
X98223557Y-47463466D01*
X98172037Y-47293627D01*
X98154641Y-47117000D01*
X98172037Y-46940373D01*
X98223557Y-46770534D01*
X98307222Y-46614009D01*
X98336552Y-46578271D01*
X98419814Y-46476814D01*
X98521271Y-46393552D01*
X98557009Y-46364222D01*
X98713534Y-46280557D01*
X98883373Y-46229037D01*
X98949557Y-46222519D01*
X99015740Y-46216000D01*
X99104260Y-46216000D01*
X99170443Y-46222519D01*
X99170443Y-46222519D01*
G37*
G36*
X86470443Y-46222519D02*
G01*
X86536627Y-46229037D01*
X86706466Y-46280557D01*
X86862991Y-46364222D01*
X86898729Y-46393552D01*
X87000186Y-46476814D01*
X87083448Y-46578271D01*
X87112778Y-46614009D01*
X87196443Y-46770534D01*
X87247963Y-46940373D01*
X87265359Y-47117000D01*
X87247963Y-47293627D01*
X87196443Y-47463466D01*
X87196442Y-47463468D01*
X87154610Y-47541729D01*
X87112778Y-47619991D01*
X87083448Y-47655729D01*
X87000186Y-47757186D01*
X86898729Y-47840448D01*
X86862991Y-47869778D01*
X86706466Y-47953443D01*
X86536627Y-48004963D01*
X86470442Y-48011482D01*
X86404260Y-48018000D01*
X86315740Y-48018000D01*
X86249558Y-48011482D01*
X86183373Y-48004963D01*
X86013534Y-47953443D01*
X85857009Y-47869778D01*
X85821271Y-47840448D01*
X85719814Y-47757186D01*
X85636552Y-47655729D01*
X85607222Y-47619991D01*
X85565390Y-47541729D01*
X85523558Y-47463468D01*
X85523557Y-47463466D01*
X85472037Y-47293627D01*
X85454641Y-47117000D01*
X85472037Y-46940373D01*
X85523557Y-46770534D01*
X85607222Y-46614009D01*
X85636552Y-46578271D01*
X85719814Y-46476814D01*
X85821271Y-46393552D01*
X85857009Y-46364222D01*
X86013534Y-46280557D01*
X86183373Y-46229037D01*
X86249557Y-46222519D01*
X86315740Y-46216000D01*
X86404260Y-46216000D01*
X86470443Y-46222519D01*
X86470443Y-46222519D01*
G37*
G36*
X96630443Y-46222519D02*
G01*
X96696627Y-46229037D01*
X96866466Y-46280557D01*
X97022991Y-46364222D01*
X97058729Y-46393552D01*
X97160186Y-46476814D01*
X97243448Y-46578271D01*
X97272778Y-46614009D01*
X97356443Y-46770534D01*
X97407963Y-46940373D01*
X97425359Y-47117000D01*
X97407963Y-47293627D01*
X97356443Y-47463466D01*
X97356442Y-47463468D01*
X97314610Y-47541729D01*
X97272778Y-47619991D01*
X97243448Y-47655729D01*
X97160186Y-47757186D01*
X97058729Y-47840448D01*
X97022991Y-47869778D01*
X96866466Y-47953443D01*
X96696627Y-48004963D01*
X96630442Y-48011482D01*
X96564260Y-48018000D01*
X96475740Y-48018000D01*
X96409558Y-48011482D01*
X96343373Y-48004963D01*
X96173534Y-47953443D01*
X96017009Y-47869778D01*
X95981271Y-47840448D01*
X95879814Y-47757186D01*
X95796552Y-47655729D01*
X95767222Y-47619991D01*
X95725390Y-47541729D01*
X95683558Y-47463468D01*
X95683557Y-47463466D01*
X95632037Y-47293627D01*
X95614641Y-47117000D01*
X95632037Y-46940373D01*
X95683557Y-46770534D01*
X95767222Y-46614009D01*
X95796552Y-46578271D01*
X95879814Y-46476814D01*
X95981271Y-46393552D01*
X96017009Y-46364222D01*
X96173534Y-46280557D01*
X96343373Y-46229037D01*
X96409557Y-46222519D01*
X96475740Y-46216000D01*
X96564260Y-46216000D01*
X96630443Y-46222519D01*
X96630443Y-46222519D01*
G37*
G36*
X60435443Y-46222519D02*
G01*
X60501627Y-46229037D01*
X60671466Y-46280557D01*
X60827991Y-46364222D01*
X60863729Y-46393552D01*
X60965186Y-46476814D01*
X61048448Y-46578271D01*
X61077778Y-46614009D01*
X61161443Y-46770534D01*
X61212963Y-46940373D01*
X61230359Y-47117000D01*
X61212963Y-47293627D01*
X61161443Y-47463466D01*
X61161442Y-47463468D01*
X61119610Y-47541729D01*
X61077778Y-47619991D01*
X61048448Y-47655729D01*
X60965186Y-47757186D01*
X60863729Y-47840448D01*
X60827991Y-47869778D01*
X60671466Y-47953443D01*
X60501627Y-48004963D01*
X60435442Y-48011482D01*
X60369260Y-48018000D01*
X60280740Y-48018000D01*
X60214558Y-48011482D01*
X60148373Y-48004963D01*
X59978534Y-47953443D01*
X59822009Y-47869778D01*
X59786271Y-47840448D01*
X59684814Y-47757186D01*
X59601552Y-47655729D01*
X59572222Y-47619991D01*
X59530390Y-47541729D01*
X59488558Y-47463468D01*
X59488557Y-47463466D01*
X59437037Y-47293627D01*
X59419641Y-47117000D01*
X59437037Y-46940373D01*
X59488557Y-46770534D01*
X59572222Y-46614009D01*
X59601552Y-46578271D01*
X59684814Y-46476814D01*
X59786271Y-46393552D01*
X59822009Y-46364222D01*
X59978534Y-46280557D01*
X60148373Y-46229037D01*
X60214557Y-46222519D01*
X60280740Y-46216000D01*
X60369260Y-46216000D01*
X60435443Y-46222519D01*
X60435443Y-46222519D01*
G37*
G36*
X91550443Y-46222519D02*
G01*
X91616627Y-46229037D01*
X91786466Y-46280557D01*
X91942991Y-46364222D01*
X91978729Y-46393552D01*
X92080186Y-46476814D01*
X92163448Y-46578271D01*
X92192778Y-46614009D01*
X92276443Y-46770534D01*
X92327963Y-46940373D01*
X92345359Y-47117000D01*
X92327963Y-47293627D01*
X92276443Y-47463466D01*
X92276442Y-47463468D01*
X92234610Y-47541729D01*
X92192778Y-47619991D01*
X92163448Y-47655729D01*
X92080186Y-47757186D01*
X91978729Y-47840448D01*
X91942991Y-47869778D01*
X91786466Y-47953443D01*
X91616627Y-48004963D01*
X91550442Y-48011482D01*
X91484260Y-48018000D01*
X91395740Y-48018000D01*
X91329558Y-48011482D01*
X91263373Y-48004963D01*
X91093534Y-47953443D01*
X90937009Y-47869778D01*
X90901271Y-47840448D01*
X90799814Y-47757186D01*
X90716552Y-47655729D01*
X90687222Y-47619991D01*
X90645390Y-47541729D01*
X90603558Y-47463468D01*
X90603557Y-47463466D01*
X90552037Y-47293627D01*
X90534641Y-47117000D01*
X90552037Y-46940373D01*
X90603557Y-46770534D01*
X90687222Y-46614009D01*
X90716552Y-46578271D01*
X90799814Y-46476814D01*
X90901271Y-46393552D01*
X90937009Y-46364222D01*
X91093534Y-46280557D01*
X91263373Y-46229037D01*
X91329557Y-46222519D01*
X91395740Y-46216000D01*
X91484260Y-46216000D01*
X91550443Y-46222519D01*
X91550443Y-46222519D01*
G37*
G36*
X57895443Y-46222519D02*
G01*
X57961627Y-46229037D01*
X58131466Y-46280557D01*
X58287991Y-46364222D01*
X58323729Y-46393552D01*
X58425186Y-46476814D01*
X58508448Y-46578271D01*
X58537778Y-46614009D01*
X58621443Y-46770534D01*
X58672963Y-46940373D01*
X58690359Y-47117000D01*
X58672963Y-47293627D01*
X58621443Y-47463466D01*
X58621442Y-47463468D01*
X58579610Y-47541729D01*
X58537778Y-47619991D01*
X58508448Y-47655729D01*
X58425186Y-47757186D01*
X58323729Y-47840448D01*
X58287991Y-47869778D01*
X58131466Y-47953443D01*
X57961627Y-48004963D01*
X57895442Y-48011482D01*
X57829260Y-48018000D01*
X57740740Y-48018000D01*
X57674558Y-48011482D01*
X57608373Y-48004963D01*
X57438534Y-47953443D01*
X57282009Y-47869778D01*
X57246271Y-47840448D01*
X57144814Y-47757186D01*
X57061552Y-47655729D01*
X57032222Y-47619991D01*
X56990389Y-47541728D01*
X56948558Y-47463468D01*
X56948557Y-47463466D01*
X56897037Y-47293627D01*
X56879641Y-47117000D01*
X56897037Y-46940373D01*
X56948557Y-46770534D01*
X57032222Y-46614009D01*
X57061552Y-46578271D01*
X57144814Y-46476814D01*
X57246271Y-46393552D01*
X57282009Y-46364222D01*
X57438534Y-46280557D01*
X57608373Y-46229037D01*
X57674557Y-46222519D01*
X57740740Y-46216000D01*
X57829260Y-46216000D01*
X57895443Y-46222519D01*
X57895443Y-46222519D01*
G37*
G36*
X89010443Y-46222519D02*
G01*
X89076627Y-46229037D01*
X89246466Y-46280557D01*
X89402991Y-46364222D01*
X89438729Y-46393552D01*
X89540186Y-46476814D01*
X89623448Y-46578271D01*
X89652778Y-46614009D01*
X89736443Y-46770534D01*
X89787963Y-46940373D01*
X89805359Y-47117000D01*
X89787963Y-47293627D01*
X89736443Y-47463466D01*
X89736442Y-47463468D01*
X89694610Y-47541729D01*
X89652778Y-47619991D01*
X89623448Y-47655729D01*
X89540186Y-47757186D01*
X89438729Y-47840448D01*
X89402991Y-47869778D01*
X89246466Y-47953443D01*
X89076627Y-48004963D01*
X89010442Y-48011482D01*
X88944260Y-48018000D01*
X88855740Y-48018000D01*
X88789558Y-48011482D01*
X88723373Y-48004963D01*
X88553534Y-47953443D01*
X88397009Y-47869778D01*
X88361271Y-47840448D01*
X88259814Y-47757186D01*
X88176552Y-47655729D01*
X88147222Y-47619991D01*
X88105390Y-47541729D01*
X88063558Y-47463468D01*
X88063557Y-47463466D01*
X88012037Y-47293627D01*
X87994641Y-47117000D01*
X88012037Y-46940373D01*
X88063557Y-46770534D01*
X88147222Y-46614009D01*
X88176552Y-46578271D01*
X88259814Y-46476814D01*
X88361271Y-46393552D01*
X88397009Y-46364222D01*
X88553534Y-46280557D01*
X88723373Y-46229037D01*
X88789557Y-46222519D01*
X88855740Y-46216000D01*
X88944260Y-46216000D01*
X89010443Y-46222519D01*
X89010443Y-46222519D01*
G37*
G36*
X50275443Y-46222519D02*
G01*
X50341627Y-46229037D01*
X50511466Y-46280557D01*
X50667991Y-46364222D01*
X50703729Y-46393552D01*
X50805186Y-46476814D01*
X50888448Y-46578271D01*
X50917778Y-46614009D01*
X51001443Y-46770534D01*
X51052963Y-46940373D01*
X51070359Y-47117000D01*
X51052963Y-47293627D01*
X51001443Y-47463466D01*
X51001442Y-47463468D01*
X50959610Y-47541729D01*
X50917778Y-47619991D01*
X50888448Y-47655729D01*
X50805186Y-47757186D01*
X50703729Y-47840448D01*
X50667991Y-47869778D01*
X50511466Y-47953443D01*
X50341627Y-48004963D01*
X50275442Y-48011482D01*
X50209260Y-48018000D01*
X50120740Y-48018000D01*
X50054558Y-48011482D01*
X49988373Y-48004963D01*
X49818534Y-47953443D01*
X49662009Y-47869778D01*
X49626271Y-47840448D01*
X49524814Y-47757186D01*
X49441552Y-47655729D01*
X49412222Y-47619991D01*
X49370389Y-47541728D01*
X49328558Y-47463468D01*
X49328557Y-47463466D01*
X49277037Y-47293627D01*
X49259641Y-47117000D01*
X49277037Y-46940373D01*
X49328557Y-46770534D01*
X49412222Y-46614009D01*
X49441552Y-46578271D01*
X49524814Y-46476814D01*
X49626271Y-46393552D01*
X49662009Y-46364222D01*
X49818534Y-46280557D01*
X49988373Y-46229037D01*
X50054557Y-46222519D01*
X50120740Y-46216000D01*
X50209260Y-46216000D01*
X50275443Y-46222519D01*
X50275443Y-46222519D01*
G37*
G36*
X52815443Y-46222519D02*
G01*
X52881627Y-46229037D01*
X53051466Y-46280557D01*
X53207991Y-46364222D01*
X53243729Y-46393552D01*
X53345186Y-46476814D01*
X53428448Y-46578271D01*
X53457778Y-46614009D01*
X53541443Y-46770534D01*
X53592963Y-46940373D01*
X53610359Y-47117000D01*
X53592963Y-47293627D01*
X53541443Y-47463466D01*
X53541442Y-47463468D01*
X53499610Y-47541729D01*
X53457778Y-47619991D01*
X53428448Y-47655729D01*
X53345186Y-47757186D01*
X53243729Y-47840448D01*
X53207991Y-47869778D01*
X53051466Y-47953443D01*
X52881627Y-48004963D01*
X52815442Y-48011482D01*
X52749260Y-48018000D01*
X52660740Y-48018000D01*
X52594558Y-48011482D01*
X52528373Y-48004963D01*
X52358534Y-47953443D01*
X52202009Y-47869778D01*
X52166271Y-47840448D01*
X52064814Y-47757186D01*
X51981552Y-47655729D01*
X51952222Y-47619991D01*
X51910389Y-47541728D01*
X51868558Y-47463468D01*
X51868557Y-47463466D01*
X51817037Y-47293627D01*
X51799641Y-47117000D01*
X51817037Y-46940373D01*
X51868557Y-46770534D01*
X51952222Y-46614009D01*
X51981552Y-46578271D01*
X52064814Y-46476814D01*
X52166271Y-46393552D01*
X52202009Y-46364222D01*
X52358534Y-46280557D01*
X52528373Y-46229037D01*
X52594557Y-46222519D01*
X52660740Y-46216000D01*
X52749260Y-46216000D01*
X52815443Y-46222519D01*
X52815443Y-46222519D01*
G37*
G36*
X109330443Y-46222519D02*
G01*
X109396627Y-46229037D01*
X109566466Y-46280557D01*
X109722991Y-46364222D01*
X109758729Y-46393552D01*
X109860186Y-46476814D01*
X109943448Y-46578271D01*
X109972778Y-46614009D01*
X110056443Y-46770534D01*
X110107963Y-46940373D01*
X110125359Y-47117000D01*
X110107963Y-47293627D01*
X110056443Y-47463466D01*
X110056442Y-47463468D01*
X110014610Y-47541729D01*
X109972778Y-47619991D01*
X109943448Y-47655729D01*
X109860186Y-47757186D01*
X109758729Y-47840448D01*
X109722991Y-47869778D01*
X109566466Y-47953443D01*
X109396627Y-48004963D01*
X109330442Y-48011482D01*
X109264260Y-48018000D01*
X109175740Y-48018000D01*
X109109558Y-48011482D01*
X109043373Y-48004963D01*
X108873534Y-47953443D01*
X108717009Y-47869778D01*
X108681271Y-47840448D01*
X108579814Y-47757186D01*
X108496552Y-47655729D01*
X108467222Y-47619991D01*
X108425390Y-47541729D01*
X108383558Y-47463468D01*
X108383557Y-47463466D01*
X108332037Y-47293627D01*
X108314641Y-47117000D01*
X108332037Y-46940373D01*
X108383557Y-46770534D01*
X108467222Y-46614009D01*
X108496552Y-46578271D01*
X108579814Y-46476814D01*
X108681271Y-46393552D01*
X108717009Y-46364222D01*
X108873534Y-46280557D01*
X109043373Y-46229037D01*
X109109557Y-46222519D01*
X109175740Y-46216000D01*
X109264260Y-46216000D01*
X109330443Y-46222519D01*
X109330443Y-46222519D01*
G37*
G36*
X106790443Y-46222519D02*
G01*
X106856627Y-46229037D01*
X107026466Y-46280557D01*
X107182991Y-46364222D01*
X107218729Y-46393552D01*
X107320186Y-46476814D01*
X107403448Y-46578271D01*
X107432778Y-46614009D01*
X107516443Y-46770534D01*
X107567963Y-46940373D01*
X107585359Y-47117000D01*
X107567963Y-47293627D01*
X107516443Y-47463466D01*
X107516442Y-47463468D01*
X107474610Y-47541729D01*
X107432778Y-47619991D01*
X107403448Y-47655729D01*
X107320186Y-47757186D01*
X107218729Y-47840448D01*
X107182991Y-47869778D01*
X107026466Y-47953443D01*
X106856627Y-48004963D01*
X106790442Y-48011482D01*
X106724260Y-48018000D01*
X106635740Y-48018000D01*
X106569558Y-48011482D01*
X106503373Y-48004963D01*
X106333534Y-47953443D01*
X106177009Y-47869778D01*
X106141271Y-47840448D01*
X106039814Y-47757186D01*
X105956552Y-47655729D01*
X105927222Y-47619991D01*
X105885390Y-47541729D01*
X105843558Y-47463468D01*
X105843557Y-47463466D01*
X105792037Y-47293627D01*
X105774641Y-47117000D01*
X105792037Y-46940373D01*
X105843557Y-46770534D01*
X105927222Y-46614009D01*
X105956552Y-46578271D01*
X106039814Y-46476814D01*
X106141271Y-46393552D01*
X106177009Y-46364222D01*
X106333534Y-46280557D01*
X106503373Y-46229037D01*
X106569557Y-46222519D01*
X106635740Y-46216000D01*
X106724260Y-46216000D01*
X106790443Y-46222519D01*
X106790443Y-46222519D01*
G37*
G36*
X75675443Y-46222519D02*
G01*
X75741627Y-46229037D01*
X75911466Y-46280557D01*
X76067991Y-46364222D01*
X76103729Y-46393552D01*
X76205186Y-46476814D01*
X76288448Y-46578271D01*
X76317778Y-46614009D01*
X76401443Y-46770534D01*
X76452963Y-46940373D01*
X76470359Y-47117000D01*
X76452963Y-47293627D01*
X76401443Y-47463466D01*
X76401442Y-47463468D01*
X76359610Y-47541729D01*
X76317778Y-47619991D01*
X76288448Y-47655729D01*
X76205186Y-47757186D01*
X76103729Y-47840448D01*
X76067991Y-47869778D01*
X75911466Y-47953443D01*
X75741627Y-48004963D01*
X75675442Y-48011482D01*
X75609260Y-48018000D01*
X75520740Y-48018000D01*
X75454558Y-48011482D01*
X75388373Y-48004963D01*
X75218534Y-47953443D01*
X75062009Y-47869778D01*
X75026271Y-47840448D01*
X74924814Y-47757186D01*
X74841552Y-47655729D01*
X74812222Y-47619991D01*
X74770390Y-47541729D01*
X74728558Y-47463468D01*
X74728557Y-47463466D01*
X74677037Y-47293627D01*
X74659641Y-47117000D01*
X74677037Y-46940373D01*
X74728557Y-46770534D01*
X74812222Y-46614009D01*
X74841552Y-46578271D01*
X74924814Y-46476814D01*
X75026271Y-46393552D01*
X75062009Y-46364222D01*
X75218534Y-46280557D01*
X75388373Y-46229037D01*
X75454557Y-46222519D01*
X75520740Y-46216000D01*
X75609260Y-46216000D01*
X75675443Y-46222519D01*
X75675443Y-46222519D01*
G37*
G36*
X55355443Y-46222519D02*
G01*
X55421627Y-46229037D01*
X55591466Y-46280557D01*
X55747991Y-46364222D01*
X55783729Y-46393552D01*
X55885186Y-46476814D01*
X55968448Y-46578271D01*
X55997778Y-46614009D01*
X56081443Y-46770534D01*
X56132963Y-46940373D01*
X56150359Y-47117000D01*
X56132963Y-47293627D01*
X56081443Y-47463466D01*
X56081442Y-47463468D01*
X56039610Y-47541729D01*
X55997778Y-47619991D01*
X55968448Y-47655729D01*
X55885186Y-47757186D01*
X55783729Y-47840448D01*
X55747991Y-47869778D01*
X55591466Y-47953443D01*
X55421627Y-48004963D01*
X55355442Y-48011482D01*
X55289260Y-48018000D01*
X55200740Y-48018000D01*
X55134558Y-48011482D01*
X55068373Y-48004963D01*
X54898534Y-47953443D01*
X54742009Y-47869778D01*
X54706271Y-47840448D01*
X54604814Y-47757186D01*
X54521552Y-47655729D01*
X54492222Y-47619991D01*
X54450389Y-47541728D01*
X54408558Y-47463468D01*
X54408557Y-47463466D01*
X54357037Y-47293627D01*
X54339641Y-47117000D01*
X54357037Y-46940373D01*
X54408557Y-46770534D01*
X54492222Y-46614009D01*
X54521552Y-46578271D01*
X54604814Y-46476814D01*
X54706271Y-46393552D01*
X54742009Y-46364222D01*
X54898534Y-46280557D01*
X55068373Y-46229037D01*
X55134557Y-46222519D01*
X55200740Y-46216000D01*
X55289260Y-46216000D01*
X55355443Y-46222519D01*
X55355443Y-46222519D01*
G37*
G36*
X65515443Y-46222519D02*
G01*
X65581627Y-46229037D01*
X65751466Y-46280557D01*
X65907991Y-46364222D01*
X65943729Y-46393552D01*
X66045186Y-46476814D01*
X66128448Y-46578271D01*
X66157778Y-46614009D01*
X66241443Y-46770534D01*
X66292963Y-46940373D01*
X66310359Y-47117000D01*
X66292963Y-47293627D01*
X66241443Y-47463466D01*
X66241442Y-47463468D01*
X66199610Y-47541729D01*
X66157778Y-47619991D01*
X66128448Y-47655729D01*
X66045186Y-47757186D01*
X65943729Y-47840448D01*
X65907991Y-47869778D01*
X65751466Y-47953443D01*
X65581627Y-48004963D01*
X65515442Y-48011482D01*
X65449260Y-48018000D01*
X65360740Y-48018000D01*
X65294558Y-48011482D01*
X65228373Y-48004963D01*
X65058534Y-47953443D01*
X64902009Y-47869778D01*
X64866271Y-47840448D01*
X64764814Y-47757186D01*
X64681552Y-47655729D01*
X64652222Y-47619991D01*
X64610390Y-47541729D01*
X64568558Y-47463468D01*
X64568557Y-47463466D01*
X64517037Y-47293627D01*
X64499641Y-47117000D01*
X64517037Y-46940373D01*
X64568557Y-46770534D01*
X64652222Y-46614009D01*
X64681552Y-46578271D01*
X64764814Y-46476814D01*
X64866271Y-46393552D01*
X64902009Y-46364222D01*
X65058534Y-46280557D01*
X65228373Y-46229037D01*
X65294557Y-46222519D01*
X65360740Y-46216000D01*
X65449260Y-46216000D01*
X65515443Y-46222519D01*
X65515443Y-46222519D01*
G37*
G36*
X73135443Y-46222519D02*
G01*
X73201627Y-46229037D01*
X73371466Y-46280557D01*
X73527991Y-46364222D01*
X73563729Y-46393552D01*
X73665186Y-46476814D01*
X73748448Y-46578271D01*
X73777778Y-46614009D01*
X73861443Y-46770534D01*
X73912963Y-46940373D01*
X73930359Y-47117000D01*
X73912963Y-47293627D01*
X73861443Y-47463466D01*
X73861442Y-47463468D01*
X73819610Y-47541729D01*
X73777778Y-47619991D01*
X73748448Y-47655729D01*
X73665186Y-47757186D01*
X73563729Y-47840448D01*
X73527991Y-47869778D01*
X73371466Y-47953443D01*
X73201627Y-48004963D01*
X73135442Y-48011482D01*
X73069260Y-48018000D01*
X72980740Y-48018000D01*
X72914558Y-48011482D01*
X72848373Y-48004963D01*
X72678534Y-47953443D01*
X72522009Y-47869778D01*
X72486271Y-47840448D01*
X72384814Y-47757186D01*
X72301552Y-47655729D01*
X72272222Y-47619991D01*
X72230390Y-47541729D01*
X72188558Y-47463468D01*
X72188557Y-47463466D01*
X72137037Y-47293627D01*
X72119641Y-47117000D01*
X72137037Y-46940373D01*
X72188557Y-46770534D01*
X72272222Y-46614009D01*
X72301552Y-46578271D01*
X72384814Y-46476814D01*
X72486271Y-46393552D01*
X72522009Y-46364222D01*
X72678534Y-46280557D01*
X72848373Y-46229037D01*
X72914557Y-46222519D01*
X72980740Y-46216000D01*
X73069260Y-46216000D01*
X73135443Y-46222519D01*
X73135443Y-46222519D01*
G37*
G36*
X78215443Y-46222519D02*
G01*
X78281627Y-46229037D01*
X78451466Y-46280557D01*
X78607991Y-46364222D01*
X78643729Y-46393552D01*
X78745186Y-46476814D01*
X78828448Y-46578271D01*
X78857778Y-46614009D01*
X78941443Y-46770534D01*
X78992963Y-46940373D01*
X79010359Y-47117000D01*
X78992963Y-47293627D01*
X78941443Y-47463466D01*
X78941442Y-47463468D01*
X78899610Y-47541729D01*
X78857778Y-47619991D01*
X78828448Y-47655729D01*
X78745186Y-47757186D01*
X78643729Y-47840448D01*
X78607991Y-47869778D01*
X78451466Y-47953443D01*
X78281627Y-48004963D01*
X78215442Y-48011482D01*
X78149260Y-48018000D01*
X78060740Y-48018000D01*
X77994558Y-48011482D01*
X77928373Y-48004963D01*
X77758534Y-47953443D01*
X77602009Y-47869778D01*
X77566271Y-47840448D01*
X77464814Y-47757186D01*
X77381552Y-47655729D01*
X77352222Y-47619991D01*
X77310390Y-47541729D01*
X77268558Y-47463468D01*
X77268557Y-47463466D01*
X77217037Y-47293627D01*
X77199641Y-47117000D01*
X77217037Y-46940373D01*
X77268557Y-46770534D01*
X77352222Y-46614009D01*
X77381552Y-46578271D01*
X77464814Y-46476814D01*
X77566271Y-46393552D01*
X77602009Y-46364222D01*
X77758534Y-46280557D01*
X77928373Y-46229037D01*
X77994557Y-46222519D01*
X78060740Y-46216000D01*
X78149260Y-46216000D01*
X78215443Y-46222519D01*
X78215443Y-46222519D01*
G37*
G36*
X117741000Y-48018000D02*
G01*
X115939000Y-48018000D01*
X115939000Y-46216000D01*
X117741000Y-46216000D01*
X117741000Y-48018000D01*
X117741000Y-48018000D01*
G37*
G36*
X70595443Y-46222519D02*
G01*
X70661627Y-46229037D01*
X70831466Y-46280557D01*
X70987991Y-46364222D01*
X71023729Y-46393552D01*
X71125186Y-46476814D01*
X71208448Y-46578271D01*
X71237778Y-46614009D01*
X71321443Y-46770534D01*
X71372963Y-46940373D01*
X71390359Y-47117000D01*
X71372963Y-47293627D01*
X71321443Y-47463466D01*
X71321442Y-47463468D01*
X71279610Y-47541729D01*
X71237778Y-47619991D01*
X71208448Y-47655729D01*
X71125186Y-47757186D01*
X71023729Y-47840448D01*
X70987991Y-47869778D01*
X70831466Y-47953443D01*
X70661627Y-48004963D01*
X70595442Y-48011482D01*
X70529260Y-48018000D01*
X70440740Y-48018000D01*
X70374558Y-48011482D01*
X70308373Y-48004963D01*
X70138534Y-47953443D01*
X69982009Y-47869778D01*
X69946271Y-47840448D01*
X69844814Y-47757186D01*
X69761552Y-47655729D01*
X69732222Y-47619991D01*
X69690390Y-47541729D01*
X69648558Y-47463468D01*
X69648557Y-47463466D01*
X69597037Y-47293627D01*
X69579641Y-47117000D01*
X69597037Y-46940373D01*
X69648557Y-46770534D01*
X69732222Y-46614009D01*
X69761552Y-46578271D01*
X69844814Y-46476814D01*
X69946271Y-46393552D01*
X69982009Y-46364222D01*
X70138534Y-46280557D01*
X70308373Y-46229037D01*
X70374557Y-46222519D01*
X70440740Y-46216000D01*
X70529260Y-46216000D01*
X70595443Y-46222519D01*
X70595443Y-46222519D01*
G37*
G36*
X114410443Y-46222519D02*
G01*
X114476627Y-46229037D01*
X114646466Y-46280557D01*
X114802991Y-46364222D01*
X114838729Y-46393552D01*
X114940186Y-46476814D01*
X115023448Y-46578271D01*
X115052778Y-46614009D01*
X115136443Y-46770534D01*
X115187963Y-46940373D01*
X115205359Y-47117000D01*
X115187963Y-47293627D01*
X115136443Y-47463466D01*
X115136442Y-47463468D01*
X115094610Y-47541729D01*
X115052778Y-47619991D01*
X115023448Y-47655729D01*
X114940186Y-47757186D01*
X114838729Y-47840448D01*
X114802991Y-47869778D01*
X114646466Y-47953443D01*
X114476627Y-48004963D01*
X114410442Y-48011482D01*
X114344260Y-48018000D01*
X114255740Y-48018000D01*
X114189558Y-48011482D01*
X114123373Y-48004963D01*
X113953534Y-47953443D01*
X113797009Y-47869778D01*
X113761271Y-47840448D01*
X113659814Y-47757186D01*
X113576552Y-47655729D01*
X113547222Y-47619991D01*
X113505390Y-47541729D01*
X113463558Y-47463468D01*
X113463557Y-47463466D01*
X113412037Y-47293627D01*
X113394641Y-47117000D01*
X113412037Y-46940373D01*
X113463557Y-46770534D01*
X113547222Y-46614009D01*
X113576552Y-46578271D01*
X113659814Y-46476814D01*
X113761271Y-46393552D01*
X113797009Y-46364222D01*
X113953534Y-46280557D01*
X114123373Y-46229037D01*
X114189557Y-46222519D01*
X114255740Y-46216000D01*
X114344260Y-46216000D01*
X114410443Y-46222519D01*
X114410443Y-46222519D01*
G37*
G36*
X111870443Y-46222519D02*
G01*
X111936627Y-46229037D01*
X112106466Y-46280557D01*
X112262991Y-46364222D01*
X112298729Y-46393552D01*
X112400186Y-46476814D01*
X112483448Y-46578271D01*
X112512778Y-46614009D01*
X112596443Y-46770534D01*
X112647963Y-46940373D01*
X112665359Y-47117000D01*
X112647963Y-47293627D01*
X112596443Y-47463466D01*
X112596442Y-47463468D01*
X112554610Y-47541729D01*
X112512778Y-47619991D01*
X112483448Y-47655729D01*
X112400186Y-47757186D01*
X112298729Y-47840448D01*
X112262991Y-47869778D01*
X112106466Y-47953443D01*
X111936627Y-48004963D01*
X111870442Y-48011482D01*
X111804260Y-48018000D01*
X111715740Y-48018000D01*
X111649558Y-48011482D01*
X111583373Y-48004963D01*
X111413534Y-47953443D01*
X111257009Y-47869778D01*
X111221271Y-47840448D01*
X111119814Y-47757186D01*
X111036552Y-47655729D01*
X111007222Y-47619991D01*
X110965390Y-47541729D01*
X110923558Y-47463468D01*
X110923557Y-47463466D01*
X110872037Y-47293627D01*
X110854641Y-47117000D01*
X110872037Y-46940373D01*
X110923557Y-46770534D01*
X111007222Y-46614009D01*
X111036552Y-46578271D01*
X111119814Y-46476814D01*
X111221271Y-46393552D01*
X111257009Y-46364222D01*
X111413534Y-46280557D01*
X111583373Y-46229037D01*
X111649557Y-46222519D01*
X111715740Y-46216000D01*
X111804260Y-46216000D01*
X111870443Y-46222519D01*
X111870443Y-46222519D01*
G37*
G36*
X68055443Y-46222519D02*
G01*
X68121627Y-46229037D01*
X68291466Y-46280557D01*
X68447991Y-46364222D01*
X68483729Y-46393552D01*
X68585186Y-46476814D01*
X68668448Y-46578271D01*
X68697778Y-46614009D01*
X68781443Y-46770534D01*
X68832963Y-46940373D01*
X68850359Y-47117000D01*
X68832963Y-47293627D01*
X68781443Y-47463466D01*
X68781442Y-47463468D01*
X68739610Y-47541729D01*
X68697778Y-47619991D01*
X68668448Y-47655729D01*
X68585186Y-47757186D01*
X68483729Y-47840448D01*
X68447991Y-47869778D01*
X68291466Y-47953443D01*
X68121627Y-48004963D01*
X68055442Y-48011482D01*
X67989260Y-48018000D01*
X67900740Y-48018000D01*
X67834558Y-48011482D01*
X67768373Y-48004963D01*
X67598534Y-47953443D01*
X67442009Y-47869778D01*
X67406271Y-47840448D01*
X67304814Y-47757186D01*
X67221552Y-47655729D01*
X67192222Y-47619991D01*
X67150390Y-47541729D01*
X67108558Y-47463468D01*
X67108557Y-47463466D01*
X67057037Y-47293627D01*
X67039641Y-47117000D01*
X67057037Y-46940373D01*
X67108557Y-46770534D01*
X67192222Y-46614009D01*
X67221552Y-46578271D01*
X67304814Y-46476814D01*
X67406271Y-46393552D01*
X67442009Y-46364222D01*
X67598534Y-46280557D01*
X67768373Y-46229037D01*
X67834557Y-46222519D01*
X67900740Y-46216000D01*
X67989260Y-46216000D01*
X68055443Y-46222519D01*
X68055443Y-46222519D01*
G37*
G36*
X81546000Y-48018000D02*
G01*
X79744000Y-48018000D01*
X79744000Y-46216000D01*
X81546000Y-46216000D01*
X81546000Y-48018000D01*
X81546000Y-48018000D01*
G37*
G36*
X78215442Y-43682518D02*
G01*
X78281627Y-43689037D01*
X78451466Y-43740557D01*
X78607991Y-43824222D01*
X78643729Y-43853552D01*
X78745186Y-43936814D01*
X78828448Y-44038271D01*
X78857778Y-44074009D01*
X78941443Y-44230534D01*
X78992963Y-44400373D01*
X79010359Y-44577000D01*
X78992963Y-44753627D01*
X78941443Y-44923466D01*
X78857778Y-45079991D01*
X78828448Y-45115729D01*
X78745186Y-45217186D01*
X78643729Y-45300448D01*
X78607991Y-45329778D01*
X78451466Y-45413443D01*
X78281627Y-45464963D01*
X78215443Y-45471481D01*
X78149260Y-45478000D01*
X78060740Y-45478000D01*
X77994558Y-45471482D01*
X77928373Y-45464963D01*
X77758534Y-45413443D01*
X77602009Y-45329778D01*
X77566271Y-45300448D01*
X77464814Y-45217186D01*
X77381552Y-45115729D01*
X77352222Y-45079991D01*
X77268557Y-44923466D01*
X77217037Y-44753627D01*
X77199641Y-44577000D01*
X77217037Y-44400373D01*
X77268557Y-44230534D01*
X77352222Y-44074009D01*
X77381552Y-44038271D01*
X77464814Y-43936814D01*
X77566271Y-43853552D01*
X77602009Y-43824222D01*
X77758534Y-43740557D01*
X77928373Y-43689037D01*
X77994558Y-43682518D01*
X78060740Y-43676000D01*
X78149260Y-43676000D01*
X78215442Y-43682518D01*
X78215442Y-43682518D01*
G37*
G36*
X80755442Y-43682518D02*
G01*
X80821627Y-43689037D01*
X80991466Y-43740557D01*
X81147991Y-43824222D01*
X81183729Y-43853552D01*
X81285186Y-43936814D01*
X81368448Y-44038271D01*
X81397778Y-44074009D01*
X81481443Y-44230534D01*
X81532963Y-44400373D01*
X81550359Y-44577000D01*
X81532963Y-44753627D01*
X81481443Y-44923466D01*
X81397778Y-45079991D01*
X81368448Y-45115729D01*
X81285186Y-45217186D01*
X81183729Y-45300448D01*
X81147991Y-45329778D01*
X80991466Y-45413443D01*
X80821627Y-45464963D01*
X80755443Y-45471481D01*
X80689260Y-45478000D01*
X80600740Y-45478000D01*
X80534558Y-45471482D01*
X80468373Y-45464963D01*
X80298534Y-45413443D01*
X80142009Y-45329778D01*
X80106271Y-45300448D01*
X80004814Y-45217186D01*
X79921552Y-45115729D01*
X79892222Y-45079991D01*
X79808557Y-44923466D01*
X79757037Y-44753627D01*
X79739641Y-44577000D01*
X79757037Y-44400373D01*
X79808557Y-44230534D01*
X79892222Y-44074009D01*
X79921552Y-44038271D01*
X80004814Y-43936814D01*
X80106271Y-43853552D01*
X80142009Y-43824222D01*
X80298534Y-43740557D01*
X80468373Y-43689037D01*
X80534558Y-43682518D01*
X80600740Y-43676000D01*
X80689260Y-43676000D01*
X80755442Y-43682518D01*
X80755442Y-43682518D01*
G37*
G36*
X89010442Y-43682518D02*
G01*
X89076627Y-43689037D01*
X89246466Y-43740557D01*
X89402991Y-43824222D01*
X89438729Y-43853552D01*
X89540186Y-43936814D01*
X89623448Y-44038271D01*
X89652778Y-44074009D01*
X89736443Y-44230534D01*
X89787963Y-44400373D01*
X89805359Y-44577000D01*
X89787963Y-44753627D01*
X89736443Y-44923466D01*
X89652778Y-45079991D01*
X89623448Y-45115729D01*
X89540186Y-45217186D01*
X89438729Y-45300448D01*
X89402991Y-45329778D01*
X89246466Y-45413443D01*
X89076627Y-45464963D01*
X89010443Y-45471481D01*
X88944260Y-45478000D01*
X88855740Y-45478000D01*
X88789558Y-45471482D01*
X88723373Y-45464963D01*
X88553534Y-45413443D01*
X88397009Y-45329778D01*
X88361271Y-45300448D01*
X88259814Y-45217186D01*
X88176552Y-45115729D01*
X88147222Y-45079991D01*
X88063557Y-44923466D01*
X88012037Y-44753627D01*
X87994641Y-44577000D01*
X88012037Y-44400373D01*
X88063557Y-44230534D01*
X88147222Y-44074009D01*
X88176552Y-44038271D01*
X88259814Y-43936814D01*
X88361271Y-43853552D01*
X88397009Y-43824222D01*
X88553534Y-43740557D01*
X88723373Y-43689037D01*
X88789558Y-43682518D01*
X88855740Y-43676000D01*
X88944260Y-43676000D01*
X89010442Y-43682518D01*
X89010442Y-43682518D01*
G37*
G36*
X91550442Y-43682518D02*
G01*
X91616627Y-43689037D01*
X91786466Y-43740557D01*
X91942991Y-43824222D01*
X91978729Y-43853552D01*
X92080186Y-43936814D01*
X92163448Y-44038271D01*
X92192778Y-44074009D01*
X92276443Y-44230534D01*
X92327963Y-44400373D01*
X92345359Y-44577000D01*
X92327963Y-44753627D01*
X92276443Y-44923466D01*
X92192778Y-45079991D01*
X92163448Y-45115729D01*
X92080186Y-45217186D01*
X91978729Y-45300448D01*
X91942991Y-45329778D01*
X91786466Y-45413443D01*
X91616627Y-45464963D01*
X91550443Y-45471481D01*
X91484260Y-45478000D01*
X91395740Y-45478000D01*
X91329558Y-45471482D01*
X91263373Y-45464963D01*
X91093534Y-45413443D01*
X90937009Y-45329778D01*
X90901271Y-45300448D01*
X90799814Y-45217186D01*
X90716552Y-45115729D01*
X90687222Y-45079991D01*
X90603557Y-44923466D01*
X90552037Y-44753627D01*
X90534641Y-44577000D01*
X90552037Y-44400373D01*
X90603557Y-44230534D01*
X90687222Y-44074009D01*
X90716552Y-44038271D01*
X90799814Y-43936814D01*
X90901271Y-43853552D01*
X90937009Y-43824222D01*
X91093534Y-43740557D01*
X91263373Y-43689037D01*
X91329558Y-43682518D01*
X91395740Y-43676000D01*
X91484260Y-43676000D01*
X91550442Y-43682518D01*
X91550442Y-43682518D01*
G37*
G36*
X94090442Y-43682518D02*
G01*
X94156627Y-43689037D01*
X94326466Y-43740557D01*
X94482991Y-43824222D01*
X94518729Y-43853552D01*
X94620186Y-43936814D01*
X94703448Y-44038271D01*
X94732778Y-44074009D01*
X94816443Y-44230534D01*
X94867963Y-44400373D01*
X94885359Y-44577000D01*
X94867963Y-44753627D01*
X94816443Y-44923466D01*
X94732778Y-45079991D01*
X94703448Y-45115729D01*
X94620186Y-45217186D01*
X94518729Y-45300448D01*
X94482991Y-45329778D01*
X94326466Y-45413443D01*
X94156627Y-45464963D01*
X94090443Y-45471481D01*
X94024260Y-45478000D01*
X93935740Y-45478000D01*
X93869558Y-45471482D01*
X93803373Y-45464963D01*
X93633534Y-45413443D01*
X93477009Y-45329778D01*
X93441271Y-45300448D01*
X93339814Y-45217186D01*
X93256552Y-45115729D01*
X93227222Y-45079991D01*
X93143557Y-44923466D01*
X93092037Y-44753627D01*
X93074641Y-44577000D01*
X93092037Y-44400373D01*
X93143557Y-44230534D01*
X93227222Y-44074009D01*
X93256552Y-44038271D01*
X93339814Y-43936814D01*
X93441271Y-43853552D01*
X93477009Y-43824222D01*
X93633534Y-43740557D01*
X93803373Y-43689037D01*
X93869558Y-43682518D01*
X93935740Y-43676000D01*
X94024260Y-43676000D01*
X94090442Y-43682518D01*
X94090442Y-43682518D01*
G37*
G36*
X96630442Y-43682518D02*
G01*
X96696627Y-43689037D01*
X96866466Y-43740557D01*
X97022991Y-43824222D01*
X97058729Y-43853552D01*
X97160186Y-43936814D01*
X97243448Y-44038271D01*
X97272778Y-44074009D01*
X97356443Y-44230534D01*
X97407963Y-44400373D01*
X97425359Y-44577000D01*
X97407963Y-44753627D01*
X97356443Y-44923466D01*
X97272778Y-45079991D01*
X97243448Y-45115729D01*
X97160186Y-45217186D01*
X97058729Y-45300448D01*
X97022991Y-45329778D01*
X96866466Y-45413443D01*
X96696627Y-45464963D01*
X96630443Y-45471481D01*
X96564260Y-45478000D01*
X96475740Y-45478000D01*
X96409558Y-45471482D01*
X96343373Y-45464963D01*
X96173534Y-45413443D01*
X96017009Y-45329778D01*
X95981271Y-45300448D01*
X95879814Y-45217186D01*
X95796552Y-45115729D01*
X95767222Y-45079991D01*
X95683557Y-44923466D01*
X95632037Y-44753627D01*
X95614641Y-44577000D01*
X95632037Y-44400373D01*
X95683557Y-44230534D01*
X95767222Y-44074009D01*
X95796552Y-44038271D01*
X95879814Y-43936814D01*
X95981271Y-43853552D01*
X96017009Y-43824222D01*
X96173534Y-43740557D01*
X96343373Y-43689037D01*
X96409558Y-43682518D01*
X96475740Y-43676000D01*
X96564260Y-43676000D01*
X96630442Y-43682518D01*
X96630442Y-43682518D01*
G37*
G36*
X99170442Y-43682518D02*
G01*
X99236627Y-43689037D01*
X99406466Y-43740557D01*
X99562991Y-43824222D01*
X99598729Y-43853552D01*
X99700186Y-43936814D01*
X99783448Y-44038271D01*
X99812778Y-44074009D01*
X99896443Y-44230534D01*
X99947963Y-44400373D01*
X99965359Y-44577000D01*
X99947963Y-44753627D01*
X99896443Y-44923466D01*
X99812778Y-45079991D01*
X99783448Y-45115729D01*
X99700186Y-45217186D01*
X99598729Y-45300448D01*
X99562991Y-45329778D01*
X99406466Y-45413443D01*
X99236627Y-45464963D01*
X99170443Y-45471481D01*
X99104260Y-45478000D01*
X99015740Y-45478000D01*
X98949558Y-45471482D01*
X98883373Y-45464963D01*
X98713534Y-45413443D01*
X98557009Y-45329778D01*
X98521271Y-45300448D01*
X98419814Y-45217186D01*
X98336552Y-45115729D01*
X98307222Y-45079991D01*
X98223557Y-44923466D01*
X98172037Y-44753627D01*
X98154641Y-44577000D01*
X98172037Y-44400373D01*
X98223557Y-44230534D01*
X98307222Y-44074009D01*
X98336552Y-44038271D01*
X98419814Y-43936814D01*
X98521271Y-43853552D01*
X98557009Y-43824222D01*
X98713534Y-43740557D01*
X98883373Y-43689037D01*
X98949558Y-43682518D01*
X99015740Y-43676000D01*
X99104260Y-43676000D01*
X99170442Y-43682518D01*
X99170442Y-43682518D01*
G37*
G36*
X101710442Y-43682518D02*
G01*
X101776627Y-43689037D01*
X101946466Y-43740557D01*
X102102991Y-43824222D01*
X102138729Y-43853552D01*
X102240186Y-43936814D01*
X102323448Y-44038271D01*
X102352778Y-44074009D01*
X102436443Y-44230534D01*
X102487963Y-44400373D01*
X102505359Y-44577000D01*
X102487963Y-44753627D01*
X102436443Y-44923466D01*
X102352778Y-45079991D01*
X102323448Y-45115729D01*
X102240186Y-45217186D01*
X102138729Y-45300448D01*
X102102991Y-45329778D01*
X101946466Y-45413443D01*
X101776627Y-45464963D01*
X101710443Y-45471481D01*
X101644260Y-45478000D01*
X101555740Y-45478000D01*
X101489558Y-45471482D01*
X101423373Y-45464963D01*
X101253534Y-45413443D01*
X101097009Y-45329778D01*
X101061271Y-45300448D01*
X100959814Y-45217186D01*
X100876552Y-45115729D01*
X100847222Y-45079991D01*
X100763557Y-44923466D01*
X100712037Y-44753627D01*
X100694641Y-44577000D01*
X100712037Y-44400373D01*
X100763557Y-44230534D01*
X100847222Y-44074009D01*
X100876552Y-44038271D01*
X100959814Y-43936814D01*
X101061271Y-43853552D01*
X101097009Y-43824222D01*
X101253534Y-43740557D01*
X101423373Y-43689037D01*
X101489558Y-43682518D01*
X101555740Y-43676000D01*
X101644260Y-43676000D01*
X101710442Y-43682518D01*
X101710442Y-43682518D01*
G37*
G36*
X116950442Y-43682518D02*
G01*
X117016627Y-43689037D01*
X117186466Y-43740557D01*
X117342991Y-43824222D01*
X117378729Y-43853552D01*
X117480186Y-43936814D01*
X117563448Y-44038271D01*
X117592778Y-44074009D01*
X117676443Y-44230534D01*
X117727963Y-44400373D01*
X117745359Y-44577000D01*
X117727963Y-44753627D01*
X117676443Y-44923466D01*
X117592778Y-45079991D01*
X117563448Y-45115729D01*
X117480186Y-45217186D01*
X117378729Y-45300448D01*
X117342991Y-45329778D01*
X117186466Y-45413443D01*
X117016627Y-45464963D01*
X116950443Y-45471481D01*
X116884260Y-45478000D01*
X116795740Y-45478000D01*
X116729558Y-45471482D01*
X116663373Y-45464963D01*
X116493534Y-45413443D01*
X116337009Y-45329778D01*
X116301271Y-45300448D01*
X116199814Y-45217186D01*
X116116552Y-45115729D01*
X116087222Y-45079991D01*
X116003557Y-44923466D01*
X115952037Y-44753627D01*
X115934641Y-44577000D01*
X115952037Y-44400373D01*
X116003557Y-44230534D01*
X116087222Y-44074009D01*
X116116552Y-44038271D01*
X116199814Y-43936814D01*
X116301271Y-43853552D01*
X116337009Y-43824222D01*
X116493534Y-43740557D01*
X116663373Y-43689037D01*
X116729558Y-43682518D01*
X116795740Y-43676000D01*
X116884260Y-43676000D01*
X116950442Y-43682518D01*
X116950442Y-43682518D01*
G37*
G36*
X114410442Y-43682518D02*
G01*
X114476627Y-43689037D01*
X114646466Y-43740557D01*
X114802991Y-43824222D01*
X114838729Y-43853552D01*
X114940186Y-43936814D01*
X115023448Y-44038271D01*
X115052778Y-44074009D01*
X115136443Y-44230534D01*
X115187963Y-44400373D01*
X115205359Y-44577000D01*
X115187963Y-44753627D01*
X115136443Y-44923466D01*
X115052778Y-45079991D01*
X115023448Y-45115729D01*
X114940186Y-45217186D01*
X114838729Y-45300448D01*
X114802991Y-45329778D01*
X114646466Y-45413443D01*
X114476627Y-45464963D01*
X114410443Y-45471481D01*
X114344260Y-45478000D01*
X114255740Y-45478000D01*
X114189558Y-45471482D01*
X114123373Y-45464963D01*
X113953534Y-45413443D01*
X113797009Y-45329778D01*
X113761271Y-45300448D01*
X113659814Y-45217186D01*
X113576552Y-45115729D01*
X113547222Y-45079991D01*
X113463557Y-44923466D01*
X113412037Y-44753627D01*
X113394641Y-44577000D01*
X113412037Y-44400373D01*
X113463557Y-44230534D01*
X113547222Y-44074009D01*
X113576552Y-44038271D01*
X113659814Y-43936814D01*
X113761271Y-43853552D01*
X113797009Y-43824222D01*
X113953534Y-43740557D01*
X114123373Y-43689037D01*
X114189558Y-43682518D01*
X114255740Y-43676000D01*
X114344260Y-43676000D01*
X114410442Y-43682518D01*
X114410442Y-43682518D01*
G37*
G36*
X111870442Y-43682518D02*
G01*
X111936627Y-43689037D01*
X112106466Y-43740557D01*
X112262991Y-43824222D01*
X112298729Y-43853552D01*
X112400186Y-43936814D01*
X112483448Y-44038271D01*
X112512778Y-44074009D01*
X112596443Y-44230534D01*
X112647963Y-44400373D01*
X112665359Y-44577000D01*
X112647963Y-44753627D01*
X112596443Y-44923466D01*
X112512778Y-45079991D01*
X112483448Y-45115729D01*
X112400186Y-45217186D01*
X112298729Y-45300448D01*
X112262991Y-45329778D01*
X112106466Y-45413443D01*
X111936627Y-45464963D01*
X111870443Y-45471481D01*
X111804260Y-45478000D01*
X111715740Y-45478000D01*
X111649558Y-45471482D01*
X111583373Y-45464963D01*
X111413534Y-45413443D01*
X111257009Y-45329778D01*
X111221271Y-45300448D01*
X111119814Y-45217186D01*
X111036552Y-45115729D01*
X111007222Y-45079991D01*
X110923557Y-44923466D01*
X110872037Y-44753627D01*
X110854641Y-44577000D01*
X110872037Y-44400373D01*
X110923557Y-44230534D01*
X111007222Y-44074009D01*
X111036552Y-44038271D01*
X111119814Y-43936814D01*
X111221271Y-43853552D01*
X111257009Y-43824222D01*
X111413534Y-43740557D01*
X111583373Y-43689037D01*
X111649558Y-43682518D01*
X111715740Y-43676000D01*
X111804260Y-43676000D01*
X111870442Y-43682518D01*
X111870442Y-43682518D01*
G37*
G36*
X109330442Y-43682518D02*
G01*
X109396627Y-43689037D01*
X109566466Y-43740557D01*
X109722991Y-43824222D01*
X109758729Y-43853552D01*
X109860186Y-43936814D01*
X109943448Y-44038271D01*
X109972778Y-44074009D01*
X110056443Y-44230534D01*
X110107963Y-44400373D01*
X110125359Y-44577000D01*
X110107963Y-44753627D01*
X110056443Y-44923466D01*
X109972778Y-45079991D01*
X109943448Y-45115729D01*
X109860186Y-45217186D01*
X109758729Y-45300448D01*
X109722991Y-45329778D01*
X109566466Y-45413443D01*
X109396627Y-45464963D01*
X109330443Y-45471481D01*
X109264260Y-45478000D01*
X109175740Y-45478000D01*
X109109558Y-45471482D01*
X109043373Y-45464963D01*
X108873534Y-45413443D01*
X108717009Y-45329778D01*
X108681271Y-45300448D01*
X108579814Y-45217186D01*
X108496552Y-45115729D01*
X108467222Y-45079991D01*
X108383557Y-44923466D01*
X108332037Y-44753627D01*
X108314641Y-44577000D01*
X108332037Y-44400373D01*
X108383557Y-44230534D01*
X108467222Y-44074009D01*
X108496552Y-44038271D01*
X108579814Y-43936814D01*
X108681271Y-43853552D01*
X108717009Y-43824222D01*
X108873534Y-43740557D01*
X109043373Y-43689037D01*
X109109558Y-43682518D01*
X109175740Y-43676000D01*
X109264260Y-43676000D01*
X109330442Y-43682518D01*
X109330442Y-43682518D01*
G37*
G36*
X104250442Y-43682518D02*
G01*
X104316627Y-43689037D01*
X104486466Y-43740557D01*
X104642991Y-43824222D01*
X104678729Y-43853552D01*
X104780186Y-43936814D01*
X104863448Y-44038271D01*
X104892778Y-44074009D01*
X104976443Y-44230534D01*
X105027963Y-44400373D01*
X105045359Y-44577000D01*
X105027963Y-44753627D01*
X104976443Y-44923466D01*
X104892778Y-45079991D01*
X104863448Y-45115729D01*
X104780186Y-45217186D01*
X104678729Y-45300448D01*
X104642991Y-45329778D01*
X104486466Y-45413443D01*
X104316627Y-45464963D01*
X104250443Y-45471481D01*
X104184260Y-45478000D01*
X104095740Y-45478000D01*
X104029558Y-45471482D01*
X103963373Y-45464963D01*
X103793534Y-45413443D01*
X103637009Y-45329778D01*
X103601271Y-45300448D01*
X103499814Y-45217186D01*
X103416552Y-45115729D01*
X103387222Y-45079991D01*
X103303557Y-44923466D01*
X103252037Y-44753627D01*
X103234641Y-44577000D01*
X103252037Y-44400373D01*
X103303557Y-44230534D01*
X103387222Y-44074009D01*
X103416552Y-44038271D01*
X103499814Y-43936814D01*
X103601271Y-43853552D01*
X103637009Y-43824222D01*
X103793534Y-43740557D01*
X103963373Y-43689037D01*
X104029558Y-43682518D01*
X104095740Y-43676000D01*
X104184260Y-43676000D01*
X104250442Y-43682518D01*
X104250442Y-43682518D01*
G37*
G36*
X106790442Y-43682518D02*
G01*
X106856627Y-43689037D01*
X107026466Y-43740557D01*
X107182991Y-43824222D01*
X107218729Y-43853552D01*
X107320186Y-43936814D01*
X107403448Y-44038271D01*
X107432778Y-44074009D01*
X107516443Y-44230534D01*
X107567963Y-44400373D01*
X107585359Y-44577000D01*
X107567963Y-44753627D01*
X107516443Y-44923466D01*
X107432778Y-45079991D01*
X107403448Y-45115729D01*
X107320186Y-45217186D01*
X107218729Y-45300448D01*
X107182991Y-45329778D01*
X107026466Y-45413443D01*
X106856627Y-45464963D01*
X106790443Y-45471481D01*
X106724260Y-45478000D01*
X106635740Y-45478000D01*
X106569558Y-45471482D01*
X106503373Y-45464963D01*
X106333534Y-45413443D01*
X106177009Y-45329778D01*
X106141271Y-45300448D01*
X106039814Y-45217186D01*
X105956552Y-45115729D01*
X105927222Y-45079991D01*
X105843557Y-44923466D01*
X105792037Y-44753627D01*
X105774641Y-44577000D01*
X105792037Y-44400373D01*
X105843557Y-44230534D01*
X105927222Y-44074009D01*
X105956552Y-44038271D01*
X106039814Y-43936814D01*
X106141271Y-43853552D01*
X106177009Y-43824222D01*
X106333534Y-43740557D01*
X106503373Y-43689037D01*
X106569558Y-43682518D01*
X106635740Y-43676000D01*
X106724260Y-43676000D01*
X106790442Y-43682518D01*
X106790442Y-43682518D01*
G37*
G36*
X75675442Y-43682518D02*
G01*
X75741627Y-43689037D01*
X75911466Y-43740557D01*
X76067991Y-43824222D01*
X76103729Y-43853552D01*
X76205186Y-43936814D01*
X76288448Y-44038271D01*
X76317778Y-44074009D01*
X76401443Y-44230534D01*
X76452963Y-44400373D01*
X76470359Y-44577000D01*
X76452963Y-44753627D01*
X76401443Y-44923466D01*
X76317778Y-45079991D01*
X76288448Y-45115729D01*
X76205186Y-45217186D01*
X76103729Y-45300448D01*
X76067991Y-45329778D01*
X75911466Y-45413443D01*
X75741627Y-45464963D01*
X75675443Y-45471481D01*
X75609260Y-45478000D01*
X75520740Y-45478000D01*
X75454558Y-45471482D01*
X75388373Y-45464963D01*
X75218534Y-45413443D01*
X75062009Y-45329778D01*
X75026271Y-45300448D01*
X74924814Y-45217186D01*
X74841552Y-45115729D01*
X74812222Y-45079991D01*
X74728557Y-44923466D01*
X74677037Y-44753627D01*
X74659641Y-44577000D01*
X74677037Y-44400373D01*
X74728557Y-44230534D01*
X74812222Y-44074009D01*
X74841552Y-44038271D01*
X74924814Y-43936814D01*
X75026271Y-43853552D01*
X75062009Y-43824222D01*
X75218534Y-43740557D01*
X75388373Y-43689037D01*
X75454558Y-43682518D01*
X75520740Y-43676000D01*
X75609260Y-43676000D01*
X75675442Y-43682518D01*
X75675442Y-43682518D01*
G37*
G36*
X62975442Y-43682518D02*
G01*
X63041627Y-43689037D01*
X63211466Y-43740557D01*
X63367991Y-43824222D01*
X63403729Y-43853552D01*
X63505186Y-43936814D01*
X63588448Y-44038271D01*
X63617778Y-44074009D01*
X63701443Y-44230534D01*
X63752963Y-44400373D01*
X63770359Y-44577000D01*
X63752963Y-44753627D01*
X63701443Y-44923466D01*
X63617778Y-45079991D01*
X63588448Y-45115729D01*
X63505186Y-45217186D01*
X63403729Y-45300448D01*
X63367991Y-45329778D01*
X63211466Y-45413443D01*
X63041627Y-45464963D01*
X62975442Y-45471482D01*
X62909260Y-45478000D01*
X62820740Y-45478000D01*
X62754558Y-45471482D01*
X62688373Y-45464963D01*
X62518534Y-45413443D01*
X62362009Y-45329778D01*
X62326271Y-45300448D01*
X62224814Y-45217186D01*
X62141552Y-45115729D01*
X62112222Y-45079991D01*
X62028557Y-44923466D01*
X61977037Y-44753627D01*
X61959641Y-44577000D01*
X61977037Y-44400373D01*
X62028557Y-44230534D01*
X62112222Y-44074009D01*
X62141552Y-44038271D01*
X62224814Y-43936814D01*
X62326271Y-43853552D01*
X62362009Y-43824222D01*
X62518534Y-43740557D01*
X62688373Y-43689037D01*
X62754558Y-43682518D01*
X62820740Y-43676000D01*
X62909260Y-43676000D01*
X62975442Y-43682518D01*
X62975442Y-43682518D01*
G37*
G36*
X60435442Y-43682518D02*
G01*
X60501627Y-43689037D01*
X60671466Y-43740557D01*
X60827991Y-43824222D01*
X60863729Y-43853552D01*
X60965186Y-43936814D01*
X61048448Y-44038271D01*
X61077778Y-44074009D01*
X61161443Y-44230534D01*
X61212963Y-44400373D01*
X61230359Y-44577000D01*
X61212963Y-44753627D01*
X61161443Y-44923466D01*
X61077778Y-45079991D01*
X61048448Y-45115729D01*
X60965186Y-45217186D01*
X60863729Y-45300448D01*
X60827991Y-45329778D01*
X60671466Y-45413443D01*
X60501627Y-45464963D01*
X60435442Y-45471482D01*
X60369260Y-45478000D01*
X60280740Y-45478000D01*
X60214558Y-45471482D01*
X60148373Y-45464963D01*
X59978534Y-45413443D01*
X59822009Y-45329778D01*
X59786271Y-45300448D01*
X59684814Y-45217186D01*
X59601552Y-45115729D01*
X59572222Y-45079991D01*
X59488557Y-44923466D01*
X59437037Y-44753627D01*
X59419641Y-44577000D01*
X59437037Y-44400373D01*
X59488557Y-44230534D01*
X59572222Y-44074009D01*
X59601552Y-44038271D01*
X59684814Y-43936814D01*
X59786271Y-43853552D01*
X59822009Y-43824222D01*
X59978534Y-43740557D01*
X60148373Y-43689037D01*
X60214558Y-43682518D01*
X60280740Y-43676000D01*
X60369260Y-43676000D01*
X60435442Y-43682518D01*
X60435442Y-43682518D01*
G37*
G36*
X65515442Y-43682518D02*
G01*
X65581627Y-43689037D01*
X65751466Y-43740557D01*
X65907991Y-43824222D01*
X65943729Y-43853552D01*
X66045186Y-43936814D01*
X66128448Y-44038271D01*
X66157778Y-44074009D01*
X66241443Y-44230534D01*
X66292963Y-44400373D01*
X66310359Y-44577000D01*
X66292963Y-44753627D01*
X66241443Y-44923466D01*
X66157778Y-45079991D01*
X66128448Y-45115729D01*
X66045186Y-45217186D01*
X65943729Y-45300448D01*
X65907991Y-45329778D01*
X65751466Y-45413443D01*
X65581627Y-45464963D01*
X65515442Y-45471482D01*
X65449260Y-45478000D01*
X65360740Y-45478000D01*
X65294558Y-45471482D01*
X65228373Y-45464963D01*
X65058534Y-45413443D01*
X64902009Y-45329778D01*
X64866271Y-45300448D01*
X64764814Y-45217186D01*
X64681552Y-45115729D01*
X64652222Y-45079991D01*
X64568557Y-44923466D01*
X64517037Y-44753627D01*
X64499641Y-44577000D01*
X64517037Y-44400373D01*
X64568557Y-44230534D01*
X64652222Y-44074009D01*
X64681552Y-44038271D01*
X64764814Y-43936814D01*
X64866271Y-43853552D01*
X64902009Y-43824222D01*
X65058534Y-43740557D01*
X65228373Y-43689037D01*
X65294558Y-43682518D01*
X65360740Y-43676000D01*
X65449260Y-43676000D01*
X65515442Y-43682518D01*
X65515442Y-43682518D01*
G37*
G36*
X68055442Y-43682518D02*
G01*
X68121627Y-43689037D01*
X68291466Y-43740557D01*
X68447991Y-43824222D01*
X68483729Y-43853552D01*
X68585186Y-43936814D01*
X68668448Y-44038271D01*
X68697778Y-44074009D01*
X68781443Y-44230534D01*
X68832963Y-44400373D01*
X68850359Y-44577000D01*
X68832963Y-44753627D01*
X68781443Y-44923466D01*
X68697778Y-45079991D01*
X68668448Y-45115729D01*
X68585186Y-45217186D01*
X68483729Y-45300448D01*
X68447991Y-45329778D01*
X68291466Y-45413443D01*
X68121627Y-45464963D01*
X68055442Y-45471482D01*
X67989260Y-45478000D01*
X67900740Y-45478000D01*
X67834558Y-45471482D01*
X67768373Y-45464963D01*
X67598534Y-45413443D01*
X67442009Y-45329778D01*
X67406271Y-45300448D01*
X67304814Y-45217186D01*
X67221552Y-45115729D01*
X67192222Y-45079991D01*
X67108557Y-44923466D01*
X67057037Y-44753627D01*
X67039641Y-44577000D01*
X67057037Y-44400373D01*
X67108557Y-44230534D01*
X67192222Y-44074009D01*
X67221552Y-44038271D01*
X67304814Y-43936814D01*
X67406271Y-43853552D01*
X67442009Y-43824222D01*
X67598534Y-43740557D01*
X67768373Y-43689037D01*
X67834558Y-43682518D01*
X67900740Y-43676000D01*
X67989260Y-43676000D01*
X68055442Y-43682518D01*
X68055442Y-43682518D01*
G37*
G36*
X57895442Y-43682518D02*
G01*
X57961627Y-43689037D01*
X58131466Y-43740557D01*
X58287991Y-43824222D01*
X58323729Y-43853552D01*
X58425186Y-43936814D01*
X58508448Y-44038271D01*
X58537778Y-44074009D01*
X58621443Y-44230534D01*
X58672963Y-44400373D01*
X58690359Y-44577000D01*
X58672963Y-44753627D01*
X58621443Y-44923466D01*
X58537778Y-45079991D01*
X58508448Y-45115729D01*
X58425186Y-45217186D01*
X58323729Y-45300448D01*
X58287991Y-45329778D01*
X58131466Y-45413443D01*
X57961627Y-45464963D01*
X57895442Y-45471482D01*
X57829260Y-45478000D01*
X57740740Y-45478000D01*
X57674558Y-45471482D01*
X57608373Y-45464963D01*
X57438534Y-45413443D01*
X57282009Y-45329778D01*
X57246271Y-45300448D01*
X57144814Y-45217186D01*
X57061552Y-45115729D01*
X57032222Y-45079991D01*
X56948557Y-44923466D01*
X56897037Y-44753627D01*
X56879641Y-44577000D01*
X56897037Y-44400373D01*
X56948557Y-44230534D01*
X57032222Y-44074009D01*
X57061552Y-44038271D01*
X57144814Y-43936814D01*
X57246271Y-43853552D01*
X57282009Y-43824222D01*
X57438534Y-43740557D01*
X57608373Y-43689037D01*
X57674558Y-43682518D01*
X57740740Y-43676000D01*
X57829260Y-43676000D01*
X57895442Y-43682518D01*
X57895442Y-43682518D01*
G37*
G36*
X70595442Y-43682518D02*
G01*
X70661627Y-43689037D01*
X70831466Y-43740557D01*
X70987991Y-43824222D01*
X71023729Y-43853552D01*
X71125186Y-43936814D01*
X71208448Y-44038271D01*
X71237778Y-44074009D01*
X71321443Y-44230534D01*
X71372963Y-44400373D01*
X71390359Y-44577000D01*
X71372963Y-44753627D01*
X71321443Y-44923466D01*
X71237778Y-45079991D01*
X71208448Y-45115729D01*
X71125186Y-45217186D01*
X71023729Y-45300448D01*
X70987991Y-45329778D01*
X70831466Y-45413443D01*
X70661627Y-45464963D01*
X70595442Y-45471482D01*
X70529260Y-45478000D01*
X70440740Y-45478000D01*
X70374558Y-45471482D01*
X70308373Y-45464963D01*
X70138534Y-45413443D01*
X69982009Y-45329778D01*
X69946271Y-45300448D01*
X69844814Y-45217186D01*
X69761552Y-45115729D01*
X69732222Y-45079991D01*
X69648557Y-44923466D01*
X69597037Y-44753627D01*
X69579641Y-44577000D01*
X69597037Y-44400373D01*
X69648557Y-44230534D01*
X69732222Y-44074009D01*
X69761552Y-44038271D01*
X69844814Y-43936814D01*
X69946271Y-43853552D01*
X69982009Y-43824222D01*
X70138534Y-43740557D01*
X70308373Y-43689037D01*
X70374558Y-43682518D01*
X70440740Y-43676000D01*
X70529260Y-43676000D01*
X70595442Y-43682518D01*
X70595442Y-43682518D01*
G37*
G36*
X55355442Y-43682518D02*
G01*
X55421627Y-43689037D01*
X55591466Y-43740557D01*
X55747991Y-43824222D01*
X55783729Y-43853552D01*
X55885186Y-43936814D01*
X55968448Y-44038271D01*
X55997778Y-44074009D01*
X56081443Y-44230534D01*
X56132963Y-44400373D01*
X56150359Y-44577000D01*
X56132963Y-44753627D01*
X56081443Y-44923466D01*
X55997778Y-45079991D01*
X55968448Y-45115729D01*
X55885186Y-45217186D01*
X55783729Y-45300448D01*
X55747991Y-45329778D01*
X55591466Y-45413443D01*
X55421627Y-45464963D01*
X55355442Y-45471482D01*
X55289260Y-45478000D01*
X55200740Y-45478000D01*
X55134558Y-45471482D01*
X55068373Y-45464963D01*
X54898534Y-45413443D01*
X54742009Y-45329778D01*
X54706271Y-45300448D01*
X54604814Y-45217186D01*
X54521552Y-45115729D01*
X54492222Y-45079991D01*
X54408557Y-44923466D01*
X54357037Y-44753627D01*
X54339641Y-44577000D01*
X54357037Y-44400373D01*
X54408557Y-44230534D01*
X54492222Y-44074009D01*
X54521552Y-44038271D01*
X54604814Y-43936814D01*
X54706271Y-43853552D01*
X54742009Y-43824222D01*
X54898534Y-43740557D01*
X55068373Y-43689037D01*
X55134558Y-43682518D01*
X55200740Y-43676000D01*
X55289260Y-43676000D01*
X55355442Y-43682518D01*
X55355442Y-43682518D01*
G37*
G36*
X50275442Y-43682518D02*
G01*
X50341627Y-43689037D01*
X50511466Y-43740557D01*
X50667991Y-43824222D01*
X50703729Y-43853552D01*
X50805186Y-43936814D01*
X50888448Y-44038271D01*
X50917778Y-44074009D01*
X51001443Y-44230534D01*
X51052963Y-44400373D01*
X51070359Y-44577000D01*
X51052963Y-44753627D01*
X51001443Y-44923466D01*
X50917778Y-45079991D01*
X50888448Y-45115729D01*
X50805186Y-45217186D01*
X50703729Y-45300448D01*
X50667991Y-45329778D01*
X50511466Y-45413443D01*
X50341627Y-45464963D01*
X50275442Y-45471482D01*
X50209260Y-45478000D01*
X50120740Y-45478000D01*
X50054558Y-45471482D01*
X49988373Y-45464963D01*
X49818534Y-45413443D01*
X49662009Y-45329778D01*
X49626271Y-45300448D01*
X49524814Y-45217186D01*
X49441552Y-45115729D01*
X49412222Y-45079991D01*
X49328557Y-44923466D01*
X49277037Y-44753627D01*
X49259641Y-44577000D01*
X49277037Y-44400373D01*
X49328557Y-44230534D01*
X49412222Y-44074009D01*
X49441552Y-44038271D01*
X49524814Y-43936814D01*
X49626271Y-43853552D01*
X49662009Y-43824222D01*
X49818534Y-43740557D01*
X49988373Y-43689037D01*
X50054558Y-43682518D01*
X50120740Y-43676000D01*
X50209260Y-43676000D01*
X50275442Y-43682518D01*
X50275442Y-43682518D01*
G37*
G36*
X52815442Y-43682518D02*
G01*
X52881627Y-43689037D01*
X53051466Y-43740557D01*
X53207991Y-43824222D01*
X53243729Y-43853552D01*
X53345186Y-43936814D01*
X53428448Y-44038271D01*
X53457778Y-44074009D01*
X53541443Y-44230534D01*
X53592963Y-44400373D01*
X53610359Y-44577000D01*
X53592963Y-44753627D01*
X53541443Y-44923466D01*
X53457778Y-45079991D01*
X53428448Y-45115729D01*
X53345186Y-45217186D01*
X53243729Y-45300448D01*
X53207991Y-45329778D01*
X53051466Y-45413443D01*
X52881627Y-45464963D01*
X52815442Y-45471482D01*
X52749260Y-45478000D01*
X52660740Y-45478000D01*
X52594558Y-45471482D01*
X52528373Y-45464963D01*
X52358534Y-45413443D01*
X52202009Y-45329778D01*
X52166271Y-45300448D01*
X52064814Y-45217186D01*
X51981552Y-45115729D01*
X51952222Y-45079991D01*
X51868557Y-44923466D01*
X51817037Y-44753627D01*
X51799641Y-44577000D01*
X51817037Y-44400373D01*
X51868557Y-44230534D01*
X51952222Y-44074009D01*
X51981552Y-44038271D01*
X52064814Y-43936814D01*
X52166271Y-43853552D01*
X52202009Y-43824222D01*
X52358534Y-43740557D01*
X52528373Y-43689037D01*
X52594558Y-43682518D01*
X52660740Y-43676000D01*
X52749260Y-43676000D01*
X52815442Y-43682518D01*
X52815442Y-43682518D01*
G37*
G36*
X73135442Y-43682518D02*
G01*
X73201627Y-43689037D01*
X73371466Y-43740557D01*
X73527991Y-43824222D01*
X73563729Y-43853552D01*
X73665186Y-43936814D01*
X73748448Y-44038271D01*
X73777778Y-44074009D01*
X73861443Y-44230534D01*
X73912963Y-44400373D01*
X73930359Y-44577000D01*
X73912963Y-44753627D01*
X73861443Y-44923466D01*
X73777778Y-45079991D01*
X73748448Y-45115729D01*
X73665186Y-45217186D01*
X73563729Y-45300448D01*
X73527991Y-45329778D01*
X73371466Y-45413443D01*
X73201627Y-45464963D01*
X73135442Y-45471482D01*
X73069260Y-45478000D01*
X72980740Y-45478000D01*
X72914558Y-45471482D01*
X72848373Y-45464963D01*
X72678534Y-45413443D01*
X72522009Y-45329778D01*
X72486271Y-45300448D01*
X72384814Y-45217186D01*
X72301552Y-45115729D01*
X72272222Y-45079991D01*
X72188557Y-44923466D01*
X72137037Y-44753627D01*
X72119641Y-44577000D01*
X72137037Y-44400373D01*
X72188557Y-44230534D01*
X72272222Y-44074009D01*
X72301552Y-44038271D01*
X72384814Y-43936814D01*
X72486271Y-43853552D01*
X72522009Y-43824222D01*
X72678534Y-43740557D01*
X72848373Y-43689037D01*
X72914558Y-43682518D01*
X72980740Y-43676000D01*
X73069260Y-43676000D01*
X73135442Y-43682518D01*
X73135442Y-43682518D01*
G37*
G36*
X86470442Y-43682518D02*
G01*
X86536627Y-43689037D01*
X86706466Y-43740557D01*
X86862991Y-43824222D01*
X86898729Y-43853552D01*
X87000186Y-43936814D01*
X87083448Y-44038271D01*
X87112778Y-44074009D01*
X87196443Y-44230534D01*
X87247963Y-44400373D01*
X87265359Y-44577000D01*
X87247963Y-44753627D01*
X87196443Y-44923466D01*
X87112778Y-45079991D01*
X87083448Y-45115729D01*
X87000186Y-45217186D01*
X86898729Y-45300448D01*
X86862991Y-45329778D01*
X86706466Y-45413443D01*
X86536627Y-45464963D01*
X86470443Y-45471481D01*
X86404260Y-45478000D01*
X86315740Y-45478000D01*
X86249558Y-45471482D01*
X86183373Y-45464963D01*
X86013534Y-45413443D01*
X85857009Y-45329778D01*
X85821271Y-45300448D01*
X85719814Y-45217186D01*
X85636552Y-45115729D01*
X85607222Y-45079991D01*
X85523557Y-44923466D01*
X85472037Y-44753627D01*
X85454641Y-44577000D01*
X85472037Y-44400373D01*
X85523557Y-44230534D01*
X85607222Y-44074009D01*
X85636552Y-44038271D01*
X85719814Y-43936814D01*
X85821271Y-43853552D01*
X85857009Y-43824222D01*
X86013534Y-43740557D01*
X86183373Y-43689037D01*
X86249558Y-43682518D01*
X86315740Y-43676000D01*
X86404260Y-43676000D01*
X86470442Y-43682518D01*
X86470442Y-43682518D01*
G37*
M02*
