G04 #@! TF.GenerationSoftware,KiCad,Pcbnew,(5.1.4)-1*
G04 #@! TF.CreationDate,2019-12-12T19:52:35+09:00*
G04 #@! TF.ProjectId,microcar_head,6d696372-6f63-4617-925f-686561642e6b,rev?*
G04 #@! TF.SameCoordinates,Original*
G04 #@! TF.FileFunction,Legend,Top*
G04 #@! TF.FilePolarity,Positive*
%FSLAX46Y46*%
G04 Gerber Fmt 4.6, Leading zero omitted, Abs format (unit mm)*
G04 Created by KiCad (PCBNEW (5.1.4)-1) date 2019-12-12 19:52:35*
%MOMM*%
%LPD*%
G04 APERTURE LIST*
%ADD10C,0.120000*%
%ADD11C,0.150000*%
%ADD12C,0.200000*%
G04 APERTURE END LIST*
D10*
X47625000Y-40640000D02*
X48260000Y-40005000D01*
X47625000Y-39370000D02*
X47625000Y-40640000D01*
X48260000Y-40005000D02*
X47625000Y-39370000D01*
X45720000Y-41275000D02*
X45085000Y-40640000D01*
X45720000Y-40005000D02*
X45720000Y-41275000D01*
X45085000Y-40640000D02*
X45720000Y-40005000D01*
X46990000Y-47371000D02*
X25400000Y-47371000D01*
X46990000Y-44831000D02*
X46990000Y-47371000D01*
X25400000Y-44831000D02*
X46990000Y-44831000D01*
X25400000Y-47371000D02*
X25400000Y-44831000D01*
D11*
X45361666Y-45648619D02*
X45695000Y-46124809D01*
X45933095Y-45648619D02*
X45933095Y-46648619D01*
X45552142Y-46648619D01*
X45456904Y-46601000D01*
X45409285Y-46553380D01*
X45361666Y-46458142D01*
X45361666Y-46315285D01*
X45409285Y-46220047D01*
X45456904Y-46172428D01*
X45552142Y-46124809D01*
X45933095Y-46124809D01*
X44980714Y-45934333D02*
X44504523Y-45934333D01*
X45075952Y-45648619D02*
X44742619Y-46648619D01*
X44409285Y-45648619D01*
X44075952Y-45648619D02*
X44075952Y-46648619D01*
X43742619Y-45934333D01*
X43409285Y-46648619D01*
X43409285Y-45648619D01*
X42933095Y-45648619D02*
X42933095Y-46648619D01*
X42361666Y-45648619D01*
X42361666Y-46648619D01*
X41123571Y-46029571D02*
X40361666Y-46029571D01*
X38552142Y-45743857D02*
X38599761Y-45696238D01*
X38742619Y-45648619D01*
X38837857Y-45648619D01*
X38980714Y-45696238D01*
X39075952Y-45791476D01*
X39123571Y-45886714D01*
X39171190Y-46077190D01*
X39171190Y-46220047D01*
X39123571Y-46410523D01*
X39075952Y-46505761D01*
X38980714Y-46601000D01*
X38837857Y-46648619D01*
X38742619Y-46648619D01*
X38599761Y-46601000D01*
X38552142Y-46553380D01*
X38123571Y-45648619D02*
X38123571Y-46648619D01*
X37695000Y-45648619D02*
X37695000Y-46172428D01*
X37742619Y-46267666D01*
X37837857Y-46315285D01*
X37980714Y-46315285D01*
X38075952Y-46267666D01*
X38123571Y-46220047D01*
X36790238Y-45648619D02*
X36790238Y-46172428D01*
X36837857Y-46267666D01*
X36933095Y-46315285D01*
X37123571Y-46315285D01*
X37218809Y-46267666D01*
X36790238Y-45696238D02*
X36885476Y-45648619D01*
X37123571Y-45648619D01*
X37218809Y-45696238D01*
X37266428Y-45791476D01*
X37266428Y-45886714D01*
X37218809Y-45981952D01*
X37123571Y-46029571D01*
X36885476Y-46029571D01*
X36790238Y-46077190D01*
X36361666Y-45696238D02*
X36266428Y-45648619D01*
X36075952Y-45648619D01*
X35980714Y-45696238D01*
X35933095Y-45791476D01*
X35933095Y-45839095D01*
X35980714Y-45934333D01*
X36075952Y-45981952D01*
X36218809Y-45981952D01*
X36314047Y-46029571D01*
X36361666Y-46124809D01*
X36361666Y-46172428D01*
X36314047Y-46267666D01*
X36218809Y-46315285D01*
X36075952Y-46315285D01*
X35980714Y-46267666D01*
X35552142Y-45696238D02*
X35456904Y-45648619D01*
X35266428Y-45648619D01*
X35171190Y-45696238D01*
X35123571Y-45791476D01*
X35123571Y-45839095D01*
X35171190Y-45934333D01*
X35266428Y-45981952D01*
X35409285Y-45981952D01*
X35504523Y-46029571D01*
X35552142Y-46124809D01*
X35552142Y-46172428D01*
X35504523Y-46267666D01*
X35409285Y-46315285D01*
X35266428Y-46315285D01*
X35171190Y-46267666D01*
X34695000Y-45648619D02*
X34695000Y-46315285D01*
X34695000Y-46648619D02*
X34742619Y-46601000D01*
X34695000Y-46553380D01*
X34647380Y-46601000D01*
X34695000Y-46648619D01*
X34695000Y-46553380D01*
X34266428Y-45696238D02*
X34171190Y-45648619D01*
X33980714Y-45648619D01*
X33885476Y-45696238D01*
X33837857Y-45791476D01*
X33837857Y-45839095D01*
X33885476Y-45934333D01*
X33980714Y-45981952D01*
X34123571Y-45981952D01*
X34218809Y-46029571D01*
X34266428Y-46124809D01*
X34266428Y-46172428D01*
X34218809Y-46267666D01*
X34123571Y-46315285D01*
X33980714Y-46315285D01*
X33885476Y-46267666D01*
X32123571Y-45648619D02*
X32695000Y-45648619D01*
X32409285Y-45648619D02*
X32409285Y-46648619D01*
X32504523Y-46505761D01*
X32599761Y-46410523D01*
X32695000Y-46362904D01*
X31695000Y-45743857D02*
X31647380Y-45696238D01*
X31695000Y-45648619D01*
X31742619Y-45696238D01*
X31695000Y-45743857D01*
X31695000Y-45648619D01*
X31028333Y-46648619D02*
X30933095Y-46648619D01*
X30837857Y-46601000D01*
X30790238Y-46553380D01*
X30742619Y-46458142D01*
X30695000Y-46267666D01*
X30695000Y-46029571D01*
X30742619Y-45839095D01*
X30790238Y-45743857D01*
X30837857Y-45696238D01*
X30933095Y-45648619D01*
X31028333Y-45648619D01*
X31123571Y-45696238D01*
X31171190Y-45743857D01*
X31218809Y-45839095D01*
X31266428Y-46029571D01*
X31266428Y-46267666D01*
X31218809Y-46458142D01*
X31171190Y-46553380D01*
X31123571Y-46601000D01*
X31028333Y-46648619D01*
X29171190Y-46172428D02*
X29028333Y-46124809D01*
X28980714Y-46077190D01*
X28933095Y-45981952D01*
X28933095Y-45839095D01*
X28980714Y-45743857D01*
X29028333Y-45696238D01*
X29123571Y-45648619D01*
X29504523Y-45648619D01*
X29504523Y-46648619D01*
X29171190Y-46648619D01*
X29075952Y-46601000D01*
X29028333Y-46553380D01*
X28980714Y-46458142D01*
X28980714Y-46362904D01*
X29028333Y-46267666D01*
X29075952Y-46220047D01*
X29171190Y-46172428D01*
X29504523Y-46172428D01*
X28504523Y-46172428D02*
X28171190Y-46172428D01*
X28028333Y-45648619D02*
X28504523Y-45648619D01*
X28504523Y-46648619D01*
X28028333Y-46648619D01*
X27742619Y-46648619D02*
X27171190Y-46648619D01*
X27456904Y-45648619D02*
X27456904Y-46648619D01*
X26885476Y-45934333D02*
X26409285Y-45934333D01*
X26980714Y-45648619D02*
X26647380Y-46648619D01*
X26314047Y-45648619D01*
D10*
X52765000Y-52451000D02*
X52765000Y-53781000D01*
X52765000Y-53781000D02*
X51435000Y-53781000D01*
X52765000Y-51181000D02*
X50165000Y-51181000D01*
X50165000Y-51181000D02*
X50165000Y-53781000D01*
X50165000Y-53781000D02*
X19625000Y-53781000D01*
X19625000Y-48581000D02*
X19625000Y-53781000D01*
X52765000Y-48581000D02*
X19625000Y-48581000D01*
X52765000Y-48581000D02*
X52765000Y-51181000D01*
X28976000Y-36470000D02*
X28976000Y-39150000D01*
X22736000Y-39150000D02*
X22736000Y-36470000D01*
X22886000Y-34690000D02*
X28826000Y-34690000D01*
X22886000Y-40930000D02*
X28826000Y-40930000D01*
X27270214Y-37810000D02*
G75*
G03X27270214Y-37810000I-1414214J0D01*
G01*
X36576000Y-38100000D02*
X36195000Y-38481000D01*
X36576000Y-38100000D02*
X37211000Y-38608000D01*
X38608219Y-40255274D02*
G75*
G02X36576000Y-38100000I126781J2155274D01*
G01*
X42456559Y-38100000D02*
G75*
G03X42456559Y-38100000I-3721559J0D01*
G01*
X41235000Y-40800000D02*
X36035000Y-35500000D01*
X40590020Y-34777510D02*
G75*
G02X41635000Y-35700000I644980J-322490D01*
G01*
D12*
X32735000Y-44100000D02*
X44735000Y-44100000D01*
X32735000Y-32100000D02*
X32735000Y-44100000D01*
X44735000Y-32100000D02*
X32735000Y-32100000D01*
X44735000Y-44100000D02*
X44735000Y-32100000D01*
D10*
X33115000Y-10764000D02*
X39355000Y-10764000D01*
X33115000Y-19964000D02*
X39355000Y-19964000D01*
X39355000Y-19964000D02*
X39355000Y-10764000D01*
X33115000Y-19964000D02*
X33115000Y-10764000D01*
X32715000Y-19964000D02*
X39755000Y-19964000D01*
X32715000Y-20764000D02*
X39755000Y-20764000D01*
X39755000Y-20764000D02*
X39755000Y-19964000D01*
X32715000Y-20764000D02*
X32715000Y-19964000D01*
X31265000Y-20764000D02*
X41205000Y-20764000D01*
X33791000Y-26004000D02*
X38680000Y-26004000D01*
X41205000Y-25129000D02*
X41205000Y-20764000D01*
X31265000Y-25129000D02*
X31265000Y-20764000D01*
D11*
X48500000Y-42400000D02*
X48500000Y-33800000D01*
X53100000Y-42400000D02*
X53100000Y-40200000D01*
X53100000Y-36100000D02*
X53100000Y-33800000D01*
X19986666Y-46442380D02*
X19986666Y-47156666D01*
X19939047Y-47299523D01*
X19843809Y-47394761D01*
X19700952Y-47442380D01*
X19605714Y-47442380D01*
X20986666Y-47442380D02*
X20415238Y-47442380D01*
X20700952Y-47442380D02*
X20700952Y-46442380D01*
X20605714Y-46585238D01*
X20510476Y-46680476D01*
X20415238Y-46728095D01*
X27241333Y-33123238D02*
X27098476Y-33075619D01*
X26860380Y-33075619D01*
X26765142Y-33123238D01*
X26717523Y-33170857D01*
X26669904Y-33266095D01*
X26669904Y-33361333D01*
X26717523Y-33456571D01*
X26765142Y-33504190D01*
X26860380Y-33551809D01*
X27050857Y-33599428D01*
X27146095Y-33647047D01*
X27193714Y-33694666D01*
X27241333Y-33789904D01*
X27241333Y-33885142D01*
X27193714Y-33980380D01*
X27146095Y-34028000D01*
X27050857Y-34075619D01*
X26812761Y-34075619D01*
X26669904Y-34028000D01*
X26336571Y-34075619D02*
X26098476Y-33075619D01*
X25908000Y-33789904D01*
X25717523Y-33075619D01*
X25479428Y-34075619D01*
X25146095Y-33980380D02*
X25098476Y-34028000D01*
X25003238Y-34075619D01*
X24765142Y-34075619D01*
X24669904Y-34028000D01*
X24622285Y-33980380D01*
X24574666Y-33885142D01*
X24574666Y-33789904D01*
X24622285Y-33647047D01*
X25193714Y-33075619D01*
X24574666Y-33075619D01*
X40068333Y-30710238D02*
X39925476Y-30662619D01*
X39687380Y-30662619D01*
X39592142Y-30710238D01*
X39544523Y-30757857D01*
X39496904Y-30853095D01*
X39496904Y-30948333D01*
X39544523Y-31043571D01*
X39592142Y-31091190D01*
X39687380Y-31138809D01*
X39877857Y-31186428D01*
X39973095Y-31234047D01*
X40020714Y-31281666D01*
X40068333Y-31376904D01*
X40068333Y-31472142D01*
X40020714Y-31567380D01*
X39973095Y-31615000D01*
X39877857Y-31662619D01*
X39639761Y-31662619D01*
X39496904Y-31615000D01*
X39163571Y-31662619D02*
X38925476Y-30662619D01*
X38735000Y-31376904D01*
X38544523Y-30662619D01*
X38306428Y-31662619D01*
X37401666Y-30662619D02*
X37973095Y-30662619D01*
X37687380Y-30662619D02*
X37687380Y-31662619D01*
X37782619Y-31519761D01*
X37877857Y-31424523D01*
X37973095Y-31376904D01*
X43521238Y-21137619D02*
X43854571Y-21613809D01*
X44092666Y-21137619D02*
X44092666Y-22137619D01*
X43711714Y-22137619D01*
X43616476Y-22090000D01*
X43568857Y-22042380D01*
X43521238Y-21947142D01*
X43521238Y-21804285D01*
X43568857Y-21709047D01*
X43616476Y-21661428D01*
X43711714Y-21613809D01*
X44092666Y-21613809D01*
X43235523Y-22137619D02*
X42902190Y-21137619D01*
X42568857Y-22137619D01*
X41711714Y-21137619D02*
X42283142Y-21137619D01*
X41997428Y-21137619D02*
X41997428Y-22137619D01*
X42092666Y-21994761D01*
X42187904Y-21899523D01*
X42283142Y-21851904D01*
X50863333Y-31091238D02*
X50720476Y-31043619D01*
X50482380Y-31043619D01*
X50387142Y-31091238D01*
X50339523Y-31138857D01*
X50291904Y-31234095D01*
X50291904Y-31329333D01*
X50339523Y-31424571D01*
X50387142Y-31472190D01*
X50482380Y-31519809D01*
X50672857Y-31567428D01*
X50768095Y-31615047D01*
X50815714Y-31662666D01*
X50863333Y-31757904D01*
X50863333Y-31853142D01*
X50815714Y-31948380D01*
X50768095Y-31996000D01*
X50672857Y-32043619D01*
X50434761Y-32043619D01*
X50291904Y-31996000D01*
X49958571Y-32043619D02*
X49720476Y-31043619D01*
X49530000Y-31757904D01*
X49339523Y-31043619D01*
X49101428Y-32043619D01*
X48815714Y-32043619D02*
X48196666Y-32043619D01*
X48530000Y-31662666D01*
X48387142Y-31662666D01*
X48291904Y-31615047D01*
X48244285Y-31567428D01*
X48196666Y-31472190D01*
X48196666Y-31234095D01*
X48244285Y-31138857D01*
X48291904Y-31091238D01*
X48387142Y-31043619D01*
X48672857Y-31043619D01*
X48768095Y-31091238D01*
X48815714Y-31138857D01*
X53284380Y-24764904D02*
X52284380Y-24764904D01*
X52760571Y-24764904D02*
X52760571Y-24193476D01*
X53284380Y-24193476D02*
X52284380Y-24193476D01*
X52379619Y-23764904D02*
X52332000Y-23717285D01*
X52284380Y-23622047D01*
X52284380Y-23383952D01*
X52332000Y-23288714D01*
X52379619Y-23241095D01*
X52474857Y-23193476D01*
X52570095Y-23193476D01*
X52712952Y-23241095D01*
X53284380Y-23812523D01*
X53284380Y-23193476D01*
X20264380Y-24637904D02*
X19264380Y-24637904D01*
X19740571Y-24637904D02*
X19740571Y-24066476D01*
X20264380Y-24066476D02*
X19264380Y-24066476D01*
X20264380Y-23066476D02*
X20264380Y-23637904D01*
X20264380Y-23352190D02*
X19264380Y-23352190D01*
X19407238Y-23447428D01*
X19502476Y-23542666D01*
X19550095Y-23637904D01*
M02*
