M48
METRIC,TZ
T1C0.400
T2C0.800
T3C0.900
T4C1.000
T5C1.500
T6C1.800
%
G90
G05
T1
X33929Y-36692
X33929Y-59552
X44343Y-49900
X54503Y-64886
X56535Y-49900
X63647Y-50154
X64409Y-39740
X72029Y-65394
X96588Y-50789
X104208Y-33898
X104208Y-37962
X104208Y-54599
X104208Y-61330
X112336Y-33898
X112336Y-37962
X112336Y-61330
X115638Y-49392
X115638Y-53456
X127830Y-40502
X127830Y-47868
X127830Y-50916
X127830Y-59806
X127830Y-61584
X158760Y-42386
X158760Y-55213
X161554Y-46831
X161808Y-51403
X164475Y-45933
X166253Y-51403
X167650Y-48228
X170317Y-51403
X170698Y-46196
X179969Y-49752
X185176Y-38449
X192288Y-59785
X209680Y-47431
X214633Y-39049
X214887Y-50733
X218443Y-55559
X218443Y-56829
X218443Y-58099
X219713Y-55559
X219713Y-56829
X219713Y-58099
X220348Y-52257
X220983Y-40319
X221999Y-45653
X223777Y-43875
X224285Y-31937
X227333Y-55559
X227333Y-56829
X227333Y-58099
X228603Y-55559
X228603Y-56829
X228603Y-58099
X232413Y-50479
X233937Y-34731
X235461Y-60639
X236731Y-58353
T2
X218570Y-34858
X218570Y-50098
X228730Y-34858
X228730Y-37398
X228730Y-39938
X228730Y-42478
X228730Y-47558
X228730Y-50098
T3
X192288Y-44355
X192288Y-46355
X192288Y-48355
T4
X72029Y-30977
X72029Y-33517
X72029Y-36057
X72029Y-38597
X72029Y-41137
X72029Y-43677
X72029Y-46217
X72029Y-48757
X72029Y-51297
X72029Y-53837
X72029Y-56377
X72029Y-58917
X72029Y-61457
X74569Y-30977
X74569Y-33517
X74569Y-36057
X74569Y-38597
X74569Y-41137
X74569Y-43677
X74569Y-46217
X74569Y-48757
X74569Y-51297
X74569Y-53837
X74569Y-56377
X74569Y-58917
X74569Y-61457
X93286Y-35549
X93286Y-38089
X93286Y-40629
X93286Y-43169
X93286Y-45709
X93286Y-48249
X93286Y-50789
X93286Y-53329
X93286Y-55869
X93286Y-58409
X93286Y-60949
X99255Y-39359
X99255Y-41899
X99255Y-44439
X99255Y-46979
X99255Y-49519
X99255Y-52059
X99255Y-54599
X99255Y-57139
X120083Y-33009
X120083Y-35549
X120083Y-38089
X120083Y-40629
X120083Y-43169
X120083Y-45709
X120083Y-48249
X120083Y-50789
X120083Y-53329
X120083Y-55869
X120083Y-58409
X120083Y-60949
X120083Y-63489
X124020Y-35549
X124020Y-38089
X124020Y-40629
X124020Y-43169
X124020Y-45709
X124020Y-48249
X124020Y-50789
X124020Y-53329
X124020Y-55869
X124020Y-58409
X124020Y-60949
X131640Y-33136
X131640Y-35676
X131640Y-38216
X131640Y-40756
X131640Y-43296
X131640Y-45836
X131640Y-48376
X131640Y-50916
X131640Y-53456
X131640Y-55996
X131640Y-58536
X131640Y-61076
X131640Y-63616
X134180Y-33136
X134180Y-35676
X134180Y-38216
X134180Y-40756
X134180Y-43296
X134180Y-45836
X134180Y-48376
X134180Y-50916
X134180Y-53456
X134180Y-55996
X134180Y-58536
X134180Y-61076
X134180Y-63616
X158252Y-59785
X158252Y-62325
X160792Y-59785
X160792Y-62325
X163332Y-59785
X163332Y-62325
X165872Y-59785
X165872Y-62325
X167182Y-35607
X168412Y-59785
X168412Y-62325
X169682Y-35607
X170952Y-59785
X170952Y-62325
X172182Y-35607
X173492Y-59785
X173492Y-62325
X176032Y-59785
X176032Y-62325
X176159Y-46704
X176159Y-49244
X176159Y-51784
X178572Y-59785
X178572Y-62325
X178589Y-44164
X178699Y-54324
X181112Y-59785
X181112Y-62325
X183652Y-59785
X183652Y-62325
X183779Y-44164
X183779Y-54324
X186192Y-59785
X186192Y-62325
X186319Y-46704
X186319Y-49244
X186319Y-51784
X188732Y-59785
X188732Y-62325
X208791Y-64830
X208791Y-67370
X211331Y-64830
X211331Y-67370
X213871Y-64830
X213871Y-67370
X216411Y-64830
X216411Y-67370
X218951Y-64830
X218951Y-67370
X221491Y-64830
X221491Y-67370
X224031Y-64830
X224031Y-67370
X226571Y-64830
X226571Y-67370
X229111Y-64830
X229111Y-67370
X231651Y-64830
X231651Y-67370
X234191Y-64830
X234191Y-67370
X236731Y-64830
X236731Y-67370
X239271Y-64830
X239271Y-67370
T5
X44567Y-32374
X44567Y-43296
X57424Y-63362
X62504Y-57012
X62504Y-63362
X64567Y-32374
X64567Y-36124
X64567Y-43296
X64567Y-47046
X67584Y-57012
X67584Y-63362
X192288Y-42255
X192288Y-50455
X210061Y-37017
X216538Y-30540
X221618Y-30540
X226698Y-30540
X231778Y-30540
X236731Y-30413
T6
X164682Y-39957G85X164682Y-37857
G05
X174682Y-39957G85X174682Y-37857
G05
T0
M30
