G04 #@! TF.GenerationSoftware,KiCad,Pcbnew,7.0.9*
G04 #@! TF.CreationDate,2024-12-23T13:01:38-05:00*
G04 #@! TF.ProjectId,pods_panel,706f6473-5f70-4616-9e65-6c2e6b696361,rev?*
G04 #@! TF.SameCoordinates,Original*
G04 #@! TF.FileFunction,Copper,L2,Bot*
G04 #@! TF.FilePolarity,Positive*
%FSLAX46Y46*%
G04 Gerber Fmt 4.6, Leading zero omitted, Abs format (unit mm)*
G04 Created by KiCad (PCBNEW 7.0.9) date 2024-12-23 13:01:38*
%MOMM*%
%LPD*%
G01*
G04 APERTURE LIST*
%ADD10C,0.500000*%
G04 #@! TA.AperFunction,NonConductor*
%ADD11C,0.500000*%
G04 #@! TD*
%ADD12C,0.300000*%
G04 #@! TA.AperFunction,NonConductor*
%ADD13C,0.300000*%
G04 #@! TD*
G04 #@! TA.AperFunction,ComponentPad*
%ADD14C,3.000000*%
G04 #@! TD*
G04 #@! TA.AperFunction,ComponentPad*
%ADD15R,1.700000X1.700000*%
G04 #@! TD*
G04 #@! TA.AperFunction,ComponentPad*
%ADD16O,1.700000X1.700000*%
G04 #@! TD*
G04 #@! TA.AperFunction,ComponentPad*
%ADD17O,2.800000X4.900000*%
G04 #@! TD*
G04 #@! TA.AperFunction,ComponentPad*
%ADD18C,1.800000*%
G04 #@! TD*
G04 #@! TA.AperFunction,ComponentPad*
%ADD19R,3.000000X1.500000*%
G04 #@! TD*
G04 #@! TA.AperFunction,ComponentPad*
%ADD20C,1.600000*%
G04 #@! TD*
G04 #@! TA.AperFunction,ComponentPad*
%ADD21C,2.700000*%
G04 #@! TD*
G04 #@! TA.AperFunction,ComponentPad*
%ADD22O,3.500000X2.200000*%
G04 #@! TD*
G04 #@! TA.AperFunction,ComponentPad*
%ADD23R,2.500000X1.500000*%
G04 #@! TD*
G04 #@! TA.AperFunction,ComponentPad*
%ADD24O,2.500000X1.500000*%
G04 #@! TD*
G04 #@! TA.AperFunction,ComponentPad*
%ADD25C,1.524000*%
G04 #@! TD*
G04 #@! TA.AperFunction,SMDPad,CuDef*
%ADD26C,2.000000*%
G04 #@! TD*
G04 #@! TA.AperFunction,ViaPad*
%ADD27C,0.800000*%
G04 #@! TD*
G04 #@! TA.AperFunction,Conductor*
%ADD28C,0.400000*%
G04 #@! TD*
G04 APERTURE END LIST*
D10*
D11*
X250787800Y-47638481D02*
X251787800Y-46352767D01*
X252502086Y-47638481D02*
X252502086Y-44938481D01*
X252502086Y-44938481D02*
X251359229Y-44938481D01*
X251359229Y-44938481D02*
X251073514Y-45067052D01*
X251073514Y-45067052D02*
X250930657Y-45195624D01*
X250930657Y-45195624D02*
X250787800Y-45452767D01*
X250787800Y-45452767D02*
X250787800Y-45838481D01*
X250787800Y-45838481D02*
X250930657Y-46095624D01*
X250930657Y-46095624D02*
X251073514Y-46224195D01*
X251073514Y-46224195D02*
X251359229Y-46352767D01*
X251359229Y-46352767D02*
X252502086Y-46352767D01*
X249644943Y-46867052D02*
X248216372Y-46867052D01*
X249930657Y-47638481D02*
X248930657Y-44938481D01*
X248930657Y-44938481D02*
X247930657Y-47638481D01*
X246930657Y-47638481D02*
X246930657Y-44938481D01*
X246930657Y-44938481D02*
X245930657Y-46867052D01*
X245930657Y-46867052D02*
X244930657Y-44938481D01*
X244930657Y-44938481D02*
X244930657Y-47638481D01*
X243502086Y-47638481D02*
X243502086Y-44938481D01*
X243502086Y-44938481D02*
X241787800Y-47638481D01*
X241787800Y-47638481D02*
X241787800Y-44938481D01*
D12*
D13*
X36893384Y-47062604D02*
X36179098Y-46562604D01*
X36893384Y-46205461D02*
X35393384Y-46205461D01*
X35393384Y-46205461D02*
X35393384Y-46776890D01*
X35393384Y-46776890D02*
X35464813Y-46919747D01*
X35464813Y-46919747D02*
X35536241Y-46991176D01*
X35536241Y-46991176D02*
X35679098Y-47062604D01*
X35679098Y-47062604D02*
X35893384Y-47062604D01*
X35893384Y-47062604D02*
X36036241Y-46991176D01*
X36036241Y-46991176D02*
X36107670Y-46919747D01*
X36107670Y-46919747D02*
X36179098Y-46776890D01*
X36179098Y-46776890D02*
X36179098Y-46205461D01*
X36464813Y-47634033D02*
X36464813Y-48348319D01*
X36893384Y-47491176D02*
X35393384Y-47991176D01*
X35393384Y-47991176D02*
X36893384Y-48491176D01*
X36893384Y-48991175D02*
X35393384Y-48991175D01*
X35393384Y-48991175D02*
X36464813Y-49491175D01*
X36464813Y-49491175D02*
X35393384Y-49991175D01*
X35393384Y-49991175D02*
X36893384Y-49991175D01*
X36893384Y-50705461D02*
X35393384Y-50705461D01*
X35393384Y-50705461D02*
X36893384Y-51562604D01*
X36893384Y-51562604D02*
X35393384Y-51562604D01*
D12*
D13*
X180935566Y-35784966D02*
X180468899Y-36451633D01*
X180135566Y-35784966D02*
X180135566Y-37184966D01*
X180135566Y-37184966D02*
X180668899Y-37184966D01*
X180668899Y-37184966D02*
X180802233Y-37118299D01*
X180802233Y-37118299D02*
X180868899Y-37051633D01*
X180868899Y-37051633D02*
X180935566Y-36918299D01*
X180935566Y-36918299D02*
X180935566Y-36718299D01*
X180935566Y-36718299D02*
X180868899Y-36584966D01*
X180868899Y-36584966D02*
X180802233Y-36518299D01*
X180802233Y-36518299D02*
X180668899Y-36451633D01*
X180668899Y-36451633D02*
X180135566Y-36451633D01*
X181468899Y-36184966D02*
X182135566Y-36184966D01*
X181335566Y-35784966D02*
X181802233Y-37184966D01*
X181802233Y-37184966D02*
X182268899Y-35784966D01*
X182735566Y-35784966D02*
X182735566Y-37184966D01*
X182735566Y-37184966D02*
X183202233Y-36184966D01*
X183202233Y-36184966D02*
X183668899Y-37184966D01*
X183668899Y-37184966D02*
X183668899Y-35784966D01*
X184335566Y-35784966D02*
X184335566Y-37184966D01*
X184335566Y-37184966D02*
X185135566Y-35784966D01*
X185135566Y-35784966D02*
X185135566Y-37184966D01*
D12*
D13*
X109204139Y-39950604D02*
X108489853Y-39450604D01*
X109204139Y-39093461D02*
X107704139Y-39093461D01*
X107704139Y-39093461D02*
X107704139Y-39664890D01*
X107704139Y-39664890D02*
X107775568Y-39807747D01*
X107775568Y-39807747D02*
X107846996Y-39879176D01*
X107846996Y-39879176D02*
X107989853Y-39950604D01*
X107989853Y-39950604D02*
X108204139Y-39950604D01*
X108204139Y-39950604D02*
X108346996Y-39879176D01*
X108346996Y-39879176D02*
X108418425Y-39807747D01*
X108418425Y-39807747D02*
X108489853Y-39664890D01*
X108489853Y-39664890D02*
X108489853Y-39093461D01*
X108775568Y-40522033D02*
X108775568Y-41236319D01*
X109204139Y-40379176D02*
X107704139Y-40879176D01*
X107704139Y-40879176D02*
X109204139Y-41379176D01*
X109204139Y-41879175D02*
X107704139Y-41879175D01*
X107704139Y-41879175D02*
X108775568Y-42379175D01*
X108775568Y-42379175D02*
X107704139Y-42879175D01*
X107704139Y-42879175D02*
X109204139Y-42879175D01*
X109204139Y-43593461D02*
X107704139Y-43593461D01*
X107704139Y-43593461D02*
X109204139Y-44450604D01*
X109204139Y-44450604D02*
X107704139Y-44450604D01*
D14*
G04 #@! TO.P,KEY,1*
G04 #@! TO.N,Board_0-Key*
X231777944Y-30540410D03*
G04 #@! TD*
D15*
G04 #@! TO.P,J8,1*
G04 #@! TO.N,Board_0-/3V3_ECU*
X239270944Y-67370410D03*
D16*
G04 #@! TO.P,J8,2*
G04 #@! TO.N,Board_0-+5V*
X239270944Y-64830410D03*
G04 #@! TO.P,J8,3*
G04 #@! TO.N,Board_0-OE*
X236730944Y-67370410D03*
G04 #@! TO.P,J8,4*
G04 #@! TO.N,Board_0-GND*
X236730944Y-64830410D03*
G04 #@! TO.P,J8,5*
G04 #@! TO.N,Board_0-Net-(J8-Pad5)*
X234190944Y-67370410D03*
G04 #@! TO.P,J8,6*
G04 #@! TO.N,Board_0-Net-(J8-Pad6)*
X234190944Y-64830410D03*
G04 #@! TO.P,J8,7*
G04 #@! TO.N,Board_0-Key*
X231650944Y-67370410D03*
G04 #@! TO.P,J8,8*
G04 #@! TO.N,Board_0-Net-(J8-Pad8)*
X231650944Y-64830410D03*
G04 #@! TO.P,J8,9*
G04 #@! TO.N,Board_0-Net-(J8-Pad9)*
X229110944Y-67370410D03*
G04 #@! TO.P,J8,10*
G04 #@! TO.N,Board_0-Net-(J8-Pad10)*
X229110944Y-64830410D03*
G04 #@! TO.P,J8,11*
G04 #@! TO.N,Board_0-Net-(J8-Pad11)*
X226570944Y-67370410D03*
G04 #@! TO.P,J8,12*
G04 #@! TO.N,Board_0-Net-(J8-Pad12)*
X226570944Y-64830410D03*
G04 #@! TO.P,J8,13*
G04 #@! TO.N,Board_0-LE*
X224030944Y-67370410D03*
G04 #@! TO.P,J8,14*
G04 #@! TO.N,Board_0-Net-(J8-Pad14)*
X224030944Y-64830410D03*
G04 #@! TO.P,J8,15*
G04 #@! TO.N,Board_0-Net-(J8-Pad15)*
X221490944Y-67370410D03*
G04 #@! TO.P,J8,16*
G04 #@! TO.N,Board_0-Net-(J8-Pad16)*
X221490944Y-64830410D03*
G04 #@! TO.P,J8,17*
G04 #@! TO.N,Board_0-SCK*
X218950944Y-67370410D03*
G04 #@! TO.P,J8,18*
G04 #@! TO.N,Board_0-Net-(J8-Pad18)*
X218950944Y-64830410D03*
G04 #@! TO.P,J8,19*
G04 #@! TO.N,Board_0-MOSI*
X216410944Y-67370410D03*
G04 #@! TO.P,J8,20*
G04 #@! TO.N,Board_0-Net-(J8-Pad20)*
X216410944Y-64830410D03*
G04 #@! TO.P,J8,21*
G04 #@! TO.N,Board_0-Net-(J8-Pad21)*
X213870944Y-67370410D03*
G04 #@! TO.P,J8,22*
G04 #@! TO.N,Board_0-Net-(J8-Pad22)*
X213870944Y-64830410D03*
G04 #@! TO.P,J8,23*
G04 #@! TO.N,Board_0-Net-(J8-Pad23)*
X211330944Y-67370410D03*
G04 #@! TO.P,J8,24*
G04 #@! TO.N,Board_0-Net-(J8-Pad24)*
X211330944Y-64830410D03*
G04 #@! TO.P,J8,25*
G04 #@! TO.N,Board_0-Net-(J8-Pad25)*
X208790944Y-67370410D03*
G04 #@! TO.P,J8,26*
G04 #@! TO.N,Board_0-Net-(J8-Pad26)*
X208790944Y-64830410D03*
G04 #@! TD*
D15*
G04 #@! TO.P,J5,1*
G04 #@! TO.N,Board_1-Net-(J5-Pad1)*
X93285811Y-60949033D03*
D16*
G04 #@! TO.P,J5,2*
G04 #@! TO.N,Board_1-SD_CS*
X93285811Y-58409033D03*
G04 #@! TO.P,J5,3*
G04 #@! TO.N,Board_1-DC*
X93285811Y-55869033D03*
G04 #@! TO.P,J5,4*
G04 #@! TO.N,Board_1-Net-(J5-Pad4)*
X93285811Y-53329033D03*
G04 #@! TO.P,J5,5*
G04 #@! TO.N,Board_1-LCD_CS*
X93285811Y-50789033D03*
G04 #@! TO.P,J5,6*
G04 #@! TO.N,Board_1-MOSI*
X93285811Y-48249033D03*
G04 #@! TO.P,J5,7*
G04 #@! TO.N,Board_1-MISO*
X93285811Y-45709033D03*
G04 #@! TO.P,J5,8*
G04 #@! TO.N,Board_1-SCK*
X93285811Y-43169033D03*
G04 #@! TO.P,J5,9*
G04 #@! TO.N,Board_1-GND*
X93285811Y-40629033D03*
G04 #@! TO.P,J5,10*
G04 #@! TO.N,Board_1-Net-(J5-Pad10)*
X93285811Y-38089033D03*
G04 #@! TO.P,J5,11*
G04 #@! TO.N,Board_1-+5V*
X93285811Y-35549033D03*
G04 #@! TD*
D14*
G04 #@! TO.P,3V3,1*
G04 #@! TO.N,Board_2-/3V3_ECU*
X67584056Y-57012033D03*
G04 #@! TD*
D17*
G04 #@! TO.P,RV3,*
G04 #@! TO.N,*
X164681566Y-38907033D03*
X174681566Y-38907033D03*
D18*
G04 #@! TO.P,RV3,1*
G04 #@! TO.N,Board_3-/3V3_ECU*
X172181566Y-35607033D03*
G04 #@! TO.P,RV3,2*
G04 #@! TO.N,Board_3-Wheel*
X169681566Y-35607033D03*
G04 #@! TO.P,RV3,3*
G04 #@! TO.N,Board_3-GND*
X167181566Y-35607033D03*
G04 #@! TD*
D15*
G04 #@! TO.P,J1,1*
G04 #@! TO.N,Board_1-/3V3_ECU*
X131639811Y-33136033D03*
D16*
G04 #@! TO.P,J1,2*
G04 #@! TO.N,Board_1-+5V*
X134179811Y-33136033D03*
G04 #@! TO.P,J1,3*
G04 #@! TO.N,Board_1-Net-(J1-Pad3)*
X131639811Y-35676033D03*
G04 #@! TO.P,J1,4*
G04 #@! TO.N,Board_1-GND*
X134179811Y-35676033D03*
G04 #@! TO.P,J1,5*
G04 #@! TO.N,Board_1-Net-(J1-Pad5)*
X131639811Y-38216033D03*
G04 #@! TO.P,J1,6*
G04 #@! TO.N,Board_1-Net-(J1-Pad6)*
X134179811Y-38216033D03*
G04 #@! TO.P,J1,7*
G04 #@! TO.N,Board_1-Net-(J1-Pad7)*
X131639811Y-40756033D03*
G04 #@! TO.P,J1,8*
G04 #@! TO.N,Board_1-Net-(J1-Pad8)*
X134179811Y-40756033D03*
G04 #@! TO.P,J1,9*
G04 #@! TO.N,Board_1-Net-(J1-Pad9)*
X131639811Y-43296033D03*
G04 #@! TO.P,J1,10*
G04 #@! TO.N,Board_1-Net-(J1-Pad10)*
X134179811Y-43296033D03*
G04 #@! TO.P,J1,11*
G04 #@! TO.N,Board_1-Net-(J1-Pad11)*
X131639811Y-45836033D03*
G04 #@! TO.P,J1,12*
G04 #@! TO.N,Board_1-Net-(J1-Pad12)*
X134179811Y-45836033D03*
G04 #@! TO.P,J1,13*
G04 #@! TO.N,Board_1-LCD_CS*
X131639811Y-48376033D03*
G04 #@! TO.P,J1,14*
G04 #@! TO.N,Board_1-SD_CS*
X134179811Y-48376033D03*
G04 #@! TO.P,J1,15*
G04 #@! TO.N,Board_1-SRAM_CS*
X131639811Y-50916033D03*
G04 #@! TO.P,J1,16*
G04 #@! TO.N,Board_1-DC*
X134179811Y-50916033D03*
G04 #@! TO.P,J1,17*
G04 #@! TO.N,Board_1-SCK*
X131639811Y-53456033D03*
G04 #@! TO.P,J1,18*
G04 #@! TO.N,Board_1-MISO*
X134179811Y-53456033D03*
G04 #@! TO.P,J1,19*
G04 #@! TO.N,Board_1-MOSI*
X131639811Y-55996033D03*
G04 #@! TO.P,J1,20*
G04 #@! TO.N,Board_1-Net-(J1-Pad20)*
X134179811Y-55996033D03*
G04 #@! TO.P,J1,21*
G04 #@! TO.N,Board_1-Net-(J1-Pad21)*
X131639811Y-58536033D03*
G04 #@! TO.P,J1,22*
G04 #@! TO.N,Board_1-Net-(J1-Pad22)*
X134179811Y-58536033D03*
G04 #@! TO.P,J1,23*
G04 #@! TO.N,Board_1-Net-(J1-Pad23)*
X131639811Y-61076033D03*
G04 #@! TO.P,J1,24*
G04 #@! TO.N,Board_1-Net-(J1-Pad24)*
X134179811Y-61076033D03*
G04 #@! TO.P,J1,25*
G04 #@! TO.N,Board_1-Net-(J1-Pad25)*
X131639811Y-63616033D03*
G04 #@! TO.P,J1,26*
G04 #@! TO.N,Board_1-Net-(J1-Pad26)*
X134179811Y-63616033D03*
G04 #@! TD*
D14*
G04 #@! TO.P,BRAKE,1*
G04 #@! TO.N,Board_2-Brake*
X57424056Y-63362033D03*
G04 #@! TD*
D19*
G04 #@! TO.P,SW3,*
G04 #@! TO.N,*
X183778566Y-54324033D03*
X183778566Y-44164033D03*
X178698566Y-54324033D03*
X178588566Y-44164033D03*
D20*
G04 #@! TO.P,SW3,1*
G04 #@! TO.N,Board_3-/3V3_ECU*
X186318566Y-51784033D03*
G04 #@! TO.P,SW3,2*
G04 #@! TO.N,Board_3-Net-(R7-Pad2)*
X176158566Y-51784033D03*
G04 #@! TO.P,SW3,3*
G04 #@! TO.N,Board_3-Lamp*
X186318566Y-49244033D03*
G04 #@! TO.P,SW3,4*
G04 #@! TO.N,Board_3-Net-(R8-Pad2)*
X176158566Y-49244033D03*
G04 #@! TO.P,SW3,5*
G04 #@! TO.N,Board_3-GND*
X186318566Y-46704033D03*
G04 #@! TO.P,SW3,6*
G04 #@! TO.N,Board_3-Net-(R10-Pad1)*
X176158566Y-46704033D03*
G04 #@! TD*
D14*
G04 #@! TO.P,OE,1*
G04 #@! TO.N,Board_0-OE*
X236730944Y-30413410D03*
G04 #@! TD*
G04 #@! TO.P,ACCEL,1*
G04 #@! TO.N,Board_2-Accel*
X62504056Y-63362033D03*
G04 #@! TD*
G04 #@! TO.P,LE,1*
G04 #@! TO.N,Board_0-LE*
X226697944Y-30540410D03*
G04 #@! TD*
D15*
G04 #@! TO.P,J2,1*
G04 #@! TO.N,Board_1-MOSI*
X124019811Y-35549033D03*
D16*
G04 #@! TO.P,J2,2*
G04 #@! TO.N,Board_1-SCK*
X124019811Y-38089033D03*
G04 #@! TO.P,J2,3*
G04 #@! TO.N,Board_1-DC*
X124019811Y-40629033D03*
G04 #@! TO.P,J2,4*
G04 #@! TO.N,Board_1-Net-(J2-Pad4)*
X124019811Y-43169033D03*
G04 #@! TO.P,J2,5*
G04 #@! TO.N,Board_1-LCD_CS*
X124019811Y-45709033D03*
G04 #@! TO.P,J2,6*
G04 #@! TO.N,Board_1-SD_CS*
X124019811Y-48249033D03*
G04 #@! TO.P,J2,7*
G04 #@! TO.N,Board_1-MISO*
X124019811Y-50789033D03*
G04 #@! TO.P,J2,8*
G04 #@! TO.N,Board_1-Net-(J2-Pad8)*
X124019811Y-53329033D03*
G04 #@! TO.P,J2,9*
G04 #@! TO.N,Board_1-Net-(J2-Pad9)*
X124019811Y-55869033D03*
G04 #@! TO.P,J2,10*
G04 #@! TO.N,Board_1-+5V*
X124019811Y-58409033D03*
G04 #@! TO.P,J2,11*
G04 #@! TO.N,Board_1-GND*
X124019811Y-60949033D03*
G04 #@! TD*
D14*
G04 #@! TO.P,GND,1*
G04 #@! TO.N,Board_0-GND*
X210060944Y-37017410D03*
G04 #@! TD*
D21*
G04 #@! TO.P,RV2,1*
G04 #@! TO.N,Board_2-/3V3_ECU*
X64567056Y-32374033D03*
G04 #@! TO.P,RV2,2*
G04 #@! TO.N,Board_2-Brake*
X64567056Y-36124033D03*
G04 #@! TO.P,RV2,3*
G04 #@! TO.N,Board_2-GND*
X44567056Y-32374033D03*
G04 #@! TD*
G04 #@! TO.P,RV1,1*
G04 #@! TO.N,Board_2-/3V3_ECU*
X64567056Y-43296033D03*
G04 #@! TO.P,RV1,2*
G04 #@! TO.N,Board_2-Accel*
X64567056Y-47046033D03*
G04 #@! TO.P,RV1,3*
G04 #@! TO.N,Board_2-GND*
X44567056Y-43296033D03*
G04 #@! TD*
D14*
G04 #@! TO.P,MOSI,1*
G04 #@! TO.N,Board_0-MOSI*
X216537944Y-30540410D03*
G04 #@! TD*
G04 #@! TO.P,SCK,1*
G04 #@! TO.N,Board_0-SCK*
X221617944Y-30540410D03*
G04 #@! TD*
G04 #@! TO.P,GND,1*
G04 #@! TO.N,Board_2-GND*
X62504056Y-57012033D03*
G04 #@! TD*
D22*
G04 #@! TO.P,SW2,*
G04 #@! TO.N,*
X192287566Y-50455033D03*
X192287566Y-42255033D03*
D23*
G04 #@! TO.P,SW2,1*
G04 #@! TO.N,Board_3-Net-(SW2-Pad1)*
X192287566Y-48355033D03*
D24*
G04 #@! TO.P,SW2,2*
G04 #@! TO.N,Board_3-SW1*
X192287566Y-46355033D03*
G04 #@! TO.P,SW2,3*
G04 #@! TO.N,Board_3-GND*
X192287566Y-44355033D03*
G04 #@! TD*
D15*
G04 #@! TO.P,J3,1*
G04 #@! TO.N,Board_1-/3V3_ECU*
X120082811Y-63489033D03*
D16*
G04 #@! TO.P,J3,2*
G04 #@! TO.N,Board_1-Net-(J3-Pad2)*
X120082811Y-60949033D03*
G04 #@! TO.P,J3,3*
G04 #@! TO.N,Board_1-GND*
X120082811Y-58409033D03*
G04 #@! TO.P,J3,4*
G04 #@! TO.N,Board_1-SCK*
X120082811Y-55869033D03*
G04 #@! TO.P,J3,5*
G04 #@! TO.N,Board_1-MISO*
X120082811Y-53329033D03*
G04 #@! TO.P,J3,6*
G04 #@! TO.N,Board_1-MOSI*
X120082811Y-50789033D03*
G04 #@! TO.P,J3,7*
G04 #@! TO.N,Board_1-LCD_CS*
X120082811Y-48249033D03*
G04 #@! TO.P,J3,8*
G04 #@! TO.N,Board_1-DC*
X120082811Y-45709033D03*
G04 #@! TO.P,J3,9*
G04 #@! TO.N,Board_1-SRAM_CS*
X120082811Y-43169033D03*
G04 #@! TO.P,J3,10*
G04 #@! TO.N,Board_1-SD_CS*
X120082811Y-40629033D03*
G04 #@! TO.P,J3,11*
G04 #@! TO.N,Board_1-Net-(J3-Pad11)*
X120082811Y-38089033D03*
G04 #@! TO.P,J3,12*
G04 #@! TO.N,Board_1-Net-(J3-Pad12)*
X120082811Y-35549033D03*
G04 #@! TO.P,J3,13*
G04 #@! TO.N,Board_1-Net-(J3-Pad13)*
X120082811Y-33009033D03*
G04 #@! TD*
D15*
G04 #@! TO.P,J6,1*
G04 #@! TO.N,Board_2-/3V3_ECU*
X74569056Y-30977033D03*
D16*
G04 #@! TO.P,J6,2*
G04 #@! TO.N,Board_2-+5V*
X72029056Y-30977033D03*
G04 #@! TO.P,J6,3*
G04 #@! TO.N,Board_2-Brake*
X74569056Y-33517033D03*
G04 #@! TO.P,J6,4*
G04 #@! TO.N,Board_2-GND*
X72029056Y-33517033D03*
G04 #@! TO.P,J6,5*
G04 #@! TO.N,Board_2-Net-(J6-Pad5)*
X74569056Y-36057033D03*
G04 #@! TO.P,J6,6*
G04 #@! TO.N,Board_2-Net-(J6-Pad6)*
X72029056Y-36057033D03*
G04 #@! TO.P,J6,7*
G04 #@! TO.N,Board_2-Accel*
X74569056Y-38597033D03*
G04 #@! TO.P,J6,8*
G04 #@! TO.N,Board_2-JOYSTICK*
X72029056Y-38597033D03*
G04 #@! TO.P,J6,9*
G04 #@! TO.N,Board_2-Net-(J6-Pad9)*
X74569056Y-41137033D03*
G04 #@! TO.P,J6,10*
G04 #@! TO.N,Board_2-Net-(J6-Pad10)*
X72029056Y-41137033D03*
G04 #@! TO.P,J6,11*
G04 #@! TO.N,Board_2-Net-(J6-Pad11)*
X74569056Y-43677033D03*
G04 #@! TO.P,J6,12*
G04 #@! TO.N,Board_2-Net-(J6-Pad12)*
X72029056Y-43677033D03*
G04 #@! TO.P,J6,13*
G04 #@! TO.N,Board_2-Net-(J6-Pad13)*
X74569056Y-46217033D03*
G04 #@! TO.P,J6,14*
G04 #@! TO.N,Board_2-Net-(J6-Pad14)*
X72029056Y-46217033D03*
G04 #@! TO.P,J6,15*
G04 #@! TO.N,Board_2-Net-(J6-Pad15)*
X74569056Y-48757033D03*
G04 #@! TO.P,J6,16*
G04 #@! TO.N,Board_2-Net-(J6-Pad16)*
X72029056Y-48757033D03*
G04 #@! TO.P,J6,17*
G04 #@! TO.N,Board_2-Net-(J6-Pad17)*
X74569056Y-51297033D03*
G04 #@! TO.P,J6,18*
G04 #@! TO.N,Board_2-Net-(J6-Pad18)*
X72029056Y-51297033D03*
G04 #@! TO.P,J6,19*
G04 #@! TO.N,Board_2-Net-(J6-Pad19)*
X74569056Y-53837033D03*
G04 #@! TO.P,J6,20*
G04 #@! TO.N,Board_2-Net-(J6-Pad20)*
X72029056Y-53837033D03*
G04 #@! TO.P,J6,21*
G04 #@! TO.N,Board_2-Net-(J6-Pad21)*
X74569056Y-56377033D03*
G04 #@! TO.P,J6,22*
G04 #@! TO.N,Board_2-Net-(J6-Pad22)*
X72029056Y-56377033D03*
G04 #@! TO.P,J6,23*
G04 #@! TO.N,Board_2-Net-(J6-Pad23)*
X74569056Y-58917033D03*
G04 #@! TO.P,J6,24*
G04 #@! TO.N,Board_2-Net-(J6-Pad24)*
X72029056Y-58917033D03*
G04 #@! TO.P,J6,25*
G04 #@! TO.N,Board_2-Net-(J6-Pad25)*
X74569056Y-61457033D03*
G04 #@! TO.P,J6,26*
G04 #@! TO.N,Board_2-Net-(J6-Pad26)*
X72029056Y-61457033D03*
G04 #@! TD*
D14*
G04 #@! TO.P,SHIFT,1*
G04 #@! TO.N,Board_2-JOYSTICK*
X67584056Y-63362033D03*
G04 #@! TD*
D25*
G04 #@! TO.P,SW4,*
G04 #@! TO.N,*
X218569944Y-34858410D03*
X218569944Y-50098410D03*
X228729944Y-34858410D03*
X228729944Y-50098410D03*
G04 #@! TO.P,SW4,1*
G04 #@! TO.N,Board_0-GND*
X228729944Y-37398410D03*
G04 #@! TO.P,SW4,2*
G04 #@! TO.N,Board_0-Net-(R13-Pad1)*
X228729944Y-39938410D03*
G04 #@! TO.P,SW4,3*
G04 #@! TO.N,Board_0-/3V3_ECU*
X228729944Y-42478410D03*
G04 #@! TO.P,SW4,C1*
G04 #@! TO.N,Board_0-Key*
X228729944Y-47558410D03*
G04 #@! TD*
D15*
G04 #@! TO.P,J4,1*
G04 #@! TO.N,Board_1-MOSI*
X99254811Y-57139033D03*
D16*
G04 #@! TO.P,J4,2*
G04 #@! TO.N,Board_1-SCK*
X99254811Y-54599033D03*
G04 #@! TO.P,J4,3*
G04 #@! TO.N,Board_1-DC*
X99254811Y-52059033D03*
G04 #@! TO.P,J4,4*
G04 #@! TO.N,Board_1-Net-(J4-Pad4)*
X99254811Y-49519033D03*
G04 #@! TO.P,J4,5*
G04 #@! TO.N,Board_1-SD_CS*
X99254811Y-46979033D03*
G04 #@! TO.P,J4,6*
G04 #@! TO.N,Board_1-Net-(J4-Pad6)*
X99254811Y-44439033D03*
G04 #@! TO.P,J4,7*
G04 #@! TO.N,Board_1-+5V*
X99254811Y-41899033D03*
G04 #@! TO.P,J4,8*
G04 #@! TO.N,Board_1-GND*
X99254811Y-39359033D03*
G04 #@! TD*
D15*
G04 #@! TO.P,J7,1*
G04 #@! TO.N,Board_3-/3V3_ECU*
X188731566Y-62325033D03*
D16*
G04 #@! TO.P,J7,2*
G04 #@! TO.N,Board_3-+5V*
X188731566Y-59785033D03*
G04 #@! TO.P,J7,3*
G04 #@! TO.N,Board_3-Wheel*
X186191566Y-62325033D03*
G04 #@! TO.P,J7,4*
G04 #@! TO.N,Board_3-GND*
X186191566Y-59785033D03*
G04 #@! TO.P,J7,5*
G04 #@! TO.N,Board_3-Net-(J7-Pad5)*
X183651566Y-62325033D03*
G04 #@! TO.P,J7,6*
G04 #@! TO.N,Board_3-Net-(J7-Pad6)*
X183651566Y-59785033D03*
G04 #@! TO.P,J7,7*
G04 #@! TO.N,Board_3-SW1*
X181111566Y-62325033D03*
G04 #@! TO.P,J7,8*
G04 #@! TO.N,Board_3-Lamp*
X181111566Y-59785033D03*
G04 #@! TO.P,J7,9*
G04 #@! TO.N,Board_3-Net-(J7-Pad9)*
X178571566Y-62325033D03*
G04 #@! TO.P,J7,10*
G04 #@! TO.N,Board_3-Net-(J7-Pad10)*
X178571566Y-59785033D03*
G04 #@! TO.P,J7,11*
G04 #@! TO.N,Board_3-Net-(J7-Pad11)*
X176031566Y-62325033D03*
G04 #@! TO.P,J7,12*
G04 #@! TO.N,Board_3-Net-(J7-Pad12)*
X176031566Y-59785033D03*
G04 #@! TO.P,J7,13*
G04 #@! TO.N,Board_3-Net-(J7-Pad13)*
X173491566Y-62325033D03*
G04 #@! TO.P,J7,14*
G04 #@! TO.N,Board_3-Net-(J7-Pad14)*
X173491566Y-59785033D03*
G04 #@! TO.P,J7,15*
G04 #@! TO.N,Board_3-Net-(J7-Pad15)*
X170951566Y-62325033D03*
G04 #@! TO.P,J7,16*
G04 #@! TO.N,Board_3-Net-(J7-Pad16)*
X170951566Y-59785033D03*
G04 #@! TO.P,J7,17*
G04 #@! TO.N,Board_3-Net-(J7-Pad17)*
X168411566Y-62325033D03*
G04 #@! TO.P,J7,18*
G04 #@! TO.N,Board_3-Net-(J7-Pad18)*
X168411566Y-59785033D03*
G04 #@! TO.P,J7,19*
G04 #@! TO.N,Board_3-Net-(J7-Pad19)*
X165871566Y-62325033D03*
G04 #@! TO.P,J7,20*
G04 #@! TO.N,Board_3-Net-(J7-Pad20)*
X165871566Y-59785033D03*
G04 #@! TO.P,J7,21*
G04 #@! TO.N,Board_3-Net-(J7-Pad21)*
X163331566Y-62325033D03*
G04 #@! TO.P,J7,22*
G04 #@! TO.N,Board_3-Net-(J7-Pad22)*
X163331566Y-59785033D03*
G04 #@! TO.P,J7,23*
G04 #@! TO.N,Board_3-Net-(J7-Pad23)*
X160791566Y-62325033D03*
G04 #@! TO.P,J7,24*
G04 #@! TO.N,Board_3-Net-(J7-Pad24)*
X160791566Y-59785033D03*
G04 #@! TO.P,J7,25*
G04 #@! TO.N,Board_3-Net-(J7-Pad25)*
X158251566Y-62325033D03*
G04 #@! TO.P,J7,26*
G04 #@! TO.N,Board_3-Net-(J7-Pad26)*
X158251566Y-59785033D03*
G04 #@! TD*
D26*
G04 #@! TO.P,KiKit_FID_B_1,*
G04 #@! TO.N,*
X36694056Y-22500000D03*
G04 #@! TD*
G04 #@! TO.P,KiKit_FID_B_2,*
G04 #@! TO.N,*
X260305944Y-22500000D03*
G04 #@! TD*
G04 #@! TO.P,KiKit_FID_B_3,*
G04 #@! TO.N,*
X36694056Y-74055410D03*
G04 #@! TD*
D27*
G04 #@! TO.N,Board_0-/3V3_ECU*
X235460944Y-60639386D03*
X220347944Y-52257410D03*
G04 #@! TO.N,Board_0-GND*
X228602944Y-58099410D03*
X228602944Y-56829410D03*
X232412944Y-50479410D03*
X214632944Y-39049410D03*
X233936944Y-34731410D03*
X227332944Y-58099410D03*
X223776944Y-43875410D03*
X218442944Y-56829410D03*
X220982944Y-40319410D03*
X218442944Y-55559410D03*
X209679944Y-47431410D03*
X227332944Y-55559410D03*
X219712944Y-56829410D03*
X224284944Y-31937410D03*
X219712944Y-58099410D03*
X227332944Y-56829410D03*
X218442944Y-58099410D03*
X228602944Y-55559410D03*
X219712944Y-55559410D03*
G04 #@! TO.N,Board_0-Key*
X236730944Y-58353410D03*
X221998944Y-45653410D03*
G04 #@! TO.N,Board_0-OE*
X214886944Y-50733410D03*
G04 #@! TO.N,Board_1-DC*
X127829811Y-40502033D03*
G04 #@! TO.N,Board_1-GND*
X104207811Y-33898033D03*
X112335811Y-33898033D03*
X112335811Y-37962033D03*
X104207811Y-54599033D03*
X127829811Y-59806033D03*
X112335811Y-61330033D03*
X127829811Y-61584033D03*
X104207811Y-61330033D03*
X127829811Y-50916033D03*
X104207811Y-37962033D03*
G04 #@! TO.N,Board_1-LCD_CS*
X127829811Y-47868033D03*
X96587811Y-50789033D03*
G04 #@! TO.N,Board_1-SD_CS*
X115637811Y-49392033D03*
G04 #@! TO.N,Board_1-SRAM_CS*
X115637811Y-53456033D03*
G04 #@! TO.N,Board_2-GND*
X72029056Y-65394033D03*
X33929056Y-36692033D03*
X54503056Y-64886033D03*
X33929056Y-59552033D03*
X44343056Y-49900033D03*
X56535056Y-49900033D03*
X64409056Y-39740033D03*
X63647056Y-50154033D03*
G04 #@! TO.N,Board_3-GND*
X158759566Y-55213033D03*
X166252566Y-51403033D03*
X170316566Y-51403033D03*
X192287566Y-59785033D03*
X185175566Y-38449033D03*
X158759566Y-42386033D03*
X179968566Y-49752033D03*
X164474566Y-45932577D03*
X170697566Y-46196033D03*
G04 #@! TO.N,Board_3-Net-(R7-Pad2)*
X161553566Y-46831033D03*
G04 #@! TO.N,Board_3-Net-(R8-Pad2)*
X167649566Y-48228033D03*
G04 #@! TO.N,Board_3-Wheel*
X161807566Y-51403033D03*
G04 #@! TD*
D28*
G04 #@! TO.N,Board_0-/3V3_ECU*
X234444944Y-53527410D02*
X233174944Y-52257410D01*
X234444944Y-47685410D02*
X229237944Y-42478410D01*
X220913629Y-52257410D02*
X220347944Y-52257410D01*
X234444944Y-53527410D02*
X234444944Y-59623386D01*
X234444944Y-59623386D02*
X235460944Y-60639386D01*
X234444944Y-53527410D02*
X234444944Y-47685410D01*
X229237944Y-42478410D02*
X228729944Y-42478410D01*
X233174944Y-52257410D02*
X220913629Y-52257410D01*
G04 #@! TO.N,Board_0-GND*
X210060944Y-47431410D02*
X210060944Y-54797410D01*
X210060944Y-54797410D02*
X210822944Y-55559410D01*
X210060944Y-37017410D02*
X210060944Y-47431410D01*
G04 #@! TO.N,Board_0-Key*
X230253944Y-30540410D02*
X221998944Y-38795410D01*
X223903944Y-47558410D02*
X221998944Y-45653410D01*
X231777944Y-30540410D02*
X230253944Y-30540410D01*
X228729944Y-47558410D02*
X223903944Y-47558410D01*
X221998944Y-38795410D02*
X221998944Y-45653410D01*
X231777944Y-44002410D02*
X235044954Y-47269420D01*
X235044954Y-47269420D02*
X235044954Y-56667420D01*
X231777944Y-30540410D02*
X231777944Y-44002410D01*
X235044954Y-56667420D02*
X236730944Y-58353410D01*
G04 #@! TO.N,Board_0-LE*
X221836955Y-63017421D02*
X218194412Y-63017421D01*
X218194412Y-63017421D02*
X213362944Y-58185953D01*
X222760944Y-66100410D02*
X222760944Y-63941410D01*
X222760944Y-63941410D02*
X221836955Y-63017421D01*
X213362944Y-58185953D02*
X213362944Y-46161410D01*
X224030944Y-67370410D02*
X222760944Y-66100410D01*
X226697944Y-32826410D02*
X226697944Y-30540410D01*
X213362944Y-46161410D02*
X226697944Y-32826410D01*
G04 #@! TO.N,Board_0-MOSI*
X212092944Y-36509410D02*
X216537944Y-32064410D01*
X212092944Y-58613038D02*
X212092944Y-36509410D01*
X216410944Y-67370410D02*
X215140944Y-66100410D01*
X215140944Y-66100410D02*
X215140944Y-61661038D01*
X215140944Y-61661038D02*
X212092944Y-58613038D01*
X216537944Y-32064410D02*
X216537944Y-30540410D01*
G04 #@! TO.N,Board_0-OE*
X233809944Y-62417410D02*
X218442944Y-62417410D01*
X214124944Y-58099410D02*
X214124944Y-51495410D01*
X218442944Y-62417410D02*
X214124944Y-58099410D01*
X235460944Y-66100410D02*
X235460944Y-64068410D01*
X235460944Y-64068410D02*
X233809944Y-62417410D01*
X214124944Y-51495410D02*
X214886944Y-50733410D01*
X236730944Y-67370410D02*
X235460944Y-66100410D01*
G04 #@! TO.N,Board_0-SCK*
X219496624Y-30540410D02*
X221617944Y-30540410D01*
X212762933Y-37274101D02*
X219496624Y-30540410D01*
X217680944Y-66100410D02*
X217680944Y-63352496D01*
X212762933Y-58434485D02*
X212762933Y-37274101D01*
X218950944Y-67370410D02*
X217680944Y-66100410D01*
X217680944Y-63352496D02*
X212762933Y-58434485D01*
G04 #@! TO.N,Board_1-/3V3_ECU*
X131639811Y-33136033D02*
X132889812Y-34386034D01*
X136440411Y-61101433D02*
X135195811Y-62346033D01*
X130623811Y-62346033D02*
X129480811Y-63489033D01*
X135195811Y-62346033D02*
X130623811Y-62346033D01*
X129480811Y-63489033D02*
X120082811Y-63489033D01*
X136440411Y-35396633D02*
X136440411Y-61101433D01*
X132889812Y-34386034D02*
X135429812Y-34386034D01*
X135429812Y-34386034D02*
X136440411Y-35396633D01*
G04 #@! TO.N,Board_1-DC*
X129861811Y-47106033D02*
X127829811Y-45074033D01*
X99254811Y-52059033D02*
X97476811Y-52059033D01*
X93666811Y-55869033D02*
X93285811Y-55869033D01*
X132889812Y-49626034D02*
X132889812Y-47776032D01*
X134179811Y-50916033D02*
X132889812Y-49626034D01*
X127829811Y-45074033D02*
X127829811Y-40502033D01*
X132889812Y-47776032D02*
X132219813Y-47106033D01*
X132219813Y-47106033D02*
X129861811Y-47106033D01*
X97476811Y-52059033D02*
X93666811Y-55869033D01*
G04 #@! TO.N,Board_1-GND*
X129353811Y-52186033D02*
X135322811Y-52186033D01*
X116907811Y-34279033D02*
X121266269Y-34279033D01*
X131039810Y-36926034D02*
X132929810Y-36926034D01*
X135322811Y-52186033D02*
X135703811Y-51805033D01*
X115510811Y-32882033D02*
X116907811Y-34279033D01*
X129099811Y-33898033D02*
X129099811Y-34986035D01*
X122501279Y-33044023D02*
X128245801Y-33044023D01*
X135703811Y-37200033D02*
X134179811Y-35676033D01*
X129099811Y-34986035D02*
X131039810Y-36926034D01*
X121266269Y-34279033D02*
X122501279Y-33044023D01*
X128245801Y-33044023D02*
X129099811Y-33898033D01*
X135703811Y-51805033D02*
X135703811Y-37200033D01*
X127829811Y-50662033D02*
X129353811Y-52186033D01*
X132929810Y-36926034D02*
X134179811Y-35676033D01*
G04 #@! TO.N,Board_1-LCD_CS*
X131639811Y-48376033D02*
X128337811Y-48376033D01*
X128337811Y-48376033D02*
X127829811Y-47868033D01*
X93285811Y-50789033D02*
X96587811Y-50789033D01*
G04 #@! TO.N,Board_1-MISO*
X130369811Y-59806033D02*
X134759813Y-59806033D01*
X119574811Y-53329033D02*
X120082811Y-53329033D01*
X100778811Y-45709033D02*
X109795811Y-54726033D01*
X109795811Y-54726033D02*
X118177811Y-54726033D01*
X135678411Y-58887435D02*
X135678411Y-54954633D01*
X118177811Y-54726033D02*
X119574811Y-53329033D01*
X134759813Y-59806033D02*
X135678411Y-58887435D01*
X124019811Y-50662033D02*
X125543811Y-52186033D01*
X93285811Y-45709033D02*
X100778811Y-45709033D01*
X135678411Y-54954633D02*
X134179811Y-53456033D01*
X125543811Y-52186033D02*
X125543811Y-54980033D01*
X125543811Y-54980033D02*
X130369811Y-59806033D01*
G04 #@! TO.N,Board_1-MOSI*
X121733811Y-49138033D02*
X121733811Y-37835033D01*
X129671311Y-55996033D02*
X126813811Y-53138533D01*
X126813811Y-38089033D02*
X124146811Y-35422033D01*
X121733811Y-37835033D02*
X124019811Y-35549033D01*
X131639811Y-55996033D02*
X129671311Y-55996033D01*
X126813811Y-53138533D02*
X126813811Y-38089033D01*
X124146811Y-35422033D02*
X124019811Y-35422033D01*
X120082811Y-50789033D02*
X121733811Y-49138033D01*
G04 #@! TO.N,Board_1-SCK*
X120146311Y-55869033D02*
X122368811Y-53646533D01*
X124019811Y-37962033D02*
X123638811Y-37962033D01*
X132889812Y-56596034D02*
X132219813Y-57266033D01*
X100778811Y-55869033D02*
X99508811Y-54599033D01*
X99508811Y-54599033D02*
X99254811Y-54599033D01*
X132889812Y-54706034D02*
X132889812Y-56596034D01*
X126178811Y-40121033D02*
X124019811Y-37962033D01*
X120082811Y-55869033D02*
X120146311Y-55869033D01*
X129417311Y-57266033D02*
X126178811Y-54027533D01*
X132219813Y-57266033D02*
X129417311Y-57266033D01*
X122368811Y-39740033D02*
X124019811Y-38089033D01*
X122368811Y-53646533D02*
X122368811Y-39740033D01*
X131639811Y-53456033D02*
X132889812Y-54706034D01*
X120082811Y-55869033D02*
X100778811Y-55869033D01*
X126178811Y-54027533D02*
X126178811Y-40121033D01*
G04 #@! TO.N,Board_1-SD_CS*
X119828811Y-40629033D02*
X118304811Y-39105033D01*
X118812811Y-36819033D02*
X121098811Y-36819033D01*
X122241811Y-34406033D02*
X122749811Y-33898033D01*
X130115811Y-44566033D02*
X132219813Y-44566033D01*
X118304811Y-39105033D02*
X118304811Y-37327033D01*
X121098811Y-36819033D02*
X122241811Y-35676033D01*
X132929810Y-45276030D02*
X132929810Y-46872032D01*
X118304811Y-37327033D02*
X118812811Y-36819033D01*
X116907811Y-48122033D02*
X115637811Y-49392033D01*
X120082811Y-40629033D02*
X116907811Y-43804033D01*
X101159811Y-52440033D02*
X101159811Y-47423533D01*
X129099811Y-38089033D02*
X129099811Y-43550033D01*
X93285811Y-58409033D02*
X98365811Y-53329033D01*
X129099811Y-43550033D02*
X130115811Y-44566033D01*
X132929810Y-46872032D02*
X134179811Y-48122033D01*
X122749811Y-33898033D02*
X124908811Y-33898033D01*
X100715311Y-46979033D02*
X99254811Y-46979033D01*
X124908811Y-33898033D02*
X129099811Y-38089033D01*
X122241811Y-35676033D02*
X122241811Y-34406033D01*
X116907811Y-43804033D02*
X116907811Y-48122033D01*
X100270811Y-53329033D02*
X101159811Y-52440033D01*
X132219813Y-44566033D02*
X132929810Y-45276030D01*
X101159811Y-47423533D02*
X100715311Y-46979033D01*
X134179811Y-48122033D02*
X134179811Y-48376033D01*
X98365811Y-53329033D02*
X100270811Y-53329033D01*
X120082811Y-40629033D02*
X119828811Y-40629033D01*
G04 #@! TO.N,Board_1-SRAM_CS*
X117923811Y-45328033D02*
X117923811Y-52694033D01*
X120082811Y-43169033D02*
X117923811Y-45328033D01*
X117923811Y-52694033D02*
X117161811Y-53456033D01*
X117161811Y-53456033D02*
X115637811Y-53456033D01*
G04 #@! TO.N,Board_2-/3V3_ECU*
X65044056Y-32247033D02*
X64409056Y-32882033D01*
X73879058Y-30977033D02*
X72609058Y-32247033D01*
X72609058Y-32247033D02*
X65044056Y-32247033D01*
X74569056Y-30977033D02*
X73879058Y-30977033D01*
X60009055Y-49437032D02*
X67584056Y-57012033D01*
X64409056Y-43296033D02*
X61212054Y-43296033D01*
X61212054Y-43296033D02*
X60009055Y-44499032D01*
X60009055Y-44499032D02*
X60009055Y-49437032D01*
G04 #@! TO.N,Board_2-Accel*
X73299056Y-39867033D02*
X71449054Y-39867033D01*
X74569056Y-38597033D02*
X73299056Y-39867033D01*
X71449054Y-39867033D02*
X64409056Y-46907031D01*
X64409056Y-46907031D02*
X64409056Y-47046033D01*
G04 #@! TO.N,Board_3-/3V3_ECU*
X188731566Y-62325033D02*
X188985566Y-62325033D01*
X188985566Y-62325033D02*
X190382566Y-60928033D01*
X190382566Y-60928033D02*
X190382566Y-55848033D01*
X186699566Y-52165033D02*
X186318566Y-52165033D01*
X190382566Y-55848033D02*
X186699566Y-52165033D01*
G04 #@! TO.N,Board_3-GND*
X176564966Y-45180033D02*
X175650566Y-45180033D01*
X179968566Y-48738031D02*
X178266766Y-47036231D01*
X179968566Y-49752033D02*
X179968566Y-48738031D01*
X178266766Y-47036231D02*
X178266766Y-46881833D01*
X178266766Y-46881833D02*
X176564966Y-45180033D01*
X170697566Y-46196033D02*
X172475566Y-46196033D01*
X172475566Y-46196033D02*
X173466166Y-45205433D01*
G04 #@! TO.N,Board_3-Lamp*
X181111566Y-53943033D02*
X185429566Y-49625033D01*
X185429566Y-49625033D02*
X186318566Y-49625033D01*
X181111566Y-59785033D02*
X181111566Y-53943033D01*
G04 #@! TO.N,Board_3-Net-(R7-Pad2)*
X163839566Y-49117033D02*
X173110566Y-49117033D01*
X161553566Y-46831033D02*
X163839566Y-49117033D01*
X173110566Y-49117033D02*
X176158566Y-52165033D01*
G04 #@! TO.N,Board_3-Net-(R8-Pad2)*
X176158566Y-49625033D02*
X174761566Y-48228033D01*
X174761566Y-48228033D02*
X167649566Y-48228033D01*
G04 #@! TO.N,Board_3-Wheel*
X161807566Y-51403033D02*
X161807566Y-51530033D01*
X166760566Y-56483033D02*
X179333566Y-56483033D01*
X179841566Y-56991033D02*
X179841566Y-60293033D01*
X184921566Y-61055033D02*
X186191566Y-62325033D01*
X180603566Y-61055033D02*
X184921566Y-61055033D01*
X179333566Y-56483033D02*
X179841566Y-56991033D01*
X179841566Y-60293033D02*
X180603566Y-61055033D01*
X161807566Y-51530033D02*
X166760566Y-56483033D01*
G04 #@! TD*
G04 #@! TA.AperFunction,Conductor*
G04 #@! TO.N,Board_1-GND*
G36*
X134846454Y-52115476D02*
G01*
X134881494Y-52080436D01*
X135045482Y-51970863D01*
X135234640Y-51781705D01*
X135383254Y-51559289D01*
X135488078Y-51306220D01*
X135515608Y-51265019D01*
X135556810Y-51237488D01*
X135605411Y-51227821D01*
X135654012Y-51237488D01*
X135695213Y-51265018D01*
X135722744Y-51306220D01*
X135732411Y-51354821D01*
X135732411Y-53017245D01*
X135722744Y-53065846D01*
X135695214Y-53107048D01*
X135654012Y-53134578D01*
X135605411Y-53144245D01*
X135556810Y-53134578D01*
X135515608Y-53107048D01*
X135488078Y-53065846D01*
X135383254Y-52812778D01*
X135234640Y-52590362D01*
X135045482Y-52401204D01*
X134881494Y-52291630D01*
X134846454Y-52256590D01*
X134827491Y-52210809D01*
X134827491Y-52161257D01*
X134846454Y-52115476D01*
G37*
G04 #@! TD.AperFunction*
G04 #@! TA.AperFunction,Conductor*
G36*
X133915478Y-35500432D02*
G01*
X133943008Y-35459230D01*
X133954997Y-35451220D01*
X133963008Y-35439230D01*
X134004210Y-35411700D01*
X134052811Y-35402033D01*
X134306811Y-35402033D01*
X134355412Y-35411700D01*
X134396614Y-35439230D01*
X134404624Y-35451220D01*
X134416614Y-35459230D01*
X134444144Y-35500432D01*
X134453811Y-35549033D01*
X134453811Y-35803033D01*
X134444144Y-35851634D01*
X134416614Y-35892836D01*
X134404624Y-35900847D01*
X134396614Y-35912836D01*
X134355412Y-35940366D01*
X134306811Y-35950033D01*
X134052811Y-35950033D01*
X134004210Y-35940366D01*
X133963008Y-35912836D01*
X133954997Y-35900847D01*
X133943008Y-35892836D01*
X133915478Y-35851634D01*
X133905811Y-35803033D01*
X133905811Y-35549033D01*
X133915478Y-35500432D01*
G37*
G04 #@! TD.AperFunction*
G04 #@! TA.AperFunction,Conductor*
G36*
X132306454Y-36875476D02*
G01*
X132341494Y-36840436D01*
X132505482Y-36730863D01*
X132694640Y-36541705D01*
X132805314Y-36376070D01*
X132840354Y-36341030D01*
X132886135Y-36322067D01*
X132935688Y-36322067D01*
X132981468Y-36341030D01*
X133012712Y-36370695D01*
X133176546Y-36590346D01*
X133374194Y-36768502D01*
X133480338Y-36831728D01*
X133517145Y-36864906D01*
X133538454Y-36909643D01*
X133541021Y-36959129D01*
X133524455Y-37005831D01*
X133491277Y-37042638D01*
X133485903Y-37046434D01*
X133314140Y-37161203D01*
X133124981Y-37350362D01*
X133015408Y-37514350D01*
X132980368Y-37549390D01*
X132934587Y-37568353D01*
X132885035Y-37568353D01*
X132839254Y-37549390D01*
X132804214Y-37514350D01*
X132694640Y-37350362D01*
X132505482Y-37161204D01*
X132341494Y-37051630D01*
X132306454Y-37016590D01*
X132287491Y-36970809D01*
X132287491Y-36921257D01*
X132306454Y-36875476D01*
G37*
G04 #@! TD.AperFunction*
G04 #@! TA.AperFunction,Conductor*
G36*
X127531478Y-48838706D02*
G01*
X127559008Y-48797504D01*
X127600210Y-48769974D01*
X127648811Y-48760307D01*
X127673588Y-48762747D01*
X127697814Y-48767566D01*
X127743595Y-48786530D01*
X127762840Y-48802323D01*
X127810377Y-48849861D01*
X127814565Y-48854481D01*
X127834757Y-48879087D01*
X127942562Y-48967561D01*
X128065564Y-49033307D01*
X128199019Y-49073790D01*
X128337810Y-49087459D01*
X128369493Y-49084338D01*
X128375721Y-49084032D01*
X130411746Y-49084033D01*
X130460347Y-49093700D01*
X130501549Y-49121230D01*
X130517343Y-49140476D01*
X130584981Y-49241705D01*
X130774139Y-49430863D01*
X130938128Y-49540436D01*
X130973168Y-49575476D01*
X130992131Y-49621257D01*
X130992131Y-49670809D01*
X130973168Y-49716590D01*
X130938128Y-49751630D01*
X130774139Y-49861204D01*
X130584981Y-50050362D01*
X130436367Y-50272778D01*
X130333998Y-50519920D01*
X130281811Y-50782283D01*
X130281811Y-51049783D01*
X130333998Y-51312147D01*
X130436367Y-51559289D01*
X130584981Y-51781705D01*
X130774139Y-51970863D01*
X130938128Y-52080436D01*
X130973168Y-52115476D01*
X130992131Y-52161257D01*
X130992131Y-52210809D01*
X130973168Y-52256590D01*
X130938128Y-52291630D01*
X130774139Y-52401204D01*
X130584981Y-52590362D01*
X130436367Y-52812778D01*
X130333998Y-53059920D01*
X130281811Y-53322283D01*
X130281811Y-53589783D01*
X130333998Y-53852147D01*
X130436367Y-54099289D01*
X130584981Y-54321705D01*
X130774139Y-54510863D01*
X130938128Y-54620436D01*
X130973168Y-54655476D01*
X130992131Y-54701257D01*
X130992131Y-54750809D01*
X130973168Y-54796590D01*
X130938128Y-54831630D01*
X130774139Y-54941204D01*
X130584981Y-55130362D01*
X130517343Y-55231590D01*
X130482303Y-55266630D01*
X130436523Y-55285593D01*
X130411746Y-55288033D01*
X130017178Y-55288033D01*
X129968577Y-55278366D01*
X129927375Y-55250836D01*
X127559008Y-52882468D01*
X127531478Y-52841266D01*
X127521811Y-52792665D01*
X127521811Y-48887307D01*
X127531478Y-48838706D01*
G37*
G04 #@! TD.AperFunction*
G04 #@! TA.AperFunction,Conductor*
G36*
X120749454Y-34208476D02*
G01*
X120784494Y-34173436D01*
X120948482Y-34063863D01*
X121137640Y-33874705D01*
X121286254Y-33652289D01*
X121388623Y-33405147D01*
X121440811Y-33142783D01*
X121440811Y-32917032D01*
X121450478Y-32868431D01*
X121478008Y-32827229D01*
X121519210Y-32799699D01*
X121567811Y-32790032D01*
X130151739Y-32790032D01*
X130200340Y-32799699D01*
X130241542Y-32827229D01*
X130269072Y-32868431D01*
X130278739Y-32917032D01*
X130278739Y-33979789D01*
X130289162Y-34085624D01*
X130318207Y-34181374D01*
X130365382Y-34269631D01*
X130428862Y-34346982D01*
X130506213Y-34410462D01*
X130594470Y-34457637D01*
X130655057Y-34476015D01*
X130698759Y-34499374D01*
X130730195Y-34537679D01*
X130744579Y-34585098D01*
X130739722Y-34634412D01*
X130716363Y-34678114D01*
X130707994Y-34687349D01*
X130584981Y-34810362D01*
X130436367Y-35032778D01*
X130333998Y-35279920D01*
X130281811Y-35542283D01*
X130281811Y-35809783D01*
X130333998Y-36072147D01*
X130436367Y-36319289D01*
X130584981Y-36541705D01*
X130774139Y-36730863D01*
X130938128Y-36840436D01*
X130973168Y-36875476D01*
X130992131Y-36921257D01*
X130992131Y-36970809D01*
X130973168Y-37016590D01*
X130938128Y-37051630D01*
X130774139Y-37161204D01*
X130584981Y-37350362D01*
X130436367Y-37572778D01*
X130333998Y-37819920D01*
X130281811Y-38082283D01*
X130281811Y-38349783D01*
X130333998Y-38612147D01*
X130436367Y-38859289D01*
X130584981Y-39081705D01*
X130774139Y-39270863D01*
X130938128Y-39380436D01*
X130973168Y-39415476D01*
X130992131Y-39461257D01*
X130992131Y-39510809D01*
X130973168Y-39556590D01*
X130938128Y-39591630D01*
X130774139Y-39701204D01*
X130584981Y-39890362D01*
X130436367Y-40112778D01*
X130333998Y-40359920D01*
X130281811Y-40622283D01*
X130281811Y-40889783D01*
X130333998Y-41152147D01*
X130436367Y-41399289D01*
X130584981Y-41621705D01*
X130774139Y-41810863D01*
X130938128Y-41920436D01*
X130973168Y-41955476D01*
X130992131Y-42001257D01*
X130992131Y-42050809D01*
X130973168Y-42096590D01*
X130938128Y-42131630D01*
X130774139Y-42241204D01*
X130584981Y-42430362D01*
X130436367Y-42652778D01*
X130333998Y-42899920D01*
X130281811Y-43162283D01*
X130281811Y-43424165D01*
X130272144Y-43472766D01*
X130244614Y-43513968D01*
X130203412Y-43541498D01*
X130154811Y-43551165D01*
X130106210Y-43541498D01*
X130065008Y-43513968D01*
X129845008Y-43293968D01*
X129817478Y-43252766D01*
X129807811Y-43204165D01*
X129807811Y-38126933D01*
X129808117Y-38120705D01*
X129811236Y-38089033D01*
X129797567Y-37950241D01*
X129757084Y-37816786D01*
X129691337Y-37693784D01*
X129602865Y-37585980D01*
X129578254Y-37565782D01*
X129573634Y-37561594D01*
X125436245Y-33424204D01*
X125432057Y-33419584D01*
X125411864Y-33394979D01*
X125304060Y-33306507D01*
X125181058Y-33240760D01*
X125047603Y-33200277D01*
X124908812Y-33186608D01*
X124877138Y-33189727D01*
X124870911Y-33190033D01*
X122787700Y-33190033D01*
X122781472Y-33189727D01*
X122749813Y-33186609D01*
X122611013Y-33200279D01*
X122477563Y-33240760D01*
X122354561Y-33306507D01*
X122246759Y-33394977D01*
X122226561Y-33419589D01*
X122222373Y-33424209D01*
X121767988Y-33878594D01*
X121763368Y-33882782D01*
X121738756Y-33902980D01*
X121650284Y-34010784D01*
X121584537Y-34133786D01*
X121544054Y-34267241D01*
X121530385Y-34406033D01*
X121533505Y-34437705D01*
X121533811Y-34443933D01*
X121533811Y-34864960D01*
X121524144Y-34913561D01*
X121496614Y-34954763D01*
X121455412Y-34982293D01*
X121406811Y-34991960D01*
X121358210Y-34982293D01*
X121317008Y-34954763D01*
X121289478Y-34913561D01*
X121289478Y-34913560D01*
X121286255Y-34905780D01*
X121137640Y-34683362D01*
X120948482Y-34494204D01*
X120784494Y-34384630D01*
X120749454Y-34349590D01*
X120730491Y-34303809D01*
X120730491Y-34254257D01*
X120749454Y-34208476D01*
G37*
G04 #@! TD.AperFunction*
G04 #@! TA.AperFunction,Conductor*
G36*
X92898478Y-62388504D02*
G01*
X92926008Y-62347302D01*
X92967210Y-62319772D01*
X93015811Y-62310105D01*
X94129566Y-62310105D01*
X94235401Y-62299682D01*
X94331151Y-62270637D01*
X94419408Y-62223462D01*
X94496759Y-62159982D01*
X94560239Y-62082631D01*
X94607414Y-61994374D01*
X94636459Y-61898624D01*
X94646883Y-61792789D01*
X94646883Y-60105277D01*
X94636459Y-59999443D01*
X94607414Y-59903693D01*
X94560239Y-59815436D01*
X94496759Y-59738085D01*
X94419408Y-59674605D01*
X94331151Y-59627430D01*
X94270565Y-59609051D01*
X94226863Y-59585692D01*
X94195427Y-59547387D01*
X94181043Y-59499968D01*
X94185900Y-59450654D01*
X94209259Y-59406952D01*
X94217628Y-59397717D01*
X94340640Y-59274705D01*
X94489254Y-59052289D01*
X94591623Y-58805147D01*
X94643811Y-58542783D01*
X94643811Y-58275283D01*
X94620058Y-58155870D01*
X94620058Y-58106317D01*
X94639021Y-58060536D01*
X94654815Y-58041290D01*
X97741950Y-54954156D01*
X97783152Y-54926626D01*
X97831753Y-54916959D01*
X97880354Y-54926626D01*
X97921556Y-54954156D01*
X97949086Y-54995358D01*
X98051367Y-55242289D01*
X98199981Y-55464705D01*
X98322994Y-55587717D01*
X98350524Y-55628919D01*
X98360191Y-55677520D01*
X98350524Y-55726121D01*
X98322994Y-55767323D01*
X98281792Y-55794853D01*
X98270057Y-55799051D01*
X98209470Y-55817430D01*
X98121213Y-55864605D01*
X98043862Y-55928085D01*
X97980382Y-56005436D01*
X97933207Y-56093693D01*
X97904162Y-56189443D01*
X97893739Y-56295277D01*
X97893739Y-57982789D01*
X97904162Y-58088624D01*
X97933207Y-58184374D01*
X97980382Y-58272631D01*
X98043862Y-58349982D01*
X98121213Y-58413462D01*
X98209470Y-58460637D01*
X98305220Y-58489682D01*
X98411055Y-58500105D01*
X100098566Y-58500105D01*
X100204401Y-58489682D01*
X100300151Y-58460637D01*
X100388408Y-58413462D01*
X100465759Y-58349982D01*
X100529239Y-58272631D01*
X100576414Y-58184374D01*
X100605459Y-58088624D01*
X100615883Y-57982789D01*
X100615883Y-56704534D01*
X100625550Y-56655933D01*
X100653080Y-56614731D01*
X100694282Y-56587201D01*
X100742883Y-56577534D01*
X100755333Y-56578146D01*
X100778811Y-56580459D01*
X100810494Y-56577338D01*
X100816722Y-56577032D01*
X118854746Y-56577033D01*
X118903347Y-56586700D01*
X118944549Y-56614230D01*
X118960343Y-56633476D01*
X119027981Y-56734705D01*
X119217140Y-56923864D01*
X119388903Y-57038632D01*
X119423942Y-57073671D01*
X119442905Y-57119452D01*
X119442905Y-57169005D01*
X119423941Y-57214786D01*
X119388902Y-57249825D01*
X119383338Y-57253338D01*
X119277194Y-57316565D01*
X119079543Y-57494724D01*
X118920450Y-57708017D01*
X118804746Y-57950934D01*
X118778021Y-58039043D01*
X118839234Y-58155033D01*
X119891745Y-58155033D01*
X119907210Y-58144700D01*
X119955811Y-58135033D01*
X120209811Y-58135033D01*
X120258412Y-58144700D01*
X120273876Y-58155033D01*
X121326387Y-58155033D01*
X121387600Y-58039043D01*
X121360875Y-57950934D01*
X121245171Y-57708017D01*
X121086078Y-57494724D01*
X120888427Y-57316565D01*
X120782284Y-57253338D01*
X120745477Y-57220160D01*
X120724168Y-57175423D01*
X120721601Y-57125937D01*
X120738167Y-57079235D01*
X120771345Y-57042428D01*
X120776719Y-57038632D01*
X120948481Y-56923864D01*
X121137640Y-56734705D01*
X121286254Y-56512289D01*
X121388623Y-56265147D01*
X121440811Y-56002783D01*
X121440811Y-55735282D01*
X121427594Y-55668834D01*
X121427594Y-55619281D01*
X121446558Y-55573500D01*
X121462351Y-55554255D01*
X122803639Y-54212968D01*
X122844841Y-54185438D01*
X122893442Y-54175771D01*
X122942043Y-54185438D01*
X122983245Y-54212968D01*
X123154139Y-54383863D01*
X123318128Y-54493436D01*
X123353168Y-54528476D01*
X123372131Y-54574257D01*
X123372131Y-54623809D01*
X123353168Y-54669590D01*
X123318128Y-54704630D01*
X123154139Y-54814204D01*
X122964981Y-55003362D01*
X122816367Y-55225778D01*
X122713998Y-55472920D01*
X122661811Y-55735283D01*
X122661811Y-56002783D01*
X122713998Y-56265147D01*
X122816367Y-56512289D01*
X122964981Y-56734705D01*
X123154139Y-56923863D01*
X123318128Y-57033436D01*
X123353168Y-57068476D01*
X123372131Y-57114257D01*
X123372131Y-57163809D01*
X123353168Y-57209590D01*
X123318128Y-57244630D01*
X123154139Y-57354204D01*
X122964981Y-57543362D01*
X122816367Y-57765778D01*
X122713998Y-58012920D01*
X122661811Y-58275283D01*
X122661811Y-58542783D01*
X122713998Y-58805147D01*
X122816367Y-59052289D01*
X122964981Y-59274705D01*
X123154140Y-59463864D01*
X123325903Y-59578632D01*
X123360942Y-59613671D01*
X123379905Y-59659452D01*
X123379905Y-59709005D01*
X123360941Y-59754786D01*
X123325902Y-59789825D01*
X123320338Y-59793338D01*
X123214194Y-59856565D01*
X123016543Y-60034724D01*
X122857450Y-60248017D01*
X122741746Y-60490934D01*
X122715021Y-60579043D01*
X122776234Y-60695033D01*
X123828745Y-60695033D01*
X123844210Y-60684700D01*
X123892811Y-60675033D01*
X124146811Y-60675033D01*
X124195412Y-60684700D01*
X124210876Y-60695033D01*
X125263387Y-60695033D01*
X125324600Y-60579043D01*
X125297875Y-60490934D01*
X125182171Y-60248017D01*
X125023078Y-60034724D01*
X124825427Y-59856565D01*
X124719284Y-59793338D01*
X124682477Y-59760160D01*
X124661168Y-59715423D01*
X124658601Y-59665937D01*
X124675167Y-59619235D01*
X124708345Y-59582428D01*
X124713719Y-59578632D01*
X124885481Y-59463864D01*
X125074640Y-59274705D01*
X125223254Y-59052289D01*
X125325623Y-58805147D01*
X125377811Y-58542783D01*
X125377811Y-58275283D01*
X125325623Y-58012920D01*
X125223254Y-57765778D01*
X125074640Y-57543362D01*
X124885482Y-57354204D01*
X124721494Y-57244630D01*
X124686454Y-57209590D01*
X124667491Y-57163809D01*
X124667491Y-57114257D01*
X124686454Y-57068476D01*
X124721494Y-57033436D01*
X124885482Y-56923863D01*
X125074640Y-56734705D01*
X125223254Y-56512289D01*
X125325623Y-56265146D01*
X125362563Y-56079438D01*
X125381526Y-56033657D01*
X125416566Y-55998617D01*
X125462346Y-55979654D01*
X125511899Y-55979654D01*
X125557680Y-55998617D01*
X125576926Y-56014411D01*
X129842372Y-60279856D01*
X129846560Y-60284476D01*
X129866757Y-60309087D01*
X129974563Y-60397561D01*
X130097564Y-60463307D01*
X130242989Y-60507420D01*
X130242910Y-60507678D01*
X130277057Y-60518034D01*
X130315364Y-60549469D01*
X130338725Y-60593169D01*
X130343584Y-60642484D01*
X130334528Y-60678642D01*
X130333998Y-60679920D01*
X130281811Y-60942283D01*
X130281811Y-61209783D01*
X130333999Y-61472149D01*
X130366593Y-61550838D01*
X130376260Y-61599439D01*
X130366592Y-61648039D01*
X130339062Y-61689241D01*
X130309128Y-61711442D01*
X130228561Y-61754506D01*
X130120756Y-61842980D01*
X130100563Y-61867585D01*
X130096376Y-61872205D01*
X129224747Y-62743836D01*
X129183545Y-62771366D01*
X129134944Y-62781033D01*
X124386568Y-62781033D01*
X124386568Y-62252261D01*
X124596816Y-62177680D01*
X124825424Y-62041505D01*
X125023078Y-61863343D01*
X125182171Y-61650050D01*
X125297875Y-61407133D01*
X125324600Y-61319024D01*
X125263387Y-61203033D01*
X124273811Y-61203033D01*
X124273811Y-62193076D01*
X124386568Y-62252261D01*
X124386568Y-62781033D01*
X123653053Y-62781033D01*
X123653053Y-62252261D01*
X123765811Y-62193076D01*
X123765811Y-61203033D01*
X122776234Y-61203033D01*
X122715021Y-61319024D01*
X122741746Y-61407133D01*
X122857450Y-61650050D01*
X123016543Y-61863343D01*
X123214197Y-62041505D01*
X123442805Y-62177680D01*
X123653053Y-62252261D01*
X123653053Y-62781033D01*
X121570883Y-62781033D01*
X121522282Y-62771366D01*
X121481080Y-62743836D01*
X121453550Y-62702634D01*
X121443883Y-62654033D01*
X121443883Y-62645277D01*
X121433459Y-62539443D01*
X121404414Y-62443693D01*
X121357239Y-62355436D01*
X121293759Y-62278085D01*
X121216408Y-62214605D01*
X121128151Y-62167430D01*
X121067565Y-62149051D01*
X121023863Y-62125692D01*
X120992427Y-62087387D01*
X120978043Y-62039968D01*
X120982900Y-61990654D01*
X121006259Y-61946952D01*
X121014628Y-61937717D01*
X121137640Y-61814705D01*
X121286254Y-61592289D01*
X121388623Y-61345147D01*
X121440811Y-61082783D01*
X121440811Y-60815283D01*
X121388623Y-60552920D01*
X121286254Y-60305778D01*
X121137640Y-60083362D01*
X120948481Y-59894203D01*
X120776719Y-59779434D01*
X120741680Y-59744395D01*
X120722717Y-59698614D01*
X120722717Y-59649061D01*
X120741681Y-59603280D01*
X120776720Y-59568241D01*
X120782284Y-59564728D01*
X120888427Y-59501502D01*
X121086078Y-59323343D01*
X121245171Y-59110050D01*
X121360875Y-58867133D01*
X121387600Y-58779024D01*
X121326387Y-58663033D01*
X120273876Y-58663033D01*
X120258412Y-58673366D01*
X120209811Y-58683033D01*
X119955811Y-58683033D01*
X119907210Y-58673366D01*
X119891745Y-58663033D01*
X118839234Y-58663033D01*
X118778021Y-58779024D01*
X118804746Y-58867133D01*
X118920450Y-59110050D01*
X119079543Y-59323343D01*
X119277194Y-59501502D01*
X119383338Y-59564728D01*
X119420145Y-59597906D01*
X119441454Y-59642643D01*
X119444021Y-59692129D01*
X119427455Y-59738831D01*
X119394277Y-59775638D01*
X119388903Y-59779434D01*
X119217140Y-59894203D01*
X119027981Y-60083362D01*
X118879367Y-60305778D01*
X118776998Y-60552920D01*
X118724811Y-60815283D01*
X118724811Y-61082783D01*
X118776998Y-61345147D01*
X118879367Y-61592289D01*
X119027981Y-61814705D01*
X119150994Y-61937717D01*
X119178524Y-61978919D01*
X119188191Y-62027520D01*
X119178524Y-62076121D01*
X119150994Y-62117323D01*
X119109792Y-62144853D01*
X119098057Y-62149051D01*
X119037470Y-62167430D01*
X118949213Y-62214605D01*
X118871862Y-62278085D01*
X118808382Y-62355436D01*
X118761207Y-62443693D01*
X118732162Y-62539443D01*
X118721739Y-62645277D01*
X118721739Y-63632033D01*
X118712072Y-63680634D01*
X118684542Y-63721836D01*
X118643340Y-63749366D01*
X118594739Y-63759033D01*
X93692672Y-63759033D01*
X93686472Y-63758730D01*
X93488403Y-63739309D01*
X93464088Y-63734494D01*
X93353447Y-63701089D01*
X93330533Y-63691645D01*
X93228492Y-63637390D01*
X93207846Y-63623673D01*
X93118287Y-63550630D01*
X93100700Y-63533165D01*
X93027035Y-63444120D01*
X93013174Y-63423570D01*
X92958205Y-63321905D01*
X92948601Y-63299057D01*
X92914426Y-63188657D01*
X92909442Y-63164377D01*
X92889159Y-62971405D01*
X92888811Y-62964763D01*
X92888811Y-62437105D01*
X92898478Y-62388504D01*
G37*
G04 #@! TD.AperFunction*
G04 #@! TA.AperFunction,Conductor*
G36*
X92889114Y-33587694D02*
G01*
X92908535Y-33389625D01*
X92913350Y-33365310D01*
X92946755Y-33254669D01*
X92956199Y-33231755D01*
X93010454Y-33129714D01*
X93024171Y-33109068D01*
X93097214Y-33019509D01*
X93114679Y-33001922D01*
X93203724Y-32928257D01*
X93224274Y-32914396D01*
X93325939Y-32859427D01*
X93348787Y-32849823D01*
X93459187Y-32815648D01*
X93483467Y-32810664D01*
X93676439Y-32790381D01*
X93683081Y-32790033D01*
X118597811Y-32790032D01*
X118646412Y-32799699D01*
X118687614Y-32827229D01*
X118715144Y-32868431D01*
X118724811Y-32917032D01*
X118724811Y-33142783D01*
X118776998Y-33405147D01*
X118879367Y-33652289D01*
X119027981Y-33874705D01*
X119217139Y-34063863D01*
X119381128Y-34173436D01*
X119416168Y-34208476D01*
X119435131Y-34254257D01*
X119435131Y-34303809D01*
X119416168Y-34349590D01*
X119381128Y-34384630D01*
X119217139Y-34494204D01*
X119027981Y-34683362D01*
X118879367Y-34905778D01*
X118776998Y-35152920D01*
X118724811Y-35415283D01*
X118724811Y-35682783D01*
X118776999Y-35945149D01*
X118777526Y-35946420D01*
X118787195Y-35995021D01*
X118777529Y-36043622D01*
X118750000Y-36084824D01*
X118708799Y-36112355D01*
X118677961Y-36120081D01*
X118540563Y-36161760D01*
X118417561Y-36227507D01*
X118309759Y-36315977D01*
X118289561Y-36340589D01*
X118285373Y-36345209D01*
X117830988Y-36799594D01*
X117826368Y-36803782D01*
X117801756Y-36823980D01*
X117713284Y-36931784D01*
X117647537Y-37054786D01*
X117607054Y-37188241D01*
X117593385Y-37327033D01*
X117596505Y-37358705D01*
X117596811Y-37364933D01*
X117596811Y-39067144D01*
X117596505Y-39073372D01*
X117593386Y-39105031D01*
X117607056Y-39243831D01*
X117647537Y-39377281D01*
X117713284Y-39500283D01*
X117801754Y-39608085D01*
X117826362Y-39628278D01*
X117830983Y-39632467D01*
X118687614Y-40489097D01*
X118715144Y-40530299D01*
X118724811Y-40578900D01*
X118724811Y-40762783D01*
X118748564Y-40882195D01*
X118748564Y-40931748D01*
X118729601Y-40977529D01*
X118713807Y-40996775D01*
X116433988Y-43276594D01*
X116429368Y-43280782D01*
X116404756Y-43300980D01*
X116316284Y-43408784D01*
X116250537Y-43531786D01*
X116210054Y-43665241D01*
X116196385Y-43804033D01*
X116199505Y-43835705D01*
X116199811Y-43841933D01*
X116199811Y-47776165D01*
X116190144Y-47824766D01*
X116162614Y-47865968D01*
X115570839Y-48457743D01*
X115529637Y-48485273D01*
X115505813Y-48492500D01*
X115372957Y-48518927D01*
X115207710Y-48587375D01*
X115058997Y-48686742D01*
X114932519Y-48813220D01*
X114833152Y-48961933D01*
X114764704Y-49127181D01*
X114729811Y-49302603D01*
X114729811Y-49481463D01*
X114764704Y-49656886D01*
X114833152Y-49822134D01*
X114932519Y-49970847D01*
X115058997Y-50097325D01*
X115207710Y-50196692D01*
X115372958Y-50265140D01*
X115548381Y-50300033D01*
X115727240Y-50300033D01*
X115902663Y-50265140D01*
X116067911Y-50196692D01*
X116216624Y-50097325D01*
X116343102Y-49970847D01*
X116442469Y-49822134D01*
X116510917Y-49656887D01*
X116537344Y-49524031D01*
X116556307Y-49478250D01*
X116572101Y-49459005D01*
X116999008Y-49032098D01*
X117040210Y-49004568D01*
X117088811Y-48994901D01*
X117137412Y-49004568D01*
X117178614Y-49032098D01*
X117206144Y-49073300D01*
X117215811Y-49121901D01*
X117215811Y-52348165D01*
X117206144Y-52396766D01*
X117178614Y-52437968D01*
X116905746Y-52710836D01*
X116864544Y-52738366D01*
X116815943Y-52748033D01*
X116251096Y-52748033D01*
X116202495Y-52738366D01*
X116180539Y-52726630D01*
X116067911Y-52651375D01*
X115902663Y-52582927D01*
X115727240Y-52548033D01*
X115548381Y-52548033D01*
X115372958Y-52582927D01*
X115207710Y-52651375D01*
X115058997Y-52750742D01*
X114932519Y-52877220D01*
X114833152Y-53025933D01*
X114764704Y-53191181D01*
X114729811Y-53366603D01*
X114729811Y-53545463D01*
X114764704Y-53720886D01*
X114815051Y-53842432D01*
X114824718Y-53891033D01*
X114815051Y-53939634D01*
X114787521Y-53980835D01*
X114746319Y-54008366D01*
X114697718Y-54018033D01*
X110141678Y-54018033D01*
X110093077Y-54008366D01*
X110051875Y-53980836D01*
X106862811Y-50791772D01*
X106862811Y-45465747D01*
X110428811Y-45465747D01*
X110428811Y-38078318D01*
X106862811Y-38078318D01*
X106862811Y-45465747D01*
X106862811Y-50791772D01*
X106646008Y-50574969D01*
X101306241Y-45235199D01*
X101302053Y-45230579D01*
X101281864Y-45205979D01*
X101174060Y-45117507D01*
X101051058Y-45051760D01*
X100917603Y-45011277D01*
X100778811Y-44997608D01*
X100747137Y-45000727D01*
X100740910Y-45001033D01*
X100681980Y-45001033D01*
X100633379Y-44991366D01*
X100592177Y-44963836D01*
X100564647Y-44922634D01*
X100554980Y-44874033D01*
X100560195Y-44847815D01*
X100558183Y-44847414D01*
X100612811Y-44572783D01*
X100612811Y-44305283D01*
X100560623Y-44042920D01*
X100458254Y-43795778D01*
X100309640Y-43573362D01*
X100120482Y-43384204D01*
X99956494Y-43274630D01*
X99921454Y-43239590D01*
X99902491Y-43193809D01*
X99902491Y-43144257D01*
X99921454Y-43098476D01*
X99956494Y-43063436D01*
X100120482Y-42953863D01*
X100309640Y-42764705D01*
X100458254Y-42542289D01*
X100560623Y-42295147D01*
X100612811Y-42032783D01*
X100612811Y-41765283D01*
X100560623Y-41502920D01*
X100458254Y-41255778D01*
X100309640Y-41033362D01*
X100120481Y-40844203D01*
X99948719Y-40729434D01*
X99913680Y-40694395D01*
X99894717Y-40648614D01*
X99894717Y-40599061D01*
X99913681Y-40553280D01*
X99948720Y-40518241D01*
X99954284Y-40514728D01*
X100060427Y-40451502D01*
X100258078Y-40273343D01*
X100417171Y-40060050D01*
X100532875Y-39817133D01*
X100559600Y-39729024D01*
X100498387Y-39613033D01*
X99508811Y-39613033D01*
X99508811Y-39105033D01*
X100498387Y-39105033D01*
X100559600Y-38989043D01*
X100532875Y-38900934D01*
X100417171Y-38658017D01*
X100258078Y-38444724D01*
X100060424Y-38266562D01*
X99831816Y-38130387D01*
X99621568Y-38055806D01*
X99508811Y-38114990D01*
X99508811Y-39105033D01*
X99508811Y-39613033D01*
X99445876Y-39613033D01*
X99430412Y-39623366D01*
X99381811Y-39633033D01*
X99127811Y-39633033D01*
X99079210Y-39623366D01*
X99063745Y-39613033D01*
X99000811Y-39613033D01*
X99000811Y-39105033D01*
X99000811Y-38114990D01*
X98888053Y-38055806D01*
X98677805Y-38130387D01*
X98449197Y-38266562D01*
X98251543Y-38444724D01*
X98092450Y-38658017D01*
X97976746Y-38900934D01*
X97950021Y-38989043D01*
X98011234Y-39105033D01*
X99000811Y-39105033D01*
X99000811Y-39613033D01*
X98011234Y-39613033D01*
X97950021Y-39729024D01*
X97976746Y-39817133D01*
X98092450Y-40060050D01*
X98251543Y-40273343D01*
X98449194Y-40451502D01*
X98555338Y-40514728D01*
X98592145Y-40547906D01*
X98613454Y-40592643D01*
X98616021Y-40642129D01*
X98599455Y-40688831D01*
X98566277Y-40725638D01*
X98560903Y-40729434D01*
X98389140Y-40844203D01*
X98199981Y-41033362D01*
X98051367Y-41255778D01*
X97948998Y-41502920D01*
X97896811Y-41765283D01*
X97896811Y-42032783D01*
X97948998Y-42295147D01*
X98051367Y-42542289D01*
X98199981Y-42764705D01*
X98389139Y-42953863D01*
X98553128Y-43063436D01*
X98588168Y-43098476D01*
X98607131Y-43144257D01*
X98607131Y-43193809D01*
X98588168Y-43239590D01*
X98553128Y-43274630D01*
X98389139Y-43384204D01*
X98199981Y-43573362D01*
X98051367Y-43795778D01*
X97948998Y-44042920D01*
X97896811Y-44305283D01*
X97896811Y-44572783D01*
X97951439Y-44847414D01*
X97949426Y-44847815D01*
X97954642Y-44874032D01*
X97944975Y-44922633D01*
X97917445Y-44963835D01*
X97876244Y-44991365D01*
X97827643Y-45001033D01*
X94513876Y-45001033D01*
X94465275Y-44991366D01*
X94424073Y-44963836D01*
X94408279Y-44944590D01*
X94340640Y-44843362D01*
X94151482Y-44654204D01*
X93987494Y-44544630D01*
X93952454Y-44509590D01*
X93933491Y-44463809D01*
X93933491Y-44414257D01*
X93952454Y-44368476D01*
X93987494Y-44333436D01*
X94151482Y-44223863D01*
X94340640Y-44034705D01*
X94489254Y-43812289D01*
X94591623Y-43565147D01*
X94643811Y-43302783D01*
X94643811Y-43035283D01*
X94591623Y-42772920D01*
X94489254Y-42525778D01*
X94340640Y-42303362D01*
X94151481Y-42114203D01*
X93979719Y-41999434D01*
X93944680Y-41964395D01*
X93925717Y-41918614D01*
X93925717Y-41869061D01*
X93944681Y-41823280D01*
X93979720Y-41788241D01*
X93985284Y-41784728D01*
X94091427Y-41721502D01*
X94289078Y-41543343D01*
X94448171Y-41330050D01*
X94563875Y-41087133D01*
X94590600Y-40999024D01*
X94529387Y-40883033D01*
X93476876Y-40883033D01*
X93461412Y-40893366D01*
X93412811Y-40903033D01*
X93158811Y-40903033D01*
X93110210Y-40893366D01*
X93069008Y-40865836D01*
X93060997Y-40853847D01*
X93049008Y-40845836D01*
X93021478Y-40804634D01*
X93011811Y-40756033D01*
X93011811Y-40502033D01*
X93021478Y-40453432D01*
X93049008Y-40412230D01*
X93060997Y-40404220D01*
X93069008Y-40392230D01*
X93110210Y-40364700D01*
X93158811Y-40355033D01*
X93412811Y-40355033D01*
X93461412Y-40364700D01*
X93476876Y-40375033D01*
X94529387Y-40375033D01*
X94590600Y-40259043D01*
X94563875Y-40170934D01*
X94448171Y-39928017D01*
X94289078Y-39714724D01*
X94091427Y-39536565D01*
X93985284Y-39473338D01*
X93948477Y-39440160D01*
X93927168Y-39395423D01*
X93924601Y-39345937D01*
X93941167Y-39299235D01*
X93974345Y-39262428D01*
X93979719Y-39258632D01*
X94151481Y-39143864D01*
X94340640Y-38954705D01*
X94489254Y-38732289D01*
X94591623Y-38485147D01*
X94643811Y-38222783D01*
X94643811Y-37955283D01*
X94591623Y-37692920D01*
X94489254Y-37445778D01*
X94340640Y-37223362D01*
X94151482Y-37034204D01*
X93987494Y-36924630D01*
X93952454Y-36889590D01*
X93933491Y-36843809D01*
X93933491Y-36794257D01*
X93952454Y-36748476D01*
X93987494Y-36713436D01*
X94151482Y-36603863D01*
X94340640Y-36414705D01*
X94489254Y-36192289D01*
X94591623Y-35945147D01*
X94643811Y-35682783D01*
X94643811Y-35415283D01*
X94591623Y-35152920D01*
X94489254Y-34905778D01*
X94340640Y-34683362D01*
X94151482Y-34494204D01*
X93929066Y-34345590D01*
X93681924Y-34243221D01*
X93419560Y-34191033D01*
X93152061Y-34191033D01*
X93040588Y-34213207D01*
X92991035Y-34213207D01*
X92945254Y-34194244D01*
X92910215Y-34159205D01*
X92891251Y-34113424D01*
X92888811Y-34088647D01*
X92888811Y-33593894D01*
X92889114Y-33587694D01*
G37*
G04 #@! TD.AperFunction*
G04 #@! TA.AperFunction,Conductor*
G36*
X100528028Y-54027028D02*
G01*
X100555558Y-53985826D01*
X100585493Y-53963624D01*
X100666055Y-53920563D01*
X100773864Y-53832087D01*
X100794057Y-53807481D01*
X100798245Y-53802861D01*
X101633645Y-52967463D01*
X101638265Y-52963275D01*
X101662865Y-52943087D01*
X101751337Y-52835283D01*
X101817084Y-52712281D01*
X101857567Y-52578826D01*
X101871236Y-52440034D01*
X101868117Y-52408361D01*
X101867811Y-52402133D01*
X101867811Y-48105902D01*
X101877478Y-48057301D01*
X101905008Y-48016099D01*
X101946210Y-47988569D01*
X101994811Y-47978902D01*
X102043412Y-47988569D01*
X102084614Y-48016099D01*
X109012747Y-54944230D01*
X109040277Y-54985432D01*
X109049944Y-55034033D01*
X109040277Y-55082634D01*
X109012747Y-55123836D01*
X108971545Y-55151366D01*
X108922944Y-55161033D01*
X101124678Y-55161033D01*
X101076077Y-55151366D01*
X101034875Y-55123836D01*
X100650008Y-54738969D01*
X100622478Y-54697767D01*
X100612811Y-54649166D01*
X100612811Y-54465283D01*
X100560622Y-54202916D01*
X100528029Y-54124229D01*
X100518361Y-54075629D01*
X100528028Y-54027028D01*
G37*
G04 #@! TD.AperFunction*
G04 #@! TD*
G04 #@! TA.AperFunction,Conductor*
G04 #@! TO.N,Board_2-GND*
G36*
X33211723Y-35234743D02*
G01*
X33239253Y-35193541D01*
X33280455Y-35166011D01*
X33329056Y-35156344D01*
X33377657Y-35166011D01*
X33767974Y-35327687D01*
X34463489Y-35466033D01*
X35172622Y-35466033D01*
X35868137Y-35327687D01*
X36523296Y-35056311D01*
X37112919Y-34662338D01*
X37614360Y-34160897D01*
X38008333Y-33571274D01*
X38279709Y-32916115D01*
X38418056Y-32220600D01*
X38418056Y-31511466D01*
X38279709Y-30815952D01*
X38118034Y-30425634D01*
X38108367Y-30377033D01*
X38118034Y-30328432D01*
X38145564Y-30287231D01*
X38186766Y-30259700D01*
X38235367Y-30250033D01*
X70670232Y-30250032D01*
X70718833Y-30259699D01*
X70760035Y-30287229D01*
X70787565Y-30328431D01*
X70797232Y-30377032D01*
X70787565Y-30425632D01*
X70723244Y-30580918D01*
X70671056Y-30843283D01*
X70671056Y-31110783D01*
X70725684Y-31385414D01*
X70723671Y-31385815D01*
X70728887Y-31412032D01*
X70719220Y-31460633D01*
X70691690Y-31501835D01*
X70650489Y-31529365D01*
X70601888Y-31539033D01*
X66311608Y-31539033D01*
X66263007Y-31529366D01*
X66221805Y-31501836D01*
X66206011Y-31482590D01*
X66010261Y-31189630D01*
X65751459Y-30930828D01*
X65447150Y-30727495D01*
X65109013Y-30587435D01*
X64750051Y-30516033D01*
X64384060Y-30516033D01*
X64025098Y-30587435D01*
X63686961Y-30727495D01*
X63382652Y-30930828D01*
X63123850Y-31189630D01*
X62920517Y-31493939D01*
X62780457Y-31832076D01*
X62709056Y-32191037D01*
X62709056Y-32557029D01*
X62780457Y-32915991D01*
X62828732Y-33032536D01*
X62838399Y-33081137D01*
X62828732Y-33129738D01*
X62801201Y-33170940D01*
X62760000Y-33198470D01*
X62711399Y-33208137D01*
X62662798Y-33198470D01*
X62621596Y-33170940D01*
X62528347Y-33077692D01*
X62281363Y-32912662D01*
X62006922Y-32798985D01*
X61715579Y-32741033D01*
X61418532Y-32741033D01*
X61127189Y-32798985D01*
X60852748Y-32912662D01*
X60605764Y-33077692D01*
X60395714Y-33287742D01*
X60230684Y-33534726D01*
X60117007Y-33809167D01*
X60059056Y-34100509D01*
X60059056Y-34397557D01*
X60117007Y-34688900D01*
X60230684Y-34963341D01*
X60395714Y-35210325D01*
X60605764Y-35420375D01*
X60852748Y-35585405D01*
X61127189Y-35699082D01*
X61418532Y-35757033D01*
X61715579Y-35757033D01*
X62006922Y-35699082D01*
X62281363Y-35585405D01*
X62528347Y-35420375D01*
X62621596Y-35327126D01*
X62662798Y-35299596D01*
X62711399Y-35289929D01*
X62760000Y-35299596D01*
X62801202Y-35327126D01*
X62828732Y-35368328D01*
X62838399Y-35416929D01*
X62828732Y-35465530D01*
X62780457Y-35582076D01*
X62709056Y-35941037D01*
X62709056Y-36307029D01*
X62780457Y-36665991D01*
X62920517Y-37004128D01*
X63123850Y-37308437D01*
X63382652Y-37567239D01*
X63686961Y-37770572D01*
X64025098Y-37910632D01*
X64384060Y-37982033D01*
X64750051Y-37982033D01*
X65109013Y-37910632D01*
X65447150Y-37770572D01*
X65751459Y-37567239D01*
X66010261Y-37308437D01*
X66213594Y-37004128D01*
X66353654Y-36665991D01*
X66425056Y-36307029D01*
X66425056Y-35941037D01*
X66353654Y-35582076D01*
X66213594Y-35243939D01*
X66010261Y-34939630D01*
X65751459Y-34680828D01*
X65447150Y-34477495D01*
X65178861Y-34366366D01*
X65137659Y-34338836D01*
X65110129Y-34297634D01*
X65100462Y-34249033D01*
X65110129Y-34200432D01*
X65137659Y-34159230D01*
X65178861Y-34131700D01*
X65447150Y-34020572D01*
X65751459Y-33817239D01*
X66010261Y-33558437D01*
X66213594Y-33254128D01*
X66305009Y-33033431D01*
X66332539Y-32992230D01*
X66373741Y-32964699D01*
X66422342Y-32955032D01*
X70611272Y-32955033D01*
X70659873Y-32964700D01*
X70701075Y-32992230D01*
X70728605Y-33033432D01*
X70738272Y-33082033D01*
X70732804Y-33118896D01*
X70724266Y-33147043D01*
X70785479Y-33263033D01*
X71837990Y-33263033D01*
X71853455Y-33252700D01*
X71902056Y-33243033D01*
X72156056Y-33243033D01*
X72204657Y-33252700D01*
X72245859Y-33280230D01*
X72253869Y-33292220D01*
X72265859Y-33300230D01*
X72293389Y-33341432D01*
X72303056Y-33390033D01*
X72303056Y-33644033D01*
X72293389Y-33692634D01*
X72265859Y-33733836D01*
X72253869Y-33741847D01*
X72245859Y-33753836D01*
X72204657Y-33781366D01*
X72156056Y-33791033D01*
X71902056Y-33791033D01*
X71853455Y-33781366D01*
X71837990Y-33771033D01*
X70785479Y-33771033D01*
X70724266Y-33887024D01*
X70750991Y-33975133D01*
X70866695Y-34218050D01*
X71025788Y-34431343D01*
X71223439Y-34609502D01*
X71329583Y-34672728D01*
X71366390Y-34705906D01*
X71387699Y-34750643D01*
X71390266Y-34800129D01*
X71373700Y-34846831D01*
X71340522Y-34883638D01*
X71335148Y-34887434D01*
X71163385Y-35002203D01*
X70974226Y-35191362D01*
X70825612Y-35413778D01*
X70723243Y-35660920D01*
X70671056Y-35923283D01*
X70671056Y-36190783D01*
X70723243Y-36453147D01*
X70825612Y-36700289D01*
X70974226Y-36922705D01*
X71163384Y-37111863D01*
X71327373Y-37221436D01*
X71362413Y-37256476D01*
X71381376Y-37302257D01*
X71381376Y-37351809D01*
X71362413Y-37397590D01*
X71327373Y-37432630D01*
X71163384Y-37542204D01*
X70974226Y-37731362D01*
X70825612Y-37953778D01*
X70723243Y-38200920D01*
X70671056Y-38463283D01*
X70671056Y-38730783D01*
X70723243Y-38993147D01*
X70825613Y-39240289D01*
X70867412Y-39302846D01*
X70886375Y-39348627D01*
X70886375Y-39398180D01*
X70867411Y-39443961D01*
X70851618Y-39463206D01*
X66619108Y-43695717D01*
X66577906Y-43723247D01*
X66529305Y-43732914D01*
X66480704Y-43723247D01*
X66439502Y-43695717D01*
X66411972Y-43654515D01*
X66402305Y-43605914D01*
X66404745Y-43581137D01*
X66425056Y-43479028D01*
X66425056Y-43113037D01*
X66353654Y-42754076D01*
X66213594Y-42415939D01*
X66010261Y-42111630D01*
X65751459Y-41852828D01*
X65447150Y-41649495D01*
X65109013Y-41509435D01*
X64750051Y-41438033D01*
X64384060Y-41438033D01*
X64025098Y-41509435D01*
X63686961Y-41649495D01*
X63382652Y-41852828D01*
X63123850Y-42111630D01*
X62920517Y-42415939D01*
X62881708Y-42509634D01*
X62854178Y-42550836D01*
X62812976Y-42578366D01*
X62764375Y-42588033D01*
X61249954Y-42588033D01*
X61243726Y-42587727D01*
X61212053Y-42584608D01*
X61073267Y-42598277D01*
X60939802Y-42638763D01*
X60816804Y-42704507D01*
X60708999Y-42792980D01*
X60688806Y-42817585D01*
X60684619Y-42822205D01*
X59535232Y-43971593D01*
X59530612Y-43975781D01*
X59506000Y-43995979D01*
X59417528Y-44103783D01*
X59351781Y-44226785D01*
X59311298Y-44360240D01*
X59297629Y-44499032D01*
X59300749Y-44530704D01*
X59301055Y-44536932D01*
X59301055Y-49399132D01*
X59300749Y-49405359D01*
X59297629Y-49437034D01*
X59311298Y-49575825D01*
X59351781Y-49709280D01*
X59417528Y-49832282D01*
X59506000Y-49940086D01*
X59530606Y-49960278D01*
X59535226Y-49964466D01*
X65693933Y-56123171D01*
X65721463Y-56164373D01*
X65731130Y-56212974D01*
X65721463Y-56261575D01*
X65653222Y-56426322D01*
X65576056Y-56814264D01*
X65576056Y-57209802D01*
X65653222Y-57597745D01*
X65804590Y-57963180D01*
X66024338Y-58292056D01*
X66304033Y-58571751D01*
X66632909Y-58791499D01*
X66998344Y-58942867D01*
X67386287Y-59020033D01*
X67781824Y-59020033D01*
X68169767Y-58942867D01*
X68535202Y-58791499D01*
X68864078Y-58571751D01*
X69143773Y-58292056D01*
X69363521Y-57963180D01*
X69514889Y-57597745D01*
X69592056Y-57209802D01*
X69592056Y-56814264D01*
X69514889Y-56426322D01*
X69363521Y-56060887D01*
X69143773Y-55732011D01*
X68864078Y-55452316D01*
X68535202Y-55232568D01*
X68169767Y-55081200D01*
X67781824Y-55004033D01*
X67386287Y-55004033D01*
X66998344Y-55081200D01*
X66833598Y-55149440D01*
X66784997Y-55159107D01*
X66736396Y-55149440D01*
X66695194Y-55121910D01*
X60754252Y-49180967D01*
X60726722Y-49139765D01*
X60717055Y-49091164D01*
X60717055Y-46641267D01*
X60726722Y-46592666D01*
X60754252Y-46551464D01*
X60795454Y-46523934D01*
X60844055Y-46514267D01*
X60892656Y-46523934D01*
X61127189Y-46621082D01*
X61418532Y-46679033D01*
X61715579Y-46679033D01*
X62006922Y-46621082D01*
X62281363Y-46507405D01*
X62528347Y-46342375D01*
X62621596Y-46249126D01*
X62662798Y-46221596D01*
X62711399Y-46211929D01*
X62760000Y-46221596D01*
X62801202Y-46249126D01*
X62828732Y-46290328D01*
X62838399Y-46338929D01*
X62828732Y-46387530D01*
X62780457Y-46504076D01*
X62709056Y-46863037D01*
X62709056Y-47229029D01*
X62780457Y-47587991D01*
X62920517Y-47926128D01*
X63123850Y-48230437D01*
X63382652Y-48489239D01*
X63686961Y-48692572D01*
X64025098Y-48832632D01*
X64384060Y-48904033D01*
X64750051Y-48904033D01*
X65109013Y-48832632D01*
X65447150Y-48692572D01*
X65751459Y-48489239D01*
X66010261Y-48230437D01*
X66213594Y-47926128D01*
X66353654Y-47587991D01*
X66425056Y-47229029D01*
X66425056Y-46863037D01*
X66353654Y-46504076D01*
X66227855Y-46200367D01*
X66218188Y-46151766D01*
X66227855Y-46103165D01*
X66255385Y-46061963D01*
X70606699Y-41710651D01*
X70647901Y-41683121D01*
X70696502Y-41673454D01*
X70745103Y-41683121D01*
X70786305Y-41710651D01*
X70813835Y-41751853D01*
X70813835Y-41751854D01*
X70825612Y-41780287D01*
X70974226Y-42002705D01*
X71163384Y-42191863D01*
X71327373Y-42301436D01*
X71362413Y-42336476D01*
X71381376Y-42382257D01*
X71381376Y-42431809D01*
X71362413Y-42477590D01*
X71327373Y-42512630D01*
X71163384Y-42622204D01*
X70974226Y-42811362D01*
X70825612Y-43033778D01*
X70723243Y-43280920D01*
X70671056Y-43543283D01*
X70671056Y-43810783D01*
X70723243Y-44073147D01*
X70825612Y-44320289D01*
X70974226Y-44542705D01*
X71163384Y-44731863D01*
X71327373Y-44841436D01*
X71362413Y-44876476D01*
X71381376Y-44922257D01*
X71381376Y-44971809D01*
X71362413Y-45017590D01*
X71327373Y-45052630D01*
X71163384Y-45162204D01*
X70974226Y-45351362D01*
X70825612Y-45573778D01*
X70723243Y-45820920D01*
X70671056Y-46083283D01*
X70671056Y-46350783D01*
X70723243Y-46613147D01*
X70825612Y-46860289D01*
X70974226Y-47082705D01*
X71163384Y-47271863D01*
X71327373Y-47381436D01*
X71362413Y-47416476D01*
X71381376Y-47462257D01*
X71381376Y-47511809D01*
X71362413Y-47557590D01*
X71327373Y-47592630D01*
X71163384Y-47702204D01*
X70974226Y-47891362D01*
X70825612Y-48113778D01*
X70723243Y-48360920D01*
X70671056Y-48623283D01*
X70671056Y-48890783D01*
X70723243Y-49153147D01*
X70825612Y-49400289D01*
X70974226Y-49622705D01*
X71163384Y-49811863D01*
X71327373Y-49921436D01*
X71362413Y-49956476D01*
X71381376Y-50002257D01*
X71381376Y-50051809D01*
X71362413Y-50097590D01*
X71327373Y-50132630D01*
X71163384Y-50242204D01*
X70974226Y-50431362D01*
X70825612Y-50653778D01*
X70723243Y-50900920D01*
X70671056Y-51163283D01*
X70671056Y-51430783D01*
X70723243Y-51693147D01*
X70825612Y-51940289D01*
X70974226Y-52162705D01*
X71163384Y-52351863D01*
X71327373Y-52461436D01*
X71362413Y-52496476D01*
X71381376Y-52542257D01*
X71381376Y-52591809D01*
X71362413Y-52637590D01*
X71327373Y-52672630D01*
X71163384Y-52782204D01*
X70974226Y-52971362D01*
X70825612Y-53193778D01*
X70723243Y-53440920D01*
X70671056Y-53703283D01*
X70671056Y-53970783D01*
X70723243Y-54233147D01*
X70825612Y-54480289D01*
X70974226Y-54702705D01*
X71163384Y-54891863D01*
X71327373Y-55001436D01*
X71362413Y-55036476D01*
X71381376Y-55082257D01*
X71381376Y-55131809D01*
X71362413Y-55177590D01*
X71327373Y-55212630D01*
X71163384Y-55322204D01*
X70974226Y-55511362D01*
X70825612Y-55733778D01*
X70723243Y-55980920D01*
X70671056Y-56243283D01*
X70671056Y-56510783D01*
X70723243Y-56773147D01*
X70825612Y-57020289D01*
X70974226Y-57242705D01*
X71163384Y-57431863D01*
X71327373Y-57541436D01*
X71362413Y-57576476D01*
X71381376Y-57622257D01*
X71381376Y-57671809D01*
X71362413Y-57717590D01*
X71327373Y-57752630D01*
X71163384Y-57862204D01*
X70974226Y-58051362D01*
X70825612Y-58273778D01*
X70723243Y-58520920D01*
X70671056Y-58783283D01*
X70671056Y-59050783D01*
X70723243Y-59313147D01*
X70825612Y-59560289D01*
X70974226Y-59782705D01*
X71163384Y-59971863D01*
X71327373Y-60081436D01*
X71362413Y-60116476D01*
X71381376Y-60162257D01*
X71381376Y-60211809D01*
X71362413Y-60257590D01*
X71327373Y-60292630D01*
X71163384Y-60402204D01*
X70974226Y-60591362D01*
X70825612Y-60813778D01*
X70723243Y-61060920D01*
X70671056Y-61323283D01*
X70671056Y-61590783D01*
X70723243Y-61853147D01*
X70825612Y-62100289D01*
X70974226Y-62322705D01*
X71163384Y-62511863D01*
X71385800Y-62660477D01*
X71632942Y-62762846D01*
X71895306Y-62815033D01*
X72162805Y-62815033D01*
X72425169Y-62762846D01*
X72672311Y-62660477D01*
X72894727Y-62511863D01*
X73083885Y-62322705D01*
X73193459Y-62158716D01*
X73228499Y-62123676D01*
X73274280Y-62104713D01*
X73323832Y-62104713D01*
X73369613Y-62123676D01*
X73404653Y-62158716D01*
X73514226Y-62322705D01*
X73703384Y-62511863D01*
X73925800Y-62660477D01*
X74172942Y-62762846D01*
X74435306Y-62815033D01*
X74702805Y-62815033D01*
X74729279Y-62809767D01*
X74778832Y-62809767D01*
X74824613Y-62828730D01*
X74859652Y-62863769D01*
X74878616Y-62909550D01*
X74881056Y-62934327D01*
X74881056Y-65190169D01*
X74880753Y-65196369D01*
X74855523Y-65453685D01*
X74850709Y-65477999D01*
X74800100Y-65645623D01*
X74790654Y-65668539D01*
X74708453Y-65823137D01*
X74694737Y-65843782D01*
X74584073Y-65979470D01*
X74566608Y-65997057D01*
X74431695Y-66108666D01*
X74411147Y-66122526D01*
X74257125Y-66205806D01*
X74234274Y-66215412D01*
X74067007Y-66267189D01*
X74042728Y-66272172D01*
X73715338Y-66306583D01*
X73659505Y-66318043D01*
X73653152Y-66319016D01*
X73627828Y-66321589D01*
X73602543Y-66321627D01*
X73373143Y-66299033D01*
X67781824Y-66299033D01*
X67781824Y-65370033D01*
X68169767Y-65292867D01*
X68535202Y-65141499D01*
X68864078Y-64921751D01*
X69143773Y-64642056D01*
X69363521Y-64313180D01*
X69514889Y-63947745D01*
X69592056Y-63559802D01*
X69592056Y-63164264D01*
X69514889Y-62776322D01*
X69363521Y-62410887D01*
X69143773Y-62082011D01*
X68864078Y-61802316D01*
X68535202Y-61582568D01*
X68169767Y-61431200D01*
X67781824Y-61354033D01*
X67386287Y-61354033D01*
X66998344Y-61431200D01*
X66632909Y-61582568D01*
X66304033Y-61802316D01*
X66024338Y-62082011D01*
X65804590Y-62410887D01*
X65653222Y-62776322D01*
X65576056Y-63164264D01*
X65576056Y-63559802D01*
X65653222Y-63947745D01*
X65804590Y-64313180D01*
X66024338Y-64642056D01*
X66304033Y-64921751D01*
X66632909Y-65141499D01*
X66998344Y-65292867D01*
X67386287Y-65370033D01*
X67781824Y-65370033D01*
X67781824Y-66299033D01*
X62701824Y-66299033D01*
X62701824Y-65370033D01*
X63089767Y-65292867D01*
X63455202Y-65141499D01*
X63784078Y-64921751D01*
X64063773Y-64642056D01*
X64283521Y-64313180D01*
X64434889Y-63947745D01*
X64512056Y-63559802D01*
X64512056Y-63164264D01*
X64434889Y-62776322D01*
X64283521Y-62410887D01*
X64063773Y-62082011D01*
X64021092Y-62039330D01*
X64021092Y-58169859D01*
X64217211Y-58072900D01*
X64383224Y-57746814D01*
X64490465Y-57366091D01*
X64521368Y-56971757D01*
X64474748Y-56578970D01*
X64352001Y-56201614D01*
X64218469Y-55951789D01*
X64021092Y-55854208D01*
X62863267Y-57012033D01*
X64021092Y-58169859D01*
X64021092Y-62039330D01*
X63905906Y-61924143D01*
X63784078Y-61802316D01*
X63455202Y-61582568D01*
X63089767Y-61431200D01*
X62701824Y-61354033D01*
X62544332Y-61354033D01*
X62544332Y-59029346D01*
X62937119Y-58982726D01*
X63314475Y-58859979D01*
X63564300Y-58726447D01*
X63661881Y-58529070D01*
X62504056Y-57371244D01*
X62504056Y-56652822D01*
X63661881Y-55494997D01*
X63564922Y-55298878D01*
X63238836Y-55132865D01*
X62858113Y-55025624D01*
X62463779Y-54994721D01*
X62070992Y-55041341D01*
X61693636Y-55164088D01*
X61443811Y-55297620D01*
X61346230Y-55494997D01*
X62504056Y-56652822D01*
X62504056Y-57371244D01*
X61346230Y-58529070D01*
X61443189Y-58725189D01*
X61769275Y-58891202D01*
X62149998Y-58998443D01*
X62544332Y-59029346D01*
X62544332Y-61354033D01*
X62306287Y-61354033D01*
X61918344Y-61431200D01*
X61552909Y-61582568D01*
X61224033Y-61802316D01*
X60987019Y-62039330D01*
X60987019Y-58169859D01*
X62144845Y-57012033D01*
X60987019Y-55854208D01*
X60790900Y-55951167D01*
X60624887Y-56277253D01*
X60517646Y-56657976D01*
X60486743Y-57052310D01*
X60533363Y-57445097D01*
X60656110Y-57822453D01*
X60789642Y-58072278D01*
X60987019Y-58169859D01*
X60987019Y-62039330D01*
X60944338Y-62082011D01*
X60724590Y-62410887D01*
X60573222Y-62776322D01*
X60496056Y-63164264D01*
X60496056Y-63559802D01*
X60573222Y-63947745D01*
X60724590Y-64313180D01*
X60944338Y-64642056D01*
X61224033Y-64921751D01*
X61552909Y-65141499D01*
X61918344Y-65292867D01*
X62306287Y-65370033D01*
X62701824Y-65370033D01*
X62701824Y-66299033D01*
X57621824Y-66299033D01*
X57621824Y-65370033D01*
X58009767Y-65292867D01*
X58375202Y-65141499D01*
X58704078Y-64921751D01*
X58983773Y-64642056D01*
X59203521Y-64313180D01*
X59354889Y-63947745D01*
X59432056Y-63559802D01*
X59432056Y-63164264D01*
X59354889Y-62776322D01*
X59203521Y-62410887D01*
X58983773Y-62082011D01*
X58704078Y-61802316D01*
X58375202Y-61582568D01*
X58009767Y-61431200D01*
X57621824Y-61354033D01*
X57226287Y-61354033D01*
X56838344Y-61431200D01*
X56472909Y-61582568D01*
X56144033Y-61802316D01*
X55864338Y-62082011D01*
X55644590Y-62410887D01*
X55493222Y-62776322D01*
X55416056Y-63164264D01*
X55416056Y-63559802D01*
X55493222Y-63947745D01*
X55644590Y-64313180D01*
X55864338Y-64642056D01*
X56144033Y-64921751D01*
X56472909Y-65141499D01*
X56838344Y-65292867D01*
X57226287Y-65370033D01*
X57621824Y-65370033D01*
X57621824Y-66299033D01*
X49215579Y-66299033D01*
X49215579Y-46679033D01*
X49506922Y-46621082D01*
X49781363Y-46507405D01*
X50028347Y-46342375D01*
X50238397Y-46132325D01*
X50403427Y-45885341D01*
X50517104Y-45610900D01*
X50575056Y-45319557D01*
X50575056Y-45022509D01*
X50517104Y-44731167D01*
X50403427Y-44456726D01*
X50238397Y-44209742D01*
X50028347Y-43999692D01*
X49781363Y-43834662D01*
X49506922Y-43720985D01*
X49215579Y-43663033D01*
X49215579Y-35757033D01*
X49506922Y-35699082D01*
X49781363Y-35585405D01*
X50028347Y-35420375D01*
X50238397Y-35210325D01*
X50403427Y-34963341D01*
X50517104Y-34688900D01*
X50575056Y-34397557D01*
X50575056Y-34100509D01*
X50517104Y-33809167D01*
X50403427Y-33534726D01*
X50238397Y-33287742D01*
X50028347Y-33077692D01*
X49781363Y-32912662D01*
X49506922Y-32798985D01*
X49215579Y-32741033D01*
X48918532Y-32741033D01*
X48627189Y-32798985D01*
X48352748Y-32912662D01*
X48105764Y-33077692D01*
X47895714Y-33287742D01*
X47730684Y-33534726D01*
X47617007Y-33809167D01*
X47559056Y-34100509D01*
X47559056Y-34397557D01*
X47617007Y-34688900D01*
X47730684Y-34963341D01*
X47895714Y-35210325D01*
X48105764Y-35420375D01*
X48352748Y-35585405D01*
X48627189Y-35699082D01*
X48918532Y-35757033D01*
X49215579Y-35757033D01*
X49215579Y-43663033D01*
X48918532Y-43663033D01*
X48627189Y-43720985D01*
X48352748Y-43834662D01*
X48105764Y-43999692D01*
X47895714Y-44209742D01*
X47730684Y-44456726D01*
X47617007Y-44731167D01*
X47559056Y-45022509D01*
X47559056Y-45319557D01*
X47617007Y-45610900D01*
X47730684Y-45885341D01*
X47895714Y-46132325D01*
X48105764Y-46342375D01*
X48352748Y-46507405D01*
X48627189Y-46621082D01*
X48918532Y-46679033D01*
X49215579Y-46679033D01*
X49215579Y-66299033D01*
X45979189Y-66299033D01*
X45979189Y-44348956D01*
X46158663Y-44266480D01*
X46308879Y-43968125D01*
X46406529Y-43615401D01*
X46433488Y-43250398D01*
X46388724Y-42887156D01*
X46273460Y-42538133D01*
X46160240Y-42326312D01*
X45979189Y-42243111D01*
X45979189Y-33426956D01*
X46158663Y-33344480D01*
X46308879Y-33046125D01*
X46406529Y-32693401D01*
X46433488Y-32328398D01*
X46388724Y-31965156D01*
X46273460Y-31616133D01*
X46160240Y-31404312D01*
X45979189Y-31321111D01*
X44926267Y-32374033D01*
X45979189Y-33426956D01*
X45979189Y-42243111D01*
X44926267Y-43296033D01*
X45979189Y-44348956D01*
X45979189Y-66299033D01*
X44538879Y-66299033D01*
X44538879Y-61051891D01*
X44709475Y-61017958D01*
X44870172Y-60951395D01*
X45014790Y-60854764D01*
X45137786Y-60731768D01*
X45234417Y-60587150D01*
X45300980Y-60426453D01*
X45334914Y-60255857D01*
X45334914Y-60081925D01*
X45300980Y-59911330D01*
X45234417Y-59750633D01*
X45137786Y-59606015D01*
X45014790Y-59483019D01*
X44870172Y-59386388D01*
X44709474Y-59319825D01*
X44612691Y-59300573D01*
X44612691Y-45162466D01*
X44975933Y-45117702D01*
X45324956Y-45002438D01*
X45536777Y-44889218D01*
X45619978Y-44708167D01*
X44567056Y-43655244D01*
X44567056Y-42936822D01*
X45619978Y-41883900D01*
X45537502Y-41704426D01*
X45239147Y-41554210D01*
X44886423Y-41456560D01*
X44612691Y-41436342D01*
X44612691Y-34240466D01*
X44975933Y-34195702D01*
X45324956Y-34080438D01*
X45536777Y-33967218D01*
X45619978Y-33786167D01*
X44567056Y-32733244D01*
X44567056Y-32014822D01*
X45619978Y-30961900D01*
X45537502Y-30782426D01*
X45239147Y-30632210D01*
X44886423Y-30534560D01*
X44521420Y-30507601D01*
X44158178Y-30552365D01*
X43809155Y-30667629D01*
X43597334Y-30780849D01*
X43514133Y-30961900D01*
X44567056Y-32014822D01*
X44567056Y-32733244D01*
X43514133Y-33786167D01*
X43596609Y-33965641D01*
X43894964Y-34115857D01*
X44247688Y-34213507D01*
X44612691Y-34240466D01*
X44612691Y-41436342D01*
X44606454Y-41435881D01*
X44521420Y-41429601D01*
X44158178Y-41474365D01*
X43809155Y-41589629D01*
X43597334Y-41702849D01*
X43514133Y-41883900D01*
X44567056Y-42936822D01*
X44567056Y-43655244D01*
X43514133Y-44708167D01*
X43596609Y-44887641D01*
X43894964Y-45037857D01*
X44247688Y-45135507D01*
X44612691Y-45162466D01*
X44612691Y-59300573D01*
X44591032Y-59296265D01*
X44538879Y-59285891D01*
X44364948Y-59285891D01*
X44194352Y-59319825D01*
X44033655Y-59386388D01*
X43889037Y-59483019D01*
X43766041Y-59606015D01*
X43669410Y-59750633D01*
X43602847Y-59911330D01*
X43568914Y-60081925D01*
X43568914Y-60255857D01*
X43602847Y-60426453D01*
X43669410Y-60587150D01*
X43766041Y-60731768D01*
X43889037Y-60854764D01*
X44033655Y-60951395D01*
X44194352Y-61017958D01*
X44364948Y-61051891D01*
X44538879Y-61051891D01*
X44538879Y-66299033D01*
X43154922Y-66299033D01*
X43154922Y-44348956D01*
X44207845Y-43296033D01*
X43154922Y-42243111D01*
X43154922Y-33426956D01*
X44207845Y-32374033D01*
X43154922Y-31321111D01*
X42975448Y-31403587D01*
X42825232Y-31701942D01*
X42727582Y-32054666D01*
X42700623Y-32419669D01*
X42745387Y-32782911D01*
X42860651Y-33131934D01*
X42973871Y-33343755D01*
X43154922Y-33426956D01*
X43154922Y-42243111D01*
X42975448Y-42325587D01*
X42825232Y-42623942D01*
X42727582Y-42976666D01*
X42700623Y-43341669D01*
X42745387Y-43704911D01*
X42860651Y-44053934D01*
X42973871Y-44265755D01*
X43154922Y-44348956D01*
X43154922Y-66299033D01*
X41866648Y-66299033D01*
X41866648Y-58514885D01*
X42066222Y-58475188D01*
X42254218Y-58397318D01*
X42423404Y-58284271D01*
X42567293Y-58140382D01*
X42680340Y-57971196D01*
X42758210Y-57783200D01*
X42797908Y-57583626D01*
X42797908Y-57380144D01*
X42758210Y-57180571D01*
X42680340Y-56992575D01*
X42567293Y-56823389D01*
X42423404Y-56679500D01*
X42254218Y-56566453D01*
X42066222Y-56488583D01*
X41866648Y-56448885D01*
X41663167Y-56448885D01*
X41463593Y-56488583D01*
X41275597Y-56566453D01*
X41106411Y-56679500D01*
X40962522Y-56823389D01*
X40849475Y-56992575D01*
X40771605Y-57180571D01*
X40731908Y-57380144D01*
X40731908Y-57583626D01*
X40771605Y-57783200D01*
X40849475Y-57971196D01*
X40962522Y-58140382D01*
X41106411Y-58284271D01*
X41275597Y-58397318D01*
X41463593Y-58475188D01*
X41663167Y-58514885D01*
X41866648Y-58514885D01*
X41866648Y-66299033D01*
X38214242Y-66299033D01*
X38165641Y-66289366D01*
X38124439Y-66261836D01*
X38096909Y-66220634D01*
X38087242Y-66172033D01*
X38096909Y-66123432D01*
X38279709Y-65682115D01*
X38418056Y-64986600D01*
X38418056Y-64277466D01*
X38279709Y-63581952D01*
X38008333Y-62926793D01*
X37614360Y-62337170D01*
X37112919Y-61835729D01*
X36523296Y-61441756D01*
X35868137Y-61170380D01*
X35172622Y-61032033D01*
X34552056Y-61032033D01*
X34552056Y-52577747D01*
X38118056Y-52577747D01*
X38118056Y-45190318D01*
X34552056Y-45190318D01*
X34552056Y-52577747D01*
X34552056Y-61032033D01*
X34463486Y-61032033D01*
X34449832Y-61034749D01*
X33767974Y-61170380D01*
X33377657Y-61332055D01*
X33329056Y-61341722D01*
X33280455Y-61332055D01*
X33239254Y-61304525D01*
X33211723Y-61263323D01*
X33202056Y-61214722D01*
X33202056Y-35283344D01*
X33211723Y-35234743D01*
G37*
G04 #@! TD.AperFunction*
G04 #@! TD*
G04 #@! TA.AperFunction,Conductor*
G04 #@! TO.N,Board_0-GND*
G36*
X234791064Y-29517668D02*
G01*
X234832266Y-29545197D01*
X234859797Y-29586398D01*
X234869465Y-29634999D01*
X234859798Y-29683600D01*
X234859798Y-29683602D01*
X234800110Y-29827698D01*
X234722944Y-30215641D01*
X234722944Y-30611178D01*
X234800110Y-30999121D01*
X234951478Y-31364556D01*
X235171226Y-31693432D01*
X235450921Y-31973127D01*
X235779797Y-32192875D01*
X236145232Y-32344243D01*
X236533175Y-32421410D01*
X236928713Y-32421410D01*
X237316655Y-32344243D01*
X237682090Y-32192875D01*
X238010966Y-31973127D01*
X238290661Y-31693432D01*
X238510409Y-31364556D01*
X238661777Y-30999121D01*
X238738944Y-30611178D01*
X238738944Y-30215640D01*
X238667361Y-29855768D01*
X238667361Y-29806216D01*
X238686324Y-29760435D01*
X238721364Y-29725395D01*
X238767145Y-29706432D01*
X238802921Y-29704469D01*
X238922055Y-29714827D01*
X238926565Y-29715382D01*
X240924473Y-30034283D01*
X240928932Y-30035159D01*
X242898905Y-30496082D01*
X242903290Y-30497275D01*
X244835286Y-31097874D01*
X244839574Y-31099378D01*
X246723671Y-31836566D01*
X246727841Y-31838372D01*
X248554416Y-32708386D01*
X248558446Y-32710486D01*
X250318139Y-33708866D01*
X250322009Y-33711249D01*
X252005816Y-34832887D01*
X252009505Y-34835540D01*
X253608819Y-36074703D01*
X253612309Y-36077613D01*
X255118928Y-37427949D01*
X255122202Y-37431101D01*
X256528413Y-38885694D01*
X256531452Y-38889073D01*
X257830057Y-40440473D01*
X257832848Y-40444060D01*
X259017225Y-42084362D01*
X259019752Y-42088139D01*
X260083806Y-43808897D01*
X260086056Y-43812845D01*
X261024370Y-45605299D01*
X261026332Y-45609398D01*
X261834084Y-47464346D01*
X261835748Y-47468575D01*
X262508810Y-49376527D01*
X262510168Y-49380864D01*
X263045094Y-51332060D01*
X263046138Y-51336483D01*
X263440186Y-53320913D01*
X263440912Y-53325400D01*
X263450750Y-53404041D01*
X263447190Y-53453466D01*
X263424988Y-53497766D01*
X263387522Y-53530198D01*
X263340497Y-53545824D01*
X263299955Y-53544366D01*
X262993511Y-53483410D01*
X262284377Y-53483410D01*
X261588862Y-53621756D01*
X260933703Y-53893132D01*
X260344080Y-54287105D01*
X259842639Y-54788546D01*
X259448666Y-55378169D01*
X259177290Y-56033328D01*
X259038944Y-56728843D01*
X259038944Y-57437976D01*
X259168766Y-58090633D01*
X259168766Y-58140186D01*
X259149803Y-58185967D01*
X259114764Y-58221007D01*
X259068983Y-58239970D01*
X259044206Y-58242410D01*
X241736857Y-58242410D01*
X241670584Y-58248938D01*
X241663910Y-58249242D01*
X241659670Y-58249212D01*
X241644013Y-58250748D01*
X241521908Y-58263581D01*
X241504279Y-58265317D01*
X241503082Y-58265559D01*
X241404128Y-58275959D01*
X241264169Y-58304689D01*
X241124277Y-58331374D01*
X241109223Y-58335921D01*
X240878809Y-58407245D01*
X240747111Y-58462606D01*
X240615066Y-58515955D01*
X240601162Y-58523349D01*
X240388988Y-58638070D01*
X240270535Y-58717968D01*
X240151381Y-58795938D01*
X240139190Y-58805882D01*
X239953337Y-58959633D01*
X239852661Y-59061016D01*
X239750918Y-59160647D01*
X239740894Y-59172767D01*
X239588443Y-59359690D01*
X239509390Y-59478674D01*
X239428921Y-59596195D01*
X239421440Y-59610033D01*
X239308200Y-59823006D01*
X239253755Y-59955101D01*
X239197657Y-60085984D01*
X239193002Y-60101026D01*
X239123288Y-60331928D01*
X239095537Y-60472082D01*
X239065927Y-60611380D01*
X239064285Y-60627017D01*
X239040138Y-60873282D01*
X239032944Y-60946323D01*
X239032944Y-63388920D01*
X239023277Y-63437521D01*
X238995747Y-63478723D01*
X238954545Y-63506253D01*
X238930721Y-63513480D01*
X238874830Y-63524597D01*
X238627688Y-63626966D01*
X238405272Y-63775580D01*
X238216113Y-63964739D01*
X238101345Y-64136502D01*
X238066306Y-64171541D01*
X238020525Y-64190504D01*
X237970972Y-64190504D01*
X237925191Y-64171540D01*
X237890152Y-64136501D01*
X237886639Y-64130937D01*
X237823412Y-64024793D01*
X237645253Y-63827142D01*
X237431960Y-63668049D01*
X237189043Y-63552345D01*
X237100934Y-63525620D01*
X236984944Y-63586833D01*
X236984944Y-64639344D01*
X236995277Y-64654809D01*
X237004944Y-64703410D01*
X237004944Y-64957410D01*
X236995277Y-65006011D01*
X236967747Y-65047213D01*
X236955757Y-65055223D01*
X236947747Y-65067213D01*
X236906545Y-65094743D01*
X236857944Y-65104410D01*
X236603944Y-65104410D01*
X236555343Y-65094743D01*
X236514141Y-65067213D01*
X236506130Y-65055223D01*
X236494141Y-65047213D01*
X236466611Y-65006011D01*
X236456944Y-64957410D01*
X236456944Y-64703410D01*
X236466611Y-64654809D01*
X236476944Y-64639344D01*
X236476944Y-63586833D01*
X236360953Y-63525620D01*
X236272844Y-63552345D01*
X236132852Y-63619026D01*
X236084817Y-63631198D01*
X236035781Y-63624061D01*
X235993208Y-63598702D01*
X235980067Y-63584936D01*
X235963998Y-63565356D01*
X235939398Y-63545168D01*
X235934778Y-63540980D01*
X234337383Y-61943587D01*
X234333195Y-61938967D01*
X234312997Y-61914355D01*
X234205193Y-61825883D01*
X234082191Y-61760136D01*
X233948736Y-61719653D01*
X233809944Y-61705984D01*
X233778272Y-61709104D01*
X233772044Y-61709410D01*
X218788812Y-61709410D01*
X218740211Y-61699743D01*
X218699009Y-61672213D01*
X214870141Y-57843346D01*
X214842611Y-57802144D01*
X214832944Y-57753543D01*
X214832944Y-51841278D01*
X214842611Y-51792677D01*
X214870141Y-51751476D01*
X214953916Y-51667700D01*
X214995118Y-51640170D01*
X215018943Y-51632942D01*
X215151796Y-51606516D01*
X215317044Y-51538068D01*
X215465757Y-51438701D01*
X215592235Y-51312223D01*
X215691602Y-51163510D01*
X215760050Y-50998262D01*
X215794944Y-50822839D01*
X215794944Y-50643980D01*
X215760050Y-50468557D01*
X215691602Y-50303309D01*
X215638270Y-50223492D01*
X217299944Y-50223492D01*
X217348749Y-50468854D01*
X217444484Y-50699978D01*
X217583471Y-50907986D01*
X217760367Y-51084882D01*
X217968375Y-51223869D01*
X218199499Y-51319604D01*
X218444861Y-51368410D01*
X218695027Y-51368410D01*
X218940388Y-51319604D01*
X219171512Y-51223869D01*
X219379520Y-51084882D01*
X219556416Y-50907986D01*
X219695403Y-50699978D01*
X219791138Y-50468854D01*
X219839944Y-50223492D01*
X219839944Y-49973327D01*
X219791138Y-49727965D01*
X219695403Y-49496841D01*
X219556416Y-49288833D01*
X219379520Y-49111937D01*
X219171512Y-48972950D01*
X218940388Y-48877215D01*
X218695027Y-48828410D01*
X218444861Y-48828410D01*
X218199499Y-48877215D01*
X217968375Y-48972950D01*
X217760367Y-49111937D01*
X217583471Y-49288833D01*
X217444484Y-49496841D01*
X217348749Y-49727965D01*
X217299944Y-49973327D01*
X217299944Y-50223492D01*
X215638270Y-50223492D01*
X215592235Y-50154596D01*
X215465757Y-50028118D01*
X215317044Y-49928751D01*
X215151796Y-49860303D01*
X214976374Y-49825410D01*
X214797514Y-49825410D01*
X214622091Y-49860303D01*
X214456843Y-49928751D01*
X214308130Y-50028118D01*
X214287747Y-50048502D01*
X214246545Y-50076032D01*
X214197944Y-50085699D01*
X214149343Y-50076032D01*
X214108141Y-50048502D01*
X214080611Y-50007300D01*
X214070944Y-49958699D01*
X214070944Y-46507277D01*
X214080611Y-46458676D01*
X214108141Y-46417474D01*
X221074141Y-39451475D01*
X221115343Y-39423945D01*
X221163944Y-39414278D01*
X221212545Y-39423945D01*
X221253747Y-39451475D01*
X221281277Y-39492677D01*
X221290944Y-39541278D01*
X221290945Y-45040124D01*
X221281278Y-45088725D01*
X221269542Y-45110681D01*
X221194285Y-45223309D01*
X221125837Y-45388557D01*
X221090944Y-45563980D01*
X221090944Y-45742839D01*
X221125837Y-45918262D01*
X221194285Y-46083510D01*
X221293652Y-46232223D01*
X221420130Y-46358701D01*
X221568843Y-46458068D01*
X221734090Y-46526516D01*
X221866946Y-46552943D01*
X221912727Y-46571906D01*
X221931972Y-46587700D01*
X223376514Y-48032244D01*
X223380702Y-48036864D01*
X223400890Y-48061464D01*
X223508694Y-48149936D01*
X223631696Y-48215683D01*
X223765151Y-48256166D01*
X223903943Y-48269835D01*
X223935616Y-48266716D01*
X223941844Y-48266410D01*
X227607717Y-48266410D01*
X227656318Y-48276077D01*
X227697520Y-48303607D01*
X227713314Y-48322853D01*
X227743469Y-48367984D01*
X227920367Y-48544882D01*
X228128375Y-48683869D01*
X228194060Y-48711077D01*
X228235262Y-48738608D01*
X228262792Y-48779810D01*
X228272459Y-48828410D01*
X228262792Y-48877011D01*
X228235261Y-48918213D01*
X228194060Y-48945743D01*
X228128375Y-48972950D01*
X227920367Y-49111937D01*
X227743471Y-49288833D01*
X227604484Y-49496841D01*
X227508749Y-49727965D01*
X227459944Y-49973327D01*
X227459944Y-50223492D01*
X227508749Y-50468854D01*
X227604484Y-50699978D01*
X227743471Y-50907986D01*
X227920367Y-51084882D01*
X228128375Y-51223869D01*
X228324427Y-51305077D01*
X228365629Y-51332608D01*
X228393159Y-51373809D01*
X228402826Y-51422410D01*
X228393159Y-51471011D01*
X228365628Y-51512213D01*
X228324427Y-51539743D01*
X228275826Y-51549410D01*
X220961229Y-51549410D01*
X220912628Y-51539743D01*
X220890672Y-51528007D01*
X220778044Y-51452751D01*
X220612796Y-51384303D01*
X220437374Y-51349410D01*
X220258514Y-51349410D01*
X220083091Y-51384303D01*
X219917843Y-51452751D01*
X219769130Y-51552118D01*
X219642652Y-51678596D01*
X219543285Y-51827309D01*
X219474837Y-51992557D01*
X219439944Y-52167980D01*
X219439944Y-52346839D01*
X219474837Y-52522262D01*
X219543285Y-52687510D01*
X219642652Y-52836223D01*
X219769130Y-52962701D01*
X219917843Y-53062068D01*
X220083091Y-53130516D01*
X220258514Y-53165410D01*
X220437374Y-53165410D01*
X220612796Y-53130516D01*
X220778044Y-53062068D01*
X220890672Y-52986813D01*
X220936453Y-52967850D01*
X220961229Y-52965410D01*
X232829077Y-52965410D01*
X232877678Y-52975077D01*
X232918880Y-53002607D01*
X233699747Y-53783475D01*
X233727277Y-53824677D01*
X233736944Y-53873278D01*
X233736945Y-59585476D01*
X233736639Y-59591704D01*
X233733518Y-59623386D01*
X233747187Y-59762177D01*
X233787670Y-59895632D01*
X233853416Y-60018634D01*
X233941890Y-60126439D01*
X233966496Y-60146632D01*
X233971116Y-60150820D01*
X234526654Y-60706359D01*
X234554184Y-60747560D01*
X234561411Y-60771384D01*
X234587837Y-60904239D01*
X234656285Y-61069486D01*
X234755652Y-61218199D01*
X234882130Y-61344677D01*
X235030843Y-61444044D01*
X235196091Y-61512492D01*
X235371514Y-61547386D01*
X235550374Y-61547386D01*
X235725796Y-61512492D01*
X235891044Y-61444044D01*
X236039757Y-61344677D01*
X236166235Y-61218199D01*
X236265602Y-61069486D01*
X236334050Y-60904238D01*
X236368944Y-60728815D01*
X236368944Y-60549956D01*
X236334050Y-60374533D01*
X236265602Y-60209285D01*
X236166235Y-60060572D01*
X236039757Y-59934094D01*
X235891044Y-59834727D01*
X235725797Y-59766279D01*
X235592942Y-59739853D01*
X235547161Y-59720890D01*
X235527917Y-59705096D01*
X235190142Y-59367322D01*
X235162611Y-59326120D01*
X235152944Y-59277519D01*
X235152944Y-58083278D01*
X235162611Y-58034677D01*
X235190141Y-57993475D01*
X235231343Y-57965945D01*
X235279944Y-57956278D01*
X235328545Y-57965945D01*
X235369747Y-57993475D01*
X235796655Y-58420383D01*
X235824185Y-58461585D01*
X235831412Y-58485410D01*
X235857837Y-58618262D01*
X235926285Y-58783510D01*
X236025652Y-58932223D01*
X236152130Y-59058701D01*
X236300843Y-59158068D01*
X236466091Y-59226516D01*
X236641514Y-59261410D01*
X236820374Y-59261410D01*
X236995796Y-59226516D01*
X237161044Y-59158068D01*
X237309757Y-59058701D01*
X237436235Y-58932223D01*
X237535602Y-58783510D01*
X237604050Y-58618262D01*
X237638944Y-58442839D01*
X237638944Y-58263980D01*
X237604050Y-58088557D01*
X237535602Y-57923309D01*
X237436235Y-57774596D01*
X237309757Y-57648118D01*
X237161044Y-57548751D01*
X236995796Y-57480303D01*
X236862944Y-57453878D01*
X236817163Y-57434915D01*
X236797917Y-57419121D01*
X235790151Y-56411356D01*
X235762621Y-56370154D01*
X235752954Y-56321553D01*
X235752954Y-47307320D01*
X235753260Y-47301092D01*
X235756379Y-47269419D01*
X235742710Y-47130627D01*
X235702227Y-46997172D01*
X235636480Y-46874170D01*
X235548010Y-46766368D01*
X235523409Y-46746179D01*
X235518789Y-46741991D01*
X232615207Y-43838410D01*
X240315516Y-43838410D01*
X240315516Y-49404410D01*
X253974373Y-49404410D01*
X253974373Y-43838410D01*
X240315516Y-43838410D01*
X232615207Y-43838410D01*
X232578010Y-43801213D01*
X232523142Y-43746346D01*
X232495612Y-43705145D01*
X232485944Y-43656544D01*
X232485944Y-32505449D01*
X232495611Y-32456848D01*
X232523141Y-32415646D01*
X232564343Y-32388116D01*
X232729090Y-32319875D01*
X233057966Y-32100127D01*
X233337661Y-31820432D01*
X233557409Y-31491556D01*
X233708777Y-31126121D01*
X233785944Y-30738178D01*
X233785944Y-30342641D01*
X233708777Y-29954698D01*
X233596492Y-29683618D01*
X233586825Y-29635017D01*
X233596492Y-29586416D01*
X233624022Y-29545214D01*
X233665224Y-29517684D01*
X233713823Y-29508017D01*
X234742463Y-29508001D01*
X234791064Y-29517668D01*
G37*
G04 #@! TD.AperFunction*
G04 #@! TA.AperFunction,Conductor*
G36*
X211314229Y-38627921D02*
G01*
X211353512Y-38658127D01*
X211378246Y-38701065D01*
X211384945Y-38741768D01*
X211384944Y-58575138D01*
X211384638Y-58581366D01*
X211381518Y-58613038D01*
X211395187Y-58751829D01*
X211435670Y-58885284D01*
X211501416Y-59008285D01*
X211589890Y-59116091D01*
X211614501Y-59136289D01*
X211619121Y-59140477D01*
X214395748Y-61917105D01*
X214423278Y-61958307D01*
X214432945Y-62006908D01*
X214432945Y-63403241D01*
X214423278Y-63451842D01*
X214395748Y-63493044D01*
X214354546Y-63520574D01*
X214305945Y-63530241D01*
X214279724Y-63525028D01*
X214279325Y-63527038D01*
X214004694Y-63472410D01*
X213737194Y-63472410D01*
X213474830Y-63524597D01*
X213227688Y-63626966D01*
X213005272Y-63775580D01*
X212816114Y-63964738D01*
X212706541Y-64128727D01*
X212671501Y-64163767D01*
X212625720Y-64182730D01*
X212576168Y-64182730D01*
X212530387Y-64163767D01*
X212495347Y-64128727D01*
X212385773Y-63964738D01*
X212196615Y-63775580D01*
X211974199Y-63626966D01*
X211727057Y-63524597D01*
X211464694Y-63472410D01*
X211197194Y-63472410D01*
X210934830Y-63524597D01*
X210687688Y-63626966D01*
X210465272Y-63775580D01*
X210276114Y-63964738D01*
X210166541Y-64128727D01*
X210131501Y-64163767D01*
X210085720Y-64182730D01*
X210036168Y-64182730D01*
X209990387Y-64163767D01*
X209955347Y-64128727D01*
X209845773Y-63964738D01*
X209656615Y-63775580D01*
X209434199Y-63626966D01*
X209187057Y-63524597D01*
X209131167Y-63513480D01*
X209085386Y-63494516D01*
X209050347Y-63459477D01*
X209031384Y-63413696D01*
X209028944Y-63388920D01*
X209028944Y-38952430D01*
X209038611Y-38903829D01*
X209066141Y-38862627D01*
X209107343Y-38835097D01*
X209155944Y-38825430D01*
X209204545Y-38835097D01*
X209213564Y-38839253D01*
X209326163Y-38896578D01*
X209706886Y-39003819D01*
X210101220Y-39034722D01*
X210494007Y-38988102D01*
X210871363Y-38865355D01*
X211121188Y-38731822D01*
X211144098Y-38685484D01*
X211174304Y-38646201D01*
X211217242Y-38621467D01*
X211266378Y-38615048D01*
X211314229Y-38627921D01*
G37*
G04 #@! TD.AperFunction*
G04 #@! TA.AperFunction,Conductor*
G36*
X230149857Y-31756634D02*
G01*
X230191059Y-31784164D01*
X230206853Y-31803411D01*
X230218225Y-31820431D01*
X230497921Y-32100127D01*
X230826797Y-32319875D01*
X230991545Y-32388116D01*
X231032747Y-32415647D01*
X231060277Y-32456848D01*
X231069944Y-32505449D01*
X231069945Y-43002544D01*
X231060278Y-43051145D01*
X231032748Y-43092347D01*
X230991546Y-43119877D01*
X230942945Y-43129544D01*
X230894344Y-43119877D01*
X230853142Y-43092347D01*
X229998834Y-42238039D01*
X229971304Y-42196837D01*
X229964077Y-42173012D01*
X229951138Y-42107965D01*
X229855403Y-41876841D01*
X229716416Y-41668833D01*
X229539520Y-41491937D01*
X229331512Y-41352950D01*
X229265828Y-41325743D01*
X229224626Y-41298212D01*
X229197096Y-41257010D01*
X229187429Y-41208410D01*
X229197096Y-41159809D01*
X229224627Y-41118607D01*
X229265828Y-41091077D01*
X229331512Y-41063869D01*
X229539520Y-40924882D01*
X229716416Y-40747986D01*
X229855403Y-40539978D01*
X229951138Y-40308854D01*
X229999944Y-40063492D01*
X229999944Y-39813327D01*
X229951138Y-39567965D01*
X229855403Y-39336841D01*
X229716416Y-39128833D01*
X229539520Y-38951937D01*
X229331512Y-38812950D01*
X229271400Y-38788051D01*
X229230198Y-38760520D01*
X229202668Y-38719318D01*
X229193001Y-38670718D01*
X229202668Y-38622117D01*
X229230199Y-38580915D01*
X229271401Y-38553385D01*
X229276949Y-38551238D01*
X229281235Y-38549693D01*
X229341182Y-38517651D01*
X229373637Y-38401314D01*
X228729944Y-37757621D01*
X228086250Y-38401314D01*
X228117658Y-38513896D01*
X228200747Y-38552967D01*
X228240614Y-38582397D01*
X228266184Y-38624843D01*
X228273565Y-38673843D01*
X228261632Y-38721938D01*
X228232202Y-38761805D01*
X228195304Y-38785228D01*
X228128376Y-38812949D01*
X227920367Y-38951937D01*
X227743471Y-39128833D01*
X227604484Y-39336841D01*
X227508749Y-39567965D01*
X227459944Y-39813327D01*
X227459944Y-40063492D01*
X227508749Y-40308854D01*
X227604484Y-40539978D01*
X227743471Y-40747986D01*
X227920367Y-40924882D01*
X228128375Y-41063869D01*
X228194060Y-41091077D01*
X228235262Y-41118608D01*
X228262792Y-41159810D01*
X228272459Y-41208410D01*
X228262792Y-41257011D01*
X228235261Y-41298213D01*
X228194060Y-41325743D01*
X228128375Y-41352950D01*
X227920367Y-41491937D01*
X227743471Y-41668833D01*
X227604484Y-41876841D01*
X227508749Y-42107965D01*
X227459944Y-42353327D01*
X227459944Y-42603492D01*
X227508749Y-42848854D01*
X227604484Y-43079978D01*
X227743471Y-43287986D01*
X227920367Y-43464882D01*
X228128375Y-43603869D01*
X228359499Y-43699604D01*
X228604861Y-43748410D01*
X228855027Y-43748410D01*
X229100392Y-43699603D01*
X229274771Y-43627373D01*
X229323371Y-43617705D01*
X229371972Y-43627372D01*
X229413174Y-43654902D01*
X229413175Y-43654902D01*
X233699748Y-47941476D01*
X233727278Y-47982678D01*
X233736945Y-48031279D01*
X233736944Y-51543126D01*
X233727277Y-51591727D01*
X233699747Y-51632929D01*
X233658545Y-51660459D01*
X233609944Y-51670126D01*
X233561343Y-51660459D01*
X233550076Y-51655130D01*
X233447191Y-51600136D01*
X233313736Y-51559653D01*
X233174944Y-51545984D01*
X233143272Y-51549104D01*
X233137044Y-51549410D01*
X229184062Y-51549410D01*
X229135461Y-51539743D01*
X229094259Y-51512213D01*
X229066729Y-51471011D01*
X229057062Y-51422410D01*
X229066729Y-51373809D01*
X229094259Y-51332607D01*
X229135461Y-51305077D01*
X229331512Y-51223869D01*
X229539520Y-51084882D01*
X229716416Y-50907986D01*
X229855403Y-50699978D01*
X229951138Y-50468854D01*
X229999944Y-50223492D01*
X229999944Y-49973327D01*
X229951138Y-49727965D01*
X229855403Y-49496841D01*
X229716416Y-49288833D01*
X229539520Y-49111937D01*
X229331512Y-48972950D01*
X229265828Y-48945743D01*
X229224626Y-48918212D01*
X229197096Y-48877010D01*
X229187429Y-48828410D01*
X229197096Y-48779809D01*
X229224627Y-48738607D01*
X229265828Y-48711077D01*
X229331512Y-48683869D01*
X229539520Y-48544882D01*
X229716416Y-48367986D01*
X229855403Y-48159978D01*
X229951138Y-47928854D01*
X229999944Y-47683492D01*
X229999944Y-47433327D01*
X229951138Y-47187965D01*
X229855403Y-46956841D01*
X229716416Y-46748833D01*
X229539520Y-46571937D01*
X229331512Y-46432950D01*
X229100388Y-46337215D01*
X228855027Y-46288410D01*
X228604861Y-46288410D01*
X228359499Y-46337215D01*
X228128375Y-46432950D01*
X227920367Y-46571937D01*
X227743469Y-46748835D01*
X227713314Y-46793967D01*
X227678275Y-46829006D01*
X227632494Y-46847970D01*
X227607717Y-46850410D01*
X224249813Y-46850410D01*
X224201212Y-46840743D01*
X224160010Y-46813213D01*
X222933234Y-45586438D01*
X222905704Y-45545236D01*
X222898477Y-45521412D01*
X222872050Y-45388556D01*
X222803602Y-45223309D01*
X222728347Y-45110682D01*
X222709384Y-45064901D01*
X222706944Y-45040125D01*
X222706944Y-39141277D01*
X222716611Y-39092676D01*
X222744141Y-39051474D01*
X224331732Y-37463883D01*
X227455480Y-37463883D01*
X227492741Y-37711257D01*
X227578660Y-37949701D01*
X227610702Y-38009648D01*
X227727039Y-38042103D01*
X228370733Y-37398410D01*
X229089155Y-37398410D01*
X229732848Y-38042103D01*
X229845430Y-38010695D01*
X229932448Y-37825640D01*
X229992691Y-37582832D01*
X230004407Y-37332936D01*
X229967146Y-37085562D01*
X229881227Y-36847118D01*
X229849185Y-36787171D01*
X229732848Y-36754716D01*
X229089155Y-37398410D01*
X228370733Y-37398410D01*
X227727039Y-36754716D01*
X227614457Y-36786124D01*
X227527439Y-36971179D01*
X227467196Y-37213987D01*
X227455480Y-37463883D01*
X224331732Y-37463883D01*
X224414991Y-37380624D01*
X227262643Y-34532974D01*
X227303845Y-34505444D01*
X227352446Y-34495777D01*
X227401047Y-34505444D01*
X227442249Y-34532974D01*
X227469779Y-34574176D01*
X227479446Y-34622777D01*
X227477006Y-34647554D01*
X227459944Y-34733328D01*
X227459944Y-34983492D01*
X227508749Y-35228854D01*
X227604484Y-35459978D01*
X227743471Y-35667986D01*
X227920367Y-35844882D01*
X228128375Y-35983869D01*
X228188488Y-36008769D01*
X228229690Y-36036300D01*
X228257220Y-36077502D01*
X228266887Y-36126102D01*
X228257220Y-36174703D01*
X228229689Y-36215905D01*
X228188487Y-36243435D01*
X228182939Y-36245582D01*
X228178652Y-36247126D01*
X228118705Y-36279168D01*
X228086250Y-36395505D01*
X228729944Y-37039199D01*
X229373637Y-36395505D01*
X229342229Y-36282923D01*
X229259141Y-36243853D01*
X229219274Y-36214423D01*
X229193704Y-36171977D01*
X229186323Y-36122977D01*
X229198256Y-36074882D01*
X229227686Y-36035015D01*
X229264584Y-36011592D01*
X229331511Y-35983870D01*
X229539520Y-35844882D01*
X229716416Y-35667986D01*
X229855403Y-35459978D01*
X229951138Y-35228854D01*
X229999944Y-34983492D01*
X229999944Y-34733327D01*
X229951138Y-34487965D01*
X229855403Y-34256841D01*
X229716416Y-34048833D01*
X229539520Y-33871937D01*
X229331512Y-33732950D01*
X229100388Y-33637215D01*
X228855027Y-33588410D01*
X228604863Y-33588410D01*
X228519088Y-33605472D01*
X228469535Y-33605472D01*
X228423754Y-33586509D01*
X228388715Y-33551470D01*
X228369751Y-33505689D01*
X228369751Y-33456136D01*
X228388714Y-33410355D01*
X228404508Y-33391109D01*
X230011453Y-31784164D01*
X230052655Y-31756634D01*
X230101256Y-31746967D01*
X230149857Y-31756634D01*
G37*
G04 #@! TD.AperFunction*
G04 #@! TA.AperFunction,Conductor*
G36*
X224810604Y-29517825D02*
G01*
X224851806Y-29545354D01*
X224879337Y-29586555D01*
X224889005Y-29635156D01*
X224879338Y-29683757D01*
X224879338Y-29683759D01*
X224767110Y-29954698D01*
X224689944Y-30342641D01*
X224689944Y-30738178D01*
X224767110Y-31126121D01*
X224918478Y-31491556D01*
X225138226Y-31820432D01*
X225417921Y-32100127D01*
X225746799Y-32319876D01*
X225893932Y-32380820D01*
X225935134Y-32408350D01*
X225962665Y-32449552D01*
X225972332Y-32498153D01*
X225962665Y-32546753D01*
X225935135Y-32587955D01*
X225935135Y-32587956D01*
X213687736Y-44835357D01*
X213646534Y-44862887D01*
X213597933Y-44872554D01*
X213549332Y-44862887D01*
X213508130Y-44835357D01*
X213480600Y-44794155D01*
X213470933Y-44745554D01*
X213470933Y-37619968D01*
X213480600Y-37571367D01*
X213508130Y-37530165D01*
X216054803Y-34983492D01*
X217299944Y-34983492D01*
X217348749Y-35228854D01*
X217444484Y-35459978D01*
X217583471Y-35667986D01*
X217760367Y-35844882D01*
X217968375Y-35983869D01*
X218199499Y-36079604D01*
X218444861Y-36128410D01*
X218695027Y-36128410D01*
X218940388Y-36079604D01*
X219171512Y-35983869D01*
X219379520Y-35844882D01*
X219556416Y-35667986D01*
X219695403Y-35459978D01*
X219791138Y-35228854D01*
X219839944Y-34983492D01*
X219839944Y-34733327D01*
X219791138Y-34487965D01*
X219695403Y-34256841D01*
X219556416Y-34048833D01*
X219379520Y-33871937D01*
X219171512Y-33732950D01*
X218940388Y-33637215D01*
X218695027Y-33588410D01*
X218444861Y-33588410D01*
X218199499Y-33637215D01*
X217968375Y-33732950D01*
X217760367Y-33871937D01*
X217583471Y-34048833D01*
X217444484Y-34256841D01*
X217348749Y-34487965D01*
X217299944Y-34733327D01*
X217299944Y-34983492D01*
X216054803Y-34983492D01*
X216407280Y-34631015D01*
X219618631Y-31419665D01*
X219659833Y-31392135D01*
X219708434Y-31382468D01*
X219757035Y-31392135D01*
X219798237Y-31419665D01*
X219825767Y-31460867D01*
X219838478Y-31491556D01*
X220058226Y-31820432D01*
X220337921Y-32100127D01*
X220666797Y-32319875D01*
X221032232Y-32471243D01*
X221420175Y-32548410D01*
X221815713Y-32548410D01*
X222203655Y-32471243D01*
X222569090Y-32319875D01*
X222897966Y-32100127D01*
X223177661Y-31820432D01*
X223397409Y-31491556D01*
X223548777Y-31126121D01*
X223625944Y-30738178D01*
X223625944Y-30342641D01*
X223548777Y-29954698D01*
X223436558Y-29683778D01*
X223426891Y-29635177D01*
X223436558Y-29586576D01*
X223464088Y-29545374D01*
X223505290Y-29517844D01*
X223553889Y-29508177D01*
X224762003Y-29508158D01*
X224810604Y-29517825D01*
G37*
G04 #@! TD.AperFunction*
G04 #@! TA.AperFunction,Conductor*
G36*
X214650537Y-29517985D02*
G01*
X214691739Y-29545514D01*
X214719270Y-29586715D01*
X214728938Y-29635316D01*
X214719271Y-29683917D01*
X214719271Y-29683919D01*
X214607110Y-29954698D01*
X214529944Y-30342641D01*
X214529944Y-30738178D01*
X214607110Y-31126121D01*
X214758478Y-31491556D01*
X214978226Y-31820432D01*
X215257920Y-32100126D01*
X215274946Y-32111503D01*
X215309985Y-32146543D01*
X215328947Y-32192324D01*
X215328946Y-32241877D01*
X215309983Y-32287658D01*
X215294190Y-32306902D01*
X211751828Y-35849265D01*
X211710626Y-35876795D01*
X211662025Y-35886462D01*
X211613424Y-35876795D01*
X211605740Y-35873309D01*
X211577980Y-35859584D01*
X210375653Y-37061911D01*
X210372025Y-37080154D01*
X210344495Y-37121356D01*
X210164890Y-37300961D01*
X210123688Y-37328491D01*
X210075087Y-37338158D01*
X210060945Y-37335345D01*
X210046806Y-37338158D01*
X209998205Y-37328492D01*
X209957003Y-37300964D01*
X209956999Y-37300961D01*
X209777394Y-37121356D01*
X209749864Y-37080154D01*
X209740197Y-37031553D01*
X209743010Y-37017410D01*
X209740197Y-37003268D01*
X209749864Y-36954667D01*
X209777394Y-36913465D01*
X209956999Y-36733860D01*
X209998201Y-36706330D01*
X210016441Y-36702701D01*
X211218769Y-35500373D01*
X211121810Y-35304254D01*
X210795724Y-35138241D01*
X210415001Y-35031000D01*
X210020667Y-35000097D01*
X209627880Y-35046717D01*
X209250524Y-35169464D01*
X209215811Y-35188019D01*
X209168392Y-35202404D01*
X209119077Y-35197546D01*
X209075376Y-35174187D01*
X209043940Y-35135882D01*
X209029555Y-35088463D01*
X209028944Y-35076015D01*
X209028944Y-34160410D01*
X209038611Y-34111809D01*
X209066141Y-34070607D01*
X209107343Y-34043077D01*
X209155944Y-34033410D01*
X209180721Y-34035850D01*
X209706377Y-34140410D01*
X210415511Y-34140410D01*
X211111025Y-34002063D01*
X211766184Y-33730687D01*
X212355807Y-33336714D01*
X212857248Y-32835273D01*
X213251221Y-32245650D01*
X213522597Y-31590491D01*
X213660944Y-30894976D01*
X213660944Y-30185843D01*
X213556369Y-29660110D01*
X213556369Y-29610557D01*
X213575332Y-29564776D01*
X213610372Y-29529736D01*
X213656152Y-29510773D01*
X213680927Y-29508333D01*
X214601936Y-29508318D01*
X214650537Y-29517985D01*
G37*
G04 #@! TD.AperFunction*
G04 #@! TD*
G04 #@! TA.AperFunction,Conductor*
G04 #@! TO.N,Board_3-GND*
G36*
X188664856Y-33921700D02*
G01*
X188706058Y-33949230D01*
X188733588Y-33990432D01*
X188743255Y-34039033D01*
X188733588Y-34087634D01*
X188571912Y-34477951D01*
X188433566Y-35173466D01*
X188433566Y-35882599D01*
X188571912Y-36578114D01*
X188843288Y-37233273D01*
X189237261Y-37822896D01*
X189738702Y-38324337D01*
X190328325Y-38718310D01*
X190983484Y-38989686D01*
X191678999Y-39128033D01*
X192388133Y-39128033D01*
X193083647Y-38989686D01*
X193473965Y-38828011D01*
X193522566Y-38818344D01*
X193571167Y-38828011D01*
X193612368Y-38855541D01*
X193639899Y-38896743D01*
X193649566Y-38945344D01*
X193649566Y-40619422D01*
X193639899Y-40668023D01*
X193612369Y-40709225D01*
X193571167Y-40736755D01*
X193522566Y-40746422D01*
X193485700Y-40740953D01*
X193252788Y-40670299D01*
X193016557Y-40647033D01*
X191558575Y-40647033D01*
X191322343Y-40670299D01*
X191019235Y-40762246D01*
X190739886Y-40911561D01*
X190495036Y-41112503D01*
X190294094Y-41357353D01*
X190144779Y-41636702D01*
X190052832Y-41939810D01*
X190021786Y-42255033D01*
X190052832Y-42570255D01*
X190144779Y-42873363D01*
X190294094Y-43152712D01*
X190495036Y-43397562D01*
X190677157Y-43547024D01*
X190708593Y-43585329D01*
X190722977Y-43632748D01*
X190718120Y-43682062D01*
X190701708Y-43716462D01*
X190677564Y-43752074D01*
X190581453Y-43979759D01*
X190579045Y-43991926D01*
X190641531Y-44101033D01*
X192096500Y-44101033D01*
X192111965Y-44090700D01*
X192160566Y-44081033D01*
X192414566Y-44081033D01*
X192463167Y-44090700D01*
X192504369Y-44118230D01*
X192512379Y-44130219D01*
X192524369Y-44138230D01*
X192551899Y-44179432D01*
X192561566Y-44228033D01*
X192561566Y-44482033D01*
X192551899Y-44530634D01*
X192524369Y-44571836D01*
X192512379Y-44579846D01*
X192504369Y-44591836D01*
X192463167Y-44619366D01*
X192414566Y-44629033D01*
X192160566Y-44629033D01*
X192111965Y-44619366D01*
X192096500Y-44609033D01*
X190641531Y-44609033D01*
X190579045Y-44718139D01*
X190581453Y-44730306D01*
X190677563Y-44957988D01*
X190816520Y-45162952D01*
X190916171Y-45261270D01*
X190943978Y-45302285D01*
X190953972Y-45350820D01*
X190944632Y-45399485D01*
X190917380Y-45440871D01*
X190907541Y-45449849D01*
X190893720Y-45461191D01*
X190736516Y-45652743D01*
X190619701Y-45871289D01*
X190547767Y-46108422D01*
X190523479Y-46355033D01*
X190547767Y-46601643D01*
X190619701Y-46838776D01*
X190738510Y-47061052D01*
X190752894Y-47108471D01*
X190748037Y-47157785D01*
X190724678Y-47201487D01*
X190707073Y-47219092D01*
X190676617Y-47244085D01*
X190613137Y-47321435D01*
X190565962Y-47409692D01*
X190536917Y-47505442D01*
X190526494Y-47611277D01*
X190526494Y-49098798D01*
X190536962Y-49205081D01*
X190532105Y-49254395D01*
X190508746Y-49298097D01*
X190498233Y-49308608D01*
X190294094Y-49557353D01*
X190144779Y-49836702D01*
X190052832Y-50139810D01*
X190021786Y-50455033D01*
X190052832Y-50770255D01*
X190144779Y-51073363D01*
X190294094Y-51352712D01*
X190495036Y-51597562D01*
X190739886Y-51798504D01*
X191019235Y-51947819D01*
X191322343Y-52039766D01*
X191558575Y-52063033D01*
X193016557Y-52063033D01*
X193252788Y-52039766D01*
X193485701Y-51969113D01*
X193535015Y-51964256D01*
X193582434Y-51978640D01*
X193620739Y-52010076D01*
X193644098Y-52053778D01*
X193649567Y-52090644D01*
X193649567Y-61528159D01*
X193649264Y-61534359D01*
X193624033Y-61791685D01*
X193619219Y-61815999D01*
X193568610Y-61983623D01*
X193559164Y-62006539D01*
X193476963Y-62161137D01*
X193463247Y-62181782D01*
X193352583Y-62317470D01*
X193335118Y-62335057D01*
X193200205Y-62446666D01*
X193179657Y-62460526D01*
X193025635Y-62543806D01*
X193002784Y-62553412D01*
X192835517Y-62605189D01*
X192811238Y-62610172D01*
X192558992Y-62636685D01*
X192552350Y-62637033D01*
X190219638Y-62637033D01*
X190171037Y-62627366D01*
X190129835Y-62599836D01*
X190102305Y-62558634D01*
X190092638Y-62510033D01*
X190092638Y-62271828D01*
X190102305Y-62223227D01*
X190129835Y-62182025D01*
X190129836Y-62182025D01*
X190856396Y-61455466D01*
X190861016Y-61451278D01*
X190885621Y-61431085D01*
X190974092Y-61323282D01*
X191039839Y-61200280D01*
X191080320Y-61066830D01*
X191093990Y-60928030D01*
X191090872Y-60896372D01*
X191090566Y-60890144D01*
X191090566Y-55885933D01*
X191090872Y-55879705D01*
X191093991Y-55848032D01*
X191080322Y-55709246D01*
X191039836Y-55575781D01*
X190974092Y-55452783D01*
X190885620Y-55344979D01*
X190861020Y-55324791D01*
X190856400Y-55320603D01*
X187645048Y-52109254D01*
X187617518Y-52068052D01*
X187607851Y-52019451D01*
X187610291Y-51994674D01*
X187626566Y-51912857D01*
X187626566Y-51655208D01*
X187576299Y-51402503D01*
X187477699Y-51164461D01*
X187334557Y-50950234D01*
X187152364Y-50768041D01*
X186930250Y-50619630D01*
X186895210Y-50584591D01*
X186876247Y-50538810D01*
X186876247Y-50489257D01*
X186895210Y-50443476D01*
X186930249Y-50408436D01*
X186930250Y-50408436D01*
X187152364Y-50260024D01*
X187334557Y-50077831D01*
X187477699Y-49863604D01*
X187576299Y-49625562D01*
X187626566Y-49372857D01*
X187626566Y-49115208D01*
X187576299Y-48862503D01*
X187477699Y-48624461D01*
X187334557Y-48410234D01*
X187152364Y-48228041D01*
X186928881Y-48078715D01*
X186893841Y-48043676D01*
X186874878Y-47997895D01*
X186874878Y-47948342D01*
X186893841Y-47902561D01*
X186928880Y-47867521D01*
X186939570Y-47861114D01*
X186953218Y-47853818D01*
X186988589Y-47733267D01*
X186318566Y-47063244D01*
X185648542Y-47733267D01*
X185682873Y-47850276D01*
X185695878Y-47856430D01*
X185735674Y-47885956D01*
X185761142Y-47928463D01*
X185768404Y-47977481D01*
X185756355Y-48025547D01*
X185726829Y-48065343D01*
X185708658Y-48076846D01*
X185709396Y-48077950D01*
X185484767Y-48228041D01*
X185302574Y-48410234D01*
X185159432Y-48624461D01*
X185060832Y-48862503D01*
X185034220Y-48996294D01*
X185015257Y-49042075D01*
X184990228Y-49069690D01*
X184926510Y-49121981D01*
X184906320Y-49146584D01*
X184902132Y-49151204D01*
X180785140Y-53268198D01*
X180743938Y-53295728D01*
X180695337Y-53305395D01*
X180646736Y-53295728D01*
X180605534Y-53268198D01*
X180597164Y-53258963D01*
X180559510Y-53213082D01*
X180482163Y-53149604D01*
X180393906Y-53102429D01*
X180298156Y-53073384D01*
X180192322Y-53062961D01*
X177204810Y-53062961D01*
X177098975Y-53073384D01*
X177003222Y-53102430D01*
X176966454Y-53122084D01*
X176921301Y-53135780D01*
X176909707Y-53153133D01*
X176900472Y-53161502D01*
X176837617Y-53213084D01*
X176774137Y-53290435D01*
X176726962Y-53378692D01*
X176697917Y-53474442D01*
X176687494Y-53580277D01*
X176687494Y-55067788D01*
X176697917Y-55173623D01*
X176726962Y-55269373D01*
X176774137Y-55357630D01*
X176837617Y-55434981D01*
X176914968Y-55498461D01*
X176985252Y-55536029D01*
X177023557Y-55567466D01*
X177046916Y-55611168D01*
X177051772Y-55660482D01*
X177037388Y-55707901D01*
X177005951Y-55746206D01*
X176962249Y-55769565D01*
X176925384Y-55775033D01*
X167106435Y-55775033D01*
X167057834Y-55765366D01*
X167016632Y-55737836D01*
X162752763Y-51473969D01*
X162725233Y-51432767D01*
X162715566Y-51384166D01*
X162715566Y-51313603D01*
X162680672Y-51138180D01*
X162612224Y-50972932D01*
X162512857Y-50824219D01*
X162386379Y-50697741D01*
X162237666Y-50598374D01*
X162072418Y-50529926D01*
X161896996Y-50495033D01*
X161718136Y-50495033D01*
X161542713Y-50529926D01*
X161377465Y-50598374D01*
X161228752Y-50697741D01*
X161102274Y-50824219D01*
X161002907Y-50972932D01*
X160934459Y-51138180D01*
X160899566Y-51313603D01*
X160899566Y-51492462D01*
X160934459Y-51667885D01*
X161002907Y-51833133D01*
X161102274Y-51981846D01*
X161228752Y-52108324D01*
X161377465Y-52207691D01*
X161535929Y-52273329D01*
X161577131Y-52300859D01*
X166233136Y-56956867D01*
X166237324Y-56961487D01*
X166257512Y-56986087D01*
X166365316Y-57074559D01*
X166488318Y-57140306D01*
X166621773Y-57180789D01*
X166760565Y-57194458D01*
X166792238Y-57191339D01*
X166798466Y-57191033D01*
X178987699Y-57191033D01*
X179036300Y-57200700D01*
X179077502Y-57228230D01*
X179096369Y-57247097D01*
X179123899Y-57288299D01*
X179133566Y-57336900D01*
X179133566Y-58357864D01*
X179123899Y-58406465D01*
X179096369Y-58447667D01*
X179055167Y-58475197D01*
X179006566Y-58484864D01*
X178980347Y-58479648D01*
X178979947Y-58481661D01*
X178705316Y-58427033D01*
X178437816Y-58427033D01*
X178175452Y-58479220D01*
X177928310Y-58581589D01*
X177705894Y-58730203D01*
X177516736Y-58919361D01*
X177407163Y-59083350D01*
X177372123Y-59118390D01*
X177326342Y-59137353D01*
X177276790Y-59137353D01*
X177231009Y-59118390D01*
X177195969Y-59083350D01*
X177086395Y-58919361D01*
X176897237Y-58730203D01*
X176674821Y-58581589D01*
X176427679Y-58479220D01*
X176165316Y-58427033D01*
X175897816Y-58427033D01*
X175635452Y-58479220D01*
X175388310Y-58581589D01*
X175165894Y-58730203D01*
X174976736Y-58919361D01*
X174867163Y-59083350D01*
X174832123Y-59118390D01*
X174786342Y-59137353D01*
X174736790Y-59137353D01*
X174691009Y-59118390D01*
X174655969Y-59083350D01*
X174546395Y-58919361D01*
X174357237Y-58730203D01*
X174134821Y-58581589D01*
X173887679Y-58479220D01*
X173625316Y-58427033D01*
X173357816Y-58427033D01*
X173095452Y-58479220D01*
X172848310Y-58581589D01*
X172625894Y-58730203D01*
X172436736Y-58919361D01*
X172327163Y-59083350D01*
X172292123Y-59118390D01*
X172246342Y-59137353D01*
X172196790Y-59137353D01*
X172151009Y-59118390D01*
X172115969Y-59083350D01*
X172006395Y-58919361D01*
X171817237Y-58730203D01*
X171594821Y-58581589D01*
X171347679Y-58479220D01*
X171085316Y-58427033D01*
X170817816Y-58427033D01*
X170555452Y-58479220D01*
X170308310Y-58581589D01*
X170085894Y-58730203D01*
X169896736Y-58919361D01*
X169787163Y-59083350D01*
X169752123Y-59118390D01*
X169706342Y-59137353D01*
X169656790Y-59137353D01*
X169611009Y-59118390D01*
X169575969Y-59083350D01*
X169466395Y-58919361D01*
X169277237Y-58730203D01*
X169054821Y-58581589D01*
X168807679Y-58479220D01*
X168545316Y-58427033D01*
X168277816Y-58427033D01*
X168015452Y-58479220D01*
X167768310Y-58581589D01*
X167545894Y-58730203D01*
X167356736Y-58919361D01*
X167247163Y-59083350D01*
X167212123Y-59118390D01*
X167166342Y-59137353D01*
X167116790Y-59137353D01*
X167071009Y-59118390D01*
X167035969Y-59083350D01*
X166926395Y-58919361D01*
X166737237Y-58730203D01*
X166514821Y-58581589D01*
X166267679Y-58479220D01*
X166005316Y-58427033D01*
X165737816Y-58427033D01*
X165475452Y-58479220D01*
X165228310Y-58581589D01*
X165005894Y-58730203D01*
X164816736Y-58919361D01*
X164707163Y-59083350D01*
X164672123Y-59118390D01*
X164626342Y-59137353D01*
X164576790Y-59137353D01*
X164531009Y-59118390D01*
X164495969Y-59083350D01*
X164386395Y-58919361D01*
X164197237Y-58730203D01*
X163974821Y-58581589D01*
X163727679Y-58479220D01*
X163465316Y-58427033D01*
X163197816Y-58427033D01*
X162935452Y-58479220D01*
X162688310Y-58581589D01*
X162465894Y-58730203D01*
X162276736Y-58919361D01*
X162167163Y-59083350D01*
X162132123Y-59118390D01*
X162086342Y-59137353D01*
X162036790Y-59137353D01*
X161991009Y-59118390D01*
X161955969Y-59083350D01*
X161846395Y-58919361D01*
X161657237Y-58730203D01*
X161434821Y-58581589D01*
X161187679Y-58479220D01*
X160925316Y-58427033D01*
X160657816Y-58427033D01*
X160395452Y-58479220D01*
X160148310Y-58581589D01*
X159925894Y-58730203D01*
X159736736Y-58919361D01*
X159627163Y-59083350D01*
X159592123Y-59118390D01*
X159546342Y-59137353D01*
X159496790Y-59137353D01*
X159451009Y-59118390D01*
X159415969Y-59083350D01*
X159306395Y-58919361D01*
X159117237Y-58730203D01*
X158894821Y-58581589D01*
X158647679Y-58479220D01*
X158385316Y-58427033D01*
X158117816Y-58427033D01*
X157855452Y-58479220D01*
X157776167Y-58512062D01*
X157727566Y-58521729D01*
X157678965Y-58512062D01*
X157637763Y-58484532D01*
X157610233Y-58443330D01*
X157600566Y-58394729D01*
X157600566Y-46920462D01*
X160645566Y-46920462D01*
X160680459Y-47095885D01*
X160748907Y-47261133D01*
X160848274Y-47409846D01*
X160974752Y-47536324D01*
X161123465Y-47635691D01*
X161288712Y-47704139D01*
X161421568Y-47730566D01*
X161467349Y-47749529D01*
X161486594Y-47765323D01*
X163312132Y-49590862D01*
X163316320Y-49595482D01*
X163336512Y-49620087D01*
X163444316Y-49708559D01*
X163567318Y-49774306D01*
X163700773Y-49814789D01*
X163839564Y-49828458D01*
X163871239Y-49825339D01*
X163877466Y-49825033D01*
X172764699Y-49825033D01*
X172813300Y-49834700D01*
X172854502Y-49862230D01*
X174813369Y-51821098D01*
X174840899Y-51862300D01*
X174850566Y-51910901D01*
X174850566Y-51912857D01*
X174900832Y-52165562D01*
X174999432Y-52403604D01*
X175142574Y-52617831D01*
X175324767Y-52800024D01*
X175538994Y-52943166D01*
X175777036Y-53041766D01*
X176029741Y-53092033D01*
X176287391Y-53092033D01*
X176540095Y-53041766D01*
X176771303Y-52945997D01*
X176802970Y-52939698D01*
X176808415Y-52929512D01*
X176836030Y-52904483D01*
X176992364Y-52800024D01*
X177174557Y-52617831D01*
X177317699Y-52403604D01*
X177416299Y-52165562D01*
X177466566Y-51912857D01*
X177466566Y-51655208D01*
X177416299Y-51402503D01*
X177317699Y-51164461D01*
X177174557Y-50950234D01*
X176992364Y-50768041D01*
X176770250Y-50619630D01*
X176735210Y-50584591D01*
X176716247Y-50538810D01*
X176716247Y-50489257D01*
X176735210Y-50443476D01*
X176770249Y-50408436D01*
X176770250Y-50408436D01*
X176992364Y-50260024D01*
X177174557Y-50077831D01*
X177317699Y-49863604D01*
X177416299Y-49625562D01*
X177466566Y-49372857D01*
X177466566Y-49115208D01*
X177416299Y-48862503D01*
X177317699Y-48624461D01*
X177174557Y-48410234D01*
X176992364Y-48228041D01*
X176770250Y-48079630D01*
X176735210Y-48044591D01*
X176716247Y-47998810D01*
X176716247Y-47949257D01*
X176735210Y-47903476D01*
X176770249Y-47868436D01*
X176770250Y-47868436D01*
X176992364Y-47720024D01*
X177174557Y-47537831D01*
X177317699Y-47323604D01*
X177416299Y-47085562D01*
X177466566Y-46832857D01*
X177466566Y-46768302D01*
X185005810Y-46768302D01*
X185043575Y-47023179D01*
X185131387Y-47268728D01*
X185168780Y-47338685D01*
X185289331Y-47374056D01*
X185959355Y-46704033D01*
X186677777Y-46704033D01*
X187347800Y-47374056D01*
X187464809Y-47339725D01*
X187555988Y-47147027D01*
X187618635Y-46897102D01*
X187631321Y-46639763D01*
X187593556Y-46384886D01*
X187505744Y-46139337D01*
X187468351Y-46069380D01*
X187347800Y-46034009D01*
X186677777Y-46704033D01*
X185959355Y-46704033D01*
X185289331Y-46034009D01*
X185172322Y-46068340D01*
X185081143Y-46261038D01*
X185018496Y-46510963D01*
X185005810Y-46768302D01*
X177466566Y-46768302D01*
X177466566Y-46575208D01*
X177416299Y-46322503D01*
X177317699Y-46084461D01*
X177174557Y-45870234D01*
X176992364Y-45688041D01*
X176972544Y-45674798D01*
X185648542Y-45674798D01*
X186318566Y-46344822D01*
X186988589Y-45674798D01*
X186954258Y-45557789D01*
X186761560Y-45466610D01*
X186511635Y-45403963D01*
X186254296Y-45391277D01*
X185999419Y-45429042D01*
X185753868Y-45516855D01*
X185717895Y-45536084D01*
X185686443Y-45545625D01*
X185648542Y-45674798D01*
X176972544Y-45674798D01*
X176934675Y-45649495D01*
X176899636Y-45614456D01*
X176880672Y-45568675D01*
X176880672Y-45519122D01*
X176899635Y-45473341D01*
X176934674Y-45438302D01*
X176980455Y-45419338D01*
X177017679Y-45417509D01*
X177094809Y-45425105D01*
X180082322Y-45425105D01*
X180188156Y-45414681D01*
X180283906Y-45385636D01*
X180372163Y-45338461D01*
X180449514Y-45274981D01*
X180512994Y-45197630D01*
X180560169Y-45109373D01*
X180589214Y-45013623D01*
X180599638Y-44907788D01*
X181767494Y-44907788D01*
X181777917Y-45013623D01*
X181806962Y-45109373D01*
X181854137Y-45197630D01*
X181917617Y-45274981D01*
X181994968Y-45338461D01*
X182083225Y-45385636D01*
X182178975Y-45414681D01*
X182284810Y-45425105D01*
X185272322Y-45425105D01*
X185378156Y-45414681D01*
X185473910Y-45385634D01*
X185514698Y-45363833D01*
X185555630Y-45351415D01*
X185559854Y-45343514D01*
X185577459Y-45325909D01*
X185639513Y-45274981D01*
X185702994Y-45197630D01*
X185750169Y-45109373D01*
X185779214Y-45013623D01*
X185789638Y-44907788D01*
X185789638Y-43420277D01*
X185779214Y-43314442D01*
X185750169Y-43218692D01*
X185702994Y-43130435D01*
X185639514Y-43053084D01*
X185562163Y-42989604D01*
X185473906Y-42942429D01*
X185378156Y-42913384D01*
X185272322Y-42902961D01*
X182284810Y-42902961D01*
X182178975Y-42913384D01*
X182083225Y-42942429D01*
X181994968Y-42989604D01*
X181917617Y-43053084D01*
X181854137Y-43130435D01*
X181806962Y-43218692D01*
X181777917Y-43314442D01*
X181767494Y-43420277D01*
X181767494Y-44907788D01*
X180599638Y-44907788D01*
X180599638Y-43420277D01*
X180589214Y-43314442D01*
X180560169Y-43218692D01*
X180512994Y-43130435D01*
X180449514Y-43053084D01*
X180372163Y-42989604D01*
X180283906Y-42942429D01*
X180188156Y-42913384D01*
X180082322Y-42902961D01*
X177094810Y-42902961D01*
X176988975Y-42913384D01*
X176893225Y-42942429D01*
X176804968Y-42989604D01*
X176727617Y-43053084D01*
X176664137Y-43130435D01*
X176616962Y-43218692D01*
X176587917Y-43314442D01*
X176577494Y-43420277D01*
X176577494Y-44907788D01*
X176587917Y-45013623D01*
X176616962Y-45109373D01*
X176664137Y-45197630D01*
X176715554Y-45260281D01*
X176738913Y-45303983D01*
X176743770Y-45353297D01*
X176729386Y-45400717D01*
X176697950Y-45439021D01*
X176654248Y-45462380D01*
X176604934Y-45467237D01*
X176568781Y-45458181D01*
X176540099Y-45446300D01*
X176287391Y-45396033D01*
X176029741Y-45396033D01*
X175777036Y-45446299D01*
X175538994Y-45544899D01*
X175324767Y-45688041D01*
X175142574Y-45870234D01*
X174999432Y-46084461D01*
X174900832Y-46322503D01*
X174850566Y-46575208D01*
X174850566Y-46832857D01*
X174900832Y-47085562D01*
X174999432Y-47323604D01*
X175005054Y-47332017D01*
X175024017Y-47377798D01*
X175024017Y-47427351D01*
X175005053Y-47473132D01*
X174970014Y-47508171D01*
X174924233Y-47527134D01*
X174887009Y-47528962D01*
X174761566Y-47516607D01*
X174729894Y-47519727D01*
X174723666Y-47520033D01*
X168262851Y-47520033D01*
X168214250Y-47510366D01*
X168192294Y-47498630D01*
X168079666Y-47423374D01*
X167914418Y-47354926D01*
X167738996Y-47320033D01*
X167560136Y-47320033D01*
X167384713Y-47354926D01*
X167219465Y-47423374D01*
X167070752Y-47522741D01*
X166944274Y-47649219D01*
X166844907Y-47797932D01*
X166776459Y-47963180D01*
X166741566Y-48138603D01*
X166741566Y-48282033D01*
X166731899Y-48330634D01*
X166704369Y-48371836D01*
X166663167Y-48399366D01*
X166614566Y-48409033D01*
X164185434Y-48409033D01*
X164136833Y-48399366D01*
X164095631Y-48371836D01*
X162487856Y-46764061D01*
X162460326Y-46722859D01*
X162453099Y-46699035D01*
X162426672Y-46566179D01*
X162358224Y-46400932D01*
X162258857Y-46252219D01*
X162132379Y-46125741D01*
X161983666Y-46026374D01*
X161818418Y-45957926D01*
X161642996Y-45923033D01*
X161464136Y-45923033D01*
X161288713Y-45957926D01*
X161123465Y-46026374D01*
X160974752Y-46125741D01*
X160848274Y-46252219D01*
X160748907Y-46400932D01*
X160680459Y-46566180D01*
X160645566Y-46741603D01*
X160645566Y-46920462D01*
X157600566Y-46920462D01*
X157600566Y-40050767D01*
X162773566Y-40050767D01*
X162801173Y-40331066D01*
X162910275Y-40690724D01*
X163087447Y-41022190D01*
X163325879Y-41312720D01*
X163616409Y-41551152D01*
X163947875Y-41728324D01*
X164307533Y-41837426D01*
X164681566Y-41874264D01*
X165055599Y-41837426D01*
X165415257Y-41728324D01*
X165746723Y-41551152D01*
X166037253Y-41312720D01*
X166275685Y-41022190D01*
X166452857Y-40690724D01*
X166561959Y-40331066D01*
X166589566Y-40050767D01*
X166589566Y-37763298D01*
X166561959Y-37482999D01*
X166452857Y-37123341D01*
X166417065Y-37056378D01*
X166402681Y-37008959D01*
X166407538Y-36959645D01*
X166430897Y-36915943D01*
X166469202Y-36884507D01*
X166516621Y-36870123D01*
X166565935Y-36874980D01*
X166584048Y-36882028D01*
X166697045Y-36936293D01*
X166965680Y-37005277D01*
X167242611Y-37020528D01*
X167517200Y-36981457D01*
X167781497Y-36888654D01*
X167877632Y-36837268D01*
X167920966Y-36705644D01*
X167137064Y-35921742D01*
X167118827Y-35918115D01*
X167077625Y-35890587D01*
X167077621Y-35890584D01*
X166898016Y-35710979D01*
X166870486Y-35669777D01*
X166866857Y-35651535D01*
X166822355Y-35607033D01*
X167540777Y-35607033D01*
X168280177Y-36346433D01*
X168354114Y-36322092D01*
X168403300Y-36316077D01*
X168451044Y-36329342D01*
X168490078Y-36359868D01*
X168499425Y-36372166D01*
X168587899Y-36504577D01*
X168784021Y-36700699D01*
X169014626Y-36854785D01*
X169270868Y-36960924D01*
X169542891Y-37015033D01*
X169820241Y-37015033D01*
X170092263Y-36960924D01*
X170348505Y-36854785D01*
X170579110Y-36700699D01*
X170775230Y-36504579D01*
X170825969Y-36428644D01*
X170861009Y-36393605D01*
X170906790Y-36374642D01*
X170956343Y-36374642D01*
X171002124Y-36393605D01*
X171037163Y-36428644D01*
X171087901Y-36504579D01*
X171284021Y-36700699D01*
X171514626Y-36854785D01*
X171770868Y-36960924D01*
X172042891Y-37015033D01*
X172320241Y-37015033D01*
X172592263Y-36960924D01*
X172784281Y-36881388D01*
X172832882Y-36871721D01*
X172881483Y-36881388D01*
X172922684Y-36908918D01*
X172950215Y-36950120D01*
X172959882Y-36998721D01*
X172950215Y-37047322D01*
X172944886Y-37058588D01*
X172910274Y-37123341D01*
X172801172Y-37483000D01*
X172773566Y-37763299D01*
X172773566Y-40050767D01*
X172801173Y-40331066D01*
X172910275Y-40690724D01*
X173087447Y-41022190D01*
X173325879Y-41312720D01*
X173616409Y-41551152D01*
X173947875Y-41728324D01*
X174307533Y-41837426D01*
X174681566Y-41874264D01*
X175055599Y-41837426D01*
X175415257Y-41728324D01*
X175746723Y-41551152D01*
X176037253Y-41312720D01*
X176275685Y-41022190D01*
X176452857Y-40690724D01*
X176561959Y-40331066D01*
X176589566Y-40050767D01*
X176589566Y-37763298D01*
X176561959Y-37482999D01*
X176452857Y-37123341D01*
X176275685Y-36791875D01*
X176037253Y-36501345D01*
X175746723Y-36262913D01*
X175415256Y-36085741D01*
X175055598Y-35976639D01*
X174681565Y-35939801D01*
X174307532Y-35976639D01*
X173947874Y-36085741D01*
X173695031Y-36220889D01*
X173647612Y-36235273D01*
X173598298Y-36230416D01*
X173554596Y-36207057D01*
X173523160Y-36168752D01*
X173508776Y-36121333D01*
X173513633Y-36072019D01*
X173517832Y-36060284D01*
X173535456Y-36017734D01*
X173589566Y-35745707D01*
X173589566Y-35468358D01*
X173535457Y-35196335D01*
X173429318Y-34940093D01*
X173275232Y-34709488D01*
X173157777Y-34592033D01*
X179144232Y-34592033D01*
X179144232Y-38008033D01*
X186126899Y-38008033D01*
X186126899Y-34592033D01*
X179144232Y-34592033D01*
X173157777Y-34592033D01*
X173079110Y-34513366D01*
X172848505Y-34359280D01*
X172592263Y-34253141D01*
X172320241Y-34199033D01*
X172042891Y-34199033D01*
X171770868Y-34253141D01*
X171514626Y-34359280D01*
X171284021Y-34513366D01*
X171087901Y-34709486D01*
X171037163Y-34785422D01*
X171002123Y-34820461D01*
X170956342Y-34839424D01*
X170906789Y-34839424D01*
X170861008Y-34820461D01*
X170825969Y-34785422D01*
X170775230Y-34709486D01*
X170579110Y-34513366D01*
X170348505Y-34359280D01*
X170092263Y-34253141D01*
X169820241Y-34199033D01*
X169542891Y-34199033D01*
X169270868Y-34253141D01*
X169014626Y-34359280D01*
X168784021Y-34513366D01*
X168587899Y-34709488D01*
X168499425Y-34841900D01*
X168464385Y-34876940D01*
X168418604Y-34895903D01*
X168369051Y-34895903D01*
X168354114Y-34891974D01*
X168280177Y-34867632D01*
X167540777Y-35607033D01*
X166822355Y-35607033D01*
X166082954Y-34867632D01*
X165954379Y-34909963D01*
X165852305Y-35122512D01*
X165783321Y-35391147D01*
X165768070Y-35668078D01*
X165807141Y-35942667D01*
X165851410Y-36068742D01*
X165858390Y-36117801D01*
X165846065Y-36165796D01*
X165816311Y-36205422D01*
X165773657Y-36230645D01*
X165724598Y-36237625D01*
X165676603Y-36225300D01*
X165671715Y-36222821D01*
X165415256Y-36085741D01*
X165055598Y-35976639D01*
X164681565Y-35939801D01*
X164307532Y-35976639D01*
X163947874Y-36085741D01*
X163616408Y-36262913D01*
X163325878Y-36501345D01*
X163087446Y-36791875D01*
X162910274Y-37123342D01*
X162801172Y-37483000D01*
X162773566Y-37763299D01*
X162773566Y-40050767D01*
X157600566Y-40050767D01*
X157600566Y-38924219D01*
X157610233Y-38875618D01*
X157637763Y-38834416D01*
X157678965Y-38806886D01*
X157727566Y-38797219D01*
X157776167Y-38806886D01*
X158217484Y-38989686D01*
X158912999Y-39128033D01*
X159622133Y-39128033D01*
X160317647Y-38989686D01*
X160972806Y-38718310D01*
X161562429Y-38324337D01*
X162063870Y-37822896D01*
X162155002Y-37686508D01*
X162457843Y-37233273D01*
X162729219Y-36578114D01*
X162867566Y-35882599D01*
X162867566Y-35173465D01*
X162747078Y-34567730D01*
X162735280Y-34508421D01*
X166442165Y-34508421D01*
X167181566Y-35247822D01*
X167920966Y-34508421D01*
X167878635Y-34379846D01*
X167666086Y-34277772D01*
X167397451Y-34208788D01*
X167120520Y-34193537D01*
X166845931Y-34232608D01*
X166581634Y-34325411D01*
X166485499Y-34376797D01*
X166442165Y-34508421D01*
X162735280Y-34508421D01*
X162729219Y-34477952D01*
X162567544Y-34087634D01*
X162557877Y-34039033D01*
X162567544Y-33990432D01*
X162595074Y-33949231D01*
X162636276Y-33921700D01*
X162684877Y-33912033D01*
X188616255Y-33912033D01*
X188664856Y-33921700D01*
G37*
G04 #@! TD.AperFunction*
G04 #@! TA.AperFunction,Conductor*
G36*
X185694094Y-52941799D02*
G01*
X185705829Y-52945997D01*
X185937036Y-53041766D01*
X186189741Y-53092033D01*
X186447390Y-53092033D01*
X186529207Y-53075758D01*
X186578760Y-53075758D01*
X186624541Y-53094721D01*
X186643787Y-53110515D01*
X189637370Y-56104100D01*
X189664900Y-56145302D01*
X189674567Y-56193903D01*
X189674566Y-58544273D01*
X189664899Y-58592874D01*
X189637369Y-58634076D01*
X189596167Y-58661606D01*
X189547566Y-58671273D01*
X189498965Y-58661606D01*
X189477008Y-58649869D01*
X189374822Y-58581590D01*
X189127679Y-58479220D01*
X188865316Y-58427033D01*
X188597816Y-58427033D01*
X188335452Y-58479220D01*
X188088310Y-58581589D01*
X187865894Y-58730203D01*
X187676735Y-58919362D01*
X187561967Y-59091125D01*
X187526928Y-59126164D01*
X187481147Y-59145127D01*
X187431594Y-59145127D01*
X187385813Y-59126163D01*
X187350774Y-59091124D01*
X187347261Y-59085560D01*
X187284034Y-58979416D01*
X187105875Y-58781765D01*
X186892582Y-58622672D01*
X186649665Y-58506968D01*
X186561556Y-58480243D01*
X186445566Y-58541456D01*
X186445566Y-59593967D01*
X186455899Y-59609432D01*
X186465566Y-59658033D01*
X186465566Y-59912033D01*
X186455899Y-59960634D01*
X186428369Y-60001836D01*
X186416379Y-60009846D01*
X186408369Y-60021836D01*
X186367167Y-60049366D01*
X186318566Y-60059033D01*
X186064566Y-60059033D01*
X186015965Y-60049366D01*
X185974763Y-60021836D01*
X185966752Y-60009846D01*
X185954763Y-60001836D01*
X185927233Y-59960634D01*
X185917566Y-59912033D01*
X185917566Y-59658033D01*
X185927233Y-59609432D01*
X185937566Y-59593967D01*
X185937566Y-58541456D01*
X185821575Y-58480243D01*
X185733466Y-58506968D01*
X185490549Y-58622672D01*
X185277256Y-58781765D01*
X185099097Y-58979416D01*
X185035871Y-59085560D01*
X185002693Y-59122367D01*
X184957956Y-59143676D01*
X184908470Y-59146243D01*
X184861768Y-59129677D01*
X184824961Y-59096499D01*
X184821165Y-59091125D01*
X184706396Y-58919362D01*
X184517237Y-58730203D01*
X184294821Y-58581589D01*
X184047679Y-58479220D01*
X183785316Y-58427033D01*
X183517816Y-58427033D01*
X183255452Y-58479220D01*
X183008310Y-58581589D01*
X182785894Y-58730203D01*
X182596736Y-58919361D01*
X182487163Y-59083350D01*
X182452123Y-59118390D01*
X182406342Y-59137353D01*
X182356790Y-59137353D01*
X182311009Y-59118390D01*
X182275969Y-59083350D01*
X182166395Y-58919361D01*
X181977237Y-58730203D01*
X181876009Y-58662565D01*
X181840969Y-58627525D01*
X181822006Y-58581745D01*
X181819566Y-58556968D01*
X181819566Y-55616593D01*
X181829233Y-55567992D01*
X181856763Y-55526790D01*
X181897965Y-55499260D01*
X181946566Y-55489593D01*
X181995167Y-55499260D01*
X182006435Y-55504590D01*
X182083224Y-55545635D01*
X182178975Y-55574681D01*
X182284810Y-55585105D01*
X185272322Y-55585105D01*
X185378156Y-55574681D01*
X185473906Y-55545636D01*
X185562163Y-55498461D01*
X185639514Y-55434981D01*
X185702994Y-55357630D01*
X185750169Y-55269373D01*
X185779214Y-55173623D01*
X185789638Y-55067788D01*
X185789638Y-53580277D01*
X185779214Y-53474442D01*
X185750169Y-53378692D01*
X185702994Y-53290435D01*
X185639514Y-53213084D01*
X185576660Y-53161502D01*
X185545224Y-53123197D01*
X185530840Y-53075778D01*
X185535697Y-53026464D01*
X185559056Y-52982762D01*
X185597361Y-52951326D01*
X185644780Y-52936942D01*
X185694094Y-52941799D01*
G37*
G04 #@! TD.AperFunction*
G04 #@! TD*
M02*
