M48
METRIC,TZ
T1C0.500
T2C0.750
T3C1.050
T4C1.500
T5C2.000
T6C3.200
%
G90
G05
T1
X51042Y-28742
X51042Y-67807
X52042Y-28742
X52042Y-67807
X53042Y-28742
X53042Y-67807
X54042Y-28742
X54042Y-67807
X55042Y-28742
X55042Y-67807
X56042Y-28742
X56042Y-67807
X57042Y-28742
X57042Y-67807
X76389Y-45275
X76389Y-46275
X76389Y-47275
X76389Y-48275
X76389Y-49275
X76389Y-50275
X76389Y-51275
X91381Y-45275
X91381Y-46275
X91381Y-47275
X91381Y-48275
X91381Y-49275
X91381Y-50275
X91381Y-51275
X111833Y-31282
X111833Y-65267
X112833Y-31282
X112833Y-65267
X113833Y-31282
X113833Y-65267
X114833Y-31282
X114833Y-65267
X115833Y-31282
X115833Y-65267
X116833Y-31282
X116833Y-65267
X117833Y-31282
X117833Y-65267
X138286Y-45275
X138286Y-46275
X138286Y-47275
X138286Y-48275
X138286Y-49275
X138286Y-50275
X138286Y-51275
X156093Y-45275
X156093Y-46275
X156093Y-47275
X156093Y-48275
X156093Y-49275
X156093Y-50275
X156093Y-51275
X172625Y-32404
X172625Y-64145
X173625Y-32404
X173625Y-64145
X174625Y-32404
X174625Y-64145
X175625Y-32404
X175625Y-64145
X176625Y-32404
X176625Y-64145
X177625Y-32404
X177625Y-64145
X178625Y-32404
X178625Y-64145
X195158Y-45275
X195158Y-46275
X195158Y-47275
X195158Y-48275
X195158Y-49275
X195158Y-50275
X195158Y-51275
X207521Y-45275
X207521Y-46275
X207521Y-47275
X207521Y-48275
X207521Y-49275
X207521Y-50275
X207521Y-51275
X233413Y-28000
X233413Y-68555
X234413Y-68555
X234415Y-28000
X235413Y-68555
X235417Y-28003
X236413Y-68555
X236419Y-28010
X237413Y-68555
X237419Y-28067
X238413Y-68555
X238418Y-28149
X239413Y-28258
X239413Y-68555
T2
X44452Y-60169
T3
X41765Y-57482
T4
X34194Y-22500
X34194Y-74055
X262806Y-22500
T5
X49067Y-34249
X49067Y-45171
X61567Y-34249
X61567Y-45171
T6
X34818Y-31866
X34818Y-64632
X159268Y-35528
X192034Y-35528
X210061Y-30540
X262639Y-57083
T0
M30
