G04 #@! TF.GenerationSoftware,KiCad,Pcbnew,(5.1.9)-1*
G04 #@! TF.CreationDate,2021-02-23T11:03:35+09:00*
G04 #@! TF.ProjectId,chassis,63686173-7369-4732-9e6b-696361645f70,rev?*
G04 #@! TF.SameCoordinates,Original*
G04 #@! TF.FileFunction,Paste,Top*
G04 #@! TF.FilePolarity,Positive*
%FSLAX46Y46*%
G04 Gerber Fmt 4.6, Leading zero omitted, Abs format (unit mm)*
G04 Created by KiCad (PCBNEW (5.1.9)-1) date 2021-02-23 11:03:35*
%MOMM*%
%LPD*%
G01*
G04 APERTURE LIST*
%ADD10R,1.100000X1.100000*%
G04 APERTURE END LIST*
D10*
X48514000Y-53978000D03*
X48514000Y-51178000D03*
X44386500Y-53978000D03*
X44386500Y-51178000D03*
X40259000Y-53978000D03*
X40259000Y-51178000D03*
G36*
G01*
X36072000Y-53030000D02*
X36572000Y-53030000D01*
G75*
G02*
X36797000Y-53255000I0J-225000D01*
G01*
X36797000Y-53705000D01*
G75*
G02*
X36572000Y-53930000I-225000J0D01*
G01*
X36072000Y-53930000D01*
G75*
G02*
X35847000Y-53705000I0J225000D01*
G01*
X35847000Y-53255000D01*
G75*
G02*
X36072000Y-53030000I225000J0D01*
G01*
G37*
G36*
G01*
X36072000Y-51480000D02*
X36572000Y-51480000D01*
G75*
G02*
X36797000Y-51705000I0J-225000D01*
G01*
X36797000Y-52155000D01*
G75*
G02*
X36572000Y-52380000I-225000J0D01*
G01*
X36072000Y-52380000D01*
G75*
G02*
X35847000Y-52155000I0J225000D01*
G01*
X35847000Y-51705000D01*
G75*
G02*
X36072000Y-51480000I225000J0D01*
G01*
G37*
G36*
G01*
X48662000Y-47835000D02*
X48112000Y-47835000D01*
G75*
G02*
X47912000Y-47635000I0J200000D01*
G01*
X47912000Y-47235000D01*
G75*
G02*
X48112000Y-47035000I200000J0D01*
G01*
X48662000Y-47035000D01*
G75*
G02*
X48862000Y-47235000I0J-200000D01*
G01*
X48862000Y-47635000D01*
G75*
G02*
X48662000Y-47835000I-200000J0D01*
G01*
G37*
G36*
G01*
X48662000Y-49485000D02*
X48112000Y-49485000D01*
G75*
G02*
X47912000Y-49285000I0J200000D01*
G01*
X47912000Y-48885000D01*
G75*
G02*
X48112000Y-48685000I200000J0D01*
G01*
X48662000Y-48685000D01*
G75*
G02*
X48862000Y-48885000I0J-200000D01*
G01*
X48862000Y-49285000D01*
G75*
G02*
X48662000Y-49485000I-200000J0D01*
G01*
G37*
G36*
G01*
X45191000Y-48685000D02*
X45741000Y-48685000D01*
G75*
G02*
X45941000Y-48885000I0J-200000D01*
G01*
X45941000Y-49285000D01*
G75*
G02*
X45741000Y-49485000I-200000J0D01*
G01*
X45191000Y-49485000D01*
G75*
G02*
X44991000Y-49285000I0J200000D01*
G01*
X44991000Y-48885000D01*
G75*
G02*
X45191000Y-48685000I200000J0D01*
G01*
G37*
G36*
G01*
X45191000Y-47035000D02*
X45741000Y-47035000D01*
G75*
G02*
X45941000Y-47235000I0J-200000D01*
G01*
X45941000Y-47635000D01*
G75*
G02*
X45741000Y-47835000I-200000J0D01*
G01*
X45191000Y-47835000D01*
G75*
G02*
X44991000Y-47635000I0J200000D01*
G01*
X44991000Y-47235000D01*
G75*
G02*
X45191000Y-47035000I200000J0D01*
G01*
G37*
G36*
G01*
X42693000Y-47835000D02*
X42143000Y-47835000D01*
G75*
G02*
X41943000Y-47635000I0J200000D01*
G01*
X41943000Y-47235000D01*
G75*
G02*
X42143000Y-47035000I200000J0D01*
G01*
X42693000Y-47035000D01*
G75*
G02*
X42893000Y-47235000I0J-200000D01*
G01*
X42893000Y-47635000D01*
G75*
G02*
X42693000Y-47835000I-200000J0D01*
G01*
G37*
G36*
G01*
X42693000Y-49485000D02*
X42143000Y-49485000D01*
G75*
G02*
X41943000Y-49285000I0J200000D01*
G01*
X41943000Y-48885000D01*
G75*
G02*
X42143000Y-48685000I200000J0D01*
G01*
X42693000Y-48685000D01*
G75*
G02*
X42893000Y-48885000I0J-200000D01*
G01*
X42893000Y-49285000D01*
G75*
G02*
X42693000Y-49485000I-200000J0D01*
G01*
G37*
G36*
G01*
X39645000Y-47835000D02*
X39095000Y-47835000D01*
G75*
G02*
X38895000Y-47635000I0J200000D01*
G01*
X38895000Y-47235000D01*
G75*
G02*
X39095000Y-47035000I200000J0D01*
G01*
X39645000Y-47035000D01*
G75*
G02*
X39845000Y-47235000I0J-200000D01*
G01*
X39845000Y-47635000D01*
G75*
G02*
X39645000Y-47835000I-200000J0D01*
G01*
G37*
G36*
G01*
X39645000Y-49485000D02*
X39095000Y-49485000D01*
G75*
G02*
X38895000Y-49285000I0J200000D01*
G01*
X38895000Y-48885000D01*
G75*
G02*
X39095000Y-48685000I200000J0D01*
G01*
X39645000Y-48685000D01*
G75*
G02*
X39845000Y-48885000I0J-200000D01*
G01*
X39845000Y-49285000D01*
G75*
G02*
X39645000Y-49485000I-200000J0D01*
G01*
G37*
G36*
G01*
X36047000Y-48685000D02*
X36597000Y-48685000D01*
G75*
G02*
X36797000Y-48885000I0J-200000D01*
G01*
X36797000Y-49285000D01*
G75*
G02*
X36597000Y-49485000I-200000J0D01*
G01*
X36047000Y-49485000D01*
G75*
G02*
X35847000Y-49285000I0J200000D01*
G01*
X35847000Y-48885000D01*
G75*
G02*
X36047000Y-48685000I200000J0D01*
G01*
G37*
G36*
G01*
X36047000Y-47035000D02*
X36597000Y-47035000D01*
G75*
G02*
X36797000Y-47235000I0J-200000D01*
G01*
X36797000Y-47635000D01*
G75*
G02*
X36597000Y-47835000I-200000J0D01*
G01*
X36047000Y-47835000D01*
G75*
G02*
X35847000Y-47635000I0J200000D01*
G01*
X35847000Y-47235000D01*
G75*
G02*
X36047000Y-47035000I200000J0D01*
G01*
G37*
M02*
