M48
; DRILL file {KiCad (5.1.9)-1} date 02/23/21 11:03:45
; FORMAT={-:-/ absolute / inch / decimal}
; #@! TF.CreationDate,2021-02-23T11:03:45+09:00
; #@! TF.GenerationSoftware,Kicad,Pcbnew,(5.1.9)-1
; #@! TF.FileFunction,Plated,1,2,PTH
FMAT,2
INCH
T1C0.0157
T2C0.0354
T3C0.0394
T4C0.0591
%
G90
G05
T1
X1.38Y-1.715
X1.38Y-2.22
X1.49Y-1.89
X1.5Y-2.07
X1.605Y-1.8546
X1.675Y-2.07
X1.73Y-1.945
X1.835Y-2.07
X1.85Y-1.865
X2.215Y-2.005
X2.42Y-1.56
X2.7Y-2.4
T2
X2.7Y-1.7925
X2.7Y-1.8713
X2.7Y-1.95
T3
X1.36Y-2.4
X1.36Y-2.5
X1.46Y-2.4
X1.46Y-2.5
X1.56Y-2.4
X1.56Y-2.5
X1.66Y-2.4
X1.66Y-2.5
X1.7116Y-1.4481
X1.76Y-2.4
X1.76Y-2.5
X1.81Y-1.4481
X1.86Y-2.4
X1.86Y-2.5
X1.9084Y-1.4481
X1.96Y-2.4
X1.96Y-2.5
X2.06Y-2.4
X2.06Y-2.5
X2.065Y-1.885
X2.065Y-1.985
X2.065Y-2.085
X2.16Y-2.4
X2.16Y-2.5
X2.1607Y-1.785
X2.165Y-2.185
X2.26Y-2.4
X2.26Y-2.5
X2.36Y-2.4
X2.36Y-2.5
X2.365Y-1.785
X2.365Y-2.185
X2.46Y-2.4
X2.46Y-2.5
X2.465Y-1.885
X2.465Y-1.985
X2.465Y-2.085
X2.56Y-2.4
X2.56Y-2.5
T4
X2.7Y-1.7098
X2.7Y-2.0327
T0
M30
