M48
; DRILL file {KiCad (5.1.4)-1} date 12/12/2019 19:40:36
; FORMAT={-:-/ absolute / inch / decimal}
; #@! TF.CreationDate,2019-12-12T19:40:36+09:00
; #@! TF.GenerationSoftware,Kicad,Pcbnew,(5.1.4)-1
; #@! TF.FileFunction,Plated,1,2,PTH
FMAT,2
INCH
T1C0.0157
T2C0.0394
%
G90
G05
T1
X0.545Y-2.125
X0.545Y-2.505
X0.55Y-1.68
X0.55Y-1.775
X0.69Y-2.21
X0.75Y-2.04
X0.775Y-1.035
X0.79Y-2.21
X0.8Y-1.68
X0.83Y-1.03
X0.89Y-2.21
X0.9023Y-2.0177
X0.945Y-1.68
X0.97Y-2.475
X1.08Y-1.88
X1.09Y-2.01
X1.105Y-1.035
X1.18Y-1.68
X1.195Y-2.22
X1.245Y-1.88
X1.34Y-2.03
X1.345Y-1.675
X1.395Y-0.875
X1.445Y-1.675
X1.48Y-2.05
X1.49Y-2.475
X1.5Y-1.87
X1.5892Y-2.2392
X1.59Y-2.475
X1.595Y-0.95
X1.6325Y-2.07
X1.645Y-0.95
X1.645Y-1.675
X1.68Y-2.07
X1.715Y-2.505
X1.72Y-1.82
X1.72Y-1.87
X1.73Y-2.07
X1.76Y-2.505
X1.77Y-1.82
X1.77Y-1.87
T2
X0.645Y-1.775
X0.745Y-1.775
X0.845Y-1.775
X0.945Y-1.775
X1.045Y-1.775
X1.145Y-1.775
X1.245Y-1.775
X1.345Y-1.775
X1.445Y-1.775
X1.545Y-1.775
X1.645Y-1.775
X0.54Y-2.31
X0.54Y-2.41
X0.64Y-2.31
X0.64Y-2.41
X0.74Y-2.31
X0.74Y-2.41
X0.84Y-2.31
X0.84Y-2.41
X0.94Y-2.31
X0.94Y-2.41
X1.04Y-2.31
X1.04Y-2.41
X1.14Y-2.31
X1.14Y-2.41
X1.24Y-2.31
X1.24Y-2.41
X1.34Y-2.31
X1.34Y-2.41
X1.44Y-2.31
X1.44Y-2.41
X1.54Y-2.31
X1.54Y-2.41
X1.64Y-2.31
X1.64Y-2.41
X1.74Y-2.31
X1.74Y-2.41
X0.745Y-2.125
X0.845Y-2.125
X0.945Y-2.125
X1.045Y-2.125
X1.145Y-2.125
X1.245Y-2.125
X1.345Y-2.125
X1.445Y-2.125
X1.545Y-2.125
X0.795Y-0.95
X0.895Y-0.95
X0.995Y-0.95
X1.095Y-0.95
X1.195Y-0.95
X1.295Y-0.95
X1.395Y-0.95
X1.495Y-0.95
X0.645Y-0.8
X0.745Y-0.8
X0.845Y-0.8
X0.945Y-0.8
X1.045Y-0.8
X1.145Y-0.8
X1.245Y-0.8
X1.345Y-0.8
X1.445Y-0.8
X1.545Y-0.8
X1.645Y-0.8
X0.545Y-1.95
X0.645Y-1.95
X0.745Y-1.95
X0.845Y-1.95
X0.945Y-1.95
X1.045Y-1.95
X1.145Y-1.95
X1.245Y-1.95
X1.345Y-1.95
X1.445Y-1.95
X1.545Y-1.95
X1.645Y-1.95
X1.745Y-1.95
T0
M30
