G04 #@! TF.GenerationSoftware,KiCad,Pcbnew,(5.1.4)-1*
G04 #@! TF.CreationDate,2019-12-12T19:40:31+09:00*
G04 #@! TF.ProjectId,microcar_head,6d696372-6f63-4617-925f-686561642e6b,rev?*
G04 #@! TF.SameCoordinates,Original*
G04 #@! TF.FileFunction,Copper,L1,Top*
G04 #@! TF.FilePolarity,Positive*
%FSLAX46Y46*%
G04 Gerber Fmt 4.6, Leading zero omitted, Abs format (unit mm)*
G04 Created by KiCad (PCBNEW (5.1.4)-1) date 2019-12-12 19:40:31*
%MOMM*%
%LPD*%
G04 APERTURE LIST*
%ADD10O,1.700000X1.700000*%
%ADD11R,1.700000X1.700000*%
%ADD12C,0.800000*%
%ADD13C,0.400000*%
%ADD14C,0.254000*%
G04 APERTURE END LIST*
D10*
X13716000Y-61214000D03*
X13716000Y-58674000D03*
X16256000Y-61214000D03*
X16256000Y-58674000D03*
X18796000Y-61214000D03*
X18796000Y-58674000D03*
X21336000Y-61214000D03*
X21336000Y-58674000D03*
X23876000Y-61214000D03*
X23876000Y-58674000D03*
X26416000Y-61214000D03*
X26416000Y-58674000D03*
X28956000Y-61214000D03*
X28956000Y-58674000D03*
X31496000Y-61214000D03*
X31496000Y-58674000D03*
X34036000Y-61214000D03*
X34036000Y-58674000D03*
X36576000Y-61214000D03*
X36576000Y-58674000D03*
X39116000Y-61214000D03*
X39116000Y-58674000D03*
X41656000Y-61214000D03*
X41656000Y-58674000D03*
X44196000Y-61214000D03*
D11*
X44196000Y-58674000D03*
X16383000Y-45085000D03*
D10*
X18923000Y-45085000D03*
X21463000Y-45085000D03*
X24003000Y-45085000D03*
X26543000Y-45085000D03*
X29083000Y-45085000D03*
X31623000Y-45085000D03*
X34163000Y-45085000D03*
X36703000Y-45085000D03*
X39243000Y-45085000D03*
X41783000Y-45085000D03*
D11*
X16383000Y-20320000D03*
D10*
X18923000Y-20320000D03*
X21463000Y-20320000D03*
X24003000Y-20320000D03*
X26543000Y-20320000D03*
X29083000Y-20320000D03*
X31623000Y-20320000D03*
X34163000Y-20320000D03*
X36703000Y-20320000D03*
X39243000Y-20320000D03*
X41783000Y-20320000D03*
D11*
X13843000Y-49530000D03*
D10*
X16383000Y-49530000D03*
X18923000Y-49530000D03*
X21463000Y-49530000D03*
X24003000Y-49530000D03*
X26543000Y-49530000D03*
X29083000Y-49530000D03*
X31623000Y-49530000D03*
X34163000Y-49530000D03*
X36703000Y-49530000D03*
X39243000Y-49530000D03*
X41783000Y-49530000D03*
X44323000Y-49530000D03*
D11*
X18923000Y-53975000D03*
D10*
X21463000Y-53975000D03*
X24003000Y-53975000D03*
X26543000Y-53975000D03*
X29083000Y-53975000D03*
X31623000Y-53975000D03*
X34163000Y-53975000D03*
X36703000Y-53975000D03*
X39243000Y-53975000D03*
D11*
X20193000Y-24130000D03*
D10*
X22733000Y-24130000D03*
X25273000Y-24130000D03*
X27813000Y-24130000D03*
X30353000Y-24130000D03*
X32893000Y-24130000D03*
X35433000Y-24130000D03*
X37973000Y-24130000D03*
D12*
X40366001Y-56876001D03*
X41465500Y-52578000D03*
X43942000Y-52578000D03*
X42672000Y-52578000D03*
X43688000Y-46228000D03*
X44958000Y-46228000D03*
X44958000Y-47498000D03*
X43688000Y-47498000D03*
X19050000Y-51816000D03*
X27686000Y-51054000D03*
X22917686Y-51250314D03*
X17526000Y-56134000D03*
X20066000Y-56134000D03*
X22606000Y-56134000D03*
X24003000Y-42672000D03*
X29972000Y-42672000D03*
X34163000Y-42545000D03*
X36703000Y-42545000D03*
X41783000Y-42545000D03*
X13970000Y-42672000D03*
X13970000Y-45085000D03*
X13843000Y-53975000D03*
X35433000Y-22225000D03*
X40513000Y-24130000D03*
X41783000Y-24130000D03*
X40386000Y-62865000D03*
X37846000Y-62865000D03*
X43561000Y-63627000D03*
X44704000Y-63627000D03*
X13843000Y-63627000D03*
X24638000Y-62865000D03*
X31623000Y-47752000D03*
X38100000Y-47498000D03*
X20320000Y-42672000D03*
X37592000Y-52070000D03*
X27432000Y-47752000D03*
X21082002Y-26162000D03*
X30353000Y-56388000D03*
X34036000Y-51562000D03*
X19685000Y-26289000D03*
X28067000Y-26289000D03*
D13*
X40366001Y-59234003D02*
X40366001Y-56876001D01*
X41656000Y-61214000D02*
X41656000Y-60524002D01*
X41656000Y-60524002D02*
X40366001Y-59234003D01*
X40366001Y-56876001D02*
X40132000Y-56642000D01*
X40366001Y-56876001D02*
X40366001Y-56876001D01*
X32912999Y-52724999D02*
X29356999Y-52724999D01*
X34163000Y-53975000D02*
X32912999Y-52724999D01*
X29356999Y-52724999D02*
X27686000Y-51054000D01*
X22352000Y-51816000D02*
X19050000Y-51816000D01*
X22917686Y-51250314D02*
X22352000Y-51816000D01*
X36703000Y-20955000D02*
X35433000Y-22225000D01*
X36703000Y-20320000D02*
X36703000Y-20955000D01*
X41656000Y-61595000D02*
X40386000Y-62865000D01*
X41656000Y-61214000D02*
X41656000Y-61595000D01*
X43033001Y-50090003D02*
X43033001Y-48875001D01*
X45446001Y-52503003D02*
X43033001Y-50090003D01*
X44196000Y-61214000D02*
X45446001Y-59963999D01*
X45446001Y-59963999D02*
X45446001Y-52503003D01*
X43033001Y-48875001D02*
X39243000Y-45085000D01*
X36282999Y-24979999D02*
X35433000Y-24130000D01*
X40092999Y-28789999D02*
X36282999Y-24979999D01*
X39243000Y-45085000D02*
X40092999Y-44235001D01*
X40092999Y-44235001D02*
X40092999Y-28789999D01*
X39370000Y-22733000D02*
X41783000Y-20320000D01*
X35433000Y-24130000D02*
X36830000Y-22733000D01*
X36830000Y-22733000D02*
X39370000Y-22733000D01*
X30455909Y-55972010D02*
X36991990Y-55972010D01*
X37992999Y-54971001D02*
X37992999Y-54575001D01*
X36991990Y-55972010D02*
X37992999Y-54971001D01*
X37992999Y-54575001D02*
X37992999Y-52216999D01*
X37992999Y-52216999D02*
X37846000Y-52070000D01*
X37846000Y-52070000D02*
X37592000Y-52070000D01*
X22312999Y-45934999D02*
X21463000Y-45085000D01*
X23275990Y-46897990D02*
X22312999Y-45934999D01*
X27432000Y-47752000D02*
X26577990Y-46897990D01*
X26577990Y-46897990D02*
X23275990Y-46897990D01*
X21647687Y-26162000D02*
X21082002Y-26162000D01*
X23241000Y-26162000D02*
X21647687Y-26162000D01*
X25273000Y-24130000D02*
X23241000Y-26162000D01*
X30455909Y-55972010D02*
X30455909Y-56285091D01*
X30455909Y-56285091D02*
X30353000Y-56388000D01*
X40445081Y-53975000D02*
X39243000Y-53975000D01*
X40747000Y-53975000D02*
X40445081Y-53975000D01*
X44196000Y-58674000D02*
X44196000Y-57424000D01*
X44196000Y-57424000D02*
X40747000Y-53975000D01*
X42945999Y-59924001D02*
X44196000Y-58674000D01*
X13843000Y-50780000D02*
X14966001Y-51903001D01*
X13843000Y-49530000D02*
X13843000Y-50780000D01*
X14966001Y-51903001D02*
X14966001Y-61774003D01*
X14966001Y-61774003D02*
X16945998Y-63754000D01*
X16945998Y-63754000D02*
X41402000Y-63754000D01*
X42945999Y-62210001D02*
X42945999Y-59924001D01*
X41402000Y-63754000D02*
X42945999Y-62210001D01*
X26543000Y-51435000D02*
X26543000Y-49530000D01*
X29083000Y-53975000D02*
X26543000Y-51435000D01*
X26543000Y-48327919D02*
X25713081Y-47498000D01*
X26543000Y-49530000D02*
X26543000Y-48327919D01*
X16383000Y-46335000D02*
X16383000Y-45085000D01*
X25713081Y-47498000D02*
X17546000Y-47498000D01*
X17546000Y-47498000D02*
X16383000Y-46335000D01*
X18943000Y-24130000D02*
X20193000Y-24130000D01*
X16383000Y-45085000D02*
X16383000Y-26690000D01*
X16383000Y-26690000D02*
X18943000Y-24130000D01*
X20882998Y-24130000D02*
X22152998Y-22860000D01*
X20193000Y-24130000D02*
X20882998Y-24130000D01*
X26543000Y-22860000D02*
X29083000Y-20320000D01*
X22152998Y-22860000D02*
X26543000Y-22860000D01*
X24852999Y-50379999D02*
X24003000Y-49530000D01*
X25292999Y-50819999D02*
X24852999Y-50379999D01*
X25292999Y-55987001D02*
X25292999Y-50819999D01*
X25165999Y-56114001D02*
X25292999Y-55987001D01*
X23876000Y-61214000D02*
X25165999Y-59924001D01*
X25165999Y-59924001D02*
X25165999Y-56114001D01*
X31623000Y-20320000D02*
X31623000Y-45085000D01*
X31115000Y-51562000D02*
X29083000Y-49530000D01*
X34036000Y-51562000D02*
X31115000Y-51562000D01*
X29083000Y-47625000D02*
X26543000Y-45085000D01*
X29083000Y-49530000D02*
X29083000Y-47625000D01*
X27392999Y-44235001D02*
X26543000Y-45085000D01*
X29063001Y-42564999D02*
X27392999Y-44235001D01*
X27793001Y-19069999D02*
X29683001Y-19069999D01*
X26543000Y-20320000D02*
X27793001Y-19069999D01*
X29683001Y-19069999D02*
X30333001Y-19719999D01*
X30333001Y-19719999D02*
X30333001Y-22259999D01*
X30333001Y-22259999D02*
X29063001Y-23529999D01*
X29063001Y-23529999D02*
X29063001Y-42564999D01*
X35413001Y-54575001D02*
X34616002Y-55372000D01*
X35413001Y-52022080D02*
X35413001Y-54575001D01*
X36703000Y-49530000D02*
X36703000Y-50732081D01*
X36703000Y-50732081D02*
X35413001Y-52022080D01*
X27940000Y-55372000D02*
X26543000Y-53975000D01*
X34616002Y-55372000D02*
X27940000Y-55372000D01*
X30988000Y-43180000D02*
X29083000Y-45085000D01*
X30353000Y-24130000D02*
X30988000Y-24765000D01*
X30988000Y-24765000D02*
X30988000Y-43180000D01*
X29083000Y-45085000D02*
X30734000Y-46736000D01*
X30734000Y-46736000D02*
X35306000Y-46736000D01*
X36703000Y-48133000D02*
X36703000Y-49530000D01*
X35306000Y-46736000D02*
X36703000Y-48133000D01*
X27392999Y-54824999D02*
X26543000Y-53975000D01*
X27705999Y-55137999D02*
X27392999Y-54824999D01*
X28956000Y-61214000D02*
X27705999Y-59963999D01*
X27705999Y-59963999D02*
X27705999Y-55137999D01*
X27266999Y-27089001D02*
X27667001Y-26688999D01*
X27667001Y-26688999D02*
X28067000Y-26289000D01*
X19685000Y-26289000D02*
X20485001Y-27089001D01*
X20485001Y-27089001D02*
X27266999Y-27089001D01*
D14*
G36*
X45390001Y-64660000D02*
G01*
X12725000Y-64660000D01*
X12725000Y-62321767D01*
X12886986Y-62454706D01*
X13144966Y-62592599D01*
X13424889Y-62677513D01*
X13643050Y-62699000D01*
X13788950Y-62699000D01*
X14007111Y-62677513D01*
X14287034Y-62592599D01*
X14493416Y-62482285D01*
X16326561Y-64315432D01*
X16352707Y-64347291D01*
X16479852Y-64451636D01*
X16624911Y-64529172D01*
X16782309Y-64576918D01*
X16904979Y-64589000D01*
X16904980Y-64589000D01*
X16945998Y-64593040D01*
X16987016Y-64589000D01*
X41360982Y-64589000D01*
X41402000Y-64593040D01*
X41443018Y-64589000D01*
X41443019Y-64589000D01*
X41565689Y-64576918D01*
X41723087Y-64529172D01*
X41868146Y-64451636D01*
X41995291Y-64347291D01*
X42021446Y-64315421D01*
X43507427Y-62829441D01*
X43539290Y-62803292D01*
X43643635Y-62676147D01*
X43679457Y-62609129D01*
X43904889Y-62677513D01*
X44123050Y-62699000D01*
X44268950Y-62699000D01*
X44487111Y-62677513D01*
X44767034Y-62592599D01*
X45025014Y-62454706D01*
X45251134Y-62269134D01*
X45390001Y-62099924D01*
X45390001Y-64660000D01*
X45390001Y-64660000D01*
G37*
X45390001Y-64660000D02*
X12725000Y-64660000D01*
X12725000Y-62321767D01*
X12886986Y-62454706D01*
X13144966Y-62592599D01*
X13424889Y-62677513D01*
X13643050Y-62699000D01*
X13788950Y-62699000D01*
X14007111Y-62677513D01*
X14287034Y-62592599D01*
X14493416Y-62482285D01*
X16326561Y-64315432D01*
X16352707Y-64347291D01*
X16479852Y-64451636D01*
X16624911Y-64529172D01*
X16782309Y-64576918D01*
X16904979Y-64589000D01*
X16904980Y-64589000D01*
X16945998Y-64593040D01*
X16987016Y-64589000D01*
X41360982Y-64589000D01*
X41402000Y-64593040D01*
X41443018Y-64589000D01*
X41443019Y-64589000D01*
X41565689Y-64576918D01*
X41723087Y-64529172D01*
X41868146Y-64451636D01*
X41995291Y-64347291D01*
X42021446Y-64315421D01*
X43507427Y-62829441D01*
X43539290Y-62803292D01*
X43643635Y-62676147D01*
X43679457Y-62609129D01*
X43904889Y-62677513D01*
X44123050Y-62699000D01*
X44268950Y-62699000D01*
X44487111Y-62677513D01*
X44767034Y-62592599D01*
X45025014Y-62454706D01*
X45251134Y-62269134D01*
X45390001Y-62099924D01*
X45390001Y-64660000D01*
G36*
X40460822Y-62095355D02*
G01*
X40655731Y-62311588D01*
X40889080Y-62485641D01*
X41151901Y-62610825D01*
X41299110Y-62655476D01*
X41342617Y-62632516D01*
X41056133Y-62919000D01*
X17291867Y-62919000D01*
X16917246Y-62544380D01*
X17085014Y-62454706D01*
X17311134Y-62269134D01*
X17496706Y-62043014D01*
X17526000Y-61988209D01*
X17555294Y-62043014D01*
X17740866Y-62269134D01*
X17966986Y-62454706D01*
X18224966Y-62592599D01*
X18504889Y-62677513D01*
X18723050Y-62699000D01*
X18868950Y-62699000D01*
X19087111Y-62677513D01*
X19367034Y-62592599D01*
X19625014Y-62454706D01*
X19851134Y-62269134D01*
X20036706Y-62043014D01*
X20066000Y-61988209D01*
X20095294Y-62043014D01*
X20280866Y-62269134D01*
X20506986Y-62454706D01*
X20764966Y-62592599D01*
X21044889Y-62677513D01*
X21263050Y-62699000D01*
X21408950Y-62699000D01*
X21627111Y-62677513D01*
X21907034Y-62592599D01*
X22165014Y-62454706D01*
X22391134Y-62269134D01*
X22576706Y-62043014D01*
X22606000Y-61988209D01*
X22635294Y-62043014D01*
X22820866Y-62269134D01*
X23046986Y-62454706D01*
X23304966Y-62592599D01*
X23584889Y-62677513D01*
X23803050Y-62699000D01*
X23948950Y-62699000D01*
X24167111Y-62677513D01*
X24447034Y-62592599D01*
X24705014Y-62454706D01*
X24931134Y-62269134D01*
X25116706Y-62043014D01*
X25146000Y-61988209D01*
X25175294Y-62043014D01*
X25360866Y-62269134D01*
X25586986Y-62454706D01*
X25844966Y-62592599D01*
X26124889Y-62677513D01*
X26343050Y-62699000D01*
X26488950Y-62699000D01*
X26707111Y-62677513D01*
X26987034Y-62592599D01*
X27245014Y-62454706D01*
X27471134Y-62269134D01*
X27656706Y-62043014D01*
X27686000Y-61988209D01*
X27715294Y-62043014D01*
X27900866Y-62269134D01*
X28126986Y-62454706D01*
X28384966Y-62592599D01*
X28664889Y-62677513D01*
X28883050Y-62699000D01*
X29028950Y-62699000D01*
X29247111Y-62677513D01*
X29527034Y-62592599D01*
X29785014Y-62454706D01*
X30011134Y-62269134D01*
X30196706Y-62043014D01*
X30226000Y-61988209D01*
X30255294Y-62043014D01*
X30440866Y-62269134D01*
X30666986Y-62454706D01*
X30924966Y-62592599D01*
X31204889Y-62677513D01*
X31423050Y-62699000D01*
X31568950Y-62699000D01*
X31787111Y-62677513D01*
X32067034Y-62592599D01*
X32325014Y-62454706D01*
X32551134Y-62269134D01*
X32736706Y-62043014D01*
X32766000Y-61988209D01*
X32795294Y-62043014D01*
X32980866Y-62269134D01*
X33206986Y-62454706D01*
X33464966Y-62592599D01*
X33744889Y-62677513D01*
X33963050Y-62699000D01*
X34108950Y-62699000D01*
X34327111Y-62677513D01*
X34607034Y-62592599D01*
X34865014Y-62454706D01*
X35091134Y-62269134D01*
X35276706Y-62043014D01*
X35306000Y-61988209D01*
X35335294Y-62043014D01*
X35520866Y-62269134D01*
X35746986Y-62454706D01*
X36004966Y-62592599D01*
X36284889Y-62677513D01*
X36503050Y-62699000D01*
X36648950Y-62699000D01*
X36867111Y-62677513D01*
X37147034Y-62592599D01*
X37405014Y-62454706D01*
X37631134Y-62269134D01*
X37816706Y-62043014D01*
X37846000Y-61988209D01*
X37875294Y-62043014D01*
X38060866Y-62269134D01*
X38286986Y-62454706D01*
X38544966Y-62592599D01*
X38824889Y-62677513D01*
X39043050Y-62699000D01*
X39188950Y-62699000D01*
X39407111Y-62677513D01*
X39687034Y-62592599D01*
X39945014Y-62454706D01*
X40171134Y-62269134D01*
X40356706Y-62043014D01*
X40391201Y-61978477D01*
X40460822Y-62095355D01*
X40460822Y-62095355D01*
G37*
X40460822Y-62095355D02*
X40655731Y-62311588D01*
X40889080Y-62485641D01*
X41151901Y-62610825D01*
X41299110Y-62655476D01*
X41342617Y-62632516D01*
X41056133Y-62919000D01*
X17291867Y-62919000D01*
X16917246Y-62544380D01*
X17085014Y-62454706D01*
X17311134Y-62269134D01*
X17496706Y-62043014D01*
X17526000Y-61988209D01*
X17555294Y-62043014D01*
X17740866Y-62269134D01*
X17966986Y-62454706D01*
X18224966Y-62592599D01*
X18504889Y-62677513D01*
X18723050Y-62699000D01*
X18868950Y-62699000D01*
X19087111Y-62677513D01*
X19367034Y-62592599D01*
X19625014Y-62454706D01*
X19851134Y-62269134D01*
X20036706Y-62043014D01*
X20066000Y-61988209D01*
X20095294Y-62043014D01*
X20280866Y-62269134D01*
X20506986Y-62454706D01*
X20764966Y-62592599D01*
X21044889Y-62677513D01*
X21263050Y-62699000D01*
X21408950Y-62699000D01*
X21627111Y-62677513D01*
X21907034Y-62592599D01*
X22165014Y-62454706D01*
X22391134Y-62269134D01*
X22576706Y-62043014D01*
X22606000Y-61988209D01*
X22635294Y-62043014D01*
X22820866Y-62269134D01*
X23046986Y-62454706D01*
X23304966Y-62592599D01*
X23584889Y-62677513D01*
X23803050Y-62699000D01*
X23948950Y-62699000D01*
X24167111Y-62677513D01*
X24447034Y-62592599D01*
X24705014Y-62454706D01*
X24931134Y-62269134D01*
X25116706Y-62043014D01*
X25146000Y-61988209D01*
X25175294Y-62043014D01*
X25360866Y-62269134D01*
X25586986Y-62454706D01*
X25844966Y-62592599D01*
X26124889Y-62677513D01*
X26343050Y-62699000D01*
X26488950Y-62699000D01*
X26707111Y-62677513D01*
X26987034Y-62592599D01*
X27245014Y-62454706D01*
X27471134Y-62269134D01*
X27656706Y-62043014D01*
X27686000Y-61988209D01*
X27715294Y-62043014D01*
X27900866Y-62269134D01*
X28126986Y-62454706D01*
X28384966Y-62592599D01*
X28664889Y-62677513D01*
X28883050Y-62699000D01*
X29028950Y-62699000D01*
X29247111Y-62677513D01*
X29527034Y-62592599D01*
X29785014Y-62454706D01*
X30011134Y-62269134D01*
X30196706Y-62043014D01*
X30226000Y-61988209D01*
X30255294Y-62043014D01*
X30440866Y-62269134D01*
X30666986Y-62454706D01*
X30924966Y-62592599D01*
X31204889Y-62677513D01*
X31423050Y-62699000D01*
X31568950Y-62699000D01*
X31787111Y-62677513D01*
X32067034Y-62592599D01*
X32325014Y-62454706D01*
X32551134Y-62269134D01*
X32736706Y-62043014D01*
X32766000Y-61988209D01*
X32795294Y-62043014D01*
X32980866Y-62269134D01*
X33206986Y-62454706D01*
X33464966Y-62592599D01*
X33744889Y-62677513D01*
X33963050Y-62699000D01*
X34108950Y-62699000D01*
X34327111Y-62677513D01*
X34607034Y-62592599D01*
X34865014Y-62454706D01*
X35091134Y-62269134D01*
X35276706Y-62043014D01*
X35306000Y-61988209D01*
X35335294Y-62043014D01*
X35520866Y-62269134D01*
X35746986Y-62454706D01*
X36004966Y-62592599D01*
X36284889Y-62677513D01*
X36503050Y-62699000D01*
X36648950Y-62699000D01*
X36867111Y-62677513D01*
X37147034Y-62592599D01*
X37405014Y-62454706D01*
X37631134Y-62269134D01*
X37816706Y-62043014D01*
X37846000Y-61988209D01*
X37875294Y-62043014D01*
X38060866Y-62269134D01*
X38286986Y-62454706D01*
X38544966Y-62592599D01*
X38824889Y-62677513D01*
X39043050Y-62699000D01*
X39188950Y-62699000D01*
X39407111Y-62677513D01*
X39687034Y-62592599D01*
X39945014Y-62454706D01*
X40171134Y-62269134D01*
X40356706Y-62043014D01*
X40391201Y-61978477D01*
X40460822Y-62095355D01*
G36*
X41783000Y-61087000D02*
G01*
X41803000Y-61087000D01*
X41803000Y-61341000D01*
X41783000Y-61341000D01*
X41783000Y-61361000D01*
X41529000Y-61361000D01*
X41529000Y-61341000D01*
X41509000Y-61341000D01*
X41509000Y-61087000D01*
X41529000Y-61087000D01*
X41529000Y-61067000D01*
X41783000Y-61067000D01*
X41783000Y-61087000D01*
X41783000Y-61087000D01*
G37*
X41783000Y-61087000D02*
X41803000Y-61087000D01*
X41803000Y-61341000D01*
X41783000Y-61341000D01*
X41783000Y-61361000D01*
X41529000Y-61361000D01*
X41529000Y-61341000D01*
X41509000Y-61341000D01*
X41509000Y-61087000D01*
X41529000Y-61087000D01*
X41529000Y-61067000D01*
X41783000Y-61067000D01*
X41783000Y-61087000D01*
G36*
X40415294Y-59503014D02*
G01*
X40600866Y-59729134D01*
X40826986Y-59914706D01*
X40884756Y-59945584D01*
X40655731Y-60116412D01*
X40460822Y-60332645D01*
X40391201Y-60449523D01*
X40356706Y-60384986D01*
X40171134Y-60158866D01*
X39945014Y-59973294D01*
X39890209Y-59944000D01*
X39945014Y-59914706D01*
X40171134Y-59729134D01*
X40356706Y-59503014D01*
X40386000Y-59448209D01*
X40415294Y-59503014D01*
X40415294Y-59503014D01*
G37*
X40415294Y-59503014D02*
X40600866Y-59729134D01*
X40826986Y-59914706D01*
X40884756Y-59945584D01*
X40655731Y-60116412D01*
X40460822Y-60332645D01*
X40391201Y-60449523D01*
X40356706Y-60384986D01*
X40171134Y-60158866D01*
X39945014Y-59973294D01*
X39890209Y-59944000D01*
X39945014Y-59914706D01*
X40171134Y-59729134D01*
X40356706Y-59503014D01*
X40386000Y-59448209D01*
X40415294Y-59503014D01*
G36*
X19050000Y-49403000D02*
G01*
X19070000Y-49403000D01*
X19070000Y-49657000D01*
X19050000Y-49657000D01*
X19050000Y-50850155D01*
X19279890Y-50971476D01*
X19427099Y-50926825D01*
X19689920Y-50801641D01*
X19923269Y-50627588D01*
X20118178Y-50411355D01*
X20187799Y-50294477D01*
X20222294Y-50359014D01*
X20407866Y-50585134D01*
X20633986Y-50770706D01*
X20891966Y-50908599D01*
X21171889Y-50993513D01*
X21390050Y-51015000D01*
X21535950Y-51015000D01*
X21754111Y-50993513D01*
X22034034Y-50908599D01*
X22292014Y-50770706D01*
X22518134Y-50585134D01*
X22703706Y-50359014D01*
X22733000Y-50304209D01*
X22762294Y-50359014D01*
X22947866Y-50585134D01*
X23173986Y-50770706D01*
X23431966Y-50908599D01*
X23711889Y-50993513D01*
X23930050Y-51015000D01*
X24075950Y-51015000D01*
X24286404Y-50994272D01*
X24291569Y-50999437D01*
X24291575Y-50999442D01*
X24458000Y-51165867D01*
X24458000Y-52561202D01*
X24294111Y-52511487D01*
X24075950Y-52490000D01*
X23930050Y-52490000D01*
X23711889Y-52511487D01*
X23431966Y-52596401D01*
X23173986Y-52734294D01*
X22947866Y-52919866D01*
X22762294Y-53145986D01*
X22733000Y-53200791D01*
X22703706Y-53145986D01*
X22518134Y-52919866D01*
X22292014Y-52734294D01*
X22034034Y-52596401D01*
X21754111Y-52511487D01*
X21535950Y-52490000D01*
X21390050Y-52490000D01*
X21171889Y-52511487D01*
X20891966Y-52596401D01*
X20633986Y-52734294D01*
X20407866Y-52919866D01*
X20383393Y-52949687D01*
X20362502Y-52880820D01*
X20303537Y-52770506D01*
X20224185Y-52673815D01*
X20127494Y-52594463D01*
X20017180Y-52535498D01*
X19897482Y-52499188D01*
X19773000Y-52486928D01*
X18073000Y-52486928D01*
X17948518Y-52499188D01*
X17828820Y-52535498D01*
X17718506Y-52594463D01*
X17621815Y-52673815D01*
X17542463Y-52770506D01*
X17483498Y-52880820D01*
X17447188Y-53000518D01*
X17434928Y-53125000D01*
X17434928Y-54825000D01*
X17447188Y-54949482D01*
X17483498Y-55069180D01*
X17542463Y-55179494D01*
X17621815Y-55276185D01*
X17718506Y-55355537D01*
X17828820Y-55414502D01*
X17948518Y-55450812D01*
X18073000Y-55463072D01*
X19773000Y-55463072D01*
X19897482Y-55450812D01*
X20017180Y-55414502D01*
X20127494Y-55355537D01*
X20224185Y-55276185D01*
X20303537Y-55179494D01*
X20362502Y-55069180D01*
X20383393Y-55000313D01*
X20407866Y-55030134D01*
X20633986Y-55215706D01*
X20891966Y-55353599D01*
X21171889Y-55438513D01*
X21390050Y-55460000D01*
X21535950Y-55460000D01*
X21754111Y-55438513D01*
X22034034Y-55353599D01*
X22292014Y-55215706D01*
X22518134Y-55030134D01*
X22703706Y-54804014D01*
X22733000Y-54749209D01*
X22762294Y-54804014D01*
X22947866Y-55030134D01*
X23173986Y-55215706D01*
X23431966Y-55353599D01*
X23711889Y-55438513D01*
X23930050Y-55460000D01*
X24075950Y-55460000D01*
X24294111Y-55438513D01*
X24457999Y-55388798D01*
X24457999Y-55667245D01*
X24390827Y-55792915D01*
X24343081Y-55950313D01*
X24326959Y-56114001D01*
X24331000Y-56155029D01*
X24331000Y-57260202D01*
X24167111Y-57210487D01*
X23948950Y-57189000D01*
X23803050Y-57189000D01*
X23584889Y-57210487D01*
X23304966Y-57295401D01*
X23046986Y-57433294D01*
X22820866Y-57618866D01*
X22635294Y-57844986D01*
X22606000Y-57899791D01*
X22576706Y-57844986D01*
X22391134Y-57618866D01*
X22165014Y-57433294D01*
X21907034Y-57295401D01*
X21627111Y-57210487D01*
X21408950Y-57189000D01*
X21263050Y-57189000D01*
X21044889Y-57210487D01*
X20764966Y-57295401D01*
X20506986Y-57433294D01*
X20280866Y-57618866D01*
X20095294Y-57844986D01*
X20066000Y-57899791D01*
X20036706Y-57844986D01*
X19851134Y-57618866D01*
X19625014Y-57433294D01*
X19367034Y-57295401D01*
X19087111Y-57210487D01*
X18868950Y-57189000D01*
X18723050Y-57189000D01*
X18504889Y-57210487D01*
X18224966Y-57295401D01*
X17966986Y-57433294D01*
X17740866Y-57618866D01*
X17555294Y-57844986D01*
X17526000Y-57899791D01*
X17496706Y-57844986D01*
X17311134Y-57618866D01*
X17085014Y-57433294D01*
X16827034Y-57295401D01*
X16547111Y-57210487D01*
X16328950Y-57189000D01*
X16183050Y-57189000D01*
X15964889Y-57210487D01*
X15801001Y-57260202D01*
X15801001Y-51944016D01*
X15805041Y-51903000D01*
X15800647Y-51858391D01*
X15788919Y-51739312D01*
X15741173Y-51581914D01*
X15663637Y-51436855D01*
X15559292Y-51309710D01*
X15527429Y-51283561D01*
X15106214Y-50862347D01*
X15144185Y-50831185D01*
X15223537Y-50734494D01*
X15282502Y-50624180D01*
X15303393Y-50555313D01*
X15327866Y-50585134D01*
X15553986Y-50770706D01*
X15811966Y-50908599D01*
X16091889Y-50993513D01*
X16310050Y-51015000D01*
X16455950Y-51015000D01*
X16674111Y-50993513D01*
X16954034Y-50908599D01*
X17212014Y-50770706D01*
X17438134Y-50585134D01*
X17623706Y-50359014D01*
X17658201Y-50294477D01*
X17727822Y-50411355D01*
X17922731Y-50627588D01*
X18156080Y-50801641D01*
X18418901Y-50926825D01*
X18566110Y-50971476D01*
X18796000Y-50850155D01*
X18796000Y-49657000D01*
X18776000Y-49657000D01*
X18776000Y-49403000D01*
X18796000Y-49403000D01*
X18796000Y-49383000D01*
X19050000Y-49383000D01*
X19050000Y-49403000D01*
X19050000Y-49403000D01*
G37*
X19050000Y-49403000D02*
X19070000Y-49403000D01*
X19070000Y-49657000D01*
X19050000Y-49657000D01*
X19050000Y-50850155D01*
X19279890Y-50971476D01*
X19427099Y-50926825D01*
X19689920Y-50801641D01*
X19923269Y-50627588D01*
X20118178Y-50411355D01*
X20187799Y-50294477D01*
X20222294Y-50359014D01*
X20407866Y-50585134D01*
X20633986Y-50770706D01*
X20891966Y-50908599D01*
X21171889Y-50993513D01*
X21390050Y-51015000D01*
X21535950Y-51015000D01*
X21754111Y-50993513D01*
X22034034Y-50908599D01*
X22292014Y-50770706D01*
X22518134Y-50585134D01*
X22703706Y-50359014D01*
X22733000Y-50304209D01*
X22762294Y-50359014D01*
X22947866Y-50585134D01*
X23173986Y-50770706D01*
X23431966Y-50908599D01*
X23711889Y-50993513D01*
X23930050Y-51015000D01*
X24075950Y-51015000D01*
X24286404Y-50994272D01*
X24291569Y-50999437D01*
X24291575Y-50999442D01*
X24458000Y-51165867D01*
X24458000Y-52561202D01*
X24294111Y-52511487D01*
X24075950Y-52490000D01*
X23930050Y-52490000D01*
X23711889Y-52511487D01*
X23431966Y-52596401D01*
X23173986Y-52734294D01*
X22947866Y-52919866D01*
X22762294Y-53145986D01*
X22733000Y-53200791D01*
X22703706Y-53145986D01*
X22518134Y-52919866D01*
X22292014Y-52734294D01*
X22034034Y-52596401D01*
X21754111Y-52511487D01*
X21535950Y-52490000D01*
X21390050Y-52490000D01*
X21171889Y-52511487D01*
X20891966Y-52596401D01*
X20633986Y-52734294D01*
X20407866Y-52919866D01*
X20383393Y-52949687D01*
X20362502Y-52880820D01*
X20303537Y-52770506D01*
X20224185Y-52673815D01*
X20127494Y-52594463D01*
X20017180Y-52535498D01*
X19897482Y-52499188D01*
X19773000Y-52486928D01*
X18073000Y-52486928D01*
X17948518Y-52499188D01*
X17828820Y-52535498D01*
X17718506Y-52594463D01*
X17621815Y-52673815D01*
X17542463Y-52770506D01*
X17483498Y-52880820D01*
X17447188Y-53000518D01*
X17434928Y-53125000D01*
X17434928Y-54825000D01*
X17447188Y-54949482D01*
X17483498Y-55069180D01*
X17542463Y-55179494D01*
X17621815Y-55276185D01*
X17718506Y-55355537D01*
X17828820Y-55414502D01*
X17948518Y-55450812D01*
X18073000Y-55463072D01*
X19773000Y-55463072D01*
X19897482Y-55450812D01*
X20017180Y-55414502D01*
X20127494Y-55355537D01*
X20224185Y-55276185D01*
X20303537Y-55179494D01*
X20362502Y-55069180D01*
X20383393Y-55000313D01*
X20407866Y-55030134D01*
X20633986Y-55215706D01*
X20891966Y-55353599D01*
X21171889Y-55438513D01*
X21390050Y-55460000D01*
X21535950Y-55460000D01*
X21754111Y-55438513D01*
X22034034Y-55353599D01*
X22292014Y-55215706D01*
X22518134Y-55030134D01*
X22703706Y-54804014D01*
X22733000Y-54749209D01*
X22762294Y-54804014D01*
X22947866Y-55030134D01*
X23173986Y-55215706D01*
X23431966Y-55353599D01*
X23711889Y-55438513D01*
X23930050Y-55460000D01*
X24075950Y-55460000D01*
X24294111Y-55438513D01*
X24457999Y-55388798D01*
X24457999Y-55667245D01*
X24390827Y-55792915D01*
X24343081Y-55950313D01*
X24326959Y-56114001D01*
X24331000Y-56155029D01*
X24331000Y-57260202D01*
X24167111Y-57210487D01*
X23948950Y-57189000D01*
X23803050Y-57189000D01*
X23584889Y-57210487D01*
X23304966Y-57295401D01*
X23046986Y-57433294D01*
X22820866Y-57618866D01*
X22635294Y-57844986D01*
X22606000Y-57899791D01*
X22576706Y-57844986D01*
X22391134Y-57618866D01*
X22165014Y-57433294D01*
X21907034Y-57295401D01*
X21627111Y-57210487D01*
X21408950Y-57189000D01*
X21263050Y-57189000D01*
X21044889Y-57210487D01*
X20764966Y-57295401D01*
X20506986Y-57433294D01*
X20280866Y-57618866D01*
X20095294Y-57844986D01*
X20066000Y-57899791D01*
X20036706Y-57844986D01*
X19851134Y-57618866D01*
X19625014Y-57433294D01*
X19367034Y-57295401D01*
X19087111Y-57210487D01*
X18868950Y-57189000D01*
X18723050Y-57189000D01*
X18504889Y-57210487D01*
X18224966Y-57295401D01*
X17966986Y-57433294D01*
X17740866Y-57618866D01*
X17555294Y-57844986D01*
X17526000Y-57899791D01*
X17496706Y-57844986D01*
X17311134Y-57618866D01*
X17085014Y-57433294D01*
X16827034Y-57295401D01*
X16547111Y-57210487D01*
X16328950Y-57189000D01*
X16183050Y-57189000D01*
X15964889Y-57210487D01*
X15801001Y-57260202D01*
X15801001Y-51944016D01*
X15805041Y-51903000D01*
X15800647Y-51858391D01*
X15788919Y-51739312D01*
X15741173Y-51581914D01*
X15663637Y-51436855D01*
X15559292Y-51309710D01*
X15527429Y-51283561D01*
X15106214Y-50862347D01*
X15144185Y-50831185D01*
X15223537Y-50734494D01*
X15282502Y-50624180D01*
X15303393Y-50555313D01*
X15327866Y-50585134D01*
X15553986Y-50770706D01*
X15811966Y-50908599D01*
X16091889Y-50993513D01*
X16310050Y-51015000D01*
X16455950Y-51015000D01*
X16674111Y-50993513D01*
X16954034Y-50908599D01*
X17212014Y-50770706D01*
X17438134Y-50585134D01*
X17623706Y-50359014D01*
X17658201Y-50294477D01*
X17727822Y-50411355D01*
X17922731Y-50627588D01*
X18156080Y-50801641D01*
X18418901Y-50926825D01*
X18566110Y-50971476D01*
X18796000Y-50850155D01*
X18796000Y-49657000D01*
X18776000Y-49657000D01*
X18776000Y-49403000D01*
X18796000Y-49403000D01*
X18796000Y-49383000D01*
X19050000Y-49383000D01*
X19050000Y-49403000D01*
G36*
X42932785Y-57341654D02*
G01*
X42894815Y-57372815D01*
X42815463Y-57469506D01*
X42756498Y-57579820D01*
X42735607Y-57648687D01*
X42711134Y-57618866D01*
X42485014Y-57433294D01*
X42227034Y-57295401D01*
X41947111Y-57210487D01*
X41728950Y-57189000D01*
X41583050Y-57189000D01*
X41364889Y-57210487D01*
X41084966Y-57295401D01*
X40826986Y-57433294D01*
X40600866Y-57618866D01*
X40415294Y-57844986D01*
X40386000Y-57899791D01*
X40356706Y-57844986D01*
X40171134Y-57618866D01*
X39945014Y-57433294D01*
X39687034Y-57295401D01*
X39407111Y-57210487D01*
X39188950Y-57189000D01*
X39043050Y-57189000D01*
X38824889Y-57210487D01*
X38544966Y-57295401D01*
X38286986Y-57433294D01*
X38060866Y-57618866D01*
X37875294Y-57844986D01*
X37846000Y-57899791D01*
X37816706Y-57844986D01*
X37631134Y-57618866D01*
X37405014Y-57433294D01*
X37147034Y-57295401D01*
X36867111Y-57210487D01*
X36648950Y-57189000D01*
X36503050Y-57189000D01*
X36284889Y-57210487D01*
X36004966Y-57295401D01*
X35746986Y-57433294D01*
X35520866Y-57618866D01*
X35335294Y-57844986D01*
X35306000Y-57899791D01*
X35276706Y-57844986D01*
X35091134Y-57618866D01*
X34865014Y-57433294D01*
X34607034Y-57295401D01*
X34327111Y-57210487D01*
X34108950Y-57189000D01*
X33963050Y-57189000D01*
X33744889Y-57210487D01*
X33464966Y-57295401D01*
X33206986Y-57433294D01*
X32980866Y-57618866D01*
X32795294Y-57844986D01*
X32766000Y-57899791D01*
X32736706Y-57844986D01*
X32551134Y-57618866D01*
X32325014Y-57433294D01*
X32067034Y-57295401D01*
X31787111Y-57210487D01*
X31568950Y-57189000D01*
X31423050Y-57189000D01*
X31204889Y-57210487D01*
X30924966Y-57295401D01*
X30666986Y-57433294D01*
X30440866Y-57618866D01*
X30255294Y-57844986D01*
X30226000Y-57899791D01*
X30196706Y-57844986D01*
X30011134Y-57618866D01*
X29785014Y-57433294D01*
X29527034Y-57295401D01*
X29247111Y-57210487D01*
X29028950Y-57189000D01*
X28883050Y-57189000D01*
X28664889Y-57210487D01*
X28540999Y-57248069D01*
X28540999Y-56207000D01*
X29333726Y-56207000D01*
X29318000Y-56286061D01*
X29318000Y-56489939D01*
X29357774Y-56689898D01*
X29435795Y-56878256D01*
X29549063Y-57047774D01*
X29693226Y-57191937D01*
X29862744Y-57305205D01*
X30051102Y-57383226D01*
X30251061Y-57423000D01*
X30454939Y-57423000D01*
X30654898Y-57383226D01*
X30843256Y-57305205D01*
X31012774Y-57191937D01*
X31156937Y-57047774D01*
X31270205Y-56878256D01*
X31299716Y-56807010D01*
X36950972Y-56807010D01*
X36991990Y-56811050D01*
X37033008Y-56807010D01*
X37033009Y-56807010D01*
X37155679Y-56794928D01*
X37313077Y-56747182D01*
X37458136Y-56669646D01*
X37585281Y-56565301D01*
X37611436Y-56533431D01*
X38554427Y-55590441D01*
X38586290Y-55564292D01*
X38690635Y-55437147D01*
X38726457Y-55370129D01*
X38951889Y-55438513D01*
X39170050Y-55460000D01*
X39315950Y-55460000D01*
X39534111Y-55438513D01*
X39814034Y-55353599D01*
X40072014Y-55215706D01*
X40298134Y-55030134D01*
X40443788Y-54852655D01*
X42932785Y-57341654D01*
X42932785Y-57341654D01*
G37*
X42932785Y-57341654D02*
X42894815Y-57372815D01*
X42815463Y-57469506D01*
X42756498Y-57579820D01*
X42735607Y-57648687D01*
X42711134Y-57618866D01*
X42485014Y-57433294D01*
X42227034Y-57295401D01*
X41947111Y-57210487D01*
X41728950Y-57189000D01*
X41583050Y-57189000D01*
X41364889Y-57210487D01*
X41084966Y-57295401D01*
X40826986Y-57433294D01*
X40600866Y-57618866D01*
X40415294Y-57844986D01*
X40386000Y-57899791D01*
X40356706Y-57844986D01*
X40171134Y-57618866D01*
X39945014Y-57433294D01*
X39687034Y-57295401D01*
X39407111Y-57210487D01*
X39188950Y-57189000D01*
X39043050Y-57189000D01*
X38824889Y-57210487D01*
X38544966Y-57295401D01*
X38286986Y-57433294D01*
X38060866Y-57618866D01*
X37875294Y-57844986D01*
X37846000Y-57899791D01*
X37816706Y-57844986D01*
X37631134Y-57618866D01*
X37405014Y-57433294D01*
X37147034Y-57295401D01*
X36867111Y-57210487D01*
X36648950Y-57189000D01*
X36503050Y-57189000D01*
X36284889Y-57210487D01*
X36004966Y-57295401D01*
X35746986Y-57433294D01*
X35520866Y-57618866D01*
X35335294Y-57844986D01*
X35306000Y-57899791D01*
X35276706Y-57844986D01*
X35091134Y-57618866D01*
X34865014Y-57433294D01*
X34607034Y-57295401D01*
X34327111Y-57210487D01*
X34108950Y-57189000D01*
X33963050Y-57189000D01*
X33744889Y-57210487D01*
X33464966Y-57295401D01*
X33206986Y-57433294D01*
X32980866Y-57618866D01*
X32795294Y-57844986D01*
X32766000Y-57899791D01*
X32736706Y-57844986D01*
X32551134Y-57618866D01*
X32325014Y-57433294D01*
X32067034Y-57295401D01*
X31787111Y-57210487D01*
X31568950Y-57189000D01*
X31423050Y-57189000D01*
X31204889Y-57210487D01*
X30924966Y-57295401D01*
X30666986Y-57433294D01*
X30440866Y-57618866D01*
X30255294Y-57844986D01*
X30226000Y-57899791D01*
X30196706Y-57844986D01*
X30011134Y-57618866D01*
X29785014Y-57433294D01*
X29527034Y-57295401D01*
X29247111Y-57210487D01*
X29028950Y-57189000D01*
X28883050Y-57189000D01*
X28664889Y-57210487D01*
X28540999Y-57248069D01*
X28540999Y-56207000D01*
X29333726Y-56207000D01*
X29318000Y-56286061D01*
X29318000Y-56489939D01*
X29357774Y-56689898D01*
X29435795Y-56878256D01*
X29549063Y-57047774D01*
X29693226Y-57191937D01*
X29862744Y-57305205D01*
X30051102Y-57383226D01*
X30251061Y-57423000D01*
X30454939Y-57423000D01*
X30654898Y-57383226D01*
X30843256Y-57305205D01*
X31012774Y-57191937D01*
X31156937Y-57047774D01*
X31270205Y-56878256D01*
X31299716Y-56807010D01*
X36950972Y-56807010D01*
X36991990Y-56811050D01*
X37033008Y-56807010D01*
X37033009Y-56807010D01*
X37155679Y-56794928D01*
X37313077Y-56747182D01*
X37458136Y-56669646D01*
X37585281Y-56565301D01*
X37611436Y-56533431D01*
X38554427Y-55590441D01*
X38586290Y-55564292D01*
X38690635Y-55437147D01*
X38726457Y-55370129D01*
X38951889Y-55438513D01*
X39170050Y-55460000D01*
X39315950Y-55460000D01*
X39534111Y-55438513D01*
X39814034Y-55353599D01*
X40072014Y-55215706D01*
X40298134Y-55030134D01*
X40443788Y-54852655D01*
X42932785Y-57341654D01*
G36*
X12748820Y-50969502D02*
G01*
X12868518Y-51005812D01*
X12993000Y-51018072D01*
X13042646Y-51018072D01*
X13067828Y-51101086D01*
X13145364Y-51246145D01*
X13145365Y-51246146D01*
X13249710Y-51373291D01*
X13281574Y-51399441D01*
X14131001Y-52248869D01*
X14131002Y-57248069D01*
X14007111Y-57210487D01*
X13788950Y-57189000D01*
X13643050Y-57189000D01*
X13424889Y-57210487D01*
X13144966Y-57295401D01*
X12886986Y-57433294D01*
X12725000Y-57566233D01*
X12725000Y-50956770D01*
X12748820Y-50969502D01*
X12748820Y-50969502D01*
G37*
X12748820Y-50969502D02*
X12868518Y-51005812D01*
X12993000Y-51018072D01*
X13042646Y-51018072D01*
X13067828Y-51101086D01*
X13145364Y-51246145D01*
X13145365Y-51246146D01*
X13249710Y-51373291D01*
X13281574Y-51399441D01*
X14131001Y-52248869D01*
X14131002Y-57248069D01*
X14007111Y-57210487D01*
X13788950Y-57189000D01*
X13643050Y-57189000D01*
X13424889Y-57210487D01*
X13144966Y-57295401D01*
X12886986Y-57433294D01*
X12725000Y-57566233D01*
X12725000Y-50956770D01*
X12748820Y-50969502D01*
G36*
X40542294Y-50359014D02*
G01*
X40727866Y-50585134D01*
X40953986Y-50770706D01*
X41211966Y-50908599D01*
X41491889Y-50993513D01*
X41710050Y-51015000D01*
X41855950Y-51015000D01*
X42074111Y-50993513D01*
X42354034Y-50908599D01*
X42560416Y-50798285D01*
X44611002Y-52848872D01*
X44611001Y-56658133D01*
X41366446Y-53413579D01*
X41340291Y-53381709D01*
X41213146Y-53277364D01*
X41068087Y-53199828D01*
X40910689Y-53152082D01*
X40788019Y-53140000D01*
X40788018Y-53140000D01*
X40747000Y-53135960D01*
X40705982Y-53140000D01*
X40478793Y-53140000D01*
X40298134Y-52919866D01*
X40072014Y-52734294D01*
X39814034Y-52596401D01*
X39534111Y-52511487D01*
X39315950Y-52490000D01*
X39170050Y-52490000D01*
X38951889Y-52511487D01*
X38827999Y-52549069D01*
X38827999Y-52258017D01*
X38832039Y-52216999D01*
X38815917Y-52053311D01*
X38810926Y-52036857D01*
X38768171Y-51895912D01*
X38690635Y-51750853D01*
X38586290Y-51623708D01*
X38554420Y-51597553D01*
X38465446Y-51508579D01*
X38445041Y-51483715D01*
X38395937Y-51410226D01*
X38251774Y-51266063D01*
X38082256Y-51152795D01*
X37893898Y-51074774D01*
X37693939Y-51035000D01*
X37490061Y-51035000D01*
X37483274Y-51036350D01*
X37525918Y-50895770D01*
X37538000Y-50773100D01*
X37538783Y-50765151D01*
X37758134Y-50585134D01*
X37943706Y-50359014D01*
X37973000Y-50304209D01*
X38002294Y-50359014D01*
X38187866Y-50585134D01*
X38413986Y-50770706D01*
X38671966Y-50908599D01*
X38951889Y-50993513D01*
X39170050Y-51015000D01*
X39315950Y-51015000D01*
X39534111Y-50993513D01*
X39814034Y-50908599D01*
X40072014Y-50770706D01*
X40298134Y-50585134D01*
X40483706Y-50359014D01*
X40513000Y-50304209D01*
X40542294Y-50359014D01*
X40542294Y-50359014D01*
G37*
X40542294Y-50359014D02*
X40727866Y-50585134D01*
X40953986Y-50770706D01*
X41211966Y-50908599D01*
X41491889Y-50993513D01*
X41710050Y-51015000D01*
X41855950Y-51015000D01*
X42074111Y-50993513D01*
X42354034Y-50908599D01*
X42560416Y-50798285D01*
X44611002Y-52848872D01*
X44611001Y-56658133D01*
X41366446Y-53413579D01*
X41340291Y-53381709D01*
X41213146Y-53277364D01*
X41068087Y-53199828D01*
X40910689Y-53152082D01*
X40788019Y-53140000D01*
X40788018Y-53140000D01*
X40747000Y-53135960D01*
X40705982Y-53140000D01*
X40478793Y-53140000D01*
X40298134Y-52919866D01*
X40072014Y-52734294D01*
X39814034Y-52596401D01*
X39534111Y-52511487D01*
X39315950Y-52490000D01*
X39170050Y-52490000D01*
X38951889Y-52511487D01*
X38827999Y-52549069D01*
X38827999Y-52258017D01*
X38832039Y-52216999D01*
X38815917Y-52053311D01*
X38810926Y-52036857D01*
X38768171Y-51895912D01*
X38690635Y-51750853D01*
X38586290Y-51623708D01*
X38554420Y-51597553D01*
X38465446Y-51508579D01*
X38445041Y-51483715D01*
X38395937Y-51410226D01*
X38251774Y-51266063D01*
X38082256Y-51152795D01*
X37893898Y-51074774D01*
X37693939Y-51035000D01*
X37490061Y-51035000D01*
X37483274Y-51036350D01*
X37525918Y-50895770D01*
X37538000Y-50773100D01*
X37538783Y-50765151D01*
X37758134Y-50585134D01*
X37943706Y-50359014D01*
X37973000Y-50304209D01*
X38002294Y-50359014D01*
X38187866Y-50585134D01*
X38413986Y-50770706D01*
X38671966Y-50908599D01*
X38951889Y-50993513D01*
X39170050Y-51015000D01*
X39315950Y-51015000D01*
X39534111Y-50993513D01*
X39814034Y-50908599D01*
X40072014Y-50770706D01*
X40298134Y-50585134D01*
X40483706Y-50359014D01*
X40513000Y-50304209D01*
X40542294Y-50359014D01*
G36*
X34290000Y-53848000D02*
G01*
X34310000Y-53848000D01*
X34310000Y-54102000D01*
X34290000Y-54102000D01*
X34290000Y-54122000D01*
X34036000Y-54122000D01*
X34036000Y-54102000D01*
X34016000Y-54102000D01*
X34016000Y-53848000D01*
X34036000Y-53848000D01*
X34036000Y-53828000D01*
X34290000Y-53828000D01*
X34290000Y-53848000D01*
X34290000Y-53848000D01*
G37*
X34290000Y-53848000D02*
X34310000Y-53848000D01*
X34310000Y-54102000D01*
X34290000Y-54102000D01*
X34290000Y-54122000D01*
X34036000Y-54122000D01*
X34036000Y-54102000D01*
X34016000Y-54102000D01*
X34016000Y-53848000D01*
X34036000Y-53848000D01*
X34036000Y-53828000D01*
X34290000Y-53828000D01*
X34290000Y-53848000D01*
G36*
X27842294Y-50359014D02*
G01*
X28027866Y-50585134D01*
X28253986Y-50770706D01*
X28511966Y-50908599D01*
X28791889Y-50993513D01*
X29010050Y-51015000D01*
X29155950Y-51015000D01*
X29366404Y-50994272D01*
X30495563Y-52123432D01*
X30521709Y-52155291D01*
X30553568Y-52181437D01*
X30553570Y-52181439D01*
X30602719Y-52221774D01*
X30648854Y-52259636D01*
X30793913Y-52337172D01*
X30951311Y-52384918D01*
X31013936Y-52391086D01*
X31115000Y-52401040D01*
X31156018Y-52397000D01*
X33422715Y-52397000D01*
X33545744Y-52479205D01*
X33731509Y-52556152D01*
X33658901Y-52578175D01*
X33396080Y-52703359D01*
X33162731Y-52877412D01*
X32967822Y-53093645D01*
X32898201Y-53210523D01*
X32863706Y-53145986D01*
X32678134Y-52919866D01*
X32452014Y-52734294D01*
X32194034Y-52596401D01*
X31914111Y-52511487D01*
X31695950Y-52490000D01*
X31550050Y-52490000D01*
X31331889Y-52511487D01*
X31051966Y-52596401D01*
X30793986Y-52734294D01*
X30567866Y-52919866D01*
X30382294Y-53145986D01*
X30353000Y-53200791D01*
X30323706Y-53145986D01*
X30138134Y-52919866D01*
X29912014Y-52734294D01*
X29654034Y-52596401D01*
X29374111Y-52511487D01*
X29155950Y-52490000D01*
X29010050Y-52490000D01*
X28799596Y-52510728D01*
X27378000Y-51089133D01*
X27378000Y-50765793D01*
X27598134Y-50585134D01*
X27783706Y-50359014D01*
X27813000Y-50304209D01*
X27842294Y-50359014D01*
X27842294Y-50359014D01*
G37*
X27842294Y-50359014D02*
X28027866Y-50585134D01*
X28253986Y-50770706D01*
X28511966Y-50908599D01*
X28791889Y-50993513D01*
X29010050Y-51015000D01*
X29155950Y-51015000D01*
X29366404Y-50994272D01*
X30495563Y-52123432D01*
X30521709Y-52155291D01*
X30553568Y-52181437D01*
X30553570Y-52181439D01*
X30602719Y-52221774D01*
X30648854Y-52259636D01*
X30793913Y-52337172D01*
X30951311Y-52384918D01*
X31013936Y-52391086D01*
X31115000Y-52401040D01*
X31156018Y-52397000D01*
X33422715Y-52397000D01*
X33545744Y-52479205D01*
X33731509Y-52556152D01*
X33658901Y-52578175D01*
X33396080Y-52703359D01*
X33162731Y-52877412D01*
X32967822Y-53093645D01*
X32898201Y-53210523D01*
X32863706Y-53145986D01*
X32678134Y-52919866D01*
X32452014Y-52734294D01*
X32194034Y-52596401D01*
X31914111Y-52511487D01*
X31695950Y-52490000D01*
X31550050Y-52490000D01*
X31331889Y-52511487D01*
X31051966Y-52596401D01*
X30793986Y-52734294D01*
X30567866Y-52919866D01*
X30382294Y-53145986D01*
X30353000Y-53200791D01*
X30323706Y-53145986D01*
X30138134Y-52919866D01*
X29912014Y-52734294D01*
X29654034Y-52596401D01*
X29374111Y-52511487D01*
X29155950Y-52490000D01*
X29010050Y-52490000D01*
X28799596Y-52510728D01*
X27378000Y-51089133D01*
X27378000Y-50765793D01*
X27598134Y-50585134D01*
X27783706Y-50359014D01*
X27813000Y-50304209D01*
X27842294Y-50359014D01*
G36*
X15002463Y-19115506D02*
G01*
X14943498Y-19225820D01*
X14907188Y-19345518D01*
X14894928Y-19470000D01*
X14894928Y-21170000D01*
X14907188Y-21294482D01*
X14943498Y-21414180D01*
X15002463Y-21524494D01*
X15081815Y-21621185D01*
X15178506Y-21700537D01*
X15288820Y-21759502D01*
X15408518Y-21795812D01*
X15533000Y-21808072D01*
X17233000Y-21808072D01*
X17357482Y-21795812D01*
X17477180Y-21759502D01*
X17587494Y-21700537D01*
X17684185Y-21621185D01*
X17763537Y-21524494D01*
X17822502Y-21414180D01*
X17843393Y-21345313D01*
X17867866Y-21375134D01*
X18093986Y-21560706D01*
X18351966Y-21698599D01*
X18631889Y-21783513D01*
X18850050Y-21805000D01*
X18995950Y-21805000D01*
X19214111Y-21783513D01*
X19494034Y-21698599D01*
X19752014Y-21560706D01*
X19978134Y-21375134D01*
X20163706Y-21149014D01*
X20193000Y-21094209D01*
X20222294Y-21149014D01*
X20407866Y-21375134D01*
X20633986Y-21560706D01*
X20891966Y-21698599D01*
X21171889Y-21783513D01*
X21390050Y-21805000D01*
X21535950Y-21805000D01*
X21754111Y-21783513D01*
X22034034Y-21698599D01*
X22292014Y-21560706D01*
X22518134Y-21375134D01*
X22703706Y-21149014D01*
X22733000Y-21094209D01*
X22762294Y-21149014D01*
X22947866Y-21375134D01*
X23173986Y-21560706D01*
X23431966Y-21698599D01*
X23711889Y-21783513D01*
X23930050Y-21805000D01*
X24075950Y-21805000D01*
X24294111Y-21783513D01*
X24574034Y-21698599D01*
X24832014Y-21560706D01*
X25058134Y-21375134D01*
X25243706Y-21149014D01*
X25273000Y-21094209D01*
X25302294Y-21149014D01*
X25487866Y-21375134D01*
X25713986Y-21560706D01*
X25971966Y-21698599D01*
X26251889Y-21783513D01*
X26421877Y-21800255D01*
X26197133Y-22025000D01*
X22194013Y-22025000D01*
X22152997Y-22020960D01*
X22111981Y-22025000D01*
X22111979Y-22025000D01*
X21989309Y-22037082D01*
X21831911Y-22084828D01*
X21686852Y-22162364D01*
X21559707Y-22266709D01*
X21533559Y-22298571D01*
X21175508Y-22656623D01*
X21167482Y-22654188D01*
X21043000Y-22641928D01*
X19343000Y-22641928D01*
X19218518Y-22654188D01*
X19098820Y-22690498D01*
X18988506Y-22749463D01*
X18891815Y-22828815D01*
X18812463Y-22925506D01*
X18753498Y-23035820D01*
X18717188Y-23155518D01*
X18704928Y-23280000D01*
X18704928Y-23329646D01*
X18629792Y-23352438D01*
X18621913Y-23354828D01*
X18476854Y-23432364D01*
X18384482Y-23508172D01*
X18349709Y-23536709D01*
X18323563Y-23568568D01*
X15821574Y-26070559D01*
X15789710Y-26096709D01*
X15763562Y-26128571D01*
X15685364Y-26223855D01*
X15607828Y-26368914D01*
X15560082Y-26526312D01*
X15543960Y-26690000D01*
X15548001Y-26731029D01*
X15548000Y-43596928D01*
X15533000Y-43596928D01*
X15408518Y-43609188D01*
X15288820Y-43645498D01*
X15178506Y-43704463D01*
X15081815Y-43783815D01*
X15002463Y-43880506D01*
X14943498Y-43990820D01*
X14907188Y-44110518D01*
X14894928Y-44235000D01*
X14894928Y-45935000D01*
X14907188Y-46059482D01*
X14943498Y-46179180D01*
X15002463Y-46289494D01*
X15081815Y-46386185D01*
X15178506Y-46465537D01*
X15288820Y-46524502D01*
X15408518Y-46560812D01*
X15533000Y-46573072D01*
X15582646Y-46573072D01*
X15607828Y-46656086D01*
X15685364Y-46801145D01*
X15789709Y-46928291D01*
X15821579Y-46954446D01*
X16926558Y-48059426D01*
X16952709Y-48091291D01*
X17079854Y-48195636D01*
X17224913Y-48273172D01*
X17382311Y-48320918D01*
X17504981Y-48333000D01*
X17504991Y-48333000D01*
X17545999Y-48337039D01*
X17587007Y-48333000D01*
X18056010Y-48333000D01*
X17922731Y-48432412D01*
X17727822Y-48648645D01*
X17658201Y-48765523D01*
X17623706Y-48700986D01*
X17438134Y-48474866D01*
X17212014Y-48289294D01*
X16954034Y-48151401D01*
X16674111Y-48066487D01*
X16455950Y-48045000D01*
X16310050Y-48045000D01*
X16091889Y-48066487D01*
X15811966Y-48151401D01*
X15553986Y-48289294D01*
X15327866Y-48474866D01*
X15303393Y-48504687D01*
X15282502Y-48435820D01*
X15223537Y-48325506D01*
X15144185Y-48228815D01*
X15047494Y-48149463D01*
X14937180Y-48090498D01*
X14817482Y-48054188D01*
X14693000Y-48041928D01*
X12993000Y-48041928D01*
X12868518Y-48054188D01*
X12748820Y-48090498D01*
X12725000Y-48103230D01*
X12725000Y-20682278D01*
X12758100Y-20344698D01*
X12846765Y-20051024D01*
X12990787Y-19780157D01*
X13184669Y-19542435D01*
X13421043Y-19346889D01*
X13690892Y-19200982D01*
X13983939Y-19110269D01*
X14319496Y-19075000D01*
X15035705Y-19075000D01*
X15002463Y-19115506D01*
X15002463Y-19115506D01*
G37*
X15002463Y-19115506D02*
X14943498Y-19225820D01*
X14907188Y-19345518D01*
X14894928Y-19470000D01*
X14894928Y-21170000D01*
X14907188Y-21294482D01*
X14943498Y-21414180D01*
X15002463Y-21524494D01*
X15081815Y-21621185D01*
X15178506Y-21700537D01*
X15288820Y-21759502D01*
X15408518Y-21795812D01*
X15533000Y-21808072D01*
X17233000Y-21808072D01*
X17357482Y-21795812D01*
X17477180Y-21759502D01*
X17587494Y-21700537D01*
X17684185Y-21621185D01*
X17763537Y-21524494D01*
X17822502Y-21414180D01*
X17843393Y-21345313D01*
X17867866Y-21375134D01*
X18093986Y-21560706D01*
X18351966Y-21698599D01*
X18631889Y-21783513D01*
X18850050Y-21805000D01*
X18995950Y-21805000D01*
X19214111Y-21783513D01*
X19494034Y-21698599D01*
X19752014Y-21560706D01*
X19978134Y-21375134D01*
X20163706Y-21149014D01*
X20193000Y-21094209D01*
X20222294Y-21149014D01*
X20407866Y-21375134D01*
X20633986Y-21560706D01*
X20891966Y-21698599D01*
X21171889Y-21783513D01*
X21390050Y-21805000D01*
X21535950Y-21805000D01*
X21754111Y-21783513D01*
X22034034Y-21698599D01*
X22292014Y-21560706D01*
X22518134Y-21375134D01*
X22703706Y-21149014D01*
X22733000Y-21094209D01*
X22762294Y-21149014D01*
X22947866Y-21375134D01*
X23173986Y-21560706D01*
X23431966Y-21698599D01*
X23711889Y-21783513D01*
X23930050Y-21805000D01*
X24075950Y-21805000D01*
X24294111Y-21783513D01*
X24574034Y-21698599D01*
X24832014Y-21560706D01*
X25058134Y-21375134D01*
X25243706Y-21149014D01*
X25273000Y-21094209D01*
X25302294Y-21149014D01*
X25487866Y-21375134D01*
X25713986Y-21560706D01*
X25971966Y-21698599D01*
X26251889Y-21783513D01*
X26421877Y-21800255D01*
X26197133Y-22025000D01*
X22194013Y-22025000D01*
X22152997Y-22020960D01*
X22111981Y-22025000D01*
X22111979Y-22025000D01*
X21989309Y-22037082D01*
X21831911Y-22084828D01*
X21686852Y-22162364D01*
X21559707Y-22266709D01*
X21533559Y-22298571D01*
X21175508Y-22656623D01*
X21167482Y-22654188D01*
X21043000Y-22641928D01*
X19343000Y-22641928D01*
X19218518Y-22654188D01*
X19098820Y-22690498D01*
X18988506Y-22749463D01*
X18891815Y-22828815D01*
X18812463Y-22925506D01*
X18753498Y-23035820D01*
X18717188Y-23155518D01*
X18704928Y-23280000D01*
X18704928Y-23329646D01*
X18629792Y-23352438D01*
X18621913Y-23354828D01*
X18476854Y-23432364D01*
X18384482Y-23508172D01*
X18349709Y-23536709D01*
X18323563Y-23568568D01*
X15821574Y-26070559D01*
X15789710Y-26096709D01*
X15763562Y-26128571D01*
X15685364Y-26223855D01*
X15607828Y-26368914D01*
X15560082Y-26526312D01*
X15543960Y-26690000D01*
X15548001Y-26731029D01*
X15548000Y-43596928D01*
X15533000Y-43596928D01*
X15408518Y-43609188D01*
X15288820Y-43645498D01*
X15178506Y-43704463D01*
X15081815Y-43783815D01*
X15002463Y-43880506D01*
X14943498Y-43990820D01*
X14907188Y-44110518D01*
X14894928Y-44235000D01*
X14894928Y-45935000D01*
X14907188Y-46059482D01*
X14943498Y-46179180D01*
X15002463Y-46289494D01*
X15081815Y-46386185D01*
X15178506Y-46465537D01*
X15288820Y-46524502D01*
X15408518Y-46560812D01*
X15533000Y-46573072D01*
X15582646Y-46573072D01*
X15607828Y-46656086D01*
X15685364Y-46801145D01*
X15789709Y-46928291D01*
X15821579Y-46954446D01*
X16926558Y-48059426D01*
X16952709Y-48091291D01*
X17079854Y-48195636D01*
X17224913Y-48273172D01*
X17382311Y-48320918D01*
X17504981Y-48333000D01*
X17504991Y-48333000D01*
X17545999Y-48337039D01*
X17587007Y-48333000D01*
X18056010Y-48333000D01*
X17922731Y-48432412D01*
X17727822Y-48648645D01*
X17658201Y-48765523D01*
X17623706Y-48700986D01*
X17438134Y-48474866D01*
X17212014Y-48289294D01*
X16954034Y-48151401D01*
X16674111Y-48066487D01*
X16455950Y-48045000D01*
X16310050Y-48045000D01*
X16091889Y-48066487D01*
X15811966Y-48151401D01*
X15553986Y-48289294D01*
X15327866Y-48474866D01*
X15303393Y-48504687D01*
X15282502Y-48435820D01*
X15223537Y-48325506D01*
X15144185Y-48228815D01*
X15047494Y-48149463D01*
X14937180Y-48090498D01*
X14817482Y-48054188D01*
X14693000Y-48041928D01*
X12993000Y-48041928D01*
X12868518Y-48054188D01*
X12748820Y-48090498D01*
X12725000Y-48103230D01*
X12725000Y-20682278D01*
X12758100Y-20344698D01*
X12846765Y-20051024D01*
X12990787Y-19780157D01*
X13184669Y-19542435D01*
X13421043Y-19346889D01*
X13690892Y-19200982D01*
X13983939Y-19110269D01*
X14319496Y-19075000D01*
X15035705Y-19075000D01*
X15002463Y-19115506D01*
G36*
X30114563Y-47297432D02*
G01*
X30140709Y-47329291D01*
X30172568Y-47355437D01*
X30172570Y-47355439D01*
X30264536Y-47430913D01*
X30267854Y-47433636D01*
X30412913Y-47511172D01*
X30570311Y-47558918D01*
X30692981Y-47571000D01*
X30692982Y-47571000D01*
X30734000Y-47575040D01*
X30775018Y-47571000D01*
X34960133Y-47571000D01*
X35766576Y-48377443D01*
X35647866Y-48474866D01*
X35462294Y-48700986D01*
X35433000Y-48755791D01*
X35403706Y-48700986D01*
X35218134Y-48474866D01*
X34992014Y-48289294D01*
X34734034Y-48151401D01*
X34454111Y-48066487D01*
X34235950Y-48045000D01*
X34090050Y-48045000D01*
X33871889Y-48066487D01*
X33591966Y-48151401D01*
X33333986Y-48289294D01*
X33107866Y-48474866D01*
X32922294Y-48700986D01*
X32893000Y-48755791D01*
X32863706Y-48700986D01*
X32678134Y-48474866D01*
X32452014Y-48289294D01*
X32194034Y-48151401D01*
X31914111Y-48066487D01*
X31695950Y-48045000D01*
X31550050Y-48045000D01*
X31331889Y-48066487D01*
X31051966Y-48151401D01*
X30793986Y-48289294D01*
X30567866Y-48474866D01*
X30382294Y-48700986D01*
X30353000Y-48755791D01*
X30323706Y-48700986D01*
X30138134Y-48474866D01*
X29918000Y-48294207D01*
X29918000Y-47666007D01*
X29922039Y-47624999D01*
X29918000Y-47583991D01*
X29918000Y-47583981D01*
X29905918Y-47461311D01*
X29858172Y-47303913D01*
X29780636Y-47158854D01*
X29676291Y-47031709D01*
X29644427Y-47005559D01*
X29204123Y-46565255D01*
X29366404Y-46549272D01*
X30114563Y-47297432D01*
X30114563Y-47297432D01*
G37*
X30114563Y-47297432D02*
X30140709Y-47329291D01*
X30172568Y-47355437D01*
X30172570Y-47355439D01*
X30264536Y-47430913D01*
X30267854Y-47433636D01*
X30412913Y-47511172D01*
X30570311Y-47558918D01*
X30692981Y-47571000D01*
X30692982Y-47571000D01*
X30734000Y-47575040D01*
X30775018Y-47571000D01*
X34960133Y-47571000D01*
X35766576Y-48377443D01*
X35647866Y-48474866D01*
X35462294Y-48700986D01*
X35433000Y-48755791D01*
X35403706Y-48700986D01*
X35218134Y-48474866D01*
X34992014Y-48289294D01*
X34734034Y-48151401D01*
X34454111Y-48066487D01*
X34235950Y-48045000D01*
X34090050Y-48045000D01*
X33871889Y-48066487D01*
X33591966Y-48151401D01*
X33333986Y-48289294D01*
X33107866Y-48474866D01*
X32922294Y-48700986D01*
X32893000Y-48755791D01*
X32863706Y-48700986D01*
X32678134Y-48474866D01*
X32452014Y-48289294D01*
X32194034Y-48151401D01*
X31914111Y-48066487D01*
X31695950Y-48045000D01*
X31550050Y-48045000D01*
X31331889Y-48066487D01*
X31051966Y-48151401D01*
X30793986Y-48289294D01*
X30567866Y-48474866D01*
X30382294Y-48700986D01*
X30353000Y-48755791D01*
X30323706Y-48700986D01*
X30138134Y-48474866D01*
X29918000Y-48294207D01*
X29918000Y-47666007D01*
X29922039Y-47624999D01*
X29918000Y-47583991D01*
X29918000Y-47583981D01*
X29905918Y-47461311D01*
X29858172Y-47303913D01*
X29780636Y-47158854D01*
X29676291Y-47031709D01*
X29644427Y-47005559D01*
X29204123Y-46565255D01*
X29366404Y-46549272D01*
X30114563Y-47297432D01*
G36*
X38002294Y-45914014D02*
G01*
X38187866Y-46140134D01*
X38413986Y-46325706D01*
X38671966Y-46463599D01*
X38951889Y-46548513D01*
X39170050Y-46570000D01*
X39315950Y-46570000D01*
X39526405Y-46549272D01*
X41157595Y-48180463D01*
X40953986Y-48289294D01*
X40727866Y-48474866D01*
X40542294Y-48700986D01*
X40513000Y-48755791D01*
X40483706Y-48700986D01*
X40298134Y-48474866D01*
X40072014Y-48289294D01*
X39814034Y-48151401D01*
X39534111Y-48066487D01*
X39315950Y-48045000D01*
X39170050Y-48045000D01*
X38951889Y-48066487D01*
X38671966Y-48151401D01*
X38413986Y-48289294D01*
X38187866Y-48474866D01*
X38002294Y-48700986D01*
X37973000Y-48755791D01*
X37943706Y-48700986D01*
X37758134Y-48474866D01*
X37538000Y-48294207D01*
X37538000Y-48174007D01*
X37542039Y-48132999D01*
X37538000Y-48091991D01*
X37538000Y-48091981D01*
X37525918Y-47969311D01*
X37478172Y-47811913D01*
X37400636Y-47666854D01*
X37296291Y-47539709D01*
X37264428Y-47513560D01*
X36250390Y-46499523D01*
X36411889Y-46548513D01*
X36630050Y-46570000D01*
X36775950Y-46570000D01*
X36994111Y-46548513D01*
X37274034Y-46463599D01*
X37532014Y-46325706D01*
X37758134Y-46140134D01*
X37943706Y-45914014D01*
X37973000Y-45859209D01*
X38002294Y-45914014D01*
X38002294Y-45914014D01*
G37*
X38002294Y-45914014D02*
X38187866Y-46140134D01*
X38413986Y-46325706D01*
X38671966Y-46463599D01*
X38951889Y-46548513D01*
X39170050Y-46570000D01*
X39315950Y-46570000D01*
X39526405Y-46549272D01*
X41157595Y-48180463D01*
X40953986Y-48289294D01*
X40727866Y-48474866D01*
X40542294Y-48700986D01*
X40513000Y-48755791D01*
X40483706Y-48700986D01*
X40298134Y-48474866D01*
X40072014Y-48289294D01*
X39814034Y-48151401D01*
X39534111Y-48066487D01*
X39315950Y-48045000D01*
X39170050Y-48045000D01*
X38951889Y-48066487D01*
X38671966Y-48151401D01*
X38413986Y-48289294D01*
X38187866Y-48474866D01*
X38002294Y-48700986D01*
X37973000Y-48755791D01*
X37943706Y-48700986D01*
X37758134Y-48474866D01*
X37538000Y-48294207D01*
X37538000Y-48174007D01*
X37542039Y-48132999D01*
X37538000Y-48091991D01*
X37538000Y-48091981D01*
X37525918Y-47969311D01*
X37478172Y-47811913D01*
X37400636Y-47666854D01*
X37296291Y-47539709D01*
X37264428Y-47513560D01*
X36250390Y-46499523D01*
X36411889Y-46548513D01*
X36630050Y-46570000D01*
X36775950Y-46570000D01*
X36994111Y-46548513D01*
X37274034Y-46463599D01*
X37532014Y-46325706D01*
X37758134Y-46140134D01*
X37943706Y-45914014D01*
X37973000Y-45859209D01*
X38002294Y-45914014D01*
G36*
X44120302Y-19108100D02*
G01*
X44413976Y-19196765D01*
X44684843Y-19340787D01*
X44922565Y-19534669D01*
X45118111Y-19771043D01*
X45264018Y-20040892D01*
X45354731Y-20333939D01*
X45390000Y-20669496D01*
X45390001Y-48489326D01*
X45378134Y-48474866D01*
X45152014Y-48289294D01*
X44894034Y-48151401D01*
X44614111Y-48066487D01*
X44395950Y-48045000D01*
X44250050Y-48045000D01*
X44031889Y-48066487D01*
X43751966Y-48151401D01*
X43581426Y-48242557D01*
X41908868Y-46570000D01*
X41910002Y-46570000D01*
X41910002Y-46405156D01*
X42139890Y-46526476D01*
X42287099Y-46481825D01*
X42549920Y-46356641D01*
X42783269Y-46182588D01*
X42978178Y-45966355D01*
X43127157Y-45716252D01*
X43224481Y-45441891D01*
X43103814Y-45212000D01*
X41910000Y-45212000D01*
X41910000Y-45232000D01*
X41656000Y-45232000D01*
X41656000Y-45212000D01*
X41636000Y-45212000D01*
X41636000Y-44958000D01*
X41656000Y-44958000D01*
X41656000Y-43764845D01*
X41910000Y-43764845D01*
X41910000Y-44958000D01*
X43103814Y-44958000D01*
X43224481Y-44728109D01*
X43127157Y-44453748D01*
X42978178Y-44203645D01*
X42783269Y-43987412D01*
X42549920Y-43813359D01*
X42287099Y-43688175D01*
X42139890Y-43643524D01*
X41910000Y-43764845D01*
X41656000Y-43764845D01*
X41426110Y-43643524D01*
X41278901Y-43688175D01*
X41016080Y-43813359D01*
X40927999Y-43879058D01*
X40927999Y-28831017D01*
X40932039Y-28789999D01*
X40915917Y-28626311D01*
X40868171Y-28468912D01*
X40790635Y-28323853D01*
X40712438Y-28228569D01*
X40712436Y-28228567D01*
X40686290Y-28196708D01*
X40654431Y-28170562D01*
X38098868Y-25615000D01*
X38100002Y-25615000D01*
X38100002Y-25450156D01*
X38329890Y-25571476D01*
X38477099Y-25526825D01*
X38739920Y-25401641D01*
X38973269Y-25227588D01*
X39168178Y-25011355D01*
X39317157Y-24761252D01*
X39414481Y-24486891D01*
X39293814Y-24257000D01*
X38100000Y-24257000D01*
X38100000Y-24277000D01*
X37846000Y-24277000D01*
X37846000Y-24257000D01*
X37826000Y-24257000D01*
X37826000Y-24003000D01*
X37846000Y-24003000D01*
X37846000Y-23983000D01*
X38100000Y-23983000D01*
X38100000Y-24003000D01*
X39293814Y-24003000D01*
X39414481Y-23773109D01*
X39342184Y-23569300D01*
X39370000Y-23572040D01*
X39411018Y-23568000D01*
X39411019Y-23568000D01*
X39533689Y-23555918D01*
X39691087Y-23508172D01*
X39836146Y-23430636D01*
X39963291Y-23326291D01*
X39989446Y-23294421D01*
X41499596Y-21784272D01*
X41710050Y-21805000D01*
X41855950Y-21805000D01*
X42074111Y-21783513D01*
X42354034Y-21698599D01*
X42612014Y-21560706D01*
X42838134Y-21375134D01*
X43023706Y-21149014D01*
X43161599Y-20891034D01*
X43246513Y-20611111D01*
X43275185Y-20320000D01*
X43246513Y-20028889D01*
X43161599Y-19748966D01*
X43023706Y-19490986D01*
X42838134Y-19264866D01*
X42612014Y-19079294D01*
X42603980Y-19075000D01*
X43782722Y-19075000D01*
X44120302Y-19108100D01*
X44120302Y-19108100D01*
G37*
X44120302Y-19108100D02*
X44413976Y-19196765D01*
X44684843Y-19340787D01*
X44922565Y-19534669D01*
X45118111Y-19771043D01*
X45264018Y-20040892D01*
X45354731Y-20333939D01*
X45390000Y-20669496D01*
X45390001Y-48489326D01*
X45378134Y-48474866D01*
X45152014Y-48289294D01*
X44894034Y-48151401D01*
X44614111Y-48066487D01*
X44395950Y-48045000D01*
X44250050Y-48045000D01*
X44031889Y-48066487D01*
X43751966Y-48151401D01*
X43581426Y-48242557D01*
X41908868Y-46570000D01*
X41910002Y-46570000D01*
X41910002Y-46405156D01*
X42139890Y-46526476D01*
X42287099Y-46481825D01*
X42549920Y-46356641D01*
X42783269Y-46182588D01*
X42978178Y-45966355D01*
X43127157Y-45716252D01*
X43224481Y-45441891D01*
X43103814Y-45212000D01*
X41910000Y-45212000D01*
X41910000Y-45232000D01*
X41656000Y-45232000D01*
X41656000Y-45212000D01*
X41636000Y-45212000D01*
X41636000Y-44958000D01*
X41656000Y-44958000D01*
X41656000Y-43764845D01*
X41910000Y-43764845D01*
X41910000Y-44958000D01*
X43103814Y-44958000D01*
X43224481Y-44728109D01*
X43127157Y-44453748D01*
X42978178Y-44203645D01*
X42783269Y-43987412D01*
X42549920Y-43813359D01*
X42287099Y-43688175D01*
X42139890Y-43643524D01*
X41910000Y-43764845D01*
X41656000Y-43764845D01*
X41426110Y-43643524D01*
X41278901Y-43688175D01*
X41016080Y-43813359D01*
X40927999Y-43879058D01*
X40927999Y-28831017D01*
X40932039Y-28789999D01*
X40915917Y-28626311D01*
X40868171Y-28468912D01*
X40790635Y-28323853D01*
X40712438Y-28228569D01*
X40712436Y-28228567D01*
X40686290Y-28196708D01*
X40654431Y-28170562D01*
X38098868Y-25615000D01*
X38100002Y-25615000D01*
X38100002Y-25450156D01*
X38329890Y-25571476D01*
X38477099Y-25526825D01*
X38739920Y-25401641D01*
X38973269Y-25227588D01*
X39168178Y-25011355D01*
X39317157Y-24761252D01*
X39414481Y-24486891D01*
X39293814Y-24257000D01*
X38100000Y-24257000D01*
X38100000Y-24277000D01*
X37846000Y-24277000D01*
X37846000Y-24257000D01*
X37826000Y-24257000D01*
X37826000Y-24003000D01*
X37846000Y-24003000D01*
X37846000Y-23983000D01*
X38100000Y-23983000D01*
X38100000Y-24003000D01*
X39293814Y-24003000D01*
X39414481Y-23773109D01*
X39342184Y-23569300D01*
X39370000Y-23572040D01*
X39411018Y-23568000D01*
X39411019Y-23568000D01*
X39533689Y-23555918D01*
X39691087Y-23508172D01*
X39836146Y-23430636D01*
X39963291Y-23326291D01*
X39989446Y-23294421D01*
X41499596Y-21784272D01*
X41710050Y-21805000D01*
X41855950Y-21805000D01*
X42074111Y-21783513D01*
X42354034Y-21698599D01*
X42612014Y-21560706D01*
X42838134Y-21375134D01*
X43023706Y-21149014D01*
X43161599Y-20891034D01*
X43246513Y-20611111D01*
X43275185Y-20320000D01*
X43246513Y-20028889D01*
X43161599Y-19748966D01*
X43023706Y-19490986D01*
X42838134Y-19264866D01*
X42612014Y-19079294D01*
X42603980Y-19075000D01*
X43782722Y-19075000D01*
X44120302Y-19108100D01*
G36*
X34192294Y-24959014D02*
G01*
X34377866Y-25185134D01*
X34603986Y-25370706D01*
X34861966Y-25508599D01*
X35141889Y-25593513D01*
X35360050Y-25615000D01*
X35505950Y-25615000D01*
X35716404Y-25594272D01*
X35721569Y-25599437D01*
X35721574Y-25599441D01*
X39258000Y-29135869D01*
X39257999Y-43600000D01*
X39170050Y-43600000D01*
X38951889Y-43621487D01*
X38671966Y-43706401D01*
X38413986Y-43844294D01*
X38187866Y-44029866D01*
X38002294Y-44255986D01*
X37973000Y-44310791D01*
X37943706Y-44255986D01*
X37758134Y-44029866D01*
X37532014Y-43844294D01*
X37274034Y-43706401D01*
X36994111Y-43621487D01*
X36775950Y-43600000D01*
X36630050Y-43600000D01*
X36411889Y-43621487D01*
X36131966Y-43706401D01*
X35873986Y-43844294D01*
X35647866Y-44029866D01*
X35462294Y-44255986D01*
X35433000Y-44310791D01*
X35403706Y-44255986D01*
X35218134Y-44029866D01*
X34992014Y-43844294D01*
X34734034Y-43706401D01*
X34454111Y-43621487D01*
X34235950Y-43600000D01*
X34090050Y-43600000D01*
X33871889Y-43621487D01*
X33591966Y-43706401D01*
X33333986Y-43844294D01*
X33107866Y-44029866D01*
X32922294Y-44255986D01*
X32893000Y-44310791D01*
X32863706Y-44255986D01*
X32678134Y-44029866D01*
X32458000Y-43849207D01*
X32458000Y-25549865D01*
X32601889Y-25593513D01*
X32820050Y-25615000D01*
X32965950Y-25615000D01*
X33184111Y-25593513D01*
X33464034Y-25508599D01*
X33722014Y-25370706D01*
X33948134Y-25185134D01*
X34133706Y-24959014D01*
X34163000Y-24904209D01*
X34192294Y-24959014D01*
X34192294Y-24959014D01*
G37*
X34192294Y-24959014D02*
X34377866Y-25185134D01*
X34603986Y-25370706D01*
X34861966Y-25508599D01*
X35141889Y-25593513D01*
X35360050Y-25615000D01*
X35505950Y-25615000D01*
X35716404Y-25594272D01*
X35721569Y-25599437D01*
X35721574Y-25599441D01*
X39258000Y-29135869D01*
X39257999Y-43600000D01*
X39170050Y-43600000D01*
X38951889Y-43621487D01*
X38671966Y-43706401D01*
X38413986Y-43844294D01*
X38187866Y-44029866D01*
X38002294Y-44255986D01*
X37973000Y-44310791D01*
X37943706Y-44255986D01*
X37758134Y-44029866D01*
X37532014Y-43844294D01*
X37274034Y-43706401D01*
X36994111Y-43621487D01*
X36775950Y-43600000D01*
X36630050Y-43600000D01*
X36411889Y-43621487D01*
X36131966Y-43706401D01*
X35873986Y-43844294D01*
X35647866Y-44029866D01*
X35462294Y-44255986D01*
X35433000Y-44310791D01*
X35403706Y-44255986D01*
X35218134Y-44029866D01*
X34992014Y-43844294D01*
X34734034Y-43706401D01*
X34454111Y-43621487D01*
X34235950Y-43600000D01*
X34090050Y-43600000D01*
X33871889Y-43621487D01*
X33591966Y-43706401D01*
X33333986Y-43844294D01*
X33107866Y-44029866D01*
X32922294Y-44255986D01*
X32893000Y-44310791D01*
X32863706Y-44255986D01*
X32678134Y-44029866D01*
X32458000Y-43849207D01*
X32458000Y-25549865D01*
X32601889Y-25593513D01*
X32820050Y-25615000D01*
X32965950Y-25615000D01*
X33184111Y-25593513D01*
X33464034Y-25508599D01*
X33722014Y-25370706D01*
X33948134Y-25185134D01*
X34133706Y-24959014D01*
X34163000Y-24904209D01*
X34192294Y-24959014D01*
G36*
X18891815Y-25431185D02*
G01*
X18988506Y-25510537D01*
X18995835Y-25514454D01*
X18881063Y-25629226D01*
X18767795Y-25798744D01*
X18689774Y-25987102D01*
X18650000Y-26187061D01*
X18650000Y-26390939D01*
X18689774Y-26590898D01*
X18767795Y-26779256D01*
X18881063Y-26948774D01*
X19025226Y-27092937D01*
X19194744Y-27206205D01*
X19383102Y-27284226D01*
X19528225Y-27313093D01*
X19865559Y-27650427D01*
X19891710Y-27682292D01*
X20018855Y-27786637D01*
X20163914Y-27864173D01*
X20321312Y-27911919D01*
X20443982Y-27924001D01*
X20443992Y-27924001D01*
X20485000Y-27928040D01*
X20526008Y-27924001D01*
X27225981Y-27924001D01*
X27266999Y-27928041D01*
X27308017Y-27924001D01*
X27308018Y-27924001D01*
X27430688Y-27911919D01*
X27588086Y-27864173D01*
X27733145Y-27786637D01*
X27860290Y-27682292D01*
X27886445Y-27650422D01*
X28223774Y-27313093D01*
X28228001Y-27312252D01*
X28228002Y-42219130D01*
X26831574Y-43615559D01*
X26831569Y-43615563D01*
X26826404Y-43620728D01*
X26615950Y-43600000D01*
X26470050Y-43600000D01*
X26251889Y-43621487D01*
X25971966Y-43706401D01*
X25713986Y-43844294D01*
X25487866Y-44029866D01*
X25302294Y-44255986D01*
X25273000Y-44310791D01*
X25243706Y-44255986D01*
X25058134Y-44029866D01*
X24832014Y-43844294D01*
X24574034Y-43706401D01*
X24294111Y-43621487D01*
X24075950Y-43600000D01*
X23930050Y-43600000D01*
X23711889Y-43621487D01*
X23431966Y-43706401D01*
X23173986Y-43844294D01*
X22947866Y-44029866D01*
X22762294Y-44255986D01*
X22733000Y-44310791D01*
X22703706Y-44255986D01*
X22518134Y-44029866D01*
X22292014Y-43844294D01*
X22034034Y-43706401D01*
X21754111Y-43621487D01*
X21535950Y-43600000D01*
X21390050Y-43600000D01*
X21171889Y-43621487D01*
X20891966Y-43706401D01*
X20633986Y-43844294D01*
X20407866Y-44029866D01*
X20222294Y-44255986D01*
X20193000Y-44310791D01*
X20163706Y-44255986D01*
X19978134Y-44029866D01*
X19752014Y-43844294D01*
X19494034Y-43706401D01*
X19214111Y-43621487D01*
X18995950Y-43600000D01*
X18850050Y-43600000D01*
X18631889Y-43621487D01*
X18351966Y-43706401D01*
X18093986Y-43844294D01*
X17867866Y-44029866D01*
X17843393Y-44059687D01*
X17822502Y-43990820D01*
X17763537Y-43880506D01*
X17684185Y-43783815D01*
X17587494Y-43704463D01*
X17477180Y-43645498D01*
X17357482Y-43609188D01*
X17233000Y-43596928D01*
X17218000Y-43596928D01*
X17218000Y-27035867D01*
X18860654Y-25393215D01*
X18891815Y-25431185D01*
X18891815Y-25431185D01*
G37*
X18891815Y-25431185D02*
X18988506Y-25510537D01*
X18995835Y-25514454D01*
X18881063Y-25629226D01*
X18767795Y-25798744D01*
X18689774Y-25987102D01*
X18650000Y-26187061D01*
X18650000Y-26390939D01*
X18689774Y-26590898D01*
X18767795Y-26779256D01*
X18881063Y-26948774D01*
X19025226Y-27092937D01*
X19194744Y-27206205D01*
X19383102Y-27284226D01*
X19528225Y-27313093D01*
X19865559Y-27650427D01*
X19891710Y-27682292D01*
X20018855Y-27786637D01*
X20163914Y-27864173D01*
X20321312Y-27911919D01*
X20443982Y-27924001D01*
X20443992Y-27924001D01*
X20485000Y-27928040D01*
X20526008Y-27924001D01*
X27225981Y-27924001D01*
X27266999Y-27928041D01*
X27308017Y-27924001D01*
X27308018Y-27924001D01*
X27430688Y-27911919D01*
X27588086Y-27864173D01*
X27733145Y-27786637D01*
X27860290Y-27682292D01*
X27886445Y-27650422D01*
X28223774Y-27313093D01*
X28228001Y-27312252D01*
X28228002Y-42219130D01*
X26831574Y-43615559D01*
X26831569Y-43615563D01*
X26826404Y-43620728D01*
X26615950Y-43600000D01*
X26470050Y-43600000D01*
X26251889Y-43621487D01*
X25971966Y-43706401D01*
X25713986Y-43844294D01*
X25487866Y-44029866D01*
X25302294Y-44255986D01*
X25273000Y-44310791D01*
X25243706Y-44255986D01*
X25058134Y-44029866D01*
X24832014Y-43844294D01*
X24574034Y-43706401D01*
X24294111Y-43621487D01*
X24075950Y-43600000D01*
X23930050Y-43600000D01*
X23711889Y-43621487D01*
X23431966Y-43706401D01*
X23173986Y-43844294D01*
X22947866Y-44029866D01*
X22762294Y-44255986D01*
X22733000Y-44310791D01*
X22703706Y-44255986D01*
X22518134Y-44029866D01*
X22292014Y-43844294D01*
X22034034Y-43706401D01*
X21754111Y-43621487D01*
X21535950Y-43600000D01*
X21390050Y-43600000D01*
X21171889Y-43621487D01*
X20891966Y-43706401D01*
X20633986Y-43844294D01*
X20407866Y-44029866D01*
X20222294Y-44255986D01*
X20193000Y-44310791D01*
X20163706Y-44255986D01*
X19978134Y-44029866D01*
X19752014Y-43844294D01*
X19494034Y-43706401D01*
X19214111Y-43621487D01*
X18995950Y-43600000D01*
X18850050Y-43600000D01*
X18631889Y-43621487D01*
X18351966Y-43706401D01*
X18093986Y-43844294D01*
X17867866Y-44029866D01*
X17843393Y-44059687D01*
X17822502Y-43990820D01*
X17763537Y-43880506D01*
X17684185Y-43783815D01*
X17587494Y-43704463D01*
X17477180Y-43645498D01*
X17357482Y-43609188D01*
X17233000Y-43596928D01*
X17218000Y-43596928D01*
X17218000Y-27035867D01*
X18860654Y-25393215D01*
X18891815Y-25431185D01*
G36*
X30061889Y-25593513D02*
G01*
X30153000Y-25602487D01*
X30153001Y-42834130D01*
X29366404Y-43620728D01*
X29204123Y-43604745D01*
X29624427Y-43184440D01*
X29656292Y-43158290D01*
X29760637Y-43031145D01*
X29838173Y-42886086D01*
X29885919Y-42728688D01*
X29898001Y-42606018D01*
X29898001Y-42606008D01*
X29902040Y-42565000D01*
X29898001Y-42523992D01*
X29898001Y-25543798D01*
X30061889Y-25593513D01*
X30061889Y-25593513D01*
G37*
X30061889Y-25593513D02*
X30153000Y-25602487D01*
X30153001Y-42834130D01*
X29366404Y-43620728D01*
X29204123Y-43604745D01*
X29624427Y-43184440D01*
X29656292Y-43158290D01*
X29760637Y-43031145D01*
X29838173Y-42886086D01*
X29885919Y-42728688D01*
X29898001Y-42606018D01*
X29898001Y-42606008D01*
X29902040Y-42565000D01*
X29898001Y-42523992D01*
X29898001Y-25543798D01*
X30061889Y-25593513D01*
G36*
X36830000Y-20193000D02*
G01*
X36850000Y-20193000D01*
X36850000Y-20447000D01*
X36830000Y-20447000D01*
X36830000Y-21640155D01*
X37059890Y-21761476D01*
X37207099Y-21716825D01*
X37469920Y-21591641D01*
X37703269Y-21417588D01*
X37898178Y-21201355D01*
X37967799Y-21084477D01*
X38002294Y-21149014D01*
X38187866Y-21375134D01*
X38413986Y-21560706D01*
X38671966Y-21698599D01*
X38951889Y-21783513D01*
X39121877Y-21800255D01*
X39024133Y-21898000D01*
X36871007Y-21898000D01*
X36829999Y-21893961D01*
X36788991Y-21898000D01*
X36788981Y-21898000D01*
X36666311Y-21910082D01*
X36508913Y-21957828D01*
X36363854Y-22035364D01*
X36236709Y-22139709D01*
X36210561Y-22171571D01*
X35716404Y-22665728D01*
X35505950Y-22645000D01*
X35360050Y-22645000D01*
X35141889Y-22666487D01*
X34861966Y-22751401D01*
X34603986Y-22889294D01*
X34377866Y-23074866D01*
X34192294Y-23300986D01*
X34163000Y-23355791D01*
X34133706Y-23300986D01*
X33948134Y-23074866D01*
X33722014Y-22889294D01*
X33464034Y-22751401D01*
X33184111Y-22666487D01*
X32965950Y-22645000D01*
X32820050Y-22645000D01*
X32601889Y-22666487D01*
X32458000Y-22710135D01*
X32458000Y-21555793D01*
X32678134Y-21375134D01*
X32863706Y-21149014D01*
X32893000Y-21094209D01*
X32922294Y-21149014D01*
X33107866Y-21375134D01*
X33333986Y-21560706D01*
X33591966Y-21698599D01*
X33871889Y-21783513D01*
X34090050Y-21805000D01*
X34235950Y-21805000D01*
X34454111Y-21783513D01*
X34734034Y-21698599D01*
X34992014Y-21560706D01*
X35218134Y-21375134D01*
X35403706Y-21149014D01*
X35438201Y-21084477D01*
X35507822Y-21201355D01*
X35702731Y-21417588D01*
X35936080Y-21591641D01*
X36198901Y-21716825D01*
X36346110Y-21761476D01*
X36576000Y-21640155D01*
X36576000Y-20447000D01*
X36556000Y-20447000D01*
X36556000Y-20193000D01*
X36576000Y-20193000D01*
X36576000Y-20173000D01*
X36830000Y-20173000D01*
X36830000Y-20193000D01*
X36830000Y-20193000D01*
G37*
X36830000Y-20193000D02*
X36850000Y-20193000D01*
X36850000Y-20447000D01*
X36830000Y-20447000D01*
X36830000Y-21640155D01*
X37059890Y-21761476D01*
X37207099Y-21716825D01*
X37469920Y-21591641D01*
X37703269Y-21417588D01*
X37898178Y-21201355D01*
X37967799Y-21084477D01*
X38002294Y-21149014D01*
X38187866Y-21375134D01*
X38413986Y-21560706D01*
X38671966Y-21698599D01*
X38951889Y-21783513D01*
X39121877Y-21800255D01*
X39024133Y-21898000D01*
X36871007Y-21898000D01*
X36829999Y-21893961D01*
X36788991Y-21898000D01*
X36788981Y-21898000D01*
X36666311Y-21910082D01*
X36508913Y-21957828D01*
X36363854Y-22035364D01*
X36236709Y-22139709D01*
X36210561Y-22171571D01*
X35716404Y-22665728D01*
X35505950Y-22645000D01*
X35360050Y-22645000D01*
X35141889Y-22666487D01*
X34861966Y-22751401D01*
X34603986Y-22889294D01*
X34377866Y-23074866D01*
X34192294Y-23300986D01*
X34163000Y-23355791D01*
X34133706Y-23300986D01*
X33948134Y-23074866D01*
X33722014Y-22889294D01*
X33464034Y-22751401D01*
X33184111Y-22666487D01*
X32965950Y-22645000D01*
X32820050Y-22645000D01*
X32601889Y-22666487D01*
X32458000Y-22710135D01*
X32458000Y-21555793D01*
X32678134Y-21375134D01*
X32863706Y-21149014D01*
X32893000Y-21094209D01*
X32922294Y-21149014D01*
X33107866Y-21375134D01*
X33333986Y-21560706D01*
X33591966Y-21698599D01*
X33871889Y-21783513D01*
X34090050Y-21805000D01*
X34235950Y-21805000D01*
X34454111Y-21783513D01*
X34734034Y-21698599D01*
X34992014Y-21560706D01*
X35218134Y-21375134D01*
X35403706Y-21149014D01*
X35438201Y-21084477D01*
X35507822Y-21201355D01*
X35702731Y-21417588D01*
X35936080Y-21591641D01*
X36198901Y-21716825D01*
X36346110Y-21761476D01*
X36576000Y-21640155D01*
X36576000Y-20447000D01*
X36556000Y-20447000D01*
X36556000Y-20193000D01*
X36576000Y-20193000D01*
X36576000Y-20173000D01*
X36830000Y-20173000D01*
X36830000Y-20193000D01*
M02*
