G04 #@! TF.GenerationSoftware,KiCad,Pcbnew,(5.1.4)-1*
G04 #@! TF.CreationDate,2019-12-12T19:58:15+09:00*
G04 #@! TF.ProjectId,microcar_head,6d696372-6f63-4617-925f-686561642e6b,rev?*
G04 #@! TF.SameCoordinates,Original*
G04 #@! TF.FileFunction,Copper,L2,Bot*
G04 #@! TF.FilePolarity,Positive*
%FSLAX46Y46*%
G04 Gerber Fmt 4.6, Leading zero omitted, Abs format (unit mm)*
G04 Created by KiCad (PCBNEW (5.1.4)-1) date 2019-12-12 19:58:15*
%MOMM*%
%LPD*%
G04 APERTURE LIST*
%ADD10O,1.700000X1.700000*%
%ADD11R,1.700000X1.700000*%
%ADD12O,1.727200X1.727200*%
%ADD13R,1.727200X1.727200*%
%ADD14C,3.000000*%
%ADD15C,0.800000*%
%ADD16C,0.400000*%
%ADD17C,0.254000*%
G04 APERTURE END LIST*
D10*
X20828000Y-61595000D03*
X20828000Y-64135000D03*
X23368000Y-61595000D03*
X23368000Y-64135000D03*
X25908000Y-61595000D03*
X25908000Y-64135000D03*
X28448000Y-61595000D03*
X28448000Y-64135000D03*
X30988000Y-61595000D03*
X30988000Y-64135000D03*
X33528000Y-61595000D03*
X33528000Y-64135000D03*
X36068000Y-61595000D03*
X36068000Y-64135000D03*
X38608000Y-61595000D03*
X38608000Y-64135000D03*
X41148000Y-61595000D03*
X41148000Y-64135000D03*
X43688000Y-61595000D03*
X43688000Y-64135000D03*
X46228000Y-61595000D03*
X46228000Y-64135000D03*
X48768000Y-61595000D03*
X48768000Y-64135000D03*
X51308000Y-61595000D03*
D11*
X51308000Y-64135000D03*
D12*
X24765000Y-27305000D03*
X24765000Y-29845000D03*
X27305000Y-27305000D03*
X27305000Y-29845000D03*
X29845000Y-27305000D03*
X29845000Y-29845000D03*
X32385000Y-27305000D03*
X32385000Y-29845000D03*
X34925000Y-27305000D03*
X34925000Y-29845000D03*
X37465000Y-27305000D03*
X37465000Y-29845000D03*
X40005000Y-27305000D03*
X40005000Y-29845000D03*
X42545000Y-27305000D03*
X42545000Y-29845000D03*
X45085000Y-27305000D03*
X45085000Y-29845000D03*
X47625000Y-27305000D03*
D13*
X47625000Y-29845000D03*
D14*
X21209000Y-35179000D03*
X31115000Y-54229000D03*
X31115000Y-35179000D03*
X31115000Y-47879000D03*
X36195000Y-41529000D03*
X36195000Y-35179000D03*
X36195000Y-47879000D03*
X36195000Y-54229000D03*
X41275000Y-41529000D03*
X41275000Y-35179000D03*
X31115000Y-41529000D03*
X41275000Y-47879000D03*
X41275000Y-54229000D03*
X46355000Y-41529000D03*
X46355000Y-35179000D03*
X46355000Y-47879000D03*
X46355000Y-54229000D03*
X51435000Y-35179000D03*
X26035000Y-54229000D03*
X21336000Y-54229000D03*
X26035000Y-47879000D03*
X26162000Y-35179000D03*
X21336000Y-48006000D03*
X26035000Y-41529000D03*
X51435000Y-41529000D03*
X51435000Y-47879000D03*
X51435000Y-54229000D03*
D15*
X31115000Y-37719000D03*
X36195000Y-37719000D03*
X41275000Y-37719000D03*
X46355000Y-37719000D03*
X51435000Y-37719000D03*
X51435000Y-44069000D03*
X46355000Y-44069000D03*
X41275000Y-44069000D03*
X36195000Y-44069000D03*
X31115000Y-44069000D03*
X21209000Y-37719000D03*
X21209000Y-41529000D03*
X46355000Y-50419000D03*
X21209000Y-28448000D03*
X51435000Y-28448000D03*
X41275000Y-50419000D03*
X36322000Y-50419000D03*
X26162000Y-37719000D03*
X21209000Y-44069000D03*
X48734999Y-38354000D03*
X24765000Y-50673002D03*
X27935001Y-50677999D03*
D16*
X48768000Y-44196000D02*
X51435000Y-41529000D01*
X48768000Y-61595000D02*
X48768000Y-44196000D01*
X51308000Y-64008000D02*
X51308000Y-64135000D01*
X52558001Y-62757999D02*
X51308000Y-64008000D01*
X52558001Y-60994999D02*
X52558001Y-62757999D01*
X51435000Y-54229000D02*
X51435000Y-59871998D01*
X51435000Y-59871998D02*
X52558001Y-60994999D01*
X46355000Y-56350320D02*
X46355000Y-54229000D01*
X47517999Y-57513319D02*
X46355000Y-56350320D01*
X47517999Y-62845001D02*
X47517999Y-57513319D01*
X46228000Y-64135000D02*
X47517999Y-62845001D01*
X42774999Y-49378999D02*
X41275000Y-47879000D01*
X43688000Y-50292000D02*
X42774999Y-49378999D01*
X41148000Y-61595000D02*
X43688000Y-59055000D01*
X43688000Y-59055000D02*
X43688000Y-50292000D01*
X44855001Y-36678999D02*
X46355000Y-35179000D01*
X44454999Y-37079001D02*
X44855001Y-36678999D01*
X44454999Y-59440999D02*
X44454999Y-37079001D01*
X44938001Y-59924001D02*
X44454999Y-59440999D01*
X43688000Y-64135000D02*
X44938001Y-62884999D01*
X44938001Y-62884999D02*
X44938001Y-59924001D01*
X51435000Y-35653999D02*
X51435000Y-35179000D01*
X48734999Y-38354000D02*
X51435000Y-35653999D01*
X29615001Y-43028999D02*
X31115000Y-41529000D01*
X29615001Y-45147541D02*
X29615001Y-43028999D01*
X28956000Y-45806542D02*
X29615001Y-45147541D01*
X28448000Y-61595000D02*
X28956000Y-61087000D01*
X28956000Y-61087000D02*
X28956000Y-45806542D01*
X31837999Y-63285001D02*
X30988000Y-64135000D01*
X32238001Y-62884999D02*
X31837999Y-63285001D01*
X32238001Y-58146001D02*
X32238001Y-62884999D01*
X31115000Y-54229000D02*
X31115000Y-57023000D01*
X31115000Y-57023000D02*
X32238001Y-58146001D01*
X33528000Y-44196000D02*
X36195000Y-41529000D01*
X33528000Y-61595000D02*
X33528000Y-44196000D01*
X37694999Y-49378999D02*
X36195000Y-47879000D01*
X38608000Y-50292000D02*
X37694999Y-49378999D01*
X36068000Y-61595000D02*
X38608000Y-59055000D01*
X38608000Y-59055000D02*
X38608000Y-50292000D01*
X39775001Y-36678999D02*
X41275000Y-35179000D01*
X39897999Y-62845001D02*
X39897999Y-60217999D01*
X39897999Y-60217999D02*
X39370000Y-59690000D01*
X38608000Y-64135000D02*
X39897999Y-62845001D01*
X39370000Y-59690000D02*
X39374999Y-59685001D01*
X39374999Y-59685001D02*
X39374999Y-37079001D01*
X39374999Y-37079001D02*
X39775001Y-36678999D01*
X49935001Y-49378999D02*
X51435000Y-47879000D01*
X49534999Y-49779001D02*
X49935001Y-49378999D01*
X49534999Y-59821999D02*
X49534999Y-49779001D01*
X51308000Y-61595000D02*
X49534999Y-59821999D01*
X22078001Y-62845001D02*
X23368000Y-64135000D01*
X22078001Y-60471999D02*
X22078001Y-62845001D01*
X23236001Y-59313999D02*
X22078001Y-60471999D01*
X23236001Y-53316999D02*
X23236001Y-59313999D01*
X21336000Y-48006000D02*
X21336000Y-51416998D01*
X21336000Y-51416998D02*
X23236001Y-53316999D01*
X24535001Y-52729001D02*
X26035000Y-54229000D01*
X23368000Y-51562000D02*
X24535001Y-52729001D01*
X23368000Y-34290000D02*
X23368000Y-51562000D01*
X25146000Y-32512000D02*
X23368000Y-34290000D01*
X29845000Y-29845000D02*
X27178000Y-32512000D01*
X27178000Y-32512000D02*
X25146000Y-32512000D01*
X26543000Y-35179000D02*
X26162000Y-35179000D01*
X32385000Y-29845000D02*
X31877000Y-29845000D01*
X31877000Y-29845000D02*
X26543000Y-35179000D01*
X26162000Y-35179000D02*
X23968010Y-37372990D01*
X23968010Y-49876012D02*
X24365001Y-50273003D01*
X23968010Y-37372990D02*
X23968010Y-49876012D01*
X24365001Y-50273003D02*
X24765000Y-50673002D01*
X28194000Y-34439455D02*
X28194000Y-39370000D01*
X28194000Y-39370000D02*
X27534999Y-40029001D01*
X27534999Y-40029001D02*
X26035000Y-41529000D01*
X37465000Y-29845000D02*
X35652011Y-31657989D01*
X30975466Y-31657989D02*
X28194000Y-34439455D01*
X35652011Y-31657989D02*
X30975466Y-31657989D01*
X28194000Y-50936998D02*
X27935001Y-50677999D01*
X23368000Y-61595000D02*
X28194000Y-56769000D01*
X28194000Y-56769000D02*
X28194000Y-50936998D01*
X39141401Y-30708599D02*
X40005000Y-29845000D01*
X37592000Y-32258000D02*
X39141401Y-30708599D01*
X31242000Y-32258000D02*
X37592000Y-32258000D01*
X28794011Y-34705989D02*
X31242000Y-32258000D01*
X26035000Y-47879000D02*
X28794011Y-45119989D01*
X28794011Y-45119989D02*
X28794011Y-34705989D01*
D17*
G36*
X48895000Y-61468000D02*
G01*
X48915000Y-61468000D01*
X48915000Y-61722000D01*
X48895000Y-61722000D01*
X48895000Y-61742000D01*
X48641000Y-61742000D01*
X48641000Y-61722000D01*
X48621000Y-61722000D01*
X48621000Y-61468000D01*
X48641000Y-61468000D01*
X48641000Y-61448000D01*
X48895000Y-61448000D01*
X48895000Y-61468000D01*
X48895000Y-61468000D01*
G37*
X48895000Y-61468000D02*
X48915000Y-61468000D01*
X48915000Y-61722000D01*
X48895000Y-61722000D01*
X48895000Y-61742000D01*
X48641000Y-61742000D01*
X48641000Y-61722000D01*
X48621000Y-61722000D01*
X48621000Y-61468000D01*
X48641000Y-61468000D01*
X48641000Y-61448000D01*
X48895000Y-61448000D01*
X48895000Y-61468000D01*
G36*
X52883000Y-33607654D02*
G01*
X52795983Y-33520637D01*
X52446302Y-33286988D01*
X52057756Y-33126047D01*
X51645279Y-33044000D01*
X51224721Y-33044000D01*
X50812244Y-33126047D01*
X50423698Y-33286988D01*
X50074017Y-33520637D01*
X49776637Y-33818017D01*
X49542988Y-34167698D01*
X49382047Y-34556244D01*
X49300000Y-34968721D01*
X49300000Y-35389279D01*
X49382047Y-35801756D01*
X49542988Y-36190302D01*
X49613020Y-36295112D01*
X48578224Y-37329907D01*
X48433101Y-37358774D01*
X48244743Y-37436795D01*
X48075225Y-37550063D01*
X47931062Y-37694226D01*
X47817794Y-37863744D01*
X47739773Y-38052102D01*
X47699999Y-38252061D01*
X47699999Y-38455939D01*
X47739773Y-38655898D01*
X47817794Y-38844256D01*
X47931062Y-39013774D01*
X48075225Y-39157937D01*
X48244743Y-39271205D01*
X48433101Y-39349226D01*
X48633060Y-39389000D01*
X48836938Y-39389000D01*
X49036897Y-39349226D01*
X49225255Y-39271205D01*
X49394773Y-39157937D01*
X49538936Y-39013774D01*
X49652204Y-38844256D01*
X49730225Y-38655898D01*
X49759092Y-38510775D01*
X51000473Y-37269394D01*
X51224721Y-37314000D01*
X51645279Y-37314000D01*
X52057756Y-37231953D01*
X52446302Y-37071012D01*
X52795983Y-36837363D01*
X52883000Y-36750346D01*
X52883000Y-39943914D01*
X52861739Y-39922653D01*
X52747047Y-40037345D01*
X52591038Y-39721786D01*
X52216255Y-39530980D01*
X51811449Y-39416956D01*
X51392176Y-39384098D01*
X50974549Y-39433666D01*
X50574617Y-39563757D01*
X50278962Y-39721786D01*
X50122952Y-40037347D01*
X51435000Y-41349395D01*
X51449143Y-41335253D01*
X51628748Y-41514858D01*
X51614605Y-41529000D01*
X51628748Y-41543143D01*
X51449143Y-41722748D01*
X51435000Y-41708605D01*
X50122952Y-43020653D01*
X50278962Y-43336214D01*
X50653745Y-43527020D01*
X51058551Y-43641044D01*
X51477824Y-43673902D01*
X51895451Y-43624334D01*
X52295383Y-43494243D01*
X52591038Y-43336214D01*
X52747047Y-43020655D01*
X52861739Y-43135347D01*
X52883001Y-43114085D01*
X52883001Y-46307655D01*
X52795983Y-46220637D01*
X52446302Y-45986988D01*
X52057756Y-45826047D01*
X51645279Y-45744000D01*
X51224721Y-45744000D01*
X50812244Y-45826047D01*
X50423698Y-45986988D01*
X50074017Y-46220637D01*
X49776637Y-46518017D01*
X49542988Y-46867698D01*
X49382047Y-47256244D01*
X49300000Y-47668721D01*
X49300000Y-48089279D01*
X49382047Y-48501756D01*
X49455074Y-48678059D01*
X48973573Y-49159560D01*
X48941709Y-49185710D01*
X48883553Y-49256574D01*
X48837363Y-49312856D01*
X48759827Y-49457915D01*
X48712081Y-49615313D01*
X48695959Y-49779001D01*
X48700000Y-49820030D01*
X48699999Y-59780980D01*
X48695959Y-59821999D01*
X48703337Y-59896912D01*
X48712081Y-59985687D01*
X48749791Y-60110000D01*
X48640998Y-60110000D01*
X48640998Y-60274844D01*
X48411110Y-60153524D01*
X48352999Y-60171150D01*
X48352999Y-57554337D01*
X48357039Y-57513319D01*
X48340917Y-57349630D01*
X48293171Y-57192232D01*
X48215635Y-57047173D01*
X48137438Y-56951889D01*
X48137436Y-56951887D01*
X48111290Y-56920028D01*
X48079431Y-56893882D01*
X47324058Y-56138510D01*
X47366302Y-56121012D01*
X47715983Y-55887363D01*
X48013363Y-55589983D01*
X48247012Y-55240302D01*
X48407953Y-54851756D01*
X48490000Y-54439279D01*
X48490000Y-54018721D01*
X48407953Y-53606244D01*
X48247012Y-53217698D01*
X48013363Y-52868017D01*
X47715983Y-52570637D01*
X47366302Y-52336988D01*
X46977756Y-52176047D01*
X46565279Y-52094000D01*
X46144721Y-52094000D01*
X45732244Y-52176047D01*
X45343698Y-52336988D01*
X45289999Y-52372868D01*
X45289999Y-49735132D01*
X45343698Y-49771012D01*
X45732244Y-49931953D01*
X46144721Y-50014000D01*
X46565279Y-50014000D01*
X46977756Y-49931953D01*
X47366302Y-49771012D01*
X47715983Y-49537363D01*
X48013363Y-49239983D01*
X48247012Y-48890302D01*
X48407953Y-48501756D01*
X48490000Y-48089279D01*
X48490000Y-47668721D01*
X48407953Y-47256244D01*
X48247012Y-46867698D01*
X48013363Y-46518017D01*
X47715983Y-46220637D01*
X47366302Y-45986988D01*
X46977756Y-45826047D01*
X46565279Y-45744000D01*
X46144721Y-45744000D01*
X45732244Y-45826047D01*
X45343698Y-45986988D01*
X45289999Y-46022868D01*
X45289999Y-43385132D01*
X45343698Y-43421012D01*
X45732244Y-43581953D01*
X46144721Y-43664000D01*
X46565279Y-43664000D01*
X46977756Y-43581953D01*
X47366302Y-43421012D01*
X47715983Y-43187363D01*
X48013363Y-42889983D01*
X48247012Y-42540302D01*
X48407953Y-42151756D01*
X48490000Y-41739279D01*
X48490000Y-41571824D01*
X49290098Y-41571824D01*
X49339666Y-41989451D01*
X49469757Y-42389383D01*
X49627786Y-42685038D01*
X49943347Y-42841048D01*
X51255395Y-41529000D01*
X49943347Y-40216952D01*
X49627786Y-40372962D01*
X49436980Y-40747745D01*
X49322956Y-41152551D01*
X49290098Y-41571824D01*
X48490000Y-41571824D01*
X48490000Y-41318721D01*
X48407953Y-40906244D01*
X48247012Y-40517698D01*
X48013363Y-40168017D01*
X47715983Y-39870637D01*
X47366302Y-39636988D01*
X46977756Y-39476047D01*
X46565279Y-39394000D01*
X46144721Y-39394000D01*
X45732244Y-39476047D01*
X45343698Y-39636988D01*
X45289999Y-39672868D01*
X45289999Y-37424868D01*
X45555941Y-37158926D01*
X45732244Y-37231953D01*
X46144721Y-37314000D01*
X46565279Y-37314000D01*
X46977756Y-37231953D01*
X47366302Y-37071012D01*
X47715983Y-36837363D01*
X48013363Y-36539983D01*
X48247012Y-36190302D01*
X48407953Y-35801756D01*
X48490000Y-35389279D01*
X48490000Y-34968721D01*
X48407953Y-34556244D01*
X48247012Y-34167698D01*
X48013363Y-33818017D01*
X47715983Y-33520637D01*
X47366302Y-33286988D01*
X46977756Y-33126047D01*
X46565279Y-33044000D01*
X46144721Y-33044000D01*
X45732244Y-33126047D01*
X45343698Y-33286988D01*
X44994017Y-33520637D01*
X44696637Y-33818017D01*
X44462988Y-34167698D01*
X44302047Y-34556244D01*
X44220000Y-34968721D01*
X44220000Y-35389279D01*
X44302047Y-35801756D01*
X44375074Y-35978059D01*
X43893573Y-36459560D01*
X43861709Y-36485710D01*
X43808889Y-36550072D01*
X43757363Y-36612856D01*
X43679827Y-36757915D01*
X43632081Y-36915313D01*
X43615959Y-37079001D01*
X43620000Y-37120030D01*
X43619999Y-49043132D01*
X43394447Y-48817580D01*
X43394438Y-48817569D01*
X43254926Y-48678058D01*
X43327953Y-48501756D01*
X43410000Y-48089279D01*
X43410000Y-47668721D01*
X43327953Y-47256244D01*
X43167012Y-46867698D01*
X42933363Y-46518017D01*
X42635983Y-46220637D01*
X42286302Y-45986988D01*
X41897756Y-45826047D01*
X41485279Y-45744000D01*
X41064721Y-45744000D01*
X40652244Y-45826047D01*
X40263698Y-45986988D01*
X40209999Y-46022868D01*
X40209999Y-43385132D01*
X40263698Y-43421012D01*
X40652244Y-43581953D01*
X41064721Y-43664000D01*
X41485279Y-43664000D01*
X41897756Y-43581953D01*
X42286302Y-43421012D01*
X42635983Y-43187363D01*
X42933363Y-42889983D01*
X43167012Y-42540302D01*
X43327953Y-42151756D01*
X43410000Y-41739279D01*
X43410000Y-41318721D01*
X43327953Y-40906244D01*
X43167012Y-40517698D01*
X42933363Y-40168017D01*
X42635983Y-39870637D01*
X42286302Y-39636988D01*
X41897756Y-39476047D01*
X41485279Y-39394000D01*
X41064721Y-39394000D01*
X40652244Y-39476047D01*
X40263698Y-39636988D01*
X40209999Y-39672868D01*
X40209999Y-37424868D01*
X40475941Y-37158926D01*
X40652244Y-37231953D01*
X41064721Y-37314000D01*
X41485279Y-37314000D01*
X41897756Y-37231953D01*
X42286302Y-37071012D01*
X42635983Y-36837363D01*
X42933363Y-36539983D01*
X43167012Y-36190302D01*
X43327953Y-35801756D01*
X43410000Y-35389279D01*
X43410000Y-34968721D01*
X43327953Y-34556244D01*
X43167012Y-34167698D01*
X42933363Y-33818017D01*
X42635983Y-33520637D01*
X42286302Y-33286988D01*
X41897756Y-33126047D01*
X41485279Y-33044000D01*
X41064721Y-33044000D01*
X40652244Y-33126047D01*
X40263698Y-33286988D01*
X39914017Y-33520637D01*
X39616637Y-33818017D01*
X39382988Y-34167698D01*
X39222047Y-34556244D01*
X39140000Y-34968721D01*
X39140000Y-35389279D01*
X39222047Y-35801756D01*
X39295074Y-35978059D01*
X38813573Y-36459560D01*
X38781709Y-36485710D01*
X38728889Y-36550072D01*
X38677363Y-36612856D01*
X38599827Y-36757915D01*
X38552081Y-36915313D01*
X38535959Y-37079001D01*
X38540000Y-37120030D01*
X38539999Y-49043132D01*
X38314447Y-48817580D01*
X38314438Y-48817569D01*
X38174926Y-48678058D01*
X38247953Y-48501756D01*
X38330000Y-48089279D01*
X38330000Y-47668721D01*
X38247953Y-47256244D01*
X38087012Y-46867698D01*
X37853363Y-46518017D01*
X37555983Y-46220637D01*
X37206302Y-45986988D01*
X36817756Y-45826047D01*
X36405279Y-45744000D01*
X35984721Y-45744000D01*
X35572244Y-45826047D01*
X35183698Y-45986988D01*
X34834017Y-46220637D01*
X34536637Y-46518017D01*
X34363000Y-46777884D01*
X34363000Y-44541867D01*
X35395942Y-43508926D01*
X35572244Y-43581953D01*
X35984721Y-43664000D01*
X36405279Y-43664000D01*
X36817756Y-43581953D01*
X37206302Y-43421012D01*
X37555983Y-43187363D01*
X37853363Y-42889983D01*
X38087012Y-42540302D01*
X38247953Y-42151756D01*
X38330000Y-41739279D01*
X38330000Y-41318721D01*
X38247953Y-40906244D01*
X38087012Y-40517698D01*
X37853363Y-40168017D01*
X37555983Y-39870637D01*
X37206302Y-39636988D01*
X36817756Y-39476047D01*
X36405279Y-39394000D01*
X35984721Y-39394000D01*
X35572244Y-39476047D01*
X35183698Y-39636988D01*
X34834017Y-39870637D01*
X34536637Y-40168017D01*
X34302988Y-40517698D01*
X34142047Y-40906244D01*
X34060000Y-41318721D01*
X34060000Y-41739279D01*
X34142047Y-42151756D01*
X34215074Y-42328058D01*
X32966574Y-43576559D01*
X32934710Y-43602709D01*
X32897182Y-43648437D01*
X32830364Y-43729855D01*
X32752828Y-43874914D01*
X32705082Y-44032312D01*
X32688960Y-44196000D01*
X32693001Y-44237029D01*
X32693001Y-46437655D01*
X32475983Y-46220637D01*
X32126302Y-45986988D01*
X31737756Y-45826047D01*
X31325279Y-45744000D01*
X30904721Y-45744000D01*
X30492244Y-45826047D01*
X30103698Y-45986988D01*
X29791000Y-46195926D01*
X29791000Y-46152409D01*
X30176428Y-45766982D01*
X30208292Y-45740832D01*
X30312637Y-45613687D01*
X30390173Y-45468628D01*
X30437919Y-45311230D01*
X30450001Y-45188560D01*
X30450001Y-45188559D01*
X30454041Y-45147542D01*
X30450001Y-45106523D01*
X30450001Y-43564455D01*
X30492244Y-43581953D01*
X30904721Y-43664000D01*
X31325279Y-43664000D01*
X31737756Y-43581953D01*
X32126302Y-43421012D01*
X32475983Y-43187363D01*
X32773363Y-42889983D01*
X33007012Y-42540302D01*
X33167953Y-42151756D01*
X33250000Y-41739279D01*
X33250000Y-41318721D01*
X33167953Y-40906244D01*
X33007012Y-40517698D01*
X32773363Y-40168017D01*
X32475983Y-39870637D01*
X32126302Y-39636988D01*
X31737756Y-39476047D01*
X31325279Y-39394000D01*
X30904721Y-39394000D01*
X30492244Y-39476047D01*
X30103698Y-39636988D01*
X29754017Y-39870637D01*
X29629011Y-39995643D01*
X29629011Y-36712357D01*
X29754017Y-36837363D01*
X30103698Y-37071012D01*
X30492244Y-37231953D01*
X30904721Y-37314000D01*
X31325279Y-37314000D01*
X31737756Y-37231953D01*
X32126302Y-37071012D01*
X32475983Y-36837363D01*
X32773363Y-36539983D01*
X33007012Y-36190302D01*
X33167953Y-35801756D01*
X33250000Y-35389279D01*
X33250000Y-34968721D01*
X33167953Y-34556244D01*
X33007012Y-34167698D01*
X32773363Y-33818017D01*
X32475983Y-33520637D01*
X32126302Y-33286988D01*
X31737756Y-33126047D01*
X31585172Y-33095696D01*
X31587868Y-33093000D01*
X35738382Y-33093000D01*
X35572244Y-33126047D01*
X35183698Y-33286988D01*
X34834017Y-33520637D01*
X34536637Y-33818017D01*
X34302988Y-34167698D01*
X34142047Y-34556244D01*
X34060000Y-34968721D01*
X34060000Y-35389279D01*
X34142047Y-35801756D01*
X34302988Y-36190302D01*
X34536637Y-36539983D01*
X34834017Y-36837363D01*
X35183698Y-37071012D01*
X35572244Y-37231953D01*
X35984721Y-37314000D01*
X36405279Y-37314000D01*
X36817756Y-37231953D01*
X37206302Y-37071012D01*
X37555983Y-36837363D01*
X37853363Y-36539983D01*
X38087012Y-36190302D01*
X38247953Y-35801756D01*
X38330000Y-35389279D01*
X38330000Y-34968721D01*
X38247953Y-34556244D01*
X38087012Y-34167698D01*
X37853363Y-33818017D01*
X37555983Y-33520637D01*
X37206302Y-33286988D01*
X36817756Y-33126047D01*
X36651618Y-33093000D01*
X37550982Y-33093000D01*
X37592000Y-33097040D01*
X37633018Y-33093000D01*
X37633019Y-33093000D01*
X37755689Y-33080918D01*
X37913087Y-33033172D01*
X38058146Y-32955636D01*
X38185291Y-32851291D01*
X38211446Y-32819422D01*
X39709481Y-31321388D01*
X39711223Y-31321916D01*
X39931381Y-31343600D01*
X40078619Y-31343600D01*
X40298777Y-31321916D01*
X40581264Y-31236225D01*
X40841606Y-31097069D01*
X41069797Y-30909797D01*
X41257069Y-30681606D01*
X41275000Y-30648060D01*
X41292931Y-30681606D01*
X41480203Y-30909797D01*
X41708394Y-31097069D01*
X41968736Y-31236225D01*
X42251223Y-31321916D01*
X42471381Y-31343600D01*
X42618619Y-31343600D01*
X42838777Y-31321916D01*
X43121264Y-31236225D01*
X43381606Y-31097069D01*
X43609797Y-30909797D01*
X43797069Y-30681606D01*
X43815000Y-30648060D01*
X43832931Y-30681606D01*
X44020203Y-30909797D01*
X44248394Y-31097069D01*
X44508736Y-31236225D01*
X44791223Y-31321916D01*
X45011381Y-31343600D01*
X45158619Y-31343600D01*
X45378777Y-31321916D01*
X45661264Y-31236225D01*
X45921606Y-31097069D01*
X46149797Y-30909797D01*
X46156414Y-30901735D01*
X46171898Y-30952780D01*
X46230863Y-31063094D01*
X46310215Y-31159785D01*
X46406906Y-31239137D01*
X46517220Y-31298102D01*
X46636918Y-31334412D01*
X46761400Y-31346672D01*
X48488600Y-31346672D01*
X48613082Y-31334412D01*
X48732780Y-31298102D01*
X48843094Y-31239137D01*
X48939785Y-31159785D01*
X49019137Y-31063094D01*
X49078102Y-30952780D01*
X49114412Y-30833082D01*
X49126672Y-30708600D01*
X49126672Y-28981400D01*
X49114412Y-28856918D01*
X49078102Y-28737220D01*
X49019137Y-28626906D01*
X48939785Y-28530215D01*
X48843094Y-28450863D01*
X48732780Y-28391898D01*
X48681735Y-28376414D01*
X48689797Y-28369797D01*
X48877069Y-28141606D01*
X49016225Y-27881264D01*
X49101916Y-27598777D01*
X49130851Y-27305000D01*
X49101916Y-27011223D01*
X49016225Y-26728736D01*
X48877069Y-26468394D01*
X48689797Y-26240203D01*
X48461606Y-26052931D01*
X48201264Y-25913775D01*
X47918777Y-25828084D01*
X47698619Y-25806400D01*
X47551381Y-25806400D01*
X47331223Y-25828084D01*
X47048736Y-25913775D01*
X46788394Y-26052931D01*
X46560203Y-26240203D01*
X46372931Y-26468394D01*
X46349137Y-26512910D01*
X46291817Y-26416512D01*
X46095293Y-26198146D01*
X45859944Y-26022316D01*
X45594814Y-25895778D01*
X45444026Y-25850042D01*
X45212000Y-25971183D01*
X45212000Y-27178000D01*
X45232000Y-27178000D01*
X45232000Y-27432000D01*
X45212000Y-27432000D01*
X45212000Y-27452000D01*
X44958000Y-27452000D01*
X44958000Y-27432000D01*
X42672000Y-27432000D01*
X42672000Y-27452000D01*
X42418000Y-27452000D01*
X42418000Y-27432000D01*
X40132000Y-27432000D01*
X40132000Y-27452000D01*
X39878000Y-27452000D01*
X39878000Y-27432000D01*
X37592000Y-27432000D01*
X37592000Y-27452000D01*
X37338000Y-27452000D01*
X37338000Y-27432000D01*
X35052000Y-27432000D01*
X35052000Y-27452000D01*
X34798000Y-27452000D01*
X34798000Y-27432000D01*
X32512000Y-27432000D01*
X32512000Y-27452000D01*
X32258000Y-27452000D01*
X32258000Y-27432000D01*
X29972000Y-27432000D01*
X29972000Y-27452000D01*
X29718000Y-27452000D01*
X29718000Y-27432000D01*
X27432000Y-27432000D01*
X27432000Y-27452000D01*
X27178000Y-27452000D01*
X27178000Y-27432000D01*
X24892000Y-27432000D01*
X24892000Y-27452000D01*
X24638000Y-27452000D01*
X24638000Y-27432000D01*
X23430536Y-27432000D01*
X23310037Y-27664027D01*
X23408036Y-27940978D01*
X23558183Y-28193488D01*
X23754707Y-28411854D01*
X23968433Y-28571530D01*
X23928394Y-28592931D01*
X23700203Y-28780203D01*
X23512931Y-29008394D01*
X23373775Y-29268736D01*
X23288084Y-29551223D01*
X23259149Y-29845000D01*
X23288084Y-30138777D01*
X23373775Y-30421264D01*
X23512931Y-30681606D01*
X23700203Y-30909797D01*
X23928394Y-31097069D01*
X24188736Y-31236225D01*
X24471223Y-31321916D01*
X24691381Y-31343600D01*
X24838619Y-31343600D01*
X25058777Y-31321916D01*
X25341264Y-31236225D01*
X25601606Y-31097069D01*
X25829797Y-30909797D01*
X26017069Y-30681606D01*
X26035000Y-30648060D01*
X26052931Y-30681606D01*
X26240203Y-30909797D01*
X26468394Y-31097069D01*
X26728736Y-31236225D01*
X27011223Y-31321916D01*
X27171437Y-31337696D01*
X26832133Y-31677000D01*
X25187018Y-31677000D01*
X25146000Y-31672960D01*
X25104982Y-31677000D01*
X25104981Y-31677000D01*
X24982311Y-31689082D01*
X24824913Y-31736828D01*
X24679854Y-31814364D01*
X24552709Y-31918709D01*
X24526563Y-31950568D01*
X22806579Y-33670554D01*
X22774709Y-33696709D01*
X22675155Y-33818017D01*
X22670364Y-33823855D01*
X22592828Y-33968914D01*
X22590275Y-33977330D01*
X21388605Y-35179000D01*
X21402748Y-35193143D01*
X21223143Y-35372748D01*
X21209000Y-35358605D01*
X19896952Y-36670653D01*
X20052962Y-36986214D01*
X20427745Y-37177020D01*
X20832551Y-37291044D01*
X21251824Y-37323902D01*
X21669451Y-37274334D01*
X22069383Y-37144243D01*
X22365038Y-36986214D01*
X22521047Y-36670655D01*
X22533000Y-36682608D01*
X22533001Y-46238068D01*
X22347302Y-46113988D01*
X21958756Y-45953047D01*
X21546279Y-45871000D01*
X21125721Y-45871000D01*
X20713244Y-45953047D01*
X20324698Y-46113988D01*
X19975017Y-46347637D01*
X19677637Y-46645017D01*
X19663576Y-46666061D01*
X19679138Y-36472158D01*
X19717347Y-36491048D01*
X21029395Y-35179000D01*
X19717347Y-33866952D01*
X19683089Y-33883889D01*
X19683389Y-33687347D01*
X19896952Y-33687347D01*
X21209000Y-34999395D01*
X22521048Y-33687347D01*
X22365038Y-33371786D01*
X21990255Y-33180980D01*
X21585449Y-33066956D01*
X21166176Y-33034098D01*
X20748549Y-33083666D01*
X20348617Y-33213757D01*
X20052962Y-33371786D01*
X19896952Y-33687347D01*
X19683389Y-33687347D01*
X19693680Y-26945973D01*
X23310037Y-26945973D01*
X23430536Y-27178000D01*
X24638000Y-27178000D01*
X24638000Y-25971183D01*
X24892000Y-25971183D01*
X24892000Y-27178000D01*
X27178000Y-27178000D01*
X27178000Y-25971183D01*
X27432000Y-25971183D01*
X27432000Y-27178000D01*
X29718000Y-27178000D01*
X29718000Y-25971183D01*
X29972000Y-25971183D01*
X29972000Y-27178000D01*
X32258000Y-27178000D01*
X32258000Y-25971183D01*
X32512000Y-25971183D01*
X32512000Y-27178000D01*
X34798000Y-27178000D01*
X34798000Y-25971183D01*
X35052000Y-25971183D01*
X35052000Y-27178000D01*
X37338000Y-27178000D01*
X37338000Y-25971183D01*
X37592000Y-25971183D01*
X37592000Y-27178000D01*
X39878000Y-27178000D01*
X39878000Y-25971183D01*
X40132000Y-25971183D01*
X40132000Y-27178000D01*
X42418000Y-27178000D01*
X42418000Y-25971183D01*
X42672000Y-25971183D01*
X42672000Y-27178000D01*
X44958000Y-27178000D01*
X44958000Y-25971183D01*
X44725974Y-25850042D01*
X44575186Y-25895778D01*
X44310056Y-26022316D01*
X44074707Y-26198146D01*
X43878183Y-26416512D01*
X43815000Y-26522770D01*
X43751817Y-26416512D01*
X43555293Y-26198146D01*
X43319944Y-26022316D01*
X43054814Y-25895778D01*
X42904026Y-25850042D01*
X42672000Y-25971183D01*
X42418000Y-25971183D01*
X42185974Y-25850042D01*
X42035186Y-25895778D01*
X41770056Y-26022316D01*
X41534707Y-26198146D01*
X41338183Y-26416512D01*
X41275000Y-26522770D01*
X41211817Y-26416512D01*
X41015293Y-26198146D01*
X40779944Y-26022316D01*
X40514814Y-25895778D01*
X40364026Y-25850042D01*
X40132000Y-25971183D01*
X39878000Y-25971183D01*
X39645974Y-25850042D01*
X39495186Y-25895778D01*
X39230056Y-26022316D01*
X38994707Y-26198146D01*
X38798183Y-26416512D01*
X38735000Y-26522770D01*
X38671817Y-26416512D01*
X38475293Y-26198146D01*
X38239944Y-26022316D01*
X37974814Y-25895778D01*
X37824026Y-25850042D01*
X37592000Y-25971183D01*
X37338000Y-25971183D01*
X37105974Y-25850042D01*
X36955186Y-25895778D01*
X36690056Y-26022316D01*
X36454707Y-26198146D01*
X36258183Y-26416512D01*
X36195000Y-26522770D01*
X36131817Y-26416512D01*
X35935293Y-26198146D01*
X35699944Y-26022316D01*
X35434814Y-25895778D01*
X35284026Y-25850042D01*
X35052000Y-25971183D01*
X34798000Y-25971183D01*
X34565974Y-25850042D01*
X34415186Y-25895778D01*
X34150056Y-26022316D01*
X33914707Y-26198146D01*
X33718183Y-26416512D01*
X33655000Y-26522770D01*
X33591817Y-26416512D01*
X33395293Y-26198146D01*
X33159944Y-26022316D01*
X32894814Y-25895778D01*
X32744026Y-25850042D01*
X32512000Y-25971183D01*
X32258000Y-25971183D01*
X32025974Y-25850042D01*
X31875186Y-25895778D01*
X31610056Y-26022316D01*
X31374707Y-26198146D01*
X31178183Y-26416512D01*
X31115000Y-26522770D01*
X31051817Y-26416512D01*
X30855293Y-26198146D01*
X30619944Y-26022316D01*
X30354814Y-25895778D01*
X30204026Y-25850042D01*
X29972000Y-25971183D01*
X29718000Y-25971183D01*
X29485974Y-25850042D01*
X29335186Y-25895778D01*
X29070056Y-26022316D01*
X28834707Y-26198146D01*
X28638183Y-26416512D01*
X28575000Y-26522770D01*
X28511817Y-26416512D01*
X28315293Y-26198146D01*
X28079944Y-26022316D01*
X27814814Y-25895778D01*
X27664026Y-25850042D01*
X27432000Y-25971183D01*
X27178000Y-25971183D01*
X26945974Y-25850042D01*
X26795186Y-25895778D01*
X26530056Y-26022316D01*
X26294707Y-26198146D01*
X26098183Y-26416512D01*
X26035000Y-26522770D01*
X25971817Y-26416512D01*
X25775293Y-26198146D01*
X25539944Y-26022316D01*
X25274814Y-25895778D01*
X25124026Y-25850042D01*
X24892000Y-25971183D01*
X24638000Y-25971183D01*
X24405974Y-25850042D01*
X24255186Y-25895778D01*
X23990056Y-26022316D01*
X23754707Y-26198146D01*
X23558183Y-26416512D01*
X23408036Y-26669022D01*
X23310037Y-26945973D01*
X19693680Y-26945973D01*
X19708992Y-16916000D01*
X52883000Y-16916000D01*
X52883000Y-33607654D01*
X52883000Y-33607654D01*
G37*
X52883000Y-33607654D02*
X52795983Y-33520637D01*
X52446302Y-33286988D01*
X52057756Y-33126047D01*
X51645279Y-33044000D01*
X51224721Y-33044000D01*
X50812244Y-33126047D01*
X50423698Y-33286988D01*
X50074017Y-33520637D01*
X49776637Y-33818017D01*
X49542988Y-34167698D01*
X49382047Y-34556244D01*
X49300000Y-34968721D01*
X49300000Y-35389279D01*
X49382047Y-35801756D01*
X49542988Y-36190302D01*
X49613020Y-36295112D01*
X48578224Y-37329907D01*
X48433101Y-37358774D01*
X48244743Y-37436795D01*
X48075225Y-37550063D01*
X47931062Y-37694226D01*
X47817794Y-37863744D01*
X47739773Y-38052102D01*
X47699999Y-38252061D01*
X47699999Y-38455939D01*
X47739773Y-38655898D01*
X47817794Y-38844256D01*
X47931062Y-39013774D01*
X48075225Y-39157937D01*
X48244743Y-39271205D01*
X48433101Y-39349226D01*
X48633060Y-39389000D01*
X48836938Y-39389000D01*
X49036897Y-39349226D01*
X49225255Y-39271205D01*
X49394773Y-39157937D01*
X49538936Y-39013774D01*
X49652204Y-38844256D01*
X49730225Y-38655898D01*
X49759092Y-38510775D01*
X51000473Y-37269394D01*
X51224721Y-37314000D01*
X51645279Y-37314000D01*
X52057756Y-37231953D01*
X52446302Y-37071012D01*
X52795983Y-36837363D01*
X52883000Y-36750346D01*
X52883000Y-39943914D01*
X52861739Y-39922653D01*
X52747047Y-40037345D01*
X52591038Y-39721786D01*
X52216255Y-39530980D01*
X51811449Y-39416956D01*
X51392176Y-39384098D01*
X50974549Y-39433666D01*
X50574617Y-39563757D01*
X50278962Y-39721786D01*
X50122952Y-40037347D01*
X51435000Y-41349395D01*
X51449143Y-41335253D01*
X51628748Y-41514858D01*
X51614605Y-41529000D01*
X51628748Y-41543143D01*
X51449143Y-41722748D01*
X51435000Y-41708605D01*
X50122952Y-43020653D01*
X50278962Y-43336214D01*
X50653745Y-43527020D01*
X51058551Y-43641044D01*
X51477824Y-43673902D01*
X51895451Y-43624334D01*
X52295383Y-43494243D01*
X52591038Y-43336214D01*
X52747047Y-43020655D01*
X52861739Y-43135347D01*
X52883001Y-43114085D01*
X52883001Y-46307655D01*
X52795983Y-46220637D01*
X52446302Y-45986988D01*
X52057756Y-45826047D01*
X51645279Y-45744000D01*
X51224721Y-45744000D01*
X50812244Y-45826047D01*
X50423698Y-45986988D01*
X50074017Y-46220637D01*
X49776637Y-46518017D01*
X49542988Y-46867698D01*
X49382047Y-47256244D01*
X49300000Y-47668721D01*
X49300000Y-48089279D01*
X49382047Y-48501756D01*
X49455074Y-48678059D01*
X48973573Y-49159560D01*
X48941709Y-49185710D01*
X48883553Y-49256574D01*
X48837363Y-49312856D01*
X48759827Y-49457915D01*
X48712081Y-49615313D01*
X48695959Y-49779001D01*
X48700000Y-49820030D01*
X48699999Y-59780980D01*
X48695959Y-59821999D01*
X48703337Y-59896912D01*
X48712081Y-59985687D01*
X48749791Y-60110000D01*
X48640998Y-60110000D01*
X48640998Y-60274844D01*
X48411110Y-60153524D01*
X48352999Y-60171150D01*
X48352999Y-57554337D01*
X48357039Y-57513319D01*
X48340917Y-57349630D01*
X48293171Y-57192232D01*
X48215635Y-57047173D01*
X48137438Y-56951889D01*
X48137436Y-56951887D01*
X48111290Y-56920028D01*
X48079431Y-56893882D01*
X47324058Y-56138510D01*
X47366302Y-56121012D01*
X47715983Y-55887363D01*
X48013363Y-55589983D01*
X48247012Y-55240302D01*
X48407953Y-54851756D01*
X48490000Y-54439279D01*
X48490000Y-54018721D01*
X48407953Y-53606244D01*
X48247012Y-53217698D01*
X48013363Y-52868017D01*
X47715983Y-52570637D01*
X47366302Y-52336988D01*
X46977756Y-52176047D01*
X46565279Y-52094000D01*
X46144721Y-52094000D01*
X45732244Y-52176047D01*
X45343698Y-52336988D01*
X45289999Y-52372868D01*
X45289999Y-49735132D01*
X45343698Y-49771012D01*
X45732244Y-49931953D01*
X46144721Y-50014000D01*
X46565279Y-50014000D01*
X46977756Y-49931953D01*
X47366302Y-49771012D01*
X47715983Y-49537363D01*
X48013363Y-49239983D01*
X48247012Y-48890302D01*
X48407953Y-48501756D01*
X48490000Y-48089279D01*
X48490000Y-47668721D01*
X48407953Y-47256244D01*
X48247012Y-46867698D01*
X48013363Y-46518017D01*
X47715983Y-46220637D01*
X47366302Y-45986988D01*
X46977756Y-45826047D01*
X46565279Y-45744000D01*
X46144721Y-45744000D01*
X45732244Y-45826047D01*
X45343698Y-45986988D01*
X45289999Y-46022868D01*
X45289999Y-43385132D01*
X45343698Y-43421012D01*
X45732244Y-43581953D01*
X46144721Y-43664000D01*
X46565279Y-43664000D01*
X46977756Y-43581953D01*
X47366302Y-43421012D01*
X47715983Y-43187363D01*
X48013363Y-42889983D01*
X48247012Y-42540302D01*
X48407953Y-42151756D01*
X48490000Y-41739279D01*
X48490000Y-41571824D01*
X49290098Y-41571824D01*
X49339666Y-41989451D01*
X49469757Y-42389383D01*
X49627786Y-42685038D01*
X49943347Y-42841048D01*
X51255395Y-41529000D01*
X49943347Y-40216952D01*
X49627786Y-40372962D01*
X49436980Y-40747745D01*
X49322956Y-41152551D01*
X49290098Y-41571824D01*
X48490000Y-41571824D01*
X48490000Y-41318721D01*
X48407953Y-40906244D01*
X48247012Y-40517698D01*
X48013363Y-40168017D01*
X47715983Y-39870637D01*
X47366302Y-39636988D01*
X46977756Y-39476047D01*
X46565279Y-39394000D01*
X46144721Y-39394000D01*
X45732244Y-39476047D01*
X45343698Y-39636988D01*
X45289999Y-39672868D01*
X45289999Y-37424868D01*
X45555941Y-37158926D01*
X45732244Y-37231953D01*
X46144721Y-37314000D01*
X46565279Y-37314000D01*
X46977756Y-37231953D01*
X47366302Y-37071012D01*
X47715983Y-36837363D01*
X48013363Y-36539983D01*
X48247012Y-36190302D01*
X48407953Y-35801756D01*
X48490000Y-35389279D01*
X48490000Y-34968721D01*
X48407953Y-34556244D01*
X48247012Y-34167698D01*
X48013363Y-33818017D01*
X47715983Y-33520637D01*
X47366302Y-33286988D01*
X46977756Y-33126047D01*
X46565279Y-33044000D01*
X46144721Y-33044000D01*
X45732244Y-33126047D01*
X45343698Y-33286988D01*
X44994017Y-33520637D01*
X44696637Y-33818017D01*
X44462988Y-34167698D01*
X44302047Y-34556244D01*
X44220000Y-34968721D01*
X44220000Y-35389279D01*
X44302047Y-35801756D01*
X44375074Y-35978059D01*
X43893573Y-36459560D01*
X43861709Y-36485710D01*
X43808889Y-36550072D01*
X43757363Y-36612856D01*
X43679827Y-36757915D01*
X43632081Y-36915313D01*
X43615959Y-37079001D01*
X43620000Y-37120030D01*
X43619999Y-49043132D01*
X43394447Y-48817580D01*
X43394438Y-48817569D01*
X43254926Y-48678058D01*
X43327953Y-48501756D01*
X43410000Y-48089279D01*
X43410000Y-47668721D01*
X43327953Y-47256244D01*
X43167012Y-46867698D01*
X42933363Y-46518017D01*
X42635983Y-46220637D01*
X42286302Y-45986988D01*
X41897756Y-45826047D01*
X41485279Y-45744000D01*
X41064721Y-45744000D01*
X40652244Y-45826047D01*
X40263698Y-45986988D01*
X40209999Y-46022868D01*
X40209999Y-43385132D01*
X40263698Y-43421012D01*
X40652244Y-43581953D01*
X41064721Y-43664000D01*
X41485279Y-43664000D01*
X41897756Y-43581953D01*
X42286302Y-43421012D01*
X42635983Y-43187363D01*
X42933363Y-42889983D01*
X43167012Y-42540302D01*
X43327953Y-42151756D01*
X43410000Y-41739279D01*
X43410000Y-41318721D01*
X43327953Y-40906244D01*
X43167012Y-40517698D01*
X42933363Y-40168017D01*
X42635983Y-39870637D01*
X42286302Y-39636988D01*
X41897756Y-39476047D01*
X41485279Y-39394000D01*
X41064721Y-39394000D01*
X40652244Y-39476047D01*
X40263698Y-39636988D01*
X40209999Y-39672868D01*
X40209999Y-37424868D01*
X40475941Y-37158926D01*
X40652244Y-37231953D01*
X41064721Y-37314000D01*
X41485279Y-37314000D01*
X41897756Y-37231953D01*
X42286302Y-37071012D01*
X42635983Y-36837363D01*
X42933363Y-36539983D01*
X43167012Y-36190302D01*
X43327953Y-35801756D01*
X43410000Y-35389279D01*
X43410000Y-34968721D01*
X43327953Y-34556244D01*
X43167012Y-34167698D01*
X42933363Y-33818017D01*
X42635983Y-33520637D01*
X42286302Y-33286988D01*
X41897756Y-33126047D01*
X41485279Y-33044000D01*
X41064721Y-33044000D01*
X40652244Y-33126047D01*
X40263698Y-33286988D01*
X39914017Y-33520637D01*
X39616637Y-33818017D01*
X39382988Y-34167698D01*
X39222047Y-34556244D01*
X39140000Y-34968721D01*
X39140000Y-35389279D01*
X39222047Y-35801756D01*
X39295074Y-35978059D01*
X38813573Y-36459560D01*
X38781709Y-36485710D01*
X38728889Y-36550072D01*
X38677363Y-36612856D01*
X38599827Y-36757915D01*
X38552081Y-36915313D01*
X38535959Y-37079001D01*
X38540000Y-37120030D01*
X38539999Y-49043132D01*
X38314447Y-48817580D01*
X38314438Y-48817569D01*
X38174926Y-48678058D01*
X38247953Y-48501756D01*
X38330000Y-48089279D01*
X38330000Y-47668721D01*
X38247953Y-47256244D01*
X38087012Y-46867698D01*
X37853363Y-46518017D01*
X37555983Y-46220637D01*
X37206302Y-45986988D01*
X36817756Y-45826047D01*
X36405279Y-45744000D01*
X35984721Y-45744000D01*
X35572244Y-45826047D01*
X35183698Y-45986988D01*
X34834017Y-46220637D01*
X34536637Y-46518017D01*
X34363000Y-46777884D01*
X34363000Y-44541867D01*
X35395942Y-43508926D01*
X35572244Y-43581953D01*
X35984721Y-43664000D01*
X36405279Y-43664000D01*
X36817756Y-43581953D01*
X37206302Y-43421012D01*
X37555983Y-43187363D01*
X37853363Y-42889983D01*
X38087012Y-42540302D01*
X38247953Y-42151756D01*
X38330000Y-41739279D01*
X38330000Y-41318721D01*
X38247953Y-40906244D01*
X38087012Y-40517698D01*
X37853363Y-40168017D01*
X37555983Y-39870637D01*
X37206302Y-39636988D01*
X36817756Y-39476047D01*
X36405279Y-39394000D01*
X35984721Y-39394000D01*
X35572244Y-39476047D01*
X35183698Y-39636988D01*
X34834017Y-39870637D01*
X34536637Y-40168017D01*
X34302988Y-40517698D01*
X34142047Y-40906244D01*
X34060000Y-41318721D01*
X34060000Y-41739279D01*
X34142047Y-42151756D01*
X34215074Y-42328058D01*
X32966574Y-43576559D01*
X32934710Y-43602709D01*
X32897182Y-43648437D01*
X32830364Y-43729855D01*
X32752828Y-43874914D01*
X32705082Y-44032312D01*
X32688960Y-44196000D01*
X32693001Y-44237029D01*
X32693001Y-46437655D01*
X32475983Y-46220637D01*
X32126302Y-45986988D01*
X31737756Y-45826047D01*
X31325279Y-45744000D01*
X30904721Y-45744000D01*
X30492244Y-45826047D01*
X30103698Y-45986988D01*
X29791000Y-46195926D01*
X29791000Y-46152409D01*
X30176428Y-45766982D01*
X30208292Y-45740832D01*
X30312637Y-45613687D01*
X30390173Y-45468628D01*
X30437919Y-45311230D01*
X30450001Y-45188560D01*
X30450001Y-45188559D01*
X30454041Y-45147542D01*
X30450001Y-45106523D01*
X30450001Y-43564455D01*
X30492244Y-43581953D01*
X30904721Y-43664000D01*
X31325279Y-43664000D01*
X31737756Y-43581953D01*
X32126302Y-43421012D01*
X32475983Y-43187363D01*
X32773363Y-42889983D01*
X33007012Y-42540302D01*
X33167953Y-42151756D01*
X33250000Y-41739279D01*
X33250000Y-41318721D01*
X33167953Y-40906244D01*
X33007012Y-40517698D01*
X32773363Y-40168017D01*
X32475983Y-39870637D01*
X32126302Y-39636988D01*
X31737756Y-39476047D01*
X31325279Y-39394000D01*
X30904721Y-39394000D01*
X30492244Y-39476047D01*
X30103698Y-39636988D01*
X29754017Y-39870637D01*
X29629011Y-39995643D01*
X29629011Y-36712357D01*
X29754017Y-36837363D01*
X30103698Y-37071012D01*
X30492244Y-37231953D01*
X30904721Y-37314000D01*
X31325279Y-37314000D01*
X31737756Y-37231953D01*
X32126302Y-37071012D01*
X32475983Y-36837363D01*
X32773363Y-36539983D01*
X33007012Y-36190302D01*
X33167953Y-35801756D01*
X33250000Y-35389279D01*
X33250000Y-34968721D01*
X33167953Y-34556244D01*
X33007012Y-34167698D01*
X32773363Y-33818017D01*
X32475983Y-33520637D01*
X32126302Y-33286988D01*
X31737756Y-33126047D01*
X31585172Y-33095696D01*
X31587868Y-33093000D01*
X35738382Y-33093000D01*
X35572244Y-33126047D01*
X35183698Y-33286988D01*
X34834017Y-33520637D01*
X34536637Y-33818017D01*
X34302988Y-34167698D01*
X34142047Y-34556244D01*
X34060000Y-34968721D01*
X34060000Y-35389279D01*
X34142047Y-35801756D01*
X34302988Y-36190302D01*
X34536637Y-36539983D01*
X34834017Y-36837363D01*
X35183698Y-37071012D01*
X35572244Y-37231953D01*
X35984721Y-37314000D01*
X36405279Y-37314000D01*
X36817756Y-37231953D01*
X37206302Y-37071012D01*
X37555983Y-36837363D01*
X37853363Y-36539983D01*
X38087012Y-36190302D01*
X38247953Y-35801756D01*
X38330000Y-35389279D01*
X38330000Y-34968721D01*
X38247953Y-34556244D01*
X38087012Y-34167698D01*
X37853363Y-33818017D01*
X37555983Y-33520637D01*
X37206302Y-33286988D01*
X36817756Y-33126047D01*
X36651618Y-33093000D01*
X37550982Y-33093000D01*
X37592000Y-33097040D01*
X37633018Y-33093000D01*
X37633019Y-33093000D01*
X37755689Y-33080918D01*
X37913087Y-33033172D01*
X38058146Y-32955636D01*
X38185291Y-32851291D01*
X38211446Y-32819422D01*
X39709481Y-31321388D01*
X39711223Y-31321916D01*
X39931381Y-31343600D01*
X40078619Y-31343600D01*
X40298777Y-31321916D01*
X40581264Y-31236225D01*
X40841606Y-31097069D01*
X41069797Y-30909797D01*
X41257069Y-30681606D01*
X41275000Y-30648060D01*
X41292931Y-30681606D01*
X41480203Y-30909797D01*
X41708394Y-31097069D01*
X41968736Y-31236225D01*
X42251223Y-31321916D01*
X42471381Y-31343600D01*
X42618619Y-31343600D01*
X42838777Y-31321916D01*
X43121264Y-31236225D01*
X43381606Y-31097069D01*
X43609797Y-30909797D01*
X43797069Y-30681606D01*
X43815000Y-30648060D01*
X43832931Y-30681606D01*
X44020203Y-30909797D01*
X44248394Y-31097069D01*
X44508736Y-31236225D01*
X44791223Y-31321916D01*
X45011381Y-31343600D01*
X45158619Y-31343600D01*
X45378777Y-31321916D01*
X45661264Y-31236225D01*
X45921606Y-31097069D01*
X46149797Y-30909797D01*
X46156414Y-30901735D01*
X46171898Y-30952780D01*
X46230863Y-31063094D01*
X46310215Y-31159785D01*
X46406906Y-31239137D01*
X46517220Y-31298102D01*
X46636918Y-31334412D01*
X46761400Y-31346672D01*
X48488600Y-31346672D01*
X48613082Y-31334412D01*
X48732780Y-31298102D01*
X48843094Y-31239137D01*
X48939785Y-31159785D01*
X49019137Y-31063094D01*
X49078102Y-30952780D01*
X49114412Y-30833082D01*
X49126672Y-30708600D01*
X49126672Y-28981400D01*
X49114412Y-28856918D01*
X49078102Y-28737220D01*
X49019137Y-28626906D01*
X48939785Y-28530215D01*
X48843094Y-28450863D01*
X48732780Y-28391898D01*
X48681735Y-28376414D01*
X48689797Y-28369797D01*
X48877069Y-28141606D01*
X49016225Y-27881264D01*
X49101916Y-27598777D01*
X49130851Y-27305000D01*
X49101916Y-27011223D01*
X49016225Y-26728736D01*
X48877069Y-26468394D01*
X48689797Y-26240203D01*
X48461606Y-26052931D01*
X48201264Y-25913775D01*
X47918777Y-25828084D01*
X47698619Y-25806400D01*
X47551381Y-25806400D01*
X47331223Y-25828084D01*
X47048736Y-25913775D01*
X46788394Y-26052931D01*
X46560203Y-26240203D01*
X46372931Y-26468394D01*
X46349137Y-26512910D01*
X46291817Y-26416512D01*
X46095293Y-26198146D01*
X45859944Y-26022316D01*
X45594814Y-25895778D01*
X45444026Y-25850042D01*
X45212000Y-25971183D01*
X45212000Y-27178000D01*
X45232000Y-27178000D01*
X45232000Y-27432000D01*
X45212000Y-27432000D01*
X45212000Y-27452000D01*
X44958000Y-27452000D01*
X44958000Y-27432000D01*
X42672000Y-27432000D01*
X42672000Y-27452000D01*
X42418000Y-27452000D01*
X42418000Y-27432000D01*
X40132000Y-27432000D01*
X40132000Y-27452000D01*
X39878000Y-27452000D01*
X39878000Y-27432000D01*
X37592000Y-27432000D01*
X37592000Y-27452000D01*
X37338000Y-27452000D01*
X37338000Y-27432000D01*
X35052000Y-27432000D01*
X35052000Y-27452000D01*
X34798000Y-27452000D01*
X34798000Y-27432000D01*
X32512000Y-27432000D01*
X32512000Y-27452000D01*
X32258000Y-27452000D01*
X32258000Y-27432000D01*
X29972000Y-27432000D01*
X29972000Y-27452000D01*
X29718000Y-27452000D01*
X29718000Y-27432000D01*
X27432000Y-27432000D01*
X27432000Y-27452000D01*
X27178000Y-27452000D01*
X27178000Y-27432000D01*
X24892000Y-27432000D01*
X24892000Y-27452000D01*
X24638000Y-27452000D01*
X24638000Y-27432000D01*
X23430536Y-27432000D01*
X23310037Y-27664027D01*
X23408036Y-27940978D01*
X23558183Y-28193488D01*
X23754707Y-28411854D01*
X23968433Y-28571530D01*
X23928394Y-28592931D01*
X23700203Y-28780203D01*
X23512931Y-29008394D01*
X23373775Y-29268736D01*
X23288084Y-29551223D01*
X23259149Y-29845000D01*
X23288084Y-30138777D01*
X23373775Y-30421264D01*
X23512931Y-30681606D01*
X23700203Y-30909797D01*
X23928394Y-31097069D01*
X24188736Y-31236225D01*
X24471223Y-31321916D01*
X24691381Y-31343600D01*
X24838619Y-31343600D01*
X25058777Y-31321916D01*
X25341264Y-31236225D01*
X25601606Y-31097069D01*
X25829797Y-30909797D01*
X26017069Y-30681606D01*
X26035000Y-30648060D01*
X26052931Y-30681606D01*
X26240203Y-30909797D01*
X26468394Y-31097069D01*
X26728736Y-31236225D01*
X27011223Y-31321916D01*
X27171437Y-31337696D01*
X26832133Y-31677000D01*
X25187018Y-31677000D01*
X25146000Y-31672960D01*
X25104982Y-31677000D01*
X25104981Y-31677000D01*
X24982311Y-31689082D01*
X24824913Y-31736828D01*
X24679854Y-31814364D01*
X24552709Y-31918709D01*
X24526563Y-31950568D01*
X22806579Y-33670554D01*
X22774709Y-33696709D01*
X22675155Y-33818017D01*
X22670364Y-33823855D01*
X22592828Y-33968914D01*
X22590275Y-33977330D01*
X21388605Y-35179000D01*
X21402748Y-35193143D01*
X21223143Y-35372748D01*
X21209000Y-35358605D01*
X19896952Y-36670653D01*
X20052962Y-36986214D01*
X20427745Y-37177020D01*
X20832551Y-37291044D01*
X21251824Y-37323902D01*
X21669451Y-37274334D01*
X22069383Y-37144243D01*
X22365038Y-36986214D01*
X22521047Y-36670655D01*
X22533000Y-36682608D01*
X22533001Y-46238068D01*
X22347302Y-46113988D01*
X21958756Y-45953047D01*
X21546279Y-45871000D01*
X21125721Y-45871000D01*
X20713244Y-45953047D01*
X20324698Y-46113988D01*
X19975017Y-46347637D01*
X19677637Y-46645017D01*
X19663576Y-46666061D01*
X19679138Y-36472158D01*
X19717347Y-36491048D01*
X21029395Y-35179000D01*
X19717347Y-33866952D01*
X19683089Y-33883889D01*
X19683389Y-33687347D01*
X19896952Y-33687347D01*
X21209000Y-34999395D01*
X22521048Y-33687347D01*
X22365038Y-33371786D01*
X21990255Y-33180980D01*
X21585449Y-33066956D01*
X21166176Y-33034098D01*
X20748549Y-33083666D01*
X20348617Y-33213757D01*
X20052962Y-33371786D01*
X19896952Y-33687347D01*
X19683389Y-33687347D01*
X19693680Y-26945973D01*
X23310037Y-26945973D01*
X23430536Y-27178000D01*
X24638000Y-27178000D01*
X24638000Y-25971183D01*
X24892000Y-25971183D01*
X24892000Y-27178000D01*
X27178000Y-27178000D01*
X27178000Y-25971183D01*
X27432000Y-25971183D01*
X27432000Y-27178000D01*
X29718000Y-27178000D01*
X29718000Y-25971183D01*
X29972000Y-25971183D01*
X29972000Y-27178000D01*
X32258000Y-27178000D01*
X32258000Y-25971183D01*
X32512000Y-25971183D01*
X32512000Y-27178000D01*
X34798000Y-27178000D01*
X34798000Y-25971183D01*
X35052000Y-25971183D01*
X35052000Y-27178000D01*
X37338000Y-27178000D01*
X37338000Y-25971183D01*
X37592000Y-25971183D01*
X37592000Y-27178000D01*
X39878000Y-27178000D01*
X39878000Y-25971183D01*
X40132000Y-25971183D01*
X40132000Y-27178000D01*
X42418000Y-27178000D01*
X42418000Y-25971183D01*
X42672000Y-25971183D01*
X42672000Y-27178000D01*
X44958000Y-27178000D01*
X44958000Y-25971183D01*
X44725974Y-25850042D01*
X44575186Y-25895778D01*
X44310056Y-26022316D01*
X44074707Y-26198146D01*
X43878183Y-26416512D01*
X43815000Y-26522770D01*
X43751817Y-26416512D01*
X43555293Y-26198146D01*
X43319944Y-26022316D01*
X43054814Y-25895778D01*
X42904026Y-25850042D01*
X42672000Y-25971183D01*
X42418000Y-25971183D01*
X42185974Y-25850042D01*
X42035186Y-25895778D01*
X41770056Y-26022316D01*
X41534707Y-26198146D01*
X41338183Y-26416512D01*
X41275000Y-26522770D01*
X41211817Y-26416512D01*
X41015293Y-26198146D01*
X40779944Y-26022316D01*
X40514814Y-25895778D01*
X40364026Y-25850042D01*
X40132000Y-25971183D01*
X39878000Y-25971183D01*
X39645974Y-25850042D01*
X39495186Y-25895778D01*
X39230056Y-26022316D01*
X38994707Y-26198146D01*
X38798183Y-26416512D01*
X38735000Y-26522770D01*
X38671817Y-26416512D01*
X38475293Y-26198146D01*
X38239944Y-26022316D01*
X37974814Y-25895778D01*
X37824026Y-25850042D01*
X37592000Y-25971183D01*
X37338000Y-25971183D01*
X37105974Y-25850042D01*
X36955186Y-25895778D01*
X36690056Y-26022316D01*
X36454707Y-26198146D01*
X36258183Y-26416512D01*
X36195000Y-26522770D01*
X36131817Y-26416512D01*
X35935293Y-26198146D01*
X35699944Y-26022316D01*
X35434814Y-25895778D01*
X35284026Y-25850042D01*
X35052000Y-25971183D01*
X34798000Y-25971183D01*
X34565974Y-25850042D01*
X34415186Y-25895778D01*
X34150056Y-26022316D01*
X33914707Y-26198146D01*
X33718183Y-26416512D01*
X33655000Y-26522770D01*
X33591817Y-26416512D01*
X33395293Y-26198146D01*
X33159944Y-26022316D01*
X32894814Y-25895778D01*
X32744026Y-25850042D01*
X32512000Y-25971183D01*
X32258000Y-25971183D01*
X32025974Y-25850042D01*
X31875186Y-25895778D01*
X31610056Y-26022316D01*
X31374707Y-26198146D01*
X31178183Y-26416512D01*
X31115000Y-26522770D01*
X31051817Y-26416512D01*
X30855293Y-26198146D01*
X30619944Y-26022316D01*
X30354814Y-25895778D01*
X30204026Y-25850042D01*
X29972000Y-25971183D01*
X29718000Y-25971183D01*
X29485974Y-25850042D01*
X29335186Y-25895778D01*
X29070056Y-26022316D01*
X28834707Y-26198146D01*
X28638183Y-26416512D01*
X28575000Y-26522770D01*
X28511817Y-26416512D01*
X28315293Y-26198146D01*
X28079944Y-26022316D01*
X27814814Y-25895778D01*
X27664026Y-25850042D01*
X27432000Y-25971183D01*
X27178000Y-25971183D01*
X26945974Y-25850042D01*
X26795186Y-25895778D01*
X26530056Y-26022316D01*
X26294707Y-26198146D01*
X26098183Y-26416512D01*
X26035000Y-26522770D01*
X25971817Y-26416512D01*
X25775293Y-26198146D01*
X25539944Y-26022316D01*
X25274814Y-25895778D01*
X25124026Y-25850042D01*
X24892000Y-25971183D01*
X24638000Y-25971183D01*
X24405974Y-25850042D01*
X24255186Y-25895778D01*
X23990056Y-26022316D01*
X23754707Y-26198146D01*
X23558183Y-26416512D01*
X23408036Y-26669022D01*
X23310037Y-26945973D01*
X19693680Y-26945973D01*
X19708992Y-16916000D01*
X52883000Y-16916000D01*
X52883000Y-33607654D01*
G36*
X34536637Y-49239983D02*
G01*
X34834017Y-49537363D01*
X35183698Y-49771012D01*
X35572244Y-49931953D01*
X35984721Y-50014000D01*
X36405279Y-50014000D01*
X36817756Y-49931953D01*
X36994058Y-49858926D01*
X37133569Y-49998438D01*
X37133580Y-49998447D01*
X37773001Y-50637869D01*
X37773001Y-52787655D01*
X37555983Y-52570637D01*
X37206302Y-52336988D01*
X36817756Y-52176047D01*
X36405279Y-52094000D01*
X35984721Y-52094000D01*
X35572244Y-52176047D01*
X35183698Y-52336988D01*
X34834017Y-52570637D01*
X34536637Y-52868017D01*
X34363000Y-53127884D01*
X34363000Y-48980116D01*
X34536637Y-49239983D01*
X34536637Y-49239983D01*
G37*
X34536637Y-49239983D02*
X34834017Y-49537363D01*
X35183698Y-49771012D01*
X35572244Y-49931953D01*
X35984721Y-50014000D01*
X36405279Y-50014000D01*
X36817756Y-49931953D01*
X36994058Y-49858926D01*
X37133569Y-49998438D01*
X37133580Y-49998447D01*
X37773001Y-50637869D01*
X37773001Y-52787655D01*
X37555983Y-52570637D01*
X37206302Y-52336988D01*
X36817756Y-52176047D01*
X36405279Y-52094000D01*
X35984721Y-52094000D01*
X35572244Y-52176047D01*
X35183698Y-52336988D01*
X34834017Y-52570637D01*
X34536637Y-52868017D01*
X34363000Y-53127884D01*
X34363000Y-48980116D01*
X34536637Y-49239983D01*
G36*
X40263698Y-49771012D02*
G01*
X40652244Y-49931953D01*
X41064721Y-50014000D01*
X41485279Y-50014000D01*
X41897756Y-49931953D01*
X42074058Y-49858926D01*
X42213569Y-49998438D01*
X42213580Y-49998447D01*
X42853001Y-50637869D01*
X42853001Y-52787655D01*
X42635983Y-52570637D01*
X42286302Y-52336988D01*
X41897756Y-52176047D01*
X41485279Y-52094000D01*
X41064721Y-52094000D01*
X40652244Y-52176047D01*
X40263698Y-52336988D01*
X40209999Y-52372868D01*
X40209999Y-49735132D01*
X40263698Y-49771012D01*
X40263698Y-49771012D01*
G37*
X40263698Y-49771012D02*
X40652244Y-49931953D01*
X41064721Y-50014000D01*
X41485279Y-50014000D01*
X41897756Y-49931953D01*
X42074058Y-49858926D01*
X42213569Y-49998438D01*
X42213580Y-49998447D01*
X42853001Y-50637869D01*
X42853001Y-52787655D01*
X42635983Y-52570637D01*
X42286302Y-52336988D01*
X41897756Y-52176047D01*
X41485279Y-52094000D01*
X41064721Y-52094000D01*
X40652244Y-52176047D01*
X40263698Y-52336988D01*
X40209999Y-52372868D01*
X40209999Y-49735132D01*
X40263698Y-49771012D01*
G36*
X27359001Y-39024131D02*
G01*
X26973580Y-39409553D01*
X26973569Y-39409562D01*
X26834058Y-39549074D01*
X26657756Y-39476047D01*
X26245279Y-39394000D01*
X25824721Y-39394000D01*
X25412244Y-39476047D01*
X25023698Y-39636988D01*
X24803010Y-39784447D01*
X24803010Y-37718857D01*
X25362941Y-37158926D01*
X25539244Y-37231953D01*
X25951721Y-37314000D01*
X26372279Y-37314000D01*
X26784756Y-37231953D01*
X27173302Y-37071012D01*
X27359001Y-36946932D01*
X27359001Y-39024131D01*
X27359001Y-39024131D01*
G37*
X27359001Y-39024131D02*
X26973580Y-39409553D01*
X26973569Y-39409562D01*
X26834058Y-39549074D01*
X26657756Y-39476047D01*
X26245279Y-39394000D01*
X25824721Y-39394000D01*
X25412244Y-39476047D01*
X25023698Y-39636988D01*
X24803010Y-39784447D01*
X24803010Y-37718857D01*
X25362941Y-37158926D01*
X25539244Y-37231953D01*
X25951721Y-37314000D01*
X26372279Y-37314000D01*
X26784756Y-37231953D01*
X27173302Y-37071012D01*
X27359001Y-36946932D01*
X27359001Y-39024131D01*
M02*
