M48
; DRILL file {KiCad (5.1.4)-1} date 12/12/2019 19:58:20
; FORMAT={-:-/ absolute / inch / decimal}
; #@! TF.CreationDate,2019-12-12T19:58:20+09:00
; #@! TF.GenerationSoftware,Kicad,Pcbnew,(5.1.4)-1
; #@! TF.FileFunction,Plated,1,2,PTH
FMAT,2
INCH
T1C0.0157
T2C0.0394
T3C0.0400
T4C0.0591
%
G90
G05
T1
X0.835Y-1.12
X0.835Y-1.485
X0.835Y-1.635
X0.835Y-1.735
X0.975Y-1.995
X1.03Y-1.485
X1.0998Y-1.9952
X1.225Y-1.485
X1.225Y-1.735
X1.425Y-1.485
X1.425Y-1.735
X1.43Y-1.985
X1.625Y-1.485
X1.625Y-1.735
X1.625Y-1.985
X1.825Y-1.485
X1.825Y-1.735
X1.825Y-1.985
X1.9187Y-1.51
X2.025Y-1.12
X2.025Y-1.485
X2.025Y-1.735
T2
X0.82Y-2.425
X0.82Y-2.525
X0.92Y-2.425
X0.92Y-2.525
X1.02Y-2.425
X1.02Y-2.525
X1.12Y-2.425
X1.12Y-2.525
X1.22Y-2.425
X1.22Y-2.525
X1.32Y-2.425
X1.32Y-2.525
X1.42Y-2.425
X1.42Y-2.525
X1.52Y-2.425
X1.52Y-2.525
X1.62Y-2.425
X1.62Y-2.525
X1.72Y-2.425
X1.72Y-2.525
X1.82Y-2.425
X1.82Y-2.525
X1.92Y-2.425
X1.92Y-2.525
X2.02Y-2.425
X2.02Y-2.525
T3
X0.975Y-1.075
X0.975Y-1.175
X1.075Y-1.075
X1.075Y-1.175
X1.175Y-1.075
X1.175Y-1.175
X1.275Y-1.075
X1.275Y-1.175
X1.375Y-1.075
X1.375Y-1.175
X1.475Y-1.075
X1.475Y-1.175
X1.575Y-1.075
X1.575Y-1.175
X1.675Y-1.075
X1.675Y-1.175
X1.775Y-1.075
X1.775Y-1.175
X1.875Y-1.075
X1.875Y-1.175
T4
X1.825Y-1.635
X1.03Y-1.385
X0.835Y-1.385
X1.025Y-1.885
X1.425Y-2.135
X1.825Y-2.135
X1.025Y-1.635
X0.84Y-2.135
X1.825Y-1.885
X1.625Y-1.385
X2.025Y-2.135
X1.425Y-1.635
X1.825Y-1.385
X1.425Y-1.885
X1.625Y-2.135
X1.625Y-1.635
X1.025Y-2.135
X2.025Y-1.635
X1.225Y-1.635
X1.225Y-1.885
X1.225Y-1.385
X1.425Y-1.385
X2.025Y-1.385
X1.625Y-1.885
X1.225Y-2.135
X0.84Y-1.89
X2.025Y-1.885
T0
M30
