G04 #@! TF.GenerationSoftware,KiCad,Pcbnew,(5.1.9)-1*
G04 #@! TF.CreationDate,2021-02-23T10:55:24+09:00*
G04 #@! TF.ProjectId,screens,73637265-656e-4732-9e6b-696361645f70,rev?*
G04 #@! TF.SameCoordinates,Original*
G04 #@! TF.FileFunction,Soldermask,Bot*
G04 #@! TF.FilePolarity,Negative*
%FSLAX46Y46*%
G04 Gerber Fmt 4.6, Leading zero omitted, Abs format (unit mm)*
G04 Created by KiCad (PCBNEW (5.1.9)-1) date 2021-02-23 10:55:24*
%MOMM*%
%LPD*%
G01*
G04 APERTURE LIST*
%ADD10O,1.700000X1.700000*%
%ADD11R,1.700000X1.700000*%
G04 APERTURE END LIST*
D10*
X27686000Y-67818000D03*
X27686000Y-65278000D03*
X30226000Y-67818000D03*
X30226000Y-65278000D03*
X32766000Y-67818000D03*
X32766000Y-65278000D03*
X35306000Y-67818000D03*
X35306000Y-65278000D03*
X37846000Y-67818000D03*
X37846000Y-65278000D03*
X40386000Y-67818000D03*
X40386000Y-65278000D03*
X42926000Y-67818000D03*
X42926000Y-65278000D03*
X45466000Y-67818000D03*
X45466000Y-65278000D03*
X48006000Y-67818000D03*
X48006000Y-65278000D03*
X50546000Y-67818000D03*
X50546000Y-65278000D03*
X53086000Y-67818000D03*
X53086000Y-65278000D03*
X55626000Y-67818000D03*
X55626000Y-65278000D03*
X58166000Y-67818000D03*
D11*
X58166000Y-65278000D03*
X55753000Y-57658000D03*
D10*
X53213000Y-57658000D03*
X50673000Y-57658000D03*
X48133000Y-57658000D03*
X45593000Y-57658000D03*
X43053000Y-57658000D03*
X40513000Y-57658000D03*
X37973000Y-57658000D03*
X35433000Y-57658000D03*
X32893000Y-57658000D03*
X30353000Y-57658000D03*
D11*
X30353000Y-26924000D03*
D10*
X32893000Y-26924000D03*
X35433000Y-26924000D03*
X37973000Y-26924000D03*
X40513000Y-26924000D03*
X43053000Y-26924000D03*
X45593000Y-26924000D03*
X48133000Y-26924000D03*
X50673000Y-26924000D03*
X53213000Y-26924000D03*
X55753000Y-26924000D03*
D11*
X27813000Y-53721000D03*
D10*
X30353000Y-53721000D03*
X32893000Y-53721000D03*
X35433000Y-53721000D03*
X37973000Y-53721000D03*
X40513000Y-53721000D03*
X43053000Y-53721000D03*
X45593000Y-53721000D03*
X48133000Y-53721000D03*
X50673000Y-53721000D03*
X53213000Y-53721000D03*
X55753000Y-53721000D03*
X58293000Y-53721000D03*
D11*
X34163000Y-32893000D03*
D10*
X36703000Y-32893000D03*
X39243000Y-32893000D03*
X41783000Y-32893000D03*
X44323000Y-32893000D03*
X46863000Y-32893000D03*
X49403000Y-32893000D03*
X51943000Y-32893000D03*
M02*
