G04 #@! TF.GenerationSoftware,KiCad,Pcbnew,7.0.9*
G04 #@! TF.CreationDate,2025-01-29T12:58:33-06:00*
G04 #@! TF.ProjectId,powertrain,706f7765-7274-4726-9169-6e2e6b696361,rev?*
G04 #@! TF.SameCoordinates,Original*
G04 #@! TF.FileFunction,Soldermask,Top*
G04 #@! TF.FilePolarity,Negative*
%FSLAX46Y46*%
G04 Gerber Fmt 4.6, Leading zero omitted, Abs format (unit mm)*
G04 Created by KiCad (PCBNEW 7.0.9) date 2025-01-29 12:58:33*
%MOMM*%
%LPD*%
G01*
G04 APERTURE LIST*
G04 Aperture macros list*
%AMRoundRect*
0 Rectangle with rounded corners*
0 $1 Rounding radius*
0 $2 $3 $4 $5 $6 $7 $8 $9 X,Y pos of 4 corners*
0 Add a 4 corners polygon primitive as box body*
4,1,4,$2,$3,$4,$5,$6,$7,$8,$9,$2,$3,0*
0 Add four circle primitives for the rounded corners*
1,1,$1+$1,$2,$3*
1,1,$1+$1,$4,$5*
1,1,$1+$1,$6,$7*
1,1,$1+$1,$8,$9*
0 Add four rect primitives between the rounded corners*
20,1,$1+$1,$2,$3,$4,$5,0*
20,1,$1+$1,$4,$5,$6,$7,0*
20,1,$1+$1,$6,$7,$8,$9,0*
20,1,$1+$1,$8,$9,$2,$3,0*%
%AMRotRect*
0 Rectangle, with rotation*
0 The origin of the aperture is its center*
0 $1 length*
0 $2 width*
0 $3 Rotation angle, in degrees counterclockwise*
0 Add horizontal line*
21,1,$1,$2,0,0,$3*%
G04 Aperture macros list end*
%ADD10R,1.750000X1.750000*%
%ADD11C,1.750000*%
%ADD12C,2.700000*%
%ADD13C,3.000000*%
%ADD14RoundRect,0.200000X0.275000X-0.200000X0.275000X0.200000X-0.275000X0.200000X-0.275000X-0.200000X0*%
%ADD15RoundRect,0.200000X-0.275000X0.200000X-0.275000X-0.200000X0.275000X-0.200000X0.275000X0.200000X0*%
%ADD16RoundRect,0.225000X0.250000X-0.225000X0.250000X0.225000X-0.250000X0.225000X-0.250000X-0.225000X0*%
%ADD17C,3.200000*%
%ADD18R,1.700000X1.700000*%
%ADD19O,1.700000X1.700000*%
%ADD20RoundRect,0.225000X-0.250000X0.225000X-0.250000X-0.225000X0.250000X-0.225000X0.250000X0.225000X0*%
%ADD21RoundRect,0.218750X0.256250X-0.218750X0.256250X0.218750X-0.256250X0.218750X-0.256250X-0.218750X0*%
%ADD22R,1.100000X1.100000*%
%ADD23RotRect,2.000000X1.800000X135.000000*%
%ADD24C,0.750000*%
%ADD25C,1.050000*%
%ADD26RotRect,1.350000X1.000000X135.000000*%
%ADD27C,2.000000*%
G04 APERTURE END LIST*
D10*
X63900000Y-57116000D03*
D11*
X67400000Y-57116000D03*
X63900000Y-28616000D03*
D12*
X69850000Y-52966000D03*
X61450000Y-51766000D03*
X61450000Y-33966000D03*
X69850000Y-32766000D03*
D13*
X43180000Y-56515000D03*
X36830000Y-51435000D03*
X36830000Y-56515000D03*
X36830000Y-46355000D03*
D14*
X37338000Y-40703000D03*
X37338000Y-39053000D03*
D15*
X44958000Y-39053000D03*
X44958000Y-40703000D03*
X34798000Y-39053000D03*
X34798000Y-40703000D03*
D14*
X39878000Y-40703000D03*
X39878000Y-39053000D03*
D15*
X42418000Y-39053000D03*
X42418000Y-40703000D03*
D10*
X52978000Y-57166000D03*
D11*
X56478000Y-57166000D03*
X52978000Y-28666000D03*
D12*
X58928000Y-53016000D03*
X50528000Y-51816000D03*
X50528000Y-34016000D03*
X58928000Y-32816000D03*
D13*
X43180000Y-51435000D03*
D16*
X46736000Y-57163000D03*
X46736000Y-55613000D03*
D17*
X35560000Y-23749000D03*
X68326000Y-23749000D03*
D18*
X69215000Y-63500000D03*
D19*
X69215000Y-60960000D03*
X66675000Y-63500000D03*
X66675000Y-60960000D03*
X64135000Y-63500000D03*
X64135000Y-60960000D03*
X61595000Y-63500000D03*
X61595000Y-60960000D03*
X59055000Y-63500000D03*
X59055000Y-60960000D03*
X56515000Y-63500000D03*
X56515000Y-60960000D03*
X53975000Y-63500000D03*
X53975000Y-60960000D03*
X51435000Y-63500000D03*
X51435000Y-60960000D03*
X48895000Y-63500000D03*
X48895000Y-60960000D03*
X46355000Y-63500000D03*
X46355000Y-60960000D03*
X43815000Y-63500000D03*
X43815000Y-60960000D03*
X41275000Y-63500000D03*
X41275000Y-60960000D03*
X38735000Y-63500000D03*
X38735000Y-60960000D03*
D20*
X48768000Y-55613000D03*
X48768000Y-57163000D03*
D21*
X47498000Y-40665500D03*
X47498000Y-39090500D03*
D22*
X44704000Y-45336000D03*
X44704000Y-48136000D03*
X40894000Y-45336000D03*
X40894000Y-48136000D03*
X48514000Y-45336000D03*
X48514000Y-48136000D03*
D23*
X38502862Y-34903138D03*
D24*
X40023142Y-33382858D03*
D25*
X42710148Y-30695852D03*
D23*
X44230427Y-29175573D03*
D26*
X43028346Y-35680955D03*
X44035973Y-34673328D03*
X45043600Y-33665701D03*
X37972532Y-30625142D03*
X38980159Y-29617515D03*
X39987786Y-28609887D03*
D27*
X34798000Y-63246000D03*
X34544000Y-26924000D03*
X69342000Y-26924000D03*
M02*
