%TF.GenerationSoftware,KiCad,Pcbnew,7.0.9*%
%TF.CreationDate,2025-01-29T12:58:42-06:00*%
%TF.ProjectId,powertrain,706f7765-7274-4726-9169-6e2e6b696361,rev?*%
%TF.SameCoordinates,Original*%
%TF.FileFunction,Drillmap*%
%TF.FilePolarity,Positive*%
%FSLAX45Y45*%
G04 Gerber Fmt 4.5, Leading zero omitted, Abs format (unit mm)*
G04 Created by KiCad (PCBNEW 7.0.9) date 2025-01-29 12:58:42*
%MOMM*%
%LPD*%
G01*
G04 APERTURE LIST*
%ADD10C,0.050000*%
%ADD11C,0.200000*%
%ADD12C,0.100000*%
%ADD13C,0.120000*%
%ADD14C,0.150000*%
%ADD15C,0.170000*%
G04 APERTURE END LIST*
D10*
X3462000Y-2062500D02*
X6921500Y-2062500D01*
X7145000Y-2286000D02*
X7145000Y-6532000D01*
X3238500Y-2286000D02*
X3238500Y-6223000D01*
X3462000Y-2062500D02*
G75*
G03*
X3238500Y-2286000I0J-223500D01*
G01*
X3238500Y-6278000D02*
G75*
G03*
X3492500Y-6532000I254000J0D01*
G01*
X3492500Y-6532000D02*
X7145000Y-6532000D01*
X7145000Y-2286000D02*
G75*
G03*
X6921500Y-2062500I-223500J0D01*
G01*
X3238500Y-6223000D02*
X3238500Y-6278000D01*
D11*
D12*
X3459800Y-6076000D02*
X3499800Y-6116000D01*
X3499800Y-6076000D02*
X3459800Y-6116000D01*
X3510600Y-4323400D02*
X3550600Y-4363400D01*
X3550600Y-4323400D02*
X3510600Y-4363400D01*
X4044000Y-2266000D02*
X4084000Y-2306000D01*
X4084000Y-2266000D02*
X4044000Y-2306000D01*
X4882200Y-3155000D02*
X4922200Y-3195000D01*
X4922200Y-3155000D02*
X4882200Y-3195000D01*
X5085400Y-4526600D02*
X5125400Y-4566600D01*
X5125400Y-4526600D02*
X5085400Y-4566600D01*
X5085400Y-5695000D02*
X5125400Y-5735000D01*
X5125400Y-5695000D02*
X5085400Y-5735000D01*
X5999800Y-5491800D02*
X6039800Y-5531800D01*
X6039800Y-5491800D02*
X5999800Y-5531800D01*
X6330000Y-2266000D02*
X6370000Y-2306000D01*
X6370000Y-2266000D02*
X6330000Y-2306000D01*
X3923500Y-6096000D02*
G75*
G03*
X3923500Y-6096000I-50000J0D01*
G01*
X3923500Y-6350000D02*
G75*
G03*
X3923500Y-6350000I-50000J0D01*
G01*
X4177500Y-6096000D02*
G75*
G03*
X4177500Y-6096000I-50000J0D01*
G01*
X4177500Y-6350000D02*
G75*
G03*
X4177500Y-6350000I-50000J0D01*
G01*
X4431500Y-6096000D02*
G75*
G03*
X4431500Y-6096000I-50000J0D01*
G01*
X4431500Y-6350000D02*
G75*
G03*
X4431500Y-6350000I-50000J0D01*
G01*
X4685500Y-6096000D02*
G75*
G03*
X4685500Y-6096000I-50000J0D01*
G01*
X4685500Y-6350000D02*
G75*
G03*
X4685500Y-6350000I-50000J0D01*
G01*
X4939500Y-6096000D02*
G75*
G03*
X4939500Y-6096000I-50000J0D01*
G01*
X4939500Y-6350000D02*
G75*
G03*
X4939500Y-6350000I-50000J0D01*
G01*
X5193500Y-6096000D02*
G75*
G03*
X5193500Y-6096000I-50000J0D01*
G01*
X5193500Y-6350000D02*
G75*
G03*
X5193500Y-6350000I-50000J0D01*
G01*
X5447500Y-6096000D02*
G75*
G03*
X5447500Y-6096000I-50000J0D01*
G01*
X5447500Y-6350000D02*
G75*
G03*
X5447500Y-6350000I-50000J0D01*
G01*
X5701500Y-6096000D02*
G75*
G03*
X5701500Y-6096000I-50000J0D01*
G01*
X5701500Y-6350000D02*
G75*
G03*
X5701500Y-6350000I-50000J0D01*
G01*
X5955500Y-6096000D02*
G75*
G03*
X5955500Y-6096000I-50000J0D01*
G01*
X5955500Y-6350000D02*
G75*
G03*
X5955500Y-6350000I-50000J0D01*
G01*
X6209500Y-6096000D02*
G75*
G03*
X6209500Y-6096000I-50000J0D01*
G01*
X6209500Y-6350000D02*
G75*
G03*
X6209500Y-6350000I-50000J0D01*
G01*
X6463500Y-6096000D02*
G75*
G03*
X6463500Y-6096000I-50000J0D01*
G01*
X6463500Y-6350000D02*
G75*
G03*
X6463500Y-6350000I-50000J0D01*
G01*
X6717500Y-6096000D02*
G75*
G03*
X6717500Y-6096000I-50000J0D01*
G01*
X6717500Y-6350000D02*
G75*
G03*
X6717500Y-6350000I-50000J0D01*
G01*
X6971500Y-6096000D02*
G75*
G03*
X6971500Y-6096000I-50000J0D01*
G01*
X6971500Y-6350000D02*
G75*
G03*
X6971500Y-6350000I-50000J0D01*
G01*
D13*
X5297800Y-2806600D02*
X5297800Y-2926600D01*
X5237800Y-2866600D02*
X5357800Y-2866600D01*
X5297800Y-5656600D02*
X5297800Y-5776600D01*
X5237800Y-5716600D02*
X5357800Y-5716600D01*
X5647800Y-5656600D02*
X5647800Y-5776600D01*
X5587800Y-5716600D02*
X5707800Y-5716600D01*
X6390000Y-2801600D02*
X6390000Y-2921600D01*
X6330000Y-2861600D02*
X6450000Y-2861600D01*
X6390000Y-5651600D02*
X6390000Y-5771600D01*
X6330000Y-5711600D02*
X6450000Y-5711600D01*
X6740000Y-5651600D02*
X6740000Y-5771600D01*
X6680000Y-5711600D02*
X6800000Y-5711600D01*
D14*
X3736033Y-4688534D02*
X3736033Y-4582467D01*
X3629966Y-4582467D01*
X3629966Y-4688534D01*
X3736033Y-4688534D01*
X3736033Y-5196534D02*
X3736033Y-5090467D01*
X3629966Y-5090467D01*
X3629966Y-5196534D01*
X3736033Y-5196534D01*
X3736033Y-5704533D02*
X3736033Y-5598466D01*
X3629966Y-5598466D01*
X3629966Y-5704533D01*
X3736033Y-5704533D01*
X4371034Y-5196534D02*
X4371034Y-5090467D01*
X4264967Y-5090467D01*
X4264967Y-5196534D01*
X4371034Y-5196534D01*
X4371034Y-5704533D02*
X4371034Y-5598466D01*
X4264967Y-5598466D01*
X4264967Y-5704533D01*
X4371034Y-5704533D01*
D15*
X5052800Y-3486600D02*
X5137800Y-3401600D01*
X5052800Y-3316600D01*
X4967800Y-3401600D01*
X5052800Y-3486600D01*
X5052800Y-5266600D02*
X5137800Y-5181600D01*
X5052800Y-5096600D01*
X4967800Y-5181600D01*
X5052800Y-5266600D01*
X5892800Y-3366600D02*
X5977800Y-3281600D01*
X5892800Y-3196600D01*
X5807800Y-3281600D01*
X5892800Y-3366600D01*
X5892800Y-5386600D02*
X5977800Y-5301600D01*
X5892800Y-5216600D01*
X5807800Y-5301600D01*
X5892800Y-5386600D01*
X6145000Y-3481600D02*
X6230000Y-3396600D01*
X6145000Y-3311600D01*
X6060000Y-3396600D01*
X6145000Y-3481600D01*
X6145000Y-5261600D02*
X6230000Y-5176600D01*
X6145000Y-5091600D01*
X6060000Y-5176600D01*
X6145000Y-5261600D01*
X6985000Y-3361600D02*
X7070000Y-3276600D01*
X6985000Y-3191600D01*
X6900000Y-3276600D01*
X6985000Y-3361600D01*
X6985000Y-5381600D02*
X7070000Y-5296600D01*
X6985000Y-5211600D01*
X6900000Y-5296600D01*
X6985000Y-5381600D01*
D11*
X3496777Y-6845984D02*
X3496777Y-6645984D01*
X3496777Y-6645984D02*
X3544396Y-6645984D01*
X3544396Y-6645984D02*
X3572967Y-6655508D01*
X3572967Y-6655508D02*
X3592015Y-6674555D01*
X3592015Y-6674555D02*
X3601539Y-6693603D01*
X3601539Y-6693603D02*
X3611062Y-6731698D01*
X3611062Y-6731698D02*
X3611062Y-6760269D01*
X3611062Y-6760269D02*
X3601539Y-6798365D01*
X3601539Y-6798365D02*
X3592015Y-6817412D01*
X3592015Y-6817412D02*
X3572967Y-6836460D01*
X3572967Y-6836460D02*
X3544396Y-6845984D01*
X3544396Y-6845984D02*
X3496777Y-6845984D01*
X3696777Y-6845984D02*
X3696777Y-6712650D01*
X3696777Y-6750746D02*
X3706301Y-6731698D01*
X3706301Y-6731698D02*
X3715824Y-6722174D01*
X3715824Y-6722174D02*
X3734872Y-6712650D01*
X3734872Y-6712650D02*
X3753920Y-6712650D01*
X3820586Y-6845984D02*
X3820586Y-6712650D01*
X3820586Y-6645984D02*
X3811062Y-6655508D01*
X3811062Y-6655508D02*
X3820586Y-6665031D01*
X3820586Y-6665031D02*
X3830110Y-6655508D01*
X3830110Y-6655508D02*
X3820586Y-6645984D01*
X3820586Y-6645984D02*
X3820586Y-6665031D01*
X3944396Y-6845984D02*
X3925348Y-6836460D01*
X3925348Y-6836460D02*
X3915824Y-6817412D01*
X3915824Y-6817412D02*
X3915824Y-6645984D01*
X4049158Y-6845984D02*
X4030110Y-6836460D01*
X4030110Y-6836460D02*
X4020586Y-6817412D01*
X4020586Y-6817412D02*
X4020586Y-6645984D01*
X4277729Y-6845984D02*
X4277729Y-6645984D01*
X4277729Y-6645984D02*
X4344396Y-6788841D01*
X4344396Y-6788841D02*
X4411063Y-6645984D01*
X4411063Y-6645984D02*
X4411063Y-6845984D01*
X4592015Y-6845984D02*
X4592015Y-6741222D01*
X4592015Y-6741222D02*
X4582491Y-6722174D01*
X4582491Y-6722174D02*
X4563444Y-6712650D01*
X4563444Y-6712650D02*
X4525348Y-6712650D01*
X4525348Y-6712650D02*
X4506301Y-6722174D01*
X4592015Y-6836460D02*
X4572967Y-6845984D01*
X4572967Y-6845984D02*
X4525348Y-6845984D01*
X4525348Y-6845984D02*
X4506301Y-6836460D01*
X4506301Y-6836460D02*
X4496777Y-6817412D01*
X4496777Y-6817412D02*
X4496777Y-6798365D01*
X4496777Y-6798365D02*
X4506301Y-6779317D01*
X4506301Y-6779317D02*
X4525348Y-6769793D01*
X4525348Y-6769793D02*
X4572967Y-6769793D01*
X4572967Y-6769793D02*
X4592015Y-6760269D01*
X4687253Y-6712650D02*
X4687253Y-6912650D01*
X4687253Y-6722174D02*
X4706301Y-6712650D01*
X4706301Y-6712650D02*
X4744396Y-6712650D01*
X4744396Y-6712650D02*
X4763444Y-6722174D01*
X4763444Y-6722174D02*
X4772967Y-6731698D01*
X4772967Y-6731698D02*
X4782491Y-6750746D01*
X4782491Y-6750746D02*
X4782491Y-6807888D01*
X4782491Y-6807888D02*
X4772967Y-6826936D01*
X4772967Y-6826936D02*
X4763444Y-6836460D01*
X4763444Y-6836460D02*
X4744396Y-6845984D01*
X4744396Y-6845984D02*
X4706301Y-6845984D01*
X4706301Y-6845984D02*
X4687253Y-6836460D01*
X4868205Y-6826936D02*
X4877729Y-6836460D01*
X4877729Y-6836460D02*
X4868205Y-6845984D01*
X4868205Y-6845984D02*
X4858682Y-6836460D01*
X4858682Y-6836460D02*
X4868205Y-6826936D01*
X4868205Y-6826936D02*
X4868205Y-6845984D01*
X4868205Y-6722174D02*
X4877729Y-6731698D01*
X4877729Y-6731698D02*
X4868205Y-6741222D01*
X4868205Y-6741222D02*
X4858682Y-6731698D01*
X4858682Y-6731698D02*
X4868205Y-6722174D01*
X4868205Y-6722174D02*
X4868205Y-6741222D01*
D12*
X3196000Y-7154500D02*
X3236000Y-7194500D01*
X3236000Y-7154500D02*
X3196000Y-7194500D01*
D11*
X3534872Y-7065984D02*
X3553920Y-7065984D01*
X3553920Y-7065984D02*
X3572967Y-7075508D01*
X3572967Y-7075508D02*
X3582491Y-7085031D01*
X3582491Y-7085031D02*
X3592015Y-7104079D01*
X3592015Y-7104079D02*
X3601539Y-7142174D01*
X3601539Y-7142174D02*
X3601539Y-7189793D01*
X3601539Y-7189793D02*
X3592015Y-7227888D01*
X3592015Y-7227888D02*
X3582491Y-7246936D01*
X3582491Y-7246936D02*
X3572967Y-7256460D01*
X3572967Y-7256460D02*
X3553920Y-7265984D01*
X3553920Y-7265984D02*
X3534872Y-7265984D01*
X3534872Y-7265984D02*
X3515824Y-7256460D01*
X3515824Y-7256460D02*
X3506301Y-7246936D01*
X3506301Y-7246936D02*
X3496777Y-7227888D01*
X3496777Y-7227888D02*
X3487253Y-7189793D01*
X3487253Y-7189793D02*
X3487253Y-7142174D01*
X3487253Y-7142174D02*
X3496777Y-7104079D01*
X3496777Y-7104079D02*
X3506301Y-7085031D01*
X3506301Y-7085031D02*
X3515824Y-7075508D01*
X3515824Y-7075508D02*
X3534872Y-7065984D01*
X3687253Y-7246936D02*
X3696777Y-7256460D01*
X3696777Y-7256460D02*
X3687253Y-7265984D01*
X3687253Y-7265984D02*
X3677729Y-7256460D01*
X3677729Y-7256460D02*
X3687253Y-7246936D01*
X3687253Y-7246936D02*
X3687253Y-7265984D01*
X3868205Y-7132650D02*
X3868205Y-7265984D01*
X3820586Y-7056460D02*
X3772967Y-7199317D01*
X3772967Y-7199317D02*
X3896777Y-7199317D01*
X4011062Y-7065984D02*
X4030110Y-7065984D01*
X4030110Y-7065984D02*
X4049158Y-7075508D01*
X4049158Y-7075508D02*
X4058682Y-7085031D01*
X4058682Y-7085031D02*
X4068205Y-7104079D01*
X4068205Y-7104079D02*
X4077729Y-7142174D01*
X4077729Y-7142174D02*
X4077729Y-7189793D01*
X4077729Y-7189793D02*
X4068205Y-7227888D01*
X4068205Y-7227888D02*
X4058682Y-7246936D01*
X4058682Y-7246936D02*
X4049158Y-7256460D01*
X4049158Y-7256460D02*
X4030110Y-7265984D01*
X4030110Y-7265984D02*
X4011062Y-7265984D01*
X4011062Y-7265984D02*
X3992015Y-7256460D01*
X3992015Y-7256460D02*
X3982491Y-7246936D01*
X3982491Y-7246936D02*
X3972967Y-7227888D01*
X3972967Y-7227888D02*
X3963443Y-7189793D01*
X3963443Y-7189793D02*
X3963443Y-7142174D01*
X3963443Y-7142174D02*
X3972967Y-7104079D01*
X3972967Y-7104079D02*
X3982491Y-7085031D01*
X3982491Y-7085031D02*
X3992015Y-7075508D01*
X3992015Y-7075508D02*
X4011062Y-7065984D01*
X4201539Y-7065984D02*
X4220586Y-7065984D01*
X4220586Y-7065984D02*
X4239634Y-7075508D01*
X4239634Y-7075508D02*
X4249158Y-7085031D01*
X4249158Y-7085031D02*
X4258682Y-7104079D01*
X4258682Y-7104079D02*
X4268205Y-7142174D01*
X4268205Y-7142174D02*
X4268205Y-7189793D01*
X4268205Y-7189793D02*
X4258682Y-7227888D01*
X4258682Y-7227888D02*
X4249158Y-7246936D01*
X4249158Y-7246936D02*
X4239634Y-7256460D01*
X4239634Y-7256460D02*
X4220586Y-7265984D01*
X4220586Y-7265984D02*
X4201539Y-7265984D01*
X4201539Y-7265984D02*
X4182491Y-7256460D01*
X4182491Y-7256460D02*
X4172967Y-7246936D01*
X4172967Y-7246936D02*
X4163443Y-7227888D01*
X4163443Y-7227888D02*
X4153920Y-7189793D01*
X4153920Y-7189793D02*
X4153920Y-7142174D01*
X4153920Y-7142174D02*
X4163443Y-7104079D01*
X4163443Y-7104079D02*
X4172967Y-7085031D01*
X4172967Y-7085031D02*
X4182491Y-7075508D01*
X4182491Y-7075508D02*
X4201539Y-7065984D01*
X4353920Y-7265984D02*
X4353920Y-7132650D01*
X4353920Y-7151698D02*
X4363444Y-7142174D01*
X4363444Y-7142174D02*
X4382491Y-7132650D01*
X4382491Y-7132650D02*
X4411063Y-7132650D01*
X4411063Y-7132650D02*
X4430110Y-7142174D01*
X4430110Y-7142174D02*
X4439634Y-7161222D01*
X4439634Y-7161222D02*
X4439634Y-7265984D01*
X4439634Y-7161222D02*
X4449158Y-7142174D01*
X4449158Y-7142174D02*
X4468205Y-7132650D01*
X4468205Y-7132650D02*
X4496777Y-7132650D01*
X4496777Y-7132650D02*
X4515825Y-7142174D01*
X4515825Y-7142174D02*
X4525348Y-7161222D01*
X4525348Y-7161222D02*
X4525348Y-7265984D01*
X4620586Y-7265984D02*
X4620586Y-7132650D01*
X4620586Y-7151698D02*
X4630110Y-7142174D01*
X4630110Y-7142174D02*
X4649158Y-7132650D01*
X4649158Y-7132650D02*
X4677729Y-7132650D01*
X4677729Y-7132650D02*
X4696777Y-7142174D01*
X4696777Y-7142174D02*
X4706301Y-7161222D01*
X4706301Y-7161222D02*
X4706301Y-7265984D01*
X4706301Y-7161222D02*
X4715825Y-7142174D01*
X4715825Y-7142174D02*
X4734872Y-7132650D01*
X4734872Y-7132650D02*
X4763444Y-7132650D01*
X4763444Y-7132650D02*
X4782491Y-7142174D01*
X4782491Y-7142174D02*
X4792015Y-7161222D01*
X4792015Y-7161222D02*
X4792015Y-7265984D01*
X5182491Y-7056460D02*
X5011063Y-7313603D01*
X5439634Y-7065984D02*
X5458682Y-7065984D01*
X5458682Y-7065984D02*
X5477729Y-7075508D01*
X5477729Y-7075508D02*
X5487253Y-7085031D01*
X5487253Y-7085031D02*
X5496777Y-7104079D01*
X5496777Y-7104079D02*
X5506301Y-7142174D01*
X5506301Y-7142174D02*
X5506301Y-7189793D01*
X5506301Y-7189793D02*
X5496777Y-7227888D01*
X5496777Y-7227888D02*
X5487253Y-7246936D01*
X5487253Y-7246936D02*
X5477729Y-7256460D01*
X5477729Y-7256460D02*
X5458682Y-7265984D01*
X5458682Y-7265984D02*
X5439634Y-7265984D01*
X5439634Y-7265984D02*
X5420587Y-7256460D01*
X5420587Y-7256460D02*
X5411063Y-7246936D01*
X5411063Y-7246936D02*
X5401539Y-7227888D01*
X5401539Y-7227888D02*
X5392015Y-7189793D01*
X5392015Y-7189793D02*
X5392015Y-7142174D01*
X5392015Y-7142174D02*
X5401539Y-7104079D01*
X5401539Y-7104079D02*
X5411063Y-7085031D01*
X5411063Y-7085031D02*
X5420587Y-7075508D01*
X5420587Y-7075508D02*
X5439634Y-7065984D01*
X5592015Y-7246936D02*
X5601539Y-7256460D01*
X5601539Y-7256460D02*
X5592015Y-7265984D01*
X5592015Y-7265984D02*
X5582491Y-7256460D01*
X5582491Y-7256460D02*
X5592015Y-7246936D01*
X5592015Y-7246936D02*
X5592015Y-7265984D01*
X5725348Y-7065984D02*
X5744396Y-7065984D01*
X5744396Y-7065984D02*
X5763444Y-7075508D01*
X5763444Y-7075508D02*
X5772967Y-7085031D01*
X5772967Y-7085031D02*
X5782491Y-7104079D01*
X5782491Y-7104079D02*
X5792015Y-7142174D01*
X5792015Y-7142174D02*
X5792015Y-7189793D01*
X5792015Y-7189793D02*
X5782491Y-7227888D01*
X5782491Y-7227888D02*
X5772967Y-7246936D01*
X5772967Y-7246936D02*
X5763444Y-7256460D01*
X5763444Y-7256460D02*
X5744396Y-7265984D01*
X5744396Y-7265984D02*
X5725348Y-7265984D01*
X5725348Y-7265984D02*
X5706301Y-7256460D01*
X5706301Y-7256460D02*
X5696777Y-7246936D01*
X5696777Y-7246936D02*
X5687253Y-7227888D01*
X5687253Y-7227888D02*
X5677729Y-7189793D01*
X5677729Y-7189793D02*
X5677729Y-7142174D01*
X5677729Y-7142174D02*
X5687253Y-7104079D01*
X5687253Y-7104079D02*
X5696777Y-7085031D01*
X5696777Y-7085031D02*
X5706301Y-7075508D01*
X5706301Y-7075508D02*
X5725348Y-7065984D01*
X5982491Y-7265984D02*
X5868206Y-7265984D01*
X5925348Y-7265984D02*
X5925348Y-7065984D01*
X5925348Y-7065984D02*
X5906301Y-7094555D01*
X5906301Y-7094555D02*
X5887253Y-7113603D01*
X5887253Y-7113603D02*
X5868206Y-7123127D01*
X6163444Y-7065984D02*
X6068206Y-7065984D01*
X6068206Y-7065984D02*
X6058682Y-7161222D01*
X6058682Y-7161222D02*
X6068206Y-7151698D01*
X6068206Y-7151698D02*
X6087253Y-7142174D01*
X6087253Y-7142174D02*
X6134872Y-7142174D01*
X6134872Y-7142174D02*
X6153920Y-7151698D01*
X6153920Y-7151698D02*
X6163444Y-7161222D01*
X6163444Y-7161222D02*
X6172967Y-7180269D01*
X6172967Y-7180269D02*
X6172967Y-7227888D01*
X6172967Y-7227888D02*
X6163444Y-7246936D01*
X6163444Y-7246936D02*
X6153920Y-7256460D01*
X6153920Y-7256460D02*
X6134872Y-7265984D01*
X6134872Y-7265984D02*
X6087253Y-7265984D01*
X6087253Y-7265984D02*
X6068206Y-7256460D01*
X6068206Y-7256460D02*
X6058682Y-7246936D01*
X6239634Y-7065984D02*
X6372967Y-7065984D01*
X6372967Y-7065984D02*
X6287253Y-7265984D01*
X6439634Y-7065984D02*
X6439634Y-7104079D01*
X6515825Y-7065984D02*
X6515825Y-7104079D01*
X6811063Y-7342174D02*
X6801539Y-7332650D01*
X6801539Y-7332650D02*
X6782491Y-7304079D01*
X6782491Y-7304079D02*
X6772968Y-7285031D01*
X6772968Y-7285031D02*
X6763444Y-7256460D01*
X6763444Y-7256460D02*
X6753920Y-7208841D01*
X6753920Y-7208841D02*
X6753920Y-7170746D01*
X6753920Y-7170746D02*
X6763444Y-7123127D01*
X6763444Y-7123127D02*
X6772968Y-7094555D01*
X6772968Y-7094555D02*
X6782491Y-7075508D01*
X6782491Y-7075508D02*
X6801539Y-7046936D01*
X6801539Y-7046936D02*
X6811063Y-7037412D01*
X6915825Y-7151698D02*
X6896777Y-7142174D01*
X6896777Y-7142174D02*
X6887253Y-7132650D01*
X6887253Y-7132650D02*
X6877729Y-7113603D01*
X6877729Y-7113603D02*
X6877729Y-7104079D01*
X6877729Y-7104079D02*
X6887253Y-7085031D01*
X6887253Y-7085031D02*
X6896777Y-7075508D01*
X6896777Y-7075508D02*
X6915825Y-7065984D01*
X6915825Y-7065984D02*
X6953920Y-7065984D01*
X6953920Y-7065984D02*
X6972968Y-7075508D01*
X6972968Y-7075508D02*
X6982491Y-7085031D01*
X6982491Y-7085031D02*
X6992015Y-7104079D01*
X6992015Y-7104079D02*
X6992015Y-7113603D01*
X6992015Y-7113603D02*
X6982491Y-7132650D01*
X6982491Y-7132650D02*
X6972968Y-7142174D01*
X6972968Y-7142174D02*
X6953920Y-7151698D01*
X6953920Y-7151698D02*
X6915825Y-7151698D01*
X6915825Y-7151698D02*
X6896777Y-7161222D01*
X6896777Y-7161222D02*
X6887253Y-7170746D01*
X6887253Y-7170746D02*
X6877729Y-7189793D01*
X6877729Y-7189793D02*
X6877729Y-7227888D01*
X6877729Y-7227888D02*
X6887253Y-7246936D01*
X6887253Y-7246936D02*
X6896777Y-7256460D01*
X6896777Y-7256460D02*
X6915825Y-7265984D01*
X6915825Y-7265984D02*
X6953920Y-7265984D01*
X6953920Y-7265984D02*
X6972968Y-7256460D01*
X6972968Y-7256460D02*
X6982491Y-7246936D01*
X6982491Y-7246936D02*
X6992015Y-7227888D01*
X6992015Y-7227888D02*
X6992015Y-7189793D01*
X6992015Y-7189793D02*
X6982491Y-7170746D01*
X6982491Y-7170746D02*
X6972968Y-7161222D01*
X6972968Y-7161222D02*
X6953920Y-7151698D01*
X7230110Y-7265984D02*
X7230110Y-7065984D01*
X7315825Y-7265984D02*
X7315825Y-7161222D01*
X7315825Y-7161222D02*
X7306301Y-7142174D01*
X7306301Y-7142174D02*
X7287253Y-7132650D01*
X7287253Y-7132650D02*
X7258682Y-7132650D01*
X7258682Y-7132650D02*
X7239634Y-7142174D01*
X7239634Y-7142174D02*
X7230110Y-7151698D01*
X7439634Y-7265984D02*
X7420587Y-7256460D01*
X7420587Y-7256460D02*
X7411063Y-7246936D01*
X7411063Y-7246936D02*
X7401539Y-7227888D01*
X7401539Y-7227888D02*
X7401539Y-7170746D01*
X7401539Y-7170746D02*
X7411063Y-7151698D01*
X7411063Y-7151698D02*
X7420587Y-7142174D01*
X7420587Y-7142174D02*
X7439634Y-7132650D01*
X7439634Y-7132650D02*
X7468206Y-7132650D01*
X7468206Y-7132650D02*
X7487253Y-7142174D01*
X7487253Y-7142174D02*
X7496777Y-7151698D01*
X7496777Y-7151698D02*
X7506301Y-7170746D01*
X7506301Y-7170746D02*
X7506301Y-7227888D01*
X7506301Y-7227888D02*
X7496777Y-7246936D01*
X7496777Y-7246936D02*
X7487253Y-7256460D01*
X7487253Y-7256460D02*
X7468206Y-7265984D01*
X7468206Y-7265984D02*
X7439634Y-7265984D01*
X7620587Y-7265984D02*
X7601539Y-7256460D01*
X7601539Y-7256460D02*
X7592015Y-7237412D01*
X7592015Y-7237412D02*
X7592015Y-7065984D01*
X7772968Y-7256460D02*
X7753920Y-7265984D01*
X7753920Y-7265984D02*
X7715825Y-7265984D01*
X7715825Y-7265984D02*
X7696777Y-7256460D01*
X7696777Y-7256460D02*
X7687253Y-7237412D01*
X7687253Y-7237412D02*
X7687253Y-7161222D01*
X7687253Y-7161222D02*
X7696777Y-7142174D01*
X7696777Y-7142174D02*
X7715825Y-7132650D01*
X7715825Y-7132650D02*
X7753920Y-7132650D01*
X7753920Y-7132650D02*
X7772968Y-7142174D01*
X7772968Y-7142174D02*
X7782491Y-7161222D01*
X7782491Y-7161222D02*
X7782491Y-7180269D01*
X7782491Y-7180269D02*
X7687253Y-7199317D01*
X7858682Y-7256460D02*
X7877730Y-7265984D01*
X7877730Y-7265984D02*
X7915825Y-7265984D01*
X7915825Y-7265984D02*
X7934872Y-7256460D01*
X7934872Y-7256460D02*
X7944396Y-7237412D01*
X7944396Y-7237412D02*
X7944396Y-7227888D01*
X7944396Y-7227888D02*
X7934872Y-7208841D01*
X7934872Y-7208841D02*
X7915825Y-7199317D01*
X7915825Y-7199317D02*
X7887253Y-7199317D01*
X7887253Y-7199317D02*
X7868206Y-7189793D01*
X7868206Y-7189793D02*
X7858682Y-7170746D01*
X7858682Y-7170746D02*
X7858682Y-7161222D01*
X7858682Y-7161222D02*
X7868206Y-7142174D01*
X7868206Y-7142174D02*
X7887253Y-7132650D01*
X7887253Y-7132650D02*
X7915825Y-7132650D01*
X7915825Y-7132650D02*
X7934872Y-7142174D01*
X8011063Y-7342174D02*
X8020587Y-7332650D01*
X8020587Y-7332650D02*
X8039634Y-7304079D01*
X8039634Y-7304079D02*
X8049158Y-7285031D01*
X8049158Y-7285031D02*
X8058682Y-7256460D01*
X8058682Y-7256460D02*
X8068206Y-7208841D01*
X8068206Y-7208841D02*
X8068206Y-7170746D01*
X8068206Y-7170746D02*
X8058682Y-7123127D01*
X8058682Y-7123127D02*
X8049158Y-7094555D01*
X8049158Y-7094555D02*
X8039634Y-7075508D01*
X8039634Y-7075508D02*
X8020587Y-7046936D01*
X8020587Y-7046936D02*
X8011063Y-7037412D01*
D12*
X3236000Y-7438500D02*
G75*
G03*
X3236000Y-7438500I-50000J0D01*
G01*
D11*
X3601539Y-7529984D02*
X3487253Y-7529984D01*
X3544396Y-7529984D02*
X3544396Y-7329984D01*
X3544396Y-7329984D02*
X3525348Y-7358555D01*
X3525348Y-7358555D02*
X3506301Y-7377603D01*
X3506301Y-7377603D02*
X3487253Y-7387127D01*
X3687253Y-7510936D02*
X3696777Y-7520460D01*
X3696777Y-7520460D02*
X3687253Y-7529984D01*
X3687253Y-7529984D02*
X3677729Y-7520460D01*
X3677729Y-7520460D02*
X3687253Y-7510936D01*
X3687253Y-7510936D02*
X3687253Y-7529984D01*
X3820586Y-7329984D02*
X3839634Y-7329984D01*
X3839634Y-7329984D02*
X3858682Y-7339508D01*
X3858682Y-7339508D02*
X3868205Y-7349031D01*
X3868205Y-7349031D02*
X3877729Y-7368079D01*
X3877729Y-7368079D02*
X3887253Y-7406174D01*
X3887253Y-7406174D02*
X3887253Y-7453793D01*
X3887253Y-7453793D02*
X3877729Y-7491888D01*
X3877729Y-7491888D02*
X3868205Y-7510936D01*
X3868205Y-7510936D02*
X3858682Y-7520460D01*
X3858682Y-7520460D02*
X3839634Y-7529984D01*
X3839634Y-7529984D02*
X3820586Y-7529984D01*
X3820586Y-7529984D02*
X3801539Y-7520460D01*
X3801539Y-7520460D02*
X3792015Y-7510936D01*
X3792015Y-7510936D02*
X3782491Y-7491888D01*
X3782491Y-7491888D02*
X3772967Y-7453793D01*
X3772967Y-7453793D02*
X3772967Y-7406174D01*
X3772967Y-7406174D02*
X3782491Y-7368079D01*
X3782491Y-7368079D02*
X3792015Y-7349031D01*
X3792015Y-7349031D02*
X3801539Y-7339508D01*
X3801539Y-7339508D02*
X3820586Y-7329984D01*
X4011062Y-7329984D02*
X4030110Y-7329984D01*
X4030110Y-7329984D02*
X4049158Y-7339508D01*
X4049158Y-7339508D02*
X4058682Y-7349031D01*
X4058682Y-7349031D02*
X4068205Y-7368079D01*
X4068205Y-7368079D02*
X4077729Y-7406174D01*
X4077729Y-7406174D02*
X4077729Y-7453793D01*
X4077729Y-7453793D02*
X4068205Y-7491888D01*
X4068205Y-7491888D02*
X4058682Y-7510936D01*
X4058682Y-7510936D02*
X4049158Y-7520460D01*
X4049158Y-7520460D02*
X4030110Y-7529984D01*
X4030110Y-7529984D02*
X4011062Y-7529984D01*
X4011062Y-7529984D02*
X3992015Y-7520460D01*
X3992015Y-7520460D02*
X3982491Y-7510936D01*
X3982491Y-7510936D02*
X3972967Y-7491888D01*
X3972967Y-7491888D02*
X3963443Y-7453793D01*
X3963443Y-7453793D02*
X3963443Y-7406174D01*
X3963443Y-7406174D02*
X3972967Y-7368079D01*
X3972967Y-7368079D02*
X3982491Y-7349031D01*
X3982491Y-7349031D02*
X3992015Y-7339508D01*
X3992015Y-7339508D02*
X4011062Y-7329984D01*
X4201539Y-7329984D02*
X4220586Y-7329984D01*
X4220586Y-7329984D02*
X4239634Y-7339508D01*
X4239634Y-7339508D02*
X4249158Y-7349031D01*
X4249158Y-7349031D02*
X4258682Y-7368079D01*
X4258682Y-7368079D02*
X4268205Y-7406174D01*
X4268205Y-7406174D02*
X4268205Y-7453793D01*
X4268205Y-7453793D02*
X4258682Y-7491888D01*
X4258682Y-7491888D02*
X4249158Y-7510936D01*
X4249158Y-7510936D02*
X4239634Y-7520460D01*
X4239634Y-7520460D02*
X4220586Y-7529984D01*
X4220586Y-7529984D02*
X4201539Y-7529984D01*
X4201539Y-7529984D02*
X4182491Y-7520460D01*
X4182491Y-7520460D02*
X4172967Y-7510936D01*
X4172967Y-7510936D02*
X4163443Y-7491888D01*
X4163443Y-7491888D02*
X4153920Y-7453793D01*
X4153920Y-7453793D02*
X4153920Y-7406174D01*
X4153920Y-7406174D02*
X4163443Y-7368079D01*
X4163443Y-7368079D02*
X4172967Y-7349031D01*
X4172967Y-7349031D02*
X4182491Y-7339508D01*
X4182491Y-7339508D02*
X4201539Y-7329984D01*
X4353920Y-7529984D02*
X4353920Y-7396650D01*
X4353920Y-7415698D02*
X4363444Y-7406174D01*
X4363444Y-7406174D02*
X4382491Y-7396650D01*
X4382491Y-7396650D02*
X4411063Y-7396650D01*
X4411063Y-7396650D02*
X4430110Y-7406174D01*
X4430110Y-7406174D02*
X4439634Y-7425222D01*
X4439634Y-7425222D02*
X4439634Y-7529984D01*
X4439634Y-7425222D02*
X4449158Y-7406174D01*
X4449158Y-7406174D02*
X4468205Y-7396650D01*
X4468205Y-7396650D02*
X4496777Y-7396650D01*
X4496777Y-7396650D02*
X4515825Y-7406174D01*
X4515825Y-7406174D02*
X4525348Y-7425222D01*
X4525348Y-7425222D02*
X4525348Y-7529984D01*
X4620586Y-7529984D02*
X4620586Y-7396650D01*
X4620586Y-7415698D02*
X4630110Y-7406174D01*
X4630110Y-7406174D02*
X4649158Y-7396650D01*
X4649158Y-7396650D02*
X4677729Y-7396650D01*
X4677729Y-7396650D02*
X4696777Y-7406174D01*
X4696777Y-7406174D02*
X4706301Y-7425222D01*
X4706301Y-7425222D02*
X4706301Y-7529984D01*
X4706301Y-7425222D02*
X4715825Y-7406174D01*
X4715825Y-7406174D02*
X4734872Y-7396650D01*
X4734872Y-7396650D02*
X4763444Y-7396650D01*
X4763444Y-7396650D02*
X4782491Y-7406174D01*
X4782491Y-7406174D02*
X4792015Y-7425222D01*
X4792015Y-7425222D02*
X4792015Y-7529984D01*
X5182491Y-7320460D02*
X5011063Y-7577603D01*
X5439634Y-7329984D02*
X5458682Y-7329984D01*
X5458682Y-7329984D02*
X5477729Y-7339508D01*
X5477729Y-7339508D02*
X5487253Y-7349031D01*
X5487253Y-7349031D02*
X5496777Y-7368079D01*
X5496777Y-7368079D02*
X5506301Y-7406174D01*
X5506301Y-7406174D02*
X5506301Y-7453793D01*
X5506301Y-7453793D02*
X5496777Y-7491888D01*
X5496777Y-7491888D02*
X5487253Y-7510936D01*
X5487253Y-7510936D02*
X5477729Y-7520460D01*
X5477729Y-7520460D02*
X5458682Y-7529984D01*
X5458682Y-7529984D02*
X5439634Y-7529984D01*
X5439634Y-7529984D02*
X5420587Y-7520460D01*
X5420587Y-7520460D02*
X5411063Y-7510936D01*
X5411063Y-7510936D02*
X5401539Y-7491888D01*
X5401539Y-7491888D02*
X5392015Y-7453793D01*
X5392015Y-7453793D02*
X5392015Y-7406174D01*
X5392015Y-7406174D02*
X5401539Y-7368079D01*
X5401539Y-7368079D02*
X5411063Y-7349031D01*
X5411063Y-7349031D02*
X5420587Y-7339508D01*
X5420587Y-7339508D02*
X5439634Y-7329984D01*
X5592015Y-7510936D02*
X5601539Y-7520460D01*
X5601539Y-7520460D02*
X5592015Y-7529984D01*
X5592015Y-7529984D02*
X5582491Y-7520460D01*
X5582491Y-7520460D02*
X5592015Y-7510936D01*
X5592015Y-7510936D02*
X5592015Y-7529984D01*
X5725348Y-7329984D02*
X5744396Y-7329984D01*
X5744396Y-7329984D02*
X5763444Y-7339508D01*
X5763444Y-7339508D02*
X5772967Y-7349031D01*
X5772967Y-7349031D02*
X5782491Y-7368079D01*
X5782491Y-7368079D02*
X5792015Y-7406174D01*
X5792015Y-7406174D02*
X5792015Y-7453793D01*
X5792015Y-7453793D02*
X5782491Y-7491888D01*
X5782491Y-7491888D02*
X5772967Y-7510936D01*
X5772967Y-7510936D02*
X5763444Y-7520460D01*
X5763444Y-7520460D02*
X5744396Y-7529984D01*
X5744396Y-7529984D02*
X5725348Y-7529984D01*
X5725348Y-7529984D02*
X5706301Y-7520460D01*
X5706301Y-7520460D02*
X5696777Y-7510936D01*
X5696777Y-7510936D02*
X5687253Y-7491888D01*
X5687253Y-7491888D02*
X5677729Y-7453793D01*
X5677729Y-7453793D02*
X5677729Y-7406174D01*
X5677729Y-7406174D02*
X5687253Y-7368079D01*
X5687253Y-7368079D02*
X5696777Y-7349031D01*
X5696777Y-7349031D02*
X5706301Y-7339508D01*
X5706301Y-7339508D02*
X5725348Y-7329984D01*
X5858682Y-7329984D02*
X5982491Y-7329984D01*
X5982491Y-7329984D02*
X5915825Y-7406174D01*
X5915825Y-7406174D02*
X5944396Y-7406174D01*
X5944396Y-7406174D02*
X5963444Y-7415698D01*
X5963444Y-7415698D02*
X5972967Y-7425222D01*
X5972967Y-7425222D02*
X5982491Y-7444269D01*
X5982491Y-7444269D02*
X5982491Y-7491888D01*
X5982491Y-7491888D02*
X5972967Y-7510936D01*
X5972967Y-7510936D02*
X5963444Y-7520460D01*
X5963444Y-7520460D02*
X5944396Y-7529984D01*
X5944396Y-7529984D02*
X5887253Y-7529984D01*
X5887253Y-7529984D02*
X5868206Y-7520460D01*
X5868206Y-7520460D02*
X5858682Y-7510936D01*
X6077729Y-7529984D02*
X6115825Y-7529984D01*
X6115825Y-7529984D02*
X6134872Y-7520460D01*
X6134872Y-7520460D02*
X6144396Y-7510936D01*
X6144396Y-7510936D02*
X6163444Y-7482365D01*
X6163444Y-7482365D02*
X6172967Y-7444269D01*
X6172967Y-7444269D02*
X6172967Y-7368079D01*
X6172967Y-7368079D02*
X6163444Y-7349031D01*
X6163444Y-7349031D02*
X6153920Y-7339508D01*
X6153920Y-7339508D02*
X6134872Y-7329984D01*
X6134872Y-7329984D02*
X6096777Y-7329984D01*
X6096777Y-7329984D02*
X6077729Y-7339508D01*
X6077729Y-7339508D02*
X6068206Y-7349031D01*
X6068206Y-7349031D02*
X6058682Y-7368079D01*
X6058682Y-7368079D02*
X6058682Y-7415698D01*
X6058682Y-7415698D02*
X6068206Y-7434746D01*
X6068206Y-7434746D02*
X6077729Y-7444269D01*
X6077729Y-7444269D02*
X6096777Y-7453793D01*
X6096777Y-7453793D02*
X6134872Y-7453793D01*
X6134872Y-7453793D02*
X6153920Y-7444269D01*
X6153920Y-7444269D02*
X6163444Y-7434746D01*
X6163444Y-7434746D02*
X6172967Y-7415698D01*
X6344396Y-7396650D02*
X6344396Y-7529984D01*
X6296777Y-7320460D02*
X6249158Y-7463317D01*
X6249158Y-7463317D02*
X6372967Y-7463317D01*
X6439634Y-7329984D02*
X6439634Y-7368079D01*
X6515825Y-7329984D02*
X6515825Y-7368079D01*
X6811063Y-7606174D02*
X6801539Y-7596650D01*
X6801539Y-7596650D02*
X6782491Y-7568079D01*
X6782491Y-7568079D02*
X6772968Y-7549031D01*
X6772968Y-7549031D02*
X6763444Y-7520460D01*
X6763444Y-7520460D02*
X6753920Y-7472841D01*
X6753920Y-7472841D02*
X6753920Y-7434746D01*
X6753920Y-7434746D02*
X6763444Y-7387127D01*
X6763444Y-7387127D02*
X6772968Y-7358555D01*
X6772968Y-7358555D02*
X6782491Y-7339508D01*
X6782491Y-7339508D02*
X6801539Y-7310936D01*
X6801539Y-7310936D02*
X6811063Y-7301412D01*
X6877729Y-7349031D02*
X6887253Y-7339508D01*
X6887253Y-7339508D02*
X6906301Y-7329984D01*
X6906301Y-7329984D02*
X6953920Y-7329984D01*
X6953920Y-7329984D02*
X6972968Y-7339508D01*
X6972968Y-7339508D02*
X6982491Y-7349031D01*
X6982491Y-7349031D02*
X6992015Y-7368079D01*
X6992015Y-7368079D02*
X6992015Y-7387127D01*
X6992015Y-7387127D02*
X6982491Y-7415698D01*
X6982491Y-7415698D02*
X6868206Y-7529984D01*
X6868206Y-7529984D02*
X6992015Y-7529984D01*
X7163444Y-7329984D02*
X7125348Y-7329984D01*
X7125348Y-7329984D02*
X7106301Y-7339508D01*
X7106301Y-7339508D02*
X7096777Y-7349031D01*
X7096777Y-7349031D02*
X7077729Y-7377603D01*
X7077729Y-7377603D02*
X7068206Y-7415698D01*
X7068206Y-7415698D02*
X7068206Y-7491888D01*
X7068206Y-7491888D02*
X7077729Y-7510936D01*
X7077729Y-7510936D02*
X7087253Y-7520460D01*
X7087253Y-7520460D02*
X7106301Y-7529984D01*
X7106301Y-7529984D02*
X7144396Y-7529984D01*
X7144396Y-7529984D02*
X7163444Y-7520460D01*
X7163444Y-7520460D02*
X7172968Y-7510936D01*
X7172968Y-7510936D02*
X7182491Y-7491888D01*
X7182491Y-7491888D02*
X7182491Y-7444269D01*
X7182491Y-7444269D02*
X7172968Y-7425222D01*
X7172968Y-7425222D02*
X7163444Y-7415698D01*
X7163444Y-7415698D02*
X7144396Y-7406174D01*
X7144396Y-7406174D02*
X7106301Y-7406174D01*
X7106301Y-7406174D02*
X7087253Y-7415698D01*
X7087253Y-7415698D02*
X7077729Y-7425222D01*
X7077729Y-7425222D02*
X7068206Y-7444269D01*
X7420587Y-7529984D02*
X7420587Y-7329984D01*
X7506301Y-7529984D02*
X7506301Y-7425222D01*
X7506301Y-7425222D02*
X7496777Y-7406174D01*
X7496777Y-7406174D02*
X7477730Y-7396650D01*
X7477730Y-7396650D02*
X7449158Y-7396650D01*
X7449158Y-7396650D02*
X7430110Y-7406174D01*
X7430110Y-7406174D02*
X7420587Y-7415698D01*
X7630110Y-7529984D02*
X7611063Y-7520460D01*
X7611063Y-7520460D02*
X7601539Y-7510936D01*
X7601539Y-7510936D02*
X7592015Y-7491888D01*
X7592015Y-7491888D02*
X7592015Y-7434746D01*
X7592015Y-7434746D02*
X7601539Y-7415698D01*
X7601539Y-7415698D02*
X7611063Y-7406174D01*
X7611063Y-7406174D02*
X7630110Y-7396650D01*
X7630110Y-7396650D02*
X7658682Y-7396650D01*
X7658682Y-7396650D02*
X7677730Y-7406174D01*
X7677730Y-7406174D02*
X7687253Y-7415698D01*
X7687253Y-7415698D02*
X7696777Y-7434746D01*
X7696777Y-7434746D02*
X7696777Y-7491888D01*
X7696777Y-7491888D02*
X7687253Y-7510936D01*
X7687253Y-7510936D02*
X7677730Y-7520460D01*
X7677730Y-7520460D02*
X7658682Y-7529984D01*
X7658682Y-7529984D02*
X7630110Y-7529984D01*
X7811063Y-7529984D02*
X7792015Y-7520460D01*
X7792015Y-7520460D02*
X7782491Y-7501412D01*
X7782491Y-7501412D02*
X7782491Y-7329984D01*
X7963444Y-7520460D02*
X7944396Y-7529984D01*
X7944396Y-7529984D02*
X7906301Y-7529984D01*
X7906301Y-7529984D02*
X7887253Y-7520460D01*
X7887253Y-7520460D02*
X7877730Y-7501412D01*
X7877730Y-7501412D02*
X7877730Y-7425222D01*
X7877730Y-7425222D02*
X7887253Y-7406174D01*
X7887253Y-7406174D02*
X7906301Y-7396650D01*
X7906301Y-7396650D02*
X7944396Y-7396650D01*
X7944396Y-7396650D02*
X7963444Y-7406174D01*
X7963444Y-7406174D02*
X7972968Y-7425222D01*
X7972968Y-7425222D02*
X7972968Y-7444269D01*
X7972968Y-7444269D02*
X7877730Y-7463317D01*
X8049158Y-7520460D02*
X8068206Y-7529984D01*
X8068206Y-7529984D02*
X8106301Y-7529984D01*
X8106301Y-7529984D02*
X8125349Y-7520460D01*
X8125349Y-7520460D02*
X8134872Y-7501412D01*
X8134872Y-7501412D02*
X8134872Y-7491888D01*
X8134872Y-7491888D02*
X8125349Y-7472841D01*
X8125349Y-7472841D02*
X8106301Y-7463317D01*
X8106301Y-7463317D02*
X8077730Y-7463317D01*
X8077730Y-7463317D02*
X8058682Y-7453793D01*
X8058682Y-7453793D02*
X8049158Y-7434746D01*
X8049158Y-7434746D02*
X8049158Y-7425222D01*
X8049158Y-7425222D02*
X8058682Y-7406174D01*
X8058682Y-7406174D02*
X8077730Y-7396650D01*
X8077730Y-7396650D02*
X8106301Y-7396650D01*
X8106301Y-7396650D02*
X8125349Y-7406174D01*
X8201539Y-7606174D02*
X8211063Y-7596650D01*
X8211063Y-7596650D02*
X8230111Y-7568079D01*
X8230111Y-7568079D02*
X8239634Y-7549031D01*
X8239634Y-7549031D02*
X8249158Y-7520460D01*
X8249158Y-7520460D02*
X8258682Y-7472841D01*
X8258682Y-7472841D02*
X8258682Y-7434746D01*
X8258682Y-7434746D02*
X8249158Y-7387127D01*
X8249158Y-7387127D02*
X8239634Y-7358555D01*
X8239634Y-7358555D02*
X8230111Y-7339508D01*
X8230111Y-7339508D02*
X8211063Y-7310936D01*
X8211063Y-7310936D02*
X8201539Y-7301412D01*
D13*
X3176000Y-7642500D02*
X3176000Y-7762500D01*
X3116000Y-7702500D02*
X3236000Y-7702500D01*
D11*
X3601539Y-7793984D02*
X3487253Y-7793984D01*
X3544396Y-7793984D02*
X3544396Y-7593984D01*
X3544396Y-7593984D02*
X3525348Y-7622555D01*
X3525348Y-7622555D02*
X3506301Y-7641603D01*
X3506301Y-7641603D02*
X3487253Y-7651127D01*
X3687253Y-7774936D02*
X3696777Y-7784460D01*
X3696777Y-7784460D02*
X3687253Y-7793984D01*
X3687253Y-7793984D02*
X3677729Y-7784460D01*
X3677729Y-7784460D02*
X3687253Y-7774936D01*
X3687253Y-7774936D02*
X3687253Y-7793984D01*
X3772967Y-7613031D02*
X3782491Y-7603508D01*
X3782491Y-7603508D02*
X3801539Y-7593984D01*
X3801539Y-7593984D02*
X3849158Y-7593984D01*
X3849158Y-7593984D02*
X3868205Y-7603508D01*
X3868205Y-7603508D02*
X3877729Y-7613031D01*
X3877729Y-7613031D02*
X3887253Y-7632079D01*
X3887253Y-7632079D02*
X3887253Y-7651127D01*
X3887253Y-7651127D02*
X3877729Y-7679698D01*
X3877729Y-7679698D02*
X3763443Y-7793984D01*
X3763443Y-7793984D02*
X3887253Y-7793984D01*
X4011062Y-7593984D02*
X4030110Y-7593984D01*
X4030110Y-7593984D02*
X4049158Y-7603508D01*
X4049158Y-7603508D02*
X4058682Y-7613031D01*
X4058682Y-7613031D02*
X4068205Y-7632079D01*
X4068205Y-7632079D02*
X4077729Y-7670174D01*
X4077729Y-7670174D02*
X4077729Y-7717793D01*
X4077729Y-7717793D02*
X4068205Y-7755888D01*
X4068205Y-7755888D02*
X4058682Y-7774936D01*
X4058682Y-7774936D02*
X4049158Y-7784460D01*
X4049158Y-7784460D02*
X4030110Y-7793984D01*
X4030110Y-7793984D02*
X4011062Y-7793984D01*
X4011062Y-7793984D02*
X3992015Y-7784460D01*
X3992015Y-7784460D02*
X3982491Y-7774936D01*
X3982491Y-7774936D02*
X3972967Y-7755888D01*
X3972967Y-7755888D02*
X3963443Y-7717793D01*
X3963443Y-7717793D02*
X3963443Y-7670174D01*
X3963443Y-7670174D02*
X3972967Y-7632079D01*
X3972967Y-7632079D02*
X3982491Y-7613031D01*
X3982491Y-7613031D02*
X3992015Y-7603508D01*
X3992015Y-7603508D02*
X4011062Y-7593984D01*
X4201539Y-7593984D02*
X4220586Y-7593984D01*
X4220586Y-7593984D02*
X4239634Y-7603508D01*
X4239634Y-7603508D02*
X4249158Y-7613031D01*
X4249158Y-7613031D02*
X4258682Y-7632079D01*
X4258682Y-7632079D02*
X4268205Y-7670174D01*
X4268205Y-7670174D02*
X4268205Y-7717793D01*
X4268205Y-7717793D02*
X4258682Y-7755888D01*
X4258682Y-7755888D02*
X4249158Y-7774936D01*
X4249158Y-7774936D02*
X4239634Y-7784460D01*
X4239634Y-7784460D02*
X4220586Y-7793984D01*
X4220586Y-7793984D02*
X4201539Y-7793984D01*
X4201539Y-7793984D02*
X4182491Y-7784460D01*
X4182491Y-7784460D02*
X4172967Y-7774936D01*
X4172967Y-7774936D02*
X4163443Y-7755888D01*
X4163443Y-7755888D02*
X4153920Y-7717793D01*
X4153920Y-7717793D02*
X4153920Y-7670174D01*
X4153920Y-7670174D02*
X4163443Y-7632079D01*
X4163443Y-7632079D02*
X4172967Y-7613031D01*
X4172967Y-7613031D02*
X4182491Y-7603508D01*
X4182491Y-7603508D02*
X4201539Y-7593984D01*
X4353920Y-7793984D02*
X4353920Y-7660650D01*
X4353920Y-7679698D02*
X4363444Y-7670174D01*
X4363444Y-7670174D02*
X4382491Y-7660650D01*
X4382491Y-7660650D02*
X4411063Y-7660650D01*
X4411063Y-7660650D02*
X4430110Y-7670174D01*
X4430110Y-7670174D02*
X4439634Y-7689222D01*
X4439634Y-7689222D02*
X4439634Y-7793984D01*
X4439634Y-7689222D02*
X4449158Y-7670174D01*
X4449158Y-7670174D02*
X4468205Y-7660650D01*
X4468205Y-7660650D02*
X4496777Y-7660650D01*
X4496777Y-7660650D02*
X4515825Y-7670174D01*
X4515825Y-7670174D02*
X4525348Y-7689222D01*
X4525348Y-7689222D02*
X4525348Y-7793984D01*
X4620586Y-7793984D02*
X4620586Y-7660650D01*
X4620586Y-7679698D02*
X4630110Y-7670174D01*
X4630110Y-7670174D02*
X4649158Y-7660650D01*
X4649158Y-7660650D02*
X4677729Y-7660650D01*
X4677729Y-7660650D02*
X4696777Y-7670174D01*
X4696777Y-7670174D02*
X4706301Y-7689222D01*
X4706301Y-7689222D02*
X4706301Y-7793984D01*
X4706301Y-7689222D02*
X4715825Y-7670174D01*
X4715825Y-7670174D02*
X4734872Y-7660650D01*
X4734872Y-7660650D02*
X4763444Y-7660650D01*
X4763444Y-7660650D02*
X4782491Y-7670174D01*
X4782491Y-7670174D02*
X4792015Y-7689222D01*
X4792015Y-7689222D02*
X4792015Y-7793984D01*
X5182491Y-7584460D02*
X5011063Y-7841603D01*
X5439634Y-7593984D02*
X5458682Y-7593984D01*
X5458682Y-7593984D02*
X5477729Y-7603508D01*
X5477729Y-7603508D02*
X5487253Y-7613031D01*
X5487253Y-7613031D02*
X5496777Y-7632079D01*
X5496777Y-7632079D02*
X5506301Y-7670174D01*
X5506301Y-7670174D02*
X5506301Y-7717793D01*
X5506301Y-7717793D02*
X5496777Y-7755888D01*
X5496777Y-7755888D02*
X5487253Y-7774936D01*
X5487253Y-7774936D02*
X5477729Y-7784460D01*
X5477729Y-7784460D02*
X5458682Y-7793984D01*
X5458682Y-7793984D02*
X5439634Y-7793984D01*
X5439634Y-7793984D02*
X5420587Y-7784460D01*
X5420587Y-7784460D02*
X5411063Y-7774936D01*
X5411063Y-7774936D02*
X5401539Y-7755888D01*
X5401539Y-7755888D02*
X5392015Y-7717793D01*
X5392015Y-7717793D02*
X5392015Y-7670174D01*
X5392015Y-7670174D02*
X5401539Y-7632079D01*
X5401539Y-7632079D02*
X5411063Y-7613031D01*
X5411063Y-7613031D02*
X5420587Y-7603508D01*
X5420587Y-7603508D02*
X5439634Y-7593984D01*
X5592015Y-7774936D02*
X5601539Y-7784460D01*
X5601539Y-7784460D02*
X5592015Y-7793984D01*
X5592015Y-7793984D02*
X5582491Y-7784460D01*
X5582491Y-7784460D02*
X5592015Y-7774936D01*
X5592015Y-7774936D02*
X5592015Y-7793984D01*
X5725348Y-7593984D02*
X5744396Y-7593984D01*
X5744396Y-7593984D02*
X5763444Y-7603508D01*
X5763444Y-7603508D02*
X5772967Y-7613031D01*
X5772967Y-7613031D02*
X5782491Y-7632079D01*
X5782491Y-7632079D02*
X5792015Y-7670174D01*
X5792015Y-7670174D02*
X5792015Y-7717793D01*
X5792015Y-7717793D02*
X5782491Y-7755888D01*
X5782491Y-7755888D02*
X5772967Y-7774936D01*
X5772967Y-7774936D02*
X5763444Y-7784460D01*
X5763444Y-7784460D02*
X5744396Y-7793984D01*
X5744396Y-7793984D02*
X5725348Y-7793984D01*
X5725348Y-7793984D02*
X5706301Y-7784460D01*
X5706301Y-7784460D02*
X5696777Y-7774936D01*
X5696777Y-7774936D02*
X5687253Y-7755888D01*
X5687253Y-7755888D02*
X5677729Y-7717793D01*
X5677729Y-7717793D02*
X5677729Y-7670174D01*
X5677729Y-7670174D02*
X5687253Y-7632079D01*
X5687253Y-7632079D02*
X5696777Y-7613031D01*
X5696777Y-7613031D02*
X5706301Y-7603508D01*
X5706301Y-7603508D02*
X5725348Y-7593984D01*
X5963444Y-7660650D02*
X5963444Y-7793984D01*
X5915825Y-7584460D02*
X5868206Y-7727317D01*
X5868206Y-7727317D02*
X5992015Y-7727317D01*
X6049158Y-7593984D02*
X6182491Y-7593984D01*
X6182491Y-7593984D02*
X6096777Y-7793984D01*
X6249158Y-7613031D02*
X6258682Y-7603508D01*
X6258682Y-7603508D02*
X6277729Y-7593984D01*
X6277729Y-7593984D02*
X6325348Y-7593984D01*
X6325348Y-7593984D02*
X6344396Y-7603508D01*
X6344396Y-7603508D02*
X6353920Y-7613031D01*
X6353920Y-7613031D02*
X6363444Y-7632079D01*
X6363444Y-7632079D02*
X6363444Y-7651127D01*
X6363444Y-7651127D02*
X6353920Y-7679698D01*
X6353920Y-7679698D02*
X6239634Y-7793984D01*
X6239634Y-7793984D02*
X6363444Y-7793984D01*
X6439634Y-7593984D02*
X6439634Y-7632079D01*
X6515825Y-7593984D02*
X6515825Y-7632079D01*
X6811063Y-7870174D02*
X6801539Y-7860650D01*
X6801539Y-7860650D02*
X6782491Y-7832079D01*
X6782491Y-7832079D02*
X6772968Y-7813031D01*
X6772968Y-7813031D02*
X6763444Y-7784460D01*
X6763444Y-7784460D02*
X6753920Y-7736841D01*
X6753920Y-7736841D02*
X6753920Y-7698746D01*
X6753920Y-7698746D02*
X6763444Y-7651127D01*
X6763444Y-7651127D02*
X6772968Y-7622555D01*
X6772968Y-7622555D02*
X6782491Y-7603508D01*
X6782491Y-7603508D02*
X6801539Y-7574936D01*
X6801539Y-7574936D02*
X6811063Y-7565412D01*
X6972968Y-7593984D02*
X6934872Y-7593984D01*
X6934872Y-7593984D02*
X6915825Y-7603508D01*
X6915825Y-7603508D02*
X6906301Y-7613031D01*
X6906301Y-7613031D02*
X6887253Y-7641603D01*
X6887253Y-7641603D02*
X6877729Y-7679698D01*
X6877729Y-7679698D02*
X6877729Y-7755888D01*
X6877729Y-7755888D02*
X6887253Y-7774936D01*
X6887253Y-7774936D02*
X6896777Y-7784460D01*
X6896777Y-7784460D02*
X6915825Y-7793984D01*
X6915825Y-7793984D02*
X6953920Y-7793984D01*
X6953920Y-7793984D02*
X6972968Y-7784460D01*
X6972968Y-7784460D02*
X6982491Y-7774936D01*
X6982491Y-7774936D02*
X6992015Y-7755888D01*
X6992015Y-7755888D02*
X6992015Y-7708269D01*
X6992015Y-7708269D02*
X6982491Y-7689222D01*
X6982491Y-7689222D02*
X6972968Y-7679698D01*
X6972968Y-7679698D02*
X6953920Y-7670174D01*
X6953920Y-7670174D02*
X6915825Y-7670174D01*
X6915825Y-7670174D02*
X6896777Y-7679698D01*
X6896777Y-7679698D02*
X6887253Y-7689222D01*
X6887253Y-7689222D02*
X6877729Y-7708269D01*
X7230110Y-7793984D02*
X7230110Y-7593984D01*
X7315825Y-7793984D02*
X7315825Y-7689222D01*
X7315825Y-7689222D02*
X7306301Y-7670174D01*
X7306301Y-7670174D02*
X7287253Y-7660650D01*
X7287253Y-7660650D02*
X7258682Y-7660650D01*
X7258682Y-7660650D02*
X7239634Y-7670174D01*
X7239634Y-7670174D02*
X7230110Y-7679698D01*
X7439634Y-7793984D02*
X7420587Y-7784460D01*
X7420587Y-7784460D02*
X7411063Y-7774936D01*
X7411063Y-7774936D02*
X7401539Y-7755888D01*
X7401539Y-7755888D02*
X7401539Y-7698746D01*
X7401539Y-7698746D02*
X7411063Y-7679698D01*
X7411063Y-7679698D02*
X7420587Y-7670174D01*
X7420587Y-7670174D02*
X7439634Y-7660650D01*
X7439634Y-7660650D02*
X7468206Y-7660650D01*
X7468206Y-7660650D02*
X7487253Y-7670174D01*
X7487253Y-7670174D02*
X7496777Y-7679698D01*
X7496777Y-7679698D02*
X7506301Y-7698746D01*
X7506301Y-7698746D02*
X7506301Y-7755888D01*
X7506301Y-7755888D02*
X7496777Y-7774936D01*
X7496777Y-7774936D02*
X7487253Y-7784460D01*
X7487253Y-7784460D02*
X7468206Y-7793984D01*
X7468206Y-7793984D02*
X7439634Y-7793984D01*
X7620587Y-7793984D02*
X7601539Y-7784460D01*
X7601539Y-7784460D02*
X7592015Y-7765412D01*
X7592015Y-7765412D02*
X7592015Y-7593984D01*
X7772968Y-7784460D02*
X7753920Y-7793984D01*
X7753920Y-7793984D02*
X7715825Y-7793984D01*
X7715825Y-7793984D02*
X7696777Y-7784460D01*
X7696777Y-7784460D02*
X7687253Y-7765412D01*
X7687253Y-7765412D02*
X7687253Y-7689222D01*
X7687253Y-7689222D02*
X7696777Y-7670174D01*
X7696777Y-7670174D02*
X7715825Y-7660650D01*
X7715825Y-7660650D02*
X7753920Y-7660650D01*
X7753920Y-7660650D02*
X7772968Y-7670174D01*
X7772968Y-7670174D02*
X7782491Y-7689222D01*
X7782491Y-7689222D02*
X7782491Y-7708269D01*
X7782491Y-7708269D02*
X7687253Y-7727317D01*
X7858682Y-7784460D02*
X7877730Y-7793984D01*
X7877730Y-7793984D02*
X7915825Y-7793984D01*
X7915825Y-7793984D02*
X7934872Y-7784460D01*
X7934872Y-7784460D02*
X7944396Y-7765412D01*
X7944396Y-7765412D02*
X7944396Y-7755888D01*
X7944396Y-7755888D02*
X7934872Y-7736841D01*
X7934872Y-7736841D02*
X7915825Y-7727317D01*
X7915825Y-7727317D02*
X7887253Y-7727317D01*
X7887253Y-7727317D02*
X7868206Y-7717793D01*
X7868206Y-7717793D02*
X7858682Y-7698746D01*
X7858682Y-7698746D02*
X7858682Y-7689222D01*
X7858682Y-7689222D02*
X7868206Y-7670174D01*
X7868206Y-7670174D02*
X7887253Y-7660650D01*
X7887253Y-7660650D02*
X7915825Y-7660650D01*
X7915825Y-7660650D02*
X7934872Y-7670174D01*
X8011063Y-7870174D02*
X8020587Y-7860650D01*
X8020587Y-7860650D02*
X8039634Y-7832079D01*
X8039634Y-7832079D02*
X8049158Y-7813031D01*
X8049158Y-7813031D02*
X8058682Y-7784460D01*
X8058682Y-7784460D02*
X8068206Y-7736841D01*
X8068206Y-7736841D02*
X8068206Y-7698746D01*
X8068206Y-7698746D02*
X8058682Y-7651127D01*
X8058682Y-7651127D02*
X8049158Y-7622555D01*
X8049158Y-7622555D02*
X8039634Y-7603508D01*
X8039634Y-7603508D02*
X8020587Y-7574936D01*
X8020587Y-7574936D02*
X8011063Y-7565412D01*
D14*
X3214033Y-8019533D02*
X3214033Y-7913466D01*
X3107966Y-7913466D01*
X3107966Y-8019533D01*
X3214033Y-8019533D01*
D11*
X3601539Y-8057984D02*
X3487253Y-8057984D01*
X3544396Y-8057984D02*
X3544396Y-7857984D01*
X3544396Y-7857984D02*
X3525348Y-7886555D01*
X3525348Y-7886555D02*
X3506301Y-7905603D01*
X3506301Y-7905603D02*
X3487253Y-7915127D01*
X3687253Y-8038936D02*
X3696777Y-8048460D01*
X3696777Y-8048460D02*
X3687253Y-8057984D01*
X3687253Y-8057984D02*
X3677729Y-8048460D01*
X3677729Y-8048460D02*
X3687253Y-8038936D01*
X3687253Y-8038936D02*
X3687253Y-8057984D01*
X3877729Y-7857984D02*
X3782491Y-7857984D01*
X3782491Y-7857984D02*
X3772967Y-7953222D01*
X3772967Y-7953222D02*
X3782491Y-7943698D01*
X3782491Y-7943698D02*
X3801539Y-7934174D01*
X3801539Y-7934174D02*
X3849158Y-7934174D01*
X3849158Y-7934174D02*
X3868205Y-7943698D01*
X3868205Y-7943698D02*
X3877729Y-7953222D01*
X3877729Y-7953222D02*
X3887253Y-7972269D01*
X3887253Y-7972269D02*
X3887253Y-8019888D01*
X3887253Y-8019888D02*
X3877729Y-8038936D01*
X3877729Y-8038936D02*
X3868205Y-8048460D01*
X3868205Y-8048460D02*
X3849158Y-8057984D01*
X3849158Y-8057984D02*
X3801539Y-8057984D01*
X3801539Y-8057984D02*
X3782491Y-8048460D01*
X3782491Y-8048460D02*
X3772967Y-8038936D01*
X4011062Y-7857984D02*
X4030110Y-7857984D01*
X4030110Y-7857984D02*
X4049158Y-7867508D01*
X4049158Y-7867508D02*
X4058682Y-7877031D01*
X4058682Y-7877031D02*
X4068205Y-7896079D01*
X4068205Y-7896079D02*
X4077729Y-7934174D01*
X4077729Y-7934174D02*
X4077729Y-7981793D01*
X4077729Y-7981793D02*
X4068205Y-8019888D01*
X4068205Y-8019888D02*
X4058682Y-8038936D01*
X4058682Y-8038936D02*
X4049158Y-8048460D01*
X4049158Y-8048460D02*
X4030110Y-8057984D01*
X4030110Y-8057984D02*
X4011062Y-8057984D01*
X4011062Y-8057984D02*
X3992015Y-8048460D01*
X3992015Y-8048460D02*
X3982491Y-8038936D01*
X3982491Y-8038936D02*
X3972967Y-8019888D01*
X3972967Y-8019888D02*
X3963443Y-7981793D01*
X3963443Y-7981793D02*
X3963443Y-7934174D01*
X3963443Y-7934174D02*
X3972967Y-7896079D01*
X3972967Y-7896079D02*
X3982491Y-7877031D01*
X3982491Y-7877031D02*
X3992015Y-7867508D01*
X3992015Y-7867508D02*
X4011062Y-7857984D01*
X4201539Y-7857984D02*
X4220586Y-7857984D01*
X4220586Y-7857984D02*
X4239634Y-7867508D01*
X4239634Y-7867508D02*
X4249158Y-7877031D01*
X4249158Y-7877031D02*
X4258682Y-7896079D01*
X4258682Y-7896079D02*
X4268205Y-7934174D01*
X4268205Y-7934174D02*
X4268205Y-7981793D01*
X4268205Y-7981793D02*
X4258682Y-8019888D01*
X4258682Y-8019888D02*
X4249158Y-8038936D01*
X4249158Y-8038936D02*
X4239634Y-8048460D01*
X4239634Y-8048460D02*
X4220586Y-8057984D01*
X4220586Y-8057984D02*
X4201539Y-8057984D01*
X4201539Y-8057984D02*
X4182491Y-8048460D01*
X4182491Y-8048460D02*
X4172967Y-8038936D01*
X4172967Y-8038936D02*
X4163443Y-8019888D01*
X4163443Y-8019888D02*
X4153920Y-7981793D01*
X4153920Y-7981793D02*
X4153920Y-7934174D01*
X4153920Y-7934174D02*
X4163443Y-7896079D01*
X4163443Y-7896079D02*
X4172967Y-7877031D01*
X4172967Y-7877031D02*
X4182491Y-7867508D01*
X4182491Y-7867508D02*
X4201539Y-7857984D01*
X4353920Y-8057984D02*
X4353920Y-7924650D01*
X4353920Y-7943698D02*
X4363444Y-7934174D01*
X4363444Y-7934174D02*
X4382491Y-7924650D01*
X4382491Y-7924650D02*
X4411063Y-7924650D01*
X4411063Y-7924650D02*
X4430110Y-7934174D01*
X4430110Y-7934174D02*
X4439634Y-7953222D01*
X4439634Y-7953222D02*
X4439634Y-8057984D01*
X4439634Y-7953222D02*
X4449158Y-7934174D01*
X4449158Y-7934174D02*
X4468205Y-7924650D01*
X4468205Y-7924650D02*
X4496777Y-7924650D01*
X4496777Y-7924650D02*
X4515825Y-7934174D01*
X4515825Y-7934174D02*
X4525348Y-7953222D01*
X4525348Y-7953222D02*
X4525348Y-8057984D01*
X4620586Y-8057984D02*
X4620586Y-7924650D01*
X4620586Y-7943698D02*
X4630110Y-7934174D01*
X4630110Y-7934174D02*
X4649158Y-7924650D01*
X4649158Y-7924650D02*
X4677729Y-7924650D01*
X4677729Y-7924650D02*
X4696777Y-7934174D01*
X4696777Y-7934174D02*
X4706301Y-7953222D01*
X4706301Y-7953222D02*
X4706301Y-8057984D01*
X4706301Y-7953222D02*
X4715825Y-7934174D01*
X4715825Y-7934174D02*
X4734872Y-7924650D01*
X4734872Y-7924650D02*
X4763444Y-7924650D01*
X4763444Y-7924650D02*
X4782491Y-7934174D01*
X4782491Y-7934174D02*
X4792015Y-7953222D01*
X4792015Y-7953222D02*
X4792015Y-8057984D01*
X5182491Y-7848460D02*
X5011063Y-8105603D01*
X5439634Y-7857984D02*
X5458682Y-7857984D01*
X5458682Y-7857984D02*
X5477729Y-7867508D01*
X5477729Y-7867508D02*
X5487253Y-7877031D01*
X5487253Y-7877031D02*
X5496777Y-7896079D01*
X5496777Y-7896079D02*
X5506301Y-7934174D01*
X5506301Y-7934174D02*
X5506301Y-7981793D01*
X5506301Y-7981793D02*
X5496777Y-8019888D01*
X5496777Y-8019888D02*
X5487253Y-8038936D01*
X5487253Y-8038936D02*
X5477729Y-8048460D01*
X5477729Y-8048460D02*
X5458682Y-8057984D01*
X5458682Y-8057984D02*
X5439634Y-8057984D01*
X5439634Y-8057984D02*
X5420587Y-8048460D01*
X5420587Y-8048460D02*
X5411063Y-8038936D01*
X5411063Y-8038936D02*
X5401539Y-8019888D01*
X5401539Y-8019888D02*
X5392015Y-7981793D01*
X5392015Y-7981793D02*
X5392015Y-7934174D01*
X5392015Y-7934174D02*
X5401539Y-7896079D01*
X5401539Y-7896079D02*
X5411063Y-7877031D01*
X5411063Y-7877031D02*
X5420587Y-7867508D01*
X5420587Y-7867508D02*
X5439634Y-7857984D01*
X5592015Y-8038936D02*
X5601539Y-8048460D01*
X5601539Y-8048460D02*
X5592015Y-8057984D01*
X5592015Y-8057984D02*
X5582491Y-8048460D01*
X5582491Y-8048460D02*
X5592015Y-8038936D01*
X5592015Y-8038936D02*
X5592015Y-8057984D01*
X5725348Y-7857984D02*
X5744396Y-7857984D01*
X5744396Y-7857984D02*
X5763444Y-7867508D01*
X5763444Y-7867508D02*
X5772967Y-7877031D01*
X5772967Y-7877031D02*
X5782491Y-7896079D01*
X5782491Y-7896079D02*
X5792015Y-7934174D01*
X5792015Y-7934174D02*
X5792015Y-7981793D01*
X5792015Y-7981793D02*
X5782491Y-8019888D01*
X5782491Y-8019888D02*
X5772967Y-8038936D01*
X5772967Y-8038936D02*
X5763444Y-8048460D01*
X5763444Y-8048460D02*
X5744396Y-8057984D01*
X5744396Y-8057984D02*
X5725348Y-8057984D01*
X5725348Y-8057984D02*
X5706301Y-8048460D01*
X5706301Y-8048460D02*
X5696777Y-8038936D01*
X5696777Y-8038936D02*
X5687253Y-8019888D01*
X5687253Y-8019888D02*
X5677729Y-7981793D01*
X5677729Y-7981793D02*
X5677729Y-7934174D01*
X5677729Y-7934174D02*
X5687253Y-7896079D01*
X5687253Y-7896079D02*
X5696777Y-7877031D01*
X5696777Y-7877031D02*
X5706301Y-7867508D01*
X5706301Y-7867508D02*
X5725348Y-7857984D01*
X5972967Y-7857984D02*
X5877729Y-7857984D01*
X5877729Y-7857984D02*
X5868206Y-7953222D01*
X5868206Y-7953222D02*
X5877729Y-7943698D01*
X5877729Y-7943698D02*
X5896777Y-7934174D01*
X5896777Y-7934174D02*
X5944396Y-7934174D01*
X5944396Y-7934174D02*
X5963444Y-7943698D01*
X5963444Y-7943698D02*
X5972967Y-7953222D01*
X5972967Y-7953222D02*
X5982491Y-7972269D01*
X5982491Y-7972269D02*
X5982491Y-8019888D01*
X5982491Y-8019888D02*
X5972967Y-8038936D01*
X5972967Y-8038936D02*
X5963444Y-8048460D01*
X5963444Y-8048460D02*
X5944396Y-8057984D01*
X5944396Y-8057984D02*
X5896777Y-8057984D01*
X5896777Y-8057984D02*
X5877729Y-8048460D01*
X5877729Y-8048460D02*
X5868206Y-8038936D01*
X6077729Y-8057984D02*
X6115825Y-8057984D01*
X6115825Y-8057984D02*
X6134872Y-8048460D01*
X6134872Y-8048460D02*
X6144396Y-8038936D01*
X6144396Y-8038936D02*
X6163444Y-8010365D01*
X6163444Y-8010365D02*
X6172967Y-7972269D01*
X6172967Y-7972269D02*
X6172967Y-7896079D01*
X6172967Y-7896079D02*
X6163444Y-7877031D01*
X6163444Y-7877031D02*
X6153920Y-7867508D01*
X6153920Y-7867508D02*
X6134872Y-7857984D01*
X6134872Y-7857984D02*
X6096777Y-7857984D01*
X6096777Y-7857984D02*
X6077729Y-7867508D01*
X6077729Y-7867508D02*
X6068206Y-7877031D01*
X6068206Y-7877031D02*
X6058682Y-7896079D01*
X6058682Y-7896079D02*
X6058682Y-7943698D01*
X6058682Y-7943698D02*
X6068206Y-7962746D01*
X6068206Y-7962746D02*
X6077729Y-7972269D01*
X6077729Y-7972269D02*
X6096777Y-7981793D01*
X6096777Y-7981793D02*
X6134872Y-7981793D01*
X6134872Y-7981793D02*
X6153920Y-7972269D01*
X6153920Y-7972269D02*
X6163444Y-7962746D01*
X6163444Y-7962746D02*
X6172967Y-7943698D01*
X6363444Y-8057984D02*
X6249158Y-8057984D01*
X6306301Y-8057984D02*
X6306301Y-7857984D01*
X6306301Y-7857984D02*
X6287253Y-7886555D01*
X6287253Y-7886555D02*
X6268206Y-7905603D01*
X6268206Y-7905603D02*
X6249158Y-7915127D01*
X6439634Y-7857984D02*
X6439634Y-7896079D01*
X6515825Y-7857984D02*
X6515825Y-7896079D01*
X6811063Y-8134174D02*
X6801539Y-8124650D01*
X6801539Y-8124650D02*
X6782491Y-8096079D01*
X6782491Y-8096079D02*
X6772968Y-8077031D01*
X6772968Y-8077031D02*
X6763444Y-8048460D01*
X6763444Y-8048460D02*
X6753920Y-8000841D01*
X6753920Y-8000841D02*
X6753920Y-7962746D01*
X6753920Y-7962746D02*
X6763444Y-7915127D01*
X6763444Y-7915127D02*
X6772968Y-7886555D01*
X6772968Y-7886555D02*
X6782491Y-7867508D01*
X6782491Y-7867508D02*
X6801539Y-7838936D01*
X6801539Y-7838936D02*
X6811063Y-7829412D01*
X6982491Y-7857984D02*
X6887253Y-7857984D01*
X6887253Y-7857984D02*
X6877729Y-7953222D01*
X6877729Y-7953222D02*
X6887253Y-7943698D01*
X6887253Y-7943698D02*
X6906301Y-7934174D01*
X6906301Y-7934174D02*
X6953920Y-7934174D01*
X6953920Y-7934174D02*
X6972968Y-7943698D01*
X6972968Y-7943698D02*
X6982491Y-7953222D01*
X6982491Y-7953222D02*
X6992015Y-7972269D01*
X6992015Y-7972269D02*
X6992015Y-8019888D01*
X6992015Y-8019888D02*
X6982491Y-8038936D01*
X6982491Y-8038936D02*
X6972968Y-8048460D01*
X6972968Y-8048460D02*
X6953920Y-8057984D01*
X6953920Y-8057984D02*
X6906301Y-8057984D01*
X6906301Y-8057984D02*
X6887253Y-8048460D01*
X6887253Y-8048460D02*
X6877729Y-8038936D01*
X7230110Y-8057984D02*
X7230110Y-7857984D01*
X7315825Y-8057984D02*
X7315825Y-7953222D01*
X7315825Y-7953222D02*
X7306301Y-7934174D01*
X7306301Y-7934174D02*
X7287253Y-7924650D01*
X7287253Y-7924650D02*
X7258682Y-7924650D01*
X7258682Y-7924650D02*
X7239634Y-7934174D01*
X7239634Y-7934174D02*
X7230110Y-7943698D01*
X7439634Y-8057984D02*
X7420587Y-8048460D01*
X7420587Y-8048460D02*
X7411063Y-8038936D01*
X7411063Y-8038936D02*
X7401539Y-8019888D01*
X7401539Y-8019888D02*
X7401539Y-7962746D01*
X7401539Y-7962746D02*
X7411063Y-7943698D01*
X7411063Y-7943698D02*
X7420587Y-7934174D01*
X7420587Y-7934174D02*
X7439634Y-7924650D01*
X7439634Y-7924650D02*
X7468206Y-7924650D01*
X7468206Y-7924650D02*
X7487253Y-7934174D01*
X7487253Y-7934174D02*
X7496777Y-7943698D01*
X7496777Y-7943698D02*
X7506301Y-7962746D01*
X7506301Y-7962746D02*
X7506301Y-8019888D01*
X7506301Y-8019888D02*
X7496777Y-8038936D01*
X7496777Y-8038936D02*
X7487253Y-8048460D01*
X7487253Y-8048460D02*
X7468206Y-8057984D01*
X7468206Y-8057984D02*
X7439634Y-8057984D01*
X7620587Y-8057984D02*
X7601539Y-8048460D01*
X7601539Y-8048460D02*
X7592015Y-8029412D01*
X7592015Y-8029412D02*
X7592015Y-7857984D01*
X7772968Y-8048460D02*
X7753920Y-8057984D01*
X7753920Y-8057984D02*
X7715825Y-8057984D01*
X7715825Y-8057984D02*
X7696777Y-8048460D01*
X7696777Y-8048460D02*
X7687253Y-8029412D01*
X7687253Y-8029412D02*
X7687253Y-7953222D01*
X7687253Y-7953222D02*
X7696777Y-7934174D01*
X7696777Y-7934174D02*
X7715825Y-7924650D01*
X7715825Y-7924650D02*
X7753920Y-7924650D01*
X7753920Y-7924650D02*
X7772968Y-7934174D01*
X7772968Y-7934174D02*
X7782491Y-7953222D01*
X7782491Y-7953222D02*
X7782491Y-7972269D01*
X7782491Y-7972269D02*
X7687253Y-7991317D01*
X7858682Y-8048460D02*
X7877730Y-8057984D01*
X7877730Y-8057984D02*
X7915825Y-8057984D01*
X7915825Y-8057984D02*
X7934872Y-8048460D01*
X7934872Y-8048460D02*
X7944396Y-8029412D01*
X7944396Y-8029412D02*
X7944396Y-8019888D01*
X7944396Y-8019888D02*
X7934872Y-8000841D01*
X7934872Y-8000841D02*
X7915825Y-7991317D01*
X7915825Y-7991317D02*
X7887253Y-7991317D01*
X7887253Y-7991317D02*
X7868206Y-7981793D01*
X7868206Y-7981793D02*
X7858682Y-7962746D01*
X7858682Y-7962746D02*
X7858682Y-7953222D01*
X7858682Y-7953222D02*
X7868206Y-7934174D01*
X7868206Y-7934174D02*
X7887253Y-7924650D01*
X7887253Y-7924650D02*
X7915825Y-7924650D01*
X7915825Y-7924650D02*
X7934872Y-7934174D01*
X8011063Y-8134174D02*
X8020587Y-8124650D01*
X8020587Y-8124650D02*
X8039634Y-8096079D01*
X8039634Y-8096079D02*
X8049158Y-8077031D01*
X8049158Y-8077031D02*
X8058682Y-8048460D01*
X8058682Y-8048460D02*
X8068206Y-8000841D01*
X8068206Y-8000841D02*
X8068206Y-7962746D01*
X8068206Y-7962746D02*
X8058682Y-7915127D01*
X8058682Y-7915127D02*
X8049158Y-7886555D01*
X8049158Y-7886555D02*
X8039634Y-7867508D01*
X8039634Y-7867508D02*
X8020587Y-7838936D01*
X8020587Y-7838936D02*
X8011063Y-7829412D01*
D15*
X3151000Y-8321500D02*
X3236000Y-8236500D01*
X3151000Y-8151500D01*
X3066000Y-8236500D01*
X3151000Y-8321500D01*
D11*
X3601539Y-8327984D02*
X3487253Y-8327984D01*
X3544396Y-8327984D02*
X3544396Y-8127984D01*
X3544396Y-8127984D02*
X3525348Y-8156555D01*
X3525348Y-8156555D02*
X3506301Y-8175603D01*
X3506301Y-8175603D02*
X3487253Y-8185127D01*
X3687253Y-8308936D02*
X3696777Y-8318460D01*
X3696777Y-8318460D02*
X3687253Y-8327984D01*
X3687253Y-8327984D02*
X3677729Y-8318460D01*
X3677729Y-8318460D02*
X3687253Y-8308936D01*
X3687253Y-8308936D02*
X3687253Y-8327984D01*
X3763443Y-8127984D02*
X3896777Y-8127984D01*
X3896777Y-8127984D02*
X3811062Y-8327984D01*
X4011062Y-8127984D02*
X4030110Y-8127984D01*
X4030110Y-8127984D02*
X4049158Y-8137508D01*
X4049158Y-8137508D02*
X4058682Y-8147031D01*
X4058682Y-8147031D02*
X4068205Y-8166079D01*
X4068205Y-8166079D02*
X4077729Y-8204174D01*
X4077729Y-8204174D02*
X4077729Y-8251793D01*
X4077729Y-8251793D02*
X4068205Y-8289888D01*
X4068205Y-8289888D02*
X4058682Y-8308936D01*
X4058682Y-8308936D02*
X4049158Y-8318460D01*
X4049158Y-8318460D02*
X4030110Y-8327984D01*
X4030110Y-8327984D02*
X4011062Y-8327984D01*
X4011062Y-8327984D02*
X3992015Y-8318460D01*
X3992015Y-8318460D02*
X3982491Y-8308936D01*
X3982491Y-8308936D02*
X3972967Y-8289888D01*
X3972967Y-8289888D02*
X3963443Y-8251793D01*
X3963443Y-8251793D02*
X3963443Y-8204174D01*
X3963443Y-8204174D02*
X3972967Y-8166079D01*
X3972967Y-8166079D02*
X3982491Y-8147031D01*
X3982491Y-8147031D02*
X3992015Y-8137508D01*
X3992015Y-8137508D02*
X4011062Y-8127984D01*
X4201539Y-8127984D02*
X4220586Y-8127984D01*
X4220586Y-8127984D02*
X4239634Y-8137508D01*
X4239634Y-8137508D02*
X4249158Y-8147031D01*
X4249158Y-8147031D02*
X4258682Y-8166079D01*
X4258682Y-8166079D02*
X4268205Y-8204174D01*
X4268205Y-8204174D02*
X4268205Y-8251793D01*
X4268205Y-8251793D02*
X4258682Y-8289888D01*
X4258682Y-8289888D02*
X4249158Y-8308936D01*
X4249158Y-8308936D02*
X4239634Y-8318460D01*
X4239634Y-8318460D02*
X4220586Y-8327984D01*
X4220586Y-8327984D02*
X4201539Y-8327984D01*
X4201539Y-8327984D02*
X4182491Y-8318460D01*
X4182491Y-8318460D02*
X4172967Y-8308936D01*
X4172967Y-8308936D02*
X4163443Y-8289888D01*
X4163443Y-8289888D02*
X4153920Y-8251793D01*
X4153920Y-8251793D02*
X4153920Y-8204174D01*
X4153920Y-8204174D02*
X4163443Y-8166079D01*
X4163443Y-8166079D02*
X4172967Y-8147031D01*
X4172967Y-8147031D02*
X4182491Y-8137508D01*
X4182491Y-8137508D02*
X4201539Y-8127984D01*
X4353920Y-8327984D02*
X4353920Y-8194650D01*
X4353920Y-8213698D02*
X4363444Y-8204174D01*
X4363444Y-8204174D02*
X4382491Y-8194650D01*
X4382491Y-8194650D02*
X4411063Y-8194650D01*
X4411063Y-8194650D02*
X4430110Y-8204174D01*
X4430110Y-8204174D02*
X4439634Y-8223222D01*
X4439634Y-8223222D02*
X4439634Y-8327984D01*
X4439634Y-8223222D02*
X4449158Y-8204174D01*
X4449158Y-8204174D02*
X4468205Y-8194650D01*
X4468205Y-8194650D02*
X4496777Y-8194650D01*
X4496777Y-8194650D02*
X4515825Y-8204174D01*
X4515825Y-8204174D02*
X4525348Y-8223222D01*
X4525348Y-8223222D02*
X4525348Y-8327984D01*
X4620586Y-8327984D02*
X4620586Y-8194650D01*
X4620586Y-8213698D02*
X4630110Y-8204174D01*
X4630110Y-8204174D02*
X4649158Y-8194650D01*
X4649158Y-8194650D02*
X4677729Y-8194650D01*
X4677729Y-8194650D02*
X4696777Y-8204174D01*
X4696777Y-8204174D02*
X4706301Y-8223222D01*
X4706301Y-8223222D02*
X4706301Y-8327984D01*
X4706301Y-8223222D02*
X4715825Y-8204174D01*
X4715825Y-8204174D02*
X4734872Y-8194650D01*
X4734872Y-8194650D02*
X4763444Y-8194650D01*
X4763444Y-8194650D02*
X4782491Y-8204174D01*
X4782491Y-8204174D02*
X4792015Y-8223222D01*
X4792015Y-8223222D02*
X4792015Y-8327984D01*
X5182491Y-8118460D02*
X5011063Y-8375603D01*
X5439634Y-8127984D02*
X5458682Y-8127984D01*
X5458682Y-8127984D02*
X5477729Y-8137508D01*
X5477729Y-8137508D02*
X5487253Y-8147031D01*
X5487253Y-8147031D02*
X5496777Y-8166079D01*
X5496777Y-8166079D02*
X5506301Y-8204174D01*
X5506301Y-8204174D02*
X5506301Y-8251793D01*
X5506301Y-8251793D02*
X5496777Y-8289888D01*
X5496777Y-8289888D02*
X5487253Y-8308936D01*
X5487253Y-8308936D02*
X5477729Y-8318460D01*
X5477729Y-8318460D02*
X5458682Y-8327984D01*
X5458682Y-8327984D02*
X5439634Y-8327984D01*
X5439634Y-8327984D02*
X5420587Y-8318460D01*
X5420587Y-8318460D02*
X5411063Y-8308936D01*
X5411063Y-8308936D02*
X5401539Y-8289888D01*
X5401539Y-8289888D02*
X5392015Y-8251793D01*
X5392015Y-8251793D02*
X5392015Y-8204174D01*
X5392015Y-8204174D02*
X5401539Y-8166079D01*
X5401539Y-8166079D02*
X5411063Y-8147031D01*
X5411063Y-8147031D02*
X5420587Y-8137508D01*
X5420587Y-8137508D02*
X5439634Y-8127984D01*
X5592015Y-8308936D02*
X5601539Y-8318460D01*
X5601539Y-8318460D02*
X5592015Y-8327984D01*
X5592015Y-8327984D02*
X5582491Y-8318460D01*
X5582491Y-8318460D02*
X5592015Y-8308936D01*
X5592015Y-8308936D02*
X5592015Y-8327984D01*
X5725348Y-8127984D02*
X5744396Y-8127984D01*
X5744396Y-8127984D02*
X5763444Y-8137508D01*
X5763444Y-8137508D02*
X5772967Y-8147031D01*
X5772967Y-8147031D02*
X5782491Y-8166079D01*
X5782491Y-8166079D02*
X5792015Y-8204174D01*
X5792015Y-8204174D02*
X5792015Y-8251793D01*
X5792015Y-8251793D02*
X5782491Y-8289888D01*
X5782491Y-8289888D02*
X5772967Y-8308936D01*
X5772967Y-8308936D02*
X5763444Y-8318460D01*
X5763444Y-8318460D02*
X5744396Y-8327984D01*
X5744396Y-8327984D02*
X5725348Y-8327984D01*
X5725348Y-8327984D02*
X5706301Y-8318460D01*
X5706301Y-8318460D02*
X5696777Y-8308936D01*
X5696777Y-8308936D02*
X5687253Y-8289888D01*
X5687253Y-8289888D02*
X5677729Y-8251793D01*
X5677729Y-8251793D02*
X5677729Y-8204174D01*
X5677729Y-8204174D02*
X5687253Y-8166079D01*
X5687253Y-8166079D02*
X5696777Y-8147031D01*
X5696777Y-8147031D02*
X5706301Y-8137508D01*
X5706301Y-8137508D02*
X5725348Y-8127984D01*
X5963444Y-8127984D02*
X5925348Y-8127984D01*
X5925348Y-8127984D02*
X5906301Y-8137508D01*
X5906301Y-8137508D02*
X5896777Y-8147031D01*
X5896777Y-8147031D02*
X5877729Y-8175603D01*
X5877729Y-8175603D02*
X5868206Y-8213698D01*
X5868206Y-8213698D02*
X5868206Y-8289888D01*
X5868206Y-8289888D02*
X5877729Y-8308936D01*
X5877729Y-8308936D02*
X5887253Y-8318460D01*
X5887253Y-8318460D02*
X5906301Y-8327984D01*
X5906301Y-8327984D02*
X5944396Y-8327984D01*
X5944396Y-8327984D02*
X5963444Y-8318460D01*
X5963444Y-8318460D02*
X5972967Y-8308936D01*
X5972967Y-8308936D02*
X5982491Y-8289888D01*
X5982491Y-8289888D02*
X5982491Y-8242269D01*
X5982491Y-8242269D02*
X5972967Y-8223222D01*
X5972967Y-8223222D02*
X5963444Y-8213698D01*
X5963444Y-8213698D02*
X5944396Y-8204174D01*
X5944396Y-8204174D02*
X5906301Y-8204174D01*
X5906301Y-8204174D02*
X5887253Y-8213698D01*
X5887253Y-8213698D02*
X5877729Y-8223222D01*
X5877729Y-8223222D02*
X5868206Y-8242269D01*
X6153920Y-8127984D02*
X6115825Y-8127984D01*
X6115825Y-8127984D02*
X6096777Y-8137508D01*
X6096777Y-8137508D02*
X6087253Y-8147031D01*
X6087253Y-8147031D02*
X6068206Y-8175603D01*
X6068206Y-8175603D02*
X6058682Y-8213698D01*
X6058682Y-8213698D02*
X6058682Y-8289888D01*
X6058682Y-8289888D02*
X6068206Y-8308936D01*
X6068206Y-8308936D02*
X6077729Y-8318460D01*
X6077729Y-8318460D02*
X6096777Y-8327984D01*
X6096777Y-8327984D02*
X6134872Y-8327984D01*
X6134872Y-8327984D02*
X6153920Y-8318460D01*
X6153920Y-8318460D02*
X6163444Y-8308936D01*
X6163444Y-8308936D02*
X6172967Y-8289888D01*
X6172967Y-8289888D02*
X6172967Y-8242269D01*
X6172967Y-8242269D02*
X6163444Y-8223222D01*
X6163444Y-8223222D02*
X6153920Y-8213698D01*
X6153920Y-8213698D02*
X6134872Y-8204174D01*
X6134872Y-8204174D02*
X6096777Y-8204174D01*
X6096777Y-8204174D02*
X6077729Y-8213698D01*
X6077729Y-8213698D02*
X6068206Y-8223222D01*
X6068206Y-8223222D02*
X6058682Y-8242269D01*
X6268206Y-8327984D02*
X6306301Y-8327984D01*
X6306301Y-8327984D02*
X6325348Y-8318460D01*
X6325348Y-8318460D02*
X6334872Y-8308936D01*
X6334872Y-8308936D02*
X6353920Y-8280365D01*
X6353920Y-8280365D02*
X6363444Y-8242269D01*
X6363444Y-8242269D02*
X6363444Y-8166079D01*
X6363444Y-8166079D02*
X6353920Y-8147031D01*
X6353920Y-8147031D02*
X6344396Y-8137508D01*
X6344396Y-8137508D02*
X6325348Y-8127984D01*
X6325348Y-8127984D02*
X6287253Y-8127984D01*
X6287253Y-8127984D02*
X6268206Y-8137508D01*
X6268206Y-8137508D02*
X6258682Y-8147031D01*
X6258682Y-8147031D02*
X6249158Y-8166079D01*
X6249158Y-8166079D02*
X6249158Y-8213698D01*
X6249158Y-8213698D02*
X6258682Y-8232746D01*
X6258682Y-8232746D02*
X6268206Y-8242269D01*
X6268206Y-8242269D02*
X6287253Y-8251793D01*
X6287253Y-8251793D02*
X6325348Y-8251793D01*
X6325348Y-8251793D02*
X6344396Y-8242269D01*
X6344396Y-8242269D02*
X6353920Y-8232746D01*
X6353920Y-8232746D02*
X6363444Y-8213698D01*
X6439634Y-8127984D02*
X6439634Y-8166079D01*
X6515825Y-8127984D02*
X6515825Y-8166079D01*
X6811063Y-8404174D02*
X6801539Y-8394650D01*
X6801539Y-8394650D02*
X6782491Y-8366079D01*
X6782491Y-8366079D02*
X6772968Y-8347031D01*
X6772968Y-8347031D02*
X6763444Y-8318460D01*
X6763444Y-8318460D02*
X6753920Y-8270841D01*
X6753920Y-8270841D02*
X6753920Y-8232746D01*
X6753920Y-8232746D02*
X6763444Y-8185127D01*
X6763444Y-8185127D02*
X6772968Y-8156555D01*
X6772968Y-8156555D02*
X6782491Y-8137508D01*
X6782491Y-8137508D02*
X6801539Y-8108936D01*
X6801539Y-8108936D02*
X6811063Y-8099412D01*
X6915825Y-8213698D02*
X6896777Y-8204174D01*
X6896777Y-8204174D02*
X6887253Y-8194650D01*
X6887253Y-8194650D02*
X6877729Y-8175603D01*
X6877729Y-8175603D02*
X6877729Y-8166079D01*
X6877729Y-8166079D02*
X6887253Y-8147031D01*
X6887253Y-8147031D02*
X6896777Y-8137508D01*
X6896777Y-8137508D02*
X6915825Y-8127984D01*
X6915825Y-8127984D02*
X6953920Y-8127984D01*
X6953920Y-8127984D02*
X6972968Y-8137508D01*
X6972968Y-8137508D02*
X6982491Y-8147031D01*
X6982491Y-8147031D02*
X6992015Y-8166079D01*
X6992015Y-8166079D02*
X6992015Y-8175603D01*
X6992015Y-8175603D02*
X6982491Y-8194650D01*
X6982491Y-8194650D02*
X6972968Y-8204174D01*
X6972968Y-8204174D02*
X6953920Y-8213698D01*
X6953920Y-8213698D02*
X6915825Y-8213698D01*
X6915825Y-8213698D02*
X6896777Y-8223222D01*
X6896777Y-8223222D02*
X6887253Y-8232746D01*
X6887253Y-8232746D02*
X6877729Y-8251793D01*
X6877729Y-8251793D02*
X6877729Y-8289888D01*
X6877729Y-8289888D02*
X6887253Y-8308936D01*
X6887253Y-8308936D02*
X6896777Y-8318460D01*
X6896777Y-8318460D02*
X6915825Y-8327984D01*
X6915825Y-8327984D02*
X6953920Y-8327984D01*
X6953920Y-8327984D02*
X6972968Y-8318460D01*
X6972968Y-8318460D02*
X6982491Y-8308936D01*
X6982491Y-8308936D02*
X6992015Y-8289888D01*
X6992015Y-8289888D02*
X6992015Y-8251793D01*
X6992015Y-8251793D02*
X6982491Y-8232746D01*
X6982491Y-8232746D02*
X6972968Y-8223222D01*
X6972968Y-8223222D02*
X6953920Y-8213698D01*
X7230110Y-8327984D02*
X7230110Y-8127984D01*
X7315825Y-8327984D02*
X7315825Y-8223222D01*
X7315825Y-8223222D02*
X7306301Y-8204174D01*
X7306301Y-8204174D02*
X7287253Y-8194650D01*
X7287253Y-8194650D02*
X7258682Y-8194650D01*
X7258682Y-8194650D02*
X7239634Y-8204174D01*
X7239634Y-8204174D02*
X7230110Y-8213698D01*
X7439634Y-8327984D02*
X7420587Y-8318460D01*
X7420587Y-8318460D02*
X7411063Y-8308936D01*
X7411063Y-8308936D02*
X7401539Y-8289888D01*
X7401539Y-8289888D02*
X7401539Y-8232746D01*
X7401539Y-8232746D02*
X7411063Y-8213698D01*
X7411063Y-8213698D02*
X7420587Y-8204174D01*
X7420587Y-8204174D02*
X7439634Y-8194650D01*
X7439634Y-8194650D02*
X7468206Y-8194650D01*
X7468206Y-8194650D02*
X7487253Y-8204174D01*
X7487253Y-8204174D02*
X7496777Y-8213698D01*
X7496777Y-8213698D02*
X7506301Y-8232746D01*
X7506301Y-8232746D02*
X7506301Y-8289888D01*
X7506301Y-8289888D02*
X7496777Y-8308936D01*
X7496777Y-8308936D02*
X7487253Y-8318460D01*
X7487253Y-8318460D02*
X7468206Y-8327984D01*
X7468206Y-8327984D02*
X7439634Y-8327984D01*
X7620587Y-8327984D02*
X7601539Y-8318460D01*
X7601539Y-8318460D02*
X7592015Y-8299412D01*
X7592015Y-8299412D02*
X7592015Y-8127984D01*
X7772968Y-8318460D02*
X7753920Y-8327984D01*
X7753920Y-8327984D02*
X7715825Y-8327984D01*
X7715825Y-8327984D02*
X7696777Y-8318460D01*
X7696777Y-8318460D02*
X7687253Y-8299412D01*
X7687253Y-8299412D02*
X7687253Y-8223222D01*
X7687253Y-8223222D02*
X7696777Y-8204174D01*
X7696777Y-8204174D02*
X7715825Y-8194650D01*
X7715825Y-8194650D02*
X7753920Y-8194650D01*
X7753920Y-8194650D02*
X7772968Y-8204174D01*
X7772968Y-8204174D02*
X7782491Y-8223222D01*
X7782491Y-8223222D02*
X7782491Y-8242269D01*
X7782491Y-8242269D02*
X7687253Y-8261317D01*
X7858682Y-8318460D02*
X7877730Y-8327984D01*
X7877730Y-8327984D02*
X7915825Y-8327984D01*
X7915825Y-8327984D02*
X7934872Y-8318460D01*
X7934872Y-8318460D02*
X7944396Y-8299412D01*
X7944396Y-8299412D02*
X7944396Y-8289888D01*
X7944396Y-8289888D02*
X7934872Y-8270841D01*
X7934872Y-8270841D02*
X7915825Y-8261317D01*
X7915825Y-8261317D02*
X7887253Y-8261317D01*
X7887253Y-8261317D02*
X7868206Y-8251793D01*
X7868206Y-8251793D02*
X7858682Y-8232746D01*
X7858682Y-8232746D02*
X7858682Y-8223222D01*
X7858682Y-8223222D02*
X7868206Y-8204174D01*
X7868206Y-8204174D02*
X7887253Y-8194650D01*
X7887253Y-8194650D02*
X7915825Y-8194650D01*
X7915825Y-8194650D02*
X7934872Y-8204174D01*
X8011063Y-8404174D02*
X8020587Y-8394650D01*
X8020587Y-8394650D02*
X8039634Y-8366079D01*
X8039634Y-8366079D02*
X8049158Y-8347031D01*
X8049158Y-8347031D02*
X8058682Y-8318460D01*
X8058682Y-8318460D02*
X8068206Y-8270841D01*
X8068206Y-8270841D02*
X8068206Y-8232746D01*
X8068206Y-8232746D02*
X8058682Y-8185127D01*
X8058682Y-8185127D02*
X8049158Y-8156555D01*
X8049158Y-8156555D02*
X8039634Y-8137508D01*
X8039634Y-8137508D02*
X8020587Y-8108936D01*
X8020587Y-8108936D02*
X8011063Y-8099412D01*
M02*
