G04 #@! TF.GenerationSoftware,KiCad,Pcbnew,(5.1.9)-1*
G04 #@! TF.CreationDate,2021-03-08T16:55:06+09:00*
G04 #@! TF.ProjectId,chassis,63686173-7369-4732-9e6b-696361645f70,rev?*
G04 #@! TF.SameCoordinates,Original*
G04 #@! TF.FileFunction,Legend,Top*
G04 #@! TF.FilePolarity,Positive*
%FSLAX46Y46*%
G04 Gerber Fmt 4.6, Leading zero omitted, Abs format (unit mm)*
G04 Created by KiCad (PCBNEW (5.1.9)-1) date 2021-03-08 16:55:06*
%MOMM*%
%LPD*%
G01*
G04 APERTURE LIST*
%ADD10C,0.150000*%
%ADD11C,0.120000*%
%ADD12C,0.300000*%
%ADD13C,0.200000*%
G04 APERTURE END LIST*
D10*
X46315333Y-53355904D02*
X46315333Y-53832095D01*
X46029619Y-53260666D02*
X47029619Y-53594000D01*
X46029619Y-53927333D01*
X42251333Y-53355904D02*
X42251333Y-53832095D01*
X41965619Y-53260666D02*
X42965619Y-53594000D01*
X41965619Y-53927333D01*
X38187333Y-53355904D02*
X38187333Y-53832095D01*
X37901619Y-53260666D02*
X38901619Y-53594000D01*
X37901619Y-53927333D01*
X37901619Y-50792095D02*
X38901619Y-50792095D01*
X37901619Y-51363523D02*
X38473047Y-50934952D01*
X38901619Y-51363523D02*
X38330190Y-50792095D01*
X41965619Y-50792095D02*
X42965619Y-50792095D01*
X41965619Y-51363523D02*
X42537047Y-50934952D01*
X42965619Y-51363523D02*
X42394190Y-50792095D01*
X46029619Y-50792095D02*
X47029619Y-50792095D01*
X46029619Y-51363523D02*
X46601047Y-50934952D01*
X47029619Y-51363523D02*
X46458190Y-50792095D01*
D11*
X59182000Y-35052000D02*
X59182000Y-35306000D01*
X51308000Y-34544000D02*
X51816000Y-35052000D01*
X51308000Y-34544000D02*
X51816000Y-34036000D01*
X58674000Y-34544000D02*
X51308000Y-34544000D01*
X59182000Y-35052000D02*
X58674000Y-34544000D01*
X65786000Y-42672000D02*
X65278000Y-42672000D01*
X65786000Y-42164000D02*
X65786000Y-42672000D01*
X65786000Y-42672000D02*
X65786000Y-42164000D01*
X65024000Y-41910000D02*
X65786000Y-42672000D01*
X65024000Y-40894000D02*
X65024000Y-41910000D01*
X51816000Y-43815000D02*
X52070000Y-43561000D01*
X51562000Y-43561000D02*
X51816000Y-43815000D01*
X51816000Y-43053000D02*
X51816000Y-43815000D01*
X52324000Y-42545000D02*
X51816000Y-43053000D01*
D12*
X64181904Y-36020476D02*
X63896190Y-35925238D01*
X63420000Y-35925238D01*
X63229523Y-36020476D01*
X63134285Y-36115714D01*
X63039047Y-36306190D01*
X63039047Y-36496666D01*
X63134285Y-36687142D01*
X63229523Y-36782380D01*
X63420000Y-36877619D01*
X63800952Y-36972857D01*
X63991428Y-37068095D01*
X64086666Y-37163333D01*
X64181904Y-37353809D01*
X64181904Y-37544285D01*
X64086666Y-37734761D01*
X63991428Y-37830000D01*
X63800952Y-37925238D01*
X63324761Y-37925238D01*
X63039047Y-37830000D01*
X62467619Y-37258571D02*
X61705714Y-37258571D01*
X62181904Y-37925238D02*
X62181904Y-36210952D01*
X62086666Y-36020476D01*
X61896190Y-35925238D01*
X61705714Y-35925238D01*
X60277142Y-36020476D02*
X60467619Y-35925238D01*
X60848571Y-35925238D01*
X61039047Y-36020476D01*
X61134285Y-36210952D01*
X61134285Y-36972857D01*
X61039047Y-37163333D01*
X60848571Y-37258571D01*
X60467619Y-37258571D01*
X60277142Y-37163333D01*
X60181904Y-36972857D01*
X60181904Y-36782380D01*
X61134285Y-36591904D01*
X58562857Y-36020476D02*
X58753333Y-35925238D01*
X59134285Y-35925238D01*
X59324761Y-36020476D01*
X59420000Y-36210952D01*
X59420000Y-36972857D01*
X59324761Y-37163333D01*
X59134285Y-37258571D01*
X58753333Y-37258571D01*
X58562857Y-37163333D01*
X58467619Y-36972857D01*
X58467619Y-36782380D01*
X59420000Y-36591904D01*
X57610476Y-35925238D02*
X57610476Y-37258571D01*
X57610476Y-36877619D02*
X57515238Y-37068095D01*
X57420000Y-37163333D01*
X57229523Y-37258571D01*
X57039047Y-37258571D01*
X56372380Y-35925238D02*
X56372380Y-37258571D01*
X56372380Y-37925238D02*
X56467619Y-37830000D01*
X56372380Y-37734761D01*
X56277142Y-37830000D01*
X56372380Y-37925238D01*
X56372380Y-37734761D01*
X55420000Y-37258571D02*
X55420000Y-35925238D01*
X55420000Y-37068095D02*
X55324761Y-37163333D01*
X55134285Y-37258571D01*
X54848571Y-37258571D01*
X54658095Y-37163333D01*
X54562857Y-36972857D01*
X54562857Y-35925238D01*
X52753333Y-37258571D02*
X52753333Y-35639523D01*
X52848571Y-35449047D01*
X52943809Y-35353809D01*
X53134285Y-35258571D01*
X53420000Y-35258571D01*
X53610476Y-35353809D01*
X52753333Y-36020476D02*
X52943809Y-35925238D01*
X53324761Y-35925238D01*
X53515238Y-36020476D01*
X53610476Y-36115714D01*
X53705714Y-36306190D01*
X53705714Y-36877619D01*
X53610476Y-37068095D01*
X53515238Y-37163333D01*
X53324761Y-37258571D01*
X52943809Y-37258571D01*
X52753333Y-37163333D01*
X70485000Y-53848000D02*
X70993000Y-53848000D01*
D11*
X70612000Y-53467000D02*
X70104000Y-53467000D01*
X70612000Y-54610000D02*
X70612000Y-53467000D01*
X70104000Y-54610000D02*
X70612000Y-54610000D01*
X70104000Y-53467000D02*
X70104000Y-54610000D01*
D12*
X63451809Y-41640238D02*
X64404190Y-41640238D01*
X64404190Y-43640238D01*
X62785142Y-41640238D02*
X62785142Y-42973571D01*
X62785142Y-43640238D02*
X62880380Y-43545000D01*
X62785142Y-43449761D01*
X62689904Y-43545000D01*
X62785142Y-43640238D01*
X62785142Y-43449761D01*
X60975619Y-42973571D02*
X60975619Y-41354523D01*
X61070857Y-41164047D01*
X61166095Y-41068809D01*
X61356571Y-40973571D01*
X61642285Y-40973571D01*
X61832761Y-41068809D01*
X60975619Y-41735476D02*
X61166095Y-41640238D01*
X61547047Y-41640238D01*
X61737523Y-41735476D01*
X61832761Y-41830714D01*
X61928000Y-42021190D01*
X61928000Y-42592619D01*
X61832761Y-42783095D01*
X61737523Y-42878333D01*
X61547047Y-42973571D01*
X61166095Y-42973571D01*
X60975619Y-42878333D01*
X60023238Y-41640238D02*
X60023238Y-43640238D01*
X59166095Y-41640238D02*
X59166095Y-42687857D01*
X59261333Y-42878333D01*
X59451809Y-42973571D01*
X59737523Y-42973571D01*
X59928000Y-42878333D01*
X60023238Y-42783095D01*
X58499428Y-42973571D02*
X57737523Y-42973571D01*
X58213714Y-43640238D02*
X58213714Y-41925952D01*
X58118476Y-41735476D01*
X57928000Y-41640238D01*
X57737523Y-41640238D01*
X57070857Y-41640238D02*
X57070857Y-42973571D01*
X57070857Y-43640238D02*
X57166095Y-43545000D01*
X57070857Y-43449761D01*
X56975619Y-43545000D01*
X57070857Y-43640238D01*
X57070857Y-43449761D01*
X56118476Y-42973571D02*
X56118476Y-41640238D01*
X56118476Y-42783095D02*
X56023238Y-42878333D01*
X55832761Y-42973571D01*
X55547047Y-42973571D01*
X55356571Y-42878333D01*
X55261333Y-42687857D01*
X55261333Y-41640238D01*
X53451809Y-42973571D02*
X53451809Y-41354523D01*
X53547047Y-41164047D01*
X53642285Y-41068809D01*
X53832761Y-40973571D01*
X54118476Y-40973571D01*
X54308952Y-41068809D01*
X53451809Y-41735476D02*
X53642285Y-41640238D01*
X54023238Y-41640238D01*
X54213714Y-41735476D01*
X54308952Y-41830714D01*
X54404190Y-42021190D01*
X54404190Y-42592619D01*
X54308952Y-42783095D01*
X54213714Y-42878333D01*
X54023238Y-42973571D01*
X53642285Y-42973571D01*
X53451809Y-42878333D01*
X69579095Y-38719238D02*
X69579095Y-40719238D01*
X69579095Y-39766857D02*
X68436238Y-39766857D01*
X68436238Y-38719238D02*
X68436238Y-40719238D01*
X66626714Y-38719238D02*
X66626714Y-39766857D01*
X66721952Y-39957333D01*
X66912428Y-40052571D01*
X67293380Y-40052571D01*
X67483857Y-39957333D01*
X66626714Y-38814476D02*
X66817190Y-38719238D01*
X67293380Y-38719238D01*
X67483857Y-38814476D01*
X67579095Y-39004952D01*
X67579095Y-39195428D01*
X67483857Y-39385904D01*
X67293380Y-39481142D01*
X66817190Y-39481142D01*
X66626714Y-39576380D01*
X65674333Y-40052571D02*
X65674333Y-38719238D01*
X65674333Y-39862095D02*
X65579095Y-39957333D01*
X65388619Y-40052571D01*
X65102904Y-40052571D01*
X64912428Y-39957333D01*
X64817190Y-39766857D01*
X64817190Y-38719238D01*
X63007666Y-38719238D02*
X63007666Y-40719238D01*
X63007666Y-38814476D02*
X63198142Y-38719238D01*
X63579095Y-38719238D01*
X63769571Y-38814476D01*
X63864809Y-38909714D01*
X63960047Y-39100190D01*
X63960047Y-39671619D01*
X63864809Y-39862095D01*
X63769571Y-39957333D01*
X63579095Y-40052571D01*
X63198142Y-40052571D01*
X63007666Y-39957333D01*
X59864809Y-39766857D02*
X59579095Y-39671619D01*
X59483857Y-39576380D01*
X59388619Y-39385904D01*
X59388619Y-39100190D01*
X59483857Y-38909714D01*
X59579095Y-38814476D01*
X59769571Y-38719238D01*
X60531476Y-38719238D01*
X60531476Y-40719238D01*
X59864809Y-40719238D01*
X59674333Y-40624000D01*
X59579095Y-40528761D01*
X59483857Y-40338285D01*
X59483857Y-40147809D01*
X59579095Y-39957333D01*
X59674333Y-39862095D01*
X59864809Y-39766857D01*
X60531476Y-39766857D01*
X58531476Y-38719238D02*
X58531476Y-40052571D01*
X58531476Y-39671619D02*
X58436238Y-39862095D01*
X58341000Y-39957333D01*
X58150523Y-40052571D01*
X57960047Y-40052571D01*
X56436238Y-38719238D02*
X56436238Y-39766857D01*
X56531476Y-39957333D01*
X56721952Y-40052571D01*
X57102904Y-40052571D01*
X57293380Y-39957333D01*
X56436238Y-38814476D02*
X56626714Y-38719238D01*
X57102904Y-38719238D01*
X57293380Y-38814476D01*
X57388619Y-39004952D01*
X57388619Y-39195428D01*
X57293380Y-39385904D01*
X57102904Y-39481142D01*
X56626714Y-39481142D01*
X56436238Y-39576380D01*
X55483857Y-38719238D02*
X55483857Y-40719238D01*
X55293380Y-39481142D02*
X54721952Y-38719238D01*
X54721952Y-40052571D02*
X55483857Y-39290666D01*
X53102904Y-38814476D02*
X53293380Y-38719238D01*
X53674333Y-38719238D01*
X53864809Y-38814476D01*
X53960047Y-39004952D01*
X53960047Y-39766857D01*
X53864809Y-39957333D01*
X53674333Y-40052571D01*
X53293380Y-40052571D01*
X53102904Y-39957333D01*
X53007666Y-39766857D01*
X53007666Y-39576380D01*
X53960047Y-39385904D01*
D11*
X65786000Y-57277000D02*
X64349160Y-57277000D01*
X65786000Y-57277000D02*
X65786000Y-58713840D01*
X65786000Y-57277000D02*
X64770000Y-58293000D01*
X65786000Y-57277000D02*
X66802000Y-58293000D01*
X67222841Y-57277000D02*
G75*
G03*
X67222841Y-57277000I-1436841J0D01*
G01*
X64516000Y-53721000D02*
X64135000Y-53340000D01*
X64516000Y-52959000D02*
X64516000Y-53721000D01*
X64135000Y-53340000D02*
X64516000Y-52959000D01*
X65405000Y-48895000D02*
X66040000Y-49530000D01*
X65405000Y-50165000D02*
X65405000Y-48895000D01*
X66040000Y-49530000D02*
X65405000Y-50165000D01*
X50292000Y-59055000D02*
X36068000Y-59055000D01*
X50292000Y-56515000D02*
X50292000Y-59055000D01*
X36068000Y-56515000D02*
X50292000Y-56515000D01*
X36068000Y-59055000D02*
X36068000Y-56515000D01*
D10*
X48791047Y-57332619D02*
X49124380Y-57808809D01*
X49362476Y-57332619D02*
X49362476Y-58332619D01*
X48981523Y-58332619D01*
X48886285Y-58285000D01*
X48838666Y-58237380D01*
X48791047Y-58142142D01*
X48791047Y-57999285D01*
X48838666Y-57904047D01*
X48886285Y-57856428D01*
X48981523Y-57808809D01*
X49362476Y-57808809D01*
X48410095Y-57618333D02*
X47933904Y-57618333D01*
X48505333Y-57332619D02*
X48172000Y-58332619D01*
X47838666Y-57332619D01*
X47505333Y-57332619D02*
X47505333Y-58332619D01*
X47172000Y-57618333D01*
X46838666Y-58332619D01*
X46838666Y-57332619D01*
X46362476Y-57332619D02*
X46362476Y-58332619D01*
X45791047Y-57332619D01*
X45791047Y-58332619D01*
X44695809Y-58332619D02*
X44362476Y-57332619D01*
X44029142Y-58332619D01*
X43172000Y-57332619D02*
X43743428Y-57332619D01*
X43457714Y-57332619D02*
X43457714Y-58332619D01*
X43552952Y-58189761D01*
X43648190Y-58094523D01*
X43743428Y-58046904D01*
X41410095Y-57427857D02*
X41457714Y-57380238D01*
X41600571Y-57332619D01*
X41695809Y-57332619D01*
X41838666Y-57380238D01*
X41933904Y-57475476D01*
X41981523Y-57570714D01*
X42029142Y-57761190D01*
X42029142Y-57904047D01*
X41981523Y-58094523D01*
X41933904Y-58189761D01*
X41838666Y-58285000D01*
X41695809Y-58332619D01*
X41600571Y-58332619D01*
X41457714Y-58285000D01*
X41410095Y-58237380D01*
X40981523Y-57332619D02*
X40981523Y-58332619D01*
X40552952Y-57332619D02*
X40552952Y-57856428D01*
X40600571Y-57951666D01*
X40695809Y-57999285D01*
X40838666Y-57999285D01*
X40933904Y-57951666D01*
X40981523Y-57904047D01*
X39648190Y-57332619D02*
X39648190Y-57856428D01*
X39695809Y-57951666D01*
X39791047Y-57999285D01*
X39981523Y-57999285D01*
X40076761Y-57951666D01*
X39648190Y-57380238D02*
X39743428Y-57332619D01*
X39981523Y-57332619D01*
X40076761Y-57380238D01*
X40124380Y-57475476D01*
X40124380Y-57570714D01*
X40076761Y-57665952D01*
X39981523Y-57713571D01*
X39743428Y-57713571D01*
X39648190Y-57761190D01*
X39219619Y-57380238D02*
X39124380Y-57332619D01*
X38933904Y-57332619D01*
X38838666Y-57380238D01*
X38791047Y-57475476D01*
X38791047Y-57523095D01*
X38838666Y-57618333D01*
X38933904Y-57665952D01*
X39076761Y-57665952D01*
X39172000Y-57713571D01*
X39219619Y-57808809D01*
X39219619Y-57856428D01*
X39172000Y-57951666D01*
X39076761Y-57999285D01*
X38933904Y-57999285D01*
X38838666Y-57951666D01*
X38410095Y-57380238D02*
X38314857Y-57332619D01*
X38124380Y-57332619D01*
X38029142Y-57380238D01*
X37981523Y-57475476D01*
X37981523Y-57523095D01*
X38029142Y-57618333D01*
X38124380Y-57665952D01*
X38267238Y-57665952D01*
X38362476Y-57713571D01*
X38410095Y-57808809D01*
X38410095Y-57856428D01*
X38362476Y-57951666D01*
X38267238Y-57999285D01*
X38124380Y-57999285D01*
X38029142Y-57951666D01*
X37552952Y-57332619D02*
X37552952Y-57999285D01*
X37552952Y-58332619D02*
X37600571Y-58285000D01*
X37552952Y-58237380D01*
X37505333Y-58285000D01*
X37552952Y-58332619D01*
X37552952Y-58237380D01*
X37124380Y-57380238D02*
X37029142Y-57332619D01*
X36838666Y-57332619D01*
X36743428Y-57380238D01*
X36695809Y-57475476D01*
X36695809Y-57523095D01*
X36743428Y-57618333D01*
X36838666Y-57665952D01*
X36981523Y-57665952D01*
X37076761Y-57713571D01*
X37124380Y-57808809D01*
X37124380Y-57856428D01*
X37076761Y-57951666D01*
X36981523Y-57999285D01*
X36838666Y-57999285D01*
X36743428Y-57951666D01*
D11*
X50874000Y-36576000D02*
X50874000Y-34182000D01*
X42926000Y-42382000D02*
X49022000Y-42382000D01*
X41074000Y-36576000D02*
X41074000Y-33882000D01*
D13*
X51531000Y-56719000D02*
X63531000Y-56719000D01*
X51231000Y-44419000D02*
X51231000Y-56419000D01*
X63531000Y-44119000D02*
X51531000Y-44119000D01*
X63831000Y-56419000D02*
X63831000Y-44419000D01*
D11*
X49514000Y-50378000D02*
X49514000Y-54228000D01*
X47514000Y-50378000D02*
X47514000Y-54228000D01*
X49514000Y-50378000D02*
X47514000Y-50378000D01*
X45386500Y-50378000D02*
X45386500Y-54228000D01*
X43386500Y-50378000D02*
X43386500Y-54228000D01*
X45386500Y-50378000D02*
X43386500Y-50378000D01*
X41259000Y-50378000D02*
X41259000Y-54228000D01*
X39259000Y-50378000D02*
X39259000Y-54228000D01*
X41259000Y-50378000D02*
X39259000Y-50378000D01*
X36832000Y-52564420D02*
X36832000Y-52845580D01*
X35812000Y-52564420D02*
X35812000Y-52845580D01*
X48909500Y-48497258D02*
X48909500Y-48022742D01*
X47864500Y-48497258D02*
X47864500Y-48022742D01*
X45988500Y-48022742D02*
X45988500Y-48497258D01*
X44943500Y-48022742D02*
X44943500Y-48497258D01*
X41895500Y-48497258D02*
X41895500Y-48022742D01*
X42940500Y-48497258D02*
X42940500Y-48022742D01*
X38847500Y-48497258D02*
X38847500Y-48022742D01*
X39892500Y-48497258D02*
X39892500Y-48022742D01*
X36844500Y-48022742D02*
X36844500Y-48497258D01*
X35799500Y-48022742D02*
X35799500Y-48497258D01*
X66354000Y-63500000D02*
X66354000Y-64830000D01*
X66354000Y-64830000D02*
X65024000Y-64830000D01*
X66354000Y-62230000D02*
X63754000Y-62230000D01*
X63754000Y-62230000D02*
X63754000Y-64830000D01*
X63754000Y-64830000D02*
X33214000Y-64830000D01*
X33214000Y-59630000D02*
X33214000Y-64830000D01*
X66354000Y-59630000D02*
X33214000Y-59630000D01*
X66354000Y-59630000D02*
X66354000Y-62230000D01*
D10*
X66280000Y-51830000D02*
X66280000Y-43230000D01*
X70880000Y-51830000D02*
X70880000Y-49630000D01*
X70880000Y-45530000D02*
X70880000Y-43230000D01*
X43600761Y-43759380D02*
X43267428Y-43283190D01*
X43029333Y-43759380D02*
X43029333Y-42759380D01*
X43410285Y-42759380D01*
X43505523Y-42807000D01*
X43553142Y-42854619D01*
X43600761Y-42949857D01*
X43600761Y-43092714D01*
X43553142Y-43187952D01*
X43505523Y-43235571D01*
X43410285Y-43283190D01*
X43029333Y-43283190D01*
X43886476Y-42759380D02*
X44219809Y-43759380D01*
X44553142Y-42759380D01*
X44791238Y-42759380D02*
X45410285Y-42759380D01*
X45076952Y-43140333D01*
X45219809Y-43140333D01*
X45315047Y-43187952D01*
X45362666Y-43235571D01*
X45410285Y-43330809D01*
X45410285Y-43568904D01*
X45362666Y-43664142D01*
X45315047Y-43711761D01*
X45219809Y-43759380D01*
X44934095Y-43759380D01*
X44838857Y-43711761D01*
X44791238Y-43664142D01*
X60642666Y-58062761D02*
X60785523Y-58110380D01*
X61023619Y-58110380D01*
X61118857Y-58062761D01*
X61166476Y-58015142D01*
X61214095Y-57919904D01*
X61214095Y-57824666D01*
X61166476Y-57729428D01*
X61118857Y-57681809D01*
X61023619Y-57634190D01*
X60833142Y-57586571D01*
X60737904Y-57538952D01*
X60690285Y-57491333D01*
X60642666Y-57396095D01*
X60642666Y-57300857D01*
X60690285Y-57205619D01*
X60737904Y-57158000D01*
X60833142Y-57110380D01*
X61071238Y-57110380D01*
X61214095Y-57158000D01*
X61547428Y-57110380D02*
X61785523Y-58110380D01*
X61976000Y-57396095D01*
X62166476Y-58110380D01*
X62404571Y-57110380D01*
X62690285Y-57110380D02*
X63309333Y-57110380D01*
X62976000Y-57491333D01*
X63118857Y-57491333D01*
X63214095Y-57538952D01*
X63261714Y-57586571D01*
X63309333Y-57681809D01*
X63309333Y-57919904D01*
X63261714Y-58015142D01*
X63214095Y-58062761D01*
X63118857Y-58110380D01*
X62833142Y-58110380D01*
X62737904Y-58062761D01*
X62690285Y-58015142D01*
X61240523Y-50676142D02*
X61192904Y-50723761D01*
X61050047Y-50771380D01*
X60954809Y-50771380D01*
X60811952Y-50723761D01*
X60716714Y-50628523D01*
X60669095Y-50533285D01*
X60621476Y-50342809D01*
X60621476Y-50199952D01*
X60669095Y-50009476D01*
X60716714Y-49914238D01*
X60811952Y-49819000D01*
X60954809Y-49771380D01*
X61050047Y-49771380D01*
X61192904Y-49819000D01*
X61240523Y-49866619D01*
X46847333Y-54951380D02*
X47418761Y-54951380D01*
X47133047Y-55951380D02*
X47133047Y-54951380D01*
X47609238Y-54951380D02*
X47942571Y-55951380D01*
X48275904Y-54951380D01*
X48561619Y-55903761D02*
X48704476Y-55951380D01*
X48942571Y-55951380D01*
X49037809Y-55903761D01*
X49085428Y-55856142D01*
X49133047Y-55760904D01*
X49133047Y-55665666D01*
X49085428Y-55570428D01*
X49037809Y-55522809D01*
X48942571Y-55475190D01*
X48752095Y-55427571D01*
X48656857Y-55379952D01*
X48609238Y-55332333D01*
X48561619Y-55237095D01*
X48561619Y-55141857D01*
X48609238Y-55046619D01*
X48656857Y-54999000D01*
X48752095Y-54951380D01*
X48990190Y-54951380D01*
X49133047Y-54999000D01*
X49990190Y-54951380D02*
X49799714Y-54951380D01*
X49704476Y-54999000D01*
X49656857Y-55046619D01*
X49561619Y-55189476D01*
X49514000Y-55379952D01*
X49514000Y-55760904D01*
X49561619Y-55856142D01*
X49609238Y-55903761D01*
X49704476Y-55951380D01*
X49894952Y-55951380D01*
X49990190Y-55903761D01*
X50037809Y-55856142D01*
X50085428Y-55760904D01*
X50085428Y-55522809D01*
X50037809Y-55427571D01*
X49990190Y-55379952D01*
X49894952Y-55332333D01*
X49704476Y-55332333D01*
X49609238Y-55379952D01*
X49561619Y-55427571D01*
X49514000Y-55522809D01*
X42719833Y-54951380D02*
X43291261Y-54951380D01*
X43005547Y-55951380D02*
X43005547Y-54951380D01*
X43481738Y-54951380D02*
X43815071Y-55951380D01*
X44148404Y-54951380D01*
X44434119Y-55903761D02*
X44576976Y-55951380D01*
X44815071Y-55951380D01*
X44910309Y-55903761D01*
X44957928Y-55856142D01*
X45005547Y-55760904D01*
X45005547Y-55665666D01*
X44957928Y-55570428D01*
X44910309Y-55522809D01*
X44815071Y-55475190D01*
X44624595Y-55427571D01*
X44529357Y-55379952D01*
X44481738Y-55332333D01*
X44434119Y-55237095D01*
X44434119Y-55141857D01*
X44481738Y-55046619D01*
X44529357Y-54999000D01*
X44624595Y-54951380D01*
X44862690Y-54951380D01*
X45005547Y-54999000D01*
X45910309Y-54951380D02*
X45434119Y-54951380D01*
X45386500Y-55427571D01*
X45434119Y-55379952D01*
X45529357Y-55332333D01*
X45767452Y-55332333D01*
X45862690Y-55379952D01*
X45910309Y-55427571D01*
X45957928Y-55522809D01*
X45957928Y-55760904D01*
X45910309Y-55856142D01*
X45862690Y-55903761D01*
X45767452Y-55951380D01*
X45529357Y-55951380D01*
X45434119Y-55903761D01*
X45386500Y-55856142D01*
X38592333Y-54951380D02*
X39163761Y-54951380D01*
X38878047Y-55951380D02*
X38878047Y-54951380D01*
X39354238Y-54951380D02*
X39687571Y-55951380D01*
X40020904Y-54951380D01*
X40306619Y-55903761D02*
X40449476Y-55951380D01*
X40687571Y-55951380D01*
X40782809Y-55903761D01*
X40830428Y-55856142D01*
X40878047Y-55760904D01*
X40878047Y-55665666D01*
X40830428Y-55570428D01*
X40782809Y-55522809D01*
X40687571Y-55475190D01*
X40497095Y-55427571D01*
X40401857Y-55379952D01*
X40354238Y-55332333D01*
X40306619Y-55237095D01*
X40306619Y-55141857D01*
X40354238Y-55046619D01*
X40401857Y-54999000D01*
X40497095Y-54951380D01*
X40735190Y-54951380D01*
X40878047Y-54999000D01*
X41735190Y-55284714D02*
X41735190Y-55951380D01*
X41497095Y-54903761D02*
X41259000Y-55618047D01*
X41878047Y-55618047D01*
X36155333Y-55348142D02*
X36107714Y-55395761D01*
X35964857Y-55443380D01*
X35869619Y-55443380D01*
X35726761Y-55395761D01*
X35631523Y-55300523D01*
X35583904Y-55205285D01*
X35536285Y-55014809D01*
X35536285Y-54871952D01*
X35583904Y-54681476D01*
X35631523Y-54586238D01*
X35726761Y-54491000D01*
X35869619Y-54443380D01*
X35964857Y-54443380D01*
X36107714Y-54491000D01*
X36155333Y-54538619D01*
X37012476Y-54776714D02*
X37012476Y-55443380D01*
X36774380Y-54395761D02*
X36536285Y-55110047D01*
X37155333Y-55110047D01*
X48379142Y-46553380D02*
X48045809Y-46077190D01*
X47807714Y-46553380D02*
X47807714Y-45553380D01*
X48188666Y-45553380D01*
X48283904Y-45601000D01*
X48331523Y-45648619D01*
X48379142Y-45743857D01*
X48379142Y-45886714D01*
X48331523Y-45981952D01*
X48283904Y-46029571D01*
X48188666Y-46077190D01*
X47807714Y-46077190D01*
X49331523Y-46553380D02*
X48760095Y-46553380D01*
X49045809Y-46553380D02*
X49045809Y-45553380D01*
X48950571Y-45696238D01*
X48855333Y-45791476D01*
X48760095Y-45839095D01*
X50283904Y-46553380D02*
X49712476Y-46553380D01*
X49998190Y-46553380D02*
X49998190Y-45553380D01*
X49902952Y-45696238D01*
X49807714Y-45791476D01*
X49712476Y-45839095D01*
X44950142Y-46553380D02*
X44616809Y-46077190D01*
X44378714Y-46553380D02*
X44378714Y-45553380D01*
X44759666Y-45553380D01*
X44854904Y-45601000D01*
X44902523Y-45648619D01*
X44950142Y-45743857D01*
X44950142Y-45886714D01*
X44902523Y-45981952D01*
X44854904Y-46029571D01*
X44759666Y-46077190D01*
X44378714Y-46077190D01*
X45902523Y-46553380D02*
X45331095Y-46553380D01*
X45616809Y-46553380D02*
X45616809Y-45553380D01*
X45521571Y-45696238D01*
X45426333Y-45791476D01*
X45331095Y-45839095D01*
X46521571Y-45553380D02*
X46616809Y-45553380D01*
X46712047Y-45601000D01*
X46759666Y-45648619D01*
X46807285Y-45743857D01*
X46854904Y-45934333D01*
X46854904Y-46172428D01*
X46807285Y-46362904D01*
X46759666Y-46458142D01*
X46712047Y-46505761D01*
X46616809Y-46553380D01*
X46521571Y-46553380D01*
X46426333Y-46505761D01*
X46378714Y-46458142D01*
X46331095Y-46362904D01*
X46283476Y-46172428D01*
X46283476Y-45934333D01*
X46331095Y-45743857D01*
X46378714Y-45648619D01*
X46426333Y-45601000D01*
X46521571Y-45553380D01*
X42251333Y-46553380D02*
X41918000Y-46077190D01*
X41679904Y-46553380D02*
X41679904Y-45553380D01*
X42060857Y-45553380D01*
X42156095Y-45601000D01*
X42203714Y-45648619D01*
X42251333Y-45743857D01*
X42251333Y-45886714D01*
X42203714Y-45981952D01*
X42156095Y-46029571D01*
X42060857Y-46077190D01*
X41679904Y-46077190D01*
X42727523Y-46553380D02*
X42918000Y-46553380D01*
X43013238Y-46505761D01*
X43060857Y-46458142D01*
X43156095Y-46315285D01*
X43203714Y-46124809D01*
X43203714Y-45743857D01*
X43156095Y-45648619D01*
X43108476Y-45601000D01*
X43013238Y-45553380D01*
X42822761Y-45553380D01*
X42727523Y-45601000D01*
X42679904Y-45648619D01*
X42632285Y-45743857D01*
X42632285Y-45981952D01*
X42679904Y-46077190D01*
X42727523Y-46124809D01*
X42822761Y-46172428D01*
X43013238Y-46172428D01*
X43108476Y-46124809D01*
X43156095Y-46077190D01*
X43203714Y-45981952D01*
X39203333Y-46553380D02*
X38870000Y-46077190D01*
X38631904Y-46553380D02*
X38631904Y-45553380D01*
X39012857Y-45553380D01*
X39108095Y-45601000D01*
X39155714Y-45648619D01*
X39203333Y-45743857D01*
X39203333Y-45886714D01*
X39155714Y-45981952D01*
X39108095Y-46029571D01*
X39012857Y-46077190D01*
X38631904Y-46077190D01*
X39774761Y-45981952D02*
X39679523Y-45934333D01*
X39631904Y-45886714D01*
X39584285Y-45791476D01*
X39584285Y-45743857D01*
X39631904Y-45648619D01*
X39679523Y-45601000D01*
X39774761Y-45553380D01*
X39965238Y-45553380D01*
X40060476Y-45601000D01*
X40108095Y-45648619D01*
X40155714Y-45743857D01*
X40155714Y-45791476D01*
X40108095Y-45886714D01*
X40060476Y-45934333D01*
X39965238Y-45981952D01*
X39774761Y-45981952D01*
X39679523Y-46029571D01*
X39631904Y-46077190D01*
X39584285Y-46172428D01*
X39584285Y-46362904D01*
X39631904Y-46458142D01*
X39679523Y-46505761D01*
X39774761Y-46553380D01*
X39965238Y-46553380D01*
X40060476Y-46505761D01*
X40108095Y-46458142D01*
X40155714Y-46362904D01*
X40155714Y-46172428D01*
X40108095Y-46077190D01*
X40060476Y-46029571D01*
X39965238Y-45981952D01*
X36155333Y-46553380D02*
X35822000Y-46077190D01*
X35583904Y-46553380D02*
X35583904Y-45553380D01*
X35964857Y-45553380D01*
X36060095Y-45601000D01*
X36107714Y-45648619D01*
X36155333Y-45743857D01*
X36155333Y-45886714D01*
X36107714Y-45981952D01*
X36060095Y-46029571D01*
X35964857Y-46077190D01*
X35583904Y-46077190D01*
X36488666Y-45553380D02*
X37155333Y-45553380D01*
X36726761Y-46553380D01*
X67103666Y-62952380D02*
X67103666Y-63666666D01*
X67056047Y-63809523D01*
X66960809Y-63904761D01*
X66817952Y-63952380D01*
X66722714Y-63952380D01*
X67484619Y-62952380D02*
X68151285Y-62952380D01*
X67722714Y-63952380D01*
X66357666Y-54506761D02*
X66500523Y-54554380D01*
X66738619Y-54554380D01*
X66833857Y-54506761D01*
X66881476Y-54459142D01*
X66929095Y-54363904D01*
X66929095Y-54268666D01*
X66881476Y-54173428D01*
X66833857Y-54125809D01*
X66738619Y-54078190D01*
X66548142Y-54030571D01*
X66452904Y-53982952D01*
X66405285Y-53935333D01*
X66357666Y-53840095D01*
X66357666Y-53744857D01*
X66405285Y-53649619D01*
X66452904Y-53602000D01*
X66548142Y-53554380D01*
X66786238Y-53554380D01*
X66929095Y-53602000D01*
X67262428Y-53554380D02*
X67500523Y-54554380D01*
X67691000Y-53840095D01*
X67881476Y-54554380D01*
X68119571Y-53554380D01*
X68452904Y-53649619D02*
X68500523Y-53602000D01*
X68595761Y-53554380D01*
X68833857Y-53554380D01*
X68929095Y-53602000D01*
X68976714Y-53649619D01*
X69024333Y-53744857D01*
X69024333Y-53840095D01*
X68976714Y-53982952D01*
X68405285Y-54554380D01*
X69024333Y-54554380D01*
M02*
