G04 #@! TF.GenerationSoftware,KiCad,Pcbnew,(5.1.9)-1*
G04 #@! TF.CreationDate,2021-02-24T11:41:24+09:00*
G04 #@! TF.ProjectId,body,626f6479-2e6b-4696-9361-645f70636258,rev?*
G04 #@! TF.SameCoordinates,Original*
G04 #@! TF.FileFunction,Soldermask,Top*
G04 #@! TF.FilePolarity,Negative*
%FSLAX46Y46*%
G04 Gerber Fmt 4.6, Leading zero omitted, Abs format (unit mm)*
G04 Created by KiCad (PCBNEW (5.1.9)-1) date 2021-02-24 11:41:24*
%MOMM*%
%LPD*%
G01*
G04 APERTURE LIST*
%ADD10C,2.000000*%
%ADD11C,3.000000*%
%ADD12C,1.524000*%
%ADD13R,1.100000X1.100000*%
%ADD14R,1.700000X1.700000*%
%ADD15O,1.700000X1.700000*%
%ADD16C,3.200000*%
G04 APERTURE END LIST*
D10*
X62992000Y-27432000D03*
X26670000Y-27432000D03*
X26670000Y-53721000D03*
D11*
X43815000Y-24511000D03*
X27178000Y-30988000D03*
D12*
X35687000Y-28829000D03*
X35687000Y-44069000D03*
X45847000Y-44069000D03*
X45847000Y-41529000D03*
X45847000Y-36449000D03*
X45847000Y-33909000D03*
X45847000Y-31369000D03*
X45847000Y-28829000D03*
D13*
X27810000Y-43180000D03*
X30610000Y-43180000D03*
G36*
G01*
X29635000Y-39899000D02*
X29635000Y-39349000D01*
G75*
G02*
X29835000Y-39149000I200000J0D01*
G01*
X30235000Y-39149000D01*
G75*
G02*
X30435000Y-39349000I0J-200000D01*
G01*
X30435000Y-39899000D01*
G75*
G02*
X30235000Y-40099000I-200000J0D01*
G01*
X29835000Y-40099000D01*
G75*
G02*
X29635000Y-39899000I0J200000D01*
G01*
G37*
G36*
G01*
X27985000Y-39899000D02*
X27985000Y-39349000D01*
G75*
G02*
X28185000Y-39149000I200000J0D01*
G01*
X28585000Y-39149000D01*
G75*
G02*
X28785000Y-39349000I0J-200000D01*
G01*
X28785000Y-39899000D01*
G75*
G02*
X28585000Y-40099000I-200000J0D01*
G01*
X28185000Y-40099000D01*
G75*
G02*
X27985000Y-39899000I0J200000D01*
G01*
G37*
G36*
G01*
X29635000Y-47519000D02*
X29635000Y-46969000D01*
G75*
G02*
X29835000Y-46769000I200000J0D01*
G01*
X30235000Y-46769000D01*
G75*
G02*
X30435000Y-46969000I0J-200000D01*
G01*
X30435000Y-47519000D01*
G75*
G02*
X30235000Y-47719000I-200000J0D01*
G01*
X29835000Y-47719000D01*
G75*
G02*
X29635000Y-47519000I0J200000D01*
G01*
G37*
G36*
G01*
X27985000Y-47519000D02*
X27985000Y-46969000D01*
G75*
G02*
X28185000Y-46769000I200000J0D01*
G01*
X28585000Y-46769000D01*
G75*
G02*
X28785000Y-46969000I0J-200000D01*
G01*
X28785000Y-47519000D01*
G75*
G02*
X28585000Y-47719000I-200000J0D01*
G01*
X28185000Y-47719000D01*
G75*
G02*
X27985000Y-47519000I0J200000D01*
G01*
G37*
G36*
G01*
X29635000Y-36851000D02*
X29635000Y-36301000D01*
G75*
G02*
X29835000Y-36101000I200000J0D01*
G01*
X30235000Y-36101000D01*
G75*
G02*
X30435000Y-36301000I0J-200000D01*
G01*
X30435000Y-36851000D01*
G75*
G02*
X30235000Y-37051000I-200000J0D01*
G01*
X29835000Y-37051000D01*
G75*
G02*
X29635000Y-36851000I0J200000D01*
G01*
G37*
G36*
G01*
X27985000Y-36851000D02*
X27985000Y-36301000D01*
G75*
G02*
X28185000Y-36101000I200000J0D01*
G01*
X28585000Y-36101000D01*
G75*
G02*
X28785000Y-36301000I0J-200000D01*
G01*
X28785000Y-36851000D01*
G75*
G02*
X28585000Y-37051000I-200000J0D01*
G01*
X28185000Y-37051000D01*
G75*
G02*
X27985000Y-36851000I0J200000D01*
G01*
G37*
D14*
X56388000Y-61341000D03*
D15*
X56388000Y-58801000D03*
X53848000Y-61341000D03*
X53848000Y-58801000D03*
X51308000Y-61341000D03*
X51308000Y-58801000D03*
X48768000Y-61341000D03*
X48768000Y-58801000D03*
X46228000Y-61341000D03*
X46228000Y-58801000D03*
X43688000Y-61341000D03*
X43688000Y-58801000D03*
X41148000Y-61341000D03*
X41148000Y-58801000D03*
X38608000Y-61341000D03*
X38608000Y-58801000D03*
X36068000Y-61341000D03*
X36068000Y-58801000D03*
X33528000Y-61341000D03*
X33528000Y-58801000D03*
X30988000Y-61341000D03*
X30988000Y-58801000D03*
X28448000Y-61341000D03*
X28448000Y-58801000D03*
X25908000Y-61341000D03*
X25908000Y-58801000D03*
D11*
X53848000Y-24384000D03*
X48895000Y-24511000D03*
D16*
X79756000Y-51054000D03*
D11*
X33655000Y-24511000D03*
X38735000Y-24511000D03*
G36*
G01*
X35464000Y-46987750D02*
X35464000Y-47500250D01*
G75*
G02*
X35245250Y-47719000I-218750J0D01*
G01*
X34807750Y-47719000D01*
G75*
G02*
X34589000Y-47500250I0J218750D01*
G01*
X34589000Y-46987750D01*
G75*
G02*
X34807750Y-46769000I218750J0D01*
G01*
X35245250Y-46769000D01*
G75*
G02*
X35464000Y-46987750I0J-218750D01*
G01*
G37*
G36*
G01*
X37039000Y-46987750D02*
X37039000Y-47500250D01*
G75*
G02*
X36820250Y-47719000I-218750J0D01*
G01*
X36382750Y-47719000D01*
G75*
G02*
X36164000Y-47500250I0J218750D01*
G01*
X36164000Y-46987750D01*
G75*
G02*
X36382750Y-46769000I218750J0D01*
G01*
X36820250Y-46769000D01*
G75*
G02*
X37039000Y-46987750I0J-218750D01*
G01*
G37*
D16*
X27178000Y-24511000D03*
G36*
G01*
X32162000Y-46987750D02*
X32162000Y-47500250D01*
G75*
G02*
X31943250Y-47719000I-218750J0D01*
G01*
X31505750Y-47719000D01*
G75*
G02*
X31287000Y-47500250I0J218750D01*
G01*
X31287000Y-46987750D01*
G75*
G02*
X31505750Y-46769000I218750J0D01*
G01*
X31943250Y-46769000D01*
G75*
G02*
X32162000Y-46987750I0J-218750D01*
G01*
G37*
G36*
G01*
X33737000Y-46987750D02*
X33737000Y-47500250D01*
G75*
G02*
X33518250Y-47719000I-218750J0D01*
G01*
X33080750Y-47719000D01*
G75*
G02*
X32862000Y-47500250I0J218750D01*
G01*
X32862000Y-46987750D01*
G75*
G02*
X33080750Y-46769000I218750J0D01*
G01*
X33518250Y-46769000D01*
G75*
G02*
X33737000Y-46987750I0J-218750D01*
G01*
G37*
G36*
G01*
X65021750Y-49245000D02*
X65534250Y-49245000D01*
G75*
G02*
X65753000Y-49463750I0J-218750D01*
G01*
X65753000Y-49901250D01*
G75*
G02*
X65534250Y-50120000I-218750J0D01*
G01*
X65021750Y-50120000D01*
G75*
G02*
X64803000Y-49901250I0J218750D01*
G01*
X64803000Y-49463750D01*
G75*
G02*
X65021750Y-49245000I218750J0D01*
G01*
G37*
G36*
G01*
X65021750Y-47670000D02*
X65534250Y-47670000D01*
G75*
G02*
X65753000Y-47888750I0J-218750D01*
G01*
X65753000Y-48326250D01*
G75*
G02*
X65534250Y-48545000I-218750J0D01*
G01*
X65021750Y-48545000D01*
G75*
G02*
X64803000Y-48326250I0J218750D01*
G01*
X64803000Y-47888750D01*
G75*
G02*
X65021750Y-47670000I218750J0D01*
G01*
G37*
G36*
G01*
X64259750Y-30779000D02*
X64772250Y-30779000D01*
G75*
G02*
X64991000Y-30997750I0J-218750D01*
G01*
X64991000Y-31435250D01*
G75*
G02*
X64772250Y-31654000I-218750J0D01*
G01*
X64259750Y-31654000D01*
G75*
G02*
X64041000Y-31435250I0J218750D01*
G01*
X64041000Y-30997750D01*
G75*
G02*
X64259750Y-30779000I218750J0D01*
G01*
G37*
G36*
G01*
X64259750Y-32354000D02*
X64772250Y-32354000D01*
G75*
G02*
X64991000Y-32572750I0J-218750D01*
G01*
X64991000Y-33010250D01*
G75*
G02*
X64772250Y-33229000I-218750J0D01*
G01*
X64259750Y-33229000D01*
G75*
G02*
X64041000Y-33010250I0J218750D01*
G01*
X64041000Y-32572750D01*
G75*
G02*
X64259750Y-32354000I218750J0D01*
G01*
G37*
G36*
G01*
X74419750Y-40736000D02*
X74932250Y-40736000D01*
G75*
G02*
X75151000Y-40954750I0J-218750D01*
G01*
X75151000Y-41392250D01*
G75*
G02*
X74932250Y-41611000I-218750J0D01*
G01*
X74419750Y-41611000D01*
G75*
G02*
X74201000Y-41392250I0J218750D01*
G01*
X74201000Y-40954750D01*
G75*
G02*
X74419750Y-40736000I218750J0D01*
G01*
G37*
G36*
G01*
X74419750Y-39161000D02*
X74932250Y-39161000D01*
G75*
G02*
X75151000Y-39379750I0J-218750D01*
G01*
X75151000Y-39817250D01*
G75*
G02*
X74932250Y-40036000I-218750J0D01*
G01*
X74419750Y-40036000D01*
G75*
G02*
X74201000Y-39817250I0J218750D01*
G01*
X74201000Y-39379750D01*
G75*
G02*
X74419750Y-39161000I218750J0D01*
G01*
G37*
G36*
G01*
X54861750Y-49245000D02*
X55374250Y-49245000D01*
G75*
G02*
X55593000Y-49463750I0J-218750D01*
G01*
X55593000Y-49901250D01*
G75*
G02*
X55374250Y-50120000I-218750J0D01*
G01*
X54861750Y-50120000D01*
G75*
G02*
X54643000Y-49901250I0J218750D01*
G01*
X54643000Y-49463750D01*
G75*
G02*
X54861750Y-49245000I218750J0D01*
G01*
G37*
G36*
G01*
X54861750Y-47670000D02*
X55374250Y-47670000D01*
G75*
G02*
X55593000Y-47888750I0J-218750D01*
G01*
X55593000Y-48326250D01*
G75*
G02*
X55374250Y-48545000I-218750J0D01*
G01*
X54861750Y-48545000D01*
G75*
G02*
X54643000Y-48326250I0J218750D01*
G01*
X54643000Y-47888750D01*
G75*
G02*
X54861750Y-47670000I218750J0D01*
G01*
G37*
G36*
G01*
X54861750Y-40736000D02*
X55374250Y-40736000D01*
G75*
G02*
X55593000Y-40954750I0J-218750D01*
G01*
X55593000Y-41392250D01*
G75*
G02*
X55374250Y-41611000I-218750J0D01*
G01*
X54861750Y-41611000D01*
G75*
G02*
X54643000Y-41392250I0J218750D01*
G01*
X54643000Y-40954750D01*
G75*
G02*
X54861750Y-40736000I218750J0D01*
G01*
G37*
G36*
G01*
X54861750Y-39161000D02*
X55374250Y-39161000D01*
G75*
G02*
X55593000Y-39379750I0J-218750D01*
G01*
X55593000Y-39817250D01*
G75*
G02*
X55374250Y-40036000I-218750J0D01*
G01*
X54861750Y-40036000D01*
G75*
G02*
X54643000Y-39817250I0J218750D01*
G01*
X54643000Y-39379750D01*
G75*
G02*
X54861750Y-39161000I218750J0D01*
G01*
G37*
G36*
G01*
X65275750Y-40736000D02*
X65788250Y-40736000D01*
G75*
G02*
X66007000Y-40954750I0J-218750D01*
G01*
X66007000Y-41392250D01*
G75*
G02*
X65788250Y-41611000I-218750J0D01*
G01*
X65275750Y-41611000D01*
G75*
G02*
X65057000Y-41392250I0J218750D01*
G01*
X65057000Y-40954750D01*
G75*
G02*
X65275750Y-40736000I218750J0D01*
G01*
G37*
G36*
G01*
X65275750Y-39161000D02*
X65788250Y-39161000D01*
G75*
G02*
X66007000Y-39379750I0J-218750D01*
G01*
X66007000Y-39817250D01*
G75*
G02*
X65788250Y-40036000I-218750J0D01*
G01*
X65275750Y-40036000D01*
G75*
G02*
X65057000Y-39817250I0J218750D01*
G01*
X65057000Y-39379750D01*
G75*
G02*
X65275750Y-39161000I218750J0D01*
G01*
G37*
G36*
G01*
X73784750Y-48305200D02*
X74297250Y-48305200D01*
G75*
G02*
X74516000Y-48523950I0J-218750D01*
G01*
X74516000Y-48961450D01*
G75*
G02*
X74297250Y-49180200I-218750J0D01*
G01*
X73784750Y-49180200D01*
G75*
G02*
X73566000Y-48961450I0J218750D01*
G01*
X73566000Y-48523950D01*
G75*
G02*
X73784750Y-48305200I218750J0D01*
G01*
G37*
G36*
G01*
X73784750Y-46730200D02*
X74297250Y-46730200D01*
G75*
G02*
X74516000Y-46948950I0J-218750D01*
G01*
X74516000Y-47386450D01*
G75*
G02*
X74297250Y-47605200I-218750J0D01*
G01*
X73784750Y-47605200D01*
G75*
G02*
X73566000Y-47386450I0J218750D01*
G01*
X73566000Y-46948950D01*
G75*
G02*
X73784750Y-46730200I218750J0D01*
G01*
G37*
G36*
G01*
X61211750Y-32354000D02*
X61724250Y-32354000D01*
G75*
G02*
X61943000Y-32572750I0J-218750D01*
G01*
X61943000Y-33010250D01*
G75*
G02*
X61724250Y-33229000I-218750J0D01*
G01*
X61211750Y-33229000D01*
G75*
G02*
X60993000Y-33010250I0J218750D01*
G01*
X60993000Y-32572750D01*
G75*
G02*
X61211750Y-32354000I218750J0D01*
G01*
G37*
G36*
G01*
X61211750Y-30779000D02*
X61724250Y-30779000D01*
G75*
G02*
X61943000Y-30997750I0J-218750D01*
G01*
X61943000Y-31435250D01*
G75*
G02*
X61724250Y-31654000I-218750J0D01*
G01*
X61211750Y-31654000D01*
G75*
G02*
X60993000Y-31435250I0J218750D01*
G01*
X60993000Y-30997750D01*
G75*
G02*
X61211750Y-30779000I218750J0D01*
G01*
G37*
G36*
G01*
X41636001Y-52173000D02*
X39135999Y-52173000D01*
G75*
G02*
X38886000Y-51923001I0J249999D01*
G01*
X38886000Y-49422999D01*
G75*
G02*
X39135999Y-49173000I249999J0D01*
G01*
X41636001Y-49173000D01*
G75*
G02*
X41886000Y-49422999I0J-249999D01*
G01*
X41886000Y-51923001D01*
G75*
G02*
X41636001Y-52173000I-249999J0D01*
G01*
G37*
G36*
G01*
X38211000Y-54323000D02*
X38011000Y-54323000D01*
G75*
G02*
X37911000Y-54223000I0J100000D01*
G01*
X37911000Y-52873000D01*
G75*
G02*
X38011000Y-52773000I100000J0D01*
G01*
X38211000Y-52773000D01*
G75*
G02*
X38311000Y-52873000I0J-100000D01*
G01*
X38311000Y-54223000D01*
G75*
G02*
X38211000Y-54323000I-100000J0D01*
G01*
G37*
G36*
G01*
X38861000Y-54323000D02*
X38661000Y-54323000D01*
G75*
G02*
X38561000Y-54223000I0J100000D01*
G01*
X38561000Y-52873000D01*
G75*
G02*
X38661000Y-52773000I100000J0D01*
G01*
X38861000Y-52773000D01*
G75*
G02*
X38961000Y-52873000I0J-100000D01*
G01*
X38961000Y-54223000D01*
G75*
G02*
X38861000Y-54323000I-100000J0D01*
G01*
G37*
G36*
G01*
X39511000Y-54323000D02*
X39311000Y-54323000D01*
G75*
G02*
X39211000Y-54223000I0J100000D01*
G01*
X39211000Y-52873000D01*
G75*
G02*
X39311000Y-52773000I100000J0D01*
G01*
X39511000Y-52773000D01*
G75*
G02*
X39611000Y-52873000I0J-100000D01*
G01*
X39611000Y-54223000D01*
G75*
G02*
X39511000Y-54323000I-100000J0D01*
G01*
G37*
G36*
G01*
X40161000Y-54323000D02*
X39961000Y-54323000D01*
G75*
G02*
X39861000Y-54223000I0J100000D01*
G01*
X39861000Y-52873000D01*
G75*
G02*
X39961000Y-52773000I100000J0D01*
G01*
X40161000Y-52773000D01*
G75*
G02*
X40261000Y-52873000I0J-100000D01*
G01*
X40261000Y-54223000D01*
G75*
G02*
X40161000Y-54323000I-100000J0D01*
G01*
G37*
G36*
G01*
X40811000Y-54323000D02*
X40611000Y-54323000D01*
G75*
G02*
X40511000Y-54223000I0J100000D01*
G01*
X40511000Y-52873000D01*
G75*
G02*
X40611000Y-52773000I100000J0D01*
G01*
X40811000Y-52773000D01*
G75*
G02*
X40911000Y-52873000I0J-100000D01*
G01*
X40911000Y-54223000D01*
G75*
G02*
X40811000Y-54323000I-100000J0D01*
G01*
G37*
G36*
G01*
X41461000Y-54323000D02*
X41261000Y-54323000D01*
G75*
G02*
X41161000Y-54223000I0J100000D01*
G01*
X41161000Y-52873000D01*
G75*
G02*
X41261000Y-52773000I100000J0D01*
G01*
X41461000Y-52773000D01*
G75*
G02*
X41561000Y-52873000I0J-100000D01*
G01*
X41561000Y-54223000D01*
G75*
G02*
X41461000Y-54323000I-100000J0D01*
G01*
G37*
G36*
G01*
X42111000Y-54323000D02*
X41911000Y-54323000D01*
G75*
G02*
X41811000Y-54223000I0J100000D01*
G01*
X41811000Y-52873000D01*
G75*
G02*
X41911000Y-52773000I100000J0D01*
G01*
X42111000Y-52773000D01*
G75*
G02*
X42211000Y-52873000I0J-100000D01*
G01*
X42211000Y-54223000D01*
G75*
G02*
X42111000Y-54323000I-100000J0D01*
G01*
G37*
G36*
G01*
X42761000Y-54323000D02*
X42561000Y-54323000D01*
G75*
G02*
X42461000Y-54223000I0J100000D01*
G01*
X42461000Y-52873000D01*
G75*
G02*
X42561000Y-52773000I100000J0D01*
G01*
X42761000Y-52773000D01*
G75*
G02*
X42861000Y-52873000I0J-100000D01*
G01*
X42861000Y-54223000D01*
G75*
G02*
X42761000Y-54323000I-100000J0D01*
G01*
G37*
G36*
G01*
X42761000Y-48573000D02*
X42561000Y-48573000D01*
G75*
G02*
X42461000Y-48473000I0J100000D01*
G01*
X42461000Y-47123000D01*
G75*
G02*
X42561000Y-47023000I100000J0D01*
G01*
X42761000Y-47023000D01*
G75*
G02*
X42861000Y-47123000I0J-100000D01*
G01*
X42861000Y-48473000D01*
G75*
G02*
X42761000Y-48573000I-100000J0D01*
G01*
G37*
G36*
G01*
X42111000Y-48573000D02*
X41911000Y-48573000D01*
G75*
G02*
X41811000Y-48473000I0J100000D01*
G01*
X41811000Y-47123000D01*
G75*
G02*
X41911000Y-47023000I100000J0D01*
G01*
X42111000Y-47023000D01*
G75*
G02*
X42211000Y-47123000I0J-100000D01*
G01*
X42211000Y-48473000D01*
G75*
G02*
X42111000Y-48573000I-100000J0D01*
G01*
G37*
G36*
G01*
X41461000Y-48573000D02*
X41261000Y-48573000D01*
G75*
G02*
X41161000Y-48473000I0J100000D01*
G01*
X41161000Y-47123000D01*
G75*
G02*
X41261000Y-47023000I100000J0D01*
G01*
X41461000Y-47023000D01*
G75*
G02*
X41561000Y-47123000I0J-100000D01*
G01*
X41561000Y-48473000D01*
G75*
G02*
X41461000Y-48573000I-100000J0D01*
G01*
G37*
G36*
G01*
X40811000Y-48573000D02*
X40611000Y-48573000D01*
G75*
G02*
X40511000Y-48473000I0J100000D01*
G01*
X40511000Y-47123000D01*
G75*
G02*
X40611000Y-47023000I100000J0D01*
G01*
X40811000Y-47023000D01*
G75*
G02*
X40911000Y-47123000I0J-100000D01*
G01*
X40911000Y-48473000D01*
G75*
G02*
X40811000Y-48573000I-100000J0D01*
G01*
G37*
G36*
G01*
X40161000Y-48573000D02*
X39961000Y-48573000D01*
G75*
G02*
X39861000Y-48473000I0J100000D01*
G01*
X39861000Y-47123000D01*
G75*
G02*
X39961000Y-47023000I100000J0D01*
G01*
X40161000Y-47023000D01*
G75*
G02*
X40261000Y-47123000I0J-100000D01*
G01*
X40261000Y-48473000D01*
G75*
G02*
X40161000Y-48573000I-100000J0D01*
G01*
G37*
G36*
G01*
X39511000Y-48573000D02*
X39311000Y-48573000D01*
G75*
G02*
X39211000Y-48473000I0J100000D01*
G01*
X39211000Y-47123000D01*
G75*
G02*
X39311000Y-47023000I100000J0D01*
G01*
X39511000Y-47023000D01*
G75*
G02*
X39611000Y-47123000I0J-100000D01*
G01*
X39611000Y-48473000D01*
G75*
G02*
X39511000Y-48573000I-100000J0D01*
G01*
G37*
G36*
G01*
X38861000Y-48573000D02*
X38661000Y-48573000D01*
G75*
G02*
X38561000Y-48473000I0J100000D01*
G01*
X38561000Y-47123000D01*
G75*
G02*
X38661000Y-47023000I100000J0D01*
G01*
X38861000Y-47023000D01*
G75*
G02*
X38961000Y-47123000I0J-100000D01*
G01*
X38961000Y-48473000D01*
G75*
G02*
X38861000Y-48573000I-100000J0D01*
G01*
G37*
G36*
G01*
X38211000Y-48573000D02*
X38011000Y-48573000D01*
G75*
G02*
X37911000Y-48473000I0J100000D01*
G01*
X37911000Y-47123000D01*
G75*
G02*
X38011000Y-47023000I100000J0D01*
G01*
X38211000Y-47023000D01*
G75*
G02*
X38311000Y-47123000I0J-100000D01*
G01*
X38311000Y-48473000D01*
G75*
G02*
X38211000Y-48573000I-100000J0D01*
G01*
G37*
M02*
