M48
; DRILL file {KiCad (5.1.9)-1} date 02/23/21 11:20:19
; FORMAT={-:-/ absolute / inch / decimal}
; #@! TF.CreationDate,2021-02-23T11:20:19+09:00
; #@! TF.GenerationSoftware,Kicad,Pcbnew,(5.1.9)-1
; #@! TF.FileFunction,Plated,1,2,PTH
FMAT,2
INCH
T1C0.0157
T2C0.0315
T3C0.0394
T4C0.0591
%
G90
G05
T1
X1.055Y-1.63
X1.25Y-1.3
X1.26Y-1.76
X1.4Y-1.95
X1.4Y-2.0
X1.4Y-2.05
X1.45Y-1.95
X1.45Y-2.0
X1.45Y-2.05
X1.475Y-1.82
X1.5Y-1.35
X1.54Y-1.56
X1.61Y-1.49
X1.63Y-1.02
X1.75Y-1.95
X1.75Y-2.0
X1.75Y-2.05
X1.8Y-1.95
X1.8Y-2.0
X1.8Y-2.05
X1.95Y-1.75
X2.01Y-1.13
X2.07Y-2.15
X2.12Y-2.06
T2
X1.405Y-1.135
X1.405Y-1.735
X1.805Y-1.135
X1.805Y-1.235
X1.805Y-1.335
X1.805Y-1.435
X1.805Y-1.635
X1.805Y-1.735
T3
X1.02Y-2.315
X1.02Y-2.415
X1.12Y-2.315
X1.12Y-2.415
X1.22Y-2.315
X1.22Y-2.415
X1.32Y-2.315
X1.32Y-2.415
X1.42Y-2.315
X1.42Y-2.415
X1.52Y-2.315
X1.52Y-2.415
X1.62Y-2.315
X1.62Y-2.415
X1.72Y-2.315
X1.72Y-2.415
X1.82Y-2.315
X1.82Y-2.415
X1.92Y-2.315
X1.92Y-2.415
X2.02Y-2.315
X2.02Y-2.415
X2.12Y-2.315
X2.12Y-2.415
X2.22Y-2.315
X2.22Y-2.415
T4
X1.07Y-1.22
X1.325Y-0.965
X1.525Y-0.965
X1.725Y-0.965
X1.925Y-0.965
X2.12Y-0.96
T0
M30
