%FSLAX45Y45*%
G04 Gerber Fmt 4.5, Leading zero omitted, Abs format (unit mm)*
G04 Created by KiCad (PCBNEW (5.1.9)-1) date 2021-03-08 16:55:14*
%MOMM*%
%LPD*%
G01*
G04 APERTURE LIST*
%TA.AperFunction,Profile*%
%ADD10C,0.050000*%
%TD*%
%ADD11C,0.200000*%
%ADD12C,0.300000*%
G04 APERTURE END LIST*
D10*
X7145000Y-6278000D02*
G75*
G02*
X6891000Y-6532000I-254000J0D01*
G01*
X7145000Y-3581400D02*
X7145000Y-6278000D01*
X3238500Y-3581400D02*
G75*
G02*
X3462000Y-3357900I223500J0D01*
G01*
X6921500Y-3357900D02*
G75*
G02*
X7145000Y-3581400I0J-223500D01*
G01*
X3462000Y-3357900D02*
X6921500Y-3357900D01*
X3238500Y-3581400D02*
X3238500Y-6532000D01*
X3238500Y-6532000D02*
X6891000Y-6532000D01*
D11*
X3396000Y-3510300D02*
X3716000Y-3830300D01*
X3716000Y-3510300D02*
X3396000Y-3830300D01*
X6672600Y-3510300D02*
X6992600Y-3830300D01*
X6992600Y-3510300D02*
X6672600Y-3830300D01*
D12*
X3522428Y-7000214D02*
X3522428Y-6700214D01*
X3593857Y-6700214D01*
X3636714Y-6714500D01*
X3665286Y-6743071D01*
X3679571Y-6771643D01*
X3693857Y-6828786D01*
X3693857Y-6871643D01*
X3679571Y-6928786D01*
X3665286Y-6957357D01*
X3636714Y-6985929D01*
X3593857Y-7000214D01*
X3522428Y-7000214D01*
X3822428Y-7000214D02*
X3822428Y-6800214D01*
X3822428Y-6857357D02*
X3836714Y-6828786D01*
X3851000Y-6814500D01*
X3879571Y-6800214D01*
X3908143Y-6800214D01*
X4008143Y-7000214D02*
X4008143Y-6800214D01*
X4008143Y-6700214D02*
X3993857Y-6714500D01*
X4008143Y-6728786D01*
X4022428Y-6714500D01*
X4008143Y-6700214D01*
X4008143Y-6728786D01*
X4193857Y-7000214D02*
X4165286Y-6985929D01*
X4151000Y-6957357D01*
X4151000Y-6700214D01*
X4351000Y-7000214D02*
X4322428Y-6985929D01*
X4308143Y-6957357D01*
X4308143Y-6700214D01*
X4693857Y-7000214D02*
X4693857Y-6700214D01*
X4793857Y-6914500D01*
X4893857Y-6700214D01*
X4893857Y-7000214D01*
X5165286Y-7000214D02*
X5165286Y-6843071D01*
X5151000Y-6814500D01*
X5122428Y-6800214D01*
X5065286Y-6800214D01*
X5036714Y-6814500D01*
X5165286Y-6985929D02*
X5136714Y-7000214D01*
X5065286Y-7000214D01*
X5036714Y-6985929D01*
X5022428Y-6957357D01*
X5022428Y-6928786D01*
X5036714Y-6900214D01*
X5065286Y-6885929D01*
X5136714Y-6885929D01*
X5165286Y-6871643D01*
X5308143Y-6800214D02*
X5308143Y-7100214D01*
X5308143Y-6814500D02*
X5336714Y-6800214D01*
X5393857Y-6800214D01*
X5422428Y-6814500D01*
X5436714Y-6828786D01*
X5451000Y-6857357D01*
X5451000Y-6943071D01*
X5436714Y-6971643D01*
X5422428Y-6985929D01*
X5393857Y-7000214D01*
X5336714Y-7000214D01*
X5308143Y-6985929D01*
X5579571Y-6971643D02*
X5593857Y-6985929D01*
X5579571Y-7000214D01*
X5565286Y-6985929D01*
X5579571Y-6971643D01*
X5579571Y-7000214D01*
X5579571Y-6814500D02*
X5593857Y-6828786D01*
X5579571Y-6843071D01*
X5565286Y-6828786D01*
X5579571Y-6814500D01*
X5579571Y-6843071D01*
X2916000Y-7334500D02*
X3236000Y-7654500D01*
X3236000Y-7334500D02*
X2916000Y-7654500D01*
X3493857Y-7330214D02*
X3679571Y-7330214D01*
X3579571Y-7444500D01*
X3622428Y-7444500D01*
X3651000Y-7458786D01*
X3665286Y-7473071D01*
X3679571Y-7501643D01*
X3679571Y-7573071D01*
X3665286Y-7601643D01*
X3651000Y-7615929D01*
X3622428Y-7630214D01*
X3536714Y-7630214D01*
X3508143Y-7615929D01*
X3493857Y-7601643D01*
X3808143Y-7601643D02*
X3822428Y-7615929D01*
X3808143Y-7630214D01*
X3793857Y-7615929D01*
X3808143Y-7601643D01*
X3808143Y-7630214D01*
X3936714Y-7358786D02*
X3951000Y-7344500D01*
X3979571Y-7330214D01*
X4051000Y-7330214D01*
X4079571Y-7344500D01*
X4093857Y-7358786D01*
X4108143Y-7387357D01*
X4108143Y-7415929D01*
X4093857Y-7458786D01*
X3922428Y-7630214D01*
X4108143Y-7630214D01*
X4293857Y-7330214D02*
X4322428Y-7330214D01*
X4351000Y-7344500D01*
X4365286Y-7358786D01*
X4379571Y-7387357D01*
X4393857Y-7444500D01*
X4393857Y-7515929D01*
X4379571Y-7573071D01*
X4365286Y-7601643D01*
X4351000Y-7615929D01*
X4322428Y-7630214D01*
X4293857Y-7630214D01*
X4265286Y-7615929D01*
X4251000Y-7601643D01*
X4236714Y-7573071D01*
X4222428Y-7515929D01*
X4222428Y-7444500D01*
X4236714Y-7387357D01*
X4251000Y-7358786D01*
X4265286Y-7344500D01*
X4293857Y-7330214D01*
X4522428Y-7630214D02*
X4522428Y-7430214D01*
X4522428Y-7458786D02*
X4536714Y-7444500D01*
X4565286Y-7430214D01*
X4608143Y-7430214D01*
X4636714Y-7444500D01*
X4651000Y-7473071D01*
X4651000Y-7630214D01*
X4651000Y-7473071D02*
X4665286Y-7444500D01*
X4693857Y-7430214D01*
X4736714Y-7430214D01*
X4765286Y-7444500D01*
X4779571Y-7473071D01*
X4779571Y-7630214D01*
X4922428Y-7630214D02*
X4922428Y-7430214D01*
X4922428Y-7458786D02*
X4936714Y-7444500D01*
X4965286Y-7430214D01*
X5008143Y-7430214D01*
X5036714Y-7444500D01*
X5051000Y-7473071D01*
X5051000Y-7630214D01*
X5051000Y-7473071D02*
X5065286Y-7444500D01*
X5093857Y-7430214D01*
X5136714Y-7430214D01*
X5165286Y-7444500D01*
X5179571Y-7473071D01*
X5179571Y-7630214D01*
X5765286Y-7315929D02*
X5508143Y-7701643D01*
X6151000Y-7330214D02*
X6179571Y-7330214D01*
X6208143Y-7344500D01*
X6222428Y-7358786D01*
X6236714Y-7387357D01*
X6251000Y-7444500D01*
X6251000Y-7515929D01*
X6236714Y-7573071D01*
X6222428Y-7601643D01*
X6208143Y-7615929D01*
X6179571Y-7630214D01*
X6151000Y-7630214D01*
X6122428Y-7615929D01*
X6108143Y-7601643D01*
X6093857Y-7573071D01*
X6079571Y-7515929D01*
X6079571Y-7444500D01*
X6093857Y-7387357D01*
X6108143Y-7358786D01*
X6122428Y-7344500D01*
X6151000Y-7330214D01*
X6379571Y-7601643D02*
X6393857Y-7615929D01*
X6379571Y-7630214D01*
X6365286Y-7615929D01*
X6379571Y-7601643D01*
X6379571Y-7630214D01*
X6679571Y-7630214D02*
X6508143Y-7630214D01*
X6593857Y-7630214D02*
X6593857Y-7330214D01*
X6565286Y-7373071D01*
X6536714Y-7401643D01*
X6508143Y-7415929D01*
X6793857Y-7358786D02*
X6808143Y-7344500D01*
X6836714Y-7330214D01*
X6908143Y-7330214D01*
X6936714Y-7344500D01*
X6951000Y-7358786D01*
X6965286Y-7387357D01*
X6965286Y-7415929D01*
X6951000Y-7458786D01*
X6779571Y-7630214D01*
X6965286Y-7630214D01*
X7222428Y-7330214D02*
X7165286Y-7330214D01*
X7136714Y-7344500D01*
X7122428Y-7358786D01*
X7093857Y-7401643D01*
X7079571Y-7458786D01*
X7079571Y-7573071D01*
X7093857Y-7601643D01*
X7108143Y-7615929D01*
X7136714Y-7630214D01*
X7193857Y-7630214D01*
X7222428Y-7615929D01*
X7236714Y-7601643D01*
X7251000Y-7573071D01*
X7251000Y-7501643D01*
X7236714Y-7473071D01*
X7222428Y-7458786D01*
X7193857Y-7444500D01*
X7136714Y-7444500D01*
X7108143Y-7458786D01*
X7093857Y-7473071D01*
X7079571Y-7501643D01*
X7365286Y-7330214D02*
X7365286Y-7387357D01*
X7479571Y-7330214D02*
X7479571Y-7387357D01*
X7922428Y-7744500D02*
X7908143Y-7730214D01*
X7879571Y-7687357D01*
X7865286Y-7658786D01*
X7851000Y-7615929D01*
X7836714Y-7544500D01*
X7836714Y-7487357D01*
X7851000Y-7415929D01*
X7865286Y-7373071D01*
X7879571Y-7344500D01*
X7908143Y-7301643D01*
X7922428Y-7287357D01*
X8022428Y-7358786D02*
X8036714Y-7344500D01*
X8065286Y-7330214D01*
X8136714Y-7330214D01*
X8165286Y-7344500D01*
X8179571Y-7358786D01*
X8193857Y-7387357D01*
X8193857Y-7415929D01*
X8179571Y-7458786D01*
X8008143Y-7630214D01*
X8193857Y-7630214D01*
X8551000Y-7630214D02*
X8551000Y-7330214D01*
X8679571Y-7630214D02*
X8679571Y-7473071D01*
X8665286Y-7444500D01*
X8636714Y-7430214D01*
X8593857Y-7430214D01*
X8565286Y-7444500D01*
X8551000Y-7458786D01*
X8865286Y-7630214D02*
X8836714Y-7615929D01*
X8822428Y-7601643D01*
X8808143Y-7573071D01*
X8808143Y-7487357D01*
X8822428Y-7458786D01*
X8836714Y-7444500D01*
X8865286Y-7430214D01*
X8908143Y-7430214D01*
X8936714Y-7444500D01*
X8951000Y-7458786D01*
X8965286Y-7487357D01*
X8965286Y-7573071D01*
X8951000Y-7601643D01*
X8936714Y-7615929D01*
X8908143Y-7630214D01*
X8865286Y-7630214D01*
X9136714Y-7630214D02*
X9108143Y-7615929D01*
X9093857Y-7587357D01*
X9093857Y-7330214D01*
X9365286Y-7615929D02*
X9336714Y-7630214D01*
X9279571Y-7630214D01*
X9251000Y-7615929D01*
X9236714Y-7587357D01*
X9236714Y-7473071D01*
X9251000Y-7444500D01*
X9279571Y-7430214D01*
X9336714Y-7430214D01*
X9365286Y-7444500D01*
X9379571Y-7473071D01*
X9379571Y-7501643D01*
X9236714Y-7530214D01*
X9493857Y-7615929D02*
X9522428Y-7630214D01*
X9579571Y-7630214D01*
X9608143Y-7615929D01*
X9622428Y-7587357D01*
X9622428Y-7573071D01*
X9608143Y-7544500D01*
X9579571Y-7530214D01*
X9536714Y-7530214D01*
X9508143Y-7515929D01*
X9493857Y-7487357D01*
X9493857Y-7473071D01*
X9508143Y-7444500D01*
X9536714Y-7430214D01*
X9579571Y-7430214D01*
X9608143Y-7444500D01*
X9722428Y-7744500D02*
X9736714Y-7730214D01*
X9765286Y-7687357D01*
X9779571Y-7658786D01*
X9793857Y-7615929D01*
X9808143Y-7544500D01*
X9808143Y-7487357D01*
X9793857Y-7415929D01*
X9779571Y-7373071D01*
X9765286Y-7344500D01*
X9736714Y-7301643D01*
X9722428Y-7287357D01*
X10265286Y-7744500D02*
X10251000Y-7730214D01*
X10222428Y-7687357D01*
X10208143Y-7658786D01*
X10193857Y-7615929D01*
X10179571Y-7544500D01*
X10179571Y-7487357D01*
X10193857Y-7415929D01*
X10208143Y-7373071D01*
X10222428Y-7344500D01*
X10251000Y-7301643D01*
X10265286Y-7287357D01*
X10379571Y-7430214D02*
X10379571Y-7630214D01*
X10379571Y-7458786D02*
X10393857Y-7444500D01*
X10422428Y-7430214D01*
X10465286Y-7430214D01*
X10493857Y-7444500D01*
X10508143Y-7473071D01*
X10508143Y-7630214D01*
X10693857Y-7630214D02*
X10665286Y-7615929D01*
X10651000Y-7601643D01*
X10636714Y-7573071D01*
X10636714Y-7487357D01*
X10651000Y-7458786D01*
X10665286Y-7444500D01*
X10693857Y-7430214D01*
X10736714Y-7430214D01*
X10765286Y-7444500D01*
X10779571Y-7458786D01*
X10793857Y-7487357D01*
X10793857Y-7573071D01*
X10779571Y-7601643D01*
X10765286Y-7615929D01*
X10736714Y-7630214D01*
X10693857Y-7630214D01*
X10879571Y-7430214D02*
X10993857Y-7430214D01*
X10922428Y-7330214D02*
X10922428Y-7587357D01*
X10936714Y-7615929D01*
X10965286Y-7630214D01*
X10993857Y-7630214D01*
X11322428Y-7430214D02*
X11322428Y-7730214D01*
X11322428Y-7444500D02*
X11351000Y-7430214D01*
X11408143Y-7430214D01*
X11436714Y-7444500D01*
X11451000Y-7458786D01*
X11465286Y-7487357D01*
X11465286Y-7573071D01*
X11451000Y-7601643D01*
X11436714Y-7615929D01*
X11408143Y-7630214D01*
X11351000Y-7630214D01*
X11322428Y-7615929D01*
X11636714Y-7630214D02*
X11608143Y-7615929D01*
X11593857Y-7587357D01*
X11593857Y-7330214D01*
X11879571Y-7630214D02*
X11879571Y-7473071D01*
X11865286Y-7444500D01*
X11836714Y-7430214D01*
X11779571Y-7430214D01*
X11751000Y-7444500D01*
X11879571Y-7615929D02*
X11851000Y-7630214D01*
X11779571Y-7630214D01*
X11751000Y-7615929D01*
X11736714Y-7587357D01*
X11736714Y-7558786D01*
X11751000Y-7530214D01*
X11779571Y-7515929D01*
X11851000Y-7515929D01*
X11879571Y-7501643D01*
X11979571Y-7430214D02*
X12093857Y-7430214D01*
X12022428Y-7330214D02*
X12022428Y-7587357D01*
X12036714Y-7615929D01*
X12065286Y-7630214D01*
X12093857Y-7630214D01*
X12308143Y-7615929D02*
X12279571Y-7630214D01*
X12222428Y-7630214D01*
X12193857Y-7615929D01*
X12179571Y-7587357D01*
X12179571Y-7473071D01*
X12193857Y-7444500D01*
X12222428Y-7430214D01*
X12279571Y-7430214D01*
X12308143Y-7444500D01*
X12322428Y-7473071D01*
X12322428Y-7501643D01*
X12179571Y-7530214D01*
X12579571Y-7630214D02*
X12579571Y-7330214D01*
X12579571Y-7615929D02*
X12551000Y-7630214D01*
X12493857Y-7630214D01*
X12465286Y-7615929D01*
X12451000Y-7601643D01*
X12436714Y-7573071D01*
X12436714Y-7487357D01*
X12451000Y-7458786D01*
X12465286Y-7444500D01*
X12493857Y-7430214D01*
X12551000Y-7430214D01*
X12579571Y-7444500D01*
X12693857Y-7744500D02*
X12708143Y-7730214D01*
X12736714Y-7687357D01*
X12751000Y-7658786D01*
X12765286Y-7615929D01*
X12779571Y-7544500D01*
X12779571Y-7487357D01*
X12765286Y-7415929D01*
X12751000Y-7373071D01*
X12736714Y-7344500D01*
X12708143Y-7301643D01*
X12693857Y-7287357D01*
M02*
