G04 #@! TF.GenerationSoftware,KiCad,Pcbnew,(5.1.9)-1*
G04 #@! TF.CreationDate,2021-02-24T11:41:24+09:00*
G04 #@! TF.ProjectId,body,626f6479-2e6b-4696-9361-645f70636258,rev?*
G04 #@! TF.SameCoordinates,Original*
G04 #@! TF.FileFunction,Legend,Top*
G04 #@! TF.FilePolarity,Positive*
%FSLAX46Y46*%
G04 Gerber Fmt 4.6, Leading zero omitted, Abs format (unit mm)*
G04 Created by KiCad (PCBNEW (5.1.9)-1) date 2021-02-24 11:41:24*
%MOMM*%
%LPD*%
G01*
G04 APERTURE LIST*
%ADD10C,0.120000*%
%ADD11C,0.150000*%
%ADD12C,0.500000*%
%ADD13C,0.200000*%
%ADD14C,0.300000*%
%ADD15C,0.010000*%
G04 APERTURE END LIST*
D10*
X34163000Y-48514000D02*
X33401000Y-49276000D01*
X48006000Y-51435000D02*
X46482000Y-52959000D01*
X48006000Y-44958000D02*
X48006000Y-51435000D01*
X54610000Y-36068000D02*
X48387000Y-36068000D01*
X54610000Y-30480000D02*
X54610000Y-36068000D01*
X53594000Y-29718000D02*
X54610000Y-30480000D01*
X34163000Y-48514000D02*
X34163000Y-44577000D01*
X53594000Y-29718000D02*
X48514000Y-29718000D01*
D11*
X49246404Y-31822380D02*
X48674976Y-31822380D01*
X48960690Y-31822380D02*
X48960690Y-30822380D01*
X48865452Y-30965238D01*
X48770214Y-31060476D01*
X48674976Y-31108095D01*
X49579738Y-32203333D02*
X49627357Y-32155714D01*
X49722595Y-32012857D01*
X49770214Y-31917619D01*
X49817833Y-31774761D01*
X49865452Y-31536666D01*
X49865452Y-31346190D01*
X49817833Y-31108095D01*
X49770214Y-30965238D01*
X49722595Y-30870000D01*
X49627357Y-30727142D01*
X49579738Y-30679523D01*
X51294023Y-30822380D02*
X51484500Y-30822380D01*
X51579738Y-30870000D01*
X51674976Y-30965238D01*
X51722595Y-31155714D01*
X51722595Y-31489047D01*
X51674976Y-31679523D01*
X51579738Y-31774761D01*
X51484500Y-31822380D01*
X51294023Y-31822380D01*
X51198785Y-31774761D01*
X51103547Y-31679523D01*
X51055928Y-31489047D01*
X51055928Y-31155714D01*
X51103547Y-30965238D01*
X51198785Y-30870000D01*
X51294023Y-30822380D01*
X52484500Y-31298571D02*
X52151166Y-31298571D01*
X52151166Y-31822380D02*
X52151166Y-30822380D01*
X52627357Y-30822380D01*
X53341642Y-31298571D02*
X53008309Y-31298571D01*
X53008309Y-31822380D02*
X53008309Y-30822380D01*
X53484500Y-30822380D01*
X48674976Y-32567619D02*
X48722595Y-32520000D01*
X48817833Y-32472380D01*
X49055928Y-32472380D01*
X49151166Y-32520000D01*
X49198785Y-32567619D01*
X49246404Y-32662857D01*
X49246404Y-32758095D01*
X49198785Y-32900952D01*
X48627357Y-33472380D01*
X49246404Y-33472380D01*
X49579738Y-33853333D02*
X49627357Y-33805714D01*
X49722595Y-33662857D01*
X49770214Y-33567619D01*
X49817833Y-33424761D01*
X49865452Y-33186666D01*
X49865452Y-32996190D01*
X49817833Y-32758095D01*
X49770214Y-32615238D01*
X49722595Y-32520000D01*
X49627357Y-32377142D01*
X49579738Y-32329523D01*
X51055928Y-33186666D02*
X51532119Y-33186666D01*
X50960690Y-33472380D02*
X51294023Y-32472380D01*
X51627357Y-33472380D01*
X52532119Y-33377142D02*
X52484500Y-33424761D01*
X52341642Y-33472380D01*
X52246404Y-33472380D01*
X52103547Y-33424761D01*
X52008309Y-33329523D01*
X51960690Y-33234285D01*
X51913071Y-33043809D01*
X51913071Y-32900952D01*
X51960690Y-32710476D01*
X52008309Y-32615238D01*
X52103547Y-32520000D01*
X52246404Y-32472380D01*
X52341642Y-32472380D01*
X52484500Y-32520000D01*
X52532119Y-32567619D01*
X53532119Y-33377142D02*
X53484500Y-33424761D01*
X53341642Y-33472380D01*
X53246404Y-33472380D01*
X53103547Y-33424761D01*
X53008309Y-33329523D01*
X52960690Y-33234285D01*
X52913071Y-33043809D01*
X52913071Y-32900952D01*
X52960690Y-32710476D01*
X53008309Y-32615238D01*
X53103547Y-32520000D01*
X53246404Y-32472380D01*
X53341642Y-32472380D01*
X53484500Y-32520000D01*
X53532119Y-32567619D01*
X48627357Y-34122380D02*
X49246404Y-34122380D01*
X48913071Y-34503333D01*
X49055928Y-34503333D01*
X49151166Y-34550952D01*
X49198785Y-34598571D01*
X49246404Y-34693809D01*
X49246404Y-34931904D01*
X49198785Y-35027142D01*
X49151166Y-35074761D01*
X49055928Y-35122380D01*
X48770214Y-35122380D01*
X48674976Y-35074761D01*
X48627357Y-35027142D01*
X49579738Y-35503333D02*
X49627357Y-35455714D01*
X49722595Y-35312857D01*
X49770214Y-35217619D01*
X49817833Y-35074761D01*
X49865452Y-34836666D01*
X49865452Y-34646190D01*
X49817833Y-34408095D01*
X49770214Y-34265238D01*
X49722595Y-34170000D01*
X49627357Y-34027142D01*
X49579738Y-33979523D01*
X51103547Y-35122380D02*
X51103547Y-34122380D01*
X52103547Y-34170000D02*
X52008309Y-34122380D01*
X51865452Y-34122380D01*
X51722595Y-34170000D01*
X51627357Y-34265238D01*
X51579738Y-34360476D01*
X51532119Y-34550952D01*
X51532119Y-34693809D01*
X51579738Y-34884285D01*
X51627357Y-34979523D01*
X51722595Y-35074761D01*
X51865452Y-35122380D01*
X51960690Y-35122380D01*
X52103547Y-35074761D01*
X52151166Y-35027142D01*
X52151166Y-34693809D01*
X51960690Y-34693809D01*
X52579738Y-35122380D02*
X52579738Y-34122380D01*
X53151166Y-35122380D01*
X53151166Y-34122380D01*
D10*
X46482000Y-56896000D02*
X46482000Y-52959000D01*
X48260000Y-53848000D02*
X48260000Y-56896000D01*
X49022000Y-53086000D02*
X48260000Y-53848000D01*
X54864000Y-53086000D02*
X49022000Y-53086000D01*
X42164000Y-56896000D02*
X42164000Y-54864000D01*
X30480000Y-56896000D02*
X30480000Y-54864000D01*
X30480000Y-56896000D02*
X42164000Y-56896000D01*
D11*
X49037904Y-55919666D02*
X49514095Y-55919666D01*
X48942666Y-56205380D02*
X49276000Y-55205380D01*
X49609333Y-56205380D01*
D10*
X55880000Y-52070000D02*
X54864000Y-53086000D01*
X55880000Y-52070000D02*
X55880000Y-52832000D01*
X55118000Y-52070000D02*
X55880000Y-52070000D01*
D11*
X49014095Y-54808380D02*
X49014095Y-53808380D01*
X49585523Y-54808380D02*
X49156952Y-54236952D01*
X49585523Y-53808380D02*
X49014095Y-54379809D01*
D10*
X51943000Y-56388000D02*
X50038000Y-56388000D01*
X51943000Y-53594000D02*
X51943000Y-56388000D01*
X50038000Y-53594000D02*
X51943000Y-53594000D01*
X50038000Y-56388000D02*
X50038000Y-53594000D01*
D11*
X53308380Y-54459666D02*
X53784571Y-54459666D01*
X53213142Y-54745380D02*
X53546476Y-53745380D01*
X53879809Y-54745380D01*
X54689333Y-54745380D02*
X54213142Y-54745380D01*
X54213142Y-53745380D01*
X55498857Y-54745380D02*
X55022666Y-54745380D01*
X55022666Y-53745380D01*
X53308380Y-56395380D02*
X52832190Y-56395380D01*
X52832190Y-55395380D01*
X53641714Y-55871571D02*
X53975047Y-55871571D01*
X54117904Y-56395380D02*
X53641714Y-56395380D01*
X53641714Y-55395380D01*
X54117904Y-55395380D01*
X54546476Y-56395380D02*
X54546476Y-55395380D01*
X54784571Y-55395380D01*
X54927428Y-55443000D01*
X55022666Y-55538238D01*
X55070285Y-55633476D01*
X55117904Y-55823952D01*
X55117904Y-55966809D01*
X55070285Y-56157285D01*
X55022666Y-56252523D01*
X54927428Y-56347761D01*
X54784571Y-56395380D01*
X54546476Y-56395380D01*
X55498857Y-56347761D02*
X55594095Y-56395380D01*
X55784571Y-56395380D01*
X55879809Y-56347761D01*
X55927428Y-56252523D01*
X55927428Y-56204904D01*
X55879809Y-56109666D01*
X55784571Y-56062047D01*
X55641714Y-56062047D01*
X55546476Y-56014428D01*
X55498857Y-55919190D01*
X55498857Y-55871571D01*
X55546476Y-55776333D01*
X55641714Y-55728714D01*
X55784571Y-55728714D01*
X55879809Y-55776333D01*
D10*
X50673000Y-54610000D02*
X51435000Y-54610000D01*
X51054000Y-54610000D02*
X51054000Y-53848000D01*
X51562000Y-55372000D02*
X51054000Y-55372000D01*
X51054000Y-54610000D02*
X51562000Y-55372000D01*
X50546000Y-55372000D02*
X51054000Y-54610000D01*
X51054000Y-55372000D02*
X50546000Y-55372000D01*
X51054000Y-56134000D02*
X51054000Y-55372000D01*
D12*
X37084000Y-52832000D02*
G75*
G03*
X37084000Y-52832000I0J0D01*
G01*
D13*
X26749857Y-50888571D02*
X26749857Y-49388571D01*
X28107000Y-49888571D02*
X28107000Y-51102857D01*
X28035571Y-51245714D01*
X27964142Y-51317142D01*
X27821285Y-51388571D01*
X27607000Y-51388571D01*
X27464142Y-51317142D01*
X28107000Y-50817142D02*
X27964142Y-50888571D01*
X27678428Y-50888571D01*
X27535571Y-50817142D01*
X27464142Y-50745714D01*
X27392714Y-50602857D01*
X27392714Y-50174285D01*
X27464142Y-50031428D01*
X27535571Y-49960000D01*
X27678428Y-49888571D01*
X27964142Y-49888571D01*
X28107000Y-49960000D01*
X28821285Y-49888571D02*
X28821285Y-50888571D01*
X28821285Y-50031428D02*
X28892714Y-49960000D01*
X29035571Y-49888571D01*
X29249857Y-49888571D01*
X29392714Y-49960000D01*
X29464142Y-50102857D01*
X29464142Y-50888571D01*
X30178428Y-50888571D02*
X30178428Y-49888571D01*
X30178428Y-49388571D02*
X30107000Y-49460000D01*
X30178428Y-49531428D01*
X30249857Y-49460000D01*
X30178428Y-49388571D01*
X30178428Y-49531428D01*
X30678428Y-49888571D02*
X31249857Y-49888571D01*
X30892714Y-49388571D02*
X30892714Y-50674285D01*
X30964142Y-50817142D01*
X31107000Y-50888571D01*
X31249857Y-50888571D01*
X31749857Y-50888571D02*
X31749857Y-49888571D01*
X31749857Y-49388571D02*
X31678428Y-49460000D01*
X31749857Y-49531428D01*
X31821285Y-49460000D01*
X31749857Y-49388571D01*
X31749857Y-49531428D01*
X32678428Y-50888571D02*
X32535571Y-50817142D01*
X32464142Y-50745714D01*
X32392714Y-50602857D01*
X32392714Y-50174285D01*
X32464142Y-50031428D01*
X32535571Y-49960000D01*
X32678428Y-49888571D01*
X32892714Y-49888571D01*
X33035571Y-49960000D01*
X33107000Y-50031428D01*
X33178428Y-50174285D01*
X33178428Y-50602857D01*
X33107000Y-50745714D01*
X33035571Y-50817142D01*
X32892714Y-50888571D01*
X32678428Y-50888571D01*
X33821285Y-49888571D02*
X33821285Y-50888571D01*
X33821285Y-50031428D02*
X33892714Y-49960000D01*
X34035571Y-49888571D01*
X34249857Y-49888571D01*
X34392714Y-49960000D01*
X34464142Y-50102857D01*
X34464142Y-50888571D01*
X28999857Y-53338571D02*
X28999857Y-51838571D01*
X29857000Y-53338571D02*
X29214142Y-52481428D01*
X29857000Y-51838571D02*
X28999857Y-52695714D01*
X31071285Y-53267142D02*
X30928428Y-53338571D01*
X30642714Y-53338571D01*
X30499857Y-53267142D01*
X30428428Y-53124285D01*
X30428428Y-52552857D01*
X30499857Y-52410000D01*
X30642714Y-52338571D01*
X30928428Y-52338571D01*
X31071285Y-52410000D01*
X31142714Y-52552857D01*
X31142714Y-52695714D01*
X30428428Y-52838571D01*
X31642714Y-52338571D02*
X31999857Y-53338571D01*
X32357000Y-52338571D02*
X31999857Y-53338571D01*
X31857000Y-53695714D01*
X31785571Y-53767142D01*
X31642714Y-53838571D01*
D10*
X54356000Y-38100000D02*
X54610000Y-37846000D01*
X54356000Y-38608000D02*
X54356000Y-38100000D01*
D14*
X32119142Y-43858571D02*
X32119142Y-42358571D01*
X32976285Y-43858571D02*
X32333428Y-43001428D01*
X32976285Y-42358571D02*
X32119142Y-43215714D01*
D10*
X30480000Y-54864000D02*
X42164000Y-54864000D01*
D11*
X31528333Y-56332380D02*
X31195000Y-55856190D01*
X30956904Y-56332380D02*
X30956904Y-55332380D01*
X31337857Y-55332380D01*
X31433095Y-55380000D01*
X31480714Y-55427619D01*
X31528333Y-55522857D01*
X31528333Y-55665714D01*
X31480714Y-55760952D01*
X31433095Y-55808571D01*
X31337857Y-55856190D01*
X30956904Y-55856190D01*
X31909285Y-56046666D02*
X32385476Y-56046666D01*
X31814047Y-56332380D02*
X32147380Y-55332380D01*
X32480714Y-56332380D01*
X32814047Y-56332380D02*
X32814047Y-55332380D01*
X33147380Y-56046666D01*
X33480714Y-55332380D01*
X33480714Y-56332380D01*
X33956904Y-56332380D02*
X33956904Y-55332380D01*
X34528333Y-56332380D01*
X34528333Y-55332380D01*
X35623571Y-55332380D02*
X35956904Y-56332380D01*
X36290238Y-55332380D01*
X37147380Y-56332380D02*
X36575952Y-56332380D01*
X36861666Y-56332380D02*
X36861666Y-55332380D01*
X36766428Y-55475238D01*
X36671190Y-55570476D01*
X36575952Y-55618095D01*
X38671190Y-55808571D02*
X38814047Y-55856190D01*
X38861666Y-55903809D01*
X38909285Y-55999047D01*
X38909285Y-56141904D01*
X38861666Y-56237142D01*
X38814047Y-56284761D01*
X38718809Y-56332380D01*
X38337857Y-56332380D01*
X38337857Y-55332380D01*
X38671190Y-55332380D01*
X38766428Y-55380000D01*
X38814047Y-55427619D01*
X38861666Y-55522857D01*
X38861666Y-55618095D01*
X38814047Y-55713333D01*
X38766428Y-55760952D01*
X38671190Y-55808571D01*
X38337857Y-55808571D01*
X39480714Y-56332380D02*
X39385476Y-56284761D01*
X39337857Y-56237142D01*
X39290238Y-56141904D01*
X39290238Y-55856190D01*
X39337857Y-55760952D01*
X39385476Y-55713333D01*
X39480714Y-55665714D01*
X39623571Y-55665714D01*
X39718809Y-55713333D01*
X39766428Y-55760952D01*
X39814047Y-55856190D01*
X39814047Y-56141904D01*
X39766428Y-56237142D01*
X39718809Y-56284761D01*
X39623571Y-56332380D01*
X39480714Y-56332380D01*
X40671190Y-56332380D02*
X40671190Y-55332380D01*
X40671190Y-56284761D02*
X40575952Y-56332380D01*
X40385476Y-56332380D01*
X40290238Y-56284761D01*
X40242619Y-56237142D01*
X40195000Y-56141904D01*
X40195000Y-55856190D01*
X40242619Y-55760952D01*
X40290238Y-55713333D01*
X40385476Y-55665714D01*
X40575952Y-55665714D01*
X40671190Y-55713333D01*
X41052142Y-55665714D02*
X41290238Y-56332380D01*
X41528333Y-55665714D02*
X41290238Y-56332380D01*
X41195000Y-56570476D01*
X41147380Y-56618095D01*
X41052142Y-56665714D01*
D10*
X45515000Y-24511000D02*
G75*
G03*
X45515000Y-24511000I-1700000J0D01*
G01*
X28878000Y-30988000D02*
G75*
G03*
X28878000Y-30988000I-1700000J0D01*
G01*
X33502600Y-28524200D02*
X33502600Y-44264200D01*
X48002600Y-44264200D02*
X48002600Y-28524200D01*
X34493200Y-44272200D02*
X33502600Y-44272200D01*
X44653200Y-44272200D02*
X37033200Y-44272200D01*
X48002600Y-44264200D02*
X47012000Y-44264200D01*
X34493200Y-28524200D02*
X33502600Y-28524200D01*
X44653200Y-28524200D02*
X37033200Y-28524200D01*
X48002600Y-28524200D02*
X47012000Y-28524200D01*
D15*
G36*
X76902342Y-45511661D02*
G01*
X77016940Y-45629123D01*
X77107468Y-45735874D01*
X77502895Y-46324402D01*
X77788641Y-46962919D01*
X77964128Y-47636407D01*
X78028773Y-48329846D01*
X77981998Y-49028216D01*
X77823222Y-49716496D01*
X77551864Y-50379669D01*
X77303436Y-50807558D01*
X77129569Y-51066663D01*
X77005120Y-51229402D01*
X76911793Y-51306853D01*
X76831290Y-51310091D01*
X76745315Y-51250192D01*
X76680024Y-51184939D01*
X76503512Y-51000701D01*
X76830118Y-50503475D01*
X77141213Y-49955721D01*
X77343389Y-49411930D01*
X77447820Y-48834744D01*
X77468747Y-48367847D01*
X77462119Y-48030944D01*
X77438271Y-47769017D01*
X77388983Y-47530362D01*
X77306034Y-47263273D01*
X77282312Y-47195167D01*
X77153763Y-46883605D01*
X76988479Y-46554363D01*
X76820348Y-46274438D01*
X76806246Y-46253971D01*
X76515362Y-45837857D01*
X76647755Y-45651928D01*
X76749340Y-45528745D01*
X76827032Y-45467501D01*
X76835072Y-45465999D01*
X76902342Y-45511661D01*
G37*
X76902342Y-45511661D02*
X77016940Y-45629123D01*
X77107468Y-45735874D01*
X77502895Y-46324402D01*
X77788641Y-46962919D01*
X77964128Y-47636407D01*
X78028773Y-48329846D01*
X77981998Y-49028216D01*
X77823222Y-49716496D01*
X77551864Y-50379669D01*
X77303436Y-50807558D01*
X77129569Y-51066663D01*
X77005120Y-51229402D01*
X76911793Y-51306853D01*
X76831290Y-51310091D01*
X76745315Y-51250192D01*
X76680024Y-51184939D01*
X76503512Y-51000701D01*
X76830118Y-50503475D01*
X77141213Y-49955721D01*
X77343389Y-49411930D01*
X77447820Y-48834744D01*
X77468747Y-48367847D01*
X77462119Y-48030944D01*
X77438271Y-47769017D01*
X77388983Y-47530362D01*
X77306034Y-47263273D01*
X77282312Y-47195167D01*
X77153763Y-46883605D01*
X76988479Y-46554363D01*
X76820348Y-46274438D01*
X76806246Y-46253971D01*
X76515362Y-45837857D01*
X76647755Y-45651928D01*
X76749340Y-45528745D01*
X76827032Y-45467501D01*
X76835072Y-45465999D01*
X76902342Y-45511661D01*
G36*
X71216748Y-45510140D02*
G01*
X71330769Y-45617966D01*
X71344370Y-45633463D01*
X71488268Y-45800927D01*
X71279984Y-46093838D01*
X70911101Y-46711307D01*
X70659128Y-47353899D01*
X70524079Y-48009777D01*
X70505969Y-48667107D01*
X70604812Y-49314053D01*
X70820623Y-49938778D01*
X71153416Y-50529449D01*
X71274365Y-50696020D01*
X71511069Y-51004790D01*
X71335404Y-51188145D01*
X71216268Y-51303824D01*
X71135341Y-51366686D01*
X71123994Y-51370535D01*
X71070961Y-51322848D01*
X70967287Y-51199147D01*
X70843607Y-51037160D01*
X70452244Y-50402941D01*
X70176929Y-49730221D01*
X70017652Y-49032073D01*
X69974404Y-48321569D01*
X70047176Y-47611781D01*
X70235957Y-46915781D01*
X70540739Y-46246643D01*
X70847381Y-45767625D01*
X70976132Y-45605467D01*
X71083187Y-45495975D01*
X71133895Y-45466000D01*
X71216748Y-45510140D01*
G37*
X71216748Y-45510140D02*
X71330769Y-45617966D01*
X71344370Y-45633463D01*
X71488268Y-45800927D01*
X71279984Y-46093838D01*
X70911101Y-46711307D01*
X70659128Y-47353899D01*
X70524079Y-48009777D01*
X70505969Y-48667107D01*
X70604812Y-49314053D01*
X70820623Y-49938778D01*
X71153416Y-50529449D01*
X71274365Y-50696020D01*
X71511069Y-51004790D01*
X71335404Y-51188145D01*
X71216268Y-51303824D01*
X71135341Y-51366686D01*
X71123994Y-51370535D01*
X71070961Y-51322848D01*
X70967287Y-51199147D01*
X70843607Y-51037160D01*
X70452244Y-50402941D01*
X70176929Y-49730221D01*
X70017652Y-49032073D01*
X69974404Y-48321569D01*
X70047176Y-47611781D01*
X70235957Y-46915781D01*
X70540739Y-46246643D01*
X70847381Y-45767625D01*
X70976132Y-45605467D01*
X71083187Y-45495975D01*
X71133895Y-45466000D01*
X71216748Y-45510140D01*
D12*
X74168000Y-49911000D02*
G75*
G03*
X74168000Y-49911000I-127000J0D01*
G01*
X76835000Y-48514000D02*
G75*
G03*
X76835000Y-48514000I-2794000J0D01*
G01*
D10*
X31410000Y-44180000D02*
X31410000Y-42180000D01*
X31410000Y-42180000D02*
X27560000Y-42180000D01*
X31410000Y-44180000D02*
X27560000Y-44180000D01*
X28972742Y-39101500D02*
X29447258Y-39101500D01*
X28972742Y-40146500D02*
X29447258Y-40146500D01*
D14*
X57175400Y-49022000D02*
X57175400Y-47117000D01*
X56159400Y-48133000D02*
X58064400Y-48133000D01*
X52095400Y-48133000D02*
X54000400Y-48133000D01*
D15*
G36*
X53605667Y-45225692D02*
G01*
X53797622Y-45238920D01*
X53907603Y-45262350D01*
X53946996Y-45289661D01*
X53972541Y-45390198D01*
X53991268Y-45578289D01*
X53999359Y-45814524D01*
X53999427Y-45831125D01*
X54000400Y-46291500D01*
X56090763Y-46291500D01*
X56109206Y-45767625D01*
X56117589Y-45529500D01*
X56476900Y-45529500D01*
X56476900Y-46482000D01*
X57873900Y-46482000D01*
X57873900Y-45529500D01*
X56476900Y-45529500D01*
X56117589Y-45529500D01*
X56127650Y-45243750D01*
X58159650Y-45243750D01*
X58178055Y-45765275D01*
X58196460Y-46286801D01*
X58781305Y-46305025D01*
X59366150Y-46323250D01*
X59366150Y-51149250D01*
X55062202Y-51165569D01*
X54185609Y-51168453D01*
X53428387Y-51169911D01*
X52782910Y-51169831D01*
X52241555Y-51168101D01*
X51796700Y-51164609D01*
X51440720Y-51159242D01*
X51165991Y-51151889D01*
X50964891Y-51142437D01*
X50829796Y-51130775D01*
X50753081Y-51116789D01*
X50727529Y-51101818D01*
X50720982Y-51021992D01*
X50715800Y-50829791D01*
X50712067Y-50539832D01*
X50709868Y-50166735D01*
X50709287Y-49725115D01*
X50710410Y-49229593D01*
X50713319Y-48694786D01*
X50713476Y-48672498D01*
X50726769Y-46799500D01*
X51206400Y-46799500D01*
X51206400Y-50673000D01*
X58889900Y-50673000D01*
X58889900Y-46799500D01*
X51206400Y-46799500D01*
X50726769Y-46799500D01*
X50730150Y-46323250D01*
X51314994Y-46305025D01*
X51899839Y-46286801D01*
X51918244Y-45765275D01*
X51926565Y-45529500D01*
X52222400Y-45529500D01*
X52222400Y-46482000D01*
X53619400Y-46482000D01*
X53619400Y-45529500D01*
X52222400Y-45529500D01*
X51926565Y-45529500D01*
X51936650Y-45243750D01*
X52916093Y-45226161D01*
X53316803Y-45221746D01*
X53605667Y-45225692D01*
G37*
X53605667Y-45225692D02*
X53797622Y-45238920D01*
X53907603Y-45262350D01*
X53946996Y-45289661D01*
X53972541Y-45390198D01*
X53991268Y-45578289D01*
X53999359Y-45814524D01*
X53999427Y-45831125D01*
X54000400Y-46291500D01*
X56090763Y-46291500D01*
X56109206Y-45767625D01*
X56117589Y-45529500D01*
X56476900Y-45529500D01*
X56476900Y-46482000D01*
X57873900Y-46482000D01*
X57873900Y-45529500D01*
X56476900Y-45529500D01*
X56117589Y-45529500D01*
X56127650Y-45243750D01*
X58159650Y-45243750D01*
X58178055Y-45765275D01*
X58196460Y-46286801D01*
X58781305Y-46305025D01*
X59366150Y-46323250D01*
X59366150Y-51149250D01*
X55062202Y-51165569D01*
X54185609Y-51168453D01*
X53428387Y-51169911D01*
X52782910Y-51169831D01*
X52241555Y-51168101D01*
X51796700Y-51164609D01*
X51440720Y-51159242D01*
X51165991Y-51151889D01*
X50964891Y-51142437D01*
X50829796Y-51130775D01*
X50753081Y-51116789D01*
X50727529Y-51101818D01*
X50720982Y-51021992D01*
X50715800Y-50829791D01*
X50712067Y-50539832D01*
X50709868Y-50166735D01*
X50709287Y-49725115D01*
X50710410Y-49229593D01*
X50713319Y-48694786D01*
X50713476Y-48672498D01*
X50726769Y-46799500D01*
X51206400Y-46799500D01*
X51206400Y-50673000D01*
X58889900Y-50673000D01*
X58889900Y-46799500D01*
X51206400Y-46799500D01*
X50726769Y-46799500D01*
X50730150Y-46323250D01*
X51314994Y-46305025D01*
X51899839Y-46286801D01*
X51918244Y-45765275D01*
X51926565Y-45529500D01*
X52222400Y-45529500D01*
X52222400Y-46482000D01*
X53619400Y-46482000D01*
X53619400Y-45529500D01*
X52222400Y-45529500D01*
X51926565Y-45529500D01*
X51936650Y-45243750D01*
X52916093Y-45226161D01*
X53316803Y-45221746D01*
X53605667Y-45225692D01*
D12*
X50673000Y-42545000D02*
X52258188Y-42037000D01*
D15*
G36*
X53027046Y-38571546D02*
G01*
X53607915Y-38817043D01*
X54048958Y-39155012D01*
X54347932Y-39582687D01*
X54502593Y-40097300D01*
X54525334Y-40419709D01*
X54444460Y-40906611D01*
X54216941Y-41362212D01*
X53865434Y-41751828D01*
X53491540Y-42002421D01*
X53161459Y-42137327D01*
X52930230Y-42145858D01*
X52782920Y-42027047D01*
X52748040Y-41954191D01*
X52600373Y-41402311D01*
X52526725Y-40754815D01*
X52527642Y-40206968D01*
X53045062Y-40206968D01*
X53047735Y-40600600D01*
X53057143Y-40968565D01*
X53073213Y-41271895D01*
X53095872Y-41471620D01*
X53107596Y-41515876D01*
X53159073Y-41611014D01*
X53234881Y-41618483D01*
X53386634Y-41535650D01*
X53445452Y-41498647D01*
X53676241Y-41301385D01*
X53861249Y-41060326D01*
X53868357Y-41047425D01*
X53988274Y-40673755D01*
X54005665Y-40242625D01*
X53920489Y-39831370D01*
X53869035Y-39711547D01*
X53731792Y-39517065D01*
X53541124Y-39335132D01*
X53340874Y-39197597D01*
X53174882Y-39136309D01*
X53103179Y-39155188D01*
X53078183Y-39261781D01*
X53060213Y-39498589D01*
X53049197Y-39826642D01*
X53045062Y-40206968D01*
X52527642Y-40206968D01*
X52527874Y-40068765D01*
X52604600Y-39401221D01*
X52707228Y-38963571D01*
X52791508Y-38707706D01*
X52864285Y-38582820D01*
X52953124Y-38555126D01*
X53027046Y-38571546D01*
G37*
X53027046Y-38571546D02*
X53607915Y-38817043D01*
X54048958Y-39155012D01*
X54347932Y-39582687D01*
X54502593Y-40097300D01*
X54525334Y-40419709D01*
X54444460Y-40906611D01*
X54216941Y-41362212D01*
X53865434Y-41751828D01*
X53491540Y-42002421D01*
X53161459Y-42137327D01*
X52930230Y-42145858D01*
X52782920Y-42027047D01*
X52748040Y-41954191D01*
X52600373Y-41402311D01*
X52526725Y-40754815D01*
X52527642Y-40206968D01*
X53045062Y-40206968D01*
X53047735Y-40600600D01*
X53057143Y-40968565D01*
X53073213Y-41271895D01*
X53095872Y-41471620D01*
X53107596Y-41515876D01*
X53159073Y-41611014D01*
X53234881Y-41618483D01*
X53386634Y-41535650D01*
X53445452Y-41498647D01*
X53676241Y-41301385D01*
X53861249Y-41060326D01*
X53868357Y-41047425D01*
X53988274Y-40673755D01*
X54005665Y-40242625D01*
X53920489Y-39831370D01*
X53869035Y-39711547D01*
X53731792Y-39517065D01*
X53541124Y-39335132D01*
X53340874Y-39197597D01*
X53174882Y-39136309D01*
X53103179Y-39155188D01*
X53078183Y-39261781D01*
X53060213Y-39498589D01*
X53049197Y-39826642D01*
X53045062Y-40206968D01*
X52527642Y-40206968D01*
X52527874Y-40068765D01*
X52604600Y-39401221D01*
X52707228Y-38963571D01*
X52791508Y-38707706D01*
X52864285Y-38582820D01*
X52953124Y-38555126D01*
X53027046Y-38571546D01*
G36*
X57314363Y-38582132D02*
G01*
X57372638Y-38651020D01*
X57483109Y-38890235D01*
X57573994Y-39258278D01*
X57638703Y-39715144D01*
X57670648Y-40220829D01*
X57672389Y-40470667D01*
X57650394Y-40884027D01*
X57599673Y-41301068D01*
X57528316Y-41679893D01*
X57444414Y-41978604D01*
X57356056Y-42155304D01*
X57344842Y-42166965D01*
X57229706Y-42180059D01*
X57023956Y-42137173D01*
X56946015Y-42111804D01*
X56433913Y-41853943D01*
X56056571Y-41493870D01*
X55816372Y-41034966D01*
X55715699Y-40480612D01*
X55712526Y-40361461D01*
X55717841Y-40315915D01*
X56191129Y-40315915D01*
X56251391Y-40813283D01*
X56440297Y-41207451D01*
X56749746Y-41488324D01*
X56915170Y-41575727D01*
X57025096Y-41581164D01*
X57096813Y-41482424D01*
X57147612Y-41257296D01*
X57190422Y-40922221D01*
X57212224Y-40568834D01*
X57208351Y-40173798D01*
X57182490Y-39786321D01*
X57138331Y-39455609D01*
X57079559Y-39230869D01*
X57060865Y-39193437D01*
X56985980Y-39131610D01*
X56866249Y-39173943D01*
X56757138Y-39249826D01*
X56437317Y-39542612D01*
X56258059Y-39858638D01*
X56192745Y-40248044D01*
X56191129Y-40315915D01*
X55717841Y-40315915D01*
X55776182Y-39816047D01*
X55976191Y-39364411D01*
X56319332Y-38996550D01*
X56812388Y-38702461D01*
X56848218Y-38686355D01*
X57091768Y-38583855D01*
X57230893Y-38550210D01*
X57314363Y-38582132D01*
G37*
X57314363Y-38582132D02*
X57372638Y-38651020D01*
X57483109Y-38890235D01*
X57573994Y-39258278D01*
X57638703Y-39715144D01*
X57670648Y-40220829D01*
X57672389Y-40470667D01*
X57650394Y-40884027D01*
X57599673Y-41301068D01*
X57528316Y-41679893D01*
X57444414Y-41978604D01*
X57356056Y-42155304D01*
X57344842Y-42166965D01*
X57229706Y-42180059D01*
X57023956Y-42137173D01*
X56946015Y-42111804D01*
X56433913Y-41853943D01*
X56056571Y-41493870D01*
X55816372Y-41034966D01*
X55715699Y-40480612D01*
X55712526Y-40361461D01*
X55717841Y-40315915D01*
X56191129Y-40315915D01*
X56251391Y-40813283D01*
X56440297Y-41207451D01*
X56749746Y-41488324D01*
X56915170Y-41575727D01*
X57025096Y-41581164D01*
X57096813Y-41482424D01*
X57147612Y-41257296D01*
X57190422Y-40922221D01*
X57212224Y-40568834D01*
X57208351Y-40173798D01*
X57182490Y-39786321D01*
X57138331Y-39455609D01*
X57079559Y-39230869D01*
X57060865Y-39193437D01*
X56985980Y-39131610D01*
X56866249Y-39173943D01*
X56757138Y-39249826D01*
X56437317Y-39542612D01*
X56258059Y-39858638D01*
X56192745Y-40248044D01*
X56191129Y-40315915D01*
X55717841Y-40315915D01*
X55776182Y-39816047D01*
X55976191Y-39364411D01*
X56319332Y-38996550D01*
X56812388Y-38702461D01*
X56848218Y-38686355D01*
X57091768Y-38583855D01*
X57230893Y-38550210D01*
X57314363Y-38582132D01*
D12*
X57863044Y-38654089D02*
X59309000Y-38100000D01*
X58166000Y-40386000D02*
X59690000Y-40386000D01*
X59563000Y-42545000D02*
X57977812Y-42037000D01*
X52070000Y-40386000D02*
X50546000Y-40386000D01*
X50673000Y-38227000D02*
X52258188Y-38735000D01*
D10*
X55372000Y-31886110D02*
X58420000Y-28575000D01*
X58420000Y-35306000D02*
X55372000Y-31886110D01*
X58420000Y-28575000D02*
X58420000Y-35306000D01*
D15*
G36*
X58293000Y-35172689D02*
G01*
X58085927Y-34861487D01*
X57738072Y-34480513D01*
X57277000Y-34036000D01*
X56896000Y-33528000D01*
X56325054Y-32993489D01*
X55942946Y-32538511D01*
X55629051Y-32246855D01*
X55430490Y-31986704D01*
X55372000Y-31886110D01*
X55452967Y-31755932D01*
X55676523Y-31472075D01*
X56013654Y-31115000D01*
X56435345Y-30734000D01*
X57025116Y-30099000D01*
X57528883Y-29591000D01*
X57917629Y-29083000D01*
X58015496Y-28956000D01*
X58396653Y-28702000D01*
X58293000Y-28720956D01*
X58373305Y-28829000D01*
X58420000Y-29266949D01*
X58420000Y-29500286D01*
X58420000Y-30480000D01*
X60452000Y-30480000D01*
X60452000Y-33401000D01*
X58420000Y-33401000D01*
X58420000Y-34364084D01*
X58407275Y-34815094D01*
X58373562Y-35141020D01*
X58325557Y-35283710D01*
X58358028Y-35284835D01*
X58293000Y-35179000D01*
X58293000Y-35172689D01*
G37*
X58293000Y-35172689D02*
X58085927Y-34861487D01*
X57738072Y-34480513D01*
X57277000Y-34036000D01*
X56896000Y-33528000D01*
X56325054Y-32993489D01*
X55942946Y-32538511D01*
X55629051Y-32246855D01*
X55430490Y-31986704D01*
X55372000Y-31886110D01*
X55452967Y-31755932D01*
X55676523Y-31472075D01*
X56013654Y-31115000D01*
X56435345Y-30734000D01*
X57025116Y-30099000D01*
X57528883Y-29591000D01*
X57917629Y-29083000D01*
X58015496Y-28956000D01*
X58396653Y-28702000D01*
X58293000Y-28720956D01*
X58373305Y-28829000D01*
X58420000Y-29266949D01*
X58420000Y-29500286D01*
X58420000Y-30480000D01*
X60452000Y-30480000D01*
X60452000Y-33401000D01*
X58420000Y-33401000D01*
X58420000Y-34364084D01*
X58407275Y-34815094D01*
X58373562Y-35141020D01*
X58325557Y-35283710D01*
X58358028Y-35284835D01*
X58293000Y-35179000D01*
X58293000Y-35172689D01*
D10*
X70612000Y-32020290D02*
X67564000Y-35331400D01*
X67564000Y-28600400D02*
X70612000Y-32020290D01*
X67564000Y-35331400D02*
X67564000Y-28600400D01*
D15*
G36*
X67691000Y-28733711D02*
G01*
X67898073Y-29044913D01*
X68245928Y-29425887D01*
X68707000Y-29870400D01*
X69088000Y-30378400D01*
X69658946Y-30912911D01*
X70041054Y-31367889D01*
X70354949Y-31659545D01*
X70553510Y-31919696D01*
X70612000Y-32020290D01*
X70531033Y-32150468D01*
X70307477Y-32434325D01*
X69970346Y-32791400D01*
X69548655Y-33172400D01*
X68958884Y-33807400D01*
X68455117Y-34315400D01*
X68066371Y-34823400D01*
X67968504Y-34950400D01*
X67587347Y-35204400D01*
X67691000Y-35185444D01*
X67610695Y-35077400D01*
X67564000Y-34639451D01*
X67564000Y-34406114D01*
X67564000Y-33426400D01*
X65532000Y-33426400D01*
X65532000Y-30505400D01*
X67564000Y-30505400D01*
X67564000Y-29542316D01*
X67576725Y-29091306D01*
X67610438Y-28765380D01*
X67658443Y-28622690D01*
X67625972Y-28621565D01*
X67691000Y-28727400D01*
X67691000Y-28733711D01*
G37*
X67691000Y-28733711D02*
X67898073Y-29044913D01*
X68245928Y-29425887D01*
X68707000Y-29870400D01*
X69088000Y-30378400D01*
X69658946Y-30912911D01*
X70041054Y-31367889D01*
X70354949Y-31659545D01*
X70553510Y-31919696D01*
X70612000Y-32020290D01*
X70531033Y-32150468D01*
X70307477Y-32434325D01*
X69970346Y-32791400D01*
X69548655Y-33172400D01*
X68958884Y-33807400D01*
X68455117Y-34315400D01*
X68066371Y-34823400D01*
X67968504Y-34950400D01*
X67587347Y-35204400D01*
X67691000Y-35185444D01*
X67610695Y-35077400D01*
X67564000Y-34639451D01*
X67564000Y-34406114D01*
X67564000Y-33426400D01*
X65532000Y-33426400D01*
X65532000Y-30505400D01*
X67564000Y-30505400D01*
X67564000Y-29542316D01*
X67576725Y-29091306D01*
X67610438Y-28765380D01*
X67658443Y-28622690D01*
X67625972Y-28621565D01*
X67691000Y-28727400D01*
X67691000Y-28733711D01*
G36*
X63564834Y-42088220D02*
G01*
X63637519Y-42210779D01*
X63674229Y-42307634D01*
X63681023Y-42361201D01*
X63654979Y-42410230D01*
X63578973Y-42461777D01*
X63435882Y-42522898D01*
X63208584Y-42600647D01*
X62879956Y-42702079D01*
X62432875Y-42834251D01*
X62306525Y-42871191D01*
X61870470Y-42999042D01*
X61477299Y-43115285D01*
X61150079Y-43213022D01*
X60911878Y-43285355D01*
X60785762Y-43325386D01*
X60776611Y-43328680D01*
X60702419Y-43334407D01*
X60676293Y-43253043D01*
X60682900Y-43093146D01*
X60706000Y-42812788D01*
X62103420Y-42416242D01*
X62607285Y-42277552D01*
X63017389Y-42173583D01*
X63321885Y-42106995D01*
X63508928Y-42080447D01*
X63564834Y-42088220D01*
G37*
X63564834Y-42088220D02*
X63637519Y-42210779D01*
X63674229Y-42307634D01*
X63681023Y-42361201D01*
X63654979Y-42410230D01*
X63578973Y-42461777D01*
X63435882Y-42522898D01*
X63208584Y-42600647D01*
X62879956Y-42702079D01*
X62432875Y-42834251D01*
X62306525Y-42871191D01*
X61870470Y-42999042D01*
X61477299Y-43115285D01*
X61150079Y-43213022D01*
X60911878Y-43285355D01*
X60785762Y-43325386D01*
X60776611Y-43328680D01*
X60702419Y-43334407D01*
X60676293Y-43253043D01*
X60682900Y-43093146D01*
X60706000Y-42812788D01*
X62103420Y-42416242D01*
X62607285Y-42277552D01*
X63017389Y-42173583D01*
X63321885Y-42106995D01*
X63508928Y-42080447D01*
X63564834Y-42088220D01*
G36*
X65933928Y-37822349D02*
G01*
X66646862Y-37982443D01*
X67265546Y-38245607D01*
X67785863Y-38609738D01*
X68203698Y-39072732D01*
X68433540Y-39455604D01*
X68601628Y-39880091D01*
X68649763Y-40269021D01*
X68578277Y-40665454D01*
X68445414Y-40995600D01*
X68124604Y-41504209D01*
X67688475Y-41932272D01*
X67146848Y-42272771D01*
X66509545Y-42518688D01*
X66209439Y-42593414D01*
X65912817Y-42639786D01*
X65552230Y-42672175D01*
X65172886Y-42689127D01*
X64819991Y-42689189D01*
X64538753Y-42670907D01*
X64424299Y-42650813D01*
X64271379Y-42540107D01*
X64137467Y-42306492D01*
X64024830Y-41971232D01*
X63935731Y-41555592D01*
X63872436Y-41080836D01*
X63837211Y-40568229D01*
X63832564Y-40065286D01*
X64359261Y-40065286D01*
X64373206Y-40722737D01*
X64442715Y-41335133D01*
X64478171Y-41518300D01*
X64564230Y-41858921D01*
X64645432Y-42064525D01*
X64725325Y-42144882D01*
X65003886Y-42180331D01*
X65388893Y-42172566D01*
X65848500Y-42122439D01*
X65910106Y-42113160D01*
X66570311Y-41952135D01*
X67126863Y-41690178D01*
X67579229Y-41327617D01*
X67926878Y-40864783D01*
X67928633Y-40861728D01*
X68084306Y-40532262D01*
X68132379Y-40241574D01*
X68074883Y-39937009D01*
X67973822Y-39689314D01*
X67697748Y-39263774D01*
X67306951Y-38902928D01*
X66820813Y-38615962D01*
X66258722Y-38412059D01*
X65640060Y-38300406D01*
X65016757Y-38288193D01*
X64627728Y-38310457D01*
X64496417Y-38854743D01*
X64400468Y-39422660D01*
X64359261Y-40065286D01*
X63832564Y-40065286D01*
X63832321Y-40039036D01*
X63860030Y-39514520D01*
X63922604Y-39015948D01*
X63998467Y-38653269D01*
X64099687Y-38285141D01*
X64200757Y-38036005D01*
X64331191Y-37882771D01*
X64520505Y-37802352D01*
X64798211Y-37771659D01*
X65130862Y-37767431D01*
X65933928Y-37822349D01*
G37*
X65933928Y-37822349D02*
X66646862Y-37982443D01*
X67265546Y-38245607D01*
X67785863Y-38609738D01*
X68203698Y-39072732D01*
X68433540Y-39455604D01*
X68601628Y-39880091D01*
X68649763Y-40269021D01*
X68578277Y-40665454D01*
X68445414Y-40995600D01*
X68124604Y-41504209D01*
X67688475Y-41932272D01*
X67146848Y-42272771D01*
X66509545Y-42518688D01*
X66209439Y-42593414D01*
X65912817Y-42639786D01*
X65552230Y-42672175D01*
X65172886Y-42689127D01*
X64819991Y-42689189D01*
X64538753Y-42670907D01*
X64424299Y-42650813D01*
X64271379Y-42540107D01*
X64137467Y-42306492D01*
X64024830Y-41971232D01*
X63935731Y-41555592D01*
X63872436Y-41080836D01*
X63837211Y-40568229D01*
X63832564Y-40065286D01*
X64359261Y-40065286D01*
X64373206Y-40722737D01*
X64442715Y-41335133D01*
X64478171Y-41518300D01*
X64564230Y-41858921D01*
X64645432Y-42064525D01*
X64725325Y-42144882D01*
X65003886Y-42180331D01*
X65388893Y-42172566D01*
X65848500Y-42122439D01*
X65910106Y-42113160D01*
X66570311Y-41952135D01*
X67126863Y-41690178D01*
X67579229Y-41327617D01*
X67926878Y-40864783D01*
X67928633Y-40861728D01*
X68084306Y-40532262D01*
X68132379Y-40241574D01*
X68074883Y-39937009D01*
X67973822Y-39689314D01*
X67697748Y-39263774D01*
X67306951Y-38902928D01*
X66820813Y-38615962D01*
X66258722Y-38412059D01*
X65640060Y-38300406D01*
X65016757Y-38288193D01*
X64627728Y-38310457D01*
X64496417Y-38854743D01*
X64400468Y-39422660D01*
X64359261Y-40065286D01*
X63832564Y-40065286D01*
X63832321Y-40039036D01*
X63860030Y-39514520D01*
X63922604Y-39015948D01*
X63998467Y-38653269D01*
X64099687Y-38285141D01*
X64200757Y-38036005D01*
X64331191Y-37882771D01*
X64520505Y-37802352D01*
X64798211Y-37771659D01*
X65130862Y-37767431D01*
X65933928Y-37822349D01*
G36*
X63343693Y-41126480D02*
G01*
X63367494Y-41283359D01*
X63391143Y-41497464D01*
X62230000Y-41841614D01*
X61723937Y-41991928D01*
X61340544Y-42104513D01*
X61062893Y-42181368D01*
X60874053Y-42224493D01*
X60757094Y-42235886D01*
X60695089Y-42217546D01*
X60671105Y-42171471D01*
X60668215Y-42099661D01*
X60669714Y-42025830D01*
X60698669Y-41827430D01*
X60792553Y-41739771D01*
X60796714Y-41738538D01*
X60906386Y-41707097D01*
X61129503Y-41642867D01*
X61440070Y-41553341D01*
X61812092Y-41446012D01*
X62108364Y-41360486D01*
X62499217Y-41249457D01*
X62838747Y-41156487D01*
X63103712Y-41087657D01*
X63270873Y-41049047D01*
X63318430Y-41043839D01*
X63343693Y-41126480D01*
G37*
X63343693Y-41126480D02*
X63367494Y-41283359D01*
X63391143Y-41497464D01*
X62230000Y-41841614D01*
X61723937Y-41991928D01*
X61340544Y-42104513D01*
X61062893Y-42181368D01*
X60874053Y-42224493D01*
X60757094Y-42235886D01*
X60695089Y-42217546D01*
X60671105Y-42171471D01*
X60668215Y-42099661D01*
X60669714Y-42025830D01*
X60698669Y-41827430D01*
X60792553Y-41739771D01*
X60796714Y-41738538D01*
X60906386Y-41707097D01*
X61129503Y-41642867D01*
X61440070Y-41553341D01*
X61812092Y-41446012D01*
X62108364Y-41360486D01*
X62499217Y-41249457D01*
X62838747Y-41156487D01*
X63103712Y-41087657D01*
X63270873Y-41049047D01*
X63318430Y-41043839D01*
X63343693Y-41126480D01*
G36*
X63246000Y-40484520D02*
G01*
X62084857Y-40829456D01*
X61692362Y-40944579D01*
X61345422Y-41043562D01*
X61069218Y-41119443D01*
X60888930Y-41165256D01*
X60833000Y-41175710D01*
X60767537Y-41111141D01*
X60742296Y-40936869D01*
X60742286Y-40932433D01*
X60742286Y-40687837D01*
X61522428Y-40460318D01*
X61903323Y-40349550D01*
X62293717Y-40236543D01*
X62636483Y-40137811D01*
X62796575Y-40091993D01*
X63290578Y-39951188D01*
X63246000Y-40484520D01*
G37*
X63246000Y-40484520D02*
X62084857Y-40829456D01*
X61692362Y-40944579D01*
X61345422Y-41043562D01*
X61069218Y-41119443D01*
X60888930Y-41165256D01*
X60833000Y-41175710D01*
X60767537Y-41111141D01*
X60742296Y-40936869D01*
X60742286Y-40932433D01*
X60742286Y-40687837D01*
X61522428Y-40460318D01*
X61903323Y-40349550D01*
X62293717Y-40236543D01*
X62636483Y-40137811D01*
X62796575Y-40091993D01*
X63290578Y-39951188D01*
X63246000Y-40484520D01*
G36*
X63380576Y-39026411D02*
G01*
X63395111Y-39130553D01*
X63378904Y-39235743D01*
X63346349Y-39398401D01*
X63327052Y-39479380D01*
X63326290Y-39480877D01*
X63254606Y-39506049D01*
X63070574Y-39561371D01*
X62801955Y-39639107D01*
X62476512Y-39731522D01*
X62122007Y-39830878D01*
X61766203Y-39929440D01*
X61436861Y-40019472D01*
X61161744Y-40093238D01*
X60968614Y-40143001D01*
X60885448Y-40161029D01*
X60835329Y-40097383D01*
X60827563Y-39935031D01*
X60828402Y-39925820D01*
X60851143Y-39690611D01*
X62012286Y-39345915D01*
X62407936Y-39230575D01*
X62761193Y-39131551D01*
X63045941Y-39055854D01*
X63236066Y-39010496D01*
X63298614Y-39000553D01*
X63380576Y-39026411D01*
G37*
X63380576Y-39026411D02*
X63395111Y-39130553D01*
X63378904Y-39235743D01*
X63346349Y-39398401D01*
X63327052Y-39479380D01*
X63326290Y-39480877D01*
X63254606Y-39506049D01*
X63070574Y-39561371D01*
X62801955Y-39639107D01*
X62476512Y-39731522D01*
X62122007Y-39830878D01*
X61766203Y-39929440D01*
X61436861Y-40019472D01*
X61161744Y-40093238D01*
X60968614Y-40143001D01*
X60885448Y-40161029D01*
X60835329Y-40097383D01*
X60827563Y-39935031D01*
X60828402Y-39925820D01*
X60851143Y-39690611D01*
X62012286Y-39345915D01*
X62407936Y-39230575D01*
X62761193Y-39131551D01*
X63045941Y-39055854D01*
X63236066Y-39010496D01*
X63298614Y-39000553D01*
X63380576Y-39026411D01*
G36*
X63696553Y-37938534D02*
G01*
X63691761Y-38012326D01*
X63656279Y-38162459D01*
X63606875Y-38330494D01*
X63560318Y-38457991D01*
X63537775Y-38491886D01*
X63462484Y-38511127D01*
X63270529Y-38564562D01*
X62984586Y-38645756D01*
X62627331Y-38748272D01*
X62259114Y-38854743D01*
X61853891Y-38971373D01*
X61496584Y-39072440D01*
X61210635Y-39151455D01*
X61019485Y-39201932D01*
X60947928Y-39217600D01*
X60907119Y-39153997D01*
X60887691Y-38998615D01*
X60887428Y-38976116D01*
X60887428Y-38734632D01*
X62283377Y-38327969D01*
X62708482Y-38205186D01*
X63083134Y-38098992D01*
X63386179Y-38015217D01*
X63596463Y-37959691D01*
X63692831Y-37938243D01*
X63696553Y-37938534D01*
G37*
X63696553Y-37938534D02*
X63691761Y-38012326D01*
X63656279Y-38162459D01*
X63606875Y-38330494D01*
X63560318Y-38457991D01*
X63537775Y-38491886D01*
X63462484Y-38511127D01*
X63270529Y-38564562D01*
X62984586Y-38645756D01*
X62627331Y-38748272D01*
X62259114Y-38854743D01*
X61853891Y-38971373D01*
X61496584Y-39072440D01*
X61210635Y-39151455D01*
X61019485Y-39201932D01*
X60947928Y-39217600D01*
X60907119Y-39153997D01*
X60887691Y-38998615D01*
X60887428Y-38976116D01*
X60887428Y-38734632D01*
X62283377Y-38327969D01*
X62708482Y-38205186D01*
X63083134Y-38098992D01*
X63386179Y-38015217D01*
X63596463Y-37959691D01*
X63692831Y-37938243D01*
X63696553Y-37938534D01*
G36*
X65894857Y-45756286D02*
G01*
X65884496Y-45860194D01*
X65829734Y-45914298D01*
X65695054Y-45934742D01*
X65495714Y-45937714D01*
X65265050Y-45944014D01*
X65144887Y-45971252D01*
X65100828Y-46031937D01*
X65096571Y-46082857D01*
X65110530Y-46159725D01*
X65173275Y-46203456D01*
X65316114Y-46223169D01*
X65570352Y-46227985D01*
X65594784Y-46228000D01*
X65970264Y-46260509D01*
X66253126Y-46352636D01*
X66426572Y-46496284D01*
X66475428Y-46652548D01*
X66515522Y-46804142D01*
X66588401Y-46937567D01*
X66692373Y-47040346D01*
X66847122Y-47088387D01*
X67060115Y-47098857D01*
X67418857Y-47098857D01*
X67418857Y-47389143D01*
X67428760Y-47576169D01*
X67475469Y-47659295D01*
X67584486Y-47679325D01*
X67600286Y-47679428D01*
X67717177Y-47663584D01*
X67769131Y-47588850D01*
X67781649Y-47414423D01*
X67781714Y-47389143D01*
X67781714Y-47098857D01*
X68779852Y-47098857D01*
X68911957Y-47552429D01*
X68992359Y-47951442D01*
X69037494Y-48442666D01*
X69047469Y-48977545D01*
X69022394Y-49507522D01*
X68962376Y-49984042D01*
X68905946Y-50237571D01*
X68769900Y-50727428D01*
X67781714Y-50727428D01*
X67781714Y-50400857D01*
X67774194Y-50199337D01*
X67737232Y-50103858D01*
X67649221Y-50075533D01*
X67600286Y-50074286D01*
X67482612Y-50090525D01*
X67430862Y-50166632D01*
X67418882Y-50343694D01*
X67418857Y-50359304D01*
X67390332Y-50587006D01*
X67284773Y-50745668D01*
X67227642Y-50794733D01*
X67157251Y-50844023D01*
X67074809Y-50881207D01*
X66960176Y-50907981D01*
X66793214Y-50926041D01*
X66553782Y-50937086D01*
X66221743Y-50942811D01*
X65776956Y-50944914D01*
X65442585Y-50945143D01*
X63848745Y-50945143D01*
X63360134Y-50473428D01*
X63116858Y-50245753D01*
X62940882Y-50104662D01*
X62800606Y-50030504D01*
X62664430Y-50003629D01*
X62601586Y-50001714D01*
X62301536Y-49959675D01*
X62055179Y-49846966D01*
X61901034Y-49683697D01*
X61877358Y-49623621D01*
X61854910Y-49468993D01*
X61838584Y-49222193D01*
X61831859Y-48936165D01*
X61831848Y-48931286D01*
X61830857Y-48405143D01*
X61395428Y-48405143D01*
X61395429Y-49028048D01*
X61389733Y-49344652D01*
X61370784Y-49534757D01*
X61335786Y-49616631D01*
X61304714Y-49621020D01*
X61250394Y-49528965D01*
X61208028Y-49293169D01*
X61177782Y-48914555D01*
X61177714Y-48913288D01*
X61147508Y-48534363D01*
X61105182Y-48298091D01*
X61050916Y-48205478D01*
X61050714Y-48205410D01*
X60995815Y-48117590D01*
X60966178Y-47895600D01*
X60960000Y-47650673D01*
X60964748Y-47371272D01*
X60987954Y-47191653D01*
X61043061Y-47066545D01*
X61143510Y-46950672D01*
X61177714Y-46917428D01*
X61395428Y-46708845D01*
X61395428Y-48042286D01*
X61830857Y-48042286D01*
X61830857Y-47829443D01*
X62202854Y-47829443D01*
X62207404Y-48253264D01*
X62209998Y-48410574D01*
X62230000Y-49602571D01*
X62600875Y-49639917D01*
X62792040Y-49668528D01*
X62952183Y-49724410D01*
X63119390Y-49828909D01*
X63331748Y-50003370D01*
X63471732Y-50127988D01*
X63971714Y-50578713D01*
X65532000Y-50562356D01*
X67092286Y-50546000D01*
X67136156Y-49784000D01*
X68144571Y-49784000D01*
X68144571Y-50079106D01*
X68152239Y-50266083D01*
X68193432Y-50345802D01*
X68295437Y-50356013D01*
X68341273Y-50351249D01*
X68444814Y-50326617D01*
X68521338Y-50267429D01*
X68575052Y-50154266D01*
X68610163Y-49967707D01*
X68630878Y-49688332D01*
X68641402Y-49296719D01*
X68644933Y-48949429D01*
X68641835Y-48412209D01*
X68622396Y-48005091D01*
X68583634Y-47713650D01*
X68522570Y-47523462D01*
X68436224Y-47420102D01*
X68322589Y-47389143D01*
X68212669Y-47403197D01*
X68160591Y-47471226D01*
X68145203Y-47632029D01*
X68144571Y-47715714D01*
X68144571Y-48042286D01*
X67128571Y-48042286D01*
X67128571Y-47389143D01*
X66846325Y-47389143D01*
X66537065Y-47331090D01*
X66317449Y-47161443D01*
X66196132Y-46886972D01*
X66194550Y-46879397D01*
X66143011Y-46627143D01*
X64700317Y-46607425D01*
X63257624Y-46587706D01*
X63046957Y-46843282D01*
X62867693Y-47020900D01*
X62691487Y-47093582D01*
X62605716Y-47099968D01*
X62457535Y-47104451D01*
X62349723Y-47129428D01*
X62276315Y-47194657D01*
X62231344Y-47319897D01*
X62208846Y-47524907D01*
X62202854Y-47829443D01*
X61830857Y-47829443D01*
X61830857Y-47603558D01*
X61872506Y-47234408D01*
X61999116Y-46981453D01*
X62213184Y-46841450D01*
X62442552Y-46808571D01*
X62636850Y-46783361D01*
X62757533Y-46681632D01*
X62809459Y-46593008D01*
X62948766Y-46394037D01*
X63135801Y-46279826D01*
X63407966Y-46232371D01*
X63567800Y-46228000D01*
X63787185Y-46220559D01*
X63897282Y-46188895D01*
X63933587Y-46118993D01*
X63935428Y-46082857D01*
X63916324Y-45995800D01*
X63835236Y-45952381D01*
X63656500Y-45938335D01*
X63572571Y-45937714D01*
X63357219Y-45931832D01*
X63249785Y-45901813D01*
X63213152Y-45829097D01*
X63209714Y-45756286D01*
X63209714Y-45574857D01*
X65894857Y-45574857D01*
X65894857Y-45756286D01*
G37*
X65894857Y-45756286D02*
X65884496Y-45860194D01*
X65829734Y-45914298D01*
X65695054Y-45934742D01*
X65495714Y-45937714D01*
X65265050Y-45944014D01*
X65144887Y-45971252D01*
X65100828Y-46031937D01*
X65096571Y-46082857D01*
X65110530Y-46159725D01*
X65173275Y-46203456D01*
X65316114Y-46223169D01*
X65570352Y-46227985D01*
X65594784Y-46228000D01*
X65970264Y-46260509D01*
X66253126Y-46352636D01*
X66426572Y-46496284D01*
X66475428Y-46652548D01*
X66515522Y-46804142D01*
X66588401Y-46937567D01*
X66692373Y-47040346D01*
X66847122Y-47088387D01*
X67060115Y-47098857D01*
X67418857Y-47098857D01*
X67418857Y-47389143D01*
X67428760Y-47576169D01*
X67475469Y-47659295D01*
X67584486Y-47679325D01*
X67600286Y-47679428D01*
X67717177Y-47663584D01*
X67769131Y-47588850D01*
X67781649Y-47414423D01*
X67781714Y-47389143D01*
X67781714Y-47098857D01*
X68779852Y-47098857D01*
X68911957Y-47552429D01*
X68992359Y-47951442D01*
X69037494Y-48442666D01*
X69047469Y-48977545D01*
X69022394Y-49507522D01*
X68962376Y-49984042D01*
X68905946Y-50237571D01*
X68769900Y-50727428D01*
X67781714Y-50727428D01*
X67781714Y-50400857D01*
X67774194Y-50199337D01*
X67737232Y-50103858D01*
X67649221Y-50075533D01*
X67600286Y-50074286D01*
X67482612Y-50090525D01*
X67430862Y-50166632D01*
X67418882Y-50343694D01*
X67418857Y-50359304D01*
X67390332Y-50587006D01*
X67284773Y-50745668D01*
X67227642Y-50794733D01*
X67157251Y-50844023D01*
X67074809Y-50881207D01*
X66960176Y-50907981D01*
X66793214Y-50926041D01*
X66553782Y-50937086D01*
X66221743Y-50942811D01*
X65776956Y-50944914D01*
X65442585Y-50945143D01*
X63848745Y-50945143D01*
X63360134Y-50473428D01*
X63116858Y-50245753D01*
X62940882Y-50104662D01*
X62800606Y-50030504D01*
X62664430Y-50003629D01*
X62601586Y-50001714D01*
X62301536Y-49959675D01*
X62055179Y-49846966D01*
X61901034Y-49683697D01*
X61877358Y-49623621D01*
X61854910Y-49468993D01*
X61838584Y-49222193D01*
X61831859Y-48936165D01*
X61831848Y-48931286D01*
X61830857Y-48405143D01*
X61395428Y-48405143D01*
X61395429Y-49028048D01*
X61389733Y-49344652D01*
X61370784Y-49534757D01*
X61335786Y-49616631D01*
X61304714Y-49621020D01*
X61250394Y-49528965D01*
X61208028Y-49293169D01*
X61177782Y-48914555D01*
X61177714Y-48913288D01*
X61147508Y-48534363D01*
X61105182Y-48298091D01*
X61050916Y-48205478D01*
X61050714Y-48205410D01*
X60995815Y-48117590D01*
X60966178Y-47895600D01*
X60960000Y-47650673D01*
X60964748Y-47371272D01*
X60987954Y-47191653D01*
X61043061Y-47066545D01*
X61143510Y-46950672D01*
X61177714Y-46917428D01*
X61395428Y-46708845D01*
X61395428Y-48042286D01*
X61830857Y-48042286D01*
X61830857Y-47829443D01*
X62202854Y-47829443D01*
X62207404Y-48253264D01*
X62209998Y-48410574D01*
X62230000Y-49602571D01*
X62600875Y-49639917D01*
X62792040Y-49668528D01*
X62952183Y-49724410D01*
X63119390Y-49828909D01*
X63331748Y-50003370D01*
X63471732Y-50127988D01*
X63971714Y-50578713D01*
X65532000Y-50562356D01*
X67092286Y-50546000D01*
X67136156Y-49784000D01*
X68144571Y-49784000D01*
X68144571Y-50079106D01*
X68152239Y-50266083D01*
X68193432Y-50345802D01*
X68295437Y-50356013D01*
X68341273Y-50351249D01*
X68444814Y-50326617D01*
X68521338Y-50267429D01*
X68575052Y-50154266D01*
X68610163Y-49967707D01*
X68630878Y-49688332D01*
X68641402Y-49296719D01*
X68644933Y-48949429D01*
X68641835Y-48412209D01*
X68622396Y-48005091D01*
X68583634Y-47713650D01*
X68522570Y-47523462D01*
X68436224Y-47420102D01*
X68322589Y-47389143D01*
X68212669Y-47403197D01*
X68160591Y-47471226D01*
X68145203Y-47632029D01*
X68144571Y-47715714D01*
X68144571Y-48042286D01*
X67128571Y-48042286D01*
X67128571Y-47389143D01*
X66846325Y-47389143D01*
X66537065Y-47331090D01*
X66317449Y-47161443D01*
X66196132Y-46886972D01*
X66194550Y-46879397D01*
X66143011Y-46627143D01*
X64700317Y-46607425D01*
X63257624Y-46587706D01*
X63046957Y-46843282D01*
X62867693Y-47020900D01*
X62691487Y-47093582D01*
X62605716Y-47099968D01*
X62457535Y-47104451D01*
X62349723Y-47129428D01*
X62276315Y-47194657D01*
X62231344Y-47319897D01*
X62208846Y-47524907D01*
X62202854Y-47829443D01*
X61830857Y-47829443D01*
X61830857Y-47603558D01*
X61872506Y-47234408D01*
X61999116Y-46981453D01*
X62213184Y-46841450D01*
X62442552Y-46808571D01*
X62636850Y-46783361D01*
X62757533Y-46681632D01*
X62809459Y-46593008D01*
X62948766Y-46394037D01*
X63135801Y-46279826D01*
X63407966Y-46232371D01*
X63567800Y-46228000D01*
X63787185Y-46220559D01*
X63897282Y-46188895D01*
X63933587Y-46118993D01*
X63935428Y-46082857D01*
X63916324Y-45995800D01*
X63835236Y-45952381D01*
X63656500Y-45938335D01*
X63572571Y-45937714D01*
X63357219Y-45931832D01*
X63249785Y-45901813D01*
X63213152Y-45829097D01*
X63209714Y-45756286D01*
X63209714Y-45574857D01*
X65894857Y-45574857D01*
X65894857Y-45756286D01*
G36*
X71842496Y-38082882D02*
G01*
X72211910Y-38086907D01*
X72471253Y-38095352D01*
X72638054Y-38109640D01*
X72729847Y-38131193D01*
X72764161Y-38161433D01*
X72760621Y-38196650D01*
X72721462Y-38334910D01*
X72716571Y-38378078D01*
X72647192Y-38399682D01*
X72451782Y-38418047D01*
X72149436Y-38432273D01*
X71759248Y-38441462D01*
X71301429Y-38444714D01*
X69886286Y-38444714D01*
X69886286Y-38081857D01*
X71345479Y-38081857D01*
X71842496Y-38082882D01*
G37*
X71842496Y-38082882D02*
X72211910Y-38086907D01*
X72471253Y-38095352D01*
X72638054Y-38109640D01*
X72729847Y-38131193D01*
X72764161Y-38161433D01*
X72760621Y-38196650D01*
X72721462Y-38334910D01*
X72716571Y-38378078D01*
X72647192Y-38399682D01*
X72451782Y-38418047D01*
X72149436Y-38432273D01*
X71759248Y-38441462D01*
X71301429Y-38444714D01*
X69886286Y-38444714D01*
X69886286Y-38081857D01*
X71345479Y-38081857D01*
X71842496Y-38082882D01*
G36*
X71671878Y-39026183D02*
G01*
X72023495Y-39031829D01*
X72264874Y-39046659D01*
X72413466Y-39075104D01*
X72486725Y-39121599D01*
X72502102Y-39190576D01*
X72477051Y-39286469D01*
X72454807Y-39345922D01*
X72421056Y-39388064D01*
X72343744Y-39418667D01*
X72202952Y-39439482D01*
X71978764Y-39452259D01*
X71651260Y-39458749D01*
X71200523Y-39460701D01*
X71148521Y-39460714D01*
X69886286Y-39460714D01*
X69886286Y-39025286D01*
X71192571Y-39025286D01*
X71671878Y-39026183D01*
G37*
X71671878Y-39026183D02*
X72023495Y-39031829D01*
X72264874Y-39046659D01*
X72413466Y-39075104D01*
X72486725Y-39121599D01*
X72502102Y-39190576D01*
X72477051Y-39286469D01*
X72454807Y-39345922D01*
X72421056Y-39388064D01*
X72343744Y-39418667D01*
X72202952Y-39439482D01*
X71978764Y-39452259D01*
X71651260Y-39458749D01*
X71200523Y-39460701D01*
X71148521Y-39460714D01*
X69886286Y-39460714D01*
X69886286Y-39025286D01*
X71192571Y-39025286D01*
X71671878Y-39026183D01*
G36*
X72395169Y-40240857D02*
G01*
X72373955Y-40440429D01*
X71130120Y-40460285D01*
X69886286Y-40480142D01*
X69886286Y-40041286D01*
X72416384Y-40041286D01*
X72395169Y-40240857D01*
G37*
X72395169Y-40240857D02*
X72373955Y-40440429D01*
X71130120Y-40460285D01*
X69886286Y-40480142D01*
X69886286Y-40041286D01*
X72416384Y-40041286D01*
X72395169Y-40240857D01*
G36*
X71621786Y-41058636D02*
G01*
X71969292Y-41065521D01*
X72210420Y-41082192D01*
X72364549Y-41112899D01*
X72451057Y-41161895D01*
X72489326Y-41233431D01*
X72498733Y-41331757D01*
X72498857Y-41353507D01*
X72429675Y-41375787D01*
X72235645Y-41394612D01*
X71937043Y-41408949D01*
X71554144Y-41417762D01*
X71192571Y-41420143D01*
X69886286Y-41420143D01*
X69886286Y-41057286D01*
X71148521Y-41057286D01*
X71621786Y-41058636D01*
G37*
X71621786Y-41058636D02*
X71969292Y-41065521D01*
X72210420Y-41082192D01*
X72364549Y-41112899D01*
X72451057Y-41161895D01*
X72489326Y-41233431D01*
X72498733Y-41331757D01*
X72498857Y-41353507D01*
X72429675Y-41375787D01*
X72235645Y-41394612D01*
X71937043Y-41408949D01*
X71554144Y-41417762D01*
X71192571Y-41420143D01*
X69886286Y-41420143D01*
X69886286Y-41057286D01*
X71148521Y-41057286D01*
X71621786Y-41058636D01*
G36*
X72718368Y-42186867D02*
G01*
X72770483Y-42334203D01*
X72789143Y-42404581D01*
X72720193Y-42414174D01*
X72527827Y-42422593D01*
X72233770Y-42429366D01*
X71859748Y-42434020D01*
X71427484Y-42436083D01*
X71337714Y-42436143D01*
X69886286Y-42436143D01*
X69886286Y-42000714D01*
X72647592Y-42000714D01*
X72718368Y-42186867D01*
G37*
X72718368Y-42186867D02*
X72770483Y-42334203D01*
X72789143Y-42404581D01*
X72720193Y-42414174D01*
X72527827Y-42422593D01*
X72233770Y-42429366D01*
X71859748Y-42434020D01*
X71427484Y-42436083D01*
X71337714Y-42436143D01*
X69886286Y-42436143D01*
X69886286Y-42000714D01*
X72647592Y-42000714D01*
X72718368Y-42186867D01*
G36*
X75005035Y-37882645D02*
G01*
X75623996Y-37992901D01*
X76160174Y-38186138D01*
X76636381Y-38470014D01*
X76972462Y-38751313D01*
X77366965Y-39201129D01*
X77617704Y-39664562D01*
X77724768Y-40135943D01*
X77688250Y-40609602D01*
X77508240Y-41079869D01*
X77184829Y-41541073D01*
X76923404Y-41809778D01*
X76454912Y-42153509D01*
X75890329Y-42420009D01*
X75261566Y-42600480D01*
X74600530Y-42686121D01*
X73939131Y-42668135D01*
X73850550Y-42657151D01*
X73615815Y-42603192D01*
X73446300Y-42523507D01*
X73408150Y-42487641D01*
X73289479Y-42244424D01*
X73191975Y-41885553D01*
X73117317Y-41439203D01*
X73067187Y-40933549D01*
X73046499Y-40469329D01*
X73445168Y-40469329D01*
X73525099Y-41285759D01*
X73665466Y-41948441D01*
X73742884Y-42235950D01*
X74591604Y-42205690D01*
X74974680Y-42188543D01*
X75254685Y-42163682D01*
X75473692Y-42122993D01*
X75673773Y-42058361D01*
X75896999Y-41961670D01*
X75925442Y-41948416D01*
X76339557Y-41708454D01*
X76722169Y-41402262D01*
X77032598Y-41065940D01*
X77186570Y-40829243D01*
X77305996Y-40456730D01*
X77295558Y-40069728D01*
X77167303Y-39684194D01*
X76933281Y-39316085D01*
X76605541Y-38981360D01*
X76196131Y-38695976D01*
X75717100Y-38475890D01*
X75325671Y-38364619D01*
X75086147Y-38326310D01*
X74790623Y-38297593D01*
X74476229Y-38279649D01*
X74180092Y-38273663D01*
X73939340Y-38280816D01*
X73791101Y-38302292D01*
X73766245Y-38314938D01*
X73725777Y-38405702D01*
X73665170Y-38600341D01*
X73595910Y-38861076D01*
X73578676Y-38931795D01*
X73462604Y-39669971D01*
X73445168Y-40469329D01*
X73046499Y-40469329D01*
X73043265Y-40396765D01*
X73047232Y-39857028D01*
X73080768Y-39342511D01*
X73145555Y-38881389D01*
X73182758Y-38709318D01*
X73276939Y-38348226D01*
X73369703Y-38105406D01*
X73490934Y-37957400D01*
X73670516Y-37880755D01*
X73938333Y-37852012D01*
X74280482Y-37847713D01*
X75005035Y-37882645D01*
G37*
X75005035Y-37882645D02*
X75623996Y-37992901D01*
X76160174Y-38186138D01*
X76636381Y-38470014D01*
X76972462Y-38751313D01*
X77366965Y-39201129D01*
X77617704Y-39664562D01*
X77724768Y-40135943D01*
X77688250Y-40609602D01*
X77508240Y-41079869D01*
X77184829Y-41541073D01*
X76923404Y-41809778D01*
X76454912Y-42153509D01*
X75890329Y-42420009D01*
X75261566Y-42600480D01*
X74600530Y-42686121D01*
X73939131Y-42668135D01*
X73850550Y-42657151D01*
X73615815Y-42603192D01*
X73446300Y-42523507D01*
X73408150Y-42487641D01*
X73289479Y-42244424D01*
X73191975Y-41885553D01*
X73117317Y-41439203D01*
X73067187Y-40933549D01*
X73046499Y-40469329D01*
X73445168Y-40469329D01*
X73525099Y-41285759D01*
X73665466Y-41948441D01*
X73742884Y-42235950D01*
X74591604Y-42205690D01*
X74974680Y-42188543D01*
X75254685Y-42163682D01*
X75473692Y-42122993D01*
X75673773Y-42058361D01*
X75896999Y-41961670D01*
X75925442Y-41948416D01*
X76339557Y-41708454D01*
X76722169Y-41402262D01*
X77032598Y-41065940D01*
X77186570Y-40829243D01*
X77305996Y-40456730D01*
X77295558Y-40069728D01*
X77167303Y-39684194D01*
X76933281Y-39316085D01*
X76605541Y-38981360D01*
X76196131Y-38695976D01*
X75717100Y-38475890D01*
X75325671Y-38364619D01*
X75086147Y-38326310D01*
X74790623Y-38297593D01*
X74476229Y-38279649D01*
X74180092Y-38273663D01*
X73939340Y-38280816D01*
X73791101Y-38302292D01*
X73766245Y-38314938D01*
X73725777Y-38405702D01*
X73665170Y-38600341D01*
X73595910Y-38861076D01*
X73578676Y-38931795D01*
X73462604Y-39669971D01*
X73445168Y-40469329D01*
X73046499Y-40469329D01*
X73043265Y-40396765D01*
X73047232Y-39857028D01*
X73080768Y-39342511D01*
X73145555Y-38881389D01*
X73182758Y-38709318D01*
X73276939Y-38348226D01*
X73369703Y-38105406D01*
X73490934Y-37957400D01*
X73670516Y-37880755D01*
X73938333Y-37852012D01*
X74280482Y-37847713D01*
X75005035Y-37882645D01*
D10*
X28972742Y-47766500D02*
X29447258Y-47766500D01*
X28972742Y-46721500D02*
X29447258Y-46721500D01*
X28972742Y-37098500D02*
X29447258Y-37098500D01*
X28972742Y-36053500D02*
X29447258Y-36053500D01*
X57718000Y-61341000D02*
X57718000Y-62671000D01*
X57718000Y-62671000D02*
X56388000Y-62671000D01*
X57718000Y-60071000D02*
X55118000Y-60071000D01*
X55118000Y-60071000D02*
X55118000Y-62671000D01*
X55118000Y-62671000D02*
X24578000Y-62671000D01*
X24578000Y-57471000D02*
X24578000Y-62671000D01*
X57718000Y-57471000D02*
X24578000Y-57471000D01*
X57718000Y-57471000D02*
X57718000Y-60071000D01*
X55548000Y-24384000D02*
G75*
G03*
X55548000Y-24384000I-1700000J0D01*
G01*
X50595000Y-24511000D02*
G75*
G03*
X50595000Y-24511000I-1700000J0D01*
G01*
X35355000Y-24511000D02*
G75*
G03*
X35355000Y-24511000I-1700000J0D01*
G01*
X40435000Y-24511000D02*
G75*
G03*
X40435000Y-24511000I-1700000J0D01*
G01*
X35976779Y-47754000D02*
X35651221Y-47754000D01*
X35976779Y-46734000D02*
X35651221Y-46734000D01*
X32674779Y-47754000D02*
X32349221Y-47754000D01*
X32674779Y-46734000D02*
X32349221Y-46734000D01*
X66013000Y-49695000D02*
X66013000Y-47410000D01*
X66013000Y-47410000D02*
X64543000Y-47410000D01*
X64543000Y-47410000D02*
X64543000Y-49695000D01*
X63781000Y-30519000D02*
X63781000Y-32804000D01*
X65251000Y-30519000D02*
X63781000Y-30519000D01*
X65251000Y-32804000D02*
X65251000Y-30519000D01*
X75411000Y-41186000D02*
X75411000Y-38901000D01*
X75411000Y-38901000D02*
X73941000Y-38901000D01*
X73941000Y-38901000D02*
X73941000Y-41186000D01*
X55853000Y-49695000D02*
X55853000Y-47410000D01*
X55853000Y-47410000D02*
X54383000Y-47410000D01*
X54383000Y-47410000D02*
X54383000Y-49695000D01*
X55853000Y-41186000D02*
X55853000Y-38901000D01*
X55853000Y-38901000D02*
X54383000Y-38901000D01*
X54383000Y-38901000D02*
X54383000Y-41186000D01*
X66267000Y-41186000D02*
X66267000Y-38901000D01*
X66267000Y-38901000D02*
X64797000Y-38901000D01*
X64797000Y-38901000D02*
X64797000Y-41186000D01*
X74776000Y-48755200D02*
X74776000Y-46470200D01*
X74776000Y-46470200D02*
X73306000Y-46470200D01*
X73306000Y-46470200D02*
X73306000Y-48755200D01*
X62203000Y-32804000D02*
X62203000Y-30519000D01*
X62203000Y-30519000D02*
X60733000Y-30519000D01*
X60733000Y-30519000D02*
X60733000Y-32804000D01*
X37651000Y-50673000D02*
X37651000Y-54323000D01*
X37651000Y-50673000D02*
X37651000Y-48473000D01*
X43121000Y-50673000D02*
X43121000Y-52873000D01*
X43121000Y-50673000D02*
X43121000Y-48473000D01*
D11*
X43672142Y-27630380D02*
X43195952Y-27630380D01*
X43195952Y-26630380D01*
X44005476Y-27106571D02*
X44338809Y-27106571D01*
X44481666Y-27630380D02*
X44005476Y-27630380D01*
X44005476Y-26630380D01*
X44481666Y-26630380D01*
X29972095Y-30488000D02*
X29876857Y-30440380D01*
X29734000Y-30440380D01*
X29591142Y-30488000D01*
X29495904Y-30583238D01*
X29448285Y-30678476D01*
X29400666Y-30868952D01*
X29400666Y-31011809D01*
X29448285Y-31202285D01*
X29495904Y-31297523D01*
X29591142Y-31392761D01*
X29734000Y-31440380D01*
X29829238Y-31440380D01*
X29972095Y-31392761D01*
X30019714Y-31345142D01*
X30019714Y-31011809D01*
X29829238Y-31011809D01*
X30448285Y-31440380D02*
X30448285Y-30440380D01*
X31019714Y-31440380D01*
X31019714Y-30440380D01*
X31495904Y-31440380D02*
X31495904Y-30440380D01*
X31734000Y-30440380D01*
X31876857Y-30488000D01*
X31972095Y-30583238D01*
X32019714Y-30678476D01*
X32067333Y-30868952D01*
X32067333Y-31011809D01*
X32019714Y-31202285D01*
X31972095Y-31297523D01*
X31876857Y-31392761D01*
X31734000Y-31440380D01*
X31495904Y-31440380D01*
X37147666Y-45489761D02*
X37290523Y-45537380D01*
X37528619Y-45537380D01*
X37623857Y-45489761D01*
X37671476Y-45442142D01*
X37719095Y-45346904D01*
X37719095Y-45251666D01*
X37671476Y-45156428D01*
X37623857Y-45108809D01*
X37528619Y-45061190D01*
X37338142Y-45013571D01*
X37242904Y-44965952D01*
X37195285Y-44918333D01*
X37147666Y-44823095D01*
X37147666Y-44727857D01*
X37195285Y-44632619D01*
X37242904Y-44585000D01*
X37338142Y-44537380D01*
X37576238Y-44537380D01*
X37719095Y-44585000D01*
X38052428Y-44537380D02*
X38290523Y-45537380D01*
X38481000Y-44823095D01*
X38671476Y-45537380D01*
X38909571Y-44537380D01*
X39719095Y-44870714D02*
X39719095Y-45537380D01*
X39481000Y-44489761D02*
X39242904Y-45204047D01*
X39861952Y-45204047D01*
X27543333Y-40854380D02*
X28114761Y-40854380D01*
X27829047Y-41854380D02*
X27829047Y-40854380D01*
X28305238Y-40854380D02*
X28638571Y-41854380D01*
X28971904Y-40854380D01*
X29257619Y-41806761D02*
X29400476Y-41854380D01*
X29638571Y-41854380D01*
X29733809Y-41806761D01*
X29781428Y-41759142D01*
X29829047Y-41663904D01*
X29829047Y-41568666D01*
X29781428Y-41473428D01*
X29733809Y-41425809D01*
X29638571Y-41378190D01*
X29448095Y-41330571D01*
X29352857Y-41282952D01*
X29305238Y-41235333D01*
X29257619Y-41140095D01*
X29257619Y-41044857D01*
X29305238Y-40949619D01*
X29352857Y-40902000D01*
X29448095Y-40854380D01*
X29686190Y-40854380D01*
X29829047Y-40902000D01*
X30162380Y-40854380D02*
X30829047Y-40854380D01*
X30400476Y-41854380D01*
X28567142Y-38806380D02*
X28233809Y-38330190D01*
X27995714Y-38806380D02*
X27995714Y-37806380D01*
X28376666Y-37806380D01*
X28471904Y-37854000D01*
X28519523Y-37901619D01*
X28567142Y-37996857D01*
X28567142Y-38139714D01*
X28519523Y-38234952D01*
X28471904Y-38282571D01*
X28376666Y-38330190D01*
X27995714Y-38330190D01*
X29519523Y-38806380D02*
X28948095Y-38806380D01*
X29233809Y-38806380D02*
X29233809Y-37806380D01*
X29138571Y-37949238D01*
X29043333Y-38044476D01*
X28948095Y-38092095D01*
X30376666Y-38139714D02*
X30376666Y-38806380D01*
X30138571Y-37758761D02*
X29900476Y-38473047D01*
X30519523Y-38473047D01*
X28567142Y-46426380D02*
X28233809Y-45950190D01*
X27995714Y-46426380D02*
X27995714Y-45426380D01*
X28376666Y-45426380D01*
X28471904Y-45474000D01*
X28519523Y-45521619D01*
X28567142Y-45616857D01*
X28567142Y-45759714D01*
X28519523Y-45854952D01*
X28471904Y-45902571D01*
X28376666Y-45950190D01*
X27995714Y-45950190D01*
X29519523Y-46426380D02*
X28948095Y-46426380D01*
X29233809Y-46426380D02*
X29233809Y-45426380D01*
X29138571Y-45569238D01*
X29043333Y-45664476D01*
X28948095Y-45712095D01*
X29900476Y-45521619D02*
X29948095Y-45474000D01*
X30043333Y-45426380D01*
X30281428Y-45426380D01*
X30376666Y-45474000D01*
X30424285Y-45521619D01*
X30471904Y-45616857D01*
X30471904Y-45712095D01*
X30424285Y-45854952D01*
X29852857Y-46426380D01*
X30471904Y-46426380D01*
X28567142Y-35504380D02*
X28233809Y-35028190D01*
X27995714Y-35504380D02*
X27995714Y-34504380D01*
X28376666Y-34504380D01*
X28471904Y-34552000D01*
X28519523Y-34599619D01*
X28567142Y-34694857D01*
X28567142Y-34837714D01*
X28519523Y-34932952D01*
X28471904Y-34980571D01*
X28376666Y-35028190D01*
X27995714Y-35028190D01*
X29519523Y-35504380D02*
X28948095Y-35504380D01*
X29233809Y-35504380D02*
X29233809Y-34504380D01*
X29138571Y-34647238D01*
X29043333Y-34742476D01*
X28948095Y-34790095D01*
X29852857Y-34504380D02*
X30471904Y-34504380D01*
X30138571Y-34885333D01*
X30281428Y-34885333D01*
X30376666Y-34932952D01*
X30424285Y-34980571D01*
X30471904Y-35075809D01*
X30471904Y-35313904D01*
X30424285Y-35409142D01*
X30376666Y-35456761D01*
X30281428Y-35504380D01*
X29995714Y-35504380D01*
X29900476Y-35456761D01*
X29852857Y-35409142D01*
X25574666Y-56094380D02*
X25574666Y-56808666D01*
X25527047Y-56951523D01*
X25431809Y-57046761D01*
X25288952Y-57094380D01*
X25193714Y-57094380D01*
X26193714Y-56522952D02*
X26098476Y-56475333D01*
X26050857Y-56427714D01*
X26003238Y-56332476D01*
X26003238Y-56284857D01*
X26050857Y-56189619D01*
X26098476Y-56142000D01*
X26193714Y-56094380D01*
X26384190Y-56094380D01*
X26479428Y-56142000D01*
X26527047Y-56189619D01*
X26574666Y-56284857D01*
X26574666Y-56332476D01*
X26527047Y-56427714D01*
X26479428Y-56475333D01*
X26384190Y-56522952D01*
X26193714Y-56522952D01*
X26098476Y-56570571D01*
X26050857Y-56618190D01*
X26003238Y-56713428D01*
X26003238Y-56903904D01*
X26050857Y-56999142D01*
X26098476Y-57046761D01*
X26193714Y-57094380D01*
X26384190Y-57094380D01*
X26479428Y-57046761D01*
X26527047Y-56999142D01*
X26574666Y-56903904D01*
X26574666Y-56713428D01*
X26527047Y-56618190D01*
X26479428Y-56570571D01*
X26384190Y-56522952D01*
X53427380Y-26630380D02*
X53617857Y-26630380D01*
X53713095Y-26678000D01*
X53808333Y-26773238D01*
X53855952Y-26963714D01*
X53855952Y-27297047D01*
X53808333Y-27487523D01*
X53713095Y-27582761D01*
X53617857Y-27630380D01*
X53427380Y-27630380D01*
X53332142Y-27582761D01*
X53236904Y-27487523D01*
X53189285Y-27297047D01*
X53189285Y-26963714D01*
X53236904Y-26773238D01*
X53332142Y-26678000D01*
X53427380Y-26630380D01*
X54284523Y-27106571D02*
X54617857Y-27106571D01*
X54760714Y-27630380D02*
X54284523Y-27630380D01*
X54284523Y-26630380D01*
X54760714Y-26630380D01*
X47752142Y-27630380D02*
X47752142Y-26630380D01*
X48323571Y-27630380D02*
X47895000Y-27058952D01*
X48323571Y-26630380D02*
X47752142Y-27201809D01*
X48752142Y-27106571D02*
X49085476Y-27106571D01*
X49228333Y-27630380D02*
X48752142Y-27630380D01*
X48752142Y-26630380D01*
X49228333Y-26630380D01*
X49847380Y-27154190D02*
X49847380Y-27630380D01*
X49514047Y-26630380D02*
X49847380Y-27154190D01*
X50180714Y-26630380D01*
X32210571Y-27630380D02*
X32210571Y-26630380D01*
X32543904Y-27344666D01*
X32877238Y-26630380D01*
X32877238Y-27630380D01*
X33543904Y-26630380D02*
X33734380Y-26630380D01*
X33829619Y-26678000D01*
X33924857Y-26773238D01*
X33972476Y-26963714D01*
X33972476Y-27297047D01*
X33924857Y-27487523D01*
X33829619Y-27582761D01*
X33734380Y-27630380D01*
X33543904Y-27630380D01*
X33448666Y-27582761D01*
X33353428Y-27487523D01*
X33305809Y-27297047D01*
X33305809Y-26963714D01*
X33353428Y-26773238D01*
X33448666Y-26678000D01*
X33543904Y-26630380D01*
X34353428Y-27582761D02*
X34496285Y-27630380D01*
X34734380Y-27630380D01*
X34829619Y-27582761D01*
X34877238Y-27535142D01*
X34924857Y-27439904D01*
X34924857Y-27344666D01*
X34877238Y-27249428D01*
X34829619Y-27201809D01*
X34734380Y-27154190D01*
X34543904Y-27106571D01*
X34448666Y-27058952D01*
X34401047Y-27011333D01*
X34353428Y-26916095D01*
X34353428Y-26820857D01*
X34401047Y-26725619D01*
X34448666Y-26678000D01*
X34543904Y-26630380D01*
X34782000Y-26630380D01*
X34924857Y-26678000D01*
X35353428Y-27630380D02*
X35353428Y-26630380D01*
X37449285Y-27582761D02*
X37592142Y-27630380D01*
X37830238Y-27630380D01*
X37925476Y-27582761D01*
X37973095Y-27535142D01*
X38020714Y-27439904D01*
X38020714Y-27344666D01*
X37973095Y-27249428D01*
X37925476Y-27201809D01*
X37830238Y-27154190D01*
X37639761Y-27106571D01*
X37544523Y-27058952D01*
X37496904Y-27011333D01*
X37449285Y-26916095D01*
X37449285Y-26820857D01*
X37496904Y-26725619D01*
X37544523Y-26678000D01*
X37639761Y-26630380D01*
X37877857Y-26630380D01*
X38020714Y-26678000D01*
X39020714Y-27535142D02*
X38973095Y-27582761D01*
X38830238Y-27630380D01*
X38735000Y-27630380D01*
X38592142Y-27582761D01*
X38496904Y-27487523D01*
X38449285Y-27392285D01*
X38401666Y-27201809D01*
X38401666Y-27058952D01*
X38449285Y-26868476D01*
X38496904Y-26773238D01*
X38592142Y-26678000D01*
X38735000Y-26630380D01*
X38830238Y-26630380D01*
X38973095Y-26678000D01*
X39020714Y-26725619D01*
X39449285Y-27630380D02*
X39449285Y-26630380D01*
X40020714Y-27630380D02*
X39592142Y-27058952D01*
X40020714Y-26630380D02*
X39449285Y-27201809D01*
X35647333Y-46331142D02*
X35599714Y-46378761D01*
X35456857Y-46426380D01*
X35361619Y-46426380D01*
X35218761Y-46378761D01*
X35123523Y-46283523D01*
X35075904Y-46188285D01*
X35028285Y-45997809D01*
X35028285Y-45854952D01*
X35075904Y-45664476D01*
X35123523Y-45569238D01*
X35218761Y-45474000D01*
X35361619Y-45426380D01*
X35456857Y-45426380D01*
X35599714Y-45474000D01*
X35647333Y-45521619D01*
X36599714Y-46426380D02*
X36028285Y-46426380D01*
X36314000Y-46426380D02*
X36314000Y-45426380D01*
X36218761Y-45569238D01*
X36123523Y-45664476D01*
X36028285Y-45712095D01*
X31869142Y-46426380D02*
X31535809Y-45950190D01*
X31297714Y-46426380D02*
X31297714Y-45426380D01*
X31678666Y-45426380D01*
X31773904Y-45474000D01*
X31821523Y-45521619D01*
X31869142Y-45616857D01*
X31869142Y-45759714D01*
X31821523Y-45854952D01*
X31773904Y-45902571D01*
X31678666Y-45950190D01*
X31297714Y-45950190D01*
X32821523Y-46426380D02*
X32250095Y-46426380D01*
X32535809Y-46426380D02*
X32535809Y-45426380D01*
X32440571Y-45569238D01*
X32345333Y-45664476D01*
X32250095Y-45712095D01*
X33726285Y-45426380D02*
X33250095Y-45426380D01*
X33202476Y-45902571D01*
X33250095Y-45854952D01*
X33345333Y-45807333D01*
X33583428Y-45807333D01*
X33678666Y-45854952D01*
X33726285Y-45902571D01*
X33773904Y-45997809D01*
X33773904Y-46235904D01*
X33726285Y-46331142D01*
X33678666Y-46378761D01*
X33583428Y-46426380D01*
X33345333Y-46426380D01*
X33250095Y-46378761D01*
X33202476Y-46331142D01*
X64412904Y-45156380D02*
X64412904Y-44156380D01*
X64651000Y-44156380D01*
X64793857Y-44204000D01*
X64889095Y-44299238D01*
X64936714Y-44394476D01*
X64984333Y-44584952D01*
X64984333Y-44727809D01*
X64936714Y-44918285D01*
X64889095Y-45013523D01*
X64793857Y-45108761D01*
X64651000Y-45156380D01*
X64412904Y-45156380D01*
X65317666Y-44156380D02*
X65984333Y-44156380D01*
X65555761Y-45156380D01*
X63777904Y-30170380D02*
X63777904Y-29170380D01*
X64016000Y-29170380D01*
X64158857Y-29218000D01*
X64254095Y-29313238D01*
X64301714Y-29408476D01*
X64349333Y-29598952D01*
X64349333Y-29741809D01*
X64301714Y-29932285D01*
X64254095Y-30027523D01*
X64158857Y-30122761D01*
X64016000Y-30170380D01*
X63777904Y-30170380D01*
X64730285Y-29265619D02*
X64777904Y-29218000D01*
X64873142Y-29170380D01*
X65111238Y-29170380D01*
X65206476Y-29218000D01*
X65254095Y-29265619D01*
X65301714Y-29360857D01*
X65301714Y-29456095D01*
X65254095Y-29598952D01*
X64682666Y-30170380D01*
X65301714Y-30170380D01*
X73937904Y-37536380D02*
X73937904Y-36536380D01*
X74176000Y-36536380D01*
X74318857Y-36584000D01*
X74414095Y-36679238D01*
X74461714Y-36774476D01*
X74509333Y-36964952D01*
X74509333Y-37107809D01*
X74461714Y-37298285D01*
X74414095Y-37393523D01*
X74318857Y-37488761D01*
X74176000Y-37536380D01*
X73937904Y-37536380D01*
X75414095Y-36536380D02*
X74937904Y-36536380D01*
X74890285Y-37012571D01*
X74937904Y-36964952D01*
X75033142Y-36917333D01*
X75271238Y-36917333D01*
X75366476Y-36964952D01*
X75414095Y-37012571D01*
X75461714Y-37107809D01*
X75461714Y-37345904D01*
X75414095Y-37441142D01*
X75366476Y-37488761D01*
X75271238Y-37536380D01*
X75033142Y-37536380D01*
X74937904Y-37488761D01*
X74890285Y-37441142D01*
X54354504Y-45181780D02*
X54354504Y-44181780D01*
X54592600Y-44181780D01*
X54735457Y-44229400D01*
X54830695Y-44324638D01*
X54878314Y-44419876D01*
X54925933Y-44610352D01*
X54925933Y-44753209D01*
X54878314Y-44943685D01*
X54830695Y-45038923D01*
X54735457Y-45134161D01*
X54592600Y-45181780D01*
X54354504Y-45181780D01*
X55783076Y-44181780D02*
X55592600Y-44181780D01*
X55497361Y-44229400D01*
X55449742Y-44277019D01*
X55354504Y-44419876D01*
X55306885Y-44610352D01*
X55306885Y-44991304D01*
X55354504Y-45086542D01*
X55402123Y-45134161D01*
X55497361Y-45181780D01*
X55687838Y-45181780D01*
X55783076Y-45134161D01*
X55830695Y-45086542D01*
X55878314Y-44991304D01*
X55878314Y-44753209D01*
X55830695Y-44657971D01*
X55783076Y-44610352D01*
X55687838Y-44562733D01*
X55497361Y-44562733D01*
X55402123Y-44610352D01*
X55354504Y-44657971D01*
X55306885Y-44753209D01*
X54379904Y-37536380D02*
X54379904Y-36536380D01*
X54618000Y-36536380D01*
X54760857Y-36584000D01*
X54856095Y-36679238D01*
X54903714Y-36774476D01*
X54951333Y-36964952D01*
X54951333Y-37107809D01*
X54903714Y-37298285D01*
X54856095Y-37393523D01*
X54760857Y-37488761D01*
X54618000Y-37536380D01*
X54379904Y-37536380D01*
X55284666Y-36536380D02*
X55903714Y-36536380D01*
X55570380Y-36917333D01*
X55713238Y-36917333D01*
X55808476Y-36964952D01*
X55856095Y-37012571D01*
X55903714Y-37107809D01*
X55903714Y-37345904D01*
X55856095Y-37441142D01*
X55808476Y-37488761D01*
X55713238Y-37536380D01*
X55427523Y-37536380D01*
X55332285Y-37488761D01*
X55284666Y-37441142D01*
X64793904Y-37536380D02*
X64793904Y-36536380D01*
X65032000Y-36536380D01*
X65174857Y-36584000D01*
X65270095Y-36679238D01*
X65317714Y-36774476D01*
X65365333Y-36964952D01*
X65365333Y-37107809D01*
X65317714Y-37298285D01*
X65270095Y-37393523D01*
X65174857Y-37488761D01*
X65032000Y-37536380D01*
X64793904Y-37536380D01*
X66222476Y-36869714D02*
X66222476Y-37536380D01*
X65984380Y-36488761D02*
X65746285Y-37203047D01*
X66365333Y-37203047D01*
X73302904Y-45156380D02*
X73302904Y-44156380D01*
X73541000Y-44156380D01*
X73683857Y-44204000D01*
X73779095Y-44299238D01*
X73826714Y-44394476D01*
X73874333Y-44584952D01*
X73874333Y-44727809D01*
X73826714Y-44918285D01*
X73779095Y-45013523D01*
X73683857Y-45108761D01*
X73541000Y-45156380D01*
X73302904Y-45156380D01*
X74445761Y-44584952D02*
X74350523Y-44537333D01*
X74302904Y-44489714D01*
X74255285Y-44394476D01*
X74255285Y-44346857D01*
X74302904Y-44251619D01*
X74350523Y-44204000D01*
X74445761Y-44156380D01*
X74636238Y-44156380D01*
X74731476Y-44204000D01*
X74779095Y-44251619D01*
X74826714Y-44346857D01*
X74826714Y-44394476D01*
X74779095Y-44489714D01*
X74731476Y-44537333D01*
X74636238Y-44584952D01*
X74445761Y-44584952D01*
X74350523Y-44632571D01*
X74302904Y-44680190D01*
X74255285Y-44775428D01*
X74255285Y-44965904D01*
X74302904Y-45061142D01*
X74350523Y-45108761D01*
X74445761Y-45156380D01*
X74636238Y-45156380D01*
X74731476Y-45108761D01*
X74779095Y-45061142D01*
X74826714Y-44965904D01*
X74826714Y-44775428D01*
X74779095Y-44680190D01*
X74731476Y-44632571D01*
X74636238Y-44584952D01*
X60729904Y-30170380D02*
X60729904Y-29170380D01*
X60968000Y-29170380D01*
X61110857Y-29218000D01*
X61206095Y-29313238D01*
X61253714Y-29408476D01*
X61301333Y-29598952D01*
X61301333Y-29741809D01*
X61253714Y-29932285D01*
X61206095Y-30027523D01*
X61110857Y-30122761D01*
X60968000Y-30170380D01*
X60729904Y-30170380D01*
X62253714Y-30170380D02*
X61682285Y-30170380D01*
X61968000Y-30170380D02*
X61968000Y-29170380D01*
X61872761Y-29313238D01*
X61777523Y-29408476D01*
X61682285Y-29456095D01*
X43434095Y-47585380D02*
X43434095Y-48394904D01*
X43481714Y-48490142D01*
X43529333Y-48537761D01*
X43624571Y-48585380D01*
X43815047Y-48585380D01*
X43910285Y-48537761D01*
X43957904Y-48490142D01*
X44005523Y-48394904D01*
X44005523Y-47585380D01*
X45005523Y-48585380D02*
X44434095Y-48585380D01*
X44719809Y-48585380D02*
X44719809Y-47585380D01*
X44624571Y-47728238D01*
X44529333Y-47823476D01*
X44434095Y-47871095D01*
M02*
