G04 #@! TF.GenerationSoftware,KiCad,Pcbnew,(5.1.9)-1*
G04 #@! TF.CreationDate,2021-02-24T11:41:24+09:00*
G04 #@! TF.ProjectId,body,626f6479-2e6b-4696-9361-645f70636258,rev?*
G04 #@! TF.SameCoordinates,Original*
G04 #@! TF.FileFunction,Copper,L2,Bot*
G04 #@! TF.FilePolarity,Positive*
%FSLAX46Y46*%
G04 Gerber Fmt 4.6, Leading zero omitted, Abs format (unit mm)*
G04 Created by KiCad (PCBNEW (5.1.9)-1) date 2021-02-24 11:41:24*
%MOMM*%
%LPD*%
G01*
G04 APERTURE LIST*
G04 #@! TA.AperFunction,NonConductor*
%ADD10C,0.500000*%
G04 #@! TD*
G04 #@! TA.AperFunction,ComponentPad*
%ADD11C,3.000000*%
G04 #@! TD*
G04 #@! TA.AperFunction,ComponentPad*
%ADD12C,1.524000*%
G04 #@! TD*
G04 #@! TA.AperFunction,ComponentPad*
%ADD13R,1.700000X1.700000*%
G04 #@! TD*
G04 #@! TA.AperFunction,ComponentPad*
%ADD14O,1.700000X1.700000*%
G04 #@! TD*
G04 #@! TA.AperFunction,ViaPad*
%ADD15C,0.800000*%
G04 #@! TD*
G04 #@! TA.AperFunction,Conductor*
%ADD16C,0.400000*%
G04 #@! TD*
G04 #@! TA.AperFunction,Conductor*
%ADD17C,0.254000*%
G04 #@! TD*
G04 #@! TA.AperFunction,Conductor*
%ADD18C,0.100000*%
G04 #@! TD*
G04 APERTURE END LIST*
D10*
X67904857Y-41607428D02*
X68904857Y-40321714D01*
X69619142Y-41607428D02*
X69619142Y-38907428D01*
X68476285Y-38907428D01*
X68190571Y-39036000D01*
X68047714Y-39164571D01*
X67904857Y-39421714D01*
X67904857Y-39807428D01*
X68047714Y-40064571D01*
X68190571Y-40193142D01*
X68476285Y-40321714D01*
X69619142Y-40321714D01*
X66762000Y-40836000D02*
X65333428Y-40836000D01*
X67047714Y-41607428D02*
X66047714Y-38907428D01*
X65047714Y-41607428D01*
X64047714Y-41607428D02*
X64047714Y-38907428D01*
X63047714Y-40836000D01*
X62047714Y-38907428D01*
X62047714Y-41607428D01*
X60619142Y-41607428D02*
X60619142Y-38907428D01*
X58904857Y-41607428D01*
X58904857Y-38907428D01*
D11*
X43815000Y-24511000D03*
X27178000Y-30988000D03*
D12*
X35687000Y-28829000D03*
X35687000Y-44069000D03*
X45847000Y-44069000D03*
X45847000Y-41529000D03*
X45847000Y-36449000D03*
X45847000Y-33909000D03*
X45847000Y-31369000D03*
X45847000Y-28829000D03*
D13*
X56388000Y-61341000D03*
D14*
X56388000Y-58801000D03*
X53848000Y-61341000D03*
X53848000Y-58801000D03*
X51308000Y-61341000D03*
X51308000Y-58801000D03*
X48768000Y-61341000D03*
X48768000Y-58801000D03*
X46228000Y-61341000D03*
X46228000Y-58801000D03*
X43688000Y-61341000D03*
X43688000Y-58801000D03*
X41148000Y-61341000D03*
X41148000Y-58801000D03*
X38608000Y-61341000D03*
X38608000Y-58801000D03*
X36068000Y-61341000D03*
X36068000Y-58801000D03*
X33528000Y-61341000D03*
X33528000Y-58801000D03*
X30988000Y-61341000D03*
X30988000Y-58801000D03*
X28448000Y-61341000D03*
X28448000Y-58801000D03*
X25908000Y-61341000D03*
X25908000Y-58801000D03*
D11*
X53848000Y-24384000D03*
X48895000Y-24511000D03*
X33655000Y-24511000D03*
X38735000Y-24511000D03*
D15*
X44450000Y-49530000D03*
X44450000Y-50800000D03*
X44450000Y-52070000D03*
X45720000Y-52070000D03*
X45720000Y-50800000D03*
X45720000Y-49530000D03*
X36830000Y-49530000D03*
X36830000Y-50800000D03*
X36830000Y-52070000D03*
X35560000Y-52070000D03*
X35560000Y-50800000D03*
X35560000Y-49530000D03*
X31750000Y-33020000D03*
X38100000Y-34290000D03*
X41402000Y-25908000D03*
X49530000Y-44450000D03*
X26797000Y-41402000D03*
X40894000Y-37846000D03*
X51054000Y-28702000D03*
X37465000Y-46228000D03*
X52578000Y-54609976D03*
X32004000Y-44704000D03*
X53848000Y-52324000D03*
X39116000Y-39624000D03*
D16*
X27178000Y-48768000D02*
X27940000Y-49530000D01*
X27178000Y-41402000D02*
X27178000Y-48768000D01*
X27178000Y-30988000D02*
X27178000Y-41402000D01*
X50292000Y-46228000D02*
X38030685Y-46228000D01*
X51562000Y-47498000D02*
X50292000Y-46228000D01*
X38030685Y-46228000D02*
X37465000Y-46228000D01*
X51562000Y-47498000D02*
X51562000Y-53593976D01*
X51562000Y-53593976D02*
X52578000Y-54609976D01*
X46355000Y-36449000D02*
X45847000Y-36449000D01*
X51562000Y-41656000D02*
X46355000Y-36449000D01*
X51562000Y-47498000D02*
X51562000Y-41656000D01*
X31242000Y-45466000D02*
X32004000Y-44704000D01*
X31242000Y-52070000D02*
X31242000Y-45466000D01*
X35560000Y-56388000D02*
X31242000Y-52070000D01*
X50927000Y-56388000D02*
X35560000Y-56388000D01*
X52578000Y-58039000D02*
X50927000Y-56388000D01*
X52578000Y-60071000D02*
X52578000Y-58039000D01*
X53848000Y-61341000D02*
X52578000Y-60071000D01*
X43815000Y-26797000D02*
X43815000Y-24511000D01*
X30480000Y-40132000D02*
X43815000Y-26797000D01*
X30480000Y-52156543D02*
X30480000Y-40132000D01*
X35311468Y-56988011D02*
X30480000Y-52156543D01*
X38954011Y-56988011D02*
X35311468Y-56988011D01*
X39878000Y-57912000D02*
X38954011Y-56988011D01*
X39878000Y-60071000D02*
X39878000Y-57912000D01*
X41148000Y-61341000D02*
X39878000Y-60071000D01*
X29879989Y-31244691D02*
X36613680Y-24511000D01*
X36613680Y-24511000D02*
X38735000Y-24511000D01*
X34798000Y-60071000D02*
X34798000Y-57323086D01*
X29879989Y-52405075D02*
X29879989Y-31244691D01*
X36068000Y-61341000D02*
X34798000Y-60071000D01*
X34798000Y-57323086D02*
X29879989Y-52405075D01*
X33655000Y-26035000D02*
X33655000Y-24511000D01*
X29210000Y-30480000D02*
X33655000Y-26035000D01*
X29210000Y-52583628D02*
X29210000Y-30480000D01*
X32258000Y-55631628D02*
X29210000Y-52583628D01*
X32258000Y-60071000D02*
X32258000Y-55631628D01*
X33528000Y-61341000D02*
X32258000Y-60071000D01*
X41021000Y-41529000D02*
X39116000Y-39624000D01*
X45847000Y-41529000D02*
X41021000Y-41529000D01*
X39116000Y-32766000D02*
X39116000Y-39624000D01*
X47371000Y-24511000D02*
X39116000Y-32766000D01*
X48895000Y-24511000D02*
X47371000Y-24511000D01*
X48895000Y-24511000D02*
X48895000Y-37973000D01*
X48895000Y-37973000D02*
X52162010Y-41240010D01*
X52162010Y-41240010D02*
X52162010Y-50638010D01*
X52162010Y-50638010D02*
X53848000Y-52324000D01*
D17*
X51795047Y-23761244D02*
X51713000Y-24173721D01*
X51713000Y-24594279D01*
X51795047Y-25006756D01*
X51955988Y-25395302D01*
X52189637Y-25744983D01*
X52487017Y-26042363D01*
X52836698Y-26276012D01*
X53225244Y-26436953D01*
X53637721Y-26519000D01*
X54058279Y-26519000D01*
X54470756Y-26436953D01*
X54859302Y-26276012D01*
X55208983Y-26042363D01*
X55506363Y-25744983D01*
X55740012Y-25395302D01*
X55900953Y-25006756D01*
X55983000Y-24594279D01*
X55983000Y-24173721D01*
X55908977Y-23801582D01*
X56025847Y-23811743D01*
X58019267Y-24129927D01*
X59984815Y-24589815D01*
X61912471Y-25189065D01*
X63792336Y-25924597D01*
X65614808Y-26792657D01*
X67370548Y-27788795D01*
X69050573Y-28907914D01*
X70646294Y-30144293D01*
X72149529Y-31491596D01*
X73552581Y-32942922D01*
X74848269Y-34490838D01*
X76029986Y-36127455D01*
X77091650Y-37844348D01*
X78027856Y-39632776D01*
X78833794Y-41483557D01*
X79505344Y-43387224D01*
X80039069Y-45334037D01*
X80432232Y-47314010D01*
X80441788Y-47390396D01*
X80123077Y-47327000D01*
X79388923Y-47327000D01*
X78668874Y-47470227D01*
X77990604Y-47751176D01*
X77380176Y-48159050D01*
X76861050Y-48678176D01*
X76453176Y-49288604D01*
X76172227Y-49966874D01*
X76029000Y-50686923D01*
X76029000Y-51421077D01*
X76161262Y-52086000D01*
X58847678Y-52086000D01*
X58778516Y-52092812D01*
X58770953Y-52092759D01*
X58748234Y-52094987D01*
X58626101Y-52107823D01*
X58607484Y-52109657D01*
X58606863Y-52109845D01*
X58501730Y-52120895D01*
X58356557Y-52150695D01*
X58210999Y-52178461D01*
X58189145Y-52185060D01*
X57952369Y-52258355D01*
X57815770Y-52315776D01*
X57678367Y-52371290D01*
X57658212Y-52382008D01*
X57658206Y-52382010D01*
X57658201Y-52382014D01*
X57440181Y-52499896D01*
X57317309Y-52582774D01*
X57193325Y-52663906D01*
X57175643Y-52678327D01*
X57175638Y-52678331D01*
X57175634Y-52678335D01*
X56984654Y-52836328D01*
X56880226Y-52941488D01*
X56774362Y-53045157D01*
X56759811Y-53062747D01*
X56603156Y-53254825D01*
X56521156Y-53378245D01*
X56437426Y-53500529D01*
X56426569Y-53520610D01*
X56310206Y-53739458D01*
X56253732Y-53876475D01*
X56195361Y-54012662D01*
X56188611Y-54034469D01*
X56188608Y-54034477D01*
X56188606Y-54034486D01*
X56116971Y-54271751D01*
X56088184Y-54417134D01*
X56057376Y-54562070D01*
X56054990Y-54584774D01*
X56030803Y-54831452D01*
X56023000Y-54910679D01*
X56023000Y-57359510D01*
X55954842Y-57373068D01*
X55684589Y-57485010D01*
X55441368Y-57647525D01*
X55234525Y-57854368D01*
X55112805Y-58036534D01*
X55043178Y-57919645D01*
X54848269Y-57703412D01*
X54614920Y-57529359D01*
X54352099Y-57404175D01*
X54204890Y-57359524D01*
X53975000Y-57480845D01*
X53975000Y-58674000D01*
X53995000Y-58674000D01*
X53995000Y-58928000D01*
X53975000Y-58928000D01*
X53975000Y-58948000D01*
X53721000Y-58948000D01*
X53721000Y-58928000D01*
X53701000Y-58928000D01*
X53701000Y-58674000D01*
X53721000Y-58674000D01*
X53721000Y-57480845D01*
X53491110Y-57359524D01*
X53343901Y-57404175D01*
X53195295Y-57474958D01*
X53171291Y-57445709D01*
X53139432Y-57419563D01*
X51546446Y-55826579D01*
X51520291Y-55794709D01*
X51393146Y-55690364D01*
X51248087Y-55612828D01*
X51090689Y-55565082D01*
X50968019Y-55553000D01*
X50968018Y-55553000D01*
X50927000Y-55548960D01*
X50885982Y-55553000D01*
X35905868Y-55553000D01*
X32077000Y-51724133D01*
X32077000Y-45811868D01*
X32160775Y-45728092D01*
X32305898Y-45699226D01*
X32494256Y-45621205D01*
X32663774Y-45507937D01*
X32807937Y-45363774D01*
X32921205Y-45194256D01*
X32999226Y-45005898D01*
X33039000Y-44805939D01*
X33039000Y-44602061D01*
X32999226Y-44402102D01*
X32921205Y-44213744D01*
X32807937Y-44044226D01*
X32695119Y-43931408D01*
X34290000Y-43931408D01*
X34290000Y-44206592D01*
X34343686Y-44476490D01*
X34448995Y-44730727D01*
X34601880Y-44959535D01*
X34796465Y-45154120D01*
X35025273Y-45307005D01*
X35279510Y-45412314D01*
X35549408Y-45466000D01*
X35824592Y-45466000D01*
X36094490Y-45412314D01*
X36348727Y-45307005D01*
X36577535Y-45154120D01*
X36772120Y-44959535D01*
X36925005Y-44730727D01*
X37030314Y-44476490D01*
X37084000Y-44206592D01*
X37084000Y-43931408D01*
X37030314Y-43661510D01*
X36925005Y-43407273D01*
X36772120Y-43178465D01*
X36577535Y-42983880D01*
X36348727Y-42830995D01*
X36094490Y-42725686D01*
X35824592Y-42672000D01*
X35549408Y-42672000D01*
X35279510Y-42725686D01*
X35025273Y-42830995D01*
X34796465Y-42983880D01*
X34601880Y-43178465D01*
X34448995Y-43407273D01*
X34343686Y-43661510D01*
X34290000Y-43931408D01*
X32695119Y-43931408D01*
X32663774Y-43900063D01*
X32494256Y-43786795D01*
X32305898Y-43708774D01*
X32105939Y-43669000D01*
X31902061Y-43669000D01*
X31702102Y-43708774D01*
X31513744Y-43786795D01*
X31344226Y-43900063D01*
X31315000Y-43929289D01*
X31315000Y-40477867D01*
X38281000Y-33511868D01*
X38281001Y-39010714D01*
X38198795Y-39133744D01*
X38120774Y-39322102D01*
X38081000Y-39522061D01*
X38081000Y-39725939D01*
X38120774Y-39925898D01*
X38198795Y-40114256D01*
X38312063Y-40283774D01*
X38456226Y-40427937D01*
X38625744Y-40541205D01*
X38814102Y-40619226D01*
X38959225Y-40648093D01*
X40401563Y-42090432D01*
X40427709Y-42122291D01*
X40459568Y-42148437D01*
X40459570Y-42148439D01*
X40554854Y-42226636D01*
X40699913Y-42304172D01*
X40857311Y-42351918D01*
X41021000Y-42368040D01*
X41062018Y-42364000D01*
X44724773Y-42364000D01*
X44761880Y-42419535D01*
X44956465Y-42614120D01*
X45185273Y-42767005D01*
X45262515Y-42799000D01*
X45185273Y-42830995D01*
X44956465Y-42983880D01*
X44761880Y-43178465D01*
X44608995Y-43407273D01*
X44503686Y-43661510D01*
X44450000Y-43931408D01*
X44450000Y-44206592D01*
X44503686Y-44476490D01*
X44608995Y-44730727D01*
X44761880Y-44959535D01*
X44956465Y-45154120D01*
X45185273Y-45307005D01*
X45392882Y-45393000D01*
X38078285Y-45393000D01*
X37955256Y-45310795D01*
X37766898Y-45232774D01*
X37566939Y-45193000D01*
X37363061Y-45193000D01*
X37163102Y-45232774D01*
X36974744Y-45310795D01*
X36805226Y-45424063D01*
X36661063Y-45568226D01*
X36547795Y-45737744D01*
X36469774Y-45926102D01*
X36430000Y-46126061D01*
X36430000Y-46329939D01*
X36469774Y-46529898D01*
X36547795Y-46718256D01*
X36661063Y-46887774D01*
X36805226Y-47031937D01*
X36974744Y-47145205D01*
X37163102Y-47223226D01*
X37363061Y-47263000D01*
X37566939Y-47263000D01*
X37766898Y-47223226D01*
X37955256Y-47145205D01*
X38078285Y-47063000D01*
X49946133Y-47063000D01*
X50727000Y-47843868D01*
X50727001Y-53552948D01*
X50722960Y-53593976D01*
X50739082Y-53757664D01*
X50786828Y-53915062D01*
X50864364Y-54060121D01*
X50872153Y-54069612D01*
X50968710Y-54187267D01*
X51000574Y-54213417D01*
X51553907Y-54766751D01*
X51582774Y-54911874D01*
X51660795Y-55100232D01*
X51774063Y-55269750D01*
X51918226Y-55413913D01*
X52087744Y-55527181D01*
X52276102Y-55605202D01*
X52476061Y-55644976D01*
X52679939Y-55644976D01*
X52879898Y-55605202D01*
X53068256Y-55527181D01*
X53237774Y-55413913D01*
X53381937Y-55269750D01*
X53495205Y-55100232D01*
X53573226Y-54911874D01*
X53613000Y-54711915D01*
X53613000Y-54508037D01*
X53573226Y-54308078D01*
X53495205Y-54119720D01*
X53381937Y-53950202D01*
X53237774Y-53806039D01*
X53068256Y-53692771D01*
X52879898Y-53614750D01*
X52734775Y-53585883D01*
X52397000Y-53248109D01*
X52397000Y-52053868D01*
X52823908Y-52480776D01*
X52852774Y-52625898D01*
X52930795Y-52814256D01*
X53044063Y-52983774D01*
X53188226Y-53127937D01*
X53357744Y-53241205D01*
X53546102Y-53319226D01*
X53746061Y-53359000D01*
X53949939Y-53359000D01*
X54149898Y-53319226D01*
X54338256Y-53241205D01*
X54507774Y-53127937D01*
X54651937Y-52983774D01*
X54765205Y-52814256D01*
X54843226Y-52625898D01*
X54883000Y-52425939D01*
X54883000Y-52222061D01*
X54843226Y-52022102D01*
X54765205Y-51833744D01*
X54651937Y-51664226D01*
X54507774Y-51520063D01*
X54338256Y-51406795D01*
X54149898Y-51328774D01*
X54004776Y-51299908D01*
X52997010Y-50292143D01*
X52997010Y-41281028D01*
X53001050Y-41240010D01*
X52984928Y-41076321D01*
X52937182Y-40918923D01*
X52859646Y-40773864D01*
X52781449Y-40678580D01*
X52781447Y-40678578D01*
X52755301Y-40646719D01*
X52723443Y-40620574D01*
X49784868Y-37682000D01*
X57305572Y-37682000D01*
X57305572Y-43502000D01*
X71218429Y-43502000D01*
X71218429Y-37682000D01*
X57305572Y-37682000D01*
X49784868Y-37682000D01*
X49730000Y-37627133D01*
X49730000Y-26476039D01*
X49906302Y-26403012D01*
X50255983Y-26169363D01*
X50553363Y-25871983D01*
X50787012Y-25522302D01*
X50947953Y-25133756D01*
X51030000Y-24721279D01*
X51030000Y-24300721D01*
X50947953Y-23888244D01*
X50830881Y-23605607D01*
X51859521Y-23605591D01*
X51795047Y-23761244D01*
G04 #@! TA.AperFunction,Conductor*
D18*
G36*
X51795047Y-23761244D02*
G01*
X51713000Y-24173721D01*
X51713000Y-24594279D01*
X51795047Y-25006756D01*
X51955988Y-25395302D01*
X52189637Y-25744983D01*
X52487017Y-26042363D01*
X52836698Y-26276012D01*
X53225244Y-26436953D01*
X53637721Y-26519000D01*
X54058279Y-26519000D01*
X54470756Y-26436953D01*
X54859302Y-26276012D01*
X55208983Y-26042363D01*
X55506363Y-25744983D01*
X55740012Y-25395302D01*
X55900953Y-25006756D01*
X55983000Y-24594279D01*
X55983000Y-24173721D01*
X55908977Y-23801582D01*
X56025847Y-23811743D01*
X58019267Y-24129927D01*
X59984815Y-24589815D01*
X61912471Y-25189065D01*
X63792336Y-25924597D01*
X65614808Y-26792657D01*
X67370548Y-27788795D01*
X69050573Y-28907914D01*
X70646294Y-30144293D01*
X72149529Y-31491596D01*
X73552581Y-32942922D01*
X74848269Y-34490838D01*
X76029986Y-36127455D01*
X77091650Y-37844348D01*
X78027856Y-39632776D01*
X78833794Y-41483557D01*
X79505344Y-43387224D01*
X80039069Y-45334037D01*
X80432232Y-47314010D01*
X80441788Y-47390396D01*
X80123077Y-47327000D01*
X79388923Y-47327000D01*
X78668874Y-47470227D01*
X77990604Y-47751176D01*
X77380176Y-48159050D01*
X76861050Y-48678176D01*
X76453176Y-49288604D01*
X76172227Y-49966874D01*
X76029000Y-50686923D01*
X76029000Y-51421077D01*
X76161262Y-52086000D01*
X58847678Y-52086000D01*
X58778516Y-52092812D01*
X58770953Y-52092759D01*
X58748234Y-52094987D01*
X58626101Y-52107823D01*
X58607484Y-52109657D01*
X58606863Y-52109845D01*
X58501730Y-52120895D01*
X58356557Y-52150695D01*
X58210999Y-52178461D01*
X58189145Y-52185060D01*
X57952369Y-52258355D01*
X57815770Y-52315776D01*
X57678367Y-52371290D01*
X57658212Y-52382008D01*
X57658206Y-52382010D01*
X57658201Y-52382014D01*
X57440181Y-52499896D01*
X57317309Y-52582774D01*
X57193325Y-52663906D01*
X57175643Y-52678327D01*
X57175638Y-52678331D01*
X57175634Y-52678335D01*
X56984654Y-52836328D01*
X56880226Y-52941488D01*
X56774362Y-53045157D01*
X56759811Y-53062747D01*
X56603156Y-53254825D01*
X56521156Y-53378245D01*
X56437426Y-53500529D01*
X56426569Y-53520610D01*
X56310206Y-53739458D01*
X56253732Y-53876475D01*
X56195361Y-54012662D01*
X56188611Y-54034469D01*
X56188608Y-54034477D01*
X56188606Y-54034486D01*
X56116971Y-54271751D01*
X56088184Y-54417134D01*
X56057376Y-54562070D01*
X56054990Y-54584774D01*
X56030803Y-54831452D01*
X56023000Y-54910679D01*
X56023000Y-57359510D01*
X55954842Y-57373068D01*
X55684589Y-57485010D01*
X55441368Y-57647525D01*
X55234525Y-57854368D01*
X55112805Y-58036534D01*
X55043178Y-57919645D01*
X54848269Y-57703412D01*
X54614920Y-57529359D01*
X54352099Y-57404175D01*
X54204890Y-57359524D01*
X53975000Y-57480845D01*
X53975000Y-58674000D01*
X53995000Y-58674000D01*
X53995000Y-58928000D01*
X53975000Y-58928000D01*
X53975000Y-58948000D01*
X53721000Y-58948000D01*
X53721000Y-58928000D01*
X53701000Y-58928000D01*
X53701000Y-58674000D01*
X53721000Y-58674000D01*
X53721000Y-57480845D01*
X53491110Y-57359524D01*
X53343901Y-57404175D01*
X53195295Y-57474958D01*
X53171291Y-57445709D01*
X53139432Y-57419563D01*
X51546446Y-55826579D01*
X51520291Y-55794709D01*
X51393146Y-55690364D01*
X51248087Y-55612828D01*
X51090689Y-55565082D01*
X50968019Y-55553000D01*
X50968018Y-55553000D01*
X50927000Y-55548960D01*
X50885982Y-55553000D01*
X35905868Y-55553000D01*
X32077000Y-51724133D01*
X32077000Y-45811868D01*
X32160775Y-45728092D01*
X32305898Y-45699226D01*
X32494256Y-45621205D01*
X32663774Y-45507937D01*
X32807937Y-45363774D01*
X32921205Y-45194256D01*
X32999226Y-45005898D01*
X33039000Y-44805939D01*
X33039000Y-44602061D01*
X32999226Y-44402102D01*
X32921205Y-44213744D01*
X32807937Y-44044226D01*
X32695119Y-43931408D01*
X34290000Y-43931408D01*
X34290000Y-44206592D01*
X34343686Y-44476490D01*
X34448995Y-44730727D01*
X34601880Y-44959535D01*
X34796465Y-45154120D01*
X35025273Y-45307005D01*
X35279510Y-45412314D01*
X35549408Y-45466000D01*
X35824592Y-45466000D01*
X36094490Y-45412314D01*
X36348727Y-45307005D01*
X36577535Y-45154120D01*
X36772120Y-44959535D01*
X36925005Y-44730727D01*
X37030314Y-44476490D01*
X37084000Y-44206592D01*
X37084000Y-43931408D01*
X37030314Y-43661510D01*
X36925005Y-43407273D01*
X36772120Y-43178465D01*
X36577535Y-42983880D01*
X36348727Y-42830995D01*
X36094490Y-42725686D01*
X35824592Y-42672000D01*
X35549408Y-42672000D01*
X35279510Y-42725686D01*
X35025273Y-42830995D01*
X34796465Y-42983880D01*
X34601880Y-43178465D01*
X34448995Y-43407273D01*
X34343686Y-43661510D01*
X34290000Y-43931408D01*
X32695119Y-43931408D01*
X32663774Y-43900063D01*
X32494256Y-43786795D01*
X32305898Y-43708774D01*
X32105939Y-43669000D01*
X31902061Y-43669000D01*
X31702102Y-43708774D01*
X31513744Y-43786795D01*
X31344226Y-43900063D01*
X31315000Y-43929289D01*
X31315000Y-40477867D01*
X38281000Y-33511868D01*
X38281001Y-39010714D01*
X38198795Y-39133744D01*
X38120774Y-39322102D01*
X38081000Y-39522061D01*
X38081000Y-39725939D01*
X38120774Y-39925898D01*
X38198795Y-40114256D01*
X38312063Y-40283774D01*
X38456226Y-40427937D01*
X38625744Y-40541205D01*
X38814102Y-40619226D01*
X38959225Y-40648093D01*
X40401563Y-42090432D01*
X40427709Y-42122291D01*
X40459568Y-42148437D01*
X40459570Y-42148439D01*
X40554854Y-42226636D01*
X40699913Y-42304172D01*
X40857311Y-42351918D01*
X41021000Y-42368040D01*
X41062018Y-42364000D01*
X44724773Y-42364000D01*
X44761880Y-42419535D01*
X44956465Y-42614120D01*
X45185273Y-42767005D01*
X45262515Y-42799000D01*
X45185273Y-42830995D01*
X44956465Y-42983880D01*
X44761880Y-43178465D01*
X44608995Y-43407273D01*
X44503686Y-43661510D01*
X44450000Y-43931408D01*
X44450000Y-44206592D01*
X44503686Y-44476490D01*
X44608995Y-44730727D01*
X44761880Y-44959535D01*
X44956465Y-45154120D01*
X45185273Y-45307005D01*
X45392882Y-45393000D01*
X38078285Y-45393000D01*
X37955256Y-45310795D01*
X37766898Y-45232774D01*
X37566939Y-45193000D01*
X37363061Y-45193000D01*
X37163102Y-45232774D01*
X36974744Y-45310795D01*
X36805226Y-45424063D01*
X36661063Y-45568226D01*
X36547795Y-45737744D01*
X36469774Y-45926102D01*
X36430000Y-46126061D01*
X36430000Y-46329939D01*
X36469774Y-46529898D01*
X36547795Y-46718256D01*
X36661063Y-46887774D01*
X36805226Y-47031937D01*
X36974744Y-47145205D01*
X37163102Y-47223226D01*
X37363061Y-47263000D01*
X37566939Y-47263000D01*
X37766898Y-47223226D01*
X37955256Y-47145205D01*
X38078285Y-47063000D01*
X49946133Y-47063000D01*
X50727000Y-47843868D01*
X50727001Y-53552948D01*
X50722960Y-53593976D01*
X50739082Y-53757664D01*
X50786828Y-53915062D01*
X50864364Y-54060121D01*
X50872153Y-54069612D01*
X50968710Y-54187267D01*
X51000574Y-54213417D01*
X51553907Y-54766751D01*
X51582774Y-54911874D01*
X51660795Y-55100232D01*
X51774063Y-55269750D01*
X51918226Y-55413913D01*
X52087744Y-55527181D01*
X52276102Y-55605202D01*
X52476061Y-55644976D01*
X52679939Y-55644976D01*
X52879898Y-55605202D01*
X53068256Y-55527181D01*
X53237774Y-55413913D01*
X53381937Y-55269750D01*
X53495205Y-55100232D01*
X53573226Y-54911874D01*
X53613000Y-54711915D01*
X53613000Y-54508037D01*
X53573226Y-54308078D01*
X53495205Y-54119720D01*
X53381937Y-53950202D01*
X53237774Y-53806039D01*
X53068256Y-53692771D01*
X52879898Y-53614750D01*
X52734775Y-53585883D01*
X52397000Y-53248109D01*
X52397000Y-52053868D01*
X52823908Y-52480776D01*
X52852774Y-52625898D01*
X52930795Y-52814256D01*
X53044063Y-52983774D01*
X53188226Y-53127937D01*
X53357744Y-53241205D01*
X53546102Y-53319226D01*
X53746061Y-53359000D01*
X53949939Y-53359000D01*
X54149898Y-53319226D01*
X54338256Y-53241205D01*
X54507774Y-53127937D01*
X54651937Y-52983774D01*
X54765205Y-52814256D01*
X54843226Y-52625898D01*
X54883000Y-52425939D01*
X54883000Y-52222061D01*
X54843226Y-52022102D01*
X54765205Y-51833744D01*
X54651937Y-51664226D01*
X54507774Y-51520063D01*
X54338256Y-51406795D01*
X54149898Y-51328774D01*
X54004776Y-51299908D01*
X52997010Y-50292143D01*
X52997010Y-41281028D01*
X53001050Y-41240010D01*
X52984928Y-41076321D01*
X52937182Y-40918923D01*
X52859646Y-40773864D01*
X52781449Y-40678580D01*
X52781447Y-40678578D01*
X52755301Y-40646719D01*
X52723443Y-40620574D01*
X49784868Y-37682000D01*
X57305572Y-37682000D01*
X57305572Y-43502000D01*
X71218429Y-43502000D01*
X71218429Y-37682000D01*
X57305572Y-37682000D01*
X49784868Y-37682000D01*
X49730000Y-37627133D01*
X49730000Y-26476039D01*
X49906302Y-26403012D01*
X50255983Y-26169363D01*
X50553363Y-25871983D01*
X50787012Y-25522302D01*
X50947953Y-25133756D01*
X51030000Y-24721279D01*
X51030000Y-24300721D01*
X50947953Y-23888244D01*
X50830881Y-23605607D01*
X51859521Y-23605591D01*
X51795047Y-23761244D01*
G37*
G04 #@! TD.AperFunction*
D17*
X28375000Y-52542610D02*
X28370960Y-52583628D01*
X28385013Y-52726312D01*
X28387082Y-52747316D01*
X28434828Y-52904714D01*
X28512364Y-53049773D01*
X28616709Y-53176919D01*
X28648579Y-53203074D01*
X31423001Y-55977498D01*
X31423001Y-57373831D01*
X31421158Y-57373068D01*
X31134260Y-57316000D01*
X30841740Y-57316000D01*
X30554842Y-57373068D01*
X30284589Y-57485010D01*
X30041368Y-57647525D01*
X29834525Y-57854368D01*
X29718000Y-58028760D01*
X29601475Y-57854368D01*
X29394632Y-57647525D01*
X29151411Y-57485010D01*
X28881158Y-57373068D01*
X28594260Y-57316000D01*
X28301740Y-57316000D01*
X28014842Y-57373068D01*
X27744589Y-57485010D01*
X27501368Y-57647525D01*
X27294525Y-57854368D01*
X27178000Y-58028760D01*
X27061475Y-57854368D01*
X26854632Y-57647525D01*
X26611411Y-57485010D01*
X26341158Y-57373068D01*
X26273000Y-57359510D01*
X26273000Y-32923020D01*
X26396745Y-32986020D01*
X26801551Y-33100044D01*
X27220824Y-33132902D01*
X27638451Y-33083334D01*
X28038383Y-32953243D01*
X28334038Y-32795214D01*
X28375001Y-32712358D01*
X28375000Y-52542610D01*
G04 #@! TA.AperFunction,Conductor*
D18*
G36*
X28375000Y-52542610D02*
G01*
X28370960Y-52583628D01*
X28385013Y-52726312D01*
X28387082Y-52747316D01*
X28434828Y-52904714D01*
X28512364Y-53049773D01*
X28616709Y-53176919D01*
X28648579Y-53203074D01*
X31423001Y-55977498D01*
X31423001Y-57373831D01*
X31421158Y-57373068D01*
X31134260Y-57316000D01*
X30841740Y-57316000D01*
X30554842Y-57373068D01*
X30284589Y-57485010D01*
X30041368Y-57647525D01*
X29834525Y-57854368D01*
X29718000Y-58028760D01*
X29601475Y-57854368D01*
X29394632Y-57647525D01*
X29151411Y-57485010D01*
X28881158Y-57373068D01*
X28594260Y-57316000D01*
X28301740Y-57316000D01*
X28014842Y-57373068D01*
X27744589Y-57485010D01*
X27501368Y-57647525D01*
X27294525Y-57854368D01*
X27178000Y-58028760D01*
X27061475Y-57854368D01*
X26854632Y-57647525D01*
X26611411Y-57485010D01*
X26341158Y-57373068D01*
X26273000Y-57359510D01*
X26273000Y-32923020D01*
X26396745Y-32986020D01*
X26801551Y-33100044D01*
X27220824Y-33132902D01*
X27638451Y-33083334D01*
X28038383Y-32953243D01*
X28334038Y-32795214D01*
X28375001Y-32712358D01*
X28375000Y-52542610D01*
G37*
G04 #@! TD.AperFunction*
D17*
X47236637Y-25871983D02*
X47534017Y-26169363D01*
X47883698Y-26403012D01*
X48060000Y-26476039D01*
X48060001Y-36973134D01*
X47205693Y-36118826D01*
X47190314Y-36041510D01*
X47085005Y-35787273D01*
X46932120Y-35558465D01*
X46737535Y-35363880D01*
X46508727Y-35210995D01*
X46431485Y-35179000D01*
X46508727Y-35147005D01*
X46737535Y-34994120D01*
X46932120Y-34799535D01*
X47085005Y-34570727D01*
X47190314Y-34316490D01*
X47244000Y-34046592D01*
X47244000Y-33771408D01*
X47190314Y-33501510D01*
X47085005Y-33247273D01*
X46932120Y-33018465D01*
X46737535Y-32823880D01*
X46508727Y-32670995D01*
X46437057Y-32641308D01*
X46450023Y-32636636D01*
X46565980Y-32574656D01*
X46632960Y-32334565D01*
X45847000Y-31548605D01*
X45061040Y-32334565D01*
X45128020Y-32574656D01*
X45263760Y-32638485D01*
X45185273Y-32670995D01*
X44956465Y-32823880D01*
X44761880Y-33018465D01*
X44608995Y-33247273D01*
X44503686Y-33501510D01*
X44450000Y-33771408D01*
X44450000Y-34046592D01*
X44503686Y-34316490D01*
X44608995Y-34570727D01*
X44761880Y-34799535D01*
X44956465Y-34994120D01*
X45185273Y-35147005D01*
X45262515Y-35179000D01*
X45185273Y-35210995D01*
X44956465Y-35363880D01*
X44761880Y-35558465D01*
X44608995Y-35787273D01*
X44503686Y-36041510D01*
X44450000Y-36311408D01*
X44450000Y-36586592D01*
X44503686Y-36856490D01*
X44608995Y-37110727D01*
X44761880Y-37339535D01*
X44956465Y-37534120D01*
X45185273Y-37687005D01*
X45439510Y-37792314D01*
X45709408Y-37846000D01*
X45984592Y-37846000D01*
X46254490Y-37792314D01*
X46440428Y-37715295D01*
X50727001Y-42001869D01*
X50727000Y-45513716D01*
X50613087Y-45452828D01*
X50455689Y-45405082D01*
X50333019Y-45393000D01*
X50333018Y-45393000D01*
X50292000Y-45388960D01*
X50250982Y-45393000D01*
X46301118Y-45393000D01*
X46508727Y-45307005D01*
X46737535Y-45154120D01*
X46932120Y-44959535D01*
X47085005Y-44730727D01*
X47190314Y-44476490D01*
X47244000Y-44206592D01*
X47244000Y-43931408D01*
X47190314Y-43661510D01*
X47085005Y-43407273D01*
X46932120Y-43178465D01*
X46737535Y-42983880D01*
X46508727Y-42830995D01*
X46431485Y-42799000D01*
X46508727Y-42767005D01*
X46737535Y-42614120D01*
X46932120Y-42419535D01*
X47085005Y-42190727D01*
X47190314Y-41936490D01*
X47244000Y-41666592D01*
X47244000Y-41391408D01*
X47190314Y-41121510D01*
X47085005Y-40867273D01*
X46932120Y-40638465D01*
X46737535Y-40443880D01*
X46508727Y-40290995D01*
X46254490Y-40185686D01*
X45984592Y-40132000D01*
X45709408Y-40132000D01*
X45439510Y-40185686D01*
X45185273Y-40290995D01*
X44956465Y-40443880D01*
X44761880Y-40638465D01*
X44724773Y-40694000D01*
X41366869Y-40694000D01*
X40140093Y-39467225D01*
X40111226Y-39322102D01*
X40033205Y-39133744D01*
X39951000Y-39010715D01*
X39951000Y-33111867D01*
X41621850Y-31441017D01*
X44445090Y-31441017D01*
X44486078Y-31713133D01*
X44579364Y-31972023D01*
X44641344Y-32087980D01*
X44881435Y-32154960D01*
X45667395Y-31369000D01*
X46026605Y-31369000D01*
X46812565Y-32154960D01*
X47052656Y-32087980D01*
X47169756Y-31838952D01*
X47236023Y-31571865D01*
X47248910Y-31296983D01*
X47207922Y-31024867D01*
X47114636Y-30765977D01*
X47052656Y-30650020D01*
X46812565Y-30583040D01*
X46026605Y-31369000D01*
X45667395Y-31369000D01*
X44881435Y-30583040D01*
X44641344Y-30650020D01*
X44524244Y-30899048D01*
X44457977Y-31166135D01*
X44445090Y-31441017D01*
X41621850Y-31441017D01*
X44469502Y-28593367D01*
X44450000Y-28691408D01*
X44450000Y-28966592D01*
X44503686Y-29236490D01*
X44608995Y-29490727D01*
X44761880Y-29719535D01*
X44956465Y-29914120D01*
X45185273Y-30067005D01*
X45256943Y-30096692D01*
X45243977Y-30101364D01*
X45128020Y-30163344D01*
X45061040Y-30403435D01*
X45847000Y-31189395D01*
X46632960Y-30403435D01*
X46565980Y-30163344D01*
X46430240Y-30099515D01*
X46508727Y-30067005D01*
X46737535Y-29914120D01*
X46932120Y-29719535D01*
X47085005Y-29490727D01*
X47190314Y-29236490D01*
X47244000Y-28966592D01*
X47244000Y-28691408D01*
X47190314Y-28421510D01*
X47085005Y-28167273D01*
X46932120Y-27938465D01*
X46737535Y-27743880D01*
X46508727Y-27590995D01*
X46254490Y-27485686D01*
X45984592Y-27432000D01*
X45709408Y-27432000D01*
X45611367Y-27451502D01*
X47218312Y-25844557D01*
X47236637Y-25871983D01*
G04 #@! TA.AperFunction,Conductor*
D18*
G36*
X47236637Y-25871983D02*
G01*
X47534017Y-26169363D01*
X47883698Y-26403012D01*
X48060000Y-26476039D01*
X48060001Y-36973134D01*
X47205693Y-36118826D01*
X47190314Y-36041510D01*
X47085005Y-35787273D01*
X46932120Y-35558465D01*
X46737535Y-35363880D01*
X46508727Y-35210995D01*
X46431485Y-35179000D01*
X46508727Y-35147005D01*
X46737535Y-34994120D01*
X46932120Y-34799535D01*
X47085005Y-34570727D01*
X47190314Y-34316490D01*
X47244000Y-34046592D01*
X47244000Y-33771408D01*
X47190314Y-33501510D01*
X47085005Y-33247273D01*
X46932120Y-33018465D01*
X46737535Y-32823880D01*
X46508727Y-32670995D01*
X46437057Y-32641308D01*
X46450023Y-32636636D01*
X46565980Y-32574656D01*
X46632960Y-32334565D01*
X45847000Y-31548605D01*
X45061040Y-32334565D01*
X45128020Y-32574656D01*
X45263760Y-32638485D01*
X45185273Y-32670995D01*
X44956465Y-32823880D01*
X44761880Y-33018465D01*
X44608995Y-33247273D01*
X44503686Y-33501510D01*
X44450000Y-33771408D01*
X44450000Y-34046592D01*
X44503686Y-34316490D01*
X44608995Y-34570727D01*
X44761880Y-34799535D01*
X44956465Y-34994120D01*
X45185273Y-35147005D01*
X45262515Y-35179000D01*
X45185273Y-35210995D01*
X44956465Y-35363880D01*
X44761880Y-35558465D01*
X44608995Y-35787273D01*
X44503686Y-36041510D01*
X44450000Y-36311408D01*
X44450000Y-36586592D01*
X44503686Y-36856490D01*
X44608995Y-37110727D01*
X44761880Y-37339535D01*
X44956465Y-37534120D01*
X45185273Y-37687005D01*
X45439510Y-37792314D01*
X45709408Y-37846000D01*
X45984592Y-37846000D01*
X46254490Y-37792314D01*
X46440428Y-37715295D01*
X50727001Y-42001869D01*
X50727000Y-45513716D01*
X50613087Y-45452828D01*
X50455689Y-45405082D01*
X50333019Y-45393000D01*
X50333018Y-45393000D01*
X50292000Y-45388960D01*
X50250982Y-45393000D01*
X46301118Y-45393000D01*
X46508727Y-45307005D01*
X46737535Y-45154120D01*
X46932120Y-44959535D01*
X47085005Y-44730727D01*
X47190314Y-44476490D01*
X47244000Y-44206592D01*
X47244000Y-43931408D01*
X47190314Y-43661510D01*
X47085005Y-43407273D01*
X46932120Y-43178465D01*
X46737535Y-42983880D01*
X46508727Y-42830995D01*
X46431485Y-42799000D01*
X46508727Y-42767005D01*
X46737535Y-42614120D01*
X46932120Y-42419535D01*
X47085005Y-42190727D01*
X47190314Y-41936490D01*
X47244000Y-41666592D01*
X47244000Y-41391408D01*
X47190314Y-41121510D01*
X47085005Y-40867273D01*
X46932120Y-40638465D01*
X46737535Y-40443880D01*
X46508727Y-40290995D01*
X46254490Y-40185686D01*
X45984592Y-40132000D01*
X45709408Y-40132000D01*
X45439510Y-40185686D01*
X45185273Y-40290995D01*
X44956465Y-40443880D01*
X44761880Y-40638465D01*
X44724773Y-40694000D01*
X41366869Y-40694000D01*
X40140093Y-39467225D01*
X40111226Y-39322102D01*
X40033205Y-39133744D01*
X39951000Y-39010715D01*
X39951000Y-33111867D01*
X41621850Y-31441017D01*
X44445090Y-31441017D01*
X44486078Y-31713133D01*
X44579364Y-31972023D01*
X44641344Y-32087980D01*
X44881435Y-32154960D01*
X45667395Y-31369000D01*
X46026605Y-31369000D01*
X46812565Y-32154960D01*
X47052656Y-32087980D01*
X47169756Y-31838952D01*
X47236023Y-31571865D01*
X47248910Y-31296983D01*
X47207922Y-31024867D01*
X47114636Y-30765977D01*
X47052656Y-30650020D01*
X46812565Y-30583040D01*
X46026605Y-31369000D01*
X45667395Y-31369000D01*
X44881435Y-30583040D01*
X44641344Y-30650020D01*
X44524244Y-30899048D01*
X44457977Y-31166135D01*
X44445090Y-31441017D01*
X41621850Y-31441017D01*
X44469502Y-28593367D01*
X44450000Y-28691408D01*
X44450000Y-28966592D01*
X44503686Y-29236490D01*
X44608995Y-29490727D01*
X44761880Y-29719535D01*
X44956465Y-29914120D01*
X45185273Y-30067005D01*
X45256943Y-30096692D01*
X45243977Y-30101364D01*
X45128020Y-30163344D01*
X45061040Y-30403435D01*
X45847000Y-31189395D01*
X46632960Y-30403435D01*
X46565980Y-30163344D01*
X46430240Y-30099515D01*
X46508727Y-30067005D01*
X46737535Y-29914120D01*
X46932120Y-29719535D01*
X47085005Y-29490727D01*
X47190314Y-29236490D01*
X47244000Y-28966592D01*
X47244000Y-28691408D01*
X47190314Y-28421510D01*
X47085005Y-28167273D01*
X46932120Y-27938465D01*
X46737535Y-27743880D01*
X46508727Y-27590995D01*
X46254490Y-27485686D01*
X45984592Y-27432000D01*
X45709408Y-27432000D01*
X45611367Y-27451502D01*
X47218312Y-25844557D01*
X47236637Y-25871983D01*
G37*
G04 #@! TD.AperFunction*
D17*
X41762047Y-23888244D02*
X41680000Y-24300721D01*
X41680000Y-24721279D01*
X41762047Y-25133756D01*
X41922988Y-25522302D01*
X42156637Y-25871983D01*
X42454017Y-26169363D01*
X42803698Y-26403012D01*
X42962388Y-26468743D01*
X30714989Y-38716144D01*
X30714989Y-31590558D01*
X33614139Y-28691408D01*
X34290000Y-28691408D01*
X34290000Y-28966592D01*
X34343686Y-29236490D01*
X34448995Y-29490727D01*
X34601880Y-29719535D01*
X34796465Y-29914120D01*
X35025273Y-30067005D01*
X35279510Y-30172314D01*
X35549408Y-30226000D01*
X35824592Y-30226000D01*
X36094490Y-30172314D01*
X36348727Y-30067005D01*
X36577535Y-29914120D01*
X36772120Y-29719535D01*
X36925005Y-29490727D01*
X37030314Y-29236490D01*
X37084000Y-28966592D01*
X37084000Y-28691408D01*
X37030314Y-28421510D01*
X36925005Y-28167273D01*
X36772120Y-27938465D01*
X36577535Y-27743880D01*
X36348727Y-27590995D01*
X36094490Y-27485686D01*
X35824592Y-27432000D01*
X35549408Y-27432000D01*
X35279510Y-27485686D01*
X35025273Y-27590995D01*
X34796465Y-27743880D01*
X34601880Y-27938465D01*
X34448995Y-28167273D01*
X34343686Y-28421510D01*
X34290000Y-28691408D01*
X33614139Y-28691408D01*
X36825490Y-25480058D01*
X36842988Y-25522302D01*
X37076637Y-25871983D01*
X37374017Y-26169363D01*
X37723698Y-26403012D01*
X38112244Y-26563953D01*
X38524721Y-26646000D01*
X38945279Y-26646000D01*
X39357756Y-26563953D01*
X39746302Y-26403012D01*
X40095983Y-26169363D01*
X40393363Y-25871983D01*
X40627012Y-25522302D01*
X40787953Y-25133756D01*
X40870000Y-24721279D01*
X40870000Y-24300721D01*
X40787953Y-23888244D01*
X40670947Y-23605767D01*
X41879061Y-23605748D01*
X41762047Y-23888244D01*
G04 #@! TA.AperFunction,Conductor*
D18*
G36*
X41762047Y-23888244D02*
G01*
X41680000Y-24300721D01*
X41680000Y-24721279D01*
X41762047Y-25133756D01*
X41922988Y-25522302D01*
X42156637Y-25871983D01*
X42454017Y-26169363D01*
X42803698Y-26403012D01*
X42962388Y-26468743D01*
X30714989Y-38716144D01*
X30714989Y-31590558D01*
X33614139Y-28691408D01*
X34290000Y-28691408D01*
X34290000Y-28966592D01*
X34343686Y-29236490D01*
X34448995Y-29490727D01*
X34601880Y-29719535D01*
X34796465Y-29914120D01*
X35025273Y-30067005D01*
X35279510Y-30172314D01*
X35549408Y-30226000D01*
X35824592Y-30226000D01*
X36094490Y-30172314D01*
X36348727Y-30067005D01*
X36577535Y-29914120D01*
X36772120Y-29719535D01*
X36925005Y-29490727D01*
X37030314Y-29236490D01*
X37084000Y-28966592D01*
X37084000Y-28691408D01*
X37030314Y-28421510D01*
X36925005Y-28167273D01*
X36772120Y-27938465D01*
X36577535Y-27743880D01*
X36348727Y-27590995D01*
X36094490Y-27485686D01*
X35824592Y-27432000D01*
X35549408Y-27432000D01*
X35279510Y-27485686D01*
X35025273Y-27590995D01*
X34796465Y-27743880D01*
X34601880Y-27938465D01*
X34448995Y-28167273D01*
X34343686Y-28421510D01*
X34290000Y-28691408D01*
X33614139Y-28691408D01*
X36825490Y-25480058D01*
X36842988Y-25522302D01*
X37076637Y-25871983D01*
X37374017Y-26169363D01*
X37723698Y-26403012D01*
X38112244Y-26563953D01*
X38524721Y-26646000D01*
X38945279Y-26646000D01*
X39357756Y-26563953D01*
X39746302Y-26403012D01*
X40095983Y-26169363D01*
X40393363Y-25871983D01*
X40627012Y-25522302D01*
X40787953Y-25133756D01*
X40870000Y-24721279D01*
X40870000Y-24300721D01*
X40787953Y-23888244D01*
X40670947Y-23605767D01*
X41879061Y-23605748D01*
X41762047Y-23888244D01*
G37*
G04 #@! TD.AperFunction*
D17*
X31602047Y-23888244D02*
X31520000Y-24300721D01*
X31520000Y-24721279D01*
X31602047Y-25133756D01*
X31762988Y-25522302D01*
X31996637Y-25871983D01*
X32294017Y-26169363D01*
X32321443Y-26187689D01*
X28779081Y-29730052D01*
X28669653Y-29675952D01*
X27357605Y-30988000D01*
X27371748Y-31002143D01*
X27192143Y-31181748D01*
X27178000Y-31167605D01*
X27163858Y-31181748D01*
X26984253Y-31002143D01*
X26998395Y-30988000D01*
X26984253Y-30973858D01*
X27163858Y-30794253D01*
X27178000Y-30808395D01*
X28490048Y-29496347D01*
X28334038Y-29180786D01*
X27959255Y-28989980D01*
X27554449Y-28875956D01*
X27135176Y-28843098D01*
X26717549Y-28892666D01*
X26317617Y-29022757D01*
X26273000Y-29046605D01*
X26273000Y-28131000D01*
X26810923Y-28238000D01*
X27545077Y-28238000D01*
X28265126Y-28094773D01*
X28943396Y-27813824D01*
X29553824Y-27405950D01*
X30072950Y-26886824D01*
X30480824Y-26276396D01*
X30761773Y-25598126D01*
X30905000Y-24878077D01*
X30905000Y-24143923D01*
X30797985Y-23605923D01*
X31718994Y-23605908D01*
X31602047Y-23888244D01*
G04 #@! TA.AperFunction,Conductor*
D18*
G36*
X31602047Y-23888244D02*
G01*
X31520000Y-24300721D01*
X31520000Y-24721279D01*
X31602047Y-25133756D01*
X31762988Y-25522302D01*
X31996637Y-25871983D01*
X32294017Y-26169363D01*
X32321443Y-26187689D01*
X28779081Y-29730052D01*
X28669653Y-29675952D01*
X27357605Y-30988000D01*
X27371748Y-31002143D01*
X27192143Y-31181748D01*
X27178000Y-31167605D01*
X27163858Y-31181748D01*
X26984253Y-31002143D01*
X26998395Y-30988000D01*
X26984253Y-30973858D01*
X27163858Y-30794253D01*
X27178000Y-30808395D01*
X28490048Y-29496347D01*
X28334038Y-29180786D01*
X27959255Y-28989980D01*
X27554449Y-28875956D01*
X27135176Y-28843098D01*
X26717549Y-28892666D01*
X26317617Y-29022757D01*
X26273000Y-29046605D01*
X26273000Y-28131000D01*
X26810923Y-28238000D01*
X27545077Y-28238000D01*
X28265126Y-28094773D01*
X28943396Y-27813824D01*
X29553824Y-27405950D01*
X30072950Y-26886824D01*
X30480824Y-26276396D01*
X30761773Y-25598126D01*
X30905000Y-24878077D01*
X30905000Y-24143923D01*
X30797985Y-23605923D01*
X31718994Y-23605908D01*
X31602047Y-23888244D01*
G37*
G04 #@! TD.AperFunction*
M02*
