G04 #@! TF.GenerationSoftware,KiCad,Pcbnew,(5.1.9)-1*
G04 #@! TF.CreationDate,2021-02-23T11:14:44+09:00*
G04 #@! TF.ProjectId,powertrain,706f7765-7274-4726-9169-6e2e6b696361,rev?*
G04 #@! TF.SameCoordinates,Original*
G04 #@! TF.FileFunction,Copper,L1,Top*
G04 #@! TF.FilePolarity,Positive*
%FSLAX46Y46*%
G04 Gerber Fmt 4.6, Leading zero omitted, Abs format (unit mm)*
G04 Created by KiCad (PCBNEW (5.1.9)-1) date 2021-02-23 11:14:44*
%MOMM*%
%LPD*%
G01*
G04 APERTURE LIST*
G04 #@! TA.AperFunction,SMDPad,CuDef*
%ADD10C,0.100000*%
G04 #@! TD*
G04 #@! TA.AperFunction,SMDPad,CuDef*
%ADD11C,1.000000*%
G04 #@! TD*
G04 #@! TA.AperFunction,ComponentPad*
%ADD12C,2.700000*%
G04 #@! TD*
G04 #@! TA.AperFunction,SMDPad,CuDef*
%ADD13R,1.100000X1.100000*%
G04 #@! TD*
G04 #@! TA.AperFunction,ComponentPad*
%ADD14O,1.700000X1.700000*%
G04 #@! TD*
G04 #@! TA.AperFunction,ComponentPad*
%ADD15R,1.700000X1.700000*%
G04 #@! TD*
G04 #@! TA.AperFunction,ComponentPad*
%ADD16C,3.000000*%
G04 #@! TD*
G04 #@! TA.AperFunction,ViaPad*
%ADD17C,0.800000*%
G04 #@! TD*
G04 #@! TA.AperFunction,Conductor*
%ADD18C,0.400000*%
G04 #@! TD*
G04 #@! TA.AperFunction,Conductor*
%ADD19C,0.254000*%
G04 #@! TD*
G04 #@! TA.AperFunction,Conductor*
%ADD20C,0.100000*%
G04 #@! TD*
G04 APERTURE END LIST*
G04 #@! TA.AperFunction,SMDPad,CuDef*
D10*
G36*
X45573930Y-29246284D02*
G01*
X44301138Y-30519076D01*
X42886924Y-29104862D01*
X44159716Y-27832070D01*
X45573930Y-29246284D01*
G37*
G04 #@! TD.AperFunction*
G04 #@! TA.AperFunction,SMDPad,CuDef*
G36*
X39846365Y-34973849D02*
G01*
X38573573Y-36246641D01*
X37159359Y-34832427D01*
X38432151Y-33559635D01*
X39846365Y-34973849D01*
G37*
G04 #@! TD.AperFunction*
G04 #@! TA.AperFunction,SMDPad,CuDef*
G36*
X38803382Y-30748886D02*
G01*
X38096276Y-31455992D01*
X37141682Y-30501398D01*
X37848788Y-29794292D01*
X38803382Y-30748886D01*
G37*
G04 #@! TD.AperFunction*
G04 #@! TA.AperFunction,SMDPad,CuDef*
G36*
X40818636Y-28733631D02*
G01*
X40111530Y-29440737D01*
X39156936Y-28486143D01*
X39864042Y-27779037D01*
X40818636Y-28733631D01*
G37*
G04 #@! TD.AperFunction*
G04 #@! TA.AperFunction,SMDPad,CuDef*
G36*
X39811009Y-29741259D02*
G01*
X39103903Y-30448365D01*
X38149309Y-29493771D01*
X38856415Y-28786665D01*
X39811009Y-29741259D01*
G37*
G04 #@! TD.AperFunction*
G04 #@! TA.AperFunction,SMDPad,CuDef*
G36*
X45874450Y-33789445D02*
G01*
X45167344Y-34496551D01*
X44212750Y-33541957D01*
X44919856Y-32834851D01*
X45874450Y-33789445D01*
G37*
G04 #@! TD.AperFunction*
G04 #@! TA.AperFunction,SMDPad,CuDef*
G36*
X44866823Y-34797072D02*
G01*
X44159717Y-35504178D01*
X43205123Y-34549584D01*
X43912229Y-33842478D01*
X44866823Y-34797072D01*
G37*
G04 #@! TD.AperFunction*
G04 #@! TA.AperFunction,SMDPad,CuDef*
G36*
X43859196Y-35804699D02*
G01*
X43152090Y-36511805D01*
X42197496Y-35557211D01*
X42904602Y-34850105D01*
X43859196Y-35804699D01*
G37*
G04 #@! TD.AperFunction*
D11*
X69342000Y-26924000D03*
X34544000Y-26924000D03*
X34798000Y-63246000D03*
D12*
X67818000Y-53498000D03*
X64068000Y-53498000D03*
X67818000Y-33498000D03*
X56896000Y-33498000D03*
X53146000Y-53498000D03*
X56896000Y-53498000D03*
D13*
X48514000Y-48136000D03*
X48514000Y-45336000D03*
X40894000Y-48136000D03*
X40894000Y-45336000D03*
X44704000Y-48136000D03*
X44704000Y-45336000D03*
D14*
X38735000Y-60960000D03*
X38735000Y-63500000D03*
X41275000Y-60960000D03*
X41275000Y-63500000D03*
X43815000Y-60960000D03*
X43815000Y-63500000D03*
X46355000Y-60960000D03*
X46355000Y-63500000D03*
X48895000Y-60960000D03*
X48895000Y-63500000D03*
X51435000Y-60960000D03*
X51435000Y-63500000D03*
X53975000Y-60960000D03*
X53975000Y-63500000D03*
X56515000Y-60960000D03*
X56515000Y-63500000D03*
X59055000Y-60960000D03*
X59055000Y-63500000D03*
X61595000Y-60960000D03*
X61595000Y-63500000D03*
X64135000Y-60960000D03*
X64135000Y-63500000D03*
X66675000Y-60960000D03*
X66675000Y-63500000D03*
X69215000Y-60960000D03*
D15*
X69215000Y-63500000D03*
G04 #@! TA.AperFunction,SMDPad,CuDef*
G36*
G01*
X46986000Y-56063000D02*
X46486000Y-56063000D01*
G75*
G02*
X46261000Y-55838000I0J225000D01*
G01*
X46261000Y-55388000D01*
G75*
G02*
X46486000Y-55163000I225000J0D01*
G01*
X46986000Y-55163000D01*
G75*
G02*
X47211000Y-55388000I0J-225000D01*
G01*
X47211000Y-55838000D01*
G75*
G02*
X46986000Y-56063000I-225000J0D01*
G01*
G37*
G04 #@! TD.AperFunction*
G04 #@! TA.AperFunction,SMDPad,CuDef*
G36*
G01*
X46986000Y-57613000D02*
X46486000Y-57613000D01*
G75*
G02*
X46261000Y-57388000I0J225000D01*
G01*
X46261000Y-56938000D01*
G75*
G02*
X46486000Y-56713000I225000J0D01*
G01*
X46986000Y-56713000D01*
G75*
G02*
X47211000Y-56938000I0J-225000D01*
G01*
X47211000Y-57388000D01*
G75*
G02*
X46986000Y-57613000I-225000J0D01*
G01*
G37*
G04 #@! TD.AperFunction*
G04 #@! TA.AperFunction,SMDPad,CuDef*
G36*
G01*
X49026000Y-56713000D02*
X49526000Y-56713000D01*
G75*
G02*
X49751000Y-56938000I0J-225000D01*
G01*
X49751000Y-57388000D01*
G75*
G02*
X49526000Y-57613000I-225000J0D01*
G01*
X49026000Y-57613000D01*
G75*
G02*
X48801000Y-57388000I0J225000D01*
G01*
X48801000Y-56938000D01*
G75*
G02*
X49026000Y-56713000I225000J0D01*
G01*
G37*
G04 #@! TD.AperFunction*
G04 #@! TA.AperFunction,SMDPad,CuDef*
G36*
G01*
X49026000Y-55163000D02*
X49526000Y-55163000D01*
G75*
G02*
X49751000Y-55388000I0J-225000D01*
G01*
X49751000Y-55838000D01*
G75*
G02*
X49526000Y-56063000I-225000J0D01*
G01*
X49026000Y-56063000D01*
G75*
G02*
X48801000Y-55838000I0J225000D01*
G01*
X48801000Y-55388000D01*
G75*
G02*
X49026000Y-55163000I225000J0D01*
G01*
G37*
G04 #@! TD.AperFunction*
D16*
X36830000Y-46355000D03*
X36830000Y-56515000D03*
X36830000Y-51435000D03*
X43180000Y-51435000D03*
G04 #@! TA.AperFunction,SMDPad,CuDef*
G36*
G01*
X34523000Y-40303000D02*
X35073000Y-40303000D01*
G75*
G02*
X35273000Y-40503000I0J-200000D01*
G01*
X35273000Y-40903000D01*
G75*
G02*
X35073000Y-41103000I-200000J0D01*
G01*
X34523000Y-41103000D01*
G75*
G02*
X34323000Y-40903000I0J200000D01*
G01*
X34323000Y-40503000D01*
G75*
G02*
X34523000Y-40303000I200000J0D01*
G01*
G37*
G04 #@! TD.AperFunction*
G04 #@! TA.AperFunction,SMDPad,CuDef*
G36*
G01*
X34523000Y-38653000D02*
X35073000Y-38653000D01*
G75*
G02*
X35273000Y-38853000I0J-200000D01*
G01*
X35273000Y-39253000D01*
G75*
G02*
X35073000Y-39453000I-200000J0D01*
G01*
X34523000Y-39453000D01*
G75*
G02*
X34323000Y-39253000I0J200000D01*
G01*
X34323000Y-38853000D01*
G75*
G02*
X34523000Y-38653000I200000J0D01*
G01*
G37*
G04 #@! TD.AperFunction*
G04 #@! TA.AperFunction,SMDPad,CuDef*
G36*
G01*
X37613000Y-39453000D02*
X37063000Y-39453000D01*
G75*
G02*
X36863000Y-39253000I0J200000D01*
G01*
X36863000Y-38853000D01*
G75*
G02*
X37063000Y-38653000I200000J0D01*
G01*
X37613000Y-38653000D01*
G75*
G02*
X37813000Y-38853000I0J-200000D01*
G01*
X37813000Y-39253000D01*
G75*
G02*
X37613000Y-39453000I-200000J0D01*
G01*
G37*
G04 #@! TD.AperFunction*
G04 #@! TA.AperFunction,SMDPad,CuDef*
G36*
G01*
X37613000Y-41103000D02*
X37063000Y-41103000D01*
G75*
G02*
X36863000Y-40903000I0J200000D01*
G01*
X36863000Y-40503000D01*
G75*
G02*
X37063000Y-40303000I200000J0D01*
G01*
X37613000Y-40303000D01*
G75*
G02*
X37813000Y-40503000I0J-200000D01*
G01*
X37813000Y-40903000D01*
G75*
G02*
X37613000Y-41103000I-200000J0D01*
G01*
G37*
G04 #@! TD.AperFunction*
G04 #@! TA.AperFunction,SMDPad,CuDef*
G36*
G01*
X40153000Y-39453000D02*
X39603000Y-39453000D01*
G75*
G02*
X39403000Y-39253000I0J200000D01*
G01*
X39403000Y-38853000D01*
G75*
G02*
X39603000Y-38653000I200000J0D01*
G01*
X40153000Y-38653000D01*
G75*
G02*
X40353000Y-38853000I0J-200000D01*
G01*
X40353000Y-39253000D01*
G75*
G02*
X40153000Y-39453000I-200000J0D01*
G01*
G37*
G04 #@! TD.AperFunction*
G04 #@! TA.AperFunction,SMDPad,CuDef*
G36*
G01*
X40153000Y-41103000D02*
X39603000Y-41103000D01*
G75*
G02*
X39403000Y-40903000I0J200000D01*
G01*
X39403000Y-40503000D01*
G75*
G02*
X39603000Y-40303000I200000J0D01*
G01*
X40153000Y-40303000D01*
G75*
G02*
X40353000Y-40503000I0J-200000D01*
G01*
X40353000Y-40903000D01*
G75*
G02*
X40153000Y-41103000I-200000J0D01*
G01*
G37*
G04 #@! TD.AperFunction*
G04 #@! TA.AperFunction,SMDPad,CuDef*
G36*
G01*
X42143000Y-40303000D02*
X42693000Y-40303000D01*
G75*
G02*
X42893000Y-40503000I0J-200000D01*
G01*
X42893000Y-40903000D01*
G75*
G02*
X42693000Y-41103000I-200000J0D01*
G01*
X42143000Y-41103000D01*
G75*
G02*
X41943000Y-40903000I0J200000D01*
G01*
X41943000Y-40503000D01*
G75*
G02*
X42143000Y-40303000I200000J0D01*
G01*
G37*
G04 #@! TD.AperFunction*
G04 #@! TA.AperFunction,SMDPad,CuDef*
G36*
G01*
X42143000Y-38653000D02*
X42693000Y-38653000D01*
G75*
G02*
X42893000Y-38853000I0J-200000D01*
G01*
X42893000Y-39253000D01*
G75*
G02*
X42693000Y-39453000I-200000J0D01*
G01*
X42143000Y-39453000D01*
G75*
G02*
X41943000Y-39253000I0J200000D01*
G01*
X41943000Y-38853000D01*
G75*
G02*
X42143000Y-38653000I200000J0D01*
G01*
G37*
G04 #@! TD.AperFunction*
G04 #@! TA.AperFunction,SMDPad,CuDef*
G36*
G01*
X44683000Y-40303000D02*
X45233000Y-40303000D01*
G75*
G02*
X45433000Y-40503000I0J-200000D01*
G01*
X45433000Y-40903000D01*
G75*
G02*
X45233000Y-41103000I-200000J0D01*
G01*
X44683000Y-41103000D01*
G75*
G02*
X44483000Y-40903000I0J200000D01*
G01*
X44483000Y-40503000D01*
G75*
G02*
X44683000Y-40303000I200000J0D01*
G01*
G37*
G04 #@! TD.AperFunction*
G04 #@! TA.AperFunction,SMDPad,CuDef*
G36*
G01*
X44683000Y-38653000D02*
X45233000Y-38653000D01*
G75*
G02*
X45433000Y-38853000I0J-200000D01*
G01*
X45433000Y-39253000D01*
G75*
G02*
X45233000Y-39453000I-200000J0D01*
G01*
X44683000Y-39453000D01*
G75*
G02*
X44483000Y-39253000I0J200000D01*
G01*
X44483000Y-38853000D01*
G75*
G02*
X44683000Y-38653000I200000J0D01*
G01*
G37*
G04 #@! TD.AperFunction*
X43180000Y-56515000D03*
G04 #@! TA.AperFunction,SMDPad,CuDef*
G36*
G01*
X47754250Y-39528000D02*
X47241750Y-39528000D01*
G75*
G02*
X47023000Y-39309250I0J218750D01*
G01*
X47023000Y-38871750D01*
G75*
G02*
X47241750Y-38653000I218750J0D01*
G01*
X47754250Y-38653000D01*
G75*
G02*
X47973000Y-38871750I0J-218750D01*
G01*
X47973000Y-39309250D01*
G75*
G02*
X47754250Y-39528000I-218750J0D01*
G01*
G37*
G04 #@! TD.AperFunction*
G04 #@! TA.AperFunction,SMDPad,CuDef*
G36*
G01*
X47754250Y-41103000D02*
X47241750Y-41103000D01*
G75*
G02*
X47023000Y-40884250I0J218750D01*
G01*
X47023000Y-40446750D01*
G75*
G02*
X47241750Y-40228000I218750J0D01*
G01*
X47754250Y-40228000D01*
G75*
G02*
X47973000Y-40446750I0J-218750D01*
G01*
X47973000Y-40884250D01*
G75*
G02*
X47754250Y-41103000I-218750J0D01*
G01*
G37*
G04 #@! TD.AperFunction*
D17*
X40640000Y-22860000D03*
X63500000Y-22860000D03*
X34798000Y-60960000D03*
X50292000Y-45466000D03*
X50038000Y-52578000D03*
X35306000Y-43434000D03*
X60452000Y-53340000D03*
X50292000Y-33274000D03*
D18*
X56896000Y-53498000D02*
X56896000Y-49111998D01*
X48539500Y-40665500D02*
X47498000Y-40665500D01*
X56896000Y-49022000D02*
X48539500Y-40665500D01*
X56896000Y-49111998D02*
X56896000Y-49022000D01*
X56985998Y-49022000D02*
X56896000Y-49111998D01*
X66929000Y-49022000D02*
X56985998Y-49022000D01*
X67818000Y-49911000D02*
X66929000Y-49022000D01*
X67818000Y-53498000D02*
X67818000Y-49911000D01*
X50873000Y-55613000D02*
X49276000Y-55613000D01*
X53146000Y-53340000D02*
X50873000Y-55613000D01*
X49276000Y-55613000D02*
X47511000Y-53848000D01*
X47511000Y-53848000D02*
X46482000Y-53848000D01*
X46482000Y-47244000D02*
X46482000Y-53848000D01*
X44704000Y-45466000D02*
X46482000Y-47244000D01*
X44704000Y-45336000D02*
X44704000Y-45466000D01*
X36830000Y-52324000D02*
X36830000Y-51435000D01*
X38354000Y-53848000D02*
X36830000Y-52324000D01*
X46482000Y-53848000D02*
X38354000Y-53848000D01*
X37849000Y-45336000D02*
X36830000Y-46355000D01*
X40894000Y-45336000D02*
X37849000Y-45336000D01*
X34798000Y-48387000D02*
X36830000Y-46355000D01*
X34798000Y-52904501D02*
X34798000Y-48387000D01*
X36341509Y-54448010D02*
X34798000Y-52904501D01*
X44021010Y-54448010D02*
X36341509Y-54448010D01*
X46736000Y-57163000D02*
X44021010Y-54448010D01*
X63560000Y-53340000D02*
X63560000Y-54804000D01*
X59782011Y-58581989D02*
X48154989Y-58581989D01*
X48154989Y-58581989D02*
X46736000Y-57163000D01*
X60706000Y-57658000D02*
X59782011Y-58581989D01*
X63560000Y-54804000D02*
X60706000Y-57658000D01*
X60579000Y-57785000D02*
X60706000Y-57658000D01*
X62865000Y-61540002D02*
X62865000Y-60071000D01*
X62865000Y-60071000D02*
X60579000Y-57785000D01*
X63554998Y-62230000D02*
X62865000Y-61540002D01*
X65405000Y-62230000D02*
X63554998Y-62230000D01*
X66675000Y-63500000D02*
X65405000Y-62230000D01*
X44995500Y-39090500D02*
X44958000Y-39053000D01*
X44958000Y-37610609D02*
X43028346Y-35680955D01*
X44958000Y-39053000D02*
X44958000Y-37610609D01*
X46253500Y-39090500D02*
X44995500Y-39090500D01*
X47498000Y-39090500D02*
X46253500Y-39090500D01*
X61595000Y-60960000D02*
X59817000Y-59182000D01*
X59817000Y-59182000D02*
X41910000Y-59182000D01*
X41910000Y-59182000D02*
X38608000Y-55880000D01*
X38608000Y-55880000D02*
X37465000Y-55880000D01*
X37465000Y-55880000D02*
X36830000Y-56515000D01*
X46253500Y-41173500D02*
X46253500Y-39090500D01*
X48514000Y-43434000D02*
X46253500Y-41173500D01*
X48514000Y-45590000D02*
X48514000Y-43434000D01*
X46612000Y-43688000D02*
X48514000Y-45590000D01*
X36684998Y-43688000D02*
X46612000Y-43688000D01*
X34197991Y-46175007D02*
X36684998Y-43688000D01*
X34197991Y-53882991D02*
X34197991Y-46175007D01*
X36830000Y-56515000D02*
X34197991Y-53882991D01*
X44068000Y-40703000D02*
X42418000Y-39053000D01*
X44958000Y-40703000D02*
X44068000Y-40703000D01*
X42765969Y-34196031D02*
X43558676Y-34196031D01*
X41797486Y-38432486D02*
X41797486Y-35164514D01*
X42418000Y-39053000D02*
X41797486Y-38432486D01*
X43558676Y-34196031D02*
X44035973Y-34673328D01*
X41797486Y-35164514D02*
X42765969Y-34196031D01*
X42418000Y-40703000D02*
X40957000Y-40703000D01*
X40957000Y-40703000D02*
X39878000Y-40703000D01*
X42925053Y-33188404D02*
X44566303Y-33188404D01*
X41021000Y-35092457D02*
X42925053Y-33188404D01*
X44566303Y-33188404D02*
X45043600Y-33665701D01*
X41021000Y-40639000D02*
X41021000Y-35092457D01*
X40957000Y-40703000D02*
X41021000Y-40639000D01*
X38988000Y-39053000D02*
X37338000Y-40703000D01*
X39878000Y-39053000D02*
X38988000Y-39053000D01*
X38714978Y-30625142D02*
X37972532Y-30625142D01*
X41148000Y-33058164D02*
X38714978Y-30625142D01*
X41148000Y-34036000D02*
X41148000Y-33058164D01*
X40259000Y-34925000D02*
X41148000Y-34036000D01*
X40259000Y-38672000D02*
X40259000Y-34925000D01*
X39878000Y-39053000D02*
X40259000Y-38672000D01*
X37338000Y-39053000D02*
X34798000Y-39053000D01*
X34798000Y-30099000D02*
X34798000Y-39053000D01*
X36764410Y-28132590D02*
X34798000Y-30099000D01*
X39510489Y-28132590D02*
X36764410Y-28132590D01*
X39987786Y-28609887D02*
X39510489Y-28132590D01*
D19*
X34850074Y-55715942D02*
X34777047Y-55892244D01*
X34695000Y-56304721D01*
X34695000Y-56725279D01*
X34777047Y-57137756D01*
X34937988Y-57526302D01*
X35171637Y-57875983D01*
X35469017Y-58173363D01*
X35818698Y-58407012D01*
X36207244Y-58567953D01*
X36619721Y-58650000D01*
X37040279Y-58650000D01*
X37452756Y-58567953D01*
X37841302Y-58407012D01*
X38190983Y-58173363D01*
X38488363Y-57875983D01*
X38722012Y-57526302D01*
X38824941Y-57277809D01*
X41039820Y-59492688D01*
X40841842Y-59532068D01*
X40571589Y-59644010D01*
X40328368Y-59806525D01*
X40121525Y-60013368D01*
X40005000Y-60187760D01*
X39888475Y-60013368D01*
X39681632Y-59806525D01*
X39438411Y-59644010D01*
X39168158Y-59532068D01*
X38881260Y-59475000D01*
X38588740Y-59475000D01*
X38301842Y-59532068D01*
X38031589Y-59644010D01*
X37788368Y-59806525D01*
X37581525Y-60013368D01*
X37419010Y-60256589D01*
X37307068Y-60526842D01*
X37250000Y-60813740D01*
X37250000Y-61106260D01*
X37307068Y-61393158D01*
X37419010Y-61663411D01*
X37581525Y-61906632D01*
X37788368Y-62113475D01*
X37962760Y-62230000D01*
X37788368Y-62346525D01*
X37581525Y-62553368D01*
X37419010Y-62796589D01*
X37307068Y-63066842D01*
X37250000Y-63353740D01*
X37250000Y-63646260D01*
X37257706Y-63685000D01*
X35844676Y-63685000D01*
X35889383Y-63577067D01*
X35933000Y-63357788D01*
X35933000Y-63134212D01*
X35889383Y-62914933D01*
X35803824Y-62708376D01*
X35679612Y-62522480D01*
X35521520Y-62364388D01*
X35335624Y-62240176D01*
X35129067Y-62154617D01*
X34909788Y-62111000D01*
X34686212Y-62111000D01*
X34466933Y-62154617D01*
X34260376Y-62240176D01*
X34074480Y-62364388D01*
X34008141Y-62430727D01*
X34020000Y-62310322D01*
X34020000Y-54885867D01*
X34850074Y-55715942D01*
G04 #@! TA.AperFunction,Conductor*
D20*
G36*
X34850074Y-55715942D02*
G01*
X34777047Y-55892244D01*
X34695000Y-56304721D01*
X34695000Y-56725279D01*
X34777047Y-57137756D01*
X34937988Y-57526302D01*
X35171637Y-57875983D01*
X35469017Y-58173363D01*
X35818698Y-58407012D01*
X36207244Y-58567953D01*
X36619721Y-58650000D01*
X37040279Y-58650000D01*
X37452756Y-58567953D01*
X37841302Y-58407012D01*
X38190983Y-58173363D01*
X38488363Y-57875983D01*
X38722012Y-57526302D01*
X38824941Y-57277809D01*
X41039820Y-59492688D01*
X40841842Y-59532068D01*
X40571589Y-59644010D01*
X40328368Y-59806525D01*
X40121525Y-60013368D01*
X40005000Y-60187760D01*
X39888475Y-60013368D01*
X39681632Y-59806525D01*
X39438411Y-59644010D01*
X39168158Y-59532068D01*
X38881260Y-59475000D01*
X38588740Y-59475000D01*
X38301842Y-59532068D01*
X38031589Y-59644010D01*
X37788368Y-59806525D01*
X37581525Y-60013368D01*
X37419010Y-60256589D01*
X37307068Y-60526842D01*
X37250000Y-60813740D01*
X37250000Y-61106260D01*
X37307068Y-61393158D01*
X37419010Y-61663411D01*
X37581525Y-61906632D01*
X37788368Y-62113475D01*
X37962760Y-62230000D01*
X37788368Y-62346525D01*
X37581525Y-62553368D01*
X37419010Y-62796589D01*
X37307068Y-63066842D01*
X37250000Y-63353740D01*
X37250000Y-63646260D01*
X37257706Y-63685000D01*
X35844676Y-63685000D01*
X35889383Y-63577067D01*
X35933000Y-63357788D01*
X35933000Y-63134212D01*
X35889383Y-62914933D01*
X35803824Y-62708376D01*
X35679612Y-62522480D01*
X35521520Y-62364388D01*
X35335624Y-62240176D01*
X35129067Y-62154617D01*
X34909788Y-62111000D01*
X34686212Y-62111000D01*
X34466933Y-62154617D01*
X34260376Y-62240176D01*
X34074480Y-62364388D01*
X34008141Y-62430727D01*
X34020000Y-62310322D01*
X34020000Y-54885867D01*
X34850074Y-55715942D01*
G37*
G04 #@! TD.AperFunction*
D19*
X64742227Y-22661874D02*
X64599000Y-23381923D01*
X64599000Y-24116077D01*
X64742227Y-24836126D01*
X65023176Y-25514396D01*
X65431050Y-26124824D01*
X65950176Y-26643950D01*
X66560604Y-27051824D01*
X67238874Y-27332773D01*
X67958923Y-27476000D01*
X68345782Y-27476000D01*
X68460388Y-27647520D01*
X68618480Y-27805612D01*
X68804376Y-27929824D01*
X69010933Y-28015383D01*
X69230212Y-28059000D01*
X69453788Y-28059000D01*
X69673067Y-28015383D01*
X69815000Y-27956592D01*
X69815001Y-59601176D01*
X69648158Y-59532068D01*
X69361260Y-59475000D01*
X69068740Y-59475000D01*
X68781842Y-59532068D01*
X68511589Y-59644010D01*
X68268368Y-59806525D01*
X68061525Y-60013368D01*
X67939805Y-60195534D01*
X67870178Y-60078645D01*
X67675269Y-59862412D01*
X67441920Y-59688359D01*
X67179099Y-59563175D01*
X67031890Y-59518524D01*
X66802000Y-59639845D01*
X66802000Y-60833000D01*
X66822000Y-60833000D01*
X66822000Y-61087000D01*
X66802000Y-61087000D01*
X66802000Y-61107000D01*
X66548000Y-61107000D01*
X66548000Y-61087000D01*
X66528000Y-61087000D01*
X66528000Y-60833000D01*
X66548000Y-60833000D01*
X66548000Y-59639845D01*
X66318110Y-59518524D01*
X66170901Y-59563175D01*
X65908080Y-59688359D01*
X65674731Y-59862412D01*
X65479822Y-60078645D01*
X65410195Y-60195534D01*
X65288475Y-60013368D01*
X65081632Y-59806525D01*
X64838411Y-59644010D01*
X64568158Y-59532068D01*
X64281260Y-59475000D01*
X63988740Y-59475000D01*
X63701842Y-59532068D01*
X63553372Y-59593566D01*
X63502902Y-59532068D01*
X63458291Y-59477709D01*
X63426427Y-59451559D01*
X61759867Y-57785000D01*
X64061869Y-55483000D01*
X64263505Y-55483000D01*
X64647003Y-55406718D01*
X65008250Y-55257085D01*
X65333364Y-55039851D01*
X65609851Y-54763364D01*
X65827085Y-54438250D01*
X65943000Y-54158406D01*
X66058915Y-54438250D01*
X66276149Y-54763364D01*
X66552636Y-55039851D01*
X66877750Y-55257085D01*
X67238997Y-55406718D01*
X67622495Y-55483000D01*
X68013505Y-55483000D01*
X68397003Y-55406718D01*
X68758250Y-55257085D01*
X69083364Y-55039851D01*
X69359851Y-54763364D01*
X69577085Y-54438250D01*
X69726718Y-54077003D01*
X69803000Y-53693505D01*
X69803000Y-53302495D01*
X69726718Y-52918997D01*
X69577085Y-52557750D01*
X69359851Y-52232636D01*
X69083364Y-51956149D01*
X68758250Y-51738915D01*
X68653000Y-51695319D01*
X68653000Y-49952018D01*
X68657040Y-49911000D01*
X68640918Y-49747311D01*
X68593172Y-49589913D01*
X68515636Y-49444854D01*
X68437439Y-49349570D01*
X68437437Y-49349568D01*
X68411291Y-49317709D01*
X68379432Y-49291563D01*
X67548445Y-48460578D01*
X67522291Y-48428709D01*
X67395146Y-48324364D01*
X67250087Y-48246828D01*
X67092689Y-48199082D01*
X66970019Y-48187000D01*
X66970018Y-48187000D01*
X66929000Y-48182960D01*
X66887982Y-48187000D01*
X57241869Y-48187000D01*
X49158946Y-40104079D01*
X49132791Y-40072209D01*
X49005646Y-39967864D01*
X48860587Y-39890328D01*
X48703189Y-39842582D01*
X48580519Y-39830500D01*
X48580518Y-39830500D01*
X48539500Y-39826460D01*
X48498482Y-39830500D01*
X48429556Y-39830500D01*
X48466671Y-39785275D01*
X48545850Y-39637142D01*
X48594608Y-39476408D01*
X48611072Y-39309250D01*
X48611072Y-38871750D01*
X48594608Y-38704592D01*
X48545850Y-38543858D01*
X48466671Y-38395725D01*
X48360115Y-38265885D01*
X48230275Y-38159329D01*
X48082142Y-38080150D01*
X47921408Y-38031392D01*
X47754250Y-38014928D01*
X47241750Y-38014928D01*
X47074592Y-38031392D01*
X46913858Y-38080150D01*
X46765725Y-38159329D01*
X46648539Y-38255500D01*
X46294519Y-38255500D01*
X46253500Y-38251460D01*
X46212482Y-38255500D01*
X45819643Y-38255500D01*
X45793000Y-38233635D01*
X45793000Y-37836967D01*
X53386000Y-37836967D01*
X53386000Y-38159033D01*
X53448832Y-38474912D01*
X53572082Y-38772463D01*
X53751013Y-39040252D01*
X53978748Y-39267987D01*
X54246537Y-39446918D01*
X54544088Y-39570168D01*
X54859967Y-39633000D01*
X55182033Y-39633000D01*
X55497912Y-39570168D01*
X55795463Y-39446918D01*
X56063252Y-39267987D01*
X56290987Y-39040252D01*
X56469918Y-38772463D01*
X56593168Y-38474912D01*
X56656000Y-38159033D01*
X56656000Y-37836967D01*
X64308000Y-37836967D01*
X64308000Y-38159033D01*
X64370832Y-38474912D01*
X64494082Y-38772463D01*
X64673013Y-39040252D01*
X64900748Y-39267987D01*
X65168537Y-39446918D01*
X65466088Y-39570168D01*
X65781967Y-39633000D01*
X66104033Y-39633000D01*
X66419912Y-39570168D01*
X66717463Y-39446918D01*
X66985252Y-39267987D01*
X67212987Y-39040252D01*
X67391918Y-38772463D01*
X67515168Y-38474912D01*
X67578000Y-38159033D01*
X67578000Y-37836967D01*
X67515168Y-37521088D01*
X67391918Y-37223537D01*
X67212987Y-36955748D01*
X66985252Y-36728013D01*
X66717463Y-36549082D01*
X66419912Y-36425832D01*
X66104033Y-36363000D01*
X65781967Y-36363000D01*
X65466088Y-36425832D01*
X65168537Y-36549082D01*
X64900748Y-36728013D01*
X64673013Y-36955748D01*
X64494082Y-37223537D01*
X64370832Y-37521088D01*
X64308000Y-37836967D01*
X56656000Y-37836967D01*
X56593168Y-37521088D01*
X56469918Y-37223537D01*
X56290987Y-36955748D01*
X56063252Y-36728013D01*
X55795463Y-36549082D01*
X55497912Y-36425832D01*
X55182033Y-36363000D01*
X54859967Y-36363000D01*
X54544088Y-36425832D01*
X54246537Y-36549082D01*
X53978748Y-36728013D01*
X53751013Y-36955748D01*
X53572082Y-37223537D01*
X53448832Y-37521088D01*
X53386000Y-37836967D01*
X45793000Y-37836967D01*
X45793000Y-37651627D01*
X45797040Y-37610609D01*
X45780918Y-37446920D01*
X45733172Y-37289522D01*
X45655636Y-37144463D01*
X45577439Y-37049179D01*
X45577437Y-37049177D01*
X45551291Y-37017318D01*
X45519432Y-36991172D01*
X44540994Y-36012735D01*
X44610902Y-35955363D01*
X45318008Y-35248257D01*
X45397360Y-35151566D01*
X45440719Y-35070447D01*
X45521838Y-35027088D01*
X45618529Y-34947736D01*
X45683427Y-34882838D01*
X55690767Y-34882838D01*
X55828724Y-35183044D01*
X56177967Y-35358882D01*
X56554804Y-35463207D01*
X56944753Y-35492009D01*
X57332828Y-35444184D01*
X57704116Y-35321568D01*
X57963276Y-35183044D01*
X58101233Y-34882838D01*
X66612767Y-34882838D01*
X66750724Y-35183044D01*
X67099967Y-35358882D01*
X67476804Y-35463207D01*
X67866753Y-35492009D01*
X68254828Y-35444184D01*
X68626116Y-35321568D01*
X68885276Y-35183044D01*
X69023233Y-34882838D01*
X67818000Y-33677605D01*
X66612767Y-34882838D01*
X58101233Y-34882838D01*
X56896000Y-33677605D01*
X55690767Y-34882838D01*
X45683427Y-34882838D01*
X46325635Y-34240630D01*
X46404987Y-34143939D01*
X46463952Y-34033625D01*
X46500262Y-33913927D01*
X46512522Y-33789445D01*
X46500262Y-33664963D01*
X46464404Y-33546753D01*
X54901991Y-33546753D01*
X54949816Y-33934828D01*
X55072432Y-34306116D01*
X55210956Y-34565276D01*
X55511162Y-34703233D01*
X56716395Y-33498000D01*
X57075605Y-33498000D01*
X58280838Y-34703233D01*
X58581044Y-34565276D01*
X58756882Y-34216033D01*
X58861207Y-33839196D01*
X58882807Y-33546753D01*
X65823991Y-33546753D01*
X65871816Y-33934828D01*
X65994432Y-34306116D01*
X66132956Y-34565276D01*
X66433162Y-34703233D01*
X67638395Y-33498000D01*
X67997605Y-33498000D01*
X69202838Y-34703233D01*
X69503044Y-34565276D01*
X69678882Y-34216033D01*
X69783207Y-33839196D01*
X69812009Y-33449247D01*
X69764184Y-33061172D01*
X69641568Y-32689884D01*
X69503044Y-32430724D01*
X69202838Y-32292767D01*
X67997605Y-33498000D01*
X67638395Y-33498000D01*
X66433162Y-32292767D01*
X66132956Y-32430724D01*
X65957118Y-32779967D01*
X65852793Y-33156804D01*
X65823991Y-33546753D01*
X58882807Y-33546753D01*
X58890009Y-33449247D01*
X58842184Y-33061172D01*
X58719568Y-32689884D01*
X58581044Y-32430724D01*
X58280838Y-32292767D01*
X57075605Y-33498000D01*
X56716395Y-33498000D01*
X55511162Y-32292767D01*
X55210956Y-32430724D01*
X55035118Y-32779967D01*
X54930793Y-33156804D01*
X54901991Y-33546753D01*
X46464404Y-33546753D01*
X46463952Y-33545265D01*
X46404987Y-33434951D01*
X46325635Y-33338260D01*
X45371041Y-32383666D01*
X45274350Y-32304314D01*
X45164036Y-32245349D01*
X45044338Y-32209039D01*
X44919856Y-32196779D01*
X44795374Y-32209039D01*
X44675676Y-32245349D01*
X44565362Y-32304314D01*
X44505545Y-32353404D01*
X42966071Y-32353404D01*
X42925053Y-32349364D01*
X42884035Y-32353404D01*
X42884034Y-32353404D01*
X42761364Y-32365486D01*
X42603966Y-32413232D01*
X42458907Y-32490768D01*
X42331762Y-32595113D01*
X42305616Y-32626972D01*
X41976943Y-32955646D01*
X41970918Y-32894476D01*
X41962680Y-32867317D01*
X41923172Y-32737077D01*
X41845636Y-32592018D01*
X41741291Y-32464873D01*
X41709432Y-32438727D01*
X41383867Y-32113162D01*
X55690767Y-32113162D01*
X56896000Y-33318395D01*
X58101233Y-32113162D01*
X66612767Y-32113162D01*
X67818000Y-33318395D01*
X69023233Y-32113162D01*
X68885276Y-31812956D01*
X68536033Y-31637118D01*
X68159196Y-31532793D01*
X67769247Y-31503991D01*
X67381172Y-31551816D01*
X67009884Y-31674432D01*
X66750724Y-31812956D01*
X66612767Y-32113162D01*
X58101233Y-32113162D01*
X57963276Y-31812956D01*
X57614033Y-31637118D01*
X57237196Y-31532793D01*
X56847247Y-31503991D01*
X56459172Y-31551816D01*
X56087884Y-31674432D01*
X55828724Y-31812956D01*
X55690767Y-32113162D01*
X41383867Y-32113162D01*
X39852306Y-30581602D01*
X41550148Y-30581602D01*
X41550148Y-30810102D01*
X41594726Y-31034212D01*
X41682169Y-31245318D01*
X41809117Y-31435309D01*
X41970691Y-31596883D01*
X42160682Y-31723831D01*
X42371788Y-31811274D01*
X42595898Y-31855852D01*
X42824398Y-31855852D01*
X43048508Y-31811274D01*
X43259614Y-31723831D01*
X43449605Y-31596883D01*
X43611179Y-31435309D01*
X43738127Y-31245318D01*
X43825570Y-31034212D01*
X43840225Y-30960533D01*
X43849953Y-30970261D01*
X43946644Y-31049613D01*
X44056958Y-31108578D01*
X44176656Y-31144888D01*
X44301138Y-31157148D01*
X44425620Y-31144888D01*
X44545318Y-31108578D01*
X44655632Y-31049613D01*
X44752323Y-30970261D01*
X46025115Y-29697469D01*
X46104467Y-29600778D01*
X46163432Y-29490464D01*
X46199742Y-29370766D01*
X46212002Y-29246284D01*
X46199742Y-29121802D01*
X46163432Y-29002104D01*
X46104467Y-28891790D01*
X46025115Y-28795099D01*
X44610901Y-27380885D01*
X44514210Y-27301533D01*
X44403896Y-27242568D01*
X44284198Y-27206258D01*
X44159716Y-27193998D01*
X44035234Y-27206258D01*
X43915536Y-27242568D01*
X43805222Y-27301533D01*
X43708531Y-27380885D01*
X42435739Y-28653677D01*
X42356387Y-28750368D01*
X42297422Y-28860682D01*
X42261112Y-28980380D01*
X42248852Y-29104862D01*
X42261112Y-29229344D01*
X42297422Y-29349042D01*
X42356387Y-29459356D01*
X42435739Y-29556047D01*
X42445467Y-29565775D01*
X42371788Y-29580430D01*
X42160682Y-29667873D01*
X41970691Y-29794821D01*
X41809117Y-29956395D01*
X41682169Y-30146386D01*
X41594726Y-30357492D01*
X41550148Y-30581602D01*
X39852306Y-30581602D01*
X39334424Y-30063721D01*
X39308269Y-30031851D01*
X39181124Y-29927506D01*
X39036065Y-29849970D01*
X39031678Y-29848639D01*
X38980159Y-29797120D01*
X38966017Y-29811263D01*
X38786411Y-29631657D01*
X38800554Y-29617515D01*
X38786412Y-29603373D01*
X38966017Y-29423768D01*
X38980159Y-29437910D01*
X38994302Y-29423768D01*
X39173907Y-29603373D01*
X39159764Y-29617515D01*
X39884018Y-30341769D01*
X40108525Y-30341769D01*
X40262195Y-30192444D01*
X40341547Y-30095753D01*
X40384907Y-30014633D01*
X40466024Y-29971274D01*
X40562715Y-29891922D01*
X41269821Y-29184816D01*
X41349173Y-29088125D01*
X41408138Y-28977811D01*
X41444448Y-28858113D01*
X41456708Y-28733631D01*
X41444448Y-28609149D01*
X41408138Y-28489451D01*
X41349173Y-28379137D01*
X41269821Y-28282446D01*
X40315227Y-27327852D01*
X40218536Y-27248500D01*
X40108222Y-27189535D01*
X39988524Y-27153225D01*
X39864042Y-27140965D01*
X39739560Y-27153225D01*
X39619862Y-27189535D01*
X39509548Y-27248500D01*
X39449731Y-27297590D01*
X36805428Y-27297590D01*
X36764410Y-27293550D01*
X36734771Y-27296469D01*
X37325396Y-27051824D01*
X37935824Y-26643950D01*
X38454950Y-26124824D01*
X38862824Y-25514396D01*
X39143773Y-24836126D01*
X39287000Y-24116077D01*
X39287000Y-23381923D01*
X39143773Y-22661874D01*
X38977311Y-22260000D01*
X64908689Y-22260000D01*
X64742227Y-22661874D01*
G04 #@! TA.AperFunction,Conductor*
D20*
G36*
X64742227Y-22661874D02*
G01*
X64599000Y-23381923D01*
X64599000Y-24116077D01*
X64742227Y-24836126D01*
X65023176Y-25514396D01*
X65431050Y-26124824D01*
X65950176Y-26643950D01*
X66560604Y-27051824D01*
X67238874Y-27332773D01*
X67958923Y-27476000D01*
X68345782Y-27476000D01*
X68460388Y-27647520D01*
X68618480Y-27805612D01*
X68804376Y-27929824D01*
X69010933Y-28015383D01*
X69230212Y-28059000D01*
X69453788Y-28059000D01*
X69673067Y-28015383D01*
X69815000Y-27956592D01*
X69815001Y-59601176D01*
X69648158Y-59532068D01*
X69361260Y-59475000D01*
X69068740Y-59475000D01*
X68781842Y-59532068D01*
X68511589Y-59644010D01*
X68268368Y-59806525D01*
X68061525Y-60013368D01*
X67939805Y-60195534D01*
X67870178Y-60078645D01*
X67675269Y-59862412D01*
X67441920Y-59688359D01*
X67179099Y-59563175D01*
X67031890Y-59518524D01*
X66802000Y-59639845D01*
X66802000Y-60833000D01*
X66822000Y-60833000D01*
X66822000Y-61087000D01*
X66802000Y-61087000D01*
X66802000Y-61107000D01*
X66548000Y-61107000D01*
X66548000Y-61087000D01*
X66528000Y-61087000D01*
X66528000Y-60833000D01*
X66548000Y-60833000D01*
X66548000Y-59639845D01*
X66318110Y-59518524D01*
X66170901Y-59563175D01*
X65908080Y-59688359D01*
X65674731Y-59862412D01*
X65479822Y-60078645D01*
X65410195Y-60195534D01*
X65288475Y-60013368D01*
X65081632Y-59806525D01*
X64838411Y-59644010D01*
X64568158Y-59532068D01*
X64281260Y-59475000D01*
X63988740Y-59475000D01*
X63701842Y-59532068D01*
X63553372Y-59593566D01*
X63502902Y-59532068D01*
X63458291Y-59477709D01*
X63426427Y-59451559D01*
X61759867Y-57785000D01*
X64061869Y-55483000D01*
X64263505Y-55483000D01*
X64647003Y-55406718D01*
X65008250Y-55257085D01*
X65333364Y-55039851D01*
X65609851Y-54763364D01*
X65827085Y-54438250D01*
X65943000Y-54158406D01*
X66058915Y-54438250D01*
X66276149Y-54763364D01*
X66552636Y-55039851D01*
X66877750Y-55257085D01*
X67238997Y-55406718D01*
X67622495Y-55483000D01*
X68013505Y-55483000D01*
X68397003Y-55406718D01*
X68758250Y-55257085D01*
X69083364Y-55039851D01*
X69359851Y-54763364D01*
X69577085Y-54438250D01*
X69726718Y-54077003D01*
X69803000Y-53693505D01*
X69803000Y-53302495D01*
X69726718Y-52918997D01*
X69577085Y-52557750D01*
X69359851Y-52232636D01*
X69083364Y-51956149D01*
X68758250Y-51738915D01*
X68653000Y-51695319D01*
X68653000Y-49952018D01*
X68657040Y-49911000D01*
X68640918Y-49747311D01*
X68593172Y-49589913D01*
X68515636Y-49444854D01*
X68437439Y-49349570D01*
X68437437Y-49349568D01*
X68411291Y-49317709D01*
X68379432Y-49291563D01*
X67548445Y-48460578D01*
X67522291Y-48428709D01*
X67395146Y-48324364D01*
X67250087Y-48246828D01*
X67092689Y-48199082D01*
X66970019Y-48187000D01*
X66970018Y-48187000D01*
X66929000Y-48182960D01*
X66887982Y-48187000D01*
X57241869Y-48187000D01*
X49158946Y-40104079D01*
X49132791Y-40072209D01*
X49005646Y-39967864D01*
X48860587Y-39890328D01*
X48703189Y-39842582D01*
X48580519Y-39830500D01*
X48580518Y-39830500D01*
X48539500Y-39826460D01*
X48498482Y-39830500D01*
X48429556Y-39830500D01*
X48466671Y-39785275D01*
X48545850Y-39637142D01*
X48594608Y-39476408D01*
X48611072Y-39309250D01*
X48611072Y-38871750D01*
X48594608Y-38704592D01*
X48545850Y-38543858D01*
X48466671Y-38395725D01*
X48360115Y-38265885D01*
X48230275Y-38159329D01*
X48082142Y-38080150D01*
X47921408Y-38031392D01*
X47754250Y-38014928D01*
X47241750Y-38014928D01*
X47074592Y-38031392D01*
X46913858Y-38080150D01*
X46765725Y-38159329D01*
X46648539Y-38255500D01*
X46294519Y-38255500D01*
X46253500Y-38251460D01*
X46212482Y-38255500D01*
X45819643Y-38255500D01*
X45793000Y-38233635D01*
X45793000Y-37836967D01*
X53386000Y-37836967D01*
X53386000Y-38159033D01*
X53448832Y-38474912D01*
X53572082Y-38772463D01*
X53751013Y-39040252D01*
X53978748Y-39267987D01*
X54246537Y-39446918D01*
X54544088Y-39570168D01*
X54859967Y-39633000D01*
X55182033Y-39633000D01*
X55497912Y-39570168D01*
X55795463Y-39446918D01*
X56063252Y-39267987D01*
X56290987Y-39040252D01*
X56469918Y-38772463D01*
X56593168Y-38474912D01*
X56656000Y-38159033D01*
X56656000Y-37836967D01*
X64308000Y-37836967D01*
X64308000Y-38159033D01*
X64370832Y-38474912D01*
X64494082Y-38772463D01*
X64673013Y-39040252D01*
X64900748Y-39267987D01*
X65168537Y-39446918D01*
X65466088Y-39570168D01*
X65781967Y-39633000D01*
X66104033Y-39633000D01*
X66419912Y-39570168D01*
X66717463Y-39446918D01*
X66985252Y-39267987D01*
X67212987Y-39040252D01*
X67391918Y-38772463D01*
X67515168Y-38474912D01*
X67578000Y-38159033D01*
X67578000Y-37836967D01*
X67515168Y-37521088D01*
X67391918Y-37223537D01*
X67212987Y-36955748D01*
X66985252Y-36728013D01*
X66717463Y-36549082D01*
X66419912Y-36425832D01*
X66104033Y-36363000D01*
X65781967Y-36363000D01*
X65466088Y-36425832D01*
X65168537Y-36549082D01*
X64900748Y-36728013D01*
X64673013Y-36955748D01*
X64494082Y-37223537D01*
X64370832Y-37521088D01*
X64308000Y-37836967D01*
X56656000Y-37836967D01*
X56593168Y-37521088D01*
X56469918Y-37223537D01*
X56290987Y-36955748D01*
X56063252Y-36728013D01*
X55795463Y-36549082D01*
X55497912Y-36425832D01*
X55182033Y-36363000D01*
X54859967Y-36363000D01*
X54544088Y-36425832D01*
X54246537Y-36549082D01*
X53978748Y-36728013D01*
X53751013Y-36955748D01*
X53572082Y-37223537D01*
X53448832Y-37521088D01*
X53386000Y-37836967D01*
X45793000Y-37836967D01*
X45793000Y-37651627D01*
X45797040Y-37610609D01*
X45780918Y-37446920D01*
X45733172Y-37289522D01*
X45655636Y-37144463D01*
X45577439Y-37049179D01*
X45577437Y-37049177D01*
X45551291Y-37017318D01*
X45519432Y-36991172D01*
X44540994Y-36012735D01*
X44610902Y-35955363D01*
X45318008Y-35248257D01*
X45397360Y-35151566D01*
X45440719Y-35070447D01*
X45521838Y-35027088D01*
X45618529Y-34947736D01*
X45683427Y-34882838D01*
X55690767Y-34882838D01*
X55828724Y-35183044D01*
X56177967Y-35358882D01*
X56554804Y-35463207D01*
X56944753Y-35492009D01*
X57332828Y-35444184D01*
X57704116Y-35321568D01*
X57963276Y-35183044D01*
X58101233Y-34882838D01*
X66612767Y-34882838D01*
X66750724Y-35183044D01*
X67099967Y-35358882D01*
X67476804Y-35463207D01*
X67866753Y-35492009D01*
X68254828Y-35444184D01*
X68626116Y-35321568D01*
X68885276Y-35183044D01*
X69023233Y-34882838D01*
X67818000Y-33677605D01*
X66612767Y-34882838D01*
X58101233Y-34882838D01*
X56896000Y-33677605D01*
X55690767Y-34882838D01*
X45683427Y-34882838D01*
X46325635Y-34240630D01*
X46404987Y-34143939D01*
X46463952Y-34033625D01*
X46500262Y-33913927D01*
X46512522Y-33789445D01*
X46500262Y-33664963D01*
X46464404Y-33546753D01*
X54901991Y-33546753D01*
X54949816Y-33934828D01*
X55072432Y-34306116D01*
X55210956Y-34565276D01*
X55511162Y-34703233D01*
X56716395Y-33498000D01*
X57075605Y-33498000D01*
X58280838Y-34703233D01*
X58581044Y-34565276D01*
X58756882Y-34216033D01*
X58861207Y-33839196D01*
X58882807Y-33546753D01*
X65823991Y-33546753D01*
X65871816Y-33934828D01*
X65994432Y-34306116D01*
X66132956Y-34565276D01*
X66433162Y-34703233D01*
X67638395Y-33498000D01*
X67997605Y-33498000D01*
X69202838Y-34703233D01*
X69503044Y-34565276D01*
X69678882Y-34216033D01*
X69783207Y-33839196D01*
X69812009Y-33449247D01*
X69764184Y-33061172D01*
X69641568Y-32689884D01*
X69503044Y-32430724D01*
X69202838Y-32292767D01*
X67997605Y-33498000D01*
X67638395Y-33498000D01*
X66433162Y-32292767D01*
X66132956Y-32430724D01*
X65957118Y-32779967D01*
X65852793Y-33156804D01*
X65823991Y-33546753D01*
X58882807Y-33546753D01*
X58890009Y-33449247D01*
X58842184Y-33061172D01*
X58719568Y-32689884D01*
X58581044Y-32430724D01*
X58280838Y-32292767D01*
X57075605Y-33498000D01*
X56716395Y-33498000D01*
X55511162Y-32292767D01*
X55210956Y-32430724D01*
X55035118Y-32779967D01*
X54930793Y-33156804D01*
X54901991Y-33546753D01*
X46464404Y-33546753D01*
X46463952Y-33545265D01*
X46404987Y-33434951D01*
X46325635Y-33338260D01*
X45371041Y-32383666D01*
X45274350Y-32304314D01*
X45164036Y-32245349D01*
X45044338Y-32209039D01*
X44919856Y-32196779D01*
X44795374Y-32209039D01*
X44675676Y-32245349D01*
X44565362Y-32304314D01*
X44505545Y-32353404D01*
X42966071Y-32353404D01*
X42925053Y-32349364D01*
X42884035Y-32353404D01*
X42884034Y-32353404D01*
X42761364Y-32365486D01*
X42603966Y-32413232D01*
X42458907Y-32490768D01*
X42331762Y-32595113D01*
X42305616Y-32626972D01*
X41976943Y-32955646D01*
X41970918Y-32894476D01*
X41962680Y-32867317D01*
X41923172Y-32737077D01*
X41845636Y-32592018D01*
X41741291Y-32464873D01*
X41709432Y-32438727D01*
X41383867Y-32113162D01*
X55690767Y-32113162D01*
X56896000Y-33318395D01*
X58101233Y-32113162D01*
X66612767Y-32113162D01*
X67818000Y-33318395D01*
X69023233Y-32113162D01*
X68885276Y-31812956D01*
X68536033Y-31637118D01*
X68159196Y-31532793D01*
X67769247Y-31503991D01*
X67381172Y-31551816D01*
X67009884Y-31674432D01*
X66750724Y-31812956D01*
X66612767Y-32113162D01*
X58101233Y-32113162D01*
X57963276Y-31812956D01*
X57614033Y-31637118D01*
X57237196Y-31532793D01*
X56847247Y-31503991D01*
X56459172Y-31551816D01*
X56087884Y-31674432D01*
X55828724Y-31812956D01*
X55690767Y-32113162D01*
X41383867Y-32113162D01*
X39852306Y-30581602D01*
X41550148Y-30581602D01*
X41550148Y-30810102D01*
X41594726Y-31034212D01*
X41682169Y-31245318D01*
X41809117Y-31435309D01*
X41970691Y-31596883D01*
X42160682Y-31723831D01*
X42371788Y-31811274D01*
X42595898Y-31855852D01*
X42824398Y-31855852D01*
X43048508Y-31811274D01*
X43259614Y-31723831D01*
X43449605Y-31596883D01*
X43611179Y-31435309D01*
X43738127Y-31245318D01*
X43825570Y-31034212D01*
X43840225Y-30960533D01*
X43849953Y-30970261D01*
X43946644Y-31049613D01*
X44056958Y-31108578D01*
X44176656Y-31144888D01*
X44301138Y-31157148D01*
X44425620Y-31144888D01*
X44545318Y-31108578D01*
X44655632Y-31049613D01*
X44752323Y-30970261D01*
X46025115Y-29697469D01*
X46104467Y-29600778D01*
X46163432Y-29490464D01*
X46199742Y-29370766D01*
X46212002Y-29246284D01*
X46199742Y-29121802D01*
X46163432Y-29002104D01*
X46104467Y-28891790D01*
X46025115Y-28795099D01*
X44610901Y-27380885D01*
X44514210Y-27301533D01*
X44403896Y-27242568D01*
X44284198Y-27206258D01*
X44159716Y-27193998D01*
X44035234Y-27206258D01*
X43915536Y-27242568D01*
X43805222Y-27301533D01*
X43708531Y-27380885D01*
X42435739Y-28653677D01*
X42356387Y-28750368D01*
X42297422Y-28860682D01*
X42261112Y-28980380D01*
X42248852Y-29104862D01*
X42261112Y-29229344D01*
X42297422Y-29349042D01*
X42356387Y-29459356D01*
X42435739Y-29556047D01*
X42445467Y-29565775D01*
X42371788Y-29580430D01*
X42160682Y-29667873D01*
X41970691Y-29794821D01*
X41809117Y-29956395D01*
X41682169Y-30146386D01*
X41594726Y-30357492D01*
X41550148Y-30581602D01*
X39852306Y-30581602D01*
X39334424Y-30063721D01*
X39308269Y-30031851D01*
X39181124Y-29927506D01*
X39036065Y-29849970D01*
X39031678Y-29848639D01*
X38980159Y-29797120D01*
X38966017Y-29811263D01*
X38786411Y-29631657D01*
X38800554Y-29617515D01*
X38786412Y-29603373D01*
X38966017Y-29423768D01*
X38980159Y-29437910D01*
X38994302Y-29423768D01*
X39173907Y-29603373D01*
X39159764Y-29617515D01*
X39884018Y-30341769D01*
X40108525Y-30341769D01*
X40262195Y-30192444D01*
X40341547Y-30095753D01*
X40384907Y-30014633D01*
X40466024Y-29971274D01*
X40562715Y-29891922D01*
X41269821Y-29184816D01*
X41349173Y-29088125D01*
X41408138Y-28977811D01*
X41444448Y-28858113D01*
X41456708Y-28733631D01*
X41444448Y-28609149D01*
X41408138Y-28489451D01*
X41349173Y-28379137D01*
X41269821Y-28282446D01*
X40315227Y-27327852D01*
X40218536Y-27248500D01*
X40108222Y-27189535D01*
X39988524Y-27153225D01*
X39864042Y-27140965D01*
X39739560Y-27153225D01*
X39619862Y-27189535D01*
X39509548Y-27248500D01*
X39449731Y-27297590D01*
X36805428Y-27297590D01*
X36764410Y-27293550D01*
X36734771Y-27296469D01*
X37325396Y-27051824D01*
X37935824Y-26643950D01*
X38454950Y-26124824D01*
X38862824Y-25514396D01*
X39143773Y-24836126D01*
X39287000Y-24116077D01*
X39287000Y-23381923D01*
X39143773Y-22661874D01*
X38977311Y-22260000D01*
X64908689Y-22260000D01*
X64742227Y-22661874D01*
G37*
G04 #@! TD.AperFunction*
D19*
X64370832Y-50021088D02*
X64308000Y-50336967D01*
X64308000Y-50659033D01*
X64370832Y-50974912D01*
X64494082Y-51272463D01*
X64673013Y-51540252D01*
X64775104Y-51642343D01*
X64647003Y-51589282D01*
X64263505Y-51513000D01*
X63872495Y-51513000D01*
X63488997Y-51589282D01*
X63127750Y-51738915D01*
X62802636Y-51956149D01*
X62526149Y-52232636D01*
X62308915Y-52557750D01*
X62159282Y-52918997D01*
X62083000Y-53302495D01*
X62083000Y-53693505D01*
X62159282Y-54077003D01*
X62308915Y-54438250D01*
X62483539Y-54699593D01*
X60144581Y-57038552D01*
X60144570Y-57038561D01*
X60017560Y-57165571D01*
X59985710Y-57191710D01*
X59959570Y-57223561D01*
X59436143Y-57746989D01*
X50373928Y-57746989D01*
X50376812Y-57737482D01*
X50389072Y-57613000D01*
X50386000Y-57448750D01*
X50227250Y-57290000D01*
X49403000Y-57290000D01*
X49403000Y-57310000D01*
X49149000Y-57310000D01*
X49149000Y-57290000D01*
X48324750Y-57290000D01*
X48184309Y-57430441D01*
X47849072Y-57095205D01*
X47849072Y-56938000D01*
X47832488Y-56769623D01*
X47783375Y-56607717D01*
X47705300Y-56461649D01*
X47741537Y-56417494D01*
X47800502Y-56307180D01*
X47836812Y-56187482D01*
X47849072Y-56063000D01*
X47846000Y-55898750D01*
X47687250Y-55740000D01*
X46863000Y-55740000D01*
X46863000Y-55760000D01*
X46609000Y-55760000D01*
X46609000Y-55740000D01*
X46589000Y-55740000D01*
X46589000Y-55486000D01*
X46609000Y-55486000D01*
X46609000Y-55466000D01*
X46863000Y-55466000D01*
X46863000Y-55486000D01*
X47687250Y-55486000D01*
X47827691Y-55345559D01*
X48162928Y-55680796D01*
X48162928Y-55838000D01*
X48179512Y-56006377D01*
X48228625Y-56168283D01*
X48306700Y-56314351D01*
X48270463Y-56358506D01*
X48211498Y-56468820D01*
X48175188Y-56588518D01*
X48162928Y-56713000D01*
X48166000Y-56877250D01*
X48324750Y-57036000D01*
X49149000Y-57036000D01*
X49149000Y-57016000D01*
X49403000Y-57016000D01*
X49403000Y-57036000D01*
X50227250Y-57036000D01*
X50386000Y-56877250D01*
X50389072Y-56713000D01*
X50376812Y-56588518D01*
X50340502Y-56468820D01*
X50329373Y-56448000D01*
X50831982Y-56448000D01*
X50873000Y-56452040D01*
X50914018Y-56448000D01*
X50914019Y-56448000D01*
X51036689Y-56435918D01*
X51194087Y-56388172D01*
X51339146Y-56310636D01*
X51466291Y-56206291D01*
X51492446Y-56174421D01*
X52350023Y-55316845D01*
X52566997Y-55406718D01*
X52950495Y-55483000D01*
X53341505Y-55483000D01*
X53725003Y-55406718D01*
X54086250Y-55257085D01*
X54411364Y-55039851D01*
X54687851Y-54763364D01*
X54905085Y-54438250D01*
X55021000Y-54158406D01*
X55136915Y-54438250D01*
X55354149Y-54763364D01*
X55630636Y-55039851D01*
X55955750Y-55257085D01*
X56316997Y-55406718D01*
X56700495Y-55483000D01*
X57091505Y-55483000D01*
X57475003Y-55406718D01*
X57836250Y-55257085D01*
X58161364Y-55039851D01*
X58437851Y-54763364D01*
X58655085Y-54438250D01*
X58804718Y-54077003D01*
X58881000Y-53693505D01*
X58881000Y-53302495D01*
X58804718Y-52918997D01*
X58655085Y-52557750D01*
X58437851Y-52232636D01*
X58161364Y-51956149D01*
X57836250Y-51738915D01*
X57731000Y-51695319D01*
X57731000Y-49857000D01*
X64438800Y-49857000D01*
X64370832Y-50021088D01*
G04 #@! TA.AperFunction,Conductor*
D20*
G36*
X64370832Y-50021088D02*
G01*
X64308000Y-50336967D01*
X64308000Y-50659033D01*
X64370832Y-50974912D01*
X64494082Y-51272463D01*
X64673013Y-51540252D01*
X64775104Y-51642343D01*
X64647003Y-51589282D01*
X64263505Y-51513000D01*
X63872495Y-51513000D01*
X63488997Y-51589282D01*
X63127750Y-51738915D01*
X62802636Y-51956149D01*
X62526149Y-52232636D01*
X62308915Y-52557750D01*
X62159282Y-52918997D01*
X62083000Y-53302495D01*
X62083000Y-53693505D01*
X62159282Y-54077003D01*
X62308915Y-54438250D01*
X62483539Y-54699593D01*
X60144581Y-57038552D01*
X60144570Y-57038561D01*
X60017560Y-57165571D01*
X59985710Y-57191710D01*
X59959570Y-57223561D01*
X59436143Y-57746989D01*
X50373928Y-57746989D01*
X50376812Y-57737482D01*
X50389072Y-57613000D01*
X50386000Y-57448750D01*
X50227250Y-57290000D01*
X49403000Y-57290000D01*
X49403000Y-57310000D01*
X49149000Y-57310000D01*
X49149000Y-57290000D01*
X48324750Y-57290000D01*
X48184309Y-57430441D01*
X47849072Y-57095205D01*
X47849072Y-56938000D01*
X47832488Y-56769623D01*
X47783375Y-56607717D01*
X47705300Y-56461649D01*
X47741537Y-56417494D01*
X47800502Y-56307180D01*
X47836812Y-56187482D01*
X47849072Y-56063000D01*
X47846000Y-55898750D01*
X47687250Y-55740000D01*
X46863000Y-55740000D01*
X46863000Y-55760000D01*
X46609000Y-55760000D01*
X46609000Y-55740000D01*
X46589000Y-55740000D01*
X46589000Y-55486000D01*
X46609000Y-55486000D01*
X46609000Y-55466000D01*
X46863000Y-55466000D01*
X46863000Y-55486000D01*
X47687250Y-55486000D01*
X47827691Y-55345559D01*
X48162928Y-55680796D01*
X48162928Y-55838000D01*
X48179512Y-56006377D01*
X48228625Y-56168283D01*
X48306700Y-56314351D01*
X48270463Y-56358506D01*
X48211498Y-56468820D01*
X48175188Y-56588518D01*
X48162928Y-56713000D01*
X48166000Y-56877250D01*
X48324750Y-57036000D01*
X49149000Y-57036000D01*
X49149000Y-57016000D01*
X49403000Y-57016000D01*
X49403000Y-57036000D01*
X50227250Y-57036000D01*
X50386000Y-56877250D01*
X50389072Y-56713000D01*
X50376812Y-56588518D01*
X50340502Y-56468820D01*
X50329373Y-56448000D01*
X50831982Y-56448000D01*
X50873000Y-56452040D01*
X50914018Y-56448000D01*
X50914019Y-56448000D01*
X51036689Y-56435918D01*
X51194087Y-56388172D01*
X51339146Y-56310636D01*
X51466291Y-56206291D01*
X51492446Y-56174421D01*
X52350023Y-55316845D01*
X52566997Y-55406718D01*
X52950495Y-55483000D01*
X53341505Y-55483000D01*
X53725003Y-55406718D01*
X54086250Y-55257085D01*
X54411364Y-55039851D01*
X54687851Y-54763364D01*
X54905085Y-54438250D01*
X55021000Y-54158406D01*
X55136915Y-54438250D01*
X55354149Y-54763364D01*
X55630636Y-55039851D01*
X55955750Y-55257085D01*
X56316997Y-55406718D01*
X56700495Y-55483000D01*
X57091505Y-55483000D01*
X57475003Y-55406718D01*
X57836250Y-55257085D01*
X58161364Y-55039851D01*
X58437851Y-54763364D01*
X58655085Y-54438250D01*
X58804718Y-54077003D01*
X58881000Y-53693505D01*
X58881000Y-53302495D01*
X58804718Y-52918997D01*
X58655085Y-52557750D01*
X58437851Y-52232636D01*
X58161364Y-51956149D01*
X57836250Y-51738915D01*
X57731000Y-51695319D01*
X57731000Y-49857000D01*
X64438800Y-49857000D01*
X64370832Y-50021088D01*
G37*
G04 #@! TD.AperFunction*
D19*
X55704560Y-49011428D02*
X55497912Y-48925832D01*
X55182033Y-48863000D01*
X54859967Y-48863000D01*
X54544088Y-48925832D01*
X54246537Y-49049082D01*
X53978748Y-49228013D01*
X53751013Y-49455748D01*
X53572082Y-49723537D01*
X53448832Y-50021088D01*
X53386000Y-50336967D01*
X53386000Y-50659033D01*
X53448832Y-50974912D01*
X53572082Y-51272463D01*
X53751013Y-51540252D01*
X53853104Y-51642343D01*
X53725003Y-51589282D01*
X53341505Y-51513000D01*
X52950495Y-51513000D01*
X52566997Y-51589282D01*
X52205750Y-51738915D01*
X51880636Y-51956149D01*
X51604149Y-52232636D01*
X51386915Y-52557750D01*
X51237282Y-52918997D01*
X51161000Y-53302495D01*
X51161000Y-53693505D01*
X51235764Y-54069369D01*
X50527133Y-54778000D01*
X50136517Y-54778000D01*
X50136284Y-54777716D01*
X50005497Y-54670382D01*
X49856283Y-54590625D01*
X49694377Y-54541512D01*
X49526000Y-54524928D01*
X49368796Y-54524928D01*
X48130446Y-53286579D01*
X48104291Y-53254709D01*
X47977146Y-53150364D01*
X47832087Y-53072828D01*
X47674689Y-53025082D01*
X47552019Y-53013000D01*
X47552018Y-53013000D01*
X47511000Y-53008960D01*
X47469982Y-53013000D01*
X47317000Y-53013000D01*
X47317000Y-48686000D01*
X47325928Y-48686000D01*
X47338188Y-48810482D01*
X47374498Y-48930180D01*
X47433463Y-49040494D01*
X47512815Y-49137185D01*
X47609506Y-49216537D01*
X47719820Y-49275502D01*
X47839518Y-49311812D01*
X47964000Y-49324072D01*
X48228250Y-49321000D01*
X48387000Y-49162250D01*
X48387000Y-48263000D01*
X48641000Y-48263000D01*
X48641000Y-49162250D01*
X48799750Y-49321000D01*
X49064000Y-49324072D01*
X49188482Y-49311812D01*
X49308180Y-49275502D01*
X49418494Y-49216537D01*
X49515185Y-49137185D01*
X49594537Y-49040494D01*
X49653502Y-48930180D01*
X49689812Y-48810482D01*
X49702072Y-48686000D01*
X49699000Y-48421750D01*
X49540250Y-48263000D01*
X48641000Y-48263000D01*
X48387000Y-48263000D01*
X47487750Y-48263000D01*
X47329000Y-48421750D01*
X47325928Y-48686000D01*
X47317000Y-48686000D01*
X47317000Y-47586000D01*
X47325928Y-47586000D01*
X47329000Y-47850250D01*
X47487750Y-48009000D01*
X48387000Y-48009000D01*
X48387000Y-47109750D01*
X48641000Y-47109750D01*
X48641000Y-48009000D01*
X49540250Y-48009000D01*
X49699000Y-47850250D01*
X49702072Y-47586000D01*
X49689812Y-47461518D01*
X49653502Y-47341820D01*
X49594537Y-47231506D01*
X49515185Y-47134815D01*
X49418494Y-47055463D01*
X49308180Y-46996498D01*
X49188482Y-46960188D01*
X49064000Y-46947928D01*
X48799750Y-46951000D01*
X48641000Y-47109750D01*
X48387000Y-47109750D01*
X48228250Y-46951000D01*
X47964000Y-46947928D01*
X47839518Y-46960188D01*
X47719820Y-46996498D01*
X47609506Y-47055463D01*
X47512815Y-47134815D01*
X47433463Y-47231506D01*
X47374498Y-47341820D01*
X47338188Y-47461518D01*
X47325928Y-47586000D01*
X47317000Y-47586000D01*
X47317000Y-47285018D01*
X47321040Y-47244000D01*
X47309829Y-47130172D01*
X47304918Y-47080311D01*
X47257172Y-46922913D01*
X47179636Y-46777854D01*
X47075291Y-46650709D01*
X47043433Y-46624564D01*
X45892072Y-45473204D01*
X45892072Y-44786000D01*
X45879812Y-44661518D01*
X45843502Y-44541820D01*
X45833442Y-44523000D01*
X46266133Y-44523000D01*
X47325928Y-45582796D01*
X47325928Y-45886000D01*
X47338188Y-46010482D01*
X47374498Y-46130180D01*
X47433463Y-46240494D01*
X47512815Y-46337185D01*
X47609506Y-46416537D01*
X47719820Y-46475502D01*
X47839518Y-46511812D01*
X47964000Y-46524072D01*
X49064000Y-46524072D01*
X49188482Y-46511812D01*
X49308180Y-46475502D01*
X49418494Y-46416537D01*
X49515185Y-46337185D01*
X49594537Y-46240494D01*
X49653502Y-46130180D01*
X49689812Y-46010482D01*
X49702072Y-45886000D01*
X49702072Y-44786000D01*
X49689812Y-44661518D01*
X49653502Y-44541820D01*
X49594537Y-44431506D01*
X49515185Y-44334815D01*
X49418494Y-44255463D01*
X49349000Y-44218317D01*
X49349000Y-43475018D01*
X49353040Y-43434000D01*
X49346433Y-43366914D01*
X49336918Y-43270311D01*
X49289172Y-43112913D01*
X49211636Y-42967854D01*
X49133439Y-42872570D01*
X49133437Y-42872568D01*
X49107291Y-42840709D01*
X49075432Y-42814563D01*
X47970565Y-41709697D01*
X48082142Y-41675850D01*
X48230275Y-41596671D01*
X48262971Y-41569838D01*
X55704560Y-49011428D01*
G04 #@! TA.AperFunction,Conductor*
D20*
G36*
X55704560Y-49011428D02*
G01*
X55497912Y-48925832D01*
X55182033Y-48863000D01*
X54859967Y-48863000D01*
X54544088Y-48925832D01*
X54246537Y-49049082D01*
X53978748Y-49228013D01*
X53751013Y-49455748D01*
X53572082Y-49723537D01*
X53448832Y-50021088D01*
X53386000Y-50336967D01*
X53386000Y-50659033D01*
X53448832Y-50974912D01*
X53572082Y-51272463D01*
X53751013Y-51540252D01*
X53853104Y-51642343D01*
X53725003Y-51589282D01*
X53341505Y-51513000D01*
X52950495Y-51513000D01*
X52566997Y-51589282D01*
X52205750Y-51738915D01*
X51880636Y-51956149D01*
X51604149Y-52232636D01*
X51386915Y-52557750D01*
X51237282Y-52918997D01*
X51161000Y-53302495D01*
X51161000Y-53693505D01*
X51235764Y-54069369D01*
X50527133Y-54778000D01*
X50136517Y-54778000D01*
X50136284Y-54777716D01*
X50005497Y-54670382D01*
X49856283Y-54590625D01*
X49694377Y-54541512D01*
X49526000Y-54524928D01*
X49368796Y-54524928D01*
X48130446Y-53286579D01*
X48104291Y-53254709D01*
X47977146Y-53150364D01*
X47832087Y-53072828D01*
X47674689Y-53025082D01*
X47552019Y-53013000D01*
X47552018Y-53013000D01*
X47511000Y-53008960D01*
X47469982Y-53013000D01*
X47317000Y-53013000D01*
X47317000Y-48686000D01*
X47325928Y-48686000D01*
X47338188Y-48810482D01*
X47374498Y-48930180D01*
X47433463Y-49040494D01*
X47512815Y-49137185D01*
X47609506Y-49216537D01*
X47719820Y-49275502D01*
X47839518Y-49311812D01*
X47964000Y-49324072D01*
X48228250Y-49321000D01*
X48387000Y-49162250D01*
X48387000Y-48263000D01*
X48641000Y-48263000D01*
X48641000Y-49162250D01*
X48799750Y-49321000D01*
X49064000Y-49324072D01*
X49188482Y-49311812D01*
X49308180Y-49275502D01*
X49418494Y-49216537D01*
X49515185Y-49137185D01*
X49594537Y-49040494D01*
X49653502Y-48930180D01*
X49689812Y-48810482D01*
X49702072Y-48686000D01*
X49699000Y-48421750D01*
X49540250Y-48263000D01*
X48641000Y-48263000D01*
X48387000Y-48263000D01*
X47487750Y-48263000D01*
X47329000Y-48421750D01*
X47325928Y-48686000D01*
X47317000Y-48686000D01*
X47317000Y-47586000D01*
X47325928Y-47586000D01*
X47329000Y-47850250D01*
X47487750Y-48009000D01*
X48387000Y-48009000D01*
X48387000Y-47109750D01*
X48641000Y-47109750D01*
X48641000Y-48009000D01*
X49540250Y-48009000D01*
X49699000Y-47850250D01*
X49702072Y-47586000D01*
X49689812Y-47461518D01*
X49653502Y-47341820D01*
X49594537Y-47231506D01*
X49515185Y-47134815D01*
X49418494Y-47055463D01*
X49308180Y-46996498D01*
X49188482Y-46960188D01*
X49064000Y-46947928D01*
X48799750Y-46951000D01*
X48641000Y-47109750D01*
X48387000Y-47109750D01*
X48228250Y-46951000D01*
X47964000Y-46947928D01*
X47839518Y-46960188D01*
X47719820Y-46996498D01*
X47609506Y-47055463D01*
X47512815Y-47134815D01*
X47433463Y-47231506D01*
X47374498Y-47341820D01*
X47338188Y-47461518D01*
X47325928Y-47586000D01*
X47317000Y-47586000D01*
X47317000Y-47285018D01*
X47321040Y-47244000D01*
X47309829Y-47130172D01*
X47304918Y-47080311D01*
X47257172Y-46922913D01*
X47179636Y-46777854D01*
X47075291Y-46650709D01*
X47043433Y-46624564D01*
X45892072Y-45473204D01*
X45892072Y-44786000D01*
X45879812Y-44661518D01*
X45843502Y-44541820D01*
X45833442Y-44523000D01*
X46266133Y-44523000D01*
X47325928Y-45582796D01*
X47325928Y-45886000D01*
X47338188Y-46010482D01*
X47374498Y-46130180D01*
X47433463Y-46240494D01*
X47512815Y-46337185D01*
X47609506Y-46416537D01*
X47719820Y-46475502D01*
X47839518Y-46511812D01*
X47964000Y-46524072D01*
X49064000Y-46524072D01*
X49188482Y-46511812D01*
X49308180Y-46475502D01*
X49418494Y-46416537D01*
X49515185Y-46337185D01*
X49594537Y-46240494D01*
X49653502Y-46130180D01*
X49689812Y-46010482D01*
X49702072Y-45886000D01*
X49702072Y-44786000D01*
X49689812Y-44661518D01*
X49653502Y-44541820D01*
X49594537Y-44431506D01*
X49515185Y-44334815D01*
X49418494Y-44255463D01*
X49349000Y-44218317D01*
X49349000Y-43475018D01*
X49353040Y-43434000D01*
X49346433Y-43366914D01*
X49336918Y-43270311D01*
X49289172Y-43112913D01*
X49211636Y-42967854D01*
X49133439Y-42872570D01*
X49133437Y-42872568D01*
X49107291Y-42840709D01*
X49075432Y-42814563D01*
X47970565Y-41709697D01*
X48082142Y-41675850D01*
X48230275Y-41596671D01*
X48262971Y-41569838D01*
X55704560Y-49011428D01*
G37*
G04 #@! TD.AperFunction*
D19*
X43564498Y-44541820D02*
X43528188Y-44661518D01*
X43515928Y-44786000D01*
X43515928Y-45886000D01*
X43528188Y-46010482D01*
X43564498Y-46130180D01*
X43623463Y-46240494D01*
X43702815Y-46337185D01*
X43799506Y-46416537D01*
X43909820Y-46475502D01*
X44029518Y-46511812D01*
X44154000Y-46524072D01*
X44581204Y-46524072D01*
X45007921Y-46950789D01*
X44989750Y-46951000D01*
X44831000Y-47109750D01*
X44831000Y-48009000D01*
X44851000Y-48009000D01*
X44851000Y-48263000D01*
X44831000Y-48263000D01*
X44831000Y-49162250D01*
X44989750Y-49321000D01*
X45254000Y-49324072D01*
X45378482Y-49311812D01*
X45498180Y-49275502D01*
X45608494Y-49216537D01*
X45647000Y-49184936D01*
X45647001Y-53013000D01*
X44449359Y-53013000D01*
X44492048Y-52926653D01*
X43180000Y-51614605D01*
X41867952Y-52926653D01*
X41910641Y-53013000D01*
X38699868Y-53013000D01*
X38485607Y-52798739D01*
X38488363Y-52795983D01*
X38722012Y-52446302D01*
X38882953Y-52057756D01*
X38965000Y-51645279D01*
X38965000Y-51477824D01*
X41035098Y-51477824D01*
X41084666Y-51895451D01*
X41214757Y-52295383D01*
X41372786Y-52591038D01*
X41688347Y-52747048D01*
X43000395Y-51435000D01*
X43359605Y-51435000D01*
X44671653Y-52747048D01*
X44987214Y-52591038D01*
X45178020Y-52216255D01*
X45292044Y-51811449D01*
X45324902Y-51392176D01*
X45275334Y-50974549D01*
X45145243Y-50574617D01*
X44987214Y-50278962D01*
X44671653Y-50122952D01*
X43359605Y-51435000D01*
X43000395Y-51435000D01*
X41688347Y-50122952D01*
X41372786Y-50278962D01*
X41181980Y-50653745D01*
X41067956Y-51058551D01*
X41035098Y-51477824D01*
X38965000Y-51477824D01*
X38965000Y-51224721D01*
X38882953Y-50812244D01*
X38722012Y-50423698D01*
X38488363Y-50074017D01*
X38357693Y-49943347D01*
X41867952Y-49943347D01*
X43180000Y-51255395D01*
X44492048Y-49943347D01*
X44336038Y-49627786D01*
X43961255Y-49436980D01*
X43556449Y-49322956D01*
X43137176Y-49290098D01*
X42719549Y-49339666D01*
X42319617Y-49469757D01*
X42023962Y-49627786D01*
X41867952Y-49943347D01*
X38357693Y-49943347D01*
X38190983Y-49776637D01*
X37841302Y-49542988D01*
X37452756Y-49382047D01*
X37040279Y-49300000D01*
X36619721Y-49300000D01*
X36207244Y-49382047D01*
X35818698Y-49542988D01*
X35633000Y-49667067D01*
X35633000Y-48732867D01*
X35679867Y-48686000D01*
X39705928Y-48686000D01*
X39718188Y-48810482D01*
X39754498Y-48930180D01*
X39813463Y-49040494D01*
X39892815Y-49137185D01*
X39989506Y-49216537D01*
X40099820Y-49275502D01*
X40219518Y-49311812D01*
X40344000Y-49324072D01*
X40608250Y-49321000D01*
X40767000Y-49162250D01*
X40767000Y-48263000D01*
X41021000Y-48263000D01*
X41021000Y-49162250D01*
X41179750Y-49321000D01*
X41444000Y-49324072D01*
X41568482Y-49311812D01*
X41688180Y-49275502D01*
X41798494Y-49216537D01*
X41895185Y-49137185D01*
X41974537Y-49040494D01*
X42033502Y-48930180D01*
X42069812Y-48810482D01*
X42082072Y-48686000D01*
X43515928Y-48686000D01*
X43528188Y-48810482D01*
X43564498Y-48930180D01*
X43623463Y-49040494D01*
X43702815Y-49137185D01*
X43799506Y-49216537D01*
X43909820Y-49275502D01*
X44029518Y-49311812D01*
X44154000Y-49324072D01*
X44418250Y-49321000D01*
X44577000Y-49162250D01*
X44577000Y-48263000D01*
X43677750Y-48263000D01*
X43519000Y-48421750D01*
X43515928Y-48686000D01*
X42082072Y-48686000D01*
X42079000Y-48421750D01*
X41920250Y-48263000D01*
X41021000Y-48263000D01*
X40767000Y-48263000D01*
X39867750Y-48263000D01*
X39709000Y-48421750D01*
X39705928Y-48686000D01*
X35679867Y-48686000D01*
X36030942Y-48334926D01*
X36207244Y-48407953D01*
X36619721Y-48490000D01*
X37040279Y-48490000D01*
X37452756Y-48407953D01*
X37841302Y-48247012D01*
X38190983Y-48013363D01*
X38488363Y-47715983D01*
X38575214Y-47586000D01*
X39705928Y-47586000D01*
X39709000Y-47850250D01*
X39867750Y-48009000D01*
X40767000Y-48009000D01*
X40767000Y-47109750D01*
X41021000Y-47109750D01*
X41021000Y-48009000D01*
X41920250Y-48009000D01*
X42079000Y-47850250D01*
X42082072Y-47586000D01*
X43515928Y-47586000D01*
X43519000Y-47850250D01*
X43677750Y-48009000D01*
X44577000Y-48009000D01*
X44577000Y-47109750D01*
X44418250Y-46951000D01*
X44154000Y-46947928D01*
X44029518Y-46960188D01*
X43909820Y-46996498D01*
X43799506Y-47055463D01*
X43702815Y-47134815D01*
X43623463Y-47231506D01*
X43564498Y-47341820D01*
X43528188Y-47461518D01*
X43515928Y-47586000D01*
X42082072Y-47586000D01*
X42069812Y-47461518D01*
X42033502Y-47341820D01*
X41974537Y-47231506D01*
X41895185Y-47134815D01*
X41798494Y-47055463D01*
X41688180Y-46996498D01*
X41568482Y-46960188D01*
X41444000Y-46947928D01*
X41179750Y-46951000D01*
X41021000Y-47109750D01*
X40767000Y-47109750D01*
X40608250Y-46951000D01*
X40344000Y-46947928D01*
X40219518Y-46960188D01*
X40099820Y-46996498D01*
X39989506Y-47055463D01*
X39892815Y-47134815D01*
X39813463Y-47231506D01*
X39754498Y-47341820D01*
X39718188Y-47461518D01*
X39705928Y-47586000D01*
X38575214Y-47586000D01*
X38722012Y-47366302D01*
X38882953Y-46977756D01*
X38965000Y-46565279D01*
X38965000Y-46171000D01*
X39776317Y-46171000D01*
X39813463Y-46240494D01*
X39892815Y-46337185D01*
X39989506Y-46416537D01*
X40099820Y-46475502D01*
X40219518Y-46511812D01*
X40344000Y-46524072D01*
X41444000Y-46524072D01*
X41568482Y-46511812D01*
X41688180Y-46475502D01*
X41798494Y-46416537D01*
X41895185Y-46337185D01*
X41974537Y-46240494D01*
X42033502Y-46130180D01*
X42069812Y-46010482D01*
X42082072Y-45886000D01*
X42082072Y-44786000D01*
X42069812Y-44661518D01*
X42033502Y-44541820D01*
X42023442Y-44523000D01*
X43574558Y-44523000D01*
X43564498Y-44541820D01*
G04 #@! TA.AperFunction,Conductor*
D20*
G36*
X43564498Y-44541820D02*
G01*
X43528188Y-44661518D01*
X43515928Y-44786000D01*
X43515928Y-45886000D01*
X43528188Y-46010482D01*
X43564498Y-46130180D01*
X43623463Y-46240494D01*
X43702815Y-46337185D01*
X43799506Y-46416537D01*
X43909820Y-46475502D01*
X44029518Y-46511812D01*
X44154000Y-46524072D01*
X44581204Y-46524072D01*
X45007921Y-46950789D01*
X44989750Y-46951000D01*
X44831000Y-47109750D01*
X44831000Y-48009000D01*
X44851000Y-48009000D01*
X44851000Y-48263000D01*
X44831000Y-48263000D01*
X44831000Y-49162250D01*
X44989750Y-49321000D01*
X45254000Y-49324072D01*
X45378482Y-49311812D01*
X45498180Y-49275502D01*
X45608494Y-49216537D01*
X45647000Y-49184936D01*
X45647001Y-53013000D01*
X44449359Y-53013000D01*
X44492048Y-52926653D01*
X43180000Y-51614605D01*
X41867952Y-52926653D01*
X41910641Y-53013000D01*
X38699868Y-53013000D01*
X38485607Y-52798739D01*
X38488363Y-52795983D01*
X38722012Y-52446302D01*
X38882953Y-52057756D01*
X38965000Y-51645279D01*
X38965000Y-51477824D01*
X41035098Y-51477824D01*
X41084666Y-51895451D01*
X41214757Y-52295383D01*
X41372786Y-52591038D01*
X41688347Y-52747048D01*
X43000395Y-51435000D01*
X43359605Y-51435000D01*
X44671653Y-52747048D01*
X44987214Y-52591038D01*
X45178020Y-52216255D01*
X45292044Y-51811449D01*
X45324902Y-51392176D01*
X45275334Y-50974549D01*
X45145243Y-50574617D01*
X44987214Y-50278962D01*
X44671653Y-50122952D01*
X43359605Y-51435000D01*
X43000395Y-51435000D01*
X41688347Y-50122952D01*
X41372786Y-50278962D01*
X41181980Y-50653745D01*
X41067956Y-51058551D01*
X41035098Y-51477824D01*
X38965000Y-51477824D01*
X38965000Y-51224721D01*
X38882953Y-50812244D01*
X38722012Y-50423698D01*
X38488363Y-50074017D01*
X38357693Y-49943347D01*
X41867952Y-49943347D01*
X43180000Y-51255395D01*
X44492048Y-49943347D01*
X44336038Y-49627786D01*
X43961255Y-49436980D01*
X43556449Y-49322956D01*
X43137176Y-49290098D01*
X42719549Y-49339666D01*
X42319617Y-49469757D01*
X42023962Y-49627786D01*
X41867952Y-49943347D01*
X38357693Y-49943347D01*
X38190983Y-49776637D01*
X37841302Y-49542988D01*
X37452756Y-49382047D01*
X37040279Y-49300000D01*
X36619721Y-49300000D01*
X36207244Y-49382047D01*
X35818698Y-49542988D01*
X35633000Y-49667067D01*
X35633000Y-48732867D01*
X35679867Y-48686000D01*
X39705928Y-48686000D01*
X39718188Y-48810482D01*
X39754498Y-48930180D01*
X39813463Y-49040494D01*
X39892815Y-49137185D01*
X39989506Y-49216537D01*
X40099820Y-49275502D01*
X40219518Y-49311812D01*
X40344000Y-49324072D01*
X40608250Y-49321000D01*
X40767000Y-49162250D01*
X40767000Y-48263000D01*
X41021000Y-48263000D01*
X41021000Y-49162250D01*
X41179750Y-49321000D01*
X41444000Y-49324072D01*
X41568482Y-49311812D01*
X41688180Y-49275502D01*
X41798494Y-49216537D01*
X41895185Y-49137185D01*
X41974537Y-49040494D01*
X42033502Y-48930180D01*
X42069812Y-48810482D01*
X42082072Y-48686000D01*
X43515928Y-48686000D01*
X43528188Y-48810482D01*
X43564498Y-48930180D01*
X43623463Y-49040494D01*
X43702815Y-49137185D01*
X43799506Y-49216537D01*
X43909820Y-49275502D01*
X44029518Y-49311812D01*
X44154000Y-49324072D01*
X44418250Y-49321000D01*
X44577000Y-49162250D01*
X44577000Y-48263000D01*
X43677750Y-48263000D01*
X43519000Y-48421750D01*
X43515928Y-48686000D01*
X42082072Y-48686000D01*
X42079000Y-48421750D01*
X41920250Y-48263000D01*
X41021000Y-48263000D01*
X40767000Y-48263000D01*
X39867750Y-48263000D01*
X39709000Y-48421750D01*
X39705928Y-48686000D01*
X35679867Y-48686000D01*
X36030942Y-48334926D01*
X36207244Y-48407953D01*
X36619721Y-48490000D01*
X37040279Y-48490000D01*
X37452756Y-48407953D01*
X37841302Y-48247012D01*
X38190983Y-48013363D01*
X38488363Y-47715983D01*
X38575214Y-47586000D01*
X39705928Y-47586000D01*
X39709000Y-47850250D01*
X39867750Y-48009000D01*
X40767000Y-48009000D01*
X40767000Y-47109750D01*
X41021000Y-47109750D01*
X41021000Y-48009000D01*
X41920250Y-48009000D01*
X42079000Y-47850250D01*
X42082072Y-47586000D01*
X43515928Y-47586000D01*
X43519000Y-47850250D01*
X43677750Y-48009000D01*
X44577000Y-48009000D01*
X44577000Y-47109750D01*
X44418250Y-46951000D01*
X44154000Y-46947928D01*
X44029518Y-46960188D01*
X43909820Y-46996498D01*
X43799506Y-47055463D01*
X43702815Y-47134815D01*
X43623463Y-47231506D01*
X43564498Y-47341820D01*
X43528188Y-47461518D01*
X43515928Y-47586000D01*
X42082072Y-47586000D01*
X42069812Y-47461518D01*
X42033502Y-47341820D01*
X41974537Y-47231506D01*
X41895185Y-47134815D01*
X41798494Y-47055463D01*
X41688180Y-46996498D01*
X41568482Y-46960188D01*
X41444000Y-46947928D01*
X41179750Y-46951000D01*
X41021000Y-47109750D01*
X40767000Y-47109750D01*
X40608250Y-46951000D01*
X40344000Y-46947928D01*
X40219518Y-46960188D01*
X40099820Y-46996498D01*
X39989506Y-47055463D01*
X39892815Y-47134815D01*
X39813463Y-47231506D01*
X39754498Y-47341820D01*
X39718188Y-47461518D01*
X39705928Y-47586000D01*
X38575214Y-47586000D01*
X38722012Y-47366302D01*
X38882953Y-46977756D01*
X38965000Y-46565279D01*
X38965000Y-46171000D01*
X39776317Y-46171000D01*
X39813463Y-46240494D01*
X39892815Y-46337185D01*
X39989506Y-46416537D01*
X40099820Y-46475502D01*
X40219518Y-46511812D01*
X40344000Y-46524072D01*
X41444000Y-46524072D01*
X41568482Y-46511812D01*
X41688180Y-46475502D01*
X41798494Y-46416537D01*
X41895185Y-46337185D01*
X41974537Y-46240494D01*
X42033502Y-46130180D01*
X42069812Y-46010482D01*
X42082072Y-45886000D01*
X42082072Y-44786000D01*
X42069812Y-44661518D01*
X42033502Y-44541820D01*
X42023442Y-44523000D01*
X43574558Y-44523000D01*
X43564498Y-44541820D01*
G37*
G04 #@! TD.AperFunction*
D19*
X36470394Y-39910394D02*
X36366169Y-40037392D01*
X36288722Y-40182284D01*
X36241031Y-40339500D01*
X36224928Y-40503000D01*
X36224928Y-40903000D01*
X36241031Y-41066500D01*
X36288722Y-41223716D01*
X36366169Y-41368608D01*
X36470394Y-41495606D01*
X36597392Y-41599831D01*
X36742284Y-41677278D01*
X36899500Y-41724969D01*
X37063000Y-41741072D01*
X37613000Y-41741072D01*
X37776500Y-41724969D01*
X37933716Y-41677278D01*
X38078608Y-41599831D01*
X38205606Y-41495606D01*
X38309831Y-41368608D01*
X38387278Y-41223716D01*
X38434969Y-41066500D01*
X38451072Y-40903000D01*
X38451072Y-40770795D01*
X38769960Y-40451907D01*
X38764928Y-40503000D01*
X38764928Y-40903000D01*
X38781031Y-41066500D01*
X38828722Y-41223716D01*
X38906169Y-41368608D01*
X39010394Y-41495606D01*
X39137392Y-41599831D01*
X39282284Y-41677278D01*
X39439500Y-41724969D01*
X39603000Y-41741072D01*
X40153000Y-41741072D01*
X40316500Y-41724969D01*
X40473716Y-41677278D01*
X40618608Y-41599831D01*
X40693949Y-41538000D01*
X40915982Y-41538000D01*
X40957000Y-41542040D01*
X40998018Y-41538000D01*
X41602051Y-41538000D01*
X41677392Y-41599831D01*
X41822284Y-41677278D01*
X41979500Y-41724969D01*
X42143000Y-41741072D01*
X42693000Y-41741072D01*
X42856500Y-41724969D01*
X43013716Y-41677278D01*
X43158608Y-41599831D01*
X43285606Y-41495606D01*
X43389831Y-41368608D01*
X43446577Y-41262445D01*
X43448559Y-41264426D01*
X43474709Y-41296291D01*
X43601854Y-41400636D01*
X43746913Y-41478172D01*
X43904311Y-41525918D01*
X44026981Y-41538000D01*
X44026991Y-41538000D01*
X44067999Y-41542039D01*
X44109007Y-41538000D01*
X44142051Y-41538000D01*
X44217392Y-41599831D01*
X44362284Y-41677278D01*
X44519500Y-41724969D01*
X44683000Y-41741072D01*
X45233000Y-41741072D01*
X45396500Y-41724969D01*
X45553716Y-41677278D01*
X45576676Y-41665005D01*
X45660209Y-41766791D01*
X45692079Y-41792946D01*
X46762960Y-42863828D01*
X46653019Y-42853000D01*
X46653018Y-42853000D01*
X46612000Y-42848960D01*
X46570982Y-42853000D01*
X36726016Y-42853000D01*
X36684997Y-42848960D01*
X36643979Y-42853000D01*
X36521309Y-42865082D01*
X36363911Y-42912828D01*
X36218852Y-42990364D01*
X36091707Y-43094709D01*
X36065557Y-43126573D01*
X34020000Y-45172131D01*
X34020000Y-41661062D01*
X34078820Y-41692502D01*
X34198518Y-41728812D01*
X34323000Y-41741072D01*
X34512250Y-41738000D01*
X34671000Y-41579250D01*
X34671000Y-40830000D01*
X34925000Y-40830000D01*
X34925000Y-41579250D01*
X35083750Y-41738000D01*
X35273000Y-41741072D01*
X35397482Y-41728812D01*
X35517180Y-41692502D01*
X35627494Y-41633537D01*
X35724185Y-41554185D01*
X35803537Y-41457494D01*
X35862502Y-41347180D01*
X35898812Y-41227482D01*
X35911072Y-41103000D01*
X35908000Y-40988750D01*
X35749250Y-40830000D01*
X34925000Y-40830000D01*
X34671000Y-40830000D01*
X34651000Y-40830000D01*
X34651000Y-40576000D01*
X34671000Y-40576000D01*
X34671000Y-40556000D01*
X34925000Y-40556000D01*
X34925000Y-40576000D01*
X35749250Y-40576000D01*
X35908000Y-40417250D01*
X35911072Y-40303000D01*
X35898812Y-40178518D01*
X35862502Y-40058820D01*
X35803537Y-39948506D01*
X35753881Y-39888000D01*
X36497681Y-39888000D01*
X36470394Y-39910394D01*
G04 #@! TA.AperFunction,Conductor*
D20*
G36*
X36470394Y-39910394D02*
G01*
X36366169Y-40037392D01*
X36288722Y-40182284D01*
X36241031Y-40339500D01*
X36224928Y-40503000D01*
X36224928Y-40903000D01*
X36241031Y-41066500D01*
X36288722Y-41223716D01*
X36366169Y-41368608D01*
X36470394Y-41495606D01*
X36597392Y-41599831D01*
X36742284Y-41677278D01*
X36899500Y-41724969D01*
X37063000Y-41741072D01*
X37613000Y-41741072D01*
X37776500Y-41724969D01*
X37933716Y-41677278D01*
X38078608Y-41599831D01*
X38205606Y-41495606D01*
X38309831Y-41368608D01*
X38387278Y-41223716D01*
X38434969Y-41066500D01*
X38451072Y-40903000D01*
X38451072Y-40770795D01*
X38769960Y-40451907D01*
X38764928Y-40503000D01*
X38764928Y-40903000D01*
X38781031Y-41066500D01*
X38828722Y-41223716D01*
X38906169Y-41368608D01*
X39010394Y-41495606D01*
X39137392Y-41599831D01*
X39282284Y-41677278D01*
X39439500Y-41724969D01*
X39603000Y-41741072D01*
X40153000Y-41741072D01*
X40316500Y-41724969D01*
X40473716Y-41677278D01*
X40618608Y-41599831D01*
X40693949Y-41538000D01*
X40915982Y-41538000D01*
X40957000Y-41542040D01*
X40998018Y-41538000D01*
X41602051Y-41538000D01*
X41677392Y-41599831D01*
X41822284Y-41677278D01*
X41979500Y-41724969D01*
X42143000Y-41741072D01*
X42693000Y-41741072D01*
X42856500Y-41724969D01*
X43013716Y-41677278D01*
X43158608Y-41599831D01*
X43285606Y-41495606D01*
X43389831Y-41368608D01*
X43446577Y-41262445D01*
X43448559Y-41264426D01*
X43474709Y-41296291D01*
X43601854Y-41400636D01*
X43746913Y-41478172D01*
X43904311Y-41525918D01*
X44026981Y-41538000D01*
X44026991Y-41538000D01*
X44067999Y-41542039D01*
X44109007Y-41538000D01*
X44142051Y-41538000D01*
X44217392Y-41599831D01*
X44362284Y-41677278D01*
X44519500Y-41724969D01*
X44683000Y-41741072D01*
X45233000Y-41741072D01*
X45396500Y-41724969D01*
X45553716Y-41677278D01*
X45576676Y-41665005D01*
X45660209Y-41766791D01*
X45692079Y-41792946D01*
X46762960Y-42863828D01*
X46653019Y-42853000D01*
X46653018Y-42853000D01*
X46612000Y-42848960D01*
X46570982Y-42853000D01*
X36726016Y-42853000D01*
X36684997Y-42848960D01*
X36643979Y-42853000D01*
X36521309Y-42865082D01*
X36363911Y-42912828D01*
X36218852Y-42990364D01*
X36091707Y-43094709D01*
X36065557Y-43126573D01*
X34020000Y-45172131D01*
X34020000Y-41661062D01*
X34078820Y-41692502D01*
X34198518Y-41728812D01*
X34323000Y-41741072D01*
X34512250Y-41738000D01*
X34671000Y-41579250D01*
X34671000Y-40830000D01*
X34925000Y-40830000D01*
X34925000Y-41579250D01*
X35083750Y-41738000D01*
X35273000Y-41741072D01*
X35397482Y-41728812D01*
X35517180Y-41692502D01*
X35627494Y-41633537D01*
X35724185Y-41554185D01*
X35803537Y-41457494D01*
X35862502Y-41347180D01*
X35898812Y-41227482D01*
X35911072Y-41103000D01*
X35908000Y-40988750D01*
X35749250Y-40830000D01*
X34925000Y-40830000D01*
X34671000Y-40830000D01*
X34651000Y-40830000D01*
X34651000Y-40576000D01*
X34671000Y-40576000D01*
X34671000Y-40556000D01*
X34925000Y-40556000D01*
X34925000Y-40576000D01*
X35749250Y-40576000D01*
X35908000Y-40417250D01*
X35911072Y-40303000D01*
X35898812Y-40178518D01*
X35862502Y-40058820D01*
X35803537Y-39948506D01*
X35753881Y-39888000D01*
X36497681Y-39888000D01*
X36470394Y-39910394D01*
G37*
G04 #@! TD.AperFunction*
M02*
