G04 #@! TF.GenerationSoftware,KiCad,Pcbnew,(5.1.9)-1*
G04 #@! TF.CreationDate,2021-02-23T11:14:44+09:00*
G04 #@! TF.ProjectId,powertrain,706f7765-7274-4726-9169-6e2e6b696361,rev?*
G04 #@! TF.SameCoordinates,Original*
G04 #@! TF.FileFunction,Paste,Top*
G04 #@! TF.FilePolarity,Positive*
%FSLAX46Y46*%
G04 Gerber Fmt 4.6, Leading zero omitted, Abs format (unit mm)*
G04 Created by KiCad (PCBNEW (5.1.9)-1) date 2021-02-23 11:14:44*
%MOMM*%
%LPD*%
G01*
G04 APERTURE LIST*
%ADD10C,0.100000*%
%ADD11R,1.100000X1.100000*%
G04 APERTURE END LIST*
D10*
G36*
X45573930Y-29246284D02*
G01*
X44301138Y-30519076D01*
X42886924Y-29104862D01*
X44159716Y-27832070D01*
X45573930Y-29246284D01*
G37*
G36*
X39846365Y-34973849D02*
G01*
X38573573Y-36246641D01*
X37159359Y-34832427D01*
X38432151Y-33559635D01*
X39846365Y-34973849D01*
G37*
G36*
X38803382Y-30748886D02*
G01*
X38096276Y-31455992D01*
X37141682Y-30501398D01*
X37848788Y-29794292D01*
X38803382Y-30748886D01*
G37*
G36*
X40818636Y-28733631D02*
G01*
X40111530Y-29440737D01*
X39156936Y-28486143D01*
X39864042Y-27779037D01*
X40818636Y-28733631D01*
G37*
G36*
X39811009Y-29741259D02*
G01*
X39103903Y-30448365D01*
X38149309Y-29493771D01*
X38856415Y-28786665D01*
X39811009Y-29741259D01*
G37*
G36*
X45874450Y-33789445D02*
G01*
X45167344Y-34496551D01*
X44212750Y-33541957D01*
X44919856Y-32834851D01*
X45874450Y-33789445D01*
G37*
G36*
X44866823Y-34797072D02*
G01*
X44159717Y-35504178D01*
X43205123Y-34549584D01*
X43912229Y-33842478D01*
X44866823Y-34797072D01*
G37*
G36*
X43859196Y-35804699D02*
G01*
X43152090Y-36511805D01*
X42197496Y-35557211D01*
X42904602Y-34850105D01*
X43859196Y-35804699D01*
G37*
D11*
X48514000Y-48136000D03*
X48514000Y-45336000D03*
X40894000Y-48136000D03*
X40894000Y-45336000D03*
X44704000Y-48136000D03*
X44704000Y-45336000D03*
G36*
G01*
X46986000Y-56063000D02*
X46486000Y-56063000D01*
G75*
G02*
X46261000Y-55838000I0J225000D01*
G01*
X46261000Y-55388000D01*
G75*
G02*
X46486000Y-55163000I225000J0D01*
G01*
X46986000Y-55163000D01*
G75*
G02*
X47211000Y-55388000I0J-225000D01*
G01*
X47211000Y-55838000D01*
G75*
G02*
X46986000Y-56063000I-225000J0D01*
G01*
G37*
G36*
G01*
X46986000Y-57613000D02*
X46486000Y-57613000D01*
G75*
G02*
X46261000Y-57388000I0J225000D01*
G01*
X46261000Y-56938000D01*
G75*
G02*
X46486000Y-56713000I225000J0D01*
G01*
X46986000Y-56713000D01*
G75*
G02*
X47211000Y-56938000I0J-225000D01*
G01*
X47211000Y-57388000D01*
G75*
G02*
X46986000Y-57613000I-225000J0D01*
G01*
G37*
G36*
G01*
X49026000Y-56713000D02*
X49526000Y-56713000D01*
G75*
G02*
X49751000Y-56938000I0J-225000D01*
G01*
X49751000Y-57388000D01*
G75*
G02*
X49526000Y-57613000I-225000J0D01*
G01*
X49026000Y-57613000D01*
G75*
G02*
X48801000Y-57388000I0J225000D01*
G01*
X48801000Y-56938000D01*
G75*
G02*
X49026000Y-56713000I225000J0D01*
G01*
G37*
G36*
G01*
X49026000Y-55163000D02*
X49526000Y-55163000D01*
G75*
G02*
X49751000Y-55388000I0J-225000D01*
G01*
X49751000Y-55838000D01*
G75*
G02*
X49526000Y-56063000I-225000J0D01*
G01*
X49026000Y-56063000D01*
G75*
G02*
X48801000Y-55838000I0J225000D01*
G01*
X48801000Y-55388000D01*
G75*
G02*
X49026000Y-55163000I225000J0D01*
G01*
G37*
G36*
G01*
X34523000Y-40303000D02*
X35073000Y-40303000D01*
G75*
G02*
X35273000Y-40503000I0J-200000D01*
G01*
X35273000Y-40903000D01*
G75*
G02*
X35073000Y-41103000I-200000J0D01*
G01*
X34523000Y-41103000D01*
G75*
G02*
X34323000Y-40903000I0J200000D01*
G01*
X34323000Y-40503000D01*
G75*
G02*
X34523000Y-40303000I200000J0D01*
G01*
G37*
G36*
G01*
X34523000Y-38653000D02*
X35073000Y-38653000D01*
G75*
G02*
X35273000Y-38853000I0J-200000D01*
G01*
X35273000Y-39253000D01*
G75*
G02*
X35073000Y-39453000I-200000J0D01*
G01*
X34523000Y-39453000D01*
G75*
G02*
X34323000Y-39253000I0J200000D01*
G01*
X34323000Y-38853000D01*
G75*
G02*
X34523000Y-38653000I200000J0D01*
G01*
G37*
G36*
G01*
X37613000Y-39453000D02*
X37063000Y-39453000D01*
G75*
G02*
X36863000Y-39253000I0J200000D01*
G01*
X36863000Y-38853000D01*
G75*
G02*
X37063000Y-38653000I200000J0D01*
G01*
X37613000Y-38653000D01*
G75*
G02*
X37813000Y-38853000I0J-200000D01*
G01*
X37813000Y-39253000D01*
G75*
G02*
X37613000Y-39453000I-200000J0D01*
G01*
G37*
G36*
G01*
X37613000Y-41103000D02*
X37063000Y-41103000D01*
G75*
G02*
X36863000Y-40903000I0J200000D01*
G01*
X36863000Y-40503000D01*
G75*
G02*
X37063000Y-40303000I200000J0D01*
G01*
X37613000Y-40303000D01*
G75*
G02*
X37813000Y-40503000I0J-200000D01*
G01*
X37813000Y-40903000D01*
G75*
G02*
X37613000Y-41103000I-200000J0D01*
G01*
G37*
G36*
G01*
X40153000Y-39453000D02*
X39603000Y-39453000D01*
G75*
G02*
X39403000Y-39253000I0J200000D01*
G01*
X39403000Y-38853000D01*
G75*
G02*
X39603000Y-38653000I200000J0D01*
G01*
X40153000Y-38653000D01*
G75*
G02*
X40353000Y-38853000I0J-200000D01*
G01*
X40353000Y-39253000D01*
G75*
G02*
X40153000Y-39453000I-200000J0D01*
G01*
G37*
G36*
G01*
X40153000Y-41103000D02*
X39603000Y-41103000D01*
G75*
G02*
X39403000Y-40903000I0J200000D01*
G01*
X39403000Y-40503000D01*
G75*
G02*
X39603000Y-40303000I200000J0D01*
G01*
X40153000Y-40303000D01*
G75*
G02*
X40353000Y-40503000I0J-200000D01*
G01*
X40353000Y-40903000D01*
G75*
G02*
X40153000Y-41103000I-200000J0D01*
G01*
G37*
G36*
G01*
X42143000Y-40303000D02*
X42693000Y-40303000D01*
G75*
G02*
X42893000Y-40503000I0J-200000D01*
G01*
X42893000Y-40903000D01*
G75*
G02*
X42693000Y-41103000I-200000J0D01*
G01*
X42143000Y-41103000D01*
G75*
G02*
X41943000Y-40903000I0J200000D01*
G01*
X41943000Y-40503000D01*
G75*
G02*
X42143000Y-40303000I200000J0D01*
G01*
G37*
G36*
G01*
X42143000Y-38653000D02*
X42693000Y-38653000D01*
G75*
G02*
X42893000Y-38853000I0J-200000D01*
G01*
X42893000Y-39253000D01*
G75*
G02*
X42693000Y-39453000I-200000J0D01*
G01*
X42143000Y-39453000D01*
G75*
G02*
X41943000Y-39253000I0J200000D01*
G01*
X41943000Y-38853000D01*
G75*
G02*
X42143000Y-38653000I200000J0D01*
G01*
G37*
G36*
G01*
X44683000Y-40303000D02*
X45233000Y-40303000D01*
G75*
G02*
X45433000Y-40503000I0J-200000D01*
G01*
X45433000Y-40903000D01*
G75*
G02*
X45233000Y-41103000I-200000J0D01*
G01*
X44683000Y-41103000D01*
G75*
G02*
X44483000Y-40903000I0J200000D01*
G01*
X44483000Y-40503000D01*
G75*
G02*
X44683000Y-40303000I200000J0D01*
G01*
G37*
G36*
G01*
X44683000Y-38653000D02*
X45233000Y-38653000D01*
G75*
G02*
X45433000Y-38853000I0J-200000D01*
G01*
X45433000Y-39253000D01*
G75*
G02*
X45233000Y-39453000I-200000J0D01*
G01*
X44683000Y-39453000D01*
G75*
G02*
X44483000Y-39253000I0J200000D01*
G01*
X44483000Y-38853000D01*
G75*
G02*
X44683000Y-38653000I200000J0D01*
G01*
G37*
G36*
G01*
X47754250Y-39528000D02*
X47241750Y-39528000D01*
G75*
G02*
X47023000Y-39309250I0J218750D01*
G01*
X47023000Y-38871750D01*
G75*
G02*
X47241750Y-38653000I218750J0D01*
G01*
X47754250Y-38653000D01*
G75*
G02*
X47973000Y-38871750I0J-218750D01*
G01*
X47973000Y-39309250D01*
G75*
G02*
X47754250Y-39528000I-218750J0D01*
G01*
G37*
G36*
G01*
X47754250Y-41103000D02*
X47241750Y-41103000D01*
G75*
G02*
X47023000Y-40884250I0J218750D01*
G01*
X47023000Y-40446750D01*
G75*
G02*
X47241750Y-40228000I218750J0D01*
G01*
X47754250Y-40228000D01*
G75*
G02*
X47973000Y-40446750I0J-218750D01*
G01*
X47973000Y-40884250D01*
G75*
G02*
X47754250Y-41103000I-218750J0D01*
G01*
G37*
M02*
