G04 #@! TF.GenerationSoftware,KiCad,Pcbnew,(5.1.4)-1*
G04 #@! TF.CreationDate,2019-12-12T19:48:25+09:00*
G04 #@! TF.ProjectId,microcar_head,6d696372-6f63-4617-925f-686561642e6b,rev?*
G04 #@! TF.SameCoordinates,Original*
G04 #@! TF.FileFunction,Legend,Top*
G04 #@! TF.FilePolarity,Positive*
%FSLAX46Y46*%
G04 Gerber Fmt 4.6, Leading zero omitted, Abs format (unit mm)*
G04 Created by KiCad (PCBNEW (5.1.4)-1) date 2019-12-12 19:48:25*
%MOMM*%
%LPD*%
G04 APERTURE LIST*
%ADD10C,0.120000*%
%ADD11C,0.150000*%
%ADD12C,0.300000*%
%ADD13C,0.127000*%
%ADD14C,0.050000*%
G04 APERTURE END LIST*
D10*
X46355000Y-36830000D02*
X45720000Y-36195000D01*
X46355000Y-35560000D02*
X46355000Y-36830000D01*
X45720000Y-36195000D02*
X46355000Y-35560000D01*
X63500000Y-20955000D02*
X40005000Y-20955000D01*
X63500000Y-22860000D02*
X63500000Y-20955000D01*
X40005000Y-22860000D02*
X63500000Y-22860000D01*
X40005000Y-22860000D02*
X40005000Y-20955000D01*
D11*
X62077904Y-21391619D02*
X62411238Y-21867809D01*
X62649333Y-21391619D02*
X62649333Y-22391619D01*
X62268380Y-22391619D01*
X62173142Y-22344000D01*
X62125523Y-22296380D01*
X62077904Y-22201142D01*
X62077904Y-22058285D01*
X62125523Y-21963047D01*
X62173142Y-21915428D01*
X62268380Y-21867809D01*
X62649333Y-21867809D01*
X61696952Y-21677333D02*
X61220761Y-21677333D01*
X61792190Y-21391619D02*
X61458857Y-22391619D01*
X61125523Y-21391619D01*
X60792190Y-21391619D02*
X60792190Y-22391619D01*
X60458857Y-21677333D01*
X60125523Y-22391619D01*
X60125523Y-21391619D01*
X59649333Y-21391619D02*
X59649333Y-22391619D01*
X59077904Y-21391619D01*
X59077904Y-22391619D01*
X57839809Y-21772571D02*
X57077904Y-21772571D01*
X55839809Y-21391619D02*
X55839809Y-22391619D01*
X55458857Y-22391619D01*
X55363619Y-22344000D01*
X55316000Y-22296380D01*
X55268380Y-22201142D01*
X55268380Y-22058285D01*
X55316000Y-21963047D01*
X55363619Y-21915428D01*
X55458857Y-21867809D01*
X55839809Y-21867809D01*
X54696952Y-21391619D02*
X54792190Y-21439238D01*
X54839809Y-21486857D01*
X54887428Y-21582095D01*
X54887428Y-21867809D01*
X54839809Y-21963047D01*
X54792190Y-22010666D01*
X54696952Y-22058285D01*
X54554095Y-22058285D01*
X54458857Y-22010666D01*
X54411238Y-21963047D01*
X54363619Y-21867809D01*
X54363619Y-21582095D01*
X54411238Y-21486857D01*
X54458857Y-21439238D01*
X54554095Y-21391619D01*
X54696952Y-21391619D01*
X54030285Y-22058285D02*
X53839809Y-21391619D01*
X53649333Y-21867809D01*
X53458857Y-21391619D01*
X53268380Y-22058285D01*
X52506476Y-21439238D02*
X52601714Y-21391619D01*
X52792190Y-21391619D01*
X52887428Y-21439238D01*
X52935047Y-21534476D01*
X52935047Y-21915428D01*
X52887428Y-22010666D01*
X52792190Y-22058285D01*
X52601714Y-22058285D01*
X52506476Y-22010666D01*
X52458857Y-21915428D01*
X52458857Y-21820190D01*
X52935047Y-21724952D01*
X52030285Y-21391619D02*
X52030285Y-22058285D01*
X52030285Y-21867809D02*
X51982666Y-21963047D01*
X51935047Y-22010666D01*
X51839809Y-22058285D01*
X51744571Y-22058285D01*
X51554095Y-22058285D02*
X51173142Y-22058285D01*
X51411238Y-22391619D02*
X51411238Y-21534476D01*
X51363619Y-21439238D01*
X51268380Y-21391619D01*
X51173142Y-21391619D01*
X50839809Y-21391619D02*
X50839809Y-22058285D01*
X50839809Y-21867809D02*
X50792190Y-21963047D01*
X50744571Y-22010666D01*
X50649333Y-22058285D01*
X50554095Y-22058285D01*
X49792190Y-21391619D02*
X49792190Y-21915428D01*
X49839809Y-22010666D01*
X49935047Y-22058285D01*
X50125523Y-22058285D01*
X50220761Y-22010666D01*
X49792190Y-21439238D02*
X49887428Y-21391619D01*
X50125523Y-21391619D01*
X50220761Y-21439238D01*
X50268380Y-21534476D01*
X50268380Y-21629714D01*
X50220761Y-21724952D01*
X50125523Y-21772571D01*
X49887428Y-21772571D01*
X49792190Y-21820190D01*
X49316000Y-21391619D02*
X49316000Y-22058285D01*
X49316000Y-22391619D02*
X49363619Y-22344000D01*
X49316000Y-22296380D01*
X49268380Y-22344000D01*
X49316000Y-22391619D01*
X49316000Y-22296380D01*
X48839809Y-22058285D02*
X48839809Y-21391619D01*
X48839809Y-21963047D02*
X48792190Y-22010666D01*
X48696952Y-22058285D01*
X48554095Y-22058285D01*
X48458857Y-22010666D01*
X48411238Y-21915428D01*
X48411238Y-21391619D01*
X46649333Y-21391619D02*
X47220761Y-21391619D01*
X46935047Y-21391619D02*
X46935047Y-22391619D01*
X47030285Y-22248761D01*
X47125523Y-22153523D01*
X47220761Y-22105904D01*
X46220761Y-21486857D02*
X46173142Y-21439238D01*
X46220761Y-21391619D01*
X46268380Y-21439238D01*
X46220761Y-21486857D01*
X46220761Y-21391619D01*
X45554095Y-22391619D02*
X45458857Y-22391619D01*
X45363619Y-22344000D01*
X45316000Y-22296380D01*
X45268380Y-22201142D01*
X45220761Y-22010666D01*
X45220761Y-21772571D01*
X45268380Y-21582095D01*
X45316000Y-21486857D01*
X45363619Y-21439238D01*
X45458857Y-21391619D01*
X45554095Y-21391619D01*
X45649333Y-21439238D01*
X45696952Y-21486857D01*
X45744571Y-21582095D01*
X45792190Y-21772571D01*
X45792190Y-22010666D01*
X45744571Y-22201142D01*
X45696952Y-22296380D01*
X45649333Y-22344000D01*
X45554095Y-22391619D01*
X43696952Y-21915428D02*
X43554095Y-21867809D01*
X43506476Y-21820190D01*
X43458857Y-21724952D01*
X43458857Y-21582095D01*
X43506476Y-21486857D01*
X43554095Y-21439238D01*
X43649333Y-21391619D01*
X44030285Y-21391619D01*
X44030285Y-22391619D01*
X43696952Y-22391619D01*
X43601714Y-22344000D01*
X43554095Y-22296380D01*
X43506476Y-22201142D01*
X43506476Y-22105904D01*
X43554095Y-22010666D01*
X43601714Y-21963047D01*
X43696952Y-21915428D01*
X44030285Y-21915428D01*
X43030285Y-21915428D02*
X42696952Y-21915428D01*
X42554095Y-21391619D02*
X43030285Y-21391619D01*
X43030285Y-22391619D01*
X42554095Y-22391619D01*
X42268380Y-22391619D02*
X41696952Y-22391619D01*
X41982666Y-21391619D02*
X41982666Y-22391619D01*
X41411238Y-21677333D02*
X40935047Y-21677333D01*
X41506476Y-21391619D02*
X41173142Y-22391619D01*
X40839809Y-21391619D01*
D10*
X39116000Y-25654000D02*
X39116000Y-27686000D01*
X39878000Y-25654000D02*
X39116000Y-25654000D01*
X55880000Y-25654000D02*
X55880000Y-27432000D01*
X55118000Y-25654000D02*
X55880000Y-25654000D01*
X65024000Y-25654000D02*
X65024000Y-27432000D01*
X64262000Y-25654000D02*
X65024000Y-25654000D01*
D12*
X45711714Y-24792857D02*
X45497428Y-24721428D01*
X45140285Y-24721428D01*
X44997428Y-24792857D01*
X44926000Y-24864285D01*
X44854571Y-25007142D01*
X44854571Y-25150000D01*
X44926000Y-25292857D01*
X44997428Y-25364285D01*
X45140285Y-25435714D01*
X45426000Y-25507142D01*
X45568857Y-25578571D01*
X45640285Y-25650000D01*
X45711714Y-25792857D01*
X45711714Y-25935714D01*
X45640285Y-26078571D01*
X45568857Y-26150000D01*
X45426000Y-26221428D01*
X45068857Y-26221428D01*
X44854571Y-26150000D01*
X44211714Y-24721428D02*
X44211714Y-26221428D01*
X44211714Y-25507142D02*
X43354571Y-25507142D01*
X43354571Y-24721428D02*
X43354571Y-26221428D01*
X42640285Y-24721428D02*
X42640285Y-26221428D01*
X41426000Y-25507142D02*
X41926000Y-25507142D01*
X41926000Y-24721428D02*
X41926000Y-26221428D01*
X41211714Y-26221428D01*
X40854571Y-26221428D02*
X39997428Y-26221428D01*
X40426000Y-24721428D02*
X40426000Y-26221428D01*
X54704857Y-25150000D02*
X53990571Y-25150000D01*
X54847714Y-24721428D02*
X54347714Y-26221428D01*
X53847714Y-24721428D01*
X52490571Y-24864285D02*
X52562000Y-24792857D01*
X52776285Y-24721428D01*
X52919142Y-24721428D01*
X53133428Y-24792857D01*
X53276285Y-24935714D01*
X53347714Y-25078571D01*
X53419142Y-25364285D01*
X53419142Y-25578571D01*
X53347714Y-25864285D01*
X53276285Y-26007142D01*
X53133428Y-26150000D01*
X52919142Y-26221428D01*
X52776285Y-26221428D01*
X52562000Y-26150000D01*
X52490571Y-26078571D01*
X50990571Y-24864285D02*
X51062000Y-24792857D01*
X51276285Y-24721428D01*
X51419142Y-24721428D01*
X51633428Y-24792857D01*
X51776285Y-24935714D01*
X51847714Y-25078571D01*
X51919142Y-25364285D01*
X51919142Y-25578571D01*
X51847714Y-25864285D01*
X51776285Y-26007142D01*
X51633428Y-26150000D01*
X51419142Y-26221428D01*
X51276285Y-26221428D01*
X51062000Y-26150000D01*
X50990571Y-26078571D01*
X50347714Y-25507142D02*
X49847714Y-25507142D01*
X49633428Y-24721428D02*
X50347714Y-24721428D01*
X50347714Y-26221428D01*
X49633428Y-26221428D01*
X48276285Y-24721428D02*
X48990571Y-24721428D01*
X48990571Y-26221428D01*
X63166285Y-25507142D02*
X62951999Y-25435714D01*
X62880571Y-25364285D01*
X62809142Y-25221428D01*
X62809142Y-25007142D01*
X62880571Y-24864285D01*
X62951999Y-24792857D01*
X63094857Y-24721428D01*
X63666285Y-24721428D01*
X63666285Y-26221428D01*
X63166285Y-26221428D01*
X63023428Y-26150000D01*
X62951999Y-26078571D01*
X62880571Y-25935714D01*
X62880571Y-25792857D01*
X62951999Y-25650000D01*
X63023428Y-25578571D01*
X63166285Y-25507142D01*
X63666285Y-25507142D01*
X61309142Y-24721428D02*
X61809142Y-25435714D01*
X62166285Y-24721428D02*
X62166285Y-26221428D01*
X61594857Y-26221428D01*
X61452000Y-26150000D01*
X61380571Y-26078571D01*
X61309142Y-25935714D01*
X61309142Y-25721428D01*
X61380571Y-25578571D01*
X61452000Y-25507142D01*
X61594857Y-25435714D01*
X62166285Y-25435714D01*
X60737714Y-25150000D02*
X60023428Y-25150000D01*
X60880571Y-24721428D02*
X60380571Y-26221428D01*
X59880571Y-24721428D01*
X59380571Y-24721428D02*
X59380571Y-26221428D01*
X58523428Y-24721428D02*
X59166285Y-25578571D01*
X58523428Y-26221428D02*
X59380571Y-25364285D01*
X57880571Y-25507142D02*
X57380571Y-25507142D01*
X57166285Y-24721428D02*
X57880571Y-24721428D01*
X57880571Y-26221428D01*
X57166285Y-26221428D01*
D10*
X70545000Y-63500000D02*
X70545000Y-64830000D01*
X70545000Y-64830000D02*
X69215000Y-64830000D01*
X70545000Y-62230000D02*
X67945000Y-62230000D01*
X67945000Y-62230000D02*
X67945000Y-64830000D01*
X67945000Y-64830000D02*
X37405000Y-64830000D01*
X37405000Y-59630000D02*
X37405000Y-64830000D01*
X70545000Y-59630000D02*
X37405000Y-59630000D01*
X70545000Y-59630000D02*
X70545000Y-62230000D01*
D13*
X44300000Y-38095000D02*
X34300000Y-38095000D01*
X44300000Y-28045000D02*
X34300000Y-28045000D01*
D10*
X39624000Y-36449000D02*
X39624000Y-37592000D01*
X39624000Y-37846000D02*
X40005000Y-37465000D01*
X39624000Y-37846000D02*
X39243000Y-37465000D01*
X46404000Y-48006000D02*
G75*
G03X46404000Y-48006000I-1700000J0D01*
G01*
X37260000Y-48006000D02*
G75*
G03X37260000Y-48006000I-1700000J0D01*
G01*
X41832000Y-48006000D02*
G75*
G03X41832000Y-48006000I-1700000J0D01*
G01*
X37260000Y-55372000D02*
G75*
G03X37260000Y-55372000I-1700000J0D01*
G01*
X46404000Y-55372000D02*
G75*
G03X46404000Y-55372000I-1700000J0D01*
G01*
X34546000Y-40294779D02*
X34546000Y-39969221D01*
X33526000Y-40294779D02*
X33526000Y-39969221D01*
X36832000Y-40294779D02*
X36832000Y-39969221D01*
X35812000Y-40294779D02*
X35812000Y-39969221D01*
X41404000Y-40294779D02*
X41404000Y-39969221D01*
X40384000Y-40294779D02*
X40384000Y-39969221D01*
X43690000Y-40294779D02*
X43690000Y-39969221D01*
X42670000Y-40294779D02*
X42670000Y-39969221D01*
X45976000Y-40320279D02*
X45976000Y-39994721D01*
X44956000Y-40320279D02*
X44956000Y-39994721D01*
X39118000Y-40294779D02*
X39118000Y-39969221D01*
X38098000Y-40294779D02*
X38098000Y-39969221D01*
X64615000Y-35400000D02*
X65365000Y-36150000D01*
X63865000Y-36150000D02*
X64615000Y-35400000D01*
X63115000Y-35400000D02*
X66115000Y-35400000D01*
X64615000Y-50400000D02*
X65365000Y-49650000D01*
X63865000Y-49650000D02*
X64615000Y-50400000D01*
X63115000Y-50400000D02*
X66115000Y-50400000D01*
X64615000Y-50400000D02*
X64615000Y-35400000D01*
X63365000Y-58825000D02*
X62865000Y-58325000D01*
X62365000Y-58825000D02*
X63365000Y-58825000D01*
X62865000Y-58325000D02*
X62365000Y-58825000D01*
X63688000Y-27780000D02*
X69235000Y-27780000D01*
X59995000Y-27780000D02*
X62042000Y-27780000D01*
X67188000Y-58020000D02*
X69235000Y-58020000D01*
X64040000Y-58020000D02*
X65543000Y-58020000D01*
X59995000Y-58020000D02*
X61690000Y-58020000D01*
X69235000Y-31164000D02*
X69235000Y-27780000D01*
X69235000Y-51364000D02*
X69235000Y-34435000D01*
X69235000Y-58020000D02*
X69235000Y-54635000D01*
X59995000Y-32364000D02*
X59995000Y-27780000D01*
X59995000Y-50164000D02*
X59995000Y-35635000D01*
X59995000Y-58020000D02*
X59995000Y-53435000D01*
X52296000Y-35400000D02*
X53046000Y-36150000D01*
X51546000Y-36150000D02*
X52296000Y-35400000D01*
X50796000Y-35400000D02*
X53796000Y-35400000D01*
X52296000Y-50400000D02*
X53046000Y-49650000D01*
X51546000Y-49650000D02*
X52296000Y-50400000D01*
X50796000Y-50400000D02*
X53796000Y-50400000D01*
X52296000Y-50400000D02*
X52296000Y-35400000D01*
X51046000Y-58825000D02*
X50546000Y-58325000D01*
X50046000Y-58825000D02*
X51046000Y-58825000D01*
X50546000Y-58325000D02*
X50046000Y-58825000D01*
X51369000Y-27780000D02*
X56916000Y-27780000D01*
X47676000Y-27780000D02*
X49723000Y-27780000D01*
X54869000Y-58020000D02*
X56916000Y-58020000D01*
X51721000Y-58020000D02*
X53224000Y-58020000D01*
X47676000Y-58020000D02*
X49371000Y-58020000D01*
X56916000Y-31164000D02*
X56916000Y-27780000D01*
X56916000Y-51364000D02*
X56916000Y-34435000D01*
X56916000Y-58020000D02*
X56916000Y-54635000D01*
X47676000Y-32364000D02*
X47676000Y-27780000D01*
X47676000Y-50164000D02*
X47676000Y-35635000D01*
X47676000Y-58020000D02*
X47676000Y-53435000D01*
D11*
X35012380Y-63833333D02*
X35726666Y-63833333D01*
X35869523Y-63880952D01*
X35964761Y-63976190D01*
X36012380Y-64119047D01*
X36012380Y-64214285D01*
X35107619Y-63404761D02*
X35060000Y-63357142D01*
X35012380Y-63261904D01*
X35012380Y-63023809D01*
X35060000Y-62928571D01*
X35107619Y-62880952D01*
X35202857Y-62833333D01*
X35298095Y-62833333D01*
X35440952Y-62880952D01*
X36012380Y-63452380D01*
X36012380Y-62833333D01*
X46759761Y-31813333D02*
X46807380Y-31670476D01*
X46807380Y-31432380D01*
X46759761Y-31337142D01*
X46712142Y-31289523D01*
X46616904Y-31241904D01*
X46521666Y-31241904D01*
X46426428Y-31289523D01*
X46378809Y-31337142D01*
X46331190Y-31432380D01*
X46283571Y-31622857D01*
X46235952Y-31718095D01*
X46188333Y-31765714D01*
X46093095Y-31813333D01*
X45997857Y-31813333D01*
X45902619Y-31765714D01*
X45855000Y-31718095D01*
X45807380Y-31622857D01*
X45807380Y-31384761D01*
X45855000Y-31241904D01*
X45807380Y-30908571D02*
X46807380Y-30670476D01*
X46093095Y-30480000D01*
X46807380Y-30289523D01*
X45807380Y-30051428D01*
X46807380Y-29146666D02*
X46807380Y-29718095D01*
X46807380Y-29432380D02*
X45807380Y-29432380D01*
X45950238Y-29527619D01*
X46045476Y-29622857D01*
X46093095Y-29718095D01*
D14*
D11*
X38369904Y-37504666D02*
X38846095Y-37504666D01*
X38274666Y-37790380D02*
X38608000Y-36790380D01*
X38941333Y-37790380D01*
X46227809Y-45029428D02*
X46084952Y-44981809D01*
X46037333Y-44934190D01*
X45989714Y-44838952D01*
X45989714Y-44696095D01*
X46037333Y-44600857D01*
X46084952Y-44553238D01*
X46180190Y-44505619D01*
X46561142Y-44505619D01*
X46561142Y-45505619D01*
X46227809Y-45505619D01*
X46132571Y-45458000D01*
X46084952Y-45410380D01*
X46037333Y-45315142D01*
X46037333Y-45219904D01*
X46084952Y-45124666D01*
X46132571Y-45077047D01*
X46227809Y-45029428D01*
X46561142Y-45029428D01*
X45561142Y-44505619D02*
X45561142Y-45172285D01*
X45561142Y-44981809D02*
X45513523Y-45077047D01*
X45465904Y-45124666D01*
X45370666Y-45172285D01*
X45275428Y-45172285D01*
X44513523Y-44505619D02*
X44513523Y-45029428D01*
X44561142Y-45124666D01*
X44656380Y-45172285D01*
X44846857Y-45172285D01*
X44942095Y-45124666D01*
X44513523Y-44553238D02*
X44608761Y-44505619D01*
X44846857Y-44505619D01*
X44942095Y-44553238D01*
X44989714Y-44648476D01*
X44989714Y-44743714D01*
X44942095Y-44838952D01*
X44846857Y-44886571D01*
X44608761Y-44886571D01*
X44513523Y-44934190D01*
X44037333Y-44505619D02*
X44037333Y-45505619D01*
X43942095Y-44886571D02*
X43656380Y-44505619D01*
X43656380Y-45172285D02*
X44037333Y-44791333D01*
X42846857Y-44553238D02*
X42942095Y-44505619D01*
X43132571Y-44505619D01*
X43227809Y-44553238D01*
X43275428Y-44648476D01*
X43275428Y-45029428D01*
X43227809Y-45124666D01*
X43132571Y-45172285D01*
X42942095Y-45172285D01*
X42846857Y-45124666D01*
X42799238Y-45029428D01*
X42799238Y-44934190D01*
X43275428Y-44838952D01*
X37361619Y-44553238D02*
X37218761Y-44505619D01*
X36980666Y-44505619D01*
X36885428Y-44553238D01*
X36837809Y-44600857D01*
X36790190Y-44696095D01*
X36790190Y-44791333D01*
X36837809Y-44886571D01*
X36885428Y-44934190D01*
X36980666Y-44981809D01*
X37171142Y-45029428D01*
X37266380Y-45077047D01*
X37314000Y-45124666D01*
X37361619Y-45219904D01*
X37361619Y-45315142D01*
X37314000Y-45410380D01*
X37266380Y-45458000D01*
X37171142Y-45505619D01*
X36933047Y-45505619D01*
X36790190Y-45458000D01*
X36361619Y-44505619D02*
X36361619Y-45505619D01*
X35933047Y-44505619D02*
X35933047Y-45029428D01*
X35980666Y-45124666D01*
X36075904Y-45172285D01*
X36218761Y-45172285D01*
X36314000Y-45124666D01*
X36361619Y-45077047D01*
X35456857Y-44505619D02*
X35456857Y-45172285D01*
X35456857Y-45505619D02*
X35504476Y-45458000D01*
X35456857Y-45410380D01*
X35409238Y-45458000D01*
X35456857Y-45505619D01*
X35456857Y-45410380D01*
X35123523Y-45172285D02*
X34742571Y-45172285D01*
X34980666Y-44505619D02*
X34980666Y-45362761D01*
X34933047Y-45458000D01*
X34837809Y-45505619D01*
X34742571Y-45505619D01*
X34552095Y-45172285D02*
X34171142Y-45172285D01*
X34409238Y-45505619D02*
X34409238Y-44648476D01*
X34361619Y-44553238D01*
X34266380Y-44505619D01*
X34171142Y-44505619D01*
X41917714Y-44791333D02*
X41441523Y-44791333D01*
X42012952Y-44505619D02*
X41679619Y-45505619D01*
X41346285Y-44505619D01*
X40584380Y-44553238D02*
X40679619Y-44505619D01*
X40870095Y-44505619D01*
X40965333Y-44553238D01*
X41012952Y-44600857D01*
X41060571Y-44696095D01*
X41060571Y-44981809D01*
X41012952Y-45077047D01*
X40965333Y-45124666D01*
X40870095Y-45172285D01*
X40679619Y-45172285D01*
X40584380Y-45124666D01*
X39727238Y-44553238D02*
X39822476Y-44505619D01*
X40012952Y-44505619D01*
X40108190Y-44553238D01*
X40155809Y-44600857D01*
X40203428Y-44696095D01*
X40203428Y-44981809D01*
X40155809Y-45077047D01*
X40108190Y-45124666D01*
X40012952Y-45172285D01*
X39822476Y-45172285D01*
X39727238Y-45124666D01*
X38917714Y-44553238D02*
X39012952Y-44505619D01*
X39203428Y-44505619D01*
X39298666Y-44553238D01*
X39346285Y-44648476D01*
X39346285Y-45029428D01*
X39298666Y-45124666D01*
X39203428Y-45172285D01*
X39012952Y-45172285D01*
X38917714Y-45124666D01*
X38870095Y-45029428D01*
X38870095Y-44934190D01*
X39346285Y-44838952D01*
X38298666Y-44505619D02*
X38393904Y-44553238D01*
X38441523Y-44648476D01*
X38441523Y-45505619D01*
X36321904Y-52570000D02*
X36417142Y-52617619D01*
X36560000Y-52617619D01*
X36702857Y-52570000D01*
X36798095Y-52474761D01*
X36845714Y-52379523D01*
X36893333Y-52189047D01*
X36893333Y-52046190D01*
X36845714Y-51855714D01*
X36798095Y-51760476D01*
X36702857Y-51665238D01*
X36560000Y-51617619D01*
X36464761Y-51617619D01*
X36321904Y-51665238D01*
X36274285Y-51712857D01*
X36274285Y-52046190D01*
X36464761Y-52046190D01*
X35845714Y-51617619D02*
X35845714Y-52617619D01*
X35274285Y-51617619D01*
X35274285Y-52617619D01*
X34798095Y-51617619D02*
X34798095Y-52617619D01*
X34560000Y-52617619D01*
X34417142Y-52570000D01*
X34321904Y-52474761D01*
X34274285Y-52379523D01*
X34226666Y-52189047D01*
X34226666Y-52046190D01*
X34274285Y-51855714D01*
X34321904Y-51760476D01*
X34417142Y-51665238D01*
X34560000Y-51617619D01*
X34798095Y-51617619D01*
X45942095Y-52617619D02*
X45323047Y-52617619D01*
X45656380Y-52236666D01*
X45513523Y-52236666D01*
X45418285Y-52189047D01*
X45370666Y-52141428D01*
X45323047Y-52046190D01*
X45323047Y-51808095D01*
X45370666Y-51712857D01*
X45418285Y-51665238D01*
X45513523Y-51617619D01*
X45799238Y-51617619D01*
X45894476Y-51665238D01*
X45942095Y-51712857D01*
X45037333Y-52617619D02*
X44704000Y-51617619D01*
X44370666Y-52617619D01*
X44132571Y-52617619D02*
X43513523Y-52617619D01*
X43846857Y-52236666D01*
X43704000Y-52236666D01*
X43608761Y-52189047D01*
X43561142Y-52141428D01*
X43513523Y-52046190D01*
X43513523Y-51808095D01*
X43561142Y-51712857D01*
X43608761Y-51665238D01*
X43704000Y-51617619D01*
X43989714Y-51617619D01*
X44084952Y-51665238D01*
X44132571Y-51712857D01*
X34488380Y-42838666D02*
X34012190Y-43172000D01*
X34488380Y-43410095D02*
X33488380Y-43410095D01*
X33488380Y-43029142D01*
X33536000Y-42933904D01*
X33583619Y-42886285D01*
X33678857Y-42838666D01*
X33821714Y-42838666D01*
X33916952Y-42886285D01*
X33964571Y-42933904D01*
X34012190Y-43029142D01*
X34012190Y-43410095D01*
X33488380Y-41981523D02*
X33488380Y-42172000D01*
X33536000Y-42267238D01*
X33583619Y-42314857D01*
X33726476Y-42410095D01*
X33916952Y-42457714D01*
X34297904Y-42457714D01*
X34393142Y-42410095D01*
X34440761Y-42362476D01*
X34488380Y-42267238D01*
X34488380Y-42076761D01*
X34440761Y-41981523D01*
X34393142Y-41933904D01*
X34297904Y-41886285D01*
X34059809Y-41886285D01*
X33964571Y-41933904D01*
X33916952Y-41981523D01*
X33869333Y-42076761D01*
X33869333Y-42267238D01*
X33916952Y-42362476D01*
X33964571Y-42410095D01*
X34059809Y-42457714D01*
X36774380Y-42838666D02*
X36298190Y-43172000D01*
X36774380Y-43410095D02*
X35774380Y-43410095D01*
X35774380Y-43029142D01*
X35822000Y-42933904D01*
X35869619Y-42886285D01*
X35964857Y-42838666D01*
X36107714Y-42838666D01*
X36202952Y-42886285D01*
X36250571Y-42933904D01*
X36298190Y-43029142D01*
X36298190Y-43410095D01*
X35774380Y-41933904D02*
X35774380Y-42410095D01*
X36250571Y-42457714D01*
X36202952Y-42410095D01*
X36155333Y-42314857D01*
X36155333Y-42076761D01*
X36202952Y-41981523D01*
X36250571Y-41933904D01*
X36345809Y-41886285D01*
X36583904Y-41886285D01*
X36679142Y-41933904D01*
X36726761Y-41981523D01*
X36774380Y-42076761D01*
X36774380Y-42314857D01*
X36726761Y-42410095D01*
X36679142Y-42457714D01*
X41346380Y-42838666D02*
X40870190Y-43172000D01*
X41346380Y-43410095D02*
X40346380Y-43410095D01*
X40346380Y-43029142D01*
X40394000Y-42933904D01*
X40441619Y-42886285D01*
X40536857Y-42838666D01*
X40679714Y-42838666D01*
X40774952Y-42886285D01*
X40822571Y-42933904D01*
X40870190Y-43029142D01*
X40870190Y-43410095D01*
X40679714Y-41981523D02*
X41346380Y-41981523D01*
X40298761Y-42219619D02*
X41013047Y-42457714D01*
X41013047Y-41838666D01*
X43632380Y-42838666D02*
X43156190Y-43172000D01*
X43632380Y-43410095D02*
X42632380Y-43410095D01*
X42632380Y-43029142D01*
X42680000Y-42933904D01*
X42727619Y-42886285D01*
X42822857Y-42838666D01*
X42965714Y-42838666D01*
X43060952Y-42886285D01*
X43108571Y-42933904D01*
X43156190Y-43029142D01*
X43156190Y-43410095D01*
X42632380Y-42505333D02*
X42632380Y-41886285D01*
X43013333Y-42219619D01*
X43013333Y-42076761D01*
X43060952Y-41981523D01*
X43108571Y-41933904D01*
X43203809Y-41886285D01*
X43441904Y-41886285D01*
X43537142Y-41933904D01*
X43584761Y-41981523D01*
X43632380Y-42076761D01*
X43632380Y-42362476D01*
X43584761Y-42457714D01*
X43537142Y-42505333D01*
X45918380Y-42838666D02*
X45442190Y-43172000D01*
X45918380Y-43410095D02*
X44918380Y-43410095D01*
X44918380Y-43029142D01*
X44966000Y-42933904D01*
X45013619Y-42886285D01*
X45108857Y-42838666D01*
X45251714Y-42838666D01*
X45346952Y-42886285D01*
X45394571Y-42933904D01*
X45442190Y-43029142D01*
X45442190Y-43410095D01*
X45013619Y-42457714D02*
X44966000Y-42410095D01*
X44918380Y-42314857D01*
X44918380Y-42076761D01*
X44966000Y-41981523D01*
X45013619Y-41933904D01*
X45108857Y-41886285D01*
X45204095Y-41886285D01*
X45346952Y-41933904D01*
X45918380Y-42505333D01*
X45918380Y-41886285D01*
X39060380Y-42838666D02*
X38584190Y-43172000D01*
X39060380Y-43410095D02*
X38060380Y-43410095D01*
X38060380Y-43029142D01*
X38108000Y-42933904D01*
X38155619Y-42886285D01*
X38250857Y-42838666D01*
X38393714Y-42838666D01*
X38488952Y-42886285D01*
X38536571Y-42933904D01*
X38584190Y-43029142D01*
X38584190Y-43410095D01*
X39060380Y-41886285D02*
X39060380Y-42457714D01*
X39060380Y-42172000D02*
X38060380Y-42172000D01*
X38203238Y-42267238D01*
X38298476Y-42362476D01*
X38346095Y-42457714D01*
X59380380Y-40219238D02*
X58904190Y-40552571D01*
X59380380Y-40790666D02*
X58380380Y-40790666D01*
X58380380Y-40409714D01*
X58428000Y-40314476D01*
X58475619Y-40266857D01*
X58570857Y-40219238D01*
X58713714Y-40219238D01*
X58808952Y-40266857D01*
X58856571Y-40314476D01*
X58904190Y-40409714D01*
X58904190Y-40790666D01*
X58380380Y-39933523D02*
X59380380Y-39600190D01*
X58380380Y-39266857D01*
X58475619Y-38981142D02*
X58428000Y-38933523D01*
X58380380Y-38838285D01*
X58380380Y-38600190D01*
X58428000Y-38504952D01*
X58475619Y-38457333D01*
X58570857Y-38409714D01*
X58666095Y-38409714D01*
X58808952Y-38457333D01*
X59380380Y-39028761D01*
X59380380Y-38409714D01*
X58364380Y-37425238D02*
X57888190Y-37758571D01*
X58364380Y-37996666D02*
X57364380Y-37996666D01*
X57364380Y-37615714D01*
X57412000Y-37520476D01*
X57459619Y-37472857D01*
X57554857Y-37425238D01*
X57697714Y-37425238D01*
X57792952Y-37472857D01*
X57840571Y-37520476D01*
X57888190Y-37615714D01*
X57888190Y-37996666D01*
X57364380Y-37139523D02*
X58364380Y-36806190D01*
X57364380Y-36472857D01*
X58364380Y-35615714D02*
X58364380Y-36187142D01*
X58364380Y-35901428D02*
X57364380Y-35901428D01*
X57507238Y-35996666D01*
X57602476Y-36091904D01*
X57650095Y-36187142D01*
X71191380Y-24510904D02*
X70191380Y-24510904D01*
X70667571Y-24510904D02*
X70667571Y-23939476D01*
X71191380Y-23939476D02*
X70191380Y-23939476D01*
X70286619Y-23510904D02*
X70239000Y-23463285D01*
X70191380Y-23368047D01*
X70191380Y-23129952D01*
X70239000Y-23034714D01*
X70286619Y-22987095D01*
X70381857Y-22939476D01*
X70477095Y-22939476D01*
X70619952Y-22987095D01*
X71191380Y-23558523D01*
X71191380Y-22939476D01*
X33599380Y-24510904D02*
X32599380Y-24510904D01*
X33075571Y-24510904D02*
X33075571Y-23939476D01*
X33599380Y-23939476D02*
X32599380Y-23939476D01*
X33599380Y-22939476D02*
X33599380Y-23510904D01*
X33599380Y-23225190D02*
X32599380Y-23225190D01*
X32742238Y-23320428D01*
X32837476Y-23415666D01*
X32885095Y-23510904D01*
M02*
