M48
; DRILL file {KiCad (5.1.4)-1} date 12/12/2019 19:48:29
; FORMAT={-:-/ absolute / inch / decimal}
; #@! TF.CreationDate,2019-12-12T19:48:29+09:00
; #@! TF.GenerationSoftware,Kicad,Pcbnew,(5.1.4)-1
; #@! TF.FileFunction,Plated,1,2,PTH
FMAT,2
INCH
T1C0.0394
T2C0.0472
T3C0.0591
T4C0.0669
%
G90
G05
T1
X1.3445Y-1.2852
X1.75Y-1.2852
X1.525Y-2.4
X1.525Y-2.5
X1.625Y-2.4
X1.625Y-2.5
X1.725Y-2.4
X1.725Y-2.5
X1.825Y-2.4
X1.825Y-2.5
X1.925Y-2.4
X1.925Y-2.5
X2.025Y-2.4
X2.025Y-2.5
X2.125Y-2.4
X2.125Y-2.5
X2.225Y-2.4
X2.225Y-2.5
X2.325Y-2.4
X2.325Y-2.5
X2.425Y-2.4
X2.425Y-2.5
X2.525Y-2.4
X2.525Y-2.5
X2.625Y-2.4
X2.625Y-2.5
X2.725Y-2.4
X2.725Y-2.5
T2
X1.3445Y-1.175
X1.3445Y-1.4309
X1.75Y-1.175
X1.75Y-1.4309
X1.99Y-1.128
X1.99Y-2.25
X2.1278Y-2.25
X2.475Y-1.128
X2.475Y-2.25
X2.6128Y-2.25
T3
X1.76Y-2.18
X1.4Y-1.89
X1.76Y-1.89
X1.58Y-1.89
X1.4Y-2.18
T4
X1.8935Y-1.3386
X1.8935Y-2.0394
X2.2243Y-1.2913
X2.2243Y-2.0866
X2.3785Y-1.3386
X2.3785Y-2.0394
X2.7093Y-1.2913
X2.7093Y-2.0866
T0
M30
