M48
; DRILL file {KiCad (5.1.4)-1} date 12/12/2019 19:52:40
; FORMAT={-:-/ absolute / inch / decimal}
; #@! TF.CreationDate,2019-12-12T19:52:40+09:00
; #@! TF.GenerationSoftware,Kicad,Pcbnew,(5.1.4)-1
; #@! TF.FileFunction,Plated,1,2,PTH
FMAT,2
INCH
T1C0.0157
T2C0.0354
T3C0.0394
T4C0.0591
T5C0.0906
%
G90
G05
T1
X1.02Y-1.49
X1.32Y-1.89
X1.37Y-1.05
X1.42Y-1.22
X1.43Y-1.89
X1.48Y-1.05
X1.525Y-1.5
X1.59Y-1.89
X1.78Y-1.89
X1.86Y-1.51
X1.86Y-1.77
X1.99Y-1.89
X2.03Y-1.22
T2
X2.0Y-1.4213
X2.0Y-1.5
X2.0Y-1.5787
T3
X0.89Y-1.4
X0.89Y-1.5772
X1.1459Y-1.4
X1.1459Y-1.5772
X1.3281Y-0.96
X1.4266Y-0.96
X1.525Y-0.96
X0.825Y-1.965
X0.825Y-2.065
X0.925Y-1.965
X0.925Y-2.065
X1.025Y-1.965
X1.025Y-2.065
X1.125Y-1.965
X1.125Y-2.065
X1.225Y-1.965
X1.225Y-2.065
X1.325Y-1.965
X1.325Y-2.065
X1.425Y-1.965
X1.425Y-2.065
X1.525Y-1.965
X1.525Y-2.065
X1.625Y-1.965
X1.625Y-2.065
X1.725Y-1.965
X1.725Y-2.065
X1.825Y-1.965
X1.825Y-2.065
X1.925Y-1.965
X1.925Y-2.065
X2.025Y-1.965
X2.025Y-2.065
X1.325Y-1.4
X1.325Y-1.5
X1.325Y-1.6
X1.4207Y-1.3
X1.425Y-1.7
X1.625Y-1.3
X1.625Y-1.7
X1.725Y-1.4
X1.725Y-1.5
X1.725Y-1.6
T4
X2.0Y-1.3386
X2.0Y-1.6614
T5
X1.2297Y-1.0899
X1.6234Y-1.0899
T0
M30
