G04 #@! TF.GenerationSoftware,KiCad,Pcbnew,(5.1.9)-1*
G04 #@! TF.CreationDate,2021-02-23T10:55:24+09:00*
G04 #@! TF.ProjectId,screens,73637265-656e-4732-9e6b-696361645f70,rev?*
G04 #@! TF.SameCoordinates,Original*
G04 #@! TF.FileFunction,Copper,L2,Bot*
G04 #@! TF.FilePolarity,Positive*
%FSLAX46Y46*%
G04 Gerber Fmt 4.6, Leading zero omitted, Abs format (unit mm)*
G04 Created by KiCad (PCBNEW (5.1.9)-1) date 2021-02-23 10:55:24*
%MOMM*%
%LPD*%
G01*
G04 APERTURE LIST*
G04 #@! TA.AperFunction,NonConductor*
%ADD10C,0.300000*%
G04 #@! TD*
G04 #@! TA.AperFunction,ComponentPad*
%ADD11O,1.700000X1.700000*%
G04 #@! TD*
G04 #@! TA.AperFunction,ComponentPad*
%ADD12R,1.700000X1.700000*%
G04 #@! TD*
G04 #@! TA.AperFunction,ViaPad*
%ADD13C,0.800000*%
G04 #@! TD*
G04 #@! TA.AperFunction,Conductor*
%ADD14C,0.400000*%
G04 #@! TD*
G04 #@! TA.AperFunction,Conductor*
%ADD15C,0.254000*%
G04 #@! TD*
G04 #@! TA.AperFunction,Conductor*
%ADD16C,0.100000*%
G04 #@! TD*
G04 APERTURE END LIST*
D10*
X51351428Y-42842571D02*
X51851428Y-42128285D01*
X52208571Y-42842571D02*
X52208571Y-41342571D01*
X51637142Y-41342571D01*
X51494285Y-41414000D01*
X51422857Y-41485428D01*
X51351428Y-41628285D01*
X51351428Y-41842571D01*
X51422857Y-41985428D01*
X51494285Y-42056857D01*
X51637142Y-42128285D01*
X52208571Y-42128285D01*
X50780000Y-42414000D02*
X50065714Y-42414000D01*
X50922857Y-42842571D02*
X50422857Y-41342571D01*
X49922857Y-42842571D01*
X49422857Y-42842571D02*
X49422857Y-41342571D01*
X48922857Y-42414000D01*
X48422857Y-41342571D01*
X48422857Y-42842571D01*
X47708571Y-42842571D02*
X47708571Y-41342571D01*
X46851428Y-42842571D01*
X46851428Y-41342571D01*
D11*
X27686000Y-67818000D03*
X27686000Y-65278000D03*
X30226000Y-67818000D03*
X30226000Y-65278000D03*
X32766000Y-67818000D03*
X32766000Y-65278000D03*
X35306000Y-67818000D03*
X35306000Y-65278000D03*
X37846000Y-67818000D03*
X37846000Y-65278000D03*
X40386000Y-67818000D03*
X40386000Y-65278000D03*
X42926000Y-67818000D03*
X42926000Y-65278000D03*
X45466000Y-67818000D03*
X45466000Y-65278000D03*
X48006000Y-67818000D03*
X48006000Y-65278000D03*
X50546000Y-67818000D03*
X50546000Y-65278000D03*
X53086000Y-67818000D03*
X53086000Y-65278000D03*
X55626000Y-67818000D03*
X55626000Y-65278000D03*
X58166000Y-67818000D03*
D12*
X58166000Y-65278000D03*
X55753000Y-57658000D03*
D11*
X53213000Y-57658000D03*
X50673000Y-57658000D03*
X48133000Y-57658000D03*
X45593000Y-57658000D03*
X43053000Y-57658000D03*
X40513000Y-57658000D03*
X37973000Y-57658000D03*
X35433000Y-57658000D03*
X32893000Y-57658000D03*
X30353000Y-57658000D03*
D12*
X30353000Y-26924000D03*
D11*
X32893000Y-26924000D03*
X35433000Y-26924000D03*
X37973000Y-26924000D03*
X40513000Y-26924000D03*
X43053000Y-26924000D03*
X45593000Y-26924000D03*
X48133000Y-26924000D03*
X50673000Y-26924000D03*
X53213000Y-26924000D03*
X55753000Y-26924000D03*
D12*
X27813000Y-53721000D03*
D11*
X30353000Y-53721000D03*
X32893000Y-53721000D03*
X35433000Y-53721000D03*
X37973000Y-53721000D03*
X40513000Y-53721000D03*
X43053000Y-53721000D03*
X45593000Y-53721000D03*
X48133000Y-53721000D03*
X50673000Y-53721000D03*
X53213000Y-53721000D03*
X55753000Y-53721000D03*
X58293000Y-53721000D03*
D12*
X34163000Y-32893000D03*
D11*
X36703000Y-32893000D03*
X39243000Y-32893000D03*
X41783000Y-32893000D03*
X44323000Y-32893000D03*
X46863000Y-32893000D03*
X49403000Y-32893000D03*
X51943000Y-32893000D03*
D13*
X29718000Y-61468000D03*
X31496000Y-61468000D03*
X53340000Y-45974000D03*
X53340000Y-37846000D03*
X57404000Y-45974000D03*
X57404000Y-37846000D03*
X29972000Y-37846000D03*
X29972000Y-45974000D03*
X40386000Y-61468000D03*
X36703000Y-37846000D03*
X50800000Y-61468000D03*
X43434000Y-61468000D03*
X40513000Y-30226000D03*
X37846000Y-49276000D03*
X41910000Y-49276000D03*
D14*
X56315998Y-62738000D02*
X54375999Y-64677999D01*
X54375999Y-66567999D02*
X55626000Y-67818000D01*
X57404000Y-62738000D02*
X56315998Y-62738000D01*
X58258010Y-61883990D02*
X57404000Y-62738000D01*
X58258010Y-56139468D02*
X58258010Y-61883990D01*
X57023000Y-50546000D02*
X57023000Y-54904458D01*
X54375999Y-64677999D02*
X54375999Y-66567999D01*
X57023000Y-54904458D02*
X58258010Y-56139468D01*
X58420000Y-49149000D02*
X57023000Y-50546000D01*
X39497000Y-69342000D02*
X54102000Y-69342000D01*
X39116000Y-68961000D02*
X39497000Y-69342000D01*
X54102000Y-69342000D02*
X55626000Y-67818000D01*
X39116000Y-62992000D02*
X39116000Y-68961000D01*
X40640000Y-61468000D02*
X39116000Y-62992000D01*
X35433000Y-27305000D02*
X35433000Y-26924000D01*
X39243000Y-31115000D02*
X35433000Y-27305000D01*
X39243000Y-32893000D02*
X39243000Y-31115000D01*
X44196000Y-65858002D02*
X44196000Y-63500000D01*
X43526001Y-66528001D02*
X44196000Y-65858002D01*
X41675999Y-66528001D02*
X43526001Y-66528001D01*
X46228000Y-61468000D02*
X50800000Y-61468000D01*
X44196000Y-63500000D02*
X46228000Y-61468000D01*
X40386000Y-67818000D02*
X41675999Y-66528001D01*
X27813000Y-63119000D02*
X27813000Y-53721000D01*
X28956000Y-64262000D02*
X27813000Y-63119000D01*
X28956000Y-68834000D02*
X28956000Y-64262000D01*
X30200600Y-70078600D02*
X28956000Y-68834000D01*
X55905400Y-70078600D02*
X30200600Y-70078600D01*
X56915999Y-69068001D02*
X55905400Y-70078600D01*
X56915999Y-66528001D02*
X56915999Y-69068001D01*
X58166000Y-65278000D02*
X56915999Y-66528001D01*
X53467000Y-55372000D02*
X55753000Y-57658000D01*
X42164000Y-55372000D02*
X53467000Y-55372000D01*
X40513000Y-53721000D02*
X42164000Y-55372000D01*
X55880000Y-57785000D02*
X55880000Y-57658000D01*
X53213000Y-60452000D02*
X55880000Y-57785000D01*
X38163500Y-60452000D02*
X53213000Y-60452000D01*
X35306000Y-63309500D02*
X38163500Y-60452000D01*
X35306000Y-65278000D02*
X35306000Y-63309500D01*
X36347400Y-69316600D02*
X37846000Y-67818000D01*
X32414598Y-69316600D02*
X36347400Y-69316600D01*
X31496000Y-68398002D02*
X32414598Y-69316600D01*
X31496000Y-64008000D02*
X31496000Y-68398002D01*
X36322000Y-59182000D02*
X31496000Y-64008000D01*
X39116000Y-59182000D02*
X36322000Y-59182000D01*
X40640000Y-57658000D02*
X39116000Y-59182000D01*
X37973000Y-53213000D02*
X37973000Y-53721000D01*
X36576000Y-51816000D02*
X37973000Y-53213000D01*
X36576000Y-43434000D02*
X36576000Y-51816000D01*
X45593000Y-34417000D02*
X36576000Y-43434000D01*
X45593000Y-26924000D02*
X45593000Y-34417000D01*
X51562000Y-56007000D02*
X53213000Y-57658000D01*
X37655500Y-56007000D02*
X51562000Y-56007000D01*
X35433000Y-53784500D02*
X37655500Y-56007000D01*
X35433000Y-53721000D02*
X35433000Y-53784500D01*
X53340000Y-57658000D02*
X53340000Y-57277000D01*
X51181000Y-59817000D02*
X53340000Y-57658000D01*
X37274500Y-59817000D02*
X51181000Y-59817000D01*
X34705999Y-66528001D02*
X34036000Y-65858002D01*
X34036000Y-65858002D02*
X34036000Y-63055500D01*
X36595999Y-66528001D02*
X34705999Y-66528001D01*
X34036000Y-63055500D02*
X37274500Y-59817000D01*
X37846000Y-65278000D02*
X36595999Y-66528001D01*
X36703000Y-33147000D02*
X36703000Y-32893000D01*
X35433000Y-34417000D02*
X36703000Y-33147000D01*
X35433000Y-53721000D02*
X35433000Y-34417000D01*
X42926000Y-61976000D02*
X43434000Y-61468000D01*
X42926000Y-65278000D02*
X42926000Y-61976000D01*
X40513000Y-26924000D02*
X40513000Y-30226000D01*
X38608000Y-51562000D02*
X37846000Y-50800000D01*
X37846000Y-50800000D02*
X37846000Y-49276000D01*
X45974000Y-51562000D02*
X38608000Y-51562000D01*
X48133000Y-53721000D02*
X45974000Y-51562000D01*
X37973000Y-33909000D02*
X38862000Y-34798000D01*
X44323000Y-34353500D02*
X44323000Y-32893000D01*
X38862000Y-34798000D02*
X43878500Y-34798000D01*
X32893000Y-26924000D02*
X37973000Y-32004000D01*
X43878500Y-34798000D02*
X44323000Y-34353500D01*
X37973000Y-32004000D02*
X37973000Y-33909000D01*
X43180000Y-67818000D02*
X42926000Y-67818000D01*
X44430001Y-66567999D02*
X43180000Y-67818000D01*
X46026003Y-66567999D02*
X44430001Y-66567999D01*
X46736000Y-65858002D02*
X46026003Y-66567999D01*
X50673000Y-53721000D02*
X50673000Y-53467000D01*
X53213000Y-62738000D02*
X47752000Y-62738000D01*
X46736000Y-63754000D02*
X46736000Y-65858002D01*
X50673000Y-53467000D02*
X52197000Y-51943000D01*
X52197000Y-51943000D02*
X53975000Y-51943000D01*
X56896000Y-55880000D02*
X57404000Y-56388000D01*
X53975000Y-51943000D02*
X54483000Y-52451000D01*
X54483000Y-52451000D02*
X54483000Y-54737000D01*
X55626000Y-55880000D02*
X56896000Y-55880000D01*
X57404000Y-56388000D02*
X57404000Y-58547000D01*
X57404000Y-58547000D02*
X53213000Y-62738000D01*
X54483000Y-54737000D02*
X55626000Y-55880000D01*
X47752000Y-62738000D02*
X46736000Y-63754000D01*
X43180000Y-50546000D02*
X41910000Y-49276000D01*
X47498000Y-50546000D02*
X43180000Y-50546000D01*
X50673000Y-53721000D02*
X47498000Y-50546000D01*
D15*
X39232525Y-68764632D02*
X39439368Y-68971475D01*
X39682589Y-69133990D01*
X39947212Y-69243600D01*
X38284788Y-69243600D01*
X38549411Y-69133990D01*
X38792632Y-68971475D01*
X38999475Y-68764632D01*
X39116000Y-68590240D01*
X39232525Y-68764632D01*
G04 #@! TA.AperFunction,Conductor*
D16*
G36*
X39232525Y-68764632D02*
G01*
X39439368Y-68971475D01*
X39682589Y-69133990D01*
X39947212Y-69243600D01*
X38284788Y-69243600D01*
X38549411Y-69133990D01*
X38792632Y-68971475D01*
X38999475Y-68764632D01*
X39116000Y-68590240D01*
X39232525Y-68764632D01*
G37*
G04 #@! TD.AperFunction*
D15*
X55753000Y-67691000D02*
X55773000Y-67691000D01*
X55773000Y-67945000D01*
X55753000Y-67945000D01*
X55753000Y-67965000D01*
X55499000Y-67965000D01*
X55499000Y-67945000D01*
X55479000Y-67945000D01*
X55479000Y-67691000D01*
X55499000Y-67691000D01*
X55499000Y-67671000D01*
X55753000Y-67671000D01*
X55753000Y-67691000D01*
G04 #@! TA.AperFunction,Conductor*
D16*
G36*
X55753000Y-67691000D02*
G01*
X55773000Y-67691000D01*
X55773000Y-67945000D01*
X55753000Y-67945000D01*
X55753000Y-67965000D01*
X55499000Y-67965000D01*
X55499000Y-67945000D01*
X55479000Y-67945000D01*
X55479000Y-67691000D01*
X55499000Y-67691000D01*
X55499000Y-67671000D01*
X55753000Y-67671000D01*
X55753000Y-67691000D01*
G37*
G04 #@! TD.AperFunction*
D15*
X54472525Y-66224632D02*
X54679368Y-66431475D01*
X54855406Y-66549100D01*
X54625731Y-66720412D01*
X54430822Y-66936645D01*
X54361195Y-67053534D01*
X54239475Y-66871368D01*
X54032632Y-66664525D01*
X53858240Y-66548000D01*
X54032632Y-66431475D01*
X54239475Y-66224632D01*
X54356000Y-66050240D01*
X54472525Y-66224632D01*
G04 #@! TA.AperFunction,Conductor*
D16*
G36*
X54472525Y-66224632D02*
G01*
X54679368Y-66431475D01*
X54855406Y-66549100D01*
X54625731Y-66720412D01*
X54430822Y-66936645D01*
X54361195Y-67053534D01*
X54239475Y-66871368D01*
X54032632Y-66664525D01*
X53858240Y-66548000D01*
X54032632Y-66431475D01*
X54239475Y-66224632D01*
X54356000Y-66050240D01*
X54472525Y-66224632D01*
G37*
G04 #@! TD.AperFunction*
D15*
X57139525Y-54667632D02*
X57346368Y-54874475D01*
X57589589Y-55036990D01*
X57859842Y-55148932D01*
X58146740Y-55206000D01*
X58385001Y-55206000D01*
X58385001Y-63789928D01*
X57316000Y-63789928D01*
X57191518Y-63802188D01*
X57071820Y-63838498D01*
X56961506Y-63897463D01*
X56864815Y-63976815D01*
X56785463Y-64073506D01*
X56726498Y-64183820D01*
X56704487Y-64256380D01*
X56572632Y-64124525D01*
X56329411Y-63962010D01*
X56059158Y-63850068D01*
X55772260Y-63793000D01*
X55479740Y-63793000D01*
X55192842Y-63850068D01*
X54922589Y-63962010D01*
X54679368Y-64124525D01*
X54472525Y-64331368D01*
X54356000Y-64505760D01*
X54239475Y-64331368D01*
X54032632Y-64124525D01*
X53789411Y-63962010D01*
X53519158Y-63850068D01*
X53232260Y-63793000D01*
X52939740Y-63793000D01*
X52652842Y-63850068D01*
X52382589Y-63962010D01*
X52139368Y-64124525D01*
X51932525Y-64331368D01*
X51816000Y-64505760D01*
X51699475Y-64331368D01*
X51492632Y-64124525D01*
X51249411Y-63962010D01*
X50979158Y-63850068D01*
X50692260Y-63793000D01*
X50399740Y-63793000D01*
X50112842Y-63850068D01*
X49842589Y-63962010D01*
X49599368Y-64124525D01*
X49392525Y-64331368D01*
X49276000Y-64505760D01*
X49159475Y-64331368D01*
X48952632Y-64124525D01*
X48709411Y-63962010D01*
X48439158Y-63850068D01*
X48152260Y-63793000D01*
X47877868Y-63793000D01*
X48097868Y-63573000D01*
X53171982Y-63573000D01*
X53213000Y-63577040D01*
X53254018Y-63573000D01*
X53254019Y-63573000D01*
X53376689Y-63560918D01*
X53534087Y-63513172D01*
X53679146Y-63435636D01*
X53806291Y-63331291D01*
X53832446Y-63299421D01*
X57965427Y-59166441D01*
X57997291Y-59140291D01*
X58101636Y-59013146D01*
X58179172Y-58868087D01*
X58226918Y-58710689D01*
X58239000Y-58588019D01*
X58243040Y-58547001D01*
X58239000Y-58505982D01*
X58239000Y-56429007D01*
X58243039Y-56387999D01*
X58239000Y-56346991D01*
X58239000Y-56346981D01*
X58226918Y-56224311D01*
X58179172Y-56066913D01*
X58101636Y-55921854D01*
X57997291Y-55794709D01*
X57965422Y-55768555D01*
X57515446Y-55318579D01*
X57489291Y-55286709D01*
X57362146Y-55182364D01*
X57217087Y-55104828D01*
X57059689Y-55057082D01*
X56937019Y-55045000D01*
X56937018Y-55045000D01*
X56896000Y-55040960D01*
X56854982Y-55045000D01*
X56437073Y-55045000D01*
X56456411Y-55036990D01*
X56699632Y-54874475D01*
X56906475Y-54667632D01*
X57023000Y-54493240D01*
X57139525Y-54667632D01*
G04 #@! TA.AperFunction,Conductor*
D16*
G36*
X57139525Y-54667632D02*
G01*
X57346368Y-54874475D01*
X57589589Y-55036990D01*
X57859842Y-55148932D01*
X58146740Y-55206000D01*
X58385001Y-55206000D01*
X58385001Y-63789928D01*
X57316000Y-63789928D01*
X57191518Y-63802188D01*
X57071820Y-63838498D01*
X56961506Y-63897463D01*
X56864815Y-63976815D01*
X56785463Y-64073506D01*
X56726498Y-64183820D01*
X56704487Y-64256380D01*
X56572632Y-64124525D01*
X56329411Y-63962010D01*
X56059158Y-63850068D01*
X55772260Y-63793000D01*
X55479740Y-63793000D01*
X55192842Y-63850068D01*
X54922589Y-63962010D01*
X54679368Y-64124525D01*
X54472525Y-64331368D01*
X54356000Y-64505760D01*
X54239475Y-64331368D01*
X54032632Y-64124525D01*
X53789411Y-63962010D01*
X53519158Y-63850068D01*
X53232260Y-63793000D01*
X52939740Y-63793000D01*
X52652842Y-63850068D01*
X52382589Y-63962010D01*
X52139368Y-64124525D01*
X51932525Y-64331368D01*
X51816000Y-64505760D01*
X51699475Y-64331368D01*
X51492632Y-64124525D01*
X51249411Y-63962010D01*
X50979158Y-63850068D01*
X50692260Y-63793000D01*
X50399740Y-63793000D01*
X50112842Y-63850068D01*
X49842589Y-63962010D01*
X49599368Y-64124525D01*
X49392525Y-64331368D01*
X49276000Y-64505760D01*
X49159475Y-64331368D01*
X48952632Y-64124525D01*
X48709411Y-63962010D01*
X48439158Y-63850068D01*
X48152260Y-63793000D01*
X47877868Y-63793000D01*
X48097868Y-63573000D01*
X53171982Y-63573000D01*
X53213000Y-63577040D01*
X53254018Y-63573000D01*
X53254019Y-63573000D01*
X53376689Y-63560918D01*
X53534087Y-63513172D01*
X53679146Y-63435636D01*
X53806291Y-63331291D01*
X53832446Y-63299421D01*
X57965427Y-59166441D01*
X57997291Y-59140291D01*
X58101636Y-59013146D01*
X58179172Y-58868087D01*
X58226918Y-58710689D01*
X58239000Y-58588019D01*
X58243040Y-58547001D01*
X58239000Y-58505982D01*
X58239000Y-56429007D01*
X58243039Y-56387999D01*
X58239000Y-56346991D01*
X58239000Y-56346981D01*
X58226918Y-56224311D01*
X58179172Y-56066913D01*
X58101636Y-55921854D01*
X57997291Y-55794709D01*
X57965422Y-55768555D01*
X57515446Y-55318579D01*
X57489291Y-55286709D01*
X57362146Y-55182364D01*
X57217087Y-55104828D01*
X57059689Y-55057082D01*
X56937019Y-55045000D01*
X56937018Y-55045000D01*
X56896000Y-55040960D01*
X56854982Y-55045000D01*
X56437073Y-55045000D01*
X56456411Y-55036990D01*
X56699632Y-54874475D01*
X56906475Y-54667632D01*
X57023000Y-54493240D01*
X57139525Y-54667632D01*
G37*
G04 #@! TD.AperFunction*
D15*
X42409907Y-61311226D02*
X42364574Y-61356559D01*
X42332710Y-61382709D01*
X42306562Y-61414571D01*
X42228364Y-61509855D01*
X42150828Y-61654914D01*
X42103082Y-61812312D01*
X42086960Y-61976000D01*
X42091001Y-62017028D01*
X42091000Y-64049935D01*
X41979368Y-64124525D01*
X41772525Y-64331368D01*
X41656000Y-64505760D01*
X41539475Y-64331368D01*
X41332632Y-64124525D01*
X41089411Y-63962010D01*
X40819158Y-63850068D01*
X40532260Y-63793000D01*
X40239740Y-63793000D01*
X39952842Y-63850068D01*
X39682589Y-63962010D01*
X39439368Y-64124525D01*
X39232525Y-64331368D01*
X39116000Y-64505760D01*
X38999475Y-64331368D01*
X38792632Y-64124525D01*
X38549411Y-63962010D01*
X38279158Y-63850068D01*
X37992260Y-63793000D01*
X37699740Y-63793000D01*
X37412842Y-63850068D01*
X37142589Y-63962010D01*
X36899368Y-64124525D01*
X36692525Y-64331368D01*
X36576000Y-64505760D01*
X36459475Y-64331368D01*
X36252632Y-64124525D01*
X36141000Y-64049935D01*
X36141000Y-63655367D01*
X38509368Y-61287000D01*
X42414726Y-61287000D01*
X42409907Y-61311226D01*
G04 #@! TA.AperFunction,Conductor*
D16*
G36*
X42409907Y-61311226D02*
G01*
X42364574Y-61356559D01*
X42332710Y-61382709D01*
X42306562Y-61414571D01*
X42228364Y-61509855D01*
X42150828Y-61654914D01*
X42103082Y-61812312D01*
X42086960Y-61976000D01*
X42091001Y-62017028D01*
X42091000Y-64049935D01*
X41979368Y-64124525D01*
X41772525Y-64331368D01*
X41656000Y-64505760D01*
X41539475Y-64331368D01*
X41332632Y-64124525D01*
X41089411Y-63962010D01*
X40819158Y-63850068D01*
X40532260Y-63793000D01*
X40239740Y-63793000D01*
X39952842Y-63850068D01*
X39682589Y-63962010D01*
X39439368Y-64124525D01*
X39232525Y-64331368D01*
X39116000Y-64505760D01*
X38999475Y-64331368D01*
X38792632Y-64124525D01*
X38549411Y-63962010D01*
X38279158Y-63850068D01*
X37992260Y-63793000D01*
X37699740Y-63793000D01*
X37412842Y-63850068D01*
X37142589Y-63962010D01*
X36899368Y-64124525D01*
X36692525Y-64331368D01*
X36576000Y-64505760D01*
X36459475Y-64331368D01*
X36252632Y-64124525D01*
X36141000Y-64049935D01*
X36141000Y-63655367D01*
X38509368Y-61287000D01*
X42414726Y-61287000D01*
X42409907Y-61311226D01*
G37*
G04 #@! TD.AperFunction*
D15*
X28864928Y-27774000D02*
X28877188Y-27898482D01*
X28913498Y-28018180D01*
X28972463Y-28128494D01*
X29051815Y-28225185D01*
X29148506Y-28304537D01*
X29258820Y-28363502D01*
X29378518Y-28399812D01*
X29503000Y-28412072D01*
X31203000Y-28412072D01*
X31327482Y-28399812D01*
X31447180Y-28363502D01*
X31557494Y-28304537D01*
X31654185Y-28225185D01*
X31733537Y-28128494D01*
X31792502Y-28018180D01*
X31814513Y-27945620D01*
X31946368Y-28077475D01*
X32189589Y-28239990D01*
X32459842Y-28351932D01*
X32746740Y-28409000D01*
X33039260Y-28409000D01*
X33170940Y-28382807D01*
X36258074Y-31469942D01*
X35999589Y-31577010D01*
X35756368Y-31739525D01*
X35624513Y-31871380D01*
X35602502Y-31798820D01*
X35543537Y-31688506D01*
X35464185Y-31591815D01*
X35367494Y-31512463D01*
X35257180Y-31453498D01*
X35137482Y-31417188D01*
X35013000Y-31404928D01*
X33313000Y-31404928D01*
X33188518Y-31417188D01*
X33068820Y-31453498D01*
X32958506Y-31512463D01*
X32861815Y-31591815D01*
X32782463Y-31688506D01*
X32723498Y-31798820D01*
X32687188Y-31918518D01*
X32674928Y-32043000D01*
X32674928Y-33743000D01*
X32687188Y-33867482D01*
X32723498Y-33987180D01*
X32782463Y-34097494D01*
X32861815Y-34194185D01*
X32958506Y-34273537D01*
X33068820Y-34332502D01*
X33188518Y-34368812D01*
X33313000Y-34381072D01*
X34597499Y-34381072D01*
X34593960Y-34417000D01*
X34598001Y-34458029D01*
X34598000Y-52492935D01*
X34486368Y-52567525D01*
X34279525Y-52774368D01*
X34157805Y-52956534D01*
X34088178Y-52839645D01*
X33893269Y-52623412D01*
X33659920Y-52449359D01*
X33397099Y-52324175D01*
X33249890Y-52279524D01*
X33020000Y-52400845D01*
X33020000Y-53594000D01*
X33040000Y-53594000D01*
X33040000Y-53848000D01*
X33020000Y-53848000D01*
X33020000Y-55041155D01*
X33249890Y-55162476D01*
X33397099Y-55117825D01*
X33659920Y-54992641D01*
X33893269Y-54818588D01*
X34088178Y-54602355D01*
X34157805Y-54485466D01*
X34279525Y-54667632D01*
X34486368Y-54874475D01*
X34729589Y-55036990D01*
X34999842Y-55148932D01*
X35286740Y-55206000D01*
X35579260Y-55206000D01*
X35657975Y-55190343D01*
X36999262Y-56531631D01*
X36819525Y-56711368D01*
X36703000Y-56885760D01*
X36586475Y-56711368D01*
X36379632Y-56504525D01*
X36136411Y-56342010D01*
X35866158Y-56230068D01*
X35579260Y-56173000D01*
X35286740Y-56173000D01*
X34999842Y-56230068D01*
X34729589Y-56342010D01*
X34486368Y-56504525D01*
X34279525Y-56711368D01*
X34163000Y-56885760D01*
X34046475Y-56711368D01*
X33839632Y-56504525D01*
X33596411Y-56342010D01*
X33326158Y-56230068D01*
X33039260Y-56173000D01*
X32746740Y-56173000D01*
X32459842Y-56230068D01*
X32189589Y-56342010D01*
X31946368Y-56504525D01*
X31739525Y-56711368D01*
X31617805Y-56893534D01*
X31548178Y-56776645D01*
X31353269Y-56560412D01*
X31119920Y-56386359D01*
X30857099Y-56261175D01*
X30709890Y-56216524D01*
X30480000Y-56337845D01*
X30480000Y-57531000D01*
X30500000Y-57531000D01*
X30500000Y-57785000D01*
X30480000Y-57785000D01*
X30480000Y-58978155D01*
X30709890Y-59099476D01*
X30857099Y-59054825D01*
X31119920Y-58929641D01*
X31353269Y-58755588D01*
X31548178Y-58539355D01*
X31617805Y-58422466D01*
X31739525Y-58604632D01*
X31946368Y-58811475D01*
X32189589Y-58973990D01*
X32459842Y-59085932D01*
X32746740Y-59143000D01*
X33039260Y-59143000D01*
X33326158Y-59085932D01*
X33596411Y-58973990D01*
X33839632Y-58811475D01*
X34046475Y-58604632D01*
X34163000Y-58430240D01*
X34279525Y-58604632D01*
X34486368Y-58811475D01*
X34729589Y-58973990D01*
X34999842Y-59085932D01*
X35197819Y-59125312D01*
X30934579Y-63388554D01*
X30902709Y-63414709D01*
X30814950Y-63521645D01*
X30798364Y-63541855D01*
X30720828Y-63686914D01*
X30673082Y-63844312D01*
X30671992Y-63855384D01*
X30659158Y-63850068D01*
X30372260Y-63793000D01*
X30079740Y-63793000D01*
X29792842Y-63850068D01*
X29702595Y-63887449D01*
X29653636Y-63795854D01*
X29618578Y-63753136D01*
X29549291Y-63668709D01*
X29517426Y-63642558D01*
X28648000Y-62773133D01*
X28648000Y-58014891D01*
X28911519Y-58014891D01*
X29008843Y-58289252D01*
X29157822Y-58539355D01*
X29352731Y-58755588D01*
X29586080Y-58929641D01*
X29848901Y-59054825D01*
X29996110Y-59099476D01*
X30226000Y-58978155D01*
X30226000Y-57785000D01*
X29032186Y-57785000D01*
X28911519Y-58014891D01*
X28648000Y-58014891D01*
X28648000Y-57301109D01*
X28911519Y-57301109D01*
X29032186Y-57531000D01*
X30226000Y-57531000D01*
X30226000Y-56337845D01*
X29996110Y-56216524D01*
X29848901Y-56261175D01*
X29586080Y-56386359D01*
X29352731Y-56560412D01*
X29157822Y-56776645D01*
X29008843Y-57026748D01*
X28911519Y-57301109D01*
X28648000Y-57301109D01*
X28648000Y-55209072D01*
X28663000Y-55209072D01*
X28787482Y-55196812D01*
X28907180Y-55160502D01*
X29017494Y-55101537D01*
X29114185Y-55022185D01*
X29193537Y-54925494D01*
X29252502Y-54815180D01*
X29274513Y-54742620D01*
X29406368Y-54874475D01*
X29649589Y-55036990D01*
X29919842Y-55148932D01*
X30206740Y-55206000D01*
X30499260Y-55206000D01*
X30786158Y-55148932D01*
X31056411Y-55036990D01*
X31299632Y-54874475D01*
X31506475Y-54667632D01*
X31628195Y-54485466D01*
X31697822Y-54602355D01*
X31892731Y-54818588D01*
X32126080Y-54992641D01*
X32388901Y-55117825D01*
X32536110Y-55162476D01*
X32766000Y-55041155D01*
X32766000Y-53848000D01*
X32746000Y-53848000D01*
X32746000Y-53594000D01*
X32766000Y-53594000D01*
X32766000Y-52400845D01*
X32536110Y-52279524D01*
X32388901Y-52324175D01*
X32126080Y-52449359D01*
X31892731Y-52623412D01*
X31697822Y-52839645D01*
X31628195Y-52956534D01*
X31506475Y-52774368D01*
X31299632Y-52567525D01*
X31056411Y-52405010D01*
X30786158Y-52293068D01*
X30499260Y-52236000D01*
X30206740Y-52236000D01*
X29919842Y-52293068D01*
X29649589Y-52405010D01*
X29406368Y-52567525D01*
X29274513Y-52699380D01*
X29252502Y-52626820D01*
X29193537Y-52516506D01*
X29114185Y-52419815D01*
X29017494Y-52340463D01*
X28907180Y-52281498D01*
X28787482Y-52245188D01*
X28663000Y-52232928D01*
X27670000Y-52232928D01*
X27670000Y-27333965D01*
X27689118Y-27138985D01*
X27722523Y-27028344D01*
X27776778Y-26926303D01*
X27849821Y-26836744D01*
X27938866Y-26763079D01*
X28040531Y-26708110D01*
X28150931Y-26673935D01*
X28340596Y-26654000D01*
X28864928Y-26654000D01*
X28864928Y-27774000D01*
G04 #@! TA.AperFunction,Conductor*
D16*
G36*
X28864928Y-27774000D02*
G01*
X28877188Y-27898482D01*
X28913498Y-28018180D01*
X28972463Y-28128494D01*
X29051815Y-28225185D01*
X29148506Y-28304537D01*
X29258820Y-28363502D01*
X29378518Y-28399812D01*
X29503000Y-28412072D01*
X31203000Y-28412072D01*
X31327482Y-28399812D01*
X31447180Y-28363502D01*
X31557494Y-28304537D01*
X31654185Y-28225185D01*
X31733537Y-28128494D01*
X31792502Y-28018180D01*
X31814513Y-27945620D01*
X31946368Y-28077475D01*
X32189589Y-28239990D01*
X32459842Y-28351932D01*
X32746740Y-28409000D01*
X33039260Y-28409000D01*
X33170940Y-28382807D01*
X36258074Y-31469942D01*
X35999589Y-31577010D01*
X35756368Y-31739525D01*
X35624513Y-31871380D01*
X35602502Y-31798820D01*
X35543537Y-31688506D01*
X35464185Y-31591815D01*
X35367494Y-31512463D01*
X35257180Y-31453498D01*
X35137482Y-31417188D01*
X35013000Y-31404928D01*
X33313000Y-31404928D01*
X33188518Y-31417188D01*
X33068820Y-31453498D01*
X32958506Y-31512463D01*
X32861815Y-31591815D01*
X32782463Y-31688506D01*
X32723498Y-31798820D01*
X32687188Y-31918518D01*
X32674928Y-32043000D01*
X32674928Y-33743000D01*
X32687188Y-33867482D01*
X32723498Y-33987180D01*
X32782463Y-34097494D01*
X32861815Y-34194185D01*
X32958506Y-34273537D01*
X33068820Y-34332502D01*
X33188518Y-34368812D01*
X33313000Y-34381072D01*
X34597499Y-34381072D01*
X34593960Y-34417000D01*
X34598001Y-34458029D01*
X34598000Y-52492935D01*
X34486368Y-52567525D01*
X34279525Y-52774368D01*
X34157805Y-52956534D01*
X34088178Y-52839645D01*
X33893269Y-52623412D01*
X33659920Y-52449359D01*
X33397099Y-52324175D01*
X33249890Y-52279524D01*
X33020000Y-52400845D01*
X33020000Y-53594000D01*
X33040000Y-53594000D01*
X33040000Y-53848000D01*
X33020000Y-53848000D01*
X33020000Y-55041155D01*
X33249890Y-55162476D01*
X33397099Y-55117825D01*
X33659920Y-54992641D01*
X33893269Y-54818588D01*
X34088178Y-54602355D01*
X34157805Y-54485466D01*
X34279525Y-54667632D01*
X34486368Y-54874475D01*
X34729589Y-55036990D01*
X34999842Y-55148932D01*
X35286740Y-55206000D01*
X35579260Y-55206000D01*
X35657975Y-55190343D01*
X36999262Y-56531631D01*
X36819525Y-56711368D01*
X36703000Y-56885760D01*
X36586475Y-56711368D01*
X36379632Y-56504525D01*
X36136411Y-56342010D01*
X35866158Y-56230068D01*
X35579260Y-56173000D01*
X35286740Y-56173000D01*
X34999842Y-56230068D01*
X34729589Y-56342010D01*
X34486368Y-56504525D01*
X34279525Y-56711368D01*
X34163000Y-56885760D01*
X34046475Y-56711368D01*
X33839632Y-56504525D01*
X33596411Y-56342010D01*
X33326158Y-56230068D01*
X33039260Y-56173000D01*
X32746740Y-56173000D01*
X32459842Y-56230068D01*
X32189589Y-56342010D01*
X31946368Y-56504525D01*
X31739525Y-56711368D01*
X31617805Y-56893534D01*
X31548178Y-56776645D01*
X31353269Y-56560412D01*
X31119920Y-56386359D01*
X30857099Y-56261175D01*
X30709890Y-56216524D01*
X30480000Y-56337845D01*
X30480000Y-57531000D01*
X30500000Y-57531000D01*
X30500000Y-57785000D01*
X30480000Y-57785000D01*
X30480000Y-58978155D01*
X30709890Y-59099476D01*
X30857099Y-59054825D01*
X31119920Y-58929641D01*
X31353269Y-58755588D01*
X31548178Y-58539355D01*
X31617805Y-58422466D01*
X31739525Y-58604632D01*
X31946368Y-58811475D01*
X32189589Y-58973990D01*
X32459842Y-59085932D01*
X32746740Y-59143000D01*
X33039260Y-59143000D01*
X33326158Y-59085932D01*
X33596411Y-58973990D01*
X33839632Y-58811475D01*
X34046475Y-58604632D01*
X34163000Y-58430240D01*
X34279525Y-58604632D01*
X34486368Y-58811475D01*
X34729589Y-58973990D01*
X34999842Y-59085932D01*
X35197819Y-59125312D01*
X30934579Y-63388554D01*
X30902709Y-63414709D01*
X30814950Y-63521645D01*
X30798364Y-63541855D01*
X30720828Y-63686914D01*
X30673082Y-63844312D01*
X30671992Y-63855384D01*
X30659158Y-63850068D01*
X30372260Y-63793000D01*
X30079740Y-63793000D01*
X29792842Y-63850068D01*
X29702595Y-63887449D01*
X29653636Y-63795854D01*
X29618578Y-63753136D01*
X29549291Y-63668709D01*
X29517426Y-63642558D01*
X28648000Y-62773133D01*
X28648000Y-58014891D01*
X28911519Y-58014891D01*
X29008843Y-58289252D01*
X29157822Y-58539355D01*
X29352731Y-58755588D01*
X29586080Y-58929641D01*
X29848901Y-59054825D01*
X29996110Y-59099476D01*
X30226000Y-58978155D01*
X30226000Y-57785000D01*
X29032186Y-57785000D01*
X28911519Y-58014891D01*
X28648000Y-58014891D01*
X28648000Y-57301109D01*
X28911519Y-57301109D01*
X29032186Y-57531000D01*
X30226000Y-57531000D01*
X30226000Y-56337845D01*
X29996110Y-56216524D01*
X29848901Y-56261175D01*
X29586080Y-56386359D01*
X29352731Y-56560412D01*
X29157822Y-56776645D01*
X29008843Y-57026748D01*
X28911519Y-57301109D01*
X28648000Y-57301109D01*
X28648000Y-55209072D01*
X28663000Y-55209072D01*
X28787482Y-55196812D01*
X28907180Y-55160502D01*
X29017494Y-55101537D01*
X29114185Y-55022185D01*
X29193537Y-54925494D01*
X29252502Y-54815180D01*
X29274513Y-54742620D01*
X29406368Y-54874475D01*
X29649589Y-55036990D01*
X29919842Y-55148932D01*
X30206740Y-55206000D01*
X30499260Y-55206000D01*
X30786158Y-55148932D01*
X31056411Y-55036990D01*
X31299632Y-54874475D01*
X31506475Y-54667632D01*
X31628195Y-54485466D01*
X31697822Y-54602355D01*
X31892731Y-54818588D01*
X32126080Y-54992641D01*
X32388901Y-55117825D01*
X32536110Y-55162476D01*
X32766000Y-55041155D01*
X32766000Y-53848000D01*
X32746000Y-53848000D01*
X32746000Y-53594000D01*
X32766000Y-53594000D01*
X32766000Y-52400845D01*
X32536110Y-52279524D01*
X32388901Y-52324175D01*
X32126080Y-52449359D01*
X31892731Y-52623412D01*
X31697822Y-52839645D01*
X31628195Y-52956534D01*
X31506475Y-52774368D01*
X31299632Y-52567525D01*
X31056411Y-52405010D01*
X30786158Y-52293068D01*
X30499260Y-52236000D01*
X30206740Y-52236000D01*
X29919842Y-52293068D01*
X29649589Y-52405010D01*
X29406368Y-52567525D01*
X29274513Y-52699380D01*
X29252502Y-52626820D01*
X29193537Y-52516506D01*
X29114185Y-52419815D01*
X29017494Y-52340463D01*
X28907180Y-52281498D01*
X28787482Y-52245188D01*
X28663000Y-52232928D01*
X27670000Y-52232928D01*
X27670000Y-27333965D01*
X27689118Y-27138985D01*
X27722523Y-27028344D01*
X27776778Y-26926303D01*
X27849821Y-26836744D01*
X27938866Y-26763079D01*
X28040531Y-26708110D01*
X28150931Y-26673935D01*
X28340596Y-26654000D01*
X28864928Y-26654000D01*
X28864928Y-27774000D01*
G37*
G04 #@! TD.AperFunction*
D15*
X57900015Y-26673118D02*
X58010656Y-26706523D01*
X58112697Y-26760778D01*
X58202256Y-26833821D01*
X58275921Y-26922866D01*
X58330890Y-27024531D01*
X58365065Y-27134931D01*
X58385000Y-27324596D01*
X58385001Y-52236000D01*
X58146740Y-52236000D01*
X57859842Y-52293068D01*
X57589589Y-52405010D01*
X57346368Y-52567525D01*
X57139525Y-52774368D01*
X57023000Y-52948760D01*
X56906475Y-52774368D01*
X56699632Y-52567525D01*
X56456411Y-52405010D01*
X56186158Y-52293068D01*
X55899260Y-52236000D01*
X55606740Y-52236000D01*
X55319842Y-52293068D01*
X55307009Y-52298384D01*
X55305918Y-52287311D01*
X55258172Y-52129913D01*
X55180636Y-51984854D01*
X55076291Y-51857709D01*
X55044422Y-51831555D01*
X54594446Y-51381579D01*
X54568291Y-51349709D01*
X54441146Y-51245364D01*
X54296087Y-51167828D01*
X54138689Y-51120082D01*
X54016019Y-51108000D01*
X54016018Y-51108000D01*
X53975000Y-51103960D01*
X53933982Y-51108000D01*
X52238007Y-51108000D01*
X52196999Y-51103961D01*
X52155991Y-51108000D01*
X52155981Y-51108000D01*
X52033311Y-51120082D01*
X51875913Y-51167828D01*
X51730854Y-51245364D01*
X51603709Y-51349709D01*
X51577559Y-51381574D01*
X50723133Y-52236000D01*
X50526740Y-52236000D01*
X50395061Y-52262193D01*
X48117446Y-49984579D01*
X48091291Y-49952709D01*
X47964146Y-49848364D01*
X47819087Y-49770828D01*
X47661689Y-49723082D01*
X47539019Y-49711000D01*
X47539018Y-49711000D01*
X47498000Y-49706960D01*
X47456982Y-49711000D01*
X43525868Y-49711000D01*
X42934093Y-49119225D01*
X42905226Y-48974102D01*
X42827205Y-48785744D01*
X42713937Y-48616226D01*
X42569774Y-48472063D01*
X42400256Y-48358795D01*
X42211898Y-48280774D01*
X42011939Y-48241000D01*
X41808061Y-48241000D01*
X41608102Y-48280774D01*
X41419744Y-48358795D01*
X41250226Y-48472063D01*
X41106063Y-48616226D01*
X40992795Y-48785744D01*
X40914774Y-48974102D01*
X40875000Y-49174061D01*
X40875000Y-49377939D01*
X40914774Y-49577898D01*
X40992795Y-49766256D01*
X41106063Y-49935774D01*
X41250226Y-50079937D01*
X41419744Y-50193205D01*
X41608102Y-50271226D01*
X41753225Y-50300093D01*
X42180132Y-50727000D01*
X38953868Y-50727000D01*
X38681000Y-50454132D01*
X38681000Y-49889285D01*
X38763205Y-49766256D01*
X38841226Y-49577898D01*
X38881000Y-49377939D01*
X38881000Y-49174061D01*
X38841226Y-48974102D01*
X38763205Y-48785744D01*
X38649937Y-48616226D01*
X38505774Y-48472063D01*
X38336256Y-48358795D01*
X38147898Y-48280774D01*
X37947939Y-48241000D01*
X37744061Y-48241000D01*
X37544102Y-48280774D01*
X37411000Y-48335907D01*
X37411000Y-43779867D01*
X40816867Y-40374000D01*
X45709286Y-40374000D01*
X45709286Y-44194000D01*
X53350715Y-44194000D01*
X53350715Y-40374000D01*
X45709286Y-40374000D01*
X40816867Y-40374000D01*
X46154432Y-35036437D01*
X46186291Y-35010291D01*
X46226179Y-34961688D01*
X46290636Y-34883146D01*
X46368172Y-34738087D01*
X46387435Y-34674586D01*
X46415918Y-34580689D01*
X46428000Y-34458019D01*
X46428000Y-34458018D01*
X46432040Y-34417000D01*
X46428000Y-34375981D01*
X46428000Y-34320169D01*
X46429842Y-34320932D01*
X46716740Y-34378000D01*
X47009260Y-34378000D01*
X47296158Y-34320932D01*
X47566411Y-34208990D01*
X47809632Y-34046475D01*
X48016475Y-33839632D01*
X48133000Y-33665240D01*
X48249525Y-33839632D01*
X48456368Y-34046475D01*
X48699589Y-34208990D01*
X48969842Y-34320932D01*
X49256740Y-34378000D01*
X49549260Y-34378000D01*
X49836158Y-34320932D01*
X50106411Y-34208990D01*
X50349632Y-34046475D01*
X50556475Y-33839632D01*
X50678195Y-33657466D01*
X50747822Y-33774355D01*
X50942731Y-33990588D01*
X51176080Y-34164641D01*
X51438901Y-34289825D01*
X51586110Y-34334476D01*
X51816000Y-34213155D01*
X51816000Y-33020000D01*
X52070000Y-33020000D01*
X52070000Y-34213155D01*
X52299890Y-34334476D01*
X52447099Y-34289825D01*
X52709920Y-34164641D01*
X52943269Y-33990588D01*
X53138178Y-33774355D01*
X53287157Y-33524252D01*
X53384481Y-33249891D01*
X53263814Y-33020000D01*
X52070000Y-33020000D01*
X51816000Y-33020000D01*
X51796000Y-33020000D01*
X51796000Y-32766000D01*
X51816000Y-32766000D01*
X51816000Y-31572845D01*
X52070000Y-31572845D01*
X52070000Y-32766000D01*
X53263814Y-32766000D01*
X53384481Y-32536109D01*
X53287157Y-32261748D01*
X53138178Y-32011645D01*
X52943269Y-31795412D01*
X52709920Y-31621359D01*
X52447099Y-31496175D01*
X52299890Y-31451524D01*
X52070000Y-31572845D01*
X51816000Y-31572845D01*
X51586110Y-31451524D01*
X51438901Y-31496175D01*
X51176080Y-31621359D01*
X50942731Y-31795412D01*
X50747822Y-32011645D01*
X50678195Y-32128534D01*
X50556475Y-31946368D01*
X50349632Y-31739525D01*
X50106411Y-31577010D01*
X49836158Y-31465068D01*
X49549260Y-31408000D01*
X49256740Y-31408000D01*
X48969842Y-31465068D01*
X48699589Y-31577010D01*
X48456368Y-31739525D01*
X48249525Y-31946368D01*
X48133000Y-32120760D01*
X48016475Y-31946368D01*
X47809632Y-31739525D01*
X47566411Y-31577010D01*
X47296158Y-31465068D01*
X47009260Y-31408000D01*
X46716740Y-31408000D01*
X46429842Y-31465068D01*
X46428000Y-31465831D01*
X46428000Y-28152065D01*
X46539632Y-28077475D01*
X46746475Y-27870632D01*
X46863000Y-27696240D01*
X46979525Y-27870632D01*
X47186368Y-28077475D01*
X47429589Y-28239990D01*
X47699842Y-28351932D01*
X47986740Y-28409000D01*
X48279260Y-28409000D01*
X48566158Y-28351932D01*
X48836411Y-28239990D01*
X49079632Y-28077475D01*
X49286475Y-27870632D01*
X49408195Y-27688466D01*
X49477822Y-27805355D01*
X49672731Y-28021588D01*
X49906080Y-28195641D01*
X50168901Y-28320825D01*
X50316110Y-28365476D01*
X50546000Y-28244155D01*
X50546000Y-27051000D01*
X50526000Y-27051000D01*
X50526000Y-26797000D01*
X50546000Y-26797000D01*
X50546000Y-26777000D01*
X50800000Y-26777000D01*
X50800000Y-26797000D01*
X50820000Y-26797000D01*
X50820000Y-27051000D01*
X50800000Y-27051000D01*
X50800000Y-28244155D01*
X51029890Y-28365476D01*
X51177099Y-28320825D01*
X51439920Y-28195641D01*
X51673269Y-28021588D01*
X51868178Y-27805355D01*
X51937805Y-27688466D01*
X52059525Y-27870632D01*
X52266368Y-28077475D01*
X52509589Y-28239990D01*
X52779842Y-28351932D01*
X53066740Y-28409000D01*
X53359260Y-28409000D01*
X53646158Y-28351932D01*
X53916411Y-28239990D01*
X54159632Y-28077475D01*
X54366475Y-27870632D01*
X54483000Y-27696240D01*
X54599525Y-27870632D01*
X54806368Y-28077475D01*
X55049589Y-28239990D01*
X55319842Y-28351932D01*
X55606740Y-28409000D01*
X55899260Y-28409000D01*
X56186158Y-28351932D01*
X56456411Y-28239990D01*
X56699632Y-28077475D01*
X56906475Y-27870632D01*
X57068990Y-27627411D01*
X57180932Y-27357158D01*
X57238000Y-27070260D01*
X57238000Y-26777740D01*
X57213386Y-26654000D01*
X57705035Y-26654000D01*
X57900015Y-26673118D01*
G04 #@! TA.AperFunction,Conductor*
D16*
G36*
X57900015Y-26673118D02*
G01*
X58010656Y-26706523D01*
X58112697Y-26760778D01*
X58202256Y-26833821D01*
X58275921Y-26922866D01*
X58330890Y-27024531D01*
X58365065Y-27134931D01*
X58385000Y-27324596D01*
X58385001Y-52236000D01*
X58146740Y-52236000D01*
X57859842Y-52293068D01*
X57589589Y-52405010D01*
X57346368Y-52567525D01*
X57139525Y-52774368D01*
X57023000Y-52948760D01*
X56906475Y-52774368D01*
X56699632Y-52567525D01*
X56456411Y-52405010D01*
X56186158Y-52293068D01*
X55899260Y-52236000D01*
X55606740Y-52236000D01*
X55319842Y-52293068D01*
X55307009Y-52298384D01*
X55305918Y-52287311D01*
X55258172Y-52129913D01*
X55180636Y-51984854D01*
X55076291Y-51857709D01*
X55044422Y-51831555D01*
X54594446Y-51381579D01*
X54568291Y-51349709D01*
X54441146Y-51245364D01*
X54296087Y-51167828D01*
X54138689Y-51120082D01*
X54016019Y-51108000D01*
X54016018Y-51108000D01*
X53975000Y-51103960D01*
X53933982Y-51108000D01*
X52238007Y-51108000D01*
X52196999Y-51103961D01*
X52155991Y-51108000D01*
X52155981Y-51108000D01*
X52033311Y-51120082D01*
X51875913Y-51167828D01*
X51730854Y-51245364D01*
X51603709Y-51349709D01*
X51577559Y-51381574D01*
X50723133Y-52236000D01*
X50526740Y-52236000D01*
X50395061Y-52262193D01*
X48117446Y-49984579D01*
X48091291Y-49952709D01*
X47964146Y-49848364D01*
X47819087Y-49770828D01*
X47661689Y-49723082D01*
X47539019Y-49711000D01*
X47539018Y-49711000D01*
X47498000Y-49706960D01*
X47456982Y-49711000D01*
X43525868Y-49711000D01*
X42934093Y-49119225D01*
X42905226Y-48974102D01*
X42827205Y-48785744D01*
X42713937Y-48616226D01*
X42569774Y-48472063D01*
X42400256Y-48358795D01*
X42211898Y-48280774D01*
X42011939Y-48241000D01*
X41808061Y-48241000D01*
X41608102Y-48280774D01*
X41419744Y-48358795D01*
X41250226Y-48472063D01*
X41106063Y-48616226D01*
X40992795Y-48785744D01*
X40914774Y-48974102D01*
X40875000Y-49174061D01*
X40875000Y-49377939D01*
X40914774Y-49577898D01*
X40992795Y-49766256D01*
X41106063Y-49935774D01*
X41250226Y-50079937D01*
X41419744Y-50193205D01*
X41608102Y-50271226D01*
X41753225Y-50300093D01*
X42180132Y-50727000D01*
X38953868Y-50727000D01*
X38681000Y-50454132D01*
X38681000Y-49889285D01*
X38763205Y-49766256D01*
X38841226Y-49577898D01*
X38881000Y-49377939D01*
X38881000Y-49174061D01*
X38841226Y-48974102D01*
X38763205Y-48785744D01*
X38649937Y-48616226D01*
X38505774Y-48472063D01*
X38336256Y-48358795D01*
X38147898Y-48280774D01*
X37947939Y-48241000D01*
X37744061Y-48241000D01*
X37544102Y-48280774D01*
X37411000Y-48335907D01*
X37411000Y-43779867D01*
X40816867Y-40374000D01*
X45709286Y-40374000D01*
X45709286Y-44194000D01*
X53350715Y-44194000D01*
X53350715Y-40374000D01*
X45709286Y-40374000D01*
X40816867Y-40374000D01*
X46154432Y-35036437D01*
X46186291Y-35010291D01*
X46226179Y-34961688D01*
X46290636Y-34883146D01*
X46368172Y-34738087D01*
X46387435Y-34674586D01*
X46415918Y-34580689D01*
X46428000Y-34458019D01*
X46428000Y-34458018D01*
X46432040Y-34417000D01*
X46428000Y-34375981D01*
X46428000Y-34320169D01*
X46429842Y-34320932D01*
X46716740Y-34378000D01*
X47009260Y-34378000D01*
X47296158Y-34320932D01*
X47566411Y-34208990D01*
X47809632Y-34046475D01*
X48016475Y-33839632D01*
X48133000Y-33665240D01*
X48249525Y-33839632D01*
X48456368Y-34046475D01*
X48699589Y-34208990D01*
X48969842Y-34320932D01*
X49256740Y-34378000D01*
X49549260Y-34378000D01*
X49836158Y-34320932D01*
X50106411Y-34208990D01*
X50349632Y-34046475D01*
X50556475Y-33839632D01*
X50678195Y-33657466D01*
X50747822Y-33774355D01*
X50942731Y-33990588D01*
X51176080Y-34164641D01*
X51438901Y-34289825D01*
X51586110Y-34334476D01*
X51816000Y-34213155D01*
X51816000Y-33020000D01*
X52070000Y-33020000D01*
X52070000Y-34213155D01*
X52299890Y-34334476D01*
X52447099Y-34289825D01*
X52709920Y-34164641D01*
X52943269Y-33990588D01*
X53138178Y-33774355D01*
X53287157Y-33524252D01*
X53384481Y-33249891D01*
X53263814Y-33020000D01*
X52070000Y-33020000D01*
X51816000Y-33020000D01*
X51796000Y-33020000D01*
X51796000Y-32766000D01*
X51816000Y-32766000D01*
X51816000Y-31572845D01*
X52070000Y-31572845D01*
X52070000Y-32766000D01*
X53263814Y-32766000D01*
X53384481Y-32536109D01*
X53287157Y-32261748D01*
X53138178Y-32011645D01*
X52943269Y-31795412D01*
X52709920Y-31621359D01*
X52447099Y-31496175D01*
X52299890Y-31451524D01*
X52070000Y-31572845D01*
X51816000Y-31572845D01*
X51586110Y-31451524D01*
X51438901Y-31496175D01*
X51176080Y-31621359D01*
X50942731Y-31795412D01*
X50747822Y-32011645D01*
X50678195Y-32128534D01*
X50556475Y-31946368D01*
X50349632Y-31739525D01*
X50106411Y-31577010D01*
X49836158Y-31465068D01*
X49549260Y-31408000D01*
X49256740Y-31408000D01*
X48969842Y-31465068D01*
X48699589Y-31577010D01*
X48456368Y-31739525D01*
X48249525Y-31946368D01*
X48133000Y-32120760D01*
X48016475Y-31946368D01*
X47809632Y-31739525D01*
X47566411Y-31577010D01*
X47296158Y-31465068D01*
X47009260Y-31408000D01*
X46716740Y-31408000D01*
X46429842Y-31465068D01*
X46428000Y-31465831D01*
X46428000Y-28152065D01*
X46539632Y-28077475D01*
X46746475Y-27870632D01*
X46863000Y-27696240D01*
X46979525Y-27870632D01*
X47186368Y-28077475D01*
X47429589Y-28239990D01*
X47699842Y-28351932D01*
X47986740Y-28409000D01*
X48279260Y-28409000D01*
X48566158Y-28351932D01*
X48836411Y-28239990D01*
X49079632Y-28077475D01*
X49286475Y-27870632D01*
X49408195Y-27688466D01*
X49477822Y-27805355D01*
X49672731Y-28021588D01*
X49906080Y-28195641D01*
X50168901Y-28320825D01*
X50316110Y-28365476D01*
X50546000Y-28244155D01*
X50546000Y-27051000D01*
X50526000Y-27051000D01*
X50526000Y-26797000D01*
X50546000Y-26797000D01*
X50546000Y-26777000D01*
X50800000Y-26777000D01*
X50800000Y-26797000D01*
X50820000Y-26797000D01*
X50820000Y-27051000D01*
X50800000Y-27051000D01*
X50800000Y-28244155D01*
X51029890Y-28365476D01*
X51177099Y-28320825D01*
X51439920Y-28195641D01*
X51673269Y-28021588D01*
X51868178Y-27805355D01*
X51937805Y-27688466D01*
X52059525Y-27870632D01*
X52266368Y-28077475D01*
X52509589Y-28239990D01*
X52779842Y-28351932D01*
X53066740Y-28409000D01*
X53359260Y-28409000D01*
X53646158Y-28351932D01*
X53916411Y-28239990D01*
X54159632Y-28077475D01*
X54366475Y-27870632D01*
X54483000Y-27696240D01*
X54599525Y-27870632D01*
X54806368Y-28077475D01*
X55049589Y-28239990D01*
X55319842Y-28351932D01*
X55606740Y-28409000D01*
X55899260Y-28409000D01*
X56186158Y-28351932D01*
X56456411Y-28239990D01*
X56699632Y-28077475D01*
X56906475Y-27870632D01*
X57068990Y-27627411D01*
X57180932Y-27357158D01*
X57238000Y-27070260D01*
X57238000Y-26777740D01*
X57213386Y-26654000D01*
X57705035Y-26654000D01*
X57900015Y-26673118D01*
G37*
G04 #@! TD.AperFunction*
D15*
X37271979Y-34368812D02*
X37275365Y-34375146D01*
X37379710Y-34502291D01*
X37411574Y-34528441D01*
X38242563Y-35359432D01*
X38268709Y-35391291D01*
X38300568Y-35417437D01*
X38300570Y-35417439D01*
X38395854Y-35495636D01*
X38540913Y-35573172D01*
X38698311Y-35620918D01*
X38862000Y-35637040D01*
X38903018Y-35633000D01*
X43196131Y-35633000D01*
X36268000Y-42561133D01*
X36268000Y-34762867D01*
X36652867Y-34378000D01*
X36849260Y-34378000D01*
X37136158Y-34320932D01*
X37226405Y-34283550D01*
X37271979Y-34368812D01*
G04 #@! TA.AperFunction,Conductor*
D16*
G36*
X37271979Y-34368812D02*
G01*
X37275365Y-34375146D01*
X37379710Y-34502291D01*
X37411574Y-34528441D01*
X38242563Y-35359432D01*
X38268709Y-35391291D01*
X38300568Y-35417437D01*
X38300570Y-35417439D01*
X38395854Y-35495636D01*
X38540913Y-35573172D01*
X38698311Y-35620918D01*
X38862000Y-35637040D01*
X38903018Y-35633000D01*
X43196131Y-35633000D01*
X36268000Y-42561133D01*
X36268000Y-34762867D01*
X36652867Y-34378000D01*
X36849260Y-34378000D01*
X37136158Y-34320932D01*
X37226405Y-34283550D01*
X37271979Y-34368812D01*
G37*
G04 #@! TD.AperFunction*
M02*
