G04 #@! TF.GenerationSoftware,KiCad,Pcbnew,(5.1.4)-1*
G04 #@! TF.CreationDate,2019-12-12T19:48:24+09:00*
G04 #@! TF.ProjectId,microcar_head,6d696372-6f63-4617-925f-686561642e6b,rev?*
G04 #@! TF.SameCoordinates,Original*
G04 #@! TF.FileFunction,Copper,L1,Top*
G04 #@! TF.FilePolarity,Positive*
%FSLAX46Y46*%
G04 Gerber Fmt 4.6, Leading zero omitted, Abs format (unit mm)*
G04 Created by KiCad (PCBNEW (5.1.4)-1) date 2019-12-12 19:48:24*
%MOMM*%
%LPD*%
G04 APERTURE LIST*
%ADD10O,1.700000X1.700000*%
%ADD11R,1.700000X1.700000*%
%ADD12C,1.508000*%
%ADD13C,1.800000*%
%ADD14R,1.800000X1.800000*%
%ADD15C,3.000000*%
%ADD16C,0.100000*%
%ADD17C,0.875000*%
%ADD18C,2.700000*%
%ADD19C,1.750000*%
%ADD20R,1.750000X1.750000*%
%ADD21C,0.400000*%
%ADD22C,0.254000*%
G04 APERTURE END LIST*
D10*
X38735000Y-60960000D03*
X38735000Y-63500000D03*
X41275000Y-60960000D03*
X41275000Y-63500000D03*
X43815000Y-60960000D03*
X43815000Y-63500000D03*
X46355000Y-60960000D03*
X46355000Y-63500000D03*
X48895000Y-60960000D03*
X48895000Y-63500000D03*
X51435000Y-60960000D03*
X51435000Y-63500000D03*
X53975000Y-60960000D03*
X53975000Y-63500000D03*
X56515000Y-60960000D03*
X56515000Y-63500000D03*
X59055000Y-60960000D03*
X59055000Y-63500000D03*
X61595000Y-60960000D03*
X61595000Y-63500000D03*
X64135000Y-60960000D03*
X64135000Y-63500000D03*
X66675000Y-60960000D03*
X66675000Y-63500000D03*
X69215000Y-60960000D03*
D11*
X69215000Y-63500000D03*
D12*
X34150000Y-32645000D03*
X44450000Y-32645000D03*
D13*
X34150000Y-36345000D03*
D14*
X44450000Y-36345000D03*
D13*
X34150000Y-29845000D03*
X44450000Y-29845000D03*
D15*
X44704000Y-48006000D03*
X35560000Y-48006000D03*
X40132000Y-48006000D03*
X35560000Y-55372000D03*
X44704000Y-55372000D03*
D16*
G36*
X34313691Y-38908053D02*
G01*
X34334926Y-38911203D01*
X34355750Y-38916419D01*
X34375962Y-38923651D01*
X34395368Y-38932830D01*
X34413781Y-38943866D01*
X34431024Y-38956654D01*
X34446930Y-38971070D01*
X34461346Y-38986976D01*
X34474134Y-39004219D01*
X34485170Y-39022632D01*
X34494349Y-39042038D01*
X34501581Y-39062250D01*
X34506797Y-39083074D01*
X34509947Y-39104309D01*
X34511000Y-39125750D01*
X34511000Y-39563250D01*
X34509947Y-39584691D01*
X34506797Y-39605926D01*
X34501581Y-39626750D01*
X34494349Y-39646962D01*
X34485170Y-39666368D01*
X34474134Y-39684781D01*
X34461346Y-39702024D01*
X34446930Y-39717930D01*
X34431024Y-39732346D01*
X34413781Y-39745134D01*
X34395368Y-39756170D01*
X34375962Y-39765349D01*
X34355750Y-39772581D01*
X34334926Y-39777797D01*
X34313691Y-39780947D01*
X34292250Y-39782000D01*
X33779750Y-39782000D01*
X33758309Y-39780947D01*
X33737074Y-39777797D01*
X33716250Y-39772581D01*
X33696038Y-39765349D01*
X33676632Y-39756170D01*
X33658219Y-39745134D01*
X33640976Y-39732346D01*
X33625070Y-39717930D01*
X33610654Y-39702024D01*
X33597866Y-39684781D01*
X33586830Y-39666368D01*
X33577651Y-39646962D01*
X33570419Y-39626750D01*
X33565203Y-39605926D01*
X33562053Y-39584691D01*
X33561000Y-39563250D01*
X33561000Y-39125750D01*
X33562053Y-39104309D01*
X33565203Y-39083074D01*
X33570419Y-39062250D01*
X33577651Y-39042038D01*
X33586830Y-39022632D01*
X33597866Y-39004219D01*
X33610654Y-38986976D01*
X33625070Y-38971070D01*
X33640976Y-38956654D01*
X33658219Y-38943866D01*
X33676632Y-38932830D01*
X33696038Y-38923651D01*
X33716250Y-38916419D01*
X33737074Y-38911203D01*
X33758309Y-38908053D01*
X33779750Y-38907000D01*
X34292250Y-38907000D01*
X34313691Y-38908053D01*
X34313691Y-38908053D01*
G37*
D17*
X34036000Y-39344500D03*
D16*
G36*
X34313691Y-40483053D02*
G01*
X34334926Y-40486203D01*
X34355750Y-40491419D01*
X34375962Y-40498651D01*
X34395368Y-40507830D01*
X34413781Y-40518866D01*
X34431024Y-40531654D01*
X34446930Y-40546070D01*
X34461346Y-40561976D01*
X34474134Y-40579219D01*
X34485170Y-40597632D01*
X34494349Y-40617038D01*
X34501581Y-40637250D01*
X34506797Y-40658074D01*
X34509947Y-40679309D01*
X34511000Y-40700750D01*
X34511000Y-41138250D01*
X34509947Y-41159691D01*
X34506797Y-41180926D01*
X34501581Y-41201750D01*
X34494349Y-41221962D01*
X34485170Y-41241368D01*
X34474134Y-41259781D01*
X34461346Y-41277024D01*
X34446930Y-41292930D01*
X34431024Y-41307346D01*
X34413781Y-41320134D01*
X34395368Y-41331170D01*
X34375962Y-41340349D01*
X34355750Y-41347581D01*
X34334926Y-41352797D01*
X34313691Y-41355947D01*
X34292250Y-41357000D01*
X33779750Y-41357000D01*
X33758309Y-41355947D01*
X33737074Y-41352797D01*
X33716250Y-41347581D01*
X33696038Y-41340349D01*
X33676632Y-41331170D01*
X33658219Y-41320134D01*
X33640976Y-41307346D01*
X33625070Y-41292930D01*
X33610654Y-41277024D01*
X33597866Y-41259781D01*
X33586830Y-41241368D01*
X33577651Y-41221962D01*
X33570419Y-41201750D01*
X33565203Y-41180926D01*
X33562053Y-41159691D01*
X33561000Y-41138250D01*
X33561000Y-40700750D01*
X33562053Y-40679309D01*
X33565203Y-40658074D01*
X33570419Y-40637250D01*
X33577651Y-40617038D01*
X33586830Y-40597632D01*
X33597866Y-40579219D01*
X33610654Y-40561976D01*
X33625070Y-40546070D01*
X33640976Y-40531654D01*
X33658219Y-40518866D01*
X33676632Y-40507830D01*
X33696038Y-40498651D01*
X33716250Y-40491419D01*
X33737074Y-40486203D01*
X33758309Y-40483053D01*
X33779750Y-40482000D01*
X34292250Y-40482000D01*
X34313691Y-40483053D01*
X34313691Y-40483053D01*
G37*
D17*
X34036000Y-40919500D03*
D16*
G36*
X36599691Y-38908053D02*
G01*
X36620926Y-38911203D01*
X36641750Y-38916419D01*
X36661962Y-38923651D01*
X36681368Y-38932830D01*
X36699781Y-38943866D01*
X36717024Y-38956654D01*
X36732930Y-38971070D01*
X36747346Y-38986976D01*
X36760134Y-39004219D01*
X36771170Y-39022632D01*
X36780349Y-39042038D01*
X36787581Y-39062250D01*
X36792797Y-39083074D01*
X36795947Y-39104309D01*
X36797000Y-39125750D01*
X36797000Y-39563250D01*
X36795947Y-39584691D01*
X36792797Y-39605926D01*
X36787581Y-39626750D01*
X36780349Y-39646962D01*
X36771170Y-39666368D01*
X36760134Y-39684781D01*
X36747346Y-39702024D01*
X36732930Y-39717930D01*
X36717024Y-39732346D01*
X36699781Y-39745134D01*
X36681368Y-39756170D01*
X36661962Y-39765349D01*
X36641750Y-39772581D01*
X36620926Y-39777797D01*
X36599691Y-39780947D01*
X36578250Y-39782000D01*
X36065750Y-39782000D01*
X36044309Y-39780947D01*
X36023074Y-39777797D01*
X36002250Y-39772581D01*
X35982038Y-39765349D01*
X35962632Y-39756170D01*
X35944219Y-39745134D01*
X35926976Y-39732346D01*
X35911070Y-39717930D01*
X35896654Y-39702024D01*
X35883866Y-39684781D01*
X35872830Y-39666368D01*
X35863651Y-39646962D01*
X35856419Y-39626750D01*
X35851203Y-39605926D01*
X35848053Y-39584691D01*
X35847000Y-39563250D01*
X35847000Y-39125750D01*
X35848053Y-39104309D01*
X35851203Y-39083074D01*
X35856419Y-39062250D01*
X35863651Y-39042038D01*
X35872830Y-39022632D01*
X35883866Y-39004219D01*
X35896654Y-38986976D01*
X35911070Y-38971070D01*
X35926976Y-38956654D01*
X35944219Y-38943866D01*
X35962632Y-38932830D01*
X35982038Y-38923651D01*
X36002250Y-38916419D01*
X36023074Y-38911203D01*
X36044309Y-38908053D01*
X36065750Y-38907000D01*
X36578250Y-38907000D01*
X36599691Y-38908053D01*
X36599691Y-38908053D01*
G37*
D17*
X36322000Y-39344500D03*
D16*
G36*
X36599691Y-40483053D02*
G01*
X36620926Y-40486203D01*
X36641750Y-40491419D01*
X36661962Y-40498651D01*
X36681368Y-40507830D01*
X36699781Y-40518866D01*
X36717024Y-40531654D01*
X36732930Y-40546070D01*
X36747346Y-40561976D01*
X36760134Y-40579219D01*
X36771170Y-40597632D01*
X36780349Y-40617038D01*
X36787581Y-40637250D01*
X36792797Y-40658074D01*
X36795947Y-40679309D01*
X36797000Y-40700750D01*
X36797000Y-41138250D01*
X36795947Y-41159691D01*
X36792797Y-41180926D01*
X36787581Y-41201750D01*
X36780349Y-41221962D01*
X36771170Y-41241368D01*
X36760134Y-41259781D01*
X36747346Y-41277024D01*
X36732930Y-41292930D01*
X36717024Y-41307346D01*
X36699781Y-41320134D01*
X36681368Y-41331170D01*
X36661962Y-41340349D01*
X36641750Y-41347581D01*
X36620926Y-41352797D01*
X36599691Y-41355947D01*
X36578250Y-41357000D01*
X36065750Y-41357000D01*
X36044309Y-41355947D01*
X36023074Y-41352797D01*
X36002250Y-41347581D01*
X35982038Y-41340349D01*
X35962632Y-41331170D01*
X35944219Y-41320134D01*
X35926976Y-41307346D01*
X35911070Y-41292930D01*
X35896654Y-41277024D01*
X35883866Y-41259781D01*
X35872830Y-41241368D01*
X35863651Y-41221962D01*
X35856419Y-41201750D01*
X35851203Y-41180926D01*
X35848053Y-41159691D01*
X35847000Y-41138250D01*
X35847000Y-40700750D01*
X35848053Y-40679309D01*
X35851203Y-40658074D01*
X35856419Y-40637250D01*
X35863651Y-40617038D01*
X35872830Y-40597632D01*
X35883866Y-40579219D01*
X35896654Y-40561976D01*
X35911070Y-40546070D01*
X35926976Y-40531654D01*
X35944219Y-40518866D01*
X35962632Y-40507830D01*
X35982038Y-40498651D01*
X36002250Y-40491419D01*
X36023074Y-40486203D01*
X36044309Y-40483053D01*
X36065750Y-40482000D01*
X36578250Y-40482000D01*
X36599691Y-40483053D01*
X36599691Y-40483053D01*
G37*
D17*
X36322000Y-40919500D03*
D16*
G36*
X41171691Y-38908053D02*
G01*
X41192926Y-38911203D01*
X41213750Y-38916419D01*
X41233962Y-38923651D01*
X41253368Y-38932830D01*
X41271781Y-38943866D01*
X41289024Y-38956654D01*
X41304930Y-38971070D01*
X41319346Y-38986976D01*
X41332134Y-39004219D01*
X41343170Y-39022632D01*
X41352349Y-39042038D01*
X41359581Y-39062250D01*
X41364797Y-39083074D01*
X41367947Y-39104309D01*
X41369000Y-39125750D01*
X41369000Y-39563250D01*
X41367947Y-39584691D01*
X41364797Y-39605926D01*
X41359581Y-39626750D01*
X41352349Y-39646962D01*
X41343170Y-39666368D01*
X41332134Y-39684781D01*
X41319346Y-39702024D01*
X41304930Y-39717930D01*
X41289024Y-39732346D01*
X41271781Y-39745134D01*
X41253368Y-39756170D01*
X41233962Y-39765349D01*
X41213750Y-39772581D01*
X41192926Y-39777797D01*
X41171691Y-39780947D01*
X41150250Y-39782000D01*
X40637750Y-39782000D01*
X40616309Y-39780947D01*
X40595074Y-39777797D01*
X40574250Y-39772581D01*
X40554038Y-39765349D01*
X40534632Y-39756170D01*
X40516219Y-39745134D01*
X40498976Y-39732346D01*
X40483070Y-39717930D01*
X40468654Y-39702024D01*
X40455866Y-39684781D01*
X40444830Y-39666368D01*
X40435651Y-39646962D01*
X40428419Y-39626750D01*
X40423203Y-39605926D01*
X40420053Y-39584691D01*
X40419000Y-39563250D01*
X40419000Y-39125750D01*
X40420053Y-39104309D01*
X40423203Y-39083074D01*
X40428419Y-39062250D01*
X40435651Y-39042038D01*
X40444830Y-39022632D01*
X40455866Y-39004219D01*
X40468654Y-38986976D01*
X40483070Y-38971070D01*
X40498976Y-38956654D01*
X40516219Y-38943866D01*
X40534632Y-38932830D01*
X40554038Y-38923651D01*
X40574250Y-38916419D01*
X40595074Y-38911203D01*
X40616309Y-38908053D01*
X40637750Y-38907000D01*
X41150250Y-38907000D01*
X41171691Y-38908053D01*
X41171691Y-38908053D01*
G37*
D17*
X40894000Y-39344500D03*
D16*
G36*
X41171691Y-40483053D02*
G01*
X41192926Y-40486203D01*
X41213750Y-40491419D01*
X41233962Y-40498651D01*
X41253368Y-40507830D01*
X41271781Y-40518866D01*
X41289024Y-40531654D01*
X41304930Y-40546070D01*
X41319346Y-40561976D01*
X41332134Y-40579219D01*
X41343170Y-40597632D01*
X41352349Y-40617038D01*
X41359581Y-40637250D01*
X41364797Y-40658074D01*
X41367947Y-40679309D01*
X41369000Y-40700750D01*
X41369000Y-41138250D01*
X41367947Y-41159691D01*
X41364797Y-41180926D01*
X41359581Y-41201750D01*
X41352349Y-41221962D01*
X41343170Y-41241368D01*
X41332134Y-41259781D01*
X41319346Y-41277024D01*
X41304930Y-41292930D01*
X41289024Y-41307346D01*
X41271781Y-41320134D01*
X41253368Y-41331170D01*
X41233962Y-41340349D01*
X41213750Y-41347581D01*
X41192926Y-41352797D01*
X41171691Y-41355947D01*
X41150250Y-41357000D01*
X40637750Y-41357000D01*
X40616309Y-41355947D01*
X40595074Y-41352797D01*
X40574250Y-41347581D01*
X40554038Y-41340349D01*
X40534632Y-41331170D01*
X40516219Y-41320134D01*
X40498976Y-41307346D01*
X40483070Y-41292930D01*
X40468654Y-41277024D01*
X40455866Y-41259781D01*
X40444830Y-41241368D01*
X40435651Y-41221962D01*
X40428419Y-41201750D01*
X40423203Y-41180926D01*
X40420053Y-41159691D01*
X40419000Y-41138250D01*
X40419000Y-40700750D01*
X40420053Y-40679309D01*
X40423203Y-40658074D01*
X40428419Y-40637250D01*
X40435651Y-40617038D01*
X40444830Y-40597632D01*
X40455866Y-40579219D01*
X40468654Y-40561976D01*
X40483070Y-40546070D01*
X40498976Y-40531654D01*
X40516219Y-40518866D01*
X40534632Y-40507830D01*
X40554038Y-40498651D01*
X40574250Y-40491419D01*
X40595074Y-40486203D01*
X40616309Y-40483053D01*
X40637750Y-40482000D01*
X41150250Y-40482000D01*
X41171691Y-40483053D01*
X41171691Y-40483053D01*
G37*
D17*
X40894000Y-40919500D03*
D16*
G36*
X43457691Y-38908053D02*
G01*
X43478926Y-38911203D01*
X43499750Y-38916419D01*
X43519962Y-38923651D01*
X43539368Y-38932830D01*
X43557781Y-38943866D01*
X43575024Y-38956654D01*
X43590930Y-38971070D01*
X43605346Y-38986976D01*
X43618134Y-39004219D01*
X43629170Y-39022632D01*
X43638349Y-39042038D01*
X43645581Y-39062250D01*
X43650797Y-39083074D01*
X43653947Y-39104309D01*
X43655000Y-39125750D01*
X43655000Y-39563250D01*
X43653947Y-39584691D01*
X43650797Y-39605926D01*
X43645581Y-39626750D01*
X43638349Y-39646962D01*
X43629170Y-39666368D01*
X43618134Y-39684781D01*
X43605346Y-39702024D01*
X43590930Y-39717930D01*
X43575024Y-39732346D01*
X43557781Y-39745134D01*
X43539368Y-39756170D01*
X43519962Y-39765349D01*
X43499750Y-39772581D01*
X43478926Y-39777797D01*
X43457691Y-39780947D01*
X43436250Y-39782000D01*
X42923750Y-39782000D01*
X42902309Y-39780947D01*
X42881074Y-39777797D01*
X42860250Y-39772581D01*
X42840038Y-39765349D01*
X42820632Y-39756170D01*
X42802219Y-39745134D01*
X42784976Y-39732346D01*
X42769070Y-39717930D01*
X42754654Y-39702024D01*
X42741866Y-39684781D01*
X42730830Y-39666368D01*
X42721651Y-39646962D01*
X42714419Y-39626750D01*
X42709203Y-39605926D01*
X42706053Y-39584691D01*
X42705000Y-39563250D01*
X42705000Y-39125750D01*
X42706053Y-39104309D01*
X42709203Y-39083074D01*
X42714419Y-39062250D01*
X42721651Y-39042038D01*
X42730830Y-39022632D01*
X42741866Y-39004219D01*
X42754654Y-38986976D01*
X42769070Y-38971070D01*
X42784976Y-38956654D01*
X42802219Y-38943866D01*
X42820632Y-38932830D01*
X42840038Y-38923651D01*
X42860250Y-38916419D01*
X42881074Y-38911203D01*
X42902309Y-38908053D01*
X42923750Y-38907000D01*
X43436250Y-38907000D01*
X43457691Y-38908053D01*
X43457691Y-38908053D01*
G37*
D17*
X43180000Y-39344500D03*
D16*
G36*
X43457691Y-40483053D02*
G01*
X43478926Y-40486203D01*
X43499750Y-40491419D01*
X43519962Y-40498651D01*
X43539368Y-40507830D01*
X43557781Y-40518866D01*
X43575024Y-40531654D01*
X43590930Y-40546070D01*
X43605346Y-40561976D01*
X43618134Y-40579219D01*
X43629170Y-40597632D01*
X43638349Y-40617038D01*
X43645581Y-40637250D01*
X43650797Y-40658074D01*
X43653947Y-40679309D01*
X43655000Y-40700750D01*
X43655000Y-41138250D01*
X43653947Y-41159691D01*
X43650797Y-41180926D01*
X43645581Y-41201750D01*
X43638349Y-41221962D01*
X43629170Y-41241368D01*
X43618134Y-41259781D01*
X43605346Y-41277024D01*
X43590930Y-41292930D01*
X43575024Y-41307346D01*
X43557781Y-41320134D01*
X43539368Y-41331170D01*
X43519962Y-41340349D01*
X43499750Y-41347581D01*
X43478926Y-41352797D01*
X43457691Y-41355947D01*
X43436250Y-41357000D01*
X42923750Y-41357000D01*
X42902309Y-41355947D01*
X42881074Y-41352797D01*
X42860250Y-41347581D01*
X42840038Y-41340349D01*
X42820632Y-41331170D01*
X42802219Y-41320134D01*
X42784976Y-41307346D01*
X42769070Y-41292930D01*
X42754654Y-41277024D01*
X42741866Y-41259781D01*
X42730830Y-41241368D01*
X42721651Y-41221962D01*
X42714419Y-41201750D01*
X42709203Y-41180926D01*
X42706053Y-41159691D01*
X42705000Y-41138250D01*
X42705000Y-40700750D01*
X42706053Y-40679309D01*
X42709203Y-40658074D01*
X42714419Y-40637250D01*
X42721651Y-40617038D01*
X42730830Y-40597632D01*
X42741866Y-40579219D01*
X42754654Y-40561976D01*
X42769070Y-40546070D01*
X42784976Y-40531654D01*
X42802219Y-40518866D01*
X42820632Y-40507830D01*
X42840038Y-40498651D01*
X42860250Y-40491419D01*
X42881074Y-40486203D01*
X42902309Y-40483053D01*
X42923750Y-40482000D01*
X43436250Y-40482000D01*
X43457691Y-40483053D01*
X43457691Y-40483053D01*
G37*
D17*
X43180000Y-40919500D03*
D16*
G36*
X45743691Y-38933553D02*
G01*
X45764926Y-38936703D01*
X45785750Y-38941919D01*
X45805962Y-38949151D01*
X45825368Y-38958330D01*
X45843781Y-38969366D01*
X45861024Y-38982154D01*
X45876930Y-38996570D01*
X45891346Y-39012476D01*
X45904134Y-39029719D01*
X45915170Y-39048132D01*
X45924349Y-39067538D01*
X45931581Y-39087750D01*
X45936797Y-39108574D01*
X45939947Y-39129809D01*
X45941000Y-39151250D01*
X45941000Y-39588750D01*
X45939947Y-39610191D01*
X45936797Y-39631426D01*
X45931581Y-39652250D01*
X45924349Y-39672462D01*
X45915170Y-39691868D01*
X45904134Y-39710281D01*
X45891346Y-39727524D01*
X45876930Y-39743430D01*
X45861024Y-39757846D01*
X45843781Y-39770634D01*
X45825368Y-39781670D01*
X45805962Y-39790849D01*
X45785750Y-39798081D01*
X45764926Y-39803297D01*
X45743691Y-39806447D01*
X45722250Y-39807500D01*
X45209750Y-39807500D01*
X45188309Y-39806447D01*
X45167074Y-39803297D01*
X45146250Y-39798081D01*
X45126038Y-39790849D01*
X45106632Y-39781670D01*
X45088219Y-39770634D01*
X45070976Y-39757846D01*
X45055070Y-39743430D01*
X45040654Y-39727524D01*
X45027866Y-39710281D01*
X45016830Y-39691868D01*
X45007651Y-39672462D01*
X45000419Y-39652250D01*
X44995203Y-39631426D01*
X44992053Y-39610191D01*
X44991000Y-39588750D01*
X44991000Y-39151250D01*
X44992053Y-39129809D01*
X44995203Y-39108574D01*
X45000419Y-39087750D01*
X45007651Y-39067538D01*
X45016830Y-39048132D01*
X45027866Y-39029719D01*
X45040654Y-39012476D01*
X45055070Y-38996570D01*
X45070976Y-38982154D01*
X45088219Y-38969366D01*
X45106632Y-38958330D01*
X45126038Y-38949151D01*
X45146250Y-38941919D01*
X45167074Y-38936703D01*
X45188309Y-38933553D01*
X45209750Y-38932500D01*
X45722250Y-38932500D01*
X45743691Y-38933553D01*
X45743691Y-38933553D01*
G37*
D17*
X45466000Y-39370000D03*
D16*
G36*
X45743691Y-40508553D02*
G01*
X45764926Y-40511703D01*
X45785750Y-40516919D01*
X45805962Y-40524151D01*
X45825368Y-40533330D01*
X45843781Y-40544366D01*
X45861024Y-40557154D01*
X45876930Y-40571570D01*
X45891346Y-40587476D01*
X45904134Y-40604719D01*
X45915170Y-40623132D01*
X45924349Y-40642538D01*
X45931581Y-40662750D01*
X45936797Y-40683574D01*
X45939947Y-40704809D01*
X45941000Y-40726250D01*
X45941000Y-41163750D01*
X45939947Y-41185191D01*
X45936797Y-41206426D01*
X45931581Y-41227250D01*
X45924349Y-41247462D01*
X45915170Y-41266868D01*
X45904134Y-41285281D01*
X45891346Y-41302524D01*
X45876930Y-41318430D01*
X45861024Y-41332846D01*
X45843781Y-41345634D01*
X45825368Y-41356670D01*
X45805962Y-41365849D01*
X45785750Y-41373081D01*
X45764926Y-41378297D01*
X45743691Y-41381447D01*
X45722250Y-41382500D01*
X45209750Y-41382500D01*
X45188309Y-41381447D01*
X45167074Y-41378297D01*
X45146250Y-41373081D01*
X45126038Y-41365849D01*
X45106632Y-41356670D01*
X45088219Y-41345634D01*
X45070976Y-41332846D01*
X45055070Y-41318430D01*
X45040654Y-41302524D01*
X45027866Y-41285281D01*
X45016830Y-41266868D01*
X45007651Y-41247462D01*
X45000419Y-41227250D01*
X44995203Y-41206426D01*
X44992053Y-41185191D01*
X44991000Y-41163750D01*
X44991000Y-40726250D01*
X44992053Y-40704809D01*
X44995203Y-40683574D01*
X45000419Y-40662750D01*
X45007651Y-40642538D01*
X45016830Y-40623132D01*
X45027866Y-40604719D01*
X45040654Y-40587476D01*
X45055070Y-40571570D01*
X45070976Y-40557154D01*
X45088219Y-40544366D01*
X45106632Y-40533330D01*
X45126038Y-40524151D01*
X45146250Y-40516919D01*
X45167074Y-40511703D01*
X45188309Y-40508553D01*
X45209750Y-40507500D01*
X45722250Y-40507500D01*
X45743691Y-40508553D01*
X45743691Y-40508553D01*
G37*
D17*
X45466000Y-40945000D03*
D16*
G36*
X38885691Y-38908053D02*
G01*
X38906926Y-38911203D01*
X38927750Y-38916419D01*
X38947962Y-38923651D01*
X38967368Y-38932830D01*
X38985781Y-38943866D01*
X39003024Y-38956654D01*
X39018930Y-38971070D01*
X39033346Y-38986976D01*
X39046134Y-39004219D01*
X39057170Y-39022632D01*
X39066349Y-39042038D01*
X39073581Y-39062250D01*
X39078797Y-39083074D01*
X39081947Y-39104309D01*
X39083000Y-39125750D01*
X39083000Y-39563250D01*
X39081947Y-39584691D01*
X39078797Y-39605926D01*
X39073581Y-39626750D01*
X39066349Y-39646962D01*
X39057170Y-39666368D01*
X39046134Y-39684781D01*
X39033346Y-39702024D01*
X39018930Y-39717930D01*
X39003024Y-39732346D01*
X38985781Y-39745134D01*
X38967368Y-39756170D01*
X38947962Y-39765349D01*
X38927750Y-39772581D01*
X38906926Y-39777797D01*
X38885691Y-39780947D01*
X38864250Y-39782000D01*
X38351750Y-39782000D01*
X38330309Y-39780947D01*
X38309074Y-39777797D01*
X38288250Y-39772581D01*
X38268038Y-39765349D01*
X38248632Y-39756170D01*
X38230219Y-39745134D01*
X38212976Y-39732346D01*
X38197070Y-39717930D01*
X38182654Y-39702024D01*
X38169866Y-39684781D01*
X38158830Y-39666368D01*
X38149651Y-39646962D01*
X38142419Y-39626750D01*
X38137203Y-39605926D01*
X38134053Y-39584691D01*
X38133000Y-39563250D01*
X38133000Y-39125750D01*
X38134053Y-39104309D01*
X38137203Y-39083074D01*
X38142419Y-39062250D01*
X38149651Y-39042038D01*
X38158830Y-39022632D01*
X38169866Y-39004219D01*
X38182654Y-38986976D01*
X38197070Y-38971070D01*
X38212976Y-38956654D01*
X38230219Y-38943866D01*
X38248632Y-38932830D01*
X38268038Y-38923651D01*
X38288250Y-38916419D01*
X38309074Y-38911203D01*
X38330309Y-38908053D01*
X38351750Y-38907000D01*
X38864250Y-38907000D01*
X38885691Y-38908053D01*
X38885691Y-38908053D01*
G37*
D17*
X38608000Y-39344500D03*
D16*
G36*
X38885691Y-40483053D02*
G01*
X38906926Y-40486203D01*
X38927750Y-40491419D01*
X38947962Y-40498651D01*
X38967368Y-40507830D01*
X38985781Y-40518866D01*
X39003024Y-40531654D01*
X39018930Y-40546070D01*
X39033346Y-40561976D01*
X39046134Y-40579219D01*
X39057170Y-40597632D01*
X39066349Y-40617038D01*
X39073581Y-40637250D01*
X39078797Y-40658074D01*
X39081947Y-40679309D01*
X39083000Y-40700750D01*
X39083000Y-41138250D01*
X39081947Y-41159691D01*
X39078797Y-41180926D01*
X39073581Y-41201750D01*
X39066349Y-41221962D01*
X39057170Y-41241368D01*
X39046134Y-41259781D01*
X39033346Y-41277024D01*
X39018930Y-41292930D01*
X39003024Y-41307346D01*
X38985781Y-41320134D01*
X38967368Y-41331170D01*
X38947962Y-41340349D01*
X38927750Y-41347581D01*
X38906926Y-41352797D01*
X38885691Y-41355947D01*
X38864250Y-41357000D01*
X38351750Y-41357000D01*
X38330309Y-41355947D01*
X38309074Y-41352797D01*
X38288250Y-41347581D01*
X38268038Y-41340349D01*
X38248632Y-41331170D01*
X38230219Y-41320134D01*
X38212976Y-41307346D01*
X38197070Y-41292930D01*
X38182654Y-41277024D01*
X38169866Y-41259781D01*
X38158830Y-41241368D01*
X38149651Y-41221962D01*
X38142419Y-41201750D01*
X38137203Y-41180926D01*
X38134053Y-41159691D01*
X38133000Y-41138250D01*
X38133000Y-40700750D01*
X38134053Y-40679309D01*
X38137203Y-40658074D01*
X38142419Y-40637250D01*
X38149651Y-40617038D01*
X38158830Y-40597632D01*
X38169866Y-40579219D01*
X38182654Y-40561976D01*
X38197070Y-40546070D01*
X38212976Y-40531654D01*
X38230219Y-40518866D01*
X38248632Y-40507830D01*
X38268038Y-40498651D01*
X38288250Y-40491419D01*
X38309074Y-40486203D01*
X38330309Y-40483053D01*
X38351750Y-40482000D01*
X38864250Y-40482000D01*
X38885691Y-40483053D01*
X38885691Y-40483053D01*
G37*
D17*
X38608000Y-40919500D03*
D18*
X68815000Y-32800000D03*
X68815000Y-53000000D03*
X60415000Y-34000000D03*
X60415000Y-51800000D03*
D19*
X62865000Y-28650000D03*
X66365000Y-57150000D03*
D20*
X62865000Y-57150000D03*
D18*
X56496000Y-32800000D03*
X56496000Y-53000000D03*
X48096000Y-34000000D03*
X48096000Y-51800000D03*
D19*
X50546000Y-28650000D03*
X54046000Y-57150000D03*
D20*
X50546000Y-57150000D03*
D21*
X66675000Y-60960000D02*
X65825001Y-60110001D01*
X65825001Y-60110001D02*
X64770000Y-59055000D01*
X46482000Y-57150000D02*
X44704000Y-55372000D01*
X50546000Y-57150000D02*
X46482000Y-57150000D01*
X38146388Y-41381112D02*
X38608000Y-40919500D01*
X38146388Y-49576388D02*
X38146388Y-41381112D01*
X44704000Y-55372000D02*
X43942000Y-55372000D01*
X43942000Y-55372000D02*
X38146388Y-49576388D01*
X55283436Y-57150000D02*
X54046000Y-57150000D01*
X57095002Y-57150000D02*
X55283436Y-57150000D01*
X60305001Y-60359999D02*
X57095002Y-57150000D01*
X60305001Y-61520003D02*
X60305001Y-60359999D01*
X61595000Y-63500000D02*
X61595000Y-62810002D01*
X61595000Y-62810002D02*
X60305001Y-61520003D01*
X52141000Y-55245000D02*
X47371000Y-55245000D01*
X54046000Y-57150000D02*
X52141000Y-55245000D01*
X47371000Y-55245000D02*
X41631999Y-49505999D01*
X41631999Y-49505999D02*
X40132000Y-48006000D01*
X67524999Y-62650001D02*
X66675000Y-63500000D01*
X67925001Y-62249999D02*
X67524999Y-62650001D01*
X67925001Y-60359999D02*
X67925001Y-62249999D01*
X66365000Y-57150000D02*
X66365000Y-58799998D01*
X66365000Y-58799998D02*
X67925001Y-60359999D01*
X65490001Y-56275001D02*
X66365000Y-57150000D01*
X64460000Y-55245000D02*
X65490001Y-56275001D01*
X56150998Y-55245000D02*
X64460000Y-55245000D01*
X50411997Y-49505999D02*
X56150998Y-55245000D01*
X44704000Y-48006000D02*
X46203999Y-49505999D01*
X46203999Y-49505999D02*
X50411997Y-49505999D01*
X38608000Y-34303000D02*
X34150000Y-29845000D01*
X38608000Y-39344500D02*
X38608000Y-34303000D01*
X37059999Y-46506001D02*
X35560000Y-48006000D01*
X37465000Y-46101000D02*
X37059999Y-46506001D01*
X38608000Y-39344500D02*
X37465000Y-40487500D01*
X37465000Y-40487500D02*
X37465000Y-46101000D01*
X45466000Y-37361000D02*
X44450000Y-36345000D01*
X45466000Y-39370000D02*
X45466000Y-37361000D01*
X44190000Y-32385000D02*
X44450000Y-32645000D01*
X43180000Y-32385000D02*
X44190000Y-32385000D01*
X41910000Y-33655000D02*
X43180000Y-32385000D01*
X43180000Y-39344500D02*
X41910000Y-38074500D01*
X41910000Y-38074500D02*
X41910000Y-33655000D01*
X40894000Y-33401000D02*
X44450000Y-29845000D01*
X40894000Y-39344500D02*
X40894000Y-33401000D01*
X35820000Y-32645000D02*
X34150000Y-32645000D01*
X37465000Y-34290000D02*
X35820000Y-32645000D01*
X36322000Y-39344500D02*
X37465000Y-38201500D01*
X37465000Y-38201500D02*
X37465000Y-34290000D01*
X34036000Y-36459000D02*
X34150000Y-36345000D01*
X34036000Y-39344500D02*
X34036000Y-36459000D01*
D22*
G36*
X36630001Y-34635869D02*
G01*
X36630000Y-37855632D01*
X36216705Y-38268928D01*
X36065750Y-38268928D01*
X35898592Y-38285392D01*
X35737858Y-38334150D01*
X35589725Y-38413329D01*
X35459885Y-38519885D01*
X35353329Y-38649725D01*
X35274150Y-38797858D01*
X35225392Y-38958592D01*
X35208928Y-39125750D01*
X35208928Y-39563250D01*
X35225392Y-39730408D01*
X35274150Y-39891142D01*
X35353329Y-40039275D01*
X35371100Y-40060930D01*
X35316463Y-40127506D01*
X35257498Y-40237820D01*
X35221188Y-40357518D01*
X35208928Y-40482000D01*
X35212000Y-40633750D01*
X35370750Y-40792500D01*
X36195000Y-40792500D01*
X36195000Y-40772500D01*
X36449000Y-40772500D01*
X36449000Y-40792500D01*
X36469000Y-40792500D01*
X36469000Y-41046500D01*
X36449000Y-41046500D01*
X36449000Y-41833250D01*
X36607750Y-41992000D01*
X36630000Y-41992361D01*
X36630001Y-45755132D01*
X36498579Y-45886553D01*
X36498569Y-45886562D01*
X36359058Y-46026074D01*
X36182756Y-45953047D01*
X35770279Y-45871000D01*
X35349721Y-45871000D01*
X34937244Y-45953047D01*
X34548698Y-46113988D01*
X34199017Y-46347637D01*
X33901637Y-46645017D01*
X33667988Y-46994698D01*
X33507047Y-47383244D01*
X33425000Y-47795721D01*
X33425000Y-48216279D01*
X33507047Y-48628756D01*
X33667988Y-49017302D01*
X33901637Y-49366983D01*
X34199017Y-49664363D01*
X34548698Y-49898012D01*
X34937244Y-50058953D01*
X35349721Y-50141000D01*
X35770279Y-50141000D01*
X36182756Y-50058953D01*
X36571302Y-49898012D01*
X36920983Y-49664363D01*
X37218363Y-49366983D01*
X37311388Y-49227761D01*
X37311388Y-49535369D01*
X37307348Y-49576388D01*
X37311388Y-49617406D01*
X37323470Y-49740076D01*
X37371216Y-49897474D01*
X37448752Y-50042533D01*
X37553097Y-50169679D01*
X37584967Y-50195834D01*
X42569000Y-55179868D01*
X42569000Y-55582279D01*
X42651047Y-55994756D01*
X42811988Y-56383302D01*
X43045637Y-56732983D01*
X43343017Y-57030363D01*
X43692698Y-57264012D01*
X44081244Y-57424953D01*
X44493721Y-57507000D01*
X44914279Y-57507000D01*
X45326756Y-57424953D01*
X45503058Y-57351926D01*
X45862563Y-57711432D01*
X45888709Y-57743291D01*
X46015854Y-57847636D01*
X46160913Y-57925172D01*
X46318311Y-57972918D01*
X46440981Y-57985000D01*
X46440982Y-57985000D01*
X46482000Y-57989040D01*
X46523018Y-57985000D01*
X49032928Y-57985000D01*
X49032928Y-58025000D01*
X49045188Y-58149482D01*
X49081498Y-58269180D01*
X49140463Y-58379494D01*
X49219815Y-58476185D01*
X49316506Y-58555537D01*
X49426820Y-58614502D01*
X49546518Y-58650812D01*
X49671000Y-58663072D01*
X51421000Y-58663072D01*
X51545482Y-58650812D01*
X51665180Y-58614502D01*
X51775494Y-58555537D01*
X51872185Y-58476185D01*
X51951537Y-58379494D01*
X52010502Y-58269180D01*
X52046812Y-58149482D01*
X52059072Y-58025000D01*
X52059072Y-56343940D01*
X52565932Y-56850800D01*
X52536000Y-57001278D01*
X52536000Y-57298722D01*
X52594029Y-57590451D01*
X52707856Y-57865253D01*
X52873107Y-58112569D01*
X53083431Y-58322893D01*
X53330747Y-58488144D01*
X53605549Y-58601971D01*
X53897278Y-58660000D01*
X54194722Y-58660000D01*
X54486451Y-58601971D01*
X54761253Y-58488144D01*
X55008569Y-58322893D01*
X55218893Y-58112569D01*
X55304132Y-57985000D01*
X56749135Y-57985000D01*
X58393754Y-59629620D01*
X58225986Y-59719294D01*
X57999866Y-59904866D01*
X57814294Y-60130986D01*
X57785000Y-60185791D01*
X57755706Y-60130986D01*
X57570134Y-59904866D01*
X57344014Y-59719294D01*
X57086034Y-59581401D01*
X56806111Y-59496487D01*
X56587950Y-59475000D01*
X56442050Y-59475000D01*
X56223889Y-59496487D01*
X55943966Y-59581401D01*
X55685986Y-59719294D01*
X55459866Y-59904866D01*
X55274294Y-60130986D01*
X55245000Y-60185791D01*
X55215706Y-60130986D01*
X55030134Y-59904866D01*
X54804014Y-59719294D01*
X54546034Y-59581401D01*
X54266111Y-59496487D01*
X54047950Y-59475000D01*
X53902050Y-59475000D01*
X53683889Y-59496487D01*
X53403966Y-59581401D01*
X53145986Y-59719294D01*
X52919866Y-59904866D01*
X52734294Y-60130986D01*
X52705000Y-60185791D01*
X52675706Y-60130986D01*
X52490134Y-59904866D01*
X52264014Y-59719294D01*
X52006034Y-59581401D01*
X51726111Y-59496487D01*
X51507950Y-59475000D01*
X51362050Y-59475000D01*
X51143889Y-59496487D01*
X50863966Y-59581401D01*
X50605986Y-59719294D01*
X50379866Y-59904866D01*
X50194294Y-60130986D01*
X50165000Y-60185791D01*
X50135706Y-60130986D01*
X49950134Y-59904866D01*
X49724014Y-59719294D01*
X49466034Y-59581401D01*
X49186111Y-59496487D01*
X48967950Y-59475000D01*
X48822050Y-59475000D01*
X48603889Y-59496487D01*
X48323966Y-59581401D01*
X48065986Y-59719294D01*
X47839866Y-59904866D01*
X47654294Y-60130986D01*
X47625000Y-60185791D01*
X47595706Y-60130986D01*
X47410134Y-59904866D01*
X47184014Y-59719294D01*
X46926034Y-59581401D01*
X46646111Y-59496487D01*
X46427950Y-59475000D01*
X46282050Y-59475000D01*
X46063889Y-59496487D01*
X45783966Y-59581401D01*
X45525986Y-59719294D01*
X45299866Y-59904866D01*
X45114294Y-60130986D01*
X45085000Y-60185791D01*
X45055706Y-60130986D01*
X44870134Y-59904866D01*
X44644014Y-59719294D01*
X44386034Y-59581401D01*
X44106111Y-59496487D01*
X43887950Y-59475000D01*
X43742050Y-59475000D01*
X43523889Y-59496487D01*
X43243966Y-59581401D01*
X42985986Y-59719294D01*
X42759866Y-59904866D01*
X42574294Y-60130986D01*
X42545000Y-60185791D01*
X42515706Y-60130986D01*
X42330134Y-59904866D01*
X42104014Y-59719294D01*
X41846034Y-59581401D01*
X41566111Y-59496487D01*
X41347950Y-59475000D01*
X41202050Y-59475000D01*
X40983889Y-59496487D01*
X40703966Y-59581401D01*
X40445986Y-59719294D01*
X40219866Y-59904866D01*
X40034294Y-60130986D01*
X40005000Y-60185791D01*
X39975706Y-60130986D01*
X39790134Y-59904866D01*
X39564014Y-59719294D01*
X39306034Y-59581401D01*
X39026111Y-59496487D01*
X38807950Y-59475000D01*
X38662050Y-59475000D01*
X38443889Y-59496487D01*
X38163966Y-59581401D01*
X37905986Y-59719294D01*
X37679866Y-59904866D01*
X37494294Y-60130986D01*
X37356401Y-60388966D01*
X37271487Y-60668889D01*
X37242815Y-60960000D01*
X37271487Y-61251111D01*
X37356401Y-61531034D01*
X37494294Y-61789014D01*
X37679866Y-62015134D01*
X37905986Y-62200706D01*
X37960791Y-62230000D01*
X37905986Y-62259294D01*
X37679866Y-62444866D01*
X37494294Y-62670986D01*
X37356401Y-62928966D01*
X37271487Y-63208889D01*
X37242815Y-63500000D01*
X37271487Y-63791111D01*
X37356401Y-64071034D01*
X37494294Y-64329014D01*
X37679866Y-64555134D01*
X37807646Y-64660000D01*
X34957279Y-64660000D01*
X34560455Y-64621091D01*
X34209794Y-64515220D01*
X33886377Y-64343257D01*
X33602518Y-64111748D01*
X33369035Y-63829514D01*
X33194816Y-63507304D01*
X33086498Y-63157385D01*
X33045000Y-62762557D01*
X33045000Y-56863653D01*
X34247952Y-56863653D01*
X34403962Y-57179214D01*
X34778745Y-57370020D01*
X35183551Y-57484044D01*
X35602824Y-57516902D01*
X36020451Y-57467334D01*
X36420383Y-57337243D01*
X36716038Y-57179214D01*
X36872048Y-56863653D01*
X35560000Y-55551605D01*
X34247952Y-56863653D01*
X33045000Y-56863653D01*
X33045000Y-55414824D01*
X33415098Y-55414824D01*
X33464666Y-55832451D01*
X33594757Y-56232383D01*
X33752786Y-56528038D01*
X34068347Y-56684048D01*
X35380395Y-55372000D01*
X35739605Y-55372000D01*
X37051653Y-56684048D01*
X37367214Y-56528038D01*
X37558020Y-56153255D01*
X37672044Y-55748449D01*
X37704902Y-55329176D01*
X37655334Y-54911549D01*
X37525243Y-54511617D01*
X37367214Y-54215962D01*
X37051653Y-54059952D01*
X35739605Y-55372000D01*
X35380395Y-55372000D01*
X34068347Y-54059952D01*
X33752786Y-54215962D01*
X33561980Y-54590745D01*
X33447956Y-54995551D01*
X33415098Y-55414824D01*
X33045000Y-55414824D01*
X33045000Y-53880347D01*
X34247952Y-53880347D01*
X35560000Y-55192395D01*
X36872048Y-53880347D01*
X36716038Y-53564786D01*
X36341255Y-53373980D01*
X35936449Y-53259956D01*
X35517176Y-53227098D01*
X35099549Y-53276666D01*
X34699617Y-53406757D01*
X34403962Y-53564786D01*
X34247952Y-53880347D01*
X33045000Y-53880347D01*
X33045000Y-41729207D01*
X33109815Y-41808185D01*
X33206506Y-41887537D01*
X33316820Y-41946502D01*
X33436518Y-41982812D01*
X33561000Y-41995072D01*
X33750250Y-41992000D01*
X33909000Y-41833250D01*
X33909000Y-41046500D01*
X34163000Y-41046500D01*
X34163000Y-41833250D01*
X34321750Y-41992000D01*
X34511000Y-41995072D01*
X34635482Y-41982812D01*
X34755180Y-41946502D01*
X34865494Y-41887537D01*
X34962185Y-41808185D01*
X35041537Y-41711494D01*
X35100502Y-41601180D01*
X35136812Y-41481482D01*
X35149072Y-41357000D01*
X35208928Y-41357000D01*
X35221188Y-41481482D01*
X35257498Y-41601180D01*
X35316463Y-41711494D01*
X35395815Y-41808185D01*
X35492506Y-41887537D01*
X35602820Y-41946502D01*
X35722518Y-41982812D01*
X35847000Y-41995072D01*
X36036250Y-41992000D01*
X36195000Y-41833250D01*
X36195000Y-41046500D01*
X35370750Y-41046500D01*
X35212000Y-41205250D01*
X35208928Y-41357000D01*
X35149072Y-41357000D01*
X35146000Y-41205250D01*
X34987250Y-41046500D01*
X34163000Y-41046500D01*
X33909000Y-41046500D01*
X33889000Y-41046500D01*
X33889000Y-40792500D01*
X33909000Y-40792500D01*
X33909000Y-40772500D01*
X34163000Y-40772500D01*
X34163000Y-40792500D01*
X34987250Y-40792500D01*
X35146000Y-40633750D01*
X35149072Y-40482000D01*
X35136812Y-40357518D01*
X35100502Y-40237820D01*
X35041537Y-40127506D01*
X34986900Y-40060930D01*
X35004671Y-40039275D01*
X35083850Y-39891142D01*
X35132608Y-39730408D01*
X35149072Y-39563250D01*
X35149072Y-39125750D01*
X35132608Y-38958592D01*
X35083850Y-38797858D01*
X35004671Y-38649725D01*
X34898115Y-38519885D01*
X34871000Y-38497632D01*
X34871000Y-37707824D01*
X34877095Y-37705299D01*
X35128505Y-37537312D01*
X35342312Y-37323505D01*
X35510299Y-37072095D01*
X35626011Y-36792743D01*
X35685000Y-36496184D01*
X35685000Y-36193816D01*
X35626011Y-35897257D01*
X35510299Y-35617905D01*
X35342312Y-35366495D01*
X35128505Y-35152688D01*
X34877095Y-34984701D01*
X34597743Y-34868989D01*
X34301184Y-34810000D01*
X33998816Y-34810000D01*
X33702257Y-34868989D01*
X33422905Y-34984701D01*
X33171495Y-35152688D01*
X33045000Y-35279183D01*
X33045000Y-33491385D01*
X33071093Y-33530436D01*
X33264564Y-33723907D01*
X33492062Y-33875916D01*
X33744844Y-33980622D01*
X34013195Y-34034000D01*
X34286805Y-34034000D01*
X34555156Y-33980622D01*
X34807938Y-33875916D01*
X35035436Y-33723907D01*
X35228907Y-33530436D01*
X35262607Y-33480000D01*
X35474133Y-33480000D01*
X36630001Y-34635869D01*
X36630001Y-34635869D01*
G37*
X36630001Y-34635869D02*
X36630000Y-37855632D01*
X36216705Y-38268928D01*
X36065750Y-38268928D01*
X35898592Y-38285392D01*
X35737858Y-38334150D01*
X35589725Y-38413329D01*
X35459885Y-38519885D01*
X35353329Y-38649725D01*
X35274150Y-38797858D01*
X35225392Y-38958592D01*
X35208928Y-39125750D01*
X35208928Y-39563250D01*
X35225392Y-39730408D01*
X35274150Y-39891142D01*
X35353329Y-40039275D01*
X35371100Y-40060930D01*
X35316463Y-40127506D01*
X35257498Y-40237820D01*
X35221188Y-40357518D01*
X35208928Y-40482000D01*
X35212000Y-40633750D01*
X35370750Y-40792500D01*
X36195000Y-40792500D01*
X36195000Y-40772500D01*
X36449000Y-40772500D01*
X36449000Y-40792500D01*
X36469000Y-40792500D01*
X36469000Y-41046500D01*
X36449000Y-41046500D01*
X36449000Y-41833250D01*
X36607750Y-41992000D01*
X36630000Y-41992361D01*
X36630001Y-45755132D01*
X36498579Y-45886553D01*
X36498569Y-45886562D01*
X36359058Y-46026074D01*
X36182756Y-45953047D01*
X35770279Y-45871000D01*
X35349721Y-45871000D01*
X34937244Y-45953047D01*
X34548698Y-46113988D01*
X34199017Y-46347637D01*
X33901637Y-46645017D01*
X33667988Y-46994698D01*
X33507047Y-47383244D01*
X33425000Y-47795721D01*
X33425000Y-48216279D01*
X33507047Y-48628756D01*
X33667988Y-49017302D01*
X33901637Y-49366983D01*
X34199017Y-49664363D01*
X34548698Y-49898012D01*
X34937244Y-50058953D01*
X35349721Y-50141000D01*
X35770279Y-50141000D01*
X36182756Y-50058953D01*
X36571302Y-49898012D01*
X36920983Y-49664363D01*
X37218363Y-49366983D01*
X37311388Y-49227761D01*
X37311388Y-49535369D01*
X37307348Y-49576388D01*
X37311388Y-49617406D01*
X37323470Y-49740076D01*
X37371216Y-49897474D01*
X37448752Y-50042533D01*
X37553097Y-50169679D01*
X37584967Y-50195834D01*
X42569000Y-55179868D01*
X42569000Y-55582279D01*
X42651047Y-55994756D01*
X42811988Y-56383302D01*
X43045637Y-56732983D01*
X43343017Y-57030363D01*
X43692698Y-57264012D01*
X44081244Y-57424953D01*
X44493721Y-57507000D01*
X44914279Y-57507000D01*
X45326756Y-57424953D01*
X45503058Y-57351926D01*
X45862563Y-57711432D01*
X45888709Y-57743291D01*
X46015854Y-57847636D01*
X46160913Y-57925172D01*
X46318311Y-57972918D01*
X46440981Y-57985000D01*
X46440982Y-57985000D01*
X46482000Y-57989040D01*
X46523018Y-57985000D01*
X49032928Y-57985000D01*
X49032928Y-58025000D01*
X49045188Y-58149482D01*
X49081498Y-58269180D01*
X49140463Y-58379494D01*
X49219815Y-58476185D01*
X49316506Y-58555537D01*
X49426820Y-58614502D01*
X49546518Y-58650812D01*
X49671000Y-58663072D01*
X51421000Y-58663072D01*
X51545482Y-58650812D01*
X51665180Y-58614502D01*
X51775494Y-58555537D01*
X51872185Y-58476185D01*
X51951537Y-58379494D01*
X52010502Y-58269180D01*
X52046812Y-58149482D01*
X52059072Y-58025000D01*
X52059072Y-56343940D01*
X52565932Y-56850800D01*
X52536000Y-57001278D01*
X52536000Y-57298722D01*
X52594029Y-57590451D01*
X52707856Y-57865253D01*
X52873107Y-58112569D01*
X53083431Y-58322893D01*
X53330747Y-58488144D01*
X53605549Y-58601971D01*
X53897278Y-58660000D01*
X54194722Y-58660000D01*
X54486451Y-58601971D01*
X54761253Y-58488144D01*
X55008569Y-58322893D01*
X55218893Y-58112569D01*
X55304132Y-57985000D01*
X56749135Y-57985000D01*
X58393754Y-59629620D01*
X58225986Y-59719294D01*
X57999866Y-59904866D01*
X57814294Y-60130986D01*
X57785000Y-60185791D01*
X57755706Y-60130986D01*
X57570134Y-59904866D01*
X57344014Y-59719294D01*
X57086034Y-59581401D01*
X56806111Y-59496487D01*
X56587950Y-59475000D01*
X56442050Y-59475000D01*
X56223889Y-59496487D01*
X55943966Y-59581401D01*
X55685986Y-59719294D01*
X55459866Y-59904866D01*
X55274294Y-60130986D01*
X55245000Y-60185791D01*
X55215706Y-60130986D01*
X55030134Y-59904866D01*
X54804014Y-59719294D01*
X54546034Y-59581401D01*
X54266111Y-59496487D01*
X54047950Y-59475000D01*
X53902050Y-59475000D01*
X53683889Y-59496487D01*
X53403966Y-59581401D01*
X53145986Y-59719294D01*
X52919866Y-59904866D01*
X52734294Y-60130986D01*
X52705000Y-60185791D01*
X52675706Y-60130986D01*
X52490134Y-59904866D01*
X52264014Y-59719294D01*
X52006034Y-59581401D01*
X51726111Y-59496487D01*
X51507950Y-59475000D01*
X51362050Y-59475000D01*
X51143889Y-59496487D01*
X50863966Y-59581401D01*
X50605986Y-59719294D01*
X50379866Y-59904866D01*
X50194294Y-60130986D01*
X50165000Y-60185791D01*
X50135706Y-60130986D01*
X49950134Y-59904866D01*
X49724014Y-59719294D01*
X49466034Y-59581401D01*
X49186111Y-59496487D01*
X48967950Y-59475000D01*
X48822050Y-59475000D01*
X48603889Y-59496487D01*
X48323966Y-59581401D01*
X48065986Y-59719294D01*
X47839866Y-59904866D01*
X47654294Y-60130986D01*
X47625000Y-60185791D01*
X47595706Y-60130986D01*
X47410134Y-59904866D01*
X47184014Y-59719294D01*
X46926034Y-59581401D01*
X46646111Y-59496487D01*
X46427950Y-59475000D01*
X46282050Y-59475000D01*
X46063889Y-59496487D01*
X45783966Y-59581401D01*
X45525986Y-59719294D01*
X45299866Y-59904866D01*
X45114294Y-60130986D01*
X45085000Y-60185791D01*
X45055706Y-60130986D01*
X44870134Y-59904866D01*
X44644014Y-59719294D01*
X44386034Y-59581401D01*
X44106111Y-59496487D01*
X43887950Y-59475000D01*
X43742050Y-59475000D01*
X43523889Y-59496487D01*
X43243966Y-59581401D01*
X42985986Y-59719294D01*
X42759866Y-59904866D01*
X42574294Y-60130986D01*
X42545000Y-60185791D01*
X42515706Y-60130986D01*
X42330134Y-59904866D01*
X42104014Y-59719294D01*
X41846034Y-59581401D01*
X41566111Y-59496487D01*
X41347950Y-59475000D01*
X41202050Y-59475000D01*
X40983889Y-59496487D01*
X40703966Y-59581401D01*
X40445986Y-59719294D01*
X40219866Y-59904866D01*
X40034294Y-60130986D01*
X40005000Y-60185791D01*
X39975706Y-60130986D01*
X39790134Y-59904866D01*
X39564014Y-59719294D01*
X39306034Y-59581401D01*
X39026111Y-59496487D01*
X38807950Y-59475000D01*
X38662050Y-59475000D01*
X38443889Y-59496487D01*
X38163966Y-59581401D01*
X37905986Y-59719294D01*
X37679866Y-59904866D01*
X37494294Y-60130986D01*
X37356401Y-60388966D01*
X37271487Y-60668889D01*
X37242815Y-60960000D01*
X37271487Y-61251111D01*
X37356401Y-61531034D01*
X37494294Y-61789014D01*
X37679866Y-62015134D01*
X37905986Y-62200706D01*
X37960791Y-62230000D01*
X37905986Y-62259294D01*
X37679866Y-62444866D01*
X37494294Y-62670986D01*
X37356401Y-62928966D01*
X37271487Y-63208889D01*
X37242815Y-63500000D01*
X37271487Y-63791111D01*
X37356401Y-64071034D01*
X37494294Y-64329014D01*
X37679866Y-64555134D01*
X37807646Y-64660000D01*
X34957279Y-64660000D01*
X34560455Y-64621091D01*
X34209794Y-64515220D01*
X33886377Y-64343257D01*
X33602518Y-64111748D01*
X33369035Y-63829514D01*
X33194816Y-63507304D01*
X33086498Y-63157385D01*
X33045000Y-62762557D01*
X33045000Y-56863653D01*
X34247952Y-56863653D01*
X34403962Y-57179214D01*
X34778745Y-57370020D01*
X35183551Y-57484044D01*
X35602824Y-57516902D01*
X36020451Y-57467334D01*
X36420383Y-57337243D01*
X36716038Y-57179214D01*
X36872048Y-56863653D01*
X35560000Y-55551605D01*
X34247952Y-56863653D01*
X33045000Y-56863653D01*
X33045000Y-55414824D01*
X33415098Y-55414824D01*
X33464666Y-55832451D01*
X33594757Y-56232383D01*
X33752786Y-56528038D01*
X34068347Y-56684048D01*
X35380395Y-55372000D01*
X35739605Y-55372000D01*
X37051653Y-56684048D01*
X37367214Y-56528038D01*
X37558020Y-56153255D01*
X37672044Y-55748449D01*
X37704902Y-55329176D01*
X37655334Y-54911549D01*
X37525243Y-54511617D01*
X37367214Y-54215962D01*
X37051653Y-54059952D01*
X35739605Y-55372000D01*
X35380395Y-55372000D01*
X34068347Y-54059952D01*
X33752786Y-54215962D01*
X33561980Y-54590745D01*
X33447956Y-54995551D01*
X33415098Y-55414824D01*
X33045000Y-55414824D01*
X33045000Y-53880347D01*
X34247952Y-53880347D01*
X35560000Y-55192395D01*
X36872048Y-53880347D01*
X36716038Y-53564786D01*
X36341255Y-53373980D01*
X35936449Y-53259956D01*
X35517176Y-53227098D01*
X35099549Y-53276666D01*
X34699617Y-53406757D01*
X34403962Y-53564786D01*
X34247952Y-53880347D01*
X33045000Y-53880347D01*
X33045000Y-41729207D01*
X33109815Y-41808185D01*
X33206506Y-41887537D01*
X33316820Y-41946502D01*
X33436518Y-41982812D01*
X33561000Y-41995072D01*
X33750250Y-41992000D01*
X33909000Y-41833250D01*
X33909000Y-41046500D01*
X34163000Y-41046500D01*
X34163000Y-41833250D01*
X34321750Y-41992000D01*
X34511000Y-41995072D01*
X34635482Y-41982812D01*
X34755180Y-41946502D01*
X34865494Y-41887537D01*
X34962185Y-41808185D01*
X35041537Y-41711494D01*
X35100502Y-41601180D01*
X35136812Y-41481482D01*
X35149072Y-41357000D01*
X35208928Y-41357000D01*
X35221188Y-41481482D01*
X35257498Y-41601180D01*
X35316463Y-41711494D01*
X35395815Y-41808185D01*
X35492506Y-41887537D01*
X35602820Y-41946502D01*
X35722518Y-41982812D01*
X35847000Y-41995072D01*
X36036250Y-41992000D01*
X36195000Y-41833250D01*
X36195000Y-41046500D01*
X35370750Y-41046500D01*
X35212000Y-41205250D01*
X35208928Y-41357000D01*
X35149072Y-41357000D01*
X35146000Y-41205250D01*
X34987250Y-41046500D01*
X34163000Y-41046500D01*
X33909000Y-41046500D01*
X33889000Y-41046500D01*
X33889000Y-40792500D01*
X33909000Y-40792500D01*
X33909000Y-40772500D01*
X34163000Y-40772500D01*
X34163000Y-40792500D01*
X34987250Y-40792500D01*
X35146000Y-40633750D01*
X35149072Y-40482000D01*
X35136812Y-40357518D01*
X35100502Y-40237820D01*
X35041537Y-40127506D01*
X34986900Y-40060930D01*
X35004671Y-40039275D01*
X35083850Y-39891142D01*
X35132608Y-39730408D01*
X35149072Y-39563250D01*
X35149072Y-39125750D01*
X35132608Y-38958592D01*
X35083850Y-38797858D01*
X35004671Y-38649725D01*
X34898115Y-38519885D01*
X34871000Y-38497632D01*
X34871000Y-37707824D01*
X34877095Y-37705299D01*
X35128505Y-37537312D01*
X35342312Y-37323505D01*
X35510299Y-37072095D01*
X35626011Y-36792743D01*
X35685000Y-36496184D01*
X35685000Y-36193816D01*
X35626011Y-35897257D01*
X35510299Y-35617905D01*
X35342312Y-35366495D01*
X35128505Y-35152688D01*
X34877095Y-34984701D01*
X34597743Y-34868989D01*
X34301184Y-34810000D01*
X33998816Y-34810000D01*
X33702257Y-34868989D01*
X33422905Y-34984701D01*
X33171495Y-35152688D01*
X33045000Y-35279183D01*
X33045000Y-33491385D01*
X33071093Y-33530436D01*
X33264564Y-33723907D01*
X33492062Y-33875916D01*
X33744844Y-33980622D01*
X34013195Y-34034000D01*
X34286805Y-34034000D01*
X34555156Y-33980622D01*
X34807938Y-33875916D01*
X35035436Y-33723907D01*
X35228907Y-33530436D01*
X35262607Y-33480000D01*
X35474133Y-33480000D01*
X36630001Y-34635869D01*
G36*
X69520302Y-21318100D02*
G01*
X69813976Y-21406765D01*
X70084843Y-21550787D01*
X70322565Y-21744669D01*
X70518111Y-21981043D01*
X70664018Y-22250892D01*
X70754731Y-22543939D01*
X70790000Y-22879496D01*
X70790000Y-32554222D01*
X70723718Y-32220997D01*
X70574085Y-31859750D01*
X70356851Y-31534636D01*
X70080364Y-31258149D01*
X69755250Y-31040915D01*
X69394003Y-30891282D01*
X69010505Y-30815000D01*
X68619495Y-30815000D01*
X68235997Y-30891282D01*
X67874750Y-31040915D01*
X67549636Y-31258149D01*
X67273149Y-31534636D01*
X67055915Y-31859750D01*
X66906282Y-32220997D01*
X66830000Y-32604495D01*
X66830000Y-32995505D01*
X66906282Y-33379003D01*
X67055915Y-33740250D01*
X67273149Y-34065364D01*
X67549636Y-34341851D01*
X67874750Y-34559085D01*
X68235997Y-34708718D01*
X68619495Y-34785000D01*
X69010505Y-34785000D01*
X69394003Y-34708718D01*
X69755250Y-34559085D01*
X70080364Y-34341851D01*
X70356851Y-34065364D01*
X70574085Y-33740250D01*
X70723718Y-33379003D01*
X70790000Y-33045778D01*
X70790001Y-52754225D01*
X70723718Y-52420997D01*
X70574085Y-52059750D01*
X70356851Y-51734636D01*
X70080364Y-51458149D01*
X69755250Y-51240915D01*
X69394003Y-51091282D01*
X69010505Y-51015000D01*
X68619495Y-51015000D01*
X68235997Y-51091282D01*
X67874750Y-51240915D01*
X67549636Y-51458149D01*
X67273149Y-51734636D01*
X67055915Y-52059750D01*
X66906282Y-52420997D01*
X66830000Y-52804495D01*
X66830000Y-53195505D01*
X66906282Y-53579003D01*
X67055915Y-53940250D01*
X67273149Y-54265364D01*
X67549636Y-54541851D01*
X67874750Y-54759085D01*
X68235997Y-54908718D01*
X68619495Y-54985000D01*
X69010505Y-54985000D01*
X69394003Y-54908718D01*
X69755250Y-54759085D01*
X70080364Y-54541851D01*
X70356851Y-54265364D01*
X70574085Y-53940250D01*
X70723718Y-53579003D01*
X70790001Y-53245775D01*
X70790001Y-64660000D01*
X70619320Y-64660000D01*
X70654502Y-64594180D01*
X70690812Y-64474482D01*
X70703072Y-64350000D01*
X70703072Y-62650000D01*
X70690812Y-62525518D01*
X70654502Y-62405820D01*
X70595537Y-62295506D01*
X70516185Y-62198815D01*
X70419494Y-62119463D01*
X70309180Y-62060498D01*
X70240313Y-62039607D01*
X70270134Y-62015134D01*
X70455706Y-61789014D01*
X70593599Y-61531034D01*
X70678513Y-61251111D01*
X70707185Y-60960000D01*
X70678513Y-60668889D01*
X70593599Y-60388966D01*
X70455706Y-60130986D01*
X70270134Y-59904866D01*
X70044014Y-59719294D01*
X69786034Y-59581401D01*
X69506111Y-59496487D01*
X69287950Y-59475000D01*
X69142050Y-59475000D01*
X68923889Y-59496487D01*
X68643966Y-59581401D01*
X68437585Y-59691714D01*
X67200000Y-58454131D01*
X67200000Y-58408132D01*
X67327569Y-58322893D01*
X67537893Y-58112569D01*
X67703144Y-57865253D01*
X67816971Y-57590451D01*
X67875000Y-57298722D01*
X67875000Y-57001278D01*
X67816971Y-56709549D01*
X67703144Y-56434747D01*
X67537893Y-56187431D01*
X67327569Y-55977107D01*
X67080253Y-55811856D01*
X66805451Y-55698029D01*
X66513722Y-55640000D01*
X66216278Y-55640000D01*
X66065800Y-55669932D01*
X65079446Y-54683579D01*
X65053291Y-54651709D01*
X64926146Y-54547364D01*
X64781087Y-54469828D01*
X64623689Y-54422082D01*
X64501019Y-54410000D01*
X64501018Y-54410000D01*
X64460000Y-54405960D01*
X64418982Y-54410000D01*
X57893215Y-54410000D01*
X58037851Y-54265364D01*
X58255085Y-53940250D01*
X58404718Y-53579003D01*
X58481000Y-53195505D01*
X58481000Y-52804495D01*
X58404718Y-52420997D01*
X58255085Y-52059750D01*
X58037851Y-51734636D01*
X57907710Y-51604495D01*
X58430000Y-51604495D01*
X58430000Y-51995505D01*
X58506282Y-52379003D01*
X58655915Y-52740250D01*
X58873149Y-53065364D01*
X59149636Y-53341851D01*
X59474750Y-53559085D01*
X59835997Y-53708718D01*
X60219495Y-53785000D01*
X60610505Y-53785000D01*
X60994003Y-53708718D01*
X61355250Y-53559085D01*
X61680364Y-53341851D01*
X61956851Y-53065364D01*
X62174085Y-52740250D01*
X62323718Y-52379003D01*
X62400000Y-51995505D01*
X62400000Y-51604495D01*
X62323718Y-51220997D01*
X62174085Y-50859750D01*
X61956851Y-50534636D01*
X61680364Y-50258149D01*
X61355250Y-50040915D01*
X60994003Y-49891282D01*
X60610505Y-49815000D01*
X60219495Y-49815000D01*
X59835997Y-49891282D01*
X59474750Y-50040915D01*
X59149636Y-50258149D01*
X58873149Y-50534636D01*
X58655915Y-50859750D01*
X58506282Y-51220997D01*
X58430000Y-51604495D01*
X57907710Y-51604495D01*
X57761364Y-51458149D01*
X57436250Y-51240915D01*
X57075003Y-51091282D01*
X56691505Y-51015000D01*
X56300495Y-51015000D01*
X55916997Y-51091282D01*
X55555750Y-51240915D01*
X55230636Y-51458149D01*
X54954149Y-51734636D01*
X54736915Y-52059750D01*
X54587282Y-52420997D01*
X54574106Y-52487240D01*
X51031443Y-48944578D01*
X51005288Y-48912708D01*
X50878143Y-48808363D01*
X50733084Y-48730827D01*
X50575686Y-48683081D01*
X50453016Y-48670999D01*
X50453015Y-48670999D01*
X50411997Y-48666959D01*
X50370979Y-48670999D01*
X46739455Y-48670999D01*
X46756953Y-48628756D01*
X46839000Y-48216279D01*
X46839000Y-47795721D01*
X46756953Y-47383244D01*
X46596012Y-46994698D01*
X46362363Y-46645017D01*
X46064983Y-46347637D01*
X45715302Y-46113988D01*
X45326756Y-45953047D01*
X44914279Y-45871000D01*
X44493721Y-45871000D01*
X44081244Y-45953047D01*
X43692698Y-46113988D01*
X43343017Y-46347637D01*
X43045637Y-46645017D01*
X42811988Y-46994698D01*
X42651047Y-47383244D01*
X42569000Y-47795721D01*
X42569000Y-48216279D01*
X42651047Y-48628756D01*
X42811988Y-49017302D01*
X43045637Y-49366983D01*
X43343017Y-49664363D01*
X43692698Y-49898012D01*
X44081244Y-50058953D01*
X44493721Y-50141000D01*
X44914279Y-50141000D01*
X45326756Y-50058953D01*
X45503058Y-49985926D01*
X45584562Y-50067431D01*
X45610708Y-50099290D01*
X45642567Y-50125436D01*
X45642569Y-50125438D01*
X45737853Y-50203635D01*
X45882912Y-50281171D01*
X46040310Y-50328917D01*
X46203999Y-50345039D01*
X46245017Y-50340999D01*
X46747786Y-50340999D01*
X46554149Y-50534636D01*
X46336915Y-50859750D01*
X46187282Y-51220997D01*
X46111000Y-51604495D01*
X46111000Y-51995505D01*
X46187282Y-52379003D01*
X46336915Y-52740250D01*
X46554149Y-53065364D01*
X46830636Y-53341851D01*
X47155750Y-53559085D01*
X47516997Y-53708718D01*
X47900495Y-53785000D01*
X48291505Y-53785000D01*
X48675003Y-53708718D01*
X49036250Y-53559085D01*
X49361364Y-53341851D01*
X49637851Y-53065364D01*
X49855085Y-52740250D01*
X50004718Y-52379003D01*
X50081000Y-51995505D01*
X50081000Y-51604495D01*
X50004718Y-51220997D01*
X49855085Y-50859750D01*
X49637851Y-50534636D01*
X49444214Y-50340999D01*
X50066130Y-50340999D01*
X55531557Y-55806427D01*
X55557707Y-55838291D01*
X55673633Y-55933429D01*
X55684852Y-55942636D01*
X55829911Y-56020172D01*
X55987309Y-56067918D01*
X56150997Y-56084040D01*
X56192016Y-56080000D01*
X61385579Y-56080000D01*
X61364188Y-56150518D01*
X61351928Y-56275000D01*
X61351928Y-58025000D01*
X61364188Y-58149482D01*
X61400498Y-58269180D01*
X61459463Y-58379494D01*
X61538815Y-58476185D01*
X61635506Y-58555537D01*
X61745820Y-58614502D01*
X61865518Y-58650812D01*
X61990000Y-58663072D01*
X63740000Y-58663072D01*
X63864482Y-58650812D01*
X63984180Y-58614502D01*
X64094494Y-58555537D01*
X64191185Y-58476185D01*
X64270537Y-58379494D01*
X64329502Y-58269180D01*
X64365812Y-58149482D01*
X64378072Y-58025000D01*
X64378072Y-56343939D01*
X64884932Y-56850800D01*
X64855000Y-57001278D01*
X64855000Y-57298722D01*
X64913029Y-57590451D01*
X65026856Y-57865253D01*
X65192107Y-58112569D01*
X65402431Y-58322893D01*
X65530001Y-58408132D01*
X65530001Y-58758970D01*
X65525960Y-58799998D01*
X65542082Y-58963686D01*
X65589828Y-59121084D01*
X65589829Y-59121085D01*
X65667365Y-59266144D01*
X65771710Y-59393289D01*
X65803574Y-59419439D01*
X66019448Y-59635313D01*
X65908080Y-59688359D01*
X65674731Y-59862412D01*
X65479822Y-60078645D01*
X65410201Y-60195523D01*
X65375706Y-60130986D01*
X65190134Y-59904866D01*
X64964014Y-59719294D01*
X64706034Y-59581401D01*
X64426111Y-59496487D01*
X64207950Y-59475000D01*
X64062050Y-59475000D01*
X63843889Y-59496487D01*
X63563966Y-59581401D01*
X63305986Y-59719294D01*
X63079866Y-59904866D01*
X62894294Y-60130986D01*
X62865000Y-60185791D01*
X62835706Y-60130986D01*
X62650134Y-59904866D01*
X62424014Y-59719294D01*
X62166034Y-59581401D01*
X61886111Y-59496487D01*
X61667950Y-59475000D01*
X61522050Y-59475000D01*
X61303889Y-59496487D01*
X61023966Y-59581401D01*
X60817584Y-59691714D01*
X57714448Y-56588579D01*
X57688293Y-56556709D01*
X57561148Y-56452364D01*
X57416089Y-56374828D01*
X57258691Y-56327082D01*
X57136021Y-56315000D01*
X57136020Y-56315000D01*
X57095002Y-56310960D01*
X57053984Y-56315000D01*
X55304132Y-56315000D01*
X55218893Y-56187431D01*
X55008569Y-55977107D01*
X54761253Y-55811856D01*
X54486451Y-55698029D01*
X54194722Y-55640000D01*
X53897278Y-55640000D01*
X53746800Y-55669932D01*
X52760446Y-54683579D01*
X52734291Y-54651709D01*
X52607146Y-54547364D01*
X52462087Y-54469828D01*
X52304689Y-54422082D01*
X52182019Y-54410000D01*
X52182018Y-54410000D01*
X52141000Y-54405960D01*
X52099982Y-54410000D01*
X47716868Y-54410000D01*
X42251447Y-48944580D01*
X42251438Y-48944569D01*
X42111926Y-48805058D01*
X42184953Y-48628756D01*
X42267000Y-48216279D01*
X42267000Y-47795721D01*
X42184953Y-47383244D01*
X42024012Y-46994698D01*
X41790363Y-46645017D01*
X41492983Y-46347637D01*
X41143302Y-46113988D01*
X40754756Y-45953047D01*
X40342279Y-45871000D01*
X39921721Y-45871000D01*
X39509244Y-45953047D01*
X39120698Y-46113988D01*
X38981388Y-46207072D01*
X38981388Y-41983535D01*
X39031408Y-41978608D01*
X39192142Y-41929850D01*
X39340275Y-41850671D01*
X39470115Y-41744115D01*
X39576671Y-41614275D01*
X39655850Y-41466142D01*
X39688957Y-41357000D01*
X39780928Y-41357000D01*
X39793188Y-41481482D01*
X39829498Y-41601180D01*
X39888463Y-41711494D01*
X39967815Y-41808185D01*
X40064506Y-41887537D01*
X40174820Y-41946502D01*
X40294518Y-41982812D01*
X40419000Y-41995072D01*
X40608250Y-41992000D01*
X40767000Y-41833250D01*
X40767000Y-41046500D01*
X41021000Y-41046500D01*
X41021000Y-41833250D01*
X41179750Y-41992000D01*
X41369000Y-41995072D01*
X41493482Y-41982812D01*
X41613180Y-41946502D01*
X41723494Y-41887537D01*
X41820185Y-41808185D01*
X41899537Y-41711494D01*
X41958502Y-41601180D01*
X41994812Y-41481482D01*
X42007072Y-41357000D01*
X42066928Y-41357000D01*
X42079188Y-41481482D01*
X42115498Y-41601180D01*
X42174463Y-41711494D01*
X42253815Y-41808185D01*
X42350506Y-41887537D01*
X42460820Y-41946502D01*
X42580518Y-41982812D01*
X42705000Y-41995072D01*
X42894250Y-41992000D01*
X43053000Y-41833250D01*
X43053000Y-41046500D01*
X43307000Y-41046500D01*
X43307000Y-41833250D01*
X43465750Y-41992000D01*
X43655000Y-41995072D01*
X43779482Y-41982812D01*
X43899180Y-41946502D01*
X44009494Y-41887537D01*
X44106185Y-41808185D01*
X44185537Y-41711494D01*
X44244502Y-41601180D01*
X44280812Y-41481482D01*
X44290560Y-41382500D01*
X44352928Y-41382500D01*
X44365188Y-41506982D01*
X44401498Y-41626680D01*
X44460463Y-41736994D01*
X44539815Y-41833685D01*
X44636506Y-41913037D01*
X44746820Y-41972002D01*
X44866518Y-42008312D01*
X44991000Y-42020572D01*
X45180250Y-42017500D01*
X45339000Y-41858750D01*
X45339000Y-41072000D01*
X45593000Y-41072000D01*
X45593000Y-41858750D01*
X45751750Y-42017500D01*
X45941000Y-42020572D01*
X46065482Y-42008312D01*
X46185180Y-41972002D01*
X46295494Y-41913037D01*
X46392185Y-41833685D01*
X46471537Y-41736994D01*
X46530502Y-41626680D01*
X46566812Y-41506982D01*
X46579072Y-41382500D01*
X46576000Y-41230750D01*
X46417250Y-41072000D01*
X45593000Y-41072000D01*
X45339000Y-41072000D01*
X44514750Y-41072000D01*
X44356000Y-41230750D01*
X44352928Y-41382500D01*
X44290560Y-41382500D01*
X44293072Y-41357000D01*
X44290000Y-41205250D01*
X44131250Y-41046500D01*
X43307000Y-41046500D01*
X43053000Y-41046500D01*
X42228750Y-41046500D01*
X42070000Y-41205250D01*
X42066928Y-41357000D01*
X42007072Y-41357000D01*
X42004000Y-41205250D01*
X41845250Y-41046500D01*
X41021000Y-41046500D01*
X40767000Y-41046500D01*
X39942750Y-41046500D01*
X39784000Y-41205250D01*
X39780928Y-41357000D01*
X39688957Y-41357000D01*
X39704608Y-41305408D01*
X39721072Y-41138250D01*
X39721072Y-40700750D01*
X39704608Y-40533592D01*
X39655850Y-40372858D01*
X39576671Y-40224725D01*
X39500574Y-40132000D01*
X39576671Y-40039275D01*
X39655850Y-39891142D01*
X39704608Y-39730408D01*
X39721072Y-39563250D01*
X39721072Y-39125750D01*
X39780928Y-39125750D01*
X39780928Y-39563250D01*
X39797392Y-39730408D01*
X39846150Y-39891142D01*
X39925329Y-40039275D01*
X39943100Y-40060930D01*
X39888463Y-40127506D01*
X39829498Y-40237820D01*
X39793188Y-40357518D01*
X39780928Y-40482000D01*
X39784000Y-40633750D01*
X39942750Y-40792500D01*
X40767000Y-40792500D01*
X40767000Y-40772500D01*
X41021000Y-40772500D01*
X41021000Y-40792500D01*
X41845250Y-40792500D01*
X42004000Y-40633750D01*
X42007072Y-40482000D01*
X41994812Y-40357518D01*
X41958502Y-40237820D01*
X41899537Y-40127506D01*
X41844900Y-40060930D01*
X41862671Y-40039275D01*
X41941850Y-39891142D01*
X41990608Y-39730408D01*
X42007072Y-39563250D01*
X42007072Y-39352440D01*
X42066928Y-39412296D01*
X42066928Y-39563250D01*
X42083392Y-39730408D01*
X42132150Y-39891142D01*
X42211329Y-40039275D01*
X42229100Y-40060930D01*
X42174463Y-40127506D01*
X42115498Y-40237820D01*
X42079188Y-40357518D01*
X42066928Y-40482000D01*
X42070000Y-40633750D01*
X42228750Y-40792500D01*
X43053000Y-40792500D01*
X43053000Y-40772500D01*
X43307000Y-40772500D01*
X43307000Y-40792500D01*
X44131250Y-40792500D01*
X44290000Y-40633750D01*
X44293072Y-40482000D01*
X44280812Y-40357518D01*
X44244502Y-40237820D01*
X44185537Y-40127506D01*
X44130900Y-40060930D01*
X44148671Y-40039275D01*
X44227850Y-39891142D01*
X44276608Y-39730408D01*
X44293072Y-39563250D01*
X44293072Y-39125750D01*
X44276608Y-38958592D01*
X44227850Y-38797858D01*
X44148671Y-38649725D01*
X44042115Y-38519885D01*
X43912275Y-38413329D01*
X43764142Y-38334150D01*
X43603408Y-38285392D01*
X43436250Y-38268928D01*
X43285296Y-38268928D01*
X42745000Y-37728633D01*
X42745000Y-35445000D01*
X42911928Y-35445000D01*
X42911928Y-37245000D01*
X42924188Y-37369482D01*
X42960498Y-37489180D01*
X43019463Y-37599494D01*
X43098815Y-37696185D01*
X43195506Y-37775537D01*
X43305820Y-37834502D01*
X43425518Y-37870812D01*
X43550000Y-37883072D01*
X44631001Y-37883072D01*
X44631000Y-38523132D01*
X44603885Y-38545385D01*
X44497329Y-38675225D01*
X44418150Y-38823358D01*
X44369392Y-38984092D01*
X44352928Y-39151250D01*
X44352928Y-39588750D01*
X44369392Y-39755908D01*
X44418150Y-39916642D01*
X44497329Y-40064775D01*
X44515100Y-40086430D01*
X44460463Y-40153006D01*
X44401498Y-40263320D01*
X44365188Y-40383018D01*
X44352928Y-40507500D01*
X44356000Y-40659250D01*
X44514750Y-40818000D01*
X45339000Y-40818000D01*
X45339000Y-40798000D01*
X45593000Y-40798000D01*
X45593000Y-40818000D01*
X46417250Y-40818000D01*
X46576000Y-40659250D01*
X46579072Y-40507500D01*
X46566812Y-40383018D01*
X46530502Y-40263320D01*
X46471537Y-40153006D01*
X46416900Y-40086430D01*
X46434671Y-40064775D01*
X46513850Y-39916642D01*
X46562608Y-39755908D01*
X46579072Y-39588750D01*
X46579072Y-39151250D01*
X46562608Y-38984092D01*
X46513850Y-38823358D01*
X46434671Y-38675225D01*
X46328115Y-38545385D01*
X46301000Y-38523132D01*
X46301000Y-37402018D01*
X46305040Y-37361000D01*
X46288918Y-37197311D01*
X46241172Y-37039913D01*
X46163636Y-36894854D01*
X46059291Y-36767709D01*
X46027426Y-36741558D01*
X45988072Y-36702204D01*
X45988072Y-35445000D01*
X45975812Y-35320518D01*
X45939502Y-35200820D01*
X45880537Y-35090506D01*
X45801185Y-34993815D01*
X45704494Y-34914463D01*
X45594180Y-34855498D01*
X45474482Y-34819188D01*
X45350000Y-34806928D01*
X43550000Y-34806928D01*
X43425518Y-34819188D01*
X43305820Y-34855498D01*
X43195506Y-34914463D01*
X43098815Y-34993815D01*
X43019463Y-35090506D01*
X42960498Y-35200820D01*
X42924188Y-35320518D01*
X42911928Y-35445000D01*
X42745000Y-35445000D01*
X42745000Y-34000867D01*
X43308744Y-33437124D01*
X43371093Y-33530436D01*
X43564564Y-33723907D01*
X43792062Y-33875916D01*
X44044844Y-33980622D01*
X44313195Y-34034000D01*
X44586805Y-34034000D01*
X44855156Y-33980622D01*
X45107938Y-33875916D01*
X45214827Y-33804495D01*
X46111000Y-33804495D01*
X46111000Y-34195505D01*
X46187282Y-34579003D01*
X46336915Y-34940250D01*
X46554149Y-35265364D01*
X46830636Y-35541851D01*
X47155750Y-35759085D01*
X47516997Y-35908718D01*
X47900495Y-35985000D01*
X48291505Y-35985000D01*
X48675003Y-35908718D01*
X49036250Y-35759085D01*
X49361364Y-35541851D01*
X49637851Y-35265364D01*
X49855085Y-34940250D01*
X50004718Y-34579003D01*
X50081000Y-34195505D01*
X50081000Y-33804495D01*
X50004718Y-33420997D01*
X49855085Y-33059750D01*
X49637851Y-32734636D01*
X49507710Y-32604495D01*
X54511000Y-32604495D01*
X54511000Y-32995505D01*
X54587282Y-33379003D01*
X54736915Y-33740250D01*
X54954149Y-34065364D01*
X55230636Y-34341851D01*
X55555750Y-34559085D01*
X55916997Y-34708718D01*
X56300495Y-34785000D01*
X56691505Y-34785000D01*
X57075003Y-34708718D01*
X57436250Y-34559085D01*
X57761364Y-34341851D01*
X58037851Y-34065364D01*
X58212157Y-33804495D01*
X58430000Y-33804495D01*
X58430000Y-34195505D01*
X58506282Y-34579003D01*
X58655915Y-34940250D01*
X58873149Y-35265364D01*
X59149636Y-35541851D01*
X59474750Y-35759085D01*
X59835997Y-35908718D01*
X60219495Y-35985000D01*
X60610505Y-35985000D01*
X60994003Y-35908718D01*
X61355250Y-35759085D01*
X61680364Y-35541851D01*
X61956851Y-35265364D01*
X62174085Y-34940250D01*
X62323718Y-34579003D01*
X62400000Y-34195505D01*
X62400000Y-33804495D01*
X62323718Y-33420997D01*
X62174085Y-33059750D01*
X61956851Y-32734636D01*
X61680364Y-32458149D01*
X61355250Y-32240915D01*
X60994003Y-32091282D01*
X60610505Y-32015000D01*
X60219495Y-32015000D01*
X59835997Y-32091282D01*
X59474750Y-32240915D01*
X59149636Y-32458149D01*
X58873149Y-32734636D01*
X58655915Y-33059750D01*
X58506282Y-33420997D01*
X58430000Y-33804495D01*
X58212157Y-33804495D01*
X58255085Y-33740250D01*
X58404718Y-33379003D01*
X58481000Y-32995505D01*
X58481000Y-32604495D01*
X58404718Y-32220997D01*
X58255085Y-31859750D01*
X58037851Y-31534636D01*
X57761364Y-31258149D01*
X57436250Y-31040915D01*
X57075003Y-30891282D01*
X56691505Y-30815000D01*
X56300495Y-30815000D01*
X55916997Y-30891282D01*
X55555750Y-31040915D01*
X55230636Y-31258149D01*
X54954149Y-31534636D01*
X54736915Y-31859750D01*
X54587282Y-32220997D01*
X54511000Y-32604495D01*
X49507710Y-32604495D01*
X49361364Y-32458149D01*
X49036250Y-32240915D01*
X48675003Y-32091282D01*
X48291505Y-32015000D01*
X47900495Y-32015000D01*
X47516997Y-32091282D01*
X47155750Y-32240915D01*
X46830636Y-32458149D01*
X46554149Y-32734636D01*
X46336915Y-33059750D01*
X46187282Y-33420997D01*
X46111000Y-33804495D01*
X45214827Y-33804495D01*
X45335436Y-33723907D01*
X45528907Y-33530436D01*
X45680916Y-33302938D01*
X45785622Y-33050156D01*
X45839000Y-32781805D01*
X45839000Y-32508195D01*
X45785622Y-32239844D01*
X45680916Y-31987062D01*
X45528907Y-31759564D01*
X45335436Y-31566093D01*
X45107938Y-31414084D01*
X44887945Y-31322960D01*
X44897743Y-31321011D01*
X45177095Y-31205299D01*
X45428505Y-31037312D01*
X45642312Y-30823505D01*
X45810299Y-30572095D01*
X45926011Y-30292743D01*
X45985000Y-29996184D01*
X45985000Y-29696240D01*
X49679365Y-29696240D01*
X49760025Y-29947868D01*
X50028329Y-30076267D01*
X50316526Y-30149855D01*
X50613543Y-30165804D01*
X50907963Y-30123501D01*
X51188474Y-30024572D01*
X51331975Y-29947868D01*
X51412635Y-29696240D01*
X61998365Y-29696240D01*
X62079025Y-29947868D01*
X62347329Y-30076267D01*
X62635526Y-30149855D01*
X62932543Y-30165804D01*
X63226963Y-30123501D01*
X63507474Y-30024572D01*
X63650975Y-29947868D01*
X63731635Y-29696240D01*
X62865000Y-28829605D01*
X61998365Y-29696240D01*
X51412635Y-29696240D01*
X50546000Y-28829605D01*
X49679365Y-29696240D01*
X45985000Y-29696240D01*
X45985000Y-29693816D01*
X45926011Y-29397257D01*
X45810299Y-29117905D01*
X45642312Y-28866495D01*
X45493360Y-28717543D01*
X49030196Y-28717543D01*
X49072499Y-29011963D01*
X49171428Y-29292474D01*
X49248132Y-29435975D01*
X49499760Y-29516635D01*
X50366395Y-28650000D01*
X50725605Y-28650000D01*
X51592240Y-29516635D01*
X51843868Y-29435975D01*
X51972267Y-29167671D01*
X52045855Y-28879474D01*
X52054550Y-28717543D01*
X61349196Y-28717543D01*
X61391499Y-29011963D01*
X61490428Y-29292474D01*
X61567132Y-29435975D01*
X61818760Y-29516635D01*
X62685395Y-28650000D01*
X63044605Y-28650000D01*
X63911240Y-29516635D01*
X64162868Y-29435975D01*
X64291267Y-29167671D01*
X64364855Y-28879474D01*
X64380804Y-28582457D01*
X64338501Y-28288037D01*
X64239572Y-28007526D01*
X64162868Y-27864025D01*
X63911240Y-27783365D01*
X63044605Y-28650000D01*
X62685395Y-28650000D01*
X61818760Y-27783365D01*
X61567132Y-27864025D01*
X61438733Y-28132329D01*
X61365145Y-28420526D01*
X61349196Y-28717543D01*
X52054550Y-28717543D01*
X52061804Y-28582457D01*
X52019501Y-28288037D01*
X51920572Y-28007526D01*
X51843868Y-27864025D01*
X51592240Y-27783365D01*
X50725605Y-28650000D01*
X50366395Y-28650000D01*
X49499760Y-27783365D01*
X49248132Y-27864025D01*
X49119733Y-28132329D01*
X49046145Y-28420526D01*
X49030196Y-28717543D01*
X45493360Y-28717543D01*
X45428505Y-28652688D01*
X45177095Y-28484701D01*
X44897743Y-28368989D01*
X44601184Y-28310000D01*
X44298816Y-28310000D01*
X44002257Y-28368989D01*
X43722905Y-28484701D01*
X43471495Y-28652688D01*
X43257688Y-28866495D01*
X43089701Y-29117905D01*
X42973989Y-29397257D01*
X42915000Y-29693816D01*
X42915000Y-29996184D01*
X42948671Y-30165461D01*
X40332574Y-32781559D01*
X40300710Y-32807709D01*
X40241524Y-32879828D01*
X40196364Y-32934855D01*
X40118828Y-33079914D01*
X40071082Y-33237312D01*
X40054960Y-33401000D01*
X40059001Y-33442028D01*
X40059000Y-38497632D01*
X40031885Y-38519885D01*
X39925329Y-38649725D01*
X39846150Y-38797858D01*
X39797392Y-38958592D01*
X39780928Y-39125750D01*
X39721072Y-39125750D01*
X39704608Y-38958592D01*
X39655850Y-38797858D01*
X39576671Y-38649725D01*
X39470115Y-38519885D01*
X39443000Y-38497632D01*
X39443000Y-34344018D01*
X39447040Y-34302999D01*
X39430918Y-34139311D01*
X39383172Y-33981913D01*
X39305636Y-33836854D01*
X39294967Y-33823854D01*
X39201291Y-33709709D01*
X39169427Y-33683559D01*
X35651329Y-30165462D01*
X35685000Y-29996184D01*
X35685000Y-29693816D01*
X35626011Y-29397257D01*
X35510299Y-29117905D01*
X35342312Y-28866495D01*
X35128505Y-28652688D01*
X34877095Y-28484701D01*
X34597743Y-28368989D01*
X34301184Y-28310000D01*
X33998816Y-28310000D01*
X33702257Y-28368989D01*
X33422905Y-28484701D01*
X33171495Y-28652688D01*
X33045000Y-28779183D01*
X33045000Y-27603760D01*
X49679365Y-27603760D01*
X50546000Y-28470395D01*
X51412635Y-27603760D01*
X61998365Y-27603760D01*
X62865000Y-28470395D01*
X63731635Y-27603760D01*
X63650975Y-27352132D01*
X63382671Y-27223733D01*
X63094474Y-27150145D01*
X62797457Y-27134196D01*
X62503037Y-27176499D01*
X62222526Y-27275428D01*
X62079025Y-27352132D01*
X61998365Y-27603760D01*
X51412635Y-27603760D01*
X51331975Y-27352132D01*
X51063671Y-27223733D01*
X50775474Y-27150145D01*
X50478457Y-27134196D01*
X50184037Y-27176499D01*
X49903526Y-27275428D01*
X49760025Y-27352132D01*
X49679365Y-27603760D01*
X33045000Y-27603760D01*
X33045000Y-23528872D01*
X33325000Y-23528872D01*
X33325000Y-23969128D01*
X33410890Y-24400925D01*
X33579369Y-24807669D01*
X33823962Y-25173729D01*
X34135271Y-25485038D01*
X34501331Y-25729631D01*
X34908075Y-25898110D01*
X35339872Y-25984000D01*
X35780128Y-25984000D01*
X36211925Y-25898110D01*
X36618669Y-25729631D01*
X36984729Y-25485038D01*
X37296038Y-25173729D01*
X37540631Y-24807669D01*
X37709110Y-24400925D01*
X37795000Y-23969128D01*
X37795000Y-23528872D01*
X66091000Y-23528872D01*
X66091000Y-23969128D01*
X66176890Y-24400925D01*
X66345369Y-24807669D01*
X66589962Y-25173729D01*
X66901271Y-25485038D01*
X67267331Y-25729631D01*
X67674075Y-25898110D01*
X68105872Y-25984000D01*
X68546128Y-25984000D01*
X68977925Y-25898110D01*
X69384669Y-25729631D01*
X69750729Y-25485038D01*
X70062038Y-25173729D01*
X70306631Y-24807669D01*
X70475110Y-24400925D01*
X70561000Y-23969128D01*
X70561000Y-23528872D01*
X70475110Y-23097075D01*
X70306631Y-22690331D01*
X70062038Y-22324271D01*
X69750729Y-22012962D01*
X69384669Y-21768369D01*
X68977925Y-21599890D01*
X68546128Y-21514000D01*
X68105872Y-21514000D01*
X67674075Y-21599890D01*
X67267331Y-21768369D01*
X66901271Y-22012962D01*
X66589962Y-22324271D01*
X66345369Y-22690331D01*
X66176890Y-23097075D01*
X66091000Y-23528872D01*
X37795000Y-23528872D01*
X37709110Y-23097075D01*
X37540631Y-22690331D01*
X37296038Y-22324271D01*
X36984729Y-22012962D01*
X36618669Y-21768369D01*
X36211925Y-21599890D01*
X35780128Y-21514000D01*
X35339872Y-21514000D01*
X34908075Y-21599890D01*
X34501331Y-21768369D01*
X34135271Y-22012962D01*
X33823962Y-22324271D01*
X33579369Y-22690331D01*
X33410890Y-23097075D01*
X33325000Y-23528872D01*
X33045000Y-23528872D01*
X33045000Y-22892278D01*
X33078100Y-22554698D01*
X33166765Y-22261024D01*
X33310787Y-21990157D01*
X33504669Y-21752435D01*
X33741043Y-21556889D01*
X34010892Y-21410982D01*
X34303939Y-21320269D01*
X34639496Y-21285000D01*
X69182722Y-21285000D01*
X69520302Y-21318100D01*
X69520302Y-21318100D01*
G37*
X69520302Y-21318100D02*
X69813976Y-21406765D01*
X70084843Y-21550787D01*
X70322565Y-21744669D01*
X70518111Y-21981043D01*
X70664018Y-22250892D01*
X70754731Y-22543939D01*
X70790000Y-22879496D01*
X70790000Y-32554222D01*
X70723718Y-32220997D01*
X70574085Y-31859750D01*
X70356851Y-31534636D01*
X70080364Y-31258149D01*
X69755250Y-31040915D01*
X69394003Y-30891282D01*
X69010505Y-30815000D01*
X68619495Y-30815000D01*
X68235997Y-30891282D01*
X67874750Y-31040915D01*
X67549636Y-31258149D01*
X67273149Y-31534636D01*
X67055915Y-31859750D01*
X66906282Y-32220997D01*
X66830000Y-32604495D01*
X66830000Y-32995505D01*
X66906282Y-33379003D01*
X67055915Y-33740250D01*
X67273149Y-34065364D01*
X67549636Y-34341851D01*
X67874750Y-34559085D01*
X68235997Y-34708718D01*
X68619495Y-34785000D01*
X69010505Y-34785000D01*
X69394003Y-34708718D01*
X69755250Y-34559085D01*
X70080364Y-34341851D01*
X70356851Y-34065364D01*
X70574085Y-33740250D01*
X70723718Y-33379003D01*
X70790000Y-33045778D01*
X70790001Y-52754225D01*
X70723718Y-52420997D01*
X70574085Y-52059750D01*
X70356851Y-51734636D01*
X70080364Y-51458149D01*
X69755250Y-51240915D01*
X69394003Y-51091282D01*
X69010505Y-51015000D01*
X68619495Y-51015000D01*
X68235997Y-51091282D01*
X67874750Y-51240915D01*
X67549636Y-51458149D01*
X67273149Y-51734636D01*
X67055915Y-52059750D01*
X66906282Y-52420997D01*
X66830000Y-52804495D01*
X66830000Y-53195505D01*
X66906282Y-53579003D01*
X67055915Y-53940250D01*
X67273149Y-54265364D01*
X67549636Y-54541851D01*
X67874750Y-54759085D01*
X68235997Y-54908718D01*
X68619495Y-54985000D01*
X69010505Y-54985000D01*
X69394003Y-54908718D01*
X69755250Y-54759085D01*
X70080364Y-54541851D01*
X70356851Y-54265364D01*
X70574085Y-53940250D01*
X70723718Y-53579003D01*
X70790001Y-53245775D01*
X70790001Y-64660000D01*
X70619320Y-64660000D01*
X70654502Y-64594180D01*
X70690812Y-64474482D01*
X70703072Y-64350000D01*
X70703072Y-62650000D01*
X70690812Y-62525518D01*
X70654502Y-62405820D01*
X70595537Y-62295506D01*
X70516185Y-62198815D01*
X70419494Y-62119463D01*
X70309180Y-62060498D01*
X70240313Y-62039607D01*
X70270134Y-62015134D01*
X70455706Y-61789014D01*
X70593599Y-61531034D01*
X70678513Y-61251111D01*
X70707185Y-60960000D01*
X70678513Y-60668889D01*
X70593599Y-60388966D01*
X70455706Y-60130986D01*
X70270134Y-59904866D01*
X70044014Y-59719294D01*
X69786034Y-59581401D01*
X69506111Y-59496487D01*
X69287950Y-59475000D01*
X69142050Y-59475000D01*
X68923889Y-59496487D01*
X68643966Y-59581401D01*
X68437585Y-59691714D01*
X67200000Y-58454131D01*
X67200000Y-58408132D01*
X67327569Y-58322893D01*
X67537893Y-58112569D01*
X67703144Y-57865253D01*
X67816971Y-57590451D01*
X67875000Y-57298722D01*
X67875000Y-57001278D01*
X67816971Y-56709549D01*
X67703144Y-56434747D01*
X67537893Y-56187431D01*
X67327569Y-55977107D01*
X67080253Y-55811856D01*
X66805451Y-55698029D01*
X66513722Y-55640000D01*
X66216278Y-55640000D01*
X66065800Y-55669932D01*
X65079446Y-54683579D01*
X65053291Y-54651709D01*
X64926146Y-54547364D01*
X64781087Y-54469828D01*
X64623689Y-54422082D01*
X64501019Y-54410000D01*
X64501018Y-54410000D01*
X64460000Y-54405960D01*
X64418982Y-54410000D01*
X57893215Y-54410000D01*
X58037851Y-54265364D01*
X58255085Y-53940250D01*
X58404718Y-53579003D01*
X58481000Y-53195505D01*
X58481000Y-52804495D01*
X58404718Y-52420997D01*
X58255085Y-52059750D01*
X58037851Y-51734636D01*
X57907710Y-51604495D01*
X58430000Y-51604495D01*
X58430000Y-51995505D01*
X58506282Y-52379003D01*
X58655915Y-52740250D01*
X58873149Y-53065364D01*
X59149636Y-53341851D01*
X59474750Y-53559085D01*
X59835997Y-53708718D01*
X60219495Y-53785000D01*
X60610505Y-53785000D01*
X60994003Y-53708718D01*
X61355250Y-53559085D01*
X61680364Y-53341851D01*
X61956851Y-53065364D01*
X62174085Y-52740250D01*
X62323718Y-52379003D01*
X62400000Y-51995505D01*
X62400000Y-51604495D01*
X62323718Y-51220997D01*
X62174085Y-50859750D01*
X61956851Y-50534636D01*
X61680364Y-50258149D01*
X61355250Y-50040915D01*
X60994003Y-49891282D01*
X60610505Y-49815000D01*
X60219495Y-49815000D01*
X59835997Y-49891282D01*
X59474750Y-50040915D01*
X59149636Y-50258149D01*
X58873149Y-50534636D01*
X58655915Y-50859750D01*
X58506282Y-51220997D01*
X58430000Y-51604495D01*
X57907710Y-51604495D01*
X57761364Y-51458149D01*
X57436250Y-51240915D01*
X57075003Y-51091282D01*
X56691505Y-51015000D01*
X56300495Y-51015000D01*
X55916997Y-51091282D01*
X55555750Y-51240915D01*
X55230636Y-51458149D01*
X54954149Y-51734636D01*
X54736915Y-52059750D01*
X54587282Y-52420997D01*
X54574106Y-52487240D01*
X51031443Y-48944578D01*
X51005288Y-48912708D01*
X50878143Y-48808363D01*
X50733084Y-48730827D01*
X50575686Y-48683081D01*
X50453016Y-48670999D01*
X50453015Y-48670999D01*
X50411997Y-48666959D01*
X50370979Y-48670999D01*
X46739455Y-48670999D01*
X46756953Y-48628756D01*
X46839000Y-48216279D01*
X46839000Y-47795721D01*
X46756953Y-47383244D01*
X46596012Y-46994698D01*
X46362363Y-46645017D01*
X46064983Y-46347637D01*
X45715302Y-46113988D01*
X45326756Y-45953047D01*
X44914279Y-45871000D01*
X44493721Y-45871000D01*
X44081244Y-45953047D01*
X43692698Y-46113988D01*
X43343017Y-46347637D01*
X43045637Y-46645017D01*
X42811988Y-46994698D01*
X42651047Y-47383244D01*
X42569000Y-47795721D01*
X42569000Y-48216279D01*
X42651047Y-48628756D01*
X42811988Y-49017302D01*
X43045637Y-49366983D01*
X43343017Y-49664363D01*
X43692698Y-49898012D01*
X44081244Y-50058953D01*
X44493721Y-50141000D01*
X44914279Y-50141000D01*
X45326756Y-50058953D01*
X45503058Y-49985926D01*
X45584562Y-50067431D01*
X45610708Y-50099290D01*
X45642567Y-50125436D01*
X45642569Y-50125438D01*
X45737853Y-50203635D01*
X45882912Y-50281171D01*
X46040310Y-50328917D01*
X46203999Y-50345039D01*
X46245017Y-50340999D01*
X46747786Y-50340999D01*
X46554149Y-50534636D01*
X46336915Y-50859750D01*
X46187282Y-51220997D01*
X46111000Y-51604495D01*
X46111000Y-51995505D01*
X46187282Y-52379003D01*
X46336915Y-52740250D01*
X46554149Y-53065364D01*
X46830636Y-53341851D01*
X47155750Y-53559085D01*
X47516997Y-53708718D01*
X47900495Y-53785000D01*
X48291505Y-53785000D01*
X48675003Y-53708718D01*
X49036250Y-53559085D01*
X49361364Y-53341851D01*
X49637851Y-53065364D01*
X49855085Y-52740250D01*
X50004718Y-52379003D01*
X50081000Y-51995505D01*
X50081000Y-51604495D01*
X50004718Y-51220997D01*
X49855085Y-50859750D01*
X49637851Y-50534636D01*
X49444214Y-50340999D01*
X50066130Y-50340999D01*
X55531557Y-55806427D01*
X55557707Y-55838291D01*
X55673633Y-55933429D01*
X55684852Y-55942636D01*
X55829911Y-56020172D01*
X55987309Y-56067918D01*
X56150997Y-56084040D01*
X56192016Y-56080000D01*
X61385579Y-56080000D01*
X61364188Y-56150518D01*
X61351928Y-56275000D01*
X61351928Y-58025000D01*
X61364188Y-58149482D01*
X61400498Y-58269180D01*
X61459463Y-58379494D01*
X61538815Y-58476185D01*
X61635506Y-58555537D01*
X61745820Y-58614502D01*
X61865518Y-58650812D01*
X61990000Y-58663072D01*
X63740000Y-58663072D01*
X63864482Y-58650812D01*
X63984180Y-58614502D01*
X64094494Y-58555537D01*
X64191185Y-58476185D01*
X64270537Y-58379494D01*
X64329502Y-58269180D01*
X64365812Y-58149482D01*
X64378072Y-58025000D01*
X64378072Y-56343939D01*
X64884932Y-56850800D01*
X64855000Y-57001278D01*
X64855000Y-57298722D01*
X64913029Y-57590451D01*
X65026856Y-57865253D01*
X65192107Y-58112569D01*
X65402431Y-58322893D01*
X65530001Y-58408132D01*
X65530001Y-58758970D01*
X65525960Y-58799998D01*
X65542082Y-58963686D01*
X65589828Y-59121084D01*
X65589829Y-59121085D01*
X65667365Y-59266144D01*
X65771710Y-59393289D01*
X65803574Y-59419439D01*
X66019448Y-59635313D01*
X65908080Y-59688359D01*
X65674731Y-59862412D01*
X65479822Y-60078645D01*
X65410201Y-60195523D01*
X65375706Y-60130986D01*
X65190134Y-59904866D01*
X64964014Y-59719294D01*
X64706034Y-59581401D01*
X64426111Y-59496487D01*
X64207950Y-59475000D01*
X64062050Y-59475000D01*
X63843889Y-59496487D01*
X63563966Y-59581401D01*
X63305986Y-59719294D01*
X63079866Y-59904866D01*
X62894294Y-60130986D01*
X62865000Y-60185791D01*
X62835706Y-60130986D01*
X62650134Y-59904866D01*
X62424014Y-59719294D01*
X62166034Y-59581401D01*
X61886111Y-59496487D01*
X61667950Y-59475000D01*
X61522050Y-59475000D01*
X61303889Y-59496487D01*
X61023966Y-59581401D01*
X60817584Y-59691714D01*
X57714448Y-56588579D01*
X57688293Y-56556709D01*
X57561148Y-56452364D01*
X57416089Y-56374828D01*
X57258691Y-56327082D01*
X57136021Y-56315000D01*
X57136020Y-56315000D01*
X57095002Y-56310960D01*
X57053984Y-56315000D01*
X55304132Y-56315000D01*
X55218893Y-56187431D01*
X55008569Y-55977107D01*
X54761253Y-55811856D01*
X54486451Y-55698029D01*
X54194722Y-55640000D01*
X53897278Y-55640000D01*
X53746800Y-55669932D01*
X52760446Y-54683579D01*
X52734291Y-54651709D01*
X52607146Y-54547364D01*
X52462087Y-54469828D01*
X52304689Y-54422082D01*
X52182019Y-54410000D01*
X52182018Y-54410000D01*
X52141000Y-54405960D01*
X52099982Y-54410000D01*
X47716868Y-54410000D01*
X42251447Y-48944580D01*
X42251438Y-48944569D01*
X42111926Y-48805058D01*
X42184953Y-48628756D01*
X42267000Y-48216279D01*
X42267000Y-47795721D01*
X42184953Y-47383244D01*
X42024012Y-46994698D01*
X41790363Y-46645017D01*
X41492983Y-46347637D01*
X41143302Y-46113988D01*
X40754756Y-45953047D01*
X40342279Y-45871000D01*
X39921721Y-45871000D01*
X39509244Y-45953047D01*
X39120698Y-46113988D01*
X38981388Y-46207072D01*
X38981388Y-41983535D01*
X39031408Y-41978608D01*
X39192142Y-41929850D01*
X39340275Y-41850671D01*
X39470115Y-41744115D01*
X39576671Y-41614275D01*
X39655850Y-41466142D01*
X39688957Y-41357000D01*
X39780928Y-41357000D01*
X39793188Y-41481482D01*
X39829498Y-41601180D01*
X39888463Y-41711494D01*
X39967815Y-41808185D01*
X40064506Y-41887537D01*
X40174820Y-41946502D01*
X40294518Y-41982812D01*
X40419000Y-41995072D01*
X40608250Y-41992000D01*
X40767000Y-41833250D01*
X40767000Y-41046500D01*
X41021000Y-41046500D01*
X41021000Y-41833250D01*
X41179750Y-41992000D01*
X41369000Y-41995072D01*
X41493482Y-41982812D01*
X41613180Y-41946502D01*
X41723494Y-41887537D01*
X41820185Y-41808185D01*
X41899537Y-41711494D01*
X41958502Y-41601180D01*
X41994812Y-41481482D01*
X42007072Y-41357000D01*
X42066928Y-41357000D01*
X42079188Y-41481482D01*
X42115498Y-41601180D01*
X42174463Y-41711494D01*
X42253815Y-41808185D01*
X42350506Y-41887537D01*
X42460820Y-41946502D01*
X42580518Y-41982812D01*
X42705000Y-41995072D01*
X42894250Y-41992000D01*
X43053000Y-41833250D01*
X43053000Y-41046500D01*
X43307000Y-41046500D01*
X43307000Y-41833250D01*
X43465750Y-41992000D01*
X43655000Y-41995072D01*
X43779482Y-41982812D01*
X43899180Y-41946502D01*
X44009494Y-41887537D01*
X44106185Y-41808185D01*
X44185537Y-41711494D01*
X44244502Y-41601180D01*
X44280812Y-41481482D01*
X44290560Y-41382500D01*
X44352928Y-41382500D01*
X44365188Y-41506982D01*
X44401498Y-41626680D01*
X44460463Y-41736994D01*
X44539815Y-41833685D01*
X44636506Y-41913037D01*
X44746820Y-41972002D01*
X44866518Y-42008312D01*
X44991000Y-42020572D01*
X45180250Y-42017500D01*
X45339000Y-41858750D01*
X45339000Y-41072000D01*
X45593000Y-41072000D01*
X45593000Y-41858750D01*
X45751750Y-42017500D01*
X45941000Y-42020572D01*
X46065482Y-42008312D01*
X46185180Y-41972002D01*
X46295494Y-41913037D01*
X46392185Y-41833685D01*
X46471537Y-41736994D01*
X46530502Y-41626680D01*
X46566812Y-41506982D01*
X46579072Y-41382500D01*
X46576000Y-41230750D01*
X46417250Y-41072000D01*
X45593000Y-41072000D01*
X45339000Y-41072000D01*
X44514750Y-41072000D01*
X44356000Y-41230750D01*
X44352928Y-41382500D01*
X44290560Y-41382500D01*
X44293072Y-41357000D01*
X44290000Y-41205250D01*
X44131250Y-41046500D01*
X43307000Y-41046500D01*
X43053000Y-41046500D01*
X42228750Y-41046500D01*
X42070000Y-41205250D01*
X42066928Y-41357000D01*
X42007072Y-41357000D01*
X42004000Y-41205250D01*
X41845250Y-41046500D01*
X41021000Y-41046500D01*
X40767000Y-41046500D01*
X39942750Y-41046500D01*
X39784000Y-41205250D01*
X39780928Y-41357000D01*
X39688957Y-41357000D01*
X39704608Y-41305408D01*
X39721072Y-41138250D01*
X39721072Y-40700750D01*
X39704608Y-40533592D01*
X39655850Y-40372858D01*
X39576671Y-40224725D01*
X39500574Y-40132000D01*
X39576671Y-40039275D01*
X39655850Y-39891142D01*
X39704608Y-39730408D01*
X39721072Y-39563250D01*
X39721072Y-39125750D01*
X39780928Y-39125750D01*
X39780928Y-39563250D01*
X39797392Y-39730408D01*
X39846150Y-39891142D01*
X39925329Y-40039275D01*
X39943100Y-40060930D01*
X39888463Y-40127506D01*
X39829498Y-40237820D01*
X39793188Y-40357518D01*
X39780928Y-40482000D01*
X39784000Y-40633750D01*
X39942750Y-40792500D01*
X40767000Y-40792500D01*
X40767000Y-40772500D01*
X41021000Y-40772500D01*
X41021000Y-40792500D01*
X41845250Y-40792500D01*
X42004000Y-40633750D01*
X42007072Y-40482000D01*
X41994812Y-40357518D01*
X41958502Y-40237820D01*
X41899537Y-40127506D01*
X41844900Y-40060930D01*
X41862671Y-40039275D01*
X41941850Y-39891142D01*
X41990608Y-39730408D01*
X42007072Y-39563250D01*
X42007072Y-39352440D01*
X42066928Y-39412296D01*
X42066928Y-39563250D01*
X42083392Y-39730408D01*
X42132150Y-39891142D01*
X42211329Y-40039275D01*
X42229100Y-40060930D01*
X42174463Y-40127506D01*
X42115498Y-40237820D01*
X42079188Y-40357518D01*
X42066928Y-40482000D01*
X42070000Y-40633750D01*
X42228750Y-40792500D01*
X43053000Y-40792500D01*
X43053000Y-40772500D01*
X43307000Y-40772500D01*
X43307000Y-40792500D01*
X44131250Y-40792500D01*
X44290000Y-40633750D01*
X44293072Y-40482000D01*
X44280812Y-40357518D01*
X44244502Y-40237820D01*
X44185537Y-40127506D01*
X44130900Y-40060930D01*
X44148671Y-40039275D01*
X44227850Y-39891142D01*
X44276608Y-39730408D01*
X44293072Y-39563250D01*
X44293072Y-39125750D01*
X44276608Y-38958592D01*
X44227850Y-38797858D01*
X44148671Y-38649725D01*
X44042115Y-38519885D01*
X43912275Y-38413329D01*
X43764142Y-38334150D01*
X43603408Y-38285392D01*
X43436250Y-38268928D01*
X43285296Y-38268928D01*
X42745000Y-37728633D01*
X42745000Y-35445000D01*
X42911928Y-35445000D01*
X42911928Y-37245000D01*
X42924188Y-37369482D01*
X42960498Y-37489180D01*
X43019463Y-37599494D01*
X43098815Y-37696185D01*
X43195506Y-37775537D01*
X43305820Y-37834502D01*
X43425518Y-37870812D01*
X43550000Y-37883072D01*
X44631001Y-37883072D01*
X44631000Y-38523132D01*
X44603885Y-38545385D01*
X44497329Y-38675225D01*
X44418150Y-38823358D01*
X44369392Y-38984092D01*
X44352928Y-39151250D01*
X44352928Y-39588750D01*
X44369392Y-39755908D01*
X44418150Y-39916642D01*
X44497329Y-40064775D01*
X44515100Y-40086430D01*
X44460463Y-40153006D01*
X44401498Y-40263320D01*
X44365188Y-40383018D01*
X44352928Y-40507500D01*
X44356000Y-40659250D01*
X44514750Y-40818000D01*
X45339000Y-40818000D01*
X45339000Y-40798000D01*
X45593000Y-40798000D01*
X45593000Y-40818000D01*
X46417250Y-40818000D01*
X46576000Y-40659250D01*
X46579072Y-40507500D01*
X46566812Y-40383018D01*
X46530502Y-40263320D01*
X46471537Y-40153006D01*
X46416900Y-40086430D01*
X46434671Y-40064775D01*
X46513850Y-39916642D01*
X46562608Y-39755908D01*
X46579072Y-39588750D01*
X46579072Y-39151250D01*
X46562608Y-38984092D01*
X46513850Y-38823358D01*
X46434671Y-38675225D01*
X46328115Y-38545385D01*
X46301000Y-38523132D01*
X46301000Y-37402018D01*
X46305040Y-37361000D01*
X46288918Y-37197311D01*
X46241172Y-37039913D01*
X46163636Y-36894854D01*
X46059291Y-36767709D01*
X46027426Y-36741558D01*
X45988072Y-36702204D01*
X45988072Y-35445000D01*
X45975812Y-35320518D01*
X45939502Y-35200820D01*
X45880537Y-35090506D01*
X45801185Y-34993815D01*
X45704494Y-34914463D01*
X45594180Y-34855498D01*
X45474482Y-34819188D01*
X45350000Y-34806928D01*
X43550000Y-34806928D01*
X43425518Y-34819188D01*
X43305820Y-34855498D01*
X43195506Y-34914463D01*
X43098815Y-34993815D01*
X43019463Y-35090506D01*
X42960498Y-35200820D01*
X42924188Y-35320518D01*
X42911928Y-35445000D01*
X42745000Y-35445000D01*
X42745000Y-34000867D01*
X43308744Y-33437124D01*
X43371093Y-33530436D01*
X43564564Y-33723907D01*
X43792062Y-33875916D01*
X44044844Y-33980622D01*
X44313195Y-34034000D01*
X44586805Y-34034000D01*
X44855156Y-33980622D01*
X45107938Y-33875916D01*
X45214827Y-33804495D01*
X46111000Y-33804495D01*
X46111000Y-34195505D01*
X46187282Y-34579003D01*
X46336915Y-34940250D01*
X46554149Y-35265364D01*
X46830636Y-35541851D01*
X47155750Y-35759085D01*
X47516997Y-35908718D01*
X47900495Y-35985000D01*
X48291505Y-35985000D01*
X48675003Y-35908718D01*
X49036250Y-35759085D01*
X49361364Y-35541851D01*
X49637851Y-35265364D01*
X49855085Y-34940250D01*
X50004718Y-34579003D01*
X50081000Y-34195505D01*
X50081000Y-33804495D01*
X50004718Y-33420997D01*
X49855085Y-33059750D01*
X49637851Y-32734636D01*
X49507710Y-32604495D01*
X54511000Y-32604495D01*
X54511000Y-32995505D01*
X54587282Y-33379003D01*
X54736915Y-33740250D01*
X54954149Y-34065364D01*
X55230636Y-34341851D01*
X55555750Y-34559085D01*
X55916997Y-34708718D01*
X56300495Y-34785000D01*
X56691505Y-34785000D01*
X57075003Y-34708718D01*
X57436250Y-34559085D01*
X57761364Y-34341851D01*
X58037851Y-34065364D01*
X58212157Y-33804495D01*
X58430000Y-33804495D01*
X58430000Y-34195505D01*
X58506282Y-34579003D01*
X58655915Y-34940250D01*
X58873149Y-35265364D01*
X59149636Y-35541851D01*
X59474750Y-35759085D01*
X59835997Y-35908718D01*
X60219495Y-35985000D01*
X60610505Y-35985000D01*
X60994003Y-35908718D01*
X61355250Y-35759085D01*
X61680364Y-35541851D01*
X61956851Y-35265364D01*
X62174085Y-34940250D01*
X62323718Y-34579003D01*
X62400000Y-34195505D01*
X62400000Y-33804495D01*
X62323718Y-33420997D01*
X62174085Y-33059750D01*
X61956851Y-32734636D01*
X61680364Y-32458149D01*
X61355250Y-32240915D01*
X60994003Y-32091282D01*
X60610505Y-32015000D01*
X60219495Y-32015000D01*
X59835997Y-32091282D01*
X59474750Y-32240915D01*
X59149636Y-32458149D01*
X58873149Y-32734636D01*
X58655915Y-33059750D01*
X58506282Y-33420997D01*
X58430000Y-33804495D01*
X58212157Y-33804495D01*
X58255085Y-33740250D01*
X58404718Y-33379003D01*
X58481000Y-32995505D01*
X58481000Y-32604495D01*
X58404718Y-32220997D01*
X58255085Y-31859750D01*
X58037851Y-31534636D01*
X57761364Y-31258149D01*
X57436250Y-31040915D01*
X57075003Y-30891282D01*
X56691505Y-30815000D01*
X56300495Y-30815000D01*
X55916997Y-30891282D01*
X55555750Y-31040915D01*
X55230636Y-31258149D01*
X54954149Y-31534636D01*
X54736915Y-31859750D01*
X54587282Y-32220997D01*
X54511000Y-32604495D01*
X49507710Y-32604495D01*
X49361364Y-32458149D01*
X49036250Y-32240915D01*
X48675003Y-32091282D01*
X48291505Y-32015000D01*
X47900495Y-32015000D01*
X47516997Y-32091282D01*
X47155750Y-32240915D01*
X46830636Y-32458149D01*
X46554149Y-32734636D01*
X46336915Y-33059750D01*
X46187282Y-33420997D01*
X46111000Y-33804495D01*
X45214827Y-33804495D01*
X45335436Y-33723907D01*
X45528907Y-33530436D01*
X45680916Y-33302938D01*
X45785622Y-33050156D01*
X45839000Y-32781805D01*
X45839000Y-32508195D01*
X45785622Y-32239844D01*
X45680916Y-31987062D01*
X45528907Y-31759564D01*
X45335436Y-31566093D01*
X45107938Y-31414084D01*
X44887945Y-31322960D01*
X44897743Y-31321011D01*
X45177095Y-31205299D01*
X45428505Y-31037312D01*
X45642312Y-30823505D01*
X45810299Y-30572095D01*
X45926011Y-30292743D01*
X45985000Y-29996184D01*
X45985000Y-29696240D01*
X49679365Y-29696240D01*
X49760025Y-29947868D01*
X50028329Y-30076267D01*
X50316526Y-30149855D01*
X50613543Y-30165804D01*
X50907963Y-30123501D01*
X51188474Y-30024572D01*
X51331975Y-29947868D01*
X51412635Y-29696240D01*
X61998365Y-29696240D01*
X62079025Y-29947868D01*
X62347329Y-30076267D01*
X62635526Y-30149855D01*
X62932543Y-30165804D01*
X63226963Y-30123501D01*
X63507474Y-30024572D01*
X63650975Y-29947868D01*
X63731635Y-29696240D01*
X62865000Y-28829605D01*
X61998365Y-29696240D01*
X51412635Y-29696240D01*
X50546000Y-28829605D01*
X49679365Y-29696240D01*
X45985000Y-29696240D01*
X45985000Y-29693816D01*
X45926011Y-29397257D01*
X45810299Y-29117905D01*
X45642312Y-28866495D01*
X45493360Y-28717543D01*
X49030196Y-28717543D01*
X49072499Y-29011963D01*
X49171428Y-29292474D01*
X49248132Y-29435975D01*
X49499760Y-29516635D01*
X50366395Y-28650000D01*
X50725605Y-28650000D01*
X51592240Y-29516635D01*
X51843868Y-29435975D01*
X51972267Y-29167671D01*
X52045855Y-28879474D01*
X52054550Y-28717543D01*
X61349196Y-28717543D01*
X61391499Y-29011963D01*
X61490428Y-29292474D01*
X61567132Y-29435975D01*
X61818760Y-29516635D01*
X62685395Y-28650000D01*
X63044605Y-28650000D01*
X63911240Y-29516635D01*
X64162868Y-29435975D01*
X64291267Y-29167671D01*
X64364855Y-28879474D01*
X64380804Y-28582457D01*
X64338501Y-28288037D01*
X64239572Y-28007526D01*
X64162868Y-27864025D01*
X63911240Y-27783365D01*
X63044605Y-28650000D01*
X62685395Y-28650000D01*
X61818760Y-27783365D01*
X61567132Y-27864025D01*
X61438733Y-28132329D01*
X61365145Y-28420526D01*
X61349196Y-28717543D01*
X52054550Y-28717543D01*
X52061804Y-28582457D01*
X52019501Y-28288037D01*
X51920572Y-28007526D01*
X51843868Y-27864025D01*
X51592240Y-27783365D01*
X50725605Y-28650000D01*
X50366395Y-28650000D01*
X49499760Y-27783365D01*
X49248132Y-27864025D01*
X49119733Y-28132329D01*
X49046145Y-28420526D01*
X49030196Y-28717543D01*
X45493360Y-28717543D01*
X45428505Y-28652688D01*
X45177095Y-28484701D01*
X44897743Y-28368989D01*
X44601184Y-28310000D01*
X44298816Y-28310000D01*
X44002257Y-28368989D01*
X43722905Y-28484701D01*
X43471495Y-28652688D01*
X43257688Y-28866495D01*
X43089701Y-29117905D01*
X42973989Y-29397257D01*
X42915000Y-29693816D01*
X42915000Y-29996184D01*
X42948671Y-30165461D01*
X40332574Y-32781559D01*
X40300710Y-32807709D01*
X40241524Y-32879828D01*
X40196364Y-32934855D01*
X40118828Y-33079914D01*
X40071082Y-33237312D01*
X40054960Y-33401000D01*
X40059001Y-33442028D01*
X40059000Y-38497632D01*
X40031885Y-38519885D01*
X39925329Y-38649725D01*
X39846150Y-38797858D01*
X39797392Y-38958592D01*
X39780928Y-39125750D01*
X39721072Y-39125750D01*
X39704608Y-38958592D01*
X39655850Y-38797858D01*
X39576671Y-38649725D01*
X39470115Y-38519885D01*
X39443000Y-38497632D01*
X39443000Y-34344018D01*
X39447040Y-34302999D01*
X39430918Y-34139311D01*
X39383172Y-33981913D01*
X39305636Y-33836854D01*
X39294967Y-33823854D01*
X39201291Y-33709709D01*
X39169427Y-33683559D01*
X35651329Y-30165462D01*
X35685000Y-29996184D01*
X35685000Y-29693816D01*
X35626011Y-29397257D01*
X35510299Y-29117905D01*
X35342312Y-28866495D01*
X35128505Y-28652688D01*
X34877095Y-28484701D01*
X34597743Y-28368989D01*
X34301184Y-28310000D01*
X33998816Y-28310000D01*
X33702257Y-28368989D01*
X33422905Y-28484701D01*
X33171495Y-28652688D01*
X33045000Y-28779183D01*
X33045000Y-27603760D01*
X49679365Y-27603760D01*
X50546000Y-28470395D01*
X51412635Y-27603760D01*
X61998365Y-27603760D01*
X62865000Y-28470395D01*
X63731635Y-27603760D01*
X63650975Y-27352132D01*
X63382671Y-27223733D01*
X63094474Y-27150145D01*
X62797457Y-27134196D01*
X62503037Y-27176499D01*
X62222526Y-27275428D01*
X62079025Y-27352132D01*
X61998365Y-27603760D01*
X51412635Y-27603760D01*
X51331975Y-27352132D01*
X51063671Y-27223733D01*
X50775474Y-27150145D01*
X50478457Y-27134196D01*
X50184037Y-27176499D01*
X49903526Y-27275428D01*
X49760025Y-27352132D01*
X49679365Y-27603760D01*
X33045000Y-27603760D01*
X33045000Y-23528872D01*
X33325000Y-23528872D01*
X33325000Y-23969128D01*
X33410890Y-24400925D01*
X33579369Y-24807669D01*
X33823962Y-25173729D01*
X34135271Y-25485038D01*
X34501331Y-25729631D01*
X34908075Y-25898110D01*
X35339872Y-25984000D01*
X35780128Y-25984000D01*
X36211925Y-25898110D01*
X36618669Y-25729631D01*
X36984729Y-25485038D01*
X37296038Y-25173729D01*
X37540631Y-24807669D01*
X37709110Y-24400925D01*
X37795000Y-23969128D01*
X37795000Y-23528872D01*
X66091000Y-23528872D01*
X66091000Y-23969128D01*
X66176890Y-24400925D01*
X66345369Y-24807669D01*
X66589962Y-25173729D01*
X66901271Y-25485038D01*
X67267331Y-25729631D01*
X67674075Y-25898110D01*
X68105872Y-25984000D01*
X68546128Y-25984000D01*
X68977925Y-25898110D01*
X69384669Y-25729631D01*
X69750729Y-25485038D01*
X70062038Y-25173729D01*
X70306631Y-24807669D01*
X70475110Y-24400925D01*
X70561000Y-23969128D01*
X70561000Y-23528872D01*
X70475110Y-23097075D01*
X70306631Y-22690331D01*
X70062038Y-22324271D01*
X69750729Y-22012962D01*
X69384669Y-21768369D01*
X68977925Y-21599890D01*
X68546128Y-21514000D01*
X68105872Y-21514000D01*
X67674075Y-21599890D01*
X67267331Y-21768369D01*
X66901271Y-22012962D01*
X66589962Y-22324271D01*
X66345369Y-22690331D01*
X66176890Y-23097075D01*
X66091000Y-23528872D01*
X37795000Y-23528872D01*
X37709110Y-23097075D01*
X37540631Y-22690331D01*
X37296038Y-22324271D01*
X36984729Y-22012962D01*
X36618669Y-21768369D01*
X36211925Y-21599890D01*
X35780128Y-21514000D01*
X35339872Y-21514000D01*
X34908075Y-21599890D01*
X34501331Y-21768369D01*
X34135271Y-22012962D01*
X33823962Y-22324271D01*
X33579369Y-22690331D01*
X33410890Y-23097075D01*
X33325000Y-23528872D01*
X33045000Y-23528872D01*
X33045000Y-22892278D01*
X33078100Y-22554698D01*
X33166765Y-22261024D01*
X33310787Y-21990157D01*
X33504669Y-21752435D01*
X33741043Y-21556889D01*
X34010892Y-21410982D01*
X34303939Y-21320269D01*
X34639496Y-21285000D01*
X69182722Y-21285000D01*
X69520302Y-21318100D01*
G36*
X66802000Y-60833000D02*
G01*
X66822000Y-60833000D01*
X66822000Y-61087000D01*
X66802000Y-61087000D01*
X66802000Y-61107000D01*
X66548000Y-61107000D01*
X66548000Y-61087000D01*
X66528000Y-61087000D01*
X66528000Y-60833000D01*
X66548000Y-60833000D01*
X66548000Y-60813000D01*
X66802000Y-60813000D01*
X66802000Y-60833000D01*
X66802000Y-60833000D01*
G37*
X66802000Y-60833000D02*
X66822000Y-60833000D01*
X66822000Y-61087000D01*
X66802000Y-61087000D01*
X66802000Y-61107000D01*
X66548000Y-61107000D01*
X66548000Y-61087000D01*
X66528000Y-61087000D01*
X66528000Y-60833000D01*
X66548000Y-60833000D01*
X66548000Y-60813000D01*
X66802000Y-60813000D01*
X66802000Y-60833000D01*
M02*
