G04 #@! TF.GenerationSoftware,KiCad,Pcbnew,(5.1.4)-1*
G04 #@! TF.CreationDate,2019-12-12T19:48:25+09:00*
G04 #@! TF.ProjectId,microcar_head,6d696372-6f63-4617-925f-686561642e6b,rev?*
G04 #@! TF.SameCoordinates,Original*
G04 #@! TF.FileFunction,Paste,Top*
G04 #@! TF.FilePolarity,Positive*
%FSLAX46Y46*%
G04 Gerber Fmt 4.6, Leading zero omitted, Abs format (unit mm)*
G04 Created by KiCad (PCBNEW (5.1.4)-1) date 2019-12-12 19:48:25*
%MOMM*%
%LPD*%
G04 APERTURE LIST*
%ADD10C,0.100000*%
%ADD11C,0.875000*%
G04 APERTURE END LIST*
D10*
G36*
X34313691Y-38908053D02*
G01*
X34334926Y-38911203D01*
X34355750Y-38916419D01*
X34375962Y-38923651D01*
X34395368Y-38932830D01*
X34413781Y-38943866D01*
X34431024Y-38956654D01*
X34446930Y-38971070D01*
X34461346Y-38986976D01*
X34474134Y-39004219D01*
X34485170Y-39022632D01*
X34494349Y-39042038D01*
X34501581Y-39062250D01*
X34506797Y-39083074D01*
X34509947Y-39104309D01*
X34511000Y-39125750D01*
X34511000Y-39563250D01*
X34509947Y-39584691D01*
X34506797Y-39605926D01*
X34501581Y-39626750D01*
X34494349Y-39646962D01*
X34485170Y-39666368D01*
X34474134Y-39684781D01*
X34461346Y-39702024D01*
X34446930Y-39717930D01*
X34431024Y-39732346D01*
X34413781Y-39745134D01*
X34395368Y-39756170D01*
X34375962Y-39765349D01*
X34355750Y-39772581D01*
X34334926Y-39777797D01*
X34313691Y-39780947D01*
X34292250Y-39782000D01*
X33779750Y-39782000D01*
X33758309Y-39780947D01*
X33737074Y-39777797D01*
X33716250Y-39772581D01*
X33696038Y-39765349D01*
X33676632Y-39756170D01*
X33658219Y-39745134D01*
X33640976Y-39732346D01*
X33625070Y-39717930D01*
X33610654Y-39702024D01*
X33597866Y-39684781D01*
X33586830Y-39666368D01*
X33577651Y-39646962D01*
X33570419Y-39626750D01*
X33565203Y-39605926D01*
X33562053Y-39584691D01*
X33561000Y-39563250D01*
X33561000Y-39125750D01*
X33562053Y-39104309D01*
X33565203Y-39083074D01*
X33570419Y-39062250D01*
X33577651Y-39042038D01*
X33586830Y-39022632D01*
X33597866Y-39004219D01*
X33610654Y-38986976D01*
X33625070Y-38971070D01*
X33640976Y-38956654D01*
X33658219Y-38943866D01*
X33676632Y-38932830D01*
X33696038Y-38923651D01*
X33716250Y-38916419D01*
X33737074Y-38911203D01*
X33758309Y-38908053D01*
X33779750Y-38907000D01*
X34292250Y-38907000D01*
X34313691Y-38908053D01*
X34313691Y-38908053D01*
G37*
D11*
X34036000Y-39344500D03*
D10*
G36*
X34313691Y-40483053D02*
G01*
X34334926Y-40486203D01*
X34355750Y-40491419D01*
X34375962Y-40498651D01*
X34395368Y-40507830D01*
X34413781Y-40518866D01*
X34431024Y-40531654D01*
X34446930Y-40546070D01*
X34461346Y-40561976D01*
X34474134Y-40579219D01*
X34485170Y-40597632D01*
X34494349Y-40617038D01*
X34501581Y-40637250D01*
X34506797Y-40658074D01*
X34509947Y-40679309D01*
X34511000Y-40700750D01*
X34511000Y-41138250D01*
X34509947Y-41159691D01*
X34506797Y-41180926D01*
X34501581Y-41201750D01*
X34494349Y-41221962D01*
X34485170Y-41241368D01*
X34474134Y-41259781D01*
X34461346Y-41277024D01*
X34446930Y-41292930D01*
X34431024Y-41307346D01*
X34413781Y-41320134D01*
X34395368Y-41331170D01*
X34375962Y-41340349D01*
X34355750Y-41347581D01*
X34334926Y-41352797D01*
X34313691Y-41355947D01*
X34292250Y-41357000D01*
X33779750Y-41357000D01*
X33758309Y-41355947D01*
X33737074Y-41352797D01*
X33716250Y-41347581D01*
X33696038Y-41340349D01*
X33676632Y-41331170D01*
X33658219Y-41320134D01*
X33640976Y-41307346D01*
X33625070Y-41292930D01*
X33610654Y-41277024D01*
X33597866Y-41259781D01*
X33586830Y-41241368D01*
X33577651Y-41221962D01*
X33570419Y-41201750D01*
X33565203Y-41180926D01*
X33562053Y-41159691D01*
X33561000Y-41138250D01*
X33561000Y-40700750D01*
X33562053Y-40679309D01*
X33565203Y-40658074D01*
X33570419Y-40637250D01*
X33577651Y-40617038D01*
X33586830Y-40597632D01*
X33597866Y-40579219D01*
X33610654Y-40561976D01*
X33625070Y-40546070D01*
X33640976Y-40531654D01*
X33658219Y-40518866D01*
X33676632Y-40507830D01*
X33696038Y-40498651D01*
X33716250Y-40491419D01*
X33737074Y-40486203D01*
X33758309Y-40483053D01*
X33779750Y-40482000D01*
X34292250Y-40482000D01*
X34313691Y-40483053D01*
X34313691Y-40483053D01*
G37*
D11*
X34036000Y-40919500D03*
D10*
G36*
X36599691Y-38908053D02*
G01*
X36620926Y-38911203D01*
X36641750Y-38916419D01*
X36661962Y-38923651D01*
X36681368Y-38932830D01*
X36699781Y-38943866D01*
X36717024Y-38956654D01*
X36732930Y-38971070D01*
X36747346Y-38986976D01*
X36760134Y-39004219D01*
X36771170Y-39022632D01*
X36780349Y-39042038D01*
X36787581Y-39062250D01*
X36792797Y-39083074D01*
X36795947Y-39104309D01*
X36797000Y-39125750D01*
X36797000Y-39563250D01*
X36795947Y-39584691D01*
X36792797Y-39605926D01*
X36787581Y-39626750D01*
X36780349Y-39646962D01*
X36771170Y-39666368D01*
X36760134Y-39684781D01*
X36747346Y-39702024D01*
X36732930Y-39717930D01*
X36717024Y-39732346D01*
X36699781Y-39745134D01*
X36681368Y-39756170D01*
X36661962Y-39765349D01*
X36641750Y-39772581D01*
X36620926Y-39777797D01*
X36599691Y-39780947D01*
X36578250Y-39782000D01*
X36065750Y-39782000D01*
X36044309Y-39780947D01*
X36023074Y-39777797D01*
X36002250Y-39772581D01*
X35982038Y-39765349D01*
X35962632Y-39756170D01*
X35944219Y-39745134D01*
X35926976Y-39732346D01*
X35911070Y-39717930D01*
X35896654Y-39702024D01*
X35883866Y-39684781D01*
X35872830Y-39666368D01*
X35863651Y-39646962D01*
X35856419Y-39626750D01*
X35851203Y-39605926D01*
X35848053Y-39584691D01*
X35847000Y-39563250D01*
X35847000Y-39125750D01*
X35848053Y-39104309D01*
X35851203Y-39083074D01*
X35856419Y-39062250D01*
X35863651Y-39042038D01*
X35872830Y-39022632D01*
X35883866Y-39004219D01*
X35896654Y-38986976D01*
X35911070Y-38971070D01*
X35926976Y-38956654D01*
X35944219Y-38943866D01*
X35962632Y-38932830D01*
X35982038Y-38923651D01*
X36002250Y-38916419D01*
X36023074Y-38911203D01*
X36044309Y-38908053D01*
X36065750Y-38907000D01*
X36578250Y-38907000D01*
X36599691Y-38908053D01*
X36599691Y-38908053D01*
G37*
D11*
X36322000Y-39344500D03*
D10*
G36*
X36599691Y-40483053D02*
G01*
X36620926Y-40486203D01*
X36641750Y-40491419D01*
X36661962Y-40498651D01*
X36681368Y-40507830D01*
X36699781Y-40518866D01*
X36717024Y-40531654D01*
X36732930Y-40546070D01*
X36747346Y-40561976D01*
X36760134Y-40579219D01*
X36771170Y-40597632D01*
X36780349Y-40617038D01*
X36787581Y-40637250D01*
X36792797Y-40658074D01*
X36795947Y-40679309D01*
X36797000Y-40700750D01*
X36797000Y-41138250D01*
X36795947Y-41159691D01*
X36792797Y-41180926D01*
X36787581Y-41201750D01*
X36780349Y-41221962D01*
X36771170Y-41241368D01*
X36760134Y-41259781D01*
X36747346Y-41277024D01*
X36732930Y-41292930D01*
X36717024Y-41307346D01*
X36699781Y-41320134D01*
X36681368Y-41331170D01*
X36661962Y-41340349D01*
X36641750Y-41347581D01*
X36620926Y-41352797D01*
X36599691Y-41355947D01*
X36578250Y-41357000D01*
X36065750Y-41357000D01*
X36044309Y-41355947D01*
X36023074Y-41352797D01*
X36002250Y-41347581D01*
X35982038Y-41340349D01*
X35962632Y-41331170D01*
X35944219Y-41320134D01*
X35926976Y-41307346D01*
X35911070Y-41292930D01*
X35896654Y-41277024D01*
X35883866Y-41259781D01*
X35872830Y-41241368D01*
X35863651Y-41221962D01*
X35856419Y-41201750D01*
X35851203Y-41180926D01*
X35848053Y-41159691D01*
X35847000Y-41138250D01*
X35847000Y-40700750D01*
X35848053Y-40679309D01*
X35851203Y-40658074D01*
X35856419Y-40637250D01*
X35863651Y-40617038D01*
X35872830Y-40597632D01*
X35883866Y-40579219D01*
X35896654Y-40561976D01*
X35911070Y-40546070D01*
X35926976Y-40531654D01*
X35944219Y-40518866D01*
X35962632Y-40507830D01*
X35982038Y-40498651D01*
X36002250Y-40491419D01*
X36023074Y-40486203D01*
X36044309Y-40483053D01*
X36065750Y-40482000D01*
X36578250Y-40482000D01*
X36599691Y-40483053D01*
X36599691Y-40483053D01*
G37*
D11*
X36322000Y-40919500D03*
D10*
G36*
X41171691Y-38908053D02*
G01*
X41192926Y-38911203D01*
X41213750Y-38916419D01*
X41233962Y-38923651D01*
X41253368Y-38932830D01*
X41271781Y-38943866D01*
X41289024Y-38956654D01*
X41304930Y-38971070D01*
X41319346Y-38986976D01*
X41332134Y-39004219D01*
X41343170Y-39022632D01*
X41352349Y-39042038D01*
X41359581Y-39062250D01*
X41364797Y-39083074D01*
X41367947Y-39104309D01*
X41369000Y-39125750D01*
X41369000Y-39563250D01*
X41367947Y-39584691D01*
X41364797Y-39605926D01*
X41359581Y-39626750D01*
X41352349Y-39646962D01*
X41343170Y-39666368D01*
X41332134Y-39684781D01*
X41319346Y-39702024D01*
X41304930Y-39717930D01*
X41289024Y-39732346D01*
X41271781Y-39745134D01*
X41253368Y-39756170D01*
X41233962Y-39765349D01*
X41213750Y-39772581D01*
X41192926Y-39777797D01*
X41171691Y-39780947D01*
X41150250Y-39782000D01*
X40637750Y-39782000D01*
X40616309Y-39780947D01*
X40595074Y-39777797D01*
X40574250Y-39772581D01*
X40554038Y-39765349D01*
X40534632Y-39756170D01*
X40516219Y-39745134D01*
X40498976Y-39732346D01*
X40483070Y-39717930D01*
X40468654Y-39702024D01*
X40455866Y-39684781D01*
X40444830Y-39666368D01*
X40435651Y-39646962D01*
X40428419Y-39626750D01*
X40423203Y-39605926D01*
X40420053Y-39584691D01*
X40419000Y-39563250D01*
X40419000Y-39125750D01*
X40420053Y-39104309D01*
X40423203Y-39083074D01*
X40428419Y-39062250D01*
X40435651Y-39042038D01*
X40444830Y-39022632D01*
X40455866Y-39004219D01*
X40468654Y-38986976D01*
X40483070Y-38971070D01*
X40498976Y-38956654D01*
X40516219Y-38943866D01*
X40534632Y-38932830D01*
X40554038Y-38923651D01*
X40574250Y-38916419D01*
X40595074Y-38911203D01*
X40616309Y-38908053D01*
X40637750Y-38907000D01*
X41150250Y-38907000D01*
X41171691Y-38908053D01*
X41171691Y-38908053D01*
G37*
D11*
X40894000Y-39344500D03*
D10*
G36*
X41171691Y-40483053D02*
G01*
X41192926Y-40486203D01*
X41213750Y-40491419D01*
X41233962Y-40498651D01*
X41253368Y-40507830D01*
X41271781Y-40518866D01*
X41289024Y-40531654D01*
X41304930Y-40546070D01*
X41319346Y-40561976D01*
X41332134Y-40579219D01*
X41343170Y-40597632D01*
X41352349Y-40617038D01*
X41359581Y-40637250D01*
X41364797Y-40658074D01*
X41367947Y-40679309D01*
X41369000Y-40700750D01*
X41369000Y-41138250D01*
X41367947Y-41159691D01*
X41364797Y-41180926D01*
X41359581Y-41201750D01*
X41352349Y-41221962D01*
X41343170Y-41241368D01*
X41332134Y-41259781D01*
X41319346Y-41277024D01*
X41304930Y-41292930D01*
X41289024Y-41307346D01*
X41271781Y-41320134D01*
X41253368Y-41331170D01*
X41233962Y-41340349D01*
X41213750Y-41347581D01*
X41192926Y-41352797D01*
X41171691Y-41355947D01*
X41150250Y-41357000D01*
X40637750Y-41357000D01*
X40616309Y-41355947D01*
X40595074Y-41352797D01*
X40574250Y-41347581D01*
X40554038Y-41340349D01*
X40534632Y-41331170D01*
X40516219Y-41320134D01*
X40498976Y-41307346D01*
X40483070Y-41292930D01*
X40468654Y-41277024D01*
X40455866Y-41259781D01*
X40444830Y-41241368D01*
X40435651Y-41221962D01*
X40428419Y-41201750D01*
X40423203Y-41180926D01*
X40420053Y-41159691D01*
X40419000Y-41138250D01*
X40419000Y-40700750D01*
X40420053Y-40679309D01*
X40423203Y-40658074D01*
X40428419Y-40637250D01*
X40435651Y-40617038D01*
X40444830Y-40597632D01*
X40455866Y-40579219D01*
X40468654Y-40561976D01*
X40483070Y-40546070D01*
X40498976Y-40531654D01*
X40516219Y-40518866D01*
X40534632Y-40507830D01*
X40554038Y-40498651D01*
X40574250Y-40491419D01*
X40595074Y-40486203D01*
X40616309Y-40483053D01*
X40637750Y-40482000D01*
X41150250Y-40482000D01*
X41171691Y-40483053D01*
X41171691Y-40483053D01*
G37*
D11*
X40894000Y-40919500D03*
D10*
G36*
X43457691Y-38908053D02*
G01*
X43478926Y-38911203D01*
X43499750Y-38916419D01*
X43519962Y-38923651D01*
X43539368Y-38932830D01*
X43557781Y-38943866D01*
X43575024Y-38956654D01*
X43590930Y-38971070D01*
X43605346Y-38986976D01*
X43618134Y-39004219D01*
X43629170Y-39022632D01*
X43638349Y-39042038D01*
X43645581Y-39062250D01*
X43650797Y-39083074D01*
X43653947Y-39104309D01*
X43655000Y-39125750D01*
X43655000Y-39563250D01*
X43653947Y-39584691D01*
X43650797Y-39605926D01*
X43645581Y-39626750D01*
X43638349Y-39646962D01*
X43629170Y-39666368D01*
X43618134Y-39684781D01*
X43605346Y-39702024D01*
X43590930Y-39717930D01*
X43575024Y-39732346D01*
X43557781Y-39745134D01*
X43539368Y-39756170D01*
X43519962Y-39765349D01*
X43499750Y-39772581D01*
X43478926Y-39777797D01*
X43457691Y-39780947D01*
X43436250Y-39782000D01*
X42923750Y-39782000D01*
X42902309Y-39780947D01*
X42881074Y-39777797D01*
X42860250Y-39772581D01*
X42840038Y-39765349D01*
X42820632Y-39756170D01*
X42802219Y-39745134D01*
X42784976Y-39732346D01*
X42769070Y-39717930D01*
X42754654Y-39702024D01*
X42741866Y-39684781D01*
X42730830Y-39666368D01*
X42721651Y-39646962D01*
X42714419Y-39626750D01*
X42709203Y-39605926D01*
X42706053Y-39584691D01*
X42705000Y-39563250D01*
X42705000Y-39125750D01*
X42706053Y-39104309D01*
X42709203Y-39083074D01*
X42714419Y-39062250D01*
X42721651Y-39042038D01*
X42730830Y-39022632D01*
X42741866Y-39004219D01*
X42754654Y-38986976D01*
X42769070Y-38971070D01*
X42784976Y-38956654D01*
X42802219Y-38943866D01*
X42820632Y-38932830D01*
X42840038Y-38923651D01*
X42860250Y-38916419D01*
X42881074Y-38911203D01*
X42902309Y-38908053D01*
X42923750Y-38907000D01*
X43436250Y-38907000D01*
X43457691Y-38908053D01*
X43457691Y-38908053D01*
G37*
D11*
X43180000Y-39344500D03*
D10*
G36*
X43457691Y-40483053D02*
G01*
X43478926Y-40486203D01*
X43499750Y-40491419D01*
X43519962Y-40498651D01*
X43539368Y-40507830D01*
X43557781Y-40518866D01*
X43575024Y-40531654D01*
X43590930Y-40546070D01*
X43605346Y-40561976D01*
X43618134Y-40579219D01*
X43629170Y-40597632D01*
X43638349Y-40617038D01*
X43645581Y-40637250D01*
X43650797Y-40658074D01*
X43653947Y-40679309D01*
X43655000Y-40700750D01*
X43655000Y-41138250D01*
X43653947Y-41159691D01*
X43650797Y-41180926D01*
X43645581Y-41201750D01*
X43638349Y-41221962D01*
X43629170Y-41241368D01*
X43618134Y-41259781D01*
X43605346Y-41277024D01*
X43590930Y-41292930D01*
X43575024Y-41307346D01*
X43557781Y-41320134D01*
X43539368Y-41331170D01*
X43519962Y-41340349D01*
X43499750Y-41347581D01*
X43478926Y-41352797D01*
X43457691Y-41355947D01*
X43436250Y-41357000D01*
X42923750Y-41357000D01*
X42902309Y-41355947D01*
X42881074Y-41352797D01*
X42860250Y-41347581D01*
X42840038Y-41340349D01*
X42820632Y-41331170D01*
X42802219Y-41320134D01*
X42784976Y-41307346D01*
X42769070Y-41292930D01*
X42754654Y-41277024D01*
X42741866Y-41259781D01*
X42730830Y-41241368D01*
X42721651Y-41221962D01*
X42714419Y-41201750D01*
X42709203Y-41180926D01*
X42706053Y-41159691D01*
X42705000Y-41138250D01*
X42705000Y-40700750D01*
X42706053Y-40679309D01*
X42709203Y-40658074D01*
X42714419Y-40637250D01*
X42721651Y-40617038D01*
X42730830Y-40597632D01*
X42741866Y-40579219D01*
X42754654Y-40561976D01*
X42769070Y-40546070D01*
X42784976Y-40531654D01*
X42802219Y-40518866D01*
X42820632Y-40507830D01*
X42840038Y-40498651D01*
X42860250Y-40491419D01*
X42881074Y-40486203D01*
X42902309Y-40483053D01*
X42923750Y-40482000D01*
X43436250Y-40482000D01*
X43457691Y-40483053D01*
X43457691Y-40483053D01*
G37*
D11*
X43180000Y-40919500D03*
D10*
G36*
X45743691Y-38933553D02*
G01*
X45764926Y-38936703D01*
X45785750Y-38941919D01*
X45805962Y-38949151D01*
X45825368Y-38958330D01*
X45843781Y-38969366D01*
X45861024Y-38982154D01*
X45876930Y-38996570D01*
X45891346Y-39012476D01*
X45904134Y-39029719D01*
X45915170Y-39048132D01*
X45924349Y-39067538D01*
X45931581Y-39087750D01*
X45936797Y-39108574D01*
X45939947Y-39129809D01*
X45941000Y-39151250D01*
X45941000Y-39588750D01*
X45939947Y-39610191D01*
X45936797Y-39631426D01*
X45931581Y-39652250D01*
X45924349Y-39672462D01*
X45915170Y-39691868D01*
X45904134Y-39710281D01*
X45891346Y-39727524D01*
X45876930Y-39743430D01*
X45861024Y-39757846D01*
X45843781Y-39770634D01*
X45825368Y-39781670D01*
X45805962Y-39790849D01*
X45785750Y-39798081D01*
X45764926Y-39803297D01*
X45743691Y-39806447D01*
X45722250Y-39807500D01*
X45209750Y-39807500D01*
X45188309Y-39806447D01*
X45167074Y-39803297D01*
X45146250Y-39798081D01*
X45126038Y-39790849D01*
X45106632Y-39781670D01*
X45088219Y-39770634D01*
X45070976Y-39757846D01*
X45055070Y-39743430D01*
X45040654Y-39727524D01*
X45027866Y-39710281D01*
X45016830Y-39691868D01*
X45007651Y-39672462D01*
X45000419Y-39652250D01*
X44995203Y-39631426D01*
X44992053Y-39610191D01*
X44991000Y-39588750D01*
X44991000Y-39151250D01*
X44992053Y-39129809D01*
X44995203Y-39108574D01*
X45000419Y-39087750D01*
X45007651Y-39067538D01*
X45016830Y-39048132D01*
X45027866Y-39029719D01*
X45040654Y-39012476D01*
X45055070Y-38996570D01*
X45070976Y-38982154D01*
X45088219Y-38969366D01*
X45106632Y-38958330D01*
X45126038Y-38949151D01*
X45146250Y-38941919D01*
X45167074Y-38936703D01*
X45188309Y-38933553D01*
X45209750Y-38932500D01*
X45722250Y-38932500D01*
X45743691Y-38933553D01*
X45743691Y-38933553D01*
G37*
D11*
X45466000Y-39370000D03*
D10*
G36*
X45743691Y-40508553D02*
G01*
X45764926Y-40511703D01*
X45785750Y-40516919D01*
X45805962Y-40524151D01*
X45825368Y-40533330D01*
X45843781Y-40544366D01*
X45861024Y-40557154D01*
X45876930Y-40571570D01*
X45891346Y-40587476D01*
X45904134Y-40604719D01*
X45915170Y-40623132D01*
X45924349Y-40642538D01*
X45931581Y-40662750D01*
X45936797Y-40683574D01*
X45939947Y-40704809D01*
X45941000Y-40726250D01*
X45941000Y-41163750D01*
X45939947Y-41185191D01*
X45936797Y-41206426D01*
X45931581Y-41227250D01*
X45924349Y-41247462D01*
X45915170Y-41266868D01*
X45904134Y-41285281D01*
X45891346Y-41302524D01*
X45876930Y-41318430D01*
X45861024Y-41332846D01*
X45843781Y-41345634D01*
X45825368Y-41356670D01*
X45805962Y-41365849D01*
X45785750Y-41373081D01*
X45764926Y-41378297D01*
X45743691Y-41381447D01*
X45722250Y-41382500D01*
X45209750Y-41382500D01*
X45188309Y-41381447D01*
X45167074Y-41378297D01*
X45146250Y-41373081D01*
X45126038Y-41365849D01*
X45106632Y-41356670D01*
X45088219Y-41345634D01*
X45070976Y-41332846D01*
X45055070Y-41318430D01*
X45040654Y-41302524D01*
X45027866Y-41285281D01*
X45016830Y-41266868D01*
X45007651Y-41247462D01*
X45000419Y-41227250D01*
X44995203Y-41206426D01*
X44992053Y-41185191D01*
X44991000Y-41163750D01*
X44991000Y-40726250D01*
X44992053Y-40704809D01*
X44995203Y-40683574D01*
X45000419Y-40662750D01*
X45007651Y-40642538D01*
X45016830Y-40623132D01*
X45027866Y-40604719D01*
X45040654Y-40587476D01*
X45055070Y-40571570D01*
X45070976Y-40557154D01*
X45088219Y-40544366D01*
X45106632Y-40533330D01*
X45126038Y-40524151D01*
X45146250Y-40516919D01*
X45167074Y-40511703D01*
X45188309Y-40508553D01*
X45209750Y-40507500D01*
X45722250Y-40507500D01*
X45743691Y-40508553D01*
X45743691Y-40508553D01*
G37*
D11*
X45466000Y-40945000D03*
D10*
G36*
X38885691Y-38908053D02*
G01*
X38906926Y-38911203D01*
X38927750Y-38916419D01*
X38947962Y-38923651D01*
X38967368Y-38932830D01*
X38985781Y-38943866D01*
X39003024Y-38956654D01*
X39018930Y-38971070D01*
X39033346Y-38986976D01*
X39046134Y-39004219D01*
X39057170Y-39022632D01*
X39066349Y-39042038D01*
X39073581Y-39062250D01*
X39078797Y-39083074D01*
X39081947Y-39104309D01*
X39083000Y-39125750D01*
X39083000Y-39563250D01*
X39081947Y-39584691D01*
X39078797Y-39605926D01*
X39073581Y-39626750D01*
X39066349Y-39646962D01*
X39057170Y-39666368D01*
X39046134Y-39684781D01*
X39033346Y-39702024D01*
X39018930Y-39717930D01*
X39003024Y-39732346D01*
X38985781Y-39745134D01*
X38967368Y-39756170D01*
X38947962Y-39765349D01*
X38927750Y-39772581D01*
X38906926Y-39777797D01*
X38885691Y-39780947D01*
X38864250Y-39782000D01*
X38351750Y-39782000D01*
X38330309Y-39780947D01*
X38309074Y-39777797D01*
X38288250Y-39772581D01*
X38268038Y-39765349D01*
X38248632Y-39756170D01*
X38230219Y-39745134D01*
X38212976Y-39732346D01*
X38197070Y-39717930D01*
X38182654Y-39702024D01*
X38169866Y-39684781D01*
X38158830Y-39666368D01*
X38149651Y-39646962D01*
X38142419Y-39626750D01*
X38137203Y-39605926D01*
X38134053Y-39584691D01*
X38133000Y-39563250D01*
X38133000Y-39125750D01*
X38134053Y-39104309D01*
X38137203Y-39083074D01*
X38142419Y-39062250D01*
X38149651Y-39042038D01*
X38158830Y-39022632D01*
X38169866Y-39004219D01*
X38182654Y-38986976D01*
X38197070Y-38971070D01*
X38212976Y-38956654D01*
X38230219Y-38943866D01*
X38248632Y-38932830D01*
X38268038Y-38923651D01*
X38288250Y-38916419D01*
X38309074Y-38911203D01*
X38330309Y-38908053D01*
X38351750Y-38907000D01*
X38864250Y-38907000D01*
X38885691Y-38908053D01*
X38885691Y-38908053D01*
G37*
D11*
X38608000Y-39344500D03*
D10*
G36*
X38885691Y-40483053D02*
G01*
X38906926Y-40486203D01*
X38927750Y-40491419D01*
X38947962Y-40498651D01*
X38967368Y-40507830D01*
X38985781Y-40518866D01*
X39003024Y-40531654D01*
X39018930Y-40546070D01*
X39033346Y-40561976D01*
X39046134Y-40579219D01*
X39057170Y-40597632D01*
X39066349Y-40617038D01*
X39073581Y-40637250D01*
X39078797Y-40658074D01*
X39081947Y-40679309D01*
X39083000Y-40700750D01*
X39083000Y-41138250D01*
X39081947Y-41159691D01*
X39078797Y-41180926D01*
X39073581Y-41201750D01*
X39066349Y-41221962D01*
X39057170Y-41241368D01*
X39046134Y-41259781D01*
X39033346Y-41277024D01*
X39018930Y-41292930D01*
X39003024Y-41307346D01*
X38985781Y-41320134D01*
X38967368Y-41331170D01*
X38947962Y-41340349D01*
X38927750Y-41347581D01*
X38906926Y-41352797D01*
X38885691Y-41355947D01*
X38864250Y-41357000D01*
X38351750Y-41357000D01*
X38330309Y-41355947D01*
X38309074Y-41352797D01*
X38288250Y-41347581D01*
X38268038Y-41340349D01*
X38248632Y-41331170D01*
X38230219Y-41320134D01*
X38212976Y-41307346D01*
X38197070Y-41292930D01*
X38182654Y-41277024D01*
X38169866Y-41259781D01*
X38158830Y-41241368D01*
X38149651Y-41221962D01*
X38142419Y-41201750D01*
X38137203Y-41180926D01*
X38134053Y-41159691D01*
X38133000Y-41138250D01*
X38133000Y-40700750D01*
X38134053Y-40679309D01*
X38137203Y-40658074D01*
X38142419Y-40637250D01*
X38149651Y-40617038D01*
X38158830Y-40597632D01*
X38169866Y-40579219D01*
X38182654Y-40561976D01*
X38197070Y-40546070D01*
X38212976Y-40531654D01*
X38230219Y-40518866D01*
X38248632Y-40507830D01*
X38268038Y-40498651D01*
X38288250Y-40491419D01*
X38309074Y-40486203D01*
X38330309Y-40483053D01*
X38351750Y-40482000D01*
X38864250Y-40482000D01*
X38885691Y-40483053D01*
X38885691Y-40483053D01*
G37*
D11*
X38608000Y-40919500D03*
M02*
