G04 #@! TF.GenerationSoftware,KiCad,Pcbnew,(5.1.4)-1*
G04 #@! TF.CreationDate,2019-12-12T19:48:25+09:00*
G04 #@! TF.ProjectId,microcar_head,6d696372-6f63-4617-925f-686561642e6b,rev?*
G04 #@! TF.SameCoordinates,Original*
G04 #@! TF.FileFunction,Soldermask,Top*
G04 #@! TF.FilePolarity,Negative*
%FSLAX46Y46*%
G04 Gerber Fmt 4.6, Leading zero omitted, Abs format (unit mm)*
G04 Created by KiCad (PCBNEW (5.1.4)-1) date 2019-12-12 19:48:25*
%MOMM*%
%LPD*%
G04 APERTURE LIST*
%ADD10C,0.100000*%
G04 APERTURE END LIST*
D10*
G36*
X70116000Y-64401000D02*
G01*
X68314000Y-64401000D01*
X68314000Y-62599000D01*
X70116000Y-62599000D01*
X70116000Y-64401000D01*
X70116000Y-64401000D01*
G37*
G36*
X61705442Y-62605518D02*
G01*
X61771627Y-62612037D01*
X61941466Y-62663557D01*
X62097991Y-62747222D01*
X62133729Y-62776552D01*
X62235186Y-62859814D01*
X62318448Y-62961271D01*
X62347778Y-62997009D01*
X62431443Y-63153534D01*
X62482963Y-63323373D01*
X62500359Y-63500000D01*
X62482963Y-63676627D01*
X62431443Y-63846466D01*
X62347778Y-64002991D01*
X62318448Y-64038729D01*
X62235186Y-64140186D01*
X62133729Y-64223448D01*
X62097991Y-64252778D01*
X61941466Y-64336443D01*
X61771627Y-64387963D01*
X61705442Y-64394482D01*
X61639260Y-64401000D01*
X61550740Y-64401000D01*
X61484558Y-64394482D01*
X61418373Y-64387963D01*
X61248534Y-64336443D01*
X61092009Y-64252778D01*
X61056271Y-64223448D01*
X60954814Y-64140186D01*
X60871552Y-64038729D01*
X60842222Y-64002991D01*
X60758557Y-63846466D01*
X60707037Y-63676627D01*
X60689641Y-63500000D01*
X60707037Y-63323373D01*
X60758557Y-63153534D01*
X60842222Y-62997009D01*
X60871552Y-62961271D01*
X60954814Y-62859814D01*
X61056271Y-62776552D01*
X61092009Y-62747222D01*
X61248534Y-62663557D01*
X61418373Y-62612037D01*
X61484558Y-62605518D01*
X61550740Y-62599000D01*
X61639260Y-62599000D01*
X61705442Y-62605518D01*
X61705442Y-62605518D01*
G37*
G36*
X66785442Y-62605518D02*
G01*
X66851627Y-62612037D01*
X67021466Y-62663557D01*
X67177991Y-62747222D01*
X67213729Y-62776552D01*
X67315186Y-62859814D01*
X67398448Y-62961271D01*
X67427778Y-62997009D01*
X67511443Y-63153534D01*
X67562963Y-63323373D01*
X67580359Y-63500000D01*
X67562963Y-63676627D01*
X67511443Y-63846466D01*
X67427778Y-64002991D01*
X67398448Y-64038729D01*
X67315186Y-64140186D01*
X67213729Y-64223448D01*
X67177991Y-64252778D01*
X67021466Y-64336443D01*
X66851627Y-64387963D01*
X66785442Y-64394482D01*
X66719260Y-64401000D01*
X66630740Y-64401000D01*
X66564558Y-64394482D01*
X66498373Y-64387963D01*
X66328534Y-64336443D01*
X66172009Y-64252778D01*
X66136271Y-64223448D01*
X66034814Y-64140186D01*
X65951552Y-64038729D01*
X65922222Y-64002991D01*
X65838557Y-63846466D01*
X65787037Y-63676627D01*
X65769641Y-63500000D01*
X65787037Y-63323373D01*
X65838557Y-63153534D01*
X65922222Y-62997009D01*
X65951552Y-62961271D01*
X66034814Y-62859814D01*
X66136271Y-62776552D01*
X66172009Y-62747222D01*
X66328534Y-62663557D01*
X66498373Y-62612037D01*
X66564558Y-62605518D01*
X66630740Y-62599000D01*
X66719260Y-62599000D01*
X66785442Y-62605518D01*
X66785442Y-62605518D01*
G37*
G36*
X64245442Y-62605518D02*
G01*
X64311627Y-62612037D01*
X64481466Y-62663557D01*
X64637991Y-62747222D01*
X64673729Y-62776552D01*
X64775186Y-62859814D01*
X64858448Y-62961271D01*
X64887778Y-62997009D01*
X64971443Y-63153534D01*
X65022963Y-63323373D01*
X65040359Y-63500000D01*
X65022963Y-63676627D01*
X64971443Y-63846466D01*
X64887778Y-64002991D01*
X64858448Y-64038729D01*
X64775186Y-64140186D01*
X64673729Y-64223448D01*
X64637991Y-64252778D01*
X64481466Y-64336443D01*
X64311627Y-64387963D01*
X64245442Y-64394482D01*
X64179260Y-64401000D01*
X64090740Y-64401000D01*
X64024558Y-64394482D01*
X63958373Y-64387963D01*
X63788534Y-64336443D01*
X63632009Y-64252778D01*
X63596271Y-64223448D01*
X63494814Y-64140186D01*
X63411552Y-64038729D01*
X63382222Y-64002991D01*
X63298557Y-63846466D01*
X63247037Y-63676627D01*
X63229641Y-63500000D01*
X63247037Y-63323373D01*
X63298557Y-63153534D01*
X63382222Y-62997009D01*
X63411552Y-62961271D01*
X63494814Y-62859814D01*
X63596271Y-62776552D01*
X63632009Y-62747222D01*
X63788534Y-62663557D01*
X63958373Y-62612037D01*
X64024558Y-62605518D01*
X64090740Y-62599000D01*
X64179260Y-62599000D01*
X64245442Y-62605518D01*
X64245442Y-62605518D01*
G37*
G36*
X59165442Y-62605518D02*
G01*
X59231627Y-62612037D01*
X59401466Y-62663557D01*
X59557991Y-62747222D01*
X59593729Y-62776552D01*
X59695186Y-62859814D01*
X59778448Y-62961271D01*
X59807778Y-62997009D01*
X59891443Y-63153534D01*
X59942963Y-63323373D01*
X59960359Y-63500000D01*
X59942963Y-63676627D01*
X59891443Y-63846466D01*
X59807778Y-64002991D01*
X59778448Y-64038729D01*
X59695186Y-64140186D01*
X59593729Y-64223448D01*
X59557991Y-64252778D01*
X59401466Y-64336443D01*
X59231627Y-64387963D01*
X59165442Y-64394482D01*
X59099260Y-64401000D01*
X59010740Y-64401000D01*
X58944558Y-64394482D01*
X58878373Y-64387963D01*
X58708534Y-64336443D01*
X58552009Y-64252778D01*
X58516271Y-64223448D01*
X58414814Y-64140186D01*
X58331552Y-64038729D01*
X58302222Y-64002991D01*
X58218557Y-63846466D01*
X58167037Y-63676627D01*
X58149641Y-63500000D01*
X58167037Y-63323373D01*
X58218557Y-63153534D01*
X58302222Y-62997009D01*
X58331552Y-62961271D01*
X58414814Y-62859814D01*
X58516271Y-62776552D01*
X58552009Y-62747222D01*
X58708534Y-62663557D01*
X58878373Y-62612037D01*
X58944558Y-62605518D01*
X59010740Y-62599000D01*
X59099260Y-62599000D01*
X59165442Y-62605518D01*
X59165442Y-62605518D01*
G37*
G36*
X56625442Y-62605518D02*
G01*
X56691627Y-62612037D01*
X56861466Y-62663557D01*
X57017991Y-62747222D01*
X57053729Y-62776552D01*
X57155186Y-62859814D01*
X57238448Y-62961271D01*
X57267778Y-62997009D01*
X57351443Y-63153534D01*
X57402963Y-63323373D01*
X57420359Y-63500000D01*
X57402963Y-63676627D01*
X57351443Y-63846466D01*
X57267778Y-64002991D01*
X57238448Y-64038729D01*
X57155186Y-64140186D01*
X57053729Y-64223448D01*
X57017991Y-64252778D01*
X56861466Y-64336443D01*
X56691627Y-64387963D01*
X56625442Y-64394482D01*
X56559260Y-64401000D01*
X56470740Y-64401000D01*
X56404558Y-64394482D01*
X56338373Y-64387963D01*
X56168534Y-64336443D01*
X56012009Y-64252778D01*
X55976271Y-64223448D01*
X55874814Y-64140186D01*
X55791552Y-64038729D01*
X55762222Y-64002991D01*
X55678557Y-63846466D01*
X55627037Y-63676627D01*
X55609641Y-63500000D01*
X55627037Y-63323373D01*
X55678557Y-63153534D01*
X55762222Y-62997009D01*
X55791552Y-62961271D01*
X55874814Y-62859814D01*
X55976271Y-62776552D01*
X56012009Y-62747222D01*
X56168534Y-62663557D01*
X56338373Y-62612037D01*
X56404558Y-62605518D01*
X56470740Y-62599000D01*
X56559260Y-62599000D01*
X56625442Y-62605518D01*
X56625442Y-62605518D01*
G37*
G36*
X54085442Y-62605518D02*
G01*
X54151627Y-62612037D01*
X54321466Y-62663557D01*
X54477991Y-62747222D01*
X54513729Y-62776552D01*
X54615186Y-62859814D01*
X54698448Y-62961271D01*
X54727778Y-62997009D01*
X54811443Y-63153534D01*
X54862963Y-63323373D01*
X54880359Y-63500000D01*
X54862963Y-63676627D01*
X54811443Y-63846466D01*
X54727778Y-64002991D01*
X54698448Y-64038729D01*
X54615186Y-64140186D01*
X54513729Y-64223448D01*
X54477991Y-64252778D01*
X54321466Y-64336443D01*
X54151627Y-64387963D01*
X54085442Y-64394482D01*
X54019260Y-64401000D01*
X53930740Y-64401000D01*
X53864558Y-64394482D01*
X53798373Y-64387963D01*
X53628534Y-64336443D01*
X53472009Y-64252778D01*
X53436271Y-64223448D01*
X53334814Y-64140186D01*
X53251552Y-64038729D01*
X53222222Y-64002991D01*
X53138557Y-63846466D01*
X53087037Y-63676627D01*
X53069641Y-63500000D01*
X53087037Y-63323373D01*
X53138557Y-63153534D01*
X53222222Y-62997009D01*
X53251552Y-62961271D01*
X53334814Y-62859814D01*
X53436271Y-62776552D01*
X53472009Y-62747222D01*
X53628534Y-62663557D01*
X53798373Y-62612037D01*
X53864558Y-62605518D01*
X53930740Y-62599000D01*
X54019260Y-62599000D01*
X54085442Y-62605518D01*
X54085442Y-62605518D01*
G37*
G36*
X49005442Y-62605518D02*
G01*
X49071627Y-62612037D01*
X49241466Y-62663557D01*
X49397991Y-62747222D01*
X49433729Y-62776552D01*
X49535186Y-62859814D01*
X49618448Y-62961271D01*
X49647778Y-62997009D01*
X49731443Y-63153534D01*
X49782963Y-63323373D01*
X49800359Y-63500000D01*
X49782963Y-63676627D01*
X49731443Y-63846466D01*
X49647778Y-64002991D01*
X49618448Y-64038729D01*
X49535186Y-64140186D01*
X49433729Y-64223448D01*
X49397991Y-64252778D01*
X49241466Y-64336443D01*
X49071627Y-64387963D01*
X49005442Y-64394482D01*
X48939260Y-64401000D01*
X48850740Y-64401000D01*
X48784558Y-64394482D01*
X48718373Y-64387963D01*
X48548534Y-64336443D01*
X48392009Y-64252778D01*
X48356271Y-64223448D01*
X48254814Y-64140186D01*
X48171552Y-64038729D01*
X48142222Y-64002991D01*
X48058557Y-63846466D01*
X48007037Y-63676627D01*
X47989641Y-63500000D01*
X48007037Y-63323373D01*
X48058557Y-63153534D01*
X48142222Y-62997009D01*
X48171552Y-62961271D01*
X48254814Y-62859814D01*
X48356271Y-62776552D01*
X48392009Y-62747222D01*
X48548534Y-62663557D01*
X48718373Y-62612037D01*
X48784558Y-62605518D01*
X48850740Y-62599000D01*
X48939260Y-62599000D01*
X49005442Y-62605518D01*
X49005442Y-62605518D01*
G37*
G36*
X46465442Y-62605518D02*
G01*
X46531627Y-62612037D01*
X46701466Y-62663557D01*
X46857991Y-62747222D01*
X46893729Y-62776552D01*
X46995186Y-62859814D01*
X47078448Y-62961271D01*
X47107778Y-62997009D01*
X47191443Y-63153534D01*
X47242963Y-63323373D01*
X47260359Y-63500000D01*
X47242963Y-63676627D01*
X47191443Y-63846466D01*
X47107778Y-64002991D01*
X47078448Y-64038729D01*
X46995186Y-64140186D01*
X46893729Y-64223448D01*
X46857991Y-64252778D01*
X46701466Y-64336443D01*
X46531627Y-64387963D01*
X46465442Y-64394482D01*
X46399260Y-64401000D01*
X46310740Y-64401000D01*
X46244558Y-64394482D01*
X46178373Y-64387963D01*
X46008534Y-64336443D01*
X45852009Y-64252778D01*
X45816271Y-64223448D01*
X45714814Y-64140186D01*
X45631552Y-64038729D01*
X45602222Y-64002991D01*
X45518557Y-63846466D01*
X45467037Y-63676627D01*
X45449641Y-63500000D01*
X45467037Y-63323373D01*
X45518557Y-63153534D01*
X45602222Y-62997009D01*
X45631552Y-62961271D01*
X45714814Y-62859814D01*
X45816271Y-62776552D01*
X45852009Y-62747222D01*
X46008534Y-62663557D01*
X46178373Y-62612037D01*
X46244558Y-62605518D01*
X46310740Y-62599000D01*
X46399260Y-62599000D01*
X46465442Y-62605518D01*
X46465442Y-62605518D01*
G37*
G36*
X43925442Y-62605518D02*
G01*
X43991627Y-62612037D01*
X44161466Y-62663557D01*
X44317991Y-62747222D01*
X44353729Y-62776552D01*
X44455186Y-62859814D01*
X44538448Y-62961271D01*
X44567778Y-62997009D01*
X44651443Y-63153534D01*
X44702963Y-63323373D01*
X44720359Y-63500000D01*
X44702963Y-63676627D01*
X44651443Y-63846466D01*
X44567778Y-64002991D01*
X44538448Y-64038729D01*
X44455186Y-64140186D01*
X44353729Y-64223448D01*
X44317991Y-64252778D01*
X44161466Y-64336443D01*
X43991627Y-64387963D01*
X43925442Y-64394482D01*
X43859260Y-64401000D01*
X43770740Y-64401000D01*
X43704558Y-64394482D01*
X43638373Y-64387963D01*
X43468534Y-64336443D01*
X43312009Y-64252778D01*
X43276271Y-64223448D01*
X43174814Y-64140186D01*
X43091552Y-64038729D01*
X43062222Y-64002991D01*
X42978557Y-63846466D01*
X42927037Y-63676627D01*
X42909641Y-63500000D01*
X42927037Y-63323373D01*
X42978557Y-63153534D01*
X43062222Y-62997009D01*
X43091552Y-62961271D01*
X43174814Y-62859814D01*
X43276271Y-62776552D01*
X43312009Y-62747222D01*
X43468534Y-62663557D01*
X43638373Y-62612037D01*
X43704558Y-62605518D01*
X43770740Y-62599000D01*
X43859260Y-62599000D01*
X43925442Y-62605518D01*
X43925442Y-62605518D01*
G37*
G36*
X41385442Y-62605518D02*
G01*
X41451627Y-62612037D01*
X41621466Y-62663557D01*
X41777991Y-62747222D01*
X41813729Y-62776552D01*
X41915186Y-62859814D01*
X41998448Y-62961271D01*
X42027778Y-62997009D01*
X42111443Y-63153534D01*
X42162963Y-63323373D01*
X42180359Y-63500000D01*
X42162963Y-63676627D01*
X42111443Y-63846466D01*
X42027778Y-64002991D01*
X41998448Y-64038729D01*
X41915186Y-64140186D01*
X41813729Y-64223448D01*
X41777991Y-64252778D01*
X41621466Y-64336443D01*
X41451627Y-64387963D01*
X41385442Y-64394482D01*
X41319260Y-64401000D01*
X41230740Y-64401000D01*
X41164558Y-64394482D01*
X41098373Y-64387963D01*
X40928534Y-64336443D01*
X40772009Y-64252778D01*
X40736271Y-64223448D01*
X40634814Y-64140186D01*
X40551552Y-64038729D01*
X40522222Y-64002991D01*
X40438557Y-63846466D01*
X40387037Y-63676627D01*
X40369641Y-63500000D01*
X40387037Y-63323373D01*
X40438557Y-63153534D01*
X40522222Y-62997009D01*
X40551552Y-62961271D01*
X40634814Y-62859814D01*
X40736271Y-62776552D01*
X40772009Y-62747222D01*
X40928534Y-62663557D01*
X41098373Y-62612037D01*
X41164558Y-62605518D01*
X41230740Y-62599000D01*
X41319260Y-62599000D01*
X41385442Y-62605518D01*
X41385442Y-62605518D01*
G37*
G36*
X38845442Y-62605518D02*
G01*
X38911627Y-62612037D01*
X39081466Y-62663557D01*
X39237991Y-62747222D01*
X39273729Y-62776552D01*
X39375186Y-62859814D01*
X39458448Y-62961271D01*
X39487778Y-62997009D01*
X39571443Y-63153534D01*
X39622963Y-63323373D01*
X39640359Y-63500000D01*
X39622963Y-63676627D01*
X39571443Y-63846466D01*
X39487778Y-64002991D01*
X39458448Y-64038729D01*
X39375186Y-64140186D01*
X39273729Y-64223448D01*
X39237991Y-64252778D01*
X39081466Y-64336443D01*
X38911627Y-64387963D01*
X38845442Y-64394482D01*
X38779260Y-64401000D01*
X38690740Y-64401000D01*
X38624558Y-64394482D01*
X38558373Y-64387963D01*
X38388534Y-64336443D01*
X38232009Y-64252778D01*
X38196271Y-64223448D01*
X38094814Y-64140186D01*
X38011552Y-64038729D01*
X37982222Y-64002991D01*
X37898557Y-63846466D01*
X37847037Y-63676627D01*
X37829641Y-63500000D01*
X37847037Y-63323373D01*
X37898557Y-63153534D01*
X37982222Y-62997009D01*
X38011552Y-62961271D01*
X38094814Y-62859814D01*
X38196271Y-62776552D01*
X38232009Y-62747222D01*
X38388534Y-62663557D01*
X38558373Y-62612037D01*
X38624558Y-62605518D01*
X38690740Y-62599000D01*
X38779260Y-62599000D01*
X38845442Y-62605518D01*
X38845442Y-62605518D01*
G37*
G36*
X51545442Y-62605518D02*
G01*
X51611627Y-62612037D01*
X51781466Y-62663557D01*
X51937991Y-62747222D01*
X51973729Y-62776552D01*
X52075186Y-62859814D01*
X52158448Y-62961271D01*
X52187778Y-62997009D01*
X52271443Y-63153534D01*
X52322963Y-63323373D01*
X52340359Y-63500000D01*
X52322963Y-63676627D01*
X52271443Y-63846466D01*
X52187778Y-64002991D01*
X52158448Y-64038729D01*
X52075186Y-64140186D01*
X51973729Y-64223448D01*
X51937991Y-64252778D01*
X51781466Y-64336443D01*
X51611627Y-64387963D01*
X51545442Y-64394482D01*
X51479260Y-64401000D01*
X51390740Y-64401000D01*
X51324558Y-64394482D01*
X51258373Y-64387963D01*
X51088534Y-64336443D01*
X50932009Y-64252778D01*
X50896271Y-64223448D01*
X50794814Y-64140186D01*
X50711552Y-64038729D01*
X50682222Y-64002991D01*
X50598557Y-63846466D01*
X50547037Y-63676627D01*
X50529641Y-63500000D01*
X50547037Y-63323373D01*
X50598557Y-63153534D01*
X50682222Y-62997009D01*
X50711552Y-62961271D01*
X50794814Y-62859814D01*
X50896271Y-62776552D01*
X50932009Y-62747222D01*
X51088534Y-62663557D01*
X51258373Y-62612037D01*
X51324558Y-62605518D01*
X51390740Y-62599000D01*
X51479260Y-62599000D01*
X51545442Y-62605518D01*
X51545442Y-62605518D01*
G37*
G36*
X59165442Y-60065518D02*
G01*
X59231627Y-60072037D01*
X59401466Y-60123557D01*
X59557991Y-60207222D01*
X59593729Y-60236552D01*
X59695186Y-60319814D01*
X59778448Y-60421271D01*
X59807778Y-60457009D01*
X59891443Y-60613534D01*
X59942963Y-60783373D01*
X59960359Y-60960000D01*
X59942963Y-61136627D01*
X59891443Y-61306466D01*
X59807778Y-61462991D01*
X59778448Y-61498729D01*
X59695186Y-61600186D01*
X59593729Y-61683448D01*
X59557991Y-61712778D01*
X59401466Y-61796443D01*
X59231627Y-61847963D01*
X59165443Y-61854481D01*
X59099260Y-61861000D01*
X59010740Y-61861000D01*
X58944557Y-61854481D01*
X58878373Y-61847963D01*
X58708534Y-61796443D01*
X58552009Y-61712778D01*
X58516271Y-61683448D01*
X58414814Y-61600186D01*
X58331552Y-61498729D01*
X58302222Y-61462991D01*
X58218557Y-61306466D01*
X58167037Y-61136627D01*
X58149641Y-60960000D01*
X58167037Y-60783373D01*
X58218557Y-60613534D01*
X58302222Y-60457009D01*
X58331552Y-60421271D01*
X58414814Y-60319814D01*
X58516271Y-60236552D01*
X58552009Y-60207222D01*
X58708534Y-60123557D01*
X58878373Y-60072037D01*
X58944558Y-60065518D01*
X59010740Y-60059000D01*
X59099260Y-60059000D01*
X59165442Y-60065518D01*
X59165442Y-60065518D01*
G37*
G36*
X69325442Y-60065518D02*
G01*
X69391627Y-60072037D01*
X69561466Y-60123557D01*
X69717991Y-60207222D01*
X69753729Y-60236552D01*
X69855186Y-60319814D01*
X69938448Y-60421271D01*
X69967778Y-60457009D01*
X70051443Y-60613534D01*
X70102963Y-60783373D01*
X70120359Y-60960000D01*
X70102963Y-61136627D01*
X70051443Y-61306466D01*
X69967778Y-61462991D01*
X69938448Y-61498729D01*
X69855186Y-61600186D01*
X69753729Y-61683448D01*
X69717991Y-61712778D01*
X69561466Y-61796443D01*
X69391627Y-61847963D01*
X69325443Y-61854481D01*
X69259260Y-61861000D01*
X69170740Y-61861000D01*
X69104557Y-61854481D01*
X69038373Y-61847963D01*
X68868534Y-61796443D01*
X68712009Y-61712778D01*
X68676271Y-61683448D01*
X68574814Y-61600186D01*
X68491552Y-61498729D01*
X68462222Y-61462991D01*
X68378557Y-61306466D01*
X68327037Y-61136627D01*
X68309641Y-60960000D01*
X68327037Y-60783373D01*
X68378557Y-60613534D01*
X68462222Y-60457009D01*
X68491552Y-60421271D01*
X68574814Y-60319814D01*
X68676271Y-60236552D01*
X68712009Y-60207222D01*
X68868534Y-60123557D01*
X69038373Y-60072037D01*
X69104558Y-60065518D01*
X69170740Y-60059000D01*
X69259260Y-60059000D01*
X69325442Y-60065518D01*
X69325442Y-60065518D01*
G37*
G36*
X66785442Y-60065518D02*
G01*
X66851627Y-60072037D01*
X67021466Y-60123557D01*
X67177991Y-60207222D01*
X67213729Y-60236552D01*
X67315186Y-60319814D01*
X67398448Y-60421271D01*
X67427778Y-60457009D01*
X67511443Y-60613534D01*
X67562963Y-60783373D01*
X67580359Y-60960000D01*
X67562963Y-61136627D01*
X67511443Y-61306466D01*
X67427778Y-61462991D01*
X67398448Y-61498729D01*
X67315186Y-61600186D01*
X67213729Y-61683448D01*
X67177991Y-61712778D01*
X67021466Y-61796443D01*
X66851627Y-61847963D01*
X66785443Y-61854481D01*
X66719260Y-61861000D01*
X66630740Y-61861000D01*
X66564557Y-61854481D01*
X66498373Y-61847963D01*
X66328534Y-61796443D01*
X66172009Y-61712778D01*
X66136271Y-61683448D01*
X66034814Y-61600186D01*
X65951552Y-61498729D01*
X65922222Y-61462991D01*
X65838557Y-61306466D01*
X65787037Y-61136627D01*
X65769641Y-60960000D01*
X65787037Y-60783373D01*
X65838557Y-60613534D01*
X65922222Y-60457009D01*
X65951552Y-60421271D01*
X66034814Y-60319814D01*
X66136271Y-60236552D01*
X66172009Y-60207222D01*
X66328534Y-60123557D01*
X66498373Y-60072037D01*
X66564558Y-60065518D01*
X66630740Y-60059000D01*
X66719260Y-60059000D01*
X66785442Y-60065518D01*
X66785442Y-60065518D01*
G37*
G36*
X64245442Y-60065518D02*
G01*
X64311627Y-60072037D01*
X64481466Y-60123557D01*
X64637991Y-60207222D01*
X64673729Y-60236552D01*
X64775186Y-60319814D01*
X64858448Y-60421271D01*
X64887778Y-60457009D01*
X64971443Y-60613534D01*
X65022963Y-60783373D01*
X65040359Y-60960000D01*
X65022963Y-61136627D01*
X64971443Y-61306466D01*
X64887778Y-61462991D01*
X64858448Y-61498729D01*
X64775186Y-61600186D01*
X64673729Y-61683448D01*
X64637991Y-61712778D01*
X64481466Y-61796443D01*
X64311627Y-61847963D01*
X64245443Y-61854481D01*
X64179260Y-61861000D01*
X64090740Y-61861000D01*
X64024557Y-61854481D01*
X63958373Y-61847963D01*
X63788534Y-61796443D01*
X63632009Y-61712778D01*
X63596271Y-61683448D01*
X63494814Y-61600186D01*
X63411552Y-61498729D01*
X63382222Y-61462991D01*
X63298557Y-61306466D01*
X63247037Y-61136627D01*
X63229641Y-60960000D01*
X63247037Y-60783373D01*
X63298557Y-60613534D01*
X63382222Y-60457009D01*
X63411552Y-60421271D01*
X63494814Y-60319814D01*
X63596271Y-60236552D01*
X63632009Y-60207222D01*
X63788534Y-60123557D01*
X63958373Y-60072037D01*
X64024558Y-60065518D01*
X64090740Y-60059000D01*
X64179260Y-60059000D01*
X64245442Y-60065518D01*
X64245442Y-60065518D01*
G37*
G36*
X38845442Y-60065518D02*
G01*
X38911627Y-60072037D01*
X39081466Y-60123557D01*
X39237991Y-60207222D01*
X39273729Y-60236552D01*
X39375186Y-60319814D01*
X39458448Y-60421271D01*
X39487778Y-60457009D01*
X39571443Y-60613534D01*
X39622963Y-60783373D01*
X39640359Y-60960000D01*
X39622963Y-61136627D01*
X39571443Y-61306466D01*
X39487778Y-61462991D01*
X39458448Y-61498729D01*
X39375186Y-61600186D01*
X39273729Y-61683448D01*
X39237991Y-61712778D01*
X39081466Y-61796443D01*
X38911627Y-61847963D01*
X38845443Y-61854481D01*
X38779260Y-61861000D01*
X38690740Y-61861000D01*
X38624557Y-61854481D01*
X38558373Y-61847963D01*
X38388534Y-61796443D01*
X38232009Y-61712778D01*
X38196271Y-61683448D01*
X38094814Y-61600186D01*
X38011552Y-61498729D01*
X37982222Y-61462991D01*
X37898557Y-61306466D01*
X37847037Y-61136627D01*
X37829641Y-60960000D01*
X37847037Y-60783373D01*
X37898557Y-60613534D01*
X37982222Y-60457009D01*
X38011552Y-60421271D01*
X38094814Y-60319814D01*
X38196271Y-60236552D01*
X38232009Y-60207222D01*
X38388534Y-60123557D01*
X38558373Y-60072037D01*
X38624558Y-60065518D01*
X38690740Y-60059000D01*
X38779260Y-60059000D01*
X38845442Y-60065518D01*
X38845442Y-60065518D01*
G37*
G36*
X61705442Y-60065518D02*
G01*
X61771627Y-60072037D01*
X61941466Y-60123557D01*
X62097991Y-60207222D01*
X62133729Y-60236552D01*
X62235186Y-60319814D01*
X62318448Y-60421271D01*
X62347778Y-60457009D01*
X62431443Y-60613534D01*
X62482963Y-60783373D01*
X62500359Y-60960000D01*
X62482963Y-61136627D01*
X62431443Y-61306466D01*
X62347778Y-61462991D01*
X62318448Y-61498729D01*
X62235186Y-61600186D01*
X62133729Y-61683448D01*
X62097991Y-61712778D01*
X61941466Y-61796443D01*
X61771627Y-61847963D01*
X61705443Y-61854481D01*
X61639260Y-61861000D01*
X61550740Y-61861000D01*
X61484557Y-61854481D01*
X61418373Y-61847963D01*
X61248534Y-61796443D01*
X61092009Y-61712778D01*
X61056271Y-61683448D01*
X60954814Y-61600186D01*
X60871552Y-61498729D01*
X60842222Y-61462991D01*
X60758557Y-61306466D01*
X60707037Y-61136627D01*
X60689641Y-60960000D01*
X60707037Y-60783373D01*
X60758557Y-60613534D01*
X60842222Y-60457009D01*
X60871552Y-60421271D01*
X60954814Y-60319814D01*
X61056271Y-60236552D01*
X61092009Y-60207222D01*
X61248534Y-60123557D01*
X61418373Y-60072037D01*
X61484558Y-60065518D01*
X61550740Y-60059000D01*
X61639260Y-60059000D01*
X61705442Y-60065518D01*
X61705442Y-60065518D01*
G37*
G36*
X56625442Y-60065518D02*
G01*
X56691627Y-60072037D01*
X56861466Y-60123557D01*
X57017991Y-60207222D01*
X57053729Y-60236552D01*
X57155186Y-60319814D01*
X57238448Y-60421271D01*
X57267778Y-60457009D01*
X57351443Y-60613534D01*
X57402963Y-60783373D01*
X57420359Y-60960000D01*
X57402963Y-61136627D01*
X57351443Y-61306466D01*
X57267778Y-61462991D01*
X57238448Y-61498729D01*
X57155186Y-61600186D01*
X57053729Y-61683448D01*
X57017991Y-61712778D01*
X56861466Y-61796443D01*
X56691627Y-61847963D01*
X56625443Y-61854481D01*
X56559260Y-61861000D01*
X56470740Y-61861000D01*
X56404557Y-61854481D01*
X56338373Y-61847963D01*
X56168534Y-61796443D01*
X56012009Y-61712778D01*
X55976271Y-61683448D01*
X55874814Y-61600186D01*
X55791552Y-61498729D01*
X55762222Y-61462991D01*
X55678557Y-61306466D01*
X55627037Y-61136627D01*
X55609641Y-60960000D01*
X55627037Y-60783373D01*
X55678557Y-60613534D01*
X55762222Y-60457009D01*
X55791552Y-60421271D01*
X55874814Y-60319814D01*
X55976271Y-60236552D01*
X56012009Y-60207222D01*
X56168534Y-60123557D01*
X56338373Y-60072037D01*
X56404558Y-60065518D01*
X56470740Y-60059000D01*
X56559260Y-60059000D01*
X56625442Y-60065518D01*
X56625442Y-60065518D01*
G37*
G36*
X51545442Y-60065518D02*
G01*
X51611627Y-60072037D01*
X51781466Y-60123557D01*
X51937991Y-60207222D01*
X51973729Y-60236552D01*
X52075186Y-60319814D01*
X52158448Y-60421271D01*
X52187778Y-60457009D01*
X52271443Y-60613534D01*
X52322963Y-60783373D01*
X52340359Y-60960000D01*
X52322963Y-61136627D01*
X52271443Y-61306466D01*
X52187778Y-61462991D01*
X52158448Y-61498729D01*
X52075186Y-61600186D01*
X51973729Y-61683448D01*
X51937991Y-61712778D01*
X51781466Y-61796443D01*
X51611627Y-61847963D01*
X51545443Y-61854481D01*
X51479260Y-61861000D01*
X51390740Y-61861000D01*
X51324557Y-61854481D01*
X51258373Y-61847963D01*
X51088534Y-61796443D01*
X50932009Y-61712778D01*
X50896271Y-61683448D01*
X50794814Y-61600186D01*
X50711552Y-61498729D01*
X50682222Y-61462991D01*
X50598557Y-61306466D01*
X50547037Y-61136627D01*
X50529641Y-60960000D01*
X50547037Y-60783373D01*
X50598557Y-60613534D01*
X50682222Y-60457009D01*
X50711552Y-60421271D01*
X50794814Y-60319814D01*
X50896271Y-60236552D01*
X50932009Y-60207222D01*
X51088534Y-60123557D01*
X51258373Y-60072037D01*
X51324558Y-60065518D01*
X51390740Y-60059000D01*
X51479260Y-60059000D01*
X51545442Y-60065518D01*
X51545442Y-60065518D01*
G37*
G36*
X49005442Y-60065518D02*
G01*
X49071627Y-60072037D01*
X49241466Y-60123557D01*
X49397991Y-60207222D01*
X49433729Y-60236552D01*
X49535186Y-60319814D01*
X49618448Y-60421271D01*
X49647778Y-60457009D01*
X49731443Y-60613534D01*
X49782963Y-60783373D01*
X49800359Y-60960000D01*
X49782963Y-61136627D01*
X49731443Y-61306466D01*
X49647778Y-61462991D01*
X49618448Y-61498729D01*
X49535186Y-61600186D01*
X49433729Y-61683448D01*
X49397991Y-61712778D01*
X49241466Y-61796443D01*
X49071627Y-61847963D01*
X49005443Y-61854481D01*
X48939260Y-61861000D01*
X48850740Y-61861000D01*
X48784557Y-61854481D01*
X48718373Y-61847963D01*
X48548534Y-61796443D01*
X48392009Y-61712778D01*
X48356271Y-61683448D01*
X48254814Y-61600186D01*
X48171552Y-61498729D01*
X48142222Y-61462991D01*
X48058557Y-61306466D01*
X48007037Y-61136627D01*
X47989641Y-60960000D01*
X48007037Y-60783373D01*
X48058557Y-60613534D01*
X48142222Y-60457009D01*
X48171552Y-60421271D01*
X48254814Y-60319814D01*
X48356271Y-60236552D01*
X48392009Y-60207222D01*
X48548534Y-60123557D01*
X48718373Y-60072037D01*
X48784558Y-60065518D01*
X48850740Y-60059000D01*
X48939260Y-60059000D01*
X49005442Y-60065518D01*
X49005442Y-60065518D01*
G37*
G36*
X41385442Y-60065518D02*
G01*
X41451627Y-60072037D01*
X41621466Y-60123557D01*
X41777991Y-60207222D01*
X41813729Y-60236552D01*
X41915186Y-60319814D01*
X41998448Y-60421271D01*
X42027778Y-60457009D01*
X42111443Y-60613534D01*
X42162963Y-60783373D01*
X42180359Y-60960000D01*
X42162963Y-61136627D01*
X42111443Y-61306466D01*
X42027778Y-61462991D01*
X41998448Y-61498729D01*
X41915186Y-61600186D01*
X41813729Y-61683448D01*
X41777991Y-61712778D01*
X41621466Y-61796443D01*
X41451627Y-61847963D01*
X41385443Y-61854481D01*
X41319260Y-61861000D01*
X41230740Y-61861000D01*
X41164557Y-61854481D01*
X41098373Y-61847963D01*
X40928534Y-61796443D01*
X40772009Y-61712778D01*
X40736271Y-61683448D01*
X40634814Y-61600186D01*
X40551552Y-61498729D01*
X40522222Y-61462991D01*
X40438557Y-61306466D01*
X40387037Y-61136627D01*
X40369641Y-60960000D01*
X40387037Y-60783373D01*
X40438557Y-60613534D01*
X40522222Y-60457009D01*
X40551552Y-60421271D01*
X40634814Y-60319814D01*
X40736271Y-60236552D01*
X40772009Y-60207222D01*
X40928534Y-60123557D01*
X41098373Y-60072037D01*
X41164558Y-60065518D01*
X41230740Y-60059000D01*
X41319260Y-60059000D01*
X41385442Y-60065518D01*
X41385442Y-60065518D01*
G37*
G36*
X46465442Y-60065518D02*
G01*
X46531627Y-60072037D01*
X46701466Y-60123557D01*
X46857991Y-60207222D01*
X46893729Y-60236552D01*
X46995186Y-60319814D01*
X47078448Y-60421271D01*
X47107778Y-60457009D01*
X47191443Y-60613534D01*
X47242963Y-60783373D01*
X47260359Y-60960000D01*
X47242963Y-61136627D01*
X47191443Y-61306466D01*
X47107778Y-61462991D01*
X47078448Y-61498729D01*
X46995186Y-61600186D01*
X46893729Y-61683448D01*
X46857991Y-61712778D01*
X46701466Y-61796443D01*
X46531627Y-61847963D01*
X46465443Y-61854481D01*
X46399260Y-61861000D01*
X46310740Y-61861000D01*
X46244557Y-61854481D01*
X46178373Y-61847963D01*
X46008534Y-61796443D01*
X45852009Y-61712778D01*
X45816271Y-61683448D01*
X45714814Y-61600186D01*
X45631552Y-61498729D01*
X45602222Y-61462991D01*
X45518557Y-61306466D01*
X45467037Y-61136627D01*
X45449641Y-60960000D01*
X45467037Y-60783373D01*
X45518557Y-60613534D01*
X45602222Y-60457009D01*
X45631552Y-60421271D01*
X45714814Y-60319814D01*
X45816271Y-60236552D01*
X45852009Y-60207222D01*
X46008534Y-60123557D01*
X46178373Y-60072037D01*
X46244558Y-60065518D01*
X46310740Y-60059000D01*
X46399260Y-60059000D01*
X46465442Y-60065518D01*
X46465442Y-60065518D01*
G37*
G36*
X43925442Y-60065518D02*
G01*
X43991627Y-60072037D01*
X44161466Y-60123557D01*
X44317991Y-60207222D01*
X44353729Y-60236552D01*
X44455186Y-60319814D01*
X44538448Y-60421271D01*
X44567778Y-60457009D01*
X44651443Y-60613534D01*
X44702963Y-60783373D01*
X44720359Y-60960000D01*
X44702963Y-61136627D01*
X44651443Y-61306466D01*
X44567778Y-61462991D01*
X44538448Y-61498729D01*
X44455186Y-61600186D01*
X44353729Y-61683448D01*
X44317991Y-61712778D01*
X44161466Y-61796443D01*
X43991627Y-61847963D01*
X43925443Y-61854481D01*
X43859260Y-61861000D01*
X43770740Y-61861000D01*
X43704557Y-61854481D01*
X43638373Y-61847963D01*
X43468534Y-61796443D01*
X43312009Y-61712778D01*
X43276271Y-61683448D01*
X43174814Y-61600186D01*
X43091552Y-61498729D01*
X43062222Y-61462991D01*
X42978557Y-61306466D01*
X42927037Y-61136627D01*
X42909641Y-60960000D01*
X42927037Y-60783373D01*
X42978557Y-60613534D01*
X43062222Y-60457009D01*
X43091552Y-60421271D01*
X43174814Y-60319814D01*
X43276271Y-60236552D01*
X43312009Y-60207222D01*
X43468534Y-60123557D01*
X43638373Y-60072037D01*
X43704558Y-60065518D01*
X43770740Y-60059000D01*
X43859260Y-60059000D01*
X43925442Y-60065518D01*
X43925442Y-60065518D01*
G37*
G36*
X54085442Y-60065518D02*
G01*
X54151627Y-60072037D01*
X54321466Y-60123557D01*
X54477991Y-60207222D01*
X54513729Y-60236552D01*
X54615186Y-60319814D01*
X54698448Y-60421271D01*
X54727778Y-60457009D01*
X54811443Y-60613534D01*
X54862963Y-60783373D01*
X54880359Y-60960000D01*
X54862963Y-61136627D01*
X54811443Y-61306466D01*
X54727778Y-61462991D01*
X54698448Y-61498729D01*
X54615186Y-61600186D01*
X54513729Y-61683448D01*
X54477991Y-61712778D01*
X54321466Y-61796443D01*
X54151627Y-61847963D01*
X54085443Y-61854481D01*
X54019260Y-61861000D01*
X53930740Y-61861000D01*
X53864557Y-61854481D01*
X53798373Y-61847963D01*
X53628534Y-61796443D01*
X53472009Y-61712778D01*
X53436271Y-61683448D01*
X53334814Y-61600186D01*
X53251552Y-61498729D01*
X53222222Y-61462991D01*
X53138557Y-61306466D01*
X53087037Y-61136627D01*
X53069641Y-60960000D01*
X53087037Y-60783373D01*
X53138557Y-60613534D01*
X53222222Y-60457009D01*
X53251552Y-60421271D01*
X53334814Y-60319814D01*
X53436271Y-60236552D01*
X53472009Y-60207222D01*
X53628534Y-60123557D01*
X53798373Y-60072037D01*
X53864558Y-60065518D01*
X53930740Y-60059000D01*
X54019260Y-60059000D01*
X54085442Y-60065518D01*
X54085442Y-60065518D01*
G37*
G36*
X51472000Y-58076000D02*
G01*
X49620000Y-58076000D01*
X49620000Y-56224000D01*
X51472000Y-56224000D01*
X51472000Y-58076000D01*
X51472000Y-58076000D01*
G37*
G36*
X66635104Y-56259585D02*
G01*
X66803626Y-56329389D01*
X66955291Y-56430728D01*
X67084272Y-56559709D01*
X67185611Y-56711374D01*
X67255415Y-56879896D01*
X67291000Y-57058797D01*
X67291000Y-57241203D01*
X67255415Y-57420104D01*
X67185611Y-57588626D01*
X67084272Y-57740291D01*
X66955291Y-57869272D01*
X66803626Y-57970611D01*
X66635104Y-58040415D01*
X66456203Y-58076000D01*
X66273797Y-58076000D01*
X66094896Y-58040415D01*
X65926374Y-57970611D01*
X65774709Y-57869272D01*
X65645728Y-57740291D01*
X65544389Y-57588626D01*
X65474585Y-57420104D01*
X65439000Y-57241203D01*
X65439000Y-57058797D01*
X65474585Y-56879896D01*
X65544389Y-56711374D01*
X65645728Y-56559709D01*
X65774709Y-56430728D01*
X65926374Y-56329389D01*
X66094896Y-56259585D01*
X66273797Y-56224000D01*
X66456203Y-56224000D01*
X66635104Y-56259585D01*
X66635104Y-56259585D01*
G37*
G36*
X63791000Y-58076000D02*
G01*
X61939000Y-58076000D01*
X61939000Y-56224000D01*
X63791000Y-56224000D01*
X63791000Y-58076000D01*
X63791000Y-58076000D01*
G37*
G36*
X54316104Y-56259585D02*
G01*
X54484626Y-56329389D01*
X54636291Y-56430728D01*
X54765272Y-56559709D01*
X54866611Y-56711374D01*
X54936415Y-56879896D01*
X54972000Y-57058797D01*
X54972000Y-57241203D01*
X54936415Y-57420104D01*
X54866611Y-57588626D01*
X54765272Y-57740291D01*
X54636291Y-57869272D01*
X54484626Y-57970611D01*
X54316104Y-58040415D01*
X54137203Y-58076000D01*
X53954797Y-58076000D01*
X53775896Y-58040415D01*
X53607374Y-57970611D01*
X53455709Y-57869272D01*
X53326728Y-57740291D01*
X53225389Y-57588626D01*
X53155585Y-57420104D01*
X53120000Y-57241203D01*
X53120000Y-57058797D01*
X53155585Y-56879896D01*
X53225389Y-56711374D01*
X53326728Y-56559709D01*
X53455709Y-56430728D01*
X53607374Y-56329389D01*
X53775896Y-56259585D01*
X53954797Y-56224000D01*
X54137203Y-56224000D01*
X54316104Y-56259585D01*
X54316104Y-56259585D01*
G37*
G36*
X35862585Y-53850802D02*
G01*
X36012410Y-53880604D01*
X36294674Y-53997521D01*
X36548705Y-54167259D01*
X36764741Y-54383295D01*
X36934479Y-54637326D01*
X37051396Y-54919590D01*
X37111000Y-55219240D01*
X37111000Y-55524760D01*
X37051396Y-55824410D01*
X36934479Y-56106674D01*
X36764741Y-56360705D01*
X36548705Y-56576741D01*
X36294674Y-56746479D01*
X36012410Y-56863396D01*
X35862585Y-56893198D01*
X35712761Y-56923000D01*
X35407239Y-56923000D01*
X35257415Y-56893198D01*
X35107590Y-56863396D01*
X34825326Y-56746479D01*
X34571295Y-56576741D01*
X34355259Y-56360705D01*
X34185521Y-56106674D01*
X34068604Y-55824410D01*
X34009000Y-55524760D01*
X34009000Y-55219240D01*
X34068604Y-54919590D01*
X34185521Y-54637326D01*
X34355259Y-54383295D01*
X34571295Y-54167259D01*
X34825326Y-53997521D01*
X35107590Y-53880604D01*
X35257415Y-53850802D01*
X35407239Y-53821000D01*
X35712761Y-53821000D01*
X35862585Y-53850802D01*
X35862585Y-53850802D01*
G37*
G36*
X45006585Y-53850802D02*
G01*
X45156410Y-53880604D01*
X45438674Y-53997521D01*
X45692705Y-54167259D01*
X45908741Y-54383295D01*
X46078479Y-54637326D01*
X46195396Y-54919590D01*
X46255000Y-55219240D01*
X46255000Y-55524760D01*
X46195396Y-55824410D01*
X46078479Y-56106674D01*
X45908741Y-56360705D01*
X45692705Y-56576741D01*
X45438674Y-56746479D01*
X45156410Y-56863396D01*
X45006585Y-56893198D01*
X44856761Y-56923000D01*
X44551239Y-56923000D01*
X44401415Y-56893198D01*
X44251590Y-56863396D01*
X43969326Y-56746479D01*
X43715295Y-56576741D01*
X43499259Y-56360705D01*
X43329521Y-56106674D01*
X43212604Y-55824410D01*
X43153000Y-55524760D01*
X43153000Y-55219240D01*
X43212604Y-54919590D01*
X43329521Y-54637326D01*
X43499259Y-54383295D01*
X43715295Y-54167259D01*
X43969326Y-53997521D01*
X44251590Y-53880604D01*
X44401415Y-53850802D01*
X44551239Y-53821000D01*
X44856761Y-53821000D01*
X45006585Y-53850802D01*
X45006585Y-53850802D01*
G37*
G36*
X56814433Y-51634893D02*
G01*
X56904657Y-51652839D01*
X57010267Y-51696585D01*
X57159621Y-51758449D01*
X57159622Y-51758450D01*
X57389086Y-51911772D01*
X57584228Y-52106914D01*
X57652209Y-52208656D01*
X57737551Y-52336379D01*
X57843161Y-52591344D01*
X57897000Y-52862012D01*
X57897000Y-53137988D01*
X57843161Y-53408656D01*
X57737551Y-53663621D01*
X57737550Y-53663622D01*
X57584228Y-53893086D01*
X57389086Y-54088228D01*
X57235763Y-54190675D01*
X57159621Y-54241551D01*
X57010267Y-54303415D01*
X56904657Y-54347161D01*
X56814433Y-54365107D01*
X56633988Y-54401000D01*
X56358012Y-54401000D01*
X56177567Y-54365107D01*
X56087343Y-54347161D01*
X55981733Y-54303415D01*
X55832379Y-54241551D01*
X55756237Y-54190675D01*
X55602914Y-54088228D01*
X55407772Y-53893086D01*
X55254450Y-53663622D01*
X55254449Y-53663621D01*
X55148839Y-53408656D01*
X55095000Y-53137988D01*
X55095000Y-52862012D01*
X55148839Y-52591344D01*
X55254449Y-52336379D01*
X55339791Y-52208656D01*
X55407772Y-52106914D01*
X55602914Y-51911772D01*
X55832378Y-51758450D01*
X55832379Y-51758449D01*
X55981733Y-51696585D01*
X56087343Y-51652839D01*
X56177567Y-51634893D01*
X56358012Y-51599000D01*
X56633988Y-51599000D01*
X56814433Y-51634893D01*
X56814433Y-51634893D01*
G37*
G36*
X69133433Y-51634893D02*
G01*
X69223657Y-51652839D01*
X69329267Y-51696585D01*
X69478621Y-51758449D01*
X69478622Y-51758450D01*
X69708086Y-51911772D01*
X69903228Y-52106914D01*
X69971209Y-52208656D01*
X70056551Y-52336379D01*
X70162161Y-52591344D01*
X70216000Y-52862012D01*
X70216000Y-53137988D01*
X70162161Y-53408656D01*
X70056551Y-53663621D01*
X70056550Y-53663622D01*
X69903228Y-53893086D01*
X69708086Y-54088228D01*
X69554763Y-54190675D01*
X69478621Y-54241551D01*
X69329267Y-54303415D01*
X69223657Y-54347161D01*
X69133433Y-54365107D01*
X68952988Y-54401000D01*
X68677012Y-54401000D01*
X68496567Y-54365107D01*
X68406343Y-54347161D01*
X68300733Y-54303415D01*
X68151379Y-54241551D01*
X68075237Y-54190675D01*
X67921914Y-54088228D01*
X67726772Y-53893086D01*
X67573450Y-53663622D01*
X67573449Y-53663621D01*
X67467839Y-53408656D01*
X67414000Y-53137988D01*
X67414000Y-52862012D01*
X67467839Y-52591344D01*
X67573449Y-52336379D01*
X67658791Y-52208656D01*
X67726772Y-52106914D01*
X67921914Y-51911772D01*
X68151378Y-51758450D01*
X68151379Y-51758449D01*
X68300733Y-51696585D01*
X68406343Y-51652839D01*
X68496567Y-51634893D01*
X68677012Y-51599000D01*
X68952988Y-51599000D01*
X69133433Y-51634893D01*
X69133433Y-51634893D01*
G37*
G36*
X60733433Y-50434893D02*
G01*
X60823657Y-50452839D01*
X60929267Y-50496585D01*
X61078621Y-50558449D01*
X61078622Y-50558450D01*
X61308086Y-50711772D01*
X61503228Y-50906914D01*
X61605675Y-51060237D01*
X61656551Y-51136379D01*
X61762161Y-51391344D01*
X61816000Y-51662012D01*
X61816000Y-51937988D01*
X61762161Y-52208656D01*
X61656551Y-52463621D01*
X61656550Y-52463622D01*
X61503228Y-52693086D01*
X61308086Y-52888228D01*
X61154763Y-52990675D01*
X61078621Y-53041551D01*
X60929267Y-53103415D01*
X60823657Y-53147161D01*
X60733433Y-53165107D01*
X60552988Y-53201000D01*
X60277012Y-53201000D01*
X60096567Y-53165107D01*
X60006343Y-53147161D01*
X59900733Y-53103415D01*
X59751379Y-53041551D01*
X59675237Y-52990675D01*
X59521914Y-52888228D01*
X59326772Y-52693086D01*
X59173450Y-52463622D01*
X59173449Y-52463621D01*
X59067839Y-52208656D01*
X59014000Y-51937988D01*
X59014000Y-51662012D01*
X59067839Y-51391344D01*
X59173449Y-51136379D01*
X59224325Y-51060237D01*
X59326772Y-50906914D01*
X59521914Y-50711772D01*
X59751378Y-50558450D01*
X59751379Y-50558449D01*
X59900733Y-50496585D01*
X60006343Y-50452839D01*
X60096567Y-50434893D01*
X60277012Y-50399000D01*
X60552988Y-50399000D01*
X60733433Y-50434893D01*
X60733433Y-50434893D01*
G37*
G36*
X48414433Y-50434893D02*
G01*
X48504657Y-50452839D01*
X48610267Y-50496585D01*
X48759621Y-50558449D01*
X48759622Y-50558450D01*
X48989086Y-50711772D01*
X49184228Y-50906914D01*
X49286675Y-51060237D01*
X49337551Y-51136379D01*
X49443161Y-51391344D01*
X49497000Y-51662012D01*
X49497000Y-51937988D01*
X49443161Y-52208656D01*
X49337551Y-52463621D01*
X49337550Y-52463622D01*
X49184228Y-52693086D01*
X48989086Y-52888228D01*
X48835763Y-52990675D01*
X48759621Y-53041551D01*
X48610267Y-53103415D01*
X48504657Y-53147161D01*
X48414433Y-53165107D01*
X48233988Y-53201000D01*
X47958012Y-53201000D01*
X47777567Y-53165107D01*
X47687343Y-53147161D01*
X47581733Y-53103415D01*
X47432379Y-53041551D01*
X47356237Y-52990675D01*
X47202914Y-52888228D01*
X47007772Y-52693086D01*
X46854450Y-52463622D01*
X46854449Y-52463621D01*
X46748839Y-52208656D01*
X46695000Y-51937988D01*
X46695000Y-51662012D01*
X46748839Y-51391344D01*
X46854449Y-51136379D01*
X46905325Y-51060237D01*
X47007772Y-50906914D01*
X47202914Y-50711772D01*
X47432378Y-50558450D01*
X47432379Y-50558449D01*
X47581733Y-50496585D01*
X47687343Y-50452839D01*
X47777567Y-50434893D01*
X47958012Y-50399000D01*
X48233988Y-50399000D01*
X48414433Y-50434893D01*
X48414433Y-50434893D01*
G37*
G36*
X45006585Y-46484802D02*
G01*
X45156410Y-46514604D01*
X45438674Y-46631521D01*
X45692705Y-46801259D01*
X45908741Y-47017295D01*
X46078479Y-47271326D01*
X46195396Y-47553590D01*
X46255000Y-47853240D01*
X46255000Y-48158760D01*
X46195396Y-48458410D01*
X46078479Y-48740674D01*
X45908741Y-48994705D01*
X45692705Y-49210741D01*
X45438674Y-49380479D01*
X45156410Y-49497396D01*
X45006585Y-49527198D01*
X44856761Y-49557000D01*
X44551239Y-49557000D01*
X44401415Y-49527198D01*
X44251590Y-49497396D01*
X43969326Y-49380479D01*
X43715295Y-49210741D01*
X43499259Y-48994705D01*
X43329521Y-48740674D01*
X43212604Y-48458410D01*
X43153000Y-48158760D01*
X43153000Y-47853240D01*
X43212604Y-47553590D01*
X43329521Y-47271326D01*
X43499259Y-47017295D01*
X43715295Y-46801259D01*
X43969326Y-46631521D01*
X44251590Y-46514604D01*
X44401415Y-46484802D01*
X44551239Y-46455000D01*
X44856761Y-46455000D01*
X45006585Y-46484802D01*
X45006585Y-46484802D01*
G37*
G36*
X40434585Y-46484802D02*
G01*
X40584410Y-46514604D01*
X40866674Y-46631521D01*
X41120705Y-46801259D01*
X41336741Y-47017295D01*
X41506479Y-47271326D01*
X41623396Y-47553590D01*
X41683000Y-47853240D01*
X41683000Y-48158760D01*
X41623396Y-48458410D01*
X41506479Y-48740674D01*
X41336741Y-48994705D01*
X41120705Y-49210741D01*
X40866674Y-49380479D01*
X40584410Y-49497396D01*
X40434585Y-49527198D01*
X40284761Y-49557000D01*
X39979239Y-49557000D01*
X39829415Y-49527198D01*
X39679590Y-49497396D01*
X39397326Y-49380479D01*
X39143295Y-49210741D01*
X38927259Y-48994705D01*
X38757521Y-48740674D01*
X38640604Y-48458410D01*
X38581000Y-48158760D01*
X38581000Y-47853240D01*
X38640604Y-47553590D01*
X38757521Y-47271326D01*
X38927259Y-47017295D01*
X39143295Y-46801259D01*
X39397326Y-46631521D01*
X39679590Y-46514604D01*
X39829415Y-46484802D01*
X39979239Y-46455000D01*
X40284761Y-46455000D01*
X40434585Y-46484802D01*
X40434585Y-46484802D01*
G37*
G36*
X35862585Y-46484802D02*
G01*
X36012410Y-46514604D01*
X36294674Y-46631521D01*
X36548705Y-46801259D01*
X36764741Y-47017295D01*
X36934479Y-47271326D01*
X37051396Y-47553590D01*
X37111000Y-47853240D01*
X37111000Y-48158760D01*
X37051396Y-48458410D01*
X36934479Y-48740674D01*
X36764741Y-48994705D01*
X36548705Y-49210741D01*
X36294674Y-49380479D01*
X36012410Y-49497396D01*
X35862585Y-49527198D01*
X35712761Y-49557000D01*
X35407239Y-49557000D01*
X35257415Y-49527198D01*
X35107590Y-49497396D01*
X34825326Y-49380479D01*
X34571295Y-49210741D01*
X34355259Y-48994705D01*
X34185521Y-48740674D01*
X34068604Y-48458410D01*
X34009000Y-48158760D01*
X34009000Y-47853240D01*
X34068604Y-47553590D01*
X34185521Y-47271326D01*
X34355259Y-47017295D01*
X34571295Y-46801259D01*
X34825326Y-46631521D01*
X35107590Y-46514604D01*
X35257415Y-46484802D01*
X35407239Y-46455000D01*
X35712761Y-46455000D01*
X35862585Y-46484802D01*
X35862585Y-46484802D01*
G37*
G36*
X45845591Y-40460585D02*
G01*
X45879569Y-40470893D01*
X45910890Y-40487634D01*
X45938339Y-40510161D01*
X45960866Y-40537610D01*
X45977607Y-40568931D01*
X45987915Y-40602909D01*
X45992000Y-40644390D01*
X45992000Y-41245610D01*
X45987915Y-41287091D01*
X45977607Y-41321069D01*
X45960866Y-41352390D01*
X45938339Y-41379839D01*
X45910890Y-41402366D01*
X45879569Y-41419107D01*
X45845591Y-41429415D01*
X45804110Y-41433500D01*
X45127890Y-41433500D01*
X45086409Y-41429415D01*
X45052431Y-41419107D01*
X45021110Y-41402366D01*
X44993661Y-41379839D01*
X44971134Y-41352390D01*
X44954393Y-41321069D01*
X44944085Y-41287091D01*
X44940000Y-41245610D01*
X44940000Y-40644390D01*
X44944085Y-40602909D01*
X44954393Y-40568931D01*
X44971134Y-40537610D01*
X44993661Y-40510161D01*
X45021110Y-40487634D01*
X45052431Y-40470893D01*
X45086409Y-40460585D01*
X45127890Y-40456500D01*
X45804110Y-40456500D01*
X45845591Y-40460585D01*
X45845591Y-40460585D01*
G37*
G36*
X38987591Y-40435085D02*
G01*
X39021569Y-40445393D01*
X39052890Y-40462134D01*
X39080339Y-40484661D01*
X39102866Y-40512110D01*
X39119607Y-40543431D01*
X39129915Y-40577409D01*
X39134000Y-40618890D01*
X39134000Y-41220110D01*
X39129915Y-41261591D01*
X39119607Y-41295569D01*
X39102866Y-41326890D01*
X39080339Y-41354339D01*
X39052890Y-41376866D01*
X39021569Y-41393607D01*
X38987591Y-41403915D01*
X38946110Y-41408000D01*
X38269890Y-41408000D01*
X38228409Y-41403915D01*
X38194431Y-41393607D01*
X38163110Y-41376866D01*
X38135661Y-41354339D01*
X38113134Y-41326890D01*
X38096393Y-41295569D01*
X38086085Y-41261591D01*
X38082000Y-41220110D01*
X38082000Y-40618890D01*
X38086085Y-40577409D01*
X38096393Y-40543431D01*
X38113134Y-40512110D01*
X38135661Y-40484661D01*
X38163110Y-40462134D01*
X38194431Y-40445393D01*
X38228409Y-40435085D01*
X38269890Y-40431000D01*
X38946110Y-40431000D01*
X38987591Y-40435085D01*
X38987591Y-40435085D01*
G37*
G36*
X43559591Y-40435085D02*
G01*
X43593569Y-40445393D01*
X43624890Y-40462134D01*
X43652339Y-40484661D01*
X43674866Y-40512110D01*
X43691607Y-40543431D01*
X43701915Y-40577409D01*
X43706000Y-40618890D01*
X43706000Y-41220110D01*
X43701915Y-41261591D01*
X43691607Y-41295569D01*
X43674866Y-41326890D01*
X43652339Y-41354339D01*
X43624890Y-41376866D01*
X43593569Y-41393607D01*
X43559591Y-41403915D01*
X43518110Y-41408000D01*
X42841890Y-41408000D01*
X42800409Y-41403915D01*
X42766431Y-41393607D01*
X42735110Y-41376866D01*
X42707661Y-41354339D01*
X42685134Y-41326890D01*
X42668393Y-41295569D01*
X42658085Y-41261591D01*
X42654000Y-41220110D01*
X42654000Y-40618890D01*
X42658085Y-40577409D01*
X42668393Y-40543431D01*
X42685134Y-40512110D01*
X42707661Y-40484661D01*
X42735110Y-40462134D01*
X42766431Y-40445393D01*
X42800409Y-40435085D01*
X42841890Y-40431000D01*
X43518110Y-40431000D01*
X43559591Y-40435085D01*
X43559591Y-40435085D01*
G37*
G36*
X34415591Y-40435085D02*
G01*
X34449569Y-40445393D01*
X34480890Y-40462134D01*
X34508339Y-40484661D01*
X34530866Y-40512110D01*
X34547607Y-40543431D01*
X34557915Y-40577409D01*
X34562000Y-40618890D01*
X34562000Y-41220110D01*
X34557915Y-41261591D01*
X34547607Y-41295569D01*
X34530866Y-41326890D01*
X34508339Y-41354339D01*
X34480890Y-41376866D01*
X34449569Y-41393607D01*
X34415591Y-41403915D01*
X34374110Y-41408000D01*
X33697890Y-41408000D01*
X33656409Y-41403915D01*
X33622431Y-41393607D01*
X33591110Y-41376866D01*
X33563661Y-41354339D01*
X33541134Y-41326890D01*
X33524393Y-41295569D01*
X33514085Y-41261591D01*
X33510000Y-41220110D01*
X33510000Y-40618890D01*
X33514085Y-40577409D01*
X33524393Y-40543431D01*
X33541134Y-40512110D01*
X33563661Y-40484661D01*
X33591110Y-40462134D01*
X33622431Y-40445393D01*
X33656409Y-40435085D01*
X33697890Y-40431000D01*
X34374110Y-40431000D01*
X34415591Y-40435085D01*
X34415591Y-40435085D01*
G37*
G36*
X36701591Y-40435085D02*
G01*
X36735569Y-40445393D01*
X36766890Y-40462134D01*
X36794339Y-40484661D01*
X36816866Y-40512110D01*
X36833607Y-40543431D01*
X36843915Y-40577409D01*
X36848000Y-40618890D01*
X36848000Y-41220110D01*
X36843915Y-41261591D01*
X36833607Y-41295569D01*
X36816866Y-41326890D01*
X36794339Y-41354339D01*
X36766890Y-41376866D01*
X36735569Y-41393607D01*
X36701591Y-41403915D01*
X36660110Y-41408000D01*
X35983890Y-41408000D01*
X35942409Y-41403915D01*
X35908431Y-41393607D01*
X35877110Y-41376866D01*
X35849661Y-41354339D01*
X35827134Y-41326890D01*
X35810393Y-41295569D01*
X35800085Y-41261591D01*
X35796000Y-41220110D01*
X35796000Y-40618890D01*
X35800085Y-40577409D01*
X35810393Y-40543431D01*
X35827134Y-40512110D01*
X35849661Y-40484661D01*
X35877110Y-40462134D01*
X35908431Y-40445393D01*
X35942409Y-40435085D01*
X35983890Y-40431000D01*
X36660110Y-40431000D01*
X36701591Y-40435085D01*
X36701591Y-40435085D01*
G37*
G36*
X41273591Y-40435085D02*
G01*
X41307569Y-40445393D01*
X41338890Y-40462134D01*
X41366339Y-40484661D01*
X41388866Y-40512110D01*
X41405607Y-40543431D01*
X41415915Y-40577409D01*
X41420000Y-40618890D01*
X41420000Y-41220110D01*
X41415915Y-41261591D01*
X41405607Y-41295569D01*
X41388866Y-41326890D01*
X41366339Y-41354339D01*
X41338890Y-41376866D01*
X41307569Y-41393607D01*
X41273591Y-41403915D01*
X41232110Y-41408000D01*
X40555890Y-41408000D01*
X40514409Y-41403915D01*
X40480431Y-41393607D01*
X40449110Y-41376866D01*
X40421661Y-41354339D01*
X40399134Y-41326890D01*
X40382393Y-41295569D01*
X40372085Y-41261591D01*
X40368000Y-41220110D01*
X40368000Y-40618890D01*
X40372085Y-40577409D01*
X40382393Y-40543431D01*
X40399134Y-40512110D01*
X40421661Y-40484661D01*
X40449110Y-40462134D01*
X40480431Y-40445393D01*
X40514409Y-40435085D01*
X40555890Y-40431000D01*
X41232110Y-40431000D01*
X41273591Y-40435085D01*
X41273591Y-40435085D01*
G37*
G36*
X45845591Y-38885585D02*
G01*
X45879569Y-38895893D01*
X45910890Y-38912634D01*
X45938339Y-38935161D01*
X45960866Y-38962610D01*
X45977607Y-38993931D01*
X45987915Y-39027909D01*
X45992000Y-39069390D01*
X45992000Y-39670610D01*
X45987915Y-39712091D01*
X45977607Y-39746069D01*
X45960866Y-39777390D01*
X45938339Y-39804839D01*
X45910890Y-39827366D01*
X45879569Y-39844107D01*
X45845591Y-39854415D01*
X45804110Y-39858500D01*
X45127890Y-39858500D01*
X45086409Y-39854415D01*
X45052431Y-39844107D01*
X45021110Y-39827366D01*
X44993661Y-39804839D01*
X44971134Y-39777390D01*
X44954393Y-39746069D01*
X44944085Y-39712091D01*
X44940000Y-39670610D01*
X44940000Y-39069390D01*
X44944085Y-39027909D01*
X44954393Y-38993931D01*
X44971134Y-38962610D01*
X44993661Y-38935161D01*
X45021110Y-38912634D01*
X45052431Y-38895893D01*
X45086409Y-38885585D01*
X45127890Y-38881500D01*
X45804110Y-38881500D01*
X45845591Y-38885585D01*
X45845591Y-38885585D01*
G37*
G36*
X43559591Y-38860085D02*
G01*
X43593569Y-38870393D01*
X43624890Y-38887134D01*
X43652339Y-38909661D01*
X43674866Y-38937110D01*
X43691607Y-38968431D01*
X43701915Y-39002409D01*
X43706000Y-39043890D01*
X43706000Y-39645110D01*
X43701915Y-39686591D01*
X43691607Y-39720569D01*
X43674866Y-39751890D01*
X43652339Y-39779339D01*
X43624890Y-39801866D01*
X43593569Y-39818607D01*
X43559591Y-39828915D01*
X43518110Y-39833000D01*
X42841890Y-39833000D01*
X42800409Y-39828915D01*
X42766431Y-39818607D01*
X42735110Y-39801866D01*
X42707661Y-39779339D01*
X42685134Y-39751890D01*
X42668393Y-39720569D01*
X42658085Y-39686591D01*
X42654000Y-39645110D01*
X42654000Y-39043890D01*
X42658085Y-39002409D01*
X42668393Y-38968431D01*
X42685134Y-38937110D01*
X42707661Y-38909661D01*
X42735110Y-38887134D01*
X42766431Y-38870393D01*
X42800409Y-38860085D01*
X42841890Y-38856000D01*
X43518110Y-38856000D01*
X43559591Y-38860085D01*
X43559591Y-38860085D01*
G37*
G36*
X38987591Y-38860085D02*
G01*
X39021569Y-38870393D01*
X39052890Y-38887134D01*
X39080339Y-38909661D01*
X39102866Y-38937110D01*
X39119607Y-38968431D01*
X39129915Y-39002409D01*
X39134000Y-39043890D01*
X39134000Y-39645110D01*
X39129915Y-39686591D01*
X39119607Y-39720569D01*
X39102866Y-39751890D01*
X39080339Y-39779339D01*
X39052890Y-39801866D01*
X39021569Y-39818607D01*
X38987591Y-39828915D01*
X38946110Y-39833000D01*
X38269890Y-39833000D01*
X38228409Y-39828915D01*
X38194431Y-39818607D01*
X38163110Y-39801866D01*
X38135661Y-39779339D01*
X38113134Y-39751890D01*
X38096393Y-39720569D01*
X38086085Y-39686591D01*
X38082000Y-39645110D01*
X38082000Y-39043890D01*
X38086085Y-39002409D01*
X38096393Y-38968431D01*
X38113134Y-38937110D01*
X38135661Y-38909661D01*
X38163110Y-38887134D01*
X38194431Y-38870393D01*
X38228409Y-38860085D01*
X38269890Y-38856000D01*
X38946110Y-38856000D01*
X38987591Y-38860085D01*
X38987591Y-38860085D01*
G37*
G36*
X34415591Y-38860085D02*
G01*
X34449569Y-38870393D01*
X34480890Y-38887134D01*
X34508339Y-38909661D01*
X34530866Y-38937110D01*
X34547607Y-38968431D01*
X34557915Y-39002409D01*
X34562000Y-39043890D01*
X34562000Y-39645110D01*
X34557915Y-39686591D01*
X34547607Y-39720569D01*
X34530866Y-39751890D01*
X34508339Y-39779339D01*
X34480890Y-39801866D01*
X34449569Y-39818607D01*
X34415591Y-39828915D01*
X34374110Y-39833000D01*
X33697890Y-39833000D01*
X33656409Y-39828915D01*
X33622431Y-39818607D01*
X33591110Y-39801866D01*
X33563661Y-39779339D01*
X33541134Y-39751890D01*
X33524393Y-39720569D01*
X33514085Y-39686591D01*
X33510000Y-39645110D01*
X33510000Y-39043890D01*
X33514085Y-39002409D01*
X33524393Y-38968431D01*
X33541134Y-38937110D01*
X33563661Y-38909661D01*
X33591110Y-38887134D01*
X33622431Y-38870393D01*
X33656409Y-38860085D01*
X33697890Y-38856000D01*
X34374110Y-38856000D01*
X34415591Y-38860085D01*
X34415591Y-38860085D01*
G37*
G36*
X36701591Y-38860085D02*
G01*
X36735569Y-38870393D01*
X36766890Y-38887134D01*
X36794339Y-38909661D01*
X36816866Y-38937110D01*
X36833607Y-38968431D01*
X36843915Y-39002409D01*
X36848000Y-39043890D01*
X36848000Y-39645110D01*
X36843915Y-39686591D01*
X36833607Y-39720569D01*
X36816866Y-39751890D01*
X36794339Y-39779339D01*
X36766890Y-39801866D01*
X36735569Y-39818607D01*
X36701591Y-39828915D01*
X36660110Y-39833000D01*
X35983890Y-39833000D01*
X35942409Y-39828915D01*
X35908431Y-39818607D01*
X35877110Y-39801866D01*
X35849661Y-39779339D01*
X35827134Y-39751890D01*
X35810393Y-39720569D01*
X35800085Y-39686591D01*
X35796000Y-39645110D01*
X35796000Y-39043890D01*
X35800085Y-39002409D01*
X35810393Y-38968431D01*
X35827134Y-38937110D01*
X35849661Y-38909661D01*
X35877110Y-38887134D01*
X35908431Y-38870393D01*
X35942409Y-38860085D01*
X35983890Y-38856000D01*
X36660110Y-38856000D01*
X36701591Y-38860085D01*
X36701591Y-38860085D01*
G37*
G36*
X41273591Y-38860085D02*
G01*
X41307569Y-38870393D01*
X41338890Y-38887134D01*
X41366339Y-38909661D01*
X41388866Y-38937110D01*
X41405607Y-38968431D01*
X41415915Y-39002409D01*
X41420000Y-39043890D01*
X41420000Y-39645110D01*
X41415915Y-39686591D01*
X41405607Y-39720569D01*
X41388866Y-39751890D01*
X41366339Y-39779339D01*
X41338890Y-39801866D01*
X41307569Y-39818607D01*
X41273591Y-39828915D01*
X41232110Y-39833000D01*
X40555890Y-39833000D01*
X40514409Y-39828915D01*
X40480431Y-39818607D01*
X40449110Y-39801866D01*
X40421661Y-39779339D01*
X40399134Y-39751890D01*
X40382393Y-39720569D01*
X40372085Y-39686591D01*
X40368000Y-39645110D01*
X40368000Y-39043890D01*
X40372085Y-39002409D01*
X40382393Y-38968431D01*
X40399134Y-38937110D01*
X40421661Y-38909661D01*
X40449110Y-38887134D01*
X40480431Y-38870393D01*
X40514409Y-38860085D01*
X40555890Y-38856000D01*
X41232110Y-38856000D01*
X41273591Y-38860085D01*
X41273591Y-38860085D01*
G37*
G36*
X45401000Y-37296000D02*
G01*
X43499000Y-37296000D01*
X43499000Y-35394000D01*
X45401000Y-35394000D01*
X45401000Y-37296000D01*
X45401000Y-37296000D01*
G37*
G36*
X34427395Y-35430546D02*
G01*
X34600466Y-35502234D01*
X34600467Y-35502235D01*
X34756227Y-35606310D01*
X34888690Y-35738773D01*
X34888691Y-35738775D01*
X34992766Y-35894534D01*
X35064454Y-36067605D01*
X35101000Y-36251333D01*
X35101000Y-36438667D01*
X35064454Y-36622395D01*
X34992766Y-36795466D01*
X34992765Y-36795467D01*
X34888690Y-36951227D01*
X34756227Y-37083690D01*
X34677818Y-37136081D01*
X34600466Y-37187766D01*
X34427395Y-37259454D01*
X34243667Y-37296000D01*
X34056333Y-37296000D01*
X33872605Y-37259454D01*
X33699534Y-37187766D01*
X33622182Y-37136081D01*
X33543773Y-37083690D01*
X33411310Y-36951227D01*
X33307235Y-36795467D01*
X33307234Y-36795466D01*
X33235546Y-36622395D01*
X33199000Y-36438667D01*
X33199000Y-36251333D01*
X33235546Y-36067605D01*
X33307234Y-35894534D01*
X33411309Y-35738775D01*
X33411310Y-35738773D01*
X33543773Y-35606310D01*
X33699533Y-35502235D01*
X33699534Y-35502234D01*
X33872605Y-35430546D01*
X34056333Y-35394000D01*
X34243667Y-35394000D01*
X34427395Y-35430546D01*
X34427395Y-35430546D01*
G37*
G36*
X60733433Y-32634893D02*
G01*
X60823657Y-32652839D01*
X60929267Y-32696585D01*
X61078621Y-32758449D01*
X61078622Y-32758450D01*
X61308086Y-32911772D01*
X61503228Y-33106914D01*
X61571209Y-33208656D01*
X61656551Y-33336379D01*
X61762161Y-33591344D01*
X61816000Y-33862012D01*
X61816000Y-34137988D01*
X61762161Y-34408656D01*
X61656551Y-34663621D01*
X61656550Y-34663622D01*
X61503228Y-34893086D01*
X61308086Y-35088228D01*
X61154763Y-35190675D01*
X61078621Y-35241551D01*
X60929267Y-35303415D01*
X60823657Y-35347161D01*
X60733433Y-35365107D01*
X60552988Y-35401000D01*
X60277012Y-35401000D01*
X60096567Y-35365107D01*
X60006343Y-35347161D01*
X59900733Y-35303415D01*
X59751379Y-35241551D01*
X59675237Y-35190675D01*
X59521914Y-35088228D01*
X59326772Y-34893086D01*
X59173450Y-34663622D01*
X59173449Y-34663621D01*
X59067839Y-34408656D01*
X59014000Y-34137988D01*
X59014000Y-33862012D01*
X59067839Y-33591344D01*
X59173449Y-33336379D01*
X59258791Y-33208656D01*
X59326772Y-33106914D01*
X59521914Y-32911772D01*
X59751378Y-32758450D01*
X59751379Y-32758449D01*
X59900733Y-32696585D01*
X60006343Y-32652839D01*
X60096567Y-32634893D01*
X60277012Y-32599000D01*
X60552988Y-32599000D01*
X60733433Y-32634893D01*
X60733433Y-32634893D01*
G37*
G36*
X48414433Y-32634893D02*
G01*
X48504657Y-32652839D01*
X48610267Y-32696585D01*
X48759621Y-32758449D01*
X48759622Y-32758450D01*
X48989086Y-32911772D01*
X49184228Y-33106914D01*
X49252209Y-33208656D01*
X49337551Y-33336379D01*
X49443161Y-33591344D01*
X49497000Y-33862012D01*
X49497000Y-34137988D01*
X49443161Y-34408656D01*
X49337551Y-34663621D01*
X49337550Y-34663622D01*
X49184228Y-34893086D01*
X48989086Y-35088228D01*
X48835763Y-35190675D01*
X48759621Y-35241551D01*
X48610267Y-35303415D01*
X48504657Y-35347161D01*
X48414433Y-35365107D01*
X48233988Y-35401000D01*
X47958012Y-35401000D01*
X47777567Y-35365107D01*
X47687343Y-35347161D01*
X47581733Y-35303415D01*
X47432379Y-35241551D01*
X47356237Y-35190675D01*
X47202914Y-35088228D01*
X47007772Y-34893086D01*
X46854450Y-34663622D01*
X46854449Y-34663621D01*
X46748839Y-34408656D01*
X46695000Y-34137988D01*
X46695000Y-33862012D01*
X46748839Y-33591344D01*
X46854449Y-33336379D01*
X46939791Y-33208656D01*
X47007772Y-33106914D01*
X47202914Y-32911772D01*
X47432378Y-32758450D01*
X47432379Y-32758449D01*
X47581733Y-32696585D01*
X47687343Y-32652839D01*
X47777567Y-32634893D01*
X47958012Y-32599000D01*
X48233988Y-32599000D01*
X48414433Y-32634893D01*
X48414433Y-32634893D01*
G37*
G36*
X56814433Y-31434893D02*
G01*
X56904657Y-31452839D01*
X57010267Y-31496585D01*
X57159621Y-31558449D01*
X57159622Y-31558450D01*
X57389086Y-31711772D01*
X57584228Y-31906914D01*
X57659599Y-32019715D01*
X57737551Y-32136379D01*
X57790285Y-32263690D01*
X57843161Y-32391343D01*
X57897000Y-32662014D01*
X57897000Y-32937986D01*
X57843161Y-33208657D01*
X57799415Y-33314267D01*
X57737551Y-33463621D01*
X57737550Y-33463622D01*
X57584228Y-33693086D01*
X57389086Y-33888228D01*
X57235763Y-33990675D01*
X57159621Y-34041551D01*
X57010267Y-34103415D01*
X56904657Y-34147161D01*
X56814433Y-34165107D01*
X56633988Y-34201000D01*
X56358012Y-34201000D01*
X56177567Y-34165107D01*
X56087343Y-34147161D01*
X55981733Y-34103415D01*
X55832379Y-34041551D01*
X55756237Y-33990675D01*
X55602914Y-33888228D01*
X55407772Y-33693086D01*
X55254450Y-33463622D01*
X55254449Y-33463621D01*
X55192585Y-33314267D01*
X55148839Y-33208657D01*
X55095000Y-32937986D01*
X55095000Y-32662014D01*
X55148839Y-32391343D01*
X55201715Y-32263690D01*
X55254449Y-32136379D01*
X55332401Y-32019715D01*
X55407772Y-31906914D01*
X55602914Y-31711772D01*
X55832378Y-31558450D01*
X55832379Y-31558449D01*
X55981733Y-31496585D01*
X56087343Y-31452839D01*
X56177567Y-31434893D01*
X56358012Y-31399000D01*
X56633988Y-31399000D01*
X56814433Y-31434893D01*
X56814433Y-31434893D01*
G37*
G36*
X69133433Y-31434893D02*
G01*
X69223657Y-31452839D01*
X69329267Y-31496585D01*
X69478621Y-31558449D01*
X69478622Y-31558450D01*
X69708086Y-31711772D01*
X69903228Y-31906914D01*
X69978599Y-32019715D01*
X70056551Y-32136379D01*
X70109285Y-32263690D01*
X70162161Y-32391343D01*
X70216000Y-32662014D01*
X70216000Y-32937986D01*
X70162161Y-33208657D01*
X70118415Y-33314267D01*
X70056551Y-33463621D01*
X70056550Y-33463622D01*
X69903228Y-33693086D01*
X69708086Y-33888228D01*
X69554763Y-33990675D01*
X69478621Y-34041551D01*
X69329267Y-34103415D01*
X69223657Y-34147161D01*
X69133433Y-34165107D01*
X68952988Y-34201000D01*
X68677012Y-34201000D01*
X68496567Y-34165107D01*
X68406343Y-34147161D01*
X68300733Y-34103415D01*
X68151379Y-34041551D01*
X68075237Y-33990675D01*
X67921914Y-33888228D01*
X67726772Y-33693086D01*
X67573450Y-33463622D01*
X67573449Y-33463621D01*
X67511585Y-33314267D01*
X67467839Y-33208657D01*
X67414000Y-32937986D01*
X67414000Y-32662014D01*
X67467839Y-32391343D01*
X67520715Y-32263690D01*
X67573449Y-32136379D01*
X67651401Y-32019715D01*
X67726772Y-31906914D01*
X67921914Y-31711772D01*
X68151378Y-31558450D01*
X68151379Y-31558449D01*
X68300733Y-31496585D01*
X68406343Y-31452839D01*
X68496567Y-31434893D01*
X68677012Y-31399000D01*
X68952988Y-31399000D01*
X69133433Y-31434893D01*
X69133433Y-31434893D01*
G37*
G36*
X34384810Y-31870935D02*
G01*
X34531309Y-31931617D01*
X34531310Y-31931618D01*
X34663158Y-32019716D01*
X34775284Y-32131842D01*
X34819633Y-32198215D01*
X34863383Y-32263691D01*
X34924065Y-32410190D01*
X34955000Y-32565713D01*
X34955000Y-32724287D01*
X34924065Y-32879810D01*
X34863383Y-33026309D01*
X34863382Y-33026310D01*
X34775284Y-33158158D01*
X34663158Y-33270284D01*
X34596785Y-33314633D01*
X34531309Y-33358383D01*
X34384810Y-33419065D01*
X34229287Y-33450000D01*
X34070713Y-33450000D01*
X33915190Y-33419065D01*
X33768691Y-33358383D01*
X33703215Y-33314633D01*
X33636842Y-33270284D01*
X33524716Y-33158158D01*
X33436618Y-33026310D01*
X33436617Y-33026309D01*
X33375935Y-32879810D01*
X33345000Y-32724287D01*
X33345000Y-32565713D01*
X33375935Y-32410190D01*
X33436617Y-32263691D01*
X33480367Y-32198215D01*
X33524716Y-32131842D01*
X33636842Y-32019716D01*
X33768690Y-31931618D01*
X33768691Y-31931617D01*
X33915190Y-31870935D01*
X34070713Y-31840000D01*
X34229287Y-31840000D01*
X34384810Y-31870935D01*
X34384810Y-31870935D01*
G37*
G36*
X44684810Y-31870935D02*
G01*
X44831309Y-31931617D01*
X44831310Y-31931618D01*
X44963158Y-32019716D01*
X45075284Y-32131842D01*
X45119633Y-32198215D01*
X45163383Y-32263691D01*
X45224065Y-32410190D01*
X45255000Y-32565713D01*
X45255000Y-32724287D01*
X45224065Y-32879810D01*
X45163383Y-33026309D01*
X45163382Y-33026310D01*
X45075284Y-33158158D01*
X44963158Y-33270284D01*
X44896785Y-33314633D01*
X44831309Y-33358383D01*
X44684810Y-33419065D01*
X44529287Y-33450000D01*
X44370713Y-33450000D01*
X44215190Y-33419065D01*
X44068691Y-33358383D01*
X44003215Y-33314633D01*
X43936842Y-33270284D01*
X43824716Y-33158158D01*
X43736618Y-33026310D01*
X43736617Y-33026309D01*
X43675935Y-32879810D01*
X43645000Y-32724287D01*
X43645000Y-32565713D01*
X43675935Y-32410190D01*
X43736617Y-32263691D01*
X43780367Y-32198215D01*
X43824716Y-32131842D01*
X43936842Y-32019716D01*
X44068690Y-31931618D01*
X44068691Y-31931617D01*
X44215190Y-31870935D01*
X44370713Y-31840000D01*
X44529287Y-31840000D01*
X44684810Y-31870935D01*
X44684810Y-31870935D01*
G37*
G36*
X44727395Y-28930546D02*
G01*
X44900466Y-29002234D01*
X44900467Y-29002235D01*
X45056227Y-29106310D01*
X45188690Y-29238773D01*
X45189704Y-29240291D01*
X45292766Y-29394534D01*
X45364454Y-29567605D01*
X45401000Y-29751333D01*
X45401000Y-29938667D01*
X45364454Y-30122395D01*
X45292766Y-30295466D01*
X45292765Y-30295467D01*
X45188690Y-30451227D01*
X45056227Y-30583690D01*
X44977818Y-30636081D01*
X44900466Y-30687766D01*
X44727395Y-30759454D01*
X44543667Y-30796000D01*
X44356333Y-30796000D01*
X44172605Y-30759454D01*
X43999534Y-30687766D01*
X43922182Y-30636081D01*
X43843773Y-30583690D01*
X43711310Y-30451227D01*
X43607235Y-30295467D01*
X43607234Y-30295466D01*
X43535546Y-30122395D01*
X43499000Y-29938667D01*
X43499000Y-29751333D01*
X43535546Y-29567605D01*
X43607234Y-29394534D01*
X43710296Y-29240291D01*
X43711310Y-29238773D01*
X43843773Y-29106310D01*
X43999533Y-29002235D01*
X43999534Y-29002234D01*
X44172605Y-28930546D01*
X44356333Y-28894000D01*
X44543667Y-28894000D01*
X44727395Y-28930546D01*
X44727395Y-28930546D01*
G37*
G36*
X34427395Y-28930546D02*
G01*
X34600466Y-29002234D01*
X34600467Y-29002235D01*
X34756227Y-29106310D01*
X34888690Y-29238773D01*
X34889704Y-29240291D01*
X34992766Y-29394534D01*
X35064454Y-29567605D01*
X35101000Y-29751333D01*
X35101000Y-29938667D01*
X35064454Y-30122395D01*
X34992766Y-30295466D01*
X34992765Y-30295467D01*
X34888690Y-30451227D01*
X34756227Y-30583690D01*
X34677818Y-30636081D01*
X34600466Y-30687766D01*
X34427395Y-30759454D01*
X34243667Y-30796000D01*
X34056333Y-30796000D01*
X33872605Y-30759454D01*
X33699534Y-30687766D01*
X33622182Y-30636081D01*
X33543773Y-30583690D01*
X33411310Y-30451227D01*
X33307235Y-30295467D01*
X33307234Y-30295466D01*
X33235546Y-30122395D01*
X33199000Y-29938667D01*
X33199000Y-29751333D01*
X33235546Y-29567605D01*
X33307234Y-29394534D01*
X33410296Y-29240291D01*
X33411310Y-29238773D01*
X33543773Y-29106310D01*
X33699533Y-29002235D01*
X33699534Y-29002234D01*
X33872605Y-28930546D01*
X34056333Y-28894000D01*
X34243667Y-28894000D01*
X34427395Y-28930546D01*
X34427395Y-28930546D01*
G37*
G36*
X63135104Y-27759585D02*
G01*
X63303626Y-27829389D01*
X63455291Y-27930728D01*
X63584272Y-28059709D01*
X63685611Y-28211374D01*
X63755415Y-28379896D01*
X63791000Y-28558797D01*
X63791000Y-28741203D01*
X63755415Y-28920104D01*
X63685611Y-29088626D01*
X63584272Y-29240291D01*
X63455291Y-29369272D01*
X63303626Y-29470611D01*
X63135104Y-29540415D01*
X62956203Y-29576000D01*
X62773797Y-29576000D01*
X62594896Y-29540415D01*
X62426374Y-29470611D01*
X62274709Y-29369272D01*
X62145728Y-29240291D01*
X62044389Y-29088626D01*
X61974585Y-28920104D01*
X61939000Y-28741203D01*
X61939000Y-28558797D01*
X61974585Y-28379896D01*
X62044389Y-28211374D01*
X62145728Y-28059709D01*
X62274709Y-27930728D01*
X62426374Y-27829389D01*
X62594896Y-27759585D01*
X62773797Y-27724000D01*
X62956203Y-27724000D01*
X63135104Y-27759585D01*
X63135104Y-27759585D01*
G37*
G36*
X50816104Y-27759585D02*
G01*
X50984626Y-27829389D01*
X51136291Y-27930728D01*
X51265272Y-28059709D01*
X51366611Y-28211374D01*
X51436415Y-28379896D01*
X51472000Y-28558797D01*
X51472000Y-28741203D01*
X51436415Y-28920104D01*
X51366611Y-29088626D01*
X51265272Y-29240291D01*
X51136291Y-29369272D01*
X50984626Y-29470611D01*
X50816104Y-29540415D01*
X50637203Y-29576000D01*
X50454797Y-29576000D01*
X50275896Y-29540415D01*
X50107374Y-29470611D01*
X49955709Y-29369272D01*
X49826728Y-29240291D01*
X49725389Y-29088626D01*
X49655585Y-28920104D01*
X49620000Y-28741203D01*
X49620000Y-28558797D01*
X49655585Y-28379896D01*
X49725389Y-28211374D01*
X49826728Y-28059709D01*
X49955709Y-27930728D01*
X50107374Y-27829389D01*
X50275896Y-27759585D01*
X50454797Y-27724000D01*
X50637203Y-27724000D01*
X50816104Y-27759585D01*
X50816104Y-27759585D01*
G37*
G36*
X35935256Y-22140298D02*
G01*
X36041579Y-22161447D01*
X36342042Y-22285903D01*
X36612451Y-22466585D01*
X36842415Y-22696549D01*
X37023097Y-22966958D01*
X37147553Y-23267421D01*
X37211000Y-23586391D01*
X37211000Y-23911609D01*
X37147553Y-24230579D01*
X37023097Y-24531042D01*
X36842415Y-24801451D01*
X36612451Y-25031415D01*
X36342042Y-25212097D01*
X36041579Y-25336553D01*
X35935256Y-25357702D01*
X35722611Y-25400000D01*
X35397389Y-25400000D01*
X35184744Y-25357702D01*
X35078421Y-25336553D01*
X34777958Y-25212097D01*
X34507549Y-25031415D01*
X34277585Y-24801451D01*
X34096903Y-24531042D01*
X33972447Y-24230579D01*
X33909000Y-23911609D01*
X33909000Y-23586391D01*
X33972447Y-23267421D01*
X34096903Y-22966958D01*
X34277585Y-22696549D01*
X34507549Y-22466585D01*
X34777958Y-22285903D01*
X35078421Y-22161447D01*
X35184744Y-22140298D01*
X35397389Y-22098000D01*
X35722611Y-22098000D01*
X35935256Y-22140298D01*
X35935256Y-22140298D01*
G37*
G36*
X68701256Y-22140298D02*
G01*
X68807579Y-22161447D01*
X69108042Y-22285903D01*
X69378451Y-22466585D01*
X69608415Y-22696549D01*
X69789097Y-22966958D01*
X69913553Y-23267421D01*
X69977000Y-23586391D01*
X69977000Y-23911609D01*
X69913553Y-24230579D01*
X69789097Y-24531042D01*
X69608415Y-24801451D01*
X69378451Y-25031415D01*
X69108042Y-25212097D01*
X68807579Y-25336553D01*
X68701256Y-25357702D01*
X68488611Y-25400000D01*
X68163389Y-25400000D01*
X67950744Y-25357702D01*
X67844421Y-25336553D01*
X67543958Y-25212097D01*
X67273549Y-25031415D01*
X67043585Y-24801451D01*
X66862903Y-24531042D01*
X66738447Y-24230579D01*
X66675000Y-23911609D01*
X66675000Y-23586391D01*
X66738447Y-23267421D01*
X66862903Y-22966958D01*
X67043585Y-22696549D01*
X67273549Y-22466585D01*
X67543958Y-22285903D01*
X67844421Y-22161447D01*
X67950744Y-22140298D01*
X68163389Y-22098000D01*
X68488611Y-22098000D01*
X68701256Y-22140298D01*
X68701256Y-22140298D01*
G37*
M02*
