%TF.GenerationSoftware,KiCad,Pcbnew,7.0.1*%
%TF.CreationDate,2023-10-27T14:21:39-05:00*%
%TF.ProjectId,ramn,72616d6e-2e6b-4696-9361-645f70636258,V1.1*%
%TF.SameCoordinates,Original*%
%TF.FileFunction,Drillmap*%
%TF.FilePolarity,Positive*%
%FSLAX45Y45*%
G04 Gerber Fmt 4.5, Leading zero omitted, Abs format (unit mm)*
G04 Created by KiCad (PCBNEW 7.0.1) date 2023-10-27 14:21:39*
%MOMM*%
%LPD*%
G01*
G04 APERTURE LIST*
%ADD10C,0.050000*%
%ADD11C,0.200000*%
%ADD12C,0.030000*%
%ADD13C,0.040000*%
%ADD14C,0.100000*%
%ADD15C,0.120000*%
%ADD16C,0.140000*%
%ADD17C,0.150000*%
%ADD18C,0.320000*%
G04 APERTURE END LIST*
D10*
X3935000Y-4149000D02*
X13296288Y-4149000D01*
X13296288Y-11147000D01*
X3935000Y-11147000D01*
X3935000Y-4149000D01*
D11*
D12*
X6775500Y-5528000D02*
X6805500Y-5558000D01*
X6805500Y-5528000D02*
X6775500Y-5558000D01*
X6825500Y-5668000D02*
X6855500Y-5698000D01*
X6855500Y-5668000D02*
X6825500Y-5698000D01*
X6825500Y-6143000D02*
X6855500Y-6173000D01*
X6855500Y-6143000D02*
X6825500Y-6173000D01*
D13*
X4285500Y-5808000D02*
G75*
G03*
X4285500Y-5808000I-20000J0D01*
G01*
X4520500Y-6643000D02*
G75*
G03*
X4520500Y-6643000I-20000J0D01*
G01*
X4770500Y-5703000D02*
G75*
G03*
X4770500Y-5703000I-20000J0D01*
G01*
X4780500Y-6643000D02*
G75*
G03*
X4780500Y-6643000I-20000J0D01*
G01*
X5120500Y-10093000D02*
G75*
G03*
X5120500Y-10093000I-20000J0D01*
G01*
X5210500Y-9343000D02*
G75*
G03*
X5210500Y-9343000I-20000J0D01*
G01*
X5210500Y-9723000D02*
G75*
G03*
X5210500Y-9723000I-20000J0D01*
G01*
X5240500Y-7203000D02*
G75*
G03*
X5240500Y-7203000I-20000J0D01*
G01*
X5350500Y-6903000D02*
G75*
G03*
X5350500Y-6903000I-20000J0D01*
G01*
X5350500Y-8583000D02*
G75*
G03*
X5350500Y-8583000I-20000J0D01*
G01*
X5380500Y-6683000D02*
G75*
G03*
X5380500Y-6683000I-20000J0D01*
G01*
X5640500Y-7023000D02*
G75*
G03*
X5640500Y-7023000I-20000J0D01*
G01*
X5660500Y-5953000D02*
G75*
G03*
X5660500Y-5953000I-20000J0D01*
G01*
X5668050Y-6663000D02*
G75*
G03*
X5668050Y-6663000I-20000J0D01*
G01*
X5670500Y-10093000D02*
G75*
G03*
X5670500Y-10093000I-20000J0D01*
G01*
X5710500Y-5163000D02*
G75*
G03*
X5710500Y-5163000I-20000J0D01*
G01*
X5720500Y-5503000D02*
G75*
G03*
X5720500Y-5503000I-20000J0D01*
G01*
X5730500Y-9583000D02*
G75*
G03*
X5730500Y-9583000I-20000J0D01*
G01*
X5760500Y-7053000D02*
G75*
G03*
X5760500Y-7053000I-20000J0D01*
G01*
X5835500Y-5658000D02*
G75*
G03*
X5835500Y-5658000I-20000J0D01*
G01*
X5835500Y-5783000D02*
G75*
G03*
X5835500Y-5783000I-20000J0D01*
G01*
X5840500Y-9793000D02*
G75*
G03*
X5840500Y-9793000I-20000J0D01*
G01*
X5880500Y-8123000D02*
G75*
G03*
X5880500Y-8123000I-20000J0D01*
G01*
X5880500Y-9533000D02*
G75*
G03*
X5880500Y-9533000I-20000J0D01*
G01*
X5883000Y-10115000D02*
G75*
G03*
X5883000Y-10115000I-20000J0D01*
G01*
X5950500Y-6693000D02*
G75*
G03*
X5950500Y-6693000I-20000J0D01*
G01*
X6010500Y-7583000D02*
G75*
G03*
X6010500Y-7583000I-20000J0D01*
G01*
X6060500Y-8613000D02*
G75*
G03*
X6060500Y-8613000I-20000J0D01*
G01*
X6080500Y-9763000D02*
G75*
G03*
X6080500Y-9763000I-20000J0D01*
G01*
X6090500Y-6708000D02*
G75*
G03*
X6090500Y-6708000I-20000J0D01*
G01*
X6095500Y-7958000D02*
G75*
G03*
X6095500Y-7958000I-20000J0D01*
G01*
X6095500Y-8193000D02*
G75*
G03*
X6095500Y-8193000I-20000J0D01*
G01*
X6170500Y-7443000D02*
G75*
G03*
X6170500Y-7443000I-20000J0D01*
G01*
X6310500Y-7453000D02*
G75*
G03*
X6310500Y-7453000I-20000J0D01*
G01*
X6320500Y-6613000D02*
G75*
G03*
X6320500Y-6613000I-20000J0D01*
G01*
X6480500Y-8863000D02*
G75*
G03*
X6480500Y-8863000I-20000J0D01*
G01*
X6490500Y-8983000D02*
G75*
G03*
X6490500Y-8983000I-20000J0D01*
G01*
X6490500Y-9373000D02*
G75*
G03*
X6490500Y-9373000I-20000J0D01*
G01*
X6490500Y-9553000D02*
G75*
G03*
X6490500Y-9553000I-20000J0D01*
G01*
X6500500Y-6713000D02*
G75*
G03*
X6500500Y-6713000I-20000J0D01*
G01*
X6500500Y-8733000D02*
G75*
G03*
X6500500Y-8733000I-20000J0D01*
G01*
X6510500Y-8493000D02*
G75*
G03*
X6510500Y-8493000I-20000J0D01*
G01*
X6510500Y-9143000D02*
G75*
G03*
X6510500Y-9143000I-20000J0D01*
G01*
X6513503Y-9994608D02*
G75*
G03*
X6513503Y-9994608I-20000J0D01*
G01*
X6540500Y-7363000D02*
G75*
G03*
X6540500Y-7363000I-20000J0D01*
G01*
X6550500Y-7743000D02*
G75*
G03*
X6550500Y-7743000I-20000J0D01*
G01*
X6610500Y-9703000D02*
G75*
G03*
X6610500Y-9703000I-20000J0D01*
G01*
X6620500Y-8453000D02*
G75*
G03*
X6620500Y-8453000I-20000J0D01*
G01*
X6680500Y-6653000D02*
G75*
G03*
X6680500Y-6653000I-20000J0D01*
G01*
X6842806Y-8650694D02*
G75*
G03*
X6842806Y-8650694I-20000J0D01*
G01*
X6860500Y-5983000D02*
G75*
G03*
X6860500Y-5983000I-20000J0D01*
G01*
X6860500Y-6283000D02*
G75*
G03*
X6860500Y-6283000I-20000J0D01*
G01*
X6860500Y-6633000D02*
G75*
G03*
X6860500Y-6633000I-20000J0D01*
G01*
X6860500Y-7433000D02*
G75*
G03*
X6860500Y-7433000I-20000J0D01*
G01*
X6870500Y-8465550D02*
G75*
G03*
X6870500Y-8465550I-20000J0D01*
G01*
X6880500Y-7023000D02*
G75*
G03*
X6880500Y-7023000I-20000J0D01*
G01*
X6885500Y-5183000D02*
G75*
G03*
X6885500Y-5183000I-20000J0D01*
G01*
X6940500Y-8713000D02*
G75*
G03*
X6940500Y-8713000I-20000J0D01*
G01*
X7060500Y-8853000D02*
G75*
G03*
X7060500Y-8853000I-20000J0D01*
G01*
X7185500Y-5808000D02*
G75*
G03*
X7185500Y-5808000I-20000J0D01*
G01*
X7220500Y-7523000D02*
G75*
G03*
X7220500Y-7523000I-20000J0D01*
G01*
X7220500Y-8843000D02*
G75*
G03*
X7220500Y-8843000I-20000J0D01*
G01*
X7315465Y-6328035D02*
G75*
G03*
X7315465Y-6328035I-20000J0D01*
G01*
X7510500Y-5123000D02*
G75*
G03*
X7510500Y-5123000I-20000J0D01*
G01*
X7550500Y-6893000D02*
G75*
G03*
X7550500Y-6893000I-20000J0D01*
G01*
X7570500Y-7213000D02*
G75*
G03*
X7570500Y-7213000I-20000J0D01*
G01*
X7610500Y-9693000D02*
G75*
G03*
X7610500Y-9693000I-20000J0D01*
G01*
X7670500Y-5133000D02*
G75*
G03*
X7670500Y-5133000I-20000J0D01*
G01*
X7690500Y-6663000D02*
G75*
G03*
X7690500Y-6663000I-20000J0D01*
G01*
X7700500Y-5613000D02*
G75*
G03*
X7700500Y-5613000I-20000J0D01*
G01*
X7720500Y-9693000D02*
G75*
G03*
X7720500Y-9693000I-20000J0D01*
G01*
X7730500Y-8533000D02*
G75*
G03*
X7730500Y-8533000I-20000J0D01*
G01*
X7775550Y-6463000D02*
G75*
G03*
X7775550Y-6463000I-20000J0D01*
G01*
X7880500Y-6893000D02*
G75*
G03*
X7880500Y-6893000I-20000J0D01*
G01*
X7950500Y-6803000D02*
G75*
G03*
X7950500Y-6803000I-20000J0D01*
G01*
X7950500Y-8263000D02*
G75*
G03*
X7950500Y-8263000I-20000J0D01*
G01*
X8010669Y-8533712D02*
G75*
G03*
X8010669Y-8533712I-20000J0D01*
G01*
X8180500Y-5723000D02*
G75*
G03*
X8180500Y-5723000I-20000J0D01*
G01*
X8180500Y-6113000D02*
G75*
G03*
X8180500Y-6113000I-20000J0D01*
G01*
X8220500Y-6733000D02*
G75*
G03*
X8220500Y-6733000I-20000J0D01*
G01*
X8380500Y-8003000D02*
G75*
G03*
X8380500Y-8003000I-20000J0D01*
G01*
X8390500Y-8913000D02*
G75*
G03*
X8390500Y-8913000I-20000J0D01*
G01*
X8390500Y-9038460D02*
G75*
G03*
X8390500Y-9038460I-20000J0D01*
G01*
X8480500Y-8573000D02*
G75*
G03*
X8480500Y-8573000I-20000J0D01*
G01*
X8550500Y-7563000D02*
G75*
G03*
X8550500Y-7563000I-20000J0D01*
G01*
X8550500Y-7853000D02*
G75*
G03*
X8550500Y-7853000I-20000J0D01*
G01*
X8635000Y-5027500D02*
G75*
G03*
X8635000Y-5027500I-20000J0D01*
G01*
X8730500Y-8573000D02*
G75*
G03*
X8730500Y-8573000I-20000J0D01*
G01*
X8760500Y-4973000D02*
G75*
G03*
X8760500Y-4973000I-20000J0D01*
G01*
X8800500Y-8433000D02*
G75*
G03*
X8800500Y-8433000I-20000J0D01*
G01*
X8890500Y-6723000D02*
G75*
G03*
X8890500Y-6723000I-20000J0D01*
G01*
X8890500Y-7383000D02*
G75*
G03*
X8890500Y-7383000I-20000J0D01*
G01*
X8920500Y-9993000D02*
G75*
G03*
X8920500Y-9993000I-20000J0D01*
G01*
X8940500Y-4953000D02*
G75*
G03*
X8940500Y-4953000I-20000J0D01*
G01*
X9000500Y-9643000D02*
G75*
G03*
X9000500Y-9643000I-20000J0D01*
G01*
X9010500Y-9233000D02*
G75*
G03*
X9010500Y-9233000I-20000J0D01*
G01*
X9015136Y-7352248D02*
G75*
G03*
X9015136Y-7352248I-20000J0D01*
G01*
X9180500Y-7783000D02*
G75*
G03*
X9180500Y-7783000I-20000J0D01*
G01*
X9190500Y-6733000D02*
G75*
G03*
X9190500Y-6733000I-20000J0D01*
G01*
X9210500Y-5583000D02*
G75*
G03*
X9210500Y-5583000I-20000J0D01*
G01*
X9340500Y-9673000D02*
G75*
G03*
X9340500Y-9673000I-20000J0D01*
G01*
X9350500Y-7103000D02*
G75*
G03*
X9350500Y-7103000I-20000J0D01*
G01*
X9350500Y-7793000D02*
G75*
G03*
X9350500Y-7793000I-20000J0D01*
G01*
X9390500Y-5573000D02*
G75*
G03*
X9390500Y-5573000I-20000J0D01*
G01*
X9570500Y-9213000D02*
G75*
G03*
X9570500Y-9213000I-20000J0D01*
G01*
X9770500Y-9573000D02*
G75*
G03*
X9770500Y-9573000I-20000J0D01*
G01*
X9820500Y-6623000D02*
G75*
G03*
X9820500Y-6623000I-20000J0D01*
G01*
X9860500Y-8393000D02*
G75*
G03*
X9860500Y-8393000I-20000J0D01*
G01*
X9880500Y-9623000D02*
G75*
G03*
X9880500Y-9623000I-20000J0D01*
G01*
X9913170Y-6550864D02*
G75*
G03*
X9913170Y-6550864I-20000J0D01*
G01*
X10160500Y-7123000D02*
G75*
G03*
X10160500Y-7123000I-20000J0D01*
G01*
X10250500Y-5583000D02*
G75*
G03*
X10250500Y-5583000I-20000J0D01*
G01*
X10250500Y-6793000D02*
G75*
G03*
X10250500Y-6793000I-20000J0D01*
G01*
X10260500Y-7903000D02*
G75*
G03*
X10260500Y-7903000I-20000J0D01*
G01*
X10300500Y-8543000D02*
G75*
G03*
X10300500Y-8543000I-20000J0D01*
G01*
X10300500Y-8723000D02*
G75*
G03*
X10300500Y-8723000I-20000J0D01*
G01*
X10300500Y-8883000D02*
G75*
G03*
X10300500Y-8883000I-20000J0D01*
G01*
X10300500Y-9023000D02*
G75*
G03*
X10300500Y-9023000I-20000J0D01*
G01*
X10300500Y-9193000D02*
G75*
G03*
X10300500Y-9193000I-20000J0D01*
G01*
X10300500Y-9383000D02*
G75*
G03*
X10300500Y-9383000I-20000J0D01*
G01*
X10320500Y-8323000D02*
G75*
G03*
X10320500Y-8323000I-20000J0D01*
G01*
X10330500Y-7997733D02*
G75*
G03*
X10330500Y-7997733I-20000J0D01*
G01*
X10340500Y-9843000D02*
G75*
G03*
X10340500Y-9843000I-20000J0D01*
G01*
X10380500Y-9543000D02*
G75*
G03*
X10380500Y-9543000I-20000J0D01*
G01*
X10400500Y-5583000D02*
G75*
G03*
X10400500Y-5583000I-20000J0D01*
G01*
X10410500Y-6793000D02*
G75*
G03*
X10410500Y-6793000I-20000J0D01*
G01*
X10420500Y-5933000D02*
G75*
G03*
X10420500Y-5933000I-20000J0D01*
G01*
X10420500Y-6133000D02*
G75*
G03*
X10420500Y-6133000I-20000J0D01*
G01*
X10425500Y-5778000D02*
G75*
G03*
X10425500Y-5778000I-20000J0D01*
G01*
X10430500Y-6243000D02*
G75*
G03*
X10430500Y-6243000I-20000J0D01*
G01*
X10430500Y-6383000D02*
G75*
G03*
X10430500Y-6383000I-20000J0D01*
G01*
X10430500Y-6553000D02*
G75*
G03*
X10430500Y-6553000I-20000J0D01*
G01*
X10440500Y-7923000D02*
G75*
G03*
X10440500Y-7923000I-20000J0D01*
G01*
X10510500Y-7023000D02*
G75*
G03*
X10510500Y-7023000I-20000J0D01*
G01*
X10550500Y-8003000D02*
G75*
G03*
X10550500Y-8003000I-20000J0D01*
G01*
X10750500Y-7003000D02*
G75*
G03*
X10750500Y-7003000I-20000J0D01*
G01*
X10790500Y-6443000D02*
G75*
G03*
X10790500Y-6443000I-20000J0D01*
G01*
X10870500Y-7093000D02*
G75*
G03*
X10870500Y-7093000I-20000J0D01*
G01*
X10900500Y-8473000D02*
G75*
G03*
X10900500Y-8473000I-20000J0D01*
G01*
X11050500Y-6583000D02*
G75*
G03*
X11050500Y-6583000I-20000J0D01*
G01*
X11057000Y-8500000D02*
G75*
G03*
X11057000Y-8500000I-20000J0D01*
G01*
X11190500Y-5723000D02*
G75*
G03*
X11190500Y-5723000I-20000J0D01*
G01*
X11310500Y-7103000D02*
G75*
G03*
X11310500Y-7103000I-20000J0D01*
G01*
X11430500Y-8323000D02*
G75*
G03*
X11430500Y-8323000I-20000J0D01*
G01*
X11470500Y-6513000D02*
G75*
G03*
X11470500Y-6513000I-20000J0D01*
G01*
X11490500Y-6313000D02*
G75*
G03*
X11490500Y-6313000I-20000J0D01*
G01*
X11490500Y-9533000D02*
G75*
G03*
X11490500Y-9533000I-20000J0D01*
G01*
X11500500Y-9853000D02*
G75*
G03*
X11500500Y-9853000I-20000J0D01*
G01*
X11540500Y-8383000D02*
G75*
G03*
X11540500Y-8383000I-20000J0D01*
G01*
X11600500Y-8133000D02*
G75*
G03*
X11600500Y-8133000I-20000J0D01*
G01*
X11670500Y-6013000D02*
G75*
G03*
X11670500Y-6013000I-20000J0D01*
G01*
X11840500Y-8383000D02*
G75*
G03*
X11840500Y-8383000I-20000J0D01*
G01*
X11850500Y-5833000D02*
G75*
G03*
X11850500Y-5833000I-20000J0D01*
G01*
X12120500Y-5733000D02*
G75*
G03*
X12120500Y-5733000I-20000J0D01*
G01*
X12120500Y-6133000D02*
G75*
G03*
X12120500Y-6133000I-20000J0D01*
G01*
X12130500Y-7973000D02*
G75*
G03*
X12130500Y-7973000I-20000J0D01*
G01*
X12210500Y-8393000D02*
G75*
G03*
X12210500Y-8393000I-20000J0D01*
G01*
X12240500Y-8623000D02*
G75*
G03*
X12240500Y-8623000I-20000J0D01*
G01*
X12250500Y-6913000D02*
G75*
G03*
X12250500Y-6913000I-20000J0D01*
G01*
X12424000Y-5056000D02*
G75*
G03*
X12424000Y-5056000I-20000J0D01*
G01*
X12450500Y-8513000D02*
G75*
G03*
X12450500Y-8513000I-20000J0D01*
G01*
X12530500Y-7928000D02*
G75*
G03*
X12530500Y-7928000I-20000J0D01*
G01*
X12630500Y-8513000D02*
G75*
G03*
X12630500Y-8513000I-20000J0D01*
G01*
X12640500Y-6353000D02*
G75*
G03*
X12640500Y-6353000I-20000J0D01*
G01*
X12720500Y-8883000D02*
G75*
G03*
X12720500Y-8883000I-20000J0D01*
G01*
X12920500Y-6353000D02*
G75*
G03*
X12920500Y-6353000I-20000J0D01*
G01*
X12930500Y-8673000D02*
G75*
G03*
X12930500Y-8673000I-20000J0D01*
G01*
D14*
X5016500Y-4407700D02*
X5016500Y-4507700D01*
X4966500Y-4457700D02*
X5066500Y-4457700D01*
X5016500Y-4661700D02*
X5016500Y-4761700D01*
X4966500Y-4711700D02*
X5066500Y-4711700D01*
X5016500Y-10540000D02*
X5016500Y-10640000D01*
X4966500Y-10590000D02*
X5066500Y-10590000D01*
X5016500Y-10794000D02*
X5016500Y-10894000D01*
X4966500Y-10844000D02*
X5066500Y-10844000D01*
X5270500Y-4407700D02*
X5270500Y-4507700D01*
X5220500Y-4457700D02*
X5320500Y-4457700D01*
X5270500Y-4661700D02*
X5270500Y-4761700D01*
X5220500Y-4711700D02*
X5320500Y-4711700D01*
X5270500Y-10540000D02*
X5270500Y-10640000D01*
X5220500Y-10590000D02*
X5320500Y-10590000D01*
X5270500Y-10794000D02*
X5270500Y-10894000D01*
X5220500Y-10844000D02*
X5320500Y-10844000D01*
X5524500Y-4407700D02*
X5524500Y-4507700D01*
X5474500Y-4457700D02*
X5574500Y-4457700D01*
X5524500Y-4661700D02*
X5524500Y-4761700D01*
X5474500Y-4711700D02*
X5574500Y-4711700D01*
X5524500Y-10540000D02*
X5524500Y-10640000D01*
X5474500Y-10590000D02*
X5574500Y-10590000D01*
X5524500Y-10794000D02*
X5524500Y-10894000D01*
X5474500Y-10844000D02*
X5574500Y-10844000D01*
X5778500Y-4407700D02*
X5778500Y-4507700D01*
X5728500Y-4457700D02*
X5828500Y-4457700D01*
X5778500Y-4661700D02*
X5778500Y-4761700D01*
X5728500Y-4711700D02*
X5828500Y-4711700D01*
X5778500Y-10540000D02*
X5778500Y-10640000D01*
X5728500Y-10590000D02*
X5828500Y-10590000D01*
X5778500Y-10794000D02*
X5778500Y-10894000D01*
X5728500Y-10844000D02*
X5828500Y-10844000D01*
X6032500Y-4407700D02*
X6032500Y-4507700D01*
X5982500Y-4457700D02*
X6082500Y-4457700D01*
X6032500Y-4661700D02*
X6032500Y-4761700D01*
X5982500Y-4711700D02*
X6082500Y-4711700D01*
X6032500Y-10540000D02*
X6032500Y-10640000D01*
X5982500Y-10590000D02*
X6082500Y-10590000D01*
X6032500Y-10794000D02*
X6032500Y-10894000D01*
X5982500Y-10844000D02*
X6082500Y-10844000D01*
X6286500Y-4407700D02*
X6286500Y-4507700D01*
X6236500Y-4457700D02*
X6336500Y-4457700D01*
X6286500Y-4661700D02*
X6286500Y-4761700D01*
X6236500Y-4711700D02*
X6336500Y-4711700D01*
X6286500Y-10540000D02*
X6286500Y-10640000D01*
X6236500Y-10590000D02*
X6336500Y-10590000D01*
X6286500Y-10794000D02*
X6286500Y-10894000D01*
X6236500Y-10844000D02*
X6336500Y-10844000D01*
X6540500Y-4407700D02*
X6540500Y-4507700D01*
X6490500Y-4457700D02*
X6590500Y-4457700D01*
X6540500Y-4661700D02*
X6540500Y-4761700D01*
X6490500Y-4711700D02*
X6590500Y-4711700D01*
X6540500Y-10540000D02*
X6540500Y-10640000D01*
X6490500Y-10590000D02*
X6590500Y-10590000D01*
X6540500Y-10794000D02*
X6540500Y-10894000D01*
X6490500Y-10844000D02*
X6590500Y-10844000D01*
X6794500Y-4407700D02*
X6794500Y-4507700D01*
X6744500Y-4457700D02*
X6844500Y-4457700D01*
X6794500Y-4661700D02*
X6794500Y-4761700D01*
X6744500Y-4711700D02*
X6844500Y-4711700D01*
X6794500Y-10540000D02*
X6794500Y-10640000D01*
X6744500Y-10590000D02*
X6844500Y-10590000D01*
X6794500Y-10794000D02*
X6794500Y-10894000D01*
X6744500Y-10844000D02*
X6844500Y-10844000D01*
X7048500Y-4407700D02*
X7048500Y-4507700D01*
X6998500Y-4457700D02*
X7098500Y-4457700D01*
X7048500Y-4661700D02*
X7048500Y-4761700D01*
X6998500Y-4711700D02*
X7098500Y-4711700D01*
X7048500Y-10540000D02*
X7048500Y-10640000D01*
X6998500Y-10590000D02*
X7098500Y-10590000D01*
X7048500Y-10794000D02*
X7048500Y-10894000D01*
X6998500Y-10844000D02*
X7098500Y-10844000D01*
X7302500Y-4407700D02*
X7302500Y-4507700D01*
X7252500Y-4457700D02*
X7352500Y-4457700D01*
X7302500Y-4661700D02*
X7302500Y-4761700D01*
X7252500Y-4711700D02*
X7352500Y-4711700D01*
X7302500Y-10540000D02*
X7302500Y-10640000D01*
X7252500Y-10590000D02*
X7352500Y-10590000D01*
X7302500Y-10794000D02*
X7302500Y-10894000D01*
X7252500Y-10844000D02*
X7352500Y-10844000D01*
X7556500Y-4407700D02*
X7556500Y-4507700D01*
X7506500Y-4457700D02*
X7606500Y-4457700D01*
X7556500Y-4661700D02*
X7556500Y-4761700D01*
X7506500Y-4711700D02*
X7606500Y-4711700D01*
X7556500Y-10540000D02*
X7556500Y-10640000D01*
X7506500Y-10590000D02*
X7606500Y-10590000D01*
X7556500Y-10794000D02*
X7556500Y-10894000D01*
X7506500Y-10844000D02*
X7606500Y-10844000D01*
X7810500Y-4407700D02*
X7810500Y-4507700D01*
X7760500Y-4457700D02*
X7860500Y-4457700D01*
X7810500Y-4661700D02*
X7810500Y-4761700D01*
X7760500Y-4711700D02*
X7860500Y-4711700D01*
X7810500Y-10540000D02*
X7810500Y-10640000D01*
X7760500Y-10590000D02*
X7860500Y-10590000D01*
X7810500Y-10794000D02*
X7810500Y-10894000D01*
X7760500Y-10844000D02*
X7860500Y-10844000D01*
X8064500Y-4407700D02*
X8064500Y-4507700D01*
X8014500Y-4457700D02*
X8114500Y-4457700D01*
X8064500Y-4661700D02*
X8064500Y-4761700D01*
X8014500Y-4711700D02*
X8114500Y-4711700D01*
X8064500Y-10540000D02*
X8064500Y-10640000D01*
X8014500Y-10590000D02*
X8114500Y-10590000D01*
X8064500Y-10794000D02*
X8064500Y-10894000D01*
X8014500Y-10844000D02*
X8114500Y-10844000D01*
X8636000Y-4407700D02*
X8636000Y-4507700D01*
X8586000Y-4457700D02*
X8686000Y-4457700D01*
X8636000Y-4661700D02*
X8636000Y-4761700D01*
X8586000Y-4711700D02*
X8686000Y-4711700D01*
X8636000Y-10540000D02*
X8636000Y-10640000D01*
X8586000Y-10590000D02*
X8686000Y-10590000D01*
X8636000Y-10794000D02*
X8636000Y-10894000D01*
X8586000Y-10844000D02*
X8686000Y-10844000D01*
X8890000Y-4407700D02*
X8890000Y-4507700D01*
X8840000Y-4457700D02*
X8940000Y-4457700D01*
X8890000Y-4661700D02*
X8890000Y-4761700D01*
X8840000Y-4711700D02*
X8940000Y-4711700D01*
X8890000Y-10540000D02*
X8890000Y-10640000D01*
X8840000Y-10590000D02*
X8940000Y-10590000D01*
X8890000Y-10794000D02*
X8890000Y-10894000D01*
X8840000Y-10844000D02*
X8940000Y-10844000D01*
X9144000Y-4407700D02*
X9144000Y-4507700D01*
X9094000Y-4457700D02*
X9194000Y-4457700D01*
X9144000Y-4661700D02*
X9144000Y-4761700D01*
X9094000Y-4711700D02*
X9194000Y-4711700D01*
X9144000Y-10540000D02*
X9144000Y-10640000D01*
X9094000Y-10590000D02*
X9194000Y-10590000D01*
X9144000Y-10794000D02*
X9144000Y-10894000D01*
X9094000Y-10844000D02*
X9194000Y-10844000D01*
X9398000Y-4407700D02*
X9398000Y-4507700D01*
X9348000Y-4457700D02*
X9448000Y-4457700D01*
X9398000Y-4661700D02*
X9398000Y-4761700D01*
X9348000Y-4711700D02*
X9448000Y-4711700D01*
X9398000Y-10540000D02*
X9398000Y-10640000D01*
X9348000Y-10590000D02*
X9448000Y-10590000D01*
X9398000Y-10794000D02*
X9398000Y-10894000D01*
X9348000Y-10844000D02*
X9448000Y-10844000D01*
X9652000Y-4407700D02*
X9652000Y-4507700D01*
X9602000Y-4457700D02*
X9702000Y-4457700D01*
X9652000Y-4661700D02*
X9652000Y-4761700D01*
X9602000Y-4711700D02*
X9702000Y-4711700D01*
X9652000Y-10540000D02*
X9652000Y-10640000D01*
X9602000Y-10590000D02*
X9702000Y-10590000D01*
X9652000Y-10794000D02*
X9652000Y-10894000D01*
X9602000Y-10844000D02*
X9702000Y-10844000D01*
X9906000Y-4407700D02*
X9906000Y-4507700D01*
X9856000Y-4457700D02*
X9956000Y-4457700D01*
X9906000Y-4661700D02*
X9906000Y-4761700D01*
X9856000Y-4711700D02*
X9956000Y-4711700D01*
X9906000Y-10540000D02*
X9906000Y-10640000D01*
X9856000Y-10590000D02*
X9956000Y-10590000D01*
X9906000Y-10794000D02*
X9906000Y-10894000D01*
X9856000Y-10844000D02*
X9956000Y-10844000D01*
X10160000Y-4407700D02*
X10160000Y-4507700D01*
X10110000Y-4457700D02*
X10210000Y-4457700D01*
X10160000Y-4661700D02*
X10160000Y-4761700D01*
X10110000Y-4711700D02*
X10210000Y-4711700D01*
X10160000Y-10540000D02*
X10160000Y-10640000D01*
X10110000Y-10590000D02*
X10210000Y-10590000D01*
X10160000Y-10794000D02*
X10160000Y-10894000D01*
X10110000Y-10844000D02*
X10210000Y-10844000D01*
X10414000Y-4407700D02*
X10414000Y-4507700D01*
X10364000Y-4457700D02*
X10464000Y-4457700D01*
X10414000Y-4661700D02*
X10414000Y-4761700D01*
X10364000Y-4711700D02*
X10464000Y-4711700D01*
X10414000Y-10540000D02*
X10414000Y-10640000D01*
X10364000Y-10590000D02*
X10464000Y-10590000D01*
X10414000Y-10794000D02*
X10414000Y-10894000D01*
X10364000Y-10844000D02*
X10464000Y-10844000D01*
X10668000Y-4407700D02*
X10668000Y-4507700D01*
X10618000Y-4457700D02*
X10718000Y-4457700D01*
X10668000Y-4661700D02*
X10668000Y-4761700D01*
X10618000Y-4711700D02*
X10718000Y-4711700D01*
X10668000Y-10540000D02*
X10668000Y-10640000D01*
X10618000Y-10590000D02*
X10718000Y-10590000D01*
X10668000Y-10794000D02*
X10668000Y-10894000D01*
X10618000Y-10844000D02*
X10718000Y-10844000D01*
X10922000Y-4407700D02*
X10922000Y-4507700D01*
X10872000Y-4457700D02*
X10972000Y-4457700D01*
X10922000Y-4661700D02*
X10922000Y-4761700D01*
X10872000Y-4711700D02*
X10972000Y-4711700D01*
X10922000Y-10540000D02*
X10922000Y-10640000D01*
X10872000Y-10590000D02*
X10972000Y-10590000D01*
X10922000Y-10794000D02*
X10922000Y-10894000D01*
X10872000Y-10844000D02*
X10972000Y-10844000D01*
X11176000Y-4407700D02*
X11176000Y-4507700D01*
X11126000Y-4457700D02*
X11226000Y-4457700D01*
X11176000Y-4661700D02*
X11176000Y-4761700D01*
X11126000Y-4711700D02*
X11226000Y-4711700D01*
X11176000Y-10540000D02*
X11176000Y-10640000D01*
X11126000Y-10590000D02*
X11226000Y-10590000D01*
X11176000Y-10794000D02*
X11176000Y-10894000D01*
X11126000Y-10844000D02*
X11226000Y-10844000D01*
X11430000Y-4407700D02*
X11430000Y-4507700D01*
X11380000Y-4457700D02*
X11480000Y-4457700D01*
X11430000Y-4661700D02*
X11430000Y-4761700D01*
X11380000Y-4711700D02*
X11480000Y-4711700D01*
X11430000Y-10540000D02*
X11430000Y-10640000D01*
X11380000Y-10590000D02*
X11480000Y-10590000D01*
X11430000Y-10794000D02*
X11430000Y-10894000D01*
X11380000Y-10844000D02*
X11480000Y-10844000D01*
X11684000Y-4407700D02*
X11684000Y-4507700D01*
X11634000Y-4457700D02*
X11734000Y-4457700D01*
X11684000Y-4661700D02*
X11684000Y-4761700D01*
X11634000Y-4711700D02*
X11734000Y-4711700D01*
X11684000Y-10540000D02*
X11684000Y-10640000D01*
X11634000Y-10590000D02*
X11734000Y-10590000D01*
X11684000Y-10794000D02*
X11684000Y-10894000D01*
X11634000Y-10844000D02*
X11734000Y-10844000D01*
D15*
X4287927Y-6167927D02*
X4287927Y-6083073D01*
X4203073Y-6083073D01*
X4203073Y-6167927D01*
X4287927Y-6167927D01*
X4287927Y-6942927D02*
X4287927Y-6858073D01*
X4203073Y-6858073D01*
X4203073Y-6942927D01*
X4287927Y-6942927D01*
X12782927Y-5578427D02*
X12782927Y-5493573D01*
X12698073Y-5493573D01*
X12698073Y-5578427D01*
X12782927Y-5578427D01*
X12782927Y-5828427D02*
X12782927Y-5743573D01*
X12698073Y-5743573D01*
X12698073Y-5828427D01*
X12782927Y-5828427D01*
X12782927Y-6078427D02*
X12782927Y-5993573D01*
X12698073Y-5993573D01*
X12698073Y-6078427D01*
X12782927Y-6078427D01*
X13092927Y-5578427D02*
X13092927Y-5493573D01*
X13008073Y-5493573D01*
X13008073Y-5578427D01*
X13092927Y-5578427D01*
X13092927Y-5828427D02*
X13092927Y-5743573D01*
X13008073Y-5743573D01*
X13008073Y-5828427D01*
X13092927Y-5828427D01*
X13092927Y-6078427D02*
X13092927Y-5993573D01*
X13008073Y-5993573D01*
X13008073Y-6078427D01*
X13092927Y-6078427D01*
D16*
X4625500Y-6210500D02*
X4695500Y-6140500D01*
X4625500Y-6070500D01*
X4555500Y-6140500D01*
X4625500Y-6210500D01*
X4625500Y-6955500D02*
X4695500Y-6885500D01*
X4625500Y-6815500D01*
X4555500Y-6885500D01*
X4625500Y-6955500D01*
D17*
X4365500Y-7283000D02*
X4515500Y-7433000D01*
X4515500Y-7283000D02*
X4365500Y-7433000D01*
X4515500Y-7358000D02*
G75*
G03*
X4515500Y-7358000I-75000J0D01*
G01*
X4365500Y-8208000D02*
X4515500Y-8358000D01*
X4515500Y-8208000D02*
X4365500Y-8358000D01*
X4515500Y-8283000D02*
G75*
G03*
X4515500Y-8283000I-75000J0D01*
G01*
X4365500Y-9128000D02*
X4515500Y-9278000D01*
X4515500Y-9128000D02*
X4365500Y-9278000D01*
X4515500Y-9203000D02*
G75*
G03*
X4515500Y-9203000I-75000J0D01*
G01*
X9502000Y-7239000D02*
X9652000Y-7389000D01*
X9652000Y-7239000D02*
X9502000Y-7389000D01*
X9652000Y-7314000D02*
G75*
G03*
X9652000Y-7314000I-75000J0D01*
G01*
X10283000Y-7248000D02*
X10433000Y-7398000D01*
X10433000Y-7248000D02*
X10283000Y-7398000D01*
X10433000Y-7323000D02*
G75*
G03*
X10433000Y-7323000I-75000J0D01*
G01*
X12465500Y-6598000D02*
X12615500Y-6748000D01*
X12615500Y-6598000D02*
X12465500Y-6748000D01*
X12615500Y-6673000D02*
G75*
G03*
X12615500Y-6673000I-75000J0D01*
G01*
X12465500Y-7498000D02*
X12615500Y-7648000D01*
X12615500Y-7498000D02*
X12465500Y-7648000D01*
X12615500Y-7573000D02*
G75*
G03*
X12615500Y-7573000I-75000J0D01*
G01*
X12965500Y-6598000D02*
X13115500Y-6748000D01*
X13115500Y-6598000D02*
X12965500Y-6748000D01*
X13115500Y-6673000D02*
G75*
G03*
X13115500Y-6673000I-75000J0D01*
G01*
X12965500Y-7498000D02*
X13115500Y-7648000D01*
X13115500Y-7498000D02*
X12965500Y-7648000D01*
X13115500Y-7573000D02*
G75*
G03*
X13115500Y-7573000I-75000J0D01*
G01*
D18*
X4285000Y-4539000D02*
X4605000Y-4859000D01*
X4605000Y-4539000D02*
X4285000Y-4859000D01*
X4445000Y-4539000D02*
X4445000Y-4859000D01*
X4285000Y-4699000D02*
X4605000Y-4699000D01*
X4285000Y-10508000D02*
X4605000Y-10828000D01*
X4605000Y-10508000D02*
X4285000Y-10828000D01*
X4445000Y-10508000D02*
X4445000Y-10828000D01*
X4285000Y-10668000D02*
X4605000Y-10668000D01*
X12095500Y-4539000D02*
X12415500Y-4859000D01*
X12415500Y-4539000D02*
X12095500Y-4859000D01*
X12255500Y-4539000D02*
X12255500Y-4859000D01*
X12095500Y-4699000D02*
X12415500Y-4699000D01*
X12095500Y-10508000D02*
X12415500Y-10828000D01*
X12415500Y-10508000D02*
X12095500Y-10828000D01*
X12255500Y-10508000D02*
X12255500Y-10828000D01*
X12095500Y-10668000D02*
X12415500Y-10668000D01*
D11*
X4180119Y-11462024D02*
X4180119Y-11262024D01*
X4180119Y-11262024D02*
X4227738Y-11262024D01*
X4227738Y-11262024D02*
X4256310Y-11271548D01*
X4256310Y-11271548D02*
X4275357Y-11290595D01*
X4275357Y-11290595D02*
X4284881Y-11309643D01*
X4284881Y-11309643D02*
X4294405Y-11347738D01*
X4294405Y-11347738D02*
X4294405Y-11376309D01*
X4294405Y-11376309D02*
X4284881Y-11414405D01*
X4284881Y-11414405D02*
X4275357Y-11433452D01*
X4275357Y-11433452D02*
X4256310Y-11452500D01*
X4256310Y-11452500D02*
X4227738Y-11462024D01*
X4227738Y-11462024D02*
X4180119Y-11462024D01*
X4380119Y-11462024D02*
X4380119Y-11328690D01*
X4380119Y-11366786D02*
X4389643Y-11347738D01*
X4389643Y-11347738D02*
X4399167Y-11338214D01*
X4399167Y-11338214D02*
X4418214Y-11328690D01*
X4418214Y-11328690D02*
X4437262Y-11328690D01*
X4503929Y-11462024D02*
X4503929Y-11328690D01*
X4503929Y-11262024D02*
X4494405Y-11271548D01*
X4494405Y-11271548D02*
X4503929Y-11281071D01*
X4503929Y-11281071D02*
X4513452Y-11271548D01*
X4513452Y-11271548D02*
X4503929Y-11262024D01*
X4503929Y-11262024D02*
X4503929Y-11281071D01*
X4627738Y-11462024D02*
X4608690Y-11452500D01*
X4608690Y-11452500D02*
X4599167Y-11433452D01*
X4599167Y-11433452D02*
X4599167Y-11262024D01*
X4732500Y-11462024D02*
X4713452Y-11452500D01*
X4713452Y-11452500D02*
X4703929Y-11433452D01*
X4703929Y-11433452D02*
X4703929Y-11262024D01*
X4961071Y-11462024D02*
X4961071Y-11262024D01*
X4961071Y-11262024D02*
X5027738Y-11404881D01*
X5027738Y-11404881D02*
X5094405Y-11262024D01*
X5094405Y-11262024D02*
X5094405Y-11462024D01*
X5275357Y-11462024D02*
X5275357Y-11357262D01*
X5275357Y-11357262D02*
X5265833Y-11338214D01*
X5265833Y-11338214D02*
X5246786Y-11328690D01*
X5246786Y-11328690D02*
X5208690Y-11328690D01*
X5208690Y-11328690D02*
X5189643Y-11338214D01*
X5275357Y-11452500D02*
X5256310Y-11462024D01*
X5256310Y-11462024D02*
X5208690Y-11462024D01*
X5208690Y-11462024D02*
X5189643Y-11452500D01*
X5189643Y-11452500D02*
X5180119Y-11433452D01*
X5180119Y-11433452D02*
X5180119Y-11414405D01*
X5180119Y-11414405D02*
X5189643Y-11395357D01*
X5189643Y-11395357D02*
X5208690Y-11385833D01*
X5208690Y-11385833D02*
X5256310Y-11385833D01*
X5256310Y-11385833D02*
X5275357Y-11376309D01*
X5370595Y-11328690D02*
X5370595Y-11528690D01*
X5370595Y-11338214D02*
X5389643Y-11328690D01*
X5389643Y-11328690D02*
X5427738Y-11328690D01*
X5427738Y-11328690D02*
X5446786Y-11338214D01*
X5446786Y-11338214D02*
X5456310Y-11347738D01*
X5456310Y-11347738D02*
X5465833Y-11366786D01*
X5465833Y-11366786D02*
X5465833Y-11423928D01*
X5465833Y-11423928D02*
X5456310Y-11442976D01*
X5456310Y-11442976D02*
X5446786Y-11452500D01*
X5446786Y-11452500D02*
X5427738Y-11462024D01*
X5427738Y-11462024D02*
X5389643Y-11462024D01*
X5389643Y-11462024D02*
X5370595Y-11452500D01*
X5551548Y-11442976D02*
X5561071Y-11452500D01*
X5561071Y-11452500D02*
X5551548Y-11462024D01*
X5551548Y-11462024D02*
X5542024Y-11452500D01*
X5542024Y-11452500D02*
X5551548Y-11442976D01*
X5551548Y-11442976D02*
X5551548Y-11462024D01*
X5551548Y-11338214D02*
X5561071Y-11347738D01*
X5561071Y-11347738D02*
X5551548Y-11357262D01*
X5551548Y-11357262D02*
X5542024Y-11347738D01*
X5542024Y-11347738D02*
X5551548Y-11338214D01*
X5551548Y-11338214D02*
X5551548Y-11357262D01*
D12*
X3902500Y-11774500D02*
X3932500Y-11804500D01*
X3932500Y-11774500D02*
X3902500Y-11804500D01*
D11*
X4218214Y-11682024D02*
X4237262Y-11682024D01*
X4237262Y-11682024D02*
X4256310Y-11691548D01*
X4256310Y-11691548D02*
X4265833Y-11701071D01*
X4265833Y-11701071D02*
X4275357Y-11720119D01*
X4275357Y-11720119D02*
X4284881Y-11758214D01*
X4284881Y-11758214D02*
X4284881Y-11805833D01*
X4284881Y-11805833D02*
X4275357Y-11843928D01*
X4275357Y-11843928D02*
X4265833Y-11862976D01*
X4265833Y-11862976D02*
X4256310Y-11872500D01*
X4256310Y-11872500D02*
X4237262Y-11882024D01*
X4237262Y-11882024D02*
X4218214Y-11882024D01*
X4218214Y-11882024D02*
X4199167Y-11872500D01*
X4199167Y-11872500D02*
X4189643Y-11862976D01*
X4189643Y-11862976D02*
X4180119Y-11843928D01*
X4180119Y-11843928D02*
X4170595Y-11805833D01*
X4170595Y-11805833D02*
X4170595Y-11758214D01*
X4170595Y-11758214D02*
X4180119Y-11720119D01*
X4180119Y-11720119D02*
X4189643Y-11701071D01*
X4189643Y-11701071D02*
X4199167Y-11691548D01*
X4199167Y-11691548D02*
X4218214Y-11682024D01*
X4370595Y-11862976D02*
X4380119Y-11872500D01*
X4380119Y-11872500D02*
X4370595Y-11882024D01*
X4370595Y-11882024D02*
X4361071Y-11872500D01*
X4361071Y-11872500D02*
X4370595Y-11862976D01*
X4370595Y-11862976D02*
X4370595Y-11882024D01*
X4446786Y-11682024D02*
X4570595Y-11682024D01*
X4570595Y-11682024D02*
X4503929Y-11758214D01*
X4503929Y-11758214D02*
X4532500Y-11758214D01*
X4532500Y-11758214D02*
X4551548Y-11767738D01*
X4551548Y-11767738D02*
X4561071Y-11777262D01*
X4561071Y-11777262D02*
X4570595Y-11796309D01*
X4570595Y-11796309D02*
X4570595Y-11843928D01*
X4570595Y-11843928D02*
X4561071Y-11862976D01*
X4561071Y-11862976D02*
X4551548Y-11872500D01*
X4551548Y-11872500D02*
X4532500Y-11882024D01*
X4532500Y-11882024D02*
X4475357Y-11882024D01*
X4475357Y-11882024D02*
X4456310Y-11872500D01*
X4456310Y-11872500D02*
X4446786Y-11862976D01*
X4694405Y-11682024D02*
X4713452Y-11682024D01*
X4713452Y-11682024D02*
X4732500Y-11691548D01*
X4732500Y-11691548D02*
X4742024Y-11701071D01*
X4742024Y-11701071D02*
X4751548Y-11720119D01*
X4751548Y-11720119D02*
X4761071Y-11758214D01*
X4761071Y-11758214D02*
X4761071Y-11805833D01*
X4761071Y-11805833D02*
X4751548Y-11843928D01*
X4751548Y-11843928D02*
X4742024Y-11862976D01*
X4742024Y-11862976D02*
X4732500Y-11872500D01*
X4732500Y-11872500D02*
X4713452Y-11882024D01*
X4713452Y-11882024D02*
X4694405Y-11882024D01*
X4694405Y-11882024D02*
X4675357Y-11872500D01*
X4675357Y-11872500D02*
X4665833Y-11862976D01*
X4665833Y-11862976D02*
X4656310Y-11843928D01*
X4656310Y-11843928D02*
X4646786Y-11805833D01*
X4646786Y-11805833D02*
X4646786Y-11758214D01*
X4646786Y-11758214D02*
X4656310Y-11720119D01*
X4656310Y-11720119D02*
X4665833Y-11701071D01*
X4665833Y-11701071D02*
X4675357Y-11691548D01*
X4675357Y-11691548D02*
X4694405Y-11682024D01*
X4884881Y-11682024D02*
X4903929Y-11682024D01*
X4903929Y-11682024D02*
X4922976Y-11691548D01*
X4922976Y-11691548D02*
X4932500Y-11701071D01*
X4932500Y-11701071D02*
X4942024Y-11720119D01*
X4942024Y-11720119D02*
X4951548Y-11758214D01*
X4951548Y-11758214D02*
X4951548Y-11805833D01*
X4951548Y-11805833D02*
X4942024Y-11843928D01*
X4942024Y-11843928D02*
X4932500Y-11862976D01*
X4932500Y-11862976D02*
X4922976Y-11872500D01*
X4922976Y-11872500D02*
X4903929Y-11882024D01*
X4903929Y-11882024D02*
X4884881Y-11882024D01*
X4884881Y-11882024D02*
X4865833Y-11872500D01*
X4865833Y-11872500D02*
X4856310Y-11862976D01*
X4856310Y-11862976D02*
X4846786Y-11843928D01*
X4846786Y-11843928D02*
X4837262Y-11805833D01*
X4837262Y-11805833D02*
X4837262Y-11758214D01*
X4837262Y-11758214D02*
X4846786Y-11720119D01*
X4846786Y-11720119D02*
X4856310Y-11701071D01*
X4856310Y-11701071D02*
X4865833Y-11691548D01*
X4865833Y-11691548D02*
X4884881Y-11682024D01*
X5037262Y-11882024D02*
X5037262Y-11748690D01*
X5037262Y-11767738D02*
X5046786Y-11758214D01*
X5046786Y-11758214D02*
X5065833Y-11748690D01*
X5065833Y-11748690D02*
X5094405Y-11748690D01*
X5094405Y-11748690D02*
X5113452Y-11758214D01*
X5113452Y-11758214D02*
X5122976Y-11777262D01*
X5122976Y-11777262D02*
X5122976Y-11882024D01*
X5122976Y-11777262D02*
X5132500Y-11758214D01*
X5132500Y-11758214D02*
X5151548Y-11748690D01*
X5151548Y-11748690D02*
X5180119Y-11748690D01*
X5180119Y-11748690D02*
X5199167Y-11758214D01*
X5199167Y-11758214D02*
X5208691Y-11777262D01*
X5208691Y-11777262D02*
X5208691Y-11882024D01*
X5303929Y-11882024D02*
X5303929Y-11748690D01*
X5303929Y-11767738D02*
X5313452Y-11758214D01*
X5313452Y-11758214D02*
X5332500Y-11748690D01*
X5332500Y-11748690D02*
X5361072Y-11748690D01*
X5361072Y-11748690D02*
X5380119Y-11758214D01*
X5380119Y-11758214D02*
X5389643Y-11777262D01*
X5389643Y-11777262D02*
X5389643Y-11882024D01*
X5389643Y-11777262D02*
X5399167Y-11758214D01*
X5399167Y-11758214D02*
X5418214Y-11748690D01*
X5418214Y-11748690D02*
X5446786Y-11748690D01*
X5446786Y-11748690D02*
X5465833Y-11758214D01*
X5465833Y-11758214D02*
X5475357Y-11777262D01*
X5475357Y-11777262D02*
X5475357Y-11882024D01*
X5865833Y-11672500D02*
X5694405Y-11929643D01*
X6122976Y-11682024D02*
X6142024Y-11682024D01*
X6142024Y-11682024D02*
X6161072Y-11691548D01*
X6161072Y-11691548D02*
X6170595Y-11701071D01*
X6170595Y-11701071D02*
X6180119Y-11720119D01*
X6180119Y-11720119D02*
X6189643Y-11758214D01*
X6189643Y-11758214D02*
X6189643Y-11805833D01*
X6189643Y-11805833D02*
X6180119Y-11843928D01*
X6180119Y-11843928D02*
X6170595Y-11862976D01*
X6170595Y-11862976D02*
X6161072Y-11872500D01*
X6161072Y-11872500D02*
X6142024Y-11882024D01*
X6142024Y-11882024D02*
X6122976Y-11882024D01*
X6122976Y-11882024D02*
X6103929Y-11872500D01*
X6103929Y-11872500D02*
X6094405Y-11862976D01*
X6094405Y-11862976D02*
X6084881Y-11843928D01*
X6084881Y-11843928D02*
X6075357Y-11805833D01*
X6075357Y-11805833D02*
X6075357Y-11758214D01*
X6075357Y-11758214D02*
X6084881Y-11720119D01*
X6084881Y-11720119D02*
X6094405Y-11701071D01*
X6094405Y-11701071D02*
X6103929Y-11691548D01*
X6103929Y-11691548D02*
X6122976Y-11682024D01*
X6275357Y-11862976D02*
X6284881Y-11872500D01*
X6284881Y-11872500D02*
X6275357Y-11882024D01*
X6275357Y-11882024D02*
X6265833Y-11872500D01*
X6265833Y-11872500D02*
X6275357Y-11862976D01*
X6275357Y-11862976D02*
X6275357Y-11882024D01*
X6408691Y-11682024D02*
X6427738Y-11682024D01*
X6427738Y-11682024D02*
X6446786Y-11691548D01*
X6446786Y-11691548D02*
X6456310Y-11701071D01*
X6456310Y-11701071D02*
X6465833Y-11720119D01*
X6465833Y-11720119D02*
X6475357Y-11758214D01*
X6475357Y-11758214D02*
X6475357Y-11805833D01*
X6475357Y-11805833D02*
X6465833Y-11843928D01*
X6465833Y-11843928D02*
X6456310Y-11862976D01*
X6456310Y-11862976D02*
X6446786Y-11872500D01*
X6446786Y-11872500D02*
X6427738Y-11882024D01*
X6427738Y-11882024D02*
X6408691Y-11882024D01*
X6408691Y-11882024D02*
X6389643Y-11872500D01*
X6389643Y-11872500D02*
X6380119Y-11862976D01*
X6380119Y-11862976D02*
X6370595Y-11843928D01*
X6370595Y-11843928D02*
X6361072Y-11805833D01*
X6361072Y-11805833D02*
X6361072Y-11758214D01*
X6361072Y-11758214D02*
X6370595Y-11720119D01*
X6370595Y-11720119D02*
X6380119Y-11701071D01*
X6380119Y-11701071D02*
X6389643Y-11691548D01*
X6389643Y-11691548D02*
X6408691Y-11682024D01*
X6665833Y-11882024D02*
X6551548Y-11882024D01*
X6608691Y-11882024D02*
X6608691Y-11682024D01*
X6608691Y-11682024D02*
X6589643Y-11710595D01*
X6589643Y-11710595D02*
X6570595Y-11729643D01*
X6570595Y-11729643D02*
X6551548Y-11739167D01*
X6856310Y-11882024D02*
X6742024Y-11882024D01*
X6799167Y-11882024D02*
X6799167Y-11682024D01*
X6799167Y-11682024D02*
X6780119Y-11710595D01*
X6780119Y-11710595D02*
X6761072Y-11729643D01*
X6761072Y-11729643D02*
X6742024Y-11739167D01*
X6970595Y-11767738D02*
X6951548Y-11758214D01*
X6951548Y-11758214D02*
X6942024Y-11748690D01*
X6942024Y-11748690D02*
X6932500Y-11729643D01*
X6932500Y-11729643D02*
X6932500Y-11720119D01*
X6932500Y-11720119D02*
X6942024Y-11701071D01*
X6942024Y-11701071D02*
X6951548Y-11691548D01*
X6951548Y-11691548D02*
X6970595Y-11682024D01*
X6970595Y-11682024D02*
X7008691Y-11682024D01*
X7008691Y-11682024D02*
X7027738Y-11691548D01*
X7027738Y-11691548D02*
X7037262Y-11701071D01*
X7037262Y-11701071D02*
X7046786Y-11720119D01*
X7046786Y-11720119D02*
X7046786Y-11729643D01*
X7046786Y-11729643D02*
X7037262Y-11748690D01*
X7037262Y-11748690D02*
X7027738Y-11758214D01*
X7027738Y-11758214D02*
X7008691Y-11767738D01*
X7008691Y-11767738D02*
X6970595Y-11767738D01*
X6970595Y-11767738D02*
X6951548Y-11777262D01*
X6951548Y-11777262D02*
X6942024Y-11786786D01*
X6942024Y-11786786D02*
X6932500Y-11805833D01*
X6932500Y-11805833D02*
X6932500Y-11843928D01*
X6932500Y-11843928D02*
X6942024Y-11862976D01*
X6942024Y-11862976D02*
X6951548Y-11872500D01*
X6951548Y-11872500D02*
X6970595Y-11882024D01*
X6970595Y-11882024D02*
X7008691Y-11882024D01*
X7008691Y-11882024D02*
X7027738Y-11872500D01*
X7027738Y-11872500D02*
X7037262Y-11862976D01*
X7037262Y-11862976D02*
X7046786Y-11843928D01*
X7046786Y-11843928D02*
X7046786Y-11805833D01*
X7046786Y-11805833D02*
X7037262Y-11786786D01*
X7037262Y-11786786D02*
X7027738Y-11777262D01*
X7027738Y-11777262D02*
X7008691Y-11767738D01*
X7122976Y-11682024D02*
X7122976Y-11720119D01*
X7199167Y-11682024D02*
X7199167Y-11720119D01*
X7494405Y-11958214D02*
X7484881Y-11948690D01*
X7484881Y-11948690D02*
X7465834Y-11920119D01*
X7465834Y-11920119D02*
X7456310Y-11901071D01*
X7456310Y-11901071D02*
X7446786Y-11872500D01*
X7446786Y-11872500D02*
X7437262Y-11824881D01*
X7437262Y-11824881D02*
X7437262Y-11786786D01*
X7437262Y-11786786D02*
X7446786Y-11739167D01*
X7446786Y-11739167D02*
X7456310Y-11710595D01*
X7456310Y-11710595D02*
X7465834Y-11691548D01*
X7465834Y-11691548D02*
X7484881Y-11662976D01*
X7484881Y-11662976D02*
X7494405Y-11653452D01*
X7551548Y-11682024D02*
X7675357Y-11682024D01*
X7675357Y-11682024D02*
X7608691Y-11758214D01*
X7608691Y-11758214D02*
X7637262Y-11758214D01*
X7637262Y-11758214D02*
X7656310Y-11767738D01*
X7656310Y-11767738D02*
X7665834Y-11777262D01*
X7665834Y-11777262D02*
X7675357Y-11796309D01*
X7675357Y-11796309D02*
X7675357Y-11843928D01*
X7675357Y-11843928D02*
X7665834Y-11862976D01*
X7665834Y-11862976D02*
X7656310Y-11872500D01*
X7656310Y-11872500D02*
X7637262Y-11882024D01*
X7637262Y-11882024D02*
X7580119Y-11882024D01*
X7580119Y-11882024D02*
X7561072Y-11872500D01*
X7561072Y-11872500D02*
X7551548Y-11862976D01*
X7913453Y-11882024D02*
X7913453Y-11682024D01*
X7999167Y-11882024D02*
X7999167Y-11777262D01*
X7999167Y-11777262D02*
X7989643Y-11758214D01*
X7989643Y-11758214D02*
X7970596Y-11748690D01*
X7970596Y-11748690D02*
X7942024Y-11748690D01*
X7942024Y-11748690D02*
X7922976Y-11758214D01*
X7922976Y-11758214D02*
X7913453Y-11767738D01*
X8122976Y-11882024D02*
X8103929Y-11872500D01*
X8103929Y-11872500D02*
X8094405Y-11862976D01*
X8094405Y-11862976D02*
X8084881Y-11843928D01*
X8084881Y-11843928D02*
X8084881Y-11786786D01*
X8084881Y-11786786D02*
X8094405Y-11767738D01*
X8094405Y-11767738D02*
X8103929Y-11758214D01*
X8103929Y-11758214D02*
X8122976Y-11748690D01*
X8122976Y-11748690D02*
X8151548Y-11748690D01*
X8151548Y-11748690D02*
X8170596Y-11758214D01*
X8170596Y-11758214D02*
X8180119Y-11767738D01*
X8180119Y-11767738D02*
X8189643Y-11786786D01*
X8189643Y-11786786D02*
X8189643Y-11843928D01*
X8189643Y-11843928D02*
X8180119Y-11862976D01*
X8180119Y-11862976D02*
X8170596Y-11872500D01*
X8170596Y-11872500D02*
X8151548Y-11882024D01*
X8151548Y-11882024D02*
X8122976Y-11882024D01*
X8303929Y-11882024D02*
X8284881Y-11872500D01*
X8284881Y-11872500D02*
X8275357Y-11853452D01*
X8275357Y-11853452D02*
X8275357Y-11682024D01*
X8456310Y-11872500D02*
X8437262Y-11882024D01*
X8437262Y-11882024D02*
X8399167Y-11882024D01*
X8399167Y-11882024D02*
X8380119Y-11872500D01*
X8380119Y-11872500D02*
X8370596Y-11853452D01*
X8370596Y-11853452D02*
X8370596Y-11777262D01*
X8370596Y-11777262D02*
X8380119Y-11758214D01*
X8380119Y-11758214D02*
X8399167Y-11748690D01*
X8399167Y-11748690D02*
X8437262Y-11748690D01*
X8437262Y-11748690D02*
X8456310Y-11758214D01*
X8456310Y-11758214D02*
X8465834Y-11777262D01*
X8465834Y-11777262D02*
X8465834Y-11796309D01*
X8465834Y-11796309D02*
X8370596Y-11815357D01*
X8542024Y-11872500D02*
X8561072Y-11882024D01*
X8561072Y-11882024D02*
X8599167Y-11882024D01*
X8599167Y-11882024D02*
X8618215Y-11872500D01*
X8618215Y-11872500D02*
X8627739Y-11853452D01*
X8627739Y-11853452D02*
X8627739Y-11843928D01*
X8627739Y-11843928D02*
X8618215Y-11824881D01*
X8618215Y-11824881D02*
X8599167Y-11815357D01*
X8599167Y-11815357D02*
X8570596Y-11815357D01*
X8570596Y-11815357D02*
X8551548Y-11805833D01*
X8551548Y-11805833D02*
X8542024Y-11786786D01*
X8542024Y-11786786D02*
X8542024Y-11777262D01*
X8542024Y-11777262D02*
X8551548Y-11758214D01*
X8551548Y-11758214D02*
X8570596Y-11748690D01*
X8570596Y-11748690D02*
X8599167Y-11748690D01*
X8599167Y-11748690D02*
X8618215Y-11758214D01*
X8694405Y-11958214D02*
X8703929Y-11948690D01*
X8703929Y-11948690D02*
X8722977Y-11920119D01*
X8722977Y-11920119D02*
X8732500Y-11901071D01*
X8732500Y-11901071D02*
X8742024Y-11872500D01*
X8742024Y-11872500D02*
X8751548Y-11824881D01*
X8751548Y-11824881D02*
X8751548Y-11786786D01*
X8751548Y-11786786D02*
X8742024Y-11739167D01*
X8742024Y-11739167D02*
X8732500Y-11710595D01*
X8732500Y-11710595D02*
X8722977Y-11691548D01*
X8722977Y-11691548D02*
X8703929Y-11662976D01*
X8703929Y-11662976D02*
X8694405Y-11653452D01*
D13*
X3932500Y-12053500D02*
G75*
G03*
X3932500Y-12053500I-20000J0D01*
G01*
D11*
X4218214Y-11946024D02*
X4237262Y-11946024D01*
X4237262Y-11946024D02*
X4256310Y-11955548D01*
X4256310Y-11955548D02*
X4265833Y-11965071D01*
X4265833Y-11965071D02*
X4275357Y-11984119D01*
X4275357Y-11984119D02*
X4284881Y-12022214D01*
X4284881Y-12022214D02*
X4284881Y-12069833D01*
X4284881Y-12069833D02*
X4275357Y-12107928D01*
X4275357Y-12107928D02*
X4265833Y-12126976D01*
X4265833Y-12126976D02*
X4256310Y-12136500D01*
X4256310Y-12136500D02*
X4237262Y-12146024D01*
X4237262Y-12146024D02*
X4218214Y-12146024D01*
X4218214Y-12146024D02*
X4199167Y-12136500D01*
X4199167Y-12136500D02*
X4189643Y-12126976D01*
X4189643Y-12126976D02*
X4180119Y-12107928D01*
X4180119Y-12107928D02*
X4170595Y-12069833D01*
X4170595Y-12069833D02*
X4170595Y-12022214D01*
X4170595Y-12022214D02*
X4180119Y-11984119D01*
X4180119Y-11984119D02*
X4189643Y-11965071D01*
X4189643Y-11965071D02*
X4199167Y-11955548D01*
X4199167Y-11955548D02*
X4218214Y-11946024D01*
X4370595Y-12126976D02*
X4380119Y-12136500D01*
X4380119Y-12136500D02*
X4370595Y-12146024D01*
X4370595Y-12146024D02*
X4361071Y-12136500D01*
X4361071Y-12136500D02*
X4370595Y-12126976D01*
X4370595Y-12126976D02*
X4370595Y-12146024D01*
X4551548Y-12012690D02*
X4551548Y-12146024D01*
X4503929Y-11936500D02*
X4456310Y-12079357D01*
X4456310Y-12079357D02*
X4580119Y-12079357D01*
X4694405Y-11946024D02*
X4713452Y-11946024D01*
X4713452Y-11946024D02*
X4732500Y-11955548D01*
X4732500Y-11955548D02*
X4742024Y-11965071D01*
X4742024Y-11965071D02*
X4751548Y-11984119D01*
X4751548Y-11984119D02*
X4761071Y-12022214D01*
X4761071Y-12022214D02*
X4761071Y-12069833D01*
X4761071Y-12069833D02*
X4751548Y-12107928D01*
X4751548Y-12107928D02*
X4742024Y-12126976D01*
X4742024Y-12126976D02*
X4732500Y-12136500D01*
X4732500Y-12136500D02*
X4713452Y-12146024D01*
X4713452Y-12146024D02*
X4694405Y-12146024D01*
X4694405Y-12146024D02*
X4675357Y-12136500D01*
X4675357Y-12136500D02*
X4665833Y-12126976D01*
X4665833Y-12126976D02*
X4656310Y-12107928D01*
X4656310Y-12107928D02*
X4646786Y-12069833D01*
X4646786Y-12069833D02*
X4646786Y-12022214D01*
X4646786Y-12022214D02*
X4656310Y-11984119D01*
X4656310Y-11984119D02*
X4665833Y-11965071D01*
X4665833Y-11965071D02*
X4675357Y-11955548D01*
X4675357Y-11955548D02*
X4694405Y-11946024D01*
X4884881Y-11946024D02*
X4903929Y-11946024D01*
X4903929Y-11946024D02*
X4922976Y-11955548D01*
X4922976Y-11955548D02*
X4932500Y-11965071D01*
X4932500Y-11965071D02*
X4942024Y-11984119D01*
X4942024Y-11984119D02*
X4951548Y-12022214D01*
X4951548Y-12022214D02*
X4951548Y-12069833D01*
X4951548Y-12069833D02*
X4942024Y-12107928D01*
X4942024Y-12107928D02*
X4932500Y-12126976D01*
X4932500Y-12126976D02*
X4922976Y-12136500D01*
X4922976Y-12136500D02*
X4903929Y-12146024D01*
X4903929Y-12146024D02*
X4884881Y-12146024D01*
X4884881Y-12146024D02*
X4865833Y-12136500D01*
X4865833Y-12136500D02*
X4856310Y-12126976D01*
X4856310Y-12126976D02*
X4846786Y-12107928D01*
X4846786Y-12107928D02*
X4837262Y-12069833D01*
X4837262Y-12069833D02*
X4837262Y-12022214D01*
X4837262Y-12022214D02*
X4846786Y-11984119D01*
X4846786Y-11984119D02*
X4856310Y-11965071D01*
X4856310Y-11965071D02*
X4865833Y-11955548D01*
X4865833Y-11955548D02*
X4884881Y-11946024D01*
X5037262Y-12146024D02*
X5037262Y-12012690D01*
X5037262Y-12031738D02*
X5046786Y-12022214D01*
X5046786Y-12022214D02*
X5065833Y-12012690D01*
X5065833Y-12012690D02*
X5094405Y-12012690D01*
X5094405Y-12012690D02*
X5113452Y-12022214D01*
X5113452Y-12022214D02*
X5122976Y-12041262D01*
X5122976Y-12041262D02*
X5122976Y-12146024D01*
X5122976Y-12041262D02*
X5132500Y-12022214D01*
X5132500Y-12022214D02*
X5151548Y-12012690D01*
X5151548Y-12012690D02*
X5180119Y-12012690D01*
X5180119Y-12012690D02*
X5199167Y-12022214D01*
X5199167Y-12022214D02*
X5208691Y-12041262D01*
X5208691Y-12041262D02*
X5208691Y-12146024D01*
X5303929Y-12146024D02*
X5303929Y-12012690D01*
X5303929Y-12031738D02*
X5313452Y-12022214D01*
X5313452Y-12022214D02*
X5332500Y-12012690D01*
X5332500Y-12012690D02*
X5361072Y-12012690D01*
X5361072Y-12012690D02*
X5380119Y-12022214D01*
X5380119Y-12022214D02*
X5389643Y-12041262D01*
X5389643Y-12041262D02*
X5389643Y-12146024D01*
X5389643Y-12041262D02*
X5399167Y-12022214D01*
X5399167Y-12022214D02*
X5418214Y-12012690D01*
X5418214Y-12012690D02*
X5446786Y-12012690D01*
X5446786Y-12012690D02*
X5465833Y-12022214D01*
X5465833Y-12022214D02*
X5475357Y-12041262D01*
X5475357Y-12041262D02*
X5475357Y-12146024D01*
X5865833Y-11936500D02*
X5694405Y-12193643D01*
X6122976Y-11946024D02*
X6142024Y-11946024D01*
X6142024Y-11946024D02*
X6161072Y-11955548D01*
X6161072Y-11955548D02*
X6170595Y-11965071D01*
X6170595Y-11965071D02*
X6180119Y-11984119D01*
X6180119Y-11984119D02*
X6189643Y-12022214D01*
X6189643Y-12022214D02*
X6189643Y-12069833D01*
X6189643Y-12069833D02*
X6180119Y-12107928D01*
X6180119Y-12107928D02*
X6170595Y-12126976D01*
X6170595Y-12126976D02*
X6161072Y-12136500D01*
X6161072Y-12136500D02*
X6142024Y-12146024D01*
X6142024Y-12146024D02*
X6122976Y-12146024D01*
X6122976Y-12146024D02*
X6103929Y-12136500D01*
X6103929Y-12136500D02*
X6094405Y-12126976D01*
X6094405Y-12126976D02*
X6084881Y-12107928D01*
X6084881Y-12107928D02*
X6075357Y-12069833D01*
X6075357Y-12069833D02*
X6075357Y-12022214D01*
X6075357Y-12022214D02*
X6084881Y-11984119D01*
X6084881Y-11984119D02*
X6094405Y-11965071D01*
X6094405Y-11965071D02*
X6103929Y-11955548D01*
X6103929Y-11955548D02*
X6122976Y-11946024D01*
X6275357Y-12126976D02*
X6284881Y-12136500D01*
X6284881Y-12136500D02*
X6275357Y-12146024D01*
X6275357Y-12146024D02*
X6265833Y-12136500D01*
X6265833Y-12136500D02*
X6275357Y-12126976D01*
X6275357Y-12126976D02*
X6275357Y-12146024D01*
X6408691Y-11946024D02*
X6427738Y-11946024D01*
X6427738Y-11946024D02*
X6446786Y-11955548D01*
X6446786Y-11955548D02*
X6456310Y-11965071D01*
X6456310Y-11965071D02*
X6465833Y-11984119D01*
X6465833Y-11984119D02*
X6475357Y-12022214D01*
X6475357Y-12022214D02*
X6475357Y-12069833D01*
X6475357Y-12069833D02*
X6465833Y-12107928D01*
X6465833Y-12107928D02*
X6456310Y-12126976D01*
X6456310Y-12126976D02*
X6446786Y-12136500D01*
X6446786Y-12136500D02*
X6427738Y-12146024D01*
X6427738Y-12146024D02*
X6408691Y-12146024D01*
X6408691Y-12146024D02*
X6389643Y-12136500D01*
X6389643Y-12136500D02*
X6380119Y-12126976D01*
X6380119Y-12126976D02*
X6370595Y-12107928D01*
X6370595Y-12107928D02*
X6361072Y-12069833D01*
X6361072Y-12069833D02*
X6361072Y-12022214D01*
X6361072Y-12022214D02*
X6370595Y-11984119D01*
X6370595Y-11984119D02*
X6380119Y-11965071D01*
X6380119Y-11965071D02*
X6389643Y-11955548D01*
X6389643Y-11955548D02*
X6408691Y-11946024D01*
X6665833Y-12146024D02*
X6551548Y-12146024D01*
X6608691Y-12146024D02*
X6608691Y-11946024D01*
X6608691Y-11946024D02*
X6589643Y-11974595D01*
X6589643Y-11974595D02*
X6570595Y-11993643D01*
X6570595Y-11993643D02*
X6551548Y-12003167D01*
X6846786Y-11946024D02*
X6751548Y-11946024D01*
X6751548Y-11946024D02*
X6742024Y-12041262D01*
X6742024Y-12041262D02*
X6751548Y-12031738D01*
X6751548Y-12031738D02*
X6770595Y-12022214D01*
X6770595Y-12022214D02*
X6818214Y-12022214D01*
X6818214Y-12022214D02*
X6837262Y-12031738D01*
X6837262Y-12031738D02*
X6846786Y-12041262D01*
X6846786Y-12041262D02*
X6856310Y-12060309D01*
X6856310Y-12060309D02*
X6856310Y-12107928D01*
X6856310Y-12107928D02*
X6846786Y-12126976D01*
X6846786Y-12126976D02*
X6837262Y-12136500D01*
X6837262Y-12136500D02*
X6818214Y-12146024D01*
X6818214Y-12146024D02*
X6770595Y-12146024D01*
X6770595Y-12146024D02*
X6751548Y-12136500D01*
X6751548Y-12136500D02*
X6742024Y-12126976D01*
X6922976Y-11946024D02*
X7056310Y-11946024D01*
X7056310Y-11946024D02*
X6970595Y-12146024D01*
X7122976Y-11946024D02*
X7122976Y-11984119D01*
X7199167Y-11946024D02*
X7199167Y-11984119D01*
X7494405Y-12222214D02*
X7484881Y-12212690D01*
X7484881Y-12212690D02*
X7465834Y-12184119D01*
X7465834Y-12184119D02*
X7456310Y-12165071D01*
X7456310Y-12165071D02*
X7446786Y-12136500D01*
X7446786Y-12136500D02*
X7437262Y-12088881D01*
X7437262Y-12088881D02*
X7437262Y-12050786D01*
X7437262Y-12050786D02*
X7446786Y-12003167D01*
X7446786Y-12003167D02*
X7456310Y-11974595D01*
X7456310Y-11974595D02*
X7465834Y-11955548D01*
X7465834Y-11955548D02*
X7484881Y-11926976D01*
X7484881Y-11926976D02*
X7494405Y-11917452D01*
X7675357Y-12146024D02*
X7561072Y-12146024D01*
X7618214Y-12146024D02*
X7618214Y-11946024D01*
X7618214Y-11946024D02*
X7599167Y-11974595D01*
X7599167Y-11974595D02*
X7580119Y-11993643D01*
X7580119Y-11993643D02*
X7561072Y-12003167D01*
X7846786Y-11946024D02*
X7808691Y-11946024D01*
X7808691Y-11946024D02*
X7789643Y-11955548D01*
X7789643Y-11955548D02*
X7780119Y-11965071D01*
X7780119Y-11965071D02*
X7761072Y-11993643D01*
X7761072Y-11993643D02*
X7751548Y-12031738D01*
X7751548Y-12031738D02*
X7751548Y-12107928D01*
X7751548Y-12107928D02*
X7761072Y-12126976D01*
X7761072Y-12126976D02*
X7770595Y-12136500D01*
X7770595Y-12136500D02*
X7789643Y-12146024D01*
X7789643Y-12146024D02*
X7827738Y-12146024D01*
X7827738Y-12146024D02*
X7846786Y-12136500D01*
X7846786Y-12136500D02*
X7856310Y-12126976D01*
X7856310Y-12126976D02*
X7865834Y-12107928D01*
X7865834Y-12107928D02*
X7865834Y-12060309D01*
X7865834Y-12060309D02*
X7856310Y-12041262D01*
X7856310Y-12041262D02*
X7846786Y-12031738D01*
X7846786Y-12031738D02*
X7827738Y-12022214D01*
X7827738Y-12022214D02*
X7789643Y-12022214D01*
X7789643Y-12022214D02*
X7770595Y-12031738D01*
X7770595Y-12031738D02*
X7761072Y-12041262D01*
X7761072Y-12041262D02*
X7751548Y-12060309D01*
X7932500Y-11946024D02*
X8065834Y-11946024D01*
X8065834Y-11946024D02*
X7980119Y-12146024D01*
X8294405Y-12146024D02*
X8294405Y-11946024D01*
X8380119Y-12146024D02*
X8380119Y-12041262D01*
X8380119Y-12041262D02*
X8370596Y-12022214D01*
X8370596Y-12022214D02*
X8351548Y-12012690D01*
X8351548Y-12012690D02*
X8322976Y-12012690D01*
X8322976Y-12012690D02*
X8303929Y-12022214D01*
X8303929Y-12022214D02*
X8294405Y-12031738D01*
X8503929Y-12146024D02*
X8484881Y-12136500D01*
X8484881Y-12136500D02*
X8475358Y-12126976D01*
X8475358Y-12126976D02*
X8465834Y-12107928D01*
X8465834Y-12107928D02*
X8465834Y-12050786D01*
X8465834Y-12050786D02*
X8475358Y-12031738D01*
X8475358Y-12031738D02*
X8484881Y-12022214D01*
X8484881Y-12022214D02*
X8503929Y-12012690D01*
X8503929Y-12012690D02*
X8532500Y-12012690D01*
X8532500Y-12012690D02*
X8551548Y-12022214D01*
X8551548Y-12022214D02*
X8561072Y-12031738D01*
X8561072Y-12031738D02*
X8570596Y-12050786D01*
X8570596Y-12050786D02*
X8570596Y-12107928D01*
X8570596Y-12107928D02*
X8561072Y-12126976D01*
X8561072Y-12126976D02*
X8551548Y-12136500D01*
X8551548Y-12136500D02*
X8532500Y-12146024D01*
X8532500Y-12146024D02*
X8503929Y-12146024D01*
X8684881Y-12146024D02*
X8665834Y-12136500D01*
X8665834Y-12136500D02*
X8656310Y-12117452D01*
X8656310Y-12117452D02*
X8656310Y-11946024D01*
X8837262Y-12136500D02*
X8818215Y-12146024D01*
X8818215Y-12146024D02*
X8780119Y-12146024D01*
X8780119Y-12146024D02*
X8761072Y-12136500D01*
X8761072Y-12136500D02*
X8751548Y-12117452D01*
X8751548Y-12117452D02*
X8751548Y-12041262D01*
X8751548Y-12041262D02*
X8761072Y-12022214D01*
X8761072Y-12022214D02*
X8780119Y-12012690D01*
X8780119Y-12012690D02*
X8818215Y-12012690D01*
X8818215Y-12012690D02*
X8837262Y-12022214D01*
X8837262Y-12022214D02*
X8846786Y-12041262D01*
X8846786Y-12041262D02*
X8846786Y-12060309D01*
X8846786Y-12060309D02*
X8751548Y-12079357D01*
X8922977Y-12136500D02*
X8942024Y-12146024D01*
X8942024Y-12146024D02*
X8980119Y-12146024D01*
X8980119Y-12146024D02*
X8999167Y-12136500D01*
X8999167Y-12136500D02*
X9008691Y-12117452D01*
X9008691Y-12117452D02*
X9008691Y-12107928D01*
X9008691Y-12107928D02*
X8999167Y-12088881D01*
X8999167Y-12088881D02*
X8980119Y-12079357D01*
X8980119Y-12079357D02*
X8951548Y-12079357D01*
X8951548Y-12079357D02*
X8932500Y-12069833D01*
X8932500Y-12069833D02*
X8922977Y-12050786D01*
X8922977Y-12050786D02*
X8922977Y-12041262D01*
X8922977Y-12041262D02*
X8932500Y-12022214D01*
X8932500Y-12022214D02*
X8951548Y-12012690D01*
X8951548Y-12012690D02*
X8980119Y-12012690D01*
X8980119Y-12012690D02*
X8999167Y-12022214D01*
X9075358Y-12222214D02*
X9084881Y-12212690D01*
X9084881Y-12212690D02*
X9103929Y-12184119D01*
X9103929Y-12184119D02*
X9113453Y-12165071D01*
X9113453Y-12165071D02*
X9122977Y-12136500D01*
X9122977Y-12136500D02*
X9132500Y-12088881D01*
X9132500Y-12088881D02*
X9132500Y-12050786D01*
X9132500Y-12050786D02*
X9122977Y-12003167D01*
X9122977Y-12003167D02*
X9113453Y-11974595D01*
X9113453Y-11974595D02*
X9103929Y-11955548D01*
X9103929Y-11955548D02*
X9084881Y-11926976D01*
X9084881Y-11926976D02*
X9075358Y-11917452D01*
D14*
X3882500Y-12267500D02*
X3882500Y-12367500D01*
X3832500Y-12317500D02*
X3932500Y-12317500D01*
D11*
X4284881Y-12410024D02*
X4170595Y-12410024D01*
X4227738Y-12410024D02*
X4227738Y-12210024D01*
X4227738Y-12210024D02*
X4208690Y-12238595D01*
X4208690Y-12238595D02*
X4189643Y-12257643D01*
X4189643Y-12257643D02*
X4170595Y-12267167D01*
X4370595Y-12390976D02*
X4380119Y-12400500D01*
X4380119Y-12400500D02*
X4370595Y-12410024D01*
X4370595Y-12410024D02*
X4361071Y-12400500D01*
X4361071Y-12400500D02*
X4370595Y-12390976D01*
X4370595Y-12390976D02*
X4370595Y-12410024D01*
X4503929Y-12210024D02*
X4522976Y-12210024D01*
X4522976Y-12210024D02*
X4542024Y-12219548D01*
X4542024Y-12219548D02*
X4551548Y-12229071D01*
X4551548Y-12229071D02*
X4561071Y-12248119D01*
X4561071Y-12248119D02*
X4570595Y-12286214D01*
X4570595Y-12286214D02*
X4570595Y-12333833D01*
X4570595Y-12333833D02*
X4561071Y-12371928D01*
X4561071Y-12371928D02*
X4551548Y-12390976D01*
X4551548Y-12390976D02*
X4542024Y-12400500D01*
X4542024Y-12400500D02*
X4522976Y-12410024D01*
X4522976Y-12410024D02*
X4503929Y-12410024D01*
X4503929Y-12410024D02*
X4484881Y-12400500D01*
X4484881Y-12400500D02*
X4475357Y-12390976D01*
X4475357Y-12390976D02*
X4465833Y-12371928D01*
X4465833Y-12371928D02*
X4456310Y-12333833D01*
X4456310Y-12333833D02*
X4456310Y-12286214D01*
X4456310Y-12286214D02*
X4465833Y-12248119D01*
X4465833Y-12248119D02*
X4475357Y-12229071D01*
X4475357Y-12229071D02*
X4484881Y-12219548D01*
X4484881Y-12219548D02*
X4503929Y-12210024D01*
X4694405Y-12210024D02*
X4713452Y-12210024D01*
X4713452Y-12210024D02*
X4732500Y-12219548D01*
X4732500Y-12219548D02*
X4742024Y-12229071D01*
X4742024Y-12229071D02*
X4751548Y-12248119D01*
X4751548Y-12248119D02*
X4761071Y-12286214D01*
X4761071Y-12286214D02*
X4761071Y-12333833D01*
X4761071Y-12333833D02*
X4751548Y-12371928D01*
X4751548Y-12371928D02*
X4742024Y-12390976D01*
X4742024Y-12390976D02*
X4732500Y-12400500D01*
X4732500Y-12400500D02*
X4713452Y-12410024D01*
X4713452Y-12410024D02*
X4694405Y-12410024D01*
X4694405Y-12410024D02*
X4675357Y-12400500D01*
X4675357Y-12400500D02*
X4665833Y-12390976D01*
X4665833Y-12390976D02*
X4656310Y-12371928D01*
X4656310Y-12371928D02*
X4646786Y-12333833D01*
X4646786Y-12333833D02*
X4646786Y-12286214D01*
X4646786Y-12286214D02*
X4656310Y-12248119D01*
X4656310Y-12248119D02*
X4665833Y-12229071D01*
X4665833Y-12229071D02*
X4675357Y-12219548D01*
X4675357Y-12219548D02*
X4694405Y-12210024D01*
X4884881Y-12210024D02*
X4903929Y-12210024D01*
X4903929Y-12210024D02*
X4922976Y-12219548D01*
X4922976Y-12219548D02*
X4932500Y-12229071D01*
X4932500Y-12229071D02*
X4942024Y-12248119D01*
X4942024Y-12248119D02*
X4951548Y-12286214D01*
X4951548Y-12286214D02*
X4951548Y-12333833D01*
X4951548Y-12333833D02*
X4942024Y-12371928D01*
X4942024Y-12371928D02*
X4932500Y-12390976D01*
X4932500Y-12390976D02*
X4922976Y-12400500D01*
X4922976Y-12400500D02*
X4903929Y-12410024D01*
X4903929Y-12410024D02*
X4884881Y-12410024D01*
X4884881Y-12410024D02*
X4865833Y-12400500D01*
X4865833Y-12400500D02*
X4856310Y-12390976D01*
X4856310Y-12390976D02*
X4846786Y-12371928D01*
X4846786Y-12371928D02*
X4837262Y-12333833D01*
X4837262Y-12333833D02*
X4837262Y-12286214D01*
X4837262Y-12286214D02*
X4846786Y-12248119D01*
X4846786Y-12248119D02*
X4856310Y-12229071D01*
X4856310Y-12229071D02*
X4865833Y-12219548D01*
X4865833Y-12219548D02*
X4884881Y-12210024D01*
X5037262Y-12410024D02*
X5037262Y-12276690D01*
X5037262Y-12295738D02*
X5046786Y-12286214D01*
X5046786Y-12286214D02*
X5065833Y-12276690D01*
X5065833Y-12276690D02*
X5094405Y-12276690D01*
X5094405Y-12276690D02*
X5113452Y-12286214D01*
X5113452Y-12286214D02*
X5122976Y-12305262D01*
X5122976Y-12305262D02*
X5122976Y-12410024D01*
X5122976Y-12305262D02*
X5132500Y-12286214D01*
X5132500Y-12286214D02*
X5151548Y-12276690D01*
X5151548Y-12276690D02*
X5180119Y-12276690D01*
X5180119Y-12276690D02*
X5199167Y-12286214D01*
X5199167Y-12286214D02*
X5208691Y-12305262D01*
X5208691Y-12305262D02*
X5208691Y-12410024D01*
X5303929Y-12410024D02*
X5303929Y-12276690D01*
X5303929Y-12295738D02*
X5313452Y-12286214D01*
X5313452Y-12286214D02*
X5332500Y-12276690D01*
X5332500Y-12276690D02*
X5361072Y-12276690D01*
X5361072Y-12276690D02*
X5380119Y-12286214D01*
X5380119Y-12286214D02*
X5389643Y-12305262D01*
X5389643Y-12305262D02*
X5389643Y-12410024D01*
X5389643Y-12305262D02*
X5399167Y-12286214D01*
X5399167Y-12286214D02*
X5418214Y-12276690D01*
X5418214Y-12276690D02*
X5446786Y-12276690D01*
X5446786Y-12276690D02*
X5465833Y-12286214D01*
X5465833Y-12286214D02*
X5475357Y-12305262D01*
X5475357Y-12305262D02*
X5475357Y-12410024D01*
X5865833Y-12200500D02*
X5694405Y-12457643D01*
X6122976Y-12210024D02*
X6142024Y-12210024D01*
X6142024Y-12210024D02*
X6161072Y-12219548D01*
X6161072Y-12219548D02*
X6170595Y-12229071D01*
X6170595Y-12229071D02*
X6180119Y-12248119D01*
X6180119Y-12248119D02*
X6189643Y-12286214D01*
X6189643Y-12286214D02*
X6189643Y-12333833D01*
X6189643Y-12333833D02*
X6180119Y-12371928D01*
X6180119Y-12371928D02*
X6170595Y-12390976D01*
X6170595Y-12390976D02*
X6161072Y-12400500D01*
X6161072Y-12400500D02*
X6142024Y-12410024D01*
X6142024Y-12410024D02*
X6122976Y-12410024D01*
X6122976Y-12410024D02*
X6103929Y-12400500D01*
X6103929Y-12400500D02*
X6094405Y-12390976D01*
X6094405Y-12390976D02*
X6084881Y-12371928D01*
X6084881Y-12371928D02*
X6075357Y-12333833D01*
X6075357Y-12333833D02*
X6075357Y-12286214D01*
X6075357Y-12286214D02*
X6084881Y-12248119D01*
X6084881Y-12248119D02*
X6094405Y-12229071D01*
X6094405Y-12229071D02*
X6103929Y-12219548D01*
X6103929Y-12219548D02*
X6122976Y-12210024D01*
X6275357Y-12390976D02*
X6284881Y-12400500D01*
X6284881Y-12400500D02*
X6275357Y-12410024D01*
X6275357Y-12410024D02*
X6265833Y-12400500D01*
X6265833Y-12400500D02*
X6275357Y-12390976D01*
X6275357Y-12390976D02*
X6275357Y-12410024D01*
X6408691Y-12210024D02*
X6427738Y-12210024D01*
X6427738Y-12210024D02*
X6446786Y-12219548D01*
X6446786Y-12219548D02*
X6456310Y-12229071D01*
X6456310Y-12229071D02*
X6465833Y-12248119D01*
X6465833Y-12248119D02*
X6475357Y-12286214D01*
X6475357Y-12286214D02*
X6475357Y-12333833D01*
X6475357Y-12333833D02*
X6465833Y-12371928D01*
X6465833Y-12371928D02*
X6456310Y-12390976D01*
X6456310Y-12390976D02*
X6446786Y-12400500D01*
X6446786Y-12400500D02*
X6427738Y-12410024D01*
X6427738Y-12410024D02*
X6408691Y-12410024D01*
X6408691Y-12410024D02*
X6389643Y-12400500D01*
X6389643Y-12400500D02*
X6380119Y-12390976D01*
X6380119Y-12390976D02*
X6370595Y-12371928D01*
X6370595Y-12371928D02*
X6361072Y-12333833D01*
X6361072Y-12333833D02*
X6361072Y-12286214D01*
X6361072Y-12286214D02*
X6370595Y-12248119D01*
X6370595Y-12248119D02*
X6380119Y-12229071D01*
X6380119Y-12229071D02*
X6389643Y-12219548D01*
X6389643Y-12219548D02*
X6408691Y-12210024D01*
X6542024Y-12210024D02*
X6665833Y-12210024D01*
X6665833Y-12210024D02*
X6599167Y-12286214D01*
X6599167Y-12286214D02*
X6627738Y-12286214D01*
X6627738Y-12286214D02*
X6646786Y-12295738D01*
X6646786Y-12295738D02*
X6656310Y-12305262D01*
X6656310Y-12305262D02*
X6665833Y-12324309D01*
X6665833Y-12324309D02*
X6665833Y-12371928D01*
X6665833Y-12371928D02*
X6656310Y-12390976D01*
X6656310Y-12390976D02*
X6646786Y-12400500D01*
X6646786Y-12400500D02*
X6627738Y-12410024D01*
X6627738Y-12410024D02*
X6570595Y-12410024D01*
X6570595Y-12410024D02*
X6551548Y-12400500D01*
X6551548Y-12400500D02*
X6542024Y-12390976D01*
X6761072Y-12410024D02*
X6799167Y-12410024D01*
X6799167Y-12410024D02*
X6818214Y-12400500D01*
X6818214Y-12400500D02*
X6827738Y-12390976D01*
X6827738Y-12390976D02*
X6846786Y-12362405D01*
X6846786Y-12362405D02*
X6856310Y-12324309D01*
X6856310Y-12324309D02*
X6856310Y-12248119D01*
X6856310Y-12248119D02*
X6846786Y-12229071D01*
X6846786Y-12229071D02*
X6837262Y-12219548D01*
X6837262Y-12219548D02*
X6818214Y-12210024D01*
X6818214Y-12210024D02*
X6780119Y-12210024D01*
X6780119Y-12210024D02*
X6761072Y-12219548D01*
X6761072Y-12219548D02*
X6751548Y-12229071D01*
X6751548Y-12229071D02*
X6742024Y-12248119D01*
X6742024Y-12248119D02*
X6742024Y-12295738D01*
X6742024Y-12295738D02*
X6751548Y-12314786D01*
X6751548Y-12314786D02*
X6761072Y-12324309D01*
X6761072Y-12324309D02*
X6780119Y-12333833D01*
X6780119Y-12333833D02*
X6818214Y-12333833D01*
X6818214Y-12333833D02*
X6837262Y-12324309D01*
X6837262Y-12324309D02*
X6846786Y-12314786D01*
X6846786Y-12314786D02*
X6856310Y-12295738D01*
X7027738Y-12276690D02*
X7027738Y-12410024D01*
X6980119Y-12200500D02*
X6932500Y-12343357D01*
X6932500Y-12343357D02*
X7056310Y-12343357D01*
X7122976Y-12210024D02*
X7122976Y-12248119D01*
X7199167Y-12210024D02*
X7199167Y-12248119D01*
X7494405Y-12486214D02*
X7484881Y-12476690D01*
X7484881Y-12476690D02*
X7465834Y-12448119D01*
X7465834Y-12448119D02*
X7456310Y-12429071D01*
X7456310Y-12429071D02*
X7446786Y-12400500D01*
X7446786Y-12400500D02*
X7437262Y-12352881D01*
X7437262Y-12352881D02*
X7437262Y-12314786D01*
X7437262Y-12314786D02*
X7446786Y-12267167D01*
X7446786Y-12267167D02*
X7456310Y-12238595D01*
X7456310Y-12238595D02*
X7465834Y-12219548D01*
X7465834Y-12219548D02*
X7484881Y-12190976D01*
X7484881Y-12190976D02*
X7494405Y-12181452D01*
X7675357Y-12410024D02*
X7561072Y-12410024D01*
X7618214Y-12410024D02*
X7618214Y-12210024D01*
X7618214Y-12210024D02*
X7599167Y-12238595D01*
X7599167Y-12238595D02*
X7580119Y-12257643D01*
X7580119Y-12257643D02*
X7561072Y-12267167D01*
X7799167Y-12210024D02*
X7818215Y-12210024D01*
X7818215Y-12210024D02*
X7837262Y-12219548D01*
X7837262Y-12219548D02*
X7846786Y-12229071D01*
X7846786Y-12229071D02*
X7856310Y-12248119D01*
X7856310Y-12248119D02*
X7865834Y-12286214D01*
X7865834Y-12286214D02*
X7865834Y-12333833D01*
X7865834Y-12333833D02*
X7856310Y-12371928D01*
X7856310Y-12371928D02*
X7846786Y-12390976D01*
X7846786Y-12390976D02*
X7837262Y-12400500D01*
X7837262Y-12400500D02*
X7818215Y-12410024D01*
X7818215Y-12410024D02*
X7799167Y-12410024D01*
X7799167Y-12410024D02*
X7780119Y-12400500D01*
X7780119Y-12400500D02*
X7770595Y-12390976D01*
X7770595Y-12390976D02*
X7761072Y-12371928D01*
X7761072Y-12371928D02*
X7751548Y-12333833D01*
X7751548Y-12333833D02*
X7751548Y-12286214D01*
X7751548Y-12286214D02*
X7761072Y-12248119D01*
X7761072Y-12248119D02*
X7770595Y-12229071D01*
X7770595Y-12229071D02*
X7780119Y-12219548D01*
X7780119Y-12219548D02*
X7799167Y-12210024D01*
X8037262Y-12276690D02*
X8037262Y-12410024D01*
X7989643Y-12200500D02*
X7942024Y-12343357D01*
X7942024Y-12343357D02*
X8065834Y-12343357D01*
X8294405Y-12410024D02*
X8294405Y-12210024D01*
X8380119Y-12410024D02*
X8380119Y-12305262D01*
X8380119Y-12305262D02*
X8370596Y-12286214D01*
X8370596Y-12286214D02*
X8351548Y-12276690D01*
X8351548Y-12276690D02*
X8322976Y-12276690D01*
X8322976Y-12276690D02*
X8303929Y-12286214D01*
X8303929Y-12286214D02*
X8294405Y-12295738D01*
X8503929Y-12410024D02*
X8484881Y-12400500D01*
X8484881Y-12400500D02*
X8475358Y-12390976D01*
X8475358Y-12390976D02*
X8465834Y-12371928D01*
X8465834Y-12371928D02*
X8465834Y-12314786D01*
X8465834Y-12314786D02*
X8475358Y-12295738D01*
X8475358Y-12295738D02*
X8484881Y-12286214D01*
X8484881Y-12286214D02*
X8503929Y-12276690D01*
X8503929Y-12276690D02*
X8532500Y-12276690D01*
X8532500Y-12276690D02*
X8551548Y-12286214D01*
X8551548Y-12286214D02*
X8561072Y-12295738D01*
X8561072Y-12295738D02*
X8570596Y-12314786D01*
X8570596Y-12314786D02*
X8570596Y-12371928D01*
X8570596Y-12371928D02*
X8561072Y-12390976D01*
X8561072Y-12390976D02*
X8551548Y-12400500D01*
X8551548Y-12400500D02*
X8532500Y-12410024D01*
X8532500Y-12410024D02*
X8503929Y-12410024D01*
X8684881Y-12410024D02*
X8665834Y-12400500D01*
X8665834Y-12400500D02*
X8656310Y-12381452D01*
X8656310Y-12381452D02*
X8656310Y-12210024D01*
X8837262Y-12400500D02*
X8818215Y-12410024D01*
X8818215Y-12410024D02*
X8780119Y-12410024D01*
X8780119Y-12410024D02*
X8761072Y-12400500D01*
X8761072Y-12400500D02*
X8751548Y-12381452D01*
X8751548Y-12381452D02*
X8751548Y-12305262D01*
X8751548Y-12305262D02*
X8761072Y-12286214D01*
X8761072Y-12286214D02*
X8780119Y-12276690D01*
X8780119Y-12276690D02*
X8818215Y-12276690D01*
X8818215Y-12276690D02*
X8837262Y-12286214D01*
X8837262Y-12286214D02*
X8846786Y-12305262D01*
X8846786Y-12305262D02*
X8846786Y-12324309D01*
X8846786Y-12324309D02*
X8751548Y-12343357D01*
X8922977Y-12400500D02*
X8942024Y-12410024D01*
X8942024Y-12410024D02*
X8980119Y-12410024D01*
X8980119Y-12410024D02*
X8999167Y-12400500D01*
X8999167Y-12400500D02*
X9008691Y-12381452D01*
X9008691Y-12381452D02*
X9008691Y-12371928D01*
X9008691Y-12371928D02*
X8999167Y-12352881D01*
X8999167Y-12352881D02*
X8980119Y-12343357D01*
X8980119Y-12343357D02*
X8951548Y-12343357D01*
X8951548Y-12343357D02*
X8932500Y-12333833D01*
X8932500Y-12333833D02*
X8922977Y-12314786D01*
X8922977Y-12314786D02*
X8922977Y-12305262D01*
X8922977Y-12305262D02*
X8932500Y-12286214D01*
X8932500Y-12286214D02*
X8951548Y-12276690D01*
X8951548Y-12276690D02*
X8980119Y-12276690D01*
X8980119Y-12276690D02*
X8999167Y-12286214D01*
X9075358Y-12486214D02*
X9084881Y-12476690D01*
X9084881Y-12476690D02*
X9103929Y-12448119D01*
X9103929Y-12448119D02*
X9113453Y-12429071D01*
X9113453Y-12429071D02*
X9122977Y-12400500D01*
X9122977Y-12400500D02*
X9132500Y-12352881D01*
X9132500Y-12352881D02*
X9132500Y-12314786D01*
X9132500Y-12314786D02*
X9122977Y-12267167D01*
X9122977Y-12267167D02*
X9113453Y-12238595D01*
X9113453Y-12238595D02*
X9103929Y-12219548D01*
X9103929Y-12219548D02*
X9084881Y-12190976D01*
X9084881Y-12190976D02*
X9075358Y-12181452D01*
D15*
X3914927Y-12623927D02*
X3914927Y-12539073D01*
X3830073Y-12539073D01*
X3830073Y-12623927D01*
X3914927Y-12623927D01*
D11*
X4284881Y-12674024D02*
X4170595Y-12674024D01*
X4227738Y-12674024D02*
X4227738Y-12474024D01*
X4227738Y-12474024D02*
X4208690Y-12502595D01*
X4208690Y-12502595D02*
X4189643Y-12521643D01*
X4189643Y-12521643D02*
X4170595Y-12531167D01*
X4370595Y-12654976D02*
X4380119Y-12664500D01*
X4380119Y-12664500D02*
X4370595Y-12674024D01*
X4370595Y-12674024D02*
X4361071Y-12664500D01*
X4361071Y-12664500D02*
X4370595Y-12654976D01*
X4370595Y-12654976D02*
X4370595Y-12674024D01*
X4456310Y-12493071D02*
X4465833Y-12483548D01*
X4465833Y-12483548D02*
X4484881Y-12474024D01*
X4484881Y-12474024D02*
X4532500Y-12474024D01*
X4532500Y-12474024D02*
X4551548Y-12483548D01*
X4551548Y-12483548D02*
X4561071Y-12493071D01*
X4561071Y-12493071D02*
X4570595Y-12512119D01*
X4570595Y-12512119D02*
X4570595Y-12531167D01*
X4570595Y-12531167D02*
X4561071Y-12559738D01*
X4561071Y-12559738D02*
X4446786Y-12674024D01*
X4446786Y-12674024D02*
X4570595Y-12674024D01*
X4694405Y-12474024D02*
X4713452Y-12474024D01*
X4713452Y-12474024D02*
X4732500Y-12483548D01*
X4732500Y-12483548D02*
X4742024Y-12493071D01*
X4742024Y-12493071D02*
X4751548Y-12512119D01*
X4751548Y-12512119D02*
X4761071Y-12550214D01*
X4761071Y-12550214D02*
X4761071Y-12597833D01*
X4761071Y-12597833D02*
X4751548Y-12635928D01*
X4751548Y-12635928D02*
X4742024Y-12654976D01*
X4742024Y-12654976D02*
X4732500Y-12664500D01*
X4732500Y-12664500D02*
X4713452Y-12674024D01*
X4713452Y-12674024D02*
X4694405Y-12674024D01*
X4694405Y-12674024D02*
X4675357Y-12664500D01*
X4675357Y-12664500D02*
X4665833Y-12654976D01*
X4665833Y-12654976D02*
X4656310Y-12635928D01*
X4656310Y-12635928D02*
X4646786Y-12597833D01*
X4646786Y-12597833D02*
X4646786Y-12550214D01*
X4646786Y-12550214D02*
X4656310Y-12512119D01*
X4656310Y-12512119D02*
X4665833Y-12493071D01*
X4665833Y-12493071D02*
X4675357Y-12483548D01*
X4675357Y-12483548D02*
X4694405Y-12474024D01*
X4884881Y-12474024D02*
X4903929Y-12474024D01*
X4903929Y-12474024D02*
X4922976Y-12483548D01*
X4922976Y-12483548D02*
X4932500Y-12493071D01*
X4932500Y-12493071D02*
X4942024Y-12512119D01*
X4942024Y-12512119D02*
X4951548Y-12550214D01*
X4951548Y-12550214D02*
X4951548Y-12597833D01*
X4951548Y-12597833D02*
X4942024Y-12635928D01*
X4942024Y-12635928D02*
X4932500Y-12654976D01*
X4932500Y-12654976D02*
X4922976Y-12664500D01*
X4922976Y-12664500D02*
X4903929Y-12674024D01*
X4903929Y-12674024D02*
X4884881Y-12674024D01*
X4884881Y-12674024D02*
X4865833Y-12664500D01*
X4865833Y-12664500D02*
X4856310Y-12654976D01*
X4856310Y-12654976D02*
X4846786Y-12635928D01*
X4846786Y-12635928D02*
X4837262Y-12597833D01*
X4837262Y-12597833D02*
X4837262Y-12550214D01*
X4837262Y-12550214D02*
X4846786Y-12512119D01*
X4846786Y-12512119D02*
X4856310Y-12493071D01*
X4856310Y-12493071D02*
X4865833Y-12483548D01*
X4865833Y-12483548D02*
X4884881Y-12474024D01*
X5037262Y-12674024D02*
X5037262Y-12540690D01*
X5037262Y-12559738D02*
X5046786Y-12550214D01*
X5046786Y-12550214D02*
X5065833Y-12540690D01*
X5065833Y-12540690D02*
X5094405Y-12540690D01*
X5094405Y-12540690D02*
X5113452Y-12550214D01*
X5113452Y-12550214D02*
X5122976Y-12569262D01*
X5122976Y-12569262D02*
X5122976Y-12674024D01*
X5122976Y-12569262D02*
X5132500Y-12550214D01*
X5132500Y-12550214D02*
X5151548Y-12540690D01*
X5151548Y-12540690D02*
X5180119Y-12540690D01*
X5180119Y-12540690D02*
X5199167Y-12550214D01*
X5199167Y-12550214D02*
X5208691Y-12569262D01*
X5208691Y-12569262D02*
X5208691Y-12674024D01*
X5303929Y-12674024D02*
X5303929Y-12540690D01*
X5303929Y-12559738D02*
X5313452Y-12550214D01*
X5313452Y-12550214D02*
X5332500Y-12540690D01*
X5332500Y-12540690D02*
X5361072Y-12540690D01*
X5361072Y-12540690D02*
X5380119Y-12550214D01*
X5380119Y-12550214D02*
X5389643Y-12569262D01*
X5389643Y-12569262D02*
X5389643Y-12674024D01*
X5389643Y-12569262D02*
X5399167Y-12550214D01*
X5399167Y-12550214D02*
X5418214Y-12540690D01*
X5418214Y-12540690D02*
X5446786Y-12540690D01*
X5446786Y-12540690D02*
X5465833Y-12550214D01*
X5465833Y-12550214D02*
X5475357Y-12569262D01*
X5475357Y-12569262D02*
X5475357Y-12674024D01*
X5865833Y-12464500D02*
X5694405Y-12721643D01*
X6122976Y-12474024D02*
X6142024Y-12474024D01*
X6142024Y-12474024D02*
X6161072Y-12483548D01*
X6161072Y-12483548D02*
X6170595Y-12493071D01*
X6170595Y-12493071D02*
X6180119Y-12512119D01*
X6180119Y-12512119D02*
X6189643Y-12550214D01*
X6189643Y-12550214D02*
X6189643Y-12597833D01*
X6189643Y-12597833D02*
X6180119Y-12635928D01*
X6180119Y-12635928D02*
X6170595Y-12654976D01*
X6170595Y-12654976D02*
X6161072Y-12664500D01*
X6161072Y-12664500D02*
X6142024Y-12674024D01*
X6142024Y-12674024D02*
X6122976Y-12674024D01*
X6122976Y-12674024D02*
X6103929Y-12664500D01*
X6103929Y-12664500D02*
X6094405Y-12654976D01*
X6094405Y-12654976D02*
X6084881Y-12635928D01*
X6084881Y-12635928D02*
X6075357Y-12597833D01*
X6075357Y-12597833D02*
X6075357Y-12550214D01*
X6075357Y-12550214D02*
X6084881Y-12512119D01*
X6084881Y-12512119D02*
X6094405Y-12493071D01*
X6094405Y-12493071D02*
X6103929Y-12483548D01*
X6103929Y-12483548D02*
X6122976Y-12474024D01*
X6275357Y-12654976D02*
X6284881Y-12664500D01*
X6284881Y-12664500D02*
X6275357Y-12674024D01*
X6275357Y-12674024D02*
X6265833Y-12664500D01*
X6265833Y-12664500D02*
X6275357Y-12654976D01*
X6275357Y-12654976D02*
X6275357Y-12674024D01*
X6408691Y-12474024D02*
X6427738Y-12474024D01*
X6427738Y-12474024D02*
X6446786Y-12483548D01*
X6446786Y-12483548D02*
X6456310Y-12493071D01*
X6456310Y-12493071D02*
X6465833Y-12512119D01*
X6465833Y-12512119D02*
X6475357Y-12550214D01*
X6475357Y-12550214D02*
X6475357Y-12597833D01*
X6475357Y-12597833D02*
X6465833Y-12635928D01*
X6465833Y-12635928D02*
X6456310Y-12654976D01*
X6456310Y-12654976D02*
X6446786Y-12664500D01*
X6446786Y-12664500D02*
X6427738Y-12674024D01*
X6427738Y-12674024D02*
X6408691Y-12674024D01*
X6408691Y-12674024D02*
X6389643Y-12664500D01*
X6389643Y-12664500D02*
X6380119Y-12654976D01*
X6380119Y-12654976D02*
X6370595Y-12635928D01*
X6370595Y-12635928D02*
X6361072Y-12597833D01*
X6361072Y-12597833D02*
X6361072Y-12550214D01*
X6361072Y-12550214D02*
X6370595Y-12512119D01*
X6370595Y-12512119D02*
X6380119Y-12493071D01*
X6380119Y-12493071D02*
X6389643Y-12483548D01*
X6389643Y-12483548D02*
X6408691Y-12474024D01*
X6646786Y-12540690D02*
X6646786Y-12674024D01*
X6599167Y-12464500D02*
X6551548Y-12607357D01*
X6551548Y-12607357D02*
X6675357Y-12607357D01*
X6732500Y-12474024D02*
X6865833Y-12474024D01*
X6865833Y-12474024D02*
X6780119Y-12674024D01*
X6932500Y-12493071D02*
X6942024Y-12483548D01*
X6942024Y-12483548D02*
X6961072Y-12474024D01*
X6961072Y-12474024D02*
X7008691Y-12474024D01*
X7008691Y-12474024D02*
X7027738Y-12483548D01*
X7027738Y-12483548D02*
X7037262Y-12493071D01*
X7037262Y-12493071D02*
X7046786Y-12512119D01*
X7046786Y-12512119D02*
X7046786Y-12531167D01*
X7046786Y-12531167D02*
X7037262Y-12559738D01*
X7037262Y-12559738D02*
X6922976Y-12674024D01*
X6922976Y-12674024D02*
X7046786Y-12674024D01*
X7122976Y-12474024D02*
X7122976Y-12512119D01*
X7199167Y-12474024D02*
X7199167Y-12512119D01*
X7494405Y-12750214D02*
X7484881Y-12740690D01*
X7484881Y-12740690D02*
X7465834Y-12712119D01*
X7465834Y-12712119D02*
X7456310Y-12693071D01*
X7456310Y-12693071D02*
X7446786Y-12664500D01*
X7446786Y-12664500D02*
X7437262Y-12616881D01*
X7437262Y-12616881D02*
X7437262Y-12578786D01*
X7437262Y-12578786D02*
X7446786Y-12531167D01*
X7446786Y-12531167D02*
X7456310Y-12502595D01*
X7456310Y-12502595D02*
X7465834Y-12483548D01*
X7465834Y-12483548D02*
X7484881Y-12454976D01*
X7484881Y-12454976D02*
X7494405Y-12445452D01*
X7599167Y-12559738D02*
X7580119Y-12550214D01*
X7580119Y-12550214D02*
X7570595Y-12540690D01*
X7570595Y-12540690D02*
X7561072Y-12521643D01*
X7561072Y-12521643D02*
X7561072Y-12512119D01*
X7561072Y-12512119D02*
X7570595Y-12493071D01*
X7570595Y-12493071D02*
X7580119Y-12483548D01*
X7580119Y-12483548D02*
X7599167Y-12474024D01*
X7599167Y-12474024D02*
X7637262Y-12474024D01*
X7637262Y-12474024D02*
X7656310Y-12483548D01*
X7656310Y-12483548D02*
X7665834Y-12493071D01*
X7665834Y-12493071D02*
X7675357Y-12512119D01*
X7675357Y-12512119D02*
X7675357Y-12521643D01*
X7675357Y-12521643D02*
X7665834Y-12540690D01*
X7665834Y-12540690D02*
X7656310Y-12550214D01*
X7656310Y-12550214D02*
X7637262Y-12559738D01*
X7637262Y-12559738D02*
X7599167Y-12559738D01*
X7599167Y-12559738D02*
X7580119Y-12569262D01*
X7580119Y-12569262D02*
X7570595Y-12578786D01*
X7570595Y-12578786D02*
X7561072Y-12597833D01*
X7561072Y-12597833D02*
X7561072Y-12635928D01*
X7561072Y-12635928D02*
X7570595Y-12654976D01*
X7570595Y-12654976D02*
X7580119Y-12664500D01*
X7580119Y-12664500D02*
X7599167Y-12674024D01*
X7599167Y-12674024D02*
X7637262Y-12674024D01*
X7637262Y-12674024D02*
X7656310Y-12664500D01*
X7656310Y-12664500D02*
X7665834Y-12654976D01*
X7665834Y-12654976D02*
X7675357Y-12635928D01*
X7675357Y-12635928D02*
X7675357Y-12597833D01*
X7675357Y-12597833D02*
X7665834Y-12578786D01*
X7665834Y-12578786D02*
X7656310Y-12569262D01*
X7656310Y-12569262D02*
X7637262Y-12559738D01*
X7913453Y-12674024D02*
X7913453Y-12474024D01*
X7999167Y-12674024D02*
X7999167Y-12569262D01*
X7999167Y-12569262D02*
X7989643Y-12550214D01*
X7989643Y-12550214D02*
X7970596Y-12540690D01*
X7970596Y-12540690D02*
X7942024Y-12540690D01*
X7942024Y-12540690D02*
X7922976Y-12550214D01*
X7922976Y-12550214D02*
X7913453Y-12559738D01*
X8122976Y-12674024D02*
X8103929Y-12664500D01*
X8103929Y-12664500D02*
X8094405Y-12654976D01*
X8094405Y-12654976D02*
X8084881Y-12635928D01*
X8084881Y-12635928D02*
X8084881Y-12578786D01*
X8084881Y-12578786D02*
X8094405Y-12559738D01*
X8094405Y-12559738D02*
X8103929Y-12550214D01*
X8103929Y-12550214D02*
X8122976Y-12540690D01*
X8122976Y-12540690D02*
X8151548Y-12540690D01*
X8151548Y-12540690D02*
X8170596Y-12550214D01*
X8170596Y-12550214D02*
X8180119Y-12559738D01*
X8180119Y-12559738D02*
X8189643Y-12578786D01*
X8189643Y-12578786D02*
X8189643Y-12635928D01*
X8189643Y-12635928D02*
X8180119Y-12654976D01*
X8180119Y-12654976D02*
X8170596Y-12664500D01*
X8170596Y-12664500D02*
X8151548Y-12674024D01*
X8151548Y-12674024D02*
X8122976Y-12674024D01*
X8303929Y-12674024D02*
X8284881Y-12664500D01*
X8284881Y-12664500D02*
X8275357Y-12645452D01*
X8275357Y-12645452D02*
X8275357Y-12474024D01*
X8456310Y-12664500D02*
X8437262Y-12674024D01*
X8437262Y-12674024D02*
X8399167Y-12674024D01*
X8399167Y-12674024D02*
X8380119Y-12664500D01*
X8380119Y-12664500D02*
X8370596Y-12645452D01*
X8370596Y-12645452D02*
X8370596Y-12569262D01*
X8370596Y-12569262D02*
X8380119Y-12550214D01*
X8380119Y-12550214D02*
X8399167Y-12540690D01*
X8399167Y-12540690D02*
X8437262Y-12540690D01*
X8437262Y-12540690D02*
X8456310Y-12550214D01*
X8456310Y-12550214D02*
X8465834Y-12569262D01*
X8465834Y-12569262D02*
X8465834Y-12588309D01*
X8465834Y-12588309D02*
X8370596Y-12607357D01*
X8542024Y-12664500D02*
X8561072Y-12674024D01*
X8561072Y-12674024D02*
X8599167Y-12674024D01*
X8599167Y-12674024D02*
X8618215Y-12664500D01*
X8618215Y-12664500D02*
X8627739Y-12645452D01*
X8627739Y-12645452D02*
X8627739Y-12635928D01*
X8627739Y-12635928D02*
X8618215Y-12616881D01*
X8618215Y-12616881D02*
X8599167Y-12607357D01*
X8599167Y-12607357D02*
X8570596Y-12607357D01*
X8570596Y-12607357D02*
X8551548Y-12597833D01*
X8551548Y-12597833D02*
X8542024Y-12578786D01*
X8542024Y-12578786D02*
X8542024Y-12569262D01*
X8542024Y-12569262D02*
X8551548Y-12550214D01*
X8551548Y-12550214D02*
X8570596Y-12540690D01*
X8570596Y-12540690D02*
X8599167Y-12540690D01*
X8599167Y-12540690D02*
X8618215Y-12550214D01*
X8694405Y-12750214D02*
X8703929Y-12740690D01*
X8703929Y-12740690D02*
X8722977Y-12712119D01*
X8722977Y-12712119D02*
X8732500Y-12693071D01*
X8732500Y-12693071D02*
X8742024Y-12664500D01*
X8742024Y-12664500D02*
X8751548Y-12616881D01*
X8751548Y-12616881D02*
X8751548Y-12578786D01*
X8751548Y-12578786D02*
X8742024Y-12531167D01*
X8742024Y-12531167D02*
X8732500Y-12502595D01*
X8732500Y-12502595D02*
X8722977Y-12483548D01*
X8722977Y-12483548D02*
X8703929Y-12454976D01*
X8703929Y-12454976D02*
X8694405Y-12445452D01*
D16*
X3862500Y-12915500D02*
X3932500Y-12845500D01*
X3862500Y-12775500D01*
X3792500Y-12845500D01*
X3862500Y-12915500D01*
D11*
X4284881Y-12938024D02*
X4170595Y-12938024D01*
X4227738Y-12938024D02*
X4227738Y-12738024D01*
X4227738Y-12738024D02*
X4208690Y-12766595D01*
X4208690Y-12766595D02*
X4189643Y-12785643D01*
X4189643Y-12785643D02*
X4170595Y-12795167D01*
X4370595Y-12918976D02*
X4380119Y-12928500D01*
X4380119Y-12928500D02*
X4370595Y-12938024D01*
X4370595Y-12938024D02*
X4361071Y-12928500D01*
X4361071Y-12928500D02*
X4370595Y-12918976D01*
X4370595Y-12918976D02*
X4370595Y-12938024D01*
X4551548Y-12804690D02*
X4551548Y-12938024D01*
X4503929Y-12728500D02*
X4456310Y-12871357D01*
X4456310Y-12871357D02*
X4580119Y-12871357D01*
X4694405Y-12738024D02*
X4713452Y-12738024D01*
X4713452Y-12738024D02*
X4732500Y-12747548D01*
X4732500Y-12747548D02*
X4742024Y-12757071D01*
X4742024Y-12757071D02*
X4751548Y-12776119D01*
X4751548Y-12776119D02*
X4761071Y-12814214D01*
X4761071Y-12814214D02*
X4761071Y-12861833D01*
X4761071Y-12861833D02*
X4751548Y-12899928D01*
X4751548Y-12899928D02*
X4742024Y-12918976D01*
X4742024Y-12918976D02*
X4732500Y-12928500D01*
X4732500Y-12928500D02*
X4713452Y-12938024D01*
X4713452Y-12938024D02*
X4694405Y-12938024D01*
X4694405Y-12938024D02*
X4675357Y-12928500D01*
X4675357Y-12928500D02*
X4665833Y-12918976D01*
X4665833Y-12918976D02*
X4656310Y-12899928D01*
X4656310Y-12899928D02*
X4646786Y-12861833D01*
X4646786Y-12861833D02*
X4646786Y-12814214D01*
X4646786Y-12814214D02*
X4656310Y-12776119D01*
X4656310Y-12776119D02*
X4665833Y-12757071D01*
X4665833Y-12757071D02*
X4675357Y-12747548D01*
X4675357Y-12747548D02*
X4694405Y-12738024D01*
X4884881Y-12738024D02*
X4903929Y-12738024D01*
X4903929Y-12738024D02*
X4922976Y-12747548D01*
X4922976Y-12747548D02*
X4932500Y-12757071D01*
X4932500Y-12757071D02*
X4942024Y-12776119D01*
X4942024Y-12776119D02*
X4951548Y-12814214D01*
X4951548Y-12814214D02*
X4951548Y-12861833D01*
X4951548Y-12861833D02*
X4942024Y-12899928D01*
X4942024Y-12899928D02*
X4932500Y-12918976D01*
X4932500Y-12918976D02*
X4922976Y-12928500D01*
X4922976Y-12928500D02*
X4903929Y-12938024D01*
X4903929Y-12938024D02*
X4884881Y-12938024D01*
X4884881Y-12938024D02*
X4865833Y-12928500D01*
X4865833Y-12928500D02*
X4856310Y-12918976D01*
X4856310Y-12918976D02*
X4846786Y-12899928D01*
X4846786Y-12899928D02*
X4837262Y-12861833D01*
X4837262Y-12861833D02*
X4837262Y-12814214D01*
X4837262Y-12814214D02*
X4846786Y-12776119D01*
X4846786Y-12776119D02*
X4856310Y-12757071D01*
X4856310Y-12757071D02*
X4865833Y-12747548D01*
X4865833Y-12747548D02*
X4884881Y-12738024D01*
X5037262Y-12938024D02*
X5037262Y-12804690D01*
X5037262Y-12823738D02*
X5046786Y-12814214D01*
X5046786Y-12814214D02*
X5065833Y-12804690D01*
X5065833Y-12804690D02*
X5094405Y-12804690D01*
X5094405Y-12804690D02*
X5113452Y-12814214D01*
X5113452Y-12814214D02*
X5122976Y-12833262D01*
X5122976Y-12833262D02*
X5122976Y-12938024D01*
X5122976Y-12833262D02*
X5132500Y-12814214D01*
X5132500Y-12814214D02*
X5151548Y-12804690D01*
X5151548Y-12804690D02*
X5180119Y-12804690D01*
X5180119Y-12804690D02*
X5199167Y-12814214D01*
X5199167Y-12814214D02*
X5208691Y-12833262D01*
X5208691Y-12833262D02*
X5208691Y-12938024D01*
X5303929Y-12938024D02*
X5303929Y-12804690D01*
X5303929Y-12823738D02*
X5313452Y-12814214D01*
X5313452Y-12814214D02*
X5332500Y-12804690D01*
X5332500Y-12804690D02*
X5361072Y-12804690D01*
X5361072Y-12804690D02*
X5380119Y-12814214D01*
X5380119Y-12814214D02*
X5389643Y-12833262D01*
X5389643Y-12833262D02*
X5389643Y-12938024D01*
X5389643Y-12833262D02*
X5399167Y-12814214D01*
X5399167Y-12814214D02*
X5418214Y-12804690D01*
X5418214Y-12804690D02*
X5446786Y-12804690D01*
X5446786Y-12804690D02*
X5465833Y-12814214D01*
X5465833Y-12814214D02*
X5475357Y-12833262D01*
X5475357Y-12833262D02*
X5475357Y-12938024D01*
X5865833Y-12728500D02*
X5694405Y-12985643D01*
X6122976Y-12738024D02*
X6142024Y-12738024D01*
X6142024Y-12738024D02*
X6161072Y-12747548D01*
X6161072Y-12747548D02*
X6170595Y-12757071D01*
X6170595Y-12757071D02*
X6180119Y-12776119D01*
X6180119Y-12776119D02*
X6189643Y-12814214D01*
X6189643Y-12814214D02*
X6189643Y-12861833D01*
X6189643Y-12861833D02*
X6180119Y-12899928D01*
X6180119Y-12899928D02*
X6170595Y-12918976D01*
X6170595Y-12918976D02*
X6161072Y-12928500D01*
X6161072Y-12928500D02*
X6142024Y-12938024D01*
X6142024Y-12938024D02*
X6122976Y-12938024D01*
X6122976Y-12938024D02*
X6103929Y-12928500D01*
X6103929Y-12928500D02*
X6094405Y-12918976D01*
X6094405Y-12918976D02*
X6084881Y-12899928D01*
X6084881Y-12899928D02*
X6075357Y-12861833D01*
X6075357Y-12861833D02*
X6075357Y-12814214D01*
X6075357Y-12814214D02*
X6084881Y-12776119D01*
X6084881Y-12776119D02*
X6094405Y-12757071D01*
X6094405Y-12757071D02*
X6103929Y-12747548D01*
X6103929Y-12747548D02*
X6122976Y-12738024D01*
X6275357Y-12918976D02*
X6284881Y-12928500D01*
X6284881Y-12928500D02*
X6275357Y-12938024D01*
X6275357Y-12938024D02*
X6265833Y-12928500D01*
X6265833Y-12928500D02*
X6275357Y-12918976D01*
X6275357Y-12918976D02*
X6275357Y-12938024D01*
X6408691Y-12738024D02*
X6427738Y-12738024D01*
X6427738Y-12738024D02*
X6446786Y-12747548D01*
X6446786Y-12747548D02*
X6456310Y-12757071D01*
X6456310Y-12757071D02*
X6465833Y-12776119D01*
X6465833Y-12776119D02*
X6475357Y-12814214D01*
X6475357Y-12814214D02*
X6475357Y-12861833D01*
X6475357Y-12861833D02*
X6465833Y-12899928D01*
X6465833Y-12899928D02*
X6456310Y-12918976D01*
X6456310Y-12918976D02*
X6446786Y-12928500D01*
X6446786Y-12928500D02*
X6427738Y-12938024D01*
X6427738Y-12938024D02*
X6408691Y-12938024D01*
X6408691Y-12938024D02*
X6389643Y-12928500D01*
X6389643Y-12928500D02*
X6380119Y-12918976D01*
X6380119Y-12918976D02*
X6370595Y-12899928D01*
X6370595Y-12899928D02*
X6361072Y-12861833D01*
X6361072Y-12861833D02*
X6361072Y-12814214D01*
X6361072Y-12814214D02*
X6370595Y-12776119D01*
X6370595Y-12776119D02*
X6380119Y-12757071D01*
X6380119Y-12757071D02*
X6389643Y-12747548D01*
X6389643Y-12747548D02*
X6408691Y-12738024D01*
X6656310Y-12738024D02*
X6561072Y-12738024D01*
X6561072Y-12738024D02*
X6551548Y-12833262D01*
X6551548Y-12833262D02*
X6561072Y-12823738D01*
X6561072Y-12823738D02*
X6580119Y-12814214D01*
X6580119Y-12814214D02*
X6627738Y-12814214D01*
X6627738Y-12814214D02*
X6646786Y-12823738D01*
X6646786Y-12823738D02*
X6656310Y-12833262D01*
X6656310Y-12833262D02*
X6665833Y-12852309D01*
X6665833Y-12852309D02*
X6665833Y-12899928D01*
X6665833Y-12899928D02*
X6656310Y-12918976D01*
X6656310Y-12918976D02*
X6646786Y-12928500D01*
X6646786Y-12928500D02*
X6627738Y-12938024D01*
X6627738Y-12938024D02*
X6580119Y-12938024D01*
X6580119Y-12938024D02*
X6561072Y-12928500D01*
X6561072Y-12928500D02*
X6551548Y-12918976D01*
X6846786Y-12738024D02*
X6751548Y-12738024D01*
X6751548Y-12738024D02*
X6742024Y-12833262D01*
X6742024Y-12833262D02*
X6751548Y-12823738D01*
X6751548Y-12823738D02*
X6770595Y-12814214D01*
X6770595Y-12814214D02*
X6818214Y-12814214D01*
X6818214Y-12814214D02*
X6837262Y-12823738D01*
X6837262Y-12823738D02*
X6846786Y-12833262D01*
X6846786Y-12833262D02*
X6856310Y-12852309D01*
X6856310Y-12852309D02*
X6856310Y-12899928D01*
X6856310Y-12899928D02*
X6846786Y-12918976D01*
X6846786Y-12918976D02*
X6837262Y-12928500D01*
X6837262Y-12928500D02*
X6818214Y-12938024D01*
X6818214Y-12938024D02*
X6770595Y-12938024D01*
X6770595Y-12938024D02*
X6751548Y-12928500D01*
X6751548Y-12928500D02*
X6742024Y-12918976D01*
X7046786Y-12938024D02*
X6932500Y-12938024D01*
X6989643Y-12938024D02*
X6989643Y-12738024D01*
X6989643Y-12738024D02*
X6970595Y-12766595D01*
X6970595Y-12766595D02*
X6951548Y-12785643D01*
X6951548Y-12785643D02*
X6932500Y-12795167D01*
X7122976Y-12738024D02*
X7122976Y-12776119D01*
X7199167Y-12738024D02*
X7199167Y-12776119D01*
X7494405Y-13014214D02*
X7484881Y-13004690D01*
X7484881Y-13004690D02*
X7465834Y-12976119D01*
X7465834Y-12976119D02*
X7456310Y-12957071D01*
X7456310Y-12957071D02*
X7446786Y-12928500D01*
X7446786Y-12928500D02*
X7437262Y-12880881D01*
X7437262Y-12880881D02*
X7437262Y-12842786D01*
X7437262Y-12842786D02*
X7446786Y-12795167D01*
X7446786Y-12795167D02*
X7456310Y-12766595D01*
X7456310Y-12766595D02*
X7465834Y-12747548D01*
X7465834Y-12747548D02*
X7484881Y-12718976D01*
X7484881Y-12718976D02*
X7494405Y-12709452D01*
X7561072Y-12757071D02*
X7570595Y-12747548D01*
X7570595Y-12747548D02*
X7589643Y-12738024D01*
X7589643Y-12738024D02*
X7637262Y-12738024D01*
X7637262Y-12738024D02*
X7656310Y-12747548D01*
X7656310Y-12747548D02*
X7665834Y-12757071D01*
X7665834Y-12757071D02*
X7675357Y-12776119D01*
X7675357Y-12776119D02*
X7675357Y-12795167D01*
X7675357Y-12795167D02*
X7665834Y-12823738D01*
X7665834Y-12823738D02*
X7551548Y-12938024D01*
X7551548Y-12938024D02*
X7675357Y-12938024D01*
X7913453Y-12938024D02*
X7913453Y-12738024D01*
X7999167Y-12938024D02*
X7999167Y-12833262D01*
X7999167Y-12833262D02*
X7989643Y-12814214D01*
X7989643Y-12814214D02*
X7970596Y-12804690D01*
X7970596Y-12804690D02*
X7942024Y-12804690D01*
X7942024Y-12804690D02*
X7922976Y-12814214D01*
X7922976Y-12814214D02*
X7913453Y-12823738D01*
X8122976Y-12938024D02*
X8103929Y-12928500D01*
X8103929Y-12928500D02*
X8094405Y-12918976D01*
X8094405Y-12918976D02*
X8084881Y-12899928D01*
X8084881Y-12899928D02*
X8084881Y-12842786D01*
X8084881Y-12842786D02*
X8094405Y-12823738D01*
X8094405Y-12823738D02*
X8103929Y-12814214D01*
X8103929Y-12814214D02*
X8122976Y-12804690D01*
X8122976Y-12804690D02*
X8151548Y-12804690D01*
X8151548Y-12804690D02*
X8170596Y-12814214D01*
X8170596Y-12814214D02*
X8180119Y-12823738D01*
X8180119Y-12823738D02*
X8189643Y-12842786D01*
X8189643Y-12842786D02*
X8189643Y-12899928D01*
X8189643Y-12899928D02*
X8180119Y-12918976D01*
X8180119Y-12918976D02*
X8170596Y-12928500D01*
X8170596Y-12928500D02*
X8151548Y-12938024D01*
X8151548Y-12938024D02*
X8122976Y-12938024D01*
X8303929Y-12938024D02*
X8284881Y-12928500D01*
X8284881Y-12928500D02*
X8275357Y-12909452D01*
X8275357Y-12909452D02*
X8275357Y-12738024D01*
X8456310Y-12928500D02*
X8437262Y-12938024D01*
X8437262Y-12938024D02*
X8399167Y-12938024D01*
X8399167Y-12938024D02*
X8380119Y-12928500D01*
X8380119Y-12928500D02*
X8370596Y-12909452D01*
X8370596Y-12909452D02*
X8370596Y-12833262D01*
X8370596Y-12833262D02*
X8380119Y-12814214D01*
X8380119Y-12814214D02*
X8399167Y-12804690D01*
X8399167Y-12804690D02*
X8437262Y-12804690D01*
X8437262Y-12804690D02*
X8456310Y-12814214D01*
X8456310Y-12814214D02*
X8465834Y-12833262D01*
X8465834Y-12833262D02*
X8465834Y-12852309D01*
X8465834Y-12852309D02*
X8370596Y-12871357D01*
X8542024Y-12928500D02*
X8561072Y-12938024D01*
X8561072Y-12938024D02*
X8599167Y-12938024D01*
X8599167Y-12938024D02*
X8618215Y-12928500D01*
X8618215Y-12928500D02*
X8627739Y-12909452D01*
X8627739Y-12909452D02*
X8627739Y-12899928D01*
X8627739Y-12899928D02*
X8618215Y-12880881D01*
X8618215Y-12880881D02*
X8599167Y-12871357D01*
X8599167Y-12871357D02*
X8570596Y-12871357D01*
X8570596Y-12871357D02*
X8551548Y-12861833D01*
X8551548Y-12861833D02*
X8542024Y-12842786D01*
X8542024Y-12842786D02*
X8542024Y-12833262D01*
X8542024Y-12833262D02*
X8551548Y-12814214D01*
X8551548Y-12814214D02*
X8570596Y-12804690D01*
X8570596Y-12804690D02*
X8599167Y-12804690D01*
X8599167Y-12804690D02*
X8618215Y-12814214D01*
X8694405Y-13014214D02*
X8703929Y-13004690D01*
X8703929Y-13004690D02*
X8722977Y-12976119D01*
X8722977Y-12976119D02*
X8732500Y-12957071D01*
X8732500Y-12957071D02*
X8742024Y-12928500D01*
X8742024Y-12928500D02*
X8751548Y-12880881D01*
X8751548Y-12880881D02*
X8751548Y-12842786D01*
X8751548Y-12842786D02*
X8742024Y-12795167D01*
X8742024Y-12795167D02*
X8732500Y-12766595D01*
X8732500Y-12766595D02*
X8722977Y-12747548D01*
X8722977Y-12747548D02*
X8703929Y-12718976D01*
X8703929Y-12718976D02*
X8694405Y-12709452D01*
D17*
X3782500Y-13034500D02*
X3932500Y-13184500D01*
X3932500Y-13034500D02*
X3782500Y-13184500D01*
X3932500Y-13109500D02*
G75*
G03*
X3932500Y-13109500I-75000J0D01*
G01*
D11*
X4284881Y-13202024D02*
X4170595Y-13202024D01*
X4227738Y-13202024D02*
X4227738Y-13002024D01*
X4227738Y-13002024D02*
X4208690Y-13030595D01*
X4208690Y-13030595D02*
X4189643Y-13049643D01*
X4189643Y-13049643D02*
X4170595Y-13059167D01*
X4370595Y-13182976D02*
X4380119Y-13192500D01*
X4380119Y-13192500D02*
X4370595Y-13202024D01*
X4370595Y-13202024D02*
X4361071Y-13192500D01*
X4361071Y-13192500D02*
X4370595Y-13182976D01*
X4370595Y-13182976D02*
X4370595Y-13202024D01*
X4561071Y-13002024D02*
X4465833Y-13002024D01*
X4465833Y-13002024D02*
X4456310Y-13097262D01*
X4456310Y-13097262D02*
X4465833Y-13087738D01*
X4465833Y-13087738D02*
X4484881Y-13078214D01*
X4484881Y-13078214D02*
X4532500Y-13078214D01*
X4532500Y-13078214D02*
X4551548Y-13087738D01*
X4551548Y-13087738D02*
X4561071Y-13097262D01*
X4561071Y-13097262D02*
X4570595Y-13116309D01*
X4570595Y-13116309D02*
X4570595Y-13163928D01*
X4570595Y-13163928D02*
X4561071Y-13182976D01*
X4561071Y-13182976D02*
X4551548Y-13192500D01*
X4551548Y-13192500D02*
X4532500Y-13202024D01*
X4532500Y-13202024D02*
X4484881Y-13202024D01*
X4484881Y-13202024D02*
X4465833Y-13192500D01*
X4465833Y-13192500D02*
X4456310Y-13182976D01*
X4694405Y-13002024D02*
X4713452Y-13002024D01*
X4713452Y-13002024D02*
X4732500Y-13011548D01*
X4732500Y-13011548D02*
X4742024Y-13021071D01*
X4742024Y-13021071D02*
X4751548Y-13040119D01*
X4751548Y-13040119D02*
X4761071Y-13078214D01*
X4761071Y-13078214D02*
X4761071Y-13125833D01*
X4761071Y-13125833D02*
X4751548Y-13163928D01*
X4751548Y-13163928D02*
X4742024Y-13182976D01*
X4742024Y-13182976D02*
X4732500Y-13192500D01*
X4732500Y-13192500D02*
X4713452Y-13202024D01*
X4713452Y-13202024D02*
X4694405Y-13202024D01*
X4694405Y-13202024D02*
X4675357Y-13192500D01*
X4675357Y-13192500D02*
X4665833Y-13182976D01*
X4665833Y-13182976D02*
X4656310Y-13163928D01*
X4656310Y-13163928D02*
X4646786Y-13125833D01*
X4646786Y-13125833D02*
X4646786Y-13078214D01*
X4646786Y-13078214D02*
X4656310Y-13040119D01*
X4656310Y-13040119D02*
X4665833Y-13021071D01*
X4665833Y-13021071D02*
X4675357Y-13011548D01*
X4675357Y-13011548D02*
X4694405Y-13002024D01*
X4884881Y-13002024D02*
X4903929Y-13002024D01*
X4903929Y-13002024D02*
X4922976Y-13011548D01*
X4922976Y-13011548D02*
X4932500Y-13021071D01*
X4932500Y-13021071D02*
X4942024Y-13040119D01*
X4942024Y-13040119D02*
X4951548Y-13078214D01*
X4951548Y-13078214D02*
X4951548Y-13125833D01*
X4951548Y-13125833D02*
X4942024Y-13163928D01*
X4942024Y-13163928D02*
X4932500Y-13182976D01*
X4932500Y-13182976D02*
X4922976Y-13192500D01*
X4922976Y-13192500D02*
X4903929Y-13202024D01*
X4903929Y-13202024D02*
X4884881Y-13202024D01*
X4884881Y-13202024D02*
X4865833Y-13192500D01*
X4865833Y-13192500D02*
X4856310Y-13182976D01*
X4856310Y-13182976D02*
X4846786Y-13163928D01*
X4846786Y-13163928D02*
X4837262Y-13125833D01*
X4837262Y-13125833D02*
X4837262Y-13078214D01*
X4837262Y-13078214D02*
X4846786Y-13040119D01*
X4846786Y-13040119D02*
X4856310Y-13021071D01*
X4856310Y-13021071D02*
X4865833Y-13011548D01*
X4865833Y-13011548D02*
X4884881Y-13002024D01*
X5037262Y-13202024D02*
X5037262Y-13068690D01*
X5037262Y-13087738D02*
X5046786Y-13078214D01*
X5046786Y-13078214D02*
X5065833Y-13068690D01*
X5065833Y-13068690D02*
X5094405Y-13068690D01*
X5094405Y-13068690D02*
X5113452Y-13078214D01*
X5113452Y-13078214D02*
X5122976Y-13097262D01*
X5122976Y-13097262D02*
X5122976Y-13202024D01*
X5122976Y-13097262D02*
X5132500Y-13078214D01*
X5132500Y-13078214D02*
X5151548Y-13068690D01*
X5151548Y-13068690D02*
X5180119Y-13068690D01*
X5180119Y-13068690D02*
X5199167Y-13078214D01*
X5199167Y-13078214D02*
X5208691Y-13097262D01*
X5208691Y-13097262D02*
X5208691Y-13202024D01*
X5303929Y-13202024D02*
X5303929Y-13068690D01*
X5303929Y-13087738D02*
X5313452Y-13078214D01*
X5313452Y-13078214D02*
X5332500Y-13068690D01*
X5332500Y-13068690D02*
X5361072Y-13068690D01*
X5361072Y-13068690D02*
X5380119Y-13078214D01*
X5380119Y-13078214D02*
X5389643Y-13097262D01*
X5389643Y-13097262D02*
X5389643Y-13202024D01*
X5389643Y-13097262D02*
X5399167Y-13078214D01*
X5399167Y-13078214D02*
X5418214Y-13068690D01*
X5418214Y-13068690D02*
X5446786Y-13068690D01*
X5446786Y-13068690D02*
X5465833Y-13078214D01*
X5465833Y-13078214D02*
X5475357Y-13097262D01*
X5475357Y-13097262D02*
X5475357Y-13202024D01*
X5865833Y-12992500D02*
X5694405Y-13249643D01*
X6122976Y-13002024D02*
X6142024Y-13002024D01*
X6142024Y-13002024D02*
X6161072Y-13011548D01*
X6161072Y-13011548D02*
X6170595Y-13021071D01*
X6170595Y-13021071D02*
X6180119Y-13040119D01*
X6180119Y-13040119D02*
X6189643Y-13078214D01*
X6189643Y-13078214D02*
X6189643Y-13125833D01*
X6189643Y-13125833D02*
X6180119Y-13163928D01*
X6180119Y-13163928D02*
X6170595Y-13182976D01*
X6170595Y-13182976D02*
X6161072Y-13192500D01*
X6161072Y-13192500D02*
X6142024Y-13202024D01*
X6142024Y-13202024D02*
X6122976Y-13202024D01*
X6122976Y-13202024D02*
X6103929Y-13192500D01*
X6103929Y-13192500D02*
X6094405Y-13182976D01*
X6094405Y-13182976D02*
X6084881Y-13163928D01*
X6084881Y-13163928D02*
X6075357Y-13125833D01*
X6075357Y-13125833D02*
X6075357Y-13078214D01*
X6075357Y-13078214D02*
X6084881Y-13040119D01*
X6084881Y-13040119D02*
X6094405Y-13021071D01*
X6094405Y-13021071D02*
X6103929Y-13011548D01*
X6103929Y-13011548D02*
X6122976Y-13002024D01*
X6275357Y-13182976D02*
X6284881Y-13192500D01*
X6284881Y-13192500D02*
X6275357Y-13202024D01*
X6275357Y-13202024D02*
X6265833Y-13192500D01*
X6265833Y-13192500D02*
X6275357Y-13182976D01*
X6275357Y-13182976D02*
X6275357Y-13202024D01*
X6408691Y-13002024D02*
X6427738Y-13002024D01*
X6427738Y-13002024D02*
X6446786Y-13011548D01*
X6446786Y-13011548D02*
X6456310Y-13021071D01*
X6456310Y-13021071D02*
X6465833Y-13040119D01*
X6465833Y-13040119D02*
X6475357Y-13078214D01*
X6475357Y-13078214D02*
X6475357Y-13125833D01*
X6475357Y-13125833D02*
X6465833Y-13163928D01*
X6465833Y-13163928D02*
X6456310Y-13182976D01*
X6456310Y-13182976D02*
X6446786Y-13192500D01*
X6446786Y-13192500D02*
X6427738Y-13202024D01*
X6427738Y-13202024D02*
X6408691Y-13202024D01*
X6408691Y-13202024D02*
X6389643Y-13192500D01*
X6389643Y-13192500D02*
X6380119Y-13182976D01*
X6380119Y-13182976D02*
X6370595Y-13163928D01*
X6370595Y-13163928D02*
X6361072Y-13125833D01*
X6361072Y-13125833D02*
X6361072Y-13078214D01*
X6361072Y-13078214D02*
X6370595Y-13040119D01*
X6370595Y-13040119D02*
X6380119Y-13021071D01*
X6380119Y-13021071D02*
X6389643Y-13011548D01*
X6389643Y-13011548D02*
X6408691Y-13002024D01*
X6656310Y-13002024D02*
X6561072Y-13002024D01*
X6561072Y-13002024D02*
X6551548Y-13097262D01*
X6551548Y-13097262D02*
X6561072Y-13087738D01*
X6561072Y-13087738D02*
X6580119Y-13078214D01*
X6580119Y-13078214D02*
X6627738Y-13078214D01*
X6627738Y-13078214D02*
X6646786Y-13087738D01*
X6646786Y-13087738D02*
X6656310Y-13097262D01*
X6656310Y-13097262D02*
X6665833Y-13116309D01*
X6665833Y-13116309D02*
X6665833Y-13163928D01*
X6665833Y-13163928D02*
X6656310Y-13182976D01*
X6656310Y-13182976D02*
X6646786Y-13192500D01*
X6646786Y-13192500D02*
X6627738Y-13202024D01*
X6627738Y-13202024D02*
X6580119Y-13202024D01*
X6580119Y-13202024D02*
X6561072Y-13192500D01*
X6561072Y-13192500D02*
X6551548Y-13182976D01*
X6761072Y-13202024D02*
X6799167Y-13202024D01*
X6799167Y-13202024D02*
X6818214Y-13192500D01*
X6818214Y-13192500D02*
X6827738Y-13182976D01*
X6827738Y-13182976D02*
X6846786Y-13154405D01*
X6846786Y-13154405D02*
X6856310Y-13116309D01*
X6856310Y-13116309D02*
X6856310Y-13040119D01*
X6856310Y-13040119D02*
X6846786Y-13021071D01*
X6846786Y-13021071D02*
X6837262Y-13011548D01*
X6837262Y-13011548D02*
X6818214Y-13002024D01*
X6818214Y-13002024D02*
X6780119Y-13002024D01*
X6780119Y-13002024D02*
X6761072Y-13011548D01*
X6761072Y-13011548D02*
X6751548Y-13021071D01*
X6751548Y-13021071D02*
X6742024Y-13040119D01*
X6742024Y-13040119D02*
X6742024Y-13087738D01*
X6742024Y-13087738D02*
X6751548Y-13106786D01*
X6751548Y-13106786D02*
X6761072Y-13116309D01*
X6761072Y-13116309D02*
X6780119Y-13125833D01*
X6780119Y-13125833D02*
X6818214Y-13125833D01*
X6818214Y-13125833D02*
X6837262Y-13116309D01*
X6837262Y-13116309D02*
X6846786Y-13106786D01*
X6846786Y-13106786D02*
X6856310Y-13087738D01*
X7046786Y-13202024D02*
X6932500Y-13202024D01*
X6989643Y-13202024D02*
X6989643Y-13002024D01*
X6989643Y-13002024D02*
X6970595Y-13030595D01*
X6970595Y-13030595D02*
X6951548Y-13049643D01*
X6951548Y-13049643D02*
X6932500Y-13059167D01*
X7122976Y-13002024D02*
X7122976Y-13040119D01*
X7199167Y-13002024D02*
X7199167Y-13040119D01*
X7494405Y-13278214D02*
X7484881Y-13268690D01*
X7484881Y-13268690D02*
X7465834Y-13240119D01*
X7465834Y-13240119D02*
X7456310Y-13221071D01*
X7456310Y-13221071D02*
X7446786Y-13192500D01*
X7446786Y-13192500D02*
X7437262Y-13144881D01*
X7437262Y-13144881D02*
X7437262Y-13106786D01*
X7437262Y-13106786D02*
X7446786Y-13059167D01*
X7446786Y-13059167D02*
X7456310Y-13030595D01*
X7456310Y-13030595D02*
X7465834Y-13011548D01*
X7465834Y-13011548D02*
X7484881Y-12982976D01*
X7484881Y-12982976D02*
X7494405Y-12973452D01*
X7580119Y-13202024D02*
X7618214Y-13202024D01*
X7618214Y-13202024D02*
X7637262Y-13192500D01*
X7637262Y-13192500D02*
X7646786Y-13182976D01*
X7646786Y-13182976D02*
X7665834Y-13154405D01*
X7665834Y-13154405D02*
X7675357Y-13116309D01*
X7675357Y-13116309D02*
X7675357Y-13040119D01*
X7675357Y-13040119D02*
X7665834Y-13021071D01*
X7665834Y-13021071D02*
X7656310Y-13011548D01*
X7656310Y-13011548D02*
X7637262Y-13002024D01*
X7637262Y-13002024D02*
X7599167Y-13002024D01*
X7599167Y-13002024D02*
X7580119Y-13011548D01*
X7580119Y-13011548D02*
X7570595Y-13021071D01*
X7570595Y-13021071D02*
X7561072Y-13040119D01*
X7561072Y-13040119D02*
X7561072Y-13087738D01*
X7561072Y-13087738D02*
X7570595Y-13106786D01*
X7570595Y-13106786D02*
X7580119Y-13116309D01*
X7580119Y-13116309D02*
X7599167Y-13125833D01*
X7599167Y-13125833D02*
X7637262Y-13125833D01*
X7637262Y-13125833D02*
X7656310Y-13116309D01*
X7656310Y-13116309D02*
X7665834Y-13106786D01*
X7665834Y-13106786D02*
X7675357Y-13087738D01*
X7913453Y-13202024D02*
X7913453Y-13002024D01*
X7999167Y-13202024D02*
X7999167Y-13097262D01*
X7999167Y-13097262D02*
X7989643Y-13078214D01*
X7989643Y-13078214D02*
X7970596Y-13068690D01*
X7970596Y-13068690D02*
X7942024Y-13068690D01*
X7942024Y-13068690D02*
X7922976Y-13078214D01*
X7922976Y-13078214D02*
X7913453Y-13087738D01*
X8122976Y-13202024D02*
X8103929Y-13192500D01*
X8103929Y-13192500D02*
X8094405Y-13182976D01*
X8094405Y-13182976D02*
X8084881Y-13163928D01*
X8084881Y-13163928D02*
X8084881Y-13106786D01*
X8084881Y-13106786D02*
X8094405Y-13087738D01*
X8094405Y-13087738D02*
X8103929Y-13078214D01*
X8103929Y-13078214D02*
X8122976Y-13068690D01*
X8122976Y-13068690D02*
X8151548Y-13068690D01*
X8151548Y-13068690D02*
X8170596Y-13078214D01*
X8170596Y-13078214D02*
X8180119Y-13087738D01*
X8180119Y-13087738D02*
X8189643Y-13106786D01*
X8189643Y-13106786D02*
X8189643Y-13163928D01*
X8189643Y-13163928D02*
X8180119Y-13182976D01*
X8180119Y-13182976D02*
X8170596Y-13192500D01*
X8170596Y-13192500D02*
X8151548Y-13202024D01*
X8151548Y-13202024D02*
X8122976Y-13202024D01*
X8303929Y-13202024D02*
X8284881Y-13192500D01*
X8284881Y-13192500D02*
X8275357Y-13173452D01*
X8275357Y-13173452D02*
X8275357Y-13002024D01*
X8456310Y-13192500D02*
X8437262Y-13202024D01*
X8437262Y-13202024D02*
X8399167Y-13202024D01*
X8399167Y-13202024D02*
X8380119Y-13192500D01*
X8380119Y-13192500D02*
X8370596Y-13173452D01*
X8370596Y-13173452D02*
X8370596Y-13097262D01*
X8370596Y-13097262D02*
X8380119Y-13078214D01*
X8380119Y-13078214D02*
X8399167Y-13068690D01*
X8399167Y-13068690D02*
X8437262Y-13068690D01*
X8437262Y-13068690D02*
X8456310Y-13078214D01*
X8456310Y-13078214D02*
X8465834Y-13097262D01*
X8465834Y-13097262D02*
X8465834Y-13116309D01*
X8465834Y-13116309D02*
X8370596Y-13135357D01*
X8542024Y-13192500D02*
X8561072Y-13202024D01*
X8561072Y-13202024D02*
X8599167Y-13202024D01*
X8599167Y-13202024D02*
X8618215Y-13192500D01*
X8618215Y-13192500D02*
X8627739Y-13173452D01*
X8627739Y-13173452D02*
X8627739Y-13163928D01*
X8627739Y-13163928D02*
X8618215Y-13144881D01*
X8618215Y-13144881D02*
X8599167Y-13135357D01*
X8599167Y-13135357D02*
X8570596Y-13135357D01*
X8570596Y-13135357D02*
X8551548Y-13125833D01*
X8551548Y-13125833D02*
X8542024Y-13106786D01*
X8542024Y-13106786D02*
X8542024Y-13097262D01*
X8542024Y-13097262D02*
X8551548Y-13078214D01*
X8551548Y-13078214D02*
X8570596Y-13068690D01*
X8570596Y-13068690D02*
X8599167Y-13068690D01*
X8599167Y-13068690D02*
X8618215Y-13078214D01*
X8694405Y-13278214D02*
X8703929Y-13268690D01*
X8703929Y-13268690D02*
X8722977Y-13240119D01*
X8722977Y-13240119D02*
X8732500Y-13221071D01*
X8732500Y-13221071D02*
X8742024Y-13192500D01*
X8742024Y-13192500D02*
X8751548Y-13144881D01*
X8751548Y-13144881D02*
X8751548Y-13106786D01*
X8751548Y-13106786D02*
X8742024Y-13059167D01*
X8742024Y-13059167D02*
X8732500Y-13030595D01*
X8732500Y-13030595D02*
X8722977Y-13011548D01*
X8722977Y-13011548D02*
X8703929Y-12982976D01*
X8703929Y-12982976D02*
X8694405Y-12973452D01*
X3732500Y-13279500D02*
X3932500Y-13479500D01*
X3932500Y-13279500D02*
X3732500Y-13479500D01*
X3832500Y-13279500D02*
X3832500Y-13479500D01*
X3732500Y-13379500D02*
X3932500Y-13379500D01*
X4161071Y-13272024D02*
X4284881Y-13272024D01*
X4284881Y-13272024D02*
X4218214Y-13348214D01*
X4218214Y-13348214D02*
X4246786Y-13348214D01*
X4246786Y-13348214D02*
X4265833Y-13357738D01*
X4265833Y-13357738D02*
X4275357Y-13367262D01*
X4275357Y-13367262D02*
X4284881Y-13386309D01*
X4284881Y-13386309D02*
X4284881Y-13433928D01*
X4284881Y-13433928D02*
X4275357Y-13452976D01*
X4275357Y-13452976D02*
X4265833Y-13462500D01*
X4265833Y-13462500D02*
X4246786Y-13472024D01*
X4246786Y-13472024D02*
X4189643Y-13472024D01*
X4189643Y-13472024D02*
X4170595Y-13462500D01*
X4170595Y-13462500D02*
X4161071Y-13452976D01*
X4370595Y-13452976D02*
X4380119Y-13462500D01*
X4380119Y-13462500D02*
X4370595Y-13472024D01*
X4370595Y-13472024D02*
X4361071Y-13462500D01*
X4361071Y-13462500D02*
X4370595Y-13452976D01*
X4370595Y-13452976D02*
X4370595Y-13472024D01*
X4456310Y-13291071D02*
X4465833Y-13281548D01*
X4465833Y-13281548D02*
X4484881Y-13272024D01*
X4484881Y-13272024D02*
X4532500Y-13272024D01*
X4532500Y-13272024D02*
X4551548Y-13281548D01*
X4551548Y-13281548D02*
X4561071Y-13291071D01*
X4561071Y-13291071D02*
X4570595Y-13310119D01*
X4570595Y-13310119D02*
X4570595Y-13329167D01*
X4570595Y-13329167D02*
X4561071Y-13357738D01*
X4561071Y-13357738D02*
X4446786Y-13472024D01*
X4446786Y-13472024D02*
X4570595Y-13472024D01*
X4694405Y-13272024D02*
X4713452Y-13272024D01*
X4713452Y-13272024D02*
X4732500Y-13281548D01*
X4732500Y-13281548D02*
X4742024Y-13291071D01*
X4742024Y-13291071D02*
X4751548Y-13310119D01*
X4751548Y-13310119D02*
X4761071Y-13348214D01*
X4761071Y-13348214D02*
X4761071Y-13395833D01*
X4761071Y-13395833D02*
X4751548Y-13433928D01*
X4751548Y-13433928D02*
X4742024Y-13452976D01*
X4742024Y-13452976D02*
X4732500Y-13462500D01*
X4732500Y-13462500D02*
X4713452Y-13472024D01*
X4713452Y-13472024D02*
X4694405Y-13472024D01*
X4694405Y-13472024D02*
X4675357Y-13462500D01*
X4675357Y-13462500D02*
X4665833Y-13452976D01*
X4665833Y-13452976D02*
X4656310Y-13433928D01*
X4656310Y-13433928D02*
X4646786Y-13395833D01*
X4646786Y-13395833D02*
X4646786Y-13348214D01*
X4646786Y-13348214D02*
X4656310Y-13310119D01*
X4656310Y-13310119D02*
X4665833Y-13291071D01*
X4665833Y-13291071D02*
X4675357Y-13281548D01*
X4675357Y-13281548D02*
X4694405Y-13272024D01*
X4884881Y-13272024D02*
X4903929Y-13272024D01*
X4903929Y-13272024D02*
X4922976Y-13281548D01*
X4922976Y-13281548D02*
X4932500Y-13291071D01*
X4932500Y-13291071D02*
X4942024Y-13310119D01*
X4942024Y-13310119D02*
X4951548Y-13348214D01*
X4951548Y-13348214D02*
X4951548Y-13395833D01*
X4951548Y-13395833D02*
X4942024Y-13433928D01*
X4942024Y-13433928D02*
X4932500Y-13452976D01*
X4932500Y-13452976D02*
X4922976Y-13462500D01*
X4922976Y-13462500D02*
X4903929Y-13472024D01*
X4903929Y-13472024D02*
X4884881Y-13472024D01*
X4884881Y-13472024D02*
X4865833Y-13462500D01*
X4865833Y-13462500D02*
X4856310Y-13452976D01*
X4856310Y-13452976D02*
X4846786Y-13433928D01*
X4846786Y-13433928D02*
X4837262Y-13395833D01*
X4837262Y-13395833D02*
X4837262Y-13348214D01*
X4837262Y-13348214D02*
X4846786Y-13310119D01*
X4846786Y-13310119D02*
X4856310Y-13291071D01*
X4856310Y-13291071D02*
X4865833Y-13281548D01*
X4865833Y-13281548D02*
X4884881Y-13272024D01*
X5037262Y-13472024D02*
X5037262Y-13338690D01*
X5037262Y-13357738D02*
X5046786Y-13348214D01*
X5046786Y-13348214D02*
X5065833Y-13338690D01*
X5065833Y-13338690D02*
X5094405Y-13338690D01*
X5094405Y-13338690D02*
X5113452Y-13348214D01*
X5113452Y-13348214D02*
X5122976Y-13367262D01*
X5122976Y-13367262D02*
X5122976Y-13472024D01*
X5122976Y-13367262D02*
X5132500Y-13348214D01*
X5132500Y-13348214D02*
X5151548Y-13338690D01*
X5151548Y-13338690D02*
X5180119Y-13338690D01*
X5180119Y-13338690D02*
X5199167Y-13348214D01*
X5199167Y-13348214D02*
X5208691Y-13367262D01*
X5208691Y-13367262D02*
X5208691Y-13472024D01*
X5303929Y-13472024D02*
X5303929Y-13338690D01*
X5303929Y-13357738D02*
X5313452Y-13348214D01*
X5313452Y-13348214D02*
X5332500Y-13338690D01*
X5332500Y-13338690D02*
X5361072Y-13338690D01*
X5361072Y-13338690D02*
X5380119Y-13348214D01*
X5380119Y-13348214D02*
X5389643Y-13367262D01*
X5389643Y-13367262D02*
X5389643Y-13472024D01*
X5389643Y-13367262D02*
X5399167Y-13348214D01*
X5399167Y-13348214D02*
X5418214Y-13338690D01*
X5418214Y-13338690D02*
X5446786Y-13338690D01*
X5446786Y-13338690D02*
X5465833Y-13348214D01*
X5465833Y-13348214D02*
X5475357Y-13367262D01*
X5475357Y-13367262D02*
X5475357Y-13472024D01*
X5865833Y-13262500D02*
X5694405Y-13519643D01*
X6122976Y-13272024D02*
X6142024Y-13272024D01*
X6142024Y-13272024D02*
X6161072Y-13281548D01*
X6161072Y-13281548D02*
X6170595Y-13291071D01*
X6170595Y-13291071D02*
X6180119Y-13310119D01*
X6180119Y-13310119D02*
X6189643Y-13348214D01*
X6189643Y-13348214D02*
X6189643Y-13395833D01*
X6189643Y-13395833D02*
X6180119Y-13433928D01*
X6180119Y-13433928D02*
X6170595Y-13452976D01*
X6170595Y-13452976D02*
X6161072Y-13462500D01*
X6161072Y-13462500D02*
X6142024Y-13472024D01*
X6142024Y-13472024D02*
X6122976Y-13472024D01*
X6122976Y-13472024D02*
X6103929Y-13462500D01*
X6103929Y-13462500D02*
X6094405Y-13452976D01*
X6094405Y-13452976D02*
X6084881Y-13433928D01*
X6084881Y-13433928D02*
X6075357Y-13395833D01*
X6075357Y-13395833D02*
X6075357Y-13348214D01*
X6075357Y-13348214D02*
X6084881Y-13310119D01*
X6084881Y-13310119D02*
X6094405Y-13291071D01*
X6094405Y-13291071D02*
X6103929Y-13281548D01*
X6103929Y-13281548D02*
X6122976Y-13272024D01*
X6275357Y-13452976D02*
X6284881Y-13462500D01*
X6284881Y-13462500D02*
X6275357Y-13472024D01*
X6275357Y-13472024D02*
X6265833Y-13462500D01*
X6265833Y-13462500D02*
X6275357Y-13452976D01*
X6275357Y-13452976D02*
X6275357Y-13472024D01*
X6475357Y-13472024D02*
X6361072Y-13472024D01*
X6418214Y-13472024D02*
X6418214Y-13272024D01*
X6418214Y-13272024D02*
X6399167Y-13300595D01*
X6399167Y-13300595D02*
X6380119Y-13319643D01*
X6380119Y-13319643D02*
X6361072Y-13329167D01*
X6551548Y-13291071D02*
X6561072Y-13281548D01*
X6561072Y-13281548D02*
X6580119Y-13272024D01*
X6580119Y-13272024D02*
X6627738Y-13272024D01*
X6627738Y-13272024D02*
X6646786Y-13281548D01*
X6646786Y-13281548D02*
X6656310Y-13291071D01*
X6656310Y-13291071D02*
X6665833Y-13310119D01*
X6665833Y-13310119D02*
X6665833Y-13329167D01*
X6665833Y-13329167D02*
X6656310Y-13357738D01*
X6656310Y-13357738D02*
X6542024Y-13472024D01*
X6542024Y-13472024D02*
X6665833Y-13472024D01*
X6837262Y-13272024D02*
X6799167Y-13272024D01*
X6799167Y-13272024D02*
X6780119Y-13281548D01*
X6780119Y-13281548D02*
X6770595Y-13291071D01*
X6770595Y-13291071D02*
X6751548Y-13319643D01*
X6751548Y-13319643D02*
X6742024Y-13357738D01*
X6742024Y-13357738D02*
X6742024Y-13433928D01*
X6742024Y-13433928D02*
X6751548Y-13452976D01*
X6751548Y-13452976D02*
X6761072Y-13462500D01*
X6761072Y-13462500D02*
X6780119Y-13472024D01*
X6780119Y-13472024D02*
X6818214Y-13472024D01*
X6818214Y-13472024D02*
X6837262Y-13462500D01*
X6837262Y-13462500D02*
X6846786Y-13452976D01*
X6846786Y-13452976D02*
X6856310Y-13433928D01*
X6856310Y-13433928D02*
X6856310Y-13386309D01*
X6856310Y-13386309D02*
X6846786Y-13367262D01*
X6846786Y-13367262D02*
X6837262Y-13357738D01*
X6837262Y-13357738D02*
X6818214Y-13348214D01*
X6818214Y-13348214D02*
X6780119Y-13348214D01*
X6780119Y-13348214D02*
X6761072Y-13357738D01*
X6761072Y-13357738D02*
X6751548Y-13367262D01*
X6751548Y-13367262D02*
X6742024Y-13386309D01*
X6980119Y-13272024D02*
X6999167Y-13272024D01*
X6999167Y-13272024D02*
X7018214Y-13281548D01*
X7018214Y-13281548D02*
X7027738Y-13291071D01*
X7027738Y-13291071D02*
X7037262Y-13310119D01*
X7037262Y-13310119D02*
X7046786Y-13348214D01*
X7046786Y-13348214D02*
X7046786Y-13395833D01*
X7046786Y-13395833D02*
X7037262Y-13433928D01*
X7037262Y-13433928D02*
X7027738Y-13452976D01*
X7027738Y-13452976D02*
X7018214Y-13462500D01*
X7018214Y-13462500D02*
X6999167Y-13472024D01*
X6999167Y-13472024D02*
X6980119Y-13472024D01*
X6980119Y-13472024D02*
X6961072Y-13462500D01*
X6961072Y-13462500D02*
X6951548Y-13452976D01*
X6951548Y-13452976D02*
X6942024Y-13433928D01*
X6942024Y-13433928D02*
X6932500Y-13395833D01*
X6932500Y-13395833D02*
X6932500Y-13348214D01*
X6932500Y-13348214D02*
X6942024Y-13310119D01*
X6942024Y-13310119D02*
X6951548Y-13291071D01*
X6951548Y-13291071D02*
X6961072Y-13281548D01*
X6961072Y-13281548D02*
X6980119Y-13272024D01*
X7122976Y-13272024D02*
X7122976Y-13310119D01*
X7199167Y-13272024D02*
X7199167Y-13310119D01*
X7494405Y-13548214D02*
X7484881Y-13538690D01*
X7484881Y-13538690D02*
X7465834Y-13510119D01*
X7465834Y-13510119D02*
X7456310Y-13491071D01*
X7456310Y-13491071D02*
X7446786Y-13462500D01*
X7446786Y-13462500D02*
X7437262Y-13414881D01*
X7437262Y-13414881D02*
X7437262Y-13376786D01*
X7437262Y-13376786D02*
X7446786Y-13329167D01*
X7446786Y-13329167D02*
X7456310Y-13300595D01*
X7456310Y-13300595D02*
X7465834Y-13281548D01*
X7465834Y-13281548D02*
X7484881Y-13252976D01*
X7484881Y-13252976D02*
X7494405Y-13243452D01*
X7656310Y-13338690D02*
X7656310Y-13472024D01*
X7608691Y-13262500D02*
X7561072Y-13405357D01*
X7561072Y-13405357D02*
X7684881Y-13405357D01*
X7913453Y-13472024D02*
X7913453Y-13272024D01*
X7999167Y-13472024D02*
X7999167Y-13367262D01*
X7999167Y-13367262D02*
X7989643Y-13348214D01*
X7989643Y-13348214D02*
X7970596Y-13338690D01*
X7970596Y-13338690D02*
X7942024Y-13338690D01*
X7942024Y-13338690D02*
X7922976Y-13348214D01*
X7922976Y-13348214D02*
X7913453Y-13357738D01*
X8122976Y-13472024D02*
X8103929Y-13462500D01*
X8103929Y-13462500D02*
X8094405Y-13452976D01*
X8094405Y-13452976D02*
X8084881Y-13433928D01*
X8084881Y-13433928D02*
X8084881Y-13376786D01*
X8084881Y-13376786D02*
X8094405Y-13357738D01*
X8094405Y-13357738D02*
X8103929Y-13348214D01*
X8103929Y-13348214D02*
X8122976Y-13338690D01*
X8122976Y-13338690D02*
X8151548Y-13338690D01*
X8151548Y-13338690D02*
X8170596Y-13348214D01*
X8170596Y-13348214D02*
X8180119Y-13357738D01*
X8180119Y-13357738D02*
X8189643Y-13376786D01*
X8189643Y-13376786D02*
X8189643Y-13433928D01*
X8189643Y-13433928D02*
X8180119Y-13452976D01*
X8180119Y-13452976D02*
X8170596Y-13462500D01*
X8170596Y-13462500D02*
X8151548Y-13472024D01*
X8151548Y-13472024D02*
X8122976Y-13472024D01*
X8303929Y-13472024D02*
X8284881Y-13462500D01*
X8284881Y-13462500D02*
X8275357Y-13443452D01*
X8275357Y-13443452D02*
X8275357Y-13272024D01*
X8456310Y-13462500D02*
X8437262Y-13472024D01*
X8437262Y-13472024D02*
X8399167Y-13472024D01*
X8399167Y-13472024D02*
X8380119Y-13462500D01*
X8380119Y-13462500D02*
X8370596Y-13443452D01*
X8370596Y-13443452D02*
X8370596Y-13367262D01*
X8370596Y-13367262D02*
X8380119Y-13348214D01*
X8380119Y-13348214D02*
X8399167Y-13338690D01*
X8399167Y-13338690D02*
X8437262Y-13338690D01*
X8437262Y-13338690D02*
X8456310Y-13348214D01*
X8456310Y-13348214D02*
X8465834Y-13367262D01*
X8465834Y-13367262D02*
X8465834Y-13386309D01*
X8465834Y-13386309D02*
X8370596Y-13405357D01*
X8542024Y-13462500D02*
X8561072Y-13472024D01*
X8561072Y-13472024D02*
X8599167Y-13472024D01*
X8599167Y-13472024D02*
X8618215Y-13462500D01*
X8618215Y-13462500D02*
X8627739Y-13443452D01*
X8627739Y-13443452D02*
X8627739Y-13433928D01*
X8627739Y-13433928D02*
X8618215Y-13414881D01*
X8618215Y-13414881D02*
X8599167Y-13405357D01*
X8599167Y-13405357D02*
X8570596Y-13405357D01*
X8570596Y-13405357D02*
X8551548Y-13395833D01*
X8551548Y-13395833D02*
X8542024Y-13376786D01*
X8542024Y-13376786D02*
X8542024Y-13367262D01*
X8542024Y-13367262D02*
X8551548Y-13348214D01*
X8551548Y-13348214D02*
X8570596Y-13338690D01*
X8570596Y-13338690D02*
X8599167Y-13338690D01*
X8599167Y-13338690D02*
X8618215Y-13348214D01*
X8694405Y-13548214D02*
X8703929Y-13538690D01*
X8703929Y-13538690D02*
X8722977Y-13510119D01*
X8722977Y-13510119D02*
X8732500Y-13491071D01*
X8732500Y-13491071D02*
X8742024Y-13462500D01*
X8742024Y-13462500D02*
X8751548Y-13414881D01*
X8751548Y-13414881D02*
X8751548Y-13376786D01*
X8751548Y-13376786D02*
X8742024Y-13329167D01*
X8742024Y-13329167D02*
X8732500Y-13300595D01*
X8732500Y-13300595D02*
X8722977Y-13281548D01*
X8722977Y-13281548D02*
X8703929Y-13252976D01*
X8703929Y-13252976D02*
X8694405Y-13243452D01*
M02*
