%TF.GenerationSoftware,KiCad,Pcbnew,7.0.1*%
%TF.CreationDate,2023-10-27T14:21:21-05:00*%
%TF.ProjectId,ramn,72616d6e-2e6b-4696-9361-645f70636258,V1.1*%
%TF.SameCoordinates,Original*%
%TF.FileFunction,Legend,Bot*%
%TF.FilePolarity,Positive*%
%FSLAX46Y46*%
G04 Gerber Fmt 4.6, Leading zero omitted, Abs format (unit mm)*
G04 Created by KiCad (PCBNEW 7.0.1) date 2023-10-27 14:21:21*
%MOMM*%
%LPD*%
G01*
G04 APERTURE LIST*
%ADD10C,0.100000*%
%ADD11C,0.120000*%
G04 APERTURE END LIST*
D10*
X62321428Y-94851190D02*
X62345237Y-94875000D01*
X62345237Y-94875000D02*
X62416666Y-94898809D01*
X62416666Y-94898809D02*
X62464285Y-94898809D01*
X62464285Y-94898809D02*
X62535713Y-94875000D01*
X62535713Y-94875000D02*
X62583332Y-94827380D01*
X62583332Y-94827380D02*
X62607142Y-94779761D01*
X62607142Y-94779761D02*
X62630951Y-94684523D01*
X62630951Y-94684523D02*
X62630951Y-94613095D01*
X62630951Y-94613095D02*
X62607142Y-94517857D01*
X62607142Y-94517857D02*
X62583332Y-94470238D01*
X62583332Y-94470238D02*
X62535713Y-94422619D01*
X62535713Y-94422619D02*
X62464285Y-94398809D01*
X62464285Y-94398809D02*
X62416666Y-94398809D01*
X62416666Y-94398809D02*
X62345237Y-94422619D01*
X62345237Y-94422619D02*
X62321428Y-94446428D01*
X62154761Y-94398809D02*
X61845237Y-94398809D01*
X61845237Y-94398809D02*
X62011904Y-94589285D01*
X62011904Y-94589285D02*
X61940475Y-94589285D01*
X61940475Y-94589285D02*
X61892856Y-94613095D01*
X61892856Y-94613095D02*
X61869047Y-94636904D01*
X61869047Y-94636904D02*
X61845237Y-94684523D01*
X61845237Y-94684523D02*
X61845237Y-94803571D01*
X61845237Y-94803571D02*
X61869047Y-94851190D01*
X61869047Y-94851190D02*
X61892856Y-94875000D01*
X61892856Y-94875000D02*
X61940475Y-94898809D01*
X61940475Y-94898809D02*
X62083332Y-94898809D01*
X62083332Y-94898809D02*
X62130951Y-94875000D01*
X62130951Y-94875000D02*
X62154761Y-94851190D01*
X61678571Y-94398809D02*
X61369047Y-94398809D01*
X61369047Y-94398809D02*
X61535714Y-94589285D01*
X61535714Y-94589285D02*
X61464285Y-94589285D01*
X61464285Y-94589285D02*
X61416666Y-94613095D01*
X61416666Y-94613095D02*
X61392857Y-94636904D01*
X61392857Y-94636904D02*
X61369047Y-94684523D01*
X61369047Y-94684523D02*
X61369047Y-94803571D01*
X61369047Y-94803571D02*
X61392857Y-94851190D01*
X61392857Y-94851190D02*
X61416666Y-94875000D01*
X61416666Y-94875000D02*
X61464285Y-94898809D01*
X61464285Y-94898809D02*
X61607142Y-94898809D01*
X61607142Y-94898809D02*
X61654761Y-94875000D01*
X61654761Y-94875000D02*
X61678571Y-94851190D01*
X105656428Y-81876190D02*
X105680237Y-81900000D01*
X105680237Y-81900000D02*
X105751666Y-81923809D01*
X105751666Y-81923809D02*
X105799285Y-81923809D01*
X105799285Y-81923809D02*
X105870713Y-81900000D01*
X105870713Y-81900000D02*
X105918332Y-81852380D01*
X105918332Y-81852380D02*
X105942142Y-81804761D01*
X105942142Y-81804761D02*
X105965951Y-81709523D01*
X105965951Y-81709523D02*
X105965951Y-81638095D01*
X105965951Y-81638095D02*
X105942142Y-81542857D01*
X105942142Y-81542857D02*
X105918332Y-81495238D01*
X105918332Y-81495238D02*
X105870713Y-81447619D01*
X105870713Y-81447619D02*
X105799285Y-81423809D01*
X105799285Y-81423809D02*
X105751666Y-81423809D01*
X105751666Y-81423809D02*
X105680237Y-81447619D01*
X105680237Y-81447619D02*
X105656428Y-81471428D01*
X105227856Y-81590476D02*
X105227856Y-81923809D01*
X105346904Y-81400000D02*
X105465951Y-81757142D01*
X105465951Y-81757142D02*
X105156428Y-81757142D01*
X104751666Y-81590476D02*
X104751666Y-81923809D01*
X104870714Y-81400000D02*
X104989761Y-81757142D01*
X104989761Y-81757142D02*
X104680238Y-81757142D01*
X100421428Y-92983690D02*
X100445237Y-93007500D01*
X100445237Y-93007500D02*
X100516666Y-93031309D01*
X100516666Y-93031309D02*
X100564285Y-93031309D01*
X100564285Y-93031309D02*
X100635713Y-93007500D01*
X100635713Y-93007500D02*
X100683332Y-92959880D01*
X100683332Y-92959880D02*
X100707142Y-92912261D01*
X100707142Y-92912261D02*
X100730951Y-92817023D01*
X100730951Y-92817023D02*
X100730951Y-92745595D01*
X100730951Y-92745595D02*
X100707142Y-92650357D01*
X100707142Y-92650357D02*
X100683332Y-92602738D01*
X100683332Y-92602738D02*
X100635713Y-92555119D01*
X100635713Y-92555119D02*
X100564285Y-92531309D01*
X100564285Y-92531309D02*
X100516666Y-92531309D01*
X100516666Y-92531309D02*
X100445237Y-92555119D01*
X100445237Y-92555119D02*
X100421428Y-92578928D01*
X99992856Y-92697976D02*
X99992856Y-93031309D01*
X100111904Y-92507500D02*
X100230951Y-92864642D01*
X100230951Y-92864642D02*
X99921428Y-92864642D01*
X99659523Y-92745595D02*
X99707142Y-92721785D01*
X99707142Y-92721785D02*
X99730952Y-92697976D01*
X99730952Y-92697976D02*
X99754761Y-92650357D01*
X99754761Y-92650357D02*
X99754761Y-92626547D01*
X99754761Y-92626547D02*
X99730952Y-92578928D01*
X99730952Y-92578928D02*
X99707142Y-92555119D01*
X99707142Y-92555119D02*
X99659523Y-92531309D01*
X99659523Y-92531309D02*
X99564285Y-92531309D01*
X99564285Y-92531309D02*
X99516666Y-92555119D01*
X99516666Y-92555119D02*
X99492857Y-92578928D01*
X99492857Y-92578928D02*
X99469047Y-92626547D01*
X99469047Y-92626547D02*
X99469047Y-92650357D01*
X99469047Y-92650357D02*
X99492857Y-92697976D01*
X99492857Y-92697976D02*
X99516666Y-92721785D01*
X99516666Y-92721785D02*
X99564285Y-92745595D01*
X99564285Y-92745595D02*
X99659523Y-92745595D01*
X99659523Y-92745595D02*
X99707142Y-92769404D01*
X99707142Y-92769404D02*
X99730952Y-92793214D01*
X99730952Y-92793214D02*
X99754761Y-92840833D01*
X99754761Y-92840833D02*
X99754761Y-92936071D01*
X99754761Y-92936071D02*
X99730952Y-92983690D01*
X99730952Y-92983690D02*
X99707142Y-93007500D01*
X99707142Y-93007500D02*
X99659523Y-93031309D01*
X99659523Y-93031309D02*
X99564285Y-93031309D01*
X99564285Y-93031309D02*
X99516666Y-93007500D01*
X99516666Y-93007500D02*
X99492857Y-92983690D01*
X99492857Y-92983690D02*
X99469047Y-92936071D01*
X99469047Y-92936071D02*
X99469047Y-92840833D01*
X99469047Y-92840833D02*
X99492857Y-92793214D01*
X99492857Y-92793214D02*
X99516666Y-92769404D01*
X99516666Y-92769404D02*
X99564285Y-92745595D01*
X128121428Y-86483690D02*
X128145237Y-86507500D01*
X128145237Y-86507500D02*
X128216666Y-86531309D01*
X128216666Y-86531309D02*
X128264285Y-86531309D01*
X128264285Y-86531309D02*
X128335713Y-86507500D01*
X128335713Y-86507500D02*
X128383332Y-86459880D01*
X128383332Y-86459880D02*
X128407142Y-86412261D01*
X128407142Y-86412261D02*
X128430951Y-86317023D01*
X128430951Y-86317023D02*
X128430951Y-86245595D01*
X128430951Y-86245595D02*
X128407142Y-86150357D01*
X128407142Y-86150357D02*
X128383332Y-86102738D01*
X128383332Y-86102738D02*
X128335713Y-86055119D01*
X128335713Y-86055119D02*
X128264285Y-86031309D01*
X128264285Y-86031309D02*
X128216666Y-86031309D01*
X128216666Y-86031309D02*
X128145237Y-86055119D01*
X128145237Y-86055119D02*
X128121428Y-86078928D01*
X127669047Y-86031309D02*
X127907142Y-86031309D01*
X127907142Y-86031309D02*
X127930951Y-86269404D01*
X127930951Y-86269404D02*
X127907142Y-86245595D01*
X127907142Y-86245595D02*
X127859523Y-86221785D01*
X127859523Y-86221785D02*
X127740475Y-86221785D01*
X127740475Y-86221785D02*
X127692856Y-86245595D01*
X127692856Y-86245595D02*
X127669047Y-86269404D01*
X127669047Y-86269404D02*
X127645237Y-86317023D01*
X127645237Y-86317023D02*
X127645237Y-86436071D01*
X127645237Y-86436071D02*
X127669047Y-86483690D01*
X127669047Y-86483690D02*
X127692856Y-86507500D01*
X127692856Y-86507500D02*
X127740475Y-86531309D01*
X127740475Y-86531309D02*
X127859523Y-86531309D01*
X127859523Y-86531309D02*
X127907142Y-86507500D01*
X127907142Y-86507500D02*
X127930951Y-86483690D01*
X127169047Y-86531309D02*
X127454761Y-86531309D01*
X127311904Y-86531309D02*
X127311904Y-86031309D01*
X127311904Y-86031309D02*
X127359523Y-86102738D01*
X127359523Y-86102738D02*
X127407142Y-86150357D01*
X127407142Y-86150357D02*
X127454761Y-86174166D01*
X103521428Y-66783690D02*
X103545237Y-66807500D01*
X103545237Y-66807500D02*
X103616666Y-66831309D01*
X103616666Y-66831309D02*
X103664285Y-66831309D01*
X103664285Y-66831309D02*
X103735713Y-66807500D01*
X103735713Y-66807500D02*
X103783332Y-66759880D01*
X103783332Y-66759880D02*
X103807142Y-66712261D01*
X103807142Y-66712261D02*
X103830951Y-66617023D01*
X103830951Y-66617023D02*
X103830951Y-66545595D01*
X103830951Y-66545595D02*
X103807142Y-66450357D01*
X103807142Y-66450357D02*
X103783332Y-66402738D01*
X103783332Y-66402738D02*
X103735713Y-66355119D01*
X103735713Y-66355119D02*
X103664285Y-66331309D01*
X103664285Y-66331309D02*
X103616666Y-66331309D01*
X103616666Y-66331309D02*
X103545237Y-66355119D01*
X103545237Y-66355119D02*
X103521428Y-66378928D01*
X103069047Y-66331309D02*
X103307142Y-66331309D01*
X103307142Y-66331309D02*
X103330951Y-66569404D01*
X103330951Y-66569404D02*
X103307142Y-66545595D01*
X103307142Y-66545595D02*
X103259523Y-66521785D01*
X103259523Y-66521785D02*
X103140475Y-66521785D01*
X103140475Y-66521785D02*
X103092856Y-66545595D01*
X103092856Y-66545595D02*
X103069047Y-66569404D01*
X103069047Y-66569404D02*
X103045237Y-66617023D01*
X103045237Y-66617023D02*
X103045237Y-66736071D01*
X103045237Y-66736071D02*
X103069047Y-66783690D01*
X103069047Y-66783690D02*
X103092856Y-66807500D01*
X103092856Y-66807500D02*
X103140475Y-66831309D01*
X103140475Y-66831309D02*
X103259523Y-66831309D01*
X103259523Y-66831309D02*
X103307142Y-66807500D01*
X103307142Y-66807500D02*
X103330951Y-66783690D01*
X102878571Y-66331309D02*
X102545238Y-66331309D01*
X102545238Y-66331309D02*
X102759523Y-66831309D01*
X79321428Y-98283690D02*
X79345237Y-98307500D01*
X79345237Y-98307500D02*
X79416666Y-98331309D01*
X79416666Y-98331309D02*
X79464285Y-98331309D01*
X79464285Y-98331309D02*
X79535713Y-98307500D01*
X79535713Y-98307500D02*
X79583332Y-98259880D01*
X79583332Y-98259880D02*
X79607142Y-98212261D01*
X79607142Y-98212261D02*
X79630951Y-98117023D01*
X79630951Y-98117023D02*
X79630951Y-98045595D01*
X79630951Y-98045595D02*
X79607142Y-97950357D01*
X79607142Y-97950357D02*
X79583332Y-97902738D01*
X79583332Y-97902738D02*
X79535713Y-97855119D01*
X79535713Y-97855119D02*
X79464285Y-97831309D01*
X79464285Y-97831309D02*
X79416666Y-97831309D01*
X79416666Y-97831309D02*
X79345237Y-97855119D01*
X79345237Y-97855119D02*
X79321428Y-97878928D01*
X79154761Y-97831309D02*
X78845237Y-97831309D01*
X78845237Y-97831309D02*
X79011904Y-98021785D01*
X79011904Y-98021785D02*
X78940475Y-98021785D01*
X78940475Y-98021785D02*
X78892856Y-98045595D01*
X78892856Y-98045595D02*
X78869047Y-98069404D01*
X78869047Y-98069404D02*
X78845237Y-98117023D01*
X78845237Y-98117023D02*
X78845237Y-98236071D01*
X78845237Y-98236071D02*
X78869047Y-98283690D01*
X78869047Y-98283690D02*
X78892856Y-98307500D01*
X78892856Y-98307500D02*
X78940475Y-98331309D01*
X78940475Y-98331309D02*
X79083332Y-98331309D01*
X79083332Y-98331309D02*
X79130951Y-98307500D01*
X79130951Y-98307500D02*
X79154761Y-98283690D01*
X78535714Y-97831309D02*
X78488095Y-97831309D01*
X78488095Y-97831309D02*
X78440476Y-97855119D01*
X78440476Y-97855119D02*
X78416666Y-97878928D01*
X78416666Y-97878928D02*
X78392857Y-97926547D01*
X78392857Y-97926547D02*
X78369047Y-98021785D01*
X78369047Y-98021785D02*
X78369047Y-98140833D01*
X78369047Y-98140833D02*
X78392857Y-98236071D01*
X78392857Y-98236071D02*
X78416666Y-98283690D01*
X78416666Y-98283690D02*
X78440476Y-98307500D01*
X78440476Y-98307500D02*
X78488095Y-98331309D01*
X78488095Y-98331309D02*
X78535714Y-98331309D01*
X78535714Y-98331309D02*
X78583333Y-98307500D01*
X78583333Y-98307500D02*
X78607142Y-98283690D01*
X78607142Y-98283690D02*
X78630952Y-98236071D01*
X78630952Y-98236071D02*
X78654761Y-98140833D01*
X78654761Y-98140833D02*
X78654761Y-98021785D01*
X78654761Y-98021785D02*
X78630952Y-97926547D01*
X78630952Y-97926547D02*
X78607142Y-97878928D01*
X78607142Y-97878928D02*
X78583333Y-97855119D01*
X78583333Y-97855119D02*
X78535714Y-97831309D01*
X105621428Y-91383690D02*
X105645237Y-91407500D01*
X105645237Y-91407500D02*
X105716666Y-91431309D01*
X105716666Y-91431309D02*
X105764285Y-91431309D01*
X105764285Y-91431309D02*
X105835713Y-91407500D01*
X105835713Y-91407500D02*
X105883332Y-91359880D01*
X105883332Y-91359880D02*
X105907142Y-91312261D01*
X105907142Y-91312261D02*
X105930951Y-91217023D01*
X105930951Y-91217023D02*
X105930951Y-91145595D01*
X105930951Y-91145595D02*
X105907142Y-91050357D01*
X105907142Y-91050357D02*
X105883332Y-91002738D01*
X105883332Y-91002738D02*
X105835713Y-90955119D01*
X105835713Y-90955119D02*
X105764285Y-90931309D01*
X105764285Y-90931309D02*
X105716666Y-90931309D01*
X105716666Y-90931309D02*
X105645237Y-90955119D01*
X105645237Y-90955119D02*
X105621428Y-90978928D01*
X105192856Y-91097976D02*
X105192856Y-91431309D01*
X105311904Y-90907500D02*
X105430951Y-91264642D01*
X105430951Y-91264642D02*
X105121428Y-91264642D01*
X104669047Y-91431309D02*
X104954761Y-91431309D01*
X104811904Y-91431309D02*
X104811904Y-90931309D01*
X104811904Y-90931309D02*
X104859523Y-91002738D01*
X104859523Y-91002738D02*
X104907142Y-91050357D01*
X104907142Y-91050357D02*
X104954761Y-91074166D01*
X106021428Y-54883690D02*
X106045237Y-54907500D01*
X106045237Y-54907500D02*
X106116666Y-54931309D01*
X106116666Y-54931309D02*
X106164285Y-54931309D01*
X106164285Y-54931309D02*
X106235713Y-54907500D01*
X106235713Y-54907500D02*
X106283332Y-54859880D01*
X106283332Y-54859880D02*
X106307142Y-54812261D01*
X106307142Y-54812261D02*
X106330951Y-54717023D01*
X106330951Y-54717023D02*
X106330951Y-54645595D01*
X106330951Y-54645595D02*
X106307142Y-54550357D01*
X106307142Y-54550357D02*
X106283332Y-54502738D01*
X106283332Y-54502738D02*
X106235713Y-54455119D01*
X106235713Y-54455119D02*
X106164285Y-54431309D01*
X106164285Y-54431309D02*
X106116666Y-54431309D01*
X106116666Y-54431309D02*
X106045237Y-54455119D01*
X106045237Y-54455119D02*
X106021428Y-54478928D01*
X105592856Y-54431309D02*
X105688094Y-54431309D01*
X105688094Y-54431309D02*
X105735713Y-54455119D01*
X105735713Y-54455119D02*
X105759523Y-54478928D01*
X105759523Y-54478928D02*
X105807142Y-54550357D01*
X105807142Y-54550357D02*
X105830951Y-54645595D01*
X105830951Y-54645595D02*
X105830951Y-54836071D01*
X105830951Y-54836071D02*
X105807142Y-54883690D01*
X105807142Y-54883690D02*
X105783332Y-54907500D01*
X105783332Y-54907500D02*
X105735713Y-54931309D01*
X105735713Y-54931309D02*
X105640475Y-54931309D01*
X105640475Y-54931309D02*
X105592856Y-54907500D01*
X105592856Y-54907500D02*
X105569047Y-54883690D01*
X105569047Y-54883690D02*
X105545237Y-54836071D01*
X105545237Y-54836071D02*
X105545237Y-54717023D01*
X105545237Y-54717023D02*
X105569047Y-54669404D01*
X105569047Y-54669404D02*
X105592856Y-54645595D01*
X105592856Y-54645595D02*
X105640475Y-54621785D01*
X105640475Y-54621785D02*
X105735713Y-54621785D01*
X105735713Y-54621785D02*
X105783332Y-54645595D01*
X105783332Y-54645595D02*
X105807142Y-54669404D01*
X105807142Y-54669404D02*
X105830951Y-54717023D01*
X105354761Y-54478928D02*
X105330952Y-54455119D01*
X105330952Y-54455119D02*
X105283333Y-54431309D01*
X105283333Y-54431309D02*
X105164285Y-54431309D01*
X105164285Y-54431309D02*
X105116666Y-54455119D01*
X105116666Y-54455119D02*
X105092857Y-54478928D01*
X105092857Y-54478928D02*
X105069047Y-54526547D01*
X105069047Y-54526547D02*
X105069047Y-54574166D01*
X105069047Y-54574166D02*
X105092857Y-54645595D01*
X105092857Y-54645595D02*
X105378571Y-54931309D01*
X105378571Y-54931309D02*
X105069047Y-54931309D01*
X62326428Y-77083690D02*
X62350237Y-77107500D01*
X62350237Y-77107500D02*
X62421666Y-77131309D01*
X62421666Y-77131309D02*
X62469285Y-77131309D01*
X62469285Y-77131309D02*
X62540713Y-77107500D01*
X62540713Y-77107500D02*
X62588332Y-77059880D01*
X62588332Y-77059880D02*
X62612142Y-77012261D01*
X62612142Y-77012261D02*
X62635951Y-76917023D01*
X62635951Y-76917023D02*
X62635951Y-76845595D01*
X62635951Y-76845595D02*
X62612142Y-76750357D01*
X62612142Y-76750357D02*
X62588332Y-76702738D01*
X62588332Y-76702738D02*
X62540713Y-76655119D01*
X62540713Y-76655119D02*
X62469285Y-76631309D01*
X62469285Y-76631309D02*
X62421666Y-76631309D01*
X62421666Y-76631309D02*
X62350237Y-76655119D01*
X62350237Y-76655119D02*
X62326428Y-76678928D01*
X62135951Y-76678928D02*
X62112142Y-76655119D01*
X62112142Y-76655119D02*
X62064523Y-76631309D01*
X62064523Y-76631309D02*
X61945475Y-76631309D01*
X61945475Y-76631309D02*
X61897856Y-76655119D01*
X61897856Y-76655119D02*
X61874047Y-76678928D01*
X61874047Y-76678928D02*
X61850237Y-76726547D01*
X61850237Y-76726547D02*
X61850237Y-76774166D01*
X61850237Y-76774166D02*
X61874047Y-76845595D01*
X61874047Y-76845595D02*
X62159761Y-77131309D01*
X62159761Y-77131309D02*
X61850237Y-77131309D01*
X61540714Y-76631309D02*
X61493095Y-76631309D01*
X61493095Y-76631309D02*
X61445476Y-76655119D01*
X61445476Y-76655119D02*
X61421666Y-76678928D01*
X61421666Y-76678928D02*
X61397857Y-76726547D01*
X61397857Y-76726547D02*
X61374047Y-76821785D01*
X61374047Y-76821785D02*
X61374047Y-76940833D01*
X61374047Y-76940833D02*
X61397857Y-77036071D01*
X61397857Y-77036071D02*
X61421666Y-77083690D01*
X61421666Y-77083690D02*
X61445476Y-77107500D01*
X61445476Y-77107500D02*
X61493095Y-77131309D01*
X61493095Y-77131309D02*
X61540714Y-77131309D01*
X61540714Y-77131309D02*
X61588333Y-77107500D01*
X61588333Y-77107500D02*
X61612142Y-77083690D01*
X61612142Y-77083690D02*
X61635952Y-77036071D01*
X61635952Y-77036071D02*
X61659761Y-76940833D01*
X61659761Y-76940833D02*
X61659761Y-76821785D01*
X61659761Y-76821785D02*
X61635952Y-76726547D01*
X61635952Y-76726547D02*
X61612142Y-76678928D01*
X61612142Y-76678928D02*
X61588333Y-76655119D01*
X61588333Y-76655119D02*
X61540714Y-76631309D01*
X116121428Y-50383690D02*
X116145237Y-50407500D01*
X116145237Y-50407500D02*
X116216666Y-50431309D01*
X116216666Y-50431309D02*
X116264285Y-50431309D01*
X116264285Y-50431309D02*
X116335713Y-50407500D01*
X116335713Y-50407500D02*
X116383332Y-50359880D01*
X116383332Y-50359880D02*
X116407142Y-50312261D01*
X116407142Y-50312261D02*
X116430951Y-50217023D01*
X116430951Y-50217023D02*
X116430951Y-50145595D01*
X116430951Y-50145595D02*
X116407142Y-50050357D01*
X116407142Y-50050357D02*
X116383332Y-50002738D01*
X116383332Y-50002738D02*
X116335713Y-49955119D01*
X116335713Y-49955119D02*
X116264285Y-49931309D01*
X116264285Y-49931309D02*
X116216666Y-49931309D01*
X116216666Y-49931309D02*
X116145237Y-49955119D01*
X116145237Y-49955119D02*
X116121428Y-49978928D01*
X115669047Y-49931309D02*
X115907142Y-49931309D01*
X115907142Y-49931309D02*
X115930951Y-50169404D01*
X115930951Y-50169404D02*
X115907142Y-50145595D01*
X115907142Y-50145595D02*
X115859523Y-50121785D01*
X115859523Y-50121785D02*
X115740475Y-50121785D01*
X115740475Y-50121785D02*
X115692856Y-50145595D01*
X115692856Y-50145595D02*
X115669047Y-50169404D01*
X115669047Y-50169404D02*
X115645237Y-50217023D01*
X115645237Y-50217023D02*
X115645237Y-50336071D01*
X115645237Y-50336071D02*
X115669047Y-50383690D01*
X115669047Y-50383690D02*
X115692856Y-50407500D01*
X115692856Y-50407500D02*
X115740475Y-50431309D01*
X115740475Y-50431309D02*
X115859523Y-50431309D01*
X115859523Y-50431309D02*
X115907142Y-50407500D01*
X115907142Y-50407500D02*
X115930951Y-50383690D01*
X115359523Y-50145595D02*
X115407142Y-50121785D01*
X115407142Y-50121785D02*
X115430952Y-50097976D01*
X115430952Y-50097976D02*
X115454761Y-50050357D01*
X115454761Y-50050357D02*
X115454761Y-50026547D01*
X115454761Y-50026547D02*
X115430952Y-49978928D01*
X115430952Y-49978928D02*
X115407142Y-49955119D01*
X115407142Y-49955119D02*
X115359523Y-49931309D01*
X115359523Y-49931309D02*
X115264285Y-49931309D01*
X115264285Y-49931309D02*
X115216666Y-49955119D01*
X115216666Y-49955119D02*
X115192857Y-49978928D01*
X115192857Y-49978928D02*
X115169047Y-50026547D01*
X115169047Y-50026547D02*
X115169047Y-50050357D01*
X115169047Y-50050357D02*
X115192857Y-50097976D01*
X115192857Y-50097976D02*
X115216666Y-50121785D01*
X115216666Y-50121785D02*
X115264285Y-50145595D01*
X115264285Y-50145595D02*
X115359523Y-50145595D01*
X115359523Y-50145595D02*
X115407142Y-50169404D01*
X115407142Y-50169404D02*
X115430952Y-50193214D01*
X115430952Y-50193214D02*
X115454761Y-50240833D01*
X115454761Y-50240833D02*
X115454761Y-50336071D01*
X115454761Y-50336071D02*
X115430952Y-50383690D01*
X115430952Y-50383690D02*
X115407142Y-50407500D01*
X115407142Y-50407500D02*
X115359523Y-50431309D01*
X115359523Y-50431309D02*
X115264285Y-50431309D01*
X115264285Y-50431309D02*
X115216666Y-50407500D01*
X115216666Y-50407500D02*
X115192857Y-50383690D01*
X115192857Y-50383690D02*
X115169047Y-50336071D01*
X115169047Y-50336071D02*
X115169047Y-50240833D01*
X115169047Y-50240833D02*
X115192857Y-50193214D01*
X115192857Y-50193214D02*
X115216666Y-50169404D01*
X115216666Y-50169404D02*
X115264285Y-50145595D01*
X101696428Y-58713690D02*
X101720237Y-58737500D01*
X101720237Y-58737500D02*
X101791666Y-58761309D01*
X101791666Y-58761309D02*
X101839285Y-58761309D01*
X101839285Y-58761309D02*
X101910713Y-58737500D01*
X101910713Y-58737500D02*
X101958332Y-58689880D01*
X101958332Y-58689880D02*
X101982142Y-58642261D01*
X101982142Y-58642261D02*
X102005951Y-58547023D01*
X102005951Y-58547023D02*
X102005951Y-58475595D01*
X102005951Y-58475595D02*
X101982142Y-58380357D01*
X101982142Y-58380357D02*
X101958332Y-58332738D01*
X101958332Y-58332738D02*
X101910713Y-58285119D01*
X101910713Y-58285119D02*
X101839285Y-58261309D01*
X101839285Y-58261309D02*
X101791666Y-58261309D01*
X101791666Y-58261309D02*
X101720237Y-58285119D01*
X101720237Y-58285119D02*
X101696428Y-58308928D01*
X101244047Y-58261309D02*
X101482142Y-58261309D01*
X101482142Y-58261309D02*
X101505951Y-58499404D01*
X101505951Y-58499404D02*
X101482142Y-58475595D01*
X101482142Y-58475595D02*
X101434523Y-58451785D01*
X101434523Y-58451785D02*
X101315475Y-58451785D01*
X101315475Y-58451785D02*
X101267856Y-58475595D01*
X101267856Y-58475595D02*
X101244047Y-58499404D01*
X101244047Y-58499404D02*
X101220237Y-58547023D01*
X101220237Y-58547023D02*
X101220237Y-58666071D01*
X101220237Y-58666071D02*
X101244047Y-58713690D01*
X101244047Y-58713690D02*
X101267856Y-58737500D01*
X101267856Y-58737500D02*
X101315475Y-58761309D01*
X101315475Y-58761309D02*
X101434523Y-58761309D01*
X101434523Y-58761309D02*
X101482142Y-58737500D01*
X101482142Y-58737500D02*
X101505951Y-58713690D01*
X100982142Y-58761309D02*
X100886904Y-58761309D01*
X100886904Y-58761309D02*
X100839285Y-58737500D01*
X100839285Y-58737500D02*
X100815476Y-58713690D01*
X100815476Y-58713690D02*
X100767857Y-58642261D01*
X100767857Y-58642261D02*
X100744047Y-58547023D01*
X100744047Y-58547023D02*
X100744047Y-58356547D01*
X100744047Y-58356547D02*
X100767857Y-58308928D01*
X100767857Y-58308928D02*
X100791666Y-58285119D01*
X100791666Y-58285119D02*
X100839285Y-58261309D01*
X100839285Y-58261309D02*
X100934523Y-58261309D01*
X100934523Y-58261309D02*
X100982142Y-58285119D01*
X100982142Y-58285119D02*
X101005952Y-58308928D01*
X101005952Y-58308928D02*
X101029761Y-58356547D01*
X101029761Y-58356547D02*
X101029761Y-58475595D01*
X101029761Y-58475595D02*
X101005952Y-58523214D01*
X101005952Y-58523214D02*
X100982142Y-58547023D01*
X100982142Y-58547023D02*
X100934523Y-58570833D01*
X100934523Y-58570833D02*
X100839285Y-58570833D01*
X100839285Y-58570833D02*
X100791666Y-58547023D01*
X100791666Y-58547023D02*
X100767857Y-58523214D01*
X100767857Y-58523214D02*
X100744047Y-58475595D01*
X65996428Y-62613690D02*
X66020237Y-62637500D01*
X66020237Y-62637500D02*
X66091666Y-62661309D01*
X66091666Y-62661309D02*
X66139285Y-62661309D01*
X66139285Y-62661309D02*
X66210713Y-62637500D01*
X66210713Y-62637500D02*
X66258332Y-62589880D01*
X66258332Y-62589880D02*
X66282142Y-62542261D01*
X66282142Y-62542261D02*
X66305951Y-62447023D01*
X66305951Y-62447023D02*
X66305951Y-62375595D01*
X66305951Y-62375595D02*
X66282142Y-62280357D01*
X66282142Y-62280357D02*
X66258332Y-62232738D01*
X66258332Y-62232738D02*
X66210713Y-62185119D01*
X66210713Y-62185119D02*
X66139285Y-62161309D01*
X66139285Y-62161309D02*
X66091666Y-62161309D01*
X66091666Y-62161309D02*
X66020237Y-62185119D01*
X66020237Y-62185119D02*
X65996428Y-62208928D01*
X65520237Y-62661309D02*
X65805951Y-62661309D01*
X65663094Y-62661309D02*
X65663094Y-62161309D01*
X65663094Y-62161309D02*
X65710713Y-62232738D01*
X65710713Y-62232738D02*
X65758332Y-62280357D01*
X65758332Y-62280357D02*
X65805951Y-62304166D01*
X65091666Y-62327976D02*
X65091666Y-62661309D01*
X65210714Y-62137500D02*
X65329761Y-62494642D01*
X65329761Y-62494642D02*
X65020238Y-62494642D01*
X90521428Y-65283690D02*
X90545237Y-65307500D01*
X90545237Y-65307500D02*
X90616666Y-65331309D01*
X90616666Y-65331309D02*
X90664285Y-65331309D01*
X90664285Y-65331309D02*
X90735713Y-65307500D01*
X90735713Y-65307500D02*
X90783332Y-65259880D01*
X90783332Y-65259880D02*
X90807142Y-65212261D01*
X90807142Y-65212261D02*
X90830951Y-65117023D01*
X90830951Y-65117023D02*
X90830951Y-65045595D01*
X90830951Y-65045595D02*
X90807142Y-64950357D01*
X90807142Y-64950357D02*
X90783332Y-64902738D01*
X90783332Y-64902738D02*
X90735713Y-64855119D01*
X90735713Y-64855119D02*
X90664285Y-64831309D01*
X90664285Y-64831309D02*
X90616666Y-64831309D01*
X90616666Y-64831309D02*
X90545237Y-64855119D01*
X90545237Y-64855119D02*
X90521428Y-64878928D01*
X90092856Y-64831309D02*
X90188094Y-64831309D01*
X90188094Y-64831309D02*
X90235713Y-64855119D01*
X90235713Y-64855119D02*
X90259523Y-64878928D01*
X90259523Y-64878928D02*
X90307142Y-64950357D01*
X90307142Y-64950357D02*
X90330951Y-65045595D01*
X90330951Y-65045595D02*
X90330951Y-65236071D01*
X90330951Y-65236071D02*
X90307142Y-65283690D01*
X90307142Y-65283690D02*
X90283332Y-65307500D01*
X90283332Y-65307500D02*
X90235713Y-65331309D01*
X90235713Y-65331309D02*
X90140475Y-65331309D01*
X90140475Y-65331309D02*
X90092856Y-65307500D01*
X90092856Y-65307500D02*
X90069047Y-65283690D01*
X90069047Y-65283690D02*
X90045237Y-65236071D01*
X90045237Y-65236071D02*
X90045237Y-65117023D01*
X90045237Y-65117023D02*
X90069047Y-65069404D01*
X90069047Y-65069404D02*
X90092856Y-65045595D01*
X90092856Y-65045595D02*
X90140475Y-65021785D01*
X90140475Y-65021785D02*
X90235713Y-65021785D01*
X90235713Y-65021785D02*
X90283332Y-65045595D01*
X90283332Y-65045595D02*
X90307142Y-65069404D01*
X90307142Y-65069404D02*
X90330951Y-65117023D01*
X89878571Y-64831309D02*
X89569047Y-64831309D01*
X89569047Y-64831309D02*
X89735714Y-65021785D01*
X89735714Y-65021785D02*
X89664285Y-65021785D01*
X89664285Y-65021785D02*
X89616666Y-65045595D01*
X89616666Y-65045595D02*
X89592857Y-65069404D01*
X89592857Y-65069404D02*
X89569047Y-65117023D01*
X89569047Y-65117023D02*
X89569047Y-65236071D01*
X89569047Y-65236071D02*
X89592857Y-65283690D01*
X89592857Y-65283690D02*
X89616666Y-65307500D01*
X89616666Y-65307500D02*
X89664285Y-65331309D01*
X89664285Y-65331309D02*
X89807142Y-65331309D01*
X89807142Y-65331309D02*
X89854761Y-65307500D01*
X89854761Y-65307500D02*
X89878571Y-65283690D01*
X105821428Y-69183690D02*
X105845237Y-69207500D01*
X105845237Y-69207500D02*
X105916666Y-69231309D01*
X105916666Y-69231309D02*
X105964285Y-69231309D01*
X105964285Y-69231309D02*
X106035713Y-69207500D01*
X106035713Y-69207500D02*
X106083332Y-69159880D01*
X106083332Y-69159880D02*
X106107142Y-69112261D01*
X106107142Y-69112261D02*
X106130951Y-69017023D01*
X106130951Y-69017023D02*
X106130951Y-68945595D01*
X106130951Y-68945595D02*
X106107142Y-68850357D01*
X106107142Y-68850357D02*
X106083332Y-68802738D01*
X106083332Y-68802738D02*
X106035713Y-68755119D01*
X106035713Y-68755119D02*
X105964285Y-68731309D01*
X105964285Y-68731309D02*
X105916666Y-68731309D01*
X105916666Y-68731309D02*
X105845237Y-68755119D01*
X105845237Y-68755119D02*
X105821428Y-68778928D01*
X105392856Y-68731309D02*
X105488094Y-68731309D01*
X105488094Y-68731309D02*
X105535713Y-68755119D01*
X105535713Y-68755119D02*
X105559523Y-68778928D01*
X105559523Y-68778928D02*
X105607142Y-68850357D01*
X105607142Y-68850357D02*
X105630951Y-68945595D01*
X105630951Y-68945595D02*
X105630951Y-69136071D01*
X105630951Y-69136071D02*
X105607142Y-69183690D01*
X105607142Y-69183690D02*
X105583332Y-69207500D01*
X105583332Y-69207500D02*
X105535713Y-69231309D01*
X105535713Y-69231309D02*
X105440475Y-69231309D01*
X105440475Y-69231309D02*
X105392856Y-69207500D01*
X105392856Y-69207500D02*
X105369047Y-69183690D01*
X105369047Y-69183690D02*
X105345237Y-69136071D01*
X105345237Y-69136071D02*
X105345237Y-69017023D01*
X105345237Y-69017023D02*
X105369047Y-68969404D01*
X105369047Y-68969404D02*
X105392856Y-68945595D01*
X105392856Y-68945595D02*
X105440475Y-68921785D01*
X105440475Y-68921785D02*
X105535713Y-68921785D01*
X105535713Y-68921785D02*
X105583332Y-68945595D01*
X105583332Y-68945595D02*
X105607142Y-68969404D01*
X105607142Y-68969404D02*
X105630951Y-69017023D01*
X104869047Y-69231309D02*
X105154761Y-69231309D01*
X105011904Y-69231309D02*
X105011904Y-68731309D01*
X105011904Y-68731309D02*
X105059523Y-68802738D01*
X105059523Y-68802738D02*
X105107142Y-68850357D01*
X105107142Y-68850357D02*
X105154761Y-68874166D01*
X62621428Y-72183690D02*
X62645237Y-72207500D01*
X62645237Y-72207500D02*
X62716666Y-72231309D01*
X62716666Y-72231309D02*
X62764285Y-72231309D01*
X62764285Y-72231309D02*
X62835713Y-72207500D01*
X62835713Y-72207500D02*
X62883332Y-72159880D01*
X62883332Y-72159880D02*
X62907142Y-72112261D01*
X62907142Y-72112261D02*
X62930951Y-72017023D01*
X62930951Y-72017023D02*
X62930951Y-71945595D01*
X62930951Y-71945595D02*
X62907142Y-71850357D01*
X62907142Y-71850357D02*
X62883332Y-71802738D01*
X62883332Y-71802738D02*
X62835713Y-71755119D01*
X62835713Y-71755119D02*
X62764285Y-71731309D01*
X62764285Y-71731309D02*
X62716666Y-71731309D01*
X62716666Y-71731309D02*
X62645237Y-71755119D01*
X62645237Y-71755119D02*
X62621428Y-71778928D01*
X62430951Y-71778928D02*
X62407142Y-71755119D01*
X62407142Y-71755119D02*
X62359523Y-71731309D01*
X62359523Y-71731309D02*
X62240475Y-71731309D01*
X62240475Y-71731309D02*
X62192856Y-71755119D01*
X62192856Y-71755119D02*
X62169047Y-71778928D01*
X62169047Y-71778928D02*
X62145237Y-71826547D01*
X62145237Y-71826547D02*
X62145237Y-71874166D01*
X62145237Y-71874166D02*
X62169047Y-71945595D01*
X62169047Y-71945595D02*
X62454761Y-72231309D01*
X62454761Y-72231309D02*
X62145237Y-72231309D01*
X61669047Y-72231309D02*
X61954761Y-72231309D01*
X61811904Y-72231309D02*
X61811904Y-71731309D01*
X61811904Y-71731309D02*
X61859523Y-71802738D01*
X61859523Y-71802738D02*
X61907142Y-71850357D01*
X61907142Y-71850357D02*
X61954761Y-71874166D01*
X48183333Y-105383690D02*
X48207142Y-105407500D01*
X48207142Y-105407500D02*
X48278571Y-105431309D01*
X48278571Y-105431309D02*
X48326190Y-105431309D01*
X48326190Y-105431309D02*
X48397618Y-105407500D01*
X48397618Y-105407500D02*
X48445237Y-105359880D01*
X48445237Y-105359880D02*
X48469047Y-105312261D01*
X48469047Y-105312261D02*
X48492856Y-105217023D01*
X48492856Y-105217023D02*
X48492856Y-105145595D01*
X48492856Y-105145595D02*
X48469047Y-105050357D01*
X48469047Y-105050357D02*
X48445237Y-105002738D01*
X48445237Y-105002738D02*
X48397618Y-104955119D01*
X48397618Y-104955119D02*
X48326190Y-104931309D01*
X48326190Y-104931309D02*
X48278571Y-104931309D01*
X48278571Y-104931309D02*
X48207142Y-104955119D01*
X48207142Y-104955119D02*
X48183333Y-104978928D01*
X47730952Y-104931309D02*
X47969047Y-104931309D01*
X47969047Y-104931309D02*
X47992856Y-105169404D01*
X47992856Y-105169404D02*
X47969047Y-105145595D01*
X47969047Y-105145595D02*
X47921428Y-105121785D01*
X47921428Y-105121785D02*
X47802380Y-105121785D01*
X47802380Y-105121785D02*
X47754761Y-105145595D01*
X47754761Y-105145595D02*
X47730952Y-105169404D01*
X47730952Y-105169404D02*
X47707142Y-105217023D01*
X47707142Y-105217023D02*
X47707142Y-105336071D01*
X47707142Y-105336071D02*
X47730952Y-105383690D01*
X47730952Y-105383690D02*
X47754761Y-105407500D01*
X47754761Y-105407500D02*
X47802380Y-105431309D01*
X47802380Y-105431309D02*
X47921428Y-105431309D01*
X47921428Y-105431309D02*
X47969047Y-105407500D01*
X47969047Y-105407500D02*
X47992856Y-105383690D01*
X68121428Y-83783690D02*
X68145237Y-83807500D01*
X68145237Y-83807500D02*
X68216666Y-83831309D01*
X68216666Y-83831309D02*
X68264285Y-83831309D01*
X68264285Y-83831309D02*
X68335713Y-83807500D01*
X68335713Y-83807500D02*
X68383332Y-83759880D01*
X68383332Y-83759880D02*
X68407142Y-83712261D01*
X68407142Y-83712261D02*
X68430951Y-83617023D01*
X68430951Y-83617023D02*
X68430951Y-83545595D01*
X68430951Y-83545595D02*
X68407142Y-83450357D01*
X68407142Y-83450357D02*
X68383332Y-83402738D01*
X68383332Y-83402738D02*
X68335713Y-83355119D01*
X68335713Y-83355119D02*
X68264285Y-83331309D01*
X68264285Y-83331309D02*
X68216666Y-83331309D01*
X68216666Y-83331309D02*
X68145237Y-83355119D01*
X68145237Y-83355119D02*
X68121428Y-83378928D01*
X67954761Y-83331309D02*
X67645237Y-83331309D01*
X67645237Y-83331309D02*
X67811904Y-83521785D01*
X67811904Y-83521785D02*
X67740475Y-83521785D01*
X67740475Y-83521785D02*
X67692856Y-83545595D01*
X67692856Y-83545595D02*
X67669047Y-83569404D01*
X67669047Y-83569404D02*
X67645237Y-83617023D01*
X67645237Y-83617023D02*
X67645237Y-83736071D01*
X67645237Y-83736071D02*
X67669047Y-83783690D01*
X67669047Y-83783690D02*
X67692856Y-83807500D01*
X67692856Y-83807500D02*
X67740475Y-83831309D01*
X67740475Y-83831309D02*
X67883332Y-83831309D01*
X67883332Y-83831309D02*
X67930951Y-83807500D01*
X67930951Y-83807500D02*
X67954761Y-83783690D01*
X67169047Y-83831309D02*
X67454761Y-83831309D01*
X67311904Y-83831309D02*
X67311904Y-83331309D01*
X67311904Y-83331309D02*
X67359523Y-83402738D01*
X67359523Y-83402738D02*
X67407142Y-83450357D01*
X67407142Y-83450357D02*
X67454761Y-83474166D01*
X107221428Y-63183690D02*
X107245237Y-63207500D01*
X107245237Y-63207500D02*
X107316666Y-63231309D01*
X107316666Y-63231309D02*
X107364285Y-63231309D01*
X107364285Y-63231309D02*
X107435713Y-63207500D01*
X107435713Y-63207500D02*
X107483332Y-63159880D01*
X107483332Y-63159880D02*
X107507142Y-63112261D01*
X107507142Y-63112261D02*
X107530951Y-63017023D01*
X107530951Y-63017023D02*
X107530951Y-62945595D01*
X107530951Y-62945595D02*
X107507142Y-62850357D01*
X107507142Y-62850357D02*
X107483332Y-62802738D01*
X107483332Y-62802738D02*
X107435713Y-62755119D01*
X107435713Y-62755119D02*
X107364285Y-62731309D01*
X107364285Y-62731309D02*
X107316666Y-62731309D01*
X107316666Y-62731309D02*
X107245237Y-62755119D01*
X107245237Y-62755119D02*
X107221428Y-62778928D01*
X106792856Y-62731309D02*
X106888094Y-62731309D01*
X106888094Y-62731309D02*
X106935713Y-62755119D01*
X106935713Y-62755119D02*
X106959523Y-62778928D01*
X106959523Y-62778928D02*
X107007142Y-62850357D01*
X107007142Y-62850357D02*
X107030951Y-62945595D01*
X107030951Y-62945595D02*
X107030951Y-63136071D01*
X107030951Y-63136071D02*
X107007142Y-63183690D01*
X107007142Y-63183690D02*
X106983332Y-63207500D01*
X106983332Y-63207500D02*
X106935713Y-63231309D01*
X106935713Y-63231309D02*
X106840475Y-63231309D01*
X106840475Y-63231309D02*
X106792856Y-63207500D01*
X106792856Y-63207500D02*
X106769047Y-63183690D01*
X106769047Y-63183690D02*
X106745237Y-63136071D01*
X106745237Y-63136071D02*
X106745237Y-63017023D01*
X106745237Y-63017023D02*
X106769047Y-62969404D01*
X106769047Y-62969404D02*
X106792856Y-62945595D01*
X106792856Y-62945595D02*
X106840475Y-62921785D01*
X106840475Y-62921785D02*
X106935713Y-62921785D01*
X106935713Y-62921785D02*
X106983332Y-62945595D01*
X106983332Y-62945595D02*
X107007142Y-62969404D01*
X107007142Y-62969404D02*
X107030951Y-63017023D01*
X106316666Y-62897976D02*
X106316666Y-63231309D01*
X106435714Y-62707500D02*
X106554761Y-63064642D01*
X106554761Y-63064642D02*
X106245238Y-63064642D01*
X62221428Y-86776190D02*
X62245237Y-86800000D01*
X62245237Y-86800000D02*
X62316666Y-86823809D01*
X62316666Y-86823809D02*
X62364285Y-86823809D01*
X62364285Y-86823809D02*
X62435713Y-86800000D01*
X62435713Y-86800000D02*
X62483332Y-86752380D01*
X62483332Y-86752380D02*
X62507142Y-86704761D01*
X62507142Y-86704761D02*
X62530951Y-86609523D01*
X62530951Y-86609523D02*
X62530951Y-86538095D01*
X62530951Y-86538095D02*
X62507142Y-86442857D01*
X62507142Y-86442857D02*
X62483332Y-86395238D01*
X62483332Y-86395238D02*
X62435713Y-86347619D01*
X62435713Y-86347619D02*
X62364285Y-86323809D01*
X62364285Y-86323809D02*
X62316666Y-86323809D01*
X62316666Y-86323809D02*
X62245237Y-86347619D01*
X62245237Y-86347619D02*
X62221428Y-86371428D01*
X62030951Y-86371428D02*
X62007142Y-86347619D01*
X62007142Y-86347619D02*
X61959523Y-86323809D01*
X61959523Y-86323809D02*
X61840475Y-86323809D01*
X61840475Y-86323809D02*
X61792856Y-86347619D01*
X61792856Y-86347619D02*
X61769047Y-86371428D01*
X61769047Y-86371428D02*
X61745237Y-86419047D01*
X61745237Y-86419047D02*
X61745237Y-86466666D01*
X61745237Y-86466666D02*
X61769047Y-86538095D01*
X61769047Y-86538095D02*
X62054761Y-86823809D01*
X62054761Y-86823809D02*
X61745237Y-86823809D01*
X61578571Y-86323809D02*
X61245238Y-86323809D01*
X61245238Y-86323809D02*
X61459523Y-86823809D01*
X66821428Y-98183690D02*
X66845237Y-98207500D01*
X66845237Y-98207500D02*
X66916666Y-98231309D01*
X66916666Y-98231309D02*
X66964285Y-98231309D01*
X66964285Y-98231309D02*
X67035713Y-98207500D01*
X67035713Y-98207500D02*
X67083332Y-98159880D01*
X67083332Y-98159880D02*
X67107142Y-98112261D01*
X67107142Y-98112261D02*
X67130951Y-98017023D01*
X67130951Y-98017023D02*
X67130951Y-97945595D01*
X67130951Y-97945595D02*
X67107142Y-97850357D01*
X67107142Y-97850357D02*
X67083332Y-97802738D01*
X67083332Y-97802738D02*
X67035713Y-97755119D01*
X67035713Y-97755119D02*
X66964285Y-97731309D01*
X66964285Y-97731309D02*
X66916666Y-97731309D01*
X66916666Y-97731309D02*
X66845237Y-97755119D01*
X66845237Y-97755119D02*
X66821428Y-97778928D01*
X66654761Y-97731309D02*
X66345237Y-97731309D01*
X66345237Y-97731309D02*
X66511904Y-97921785D01*
X66511904Y-97921785D02*
X66440475Y-97921785D01*
X66440475Y-97921785D02*
X66392856Y-97945595D01*
X66392856Y-97945595D02*
X66369047Y-97969404D01*
X66369047Y-97969404D02*
X66345237Y-98017023D01*
X66345237Y-98017023D02*
X66345237Y-98136071D01*
X66345237Y-98136071D02*
X66369047Y-98183690D01*
X66369047Y-98183690D02*
X66392856Y-98207500D01*
X66392856Y-98207500D02*
X66440475Y-98231309D01*
X66440475Y-98231309D02*
X66583332Y-98231309D01*
X66583332Y-98231309D02*
X66630951Y-98207500D01*
X66630951Y-98207500D02*
X66654761Y-98183690D01*
X66154761Y-97778928D02*
X66130952Y-97755119D01*
X66130952Y-97755119D02*
X66083333Y-97731309D01*
X66083333Y-97731309D02*
X65964285Y-97731309D01*
X65964285Y-97731309D02*
X65916666Y-97755119D01*
X65916666Y-97755119D02*
X65892857Y-97778928D01*
X65892857Y-97778928D02*
X65869047Y-97826547D01*
X65869047Y-97826547D02*
X65869047Y-97874166D01*
X65869047Y-97874166D02*
X65892857Y-97945595D01*
X65892857Y-97945595D02*
X66178571Y-98231309D01*
X66178571Y-98231309D02*
X65869047Y-98231309D01*
X82221428Y-50083690D02*
X82245237Y-50107500D01*
X82245237Y-50107500D02*
X82316666Y-50131309D01*
X82316666Y-50131309D02*
X82364285Y-50131309D01*
X82364285Y-50131309D02*
X82435713Y-50107500D01*
X82435713Y-50107500D02*
X82483332Y-50059880D01*
X82483332Y-50059880D02*
X82507142Y-50012261D01*
X82507142Y-50012261D02*
X82530951Y-49917023D01*
X82530951Y-49917023D02*
X82530951Y-49845595D01*
X82530951Y-49845595D02*
X82507142Y-49750357D01*
X82507142Y-49750357D02*
X82483332Y-49702738D01*
X82483332Y-49702738D02*
X82435713Y-49655119D01*
X82435713Y-49655119D02*
X82364285Y-49631309D01*
X82364285Y-49631309D02*
X82316666Y-49631309D01*
X82316666Y-49631309D02*
X82245237Y-49655119D01*
X82245237Y-49655119D02*
X82221428Y-49678928D01*
X81745237Y-50131309D02*
X82030951Y-50131309D01*
X81888094Y-50131309D02*
X81888094Y-49631309D01*
X81888094Y-49631309D02*
X81935713Y-49702738D01*
X81935713Y-49702738D02*
X81983332Y-49750357D01*
X81983332Y-49750357D02*
X82030951Y-49774166D01*
X81578571Y-49631309D02*
X81245238Y-49631309D01*
X81245238Y-49631309D02*
X81459523Y-50131309D01*
X57856428Y-53576190D02*
X57880237Y-53600000D01*
X57880237Y-53600000D02*
X57951666Y-53623809D01*
X57951666Y-53623809D02*
X57999285Y-53623809D01*
X57999285Y-53623809D02*
X58070713Y-53600000D01*
X58070713Y-53600000D02*
X58118332Y-53552380D01*
X58118332Y-53552380D02*
X58142142Y-53504761D01*
X58142142Y-53504761D02*
X58165951Y-53409523D01*
X58165951Y-53409523D02*
X58165951Y-53338095D01*
X58165951Y-53338095D02*
X58142142Y-53242857D01*
X58142142Y-53242857D02*
X58118332Y-53195238D01*
X58118332Y-53195238D02*
X58070713Y-53147619D01*
X58070713Y-53147619D02*
X57999285Y-53123809D01*
X57999285Y-53123809D02*
X57951666Y-53123809D01*
X57951666Y-53123809D02*
X57880237Y-53147619D01*
X57880237Y-53147619D02*
X57856428Y-53171428D01*
X57380237Y-53623809D02*
X57665951Y-53623809D01*
X57523094Y-53623809D02*
X57523094Y-53123809D01*
X57523094Y-53123809D02*
X57570713Y-53195238D01*
X57570713Y-53195238D02*
X57618332Y-53242857D01*
X57618332Y-53242857D02*
X57665951Y-53266666D01*
X56951666Y-53123809D02*
X57046904Y-53123809D01*
X57046904Y-53123809D02*
X57094523Y-53147619D01*
X57094523Y-53147619D02*
X57118333Y-53171428D01*
X57118333Y-53171428D02*
X57165952Y-53242857D01*
X57165952Y-53242857D02*
X57189761Y-53338095D01*
X57189761Y-53338095D02*
X57189761Y-53528571D01*
X57189761Y-53528571D02*
X57165952Y-53576190D01*
X57165952Y-53576190D02*
X57142142Y-53600000D01*
X57142142Y-53600000D02*
X57094523Y-53623809D01*
X57094523Y-53623809D02*
X56999285Y-53623809D01*
X56999285Y-53623809D02*
X56951666Y-53600000D01*
X56951666Y-53600000D02*
X56927857Y-53576190D01*
X56927857Y-53576190D02*
X56904047Y-53528571D01*
X56904047Y-53528571D02*
X56904047Y-53409523D01*
X56904047Y-53409523D02*
X56927857Y-53361904D01*
X56927857Y-53361904D02*
X56951666Y-53338095D01*
X56951666Y-53338095D02*
X56999285Y-53314285D01*
X56999285Y-53314285D02*
X57094523Y-53314285D01*
X57094523Y-53314285D02*
X57142142Y-53338095D01*
X57142142Y-53338095D02*
X57165952Y-53361904D01*
X57165952Y-53361904D02*
X57189761Y-53409523D01*
X89318690Y-82108571D02*
X89342500Y-82084762D01*
X89342500Y-82084762D02*
X89366309Y-82013333D01*
X89366309Y-82013333D02*
X89366309Y-81965714D01*
X89366309Y-81965714D02*
X89342500Y-81894286D01*
X89342500Y-81894286D02*
X89294880Y-81846667D01*
X89294880Y-81846667D02*
X89247261Y-81822857D01*
X89247261Y-81822857D02*
X89152023Y-81799048D01*
X89152023Y-81799048D02*
X89080595Y-81799048D01*
X89080595Y-81799048D02*
X88985357Y-81822857D01*
X88985357Y-81822857D02*
X88937738Y-81846667D01*
X88937738Y-81846667D02*
X88890119Y-81894286D01*
X88890119Y-81894286D02*
X88866309Y-81965714D01*
X88866309Y-81965714D02*
X88866309Y-82013333D01*
X88866309Y-82013333D02*
X88890119Y-82084762D01*
X88890119Y-82084762D02*
X88913928Y-82108571D01*
X88866309Y-82275238D02*
X88866309Y-82584762D01*
X88866309Y-82584762D02*
X89056785Y-82418095D01*
X89056785Y-82418095D02*
X89056785Y-82489524D01*
X89056785Y-82489524D02*
X89080595Y-82537143D01*
X89080595Y-82537143D02*
X89104404Y-82560952D01*
X89104404Y-82560952D02*
X89152023Y-82584762D01*
X89152023Y-82584762D02*
X89271071Y-82584762D01*
X89271071Y-82584762D02*
X89318690Y-82560952D01*
X89318690Y-82560952D02*
X89342500Y-82537143D01*
X89342500Y-82537143D02*
X89366309Y-82489524D01*
X89366309Y-82489524D02*
X89366309Y-82346667D01*
X89366309Y-82346667D02*
X89342500Y-82299048D01*
X89342500Y-82299048D02*
X89318690Y-82275238D01*
X88866309Y-83037142D02*
X88866309Y-82799047D01*
X88866309Y-82799047D02*
X89104404Y-82775238D01*
X89104404Y-82775238D02*
X89080595Y-82799047D01*
X89080595Y-82799047D02*
X89056785Y-82846666D01*
X89056785Y-82846666D02*
X89056785Y-82965714D01*
X89056785Y-82965714D02*
X89080595Y-83013333D01*
X89080595Y-83013333D02*
X89104404Y-83037142D01*
X89104404Y-83037142D02*
X89152023Y-83060952D01*
X89152023Y-83060952D02*
X89271071Y-83060952D01*
X89271071Y-83060952D02*
X89318690Y-83037142D01*
X89318690Y-83037142D02*
X89342500Y-83013333D01*
X89342500Y-83013333D02*
X89366309Y-82965714D01*
X89366309Y-82965714D02*
X89366309Y-82846666D01*
X89366309Y-82846666D02*
X89342500Y-82799047D01*
X89342500Y-82799047D02*
X89318690Y-82775238D01*
X86226428Y-85483690D02*
X86250237Y-85507500D01*
X86250237Y-85507500D02*
X86321666Y-85531309D01*
X86321666Y-85531309D02*
X86369285Y-85531309D01*
X86369285Y-85531309D02*
X86440713Y-85507500D01*
X86440713Y-85507500D02*
X86488332Y-85459880D01*
X86488332Y-85459880D02*
X86512142Y-85412261D01*
X86512142Y-85412261D02*
X86535951Y-85317023D01*
X86535951Y-85317023D02*
X86535951Y-85245595D01*
X86535951Y-85245595D02*
X86512142Y-85150357D01*
X86512142Y-85150357D02*
X86488332Y-85102738D01*
X86488332Y-85102738D02*
X86440713Y-85055119D01*
X86440713Y-85055119D02*
X86369285Y-85031309D01*
X86369285Y-85031309D02*
X86321666Y-85031309D01*
X86321666Y-85031309D02*
X86250237Y-85055119D01*
X86250237Y-85055119D02*
X86226428Y-85078928D01*
X86059761Y-85031309D02*
X85750237Y-85031309D01*
X85750237Y-85031309D02*
X85916904Y-85221785D01*
X85916904Y-85221785D02*
X85845475Y-85221785D01*
X85845475Y-85221785D02*
X85797856Y-85245595D01*
X85797856Y-85245595D02*
X85774047Y-85269404D01*
X85774047Y-85269404D02*
X85750237Y-85317023D01*
X85750237Y-85317023D02*
X85750237Y-85436071D01*
X85750237Y-85436071D02*
X85774047Y-85483690D01*
X85774047Y-85483690D02*
X85797856Y-85507500D01*
X85797856Y-85507500D02*
X85845475Y-85531309D01*
X85845475Y-85531309D02*
X85988332Y-85531309D01*
X85988332Y-85531309D02*
X86035951Y-85507500D01*
X86035951Y-85507500D02*
X86059761Y-85483690D01*
X85321666Y-85031309D02*
X85416904Y-85031309D01*
X85416904Y-85031309D02*
X85464523Y-85055119D01*
X85464523Y-85055119D02*
X85488333Y-85078928D01*
X85488333Y-85078928D02*
X85535952Y-85150357D01*
X85535952Y-85150357D02*
X85559761Y-85245595D01*
X85559761Y-85245595D02*
X85559761Y-85436071D01*
X85559761Y-85436071D02*
X85535952Y-85483690D01*
X85535952Y-85483690D02*
X85512142Y-85507500D01*
X85512142Y-85507500D02*
X85464523Y-85531309D01*
X85464523Y-85531309D02*
X85369285Y-85531309D01*
X85369285Y-85531309D02*
X85321666Y-85507500D01*
X85321666Y-85507500D02*
X85297857Y-85483690D01*
X85297857Y-85483690D02*
X85274047Y-85436071D01*
X85274047Y-85436071D02*
X85274047Y-85317023D01*
X85274047Y-85317023D02*
X85297857Y-85269404D01*
X85297857Y-85269404D02*
X85321666Y-85245595D01*
X85321666Y-85245595D02*
X85369285Y-85221785D01*
X85369285Y-85221785D02*
X85464523Y-85221785D01*
X85464523Y-85221785D02*
X85512142Y-85245595D01*
X85512142Y-85245595D02*
X85535952Y-85269404D01*
X85535952Y-85269404D02*
X85559761Y-85317023D01*
X70221428Y-68483690D02*
X70245237Y-68507500D01*
X70245237Y-68507500D02*
X70316666Y-68531309D01*
X70316666Y-68531309D02*
X70364285Y-68531309D01*
X70364285Y-68531309D02*
X70435713Y-68507500D01*
X70435713Y-68507500D02*
X70483332Y-68459880D01*
X70483332Y-68459880D02*
X70507142Y-68412261D01*
X70507142Y-68412261D02*
X70530951Y-68317023D01*
X70530951Y-68317023D02*
X70530951Y-68245595D01*
X70530951Y-68245595D02*
X70507142Y-68150357D01*
X70507142Y-68150357D02*
X70483332Y-68102738D01*
X70483332Y-68102738D02*
X70435713Y-68055119D01*
X70435713Y-68055119D02*
X70364285Y-68031309D01*
X70364285Y-68031309D02*
X70316666Y-68031309D01*
X70316666Y-68031309D02*
X70245237Y-68055119D01*
X70245237Y-68055119D02*
X70221428Y-68078928D01*
X69745237Y-68531309D02*
X70030951Y-68531309D01*
X69888094Y-68531309D02*
X69888094Y-68031309D01*
X69888094Y-68031309D02*
X69935713Y-68102738D01*
X69935713Y-68102738D02*
X69983332Y-68150357D01*
X69983332Y-68150357D02*
X70030951Y-68174166D01*
X69554761Y-68078928D02*
X69530952Y-68055119D01*
X69530952Y-68055119D02*
X69483333Y-68031309D01*
X69483333Y-68031309D02*
X69364285Y-68031309D01*
X69364285Y-68031309D02*
X69316666Y-68055119D01*
X69316666Y-68055119D02*
X69292857Y-68078928D01*
X69292857Y-68078928D02*
X69269047Y-68126547D01*
X69269047Y-68126547D02*
X69269047Y-68174166D01*
X69269047Y-68174166D02*
X69292857Y-68245595D01*
X69292857Y-68245595D02*
X69578571Y-68531309D01*
X69578571Y-68531309D02*
X69269047Y-68531309D01*
X83183333Y-47383690D02*
X83207142Y-47407500D01*
X83207142Y-47407500D02*
X83278571Y-47431309D01*
X83278571Y-47431309D02*
X83326190Y-47431309D01*
X83326190Y-47431309D02*
X83397618Y-47407500D01*
X83397618Y-47407500D02*
X83445237Y-47359880D01*
X83445237Y-47359880D02*
X83469047Y-47312261D01*
X83469047Y-47312261D02*
X83492856Y-47217023D01*
X83492856Y-47217023D02*
X83492856Y-47145595D01*
X83492856Y-47145595D02*
X83469047Y-47050357D01*
X83469047Y-47050357D02*
X83445237Y-47002738D01*
X83445237Y-47002738D02*
X83397618Y-46955119D01*
X83397618Y-46955119D02*
X83326190Y-46931309D01*
X83326190Y-46931309D02*
X83278571Y-46931309D01*
X83278571Y-46931309D02*
X83207142Y-46955119D01*
X83207142Y-46955119D02*
X83183333Y-46978928D01*
X82992856Y-46978928D02*
X82969047Y-46955119D01*
X82969047Y-46955119D02*
X82921428Y-46931309D01*
X82921428Y-46931309D02*
X82802380Y-46931309D01*
X82802380Y-46931309D02*
X82754761Y-46955119D01*
X82754761Y-46955119D02*
X82730952Y-46978928D01*
X82730952Y-46978928D02*
X82707142Y-47026547D01*
X82707142Y-47026547D02*
X82707142Y-47074166D01*
X82707142Y-47074166D02*
X82730952Y-47145595D01*
X82730952Y-47145595D02*
X83016666Y-47431309D01*
X83016666Y-47431309D02*
X82707142Y-47431309D01*
X67456428Y-89351190D02*
X67480237Y-89375000D01*
X67480237Y-89375000D02*
X67551666Y-89398809D01*
X67551666Y-89398809D02*
X67599285Y-89398809D01*
X67599285Y-89398809D02*
X67670713Y-89375000D01*
X67670713Y-89375000D02*
X67718332Y-89327380D01*
X67718332Y-89327380D02*
X67742142Y-89279761D01*
X67742142Y-89279761D02*
X67765951Y-89184523D01*
X67765951Y-89184523D02*
X67765951Y-89113095D01*
X67765951Y-89113095D02*
X67742142Y-89017857D01*
X67742142Y-89017857D02*
X67718332Y-88970238D01*
X67718332Y-88970238D02*
X67670713Y-88922619D01*
X67670713Y-88922619D02*
X67599285Y-88898809D01*
X67599285Y-88898809D02*
X67551666Y-88898809D01*
X67551666Y-88898809D02*
X67480237Y-88922619D01*
X67480237Y-88922619D02*
X67456428Y-88946428D01*
X67265951Y-88946428D02*
X67242142Y-88922619D01*
X67242142Y-88922619D02*
X67194523Y-88898809D01*
X67194523Y-88898809D02*
X67075475Y-88898809D01*
X67075475Y-88898809D02*
X67027856Y-88922619D01*
X67027856Y-88922619D02*
X67004047Y-88946428D01*
X67004047Y-88946428D02*
X66980237Y-88994047D01*
X66980237Y-88994047D02*
X66980237Y-89041666D01*
X66980237Y-89041666D02*
X67004047Y-89113095D01*
X67004047Y-89113095D02*
X67289761Y-89398809D01*
X67289761Y-89398809D02*
X66980237Y-89398809D01*
X66742142Y-89398809D02*
X66646904Y-89398809D01*
X66646904Y-89398809D02*
X66599285Y-89375000D01*
X66599285Y-89375000D02*
X66575476Y-89351190D01*
X66575476Y-89351190D02*
X66527857Y-89279761D01*
X66527857Y-89279761D02*
X66504047Y-89184523D01*
X66504047Y-89184523D02*
X66504047Y-88994047D01*
X66504047Y-88994047D02*
X66527857Y-88946428D01*
X66527857Y-88946428D02*
X66551666Y-88922619D01*
X66551666Y-88922619D02*
X66599285Y-88898809D01*
X66599285Y-88898809D02*
X66694523Y-88898809D01*
X66694523Y-88898809D02*
X66742142Y-88922619D01*
X66742142Y-88922619D02*
X66765952Y-88946428D01*
X66765952Y-88946428D02*
X66789761Y-88994047D01*
X66789761Y-88994047D02*
X66789761Y-89113095D01*
X66789761Y-89113095D02*
X66765952Y-89160714D01*
X66765952Y-89160714D02*
X66742142Y-89184523D01*
X66742142Y-89184523D02*
X66694523Y-89208333D01*
X66694523Y-89208333D02*
X66599285Y-89208333D01*
X66599285Y-89208333D02*
X66551666Y-89184523D01*
X66551666Y-89184523D02*
X66527857Y-89160714D01*
X66527857Y-89160714D02*
X66504047Y-89113095D01*
X93221428Y-58283690D02*
X93245237Y-58307500D01*
X93245237Y-58307500D02*
X93316666Y-58331309D01*
X93316666Y-58331309D02*
X93364285Y-58331309D01*
X93364285Y-58331309D02*
X93435713Y-58307500D01*
X93435713Y-58307500D02*
X93483332Y-58259880D01*
X93483332Y-58259880D02*
X93507142Y-58212261D01*
X93507142Y-58212261D02*
X93530951Y-58117023D01*
X93530951Y-58117023D02*
X93530951Y-58045595D01*
X93530951Y-58045595D02*
X93507142Y-57950357D01*
X93507142Y-57950357D02*
X93483332Y-57902738D01*
X93483332Y-57902738D02*
X93435713Y-57855119D01*
X93435713Y-57855119D02*
X93364285Y-57831309D01*
X93364285Y-57831309D02*
X93316666Y-57831309D01*
X93316666Y-57831309D02*
X93245237Y-57855119D01*
X93245237Y-57855119D02*
X93221428Y-57878928D01*
X92792856Y-57831309D02*
X92888094Y-57831309D01*
X92888094Y-57831309D02*
X92935713Y-57855119D01*
X92935713Y-57855119D02*
X92959523Y-57878928D01*
X92959523Y-57878928D02*
X93007142Y-57950357D01*
X93007142Y-57950357D02*
X93030951Y-58045595D01*
X93030951Y-58045595D02*
X93030951Y-58236071D01*
X93030951Y-58236071D02*
X93007142Y-58283690D01*
X93007142Y-58283690D02*
X92983332Y-58307500D01*
X92983332Y-58307500D02*
X92935713Y-58331309D01*
X92935713Y-58331309D02*
X92840475Y-58331309D01*
X92840475Y-58331309D02*
X92792856Y-58307500D01*
X92792856Y-58307500D02*
X92769047Y-58283690D01*
X92769047Y-58283690D02*
X92745237Y-58236071D01*
X92745237Y-58236071D02*
X92745237Y-58117023D01*
X92745237Y-58117023D02*
X92769047Y-58069404D01*
X92769047Y-58069404D02*
X92792856Y-58045595D01*
X92792856Y-58045595D02*
X92840475Y-58021785D01*
X92840475Y-58021785D02*
X92935713Y-58021785D01*
X92935713Y-58021785D02*
X92983332Y-58045595D01*
X92983332Y-58045595D02*
X93007142Y-58069404D01*
X93007142Y-58069404D02*
X93030951Y-58117023D01*
X92435714Y-57831309D02*
X92388095Y-57831309D01*
X92388095Y-57831309D02*
X92340476Y-57855119D01*
X92340476Y-57855119D02*
X92316666Y-57878928D01*
X92316666Y-57878928D02*
X92292857Y-57926547D01*
X92292857Y-57926547D02*
X92269047Y-58021785D01*
X92269047Y-58021785D02*
X92269047Y-58140833D01*
X92269047Y-58140833D02*
X92292857Y-58236071D01*
X92292857Y-58236071D02*
X92316666Y-58283690D01*
X92316666Y-58283690D02*
X92340476Y-58307500D01*
X92340476Y-58307500D02*
X92388095Y-58331309D01*
X92388095Y-58331309D02*
X92435714Y-58331309D01*
X92435714Y-58331309D02*
X92483333Y-58307500D01*
X92483333Y-58307500D02*
X92507142Y-58283690D01*
X92507142Y-58283690D02*
X92530952Y-58236071D01*
X92530952Y-58236071D02*
X92554761Y-58140833D01*
X92554761Y-58140833D02*
X92554761Y-58021785D01*
X92554761Y-58021785D02*
X92530952Y-57926547D01*
X92530952Y-57926547D02*
X92507142Y-57878928D01*
X92507142Y-57878928D02*
X92483333Y-57855119D01*
X92483333Y-57855119D02*
X92435714Y-57831309D01*
X78863928Y-87843690D02*
X78887737Y-87867500D01*
X78887737Y-87867500D02*
X78959166Y-87891309D01*
X78959166Y-87891309D02*
X79006785Y-87891309D01*
X79006785Y-87891309D02*
X79078213Y-87867500D01*
X79078213Y-87867500D02*
X79125832Y-87819880D01*
X79125832Y-87819880D02*
X79149642Y-87772261D01*
X79149642Y-87772261D02*
X79173451Y-87677023D01*
X79173451Y-87677023D02*
X79173451Y-87605595D01*
X79173451Y-87605595D02*
X79149642Y-87510357D01*
X79149642Y-87510357D02*
X79125832Y-87462738D01*
X79125832Y-87462738D02*
X79078213Y-87415119D01*
X79078213Y-87415119D02*
X79006785Y-87391309D01*
X79006785Y-87391309D02*
X78959166Y-87391309D01*
X78959166Y-87391309D02*
X78887737Y-87415119D01*
X78887737Y-87415119D02*
X78863928Y-87438928D01*
X78673451Y-87438928D02*
X78649642Y-87415119D01*
X78649642Y-87415119D02*
X78602023Y-87391309D01*
X78602023Y-87391309D02*
X78482975Y-87391309D01*
X78482975Y-87391309D02*
X78435356Y-87415119D01*
X78435356Y-87415119D02*
X78411547Y-87438928D01*
X78411547Y-87438928D02*
X78387737Y-87486547D01*
X78387737Y-87486547D02*
X78387737Y-87534166D01*
X78387737Y-87534166D02*
X78411547Y-87605595D01*
X78411547Y-87605595D02*
X78697261Y-87891309D01*
X78697261Y-87891309D02*
X78387737Y-87891309D01*
X78102023Y-87605595D02*
X78149642Y-87581785D01*
X78149642Y-87581785D02*
X78173452Y-87557976D01*
X78173452Y-87557976D02*
X78197261Y-87510357D01*
X78197261Y-87510357D02*
X78197261Y-87486547D01*
X78197261Y-87486547D02*
X78173452Y-87438928D01*
X78173452Y-87438928D02*
X78149642Y-87415119D01*
X78149642Y-87415119D02*
X78102023Y-87391309D01*
X78102023Y-87391309D02*
X78006785Y-87391309D01*
X78006785Y-87391309D02*
X77959166Y-87415119D01*
X77959166Y-87415119D02*
X77935357Y-87438928D01*
X77935357Y-87438928D02*
X77911547Y-87486547D01*
X77911547Y-87486547D02*
X77911547Y-87510357D01*
X77911547Y-87510357D02*
X77935357Y-87557976D01*
X77935357Y-87557976D02*
X77959166Y-87581785D01*
X77959166Y-87581785D02*
X78006785Y-87605595D01*
X78006785Y-87605595D02*
X78102023Y-87605595D01*
X78102023Y-87605595D02*
X78149642Y-87629404D01*
X78149642Y-87629404D02*
X78173452Y-87653214D01*
X78173452Y-87653214D02*
X78197261Y-87700833D01*
X78197261Y-87700833D02*
X78197261Y-87796071D01*
X78197261Y-87796071D02*
X78173452Y-87843690D01*
X78173452Y-87843690D02*
X78149642Y-87867500D01*
X78149642Y-87867500D02*
X78102023Y-87891309D01*
X78102023Y-87891309D02*
X78006785Y-87891309D01*
X78006785Y-87891309D02*
X77959166Y-87867500D01*
X77959166Y-87867500D02*
X77935357Y-87843690D01*
X77935357Y-87843690D02*
X77911547Y-87796071D01*
X77911547Y-87796071D02*
X77911547Y-87700833D01*
X77911547Y-87700833D02*
X77935357Y-87653214D01*
X77935357Y-87653214D02*
X77959166Y-87629404D01*
X77959166Y-87629404D02*
X78006785Y-87605595D01*
X73121428Y-57583690D02*
X73145237Y-57607500D01*
X73145237Y-57607500D02*
X73216666Y-57631309D01*
X73216666Y-57631309D02*
X73264285Y-57631309D01*
X73264285Y-57631309D02*
X73335713Y-57607500D01*
X73335713Y-57607500D02*
X73383332Y-57559880D01*
X73383332Y-57559880D02*
X73407142Y-57512261D01*
X73407142Y-57512261D02*
X73430951Y-57417023D01*
X73430951Y-57417023D02*
X73430951Y-57345595D01*
X73430951Y-57345595D02*
X73407142Y-57250357D01*
X73407142Y-57250357D02*
X73383332Y-57202738D01*
X73383332Y-57202738D02*
X73335713Y-57155119D01*
X73335713Y-57155119D02*
X73264285Y-57131309D01*
X73264285Y-57131309D02*
X73216666Y-57131309D01*
X73216666Y-57131309D02*
X73145237Y-57155119D01*
X73145237Y-57155119D02*
X73121428Y-57178928D01*
X72645237Y-57631309D02*
X72930951Y-57631309D01*
X72788094Y-57631309D02*
X72788094Y-57131309D01*
X72788094Y-57131309D02*
X72835713Y-57202738D01*
X72835713Y-57202738D02*
X72883332Y-57250357D01*
X72883332Y-57250357D02*
X72930951Y-57274166D01*
X72169047Y-57631309D02*
X72454761Y-57631309D01*
X72311904Y-57631309D02*
X72311904Y-57131309D01*
X72311904Y-57131309D02*
X72359523Y-57202738D01*
X72359523Y-57202738D02*
X72407142Y-57250357D01*
X72407142Y-57250357D02*
X72454761Y-57274166D01*
X112721428Y-97151190D02*
X112745237Y-97175000D01*
X112745237Y-97175000D02*
X112816666Y-97198809D01*
X112816666Y-97198809D02*
X112864285Y-97198809D01*
X112864285Y-97198809D02*
X112935713Y-97175000D01*
X112935713Y-97175000D02*
X112983332Y-97127380D01*
X112983332Y-97127380D02*
X113007142Y-97079761D01*
X113007142Y-97079761D02*
X113030951Y-96984523D01*
X113030951Y-96984523D02*
X113030951Y-96913095D01*
X113030951Y-96913095D02*
X113007142Y-96817857D01*
X113007142Y-96817857D02*
X112983332Y-96770238D01*
X112983332Y-96770238D02*
X112935713Y-96722619D01*
X112935713Y-96722619D02*
X112864285Y-96698809D01*
X112864285Y-96698809D02*
X112816666Y-96698809D01*
X112816666Y-96698809D02*
X112745237Y-96722619D01*
X112745237Y-96722619D02*
X112721428Y-96746428D01*
X112292856Y-96865476D02*
X112292856Y-97198809D01*
X112411904Y-96675000D02*
X112530951Y-97032142D01*
X112530951Y-97032142D02*
X112221428Y-97032142D01*
X111816666Y-96698809D02*
X111911904Y-96698809D01*
X111911904Y-96698809D02*
X111959523Y-96722619D01*
X111959523Y-96722619D02*
X111983333Y-96746428D01*
X111983333Y-96746428D02*
X112030952Y-96817857D01*
X112030952Y-96817857D02*
X112054761Y-96913095D01*
X112054761Y-96913095D02*
X112054761Y-97103571D01*
X112054761Y-97103571D02*
X112030952Y-97151190D01*
X112030952Y-97151190D02*
X112007142Y-97175000D01*
X112007142Y-97175000D02*
X111959523Y-97198809D01*
X111959523Y-97198809D02*
X111864285Y-97198809D01*
X111864285Y-97198809D02*
X111816666Y-97175000D01*
X111816666Y-97175000D02*
X111792857Y-97151190D01*
X111792857Y-97151190D02*
X111769047Y-97103571D01*
X111769047Y-97103571D02*
X111769047Y-96984523D01*
X111769047Y-96984523D02*
X111792857Y-96936904D01*
X111792857Y-96936904D02*
X111816666Y-96913095D01*
X111816666Y-96913095D02*
X111864285Y-96889285D01*
X111864285Y-96889285D02*
X111959523Y-96889285D01*
X111959523Y-96889285D02*
X112007142Y-96913095D01*
X112007142Y-96913095D02*
X112030952Y-96936904D01*
X112030952Y-96936904D02*
X112054761Y-96984523D01*
X69656428Y-53738690D02*
X69680237Y-53762500D01*
X69680237Y-53762500D02*
X69751666Y-53786309D01*
X69751666Y-53786309D02*
X69799285Y-53786309D01*
X69799285Y-53786309D02*
X69870713Y-53762500D01*
X69870713Y-53762500D02*
X69918332Y-53714880D01*
X69918332Y-53714880D02*
X69942142Y-53667261D01*
X69942142Y-53667261D02*
X69965951Y-53572023D01*
X69965951Y-53572023D02*
X69965951Y-53500595D01*
X69965951Y-53500595D02*
X69942142Y-53405357D01*
X69942142Y-53405357D02*
X69918332Y-53357738D01*
X69918332Y-53357738D02*
X69870713Y-53310119D01*
X69870713Y-53310119D02*
X69799285Y-53286309D01*
X69799285Y-53286309D02*
X69751666Y-53286309D01*
X69751666Y-53286309D02*
X69680237Y-53310119D01*
X69680237Y-53310119D02*
X69656428Y-53333928D01*
X69180237Y-53786309D02*
X69465951Y-53786309D01*
X69323094Y-53786309D02*
X69323094Y-53286309D01*
X69323094Y-53286309D02*
X69370713Y-53357738D01*
X69370713Y-53357738D02*
X69418332Y-53405357D01*
X69418332Y-53405357D02*
X69465951Y-53429166D01*
X69013571Y-53286309D02*
X68704047Y-53286309D01*
X68704047Y-53286309D02*
X68870714Y-53476785D01*
X68870714Y-53476785D02*
X68799285Y-53476785D01*
X68799285Y-53476785D02*
X68751666Y-53500595D01*
X68751666Y-53500595D02*
X68727857Y-53524404D01*
X68727857Y-53524404D02*
X68704047Y-53572023D01*
X68704047Y-53572023D02*
X68704047Y-53691071D01*
X68704047Y-53691071D02*
X68727857Y-53738690D01*
X68727857Y-53738690D02*
X68751666Y-53762500D01*
X68751666Y-53762500D02*
X68799285Y-53786309D01*
X68799285Y-53786309D02*
X68942142Y-53786309D01*
X68942142Y-53786309D02*
X68989761Y-53762500D01*
X68989761Y-53762500D02*
X69013571Y-53738690D01*
X101696428Y-62113690D02*
X101720237Y-62137500D01*
X101720237Y-62137500D02*
X101791666Y-62161309D01*
X101791666Y-62161309D02*
X101839285Y-62161309D01*
X101839285Y-62161309D02*
X101910713Y-62137500D01*
X101910713Y-62137500D02*
X101958332Y-62089880D01*
X101958332Y-62089880D02*
X101982142Y-62042261D01*
X101982142Y-62042261D02*
X102005951Y-61947023D01*
X102005951Y-61947023D02*
X102005951Y-61875595D01*
X102005951Y-61875595D02*
X101982142Y-61780357D01*
X101982142Y-61780357D02*
X101958332Y-61732738D01*
X101958332Y-61732738D02*
X101910713Y-61685119D01*
X101910713Y-61685119D02*
X101839285Y-61661309D01*
X101839285Y-61661309D02*
X101791666Y-61661309D01*
X101791666Y-61661309D02*
X101720237Y-61685119D01*
X101720237Y-61685119D02*
X101696428Y-61708928D01*
X101244047Y-61661309D02*
X101482142Y-61661309D01*
X101482142Y-61661309D02*
X101505951Y-61899404D01*
X101505951Y-61899404D02*
X101482142Y-61875595D01*
X101482142Y-61875595D02*
X101434523Y-61851785D01*
X101434523Y-61851785D02*
X101315475Y-61851785D01*
X101315475Y-61851785D02*
X101267856Y-61875595D01*
X101267856Y-61875595D02*
X101244047Y-61899404D01*
X101244047Y-61899404D02*
X101220237Y-61947023D01*
X101220237Y-61947023D02*
X101220237Y-62066071D01*
X101220237Y-62066071D02*
X101244047Y-62113690D01*
X101244047Y-62113690D02*
X101267856Y-62137500D01*
X101267856Y-62137500D02*
X101315475Y-62161309D01*
X101315475Y-62161309D02*
X101434523Y-62161309D01*
X101434523Y-62161309D02*
X101482142Y-62137500D01*
X101482142Y-62137500D02*
X101505951Y-62113690D01*
X100791666Y-61661309D02*
X100886904Y-61661309D01*
X100886904Y-61661309D02*
X100934523Y-61685119D01*
X100934523Y-61685119D02*
X100958333Y-61708928D01*
X100958333Y-61708928D02*
X101005952Y-61780357D01*
X101005952Y-61780357D02*
X101029761Y-61875595D01*
X101029761Y-61875595D02*
X101029761Y-62066071D01*
X101029761Y-62066071D02*
X101005952Y-62113690D01*
X101005952Y-62113690D02*
X100982142Y-62137500D01*
X100982142Y-62137500D02*
X100934523Y-62161309D01*
X100934523Y-62161309D02*
X100839285Y-62161309D01*
X100839285Y-62161309D02*
X100791666Y-62137500D01*
X100791666Y-62137500D02*
X100767857Y-62113690D01*
X100767857Y-62113690D02*
X100744047Y-62066071D01*
X100744047Y-62066071D02*
X100744047Y-61947023D01*
X100744047Y-61947023D02*
X100767857Y-61899404D01*
X100767857Y-61899404D02*
X100791666Y-61875595D01*
X100791666Y-61875595D02*
X100839285Y-61851785D01*
X100839285Y-61851785D02*
X100934523Y-61851785D01*
X100934523Y-61851785D02*
X100982142Y-61875595D01*
X100982142Y-61875595D02*
X101005952Y-61899404D01*
X101005952Y-61899404D02*
X101029761Y-61947023D01*
X67621428Y-93113690D02*
X67645237Y-93137500D01*
X67645237Y-93137500D02*
X67716666Y-93161309D01*
X67716666Y-93161309D02*
X67764285Y-93161309D01*
X67764285Y-93161309D02*
X67835713Y-93137500D01*
X67835713Y-93137500D02*
X67883332Y-93089880D01*
X67883332Y-93089880D02*
X67907142Y-93042261D01*
X67907142Y-93042261D02*
X67930951Y-92947023D01*
X67930951Y-92947023D02*
X67930951Y-92875595D01*
X67930951Y-92875595D02*
X67907142Y-92780357D01*
X67907142Y-92780357D02*
X67883332Y-92732738D01*
X67883332Y-92732738D02*
X67835713Y-92685119D01*
X67835713Y-92685119D02*
X67764285Y-92661309D01*
X67764285Y-92661309D02*
X67716666Y-92661309D01*
X67716666Y-92661309D02*
X67645237Y-92685119D01*
X67645237Y-92685119D02*
X67621428Y-92708928D01*
X67430951Y-92708928D02*
X67407142Y-92685119D01*
X67407142Y-92685119D02*
X67359523Y-92661309D01*
X67359523Y-92661309D02*
X67240475Y-92661309D01*
X67240475Y-92661309D02*
X67192856Y-92685119D01*
X67192856Y-92685119D02*
X67169047Y-92708928D01*
X67169047Y-92708928D02*
X67145237Y-92756547D01*
X67145237Y-92756547D02*
X67145237Y-92804166D01*
X67145237Y-92804166D02*
X67169047Y-92875595D01*
X67169047Y-92875595D02*
X67454761Y-93161309D01*
X67454761Y-93161309D02*
X67145237Y-93161309D01*
X66716666Y-92661309D02*
X66811904Y-92661309D01*
X66811904Y-92661309D02*
X66859523Y-92685119D01*
X66859523Y-92685119D02*
X66883333Y-92708928D01*
X66883333Y-92708928D02*
X66930952Y-92780357D01*
X66930952Y-92780357D02*
X66954761Y-92875595D01*
X66954761Y-92875595D02*
X66954761Y-93066071D01*
X66954761Y-93066071D02*
X66930952Y-93113690D01*
X66930952Y-93113690D02*
X66907142Y-93137500D01*
X66907142Y-93137500D02*
X66859523Y-93161309D01*
X66859523Y-93161309D02*
X66764285Y-93161309D01*
X66764285Y-93161309D02*
X66716666Y-93137500D01*
X66716666Y-93137500D02*
X66692857Y-93113690D01*
X66692857Y-93113690D02*
X66669047Y-93066071D01*
X66669047Y-93066071D02*
X66669047Y-92947023D01*
X66669047Y-92947023D02*
X66692857Y-92899404D01*
X66692857Y-92899404D02*
X66716666Y-92875595D01*
X66716666Y-92875595D02*
X66764285Y-92851785D01*
X66764285Y-92851785D02*
X66859523Y-92851785D01*
X66859523Y-92851785D02*
X66907142Y-92875595D01*
X66907142Y-92875595D02*
X66930952Y-92899404D01*
X66930952Y-92899404D02*
X66954761Y-92947023D01*
X103021428Y-97351190D02*
X103045237Y-97375000D01*
X103045237Y-97375000D02*
X103116666Y-97398809D01*
X103116666Y-97398809D02*
X103164285Y-97398809D01*
X103164285Y-97398809D02*
X103235713Y-97375000D01*
X103235713Y-97375000D02*
X103283332Y-97327380D01*
X103283332Y-97327380D02*
X103307142Y-97279761D01*
X103307142Y-97279761D02*
X103330951Y-97184523D01*
X103330951Y-97184523D02*
X103330951Y-97113095D01*
X103330951Y-97113095D02*
X103307142Y-97017857D01*
X103307142Y-97017857D02*
X103283332Y-96970238D01*
X103283332Y-96970238D02*
X103235713Y-96922619D01*
X103235713Y-96922619D02*
X103164285Y-96898809D01*
X103164285Y-96898809D02*
X103116666Y-96898809D01*
X103116666Y-96898809D02*
X103045237Y-96922619D01*
X103045237Y-96922619D02*
X103021428Y-96946428D01*
X102592856Y-97065476D02*
X102592856Y-97398809D01*
X102711904Y-96875000D02*
X102830951Y-97232142D01*
X102830951Y-97232142D02*
X102521428Y-97232142D01*
X102378571Y-96898809D02*
X102045238Y-96898809D01*
X102045238Y-96898809D02*
X102259523Y-97398809D01*
X55388928Y-66583690D02*
X55412737Y-66607500D01*
X55412737Y-66607500D02*
X55484166Y-66631309D01*
X55484166Y-66631309D02*
X55531785Y-66631309D01*
X55531785Y-66631309D02*
X55603213Y-66607500D01*
X55603213Y-66607500D02*
X55650832Y-66559880D01*
X55650832Y-66559880D02*
X55674642Y-66512261D01*
X55674642Y-66512261D02*
X55698451Y-66417023D01*
X55698451Y-66417023D02*
X55698451Y-66345595D01*
X55698451Y-66345595D02*
X55674642Y-66250357D01*
X55674642Y-66250357D02*
X55650832Y-66202738D01*
X55650832Y-66202738D02*
X55603213Y-66155119D01*
X55603213Y-66155119D02*
X55531785Y-66131309D01*
X55531785Y-66131309D02*
X55484166Y-66131309D01*
X55484166Y-66131309D02*
X55412737Y-66155119D01*
X55412737Y-66155119D02*
X55388928Y-66178928D01*
X54912737Y-66631309D02*
X55198451Y-66631309D01*
X55055594Y-66631309D02*
X55055594Y-66131309D01*
X55055594Y-66131309D02*
X55103213Y-66202738D01*
X55103213Y-66202738D02*
X55150832Y-66250357D01*
X55150832Y-66250357D02*
X55198451Y-66274166D01*
X54460357Y-66131309D02*
X54698452Y-66131309D01*
X54698452Y-66131309D02*
X54722261Y-66369404D01*
X54722261Y-66369404D02*
X54698452Y-66345595D01*
X54698452Y-66345595D02*
X54650833Y-66321785D01*
X54650833Y-66321785D02*
X54531785Y-66321785D01*
X54531785Y-66321785D02*
X54484166Y-66345595D01*
X54484166Y-66345595D02*
X54460357Y-66369404D01*
X54460357Y-66369404D02*
X54436547Y-66417023D01*
X54436547Y-66417023D02*
X54436547Y-66536071D01*
X54436547Y-66536071D02*
X54460357Y-66583690D01*
X54460357Y-66583690D02*
X54484166Y-66607500D01*
X54484166Y-66607500D02*
X54531785Y-66631309D01*
X54531785Y-66631309D02*
X54650833Y-66631309D01*
X54650833Y-66631309D02*
X54698452Y-66607500D01*
X54698452Y-66607500D02*
X54722261Y-66583690D01*
X100321428Y-84613690D02*
X100345237Y-84637500D01*
X100345237Y-84637500D02*
X100416666Y-84661309D01*
X100416666Y-84661309D02*
X100464285Y-84661309D01*
X100464285Y-84661309D02*
X100535713Y-84637500D01*
X100535713Y-84637500D02*
X100583332Y-84589880D01*
X100583332Y-84589880D02*
X100607142Y-84542261D01*
X100607142Y-84542261D02*
X100630951Y-84447023D01*
X100630951Y-84447023D02*
X100630951Y-84375595D01*
X100630951Y-84375595D02*
X100607142Y-84280357D01*
X100607142Y-84280357D02*
X100583332Y-84232738D01*
X100583332Y-84232738D02*
X100535713Y-84185119D01*
X100535713Y-84185119D02*
X100464285Y-84161309D01*
X100464285Y-84161309D02*
X100416666Y-84161309D01*
X100416666Y-84161309D02*
X100345237Y-84185119D01*
X100345237Y-84185119D02*
X100321428Y-84208928D01*
X99892856Y-84327976D02*
X99892856Y-84661309D01*
X100011904Y-84137500D02*
X100130951Y-84494642D01*
X100130951Y-84494642D02*
X99821428Y-84494642D01*
X99654761Y-84208928D02*
X99630952Y-84185119D01*
X99630952Y-84185119D02*
X99583333Y-84161309D01*
X99583333Y-84161309D02*
X99464285Y-84161309D01*
X99464285Y-84161309D02*
X99416666Y-84185119D01*
X99416666Y-84185119D02*
X99392857Y-84208928D01*
X99392857Y-84208928D02*
X99369047Y-84256547D01*
X99369047Y-84256547D02*
X99369047Y-84304166D01*
X99369047Y-84304166D02*
X99392857Y-84375595D01*
X99392857Y-84375595D02*
X99678571Y-84661309D01*
X99678571Y-84661309D02*
X99369047Y-84661309D01*
X84283333Y-105983690D02*
X84307142Y-106007500D01*
X84307142Y-106007500D02*
X84378571Y-106031309D01*
X84378571Y-106031309D02*
X84426190Y-106031309D01*
X84426190Y-106031309D02*
X84497618Y-106007500D01*
X84497618Y-106007500D02*
X84545237Y-105959880D01*
X84545237Y-105959880D02*
X84569047Y-105912261D01*
X84569047Y-105912261D02*
X84592856Y-105817023D01*
X84592856Y-105817023D02*
X84592856Y-105745595D01*
X84592856Y-105745595D02*
X84569047Y-105650357D01*
X84569047Y-105650357D02*
X84545237Y-105602738D01*
X84545237Y-105602738D02*
X84497618Y-105555119D01*
X84497618Y-105555119D02*
X84426190Y-105531309D01*
X84426190Y-105531309D02*
X84378571Y-105531309D01*
X84378571Y-105531309D02*
X84307142Y-105555119D01*
X84307142Y-105555119D02*
X84283333Y-105578928D01*
X83854761Y-105531309D02*
X83949999Y-105531309D01*
X83949999Y-105531309D02*
X83997618Y-105555119D01*
X83997618Y-105555119D02*
X84021428Y-105578928D01*
X84021428Y-105578928D02*
X84069047Y-105650357D01*
X84069047Y-105650357D02*
X84092856Y-105745595D01*
X84092856Y-105745595D02*
X84092856Y-105936071D01*
X84092856Y-105936071D02*
X84069047Y-105983690D01*
X84069047Y-105983690D02*
X84045237Y-106007500D01*
X84045237Y-106007500D02*
X83997618Y-106031309D01*
X83997618Y-106031309D02*
X83902380Y-106031309D01*
X83902380Y-106031309D02*
X83854761Y-106007500D01*
X83854761Y-106007500D02*
X83830952Y-105983690D01*
X83830952Y-105983690D02*
X83807142Y-105936071D01*
X83807142Y-105936071D02*
X83807142Y-105817023D01*
X83807142Y-105817023D02*
X83830952Y-105769404D01*
X83830952Y-105769404D02*
X83854761Y-105745595D01*
X83854761Y-105745595D02*
X83902380Y-105721785D01*
X83902380Y-105721785D02*
X83997618Y-105721785D01*
X83997618Y-105721785D02*
X84045237Y-105745595D01*
X84045237Y-105745595D02*
X84069047Y-105769404D01*
X84069047Y-105769404D02*
X84092856Y-105817023D01*
X119983333Y-44283690D02*
X120007142Y-44307500D01*
X120007142Y-44307500D02*
X120078571Y-44331309D01*
X120078571Y-44331309D02*
X120126190Y-44331309D01*
X120126190Y-44331309D02*
X120197618Y-44307500D01*
X120197618Y-44307500D02*
X120245237Y-44259880D01*
X120245237Y-44259880D02*
X120269047Y-44212261D01*
X120269047Y-44212261D02*
X120292856Y-44117023D01*
X120292856Y-44117023D02*
X120292856Y-44045595D01*
X120292856Y-44045595D02*
X120269047Y-43950357D01*
X120269047Y-43950357D02*
X120245237Y-43902738D01*
X120245237Y-43902738D02*
X120197618Y-43855119D01*
X120197618Y-43855119D02*
X120126190Y-43831309D01*
X120126190Y-43831309D02*
X120078571Y-43831309D01*
X120078571Y-43831309D02*
X120007142Y-43855119D01*
X120007142Y-43855119D02*
X119983333Y-43878928D01*
X119816666Y-43831309D02*
X119507142Y-43831309D01*
X119507142Y-43831309D02*
X119673809Y-44021785D01*
X119673809Y-44021785D02*
X119602380Y-44021785D01*
X119602380Y-44021785D02*
X119554761Y-44045595D01*
X119554761Y-44045595D02*
X119530952Y-44069404D01*
X119530952Y-44069404D02*
X119507142Y-44117023D01*
X119507142Y-44117023D02*
X119507142Y-44236071D01*
X119507142Y-44236071D02*
X119530952Y-44283690D01*
X119530952Y-44283690D02*
X119554761Y-44307500D01*
X119554761Y-44307500D02*
X119602380Y-44331309D01*
X119602380Y-44331309D02*
X119745237Y-44331309D01*
X119745237Y-44331309D02*
X119792856Y-44307500D01*
X119792856Y-44307500D02*
X119816666Y-44283690D01*
X68683333Y-59176190D02*
X68707142Y-59200000D01*
X68707142Y-59200000D02*
X68778571Y-59223809D01*
X68778571Y-59223809D02*
X68826190Y-59223809D01*
X68826190Y-59223809D02*
X68897618Y-59200000D01*
X68897618Y-59200000D02*
X68945237Y-59152380D01*
X68945237Y-59152380D02*
X68969047Y-59104761D01*
X68969047Y-59104761D02*
X68992856Y-59009523D01*
X68992856Y-59009523D02*
X68992856Y-58938095D01*
X68992856Y-58938095D02*
X68969047Y-58842857D01*
X68969047Y-58842857D02*
X68945237Y-58795238D01*
X68945237Y-58795238D02*
X68897618Y-58747619D01*
X68897618Y-58747619D02*
X68826190Y-58723809D01*
X68826190Y-58723809D02*
X68778571Y-58723809D01*
X68778571Y-58723809D02*
X68707142Y-58747619D01*
X68707142Y-58747619D02*
X68683333Y-58771428D01*
X68445237Y-59223809D02*
X68349999Y-59223809D01*
X68349999Y-59223809D02*
X68302380Y-59200000D01*
X68302380Y-59200000D02*
X68278571Y-59176190D01*
X68278571Y-59176190D02*
X68230952Y-59104761D01*
X68230952Y-59104761D02*
X68207142Y-59009523D01*
X68207142Y-59009523D02*
X68207142Y-58819047D01*
X68207142Y-58819047D02*
X68230952Y-58771428D01*
X68230952Y-58771428D02*
X68254761Y-58747619D01*
X68254761Y-58747619D02*
X68302380Y-58723809D01*
X68302380Y-58723809D02*
X68397618Y-58723809D01*
X68397618Y-58723809D02*
X68445237Y-58747619D01*
X68445237Y-58747619D02*
X68469047Y-58771428D01*
X68469047Y-58771428D02*
X68492856Y-58819047D01*
X68492856Y-58819047D02*
X68492856Y-58938095D01*
X68492856Y-58938095D02*
X68469047Y-58985714D01*
X68469047Y-58985714D02*
X68445237Y-59009523D01*
X68445237Y-59009523D02*
X68397618Y-59033333D01*
X68397618Y-59033333D02*
X68302380Y-59033333D01*
X68302380Y-59033333D02*
X68254761Y-59009523D01*
X68254761Y-59009523D02*
X68230952Y-58985714D01*
X68230952Y-58985714D02*
X68207142Y-58938095D01*
X117721428Y-64351190D02*
X117745237Y-64375000D01*
X117745237Y-64375000D02*
X117816666Y-64398809D01*
X117816666Y-64398809D02*
X117864285Y-64398809D01*
X117864285Y-64398809D02*
X117935713Y-64375000D01*
X117935713Y-64375000D02*
X117983332Y-64327380D01*
X117983332Y-64327380D02*
X118007142Y-64279761D01*
X118007142Y-64279761D02*
X118030951Y-64184523D01*
X118030951Y-64184523D02*
X118030951Y-64113095D01*
X118030951Y-64113095D02*
X118007142Y-64017857D01*
X118007142Y-64017857D02*
X117983332Y-63970238D01*
X117983332Y-63970238D02*
X117935713Y-63922619D01*
X117935713Y-63922619D02*
X117864285Y-63898809D01*
X117864285Y-63898809D02*
X117816666Y-63898809D01*
X117816666Y-63898809D02*
X117745237Y-63922619D01*
X117745237Y-63922619D02*
X117721428Y-63946428D01*
X117292856Y-63898809D02*
X117388094Y-63898809D01*
X117388094Y-63898809D02*
X117435713Y-63922619D01*
X117435713Y-63922619D02*
X117459523Y-63946428D01*
X117459523Y-63946428D02*
X117507142Y-64017857D01*
X117507142Y-64017857D02*
X117530951Y-64113095D01*
X117530951Y-64113095D02*
X117530951Y-64303571D01*
X117530951Y-64303571D02*
X117507142Y-64351190D01*
X117507142Y-64351190D02*
X117483332Y-64375000D01*
X117483332Y-64375000D02*
X117435713Y-64398809D01*
X117435713Y-64398809D02*
X117340475Y-64398809D01*
X117340475Y-64398809D02*
X117292856Y-64375000D01*
X117292856Y-64375000D02*
X117269047Y-64351190D01*
X117269047Y-64351190D02*
X117245237Y-64303571D01*
X117245237Y-64303571D02*
X117245237Y-64184523D01*
X117245237Y-64184523D02*
X117269047Y-64136904D01*
X117269047Y-64136904D02*
X117292856Y-64113095D01*
X117292856Y-64113095D02*
X117340475Y-64089285D01*
X117340475Y-64089285D02*
X117435713Y-64089285D01*
X117435713Y-64089285D02*
X117483332Y-64113095D01*
X117483332Y-64113095D02*
X117507142Y-64136904D01*
X117507142Y-64136904D02*
X117530951Y-64184523D01*
X117078571Y-63898809D02*
X116745238Y-63898809D01*
X116745238Y-63898809D02*
X116959523Y-64398809D01*
X119521428Y-83083690D02*
X119545237Y-83107500D01*
X119545237Y-83107500D02*
X119616666Y-83131309D01*
X119616666Y-83131309D02*
X119664285Y-83131309D01*
X119664285Y-83131309D02*
X119735713Y-83107500D01*
X119735713Y-83107500D02*
X119783332Y-83059880D01*
X119783332Y-83059880D02*
X119807142Y-83012261D01*
X119807142Y-83012261D02*
X119830951Y-82917023D01*
X119830951Y-82917023D02*
X119830951Y-82845595D01*
X119830951Y-82845595D02*
X119807142Y-82750357D01*
X119807142Y-82750357D02*
X119783332Y-82702738D01*
X119783332Y-82702738D02*
X119735713Y-82655119D01*
X119735713Y-82655119D02*
X119664285Y-82631309D01*
X119664285Y-82631309D02*
X119616666Y-82631309D01*
X119616666Y-82631309D02*
X119545237Y-82655119D01*
X119545237Y-82655119D02*
X119521428Y-82678928D01*
X119092856Y-82797976D02*
X119092856Y-83131309D01*
X119211904Y-82607500D02*
X119330951Y-82964642D01*
X119330951Y-82964642D02*
X119021428Y-82964642D01*
X118592857Y-82631309D02*
X118830952Y-82631309D01*
X118830952Y-82631309D02*
X118854761Y-82869404D01*
X118854761Y-82869404D02*
X118830952Y-82845595D01*
X118830952Y-82845595D02*
X118783333Y-82821785D01*
X118783333Y-82821785D02*
X118664285Y-82821785D01*
X118664285Y-82821785D02*
X118616666Y-82845595D01*
X118616666Y-82845595D02*
X118592857Y-82869404D01*
X118592857Y-82869404D02*
X118569047Y-82917023D01*
X118569047Y-82917023D02*
X118569047Y-83036071D01*
X118569047Y-83036071D02*
X118592857Y-83083690D01*
X118592857Y-83083690D02*
X118616666Y-83107500D01*
X118616666Y-83107500D02*
X118664285Y-83131309D01*
X118664285Y-83131309D02*
X118783333Y-83131309D01*
X118783333Y-83131309D02*
X118830952Y-83107500D01*
X118830952Y-83107500D02*
X118854761Y-83083690D01*
X100221428Y-88183690D02*
X100245237Y-88207500D01*
X100245237Y-88207500D02*
X100316666Y-88231309D01*
X100316666Y-88231309D02*
X100364285Y-88231309D01*
X100364285Y-88231309D02*
X100435713Y-88207500D01*
X100435713Y-88207500D02*
X100483332Y-88159880D01*
X100483332Y-88159880D02*
X100507142Y-88112261D01*
X100507142Y-88112261D02*
X100530951Y-88017023D01*
X100530951Y-88017023D02*
X100530951Y-87945595D01*
X100530951Y-87945595D02*
X100507142Y-87850357D01*
X100507142Y-87850357D02*
X100483332Y-87802738D01*
X100483332Y-87802738D02*
X100435713Y-87755119D01*
X100435713Y-87755119D02*
X100364285Y-87731309D01*
X100364285Y-87731309D02*
X100316666Y-87731309D01*
X100316666Y-87731309D02*
X100245237Y-87755119D01*
X100245237Y-87755119D02*
X100221428Y-87778928D01*
X99792856Y-87897976D02*
X99792856Y-88231309D01*
X99911904Y-87707500D02*
X100030951Y-88064642D01*
X100030951Y-88064642D02*
X99721428Y-88064642D01*
X99578571Y-87731309D02*
X99269047Y-87731309D01*
X99269047Y-87731309D02*
X99435714Y-87921785D01*
X99435714Y-87921785D02*
X99364285Y-87921785D01*
X99364285Y-87921785D02*
X99316666Y-87945595D01*
X99316666Y-87945595D02*
X99292857Y-87969404D01*
X99292857Y-87969404D02*
X99269047Y-88017023D01*
X99269047Y-88017023D02*
X99269047Y-88136071D01*
X99269047Y-88136071D02*
X99292857Y-88183690D01*
X99292857Y-88183690D02*
X99316666Y-88207500D01*
X99316666Y-88207500D02*
X99364285Y-88231309D01*
X99364285Y-88231309D02*
X99507142Y-88231309D01*
X99507142Y-88231309D02*
X99554761Y-88207500D01*
X99554761Y-88207500D02*
X99578571Y-88183690D01*
D11*
X63095000Y-94813767D02*
X63095000Y-94521233D01*
X64115000Y-94813767D02*
X64115000Y-94521233D01*
X104415000Y-81838767D02*
X104415000Y-81546233D01*
X103395000Y-81838767D02*
X103395000Y-81546233D01*
X101195000Y-92976267D02*
X101195000Y-92683733D01*
X102215000Y-92976267D02*
X102215000Y-92683733D01*
X125351267Y-86740000D02*
X125058733Y-86740000D01*
X125351267Y-85720000D02*
X125058733Y-85720000D01*
X105458733Y-67040000D02*
X105751267Y-67040000D01*
X105458733Y-66020000D02*
X105751267Y-66020000D01*
X76688767Y-98540000D02*
X76396233Y-98540000D01*
X76688767Y-97520000D02*
X76396233Y-97520000D01*
X103295000Y-91046233D02*
X103295000Y-91338767D01*
X104315000Y-91046233D02*
X104315000Y-91338767D01*
X102896233Y-55240000D02*
X103188767Y-55240000D01*
X102896233Y-54220000D02*
X103188767Y-54220000D01*
X61858733Y-75220000D02*
X62151267Y-75220000D01*
X61858733Y-76240000D02*
X62151267Y-76240000D01*
X115851267Y-49540000D02*
X115558733Y-49540000D01*
X115851267Y-48520000D02*
X115558733Y-48520000D01*
X102295000Y-58383733D02*
X102295000Y-58676267D01*
X103315000Y-58383733D02*
X103315000Y-58676267D01*
X66595000Y-62283733D02*
X66595000Y-62576267D01*
X67615000Y-62283733D02*
X67615000Y-62576267D01*
X90351267Y-65820000D02*
X90058733Y-65820000D01*
X90351267Y-66840000D02*
X90058733Y-66840000D01*
X103188767Y-69540000D02*
X102896233Y-69540000D01*
X103188767Y-68520000D02*
X102896233Y-68520000D01*
X62083733Y-73640000D02*
X62376267Y-73640000D01*
X62083733Y-72620000D02*
X62376267Y-72620000D01*
X47840000Y-107736267D02*
X47840000Y-107443733D01*
X48860000Y-107736267D02*
X48860000Y-107443733D01*
X65221233Y-83020000D02*
X65513767Y-83020000D01*
X65221233Y-84040000D02*
X65513767Y-84040000D01*
X104895000Y-62883733D02*
X104895000Y-63176267D01*
X105915000Y-62883733D02*
X105915000Y-63176267D01*
X64015000Y-86738767D02*
X64015000Y-86446233D01*
X62995000Y-86738767D02*
X62995000Y-86446233D01*
X64395000Y-97883733D02*
X64395000Y-98176267D01*
X65415000Y-97883733D02*
X65415000Y-98176267D01*
X81115000Y-49683733D02*
X81115000Y-49976267D01*
X80095000Y-49683733D02*
X80095000Y-49976267D01*
X56615000Y-53538767D02*
X56615000Y-53246233D01*
X55595000Y-53538767D02*
X55595000Y-53246233D01*
X87195000Y-82576267D02*
X87195000Y-82283733D01*
X88215000Y-82576267D02*
X88215000Y-82283733D01*
X86051267Y-86220000D02*
X85758733Y-86220000D01*
X86051267Y-87240000D02*
X85758733Y-87240000D01*
X68095000Y-68146233D02*
X68095000Y-68438767D01*
X69115000Y-68146233D02*
X69115000Y-68438767D01*
X82495000Y-44921233D02*
X82495000Y-45213767D01*
X83515000Y-44921233D02*
X83515000Y-45213767D01*
X65195000Y-89313767D02*
X65195000Y-89021233D01*
X66215000Y-89313767D02*
X66215000Y-89021233D01*
X92696233Y-56320000D02*
X92988767Y-56320000D01*
X92696233Y-57340000D02*
X92988767Y-57340000D01*
X78396233Y-86740000D02*
X78688767Y-86740000D01*
X78396233Y-85720000D02*
X78688767Y-85720000D01*
X69983733Y-56820000D02*
X70276267Y-56820000D01*
X69983733Y-57840000D02*
X70276267Y-57840000D01*
X113395000Y-96821233D02*
X113395000Y-97113767D01*
X114415000Y-96821233D02*
X114415000Y-97113767D01*
X67395000Y-53701267D02*
X67395000Y-53408733D01*
X68415000Y-53701267D02*
X68415000Y-53408733D01*
X102295000Y-61783733D02*
X102295000Y-62076267D01*
X103315000Y-61783733D02*
X103315000Y-62076267D01*
X66315000Y-92783733D02*
X66315000Y-93076267D01*
X65295000Y-92783733D02*
X65295000Y-93076267D01*
X104715000Y-97021233D02*
X104715000Y-97313767D01*
X103695000Y-97021233D02*
X103695000Y-97313767D01*
X55213767Y-67320000D02*
X54921233Y-67320000D01*
X55213767Y-68340000D02*
X54921233Y-68340000D01*
X101095000Y-84576267D02*
X101095000Y-84283733D01*
X102115000Y-84576267D02*
X102115000Y-84283733D01*
X85190000Y-108258767D02*
X85190000Y-107966233D01*
X84170000Y-108258767D02*
X84170000Y-107966233D01*
X119040000Y-44926233D02*
X119040000Y-45218767D01*
X118020000Y-44926233D02*
X118020000Y-45218767D01*
X67615000Y-59138767D02*
X67615000Y-58846233D01*
X66595000Y-59138767D02*
X66595000Y-58846233D01*
X115295000Y-64313767D02*
X115295000Y-64021233D01*
X116315000Y-64313767D02*
X116315000Y-64021233D01*
X116496233Y-83340000D02*
X116788767Y-83340000D01*
X116496233Y-82320000D02*
X116788767Y-82320000D01*
X102115000Y-88113767D02*
X102115000Y-87821233D01*
X101095000Y-88113767D02*
X101095000Y-87821233D01*
M02*
