%TF.GenerationSoftware,KiCad,Pcbnew,7.0.1*%
%TF.CreationDate,2023-10-27T14:21:39-05:00*%
%TF.ProjectId,ramn,72616d6e-2e6b-4696-9361-645f70636258,V1.1*%
%TF.SameCoordinates,Original*%
%TF.FileFunction,Drillmap*%
%TF.FilePolarity,Positive*%
%FSLAX45Y45*%
G04 Gerber Fmt 4.5, Leading zero omitted, Abs format (unit mm)*
G04 Created by KiCad (PCBNEW 7.0.1) date 2023-10-27 14:21:39*
%MOMM*%
%LPD*%
G01*
G04 APERTURE LIST*
%ADD10C,0.050000*%
%ADD11C,0.200000*%
%ADD12C,0.080000*%
G04 APERTURE END LIST*
D10*
X3935000Y-4149000D02*
X13296288Y-4149000D01*
X13296288Y-11147000D01*
X3935000Y-11147000D01*
X3935000Y-4149000D01*
D11*
D12*
X4480500Y-6223000D02*
X4560500Y-6303000D01*
X4560500Y-6223000D02*
X4480500Y-6303000D01*
X4480500Y-6723000D02*
X4560500Y-6803000D01*
X4560500Y-6723000D02*
X4480500Y-6803000D01*
D11*
X4180119Y-11462024D02*
X4180119Y-11262024D01*
X4180119Y-11262024D02*
X4227738Y-11262024D01*
X4227738Y-11262024D02*
X4256310Y-11271548D01*
X4256310Y-11271548D02*
X4275357Y-11290595D01*
X4275357Y-11290595D02*
X4284881Y-11309643D01*
X4284881Y-11309643D02*
X4294405Y-11347738D01*
X4294405Y-11347738D02*
X4294405Y-11376309D01*
X4294405Y-11376309D02*
X4284881Y-11414405D01*
X4284881Y-11414405D02*
X4275357Y-11433452D01*
X4275357Y-11433452D02*
X4256310Y-11452500D01*
X4256310Y-11452500D02*
X4227738Y-11462024D01*
X4227738Y-11462024D02*
X4180119Y-11462024D01*
X4380119Y-11462024D02*
X4380119Y-11328690D01*
X4380119Y-11366786D02*
X4389643Y-11347738D01*
X4389643Y-11347738D02*
X4399167Y-11338214D01*
X4399167Y-11338214D02*
X4418214Y-11328690D01*
X4418214Y-11328690D02*
X4437262Y-11328690D01*
X4503929Y-11462024D02*
X4503929Y-11328690D01*
X4503929Y-11262024D02*
X4494405Y-11271548D01*
X4494405Y-11271548D02*
X4503929Y-11281071D01*
X4503929Y-11281071D02*
X4513452Y-11271548D01*
X4513452Y-11271548D02*
X4503929Y-11262024D01*
X4503929Y-11262024D02*
X4503929Y-11281071D01*
X4627738Y-11462024D02*
X4608690Y-11452500D01*
X4608690Y-11452500D02*
X4599167Y-11433452D01*
X4599167Y-11433452D02*
X4599167Y-11262024D01*
X4732500Y-11462024D02*
X4713452Y-11452500D01*
X4713452Y-11452500D02*
X4703929Y-11433452D01*
X4703929Y-11433452D02*
X4703929Y-11262024D01*
X4961071Y-11462024D02*
X4961071Y-11262024D01*
X4961071Y-11262024D02*
X5027738Y-11404881D01*
X5027738Y-11404881D02*
X5094405Y-11262024D01*
X5094405Y-11262024D02*
X5094405Y-11462024D01*
X5275357Y-11462024D02*
X5275357Y-11357262D01*
X5275357Y-11357262D02*
X5265833Y-11338214D01*
X5265833Y-11338214D02*
X5246786Y-11328690D01*
X5246786Y-11328690D02*
X5208690Y-11328690D01*
X5208690Y-11328690D02*
X5189643Y-11338214D01*
X5275357Y-11452500D02*
X5256310Y-11462024D01*
X5256310Y-11462024D02*
X5208690Y-11462024D01*
X5208690Y-11462024D02*
X5189643Y-11452500D01*
X5189643Y-11452500D02*
X5180119Y-11433452D01*
X5180119Y-11433452D02*
X5180119Y-11414405D01*
X5180119Y-11414405D02*
X5189643Y-11395357D01*
X5189643Y-11395357D02*
X5208690Y-11385833D01*
X5208690Y-11385833D02*
X5256310Y-11385833D01*
X5256310Y-11385833D02*
X5275357Y-11376309D01*
X5370595Y-11328690D02*
X5370595Y-11528690D01*
X5370595Y-11338214D02*
X5389643Y-11328690D01*
X5389643Y-11328690D02*
X5427738Y-11328690D01*
X5427738Y-11328690D02*
X5446786Y-11338214D01*
X5446786Y-11338214D02*
X5456310Y-11347738D01*
X5456310Y-11347738D02*
X5465833Y-11366786D01*
X5465833Y-11366786D02*
X5465833Y-11423928D01*
X5465833Y-11423928D02*
X5456310Y-11442976D01*
X5456310Y-11442976D02*
X5446786Y-11452500D01*
X5446786Y-11452500D02*
X5427738Y-11462024D01*
X5427738Y-11462024D02*
X5389643Y-11462024D01*
X5389643Y-11462024D02*
X5370595Y-11452500D01*
X5551548Y-11442976D02*
X5561071Y-11452500D01*
X5561071Y-11452500D02*
X5551548Y-11462024D01*
X5551548Y-11462024D02*
X5542024Y-11452500D01*
X5542024Y-11452500D02*
X5551548Y-11442976D01*
X5551548Y-11442976D02*
X5551548Y-11462024D01*
X5551548Y-11338214D02*
X5561071Y-11347738D01*
X5561071Y-11347738D02*
X5551548Y-11357262D01*
X5551548Y-11357262D02*
X5542024Y-11347738D01*
X5542024Y-11347738D02*
X5551548Y-11338214D01*
X5551548Y-11338214D02*
X5551548Y-11357262D01*
D12*
X3852500Y-11749500D02*
X3932500Y-11829500D01*
X3932500Y-11749500D02*
X3852500Y-11829500D01*
D11*
X4218214Y-11682024D02*
X4237262Y-11682024D01*
X4237262Y-11682024D02*
X4256310Y-11691548D01*
X4256310Y-11691548D02*
X4265833Y-11701071D01*
X4265833Y-11701071D02*
X4275357Y-11720119D01*
X4275357Y-11720119D02*
X4284881Y-11758214D01*
X4284881Y-11758214D02*
X4284881Y-11805833D01*
X4284881Y-11805833D02*
X4275357Y-11843928D01*
X4275357Y-11843928D02*
X4265833Y-11862976D01*
X4265833Y-11862976D02*
X4256310Y-11872500D01*
X4256310Y-11872500D02*
X4237262Y-11882024D01*
X4237262Y-11882024D02*
X4218214Y-11882024D01*
X4218214Y-11882024D02*
X4199167Y-11872500D01*
X4199167Y-11872500D02*
X4189643Y-11862976D01*
X4189643Y-11862976D02*
X4180119Y-11843928D01*
X4180119Y-11843928D02*
X4170595Y-11805833D01*
X4170595Y-11805833D02*
X4170595Y-11758214D01*
X4170595Y-11758214D02*
X4180119Y-11720119D01*
X4180119Y-11720119D02*
X4189643Y-11701071D01*
X4189643Y-11701071D02*
X4199167Y-11691548D01*
X4199167Y-11691548D02*
X4218214Y-11682024D01*
X4370595Y-11862976D02*
X4380119Y-11872500D01*
X4380119Y-11872500D02*
X4370595Y-11882024D01*
X4370595Y-11882024D02*
X4361071Y-11872500D01*
X4361071Y-11872500D02*
X4370595Y-11862976D01*
X4370595Y-11862976D02*
X4370595Y-11882024D01*
X4494405Y-11767738D02*
X4475357Y-11758214D01*
X4475357Y-11758214D02*
X4465833Y-11748690D01*
X4465833Y-11748690D02*
X4456310Y-11729643D01*
X4456310Y-11729643D02*
X4456310Y-11720119D01*
X4456310Y-11720119D02*
X4465833Y-11701071D01*
X4465833Y-11701071D02*
X4475357Y-11691548D01*
X4475357Y-11691548D02*
X4494405Y-11682024D01*
X4494405Y-11682024D02*
X4532500Y-11682024D01*
X4532500Y-11682024D02*
X4551548Y-11691548D01*
X4551548Y-11691548D02*
X4561071Y-11701071D01*
X4561071Y-11701071D02*
X4570595Y-11720119D01*
X4570595Y-11720119D02*
X4570595Y-11729643D01*
X4570595Y-11729643D02*
X4561071Y-11748690D01*
X4561071Y-11748690D02*
X4551548Y-11758214D01*
X4551548Y-11758214D02*
X4532500Y-11767738D01*
X4532500Y-11767738D02*
X4494405Y-11767738D01*
X4494405Y-11767738D02*
X4475357Y-11777262D01*
X4475357Y-11777262D02*
X4465833Y-11786786D01*
X4465833Y-11786786D02*
X4456310Y-11805833D01*
X4456310Y-11805833D02*
X4456310Y-11843928D01*
X4456310Y-11843928D02*
X4465833Y-11862976D01*
X4465833Y-11862976D02*
X4475357Y-11872500D01*
X4475357Y-11872500D02*
X4494405Y-11882024D01*
X4494405Y-11882024D02*
X4532500Y-11882024D01*
X4532500Y-11882024D02*
X4551548Y-11872500D01*
X4551548Y-11872500D02*
X4561071Y-11862976D01*
X4561071Y-11862976D02*
X4570595Y-11843928D01*
X4570595Y-11843928D02*
X4570595Y-11805833D01*
X4570595Y-11805833D02*
X4561071Y-11786786D01*
X4561071Y-11786786D02*
X4551548Y-11777262D01*
X4551548Y-11777262D02*
X4532500Y-11767738D01*
X4694405Y-11682024D02*
X4713452Y-11682024D01*
X4713452Y-11682024D02*
X4732500Y-11691548D01*
X4732500Y-11691548D02*
X4742024Y-11701071D01*
X4742024Y-11701071D02*
X4751548Y-11720119D01*
X4751548Y-11720119D02*
X4761071Y-11758214D01*
X4761071Y-11758214D02*
X4761071Y-11805833D01*
X4761071Y-11805833D02*
X4751548Y-11843928D01*
X4751548Y-11843928D02*
X4742024Y-11862976D01*
X4742024Y-11862976D02*
X4732500Y-11872500D01*
X4732500Y-11872500D02*
X4713452Y-11882024D01*
X4713452Y-11882024D02*
X4694405Y-11882024D01*
X4694405Y-11882024D02*
X4675357Y-11872500D01*
X4675357Y-11872500D02*
X4665833Y-11862976D01*
X4665833Y-11862976D02*
X4656310Y-11843928D01*
X4656310Y-11843928D02*
X4646786Y-11805833D01*
X4646786Y-11805833D02*
X4646786Y-11758214D01*
X4646786Y-11758214D02*
X4656310Y-11720119D01*
X4656310Y-11720119D02*
X4665833Y-11701071D01*
X4665833Y-11701071D02*
X4675357Y-11691548D01*
X4675357Y-11691548D02*
X4694405Y-11682024D01*
X4884881Y-11682024D02*
X4903929Y-11682024D01*
X4903929Y-11682024D02*
X4922976Y-11691548D01*
X4922976Y-11691548D02*
X4932500Y-11701071D01*
X4932500Y-11701071D02*
X4942024Y-11720119D01*
X4942024Y-11720119D02*
X4951548Y-11758214D01*
X4951548Y-11758214D02*
X4951548Y-11805833D01*
X4951548Y-11805833D02*
X4942024Y-11843928D01*
X4942024Y-11843928D02*
X4932500Y-11862976D01*
X4932500Y-11862976D02*
X4922976Y-11872500D01*
X4922976Y-11872500D02*
X4903929Y-11882024D01*
X4903929Y-11882024D02*
X4884881Y-11882024D01*
X4884881Y-11882024D02*
X4865833Y-11872500D01*
X4865833Y-11872500D02*
X4856310Y-11862976D01*
X4856310Y-11862976D02*
X4846786Y-11843928D01*
X4846786Y-11843928D02*
X4837262Y-11805833D01*
X4837262Y-11805833D02*
X4837262Y-11758214D01*
X4837262Y-11758214D02*
X4846786Y-11720119D01*
X4846786Y-11720119D02*
X4856310Y-11701071D01*
X4856310Y-11701071D02*
X4865833Y-11691548D01*
X4865833Y-11691548D02*
X4884881Y-11682024D01*
X5037262Y-11882024D02*
X5037262Y-11748690D01*
X5037262Y-11767738D02*
X5046786Y-11758214D01*
X5046786Y-11758214D02*
X5065833Y-11748690D01*
X5065833Y-11748690D02*
X5094405Y-11748690D01*
X5094405Y-11748690D02*
X5113452Y-11758214D01*
X5113452Y-11758214D02*
X5122976Y-11777262D01*
X5122976Y-11777262D02*
X5122976Y-11882024D01*
X5122976Y-11777262D02*
X5132500Y-11758214D01*
X5132500Y-11758214D02*
X5151548Y-11748690D01*
X5151548Y-11748690D02*
X5180119Y-11748690D01*
X5180119Y-11748690D02*
X5199167Y-11758214D01*
X5199167Y-11758214D02*
X5208691Y-11777262D01*
X5208691Y-11777262D02*
X5208691Y-11882024D01*
X5303929Y-11882024D02*
X5303929Y-11748690D01*
X5303929Y-11767738D02*
X5313452Y-11758214D01*
X5313452Y-11758214D02*
X5332500Y-11748690D01*
X5332500Y-11748690D02*
X5361072Y-11748690D01*
X5361072Y-11748690D02*
X5380119Y-11758214D01*
X5380119Y-11758214D02*
X5389643Y-11777262D01*
X5389643Y-11777262D02*
X5389643Y-11882024D01*
X5389643Y-11777262D02*
X5399167Y-11758214D01*
X5399167Y-11758214D02*
X5418214Y-11748690D01*
X5418214Y-11748690D02*
X5446786Y-11748690D01*
X5446786Y-11748690D02*
X5465833Y-11758214D01*
X5465833Y-11758214D02*
X5475357Y-11777262D01*
X5475357Y-11777262D02*
X5475357Y-11882024D01*
X5865833Y-11672500D02*
X5694405Y-11929643D01*
X6122976Y-11682024D02*
X6142024Y-11682024D01*
X6142024Y-11682024D02*
X6161072Y-11691548D01*
X6161072Y-11691548D02*
X6170595Y-11701071D01*
X6170595Y-11701071D02*
X6180119Y-11720119D01*
X6180119Y-11720119D02*
X6189643Y-11758214D01*
X6189643Y-11758214D02*
X6189643Y-11805833D01*
X6189643Y-11805833D02*
X6180119Y-11843928D01*
X6180119Y-11843928D02*
X6170595Y-11862976D01*
X6170595Y-11862976D02*
X6161072Y-11872500D01*
X6161072Y-11872500D02*
X6142024Y-11882024D01*
X6142024Y-11882024D02*
X6122976Y-11882024D01*
X6122976Y-11882024D02*
X6103929Y-11872500D01*
X6103929Y-11872500D02*
X6094405Y-11862976D01*
X6094405Y-11862976D02*
X6084881Y-11843928D01*
X6084881Y-11843928D02*
X6075357Y-11805833D01*
X6075357Y-11805833D02*
X6075357Y-11758214D01*
X6075357Y-11758214D02*
X6084881Y-11720119D01*
X6084881Y-11720119D02*
X6094405Y-11701071D01*
X6094405Y-11701071D02*
X6103929Y-11691548D01*
X6103929Y-11691548D02*
X6122976Y-11682024D01*
X6275357Y-11862976D02*
X6284881Y-11872500D01*
X6284881Y-11872500D02*
X6275357Y-11882024D01*
X6275357Y-11882024D02*
X6265833Y-11872500D01*
X6265833Y-11872500D02*
X6275357Y-11862976D01*
X6275357Y-11862976D02*
X6275357Y-11882024D01*
X6408691Y-11682024D02*
X6427738Y-11682024D01*
X6427738Y-11682024D02*
X6446786Y-11691548D01*
X6446786Y-11691548D02*
X6456310Y-11701071D01*
X6456310Y-11701071D02*
X6465833Y-11720119D01*
X6465833Y-11720119D02*
X6475357Y-11758214D01*
X6475357Y-11758214D02*
X6475357Y-11805833D01*
X6475357Y-11805833D02*
X6465833Y-11843928D01*
X6465833Y-11843928D02*
X6456310Y-11862976D01*
X6456310Y-11862976D02*
X6446786Y-11872500D01*
X6446786Y-11872500D02*
X6427738Y-11882024D01*
X6427738Y-11882024D02*
X6408691Y-11882024D01*
X6408691Y-11882024D02*
X6389643Y-11872500D01*
X6389643Y-11872500D02*
X6380119Y-11862976D01*
X6380119Y-11862976D02*
X6370595Y-11843928D01*
X6370595Y-11843928D02*
X6361072Y-11805833D01*
X6361072Y-11805833D02*
X6361072Y-11758214D01*
X6361072Y-11758214D02*
X6370595Y-11720119D01*
X6370595Y-11720119D02*
X6380119Y-11701071D01*
X6380119Y-11701071D02*
X6389643Y-11691548D01*
X6389643Y-11691548D02*
X6408691Y-11682024D01*
X6542024Y-11682024D02*
X6665833Y-11682024D01*
X6665833Y-11682024D02*
X6599167Y-11758214D01*
X6599167Y-11758214D02*
X6627738Y-11758214D01*
X6627738Y-11758214D02*
X6646786Y-11767738D01*
X6646786Y-11767738D02*
X6656310Y-11777262D01*
X6656310Y-11777262D02*
X6665833Y-11796309D01*
X6665833Y-11796309D02*
X6665833Y-11843928D01*
X6665833Y-11843928D02*
X6656310Y-11862976D01*
X6656310Y-11862976D02*
X6646786Y-11872500D01*
X6646786Y-11872500D02*
X6627738Y-11882024D01*
X6627738Y-11882024D02*
X6570595Y-11882024D01*
X6570595Y-11882024D02*
X6551548Y-11872500D01*
X6551548Y-11872500D02*
X6542024Y-11862976D01*
X6856310Y-11882024D02*
X6742024Y-11882024D01*
X6799167Y-11882024D02*
X6799167Y-11682024D01*
X6799167Y-11682024D02*
X6780119Y-11710595D01*
X6780119Y-11710595D02*
X6761072Y-11729643D01*
X6761072Y-11729643D02*
X6742024Y-11739167D01*
X7037262Y-11682024D02*
X6942024Y-11682024D01*
X6942024Y-11682024D02*
X6932500Y-11777262D01*
X6932500Y-11777262D02*
X6942024Y-11767738D01*
X6942024Y-11767738D02*
X6961072Y-11758214D01*
X6961072Y-11758214D02*
X7008691Y-11758214D01*
X7008691Y-11758214D02*
X7027738Y-11767738D01*
X7027738Y-11767738D02*
X7037262Y-11777262D01*
X7037262Y-11777262D02*
X7046786Y-11796309D01*
X7046786Y-11796309D02*
X7046786Y-11843928D01*
X7046786Y-11843928D02*
X7037262Y-11862976D01*
X7037262Y-11862976D02*
X7027738Y-11872500D01*
X7027738Y-11872500D02*
X7008691Y-11882024D01*
X7008691Y-11882024D02*
X6961072Y-11882024D01*
X6961072Y-11882024D02*
X6942024Y-11872500D01*
X6942024Y-11872500D02*
X6932500Y-11862976D01*
X7122976Y-11682024D02*
X7122976Y-11720119D01*
X7199167Y-11682024D02*
X7199167Y-11720119D01*
X7494405Y-11958214D02*
X7484881Y-11948690D01*
X7484881Y-11948690D02*
X7465834Y-11920119D01*
X7465834Y-11920119D02*
X7456310Y-11901071D01*
X7456310Y-11901071D02*
X7446786Y-11872500D01*
X7446786Y-11872500D02*
X7437262Y-11824881D01*
X7437262Y-11824881D02*
X7437262Y-11786786D01*
X7437262Y-11786786D02*
X7446786Y-11739167D01*
X7446786Y-11739167D02*
X7456310Y-11710595D01*
X7456310Y-11710595D02*
X7465834Y-11691548D01*
X7465834Y-11691548D02*
X7484881Y-11662976D01*
X7484881Y-11662976D02*
X7494405Y-11653452D01*
X7561072Y-11701071D02*
X7570595Y-11691548D01*
X7570595Y-11691548D02*
X7589643Y-11682024D01*
X7589643Y-11682024D02*
X7637262Y-11682024D01*
X7637262Y-11682024D02*
X7656310Y-11691548D01*
X7656310Y-11691548D02*
X7665834Y-11701071D01*
X7665834Y-11701071D02*
X7675357Y-11720119D01*
X7675357Y-11720119D02*
X7675357Y-11739167D01*
X7675357Y-11739167D02*
X7665834Y-11767738D01*
X7665834Y-11767738D02*
X7551548Y-11882024D01*
X7551548Y-11882024D02*
X7675357Y-11882024D01*
X7913453Y-11882024D02*
X7913453Y-11682024D01*
X7999167Y-11882024D02*
X7999167Y-11777262D01*
X7999167Y-11777262D02*
X7989643Y-11758214D01*
X7989643Y-11758214D02*
X7970596Y-11748690D01*
X7970596Y-11748690D02*
X7942024Y-11748690D01*
X7942024Y-11748690D02*
X7922976Y-11758214D01*
X7922976Y-11758214D02*
X7913453Y-11767738D01*
X8122976Y-11882024D02*
X8103929Y-11872500D01*
X8103929Y-11872500D02*
X8094405Y-11862976D01*
X8094405Y-11862976D02*
X8084881Y-11843928D01*
X8084881Y-11843928D02*
X8084881Y-11786786D01*
X8084881Y-11786786D02*
X8094405Y-11767738D01*
X8094405Y-11767738D02*
X8103929Y-11758214D01*
X8103929Y-11758214D02*
X8122976Y-11748690D01*
X8122976Y-11748690D02*
X8151548Y-11748690D01*
X8151548Y-11748690D02*
X8170596Y-11758214D01*
X8170596Y-11758214D02*
X8180119Y-11767738D01*
X8180119Y-11767738D02*
X8189643Y-11786786D01*
X8189643Y-11786786D02*
X8189643Y-11843928D01*
X8189643Y-11843928D02*
X8180119Y-11862976D01*
X8180119Y-11862976D02*
X8170596Y-11872500D01*
X8170596Y-11872500D02*
X8151548Y-11882024D01*
X8151548Y-11882024D02*
X8122976Y-11882024D01*
X8303929Y-11882024D02*
X8284881Y-11872500D01*
X8284881Y-11872500D02*
X8275357Y-11853452D01*
X8275357Y-11853452D02*
X8275357Y-11682024D01*
X8456310Y-11872500D02*
X8437262Y-11882024D01*
X8437262Y-11882024D02*
X8399167Y-11882024D01*
X8399167Y-11882024D02*
X8380119Y-11872500D01*
X8380119Y-11872500D02*
X8370596Y-11853452D01*
X8370596Y-11853452D02*
X8370596Y-11777262D01*
X8370596Y-11777262D02*
X8380119Y-11758214D01*
X8380119Y-11758214D02*
X8399167Y-11748690D01*
X8399167Y-11748690D02*
X8437262Y-11748690D01*
X8437262Y-11748690D02*
X8456310Y-11758214D01*
X8456310Y-11758214D02*
X8465834Y-11777262D01*
X8465834Y-11777262D02*
X8465834Y-11796309D01*
X8465834Y-11796309D02*
X8370596Y-11815357D01*
X8542024Y-11872500D02*
X8561072Y-11882024D01*
X8561072Y-11882024D02*
X8599167Y-11882024D01*
X8599167Y-11882024D02*
X8618215Y-11872500D01*
X8618215Y-11872500D02*
X8627739Y-11853452D01*
X8627739Y-11853452D02*
X8627739Y-11843928D01*
X8627739Y-11843928D02*
X8618215Y-11824881D01*
X8618215Y-11824881D02*
X8599167Y-11815357D01*
X8599167Y-11815357D02*
X8570596Y-11815357D01*
X8570596Y-11815357D02*
X8551548Y-11805833D01*
X8551548Y-11805833D02*
X8542024Y-11786786D01*
X8542024Y-11786786D02*
X8542024Y-11777262D01*
X8542024Y-11777262D02*
X8551548Y-11758214D01*
X8551548Y-11758214D02*
X8570596Y-11748690D01*
X8570596Y-11748690D02*
X8599167Y-11748690D01*
X8599167Y-11748690D02*
X8618215Y-11758214D01*
X8694405Y-11958214D02*
X8703929Y-11948690D01*
X8703929Y-11948690D02*
X8722977Y-11920119D01*
X8722977Y-11920119D02*
X8732500Y-11901071D01*
X8732500Y-11901071D02*
X8742024Y-11872500D01*
X8742024Y-11872500D02*
X8751548Y-11824881D01*
X8751548Y-11824881D02*
X8751548Y-11786786D01*
X8751548Y-11786786D02*
X8742024Y-11739167D01*
X8742024Y-11739167D02*
X8732500Y-11710595D01*
X8732500Y-11710595D02*
X8722977Y-11691548D01*
X8722977Y-11691548D02*
X8703929Y-11662976D01*
X8703929Y-11662976D02*
X8694405Y-11653452D01*
X9056310Y-11958214D02*
X9046786Y-11948690D01*
X9046786Y-11948690D02*
X9027739Y-11920119D01*
X9027739Y-11920119D02*
X9018215Y-11901071D01*
X9018215Y-11901071D02*
X9008691Y-11872500D01*
X9008691Y-11872500D02*
X8999167Y-11824881D01*
X8999167Y-11824881D02*
X8999167Y-11786786D01*
X8999167Y-11786786D02*
X9008691Y-11739167D01*
X9008691Y-11739167D02*
X9018215Y-11710595D01*
X9018215Y-11710595D02*
X9027739Y-11691548D01*
X9027739Y-11691548D02*
X9046786Y-11662976D01*
X9046786Y-11662976D02*
X9056310Y-11653452D01*
X9132500Y-11748690D02*
X9132500Y-11882024D01*
X9132500Y-11767738D02*
X9142024Y-11758214D01*
X9142024Y-11758214D02*
X9161072Y-11748690D01*
X9161072Y-11748690D02*
X9189643Y-11748690D01*
X9189643Y-11748690D02*
X9208691Y-11758214D01*
X9208691Y-11758214D02*
X9218215Y-11777262D01*
X9218215Y-11777262D02*
X9218215Y-11882024D01*
X9342024Y-11882024D02*
X9322977Y-11872500D01*
X9322977Y-11872500D02*
X9313453Y-11862976D01*
X9313453Y-11862976D02*
X9303929Y-11843928D01*
X9303929Y-11843928D02*
X9303929Y-11786786D01*
X9303929Y-11786786D02*
X9313453Y-11767738D01*
X9313453Y-11767738D02*
X9322977Y-11758214D01*
X9322977Y-11758214D02*
X9342024Y-11748690D01*
X9342024Y-11748690D02*
X9370596Y-11748690D01*
X9370596Y-11748690D02*
X9389643Y-11758214D01*
X9389643Y-11758214D02*
X9399167Y-11767738D01*
X9399167Y-11767738D02*
X9408691Y-11786786D01*
X9408691Y-11786786D02*
X9408691Y-11843928D01*
X9408691Y-11843928D02*
X9399167Y-11862976D01*
X9399167Y-11862976D02*
X9389643Y-11872500D01*
X9389643Y-11872500D02*
X9370596Y-11882024D01*
X9370596Y-11882024D02*
X9342024Y-11882024D01*
X9465834Y-11748690D02*
X9542024Y-11748690D01*
X9494405Y-11682024D02*
X9494405Y-11853452D01*
X9494405Y-11853452D02*
X9503929Y-11872500D01*
X9503929Y-11872500D02*
X9522977Y-11882024D01*
X9522977Y-11882024D02*
X9542024Y-11882024D01*
X9761072Y-11748690D02*
X9761072Y-11948690D01*
X9761072Y-11758214D02*
X9780120Y-11748690D01*
X9780120Y-11748690D02*
X9818215Y-11748690D01*
X9818215Y-11748690D02*
X9837262Y-11758214D01*
X9837262Y-11758214D02*
X9846786Y-11767738D01*
X9846786Y-11767738D02*
X9856310Y-11786786D01*
X9856310Y-11786786D02*
X9856310Y-11843928D01*
X9856310Y-11843928D02*
X9846786Y-11862976D01*
X9846786Y-11862976D02*
X9837262Y-11872500D01*
X9837262Y-11872500D02*
X9818215Y-11882024D01*
X9818215Y-11882024D02*
X9780120Y-11882024D01*
X9780120Y-11882024D02*
X9761072Y-11872500D01*
X9970596Y-11882024D02*
X9951548Y-11872500D01*
X9951548Y-11872500D02*
X9942024Y-11853452D01*
X9942024Y-11853452D02*
X9942024Y-11682024D01*
X10132501Y-11882024D02*
X10132501Y-11777262D01*
X10132501Y-11777262D02*
X10122977Y-11758214D01*
X10122977Y-11758214D02*
X10103929Y-11748690D01*
X10103929Y-11748690D02*
X10065834Y-11748690D01*
X10065834Y-11748690D02*
X10046786Y-11758214D01*
X10132501Y-11872500D02*
X10113453Y-11882024D01*
X10113453Y-11882024D02*
X10065834Y-11882024D01*
X10065834Y-11882024D02*
X10046786Y-11872500D01*
X10046786Y-11872500D02*
X10037262Y-11853452D01*
X10037262Y-11853452D02*
X10037262Y-11834405D01*
X10037262Y-11834405D02*
X10046786Y-11815357D01*
X10046786Y-11815357D02*
X10065834Y-11805833D01*
X10065834Y-11805833D02*
X10113453Y-11805833D01*
X10113453Y-11805833D02*
X10132501Y-11796309D01*
X10199167Y-11748690D02*
X10275358Y-11748690D01*
X10227739Y-11682024D02*
X10227739Y-11853452D01*
X10227739Y-11853452D02*
X10237262Y-11872500D01*
X10237262Y-11872500D02*
X10256310Y-11882024D01*
X10256310Y-11882024D02*
X10275358Y-11882024D01*
X10418215Y-11872500D02*
X10399167Y-11882024D01*
X10399167Y-11882024D02*
X10361072Y-11882024D01*
X10361072Y-11882024D02*
X10342024Y-11872500D01*
X10342024Y-11872500D02*
X10332501Y-11853452D01*
X10332501Y-11853452D02*
X10332501Y-11777262D01*
X10332501Y-11777262D02*
X10342024Y-11758214D01*
X10342024Y-11758214D02*
X10361072Y-11748690D01*
X10361072Y-11748690D02*
X10399167Y-11748690D01*
X10399167Y-11748690D02*
X10418215Y-11758214D01*
X10418215Y-11758214D02*
X10427739Y-11777262D01*
X10427739Y-11777262D02*
X10427739Y-11796309D01*
X10427739Y-11796309D02*
X10332501Y-11815357D01*
X10599167Y-11882024D02*
X10599167Y-11682024D01*
X10599167Y-11872500D02*
X10580120Y-11882024D01*
X10580120Y-11882024D02*
X10542024Y-11882024D01*
X10542024Y-11882024D02*
X10522977Y-11872500D01*
X10522977Y-11872500D02*
X10513453Y-11862976D01*
X10513453Y-11862976D02*
X10503929Y-11843928D01*
X10503929Y-11843928D02*
X10503929Y-11786786D01*
X10503929Y-11786786D02*
X10513453Y-11767738D01*
X10513453Y-11767738D02*
X10522977Y-11758214D01*
X10522977Y-11758214D02*
X10542024Y-11748690D01*
X10542024Y-11748690D02*
X10580120Y-11748690D01*
X10580120Y-11748690D02*
X10599167Y-11758214D01*
X10675358Y-11958214D02*
X10684882Y-11948690D01*
X10684882Y-11948690D02*
X10703929Y-11920119D01*
X10703929Y-11920119D02*
X10713453Y-11901071D01*
X10713453Y-11901071D02*
X10722977Y-11872500D01*
X10722977Y-11872500D02*
X10732501Y-11824881D01*
X10732501Y-11824881D02*
X10732501Y-11786786D01*
X10732501Y-11786786D02*
X10722977Y-11739167D01*
X10722977Y-11739167D02*
X10713453Y-11710595D01*
X10713453Y-11710595D02*
X10703929Y-11691548D01*
X10703929Y-11691548D02*
X10684882Y-11662976D01*
X10684882Y-11662976D02*
X10675358Y-11653452D01*
M02*
