M48
; DRILL file {KiCad (6.0.7-1)-1} date Friday, September 30, 2022 at 11:27:04 AM
; FORMAT={-:-/ absolute / metric / decimal}
; #@! TF.CreationDate,2022-09-30T11:27:04-05:00
; #@! TF.GenerationSoftware,Kicad,Pcbnew,(6.0.7-1)-1
; #@! TF.FileFunction,Plated,1,2,PTH
FMAT,2
METRIC
; #@! TA.AperFunction,Plated,PTH,ViaDrill
T1C0.300
; #@! TA.AperFunction,Plated,PTH,ViaDrill
T2C0.400
; #@! TA.AperFunction,Plated,PTH,ComponentDrill
T3C1.000
; #@! TA.AperFunction,Plated,PTH,ComponentDrill
T4C1.200
; #@! TA.AperFunction,Plated,PTH,ComponentDrill
T5C1.400
; #@! TA.AperFunction,Plated,PTH,ComponentDrill
T6C1.500
; #@! TA.AperFunction,Plated,PTH,ComponentDrill
T7C3.200
%
G90
G05
T1
X67.905Y-55.43
X68.405Y-56.83
X68.405Y-61.58
T2
X42.655Y-58.08
X45.005Y-66.43
X47.505Y-57.03
X47.605Y-66.43
X51.005Y-100.93
X51.905Y-93.43
X51.905Y-97.23
X52.205Y-72.03
X53.305Y-69.03
X53.305Y-85.83
X53.605Y-66.83
X56.205Y-70.23
X56.405Y-59.53
X56.48Y-66.63
X56.505Y-100.93
X56.905Y-51.63
X57.005Y-55.03
X57.105Y-95.83
X57.405Y-70.53
X58.155Y-56.58
X58.155Y-57.83
X58.205Y-97.93
X58.605Y-81.23
X58.605Y-95.33
X58.63Y-101.15
X59.305Y-66.93
X59.905Y-75.83
X60.405Y-86.13
X60.605Y-97.63
X60.705Y-67.08
X60.755Y-79.58
X60.755Y-81.93
X61.505Y-74.43
X62.905Y-74.53
X63.005Y-66.13
X64.605Y-88.63
X64.705Y-89.83
X64.705Y-93.73
X64.705Y-95.53
X64.805Y-67.13
X64.805Y-87.33
X64.905Y-84.93
X64.905Y-91.43
X64.935Y-99.946
X65.205Y-73.63
X65.305Y-77.43
X65.905Y-97.03
X66.005Y-84.53
X66.605Y-66.53
X68.228Y-86.507
X68.405Y-59.83
X68.405Y-62.83
X68.405Y-66.33
X68.405Y-74.33
X68.505Y-84.655
X68.605Y-70.23
X68.655Y-51.83
X69.205Y-87.13
X70.405Y-88.53
X71.655Y-58.08
X72.005Y-75.23
X72.005Y-88.43
X72.955Y-63.28
X74.905Y-51.23
X75.305Y-68.93
X75.505Y-72.13
X75.905Y-96.93
X76.505Y-51.33
X76.705Y-66.63
X76.805Y-56.13
X77.005Y-96.93
X77.105Y-85.33
X77.555Y-64.63
X78.605Y-68.93
X79.305Y-68.03
X79.305Y-82.63
X79.907Y-85.337
X81.605Y-57.23
X81.605Y-61.13
X82.005Y-67.33
X83.605Y-80.03
X83.705Y-89.13
X83.705Y-90.385
X84.605Y-85.73
X85.305Y-75.63
X85.305Y-78.53
X86.15Y-50.275
X87.105Y-85.73
X87.405Y-49.73
X87.805Y-84.33
X88.705Y-67.23
X88.705Y-73.83
X89.005Y-99.93
X89.205Y-49.53
X89.805Y-96.43
X89.905Y-92.33
X89.951Y-73.522
X91.605Y-77.83
X91.705Y-67.33
X91.905Y-55.83
X93.205Y-96.73
X93.305Y-71.03
X93.305Y-77.93
X93.705Y-55.73
X95.505Y-92.13
X97.505Y-95.73
X98.005Y-66.23
X98.405Y-83.93
X98.605Y-96.23
X98.932Y-65.509
X101.405Y-71.23
X102.305Y-55.83
X102.305Y-67.93
X102.405Y-79.03
X102.805Y-85.43
X102.805Y-87.23
X102.805Y-88.83
X102.805Y-90.23
X102.805Y-91.93
X102.805Y-93.83
X103.005Y-83.23
X103.105Y-79.977
X103.205Y-98.43
X103.605Y-95.43
X103.805Y-55.83
X103.905Y-67.93
X104.005Y-59.33
X104.005Y-61.33
X104.055Y-57.78
X104.105Y-62.43
X104.105Y-63.83
X104.105Y-65.53
X104.205Y-79.23
X104.905Y-70.23
X105.305Y-80.03
X107.305Y-70.03
X107.705Y-64.43
X108.505Y-70.93
X108.805Y-84.73
X110.305Y-65.83
X110.37Y-85.0
X111.705Y-57.23
X112.905Y-71.03
X114.105Y-83.23
X114.505Y-65.13
X114.705Y-63.13
X114.705Y-95.33
X114.805Y-98.53
X115.205Y-83.83
X115.805Y-81.33
X116.505Y-60.13
X118.205Y-83.83
X118.305Y-58.33
X121.005Y-57.33
X121.005Y-61.33
X121.105Y-79.73
X121.905Y-83.93
X122.205Y-86.23
X122.305Y-69.13
X124.04Y-50.56
X124.305Y-85.13
X125.105Y-79.28
X126.105Y-85.13
X126.205Y-63.53
X127.005Y-88.83
X129.005Y-63.53
X129.105Y-86.73
T3
X50.165Y-44.577
X50.165Y-47.117
X50.165Y-105.9
X50.165Y-108.44
X52.705Y-44.577
X52.705Y-47.117
X52.705Y-105.9
X52.705Y-108.44
X55.245Y-44.577
X55.245Y-47.117
X55.245Y-105.9
X55.245Y-108.44
X57.785Y-44.577
X57.785Y-47.117
X57.785Y-105.9
X57.785Y-108.44
X60.325Y-44.577
X60.325Y-47.117
X60.325Y-105.9
X60.325Y-108.44
X62.865Y-44.577
X62.865Y-47.117
X62.865Y-105.9
X62.865Y-108.44
X65.405Y-44.577
X65.405Y-47.117
X65.405Y-105.9
X65.405Y-108.44
X67.945Y-44.577
X67.945Y-47.117
X67.945Y-105.9
X67.945Y-108.44
X70.485Y-44.577
X70.485Y-47.117
X70.485Y-105.9
X70.485Y-108.44
X73.025Y-44.577
X73.025Y-47.117
X73.025Y-105.9
X73.025Y-108.44
X75.565Y-44.577
X75.565Y-47.117
X75.565Y-105.9
X75.565Y-108.44
X78.105Y-44.577
X78.105Y-47.117
X78.105Y-105.9
X78.105Y-108.44
X80.645Y-44.577
X80.645Y-47.117
X80.645Y-105.9
X80.645Y-108.44
X86.36Y-44.577
X86.36Y-47.117
X86.36Y-105.9
X86.36Y-108.44
X88.9Y-44.577
X88.9Y-47.117
X88.9Y-105.9
X88.9Y-108.44
X91.44Y-44.577
X91.44Y-47.117
X91.44Y-105.9
X91.44Y-108.44
X93.98Y-44.577
X93.98Y-47.117
X93.98Y-105.9
X93.98Y-108.44
X96.52Y-44.577
X96.52Y-47.117
X96.52Y-105.9
X96.52Y-108.44
X99.06Y-44.577
X99.06Y-47.117
X99.06Y-105.9
X99.06Y-108.44
X101.6Y-44.577
X101.6Y-47.117
X101.6Y-105.9
X101.6Y-108.44
X104.14Y-44.577
X104.14Y-47.117
X104.14Y-105.9
X104.14Y-108.44
X106.68Y-44.577
X106.68Y-47.117
X106.68Y-105.9
X106.68Y-108.44
X109.22Y-44.577
X109.22Y-47.117
X109.22Y-105.9
X109.22Y-108.44
X111.76Y-44.577
X111.76Y-47.117
X111.76Y-105.9
X111.76Y-108.44
X114.3Y-44.577
X114.3Y-47.117
X114.3Y-105.9
X114.3Y-108.44
X116.84Y-44.577
X116.84Y-47.117
X116.84Y-105.9
X116.84Y-108.44
T4
X42.455Y-61.255
X42.455Y-69.005
X127.405Y-55.36
X127.405Y-57.86
X127.405Y-60.36
X130.505Y-55.36
X130.505Y-57.86
X130.505Y-60.36
T5
X46.255Y-61.405
X46.255Y-68.855
T6
X44.405Y-73.58
X44.405Y-82.83
X44.405Y-92.03
X95.77Y-73.14
X103.58Y-73.23
X125.405Y-66.73
X125.405Y-75.73
X130.405Y-66.73
X130.405Y-75.73
T7
X44.45Y-46.99
X44.45Y-106.68
X122.555Y-46.99
X122.555Y-106.68
T0
M30
