%TF.GenerationSoftware,KiCad,Pcbnew,7.0.1*%
%TF.CreationDate,2023-10-27T14:21:21-05:00*%
%TF.ProjectId,ramn,72616d6e-2e6b-4696-9361-645f70636258,V1.1*%
%TF.SameCoordinates,Original*%
%TF.FileFunction,Legend,Top*%
%TF.FilePolarity,Positive*%
%FSLAX46Y46*%
G04 Gerber Fmt 4.6, Leading zero omitted, Abs format (unit mm)*
G04 Created by KiCad (PCBNEW 7.0.1) date 2023-10-27 14:21:21*
%MOMM*%
%LPD*%
G01*
G04 APERTURE LIST*
%ADD10C,0.200000*%
%ADD11C,0.150000*%
%ADD12C,0.300000*%
%ADD13C,0.100000*%
%ADD14C,0.120000*%
G04 APERTURE END LIST*
D10*
X119200000Y-96900000D02*
X132800000Y-96900000D01*
X115400000Y-100800000D02*
X119200000Y-96900000D01*
X115400000Y-104394000D02*
X115400000Y-100694000D01*
D11*
X99198571Y-74149464D02*
X99662857Y-74149464D01*
X99662857Y-74149464D02*
X99412857Y-74435178D01*
X99412857Y-74435178D02*
X99520000Y-74435178D01*
X99520000Y-74435178D02*
X99591429Y-74470892D01*
X99591429Y-74470892D02*
X99627143Y-74506607D01*
X99627143Y-74506607D02*
X99662857Y-74578035D01*
X99662857Y-74578035D02*
X99662857Y-74756607D01*
X99662857Y-74756607D02*
X99627143Y-74828035D01*
X99627143Y-74828035D02*
X99591429Y-74863750D01*
X99591429Y-74863750D02*
X99520000Y-74899464D01*
X99520000Y-74899464D02*
X99305714Y-74899464D01*
X99305714Y-74899464D02*
X99234286Y-74863750D01*
X99234286Y-74863750D02*
X99198571Y-74828035D01*
X99877143Y-74149464D02*
X100127143Y-74899464D01*
X100127143Y-74899464D02*
X100377143Y-74149464D01*
X98323572Y-76078750D02*
X98430715Y-76114464D01*
X98430715Y-76114464D02*
X98609286Y-76114464D01*
X98609286Y-76114464D02*
X98680715Y-76078750D01*
X98680715Y-76078750D02*
X98716429Y-76043035D01*
X98716429Y-76043035D02*
X98752143Y-75971607D01*
X98752143Y-75971607D02*
X98752143Y-75900178D01*
X98752143Y-75900178D02*
X98716429Y-75828750D01*
X98716429Y-75828750D02*
X98680715Y-75793035D01*
X98680715Y-75793035D02*
X98609286Y-75757321D01*
X98609286Y-75757321D02*
X98466429Y-75721607D01*
X98466429Y-75721607D02*
X98395000Y-75685892D01*
X98395000Y-75685892D02*
X98359286Y-75650178D01*
X98359286Y-75650178D02*
X98323572Y-75578750D01*
X98323572Y-75578750D02*
X98323572Y-75507321D01*
X98323572Y-75507321D02*
X98359286Y-75435892D01*
X98359286Y-75435892D02*
X98395000Y-75400178D01*
X98395000Y-75400178D02*
X98466429Y-75364464D01*
X98466429Y-75364464D02*
X98645000Y-75364464D01*
X98645000Y-75364464D02*
X98752143Y-75400178D01*
X99073572Y-76114464D02*
X99073572Y-75364464D01*
X99395001Y-76114464D02*
X99395001Y-75721607D01*
X99395001Y-75721607D02*
X99359286Y-75650178D01*
X99359286Y-75650178D02*
X99287858Y-75614464D01*
X99287858Y-75614464D02*
X99180715Y-75614464D01*
X99180715Y-75614464D02*
X99109286Y-75650178D01*
X99109286Y-75650178D02*
X99073572Y-75685892D01*
X100073572Y-75614464D02*
X100073572Y-76114464D01*
X99752143Y-75614464D02*
X99752143Y-76007321D01*
X99752143Y-76007321D02*
X99787857Y-76078750D01*
X99787857Y-76078750D02*
X99859286Y-76114464D01*
X99859286Y-76114464D02*
X99966429Y-76114464D01*
X99966429Y-76114464D02*
X100037857Y-76078750D01*
X100037857Y-76078750D02*
X100073572Y-76043035D01*
X100430714Y-75614464D02*
X100430714Y-76114464D01*
X100430714Y-75685892D02*
X100466428Y-75650178D01*
X100466428Y-75650178D02*
X100537857Y-75614464D01*
X100537857Y-75614464D02*
X100645000Y-75614464D01*
X100645000Y-75614464D02*
X100716428Y-75650178D01*
X100716428Y-75650178D02*
X100752143Y-75721607D01*
X100752143Y-75721607D02*
X100752143Y-76114464D01*
X101002142Y-75614464D02*
X101287856Y-75614464D01*
X101109285Y-75364464D02*
X101109285Y-76007321D01*
X101109285Y-76007321D02*
X101144999Y-76078750D01*
X101144999Y-76078750D02*
X101216428Y-76114464D01*
X101216428Y-76114464D02*
X101287856Y-76114464D01*
D12*
X118778571Y-99678928D02*
X118278571Y-98964642D01*
X117921428Y-99678928D02*
X117921428Y-98178928D01*
X117921428Y-98178928D02*
X118492857Y-98178928D01*
X118492857Y-98178928D02*
X118635714Y-98250357D01*
X118635714Y-98250357D02*
X118707143Y-98321785D01*
X118707143Y-98321785D02*
X118778571Y-98464642D01*
X118778571Y-98464642D02*
X118778571Y-98678928D01*
X118778571Y-98678928D02*
X118707143Y-98821785D01*
X118707143Y-98821785D02*
X118635714Y-98893214D01*
X118635714Y-98893214D02*
X118492857Y-98964642D01*
X118492857Y-98964642D02*
X117921428Y-98964642D01*
X119350000Y-99250357D02*
X120064286Y-99250357D01*
X119207143Y-99678928D02*
X119707143Y-98178928D01*
X119707143Y-98178928D02*
X120207143Y-99678928D01*
X120707142Y-99678928D02*
X120707142Y-98178928D01*
X120707142Y-98178928D02*
X121207142Y-99250357D01*
X121207142Y-99250357D02*
X121707142Y-98178928D01*
X121707142Y-98178928D02*
X121707142Y-99678928D01*
X122421428Y-99678928D02*
X122421428Y-98178928D01*
X122421428Y-98178928D02*
X123278571Y-99678928D01*
X123278571Y-99678928D02*
X123278571Y-98178928D01*
X124921429Y-98178928D02*
X125421429Y-99678928D01*
X125421429Y-99678928D02*
X125921429Y-98178928D01*
X127207143Y-99678928D02*
X126350000Y-99678928D01*
X126778571Y-99678928D02*
X126778571Y-98178928D01*
X126778571Y-98178928D02*
X126635714Y-98393214D01*
X126635714Y-98393214D02*
X126492857Y-98536071D01*
X126492857Y-98536071D02*
X126350000Y-98607500D01*
X127849999Y-99536071D02*
X127921428Y-99607500D01*
X127921428Y-99607500D02*
X127849999Y-99678928D01*
X127849999Y-99678928D02*
X127778571Y-99607500D01*
X127778571Y-99607500D02*
X127849999Y-99536071D01*
X127849999Y-99536071D02*
X127849999Y-99678928D01*
X129350000Y-99678928D02*
X128492857Y-99678928D01*
X128921428Y-99678928D02*
X128921428Y-98178928D01*
X128921428Y-98178928D02*
X128778571Y-98393214D01*
X128778571Y-98393214D02*
X128635714Y-98536071D01*
X128635714Y-98536071D02*
X128492857Y-98607500D01*
X116850000Y-102108928D02*
X116850000Y-101108928D01*
X116850000Y-101394642D02*
X116921429Y-101251785D01*
X116921429Y-101251785D02*
X116992858Y-101180357D01*
X116992858Y-101180357D02*
X117135715Y-101108928D01*
X117135715Y-101108928D02*
X117278572Y-101108928D01*
X118350000Y-102037500D02*
X118207143Y-102108928D01*
X118207143Y-102108928D02*
X117921429Y-102108928D01*
X117921429Y-102108928D02*
X117778571Y-102037500D01*
X117778571Y-102037500D02*
X117707143Y-101894642D01*
X117707143Y-101894642D02*
X117707143Y-101323214D01*
X117707143Y-101323214D02*
X117778571Y-101180357D01*
X117778571Y-101180357D02*
X117921429Y-101108928D01*
X117921429Y-101108928D02*
X118207143Y-101108928D01*
X118207143Y-101108928D02*
X118350000Y-101180357D01*
X118350000Y-101180357D02*
X118421429Y-101323214D01*
X118421429Y-101323214D02*
X118421429Y-101466071D01*
X118421429Y-101466071D02*
X117707143Y-101608928D01*
X118921428Y-101108928D02*
X119278571Y-102108928D01*
X119278571Y-102108928D02*
X119635714Y-101108928D01*
X122135714Y-102108928D02*
X121278571Y-102108928D01*
X121707142Y-102108928D02*
X121707142Y-100608928D01*
X121707142Y-100608928D02*
X121564285Y-100823214D01*
X121564285Y-100823214D02*
X121421428Y-100966071D01*
X121421428Y-100966071D02*
X121278571Y-101037500D01*
X123064285Y-100608928D02*
X123207142Y-100608928D01*
X123207142Y-100608928D02*
X123349999Y-100680357D01*
X123349999Y-100680357D02*
X123421428Y-100751785D01*
X123421428Y-100751785D02*
X123492856Y-100894642D01*
X123492856Y-100894642D02*
X123564285Y-101180357D01*
X123564285Y-101180357D02*
X123564285Y-101537500D01*
X123564285Y-101537500D02*
X123492856Y-101823214D01*
X123492856Y-101823214D02*
X123421428Y-101966071D01*
X123421428Y-101966071D02*
X123349999Y-102037500D01*
X123349999Y-102037500D02*
X123207142Y-102108928D01*
X123207142Y-102108928D02*
X123064285Y-102108928D01*
X123064285Y-102108928D02*
X122921428Y-102037500D01*
X122921428Y-102037500D02*
X122849999Y-101966071D01*
X122849999Y-101966071D02*
X122778570Y-101823214D01*
X122778570Y-101823214D02*
X122707142Y-101537500D01*
X122707142Y-101537500D02*
X122707142Y-101180357D01*
X122707142Y-101180357D02*
X122778570Y-100894642D01*
X122778570Y-100894642D02*
X122849999Y-100751785D01*
X122849999Y-100751785D02*
X122921428Y-100680357D01*
X122921428Y-100680357D02*
X123064285Y-100608928D01*
X124492856Y-100608928D02*
X124635713Y-100608928D01*
X124635713Y-100608928D02*
X124778570Y-100680357D01*
X124778570Y-100680357D02*
X124849999Y-100751785D01*
X124849999Y-100751785D02*
X124921427Y-100894642D01*
X124921427Y-100894642D02*
X124992856Y-101180357D01*
X124992856Y-101180357D02*
X124992856Y-101537500D01*
X124992856Y-101537500D02*
X124921427Y-101823214D01*
X124921427Y-101823214D02*
X124849999Y-101966071D01*
X124849999Y-101966071D02*
X124778570Y-102037500D01*
X124778570Y-102037500D02*
X124635713Y-102108928D01*
X124635713Y-102108928D02*
X124492856Y-102108928D01*
X124492856Y-102108928D02*
X124349999Y-102037500D01*
X124349999Y-102037500D02*
X124278570Y-101966071D01*
X124278570Y-101966071D02*
X124207141Y-101823214D01*
X124207141Y-101823214D02*
X124135713Y-101537500D01*
X124135713Y-101537500D02*
X124135713Y-101180357D01*
X124135713Y-101180357D02*
X124207141Y-100894642D01*
X124207141Y-100894642D02*
X124278570Y-100751785D01*
X124278570Y-100751785D02*
X124349999Y-100680357D01*
X124349999Y-100680357D02*
X124492856Y-100608928D01*
X125635712Y-101537500D02*
X126778570Y-101537500D01*
X127492855Y-102108928D02*
X127492855Y-100608928D01*
X127492855Y-100608928D02*
X128064284Y-100608928D01*
X128064284Y-100608928D02*
X128207141Y-100680357D01*
X128207141Y-100680357D02*
X128278570Y-100751785D01*
X128278570Y-100751785D02*
X128349998Y-100894642D01*
X128349998Y-100894642D02*
X128349998Y-101108928D01*
X128349998Y-101108928D02*
X128278570Y-101251785D01*
X128278570Y-101251785D02*
X128207141Y-101323214D01*
X128207141Y-101323214D02*
X128064284Y-101394642D01*
X128064284Y-101394642D02*
X127492855Y-101394642D01*
X128992855Y-102108928D02*
X128992855Y-101108928D01*
X128992855Y-100608928D02*
X128921427Y-100680357D01*
X128921427Y-100680357D02*
X128992855Y-100751785D01*
X128992855Y-100751785D02*
X129064284Y-100680357D01*
X129064284Y-100680357D02*
X128992855Y-100608928D01*
X128992855Y-100608928D02*
X128992855Y-100751785D01*
X129707141Y-101108928D02*
X129707141Y-102108928D01*
X129707141Y-101251785D02*
X129778570Y-101180357D01*
X129778570Y-101180357D02*
X129921427Y-101108928D01*
X129921427Y-101108928D02*
X130135713Y-101108928D01*
X130135713Y-101108928D02*
X130278570Y-101180357D01*
X130278570Y-101180357D02*
X130349999Y-101323214D01*
X130349999Y-101323214D02*
X130349999Y-102108928D01*
D11*
X46799048Y-73341666D02*
X47560953Y-73341666D01*
X47180000Y-73722619D02*
X47180000Y-72960714D01*
X104950951Y-74988333D02*
X104189047Y-74988333D01*
X113752380Y-77367380D02*
X113704761Y-77415000D01*
X113704761Y-77415000D02*
X113561904Y-77462619D01*
X113561904Y-77462619D02*
X113466666Y-77462619D01*
X113466666Y-77462619D02*
X113323809Y-77415000D01*
X113323809Y-77415000D02*
X113228571Y-77319761D01*
X113228571Y-77319761D02*
X113180952Y-77224523D01*
X113180952Y-77224523D02*
X113133333Y-77034047D01*
X113133333Y-77034047D02*
X113133333Y-76891190D01*
X113133333Y-76891190D02*
X113180952Y-76700714D01*
X113180952Y-76700714D02*
X113228571Y-76605476D01*
X113228571Y-76605476D02*
X113323809Y-76510238D01*
X113323809Y-76510238D02*
X113466666Y-76462619D01*
X113466666Y-76462619D02*
X113561904Y-76462619D01*
X113561904Y-76462619D02*
X113704761Y-76510238D01*
X113704761Y-76510238D02*
X113752380Y-76557857D01*
X114133333Y-77176904D02*
X114609523Y-77176904D01*
X114038095Y-77462619D02*
X114371428Y-76462619D01*
X114371428Y-76462619D02*
X114704761Y-77462619D01*
X115038095Y-77462619D02*
X115038095Y-76462619D01*
X115038095Y-76462619D02*
X115609523Y-77462619D01*
X115609523Y-77462619D02*
X115609523Y-76462619D01*
X116561904Y-77462619D02*
X116085714Y-77462619D01*
X116085714Y-77462619D02*
X116085714Y-76462619D01*
X47469761Y-91308095D02*
X47517380Y-91212857D01*
X47517380Y-91212857D02*
X47517380Y-91070000D01*
X47517380Y-91070000D02*
X47469761Y-90927143D01*
X47469761Y-90927143D02*
X47374523Y-90831905D01*
X47374523Y-90831905D02*
X47279285Y-90784286D01*
X47279285Y-90784286D02*
X47088809Y-90736667D01*
X47088809Y-90736667D02*
X46945952Y-90736667D01*
X46945952Y-90736667D02*
X46755476Y-90784286D01*
X46755476Y-90784286D02*
X46660238Y-90831905D01*
X46660238Y-90831905D02*
X46565000Y-90927143D01*
X46565000Y-90927143D02*
X46517380Y-91070000D01*
X46517380Y-91070000D02*
X46517380Y-91165238D01*
X46517380Y-91165238D02*
X46565000Y-91308095D01*
X46565000Y-91308095D02*
X46612619Y-91355714D01*
X46612619Y-91355714D02*
X46945952Y-91355714D01*
X46945952Y-91355714D02*
X46945952Y-91165238D01*
X46517380Y-91784286D02*
X47517380Y-91784286D01*
X47517380Y-91784286D02*
X46517380Y-92355714D01*
X46517380Y-92355714D02*
X47517380Y-92355714D01*
X46517380Y-92831905D02*
X47517380Y-92831905D01*
X47517380Y-92831905D02*
X47517380Y-93070000D01*
X47517380Y-93070000D02*
X47469761Y-93212857D01*
X47469761Y-93212857D02*
X47374523Y-93308095D01*
X47374523Y-93308095D02*
X47279285Y-93355714D01*
X47279285Y-93355714D02*
X47088809Y-93403333D01*
X47088809Y-93403333D02*
X46945952Y-93403333D01*
X46945952Y-93403333D02*
X46755476Y-93355714D01*
X46755476Y-93355714D02*
X46660238Y-93308095D01*
X46660238Y-93308095D02*
X46565000Y-93212857D01*
X46565000Y-93212857D02*
X46517380Y-93070000D01*
X46517380Y-93070000D02*
X46517380Y-92831905D01*
X48969285Y-64486964D02*
X48969285Y-65094107D01*
X48969285Y-65094107D02*
X49004999Y-65165535D01*
X49004999Y-65165535D02*
X49040714Y-65201250D01*
X49040714Y-65201250D02*
X49112142Y-65236964D01*
X49112142Y-65236964D02*
X49254999Y-65236964D01*
X49254999Y-65236964D02*
X49326428Y-65201250D01*
X49326428Y-65201250D02*
X49362142Y-65165535D01*
X49362142Y-65165535D02*
X49397856Y-65094107D01*
X49397856Y-65094107D02*
X49397856Y-64486964D01*
X49719285Y-65201250D02*
X49826428Y-65236964D01*
X49826428Y-65236964D02*
X50004999Y-65236964D01*
X50004999Y-65236964D02*
X50076428Y-65201250D01*
X50076428Y-65201250D02*
X50112142Y-65165535D01*
X50112142Y-65165535D02*
X50147856Y-65094107D01*
X50147856Y-65094107D02*
X50147856Y-65022678D01*
X50147856Y-65022678D02*
X50112142Y-64951250D01*
X50112142Y-64951250D02*
X50076428Y-64915535D01*
X50076428Y-64915535D02*
X50004999Y-64879821D01*
X50004999Y-64879821D02*
X49862142Y-64844107D01*
X49862142Y-64844107D02*
X49790713Y-64808392D01*
X49790713Y-64808392D02*
X49754999Y-64772678D01*
X49754999Y-64772678D02*
X49719285Y-64701250D01*
X49719285Y-64701250D02*
X49719285Y-64629821D01*
X49719285Y-64629821D02*
X49754999Y-64558392D01*
X49754999Y-64558392D02*
X49790713Y-64522678D01*
X49790713Y-64522678D02*
X49862142Y-64486964D01*
X49862142Y-64486964D02*
X50040713Y-64486964D01*
X50040713Y-64486964D02*
X50147856Y-64522678D01*
X50719285Y-64844107D02*
X50826428Y-64879821D01*
X50826428Y-64879821D02*
X50862142Y-64915535D01*
X50862142Y-64915535D02*
X50897856Y-64986964D01*
X50897856Y-64986964D02*
X50897856Y-65094107D01*
X50897856Y-65094107D02*
X50862142Y-65165535D01*
X50862142Y-65165535D02*
X50826428Y-65201250D01*
X50826428Y-65201250D02*
X50754999Y-65236964D01*
X50754999Y-65236964D02*
X50469285Y-65236964D01*
X50469285Y-65236964D02*
X50469285Y-64486964D01*
X50469285Y-64486964D02*
X50719285Y-64486964D01*
X50719285Y-64486964D02*
X50790714Y-64522678D01*
X50790714Y-64522678D02*
X50826428Y-64558392D01*
X50826428Y-64558392D02*
X50862142Y-64629821D01*
X50862142Y-64629821D02*
X50862142Y-64701250D01*
X50862142Y-64701250D02*
X50826428Y-64772678D01*
X50826428Y-64772678D02*
X50790714Y-64808392D01*
X50790714Y-64808392D02*
X50719285Y-64844107D01*
X50719285Y-64844107D02*
X50469285Y-64844107D01*
X52040714Y-64844107D02*
X51790714Y-64844107D01*
X51790714Y-65236964D02*
X51790714Y-64486964D01*
X51790714Y-64486964D02*
X52147857Y-64486964D01*
X52397857Y-65201250D02*
X52505000Y-65236964D01*
X52505000Y-65236964D02*
X52683571Y-65236964D01*
X52683571Y-65236964D02*
X52755000Y-65201250D01*
X52755000Y-65201250D02*
X52790714Y-65165535D01*
X52790714Y-65165535D02*
X52826428Y-65094107D01*
X52826428Y-65094107D02*
X52826428Y-65022678D01*
X52826428Y-65022678D02*
X52790714Y-64951250D01*
X52790714Y-64951250D02*
X52755000Y-64915535D01*
X52755000Y-64915535D02*
X52683571Y-64879821D01*
X52683571Y-64879821D02*
X52540714Y-64844107D01*
X52540714Y-64844107D02*
X52469285Y-64808392D01*
X52469285Y-64808392D02*
X52433571Y-64772678D01*
X52433571Y-64772678D02*
X52397857Y-64701250D01*
X52397857Y-64701250D02*
X52397857Y-64629821D01*
X52397857Y-64629821D02*
X52433571Y-64558392D01*
X52433571Y-64558392D02*
X52469285Y-64522678D01*
X52469285Y-64522678D02*
X52540714Y-64486964D01*
X52540714Y-64486964D02*
X52719285Y-64486964D01*
X52719285Y-64486964D02*
X52826428Y-64522678D01*
D12*
X60092857Y-50926571D02*
X60492857Y-50926571D01*
X60664285Y-51555142D02*
X60092857Y-51555142D01*
X60092857Y-51555142D02*
X60092857Y-50355142D01*
X60092857Y-50355142D02*
X60664285Y-50355142D01*
X61864285Y-51440857D02*
X61807142Y-51498000D01*
X61807142Y-51498000D02*
X61635714Y-51555142D01*
X61635714Y-51555142D02*
X61521428Y-51555142D01*
X61521428Y-51555142D02*
X61349999Y-51498000D01*
X61349999Y-51498000D02*
X61235714Y-51383714D01*
X61235714Y-51383714D02*
X61178571Y-51269428D01*
X61178571Y-51269428D02*
X61121428Y-51040857D01*
X61121428Y-51040857D02*
X61121428Y-50869428D01*
X61121428Y-50869428D02*
X61178571Y-50640857D01*
X61178571Y-50640857D02*
X61235714Y-50526571D01*
X61235714Y-50526571D02*
X61349999Y-50412285D01*
X61349999Y-50412285D02*
X61521428Y-50355142D01*
X61521428Y-50355142D02*
X61635714Y-50355142D01*
X61635714Y-50355142D02*
X61807142Y-50412285D01*
X61807142Y-50412285D02*
X61864285Y-50469428D01*
X62378571Y-50355142D02*
X62378571Y-51326571D01*
X62378571Y-51326571D02*
X62435714Y-51440857D01*
X62435714Y-51440857D02*
X62492857Y-51498000D01*
X62492857Y-51498000D02*
X62607142Y-51555142D01*
X62607142Y-51555142D02*
X62835714Y-51555142D01*
X62835714Y-51555142D02*
X62949999Y-51498000D01*
X62949999Y-51498000D02*
X63007142Y-51440857D01*
X63007142Y-51440857D02*
X63064285Y-51326571D01*
X63064285Y-51326571D02*
X63064285Y-50355142D01*
X64492857Y-51212285D02*
X65064286Y-51212285D01*
X64378571Y-51555142D02*
X64778571Y-50355142D01*
X64778571Y-50355142D02*
X65178571Y-51555142D01*
X107107143Y-100976571D02*
X107507143Y-100976571D01*
X107678571Y-101605142D02*
X107107143Y-101605142D01*
X107107143Y-101605142D02*
X107107143Y-100405142D01*
X107107143Y-100405142D02*
X107678571Y-100405142D01*
X108878571Y-101490857D02*
X108821428Y-101548000D01*
X108821428Y-101548000D02*
X108650000Y-101605142D01*
X108650000Y-101605142D02*
X108535714Y-101605142D01*
X108535714Y-101605142D02*
X108364285Y-101548000D01*
X108364285Y-101548000D02*
X108250000Y-101433714D01*
X108250000Y-101433714D02*
X108192857Y-101319428D01*
X108192857Y-101319428D02*
X108135714Y-101090857D01*
X108135714Y-101090857D02*
X108135714Y-100919428D01*
X108135714Y-100919428D02*
X108192857Y-100690857D01*
X108192857Y-100690857D02*
X108250000Y-100576571D01*
X108250000Y-100576571D02*
X108364285Y-100462285D01*
X108364285Y-100462285D02*
X108535714Y-100405142D01*
X108535714Y-100405142D02*
X108650000Y-100405142D01*
X108650000Y-100405142D02*
X108821428Y-100462285D01*
X108821428Y-100462285D02*
X108878571Y-100519428D01*
X109392857Y-100405142D02*
X109392857Y-101376571D01*
X109392857Y-101376571D02*
X109450000Y-101490857D01*
X109450000Y-101490857D02*
X109507143Y-101548000D01*
X109507143Y-101548000D02*
X109621428Y-101605142D01*
X109621428Y-101605142D02*
X109850000Y-101605142D01*
X109850000Y-101605142D02*
X109964285Y-101548000D01*
X109964285Y-101548000D02*
X110021428Y-101490857D01*
X110021428Y-101490857D02*
X110078571Y-101376571D01*
X110078571Y-101376571D02*
X110078571Y-100405142D01*
X112250000Y-101490857D02*
X112192857Y-101548000D01*
X112192857Y-101548000D02*
X112021429Y-101605142D01*
X112021429Y-101605142D02*
X111907143Y-101605142D01*
X111907143Y-101605142D02*
X111735714Y-101548000D01*
X111735714Y-101548000D02*
X111621429Y-101433714D01*
X111621429Y-101433714D02*
X111564286Y-101319428D01*
X111564286Y-101319428D02*
X111507143Y-101090857D01*
X111507143Y-101090857D02*
X111507143Y-100919428D01*
X111507143Y-100919428D02*
X111564286Y-100690857D01*
X111564286Y-100690857D02*
X111621429Y-100576571D01*
X111621429Y-100576571D02*
X111735714Y-100462285D01*
X111735714Y-100462285D02*
X111907143Y-100405142D01*
X111907143Y-100405142D02*
X112021429Y-100405142D01*
X112021429Y-100405142D02*
X112192857Y-100462285D01*
X112192857Y-100462285D02*
X112250000Y-100519428D01*
D11*
X107853333Y-75647380D02*
X107805714Y-75695000D01*
X107805714Y-75695000D02*
X107662857Y-75742619D01*
X107662857Y-75742619D02*
X107567619Y-75742619D01*
X107567619Y-75742619D02*
X107424762Y-75695000D01*
X107424762Y-75695000D02*
X107329524Y-75599761D01*
X107329524Y-75599761D02*
X107281905Y-75504523D01*
X107281905Y-75504523D02*
X107234286Y-75314047D01*
X107234286Y-75314047D02*
X107234286Y-75171190D01*
X107234286Y-75171190D02*
X107281905Y-74980714D01*
X107281905Y-74980714D02*
X107329524Y-74885476D01*
X107329524Y-74885476D02*
X107424762Y-74790238D01*
X107424762Y-74790238D02*
X107567619Y-74742619D01*
X107567619Y-74742619D02*
X107662857Y-74742619D01*
X107662857Y-74742619D02*
X107805714Y-74790238D01*
X107805714Y-74790238D02*
X107853333Y-74837857D01*
X108234286Y-75456904D02*
X108710476Y-75456904D01*
X108139048Y-75742619D02*
X108472381Y-74742619D01*
X108472381Y-74742619D02*
X108805714Y-75742619D01*
X109139048Y-75742619D02*
X109139048Y-74742619D01*
X109139048Y-74742619D02*
X109710476Y-75742619D01*
X109710476Y-75742619D02*
X109710476Y-74742619D01*
X110186667Y-75742619D02*
X110186667Y-74742619D01*
X110186667Y-75218809D02*
X110758095Y-75218809D01*
X110758095Y-75742619D02*
X110758095Y-74742619D01*
X94351666Y-75220951D02*
X94351666Y-74459047D01*
X94732619Y-74839999D02*
X93970714Y-74839999D01*
X123814285Y-57975535D02*
X123778571Y-58011250D01*
X123778571Y-58011250D02*
X123671428Y-58046964D01*
X123671428Y-58046964D02*
X123600000Y-58046964D01*
X123600000Y-58046964D02*
X123492857Y-58011250D01*
X123492857Y-58011250D02*
X123421428Y-57939821D01*
X123421428Y-57939821D02*
X123385714Y-57868392D01*
X123385714Y-57868392D02*
X123350000Y-57725535D01*
X123350000Y-57725535D02*
X123350000Y-57618392D01*
X123350000Y-57618392D02*
X123385714Y-57475535D01*
X123385714Y-57475535D02*
X123421428Y-57404107D01*
X123421428Y-57404107D02*
X123492857Y-57332678D01*
X123492857Y-57332678D02*
X123600000Y-57296964D01*
X123600000Y-57296964D02*
X123671428Y-57296964D01*
X123671428Y-57296964D02*
X123778571Y-57332678D01*
X123778571Y-57332678D02*
X123814285Y-57368392D01*
X124100000Y-57832678D02*
X124457143Y-57832678D01*
X124028571Y-58046964D02*
X124278571Y-57296964D01*
X124278571Y-57296964D02*
X124528571Y-58046964D01*
X124778571Y-58046964D02*
X124778571Y-57296964D01*
X124778571Y-57296964D02*
X125207142Y-58046964D01*
X125207142Y-58046964D02*
X125207142Y-57296964D01*
X125921428Y-58046964D02*
X125564285Y-58046964D01*
X125564285Y-58046964D02*
X125564285Y-57296964D01*
X123625000Y-60475535D02*
X123589286Y-60511250D01*
X123589286Y-60511250D02*
X123482143Y-60546964D01*
X123482143Y-60546964D02*
X123410715Y-60546964D01*
X123410715Y-60546964D02*
X123303572Y-60511250D01*
X123303572Y-60511250D02*
X123232143Y-60439821D01*
X123232143Y-60439821D02*
X123196429Y-60368392D01*
X123196429Y-60368392D02*
X123160715Y-60225535D01*
X123160715Y-60225535D02*
X123160715Y-60118392D01*
X123160715Y-60118392D02*
X123196429Y-59975535D01*
X123196429Y-59975535D02*
X123232143Y-59904107D01*
X123232143Y-59904107D02*
X123303572Y-59832678D01*
X123303572Y-59832678D02*
X123410715Y-59796964D01*
X123410715Y-59796964D02*
X123482143Y-59796964D01*
X123482143Y-59796964D02*
X123589286Y-59832678D01*
X123589286Y-59832678D02*
X123625000Y-59868392D01*
X123910715Y-60332678D02*
X124267858Y-60332678D01*
X123839286Y-60546964D02*
X124089286Y-59796964D01*
X124089286Y-59796964D02*
X124339286Y-60546964D01*
X124589286Y-60546964D02*
X124589286Y-59796964D01*
X124589286Y-59796964D02*
X125017857Y-60546964D01*
X125017857Y-60546964D02*
X125017857Y-59796964D01*
X125375000Y-60546964D02*
X125375000Y-59796964D01*
X125375000Y-60154107D02*
X125803571Y-60154107D01*
X125803571Y-60546964D02*
X125803571Y-59796964D01*
D12*
X95517143Y-51266571D02*
X95917143Y-51266571D01*
X96088571Y-51895142D02*
X95517143Y-51895142D01*
X95517143Y-51895142D02*
X95517143Y-50695142D01*
X95517143Y-50695142D02*
X96088571Y-50695142D01*
X97288571Y-51780857D02*
X97231428Y-51838000D01*
X97231428Y-51838000D02*
X97060000Y-51895142D01*
X97060000Y-51895142D02*
X96945714Y-51895142D01*
X96945714Y-51895142D02*
X96774285Y-51838000D01*
X96774285Y-51838000D02*
X96660000Y-51723714D01*
X96660000Y-51723714D02*
X96602857Y-51609428D01*
X96602857Y-51609428D02*
X96545714Y-51380857D01*
X96545714Y-51380857D02*
X96545714Y-51209428D01*
X96545714Y-51209428D02*
X96602857Y-50980857D01*
X96602857Y-50980857D02*
X96660000Y-50866571D01*
X96660000Y-50866571D02*
X96774285Y-50752285D01*
X96774285Y-50752285D02*
X96945714Y-50695142D01*
X96945714Y-50695142D02*
X97060000Y-50695142D01*
X97060000Y-50695142D02*
X97231428Y-50752285D01*
X97231428Y-50752285D02*
X97288571Y-50809428D01*
X97802857Y-50695142D02*
X97802857Y-51666571D01*
X97802857Y-51666571D02*
X97860000Y-51780857D01*
X97860000Y-51780857D02*
X97917143Y-51838000D01*
X97917143Y-51838000D02*
X98031428Y-51895142D01*
X98031428Y-51895142D02*
X98260000Y-51895142D01*
X98260000Y-51895142D02*
X98374285Y-51838000D01*
X98374285Y-51838000D02*
X98431428Y-51780857D01*
X98431428Y-51780857D02*
X98488571Y-51666571D01*
X98488571Y-51666571D02*
X98488571Y-50695142D01*
X99974286Y-51895142D02*
X99974286Y-50695142D01*
X99974286Y-50695142D02*
X100260000Y-50695142D01*
X100260000Y-50695142D02*
X100431429Y-50752285D01*
X100431429Y-50752285D02*
X100545714Y-50866571D01*
X100545714Y-50866571D02*
X100602857Y-50980857D01*
X100602857Y-50980857D02*
X100660000Y-51209428D01*
X100660000Y-51209428D02*
X100660000Y-51380857D01*
X100660000Y-51380857D02*
X100602857Y-51609428D01*
X100602857Y-51609428D02*
X100545714Y-51723714D01*
X100545714Y-51723714D02*
X100431429Y-51838000D01*
X100431429Y-51838000D02*
X100260000Y-51895142D01*
X100260000Y-51895142D02*
X99974286Y-51895142D01*
X66814285Y-80151071D02*
X66742857Y-80222500D01*
X66742857Y-80222500D02*
X66528571Y-80293928D01*
X66528571Y-80293928D02*
X66385714Y-80293928D01*
X66385714Y-80293928D02*
X66171428Y-80222500D01*
X66171428Y-80222500D02*
X66028571Y-80079642D01*
X66028571Y-80079642D02*
X65957142Y-79936785D01*
X65957142Y-79936785D02*
X65885714Y-79651071D01*
X65885714Y-79651071D02*
X65885714Y-79436785D01*
X65885714Y-79436785D02*
X65957142Y-79151071D01*
X65957142Y-79151071D02*
X66028571Y-79008214D01*
X66028571Y-79008214D02*
X66171428Y-78865357D01*
X66171428Y-78865357D02*
X66385714Y-78793928D01*
X66385714Y-78793928D02*
X66528571Y-78793928D01*
X66528571Y-78793928D02*
X66742857Y-78865357D01*
X66742857Y-78865357D02*
X66814285Y-78936785D01*
X67385714Y-79865357D02*
X68100000Y-79865357D01*
X67242857Y-80293928D02*
X67742857Y-78793928D01*
X67742857Y-78793928D02*
X68242857Y-80293928D01*
X68742856Y-80293928D02*
X68742856Y-78793928D01*
X68742856Y-78793928D02*
X69599999Y-80293928D01*
X69599999Y-80293928D02*
X69599999Y-78793928D01*
X71957142Y-79508214D02*
X72171428Y-79579642D01*
X72171428Y-79579642D02*
X72242857Y-79651071D01*
X72242857Y-79651071D02*
X72314285Y-79793928D01*
X72314285Y-79793928D02*
X72314285Y-80008214D01*
X72314285Y-80008214D02*
X72242857Y-80151071D01*
X72242857Y-80151071D02*
X72171428Y-80222500D01*
X72171428Y-80222500D02*
X72028571Y-80293928D01*
X72028571Y-80293928D02*
X71457142Y-80293928D01*
X71457142Y-80293928D02*
X71457142Y-78793928D01*
X71457142Y-78793928D02*
X71957142Y-78793928D01*
X71957142Y-78793928D02*
X72100000Y-78865357D01*
X72100000Y-78865357D02*
X72171428Y-78936785D01*
X72171428Y-78936785D02*
X72242857Y-79079642D01*
X72242857Y-79079642D02*
X72242857Y-79222500D01*
X72242857Y-79222500D02*
X72171428Y-79365357D01*
X72171428Y-79365357D02*
X72100000Y-79436785D01*
X72100000Y-79436785D02*
X71957142Y-79508214D01*
X71957142Y-79508214D02*
X71457142Y-79508214D01*
X72957142Y-78793928D02*
X72957142Y-80008214D01*
X72957142Y-80008214D02*
X73028571Y-80151071D01*
X73028571Y-80151071D02*
X73100000Y-80222500D01*
X73100000Y-80222500D02*
X73242857Y-80293928D01*
X73242857Y-80293928D02*
X73528571Y-80293928D01*
X73528571Y-80293928D02*
X73671428Y-80222500D01*
X73671428Y-80222500D02*
X73742857Y-80151071D01*
X73742857Y-80151071D02*
X73814285Y-80008214D01*
X73814285Y-80008214D02*
X73814285Y-78793928D01*
X74457143Y-80222500D02*
X74671429Y-80293928D01*
X74671429Y-80293928D02*
X75028571Y-80293928D01*
X75028571Y-80293928D02*
X75171429Y-80222500D01*
X75171429Y-80222500D02*
X75242857Y-80151071D01*
X75242857Y-80151071D02*
X75314286Y-80008214D01*
X75314286Y-80008214D02*
X75314286Y-79865357D01*
X75314286Y-79865357D02*
X75242857Y-79722500D01*
X75242857Y-79722500D02*
X75171429Y-79651071D01*
X75171429Y-79651071D02*
X75028571Y-79579642D01*
X75028571Y-79579642D02*
X74742857Y-79508214D01*
X74742857Y-79508214D02*
X74600000Y-79436785D01*
X74600000Y-79436785D02*
X74528571Y-79365357D01*
X74528571Y-79365357D02*
X74457143Y-79222500D01*
X74457143Y-79222500D02*
X74457143Y-79079642D01*
X74457143Y-79079642D02*
X74528571Y-78936785D01*
X74528571Y-78936785D02*
X74600000Y-78865357D01*
X74600000Y-78865357D02*
X74742857Y-78793928D01*
X74742857Y-78793928D02*
X75100000Y-78793928D01*
X75100000Y-78793928D02*
X75314286Y-78865357D01*
D11*
X47121666Y-83540951D02*
X47121666Y-82779047D01*
X124228571Y-55032678D02*
X124157143Y-54996964D01*
X124157143Y-54996964D02*
X124050000Y-54996964D01*
X124050000Y-54996964D02*
X123942857Y-55032678D01*
X123942857Y-55032678D02*
X123871428Y-55104107D01*
X123871428Y-55104107D02*
X123835714Y-55175535D01*
X123835714Y-55175535D02*
X123800000Y-55318392D01*
X123800000Y-55318392D02*
X123800000Y-55425535D01*
X123800000Y-55425535D02*
X123835714Y-55568392D01*
X123835714Y-55568392D02*
X123871428Y-55639821D01*
X123871428Y-55639821D02*
X123942857Y-55711250D01*
X123942857Y-55711250D02*
X124050000Y-55746964D01*
X124050000Y-55746964D02*
X124121428Y-55746964D01*
X124121428Y-55746964D02*
X124228571Y-55711250D01*
X124228571Y-55711250D02*
X124264285Y-55675535D01*
X124264285Y-55675535D02*
X124264285Y-55425535D01*
X124264285Y-55425535D02*
X124121428Y-55425535D01*
X124585714Y-55746964D02*
X124585714Y-54996964D01*
X124585714Y-54996964D02*
X125014285Y-55746964D01*
X125014285Y-55746964D02*
X125014285Y-54996964D01*
X125371428Y-55746964D02*
X125371428Y-54996964D01*
X125371428Y-54996964D02*
X125549999Y-54996964D01*
X125549999Y-54996964D02*
X125657142Y-55032678D01*
X125657142Y-55032678D02*
X125728571Y-55104107D01*
X125728571Y-55104107D02*
X125764285Y-55175535D01*
X125764285Y-55175535D02*
X125799999Y-55318392D01*
X125799999Y-55318392D02*
X125799999Y-55425535D01*
X125799999Y-55425535D02*
X125764285Y-55568392D01*
X125764285Y-55568392D02*
X125728571Y-55639821D01*
X125728571Y-55639821D02*
X125657142Y-55711250D01*
X125657142Y-55711250D02*
X125549999Y-55746964D01*
X125549999Y-55746964D02*
X125371428Y-55746964D01*
X51039828Y-80790864D02*
X50611257Y-80790864D01*
X50825542Y-80790864D02*
X50825542Y-80040864D01*
X50825542Y-80040864D02*
X50754114Y-80148007D01*
X50754114Y-80148007D02*
X50682685Y-80219435D01*
X50682685Y-80219435D02*
X50611257Y-80255150D01*
X51325543Y-80112292D02*
X51361257Y-80076578D01*
X51361257Y-80076578D02*
X51432686Y-80040864D01*
X51432686Y-80040864D02*
X51611257Y-80040864D01*
X51611257Y-80040864D02*
X51682686Y-80076578D01*
X51682686Y-80076578D02*
X51718400Y-80112292D01*
X51718400Y-80112292D02*
X51754114Y-80183721D01*
X51754114Y-80183721D02*
X51754114Y-80255150D01*
X51754114Y-80255150D02*
X51718400Y-80362292D01*
X51718400Y-80362292D02*
X51289828Y-80790864D01*
X51289828Y-80790864D02*
X51754114Y-80790864D01*
X52218400Y-80040864D02*
X52289829Y-80040864D01*
X52289829Y-80040864D02*
X52361257Y-80076578D01*
X52361257Y-80076578D02*
X52396972Y-80112292D01*
X52396972Y-80112292D02*
X52432686Y-80183721D01*
X52432686Y-80183721D02*
X52468400Y-80326578D01*
X52468400Y-80326578D02*
X52468400Y-80505150D01*
X52468400Y-80505150D02*
X52432686Y-80648007D01*
X52432686Y-80648007D02*
X52396972Y-80719435D01*
X52396972Y-80719435D02*
X52361257Y-80755150D01*
X52361257Y-80755150D02*
X52289829Y-80790864D01*
X52289829Y-80790864D02*
X52218400Y-80790864D01*
X52218400Y-80790864D02*
X52146972Y-80755150D01*
X52146972Y-80755150D02*
X52111257Y-80719435D01*
X52111257Y-80719435D02*
X52075543Y-80648007D01*
X52075543Y-80648007D02*
X52039829Y-80505150D01*
X52039829Y-80505150D02*
X52039829Y-80326578D01*
X52039829Y-80326578D02*
X52075543Y-80183721D01*
X52075543Y-80183721D02*
X52111257Y-80112292D01*
X52111257Y-80112292D02*
X52146972Y-80076578D01*
X52146972Y-80076578D02*
X52218400Y-80040864D01*
X52754115Y-80790864D02*
X52932686Y-80790864D01*
X52932686Y-80790864D02*
X52932686Y-80648007D01*
X52932686Y-80648007D02*
X52861258Y-80612292D01*
X52861258Y-80612292D02*
X52789829Y-80540864D01*
X52789829Y-80540864D02*
X52754115Y-80433721D01*
X52754115Y-80433721D02*
X52754115Y-80255150D01*
X52754115Y-80255150D02*
X52789829Y-80148007D01*
X52789829Y-80148007D02*
X52861258Y-80076578D01*
X52861258Y-80076578D02*
X52968400Y-80040864D01*
X52968400Y-80040864D02*
X53111258Y-80040864D01*
X53111258Y-80040864D02*
X53218400Y-80076578D01*
X53218400Y-80076578D02*
X53289829Y-80148007D01*
X53289829Y-80148007D02*
X53325543Y-80255150D01*
X53325543Y-80255150D02*
X53325543Y-80433721D01*
X53325543Y-80433721D02*
X53289829Y-80540864D01*
X53289829Y-80540864D02*
X53218400Y-80612292D01*
X53218400Y-80612292D02*
X53146972Y-80648007D01*
X53146972Y-80648007D02*
X53146972Y-80790864D01*
X53146972Y-80790864D02*
X53325543Y-80790864D01*
X50700542Y-81255864D02*
X51129114Y-81255864D01*
X50914828Y-82005864D02*
X50914828Y-81255864D01*
X51664828Y-81970150D02*
X51593400Y-82005864D01*
X51593400Y-82005864D02*
X51450543Y-82005864D01*
X51450543Y-82005864D02*
X51379114Y-81970150D01*
X51379114Y-81970150D02*
X51343400Y-81898721D01*
X51343400Y-81898721D02*
X51343400Y-81613007D01*
X51343400Y-81613007D02*
X51379114Y-81541578D01*
X51379114Y-81541578D02*
X51450543Y-81505864D01*
X51450543Y-81505864D02*
X51593400Y-81505864D01*
X51593400Y-81505864D02*
X51664828Y-81541578D01*
X51664828Y-81541578D02*
X51700543Y-81613007D01*
X51700543Y-81613007D02*
X51700543Y-81684435D01*
X51700543Y-81684435D02*
X51343400Y-81755864D01*
X52021971Y-82005864D02*
X52021971Y-81505864D01*
X52021971Y-81648721D02*
X52057685Y-81577292D01*
X52057685Y-81577292D02*
X52093400Y-81541578D01*
X52093400Y-81541578D02*
X52164828Y-81505864D01*
X52164828Y-81505864D02*
X52236257Y-81505864D01*
X52486257Y-82005864D02*
X52486257Y-81505864D01*
X52486257Y-81577292D02*
X52521971Y-81541578D01*
X52521971Y-81541578D02*
X52593400Y-81505864D01*
X52593400Y-81505864D02*
X52700543Y-81505864D01*
X52700543Y-81505864D02*
X52771971Y-81541578D01*
X52771971Y-81541578D02*
X52807686Y-81613007D01*
X52807686Y-81613007D02*
X52807686Y-82005864D01*
X52807686Y-81613007D02*
X52843400Y-81541578D01*
X52843400Y-81541578D02*
X52914828Y-81505864D01*
X52914828Y-81505864D02*
X53021971Y-81505864D01*
X53021971Y-81505864D02*
X53093400Y-81541578D01*
X53093400Y-81541578D02*
X53129114Y-81613007D01*
X53129114Y-81613007D02*
X53129114Y-82005864D01*
X47253035Y-76252143D02*
X47253035Y-75895000D01*
X47253035Y-75895000D02*
X46895892Y-75859286D01*
X46895892Y-75859286D02*
X46931607Y-75895000D01*
X46931607Y-75895000D02*
X46967321Y-75966429D01*
X46967321Y-75966429D02*
X46967321Y-76145000D01*
X46967321Y-76145000D02*
X46931607Y-76216429D01*
X46931607Y-76216429D02*
X46895892Y-76252143D01*
X46895892Y-76252143D02*
X46824464Y-76287857D01*
X46824464Y-76287857D02*
X46645892Y-76287857D01*
X46645892Y-76287857D02*
X46574464Y-76252143D01*
X46574464Y-76252143D02*
X46538750Y-76216429D01*
X46538750Y-76216429D02*
X46503035Y-76145000D01*
X46503035Y-76145000D02*
X46503035Y-75966429D01*
X46503035Y-75966429D02*
X46538750Y-75895000D01*
X46538750Y-75895000D02*
X46574464Y-75859286D01*
X47253035Y-76502143D02*
X46503035Y-76752143D01*
X46503035Y-76752143D02*
X47253035Y-77002143D01*
X46538750Y-77787858D02*
X46503035Y-77895001D01*
X46503035Y-77895001D02*
X46503035Y-78073572D01*
X46503035Y-78073572D02*
X46538750Y-78145001D01*
X46538750Y-78145001D02*
X46574464Y-78180715D01*
X46574464Y-78180715D02*
X46645892Y-78216429D01*
X46645892Y-78216429D02*
X46717321Y-78216429D01*
X46717321Y-78216429D02*
X46788750Y-78180715D01*
X46788750Y-78180715D02*
X46824464Y-78145001D01*
X46824464Y-78145001D02*
X46860178Y-78073572D01*
X46860178Y-78073572D02*
X46895892Y-77930715D01*
X46895892Y-77930715D02*
X46931607Y-77859286D01*
X46931607Y-77859286D02*
X46967321Y-77823572D01*
X46967321Y-77823572D02*
X47038750Y-77787858D01*
X47038750Y-77787858D02*
X47110178Y-77787858D01*
X47110178Y-77787858D02*
X47181607Y-77823572D01*
X47181607Y-77823572D02*
X47217321Y-77859286D01*
X47217321Y-77859286D02*
X47253035Y-77930715D01*
X47253035Y-77930715D02*
X47253035Y-78109286D01*
X47253035Y-78109286D02*
X47217321Y-78216429D01*
X46503035Y-78537858D02*
X47253035Y-78537858D01*
X46503035Y-78859287D02*
X46895892Y-78859287D01*
X46895892Y-78859287D02*
X46967321Y-78823572D01*
X46967321Y-78823572D02*
X47003035Y-78752144D01*
X47003035Y-78752144D02*
X47003035Y-78645001D01*
X47003035Y-78645001D02*
X46967321Y-78573572D01*
X46967321Y-78573572D02*
X46931607Y-78537858D01*
X47003035Y-79537858D02*
X46503035Y-79537858D01*
X47003035Y-79216429D02*
X46610178Y-79216429D01*
X46610178Y-79216429D02*
X46538750Y-79252143D01*
X46538750Y-79252143D02*
X46503035Y-79323572D01*
X46503035Y-79323572D02*
X46503035Y-79430715D01*
X46503035Y-79430715D02*
X46538750Y-79502143D01*
X46538750Y-79502143D02*
X46574464Y-79537858D01*
X47003035Y-79895000D02*
X46503035Y-79895000D01*
X46931607Y-79895000D02*
X46967321Y-79930714D01*
X46967321Y-79930714D02*
X47003035Y-80002143D01*
X47003035Y-80002143D02*
X47003035Y-80109286D01*
X47003035Y-80109286D02*
X46967321Y-80180714D01*
X46967321Y-80180714D02*
X46895892Y-80216429D01*
X46895892Y-80216429D02*
X46503035Y-80216429D01*
X47003035Y-80466428D02*
X47003035Y-80752142D01*
X47253035Y-80573571D02*
X46610178Y-80573571D01*
X46610178Y-80573571D02*
X46538750Y-80609285D01*
X46538750Y-80609285D02*
X46503035Y-80680714D01*
X46503035Y-80680714D02*
X46503035Y-80752142D01*
D12*
X68297143Y-101916571D02*
X68697143Y-101916571D01*
X68868571Y-102545142D02*
X68297143Y-102545142D01*
X68297143Y-102545142D02*
X68297143Y-101345142D01*
X68297143Y-101345142D02*
X68868571Y-101345142D01*
X70068571Y-102430857D02*
X70011428Y-102488000D01*
X70011428Y-102488000D02*
X69840000Y-102545142D01*
X69840000Y-102545142D02*
X69725714Y-102545142D01*
X69725714Y-102545142D02*
X69554285Y-102488000D01*
X69554285Y-102488000D02*
X69440000Y-102373714D01*
X69440000Y-102373714D02*
X69382857Y-102259428D01*
X69382857Y-102259428D02*
X69325714Y-102030857D01*
X69325714Y-102030857D02*
X69325714Y-101859428D01*
X69325714Y-101859428D02*
X69382857Y-101630857D01*
X69382857Y-101630857D02*
X69440000Y-101516571D01*
X69440000Y-101516571D02*
X69554285Y-101402285D01*
X69554285Y-101402285D02*
X69725714Y-101345142D01*
X69725714Y-101345142D02*
X69840000Y-101345142D01*
X69840000Y-101345142D02*
X70011428Y-101402285D01*
X70011428Y-101402285D02*
X70068571Y-101459428D01*
X70582857Y-101345142D02*
X70582857Y-102316571D01*
X70582857Y-102316571D02*
X70640000Y-102430857D01*
X70640000Y-102430857D02*
X70697143Y-102488000D01*
X70697143Y-102488000D02*
X70811428Y-102545142D01*
X70811428Y-102545142D02*
X71040000Y-102545142D01*
X71040000Y-102545142D02*
X71154285Y-102488000D01*
X71154285Y-102488000D02*
X71211428Y-102430857D01*
X71211428Y-102430857D02*
X71268571Y-102316571D01*
X71268571Y-102316571D02*
X71268571Y-101345142D01*
X73154286Y-101916571D02*
X73325714Y-101973714D01*
X73325714Y-101973714D02*
X73382857Y-102030857D01*
X73382857Y-102030857D02*
X73440000Y-102145142D01*
X73440000Y-102145142D02*
X73440000Y-102316571D01*
X73440000Y-102316571D02*
X73382857Y-102430857D01*
X73382857Y-102430857D02*
X73325714Y-102488000D01*
X73325714Y-102488000D02*
X73211429Y-102545142D01*
X73211429Y-102545142D02*
X72754286Y-102545142D01*
X72754286Y-102545142D02*
X72754286Y-101345142D01*
X72754286Y-101345142D02*
X73154286Y-101345142D01*
X73154286Y-101345142D02*
X73268572Y-101402285D01*
X73268572Y-101402285D02*
X73325714Y-101459428D01*
X73325714Y-101459428D02*
X73382857Y-101573714D01*
X73382857Y-101573714D02*
X73382857Y-101688000D01*
X73382857Y-101688000D02*
X73325714Y-101802285D01*
X73325714Y-101802285D02*
X73268572Y-101859428D01*
X73268572Y-101859428D02*
X73154286Y-101916571D01*
X73154286Y-101916571D02*
X72754286Y-101916571D01*
D11*
X125567856Y-50546964D02*
X125139285Y-50546964D01*
X125353570Y-50546964D02*
X125353570Y-49796964D01*
X125353570Y-49796964D02*
X125282142Y-49904107D01*
X125282142Y-49904107D02*
X125210713Y-49975535D01*
X125210713Y-49975535D02*
X125139285Y-50011250D01*
X125853571Y-49868392D02*
X125889285Y-49832678D01*
X125889285Y-49832678D02*
X125960714Y-49796964D01*
X125960714Y-49796964D02*
X126139285Y-49796964D01*
X126139285Y-49796964D02*
X126210714Y-49832678D01*
X126210714Y-49832678D02*
X126246428Y-49868392D01*
X126246428Y-49868392D02*
X126282142Y-49939821D01*
X126282142Y-49939821D02*
X126282142Y-50011250D01*
X126282142Y-50011250D02*
X126246428Y-50118392D01*
X126246428Y-50118392D02*
X125817856Y-50546964D01*
X125817856Y-50546964D02*
X126282142Y-50546964D01*
X126746428Y-49796964D02*
X126817857Y-49796964D01*
X126817857Y-49796964D02*
X126889285Y-49832678D01*
X126889285Y-49832678D02*
X126925000Y-49868392D01*
X126925000Y-49868392D02*
X126960714Y-49939821D01*
X126960714Y-49939821D02*
X126996428Y-50082678D01*
X126996428Y-50082678D02*
X126996428Y-50261250D01*
X126996428Y-50261250D02*
X126960714Y-50404107D01*
X126960714Y-50404107D02*
X126925000Y-50475535D01*
X126925000Y-50475535D02*
X126889285Y-50511250D01*
X126889285Y-50511250D02*
X126817857Y-50546964D01*
X126817857Y-50546964D02*
X126746428Y-50546964D01*
X126746428Y-50546964D02*
X126675000Y-50511250D01*
X126675000Y-50511250D02*
X126639285Y-50475535D01*
X126639285Y-50475535D02*
X126603571Y-50404107D01*
X126603571Y-50404107D02*
X126567857Y-50261250D01*
X126567857Y-50261250D02*
X126567857Y-50082678D01*
X126567857Y-50082678D02*
X126603571Y-49939821D01*
X126603571Y-49939821D02*
X126639285Y-49868392D01*
X126639285Y-49868392D02*
X126675000Y-49832678D01*
X126675000Y-49832678D02*
X126746428Y-49796964D01*
X127282143Y-50546964D02*
X127460714Y-50546964D01*
X127460714Y-50546964D02*
X127460714Y-50404107D01*
X127460714Y-50404107D02*
X127389286Y-50368392D01*
X127389286Y-50368392D02*
X127317857Y-50296964D01*
X127317857Y-50296964D02*
X127282143Y-50189821D01*
X127282143Y-50189821D02*
X127282143Y-50011250D01*
X127282143Y-50011250D02*
X127317857Y-49904107D01*
X127317857Y-49904107D02*
X127389286Y-49832678D01*
X127389286Y-49832678D02*
X127496428Y-49796964D01*
X127496428Y-49796964D02*
X127639286Y-49796964D01*
X127639286Y-49796964D02*
X127746428Y-49832678D01*
X127746428Y-49832678D02*
X127817857Y-49904107D01*
X127817857Y-49904107D02*
X127853571Y-50011250D01*
X127853571Y-50011250D02*
X127853571Y-50189821D01*
X127853571Y-50189821D02*
X127817857Y-50296964D01*
X127817857Y-50296964D02*
X127746428Y-50368392D01*
X127746428Y-50368392D02*
X127675000Y-50404107D01*
X127675000Y-50404107D02*
X127675000Y-50546964D01*
X127675000Y-50546964D02*
X127853571Y-50546964D01*
X128639286Y-49796964D02*
X129067858Y-49796964D01*
X128853572Y-50546964D02*
X128853572Y-49796964D01*
X129603572Y-50511250D02*
X129532144Y-50546964D01*
X129532144Y-50546964D02*
X129389287Y-50546964D01*
X129389287Y-50546964D02*
X129317858Y-50511250D01*
X129317858Y-50511250D02*
X129282144Y-50439821D01*
X129282144Y-50439821D02*
X129282144Y-50154107D01*
X129282144Y-50154107D02*
X129317858Y-50082678D01*
X129317858Y-50082678D02*
X129389287Y-50046964D01*
X129389287Y-50046964D02*
X129532144Y-50046964D01*
X129532144Y-50046964D02*
X129603572Y-50082678D01*
X129603572Y-50082678D02*
X129639287Y-50154107D01*
X129639287Y-50154107D02*
X129639287Y-50225535D01*
X129639287Y-50225535D02*
X129282144Y-50296964D01*
X129960715Y-50546964D02*
X129960715Y-50046964D01*
X129960715Y-50189821D02*
X129996429Y-50118392D01*
X129996429Y-50118392D02*
X130032144Y-50082678D01*
X130032144Y-50082678D02*
X130103572Y-50046964D01*
X130103572Y-50046964D02*
X130175001Y-50046964D01*
X130425001Y-50546964D02*
X130425001Y-50046964D01*
X130425001Y-50118392D02*
X130460715Y-50082678D01*
X130460715Y-50082678D02*
X130532144Y-50046964D01*
X130532144Y-50046964D02*
X130639287Y-50046964D01*
X130639287Y-50046964D02*
X130710715Y-50082678D01*
X130710715Y-50082678D02*
X130746430Y-50154107D01*
X130746430Y-50154107D02*
X130746430Y-50546964D01*
X130746430Y-50154107D02*
X130782144Y-50082678D01*
X130782144Y-50082678D02*
X130853572Y-50046964D01*
X130853572Y-50046964D02*
X130960715Y-50046964D01*
X130960715Y-50046964D02*
X131032144Y-50082678D01*
X131032144Y-50082678D02*
X131067858Y-50154107D01*
X131067858Y-50154107D02*
X131067858Y-50546964D01*
X131425001Y-50475535D02*
X131460715Y-50511250D01*
X131460715Y-50511250D02*
X131425001Y-50546964D01*
X131425001Y-50546964D02*
X131389287Y-50511250D01*
X131389287Y-50511250D02*
X131425001Y-50475535D01*
X131425001Y-50475535D02*
X131425001Y-50546964D01*
D13*
X112380953Y-65231309D02*
X112666667Y-65231309D01*
X112523810Y-65731309D02*
X112523810Y-65231309D01*
X112785714Y-65231309D02*
X113119047Y-65731309D01*
X113119047Y-65231309D02*
X112785714Y-65731309D01*
X113571428Y-65731309D02*
X113285714Y-65731309D01*
X113428571Y-65731309D02*
X113428571Y-65231309D01*
X113428571Y-65231309D02*
X113380952Y-65302738D01*
X113380952Y-65302738D02*
X113333333Y-65350357D01*
X113333333Y-65350357D02*
X113285714Y-65374166D01*
X49119047Y-95331309D02*
X49119047Y-95736071D01*
X49119047Y-95736071D02*
X49142857Y-95783690D01*
X49142857Y-95783690D02*
X49166666Y-95807500D01*
X49166666Y-95807500D02*
X49214285Y-95831309D01*
X49214285Y-95831309D02*
X49309523Y-95831309D01*
X49309523Y-95831309D02*
X49357142Y-95807500D01*
X49357142Y-95807500D02*
X49380952Y-95783690D01*
X49380952Y-95783690D02*
X49404761Y-95736071D01*
X49404761Y-95736071D02*
X49404761Y-95331309D01*
X49857143Y-95331309D02*
X49761905Y-95331309D01*
X49761905Y-95331309D02*
X49714286Y-95355119D01*
X49714286Y-95355119D02*
X49690476Y-95378928D01*
X49690476Y-95378928D02*
X49642857Y-95450357D01*
X49642857Y-95450357D02*
X49619048Y-95545595D01*
X49619048Y-95545595D02*
X49619048Y-95736071D01*
X49619048Y-95736071D02*
X49642857Y-95783690D01*
X49642857Y-95783690D02*
X49666667Y-95807500D01*
X49666667Y-95807500D02*
X49714286Y-95831309D01*
X49714286Y-95831309D02*
X49809524Y-95831309D01*
X49809524Y-95831309D02*
X49857143Y-95807500D01*
X49857143Y-95807500D02*
X49880952Y-95783690D01*
X49880952Y-95783690D02*
X49904762Y-95736071D01*
X49904762Y-95736071D02*
X49904762Y-95617023D01*
X49904762Y-95617023D02*
X49880952Y-95569404D01*
X49880952Y-95569404D02*
X49857143Y-95545595D01*
X49857143Y-95545595D02*
X49809524Y-95521785D01*
X49809524Y-95521785D02*
X49714286Y-95521785D01*
X49714286Y-95521785D02*
X49666667Y-95545595D01*
X49666667Y-95545595D02*
X49642857Y-95569404D01*
X49642857Y-95569404D02*
X49619048Y-95617023D01*
X95478571Y-97848809D02*
X95311905Y-97610714D01*
X95192857Y-97848809D02*
X95192857Y-97348809D01*
X95192857Y-97348809D02*
X95383333Y-97348809D01*
X95383333Y-97348809D02*
X95430952Y-97372619D01*
X95430952Y-97372619D02*
X95454762Y-97396428D01*
X95454762Y-97396428D02*
X95478571Y-97444047D01*
X95478571Y-97444047D02*
X95478571Y-97515476D01*
X95478571Y-97515476D02*
X95454762Y-97563095D01*
X95454762Y-97563095D02*
X95430952Y-97586904D01*
X95430952Y-97586904D02*
X95383333Y-97610714D01*
X95383333Y-97610714D02*
X95192857Y-97610714D01*
X95669048Y-97396428D02*
X95692857Y-97372619D01*
X95692857Y-97372619D02*
X95740476Y-97348809D01*
X95740476Y-97348809D02*
X95859524Y-97348809D01*
X95859524Y-97348809D02*
X95907143Y-97372619D01*
X95907143Y-97372619D02*
X95930952Y-97396428D01*
X95930952Y-97396428D02*
X95954762Y-97444047D01*
X95954762Y-97444047D02*
X95954762Y-97491666D01*
X95954762Y-97491666D02*
X95930952Y-97563095D01*
X95930952Y-97563095D02*
X95645238Y-97848809D01*
X95645238Y-97848809D02*
X95954762Y-97848809D01*
X96121428Y-97348809D02*
X96430952Y-97348809D01*
X96430952Y-97348809D02*
X96264285Y-97539285D01*
X96264285Y-97539285D02*
X96335714Y-97539285D01*
X96335714Y-97539285D02*
X96383333Y-97563095D01*
X96383333Y-97563095D02*
X96407142Y-97586904D01*
X96407142Y-97586904D02*
X96430952Y-97634523D01*
X96430952Y-97634523D02*
X96430952Y-97753571D01*
X96430952Y-97753571D02*
X96407142Y-97801190D01*
X96407142Y-97801190D02*
X96383333Y-97825000D01*
X96383333Y-97825000D02*
X96335714Y-97848809D01*
X96335714Y-97848809D02*
X96192857Y-97848809D01*
X96192857Y-97848809D02*
X96145238Y-97825000D01*
X96145238Y-97825000D02*
X96121428Y-97801190D01*
X113078571Y-67231309D02*
X112911905Y-66993214D01*
X112792857Y-67231309D02*
X112792857Y-66731309D01*
X112792857Y-66731309D02*
X112983333Y-66731309D01*
X112983333Y-66731309D02*
X113030952Y-66755119D01*
X113030952Y-66755119D02*
X113054762Y-66778928D01*
X113054762Y-66778928D02*
X113078571Y-66826547D01*
X113078571Y-66826547D02*
X113078571Y-66897976D01*
X113078571Y-66897976D02*
X113054762Y-66945595D01*
X113054762Y-66945595D02*
X113030952Y-66969404D01*
X113030952Y-66969404D02*
X112983333Y-66993214D01*
X112983333Y-66993214D02*
X112792857Y-66993214D01*
X113245238Y-66731309D02*
X113578571Y-67231309D01*
X113578571Y-66731309D02*
X113245238Y-67231309D01*
X114030952Y-67231309D02*
X113745238Y-67231309D01*
X113888095Y-67231309D02*
X113888095Y-66731309D01*
X113888095Y-66731309D02*
X113840476Y-66802738D01*
X113840476Y-66802738D02*
X113792857Y-66850357D01*
X113792857Y-66850357D02*
X113745238Y-66874166D01*
D11*
X91343095Y-72622619D02*
X91914523Y-72622619D01*
X91628809Y-73622619D02*
X91628809Y-72622619D01*
X92247857Y-73622619D02*
X92247857Y-72622619D01*
X92247857Y-72622619D02*
X92628809Y-72622619D01*
X92628809Y-72622619D02*
X92724047Y-72670238D01*
X92724047Y-72670238D02*
X92771666Y-72717857D01*
X92771666Y-72717857D02*
X92819285Y-72813095D01*
X92819285Y-72813095D02*
X92819285Y-72955952D01*
X92819285Y-72955952D02*
X92771666Y-73051190D01*
X92771666Y-73051190D02*
X92724047Y-73098809D01*
X92724047Y-73098809D02*
X92628809Y-73146428D01*
X92628809Y-73146428D02*
X92247857Y-73146428D01*
X93390714Y-73051190D02*
X93295476Y-73003571D01*
X93295476Y-73003571D02*
X93247857Y-72955952D01*
X93247857Y-72955952D02*
X93200238Y-72860714D01*
X93200238Y-72860714D02*
X93200238Y-72813095D01*
X93200238Y-72813095D02*
X93247857Y-72717857D01*
X93247857Y-72717857D02*
X93295476Y-72670238D01*
X93295476Y-72670238D02*
X93390714Y-72622619D01*
X93390714Y-72622619D02*
X93581190Y-72622619D01*
X93581190Y-72622619D02*
X93676428Y-72670238D01*
X93676428Y-72670238D02*
X93724047Y-72717857D01*
X93724047Y-72717857D02*
X93771666Y-72813095D01*
X93771666Y-72813095D02*
X93771666Y-72860714D01*
X93771666Y-72860714D02*
X93724047Y-72955952D01*
X93724047Y-72955952D02*
X93676428Y-73003571D01*
X93676428Y-73003571D02*
X93581190Y-73051190D01*
X93581190Y-73051190D02*
X93390714Y-73051190D01*
X93390714Y-73051190D02*
X93295476Y-73098809D01*
X93295476Y-73098809D02*
X93247857Y-73146428D01*
X93247857Y-73146428D02*
X93200238Y-73241666D01*
X93200238Y-73241666D02*
X93200238Y-73432142D01*
X93200238Y-73432142D02*
X93247857Y-73527380D01*
X93247857Y-73527380D02*
X93295476Y-73575000D01*
X93295476Y-73575000D02*
X93390714Y-73622619D01*
X93390714Y-73622619D02*
X93581190Y-73622619D01*
X93581190Y-73622619D02*
X93676428Y-73575000D01*
X93676428Y-73575000D02*
X93724047Y-73527380D01*
X93724047Y-73527380D02*
X93771666Y-73432142D01*
X93771666Y-73432142D02*
X93771666Y-73241666D01*
X93771666Y-73241666D02*
X93724047Y-73146428D01*
X93724047Y-73146428D02*
X93676428Y-73098809D01*
X93676428Y-73098809D02*
X93581190Y-73051190D01*
D13*
X118733333Y-47231309D02*
X118733333Y-47588452D01*
X118733333Y-47588452D02*
X118709524Y-47659880D01*
X118709524Y-47659880D02*
X118661905Y-47707500D01*
X118661905Y-47707500D02*
X118590476Y-47731309D01*
X118590476Y-47731309D02*
X118542857Y-47731309D01*
X119185714Y-47231309D02*
X119090476Y-47231309D01*
X119090476Y-47231309D02*
X119042857Y-47255119D01*
X119042857Y-47255119D02*
X119019047Y-47278928D01*
X119019047Y-47278928D02*
X118971428Y-47350357D01*
X118971428Y-47350357D02*
X118947619Y-47445595D01*
X118947619Y-47445595D02*
X118947619Y-47636071D01*
X118947619Y-47636071D02*
X118971428Y-47683690D01*
X118971428Y-47683690D02*
X118995238Y-47707500D01*
X118995238Y-47707500D02*
X119042857Y-47731309D01*
X119042857Y-47731309D02*
X119138095Y-47731309D01*
X119138095Y-47731309D02*
X119185714Y-47707500D01*
X119185714Y-47707500D02*
X119209523Y-47683690D01*
X119209523Y-47683690D02*
X119233333Y-47636071D01*
X119233333Y-47636071D02*
X119233333Y-47517023D01*
X119233333Y-47517023D02*
X119209523Y-47469404D01*
X119209523Y-47469404D02*
X119185714Y-47445595D01*
X119185714Y-47445595D02*
X119138095Y-47421785D01*
X119138095Y-47421785D02*
X119042857Y-47421785D01*
X119042857Y-47421785D02*
X118995238Y-47445595D01*
X118995238Y-47445595D02*
X118971428Y-47469404D01*
X118971428Y-47469404D02*
X118947619Y-47517023D01*
X130933333Y-63261309D02*
X130933333Y-63618452D01*
X130933333Y-63618452D02*
X130909524Y-63689880D01*
X130909524Y-63689880D02*
X130861905Y-63737500D01*
X130861905Y-63737500D02*
X130790476Y-63761309D01*
X130790476Y-63761309D02*
X130742857Y-63761309D01*
X131147619Y-63308928D02*
X131171428Y-63285119D01*
X131171428Y-63285119D02*
X131219047Y-63261309D01*
X131219047Y-63261309D02*
X131338095Y-63261309D01*
X131338095Y-63261309D02*
X131385714Y-63285119D01*
X131385714Y-63285119D02*
X131409523Y-63308928D01*
X131409523Y-63308928D02*
X131433333Y-63356547D01*
X131433333Y-63356547D02*
X131433333Y-63404166D01*
X131433333Y-63404166D02*
X131409523Y-63475595D01*
X131409523Y-63475595D02*
X131123809Y-63761309D01*
X131123809Y-63761309D02*
X131433333Y-63761309D01*
X90778571Y-87531309D02*
X90611905Y-87293214D01*
X90492857Y-87531309D02*
X90492857Y-87031309D01*
X90492857Y-87031309D02*
X90683333Y-87031309D01*
X90683333Y-87031309D02*
X90730952Y-87055119D01*
X90730952Y-87055119D02*
X90754762Y-87078928D01*
X90754762Y-87078928D02*
X90778571Y-87126547D01*
X90778571Y-87126547D02*
X90778571Y-87197976D01*
X90778571Y-87197976D02*
X90754762Y-87245595D01*
X90754762Y-87245595D02*
X90730952Y-87269404D01*
X90730952Y-87269404D02*
X90683333Y-87293214D01*
X90683333Y-87293214D02*
X90492857Y-87293214D01*
X91254762Y-87531309D02*
X90969048Y-87531309D01*
X91111905Y-87531309D02*
X91111905Y-87031309D01*
X91111905Y-87031309D02*
X91064286Y-87102738D01*
X91064286Y-87102738D02*
X91016667Y-87150357D01*
X91016667Y-87150357D02*
X90969048Y-87174166D01*
X91683333Y-87031309D02*
X91588095Y-87031309D01*
X91588095Y-87031309D02*
X91540476Y-87055119D01*
X91540476Y-87055119D02*
X91516666Y-87078928D01*
X91516666Y-87078928D02*
X91469047Y-87150357D01*
X91469047Y-87150357D02*
X91445238Y-87245595D01*
X91445238Y-87245595D02*
X91445238Y-87436071D01*
X91445238Y-87436071D02*
X91469047Y-87483690D01*
X91469047Y-87483690D02*
X91492857Y-87507500D01*
X91492857Y-87507500D02*
X91540476Y-87531309D01*
X91540476Y-87531309D02*
X91635714Y-87531309D01*
X91635714Y-87531309D02*
X91683333Y-87507500D01*
X91683333Y-87507500D02*
X91707142Y-87483690D01*
X91707142Y-87483690D02*
X91730952Y-87436071D01*
X91730952Y-87436071D02*
X91730952Y-87317023D01*
X91730952Y-87317023D02*
X91707142Y-87269404D01*
X91707142Y-87269404D02*
X91683333Y-87245595D01*
X91683333Y-87245595D02*
X91635714Y-87221785D01*
X91635714Y-87221785D02*
X91540476Y-87221785D01*
X91540476Y-87221785D02*
X91492857Y-87245595D01*
X91492857Y-87245595D02*
X91469047Y-87269404D01*
X91469047Y-87269404D02*
X91445238Y-87317023D01*
X130116666Y-71461309D02*
X129950000Y-71223214D01*
X129830952Y-71461309D02*
X129830952Y-70961309D01*
X129830952Y-70961309D02*
X130021428Y-70961309D01*
X130021428Y-70961309D02*
X130069047Y-70985119D01*
X130069047Y-70985119D02*
X130092857Y-71008928D01*
X130092857Y-71008928D02*
X130116666Y-71056547D01*
X130116666Y-71056547D02*
X130116666Y-71127976D01*
X130116666Y-71127976D02*
X130092857Y-71175595D01*
X130092857Y-71175595D02*
X130069047Y-71199404D01*
X130069047Y-71199404D02*
X130021428Y-71223214D01*
X130021428Y-71223214D02*
X129830952Y-71223214D01*
X130545238Y-70961309D02*
X130450000Y-70961309D01*
X130450000Y-70961309D02*
X130402381Y-70985119D01*
X130402381Y-70985119D02*
X130378571Y-71008928D01*
X130378571Y-71008928D02*
X130330952Y-71080357D01*
X130330952Y-71080357D02*
X130307143Y-71175595D01*
X130307143Y-71175595D02*
X130307143Y-71366071D01*
X130307143Y-71366071D02*
X130330952Y-71413690D01*
X130330952Y-71413690D02*
X130354762Y-71437500D01*
X130354762Y-71437500D02*
X130402381Y-71461309D01*
X130402381Y-71461309D02*
X130497619Y-71461309D01*
X130497619Y-71461309D02*
X130545238Y-71437500D01*
X130545238Y-71437500D02*
X130569047Y-71413690D01*
X130569047Y-71413690D02*
X130592857Y-71366071D01*
X130592857Y-71366071D02*
X130592857Y-71247023D01*
X130592857Y-71247023D02*
X130569047Y-71199404D01*
X130569047Y-71199404D02*
X130545238Y-71175595D01*
X130545238Y-71175595D02*
X130497619Y-71151785D01*
X130497619Y-71151785D02*
X130402381Y-71151785D01*
X130402381Y-71151785D02*
X130354762Y-71175595D01*
X130354762Y-71175595D02*
X130330952Y-71199404D01*
X130330952Y-71199404D02*
X130307143Y-71247023D01*
X109378571Y-56283690D02*
X109354762Y-56307500D01*
X109354762Y-56307500D02*
X109283333Y-56331309D01*
X109283333Y-56331309D02*
X109235714Y-56331309D01*
X109235714Y-56331309D02*
X109164286Y-56307500D01*
X109164286Y-56307500D02*
X109116667Y-56259880D01*
X109116667Y-56259880D02*
X109092857Y-56212261D01*
X109092857Y-56212261D02*
X109069048Y-56117023D01*
X109069048Y-56117023D02*
X109069048Y-56045595D01*
X109069048Y-56045595D02*
X109092857Y-55950357D01*
X109092857Y-55950357D02*
X109116667Y-55902738D01*
X109116667Y-55902738D02*
X109164286Y-55855119D01*
X109164286Y-55855119D02*
X109235714Y-55831309D01*
X109235714Y-55831309D02*
X109283333Y-55831309D01*
X109283333Y-55831309D02*
X109354762Y-55855119D01*
X109354762Y-55855119D02*
X109378571Y-55878928D01*
X109830952Y-55831309D02*
X109592857Y-55831309D01*
X109592857Y-55831309D02*
X109569048Y-56069404D01*
X109569048Y-56069404D02*
X109592857Y-56045595D01*
X109592857Y-56045595D02*
X109640476Y-56021785D01*
X109640476Y-56021785D02*
X109759524Y-56021785D01*
X109759524Y-56021785D02*
X109807143Y-56045595D01*
X109807143Y-56045595D02*
X109830952Y-56069404D01*
X109830952Y-56069404D02*
X109854762Y-56117023D01*
X109854762Y-56117023D02*
X109854762Y-56236071D01*
X109854762Y-56236071D02*
X109830952Y-56283690D01*
X109830952Y-56283690D02*
X109807143Y-56307500D01*
X109807143Y-56307500D02*
X109759524Y-56331309D01*
X109759524Y-56331309D02*
X109640476Y-56331309D01*
X109640476Y-56331309D02*
X109592857Y-56307500D01*
X109592857Y-56307500D02*
X109569048Y-56283690D01*
X110307142Y-55831309D02*
X110069047Y-55831309D01*
X110069047Y-55831309D02*
X110045238Y-56069404D01*
X110045238Y-56069404D02*
X110069047Y-56045595D01*
X110069047Y-56045595D02*
X110116666Y-56021785D01*
X110116666Y-56021785D02*
X110235714Y-56021785D01*
X110235714Y-56021785D02*
X110283333Y-56045595D01*
X110283333Y-56045595D02*
X110307142Y-56069404D01*
X110307142Y-56069404D02*
X110330952Y-56117023D01*
X110330952Y-56117023D02*
X110330952Y-56236071D01*
X110330952Y-56236071D02*
X110307142Y-56283690D01*
X110307142Y-56283690D02*
X110283333Y-56307500D01*
X110283333Y-56307500D02*
X110235714Y-56331309D01*
X110235714Y-56331309D02*
X110116666Y-56331309D01*
X110116666Y-56331309D02*
X110069047Y-56307500D01*
X110069047Y-56307500D02*
X110045238Y-56283690D01*
D11*
X123928095Y-72822619D02*
X124499523Y-72822619D01*
X124213809Y-73822619D02*
X124213809Y-72822619D01*
X124832857Y-73822619D02*
X124832857Y-72822619D01*
X124832857Y-72822619D02*
X125213809Y-72822619D01*
X125213809Y-72822619D02*
X125309047Y-72870238D01*
X125309047Y-72870238D02*
X125356666Y-72917857D01*
X125356666Y-72917857D02*
X125404285Y-73013095D01*
X125404285Y-73013095D02*
X125404285Y-73155952D01*
X125404285Y-73155952D02*
X125356666Y-73251190D01*
X125356666Y-73251190D02*
X125309047Y-73298809D01*
X125309047Y-73298809D02*
X125213809Y-73346428D01*
X125213809Y-73346428D02*
X124832857Y-73346428D01*
X126261428Y-73155952D02*
X126261428Y-73822619D01*
X126023333Y-72775000D02*
X125785238Y-73489285D01*
X125785238Y-73489285D02*
X126404285Y-73489285D01*
X43208095Y-88892619D02*
X43779523Y-88892619D01*
X43493809Y-89892619D02*
X43493809Y-88892619D01*
X44112857Y-89892619D02*
X44112857Y-88892619D01*
X44112857Y-88892619D02*
X44493809Y-88892619D01*
X44493809Y-88892619D02*
X44589047Y-88940238D01*
X44589047Y-88940238D02*
X44636666Y-88987857D01*
X44636666Y-88987857D02*
X44684285Y-89083095D01*
X44684285Y-89083095D02*
X44684285Y-89225952D01*
X44684285Y-89225952D02*
X44636666Y-89321190D01*
X44636666Y-89321190D02*
X44589047Y-89368809D01*
X44589047Y-89368809D02*
X44493809Y-89416428D01*
X44493809Y-89416428D02*
X44112857Y-89416428D01*
X45065238Y-88987857D02*
X45112857Y-88940238D01*
X45112857Y-88940238D02*
X45208095Y-88892619D01*
X45208095Y-88892619D02*
X45446190Y-88892619D01*
X45446190Y-88892619D02*
X45541428Y-88940238D01*
X45541428Y-88940238D02*
X45589047Y-88987857D01*
X45589047Y-88987857D02*
X45636666Y-89083095D01*
X45636666Y-89083095D02*
X45636666Y-89178333D01*
X45636666Y-89178333D02*
X45589047Y-89321190D01*
X45589047Y-89321190D02*
X45017619Y-89892619D01*
X45017619Y-89892619D02*
X45636666Y-89892619D01*
D13*
X70278571Y-76783690D02*
X70254762Y-76807500D01*
X70254762Y-76807500D02*
X70183333Y-76831309D01*
X70183333Y-76831309D02*
X70135714Y-76831309D01*
X70135714Y-76831309D02*
X70064286Y-76807500D01*
X70064286Y-76807500D02*
X70016667Y-76759880D01*
X70016667Y-76759880D02*
X69992857Y-76712261D01*
X69992857Y-76712261D02*
X69969048Y-76617023D01*
X69969048Y-76617023D02*
X69969048Y-76545595D01*
X69969048Y-76545595D02*
X69992857Y-76450357D01*
X69992857Y-76450357D02*
X70016667Y-76402738D01*
X70016667Y-76402738D02*
X70064286Y-76355119D01*
X70064286Y-76355119D02*
X70135714Y-76331309D01*
X70135714Y-76331309D02*
X70183333Y-76331309D01*
X70183333Y-76331309D02*
X70254762Y-76355119D01*
X70254762Y-76355119D02*
X70278571Y-76378928D01*
X70469048Y-76378928D02*
X70492857Y-76355119D01*
X70492857Y-76355119D02*
X70540476Y-76331309D01*
X70540476Y-76331309D02*
X70659524Y-76331309D01*
X70659524Y-76331309D02*
X70707143Y-76355119D01*
X70707143Y-76355119D02*
X70730952Y-76378928D01*
X70730952Y-76378928D02*
X70754762Y-76426547D01*
X70754762Y-76426547D02*
X70754762Y-76474166D01*
X70754762Y-76474166D02*
X70730952Y-76545595D01*
X70730952Y-76545595D02*
X70445238Y-76831309D01*
X70445238Y-76831309D02*
X70754762Y-76831309D01*
X70921428Y-76331309D02*
X71230952Y-76331309D01*
X71230952Y-76331309D02*
X71064285Y-76521785D01*
X71064285Y-76521785D02*
X71135714Y-76521785D01*
X71135714Y-76521785D02*
X71183333Y-76545595D01*
X71183333Y-76545595D02*
X71207142Y-76569404D01*
X71207142Y-76569404D02*
X71230952Y-76617023D01*
X71230952Y-76617023D02*
X71230952Y-76736071D01*
X71230952Y-76736071D02*
X71207142Y-76783690D01*
X71207142Y-76783690D02*
X71183333Y-76807500D01*
X71183333Y-76807500D02*
X71135714Y-76831309D01*
X71135714Y-76831309D02*
X70992857Y-76831309D01*
X70992857Y-76831309D02*
X70945238Y-76807500D01*
X70945238Y-76807500D02*
X70921428Y-76783690D01*
X71519047Y-66931309D02*
X71519047Y-67336071D01*
X71519047Y-67336071D02*
X71542857Y-67383690D01*
X71542857Y-67383690D02*
X71566666Y-67407500D01*
X71566666Y-67407500D02*
X71614285Y-67431309D01*
X71614285Y-67431309D02*
X71709523Y-67431309D01*
X71709523Y-67431309D02*
X71757142Y-67407500D01*
X71757142Y-67407500D02*
X71780952Y-67383690D01*
X71780952Y-67383690D02*
X71804761Y-67336071D01*
X71804761Y-67336071D02*
X71804761Y-66931309D01*
X72304762Y-67431309D02*
X72019048Y-67431309D01*
X72161905Y-67431309D02*
X72161905Y-66931309D01*
X72161905Y-66931309D02*
X72114286Y-67002738D01*
X72114286Y-67002738D02*
X72066667Y-67050357D01*
X72066667Y-67050357D02*
X72019048Y-67074166D01*
X85678571Y-100283690D02*
X85654762Y-100307500D01*
X85654762Y-100307500D02*
X85583333Y-100331309D01*
X85583333Y-100331309D02*
X85535714Y-100331309D01*
X85535714Y-100331309D02*
X85464286Y-100307500D01*
X85464286Y-100307500D02*
X85416667Y-100259880D01*
X85416667Y-100259880D02*
X85392857Y-100212261D01*
X85392857Y-100212261D02*
X85369048Y-100117023D01*
X85369048Y-100117023D02*
X85369048Y-100045595D01*
X85369048Y-100045595D02*
X85392857Y-99950357D01*
X85392857Y-99950357D02*
X85416667Y-99902738D01*
X85416667Y-99902738D02*
X85464286Y-99855119D01*
X85464286Y-99855119D02*
X85535714Y-99831309D01*
X85535714Y-99831309D02*
X85583333Y-99831309D01*
X85583333Y-99831309D02*
X85654762Y-99855119D01*
X85654762Y-99855119D02*
X85678571Y-99878928D01*
X86107143Y-99997976D02*
X86107143Y-100331309D01*
X85988095Y-99807500D02*
X85869048Y-100164642D01*
X85869048Y-100164642D02*
X86178571Y-100164642D01*
X86392857Y-100331309D02*
X86488095Y-100331309D01*
X86488095Y-100331309D02*
X86535714Y-100307500D01*
X86535714Y-100307500D02*
X86559523Y-100283690D01*
X86559523Y-100283690D02*
X86607142Y-100212261D01*
X86607142Y-100212261D02*
X86630952Y-100117023D01*
X86630952Y-100117023D02*
X86630952Y-99926547D01*
X86630952Y-99926547D02*
X86607142Y-99878928D01*
X86607142Y-99878928D02*
X86583333Y-99855119D01*
X86583333Y-99855119D02*
X86535714Y-99831309D01*
X86535714Y-99831309D02*
X86440476Y-99831309D01*
X86440476Y-99831309D02*
X86392857Y-99855119D01*
X86392857Y-99855119D02*
X86369047Y-99878928D01*
X86369047Y-99878928D02*
X86345238Y-99926547D01*
X86345238Y-99926547D02*
X86345238Y-100045595D01*
X86345238Y-100045595D02*
X86369047Y-100093214D01*
X86369047Y-100093214D02*
X86392857Y-100117023D01*
X86392857Y-100117023D02*
X86440476Y-100140833D01*
X86440476Y-100140833D02*
X86535714Y-100140833D01*
X86535714Y-100140833D02*
X86583333Y-100117023D01*
X86583333Y-100117023D02*
X86607142Y-100093214D01*
X86607142Y-100093214D02*
X86630952Y-100045595D01*
X77978571Y-72076190D02*
X77954762Y-72100000D01*
X77954762Y-72100000D02*
X77883333Y-72123809D01*
X77883333Y-72123809D02*
X77835714Y-72123809D01*
X77835714Y-72123809D02*
X77764286Y-72100000D01*
X77764286Y-72100000D02*
X77716667Y-72052380D01*
X77716667Y-72052380D02*
X77692857Y-72004761D01*
X77692857Y-72004761D02*
X77669048Y-71909523D01*
X77669048Y-71909523D02*
X77669048Y-71838095D01*
X77669048Y-71838095D02*
X77692857Y-71742857D01*
X77692857Y-71742857D02*
X77716667Y-71695238D01*
X77716667Y-71695238D02*
X77764286Y-71647619D01*
X77764286Y-71647619D02*
X77835714Y-71623809D01*
X77835714Y-71623809D02*
X77883333Y-71623809D01*
X77883333Y-71623809D02*
X77954762Y-71647619D01*
X77954762Y-71647619D02*
X77978571Y-71671428D01*
X78169048Y-71671428D02*
X78192857Y-71647619D01*
X78192857Y-71647619D02*
X78240476Y-71623809D01*
X78240476Y-71623809D02*
X78359524Y-71623809D01*
X78359524Y-71623809D02*
X78407143Y-71647619D01*
X78407143Y-71647619D02*
X78430952Y-71671428D01*
X78430952Y-71671428D02*
X78454762Y-71719047D01*
X78454762Y-71719047D02*
X78454762Y-71766666D01*
X78454762Y-71766666D02*
X78430952Y-71838095D01*
X78430952Y-71838095D02*
X78145238Y-72123809D01*
X78145238Y-72123809D02*
X78454762Y-72123809D01*
X78645238Y-71671428D02*
X78669047Y-71647619D01*
X78669047Y-71647619D02*
X78716666Y-71623809D01*
X78716666Y-71623809D02*
X78835714Y-71623809D01*
X78835714Y-71623809D02*
X78883333Y-71647619D01*
X78883333Y-71647619D02*
X78907142Y-71671428D01*
X78907142Y-71671428D02*
X78930952Y-71719047D01*
X78930952Y-71719047D02*
X78930952Y-71766666D01*
X78930952Y-71766666D02*
X78907142Y-71838095D01*
X78907142Y-71838095D02*
X78621428Y-72123809D01*
X78621428Y-72123809D02*
X78930952Y-72123809D01*
X56261905Y-90893214D02*
X56261905Y-91131309D01*
X56095239Y-90631309D02*
X56261905Y-90893214D01*
X56261905Y-90893214D02*
X56428572Y-90631309D01*
X56571429Y-90678928D02*
X56595238Y-90655119D01*
X56595238Y-90655119D02*
X56642857Y-90631309D01*
X56642857Y-90631309D02*
X56761905Y-90631309D01*
X56761905Y-90631309D02*
X56809524Y-90655119D01*
X56809524Y-90655119D02*
X56833333Y-90678928D01*
X56833333Y-90678928D02*
X56857143Y-90726547D01*
X56857143Y-90726547D02*
X56857143Y-90774166D01*
X56857143Y-90774166D02*
X56833333Y-90845595D01*
X56833333Y-90845595D02*
X56547619Y-91131309D01*
X56547619Y-91131309D02*
X56857143Y-91131309D01*
X56778571Y-94583690D02*
X56754762Y-94607500D01*
X56754762Y-94607500D02*
X56683333Y-94631309D01*
X56683333Y-94631309D02*
X56635714Y-94631309D01*
X56635714Y-94631309D02*
X56564286Y-94607500D01*
X56564286Y-94607500D02*
X56516667Y-94559880D01*
X56516667Y-94559880D02*
X56492857Y-94512261D01*
X56492857Y-94512261D02*
X56469048Y-94417023D01*
X56469048Y-94417023D02*
X56469048Y-94345595D01*
X56469048Y-94345595D02*
X56492857Y-94250357D01*
X56492857Y-94250357D02*
X56516667Y-94202738D01*
X56516667Y-94202738D02*
X56564286Y-94155119D01*
X56564286Y-94155119D02*
X56635714Y-94131309D01*
X56635714Y-94131309D02*
X56683333Y-94131309D01*
X56683333Y-94131309D02*
X56754762Y-94155119D01*
X56754762Y-94155119D02*
X56778571Y-94178928D01*
X56969048Y-94178928D02*
X56992857Y-94155119D01*
X56992857Y-94155119D02*
X57040476Y-94131309D01*
X57040476Y-94131309D02*
X57159524Y-94131309D01*
X57159524Y-94131309D02*
X57207143Y-94155119D01*
X57207143Y-94155119D02*
X57230952Y-94178928D01*
X57230952Y-94178928D02*
X57254762Y-94226547D01*
X57254762Y-94226547D02*
X57254762Y-94274166D01*
X57254762Y-94274166D02*
X57230952Y-94345595D01*
X57230952Y-94345595D02*
X56945238Y-94631309D01*
X56945238Y-94631309D02*
X57254762Y-94631309D01*
X57707142Y-94131309D02*
X57469047Y-94131309D01*
X57469047Y-94131309D02*
X57445238Y-94369404D01*
X57445238Y-94369404D02*
X57469047Y-94345595D01*
X57469047Y-94345595D02*
X57516666Y-94321785D01*
X57516666Y-94321785D02*
X57635714Y-94321785D01*
X57635714Y-94321785D02*
X57683333Y-94345595D01*
X57683333Y-94345595D02*
X57707142Y-94369404D01*
X57707142Y-94369404D02*
X57730952Y-94417023D01*
X57730952Y-94417023D02*
X57730952Y-94536071D01*
X57730952Y-94536071D02*
X57707142Y-94583690D01*
X57707142Y-94583690D02*
X57683333Y-94607500D01*
X57683333Y-94607500D02*
X57635714Y-94631309D01*
X57635714Y-94631309D02*
X57516666Y-94631309D01*
X57516666Y-94631309D02*
X57469047Y-94607500D01*
X57469047Y-94607500D02*
X57445238Y-94583690D01*
X45416666Y-55483690D02*
X45392857Y-55507500D01*
X45392857Y-55507500D02*
X45321428Y-55531309D01*
X45321428Y-55531309D02*
X45273809Y-55531309D01*
X45273809Y-55531309D02*
X45202381Y-55507500D01*
X45202381Y-55507500D02*
X45154762Y-55459880D01*
X45154762Y-55459880D02*
X45130952Y-55412261D01*
X45130952Y-55412261D02*
X45107143Y-55317023D01*
X45107143Y-55317023D02*
X45107143Y-55245595D01*
X45107143Y-55245595D02*
X45130952Y-55150357D01*
X45130952Y-55150357D02*
X45154762Y-55102738D01*
X45154762Y-55102738D02*
X45202381Y-55055119D01*
X45202381Y-55055119D02*
X45273809Y-55031309D01*
X45273809Y-55031309D02*
X45321428Y-55031309D01*
X45321428Y-55031309D02*
X45392857Y-55055119D01*
X45392857Y-55055119D02*
X45416666Y-55078928D01*
X45892857Y-55531309D02*
X45607143Y-55531309D01*
X45750000Y-55531309D02*
X45750000Y-55031309D01*
X45750000Y-55031309D02*
X45702381Y-55102738D01*
X45702381Y-55102738D02*
X45654762Y-55150357D01*
X45654762Y-55150357D02*
X45607143Y-55174166D01*
X56216666Y-71531309D02*
X56050000Y-71293214D01*
X55930952Y-71531309D02*
X55930952Y-71031309D01*
X55930952Y-71031309D02*
X56121428Y-71031309D01*
X56121428Y-71031309D02*
X56169047Y-71055119D01*
X56169047Y-71055119D02*
X56192857Y-71078928D01*
X56192857Y-71078928D02*
X56216666Y-71126547D01*
X56216666Y-71126547D02*
X56216666Y-71197976D01*
X56216666Y-71197976D02*
X56192857Y-71245595D01*
X56192857Y-71245595D02*
X56169047Y-71269404D01*
X56169047Y-71269404D02*
X56121428Y-71293214D01*
X56121428Y-71293214D02*
X55930952Y-71293214D01*
X56454762Y-71531309D02*
X56550000Y-71531309D01*
X56550000Y-71531309D02*
X56597619Y-71507500D01*
X56597619Y-71507500D02*
X56621428Y-71483690D01*
X56621428Y-71483690D02*
X56669047Y-71412261D01*
X56669047Y-71412261D02*
X56692857Y-71317023D01*
X56692857Y-71317023D02*
X56692857Y-71126547D01*
X56692857Y-71126547D02*
X56669047Y-71078928D01*
X56669047Y-71078928D02*
X56645238Y-71055119D01*
X56645238Y-71055119D02*
X56597619Y-71031309D01*
X56597619Y-71031309D02*
X56502381Y-71031309D01*
X56502381Y-71031309D02*
X56454762Y-71055119D01*
X56454762Y-71055119D02*
X56430952Y-71078928D01*
X56430952Y-71078928D02*
X56407143Y-71126547D01*
X56407143Y-71126547D02*
X56407143Y-71245595D01*
X56407143Y-71245595D02*
X56430952Y-71293214D01*
X56430952Y-71293214D02*
X56454762Y-71317023D01*
X56454762Y-71317023D02*
X56502381Y-71340833D01*
X56502381Y-71340833D02*
X56597619Y-71340833D01*
X56597619Y-71340833D02*
X56645238Y-71317023D01*
X56645238Y-71317023D02*
X56669047Y-71293214D01*
X56669047Y-71293214D02*
X56692857Y-71245595D01*
X90578571Y-83548809D02*
X90411905Y-83310714D01*
X90292857Y-83548809D02*
X90292857Y-83048809D01*
X90292857Y-83048809D02*
X90483333Y-83048809D01*
X90483333Y-83048809D02*
X90530952Y-83072619D01*
X90530952Y-83072619D02*
X90554762Y-83096428D01*
X90554762Y-83096428D02*
X90578571Y-83144047D01*
X90578571Y-83144047D02*
X90578571Y-83215476D01*
X90578571Y-83215476D02*
X90554762Y-83263095D01*
X90554762Y-83263095D02*
X90530952Y-83286904D01*
X90530952Y-83286904D02*
X90483333Y-83310714D01*
X90483333Y-83310714D02*
X90292857Y-83310714D01*
X91054762Y-83548809D02*
X90769048Y-83548809D01*
X90911905Y-83548809D02*
X90911905Y-83048809D01*
X90911905Y-83048809D02*
X90864286Y-83120238D01*
X90864286Y-83120238D02*
X90816667Y-83167857D01*
X90816667Y-83167857D02*
X90769048Y-83191666D01*
X91483333Y-83215476D02*
X91483333Y-83548809D01*
X91364285Y-83025000D02*
X91245238Y-83382142D01*
X91245238Y-83382142D02*
X91554761Y-83382142D01*
X47678571Y-101183690D02*
X47654762Y-101207500D01*
X47654762Y-101207500D02*
X47583333Y-101231309D01*
X47583333Y-101231309D02*
X47535714Y-101231309D01*
X47535714Y-101231309D02*
X47464286Y-101207500D01*
X47464286Y-101207500D02*
X47416667Y-101159880D01*
X47416667Y-101159880D02*
X47392857Y-101112261D01*
X47392857Y-101112261D02*
X47369048Y-101017023D01*
X47369048Y-101017023D02*
X47369048Y-100945595D01*
X47369048Y-100945595D02*
X47392857Y-100850357D01*
X47392857Y-100850357D02*
X47416667Y-100802738D01*
X47416667Y-100802738D02*
X47464286Y-100755119D01*
X47464286Y-100755119D02*
X47535714Y-100731309D01*
X47535714Y-100731309D02*
X47583333Y-100731309D01*
X47583333Y-100731309D02*
X47654762Y-100755119D01*
X47654762Y-100755119D02*
X47678571Y-100778928D01*
X47845238Y-100731309D02*
X48154762Y-100731309D01*
X48154762Y-100731309D02*
X47988095Y-100921785D01*
X47988095Y-100921785D02*
X48059524Y-100921785D01*
X48059524Y-100921785D02*
X48107143Y-100945595D01*
X48107143Y-100945595D02*
X48130952Y-100969404D01*
X48130952Y-100969404D02*
X48154762Y-101017023D01*
X48154762Y-101017023D02*
X48154762Y-101136071D01*
X48154762Y-101136071D02*
X48130952Y-101183690D01*
X48130952Y-101183690D02*
X48107143Y-101207500D01*
X48107143Y-101207500D02*
X48059524Y-101231309D01*
X48059524Y-101231309D02*
X47916667Y-101231309D01*
X47916667Y-101231309D02*
X47869048Y-101207500D01*
X47869048Y-101207500D02*
X47845238Y-101183690D01*
X48583333Y-100897976D02*
X48583333Y-101231309D01*
X48464285Y-100707500D02*
X48345238Y-101064642D01*
X48345238Y-101064642D02*
X48654761Y-101064642D01*
X119878571Y-89631309D02*
X119711905Y-89393214D01*
X119592857Y-89631309D02*
X119592857Y-89131309D01*
X119592857Y-89131309D02*
X119783333Y-89131309D01*
X119783333Y-89131309D02*
X119830952Y-89155119D01*
X119830952Y-89155119D02*
X119854762Y-89178928D01*
X119854762Y-89178928D02*
X119878571Y-89226547D01*
X119878571Y-89226547D02*
X119878571Y-89297976D01*
X119878571Y-89297976D02*
X119854762Y-89345595D01*
X119854762Y-89345595D02*
X119830952Y-89369404D01*
X119830952Y-89369404D02*
X119783333Y-89393214D01*
X119783333Y-89393214D02*
X119592857Y-89393214D01*
X120069048Y-89178928D02*
X120092857Y-89155119D01*
X120092857Y-89155119D02*
X120140476Y-89131309D01*
X120140476Y-89131309D02*
X120259524Y-89131309D01*
X120259524Y-89131309D02*
X120307143Y-89155119D01*
X120307143Y-89155119D02*
X120330952Y-89178928D01*
X120330952Y-89178928D02*
X120354762Y-89226547D01*
X120354762Y-89226547D02*
X120354762Y-89274166D01*
X120354762Y-89274166D02*
X120330952Y-89345595D01*
X120330952Y-89345595D02*
X120045238Y-89631309D01*
X120045238Y-89631309D02*
X120354762Y-89631309D01*
X120545238Y-89178928D02*
X120569047Y-89155119D01*
X120569047Y-89155119D02*
X120616666Y-89131309D01*
X120616666Y-89131309D02*
X120735714Y-89131309D01*
X120735714Y-89131309D02*
X120783333Y-89155119D01*
X120783333Y-89155119D02*
X120807142Y-89178928D01*
X120807142Y-89178928D02*
X120830952Y-89226547D01*
X120830952Y-89226547D02*
X120830952Y-89274166D01*
X120830952Y-89274166D02*
X120807142Y-89345595D01*
X120807142Y-89345595D02*
X120521428Y-89631309D01*
X120521428Y-89631309D02*
X120830952Y-89631309D01*
X119253571Y-59548809D02*
X119086905Y-59310714D01*
X118967857Y-59548809D02*
X118967857Y-59048809D01*
X118967857Y-59048809D02*
X119158333Y-59048809D01*
X119158333Y-59048809D02*
X119205952Y-59072619D01*
X119205952Y-59072619D02*
X119229762Y-59096428D01*
X119229762Y-59096428D02*
X119253571Y-59144047D01*
X119253571Y-59144047D02*
X119253571Y-59215476D01*
X119253571Y-59215476D02*
X119229762Y-59263095D01*
X119229762Y-59263095D02*
X119205952Y-59286904D01*
X119205952Y-59286904D02*
X119158333Y-59310714D01*
X119158333Y-59310714D02*
X118967857Y-59310714D01*
X119444048Y-59096428D02*
X119467857Y-59072619D01*
X119467857Y-59072619D02*
X119515476Y-59048809D01*
X119515476Y-59048809D02*
X119634524Y-59048809D01*
X119634524Y-59048809D02*
X119682143Y-59072619D01*
X119682143Y-59072619D02*
X119705952Y-59096428D01*
X119705952Y-59096428D02*
X119729762Y-59144047D01*
X119729762Y-59144047D02*
X119729762Y-59191666D01*
X119729762Y-59191666D02*
X119705952Y-59263095D01*
X119705952Y-59263095D02*
X119420238Y-59548809D01*
X119420238Y-59548809D02*
X119729762Y-59548809D01*
X120182142Y-59048809D02*
X119944047Y-59048809D01*
X119944047Y-59048809D02*
X119920238Y-59286904D01*
X119920238Y-59286904D02*
X119944047Y-59263095D01*
X119944047Y-59263095D02*
X119991666Y-59239285D01*
X119991666Y-59239285D02*
X120110714Y-59239285D01*
X120110714Y-59239285D02*
X120158333Y-59263095D01*
X120158333Y-59263095D02*
X120182142Y-59286904D01*
X120182142Y-59286904D02*
X120205952Y-59334523D01*
X120205952Y-59334523D02*
X120205952Y-59453571D01*
X120205952Y-59453571D02*
X120182142Y-59501190D01*
X120182142Y-59501190D02*
X120158333Y-59525000D01*
X120158333Y-59525000D02*
X120110714Y-59548809D01*
X120110714Y-59548809D02*
X119991666Y-59548809D01*
X119991666Y-59548809D02*
X119944047Y-59525000D01*
X119944047Y-59525000D02*
X119920238Y-59501190D01*
X54316666Y-81383690D02*
X54292857Y-81407500D01*
X54292857Y-81407500D02*
X54221428Y-81431309D01*
X54221428Y-81431309D02*
X54173809Y-81431309D01*
X54173809Y-81431309D02*
X54102381Y-81407500D01*
X54102381Y-81407500D02*
X54054762Y-81359880D01*
X54054762Y-81359880D02*
X54030952Y-81312261D01*
X54030952Y-81312261D02*
X54007143Y-81217023D01*
X54007143Y-81217023D02*
X54007143Y-81145595D01*
X54007143Y-81145595D02*
X54030952Y-81050357D01*
X54030952Y-81050357D02*
X54054762Y-81002738D01*
X54054762Y-81002738D02*
X54102381Y-80955119D01*
X54102381Y-80955119D02*
X54173809Y-80931309D01*
X54173809Y-80931309D02*
X54221428Y-80931309D01*
X54221428Y-80931309D02*
X54292857Y-80955119D01*
X54292857Y-80955119D02*
X54316666Y-80978928D01*
X54745238Y-81097976D02*
X54745238Y-81431309D01*
X54626190Y-80907500D02*
X54507143Y-81264642D01*
X54507143Y-81264642D02*
X54816666Y-81264642D01*
X61019047Y-84531309D02*
X61019047Y-84936071D01*
X61019047Y-84936071D02*
X61042857Y-84983690D01*
X61042857Y-84983690D02*
X61066666Y-85007500D01*
X61066666Y-85007500D02*
X61114285Y-85031309D01*
X61114285Y-85031309D02*
X61209523Y-85031309D01*
X61209523Y-85031309D02*
X61257142Y-85007500D01*
X61257142Y-85007500D02*
X61280952Y-84983690D01*
X61280952Y-84983690D02*
X61304761Y-84936071D01*
X61304761Y-84936071D02*
X61304761Y-84531309D01*
X61757143Y-84697976D02*
X61757143Y-85031309D01*
X61638095Y-84507500D02*
X61519048Y-84864642D01*
X61519048Y-84864642D02*
X61828571Y-84864642D01*
X55878571Y-99131309D02*
X55711905Y-98893214D01*
X55592857Y-99131309D02*
X55592857Y-98631309D01*
X55592857Y-98631309D02*
X55783333Y-98631309D01*
X55783333Y-98631309D02*
X55830952Y-98655119D01*
X55830952Y-98655119D02*
X55854762Y-98678928D01*
X55854762Y-98678928D02*
X55878571Y-98726547D01*
X55878571Y-98726547D02*
X55878571Y-98797976D01*
X55878571Y-98797976D02*
X55854762Y-98845595D01*
X55854762Y-98845595D02*
X55830952Y-98869404D01*
X55830952Y-98869404D02*
X55783333Y-98893214D01*
X55783333Y-98893214D02*
X55592857Y-98893214D01*
X56354762Y-99131309D02*
X56069048Y-99131309D01*
X56211905Y-99131309D02*
X56211905Y-98631309D01*
X56211905Y-98631309D02*
X56164286Y-98702738D01*
X56164286Y-98702738D02*
X56116667Y-98750357D01*
X56116667Y-98750357D02*
X56069048Y-98774166D01*
X56640476Y-98845595D02*
X56592857Y-98821785D01*
X56592857Y-98821785D02*
X56569047Y-98797976D01*
X56569047Y-98797976D02*
X56545238Y-98750357D01*
X56545238Y-98750357D02*
X56545238Y-98726547D01*
X56545238Y-98726547D02*
X56569047Y-98678928D01*
X56569047Y-98678928D02*
X56592857Y-98655119D01*
X56592857Y-98655119D02*
X56640476Y-98631309D01*
X56640476Y-98631309D02*
X56735714Y-98631309D01*
X56735714Y-98631309D02*
X56783333Y-98655119D01*
X56783333Y-98655119D02*
X56807142Y-98678928D01*
X56807142Y-98678928D02*
X56830952Y-98726547D01*
X56830952Y-98726547D02*
X56830952Y-98750357D01*
X56830952Y-98750357D02*
X56807142Y-98797976D01*
X56807142Y-98797976D02*
X56783333Y-98821785D01*
X56783333Y-98821785D02*
X56735714Y-98845595D01*
X56735714Y-98845595D02*
X56640476Y-98845595D01*
X56640476Y-98845595D02*
X56592857Y-98869404D01*
X56592857Y-98869404D02*
X56569047Y-98893214D01*
X56569047Y-98893214D02*
X56545238Y-98940833D01*
X56545238Y-98940833D02*
X56545238Y-99036071D01*
X56545238Y-99036071D02*
X56569047Y-99083690D01*
X56569047Y-99083690D02*
X56592857Y-99107500D01*
X56592857Y-99107500D02*
X56640476Y-99131309D01*
X56640476Y-99131309D02*
X56735714Y-99131309D01*
X56735714Y-99131309D02*
X56783333Y-99107500D01*
X56783333Y-99107500D02*
X56807142Y-99083690D01*
X56807142Y-99083690D02*
X56830952Y-99036071D01*
X56830952Y-99036071D02*
X56830952Y-98940833D01*
X56830952Y-98940833D02*
X56807142Y-98893214D01*
X56807142Y-98893214D02*
X56783333Y-98869404D01*
X56783333Y-98869404D02*
X56735714Y-98845595D01*
X119878571Y-82131309D02*
X119711905Y-81893214D01*
X119592857Y-82131309D02*
X119592857Y-81631309D01*
X119592857Y-81631309D02*
X119783333Y-81631309D01*
X119783333Y-81631309D02*
X119830952Y-81655119D01*
X119830952Y-81655119D02*
X119854762Y-81678928D01*
X119854762Y-81678928D02*
X119878571Y-81726547D01*
X119878571Y-81726547D02*
X119878571Y-81797976D01*
X119878571Y-81797976D02*
X119854762Y-81845595D01*
X119854762Y-81845595D02*
X119830952Y-81869404D01*
X119830952Y-81869404D02*
X119783333Y-81893214D01*
X119783333Y-81893214D02*
X119592857Y-81893214D01*
X120069048Y-81678928D02*
X120092857Y-81655119D01*
X120092857Y-81655119D02*
X120140476Y-81631309D01*
X120140476Y-81631309D02*
X120259524Y-81631309D01*
X120259524Y-81631309D02*
X120307143Y-81655119D01*
X120307143Y-81655119D02*
X120330952Y-81678928D01*
X120330952Y-81678928D02*
X120354762Y-81726547D01*
X120354762Y-81726547D02*
X120354762Y-81774166D01*
X120354762Y-81774166D02*
X120330952Y-81845595D01*
X120330952Y-81845595D02*
X120045238Y-82131309D01*
X120045238Y-82131309D02*
X120354762Y-82131309D01*
X120664285Y-81631309D02*
X120711904Y-81631309D01*
X120711904Y-81631309D02*
X120759523Y-81655119D01*
X120759523Y-81655119D02*
X120783333Y-81678928D01*
X120783333Y-81678928D02*
X120807142Y-81726547D01*
X120807142Y-81726547D02*
X120830952Y-81821785D01*
X120830952Y-81821785D02*
X120830952Y-81940833D01*
X120830952Y-81940833D02*
X120807142Y-82036071D01*
X120807142Y-82036071D02*
X120783333Y-82083690D01*
X120783333Y-82083690D02*
X120759523Y-82107500D01*
X120759523Y-82107500D02*
X120711904Y-82131309D01*
X120711904Y-82131309D02*
X120664285Y-82131309D01*
X120664285Y-82131309D02*
X120616666Y-82107500D01*
X120616666Y-82107500D02*
X120592857Y-82083690D01*
X120592857Y-82083690D02*
X120569047Y-82036071D01*
X120569047Y-82036071D02*
X120545238Y-81940833D01*
X120545238Y-81940833D02*
X120545238Y-81821785D01*
X120545238Y-81821785D02*
X120569047Y-81726547D01*
X120569047Y-81726547D02*
X120592857Y-81678928D01*
X120592857Y-81678928D02*
X120616666Y-81655119D01*
X120616666Y-81655119D02*
X120664285Y-81631309D01*
X115478571Y-71283690D02*
X115454762Y-71307500D01*
X115454762Y-71307500D02*
X115383333Y-71331309D01*
X115383333Y-71331309D02*
X115335714Y-71331309D01*
X115335714Y-71331309D02*
X115264286Y-71307500D01*
X115264286Y-71307500D02*
X115216667Y-71259880D01*
X115216667Y-71259880D02*
X115192857Y-71212261D01*
X115192857Y-71212261D02*
X115169048Y-71117023D01*
X115169048Y-71117023D02*
X115169048Y-71045595D01*
X115169048Y-71045595D02*
X115192857Y-70950357D01*
X115192857Y-70950357D02*
X115216667Y-70902738D01*
X115216667Y-70902738D02*
X115264286Y-70855119D01*
X115264286Y-70855119D02*
X115335714Y-70831309D01*
X115335714Y-70831309D02*
X115383333Y-70831309D01*
X115383333Y-70831309D02*
X115454762Y-70855119D01*
X115454762Y-70855119D02*
X115478571Y-70878928D01*
X115907143Y-70831309D02*
X115811905Y-70831309D01*
X115811905Y-70831309D02*
X115764286Y-70855119D01*
X115764286Y-70855119D02*
X115740476Y-70878928D01*
X115740476Y-70878928D02*
X115692857Y-70950357D01*
X115692857Y-70950357D02*
X115669048Y-71045595D01*
X115669048Y-71045595D02*
X115669048Y-71236071D01*
X115669048Y-71236071D02*
X115692857Y-71283690D01*
X115692857Y-71283690D02*
X115716667Y-71307500D01*
X115716667Y-71307500D02*
X115764286Y-71331309D01*
X115764286Y-71331309D02*
X115859524Y-71331309D01*
X115859524Y-71331309D02*
X115907143Y-71307500D01*
X115907143Y-71307500D02*
X115930952Y-71283690D01*
X115930952Y-71283690D02*
X115954762Y-71236071D01*
X115954762Y-71236071D02*
X115954762Y-71117023D01*
X115954762Y-71117023D02*
X115930952Y-71069404D01*
X115930952Y-71069404D02*
X115907143Y-71045595D01*
X115907143Y-71045595D02*
X115859524Y-71021785D01*
X115859524Y-71021785D02*
X115764286Y-71021785D01*
X115764286Y-71021785D02*
X115716667Y-71045595D01*
X115716667Y-71045595D02*
X115692857Y-71069404D01*
X115692857Y-71069404D02*
X115669048Y-71117023D01*
X116407142Y-70831309D02*
X116169047Y-70831309D01*
X116169047Y-70831309D02*
X116145238Y-71069404D01*
X116145238Y-71069404D02*
X116169047Y-71045595D01*
X116169047Y-71045595D02*
X116216666Y-71021785D01*
X116216666Y-71021785D02*
X116335714Y-71021785D01*
X116335714Y-71021785D02*
X116383333Y-71045595D01*
X116383333Y-71045595D02*
X116407142Y-71069404D01*
X116407142Y-71069404D02*
X116430952Y-71117023D01*
X116430952Y-71117023D02*
X116430952Y-71236071D01*
X116430952Y-71236071D02*
X116407142Y-71283690D01*
X116407142Y-71283690D02*
X116383333Y-71307500D01*
X116383333Y-71307500D02*
X116335714Y-71331309D01*
X116335714Y-71331309D02*
X116216666Y-71331309D01*
X116216666Y-71331309D02*
X116169047Y-71307500D01*
X116169047Y-71307500D02*
X116145238Y-71283690D01*
X75330952Y-74931309D02*
X75330952Y-74431309D01*
X75330952Y-74431309D02*
X75450000Y-74431309D01*
X75450000Y-74431309D02*
X75521428Y-74455119D01*
X75521428Y-74455119D02*
X75569047Y-74502738D01*
X75569047Y-74502738D02*
X75592857Y-74550357D01*
X75592857Y-74550357D02*
X75616666Y-74645595D01*
X75616666Y-74645595D02*
X75616666Y-74717023D01*
X75616666Y-74717023D02*
X75592857Y-74812261D01*
X75592857Y-74812261D02*
X75569047Y-74859880D01*
X75569047Y-74859880D02*
X75521428Y-74907500D01*
X75521428Y-74907500D02*
X75450000Y-74931309D01*
X75450000Y-74931309D02*
X75330952Y-74931309D01*
X76092857Y-74931309D02*
X75807143Y-74931309D01*
X75950000Y-74931309D02*
X75950000Y-74431309D01*
X75950000Y-74431309D02*
X75902381Y-74502738D01*
X75902381Y-74502738D02*
X75854762Y-74550357D01*
X75854762Y-74550357D02*
X75807143Y-74574166D01*
X125516666Y-71461309D02*
X125350000Y-71223214D01*
X125230952Y-71461309D02*
X125230952Y-70961309D01*
X125230952Y-70961309D02*
X125421428Y-70961309D01*
X125421428Y-70961309D02*
X125469047Y-70985119D01*
X125469047Y-70985119D02*
X125492857Y-71008928D01*
X125492857Y-71008928D02*
X125516666Y-71056547D01*
X125516666Y-71056547D02*
X125516666Y-71127976D01*
X125516666Y-71127976D02*
X125492857Y-71175595D01*
X125492857Y-71175595D02*
X125469047Y-71199404D01*
X125469047Y-71199404D02*
X125421428Y-71223214D01*
X125421428Y-71223214D02*
X125230952Y-71223214D01*
X125969047Y-70961309D02*
X125730952Y-70961309D01*
X125730952Y-70961309D02*
X125707143Y-71199404D01*
X125707143Y-71199404D02*
X125730952Y-71175595D01*
X125730952Y-71175595D02*
X125778571Y-71151785D01*
X125778571Y-71151785D02*
X125897619Y-71151785D01*
X125897619Y-71151785D02*
X125945238Y-71175595D01*
X125945238Y-71175595D02*
X125969047Y-71199404D01*
X125969047Y-71199404D02*
X125992857Y-71247023D01*
X125992857Y-71247023D02*
X125992857Y-71366071D01*
X125992857Y-71366071D02*
X125969047Y-71413690D01*
X125969047Y-71413690D02*
X125945238Y-71437500D01*
X125945238Y-71437500D02*
X125897619Y-71461309D01*
X125897619Y-71461309D02*
X125778571Y-71461309D01*
X125778571Y-71461309D02*
X125730952Y-71437500D01*
X125730952Y-71437500D02*
X125707143Y-71413690D01*
D11*
X40706666Y-54468809D02*
X40849523Y-54516428D01*
X40849523Y-54516428D02*
X40897142Y-54564047D01*
X40897142Y-54564047D02*
X40944761Y-54659285D01*
X40944761Y-54659285D02*
X40944761Y-54802142D01*
X40944761Y-54802142D02*
X40897142Y-54897380D01*
X40897142Y-54897380D02*
X40849523Y-54945000D01*
X40849523Y-54945000D02*
X40754285Y-54992619D01*
X40754285Y-54992619D02*
X40373333Y-54992619D01*
X40373333Y-54992619D02*
X40373333Y-53992619D01*
X40373333Y-53992619D02*
X40706666Y-53992619D01*
X40706666Y-53992619D02*
X40801904Y-54040238D01*
X40801904Y-54040238D02*
X40849523Y-54087857D01*
X40849523Y-54087857D02*
X40897142Y-54183095D01*
X40897142Y-54183095D02*
X40897142Y-54278333D01*
X40897142Y-54278333D02*
X40849523Y-54373571D01*
X40849523Y-54373571D02*
X40801904Y-54421190D01*
X40801904Y-54421190D02*
X40706666Y-54468809D01*
X40706666Y-54468809D02*
X40373333Y-54468809D01*
X41563809Y-53992619D02*
X41754285Y-53992619D01*
X41754285Y-53992619D02*
X41849523Y-54040238D01*
X41849523Y-54040238D02*
X41944761Y-54135476D01*
X41944761Y-54135476D02*
X41992380Y-54325952D01*
X41992380Y-54325952D02*
X41992380Y-54659285D01*
X41992380Y-54659285D02*
X41944761Y-54849761D01*
X41944761Y-54849761D02*
X41849523Y-54945000D01*
X41849523Y-54945000D02*
X41754285Y-54992619D01*
X41754285Y-54992619D02*
X41563809Y-54992619D01*
X41563809Y-54992619D02*
X41468571Y-54945000D01*
X41468571Y-54945000D02*
X41373333Y-54849761D01*
X41373333Y-54849761D02*
X41325714Y-54659285D01*
X41325714Y-54659285D02*
X41325714Y-54325952D01*
X41325714Y-54325952D02*
X41373333Y-54135476D01*
X41373333Y-54135476D02*
X41468571Y-54040238D01*
X41468571Y-54040238D02*
X41563809Y-53992619D01*
X42611428Y-53992619D02*
X42801904Y-53992619D01*
X42801904Y-53992619D02*
X42897142Y-54040238D01*
X42897142Y-54040238D02*
X42992380Y-54135476D01*
X42992380Y-54135476D02*
X43039999Y-54325952D01*
X43039999Y-54325952D02*
X43039999Y-54659285D01*
X43039999Y-54659285D02*
X42992380Y-54849761D01*
X42992380Y-54849761D02*
X42897142Y-54945000D01*
X42897142Y-54945000D02*
X42801904Y-54992619D01*
X42801904Y-54992619D02*
X42611428Y-54992619D01*
X42611428Y-54992619D02*
X42516190Y-54945000D01*
X42516190Y-54945000D02*
X42420952Y-54849761D01*
X42420952Y-54849761D02*
X42373333Y-54659285D01*
X42373333Y-54659285D02*
X42373333Y-54325952D01*
X42373333Y-54325952D02*
X42420952Y-54135476D01*
X42420952Y-54135476D02*
X42516190Y-54040238D01*
X42516190Y-54040238D02*
X42611428Y-53992619D01*
X43325714Y-53992619D02*
X43897142Y-53992619D01*
X43611428Y-54992619D02*
X43611428Y-53992619D01*
X44754285Y-54992619D02*
X44182857Y-54992619D01*
X44468571Y-54992619D02*
X44468571Y-53992619D01*
X44468571Y-53992619D02*
X44373333Y-54135476D01*
X44373333Y-54135476D02*
X44278095Y-54230714D01*
X44278095Y-54230714D02*
X44182857Y-54278333D01*
D13*
X84033333Y-105631309D02*
X84033333Y-105988452D01*
X84033333Y-105988452D02*
X84009524Y-106059880D01*
X84009524Y-106059880D02*
X83961905Y-106107500D01*
X83961905Y-106107500D02*
X83890476Y-106131309D01*
X83890476Y-106131309D02*
X83842857Y-106131309D01*
X84509523Y-105631309D02*
X84271428Y-105631309D01*
X84271428Y-105631309D02*
X84247619Y-105869404D01*
X84247619Y-105869404D02*
X84271428Y-105845595D01*
X84271428Y-105845595D02*
X84319047Y-105821785D01*
X84319047Y-105821785D02*
X84438095Y-105821785D01*
X84438095Y-105821785D02*
X84485714Y-105845595D01*
X84485714Y-105845595D02*
X84509523Y-105869404D01*
X84509523Y-105869404D02*
X84533333Y-105917023D01*
X84533333Y-105917023D02*
X84533333Y-106036071D01*
X84533333Y-106036071D02*
X84509523Y-106083690D01*
X84509523Y-106083690D02*
X84485714Y-106107500D01*
X84485714Y-106107500D02*
X84438095Y-106131309D01*
X84438095Y-106131309D02*
X84319047Y-106131309D01*
X84319047Y-106131309D02*
X84271428Y-106107500D01*
X84271428Y-106107500D02*
X84247619Y-106083690D01*
X74483571Y-55183690D02*
X74459762Y-55207500D01*
X74459762Y-55207500D02*
X74388333Y-55231309D01*
X74388333Y-55231309D02*
X74340714Y-55231309D01*
X74340714Y-55231309D02*
X74269286Y-55207500D01*
X74269286Y-55207500D02*
X74221667Y-55159880D01*
X74221667Y-55159880D02*
X74197857Y-55112261D01*
X74197857Y-55112261D02*
X74174048Y-55017023D01*
X74174048Y-55017023D02*
X74174048Y-54945595D01*
X74174048Y-54945595D02*
X74197857Y-54850357D01*
X74197857Y-54850357D02*
X74221667Y-54802738D01*
X74221667Y-54802738D02*
X74269286Y-54755119D01*
X74269286Y-54755119D02*
X74340714Y-54731309D01*
X74340714Y-54731309D02*
X74388333Y-54731309D01*
X74388333Y-54731309D02*
X74459762Y-54755119D01*
X74459762Y-54755119D02*
X74483571Y-54778928D01*
X74959762Y-55231309D02*
X74674048Y-55231309D01*
X74816905Y-55231309D02*
X74816905Y-54731309D01*
X74816905Y-54731309D02*
X74769286Y-54802738D01*
X74769286Y-54802738D02*
X74721667Y-54850357D01*
X74721667Y-54850357D02*
X74674048Y-54874166D01*
X75269285Y-54731309D02*
X75316904Y-54731309D01*
X75316904Y-54731309D02*
X75364523Y-54755119D01*
X75364523Y-54755119D02*
X75388333Y-54778928D01*
X75388333Y-54778928D02*
X75412142Y-54826547D01*
X75412142Y-54826547D02*
X75435952Y-54921785D01*
X75435952Y-54921785D02*
X75435952Y-55040833D01*
X75435952Y-55040833D02*
X75412142Y-55136071D01*
X75412142Y-55136071D02*
X75388333Y-55183690D01*
X75388333Y-55183690D02*
X75364523Y-55207500D01*
X75364523Y-55207500D02*
X75316904Y-55231309D01*
X75316904Y-55231309D02*
X75269285Y-55231309D01*
X75269285Y-55231309D02*
X75221666Y-55207500D01*
X75221666Y-55207500D02*
X75197857Y-55183690D01*
X75197857Y-55183690D02*
X75174047Y-55136071D01*
X75174047Y-55136071D02*
X75150238Y-55040833D01*
X75150238Y-55040833D02*
X75150238Y-54921785D01*
X75150238Y-54921785D02*
X75174047Y-54826547D01*
X75174047Y-54826547D02*
X75197857Y-54778928D01*
X75197857Y-54778928D02*
X75221666Y-54755119D01*
X75221666Y-54755119D02*
X75269285Y-54731309D01*
X78380952Y-59061309D02*
X78380952Y-59466071D01*
X78380952Y-59466071D02*
X78404762Y-59513690D01*
X78404762Y-59513690D02*
X78428571Y-59537500D01*
X78428571Y-59537500D02*
X78476190Y-59561309D01*
X78476190Y-59561309D02*
X78571428Y-59561309D01*
X78571428Y-59561309D02*
X78619047Y-59537500D01*
X78619047Y-59537500D02*
X78642857Y-59513690D01*
X78642857Y-59513690D02*
X78666666Y-59466071D01*
X78666666Y-59466071D02*
X78666666Y-59061309D01*
X79166667Y-59561309D02*
X78880953Y-59561309D01*
X79023810Y-59561309D02*
X79023810Y-59061309D01*
X79023810Y-59061309D02*
X78976191Y-59132738D01*
X78976191Y-59132738D02*
X78928572Y-59180357D01*
X78928572Y-59180357D02*
X78880953Y-59204166D01*
X79357143Y-59108928D02*
X79380952Y-59085119D01*
X79380952Y-59085119D02*
X79428571Y-59061309D01*
X79428571Y-59061309D02*
X79547619Y-59061309D01*
X79547619Y-59061309D02*
X79595238Y-59085119D01*
X79595238Y-59085119D02*
X79619047Y-59108928D01*
X79619047Y-59108928D02*
X79642857Y-59156547D01*
X79642857Y-59156547D02*
X79642857Y-59204166D01*
X79642857Y-59204166D02*
X79619047Y-59275595D01*
X79619047Y-59275595D02*
X79333333Y-59561309D01*
X79333333Y-59561309D02*
X79642857Y-59561309D01*
X81178571Y-55183690D02*
X81154762Y-55207500D01*
X81154762Y-55207500D02*
X81083333Y-55231309D01*
X81083333Y-55231309D02*
X81035714Y-55231309D01*
X81035714Y-55231309D02*
X80964286Y-55207500D01*
X80964286Y-55207500D02*
X80916667Y-55159880D01*
X80916667Y-55159880D02*
X80892857Y-55112261D01*
X80892857Y-55112261D02*
X80869048Y-55017023D01*
X80869048Y-55017023D02*
X80869048Y-54945595D01*
X80869048Y-54945595D02*
X80892857Y-54850357D01*
X80892857Y-54850357D02*
X80916667Y-54802738D01*
X80916667Y-54802738D02*
X80964286Y-54755119D01*
X80964286Y-54755119D02*
X81035714Y-54731309D01*
X81035714Y-54731309D02*
X81083333Y-54731309D01*
X81083333Y-54731309D02*
X81154762Y-54755119D01*
X81154762Y-54755119D02*
X81178571Y-54778928D01*
X81607143Y-54731309D02*
X81511905Y-54731309D01*
X81511905Y-54731309D02*
X81464286Y-54755119D01*
X81464286Y-54755119D02*
X81440476Y-54778928D01*
X81440476Y-54778928D02*
X81392857Y-54850357D01*
X81392857Y-54850357D02*
X81369048Y-54945595D01*
X81369048Y-54945595D02*
X81369048Y-55136071D01*
X81369048Y-55136071D02*
X81392857Y-55183690D01*
X81392857Y-55183690D02*
X81416667Y-55207500D01*
X81416667Y-55207500D02*
X81464286Y-55231309D01*
X81464286Y-55231309D02*
X81559524Y-55231309D01*
X81559524Y-55231309D02*
X81607143Y-55207500D01*
X81607143Y-55207500D02*
X81630952Y-55183690D01*
X81630952Y-55183690D02*
X81654762Y-55136071D01*
X81654762Y-55136071D02*
X81654762Y-55017023D01*
X81654762Y-55017023D02*
X81630952Y-54969404D01*
X81630952Y-54969404D02*
X81607143Y-54945595D01*
X81607143Y-54945595D02*
X81559524Y-54921785D01*
X81559524Y-54921785D02*
X81464286Y-54921785D01*
X81464286Y-54921785D02*
X81416667Y-54945595D01*
X81416667Y-54945595D02*
X81392857Y-54969404D01*
X81392857Y-54969404D02*
X81369048Y-55017023D01*
X81940476Y-54945595D02*
X81892857Y-54921785D01*
X81892857Y-54921785D02*
X81869047Y-54897976D01*
X81869047Y-54897976D02*
X81845238Y-54850357D01*
X81845238Y-54850357D02*
X81845238Y-54826547D01*
X81845238Y-54826547D02*
X81869047Y-54778928D01*
X81869047Y-54778928D02*
X81892857Y-54755119D01*
X81892857Y-54755119D02*
X81940476Y-54731309D01*
X81940476Y-54731309D02*
X82035714Y-54731309D01*
X82035714Y-54731309D02*
X82083333Y-54755119D01*
X82083333Y-54755119D02*
X82107142Y-54778928D01*
X82107142Y-54778928D02*
X82130952Y-54826547D01*
X82130952Y-54826547D02*
X82130952Y-54850357D01*
X82130952Y-54850357D02*
X82107142Y-54897976D01*
X82107142Y-54897976D02*
X82083333Y-54921785D01*
X82083333Y-54921785D02*
X82035714Y-54945595D01*
X82035714Y-54945595D02*
X81940476Y-54945595D01*
X81940476Y-54945595D02*
X81892857Y-54969404D01*
X81892857Y-54969404D02*
X81869047Y-54993214D01*
X81869047Y-54993214D02*
X81845238Y-55040833D01*
X81845238Y-55040833D02*
X81845238Y-55136071D01*
X81845238Y-55136071D02*
X81869047Y-55183690D01*
X81869047Y-55183690D02*
X81892857Y-55207500D01*
X81892857Y-55207500D02*
X81940476Y-55231309D01*
X81940476Y-55231309D02*
X82035714Y-55231309D01*
X82035714Y-55231309D02*
X82083333Y-55207500D01*
X82083333Y-55207500D02*
X82107142Y-55183690D01*
X82107142Y-55183690D02*
X82130952Y-55136071D01*
X82130952Y-55136071D02*
X82130952Y-55040833D01*
X82130952Y-55040833D02*
X82107142Y-54993214D01*
X82107142Y-54993214D02*
X82083333Y-54969404D01*
X82083333Y-54969404D02*
X82035714Y-54945595D01*
X56978571Y-76931309D02*
X56811905Y-76693214D01*
X56692857Y-76931309D02*
X56692857Y-76431309D01*
X56692857Y-76431309D02*
X56883333Y-76431309D01*
X56883333Y-76431309D02*
X56930952Y-76455119D01*
X56930952Y-76455119D02*
X56954762Y-76478928D01*
X56954762Y-76478928D02*
X56978571Y-76526547D01*
X56978571Y-76526547D02*
X56978571Y-76597976D01*
X56978571Y-76597976D02*
X56954762Y-76645595D01*
X56954762Y-76645595D02*
X56930952Y-76669404D01*
X56930952Y-76669404D02*
X56883333Y-76693214D01*
X56883333Y-76693214D02*
X56692857Y-76693214D01*
X57454762Y-76931309D02*
X57169048Y-76931309D01*
X57311905Y-76931309D02*
X57311905Y-76431309D01*
X57311905Y-76431309D02*
X57264286Y-76502738D01*
X57264286Y-76502738D02*
X57216667Y-76550357D01*
X57216667Y-76550357D02*
X57169048Y-76574166D01*
X57930952Y-76931309D02*
X57645238Y-76931309D01*
X57788095Y-76931309D02*
X57788095Y-76431309D01*
X57788095Y-76431309D02*
X57740476Y-76502738D01*
X57740476Y-76502738D02*
X57692857Y-76550357D01*
X57692857Y-76550357D02*
X57645238Y-76574166D01*
X82319047Y-87131309D02*
X82319047Y-87536071D01*
X82319047Y-87536071D02*
X82342857Y-87583690D01*
X82342857Y-87583690D02*
X82366666Y-87607500D01*
X82366666Y-87607500D02*
X82414285Y-87631309D01*
X82414285Y-87631309D02*
X82509523Y-87631309D01*
X82509523Y-87631309D02*
X82557142Y-87607500D01*
X82557142Y-87607500D02*
X82580952Y-87583690D01*
X82580952Y-87583690D02*
X82604761Y-87536071D01*
X82604761Y-87536071D02*
X82604761Y-87131309D01*
X83080952Y-87131309D02*
X82842857Y-87131309D01*
X82842857Y-87131309D02*
X82819048Y-87369404D01*
X82819048Y-87369404D02*
X82842857Y-87345595D01*
X82842857Y-87345595D02*
X82890476Y-87321785D01*
X82890476Y-87321785D02*
X83009524Y-87321785D01*
X83009524Y-87321785D02*
X83057143Y-87345595D01*
X83057143Y-87345595D02*
X83080952Y-87369404D01*
X83080952Y-87369404D02*
X83104762Y-87417023D01*
X83104762Y-87417023D02*
X83104762Y-87536071D01*
X83104762Y-87536071D02*
X83080952Y-87583690D01*
X83080952Y-87583690D02*
X83057143Y-87607500D01*
X83057143Y-87607500D02*
X83009524Y-87631309D01*
X83009524Y-87631309D02*
X82890476Y-87631309D01*
X82890476Y-87631309D02*
X82842857Y-87607500D01*
X82842857Y-87607500D02*
X82819048Y-87583690D01*
D11*
X129288095Y-72882619D02*
X129859523Y-72882619D01*
X129573809Y-73882619D02*
X129573809Y-72882619D01*
X130192857Y-73882619D02*
X130192857Y-72882619D01*
X130192857Y-72882619D02*
X130573809Y-72882619D01*
X130573809Y-72882619D02*
X130669047Y-72930238D01*
X130669047Y-72930238D02*
X130716666Y-72977857D01*
X130716666Y-72977857D02*
X130764285Y-73073095D01*
X130764285Y-73073095D02*
X130764285Y-73215952D01*
X130764285Y-73215952D02*
X130716666Y-73311190D01*
X130716666Y-73311190D02*
X130669047Y-73358809D01*
X130669047Y-73358809D02*
X130573809Y-73406428D01*
X130573809Y-73406428D02*
X130192857Y-73406428D01*
X131669047Y-72882619D02*
X131192857Y-72882619D01*
X131192857Y-72882619D02*
X131145238Y-73358809D01*
X131145238Y-73358809D02*
X131192857Y-73311190D01*
X131192857Y-73311190D02*
X131288095Y-73263571D01*
X131288095Y-73263571D02*
X131526190Y-73263571D01*
X131526190Y-73263571D02*
X131621428Y-73311190D01*
X131621428Y-73311190D02*
X131669047Y-73358809D01*
X131669047Y-73358809D02*
X131716666Y-73454047D01*
X131716666Y-73454047D02*
X131716666Y-73692142D01*
X131716666Y-73692142D02*
X131669047Y-73787380D01*
X131669047Y-73787380D02*
X131621428Y-73835000D01*
X131621428Y-73835000D02*
X131526190Y-73882619D01*
X131526190Y-73882619D02*
X131288095Y-73882619D01*
X131288095Y-73882619D02*
X131192857Y-73835000D01*
X131192857Y-73835000D02*
X131145238Y-73787380D01*
D13*
X117580952Y-60831309D02*
X117580952Y-61236071D01*
X117580952Y-61236071D02*
X117604762Y-61283690D01*
X117604762Y-61283690D02*
X117628571Y-61307500D01*
X117628571Y-61307500D02*
X117676190Y-61331309D01*
X117676190Y-61331309D02*
X117771428Y-61331309D01*
X117771428Y-61331309D02*
X117819047Y-61307500D01*
X117819047Y-61307500D02*
X117842857Y-61283690D01*
X117842857Y-61283690D02*
X117866666Y-61236071D01*
X117866666Y-61236071D02*
X117866666Y-60831309D01*
X118366667Y-61331309D02*
X118080953Y-61331309D01*
X118223810Y-61331309D02*
X118223810Y-60831309D01*
X118223810Y-60831309D02*
X118176191Y-60902738D01*
X118176191Y-60902738D02*
X118128572Y-60950357D01*
X118128572Y-60950357D02*
X118080953Y-60974166D01*
X118842857Y-61331309D02*
X118557143Y-61331309D01*
X118700000Y-61331309D02*
X118700000Y-60831309D01*
X118700000Y-60831309D02*
X118652381Y-60902738D01*
X118652381Y-60902738D02*
X118604762Y-60950357D01*
X118604762Y-60950357D02*
X118557143Y-60974166D01*
X51603571Y-91183690D02*
X51579762Y-91207500D01*
X51579762Y-91207500D02*
X51508333Y-91231309D01*
X51508333Y-91231309D02*
X51460714Y-91231309D01*
X51460714Y-91231309D02*
X51389286Y-91207500D01*
X51389286Y-91207500D02*
X51341667Y-91159880D01*
X51341667Y-91159880D02*
X51317857Y-91112261D01*
X51317857Y-91112261D02*
X51294048Y-91017023D01*
X51294048Y-91017023D02*
X51294048Y-90945595D01*
X51294048Y-90945595D02*
X51317857Y-90850357D01*
X51317857Y-90850357D02*
X51341667Y-90802738D01*
X51341667Y-90802738D02*
X51389286Y-90755119D01*
X51389286Y-90755119D02*
X51460714Y-90731309D01*
X51460714Y-90731309D02*
X51508333Y-90731309D01*
X51508333Y-90731309D02*
X51579762Y-90755119D01*
X51579762Y-90755119D02*
X51603571Y-90778928D01*
X51770238Y-90731309D02*
X52079762Y-90731309D01*
X52079762Y-90731309D02*
X51913095Y-90921785D01*
X51913095Y-90921785D02*
X51984524Y-90921785D01*
X51984524Y-90921785D02*
X52032143Y-90945595D01*
X52032143Y-90945595D02*
X52055952Y-90969404D01*
X52055952Y-90969404D02*
X52079762Y-91017023D01*
X52079762Y-91017023D02*
X52079762Y-91136071D01*
X52079762Y-91136071D02*
X52055952Y-91183690D01*
X52055952Y-91183690D02*
X52032143Y-91207500D01*
X52032143Y-91207500D02*
X51984524Y-91231309D01*
X51984524Y-91231309D02*
X51841667Y-91231309D01*
X51841667Y-91231309D02*
X51794048Y-91207500D01*
X51794048Y-91207500D02*
X51770238Y-91183690D01*
X52246428Y-90731309D02*
X52579761Y-90731309D01*
X52579761Y-90731309D02*
X52365476Y-91231309D01*
X97183571Y-93743690D02*
X97159762Y-93767500D01*
X97159762Y-93767500D02*
X97088333Y-93791309D01*
X97088333Y-93791309D02*
X97040714Y-93791309D01*
X97040714Y-93791309D02*
X96969286Y-93767500D01*
X96969286Y-93767500D02*
X96921667Y-93719880D01*
X96921667Y-93719880D02*
X96897857Y-93672261D01*
X96897857Y-93672261D02*
X96874048Y-93577023D01*
X96874048Y-93577023D02*
X96874048Y-93505595D01*
X96874048Y-93505595D02*
X96897857Y-93410357D01*
X96897857Y-93410357D02*
X96921667Y-93362738D01*
X96921667Y-93362738D02*
X96969286Y-93315119D01*
X96969286Y-93315119D02*
X97040714Y-93291309D01*
X97040714Y-93291309D02*
X97088333Y-93291309D01*
X97088333Y-93291309D02*
X97159762Y-93315119D01*
X97159762Y-93315119D02*
X97183571Y-93338928D01*
X97612143Y-93457976D02*
X97612143Y-93791309D01*
X97493095Y-93267500D02*
X97374048Y-93624642D01*
X97374048Y-93624642D02*
X97683571Y-93624642D01*
X97969285Y-93291309D02*
X98016904Y-93291309D01*
X98016904Y-93291309D02*
X98064523Y-93315119D01*
X98064523Y-93315119D02*
X98088333Y-93338928D01*
X98088333Y-93338928D02*
X98112142Y-93386547D01*
X98112142Y-93386547D02*
X98135952Y-93481785D01*
X98135952Y-93481785D02*
X98135952Y-93600833D01*
X98135952Y-93600833D02*
X98112142Y-93696071D01*
X98112142Y-93696071D02*
X98088333Y-93743690D01*
X98088333Y-93743690D02*
X98064523Y-93767500D01*
X98064523Y-93767500D02*
X98016904Y-93791309D01*
X98016904Y-93791309D02*
X97969285Y-93791309D01*
X97969285Y-93791309D02*
X97921666Y-93767500D01*
X97921666Y-93767500D02*
X97897857Y-93743690D01*
X97897857Y-93743690D02*
X97874047Y-93696071D01*
X97874047Y-93696071D02*
X97850238Y-93600833D01*
X97850238Y-93600833D02*
X97850238Y-93481785D01*
X97850238Y-93481785D02*
X97874047Y-93386547D01*
X97874047Y-93386547D02*
X97897857Y-93338928D01*
X97897857Y-93338928D02*
X97921666Y-93315119D01*
X97921666Y-93315119D02*
X97969285Y-93291309D01*
X58569047Y-73431309D02*
X58569047Y-73836071D01*
X58569047Y-73836071D02*
X58592857Y-73883690D01*
X58592857Y-73883690D02*
X58616666Y-73907500D01*
X58616666Y-73907500D02*
X58664285Y-73931309D01*
X58664285Y-73931309D02*
X58759523Y-73931309D01*
X58759523Y-73931309D02*
X58807142Y-73907500D01*
X58807142Y-73907500D02*
X58830952Y-73883690D01*
X58830952Y-73883690D02*
X58854761Y-73836071D01*
X58854761Y-73836071D02*
X58854761Y-73431309D01*
X59069048Y-73478928D02*
X59092857Y-73455119D01*
X59092857Y-73455119D02*
X59140476Y-73431309D01*
X59140476Y-73431309D02*
X59259524Y-73431309D01*
X59259524Y-73431309D02*
X59307143Y-73455119D01*
X59307143Y-73455119D02*
X59330952Y-73478928D01*
X59330952Y-73478928D02*
X59354762Y-73526547D01*
X59354762Y-73526547D02*
X59354762Y-73574166D01*
X59354762Y-73574166D02*
X59330952Y-73645595D01*
X59330952Y-73645595D02*
X59045238Y-73931309D01*
X59045238Y-73931309D02*
X59354762Y-73931309D01*
X117578571Y-67931309D02*
X117411905Y-67693214D01*
X117292857Y-67931309D02*
X117292857Y-67431309D01*
X117292857Y-67431309D02*
X117483333Y-67431309D01*
X117483333Y-67431309D02*
X117530952Y-67455119D01*
X117530952Y-67455119D02*
X117554762Y-67478928D01*
X117554762Y-67478928D02*
X117578571Y-67526547D01*
X117578571Y-67526547D02*
X117578571Y-67597976D01*
X117578571Y-67597976D02*
X117554762Y-67645595D01*
X117554762Y-67645595D02*
X117530952Y-67669404D01*
X117530952Y-67669404D02*
X117483333Y-67693214D01*
X117483333Y-67693214D02*
X117292857Y-67693214D01*
X117769048Y-67478928D02*
X117792857Y-67455119D01*
X117792857Y-67455119D02*
X117840476Y-67431309D01*
X117840476Y-67431309D02*
X117959524Y-67431309D01*
X117959524Y-67431309D02*
X118007143Y-67455119D01*
X118007143Y-67455119D02*
X118030952Y-67478928D01*
X118030952Y-67478928D02*
X118054762Y-67526547D01*
X118054762Y-67526547D02*
X118054762Y-67574166D01*
X118054762Y-67574166D02*
X118030952Y-67645595D01*
X118030952Y-67645595D02*
X117745238Y-67931309D01*
X117745238Y-67931309D02*
X118054762Y-67931309D01*
X118483333Y-67597976D02*
X118483333Y-67931309D01*
X118364285Y-67407500D02*
X118245238Y-67764642D01*
X118245238Y-67764642D02*
X118554761Y-67764642D01*
X99319047Y-83031309D02*
X99319047Y-83436071D01*
X99319047Y-83436071D02*
X99342857Y-83483690D01*
X99342857Y-83483690D02*
X99366666Y-83507500D01*
X99366666Y-83507500D02*
X99414285Y-83531309D01*
X99414285Y-83531309D02*
X99509523Y-83531309D01*
X99509523Y-83531309D02*
X99557142Y-83507500D01*
X99557142Y-83507500D02*
X99580952Y-83483690D01*
X99580952Y-83483690D02*
X99604761Y-83436071D01*
X99604761Y-83436071D02*
X99604761Y-83031309D01*
X99795238Y-83031309D02*
X100128571Y-83031309D01*
X100128571Y-83031309D02*
X99914286Y-83531309D01*
X45421666Y-59131309D02*
X45255000Y-58893214D01*
X45135952Y-59131309D02*
X45135952Y-58631309D01*
X45135952Y-58631309D02*
X45326428Y-58631309D01*
X45326428Y-58631309D02*
X45374047Y-58655119D01*
X45374047Y-58655119D02*
X45397857Y-58678928D01*
X45397857Y-58678928D02*
X45421666Y-58726547D01*
X45421666Y-58726547D02*
X45421666Y-58797976D01*
X45421666Y-58797976D02*
X45397857Y-58845595D01*
X45397857Y-58845595D02*
X45374047Y-58869404D01*
X45374047Y-58869404D02*
X45326428Y-58893214D01*
X45326428Y-58893214D02*
X45135952Y-58893214D01*
X45897857Y-59131309D02*
X45612143Y-59131309D01*
X45755000Y-59131309D02*
X45755000Y-58631309D01*
X45755000Y-58631309D02*
X45707381Y-58702738D01*
X45707381Y-58702738D02*
X45659762Y-58750357D01*
X45659762Y-58750357D02*
X45612143Y-58774166D01*
X81283571Y-79131309D02*
X81116905Y-78893214D01*
X80997857Y-79131309D02*
X80997857Y-78631309D01*
X80997857Y-78631309D02*
X81188333Y-78631309D01*
X81188333Y-78631309D02*
X81235952Y-78655119D01*
X81235952Y-78655119D02*
X81259762Y-78678928D01*
X81259762Y-78678928D02*
X81283571Y-78726547D01*
X81283571Y-78726547D02*
X81283571Y-78797976D01*
X81283571Y-78797976D02*
X81259762Y-78845595D01*
X81259762Y-78845595D02*
X81235952Y-78869404D01*
X81235952Y-78869404D02*
X81188333Y-78893214D01*
X81188333Y-78893214D02*
X80997857Y-78893214D01*
X81759762Y-79131309D02*
X81474048Y-79131309D01*
X81616905Y-79131309D02*
X81616905Y-78631309D01*
X81616905Y-78631309D02*
X81569286Y-78702738D01*
X81569286Y-78702738D02*
X81521667Y-78750357D01*
X81521667Y-78750357D02*
X81474048Y-78774166D01*
X82212142Y-78631309D02*
X81974047Y-78631309D01*
X81974047Y-78631309D02*
X81950238Y-78869404D01*
X81950238Y-78869404D02*
X81974047Y-78845595D01*
X81974047Y-78845595D02*
X82021666Y-78821785D01*
X82021666Y-78821785D02*
X82140714Y-78821785D01*
X82140714Y-78821785D02*
X82188333Y-78845595D01*
X82188333Y-78845595D02*
X82212142Y-78869404D01*
X82212142Y-78869404D02*
X82235952Y-78917023D01*
X82235952Y-78917023D02*
X82235952Y-79036071D01*
X82235952Y-79036071D02*
X82212142Y-79083690D01*
X82212142Y-79083690D02*
X82188333Y-79107500D01*
X82188333Y-79107500D02*
X82140714Y-79131309D01*
X82140714Y-79131309D02*
X82021666Y-79131309D01*
X82021666Y-79131309D02*
X81974047Y-79107500D01*
X81974047Y-79107500D02*
X81950238Y-79083690D01*
X86778571Y-97783690D02*
X86754762Y-97807500D01*
X86754762Y-97807500D02*
X86683333Y-97831309D01*
X86683333Y-97831309D02*
X86635714Y-97831309D01*
X86635714Y-97831309D02*
X86564286Y-97807500D01*
X86564286Y-97807500D02*
X86516667Y-97759880D01*
X86516667Y-97759880D02*
X86492857Y-97712261D01*
X86492857Y-97712261D02*
X86469048Y-97617023D01*
X86469048Y-97617023D02*
X86469048Y-97545595D01*
X86469048Y-97545595D02*
X86492857Y-97450357D01*
X86492857Y-97450357D02*
X86516667Y-97402738D01*
X86516667Y-97402738D02*
X86564286Y-97355119D01*
X86564286Y-97355119D02*
X86635714Y-97331309D01*
X86635714Y-97331309D02*
X86683333Y-97331309D01*
X86683333Y-97331309D02*
X86754762Y-97355119D01*
X86754762Y-97355119D02*
X86778571Y-97378928D01*
X87230952Y-97331309D02*
X86992857Y-97331309D01*
X86992857Y-97331309D02*
X86969048Y-97569404D01*
X86969048Y-97569404D02*
X86992857Y-97545595D01*
X86992857Y-97545595D02*
X87040476Y-97521785D01*
X87040476Y-97521785D02*
X87159524Y-97521785D01*
X87159524Y-97521785D02*
X87207143Y-97545595D01*
X87207143Y-97545595D02*
X87230952Y-97569404D01*
X87230952Y-97569404D02*
X87254762Y-97617023D01*
X87254762Y-97617023D02*
X87254762Y-97736071D01*
X87254762Y-97736071D02*
X87230952Y-97783690D01*
X87230952Y-97783690D02*
X87207143Y-97807500D01*
X87207143Y-97807500D02*
X87159524Y-97831309D01*
X87159524Y-97831309D02*
X87040476Y-97831309D01*
X87040476Y-97831309D02*
X86992857Y-97807500D01*
X86992857Y-97807500D02*
X86969048Y-97783690D01*
X87421428Y-97331309D02*
X87730952Y-97331309D01*
X87730952Y-97331309D02*
X87564285Y-97521785D01*
X87564285Y-97521785D02*
X87635714Y-97521785D01*
X87635714Y-97521785D02*
X87683333Y-97545595D01*
X87683333Y-97545595D02*
X87707142Y-97569404D01*
X87707142Y-97569404D02*
X87730952Y-97617023D01*
X87730952Y-97617023D02*
X87730952Y-97736071D01*
X87730952Y-97736071D02*
X87707142Y-97783690D01*
X87707142Y-97783690D02*
X87683333Y-97807500D01*
X87683333Y-97807500D02*
X87635714Y-97831309D01*
X87635714Y-97831309D02*
X87492857Y-97831309D01*
X87492857Y-97831309D02*
X87445238Y-97807500D01*
X87445238Y-97807500D02*
X87421428Y-97783690D01*
X45616666Y-78361309D02*
X45450000Y-78123214D01*
X45330952Y-78361309D02*
X45330952Y-77861309D01*
X45330952Y-77861309D02*
X45521428Y-77861309D01*
X45521428Y-77861309D02*
X45569047Y-77885119D01*
X45569047Y-77885119D02*
X45592857Y-77908928D01*
X45592857Y-77908928D02*
X45616666Y-77956547D01*
X45616666Y-77956547D02*
X45616666Y-78027976D01*
X45616666Y-78027976D02*
X45592857Y-78075595D01*
X45592857Y-78075595D02*
X45569047Y-78099404D01*
X45569047Y-78099404D02*
X45521428Y-78123214D01*
X45521428Y-78123214D02*
X45330952Y-78123214D01*
X45807143Y-77908928D02*
X45830952Y-77885119D01*
X45830952Y-77885119D02*
X45878571Y-77861309D01*
X45878571Y-77861309D02*
X45997619Y-77861309D01*
X45997619Y-77861309D02*
X46045238Y-77885119D01*
X46045238Y-77885119D02*
X46069047Y-77908928D01*
X46069047Y-77908928D02*
X46092857Y-77956547D01*
X46092857Y-77956547D02*
X46092857Y-78004166D01*
X46092857Y-78004166D02*
X46069047Y-78075595D01*
X46069047Y-78075595D02*
X45783333Y-78361309D01*
X45783333Y-78361309D02*
X46092857Y-78361309D01*
D11*
X43178095Y-79882619D02*
X43749523Y-79882619D01*
X43463809Y-80882619D02*
X43463809Y-79882619D01*
X44082857Y-80882619D02*
X44082857Y-79882619D01*
X44082857Y-79882619D02*
X44463809Y-79882619D01*
X44463809Y-79882619D02*
X44559047Y-79930238D01*
X44559047Y-79930238D02*
X44606666Y-79977857D01*
X44606666Y-79977857D02*
X44654285Y-80073095D01*
X44654285Y-80073095D02*
X44654285Y-80215952D01*
X44654285Y-80215952D02*
X44606666Y-80311190D01*
X44606666Y-80311190D02*
X44559047Y-80358809D01*
X44559047Y-80358809D02*
X44463809Y-80406428D01*
X44463809Y-80406428D02*
X44082857Y-80406428D01*
X44987619Y-79882619D02*
X45606666Y-79882619D01*
X45606666Y-79882619D02*
X45273333Y-80263571D01*
X45273333Y-80263571D02*
X45416190Y-80263571D01*
X45416190Y-80263571D02*
X45511428Y-80311190D01*
X45511428Y-80311190D02*
X45559047Y-80358809D01*
X45559047Y-80358809D02*
X45606666Y-80454047D01*
X45606666Y-80454047D02*
X45606666Y-80692142D01*
X45606666Y-80692142D02*
X45559047Y-80787380D01*
X45559047Y-80787380D02*
X45511428Y-80835000D01*
X45511428Y-80835000D02*
X45416190Y-80882619D01*
X45416190Y-80882619D02*
X45130476Y-80882619D01*
X45130476Y-80882619D02*
X45035238Y-80835000D01*
X45035238Y-80835000D02*
X44987619Y-80787380D01*
D13*
X72919047Y-69731309D02*
X72919047Y-70136071D01*
X72919047Y-70136071D02*
X72942857Y-70183690D01*
X72942857Y-70183690D02*
X72966666Y-70207500D01*
X72966666Y-70207500D02*
X73014285Y-70231309D01*
X73014285Y-70231309D02*
X73109523Y-70231309D01*
X73109523Y-70231309D02*
X73157142Y-70207500D01*
X73157142Y-70207500D02*
X73180952Y-70183690D01*
X73180952Y-70183690D02*
X73204761Y-70136071D01*
X73204761Y-70136071D02*
X73204761Y-69731309D01*
X73395238Y-69731309D02*
X73704762Y-69731309D01*
X73704762Y-69731309D02*
X73538095Y-69921785D01*
X73538095Y-69921785D02*
X73609524Y-69921785D01*
X73609524Y-69921785D02*
X73657143Y-69945595D01*
X73657143Y-69945595D02*
X73680952Y-69969404D01*
X73680952Y-69969404D02*
X73704762Y-70017023D01*
X73704762Y-70017023D02*
X73704762Y-70136071D01*
X73704762Y-70136071D02*
X73680952Y-70183690D01*
X73680952Y-70183690D02*
X73657143Y-70207500D01*
X73657143Y-70207500D02*
X73609524Y-70231309D01*
X73609524Y-70231309D02*
X73466667Y-70231309D01*
X73466667Y-70231309D02*
X73419048Y-70207500D01*
X73419048Y-70207500D02*
X73395238Y-70183690D01*
X113453571Y-58661309D02*
X113286905Y-58423214D01*
X113167857Y-58661309D02*
X113167857Y-58161309D01*
X113167857Y-58161309D02*
X113358333Y-58161309D01*
X113358333Y-58161309D02*
X113405952Y-58185119D01*
X113405952Y-58185119D02*
X113429762Y-58208928D01*
X113429762Y-58208928D02*
X113453571Y-58256547D01*
X113453571Y-58256547D02*
X113453571Y-58327976D01*
X113453571Y-58327976D02*
X113429762Y-58375595D01*
X113429762Y-58375595D02*
X113405952Y-58399404D01*
X113405952Y-58399404D02*
X113358333Y-58423214D01*
X113358333Y-58423214D02*
X113167857Y-58423214D01*
X113644048Y-58208928D02*
X113667857Y-58185119D01*
X113667857Y-58185119D02*
X113715476Y-58161309D01*
X113715476Y-58161309D02*
X113834524Y-58161309D01*
X113834524Y-58161309D02*
X113882143Y-58185119D01*
X113882143Y-58185119D02*
X113905952Y-58208928D01*
X113905952Y-58208928D02*
X113929762Y-58256547D01*
X113929762Y-58256547D02*
X113929762Y-58304166D01*
X113929762Y-58304166D02*
X113905952Y-58375595D01*
X113905952Y-58375595D02*
X113620238Y-58661309D01*
X113620238Y-58661309D02*
X113929762Y-58661309D01*
X114096428Y-58161309D02*
X114429761Y-58161309D01*
X114429761Y-58161309D02*
X114215476Y-58661309D01*
X94261905Y-87193214D02*
X94261905Y-87431309D01*
X94095239Y-86931309D02*
X94261905Y-87193214D01*
X94261905Y-87193214D02*
X94428572Y-86931309D01*
X94547619Y-86931309D02*
X94857143Y-86931309D01*
X94857143Y-86931309D02*
X94690476Y-87121785D01*
X94690476Y-87121785D02*
X94761905Y-87121785D01*
X94761905Y-87121785D02*
X94809524Y-87145595D01*
X94809524Y-87145595D02*
X94833333Y-87169404D01*
X94833333Y-87169404D02*
X94857143Y-87217023D01*
X94857143Y-87217023D02*
X94857143Y-87336071D01*
X94857143Y-87336071D02*
X94833333Y-87383690D01*
X94833333Y-87383690D02*
X94809524Y-87407500D01*
X94809524Y-87407500D02*
X94761905Y-87431309D01*
X94761905Y-87431309D02*
X94619048Y-87431309D01*
X94619048Y-87431309D02*
X94571429Y-87407500D01*
X94571429Y-87407500D02*
X94547619Y-87383690D01*
D11*
X124118095Y-68692619D02*
X124689523Y-68692619D01*
X124403809Y-69692619D02*
X124403809Y-68692619D01*
X125022857Y-69692619D02*
X125022857Y-68692619D01*
X125022857Y-68692619D02*
X125403809Y-68692619D01*
X125403809Y-68692619D02*
X125499047Y-68740238D01*
X125499047Y-68740238D02*
X125546666Y-68787857D01*
X125546666Y-68787857D02*
X125594285Y-68883095D01*
X125594285Y-68883095D02*
X125594285Y-69025952D01*
X125594285Y-69025952D02*
X125546666Y-69121190D01*
X125546666Y-69121190D02*
X125499047Y-69168809D01*
X125499047Y-69168809D02*
X125403809Y-69216428D01*
X125403809Y-69216428D02*
X125022857Y-69216428D01*
X126451428Y-68692619D02*
X126260952Y-68692619D01*
X126260952Y-68692619D02*
X126165714Y-68740238D01*
X126165714Y-68740238D02*
X126118095Y-68787857D01*
X126118095Y-68787857D02*
X126022857Y-68930714D01*
X126022857Y-68930714D02*
X125975238Y-69121190D01*
X125975238Y-69121190D02*
X125975238Y-69502142D01*
X125975238Y-69502142D02*
X126022857Y-69597380D01*
X126022857Y-69597380D02*
X126070476Y-69645000D01*
X126070476Y-69645000D02*
X126165714Y-69692619D01*
X126165714Y-69692619D02*
X126356190Y-69692619D01*
X126356190Y-69692619D02*
X126451428Y-69645000D01*
X126451428Y-69645000D02*
X126499047Y-69597380D01*
X126499047Y-69597380D02*
X126546666Y-69502142D01*
X126546666Y-69502142D02*
X126546666Y-69264047D01*
X126546666Y-69264047D02*
X126499047Y-69168809D01*
X126499047Y-69168809D02*
X126451428Y-69121190D01*
X126451428Y-69121190D02*
X126356190Y-69073571D01*
X126356190Y-69073571D02*
X126165714Y-69073571D01*
X126165714Y-69073571D02*
X126070476Y-69121190D01*
X126070476Y-69121190D02*
X126022857Y-69168809D01*
X126022857Y-69168809D02*
X125975238Y-69264047D01*
D13*
X130213571Y-84913690D02*
X130189762Y-84937500D01*
X130189762Y-84937500D02*
X130118333Y-84961309D01*
X130118333Y-84961309D02*
X130070714Y-84961309D01*
X130070714Y-84961309D02*
X129999286Y-84937500D01*
X129999286Y-84937500D02*
X129951667Y-84889880D01*
X129951667Y-84889880D02*
X129927857Y-84842261D01*
X129927857Y-84842261D02*
X129904048Y-84747023D01*
X129904048Y-84747023D02*
X129904048Y-84675595D01*
X129904048Y-84675595D02*
X129927857Y-84580357D01*
X129927857Y-84580357D02*
X129951667Y-84532738D01*
X129951667Y-84532738D02*
X129999286Y-84485119D01*
X129999286Y-84485119D02*
X130070714Y-84461309D01*
X130070714Y-84461309D02*
X130118333Y-84461309D01*
X130118333Y-84461309D02*
X130189762Y-84485119D01*
X130189762Y-84485119D02*
X130213571Y-84508928D01*
X130665952Y-84461309D02*
X130427857Y-84461309D01*
X130427857Y-84461309D02*
X130404048Y-84699404D01*
X130404048Y-84699404D02*
X130427857Y-84675595D01*
X130427857Y-84675595D02*
X130475476Y-84651785D01*
X130475476Y-84651785D02*
X130594524Y-84651785D01*
X130594524Y-84651785D02*
X130642143Y-84675595D01*
X130642143Y-84675595D02*
X130665952Y-84699404D01*
X130665952Y-84699404D02*
X130689762Y-84747023D01*
X130689762Y-84747023D02*
X130689762Y-84866071D01*
X130689762Y-84866071D02*
X130665952Y-84913690D01*
X130665952Y-84913690D02*
X130642143Y-84937500D01*
X130642143Y-84937500D02*
X130594524Y-84961309D01*
X130594524Y-84961309D02*
X130475476Y-84961309D01*
X130475476Y-84961309D02*
X130427857Y-84937500D01*
X130427857Y-84937500D02*
X130404048Y-84913690D01*
X130999285Y-84461309D02*
X131046904Y-84461309D01*
X131046904Y-84461309D02*
X131094523Y-84485119D01*
X131094523Y-84485119D02*
X131118333Y-84508928D01*
X131118333Y-84508928D02*
X131142142Y-84556547D01*
X131142142Y-84556547D02*
X131165952Y-84651785D01*
X131165952Y-84651785D02*
X131165952Y-84770833D01*
X131165952Y-84770833D02*
X131142142Y-84866071D01*
X131142142Y-84866071D02*
X131118333Y-84913690D01*
X131118333Y-84913690D02*
X131094523Y-84937500D01*
X131094523Y-84937500D02*
X131046904Y-84961309D01*
X131046904Y-84961309D02*
X130999285Y-84961309D01*
X130999285Y-84961309D02*
X130951666Y-84937500D01*
X130951666Y-84937500D02*
X130927857Y-84913690D01*
X130927857Y-84913690D02*
X130904047Y-84866071D01*
X130904047Y-84866071D02*
X130880238Y-84770833D01*
X130880238Y-84770833D02*
X130880238Y-84651785D01*
X130880238Y-84651785D02*
X130904047Y-84556547D01*
X130904047Y-84556547D02*
X130927857Y-84508928D01*
X130927857Y-84508928D02*
X130951666Y-84485119D01*
X130951666Y-84485119D02*
X130999285Y-84461309D01*
X47933333Y-105531309D02*
X47933333Y-105888452D01*
X47933333Y-105888452D02*
X47909524Y-105959880D01*
X47909524Y-105959880D02*
X47861905Y-106007500D01*
X47861905Y-106007500D02*
X47790476Y-106031309D01*
X47790476Y-106031309D02*
X47742857Y-106031309D01*
X48385714Y-105697976D02*
X48385714Y-106031309D01*
X48266666Y-105507500D02*
X48147619Y-105864642D01*
X48147619Y-105864642D02*
X48457142Y-105864642D01*
X48878571Y-98683690D02*
X48854762Y-98707500D01*
X48854762Y-98707500D02*
X48783333Y-98731309D01*
X48783333Y-98731309D02*
X48735714Y-98731309D01*
X48735714Y-98731309D02*
X48664286Y-98707500D01*
X48664286Y-98707500D02*
X48616667Y-98659880D01*
X48616667Y-98659880D02*
X48592857Y-98612261D01*
X48592857Y-98612261D02*
X48569048Y-98517023D01*
X48569048Y-98517023D02*
X48569048Y-98445595D01*
X48569048Y-98445595D02*
X48592857Y-98350357D01*
X48592857Y-98350357D02*
X48616667Y-98302738D01*
X48616667Y-98302738D02*
X48664286Y-98255119D01*
X48664286Y-98255119D02*
X48735714Y-98231309D01*
X48735714Y-98231309D02*
X48783333Y-98231309D01*
X48783333Y-98231309D02*
X48854762Y-98255119D01*
X48854762Y-98255119D02*
X48878571Y-98278928D01*
X49045238Y-98231309D02*
X49354762Y-98231309D01*
X49354762Y-98231309D02*
X49188095Y-98421785D01*
X49188095Y-98421785D02*
X49259524Y-98421785D01*
X49259524Y-98421785D02*
X49307143Y-98445595D01*
X49307143Y-98445595D02*
X49330952Y-98469404D01*
X49330952Y-98469404D02*
X49354762Y-98517023D01*
X49354762Y-98517023D02*
X49354762Y-98636071D01*
X49354762Y-98636071D02*
X49330952Y-98683690D01*
X49330952Y-98683690D02*
X49307143Y-98707500D01*
X49307143Y-98707500D02*
X49259524Y-98731309D01*
X49259524Y-98731309D02*
X49116667Y-98731309D01*
X49116667Y-98731309D02*
X49069048Y-98707500D01*
X49069048Y-98707500D02*
X49045238Y-98683690D01*
X49640476Y-98445595D02*
X49592857Y-98421785D01*
X49592857Y-98421785D02*
X49569047Y-98397976D01*
X49569047Y-98397976D02*
X49545238Y-98350357D01*
X49545238Y-98350357D02*
X49545238Y-98326547D01*
X49545238Y-98326547D02*
X49569047Y-98278928D01*
X49569047Y-98278928D02*
X49592857Y-98255119D01*
X49592857Y-98255119D02*
X49640476Y-98231309D01*
X49640476Y-98231309D02*
X49735714Y-98231309D01*
X49735714Y-98231309D02*
X49783333Y-98255119D01*
X49783333Y-98255119D02*
X49807142Y-98278928D01*
X49807142Y-98278928D02*
X49830952Y-98326547D01*
X49830952Y-98326547D02*
X49830952Y-98350357D01*
X49830952Y-98350357D02*
X49807142Y-98397976D01*
X49807142Y-98397976D02*
X49783333Y-98421785D01*
X49783333Y-98421785D02*
X49735714Y-98445595D01*
X49735714Y-98445595D02*
X49640476Y-98445595D01*
X49640476Y-98445595D02*
X49592857Y-98469404D01*
X49592857Y-98469404D02*
X49569047Y-98493214D01*
X49569047Y-98493214D02*
X49545238Y-98540833D01*
X49545238Y-98540833D02*
X49545238Y-98636071D01*
X49545238Y-98636071D02*
X49569047Y-98683690D01*
X49569047Y-98683690D02*
X49592857Y-98707500D01*
X49592857Y-98707500D02*
X49640476Y-98731309D01*
X49640476Y-98731309D02*
X49735714Y-98731309D01*
X49735714Y-98731309D02*
X49783333Y-98707500D01*
X49783333Y-98707500D02*
X49807142Y-98683690D01*
X49807142Y-98683690D02*
X49830952Y-98636071D01*
X49830952Y-98636071D02*
X49830952Y-98540833D01*
X49830952Y-98540833D02*
X49807142Y-98493214D01*
X49807142Y-98493214D02*
X49783333Y-98469404D01*
X49783333Y-98469404D02*
X49735714Y-98445595D01*
X121619047Y-84831309D02*
X121619047Y-85236071D01*
X121619047Y-85236071D02*
X121642857Y-85283690D01*
X121642857Y-85283690D02*
X121666666Y-85307500D01*
X121666666Y-85307500D02*
X121714285Y-85331309D01*
X121714285Y-85331309D02*
X121809523Y-85331309D01*
X121809523Y-85331309D02*
X121857142Y-85307500D01*
X121857142Y-85307500D02*
X121880952Y-85283690D01*
X121880952Y-85283690D02*
X121904761Y-85236071D01*
X121904761Y-85236071D02*
X121904761Y-84831309D01*
X122214286Y-85045595D02*
X122166667Y-85021785D01*
X122166667Y-85021785D02*
X122142857Y-84997976D01*
X122142857Y-84997976D02*
X122119048Y-84950357D01*
X122119048Y-84950357D02*
X122119048Y-84926547D01*
X122119048Y-84926547D02*
X122142857Y-84878928D01*
X122142857Y-84878928D02*
X122166667Y-84855119D01*
X122166667Y-84855119D02*
X122214286Y-84831309D01*
X122214286Y-84831309D02*
X122309524Y-84831309D01*
X122309524Y-84831309D02*
X122357143Y-84855119D01*
X122357143Y-84855119D02*
X122380952Y-84878928D01*
X122380952Y-84878928D02*
X122404762Y-84926547D01*
X122404762Y-84926547D02*
X122404762Y-84950357D01*
X122404762Y-84950357D02*
X122380952Y-84997976D01*
X122380952Y-84997976D02*
X122357143Y-85021785D01*
X122357143Y-85021785D02*
X122309524Y-85045595D01*
X122309524Y-85045595D02*
X122214286Y-85045595D01*
X122214286Y-85045595D02*
X122166667Y-85069404D01*
X122166667Y-85069404D02*
X122142857Y-85093214D01*
X122142857Y-85093214D02*
X122119048Y-85140833D01*
X122119048Y-85140833D02*
X122119048Y-85236071D01*
X122119048Y-85236071D02*
X122142857Y-85283690D01*
X122142857Y-85283690D02*
X122166667Y-85307500D01*
X122166667Y-85307500D02*
X122214286Y-85331309D01*
X122214286Y-85331309D02*
X122309524Y-85331309D01*
X122309524Y-85331309D02*
X122357143Y-85307500D01*
X122357143Y-85307500D02*
X122380952Y-85283690D01*
X122380952Y-85283690D02*
X122404762Y-85236071D01*
X122404762Y-85236071D02*
X122404762Y-85140833D01*
X122404762Y-85140833D02*
X122380952Y-85093214D01*
X122380952Y-85093214D02*
X122357143Y-85069404D01*
X122357143Y-85069404D02*
X122309524Y-85045595D01*
X99383571Y-72331309D02*
X99216905Y-72093214D01*
X99097857Y-72331309D02*
X99097857Y-71831309D01*
X99097857Y-71831309D02*
X99288333Y-71831309D01*
X99288333Y-71831309D02*
X99335952Y-71855119D01*
X99335952Y-71855119D02*
X99359762Y-71878928D01*
X99359762Y-71878928D02*
X99383571Y-71926547D01*
X99383571Y-71926547D02*
X99383571Y-71997976D01*
X99383571Y-71997976D02*
X99359762Y-72045595D01*
X99359762Y-72045595D02*
X99335952Y-72069404D01*
X99335952Y-72069404D02*
X99288333Y-72093214D01*
X99288333Y-72093214D02*
X99097857Y-72093214D01*
X99574048Y-71878928D02*
X99597857Y-71855119D01*
X99597857Y-71855119D02*
X99645476Y-71831309D01*
X99645476Y-71831309D02*
X99764524Y-71831309D01*
X99764524Y-71831309D02*
X99812143Y-71855119D01*
X99812143Y-71855119D02*
X99835952Y-71878928D01*
X99835952Y-71878928D02*
X99859762Y-71926547D01*
X99859762Y-71926547D02*
X99859762Y-71974166D01*
X99859762Y-71974166D02*
X99835952Y-72045595D01*
X99835952Y-72045595D02*
X99550238Y-72331309D01*
X99550238Y-72331309D02*
X99859762Y-72331309D01*
X100097857Y-72331309D02*
X100193095Y-72331309D01*
X100193095Y-72331309D02*
X100240714Y-72307500D01*
X100240714Y-72307500D02*
X100264523Y-72283690D01*
X100264523Y-72283690D02*
X100312142Y-72212261D01*
X100312142Y-72212261D02*
X100335952Y-72117023D01*
X100335952Y-72117023D02*
X100335952Y-71926547D01*
X100335952Y-71926547D02*
X100312142Y-71878928D01*
X100312142Y-71878928D02*
X100288333Y-71855119D01*
X100288333Y-71855119D02*
X100240714Y-71831309D01*
X100240714Y-71831309D02*
X100145476Y-71831309D01*
X100145476Y-71831309D02*
X100097857Y-71855119D01*
X100097857Y-71855119D02*
X100074047Y-71878928D01*
X100074047Y-71878928D02*
X100050238Y-71926547D01*
X100050238Y-71926547D02*
X100050238Y-72045595D01*
X100050238Y-72045595D02*
X100074047Y-72093214D01*
X100074047Y-72093214D02*
X100097857Y-72117023D01*
X100097857Y-72117023D02*
X100145476Y-72140833D01*
X100145476Y-72140833D02*
X100240714Y-72140833D01*
X100240714Y-72140833D02*
X100288333Y-72117023D01*
X100288333Y-72117023D02*
X100312142Y-72093214D01*
X100312142Y-72093214D02*
X100335952Y-72045595D01*
X44233333Y-59861309D02*
X44233333Y-60218452D01*
X44233333Y-60218452D02*
X44209524Y-60289880D01*
X44209524Y-60289880D02*
X44161905Y-60337500D01*
X44161905Y-60337500D02*
X44090476Y-60361309D01*
X44090476Y-60361309D02*
X44042857Y-60361309D01*
X44733333Y-60361309D02*
X44447619Y-60361309D01*
X44590476Y-60361309D02*
X44590476Y-59861309D01*
X44590476Y-59861309D02*
X44542857Y-59932738D01*
X44542857Y-59932738D02*
X44495238Y-59980357D01*
X44495238Y-59980357D02*
X44447619Y-60004166D01*
X130283571Y-81648809D02*
X130116905Y-81410714D01*
X129997857Y-81648809D02*
X129997857Y-81148809D01*
X129997857Y-81148809D02*
X130188333Y-81148809D01*
X130188333Y-81148809D02*
X130235952Y-81172619D01*
X130235952Y-81172619D02*
X130259762Y-81196428D01*
X130259762Y-81196428D02*
X130283571Y-81244047D01*
X130283571Y-81244047D02*
X130283571Y-81315476D01*
X130283571Y-81315476D02*
X130259762Y-81363095D01*
X130259762Y-81363095D02*
X130235952Y-81386904D01*
X130235952Y-81386904D02*
X130188333Y-81410714D01*
X130188333Y-81410714D02*
X129997857Y-81410714D01*
X130759762Y-81648809D02*
X130474048Y-81648809D01*
X130616905Y-81648809D02*
X130616905Y-81148809D01*
X130616905Y-81148809D02*
X130569286Y-81220238D01*
X130569286Y-81220238D02*
X130521667Y-81267857D01*
X130521667Y-81267857D02*
X130474048Y-81291666D01*
X130997857Y-81648809D02*
X131093095Y-81648809D01*
X131093095Y-81648809D02*
X131140714Y-81625000D01*
X131140714Y-81625000D02*
X131164523Y-81601190D01*
X131164523Y-81601190D02*
X131212142Y-81529761D01*
X131212142Y-81529761D02*
X131235952Y-81434523D01*
X131235952Y-81434523D02*
X131235952Y-81244047D01*
X131235952Y-81244047D02*
X131212142Y-81196428D01*
X131212142Y-81196428D02*
X131188333Y-81172619D01*
X131188333Y-81172619D02*
X131140714Y-81148809D01*
X131140714Y-81148809D02*
X131045476Y-81148809D01*
X131045476Y-81148809D02*
X130997857Y-81172619D01*
X130997857Y-81172619D02*
X130974047Y-81196428D01*
X130974047Y-81196428D02*
X130950238Y-81244047D01*
X130950238Y-81244047D02*
X130950238Y-81363095D01*
X130950238Y-81363095D02*
X130974047Y-81410714D01*
X130974047Y-81410714D02*
X130997857Y-81434523D01*
X130997857Y-81434523D02*
X131045476Y-81458333D01*
X131045476Y-81458333D02*
X131140714Y-81458333D01*
X131140714Y-81458333D02*
X131188333Y-81434523D01*
X131188333Y-81434523D02*
X131212142Y-81410714D01*
X131212142Y-81410714D02*
X131235952Y-81363095D01*
X106980952Y-67631309D02*
X106980952Y-68036071D01*
X106980952Y-68036071D02*
X107004762Y-68083690D01*
X107004762Y-68083690D02*
X107028571Y-68107500D01*
X107028571Y-68107500D02*
X107076190Y-68131309D01*
X107076190Y-68131309D02*
X107171428Y-68131309D01*
X107171428Y-68131309D02*
X107219047Y-68107500D01*
X107219047Y-68107500D02*
X107242857Y-68083690D01*
X107242857Y-68083690D02*
X107266666Y-68036071D01*
X107266666Y-68036071D02*
X107266666Y-67631309D01*
X107766667Y-68131309D02*
X107480953Y-68131309D01*
X107623810Y-68131309D02*
X107623810Y-67631309D01*
X107623810Y-67631309D02*
X107576191Y-67702738D01*
X107576191Y-67702738D02*
X107528572Y-67750357D01*
X107528572Y-67750357D02*
X107480953Y-67774166D01*
X108076190Y-67631309D02*
X108123809Y-67631309D01*
X108123809Y-67631309D02*
X108171428Y-67655119D01*
X108171428Y-67655119D02*
X108195238Y-67678928D01*
X108195238Y-67678928D02*
X108219047Y-67726547D01*
X108219047Y-67726547D02*
X108242857Y-67821785D01*
X108242857Y-67821785D02*
X108242857Y-67940833D01*
X108242857Y-67940833D02*
X108219047Y-68036071D01*
X108219047Y-68036071D02*
X108195238Y-68083690D01*
X108195238Y-68083690D02*
X108171428Y-68107500D01*
X108171428Y-68107500D02*
X108123809Y-68131309D01*
X108123809Y-68131309D02*
X108076190Y-68131309D01*
X108076190Y-68131309D02*
X108028571Y-68107500D01*
X108028571Y-68107500D02*
X108004762Y-68083690D01*
X108004762Y-68083690D02*
X107980952Y-68036071D01*
X107980952Y-68036071D02*
X107957143Y-67940833D01*
X107957143Y-67940833D02*
X107957143Y-67821785D01*
X107957143Y-67821785D02*
X107980952Y-67726547D01*
X107980952Y-67726547D02*
X108004762Y-67678928D01*
X108004762Y-67678928D02*
X108028571Y-67655119D01*
X108028571Y-67655119D02*
X108076190Y-67631309D01*
X82533333Y-47131309D02*
X82533333Y-47488452D01*
X82533333Y-47488452D02*
X82509524Y-47559880D01*
X82509524Y-47559880D02*
X82461905Y-47607500D01*
X82461905Y-47607500D02*
X82390476Y-47631309D01*
X82390476Y-47631309D02*
X82342857Y-47631309D01*
X82723809Y-47131309D02*
X83033333Y-47131309D01*
X83033333Y-47131309D02*
X82866666Y-47321785D01*
X82866666Y-47321785D02*
X82938095Y-47321785D01*
X82938095Y-47321785D02*
X82985714Y-47345595D01*
X82985714Y-47345595D02*
X83009523Y-47369404D01*
X83009523Y-47369404D02*
X83033333Y-47417023D01*
X83033333Y-47417023D02*
X83033333Y-47536071D01*
X83033333Y-47536071D02*
X83009523Y-47583690D01*
X83009523Y-47583690D02*
X82985714Y-47607500D01*
X82985714Y-47607500D02*
X82938095Y-47631309D01*
X82938095Y-47631309D02*
X82795238Y-47631309D01*
X82795238Y-47631309D02*
X82747619Y-47607500D01*
X82747619Y-47607500D02*
X82723809Y-47583690D01*
X96283571Y-83813690D02*
X96259762Y-83837500D01*
X96259762Y-83837500D02*
X96188333Y-83861309D01*
X96188333Y-83861309D02*
X96140714Y-83861309D01*
X96140714Y-83861309D02*
X96069286Y-83837500D01*
X96069286Y-83837500D02*
X96021667Y-83789880D01*
X96021667Y-83789880D02*
X95997857Y-83742261D01*
X95997857Y-83742261D02*
X95974048Y-83647023D01*
X95974048Y-83647023D02*
X95974048Y-83575595D01*
X95974048Y-83575595D02*
X95997857Y-83480357D01*
X95997857Y-83480357D02*
X96021667Y-83432738D01*
X96021667Y-83432738D02*
X96069286Y-83385119D01*
X96069286Y-83385119D02*
X96140714Y-83361309D01*
X96140714Y-83361309D02*
X96188333Y-83361309D01*
X96188333Y-83361309D02*
X96259762Y-83385119D01*
X96259762Y-83385119D02*
X96283571Y-83408928D01*
X96450238Y-83361309D02*
X96759762Y-83361309D01*
X96759762Y-83361309D02*
X96593095Y-83551785D01*
X96593095Y-83551785D02*
X96664524Y-83551785D01*
X96664524Y-83551785D02*
X96712143Y-83575595D01*
X96712143Y-83575595D02*
X96735952Y-83599404D01*
X96735952Y-83599404D02*
X96759762Y-83647023D01*
X96759762Y-83647023D02*
X96759762Y-83766071D01*
X96759762Y-83766071D02*
X96735952Y-83813690D01*
X96735952Y-83813690D02*
X96712143Y-83837500D01*
X96712143Y-83837500D02*
X96664524Y-83861309D01*
X96664524Y-83861309D02*
X96521667Y-83861309D01*
X96521667Y-83861309D02*
X96474048Y-83837500D01*
X96474048Y-83837500D02*
X96450238Y-83813690D01*
X96997857Y-83861309D02*
X97093095Y-83861309D01*
X97093095Y-83861309D02*
X97140714Y-83837500D01*
X97140714Y-83837500D02*
X97164523Y-83813690D01*
X97164523Y-83813690D02*
X97212142Y-83742261D01*
X97212142Y-83742261D02*
X97235952Y-83647023D01*
X97235952Y-83647023D02*
X97235952Y-83456547D01*
X97235952Y-83456547D02*
X97212142Y-83408928D01*
X97212142Y-83408928D02*
X97188333Y-83385119D01*
X97188333Y-83385119D02*
X97140714Y-83361309D01*
X97140714Y-83361309D02*
X97045476Y-83361309D01*
X97045476Y-83361309D02*
X96997857Y-83385119D01*
X96997857Y-83385119D02*
X96974047Y-83408928D01*
X96974047Y-83408928D02*
X96950238Y-83456547D01*
X96950238Y-83456547D02*
X96950238Y-83575595D01*
X96950238Y-83575595D02*
X96974047Y-83623214D01*
X96974047Y-83623214D02*
X96997857Y-83647023D01*
X96997857Y-83647023D02*
X97045476Y-83670833D01*
X97045476Y-83670833D02*
X97140714Y-83670833D01*
X97140714Y-83670833D02*
X97188333Y-83647023D01*
X97188333Y-83647023D02*
X97212142Y-83623214D01*
X97212142Y-83623214D02*
X97235952Y-83575595D01*
X126846666Y-52711309D02*
X126680000Y-52473214D01*
X126560952Y-52711309D02*
X126560952Y-52211309D01*
X126560952Y-52211309D02*
X126751428Y-52211309D01*
X126751428Y-52211309D02*
X126799047Y-52235119D01*
X126799047Y-52235119D02*
X126822857Y-52258928D01*
X126822857Y-52258928D02*
X126846666Y-52306547D01*
X126846666Y-52306547D02*
X126846666Y-52377976D01*
X126846666Y-52377976D02*
X126822857Y-52425595D01*
X126822857Y-52425595D02*
X126799047Y-52449404D01*
X126799047Y-52449404D02*
X126751428Y-52473214D01*
X126751428Y-52473214D02*
X126560952Y-52473214D01*
X127132381Y-52425595D02*
X127084762Y-52401785D01*
X127084762Y-52401785D02*
X127060952Y-52377976D01*
X127060952Y-52377976D02*
X127037143Y-52330357D01*
X127037143Y-52330357D02*
X127037143Y-52306547D01*
X127037143Y-52306547D02*
X127060952Y-52258928D01*
X127060952Y-52258928D02*
X127084762Y-52235119D01*
X127084762Y-52235119D02*
X127132381Y-52211309D01*
X127132381Y-52211309D02*
X127227619Y-52211309D01*
X127227619Y-52211309D02*
X127275238Y-52235119D01*
X127275238Y-52235119D02*
X127299047Y-52258928D01*
X127299047Y-52258928D02*
X127322857Y-52306547D01*
X127322857Y-52306547D02*
X127322857Y-52330357D01*
X127322857Y-52330357D02*
X127299047Y-52377976D01*
X127299047Y-52377976D02*
X127275238Y-52401785D01*
X127275238Y-52401785D02*
X127227619Y-52425595D01*
X127227619Y-52425595D02*
X127132381Y-52425595D01*
X127132381Y-52425595D02*
X127084762Y-52449404D01*
X127084762Y-52449404D02*
X127060952Y-52473214D01*
X127060952Y-52473214D02*
X127037143Y-52520833D01*
X127037143Y-52520833D02*
X127037143Y-52616071D01*
X127037143Y-52616071D02*
X127060952Y-52663690D01*
X127060952Y-52663690D02*
X127084762Y-52687500D01*
X127084762Y-52687500D02*
X127132381Y-52711309D01*
X127132381Y-52711309D02*
X127227619Y-52711309D01*
X127227619Y-52711309D02*
X127275238Y-52687500D01*
X127275238Y-52687500D02*
X127299047Y-52663690D01*
X127299047Y-52663690D02*
X127322857Y-52616071D01*
X127322857Y-52616071D02*
X127322857Y-52520833D01*
X127322857Y-52520833D02*
X127299047Y-52473214D01*
X127299047Y-52473214D02*
X127275238Y-52449404D01*
X127275238Y-52449404D02*
X127227619Y-52425595D01*
X86878571Y-91483690D02*
X86854762Y-91507500D01*
X86854762Y-91507500D02*
X86783333Y-91531309D01*
X86783333Y-91531309D02*
X86735714Y-91531309D01*
X86735714Y-91531309D02*
X86664286Y-91507500D01*
X86664286Y-91507500D02*
X86616667Y-91459880D01*
X86616667Y-91459880D02*
X86592857Y-91412261D01*
X86592857Y-91412261D02*
X86569048Y-91317023D01*
X86569048Y-91317023D02*
X86569048Y-91245595D01*
X86569048Y-91245595D02*
X86592857Y-91150357D01*
X86592857Y-91150357D02*
X86616667Y-91102738D01*
X86616667Y-91102738D02*
X86664286Y-91055119D01*
X86664286Y-91055119D02*
X86735714Y-91031309D01*
X86735714Y-91031309D02*
X86783333Y-91031309D01*
X86783333Y-91031309D02*
X86854762Y-91055119D01*
X86854762Y-91055119D02*
X86878571Y-91078928D01*
X87330952Y-91031309D02*
X87092857Y-91031309D01*
X87092857Y-91031309D02*
X87069048Y-91269404D01*
X87069048Y-91269404D02*
X87092857Y-91245595D01*
X87092857Y-91245595D02*
X87140476Y-91221785D01*
X87140476Y-91221785D02*
X87259524Y-91221785D01*
X87259524Y-91221785D02*
X87307143Y-91245595D01*
X87307143Y-91245595D02*
X87330952Y-91269404D01*
X87330952Y-91269404D02*
X87354762Y-91317023D01*
X87354762Y-91317023D02*
X87354762Y-91436071D01*
X87354762Y-91436071D02*
X87330952Y-91483690D01*
X87330952Y-91483690D02*
X87307143Y-91507500D01*
X87307143Y-91507500D02*
X87259524Y-91531309D01*
X87259524Y-91531309D02*
X87140476Y-91531309D01*
X87140476Y-91531309D02*
X87092857Y-91507500D01*
X87092857Y-91507500D02*
X87069048Y-91483690D01*
X87545238Y-91078928D02*
X87569047Y-91055119D01*
X87569047Y-91055119D02*
X87616666Y-91031309D01*
X87616666Y-91031309D02*
X87735714Y-91031309D01*
X87735714Y-91031309D02*
X87783333Y-91055119D01*
X87783333Y-91055119D02*
X87807142Y-91078928D01*
X87807142Y-91078928D02*
X87830952Y-91126547D01*
X87830952Y-91126547D02*
X87830952Y-91174166D01*
X87830952Y-91174166D02*
X87807142Y-91245595D01*
X87807142Y-91245595D02*
X87521428Y-91531309D01*
X87521428Y-91531309D02*
X87830952Y-91531309D01*
X51378571Y-71231309D02*
X51211905Y-70993214D01*
X51092857Y-71231309D02*
X51092857Y-70731309D01*
X51092857Y-70731309D02*
X51283333Y-70731309D01*
X51283333Y-70731309D02*
X51330952Y-70755119D01*
X51330952Y-70755119D02*
X51354762Y-70778928D01*
X51354762Y-70778928D02*
X51378571Y-70826547D01*
X51378571Y-70826547D02*
X51378571Y-70897976D01*
X51378571Y-70897976D02*
X51354762Y-70945595D01*
X51354762Y-70945595D02*
X51330952Y-70969404D01*
X51330952Y-70969404D02*
X51283333Y-70993214D01*
X51283333Y-70993214D02*
X51092857Y-70993214D01*
X51854762Y-71231309D02*
X51569048Y-71231309D01*
X51711905Y-71231309D02*
X51711905Y-70731309D01*
X51711905Y-70731309D02*
X51664286Y-70802738D01*
X51664286Y-70802738D02*
X51616667Y-70850357D01*
X51616667Y-70850357D02*
X51569048Y-70874166D01*
X52164285Y-70731309D02*
X52211904Y-70731309D01*
X52211904Y-70731309D02*
X52259523Y-70755119D01*
X52259523Y-70755119D02*
X52283333Y-70778928D01*
X52283333Y-70778928D02*
X52307142Y-70826547D01*
X52307142Y-70826547D02*
X52330952Y-70921785D01*
X52330952Y-70921785D02*
X52330952Y-71040833D01*
X52330952Y-71040833D02*
X52307142Y-71136071D01*
X52307142Y-71136071D02*
X52283333Y-71183690D01*
X52283333Y-71183690D02*
X52259523Y-71207500D01*
X52259523Y-71207500D02*
X52211904Y-71231309D01*
X52211904Y-71231309D02*
X52164285Y-71231309D01*
X52164285Y-71231309D02*
X52116666Y-71207500D01*
X52116666Y-71207500D02*
X52092857Y-71183690D01*
X52092857Y-71183690D02*
X52069047Y-71136071D01*
X52069047Y-71136071D02*
X52045238Y-71040833D01*
X52045238Y-71040833D02*
X52045238Y-70921785D01*
X52045238Y-70921785D02*
X52069047Y-70826547D01*
X52069047Y-70826547D02*
X52092857Y-70778928D01*
X52092857Y-70778928D02*
X52116666Y-70755119D01*
X52116666Y-70755119D02*
X52164285Y-70731309D01*
X54316666Y-79931309D02*
X54150000Y-79693214D01*
X54030952Y-79931309D02*
X54030952Y-79431309D01*
X54030952Y-79431309D02*
X54221428Y-79431309D01*
X54221428Y-79431309D02*
X54269047Y-79455119D01*
X54269047Y-79455119D02*
X54292857Y-79478928D01*
X54292857Y-79478928D02*
X54316666Y-79526547D01*
X54316666Y-79526547D02*
X54316666Y-79597976D01*
X54316666Y-79597976D02*
X54292857Y-79645595D01*
X54292857Y-79645595D02*
X54269047Y-79669404D01*
X54269047Y-79669404D02*
X54221428Y-79693214D01*
X54221428Y-79693214D02*
X54030952Y-79693214D01*
X54483333Y-79431309D02*
X54792857Y-79431309D01*
X54792857Y-79431309D02*
X54626190Y-79621785D01*
X54626190Y-79621785D02*
X54697619Y-79621785D01*
X54697619Y-79621785D02*
X54745238Y-79645595D01*
X54745238Y-79645595D02*
X54769047Y-79669404D01*
X54769047Y-79669404D02*
X54792857Y-79717023D01*
X54792857Y-79717023D02*
X54792857Y-79836071D01*
X54792857Y-79836071D02*
X54769047Y-79883690D01*
X54769047Y-79883690D02*
X54745238Y-79907500D01*
X54745238Y-79907500D02*
X54697619Y-79931309D01*
X54697619Y-79931309D02*
X54554762Y-79931309D01*
X54554762Y-79931309D02*
X54507143Y-79907500D01*
X54507143Y-79907500D02*
X54483333Y-79883690D01*
D11*
X106103095Y-72742619D02*
X106674523Y-72742619D01*
X106388809Y-73742619D02*
X106388809Y-72742619D01*
X107007857Y-73742619D02*
X107007857Y-72742619D01*
X107007857Y-72742619D02*
X107388809Y-72742619D01*
X107388809Y-72742619D02*
X107484047Y-72790238D01*
X107484047Y-72790238D02*
X107531666Y-72837857D01*
X107531666Y-72837857D02*
X107579285Y-72933095D01*
X107579285Y-72933095D02*
X107579285Y-73075952D01*
X107579285Y-73075952D02*
X107531666Y-73171190D01*
X107531666Y-73171190D02*
X107484047Y-73218809D01*
X107484047Y-73218809D02*
X107388809Y-73266428D01*
X107388809Y-73266428D02*
X107007857Y-73266428D01*
X108055476Y-73742619D02*
X108245952Y-73742619D01*
X108245952Y-73742619D02*
X108341190Y-73695000D01*
X108341190Y-73695000D02*
X108388809Y-73647380D01*
X108388809Y-73647380D02*
X108484047Y-73504523D01*
X108484047Y-73504523D02*
X108531666Y-73314047D01*
X108531666Y-73314047D02*
X108531666Y-72933095D01*
X108531666Y-72933095D02*
X108484047Y-72837857D01*
X108484047Y-72837857D02*
X108436428Y-72790238D01*
X108436428Y-72790238D02*
X108341190Y-72742619D01*
X108341190Y-72742619D02*
X108150714Y-72742619D01*
X108150714Y-72742619D02*
X108055476Y-72790238D01*
X108055476Y-72790238D02*
X108007857Y-72837857D01*
X108007857Y-72837857D02*
X107960238Y-72933095D01*
X107960238Y-72933095D02*
X107960238Y-73171190D01*
X107960238Y-73171190D02*
X108007857Y-73266428D01*
X108007857Y-73266428D02*
X108055476Y-73314047D01*
X108055476Y-73314047D02*
X108150714Y-73361666D01*
X108150714Y-73361666D02*
X108341190Y-73361666D01*
X108341190Y-73361666D02*
X108436428Y-73314047D01*
X108436428Y-73314047D02*
X108484047Y-73266428D01*
X108484047Y-73266428D02*
X108531666Y-73171190D01*
D13*
X79978571Y-68731309D02*
X79811905Y-68493214D01*
X79692857Y-68731309D02*
X79692857Y-68231309D01*
X79692857Y-68231309D02*
X79883333Y-68231309D01*
X79883333Y-68231309D02*
X79930952Y-68255119D01*
X79930952Y-68255119D02*
X79954762Y-68278928D01*
X79954762Y-68278928D02*
X79978571Y-68326547D01*
X79978571Y-68326547D02*
X79978571Y-68397976D01*
X79978571Y-68397976D02*
X79954762Y-68445595D01*
X79954762Y-68445595D02*
X79930952Y-68469404D01*
X79930952Y-68469404D02*
X79883333Y-68493214D01*
X79883333Y-68493214D02*
X79692857Y-68493214D01*
X80169048Y-68278928D02*
X80192857Y-68255119D01*
X80192857Y-68255119D02*
X80240476Y-68231309D01*
X80240476Y-68231309D02*
X80359524Y-68231309D01*
X80359524Y-68231309D02*
X80407143Y-68255119D01*
X80407143Y-68255119D02*
X80430952Y-68278928D01*
X80430952Y-68278928D02*
X80454762Y-68326547D01*
X80454762Y-68326547D02*
X80454762Y-68374166D01*
X80454762Y-68374166D02*
X80430952Y-68445595D01*
X80430952Y-68445595D02*
X80145238Y-68731309D01*
X80145238Y-68731309D02*
X80454762Y-68731309D01*
X80740476Y-68445595D02*
X80692857Y-68421785D01*
X80692857Y-68421785D02*
X80669047Y-68397976D01*
X80669047Y-68397976D02*
X80645238Y-68350357D01*
X80645238Y-68350357D02*
X80645238Y-68326547D01*
X80645238Y-68326547D02*
X80669047Y-68278928D01*
X80669047Y-68278928D02*
X80692857Y-68255119D01*
X80692857Y-68255119D02*
X80740476Y-68231309D01*
X80740476Y-68231309D02*
X80835714Y-68231309D01*
X80835714Y-68231309D02*
X80883333Y-68255119D01*
X80883333Y-68255119D02*
X80907142Y-68278928D01*
X80907142Y-68278928D02*
X80930952Y-68326547D01*
X80930952Y-68326547D02*
X80930952Y-68350357D01*
X80930952Y-68350357D02*
X80907142Y-68397976D01*
X80907142Y-68397976D02*
X80883333Y-68421785D01*
X80883333Y-68421785D02*
X80835714Y-68445595D01*
X80835714Y-68445595D02*
X80740476Y-68445595D01*
X80740476Y-68445595D02*
X80692857Y-68469404D01*
X80692857Y-68469404D02*
X80669047Y-68493214D01*
X80669047Y-68493214D02*
X80645238Y-68540833D01*
X80645238Y-68540833D02*
X80645238Y-68636071D01*
X80645238Y-68636071D02*
X80669047Y-68683690D01*
X80669047Y-68683690D02*
X80692857Y-68707500D01*
X80692857Y-68707500D02*
X80740476Y-68731309D01*
X80740476Y-68731309D02*
X80835714Y-68731309D01*
X80835714Y-68731309D02*
X80883333Y-68707500D01*
X80883333Y-68707500D02*
X80907142Y-68683690D01*
X80907142Y-68683690D02*
X80930952Y-68636071D01*
X80930952Y-68636071D02*
X80930952Y-68540833D01*
X80930952Y-68540833D02*
X80907142Y-68493214D01*
X80907142Y-68493214D02*
X80883333Y-68469404D01*
X80883333Y-68469404D02*
X80835714Y-68445595D01*
X84030952Y-59731309D02*
X84030952Y-59231309D01*
X84030952Y-59231309D02*
X84150000Y-59231309D01*
X84150000Y-59231309D02*
X84221428Y-59255119D01*
X84221428Y-59255119D02*
X84269047Y-59302738D01*
X84269047Y-59302738D02*
X84292857Y-59350357D01*
X84292857Y-59350357D02*
X84316666Y-59445595D01*
X84316666Y-59445595D02*
X84316666Y-59517023D01*
X84316666Y-59517023D02*
X84292857Y-59612261D01*
X84292857Y-59612261D02*
X84269047Y-59659880D01*
X84269047Y-59659880D02*
X84221428Y-59707500D01*
X84221428Y-59707500D02*
X84150000Y-59731309D01*
X84150000Y-59731309D02*
X84030952Y-59731309D01*
X84745238Y-59397976D02*
X84745238Y-59731309D01*
X84626190Y-59207500D02*
X84507143Y-59564642D01*
X84507143Y-59564642D02*
X84816666Y-59564642D01*
X87011547Y-94261309D02*
X87011547Y-94666071D01*
X87011547Y-94666071D02*
X87035357Y-94713690D01*
X87035357Y-94713690D02*
X87059166Y-94737500D01*
X87059166Y-94737500D02*
X87106785Y-94761309D01*
X87106785Y-94761309D02*
X87202023Y-94761309D01*
X87202023Y-94761309D02*
X87249642Y-94737500D01*
X87249642Y-94737500D02*
X87273452Y-94713690D01*
X87273452Y-94713690D02*
X87297261Y-94666071D01*
X87297261Y-94666071D02*
X87297261Y-94261309D01*
X87559167Y-94761309D02*
X87654405Y-94761309D01*
X87654405Y-94761309D02*
X87702024Y-94737500D01*
X87702024Y-94737500D02*
X87725833Y-94713690D01*
X87725833Y-94713690D02*
X87773452Y-94642261D01*
X87773452Y-94642261D02*
X87797262Y-94547023D01*
X87797262Y-94547023D02*
X87797262Y-94356547D01*
X87797262Y-94356547D02*
X87773452Y-94308928D01*
X87773452Y-94308928D02*
X87749643Y-94285119D01*
X87749643Y-94285119D02*
X87702024Y-94261309D01*
X87702024Y-94261309D02*
X87606786Y-94261309D01*
X87606786Y-94261309D02*
X87559167Y-94285119D01*
X87559167Y-94285119D02*
X87535357Y-94308928D01*
X87535357Y-94308928D02*
X87511548Y-94356547D01*
X87511548Y-94356547D02*
X87511548Y-94475595D01*
X87511548Y-94475595D02*
X87535357Y-94523214D01*
X87535357Y-94523214D02*
X87559167Y-94547023D01*
X87559167Y-94547023D02*
X87606786Y-94570833D01*
X87606786Y-94570833D02*
X87702024Y-94570833D01*
X87702024Y-94570833D02*
X87749643Y-94547023D01*
X87749643Y-94547023D02*
X87773452Y-94523214D01*
X87773452Y-94523214D02*
X87797262Y-94475595D01*
X120816666Y-52731309D02*
X120650000Y-52493214D01*
X120530952Y-52731309D02*
X120530952Y-52231309D01*
X120530952Y-52231309D02*
X120721428Y-52231309D01*
X120721428Y-52231309D02*
X120769047Y-52255119D01*
X120769047Y-52255119D02*
X120792857Y-52278928D01*
X120792857Y-52278928D02*
X120816666Y-52326547D01*
X120816666Y-52326547D02*
X120816666Y-52397976D01*
X120816666Y-52397976D02*
X120792857Y-52445595D01*
X120792857Y-52445595D02*
X120769047Y-52469404D01*
X120769047Y-52469404D02*
X120721428Y-52493214D01*
X120721428Y-52493214D02*
X120530952Y-52493214D01*
X120983333Y-52231309D02*
X121316666Y-52231309D01*
X121316666Y-52231309D02*
X121102381Y-52731309D01*
X75378571Y-77131309D02*
X75211905Y-76893214D01*
X75092857Y-77131309D02*
X75092857Y-76631309D01*
X75092857Y-76631309D02*
X75283333Y-76631309D01*
X75283333Y-76631309D02*
X75330952Y-76655119D01*
X75330952Y-76655119D02*
X75354762Y-76678928D01*
X75354762Y-76678928D02*
X75378571Y-76726547D01*
X75378571Y-76726547D02*
X75378571Y-76797976D01*
X75378571Y-76797976D02*
X75354762Y-76845595D01*
X75354762Y-76845595D02*
X75330952Y-76869404D01*
X75330952Y-76869404D02*
X75283333Y-76893214D01*
X75283333Y-76893214D02*
X75092857Y-76893214D01*
X75854762Y-77131309D02*
X75569048Y-77131309D01*
X75711905Y-77131309D02*
X75711905Y-76631309D01*
X75711905Y-76631309D02*
X75664286Y-76702738D01*
X75664286Y-76702738D02*
X75616667Y-76750357D01*
X75616667Y-76750357D02*
X75569048Y-76774166D01*
X76045238Y-76678928D02*
X76069047Y-76655119D01*
X76069047Y-76655119D02*
X76116666Y-76631309D01*
X76116666Y-76631309D02*
X76235714Y-76631309D01*
X76235714Y-76631309D02*
X76283333Y-76655119D01*
X76283333Y-76655119D02*
X76307142Y-76678928D01*
X76307142Y-76678928D02*
X76330952Y-76726547D01*
X76330952Y-76726547D02*
X76330952Y-76774166D01*
X76330952Y-76774166D02*
X76307142Y-76845595D01*
X76307142Y-76845595D02*
X76021428Y-77131309D01*
X76021428Y-77131309D02*
X76330952Y-77131309D01*
X56778571Y-87283690D02*
X56754762Y-87307500D01*
X56754762Y-87307500D02*
X56683333Y-87331309D01*
X56683333Y-87331309D02*
X56635714Y-87331309D01*
X56635714Y-87331309D02*
X56564286Y-87307500D01*
X56564286Y-87307500D02*
X56516667Y-87259880D01*
X56516667Y-87259880D02*
X56492857Y-87212261D01*
X56492857Y-87212261D02*
X56469048Y-87117023D01*
X56469048Y-87117023D02*
X56469048Y-87045595D01*
X56469048Y-87045595D02*
X56492857Y-86950357D01*
X56492857Y-86950357D02*
X56516667Y-86902738D01*
X56516667Y-86902738D02*
X56564286Y-86855119D01*
X56564286Y-86855119D02*
X56635714Y-86831309D01*
X56635714Y-86831309D02*
X56683333Y-86831309D01*
X56683333Y-86831309D02*
X56754762Y-86855119D01*
X56754762Y-86855119D02*
X56778571Y-86878928D01*
X56969048Y-86878928D02*
X56992857Y-86855119D01*
X56992857Y-86855119D02*
X57040476Y-86831309D01*
X57040476Y-86831309D02*
X57159524Y-86831309D01*
X57159524Y-86831309D02*
X57207143Y-86855119D01*
X57207143Y-86855119D02*
X57230952Y-86878928D01*
X57230952Y-86878928D02*
X57254762Y-86926547D01*
X57254762Y-86926547D02*
X57254762Y-86974166D01*
X57254762Y-86974166D02*
X57230952Y-87045595D01*
X57230952Y-87045595D02*
X56945238Y-87331309D01*
X56945238Y-87331309D02*
X57254762Y-87331309D01*
X57683333Y-86997976D02*
X57683333Y-87331309D01*
X57564285Y-86807500D02*
X57445238Y-87164642D01*
X57445238Y-87164642D02*
X57754761Y-87164642D01*
X65978571Y-76631309D02*
X65811905Y-76393214D01*
X65692857Y-76631309D02*
X65692857Y-76131309D01*
X65692857Y-76131309D02*
X65883333Y-76131309D01*
X65883333Y-76131309D02*
X65930952Y-76155119D01*
X65930952Y-76155119D02*
X65954762Y-76178928D01*
X65954762Y-76178928D02*
X65978571Y-76226547D01*
X65978571Y-76226547D02*
X65978571Y-76297976D01*
X65978571Y-76297976D02*
X65954762Y-76345595D01*
X65954762Y-76345595D02*
X65930952Y-76369404D01*
X65930952Y-76369404D02*
X65883333Y-76393214D01*
X65883333Y-76393214D02*
X65692857Y-76393214D01*
X66454762Y-76631309D02*
X66169048Y-76631309D01*
X66311905Y-76631309D02*
X66311905Y-76131309D01*
X66311905Y-76131309D02*
X66264286Y-76202738D01*
X66264286Y-76202738D02*
X66216667Y-76250357D01*
X66216667Y-76250357D02*
X66169048Y-76274166D01*
X66621428Y-76131309D02*
X66930952Y-76131309D01*
X66930952Y-76131309D02*
X66764285Y-76321785D01*
X66764285Y-76321785D02*
X66835714Y-76321785D01*
X66835714Y-76321785D02*
X66883333Y-76345595D01*
X66883333Y-76345595D02*
X66907142Y-76369404D01*
X66907142Y-76369404D02*
X66930952Y-76417023D01*
X66930952Y-76417023D02*
X66930952Y-76536071D01*
X66930952Y-76536071D02*
X66907142Y-76583690D01*
X66907142Y-76583690D02*
X66883333Y-76607500D01*
X66883333Y-76607500D02*
X66835714Y-76631309D01*
X66835714Y-76631309D02*
X66692857Y-76631309D01*
X66692857Y-76631309D02*
X66645238Y-76607500D01*
X66645238Y-76607500D02*
X66621428Y-76583690D01*
X117578571Y-69383690D02*
X117554762Y-69407500D01*
X117554762Y-69407500D02*
X117483333Y-69431309D01*
X117483333Y-69431309D02*
X117435714Y-69431309D01*
X117435714Y-69431309D02*
X117364286Y-69407500D01*
X117364286Y-69407500D02*
X117316667Y-69359880D01*
X117316667Y-69359880D02*
X117292857Y-69312261D01*
X117292857Y-69312261D02*
X117269048Y-69217023D01*
X117269048Y-69217023D02*
X117269048Y-69145595D01*
X117269048Y-69145595D02*
X117292857Y-69050357D01*
X117292857Y-69050357D02*
X117316667Y-69002738D01*
X117316667Y-69002738D02*
X117364286Y-68955119D01*
X117364286Y-68955119D02*
X117435714Y-68931309D01*
X117435714Y-68931309D02*
X117483333Y-68931309D01*
X117483333Y-68931309D02*
X117554762Y-68955119D01*
X117554762Y-68955119D02*
X117578571Y-68978928D01*
X118007143Y-68931309D02*
X117911905Y-68931309D01*
X117911905Y-68931309D02*
X117864286Y-68955119D01*
X117864286Y-68955119D02*
X117840476Y-68978928D01*
X117840476Y-68978928D02*
X117792857Y-69050357D01*
X117792857Y-69050357D02*
X117769048Y-69145595D01*
X117769048Y-69145595D02*
X117769048Y-69336071D01*
X117769048Y-69336071D02*
X117792857Y-69383690D01*
X117792857Y-69383690D02*
X117816667Y-69407500D01*
X117816667Y-69407500D02*
X117864286Y-69431309D01*
X117864286Y-69431309D02*
X117959524Y-69431309D01*
X117959524Y-69431309D02*
X118007143Y-69407500D01*
X118007143Y-69407500D02*
X118030952Y-69383690D01*
X118030952Y-69383690D02*
X118054762Y-69336071D01*
X118054762Y-69336071D02*
X118054762Y-69217023D01*
X118054762Y-69217023D02*
X118030952Y-69169404D01*
X118030952Y-69169404D02*
X118007143Y-69145595D01*
X118007143Y-69145595D02*
X117959524Y-69121785D01*
X117959524Y-69121785D02*
X117864286Y-69121785D01*
X117864286Y-69121785D02*
X117816667Y-69145595D01*
X117816667Y-69145595D02*
X117792857Y-69169404D01*
X117792857Y-69169404D02*
X117769048Y-69217023D01*
X118483333Y-68931309D02*
X118388095Y-68931309D01*
X118388095Y-68931309D02*
X118340476Y-68955119D01*
X118340476Y-68955119D02*
X118316666Y-68978928D01*
X118316666Y-68978928D02*
X118269047Y-69050357D01*
X118269047Y-69050357D02*
X118245238Y-69145595D01*
X118245238Y-69145595D02*
X118245238Y-69336071D01*
X118245238Y-69336071D02*
X118269047Y-69383690D01*
X118269047Y-69383690D02*
X118292857Y-69407500D01*
X118292857Y-69407500D02*
X118340476Y-69431309D01*
X118340476Y-69431309D02*
X118435714Y-69431309D01*
X118435714Y-69431309D02*
X118483333Y-69407500D01*
X118483333Y-69407500D02*
X118507142Y-69383690D01*
X118507142Y-69383690D02*
X118530952Y-69336071D01*
X118530952Y-69336071D02*
X118530952Y-69217023D01*
X118530952Y-69217023D02*
X118507142Y-69169404D01*
X118507142Y-69169404D02*
X118483333Y-69145595D01*
X118483333Y-69145595D02*
X118435714Y-69121785D01*
X118435714Y-69121785D02*
X118340476Y-69121785D01*
X118340476Y-69121785D02*
X118292857Y-69145595D01*
X118292857Y-69145595D02*
X118269047Y-69169404D01*
X118269047Y-69169404D02*
X118245238Y-69217023D01*
X54230952Y-94131309D02*
X54230952Y-93631309D01*
X54230952Y-93631309D02*
X54350000Y-93631309D01*
X54350000Y-93631309D02*
X54421428Y-93655119D01*
X54421428Y-93655119D02*
X54469047Y-93702738D01*
X54469047Y-93702738D02*
X54492857Y-93750357D01*
X54492857Y-93750357D02*
X54516666Y-93845595D01*
X54516666Y-93845595D02*
X54516666Y-93917023D01*
X54516666Y-93917023D02*
X54492857Y-94012261D01*
X54492857Y-94012261D02*
X54469047Y-94059880D01*
X54469047Y-94059880D02*
X54421428Y-94107500D01*
X54421428Y-94107500D02*
X54350000Y-94131309D01*
X54350000Y-94131309D02*
X54230952Y-94131309D01*
X54707143Y-93678928D02*
X54730952Y-93655119D01*
X54730952Y-93655119D02*
X54778571Y-93631309D01*
X54778571Y-93631309D02*
X54897619Y-93631309D01*
X54897619Y-93631309D02*
X54945238Y-93655119D01*
X54945238Y-93655119D02*
X54969047Y-93678928D01*
X54969047Y-93678928D02*
X54992857Y-93726547D01*
X54992857Y-93726547D02*
X54992857Y-93774166D01*
X54992857Y-93774166D02*
X54969047Y-93845595D01*
X54969047Y-93845595D02*
X54683333Y-94131309D01*
X54683333Y-94131309D02*
X54992857Y-94131309D01*
X68078571Y-77283690D02*
X68054762Y-77307500D01*
X68054762Y-77307500D02*
X67983333Y-77331309D01*
X67983333Y-77331309D02*
X67935714Y-77331309D01*
X67935714Y-77331309D02*
X67864286Y-77307500D01*
X67864286Y-77307500D02*
X67816667Y-77259880D01*
X67816667Y-77259880D02*
X67792857Y-77212261D01*
X67792857Y-77212261D02*
X67769048Y-77117023D01*
X67769048Y-77117023D02*
X67769048Y-77045595D01*
X67769048Y-77045595D02*
X67792857Y-76950357D01*
X67792857Y-76950357D02*
X67816667Y-76902738D01*
X67816667Y-76902738D02*
X67864286Y-76855119D01*
X67864286Y-76855119D02*
X67935714Y-76831309D01*
X67935714Y-76831309D02*
X67983333Y-76831309D01*
X67983333Y-76831309D02*
X68054762Y-76855119D01*
X68054762Y-76855119D02*
X68078571Y-76878928D01*
X68554762Y-77331309D02*
X68269048Y-77331309D01*
X68411905Y-77331309D02*
X68411905Y-76831309D01*
X68411905Y-76831309D02*
X68364286Y-76902738D01*
X68364286Y-76902738D02*
X68316667Y-76950357D01*
X68316667Y-76950357D02*
X68269048Y-76974166D01*
X68792857Y-77331309D02*
X68888095Y-77331309D01*
X68888095Y-77331309D02*
X68935714Y-77307500D01*
X68935714Y-77307500D02*
X68959523Y-77283690D01*
X68959523Y-77283690D02*
X69007142Y-77212261D01*
X69007142Y-77212261D02*
X69030952Y-77117023D01*
X69030952Y-77117023D02*
X69030952Y-76926547D01*
X69030952Y-76926547D02*
X69007142Y-76878928D01*
X69007142Y-76878928D02*
X68983333Y-76855119D01*
X68983333Y-76855119D02*
X68935714Y-76831309D01*
X68935714Y-76831309D02*
X68840476Y-76831309D01*
X68840476Y-76831309D02*
X68792857Y-76855119D01*
X68792857Y-76855119D02*
X68769047Y-76878928D01*
X68769047Y-76878928D02*
X68745238Y-76926547D01*
X68745238Y-76926547D02*
X68745238Y-77045595D01*
X68745238Y-77045595D02*
X68769047Y-77093214D01*
X68769047Y-77093214D02*
X68792857Y-77117023D01*
X68792857Y-77117023D02*
X68840476Y-77140833D01*
X68840476Y-77140833D02*
X68935714Y-77140833D01*
X68935714Y-77140833D02*
X68983333Y-77117023D01*
X68983333Y-77117023D02*
X69007142Y-77093214D01*
X69007142Y-77093214D02*
X69030952Y-77045595D01*
D11*
X129348095Y-68692619D02*
X129919523Y-68692619D01*
X129633809Y-69692619D02*
X129633809Y-68692619D01*
X130252857Y-69692619D02*
X130252857Y-68692619D01*
X130252857Y-68692619D02*
X130633809Y-68692619D01*
X130633809Y-68692619D02*
X130729047Y-68740238D01*
X130729047Y-68740238D02*
X130776666Y-68787857D01*
X130776666Y-68787857D02*
X130824285Y-68883095D01*
X130824285Y-68883095D02*
X130824285Y-69025952D01*
X130824285Y-69025952D02*
X130776666Y-69121190D01*
X130776666Y-69121190D02*
X130729047Y-69168809D01*
X130729047Y-69168809D02*
X130633809Y-69216428D01*
X130633809Y-69216428D02*
X130252857Y-69216428D01*
X131157619Y-68692619D02*
X131824285Y-68692619D01*
X131824285Y-68692619D02*
X131395714Y-69692619D01*
D13*
X81278571Y-63883690D02*
X81254762Y-63907500D01*
X81254762Y-63907500D02*
X81183333Y-63931309D01*
X81183333Y-63931309D02*
X81135714Y-63931309D01*
X81135714Y-63931309D02*
X81064286Y-63907500D01*
X81064286Y-63907500D02*
X81016667Y-63859880D01*
X81016667Y-63859880D02*
X80992857Y-63812261D01*
X80992857Y-63812261D02*
X80969048Y-63717023D01*
X80969048Y-63717023D02*
X80969048Y-63645595D01*
X80969048Y-63645595D02*
X80992857Y-63550357D01*
X80992857Y-63550357D02*
X81016667Y-63502738D01*
X81016667Y-63502738D02*
X81064286Y-63455119D01*
X81064286Y-63455119D02*
X81135714Y-63431309D01*
X81135714Y-63431309D02*
X81183333Y-63431309D01*
X81183333Y-63431309D02*
X81254762Y-63455119D01*
X81254762Y-63455119D02*
X81278571Y-63478928D01*
X81707143Y-63431309D02*
X81611905Y-63431309D01*
X81611905Y-63431309D02*
X81564286Y-63455119D01*
X81564286Y-63455119D02*
X81540476Y-63478928D01*
X81540476Y-63478928D02*
X81492857Y-63550357D01*
X81492857Y-63550357D02*
X81469048Y-63645595D01*
X81469048Y-63645595D02*
X81469048Y-63836071D01*
X81469048Y-63836071D02*
X81492857Y-63883690D01*
X81492857Y-63883690D02*
X81516667Y-63907500D01*
X81516667Y-63907500D02*
X81564286Y-63931309D01*
X81564286Y-63931309D02*
X81659524Y-63931309D01*
X81659524Y-63931309D02*
X81707143Y-63907500D01*
X81707143Y-63907500D02*
X81730952Y-63883690D01*
X81730952Y-63883690D02*
X81754762Y-63836071D01*
X81754762Y-63836071D02*
X81754762Y-63717023D01*
X81754762Y-63717023D02*
X81730952Y-63669404D01*
X81730952Y-63669404D02*
X81707143Y-63645595D01*
X81707143Y-63645595D02*
X81659524Y-63621785D01*
X81659524Y-63621785D02*
X81564286Y-63621785D01*
X81564286Y-63621785D02*
X81516667Y-63645595D01*
X81516667Y-63645595D02*
X81492857Y-63669404D01*
X81492857Y-63669404D02*
X81469048Y-63717023D01*
X81992857Y-63931309D02*
X82088095Y-63931309D01*
X82088095Y-63931309D02*
X82135714Y-63907500D01*
X82135714Y-63907500D02*
X82159523Y-63883690D01*
X82159523Y-63883690D02*
X82207142Y-63812261D01*
X82207142Y-63812261D02*
X82230952Y-63717023D01*
X82230952Y-63717023D02*
X82230952Y-63526547D01*
X82230952Y-63526547D02*
X82207142Y-63478928D01*
X82207142Y-63478928D02*
X82183333Y-63455119D01*
X82183333Y-63455119D02*
X82135714Y-63431309D01*
X82135714Y-63431309D02*
X82040476Y-63431309D01*
X82040476Y-63431309D02*
X81992857Y-63455119D01*
X81992857Y-63455119D02*
X81969047Y-63478928D01*
X81969047Y-63478928D02*
X81945238Y-63526547D01*
X81945238Y-63526547D02*
X81945238Y-63645595D01*
X81945238Y-63645595D02*
X81969047Y-63693214D01*
X81969047Y-63693214D02*
X81992857Y-63717023D01*
X81992857Y-63717023D02*
X82040476Y-63740833D01*
X82040476Y-63740833D02*
X82135714Y-63740833D01*
X82135714Y-63740833D02*
X82183333Y-63717023D01*
X82183333Y-63717023D02*
X82207142Y-63693214D01*
X82207142Y-63693214D02*
X82230952Y-63645595D01*
X93823452Y-94761309D02*
X93823452Y-94261309D01*
X93823452Y-94261309D02*
X93942500Y-94261309D01*
X93942500Y-94261309D02*
X94013928Y-94285119D01*
X94013928Y-94285119D02*
X94061547Y-94332738D01*
X94061547Y-94332738D02*
X94085357Y-94380357D01*
X94085357Y-94380357D02*
X94109166Y-94475595D01*
X94109166Y-94475595D02*
X94109166Y-94547023D01*
X94109166Y-94547023D02*
X94085357Y-94642261D01*
X94085357Y-94642261D02*
X94061547Y-94689880D01*
X94061547Y-94689880D02*
X94013928Y-94737500D01*
X94013928Y-94737500D02*
X93942500Y-94761309D01*
X93942500Y-94761309D02*
X93823452Y-94761309D01*
X94275833Y-94261309D02*
X94585357Y-94261309D01*
X94585357Y-94261309D02*
X94418690Y-94451785D01*
X94418690Y-94451785D02*
X94490119Y-94451785D01*
X94490119Y-94451785D02*
X94537738Y-94475595D01*
X94537738Y-94475595D02*
X94561547Y-94499404D01*
X94561547Y-94499404D02*
X94585357Y-94547023D01*
X94585357Y-94547023D02*
X94585357Y-94666071D01*
X94585357Y-94666071D02*
X94561547Y-94713690D01*
X94561547Y-94713690D02*
X94537738Y-94737500D01*
X94537738Y-94737500D02*
X94490119Y-94761309D01*
X94490119Y-94761309D02*
X94347262Y-94761309D01*
X94347262Y-94761309D02*
X94299643Y-94737500D01*
X94299643Y-94737500D02*
X94275833Y-94713690D01*
X77461905Y-57893214D02*
X77461905Y-58131309D01*
X77295239Y-57631309D02*
X77461905Y-57893214D01*
X77461905Y-57893214D02*
X77628572Y-57631309D01*
X78057143Y-58131309D02*
X77771429Y-58131309D01*
X77914286Y-58131309D02*
X77914286Y-57631309D01*
X77914286Y-57631309D02*
X77866667Y-57702738D01*
X77866667Y-57702738D02*
X77819048Y-57750357D01*
X77819048Y-57750357D02*
X77771429Y-57774166D01*
X54316666Y-82931309D02*
X54150000Y-82693214D01*
X54030952Y-82931309D02*
X54030952Y-82431309D01*
X54030952Y-82431309D02*
X54221428Y-82431309D01*
X54221428Y-82431309D02*
X54269047Y-82455119D01*
X54269047Y-82455119D02*
X54292857Y-82478928D01*
X54292857Y-82478928D02*
X54316666Y-82526547D01*
X54316666Y-82526547D02*
X54316666Y-82597976D01*
X54316666Y-82597976D02*
X54292857Y-82645595D01*
X54292857Y-82645595D02*
X54269047Y-82669404D01*
X54269047Y-82669404D02*
X54221428Y-82693214D01*
X54221428Y-82693214D02*
X54030952Y-82693214D01*
X54745238Y-82597976D02*
X54745238Y-82931309D01*
X54626190Y-82407500D02*
X54507143Y-82764642D01*
X54507143Y-82764642D02*
X54816666Y-82764642D01*
D11*
X43178095Y-70592619D02*
X43749523Y-70592619D01*
X43463809Y-71592619D02*
X43463809Y-70592619D01*
X44082857Y-71592619D02*
X44082857Y-70592619D01*
X44082857Y-70592619D02*
X44463809Y-70592619D01*
X44463809Y-70592619D02*
X44559047Y-70640238D01*
X44559047Y-70640238D02*
X44606666Y-70687857D01*
X44606666Y-70687857D02*
X44654285Y-70783095D01*
X44654285Y-70783095D02*
X44654285Y-70925952D01*
X44654285Y-70925952D02*
X44606666Y-71021190D01*
X44606666Y-71021190D02*
X44559047Y-71068809D01*
X44559047Y-71068809D02*
X44463809Y-71116428D01*
X44463809Y-71116428D02*
X44082857Y-71116428D01*
X45606666Y-71592619D02*
X45035238Y-71592619D01*
X45320952Y-71592619D02*
X45320952Y-70592619D01*
X45320952Y-70592619D02*
X45225714Y-70735476D01*
X45225714Y-70735476D02*
X45130476Y-70830714D01*
X45130476Y-70830714D02*
X45035238Y-70878333D01*
D13*
X112361905Y-59593214D02*
X112361905Y-59831309D01*
X112195239Y-59331309D02*
X112361905Y-59593214D01*
X112361905Y-59593214D02*
X112528572Y-59331309D01*
X112909524Y-59497976D02*
X112909524Y-59831309D01*
X112790476Y-59307500D02*
X112671429Y-59664642D01*
X112671429Y-59664642D02*
X112980952Y-59664642D01*
X81096071Y-83931309D02*
X80929405Y-83693214D01*
X80810357Y-83931309D02*
X80810357Y-83431309D01*
X80810357Y-83431309D02*
X81000833Y-83431309D01*
X81000833Y-83431309D02*
X81048452Y-83455119D01*
X81048452Y-83455119D02*
X81072262Y-83478928D01*
X81072262Y-83478928D02*
X81096071Y-83526547D01*
X81096071Y-83526547D02*
X81096071Y-83597976D01*
X81096071Y-83597976D02*
X81072262Y-83645595D01*
X81072262Y-83645595D02*
X81048452Y-83669404D01*
X81048452Y-83669404D02*
X81000833Y-83693214D01*
X81000833Y-83693214D02*
X80810357Y-83693214D01*
X81572262Y-83931309D02*
X81286548Y-83931309D01*
X81429405Y-83931309D02*
X81429405Y-83431309D01*
X81429405Y-83431309D02*
X81381786Y-83502738D01*
X81381786Y-83502738D02*
X81334167Y-83550357D01*
X81334167Y-83550357D02*
X81286548Y-83574166D01*
X81738928Y-83431309D02*
X82072261Y-83431309D01*
X82072261Y-83431309D02*
X81857976Y-83931309D01*
X74784166Y-64683690D02*
X74760357Y-64707500D01*
X74760357Y-64707500D02*
X74688928Y-64731309D01*
X74688928Y-64731309D02*
X74641309Y-64731309D01*
X74641309Y-64731309D02*
X74569881Y-64707500D01*
X74569881Y-64707500D02*
X74522262Y-64659880D01*
X74522262Y-64659880D02*
X74498452Y-64612261D01*
X74498452Y-64612261D02*
X74474643Y-64517023D01*
X74474643Y-64517023D02*
X74474643Y-64445595D01*
X74474643Y-64445595D02*
X74498452Y-64350357D01*
X74498452Y-64350357D02*
X74522262Y-64302738D01*
X74522262Y-64302738D02*
X74569881Y-64255119D01*
X74569881Y-64255119D02*
X74641309Y-64231309D01*
X74641309Y-64231309D02*
X74688928Y-64231309D01*
X74688928Y-64231309D02*
X74760357Y-64255119D01*
X74760357Y-64255119D02*
X74784166Y-64278928D01*
X75069881Y-64445595D02*
X75022262Y-64421785D01*
X75022262Y-64421785D02*
X74998452Y-64397976D01*
X74998452Y-64397976D02*
X74974643Y-64350357D01*
X74974643Y-64350357D02*
X74974643Y-64326547D01*
X74974643Y-64326547D02*
X74998452Y-64278928D01*
X74998452Y-64278928D02*
X75022262Y-64255119D01*
X75022262Y-64255119D02*
X75069881Y-64231309D01*
X75069881Y-64231309D02*
X75165119Y-64231309D01*
X75165119Y-64231309D02*
X75212738Y-64255119D01*
X75212738Y-64255119D02*
X75236547Y-64278928D01*
X75236547Y-64278928D02*
X75260357Y-64326547D01*
X75260357Y-64326547D02*
X75260357Y-64350357D01*
X75260357Y-64350357D02*
X75236547Y-64397976D01*
X75236547Y-64397976D02*
X75212738Y-64421785D01*
X75212738Y-64421785D02*
X75165119Y-64445595D01*
X75165119Y-64445595D02*
X75069881Y-64445595D01*
X75069881Y-64445595D02*
X75022262Y-64469404D01*
X75022262Y-64469404D02*
X74998452Y-64493214D01*
X74998452Y-64493214D02*
X74974643Y-64540833D01*
X74974643Y-64540833D02*
X74974643Y-64636071D01*
X74974643Y-64636071D02*
X74998452Y-64683690D01*
X74998452Y-64683690D02*
X75022262Y-64707500D01*
X75022262Y-64707500D02*
X75069881Y-64731309D01*
X75069881Y-64731309D02*
X75165119Y-64731309D01*
X75165119Y-64731309D02*
X75212738Y-64707500D01*
X75212738Y-64707500D02*
X75236547Y-64683690D01*
X75236547Y-64683690D02*
X75260357Y-64636071D01*
X75260357Y-64636071D02*
X75260357Y-64540833D01*
X75260357Y-64540833D02*
X75236547Y-64493214D01*
X75236547Y-64493214D02*
X75212738Y-64469404D01*
X75212738Y-64469404D02*
X75165119Y-64445595D01*
X108778571Y-65683690D02*
X108754762Y-65707500D01*
X108754762Y-65707500D02*
X108683333Y-65731309D01*
X108683333Y-65731309D02*
X108635714Y-65731309D01*
X108635714Y-65731309D02*
X108564286Y-65707500D01*
X108564286Y-65707500D02*
X108516667Y-65659880D01*
X108516667Y-65659880D02*
X108492857Y-65612261D01*
X108492857Y-65612261D02*
X108469048Y-65517023D01*
X108469048Y-65517023D02*
X108469048Y-65445595D01*
X108469048Y-65445595D02*
X108492857Y-65350357D01*
X108492857Y-65350357D02*
X108516667Y-65302738D01*
X108516667Y-65302738D02*
X108564286Y-65255119D01*
X108564286Y-65255119D02*
X108635714Y-65231309D01*
X108635714Y-65231309D02*
X108683333Y-65231309D01*
X108683333Y-65231309D02*
X108754762Y-65255119D01*
X108754762Y-65255119D02*
X108778571Y-65278928D01*
X109230952Y-65231309D02*
X108992857Y-65231309D01*
X108992857Y-65231309D02*
X108969048Y-65469404D01*
X108969048Y-65469404D02*
X108992857Y-65445595D01*
X108992857Y-65445595D02*
X109040476Y-65421785D01*
X109040476Y-65421785D02*
X109159524Y-65421785D01*
X109159524Y-65421785D02*
X109207143Y-65445595D01*
X109207143Y-65445595D02*
X109230952Y-65469404D01*
X109230952Y-65469404D02*
X109254762Y-65517023D01*
X109254762Y-65517023D02*
X109254762Y-65636071D01*
X109254762Y-65636071D02*
X109230952Y-65683690D01*
X109230952Y-65683690D02*
X109207143Y-65707500D01*
X109207143Y-65707500D02*
X109159524Y-65731309D01*
X109159524Y-65731309D02*
X109040476Y-65731309D01*
X109040476Y-65731309D02*
X108992857Y-65707500D01*
X108992857Y-65707500D02*
X108969048Y-65683690D01*
X109683333Y-65397976D02*
X109683333Y-65731309D01*
X109564285Y-65207500D02*
X109445238Y-65564642D01*
X109445238Y-65564642D02*
X109754761Y-65564642D01*
X123916666Y-54483690D02*
X123892857Y-54507500D01*
X123892857Y-54507500D02*
X123821428Y-54531309D01*
X123821428Y-54531309D02*
X123773809Y-54531309D01*
X123773809Y-54531309D02*
X123702381Y-54507500D01*
X123702381Y-54507500D02*
X123654762Y-54459880D01*
X123654762Y-54459880D02*
X123630952Y-54412261D01*
X123630952Y-54412261D02*
X123607143Y-54317023D01*
X123607143Y-54317023D02*
X123607143Y-54245595D01*
X123607143Y-54245595D02*
X123630952Y-54150357D01*
X123630952Y-54150357D02*
X123654762Y-54102738D01*
X123654762Y-54102738D02*
X123702381Y-54055119D01*
X123702381Y-54055119D02*
X123773809Y-54031309D01*
X123773809Y-54031309D02*
X123821428Y-54031309D01*
X123821428Y-54031309D02*
X123892857Y-54055119D01*
X123892857Y-54055119D02*
X123916666Y-54078928D01*
X124083333Y-54031309D02*
X124416666Y-54031309D01*
X124416666Y-54031309D02*
X124202381Y-54531309D01*
X117453571Y-56773809D02*
X117286905Y-56535714D01*
X117167857Y-56773809D02*
X117167857Y-56273809D01*
X117167857Y-56273809D02*
X117358333Y-56273809D01*
X117358333Y-56273809D02*
X117405952Y-56297619D01*
X117405952Y-56297619D02*
X117429762Y-56321428D01*
X117429762Y-56321428D02*
X117453571Y-56369047D01*
X117453571Y-56369047D02*
X117453571Y-56440476D01*
X117453571Y-56440476D02*
X117429762Y-56488095D01*
X117429762Y-56488095D02*
X117405952Y-56511904D01*
X117405952Y-56511904D02*
X117358333Y-56535714D01*
X117358333Y-56535714D02*
X117167857Y-56535714D01*
X117644048Y-56321428D02*
X117667857Y-56297619D01*
X117667857Y-56297619D02*
X117715476Y-56273809D01*
X117715476Y-56273809D02*
X117834524Y-56273809D01*
X117834524Y-56273809D02*
X117882143Y-56297619D01*
X117882143Y-56297619D02*
X117905952Y-56321428D01*
X117905952Y-56321428D02*
X117929762Y-56369047D01*
X117929762Y-56369047D02*
X117929762Y-56416666D01*
X117929762Y-56416666D02*
X117905952Y-56488095D01*
X117905952Y-56488095D02*
X117620238Y-56773809D01*
X117620238Y-56773809D02*
X117929762Y-56773809D01*
X118358333Y-56273809D02*
X118263095Y-56273809D01*
X118263095Y-56273809D02*
X118215476Y-56297619D01*
X118215476Y-56297619D02*
X118191666Y-56321428D01*
X118191666Y-56321428D02*
X118144047Y-56392857D01*
X118144047Y-56392857D02*
X118120238Y-56488095D01*
X118120238Y-56488095D02*
X118120238Y-56678571D01*
X118120238Y-56678571D02*
X118144047Y-56726190D01*
X118144047Y-56726190D02*
X118167857Y-56750000D01*
X118167857Y-56750000D02*
X118215476Y-56773809D01*
X118215476Y-56773809D02*
X118310714Y-56773809D01*
X118310714Y-56773809D02*
X118358333Y-56750000D01*
X118358333Y-56750000D02*
X118382142Y-56726190D01*
X118382142Y-56726190D02*
X118405952Y-56678571D01*
X118405952Y-56678571D02*
X118405952Y-56559523D01*
X118405952Y-56559523D02*
X118382142Y-56511904D01*
X118382142Y-56511904D02*
X118358333Y-56488095D01*
X118358333Y-56488095D02*
X118310714Y-56464285D01*
X118310714Y-56464285D02*
X118215476Y-56464285D01*
X118215476Y-56464285D02*
X118167857Y-56488095D01*
X118167857Y-56488095D02*
X118144047Y-56511904D01*
X118144047Y-56511904D02*
X118120238Y-56559523D01*
X126313571Y-90448809D02*
X126146905Y-90210714D01*
X126027857Y-90448809D02*
X126027857Y-89948809D01*
X126027857Y-89948809D02*
X126218333Y-89948809D01*
X126218333Y-89948809D02*
X126265952Y-89972619D01*
X126265952Y-89972619D02*
X126289762Y-89996428D01*
X126289762Y-89996428D02*
X126313571Y-90044047D01*
X126313571Y-90044047D02*
X126313571Y-90115476D01*
X126313571Y-90115476D02*
X126289762Y-90163095D01*
X126289762Y-90163095D02*
X126265952Y-90186904D01*
X126265952Y-90186904D02*
X126218333Y-90210714D01*
X126218333Y-90210714D02*
X126027857Y-90210714D01*
X126504048Y-89996428D02*
X126527857Y-89972619D01*
X126527857Y-89972619D02*
X126575476Y-89948809D01*
X126575476Y-89948809D02*
X126694524Y-89948809D01*
X126694524Y-89948809D02*
X126742143Y-89972619D01*
X126742143Y-89972619D02*
X126765952Y-89996428D01*
X126765952Y-89996428D02*
X126789762Y-90044047D01*
X126789762Y-90044047D02*
X126789762Y-90091666D01*
X126789762Y-90091666D02*
X126765952Y-90163095D01*
X126765952Y-90163095D02*
X126480238Y-90448809D01*
X126480238Y-90448809D02*
X126789762Y-90448809D01*
X127265952Y-90448809D02*
X126980238Y-90448809D01*
X127123095Y-90448809D02*
X127123095Y-89948809D01*
X127123095Y-89948809D02*
X127075476Y-90020238D01*
X127075476Y-90020238D02*
X127027857Y-90067857D01*
X127027857Y-90067857D02*
X126980238Y-90091666D01*
D14*
X113705000Y-64230000D02*
G75*
G03*
X113705000Y-64230000I-700000J0D01*
G01*
X53525000Y-96390000D02*
X53525000Y-94090000D01*
X50325000Y-94790000D02*
X50325000Y-96390000D01*
X94827500Y-97872224D02*
X94827500Y-97362776D01*
X93782500Y-97872224D02*
X93782500Y-97362776D01*
X114305000Y-68130000D02*
G75*
G03*
X114305000Y-68130000I-700000J0D01*
G01*
X97470000Y-73140000D02*
G75*
G03*
X97470000Y-73140000I-1700000J0D01*
G01*
X118170000Y-48447000D02*
X116840000Y-48447000D01*
X85030000Y-43247000D02*
X85030000Y-48447000D01*
X118170000Y-45847000D02*
X115570000Y-45847000D01*
X118170000Y-43247000D02*
X85030000Y-43247000D01*
X115570000Y-45847000D02*
X115570000Y-48447000D01*
X118170000Y-43247000D02*
X118170000Y-45847000D01*
X115570000Y-48447000D02*
X85030000Y-48447000D01*
X118170000Y-47117000D02*
X118170000Y-48447000D01*
X131705000Y-63010000D02*
X131705000Y-61760000D01*
X127405000Y-59120000D02*
X127405000Y-59115000D01*
X131466000Y-62770000D02*
X131466000Y-61600000D01*
X130215000Y-63010000D02*
X131705000Y-63010000D01*
X126345000Y-57122000D02*
X126345000Y-56097000D01*
X126345000Y-59120000D02*
X126345000Y-58597000D01*
X128405000Y-62360000D02*
X128405000Y-61600000D01*
X128405000Y-57024000D02*
X128405000Y-56195000D01*
X127405000Y-62360000D02*
X128405000Y-62360000D01*
X126345000Y-62770000D02*
X126345000Y-61600000D01*
X128405000Y-59120000D02*
X128405000Y-58695000D01*
X127405000Y-62360000D02*
X127405000Y-61600000D01*
X128505000Y-54650000D02*
X129405000Y-54650000D01*
X131466000Y-59120000D02*
X131466000Y-58695000D01*
X126345000Y-62770000D02*
X131466000Y-62770000D01*
X131466000Y-57024000D02*
X131466000Y-56195000D01*
X130967000Y-59135000D02*
G75*
G03*
X130993343Y-59015712I-962500J275100D01*
G01*
X129250000Y-55703000D02*
G75*
G03*
X129416303Y-57169388I755000J-657000D01*
G01*
X129250000Y-58203000D02*
G75*
G03*
X129272681Y-59542188I755000J-657000D01*
G01*
X129273000Y-60678000D02*
G75*
G03*
X130979931Y-61584629I732000J-682000D01*
G01*
X130956998Y-56668999D02*
G75*
G03*
X130993617Y-56516270I-952798J309199D01*
G01*
X89082500Y-87087776D02*
X89082500Y-87597224D01*
X90127500Y-87087776D02*
X90127500Y-87597224D01*
X128382500Y-70975276D02*
X128382500Y-71484724D01*
X129427500Y-70975276D02*
X129427500Y-71484724D01*
X109558733Y-57740000D02*
X109851267Y-57740000D01*
X109558733Y-56720000D02*
X109851267Y-56720000D01*
X127105000Y-75730000D02*
G75*
G03*
X127105000Y-75730000I-1700000J0D01*
G01*
X46105000Y-92030000D02*
G75*
G03*
X46105000Y-92030000I-1700000J0D01*
G01*
X71340000Y-73968748D02*
X71340000Y-74491252D01*
X69870000Y-73968748D02*
X69870000Y-74491252D01*
X69065000Y-68190000D02*
X69765000Y-68190000D01*
X55545000Y-68190000D02*
X55545000Y-67490000D01*
X69065000Y-53970000D02*
X69765000Y-53970000D01*
X56245000Y-68190000D02*
X55545000Y-68190000D01*
X69765000Y-68190000D02*
X69765000Y-67490000D01*
X55545000Y-53970000D02*
X55545000Y-54670000D01*
X69765000Y-53970000D02*
X69765000Y-54670000D01*
X56245000Y-53970000D02*
X55545000Y-53970000D01*
X69765000Y-67490000D02*
X71130000Y-67490000D01*
X90053752Y-99020000D02*
X88631248Y-99020000D01*
X90053752Y-100840000D02*
X88631248Y-100840000D01*
X77340000Y-71631248D02*
X77340000Y-72153752D01*
X75870000Y-71631248D02*
X75870000Y-72153752D01*
X61755000Y-88030000D02*
X57255000Y-88030000D01*
X57255000Y-88030000D02*
X57255000Y-93430000D01*
X59651267Y-93820000D02*
X59358733Y-93820000D01*
X59651267Y-94840000D02*
X59358733Y-94840000D01*
X45358733Y-55820000D02*
X45651267Y-55820000D01*
X45358733Y-56840000D02*
X45651267Y-56840000D01*
X55327500Y-70775276D02*
X55327500Y-71284724D01*
X54282500Y-70775276D02*
X54282500Y-71284724D01*
X89927500Y-83572224D02*
X89927500Y-83062776D01*
X88882500Y-83572224D02*
X88882500Y-83062776D01*
X52053752Y-100020000D02*
X50631248Y-100020000D01*
X52053752Y-101840000D02*
X50631248Y-101840000D01*
X122859724Y-89852500D02*
X122350276Y-89852500D01*
X122859724Y-88807500D02*
X122350276Y-88807500D01*
X120482500Y-59572224D02*
X120482500Y-59062776D01*
X121527500Y-59572224D02*
X121527500Y-59062776D01*
X56446233Y-81740000D02*
X56738767Y-81740000D01*
X56446233Y-80720000D02*
X56738767Y-80720000D01*
X64495000Y-83720000D02*
X63795000Y-83720000D01*
X78015000Y-83720000D02*
X78015000Y-84420000D01*
X63795000Y-83720000D02*
X63795000Y-84420000D01*
X63795000Y-84420000D02*
X62430000Y-84420000D01*
X63795000Y-97940000D02*
X63795000Y-97240000D01*
X78015000Y-97940000D02*
X78015000Y-97240000D01*
X77315000Y-97940000D02*
X78015000Y-97940000D01*
X77315000Y-83720000D02*
X78015000Y-83720000D01*
X64495000Y-97940000D02*
X63795000Y-97940000D01*
X56627500Y-96997224D02*
X56627500Y-96487776D01*
X55582500Y-96997224D02*
X55582500Y-96487776D01*
X122227500Y-81662776D02*
X122227500Y-82172224D01*
X121182500Y-81662776D02*
X121182500Y-82172224D01*
X111831248Y-70120000D02*
X113253752Y-70120000D01*
X111831248Y-71940000D02*
X113253752Y-71940000D01*
X73105000Y-74030000D02*
X74955000Y-74030000D01*
X73105000Y-75230000D02*
X74955000Y-75230000D01*
X74955000Y-75230000D02*
X74955000Y-74030000D01*
X127427500Y-70975276D02*
X127427500Y-71484724D01*
X126382500Y-70975276D02*
X126382500Y-71484724D01*
X43355000Y-56330000D02*
G75*
G03*
X43355000Y-56330000I-700000J0D01*
G01*
X85030000Y-107170000D02*
X87630000Y-107170000D01*
X85030000Y-104570000D02*
X86360000Y-104570000D01*
X85030000Y-105900000D02*
X85030000Y-104570000D01*
X118170000Y-109770000D02*
X118170000Y-104570000D01*
X85030000Y-109770000D02*
X85030000Y-107170000D01*
X85030000Y-109770000D02*
X118170000Y-109770000D01*
X87630000Y-104570000D02*
X118170000Y-104570000D01*
X87630000Y-107170000D02*
X87630000Y-104570000D01*
X74658733Y-55620000D02*
X74951267Y-55620000D01*
X74658733Y-56640000D02*
X74951267Y-56640000D01*
X80005000Y-58530000D02*
X80005000Y-60130000D01*
X83205000Y-60130000D02*
X83205000Y-57830000D01*
X81866252Y-56965000D02*
X81343748Y-56965000D01*
X81866252Y-55495000D02*
X81343748Y-55495000D01*
X59227500Y-76475276D02*
X59227500Y-76984724D01*
X58182500Y-76475276D02*
X58182500Y-76984724D01*
X83345000Y-84830000D02*
X83345000Y-88280000D01*
X88465000Y-84830000D02*
X88465000Y-86780000D01*
X83345000Y-84830000D02*
X83345000Y-82880000D01*
X88465000Y-84830000D02*
X88465000Y-82880000D01*
X132105000Y-75730000D02*
G75*
G03*
X132105000Y-75730000I-1700000J0D01*
G01*
X118605000Y-66690000D02*
X116655000Y-66690000D01*
X118605000Y-66690000D02*
X120555000Y-66690000D01*
X118605000Y-61570000D02*
X115155000Y-61570000D01*
X118605000Y-61570000D02*
X120555000Y-61570000D01*
X52186252Y-93065000D02*
X51663748Y-93065000D01*
X52186252Y-91595000D02*
X51663748Y-91595000D01*
X97651267Y-92640000D02*
X97358733Y-92640000D01*
X97651267Y-91620000D02*
X97358733Y-91620000D01*
X59645000Y-75130000D02*
X59645000Y-73180000D01*
X59645000Y-75130000D02*
X59645000Y-77080000D01*
X64765000Y-75130000D02*
X64765000Y-77080000D01*
X64765000Y-75130000D02*
X64765000Y-71680000D01*
X120037776Y-68152500D02*
X120547224Y-68152500D01*
X120037776Y-67107500D02*
X120547224Y-67107500D01*
X102595000Y-82220000D02*
X101895000Y-82220000D01*
X115415000Y-96440000D02*
X116115000Y-96440000D01*
X115415000Y-82220000D02*
X116115000Y-82220000D01*
X101895000Y-82920000D02*
X100530000Y-82920000D01*
X101895000Y-96440000D02*
X101895000Y-95740000D01*
X101895000Y-82220000D02*
X101895000Y-82920000D01*
X116115000Y-96440000D02*
X116115000Y-95740000D01*
X116115000Y-82220000D02*
X116115000Y-82920000D01*
X102595000Y-96440000D02*
X101895000Y-96440000D01*
X45250276Y-58352500D02*
X45759724Y-58352500D01*
X45250276Y-57307500D02*
X45759724Y-57307500D01*
X81350276Y-80552500D02*
X81859724Y-80552500D01*
X81350276Y-79507500D02*
X81859724Y-79507500D01*
X90128752Y-98265000D02*
X89606248Y-98265000D01*
X90128752Y-96795000D02*
X89606248Y-96795000D01*
X44927500Y-78384724D02*
X44927500Y-77875276D01*
X43882500Y-78384724D02*
X43882500Y-77875276D01*
X46105000Y-82830000D02*
G75*
G03*
X46105000Y-82830000I-1700000J0D01*
G01*
X72545000Y-73730000D02*
X74845000Y-73730000D01*
X74145000Y-70530000D02*
X72545000Y-70530000D01*
X115727500Y-58684724D02*
X115727500Y-58175276D01*
X114682500Y-58684724D02*
X114682500Y-58175276D01*
X99755000Y-85830000D02*
X95255000Y-85830000D01*
X95255000Y-85830000D02*
X95255000Y-91230000D01*
X127105000Y-66730000D02*
G75*
G03*
X127105000Y-66730000I-1700000J0D01*
G01*
X129615000Y-84583733D02*
X129615000Y-84876267D01*
X128595000Y-84583733D02*
X128595000Y-84876267D01*
X48835000Y-104570000D02*
X50165000Y-104570000D01*
X48835000Y-105900000D02*
X48835000Y-104570000D01*
X48835000Y-109770000D02*
X48835000Y-107170000D01*
X48835000Y-109770000D02*
X81975000Y-109770000D01*
X51435000Y-107170000D02*
X51435000Y-104570000D01*
X81975000Y-109770000D02*
X81975000Y-104570000D01*
X51435000Y-104570000D02*
X81975000Y-104570000D01*
X48835000Y-107170000D02*
X51435000Y-107170000D01*
X52186252Y-99165000D02*
X51663748Y-99165000D01*
X52186252Y-97695000D02*
X51663748Y-97695000D01*
X127765000Y-84330000D02*
X127765000Y-82380000D01*
X122645000Y-84330000D02*
X122645000Y-87780000D01*
X122645000Y-84330000D02*
X122645000Y-82380000D01*
X127765000Y-84330000D02*
X127765000Y-86280000D01*
X99959724Y-73652500D02*
X99450276Y-73652500D01*
X99959724Y-72607500D02*
X99450276Y-72607500D01*
D11*
X45055000Y-60980000D02*
X43655000Y-60980000D01*
X43655000Y-69280000D02*
X45055000Y-69280000D01*
X41105000Y-69280000D02*
X41255000Y-69280000D01*
X41255000Y-60980000D02*
X41105000Y-60980000D01*
X47230000Y-63330000D02*
X46805000Y-63330000D01*
X41105000Y-68980000D02*
X41105000Y-69280000D01*
X46805000Y-66930000D02*
X46805000Y-67655000D01*
X46805000Y-63330000D02*
X46805000Y-62605000D01*
X41105000Y-61280000D02*
X40655000Y-61280000D01*
X47230000Y-64055000D02*
X47230000Y-63330000D01*
X41105000Y-60980000D02*
X41105000Y-61280000D01*
X40655000Y-68980000D02*
X41105000Y-68980000D01*
D14*
X128582500Y-81672224D02*
X128582500Y-81162776D01*
X129627500Y-81672224D02*
X129627500Y-81162776D01*
X91495000Y-68940000D02*
X90795000Y-68940000D01*
X104315000Y-54720000D02*
X105015000Y-54720000D01*
X90795000Y-54720000D02*
X90795000Y-55420000D01*
X105015000Y-54720000D02*
X105015000Y-55420000D01*
X104315000Y-68940000D02*
X105015000Y-68940000D01*
X105015000Y-68240000D02*
X106380000Y-68240000D01*
X105015000Y-68940000D02*
X105015000Y-68240000D01*
X91495000Y-54720000D02*
X90795000Y-54720000D01*
X90795000Y-68940000D02*
X90795000Y-68240000D01*
X79375000Y-48447000D02*
X48835000Y-48447000D01*
X81975000Y-45847000D02*
X79375000Y-45847000D01*
X81975000Y-47117000D02*
X81975000Y-48447000D01*
X48835000Y-43247000D02*
X48835000Y-48447000D01*
X79375000Y-45847000D02*
X79375000Y-48447000D01*
X81975000Y-43247000D02*
X48835000Y-43247000D01*
X81975000Y-48447000D02*
X80645000Y-48447000D01*
X81975000Y-43247000D02*
X81975000Y-45847000D01*
X97358733Y-84420000D02*
X97651267Y-84420000D01*
X97358733Y-85440000D02*
X97651267Y-85440000D01*
X125147500Y-52225276D02*
X125147500Y-52734724D01*
X126192500Y-52225276D02*
X126192500Y-52734724D01*
X90166252Y-91965000D02*
X89643748Y-91965000D01*
X90166252Y-90495000D02*
X89643748Y-90495000D01*
X52782500Y-71309724D02*
X52782500Y-70800276D01*
X53827500Y-71309724D02*
X53827500Y-70800276D01*
X56847224Y-79207500D02*
X56337776Y-79207500D01*
X56847224Y-80252500D02*
X56337776Y-80252500D01*
X105280000Y-73230000D02*
G75*
G03*
X105280000Y-73230000I-1700000J0D01*
G01*
X83159724Y-68952500D02*
X82650276Y-68952500D01*
X83159724Y-67907500D02*
X82650276Y-67907500D01*
X84905000Y-61930000D02*
X84905000Y-60080000D01*
X83705000Y-61930000D02*
X83705000Y-60080000D01*
X84905000Y-60080000D02*
X83705000Y-60080000D01*
X91492500Y-95330000D02*
X91492500Y-93030000D01*
X88292500Y-93730000D02*
X88292500Y-95330000D01*
X122762500Y-52782224D02*
X122762500Y-52272776D01*
X121717500Y-52782224D02*
X121717500Y-52272776D01*
X73759724Y-77352500D02*
X73250276Y-77352500D01*
X73759724Y-76307500D02*
X73250276Y-76307500D01*
X59421233Y-86620000D02*
X59713767Y-86620000D01*
X59421233Y-87640000D02*
X59713767Y-87640000D01*
X66827500Y-73962776D02*
X66827500Y-74472224D01*
X65782500Y-73962776D02*
X65782500Y-74472224D01*
X120196233Y-68620000D02*
X120488767Y-68620000D01*
X120196233Y-69640000D02*
X120488767Y-69640000D01*
X54005000Y-96290000D02*
X54005000Y-94440000D01*
X55205000Y-94440000D02*
X54005000Y-94440000D01*
X55205000Y-96290000D02*
X55205000Y-94440000D01*
X67495000Y-73418748D02*
X67495000Y-74841252D01*
X69315000Y-73418748D02*
X69315000Y-74841252D01*
X132105000Y-66730000D02*
G75*
G03*
X132105000Y-66730000I-1700000J0D01*
G01*
X81866252Y-63065000D02*
X81343748Y-63065000D01*
X81866252Y-61595000D02*
X81343748Y-61595000D01*
X92292500Y-95230000D02*
X92292500Y-93380000D01*
X93492500Y-95230000D02*
X93492500Y-93380000D01*
X93492500Y-93380000D02*
X92292500Y-93380000D01*
X72555000Y-62430000D02*
X77055000Y-62430000D01*
X77055000Y-62430000D02*
X77055000Y-57030000D01*
X56362776Y-83252500D02*
X56872224Y-83252500D01*
X56362776Y-82207500D02*
X56872224Y-82207500D01*
X46105000Y-73580000D02*
G75*
G03*
X46105000Y-73580000I-1700000J0D01*
G01*
X107455000Y-63530000D02*
X111955000Y-63530000D01*
X111955000Y-63530000D02*
X111955000Y-58130000D01*
X81672224Y-82007500D02*
X81162776Y-82007500D01*
X81672224Y-83052500D02*
X81162776Y-83052500D01*
X75013767Y-62820000D02*
X74721233Y-62820000D01*
X75013767Y-63840000D02*
X74721233Y-63840000D01*
X109851267Y-63920000D02*
X109558733Y-63920000D01*
X109851267Y-64940000D02*
X109558733Y-64940000D01*
X123530000Y-52498767D02*
X123530000Y-52206233D01*
X124550000Y-52498767D02*
X124550000Y-52206233D01*
X119727500Y-56797224D02*
X119727500Y-56287776D01*
X118682500Y-56797224D02*
X118682500Y-56287776D01*
X124682500Y-89962776D02*
X124682500Y-90472224D01*
X125727500Y-89962776D02*
X125727500Y-90472224D01*
M02*
