%TF.GenerationSoftware,KiCad,Pcbnew,7.0.1*%
%TF.CreationDate,2023-10-27T14:21:21-05:00*%
%TF.ProjectId,ramn,72616d6e-2e6b-4696-9361-645f70636258,V1.1*%
%TF.SameCoordinates,Original*%
%TF.FileFunction,Soldermask,Bot*%
%TF.FilePolarity,Negative*%
%FSLAX46Y46*%
G04 Gerber Fmt 4.6, Leading zero omitted, Abs format (unit mm)*
G04 Created by KiCad (PCBNEW 7.0.1) date 2023-10-27 14:21:21*
%MOMM*%
%LPD*%
G01*
G04 APERTURE LIST*
G04 Aperture macros list*
%AMRoundRect*
0 Rectangle with rounded corners*
0 $1 Rounding radius*
0 $2 $3 $4 $5 $6 $7 $8 $9 X,Y pos of 4 corners*
0 Add a 4 corners polygon primitive as box body*
4,1,4,$2,$3,$4,$5,$6,$7,$8,$9,$2,$3,0*
0 Add four circle primitives for the rounded corners*
1,1,$1+$1,$2,$3*
1,1,$1+$1,$4,$5*
1,1,$1+$1,$6,$7*
1,1,$1+$1,$8,$9*
0 Add four rect primitives between the rounded corners*
20,1,$1+$1,$2,$3,$4,$5,0*
20,1,$1+$1,$4,$5,$6,$7,0*
20,1,$1+$1,$6,$7,$8,$9,0*
20,1,$1+$1,$8,$9,$2,$3,0*%
G04 Aperture macros list end*
%ADD10C,5.200000*%
%ADD11C,3.000000*%
%ADD12R,1.700000X1.700000*%
%ADD13O,1.700000X1.700000*%
%ADD14R,2.000000X2.000000*%
%ADD15C,2.000000*%
%ADD16C,5.500000*%
%ADD17C,0.800000*%
%ADD18C,1.800000*%
%ADD19RoundRect,0.237500X0.237500X-0.300000X0.237500X0.300000X-0.237500X0.300000X-0.237500X-0.300000X0*%
%ADD20RoundRect,0.237500X0.300000X0.237500X-0.300000X0.237500X-0.300000X-0.237500X0.300000X-0.237500X0*%
%ADD21RoundRect,0.237500X-0.300000X-0.237500X0.300000X-0.237500X0.300000X0.237500X-0.300000X0.237500X0*%
%ADD22RoundRect,0.237500X-0.237500X0.300000X-0.237500X-0.300000X0.237500X-0.300000X0.237500X0.300000X0*%
G04 APERTURE END LIST*
D10*
X122555000Y-106680000D03*
D11*
X95770000Y-73140000D03*
D12*
X116840000Y-47117000D03*
D13*
X116840000Y-44577000D03*
X114300000Y-47117000D03*
X114300000Y-44577000D03*
X111760000Y-47117000D03*
X111760000Y-44577000D03*
X109220000Y-47117000D03*
X109220000Y-44577000D03*
X106680000Y-47117000D03*
X106680000Y-44577000D03*
X104140000Y-47117000D03*
X104140000Y-44577000D03*
X101600000Y-47117000D03*
X101600000Y-44577000D03*
X99060000Y-47117000D03*
X99060000Y-44577000D03*
X96520000Y-47117000D03*
X96520000Y-44577000D03*
X93980000Y-47117000D03*
X93980000Y-44577000D03*
X91440000Y-47117000D03*
X91440000Y-44577000D03*
X88900000Y-47117000D03*
X88900000Y-44577000D03*
X86360000Y-47117000D03*
X86360000Y-44577000D03*
D14*
X127405000Y-60360000D03*
X130505000Y-60360000D03*
D15*
X130505000Y-57860000D03*
X127405000Y-57860000D03*
X127405000Y-55360000D03*
X130505000Y-55360000D03*
D11*
X125405000Y-75730000D03*
X44405000Y-92030000D03*
D16*
X44450000Y-106680000D03*
D12*
X86360000Y-105900000D03*
D13*
X86360000Y-108440000D03*
X88900000Y-105900000D03*
X88900000Y-108440000D03*
X91440000Y-105900000D03*
X91440000Y-108440000D03*
X93980000Y-105900000D03*
X93980000Y-108440000D03*
X96520000Y-105900000D03*
X96520000Y-108440000D03*
X99060000Y-105900000D03*
X99060000Y-108440000D03*
X101600000Y-105900000D03*
X101600000Y-108440000D03*
X104140000Y-105900000D03*
X104140000Y-108440000D03*
X106680000Y-105900000D03*
X106680000Y-108440000D03*
X109220000Y-105900000D03*
X109220000Y-108440000D03*
X111760000Y-105900000D03*
X111760000Y-108440000D03*
X114300000Y-105900000D03*
X114300000Y-108440000D03*
X116840000Y-105900000D03*
X116840000Y-108440000D03*
D11*
X130405000Y-75730000D03*
X44405000Y-82830000D03*
X125405000Y-66730000D03*
D16*
X44450000Y-46990000D03*
D12*
X50165000Y-105900000D03*
D13*
X50165000Y-108440000D03*
X52705000Y-105900000D03*
X52705000Y-108440000D03*
X55245000Y-105900000D03*
X55245000Y-108440000D03*
X57785000Y-105900000D03*
X57785000Y-108440000D03*
X60325000Y-105900000D03*
X60325000Y-108440000D03*
X62865000Y-105900000D03*
X62865000Y-108440000D03*
X65405000Y-105900000D03*
X65405000Y-108440000D03*
X67945000Y-105900000D03*
X67945000Y-108440000D03*
X70485000Y-105900000D03*
X70485000Y-108440000D03*
X73025000Y-105900000D03*
X73025000Y-108440000D03*
X75565000Y-105900000D03*
X75565000Y-108440000D03*
X78105000Y-105900000D03*
X78105000Y-108440000D03*
X80645000Y-105900000D03*
X80645000Y-108440000D03*
D17*
X45205000Y-67630000D03*
X45205000Y-62630000D03*
D18*
X42455000Y-61255000D03*
D15*
X46255000Y-61405000D03*
D18*
X42455000Y-69005000D03*
D15*
X46255000Y-68855000D03*
D12*
X80645000Y-47117000D03*
D13*
X80645000Y-44577000D03*
X78105000Y-47117000D03*
X78105000Y-44577000D03*
X75565000Y-47117000D03*
X75565000Y-44577000D03*
X73025000Y-47117000D03*
X73025000Y-44577000D03*
X70485000Y-47117000D03*
X70485000Y-44577000D03*
X67945000Y-47117000D03*
X67945000Y-44577000D03*
X65405000Y-47117000D03*
X65405000Y-44577000D03*
X62865000Y-47117000D03*
X62865000Y-44577000D03*
X60325000Y-47117000D03*
X60325000Y-44577000D03*
X57785000Y-47117000D03*
X57785000Y-44577000D03*
X55245000Y-47117000D03*
X55245000Y-44577000D03*
X52705000Y-47117000D03*
X52705000Y-44577000D03*
X50165000Y-47117000D03*
X50165000Y-44577000D03*
D11*
X103580000Y-73230000D03*
X130405000Y-66730000D03*
X44405000Y-73580000D03*
D16*
X122555000Y-46990000D03*
D19*
X63605000Y-95530000D03*
X63605000Y-93805000D03*
X103905000Y-82555000D03*
X103905000Y-80830000D03*
X101705000Y-93692500D03*
X101705000Y-91967500D03*
D20*
X126067500Y-86230000D03*
X124342500Y-86230000D03*
D21*
X104742500Y-66530000D03*
X106467500Y-66530000D03*
D20*
X77405000Y-98030000D03*
X75680000Y-98030000D03*
D22*
X103805000Y-90330000D03*
X103805000Y-92055000D03*
D21*
X102180000Y-54730000D03*
X103905000Y-54730000D03*
X61142500Y-75730000D03*
X62867500Y-75730000D03*
D20*
X116567500Y-49030000D03*
X114842500Y-49030000D03*
D22*
X102805000Y-57667500D03*
X102805000Y-59392500D03*
X67105000Y-61567500D03*
X67105000Y-63292500D03*
D20*
X91067500Y-66330000D03*
X89342500Y-66330000D03*
X103905000Y-69030000D03*
X102180000Y-69030000D03*
D21*
X61367500Y-73130000D03*
X63092500Y-73130000D03*
D19*
X48350000Y-108452500D03*
X48350000Y-106727500D03*
D21*
X64505000Y-83530000D03*
X66230000Y-83530000D03*
D22*
X105405000Y-62167500D03*
X105405000Y-63892500D03*
D19*
X63505000Y-87455000D03*
X63505000Y-85730000D03*
D22*
X64905000Y-97167500D03*
X64905000Y-98892500D03*
X80605000Y-48967500D03*
X80605000Y-50692500D03*
D19*
X56105000Y-54255000D03*
X56105000Y-52530000D03*
X87705000Y-83292500D03*
X87705000Y-81567500D03*
D20*
X86767500Y-86730000D03*
X85042500Y-86730000D03*
D22*
X68605000Y-67430000D03*
X68605000Y-69155000D03*
X83005000Y-44205000D03*
X83005000Y-45930000D03*
D19*
X65705000Y-90030000D03*
X65705000Y-88305000D03*
D21*
X91980000Y-56830000D03*
X93705000Y-56830000D03*
X77680000Y-86230000D03*
X79405000Y-86230000D03*
X69267500Y-57330000D03*
X70992500Y-57330000D03*
D22*
X113905000Y-96105000D03*
X113905000Y-97830000D03*
D19*
X67905000Y-54417500D03*
X67905000Y-52692500D03*
D22*
X102805000Y-61067500D03*
X102805000Y-62792500D03*
X65805000Y-92067500D03*
X65805000Y-93792500D03*
X104205000Y-96305000D03*
X104205000Y-98030000D03*
D20*
X55930000Y-67830000D03*
X54205000Y-67830000D03*
D19*
X101605000Y-85292500D03*
X101605000Y-83567500D03*
X84680000Y-108975000D03*
X84680000Y-107250000D03*
D22*
X118530000Y-44210000D03*
X118530000Y-45935000D03*
D19*
X67105000Y-59855000D03*
X67105000Y-58130000D03*
X115805000Y-65030000D03*
X115805000Y-63305000D03*
D21*
X115780000Y-82830000D03*
X117505000Y-82830000D03*
D19*
X101605000Y-88830000D03*
X101605000Y-87105000D03*
M02*
