M48
INCH,TZ
T1C0.0118
T2C0.0157
T3C0.0394
T4C0.0472
T5C0.0551
T6C0.0591
T7C0.1260
%
G90
G05
T1
X26734Y-21823
X26931Y-22374
X26931Y-24244
T2
X16793Y-22866
X17719Y-26154
X18703Y-22453
X18742Y-26154
X20081Y-39736
X20435Y-36783
X20435Y-38280
X20553Y-28358
X20986Y-27177
X20986Y-33791
X21104Y-26311
X22128Y-27650
X22207Y-23437
X22236Y-26232
X22246Y-39736
X22404Y-20327
X22443Y-21665
X22482Y-37728
X22600Y-27768
X22896Y-22276
X22896Y-22768
X22915Y-38555
X23073Y-31980
X23073Y-37531
X23083Y-39823
X23348Y-26350
X23585Y-29854
X23781Y-33909
X23860Y-38437
X23900Y-26409
X23919Y-31331
X23919Y-32256
X24215Y-29303
X24766Y-29343
X24805Y-26035
X25435Y-34894
X25474Y-35366
X25474Y-36902
X25474Y-37610
X25514Y-26429
X25514Y-34382
X25553Y-33437
X25553Y-35996
X25565Y-39349
X25671Y-28988
X25711Y-30484
X25947Y-38201
X25986Y-33280
X26222Y-26193
X26861Y-34058
X26931Y-23555
X26931Y-24736
X26931Y-26114
X26931Y-29264
X26970Y-33329
X27010Y-27650
X27030Y-20406
X27246Y-34303
X27719Y-34854
X28211Y-22866
X28348Y-29618
X28348Y-34815
X28722Y-24914
X29490Y-20169
X29648Y-27138
X29726Y-28398
X29884Y-38161
X30120Y-20209
X30199Y-26232
X30238Y-22098
X30317Y-38161
X30356Y-33594
X30534Y-25445
X30947Y-27138
X31222Y-26783
X31222Y-32531
X31459Y-33597
X32128Y-22531
X32128Y-24067
X32285Y-26508
X32915Y-31508
X32955Y-35091
X32955Y-35584
X33309Y-33752
X33585Y-29776
X33585Y-30917
X33917Y-19793
X34293Y-33752
X34411Y-19579
X34569Y-33201
X34923Y-26469
X34923Y-29067
X35041Y-39343
X35120Y-19500
X35356Y-37965
X35396Y-36350
X35414Y-28946
X36065Y-30642
X36104Y-26508
X36183Y-21980
X36695Y-38083
X36734Y-27965
X36734Y-30681
X36892Y-21941
X37600Y-36272
X38388Y-37689
X38585Y-26075
X38742Y-33043
X38821Y-37886
X38949Y-25791
X39923Y-28043
X40278Y-21980
X40278Y-26744
X40317Y-31114
X40474Y-33634
X40474Y-34343
X40474Y-34972
X40474Y-35524
X40474Y-36193
X40474Y-36941
X40553Y-32768
X40593Y-31487
X40632Y-38752
X40789Y-37571
X40868Y-21980
X40907Y-26744
X40947Y-23358
X40947Y-24146
X40967Y-22748
X40986Y-24579
X40986Y-25130
X40986Y-25799
X41026Y-31193
X41301Y-27650
X41459Y-31508
X42246Y-27571
X42404Y-25366
X42719Y-27925
X42837Y-33358
X43427Y-25917
X43453Y-33465
X43978Y-22531
X44451Y-27965
X44923Y-32768
X45081Y-25642
X45159Y-24854
X45159Y-37531
X45199Y-38791
X45356Y-33004
X45593Y-32020
X45868Y-23673
X46537Y-33004
X46577Y-22965
X47640Y-22571
X47640Y-24146
X47679Y-31390
X47994Y-33043
X48112Y-33949
X48152Y-27217
X48835Y-19906
X48939Y-33516
X49254Y-31213
X49648Y-33516
X49687Y-25012
X50002Y-34972
X50789Y-25012
X50829Y-34146
T3
X19750Y-17550
X19750Y-18550
X19750Y-41693
X19750Y-42693
X20750Y-17550
X20750Y-18550
X20750Y-41693
X20750Y-42693
X21750Y-17550
X21750Y-18550
X21750Y-41693
X21750Y-42693
X22750Y-17550
X22750Y-18550
X22750Y-41693
X22750Y-42693
X23750Y-17550
X23750Y-18550
X23750Y-41693
X23750Y-42693
X24750Y-17550
X24750Y-18550
X24750Y-41693
X24750Y-42693
X25750Y-17550
X25750Y-18550
X25750Y-41693
X25750Y-42693
X26750Y-17550
X26750Y-18550
X26750Y-41693
X26750Y-42693
X27750Y-17550
X27750Y-18550
X27750Y-41693
X27750Y-42693
X28750Y-17550
X28750Y-18550
X28750Y-41693
X28750Y-42693
X29750Y-17550
X29750Y-18550
X29750Y-41693
X29750Y-42693
X30750Y-17550
X30750Y-18550
X30750Y-41693
X30750Y-42693
X31750Y-17550
X31750Y-18550
X31750Y-41693
X31750Y-42693
X34000Y-17550
X34000Y-18550
X34000Y-41693
X34000Y-42693
X35000Y-17550
X35000Y-18550
X35000Y-41693
X35000Y-42693
X36000Y-17550
X36000Y-18550
X36000Y-41693
X36000Y-42693
X37000Y-17550
X37000Y-18550
X37000Y-41693
X37000Y-42693
X38000Y-17550
X38000Y-18550
X38000Y-41693
X38000Y-42693
X39000Y-17550
X39000Y-18550
X39000Y-41693
X39000Y-42693
X40000Y-17550
X40000Y-18550
X40000Y-41693
X40000Y-42693
X41000Y-17550
X41000Y-18550
X41000Y-41693
X41000Y-42693
X42000Y-17550
X42000Y-18550
X42000Y-41693
X42000Y-42693
X43000Y-17550
X43000Y-18550
X43000Y-41693
X43000Y-42693
X44000Y-17550
X44000Y-18550
X44000Y-41693
X44000Y-42693
X45000Y-17550
X45000Y-18550
X45000Y-41693
X45000Y-42693
X46000Y-17550
X46000Y-18550
X46000Y-41693
X46000Y-42693
T4
X16715Y-24116
X16715Y-27167
X50159Y-21795
X50159Y-22780
X50159Y-23764
X51380Y-21795
X51380Y-22780
X51380Y-23764
T5
X18211Y-24175
X18211Y-27108
T6
X17482Y-28969
X17482Y-32610
X17482Y-36232
X37705Y-28795
X40780Y-28831
X49372Y-26272
X49372Y-29815
X51341Y-26272
X51341Y-29815
T7
X17500Y-18500
X17500Y-42000
X48250Y-18500
X48250Y-42000
T0
M30
