%TF.GenerationSoftware,KiCad,Pcbnew,(6.0.7-1)-1*%
%TF.CreationDate,2022-09-30T10:31:31-05:00*%
%TF.ProjectId,ramn,72616d6e-2e6b-4696-9361-645f70636258,rev?*%
%TF.SameCoordinates,Original*%
%TF.FileFunction,Legend,Top*%
%TF.FilePolarity,Positive*%
%FSLAX46Y46*%
G04 Gerber Fmt 4.6, Leading zero omitted, Abs format (unit mm)*
G04 Created by KiCad (PCBNEW (6.0.7-1)-1) date 2022-09-30 10:31:31*
%MOMM*%
%LPD*%
G01*
G04 APERTURE LIST*
%ADD10C,0.200000*%
%ADD11C,0.150000*%
%ADD12C,0.300000*%
%ADD13C,0.100000*%
%ADD14C,0.120000*%
G04 APERTURE END LIST*
D10*
X119200000Y-96900000D02*
X132800000Y-96900000D01*
X115400000Y-100800000D02*
X119200000Y-96900000D01*
X115400000Y-104394000D02*
X115400000Y-100694000D01*
D11*
X99198571Y-74145535D02*
X99662857Y-74145535D01*
X99412857Y-74431250D01*
X99520000Y-74431250D01*
X99591428Y-74466964D01*
X99627142Y-74502678D01*
X99662857Y-74574107D01*
X99662857Y-74752678D01*
X99627142Y-74824107D01*
X99591428Y-74859821D01*
X99520000Y-74895535D01*
X99305714Y-74895535D01*
X99234285Y-74859821D01*
X99198571Y-74824107D01*
X99877142Y-74145535D02*
X100127142Y-74895535D01*
X100377142Y-74145535D01*
X98323571Y-76067321D02*
X98430714Y-76103035D01*
X98609285Y-76103035D01*
X98680714Y-76067321D01*
X98716428Y-76031607D01*
X98752142Y-75960178D01*
X98752142Y-75888750D01*
X98716428Y-75817321D01*
X98680714Y-75781607D01*
X98609285Y-75745892D01*
X98466428Y-75710178D01*
X98395000Y-75674464D01*
X98359285Y-75638750D01*
X98323571Y-75567321D01*
X98323571Y-75495892D01*
X98359285Y-75424464D01*
X98395000Y-75388750D01*
X98466428Y-75353035D01*
X98645000Y-75353035D01*
X98752142Y-75388750D01*
X99073571Y-76103035D02*
X99073571Y-75353035D01*
X99395000Y-76103035D02*
X99395000Y-75710178D01*
X99359285Y-75638750D01*
X99287857Y-75603035D01*
X99180714Y-75603035D01*
X99109285Y-75638750D01*
X99073571Y-75674464D01*
X100073571Y-75603035D02*
X100073571Y-76103035D01*
X99752142Y-75603035D02*
X99752142Y-75995892D01*
X99787857Y-76067321D01*
X99859285Y-76103035D01*
X99966428Y-76103035D01*
X100037857Y-76067321D01*
X100073571Y-76031607D01*
X100430714Y-75603035D02*
X100430714Y-76103035D01*
X100430714Y-75674464D02*
X100466428Y-75638750D01*
X100537857Y-75603035D01*
X100645000Y-75603035D01*
X100716428Y-75638750D01*
X100752142Y-75710178D01*
X100752142Y-76103035D01*
X101002142Y-75603035D02*
X101287857Y-75603035D01*
X101109285Y-75353035D02*
X101109285Y-75995892D01*
X101145000Y-76067321D01*
X101216428Y-76103035D01*
X101287857Y-76103035D01*
D12*
X119850000Y-99671071D02*
X119350000Y-98956785D01*
X118992857Y-99671071D02*
X118992857Y-98171071D01*
X119564285Y-98171071D01*
X119707142Y-98242500D01*
X119778571Y-98313928D01*
X119850000Y-98456785D01*
X119850000Y-98671071D01*
X119778571Y-98813928D01*
X119707142Y-98885357D01*
X119564285Y-98956785D01*
X118992857Y-98956785D01*
X120421428Y-99242500D02*
X121135714Y-99242500D01*
X120278571Y-99671071D02*
X120778571Y-98171071D01*
X121278571Y-99671071D01*
X121778571Y-99671071D02*
X121778571Y-98171071D01*
X122278571Y-99242500D01*
X122778571Y-98171071D01*
X122778571Y-99671071D01*
X123492857Y-99671071D02*
X123492857Y-98171071D01*
X124350000Y-99671071D01*
X124350000Y-98171071D01*
X125992857Y-98171071D02*
X126492857Y-99671071D01*
X126992857Y-98171071D01*
X128278571Y-99671071D02*
X127421428Y-99671071D01*
X127850000Y-99671071D02*
X127850000Y-98171071D01*
X127707142Y-98385357D01*
X127564285Y-98528214D01*
X127421428Y-98599642D01*
X116850000Y-102086071D02*
X116850000Y-101086071D01*
X116850000Y-101371785D02*
X116921428Y-101228928D01*
X116992857Y-101157500D01*
X117135714Y-101086071D01*
X117278571Y-101086071D01*
X118350000Y-102014642D02*
X118207142Y-102086071D01*
X117921428Y-102086071D01*
X117778571Y-102014642D01*
X117707142Y-101871785D01*
X117707142Y-101300357D01*
X117778571Y-101157500D01*
X117921428Y-101086071D01*
X118207142Y-101086071D01*
X118350000Y-101157500D01*
X118421428Y-101300357D01*
X118421428Y-101443214D01*
X117707142Y-101586071D01*
X118921428Y-101086071D02*
X119278571Y-102086071D01*
X119635714Y-101086071D01*
X122135714Y-102086071D02*
X121278571Y-102086071D01*
X121707142Y-102086071D02*
X121707142Y-100586071D01*
X121564285Y-100800357D01*
X121421428Y-100943214D01*
X121278571Y-101014642D01*
X123064285Y-100586071D02*
X123207142Y-100586071D01*
X123350000Y-100657500D01*
X123421428Y-100728928D01*
X123492857Y-100871785D01*
X123564285Y-101157500D01*
X123564285Y-101514642D01*
X123492857Y-101800357D01*
X123421428Y-101943214D01*
X123350000Y-102014642D01*
X123207142Y-102086071D01*
X123064285Y-102086071D01*
X122921428Y-102014642D01*
X122850000Y-101943214D01*
X122778571Y-101800357D01*
X122707142Y-101514642D01*
X122707142Y-101157500D01*
X122778571Y-100871785D01*
X122850000Y-100728928D01*
X122921428Y-100657500D01*
X123064285Y-100586071D01*
X124492857Y-100586071D02*
X124635714Y-100586071D01*
X124778571Y-100657500D01*
X124850000Y-100728928D01*
X124921428Y-100871785D01*
X124992857Y-101157500D01*
X124992857Y-101514642D01*
X124921428Y-101800357D01*
X124850000Y-101943214D01*
X124778571Y-102014642D01*
X124635714Y-102086071D01*
X124492857Y-102086071D01*
X124350000Y-102014642D01*
X124278571Y-101943214D01*
X124207142Y-101800357D01*
X124135714Y-101514642D01*
X124135714Y-101157500D01*
X124207142Y-100871785D01*
X124278571Y-100728928D01*
X124350000Y-100657500D01*
X124492857Y-100586071D01*
X125635714Y-101514642D02*
X126778571Y-101514642D01*
X127492857Y-102086071D02*
X127492857Y-100586071D01*
X128064285Y-100586071D01*
X128207142Y-100657500D01*
X128278571Y-100728928D01*
X128350000Y-100871785D01*
X128350000Y-101086071D01*
X128278571Y-101228928D01*
X128207142Y-101300357D01*
X128064285Y-101371785D01*
X127492857Y-101371785D01*
X128992857Y-102086071D02*
X128992857Y-101086071D01*
X128992857Y-100586071D02*
X128921428Y-100657500D01*
X128992857Y-100728928D01*
X129064285Y-100657500D01*
X128992857Y-100586071D01*
X128992857Y-100728928D01*
X129707142Y-101086071D02*
X129707142Y-102086071D01*
X129707142Y-101228928D02*
X129778571Y-101157500D01*
X129921428Y-101086071D01*
X130135714Y-101086071D01*
X130278571Y-101157500D01*
X130350000Y-101300357D01*
X130350000Y-102086071D01*
D11*
X46799047Y-73331428D02*
X47560952Y-73331428D01*
X47180000Y-73712380D02*
X47180000Y-72950476D01*
X104950952Y-74998571D02*
X104189047Y-74998571D01*
X113752380Y-77357142D02*
X113704761Y-77404761D01*
X113561904Y-77452380D01*
X113466666Y-77452380D01*
X113323809Y-77404761D01*
X113228571Y-77309523D01*
X113180952Y-77214285D01*
X113133333Y-77023809D01*
X113133333Y-76880952D01*
X113180952Y-76690476D01*
X113228571Y-76595238D01*
X113323809Y-76500000D01*
X113466666Y-76452380D01*
X113561904Y-76452380D01*
X113704761Y-76500000D01*
X113752380Y-76547619D01*
X114133333Y-77166666D02*
X114609523Y-77166666D01*
X114038095Y-77452380D02*
X114371428Y-76452380D01*
X114704761Y-77452380D01*
X115038095Y-77452380D02*
X115038095Y-76452380D01*
X115609523Y-77452380D01*
X115609523Y-76452380D01*
X116561904Y-77452380D02*
X116085714Y-77452380D01*
X116085714Y-76452380D01*
X47480000Y-91308095D02*
X47527619Y-91212857D01*
X47527619Y-91070000D01*
X47480000Y-90927142D01*
X47384761Y-90831904D01*
X47289523Y-90784285D01*
X47099047Y-90736666D01*
X46956190Y-90736666D01*
X46765714Y-90784285D01*
X46670476Y-90831904D01*
X46575238Y-90927142D01*
X46527619Y-91070000D01*
X46527619Y-91165238D01*
X46575238Y-91308095D01*
X46622857Y-91355714D01*
X46956190Y-91355714D01*
X46956190Y-91165238D01*
X46527619Y-91784285D02*
X47527619Y-91784285D01*
X46527619Y-92355714D01*
X47527619Y-92355714D01*
X46527619Y-92831904D02*
X47527619Y-92831904D01*
X47527619Y-93070000D01*
X47480000Y-93212857D01*
X47384761Y-93308095D01*
X47289523Y-93355714D01*
X47099047Y-93403333D01*
X46956190Y-93403333D01*
X46765714Y-93355714D01*
X46670476Y-93308095D01*
X46575238Y-93212857D01*
X46527619Y-93070000D01*
X46527619Y-92831904D01*
X48969285Y-64479285D02*
X48969285Y-65086428D01*
X49005000Y-65157857D01*
X49040714Y-65193571D01*
X49112142Y-65229285D01*
X49255000Y-65229285D01*
X49326428Y-65193571D01*
X49362142Y-65157857D01*
X49397857Y-65086428D01*
X49397857Y-64479285D01*
X49719285Y-65193571D02*
X49826428Y-65229285D01*
X50005000Y-65229285D01*
X50076428Y-65193571D01*
X50112142Y-65157857D01*
X50147857Y-65086428D01*
X50147857Y-65015000D01*
X50112142Y-64943571D01*
X50076428Y-64907857D01*
X50005000Y-64872142D01*
X49862142Y-64836428D01*
X49790714Y-64800714D01*
X49755000Y-64765000D01*
X49719285Y-64693571D01*
X49719285Y-64622142D01*
X49755000Y-64550714D01*
X49790714Y-64515000D01*
X49862142Y-64479285D01*
X50040714Y-64479285D01*
X50147857Y-64515000D01*
X50719285Y-64836428D02*
X50826428Y-64872142D01*
X50862142Y-64907857D01*
X50897857Y-64979285D01*
X50897857Y-65086428D01*
X50862142Y-65157857D01*
X50826428Y-65193571D01*
X50755000Y-65229285D01*
X50469285Y-65229285D01*
X50469285Y-64479285D01*
X50719285Y-64479285D01*
X50790714Y-64515000D01*
X50826428Y-64550714D01*
X50862142Y-64622142D01*
X50862142Y-64693571D01*
X50826428Y-64765000D01*
X50790714Y-64800714D01*
X50719285Y-64836428D01*
X50469285Y-64836428D01*
X52040714Y-64836428D02*
X51790714Y-64836428D01*
X51790714Y-65229285D02*
X51790714Y-64479285D01*
X52147857Y-64479285D01*
X52397857Y-65193571D02*
X52505000Y-65229285D01*
X52683571Y-65229285D01*
X52755000Y-65193571D01*
X52790714Y-65157857D01*
X52826428Y-65086428D01*
X52826428Y-65015000D01*
X52790714Y-64943571D01*
X52755000Y-64907857D01*
X52683571Y-64872142D01*
X52540714Y-64836428D01*
X52469285Y-64800714D01*
X52433571Y-64765000D01*
X52397857Y-64693571D01*
X52397857Y-64622142D01*
X52433571Y-64550714D01*
X52469285Y-64515000D01*
X52540714Y-64479285D01*
X52719285Y-64479285D01*
X52826428Y-64515000D01*
D12*
X60092857Y-50914285D02*
X60492857Y-50914285D01*
X60664285Y-51542857D02*
X60092857Y-51542857D01*
X60092857Y-50342857D01*
X60664285Y-50342857D01*
X61864285Y-51428571D02*
X61807142Y-51485714D01*
X61635714Y-51542857D01*
X61521428Y-51542857D01*
X61350000Y-51485714D01*
X61235714Y-51371428D01*
X61178571Y-51257142D01*
X61121428Y-51028571D01*
X61121428Y-50857142D01*
X61178571Y-50628571D01*
X61235714Y-50514285D01*
X61350000Y-50400000D01*
X61521428Y-50342857D01*
X61635714Y-50342857D01*
X61807142Y-50400000D01*
X61864285Y-50457142D01*
X62378571Y-50342857D02*
X62378571Y-51314285D01*
X62435714Y-51428571D01*
X62492857Y-51485714D01*
X62607142Y-51542857D01*
X62835714Y-51542857D01*
X62950000Y-51485714D01*
X63007142Y-51428571D01*
X63064285Y-51314285D01*
X63064285Y-50342857D01*
X64492857Y-51200000D02*
X65064285Y-51200000D01*
X64378571Y-51542857D02*
X64778571Y-50342857D01*
X65178571Y-51542857D01*
X107107142Y-100964285D02*
X107507142Y-100964285D01*
X107678571Y-101592857D02*
X107107142Y-101592857D01*
X107107142Y-100392857D01*
X107678571Y-100392857D01*
X108878571Y-101478571D02*
X108821428Y-101535714D01*
X108650000Y-101592857D01*
X108535714Y-101592857D01*
X108364285Y-101535714D01*
X108250000Y-101421428D01*
X108192857Y-101307142D01*
X108135714Y-101078571D01*
X108135714Y-100907142D01*
X108192857Y-100678571D01*
X108250000Y-100564285D01*
X108364285Y-100450000D01*
X108535714Y-100392857D01*
X108650000Y-100392857D01*
X108821428Y-100450000D01*
X108878571Y-100507142D01*
X109392857Y-100392857D02*
X109392857Y-101364285D01*
X109450000Y-101478571D01*
X109507142Y-101535714D01*
X109621428Y-101592857D01*
X109850000Y-101592857D01*
X109964285Y-101535714D01*
X110021428Y-101478571D01*
X110078571Y-101364285D01*
X110078571Y-100392857D01*
X112250000Y-101478571D02*
X112192857Y-101535714D01*
X112021428Y-101592857D01*
X111907142Y-101592857D01*
X111735714Y-101535714D01*
X111621428Y-101421428D01*
X111564285Y-101307142D01*
X111507142Y-101078571D01*
X111507142Y-100907142D01*
X111564285Y-100678571D01*
X111621428Y-100564285D01*
X111735714Y-100450000D01*
X111907142Y-100392857D01*
X112021428Y-100392857D01*
X112192857Y-100450000D01*
X112250000Y-100507142D01*
D11*
X107853333Y-75637142D02*
X107805714Y-75684761D01*
X107662857Y-75732380D01*
X107567619Y-75732380D01*
X107424761Y-75684761D01*
X107329523Y-75589523D01*
X107281904Y-75494285D01*
X107234285Y-75303809D01*
X107234285Y-75160952D01*
X107281904Y-74970476D01*
X107329523Y-74875238D01*
X107424761Y-74780000D01*
X107567619Y-74732380D01*
X107662857Y-74732380D01*
X107805714Y-74780000D01*
X107853333Y-74827619D01*
X108234285Y-75446666D02*
X108710476Y-75446666D01*
X108139047Y-75732380D02*
X108472380Y-74732380D01*
X108805714Y-75732380D01*
X109139047Y-75732380D02*
X109139047Y-74732380D01*
X109710476Y-75732380D01*
X109710476Y-74732380D01*
X110186666Y-75732380D02*
X110186666Y-74732380D01*
X110186666Y-75208571D02*
X110758095Y-75208571D01*
X110758095Y-75732380D02*
X110758095Y-74732380D01*
X94341428Y-75220952D02*
X94341428Y-74459047D01*
X94722380Y-74840000D02*
X93960476Y-74840000D01*
X123814285Y-57967857D02*
X123778571Y-58003571D01*
X123671428Y-58039285D01*
X123600000Y-58039285D01*
X123492857Y-58003571D01*
X123421428Y-57932142D01*
X123385714Y-57860714D01*
X123350000Y-57717857D01*
X123350000Y-57610714D01*
X123385714Y-57467857D01*
X123421428Y-57396428D01*
X123492857Y-57325000D01*
X123600000Y-57289285D01*
X123671428Y-57289285D01*
X123778571Y-57325000D01*
X123814285Y-57360714D01*
X124100000Y-57825000D02*
X124457142Y-57825000D01*
X124028571Y-58039285D02*
X124278571Y-57289285D01*
X124528571Y-58039285D01*
X124778571Y-58039285D02*
X124778571Y-57289285D01*
X125207142Y-58039285D01*
X125207142Y-57289285D01*
X125921428Y-58039285D02*
X125564285Y-58039285D01*
X125564285Y-57289285D01*
X123625000Y-60467857D02*
X123589285Y-60503571D01*
X123482142Y-60539285D01*
X123410714Y-60539285D01*
X123303571Y-60503571D01*
X123232142Y-60432142D01*
X123196428Y-60360714D01*
X123160714Y-60217857D01*
X123160714Y-60110714D01*
X123196428Y-59967857D01*
X123232142Y-59896428D01*
X123303571Y-59825000D01*
X123410714Y-59789285D01*
X123482142Y-59789285D01*
X123589285Y-59825000D01*
X123625000Y-59860714D01*
X123910714Y-60325000D02*
X124267857Y-60325000D01*
X123839285Y-60539285D02*
X124089285Y-59789285D01*
X124339285Y-60539285D01*
X124589285Y-60539285D02*
X124589285Y-59789285D01*
X125017857Y-60539285D01*
X125017857Y-59789285D01*
X125375000Y-60539285D02*
X125375000Y-59789285D01*
X125375000Y-60146428D02*
X125803571Y-60146428D01*
X125803571Y-60539285D02*
X125803571Y-59789285D01*
D12*
X95517142Y-51254285D02*
X95917142Y-51254285D01*
X96088571Y-51882857D02*
X95517142Y-51882857D01*
X95517142Y-50682857D01*
X96088571Y-50682857D01*
X97288571Y-51768571D02*
X97231428Y-51825714D01*
X97060000Y-51882857D01*
X96945714Y-51882857D01*
X96774285Y-51825714D01*
X96660000Y-51711428D01*
X96602857Y-51597142D01*
X96545714Y-51368571D01*
X96545714Y-51197142D01*
X96602857Y-50968571D01*
X96660000Y-50854285D01*
X96774285Y-50740000D01*
X96945714Y-50682857D01*
X97060000Y-50682857D01*
X97231428Y-50740000D01*
X97288571Y-50797142D01*
X97802857Y-50682857D02*
X97802857Y-51654285D01*
X97860000Y-51768571D01*
X97917142Y-51825714D01*
X98031428Y-51882857D01*
X98260000Y-51882857D01*
X98374285Y-51825714D01*
X98431428Y-51768571D01*
X98488571Y-51654285D01*
X98488571Y-50682857D01*
X99974285Y-51882857D02*
X99974285Y-50682857D01*
X100260000Y-50682857D01*
X100431428Y-50740000D01*
X100545714Y-50854285D01*
X100602857Y-50968571D01*
X100660000Y-51197142D01*
X100660000Y-51368571D01*
X100602857Y-51597142D01*
X100545714Y-51711428D01*
X100431428Y-51825714D01*
X100260000Y-51882857D01*
X99974285Y-51882857D01*
X66814285Y-80135714D02*
X66742857Y-80207142D01*
X66528571Y-80278571D01*
X66385714Y-80278571D01*
X66171428Y-80207142D01*
X66028571Y-80064285D01*
X65957142Y-79921428D01*
X65885714Y-79635714D01*
X65885714Y-79421428D01*
X65957142Y-79135714D01*
X66028571Y-78992857D01*
X66171428Y-78850000D01*
X66385714Y-78778571D01*
X66528571Y-78778571D01*
X66742857Y-78850000D01*
X66814285Y-78921428D01*
X67385714Y-79850000D02*
X68100000Y-79850000D01*
X67242857Y-80278571D02*
X67742857Y-78778571D01*
X68242857Y-80278571D01*
X68742857Y-80278571D02*
X68742857Y-78778571D01*
X69600000Y-80278571D01*
X69600000Y-78778571D01*
X71957142Y-79492857D02*
X72171428Y-79564285D01*
X72242857Y-79635714D01*
X72314285Y-79778571D01*
X72314285Y-79992857D01*
X72242857Y-80135714D01*
X72171428Y-80207142D01*
X72028571Y-80278571D01*
X71457142Y-80278571D01*
X71457142Y-78778571D01*
X71957142Y-78778571D01*
X72100000Y-78850000D01*
X72171428Y-78921428D01*
X72242857Y-79064285D01*
X72242857Y-79207142D01*
X72171428Y-79350000D01*
X72100000Y-79421428D01*
X71957142Y-79492857D01*
X71457142Y-79492857D01*
X72957142Y-78778571D02*
X72957142Y-79992857D01*
X73028571Y-80135714D01*
X73100000Y-80207142D01*
X73242857Y-80278571D01*
X73528571Y-80278571D01*
X73671428Y-80207142D01*
X73742857Y-80135714D01*
X73814285Y-79992857D01*
X73814285Y-78778571D01*
X74457142Y-80207142D02*
X74671428Y-80278571D01*
X75028571Y-80278571D01*
X75171428Y-80207142D01*
X75242857Y-80135714D01*
X75314285Y-79992857D01*
X75314285Y-79850000D01*
X75242857Y-79707142D01*
X75171428Y-79635714D01*
X75028571Y-79564285D01*
X74742857Y-79492857D01*
X74600000Y-79421428D01*
X74528571Y-79350000D01*
X74457142Y-79207142D01*
X74457142Y-79064285D01*
X74528571Y-78921428D01*
X74600000Y-78850000D01*
X74742857Y-78778571D01*
X75100000Y-78778571D01*
X75314285Y-78850000D01*
D11*
X47111428Y-83540952D02*
X47111428Y-82779047D01*
X124228571Y-55025000D02*
X124157142Y-54989285D01*
X124050000Y-54989285D01*
X123942857Y-55025000D01*
X123871428Y-55096428D01*
X123835714Y-55167857D01*
X123800000Y-55310714D01*
X123800000Y-55417857D01*
X123835714Y-55560714D01*
X123871428Y-55632142D01*
X123942857Y-55703571D01*
X124050000Y-55739285D01*
X124121428Y-55739285D01*
X124228571Y-55703571D01*
X124264285Y-55667857D01*
X124264285Y-55417857D01*
X124121428Y-55417857D01*
X124585714Y-55739285D02*
X124585714Y-54989285D01*
X125014285Y-55739285D01*
X125014285Y-54989285D01*
X125371428Y-55739285D02*
X125371428Y-54989285D01*
X125550000Y-54989285D01*
X125657142Y-55025000D01*
X125728571Y-55096428D01*
X125764285Y-55167857D01*
X125800000Y-55310714D01*
X125800000Y-55417857D01*
X125764285Y-55560714D01*
X125728571Y-55632142D01*
X125657142Y-55703571D01*
X125550000Y-55739285D01*
X125371428Y-55739285D01*
X51039828Y-80786935D02*
X50611257Y-80786935D01*
X50825542Y-80786935D02*
X50825542Y-80036935D01*
X50754114Y-80144078D01*
X50682685Y-80215507D01*
X50611257Y-80251221D01*
X51325542Y-80108364D02*
X51361257Y-80072650D01*
X51432685Y-80036935D01*
X51611257Y-80036935D01*
X51682685Y-80072650D01*
X51718400Y-80108364D01*
X51754114Y-80179792D01*
X51754114Y-80251221D01*
X51718400Y-80358364D01*
X51289828Y-80786935D01*
X51754114Y-80786935D01*
X52218400Y-80036935D02*
X52289828Y-80036935D01*
X52361257Y-80072650D01*
X52396971Y-80108364D01*
X52432685Y-80179792D01*
X52468400Y-80322650D01*
X52468400Y-80501221D01*
X52432685Y-80644078D01*
X52396971Y-80715507D01*
X52361257Y-80751221D01*
X52289828Y-80786935D01*
X52218400Y-80786935D01*
X52146971Y-80751221D01*
X52111257Y-80715507D01*
X52075542Y-80644078D01*
X52039828Y-80501221D01*
X52039828Y-80322650D01*
X52075542Y-80179792D01*
X52111257Y-80108364D01*
X52146971Y-80072650D01*
X52218400Y-80036935D01*
X52754114Y-80786935D02*
X52932685Y-80786935D01*
X52932685Y-80644078D01*
X52861257Y-80608364D01*
X52789828Y-80536935D01*
X52754114Y-80429792D01*
X52754114Y-80251221D01*
X52789828Y-80144078D01*
X52861257Y-80072650D01*
X52968400Y-80036935D01*
X53111257Y-80036935D01*
X53218400Y-80072650D01*
X53289828Y-80144078D01*
X53325542Y-80251221D01*
X53325542Y-80429792D01*
X53289828Y-80536935D01*
X53218400Y-80608364D01*
X53146971Y-80644078D01*
X53146971Y-80786935D01*
X53325542Y-80786935D01*
X50700542Y-81244435D02*
X51129114Y-81244435D01*
X50914828Y-81994435D02*
X50914828Y-81244435D01*
X51664828Y-81958721D02*
X51593400Y-81994435D01*
X51450542Y-81994435D01*
X51379114Y-81958721D01*
X51343400Y-81887292D01*
X51343400Y-81601578D01*
X51379114Y-81530150D01*
X51450542Y-81494435D01*
X51593400Y-81494435D01*
X51664828Y-81530150D01*
X51700542Y-81601578D01*
X51700542Y-81673007D01*
X51343400Y-81744435D01*
X52021971Y-81994435D02*
X52021971Y-81494435D01*
X52021971Y-81637292D02*
X52057685Y-81565864D01*
X52093400Y-81530150D01*
X52164828Y-81494435D01*
X52236257Y-81494435D01*
X52486257Y-81994435D02*
X52486257Y-81494435D01*
X52486257Y-81565864D02*
X52521971Y-81530150D01*
X52593400Y-81494435D01*
X52700542Y-81494435D01*
X52771971Y-81530150D01*
X52807685Y-81601578D01*
X52807685Y-81994435D01*
X52807685Y-81601578D02*
X52843400Y-81530150D01*
X52914828Y-81494435D01*
X53021971Y-81494435D01*
X53093400Y-81530150D01*
X53129114Y-81601578D01*
X53129114Y-81994435D01*
X47260714Y-76252142D02*
X47260714Y-75895000D01*
X46903571Y-75859285D01*
X46939285Y-75895000D01*
X46975000Y-75966428D01*
X46975000Y-76145000D01*
X46939285Y-76216428D01*
X46903571Y-76252142D01*
X46832142Y-76287857D01*
X46653571Y-76287857D01*
X46582142Y-76252142D01*
X46546428Y-76216428D01*
X46510714Y-76145000D01*
X46510714Y-75966428D01*
X46546428Y-75895000D01*
X46582142Y-75859285D01*
X47260714Y-76502142D02*
X46510714Y-76752142D01*
X47260714Y-77002142D01*
X46546428Y-77787857D02*
X46510714Y-77895000D01*
X46510714Y-78073571D01*
X46546428Y-78145000D01*
X46582142Y-78180714D01*
X46653571Y-78216428D01*
X46725000Y-78216428D01*
X46796428Y-78180714D01*
X46832142Y-78145000D01*
X46867857Y-78073571D01*
X46903571Y-77930714D01*
X46939285Y-77859285D01*
X46975000Y-77823571D01*
X47046428Y-77787857D01*
X47117857Y-77787857D01*
X47189285Y-77823571D01*
X47225000Y-77859285D01*
X47260714Y-77930714D01*
X47260714Y-78109285D01*
X47225000Y-78216428D01*
X46510714Y-78537857D02*
X47260714Y-78537857D01*
X46510714Y-78859285D02*
X46903571Y-78859285D01*
X46975000Y-78823571D01*
X47010714Y-78752142D01*
X47010714Y-78645000D01*
X46975000Y-78573571D01*
X46939285Y-78537857D01*
X47010714Y-79537857D02*
X46510714Y-79537857D01*
X47010714Y-79216428D02*
X46617857Y-79216428D01*
X46546428Y-79252142D01*
X46510714Y-79323571D01*
X46510714Y-79430714D01*
X46546428Y-79502142D01*
X46582142Y-79537857D01*
X47010714Y-79895000D02*
X46510714Y-79895000D01*
X46939285Y-79895000D02*
X46975000Y-79930714D01*
X47010714Y-80002142D01*
X47010714Y-80109285D01*
X46975000Y-80180714D01*
X46903571Y-80216428D01*
X46510714Y-80216428D01*
X47010714Y-80466428D02*
X47010714Y-80752142D01*
X47260714Y-80573571D02*
X46617857Y-80573571D01*
X46546428Y-80609285D01*
X46510714Y-80680714D01*
X46510714Y-80752142D01*
D12*
X68297142Y-101904285D02*
X68697142Y-101904285D01*
X68868571Y-102532857D02*
X68297142Y-102532857D01*
X68297142Y-101332857D01*
X68868571Y-101332857D01*
X70068571Y-102418571D02*
X70011428Y-102475714D01*
X69840000Y-102532857D01*
X69725714Y-102532857D01*
X69554285Y-102475714D01*
X69440000Y-102361428D01*
X69382857Y-102247142D01*
X69325714Y-102018571D01*
X69325714Y-101847142D01*
X69382857Y-101618571D01*
X69440000Y-101504285D01*
X69554285Y-101390000D01*
X69725714Y-101332857D01*
X69840000Y-101332857D01*
X70011428Y-101390000D01*
X70068571Y-101447142D01*
X70582857Y-101332857D02*
X70582857Y-102304285D01*
X70640000Y-102418571D01*
X70697142Y-102475714D01*
X70811428Y-102532857D01*
X71040000Y-102532857D01*
X71154285Y-102475714D01*
X71211428Y-102418571D01*
X71268571Y-102304285D01*
X71268571Y-101332857D01*
X73154285Y-101904285D02*
X73325714Y-101961428D01*
X73382857Y-102018571D01*
X73440000Y-102132857D01*
X73440000Y-102304285D01*
X73382857Y-102418571D01*
X73325714Y-102475714D01*
X73211428Y-102532857D01*
X72754285Y-102532857D01*
X72754285Y-101332857D01*
X73154285Y-101332857D01*
X73268571Y-101390000D01*
X73325714Y-101447142D01*
X73382857Y-101561428D01*
X73382857Y-101675714D01*
X73325714Y-101790000D01*
X73268571Y-101847142D01*
X73154285Y-101904285D01*
X72754285Y-101904285D01*
D11*
X125567857Y-50539285D02*
X125139285Y-50539285D01*
X125353571Y-50539285D02*
X125353571Y-49789285D01*
X125282142Y-49896428D01*
X125210714Y-49967857D01*
X125139285Y-50003571D01*
X125853571Y-49860714D02*
X125889285Y-49825000D01*
X125960714Y-49789285D01*
X126139285Y-49789285D01*
X126210714Y-49825000D01*
X126246428Y-49860714D01*
X126282142Y-49932142D01*
X126282142Y-50003571D01*
X126246428Y-50110714D01*
X125817857Y-50539285D01*
X126282142Y-50539285D01*
X126746428Y-49789285D02*
X126817857Y-49789285D01*
X126889285Y-49825000D01*
X126925000Y-49860714D01*
X126960714Y-49932142D01*
X126996428Y-50075000D01*
X126996428Y-50253571D01*
X126960714Y-50396428D01*
X126925000Y-50467857D01*
X126889285Y-50503571D01*
X126817857Y-50539285D01*
X126746428Y-50539285D01*
X126675000Y-50503571D01*
X126639285Y-50467857D01*
X126603571Y-50396428D01*
X126567857Y-50253571D01*
X126567857Y-50075000D01*
X126603571Y-49932142D01*
X126639285Y-49860714D01*
X126675000Y-49825000D01*
X126746428Y-49789285D01*
X127282142Y-50539285D02*
X127460714Y-50539285D01*
X127460714Y-50396428D01*
X127389285Y-50360714D01*
X127317857Y-50289285D01*
X127282142Y-50182142D01*
X127282142Y-50003571D01*
X127317857Y-49896428D01*
X127389285Y-49825000D01*
X127496428Y-49789285D01*
X127639285Y-49789285D01*
X127746428Y-49825000D01*
X127817857Y-49896428D01*
X127853571Y-50003571D01*
X127853571Y-50182142D01*
X127817857Y-50289285D01*
X127746428Y-50360714D01*
X127675000Y-50396428D01*
X127675000Y-50539285D01*
X127853571Y-50539285D01*
X128639285Y-49789285D02*
X129067857Y-49789285D01*
X128853571Y-50539285D02*
X128853571Y-49789285D01*
X129603571Y-50503571D02*
X129532142Y-50539285D01*
X129389285Y-50539285D01*
X129317857Y-50503571D01*
X129282142Y-50432142D01*
X129282142Y-50146428D01*
X129317857Y-50075000D01*
X129389285Y-50039285D01*
X129532142Y-50039285D01*
X129603571Y-50075000D01*
X129639285Y-50146428D01*
X129639285Y-50217857D01*
X129282142Y-50289285D01*
X129960714Y-50539285D02*
X129960714Y-50039285D01*
X129960714Y-50182142D02*
X129996428Y-50110714D01*
X130032142Y-50075000D01*
X130103571Y-50039285D01*
X130175000Y-50039285D01*
X130425000Y-50539285D02*
X130425000Y-50039285D01*
X130425000Y-50110714D02*
X130460714Y-50075000D01*
X130532142Y-50039285D01*
X130639285Y-50039285D01*
X130710714Y-50075000D01*
X130746428Y-50146428D01*
X130746428Y-50539285D01*
X130746428Y-50146428D02*
X130782142Y-50075000D01*
X130853571Y-50039285D01*
X130960714Y-50039285D01*
X131032142Y-50075000D01*
X131067857Y-50146428D01*
X131067857Y-50539285D01*
X131425000Y-50467857D02*
X131460714Y-50503571D01*
X131425000Y-50539285D01*
X131389285Y-50503571D01*
X131425000Y-50467857D01*
X131425000Y-50539285D01*
D13*
X112380952Y-65226190D02*
X112666666Y-65226190D01*
X112523809Y-65726190D02*
X112523809Y-65226190D01*
X112785714Y-65226190D02*
X113119047Y-65726190D01*
X113119047Y-65226190D02*
X112785714Y-65726190D01*
X113571428Y-65726190D02*
X113285714Y-65726190D01*
X113428571Y-65726190D02*
X113428571Y-65226190D01*
X113380952Y-65297619D01*
X113333333Y-65345238D01*
X113285714Y-65369047D01*
X49119047Y-95326190D02*
X49119047Y-95730952D01*
X49142857Y-95778571D01*
X49166666Y-95802380D01*
X49214285Y-95826190D01*
X49309523Y-95826190D01*
X49357142Y-95802380D01*
X49380952Y-95778571D01*
X49404761Y-95730952D01*
X49404761Y-95326190D01*
X49857142Y-95326190D02*
X49761904Y-95326190D01*
X49714285Y-95350000D01*
X49690476Y-95373809D01*
X49642857Y-95445238D01*
X49619047Y-95540476D01*
X49619047Y-95730952D01*
X49642857Y-95778571D01*
X49666666Y-95802380D01*
X49714285Y-95826190D01*
X49809523Y-95826190D01*
X49857142Y-95802380D01*
X49880952Y-95778571D01*
X49904761Y-95730952D01*
X49904761Y-95611904D01*
X49880952Y-95564285D01*
X49857142Y-95540476D01*
X49809523Y-95516666D01*
X49714285Y-95516666D01*
X49666666Y-95540476D01*
X49642857Y-95564285D01*
X49619047Y-95611904D01*
X95478571Y-97843690D02*
X95311904Y-97605595D01*
X95192857Y-97843690D02*
X95192857Y-97343690D01*
X95383333Y-97343690D01*
X95430952Y-97367500D01*
X95454761Y-97391309D01*
X95478571Y-97438928D01*
X95478571Y-97510357D01*
X95454761Y-97557976D01*
X95430952Y-97581785D01*
X95383333Y-97605595D01*
X95192857Y-97605595D01*
X95669047Y-97391309D02*
X95692857Y-97367500D01*
X95740476Y-97343690D01*
X95859523Y-97343690D01*
X95907142Y-97367500D01*
X95930952Y-97391309D01*
X95954761Y-97438928D01*
X95954761Y-97486547D01*
X95930952Y-97557976D01*
X95645238Y-97843690D01*
X95954761Y-97843690D01*
X96121428Y-97343690D02*
X96430952Y-97343690D01*
X96264285Y-97534166D01*
X96335714Y-97534166D01*
X96383333Y-97557976D01*
X96407142Y-97581785D01*
X96430952Y-97629404D01*
X96430952Y-97748452D01*
X96407142Y-97796071D01*
X96383333Y-97819880D01*
X96335714Y-97843690D01*
X96192857Y-97843690D01*
X96145238Y-97819880D01*
X96121428Y-97796071D01*
X113078571Y-67226190D02*
X112911904Y-66988095D01*
X112792857Y-67226190D02*
X112792857Y-66726190D01*
X112983333Y-66726190D01*
X113030952Y-66750000D01*
X113054761Y-66773809D01*
X113078571Y-66821428D01*
X113078571Y-66892857D01*
X113054761Y-66940476D01*
X113030952Y-66964285D01*
X112983333Y-66988095D01*
X112792857Y-66988095D01*
X113245238Y-66726190D02*
X113578571Y-67226190D01*
X113578571Y-66726190D02*
X113245238Y-67226190D01*
X114030952Y-67226190D02*
X113745238Y-67226190D01*
X113888095Y-67226190D02*
X113888095Y-66726190D01*
X113840476Y-66797619D01*
X113792857Y-66845238D01*
X113745238Y-66869047D01*
D11*
X91343095Y-72612380D02*
X91914523Y-72612380D01*
X91628809Y-73612380D02*
X91628809Y-72612380D01*
X92247857Y-73612380D02*
X92247857Y-72612380D01*
X92628809Y-72612380D01*
X92724047Y-72660000D01*
X92771666Y-72707619D01*
X92819285Y-72802857D01*
X92819285Y-72945714D01*
X92771666Y-73040952D01*
X92724047Y-73088571D01*
X92628809Y-73136190D01*
X92247857Y-73136190D01*
X93295476Y-73612380D02*
X93485952Y-73612380D01*
X93581190Y-73564761D01*
X93628809Y-73517142D01*
X93724047Y-73374285D01*
X93771666Y-73183809D01*
X93771666Y-72802857D01*
X93724047Y-72707619D01*
X93676428Y-72660000D01*
X93581190Y-72612380D01*
X93390714Y-72612380D01*
X93295476Y-72660000D01*
X93247857Y-72707619D01*
X93200238Y-72802857D01*
X93200238Y-73040952D01*
X93247857Y-73136190D01*
X93295476Y-73183809D01*
X93390714Y-73231428D01*
X93581190Y-73231428D01*
X93676428Y-73183809D01*
X93724047Y-73136190D01*
X93771666Y-73040952D01*
D13*
X118733333Y-47226190D02*
X118733333Y-47583333D01*
X118709523Y-47654761D01*
X118661904Y-47702380D01*
X118590476Y-47726190D01*
X118542857Y-47726190D01*
X119185714Y-47226190D02*
X119090476Y-47226190D01*
X119042857Y-47250000D01*
X119019047Y-47273809D01*
X118971428Y-47345238D01*
X118947619Y-47440476D01*
X118947619Y-47630952D01*
X118971428Y-47678571D01*
X118995238Y-47702380D01*
X119042857Y-47726190D01*
X119138095Y-47726190D01*
X119185714Y-47702380D01*
X119209523Y-47678571D01*
X119233333Y-47630952D01*
X119233333Y-47511904D01*
X119209523Y-47464285D01*
X119185714Y-47440476D01*
X119138095Y-47416666D01*
X119042857Y-47416666D01*
X118995238Y-47440476D01*
X118971428Y-47464285D01*
X118947619Y-47511904D01*
X130933333Y-63256190D02*
X130933333Y-63613333D01*
X130909523Y-63684761D01*
X130861904Y-63732380D01*
X130790476Y-63756190D01*
X130742857Y-63756190D01*
X131147619Y-63303809D02*
X131171428Y-63280000D01*
X131219047Y-63256190D01*
X131338095Y-63256190D01*
X131385714Y-63280000D01*
X131409523Y-63303809D01*
X131433333Y-63351428D01*
X131433333Y-63399047D01*
X131409523Y-63470476D01*
X131123809Y-63756190D01*
X131433333Y-63756190D01*
X90778571Y-87526190D02*
X90611904Y-87288095D01*
X90492857Y-87526190D02*
X90492857Y-87026190D01*
X90683333Y-87026190D01*
X90730952Y-87050000D01*
X90754761Y-87073809D01*
X90778571Y-87121428D01*
X90778571Y-87192857D01*
X90754761Y-87240476D01*
X90730952Y-87264285D01*
X90683333Y-87288095D01*
X90492857Y-87288095D01*
X91254761Y-87526190D02*
X90969047Y-87526190D01*
X91111904Y-87526190D02*
X91111904Y-87026190D01*
X91064285Y-87097619D01*
X91016666Y-87145238D01*
X90969047Y-87169047D01*
X91683333Y-87026190D02*
X91588095Y-87026190D01*
X91540476Y-87050000D01*
X91516666Y-87073809D01*
X91469047Y-87145238D01*
X91445238Y-87240476D01*
X91445238Y-87430952D01*
X91469047Y-87478571D01*
X91492857Y-87502380D01*
X91540476Y-87526190D01*
X91635714Y-87526190D01*
X91683333Y-87502380D01*
X91707142Y-87478571D01*
X91730952Y-87430952D01*
X91730952Y-87311904D01*
X91707142Y-87264285D01*
X91683333Y-87240476D01*
X91635714Y-87216666D01*
X91540476Y-87216666D01*
X91492857Y-87240476D01*
X91469047Y-87264285D01*
X91445238Y-87311904D01*
X130116666Y-71456190D02*
X129950000Y-71218095D01*
X129830952Y-71456190D02*
X129830952Y-70956190D01*
X130021428Y-70956190D01*
X130069047Y-70980000D01*
X130092857Y-71003809D01*
X130116666Y-71051428D01*
X130116666Y-71122857D01*
X130092857Y-71170476D01*
X130069047Y-71194285D01*
X130021428Y-71218095D01*
X129830952Y-71218095D01*
X130545238Y-70956190D02*
X130450000Y-70956190D01*
X130402380Y-70980000D01*
X130378571Y-71003809D01*
X130330952Y-71075238D01*
X130307142Y-71170476D01*
X130307142Y-71360952D01*
X130330952Y-71408571D01*
X130354761Y-71432380D01*
X130402380Y-71456190D01*
X130497619Y-71456190D01*
X130545238Y-71432380D01*
X130569047Y-71408571D01*
X130592857Y-71360952D01*
X130592857Y-71241904D01*
X130569047Y-71194285D01*
X130545238Y-71170476D01*
X130497619Y-71146666D01*
X130402380Y-71146666D01*
X130354761Y-71170476D01*
X130330952Y-71194285D01*
X130307142Y-71241904D01*
X109378571Y-56278571D02*
X109354761Y-56302380D01*
X109283333Y-56326190D01*
X109235714Y-56326190D01*
X109164285Y-56302380D01*
X109116666Y-56254761D01*
X109092857Y-56207142D01*
X109069047Y-56111904D01*
X109069047Y-56040476D01*
X109092857Y-55945238D01*
X109116666Y-55897619D01*
X109164285Y-55850000D01*
X109235714Y-55826190D01*
X109283333Y-55826190D01*
X109354761Y-55850000D01*
X109378571Y-55873809D01*
X109830952Y-55826190D02*
X109592857Y-55826190D01*
X109569047Y-56064285D01*
X109592857Y-56040476D01*
X109640476Y-56016666D01*
X109759523Y-56016666D01*
X109807142Y-56040476D01*
X109830952Y-56064285D01*
X109854761Y-56111904D01*
X109854761Y-56230952D01*
X109830952Y-56278571D01*
X109807142Y-56302380D01*
X109759523Y-56326190D01*
X109640476Y-56326190D01*
X109592857Y-56302380D01*
X109569047Y-56278571D01*
X110283333Y-55992857D02*
X110283333Y-56326190D01*
X110164285Y-55802380D02*
X110045238Y-56159523D01*
X110354761Y-56159523D01*
D11*
X123928095Y-72812380D02*
X124499523Y-72812380D01*
X124213809Y-73812380D02*
X124213809Y-72812380D01*
X124832857Y-73812380D02*
X124832857Y-72812380D01*
X125213809Y-72812380D01*
X125309047Y-72860000D01*
X125356666Y-72907619D01*
X125404285Y-73002857D01*
X125404285Y-73145714D01*
X125356666Y-73240952D01*
X125309047Y-73288571D01*
X125213809Y-73336190D01*
X124832857Y-73336190D01*
X126261428Y-73145714D02*
X126261428Y-73812380D01*
X126023333Y-72764761D02*
X125785238Y-73479047D01*
X126404285Y-73479047D01*
X43208095Y-88882380D02*
X43779523Y-88882380D01*
X43493809Y-89882380D02*
X43493809Y-88882380D01*
X44112857Y-89882380D02*
X44112857Y-88882380D01*
X44493809Y-88882380D01*
X44589047Y-88930000D01*
X44636666Y-88977619D01*
X44684285Y-89072857D01*
X44684285Y-89215714D01*
X44636666Y-89310952D01*
X44589047Y-89358571D01*
X44493809Y-89406190D01*
X44112857Y-89406190D01*
X45065238Y-88977619D02*
X45112857Y-88930000D01*
X45208095Y-88882380D01*
X45446190Y-88882380D01*
X45541428Y-88930000D01*
X45589047Y-88977619D01*
X45636666Y-89072857D01*
X45636666Y-89168095D01*
X45589047Y-89310952D01*
X45017619Y-89882380D01*
X45636666Y-89882380D01*
D13*
X70278571Y-76778571D02*
X70254761Y-76802380D01*
X70183333Y-76826190D01*
X70135714Y-76826190D01*
X70064285Y-76802380D01*
X70016666Y-76754761D01*
X69992857Y-76707142D01*
X69969047Y-76611904D01*
X69969047Y-76540476D01*
X69992857Y-76445238D01*
X70016666Y-76397619D01*
X70064285Y-76350000D01*
X70135714Y-76326190D01*
X70183333Y-76326190D01*
X70254761Y-76350000D01*
X70278571Y-76373809D01*
X70469047Y-76373809D02*
X70492857Y-76350000D01*
X70540476Y-76326190D01*
X70659523Y-76326190D01*
X70707142Y-76350000D01*
X70730952Y-76373809D01*
X70754761Y-76421428D01*
X70754761Y-76469047D01*
X70730952Y-76540476D01*
X70445238Y-76826190D01*
X70754761Y-76826190D01*
X70945238Y-76373809D02*
X70969047Y-76350000D01*
X71016666Y-76326190D01*
X71135714Y-76326190D01*
X71183333Y-76350000D01*
X71207142Y-76373809D01*
X71230952Y-76421428D01*
X71230952Y-76469047D01*
X71207142Y-76540476D01*
X70921428Y-76826190D01*
X71230952Y-76826190D01*
X71519047Y-66926190D02*
X71519047Y-67330952D01*
X71542857Y-67378571D01*
X71566666Y-67402380D01*
X71614285Y-67426190D01*
X71709523Y-67426190D01*
X71757142Y-67402380D01*
X71780952Y-67378571D01*
X71804761Y-67330952D01*
X71804761Y-66926190D01*
X72304761Y-67426190D02*
X72019047Y-67426190D01*
X72161904Y-67426190D02*
X72161904Y-66926190D01*
X72114285Y-66997619D01*
X72066666Y-67045238D01*
X72019047Y-67069047D01*
X85678571Y-100278571D02*
X85654761Y-100302380D01*
X85583333Y-100326190D01*
X85535714Y-100326190D01*
X85464285Y-100302380D01*
X85416666Y-100254761D01*
X85392857Y-100207142D01*
X85369047Y-100111904D01*
X85369047Y-100040476D01*
X85392857Y-99945238D01*
X85416666Y-99897619D01*
X85464285Y-99850000D01*
X85535714Y-99826190D01*
X85583333Y-99826190D01*
X85654761Y-99850000D01*
X85678571Y-99873809D01*
X86107142Y-99992857D02*
X86107142Y-100326190D01*
X85988095Y-99802380D02*
X85869047Y-100159523D01*
X86178571Y-100159523D01*
X86440476Y-100040476D02*
X86392857Y-100016666D01*
X86369047Y-99992857D01*
X86345238Y-99945238D01*
X86345238Y-99921428D01*
X86369047Y-99873809D01*
X86392857Y-99850000D01*
X86440476Y-99826190D01*
X86535714Y-99826190D01*
X86583333Y-99850000D01*
X86607142Y-99873809D01*
X86630952Y-99921428D01*
X86630952Y-99945238D01*
X86607142Y-99992857D01*
X86583333Y-100016666D01*
X86535714Y-100040476D01*
X86440476Y-100040476D01*
X86392857Y-100064285D01*
X86369047Y-100088095D01*
X86345238Y-100135714D01*
X86345238Y-100230952D01*
X86369047Y-100278571D01*
X86392857Y-100302380D01*
X86440476Y-100326190D01*
X86535714Y-100326190D01*
X86583333Y-100302380D01*
X86607142Y-100278571D01*
X86630952Y-100230952D01*
X86630952Y-100135714D01*
X86607142Y-100088095D01*
X86583333Y-100064285D01*
X86535714Y-100040476D01*
X77978571Y-72071071D02*
X77954761Y-72094880D01*
X77883333Y-72118690D01*
X77835714Y-72118690D01*
X77764285Y-72094880D01*
X77716666Y-72047261D01*
X77692857Y-71999642D01*
X77669047Y-71904404D01*
X77669047Y-71832976D01*
X77692857Y-71737738D01*
X77716666Y-71690119D01*
X77764285Y-71642500D01*
X77835714Y-71618690D01*
X77883333Y-71618690D01*
X77954761Y-71642500D01*
X77978571Y-71666309D01*
X78169047Y-71666309D02*
X78192857Y-71642500D01*
X78240476Y-71618690D01*
X78359523Y-71618690D01*
X78407142Y-71642500D01*
X78430952Y-71666309D01*
X78454761Y-71713928D01*
X78454761Y-71761547D01*
X78430952Y-71832976D01*
X78145238Y-72118690D01*
X78454761Y-72118690D01*
X78930952Y-72118690D02*
X78645238Y-72118690D01*
X78788095Y-72118690D02*
X78788095Y-71618690D01*
X78740476Y-71690119D01*
X78692857Y-71737738D01*
X78645238Y-71761547D01*
X56261904Y-90888095D02*
X56261904Y-91126190D01*
X56095238Y-90626190D02*
X56261904Y-90888095D01*
X56428571Y-90626190D01*
X56571428Y-90673809D02*
X56595238Y-90650000D01*
X56642857Y-90626190D01*
X56761904Y-90626190D01*
X56809523Y-90650000D01*
X56833333Y-90673809D01*
X56857142Y-90721428D01*
X56857142Y-90769047D01*
X56833333Y-90840476D01*
X56547619Y-91126190D01*
X56857142Y-91126190D01*
X56778571Y-94578571D02*
X56754761Y-94602380D01*
X56683333Y-94626190D01*
X56635714Y-94626190D01*
X56564285Y-94602380D01*
X56516666Y-94554761D01*
X56492857Y-94507142D01*
X56469047Y-94411904D01*
X56469047Y-94340476D01*
X56492857Y-94245238D01*
X56516666Y-94197619D01*
X56564285Y-94150000D01*
X56635714Y-94126190D01*
X56683333Y-94126190D01*
X56754761Y-94150000D01*
X56778571Y-94173809D01*
X56969047Y-94173809D02*
X56992857Y-94150000D01*
X57040476Y-94126190D01*
X57159523Y-94126190D01*
X57207142Y-94150000D01*
X57230952Y-94173809D01*
X57254761Y-94221428D01*
X57254761Y-94269047D01*
X57230952Y-94340476D01*
X56945238Y-94626190D01*
X57254761Y-94626190D01*
X57683333Y-94292857D02*
X57683333Y-94626190D01*
X57564285Y-94102380D02*
X57445238Y-94459523D01*
X57754761Y-94459523D01*
X45416666Y-55478571D02*
X45392857Y-55502380D01*
X45321428Y-55526190D01*
X45273809Y-55526190D01*
X45202380Y-55502380D01*
X45154761Y-55454761D01*
X45130952Y-55407142D01*
X45107142Y-55311904D01*
X45107142Y-55240476D01*
X45130952Y-55145238D01*
X45154761Y-55097619D01*
X45202380Y-55050000D01*
X45273809Y-55026190D01*
X45321428Y-55026190D01*
X45392857Y-55050000D01*
X45416666Y-55073809D01*
X45892857Y-55526190D02*
X45607142Y-55526190D01*
X45750000Y-55526190D02*
X45750000Y-55026190D01*
X45702380Y-55097619D01*
X45654761Y-55145238D01*
X45607142Y-55169047D01*
X56216666Y-71526190D02*
X56050000Y-71288095D01*
X55930952Y-71526190D02*
X55930952Y-71026190D01*
X56121428Y-71026190D01*
X56169047Y-71050000D01*
X56192857Y-71073809D01*
X56216666Y-71121428D01*
X56216666Y-71192857D01*
X56192857Y-71240476D01*
X56169047Y-71264285D01*
X56121428Y-71288095D01*
X55930952Y-71288095D01*
X56454761Y-71526190D02*
X56550000Y-71526190D01*
X56597619Y-71502380D01*
X56621428Y-71478571D01*
X56669047Y-71407142D01*
X56692857Y-71311904D01*
X56692857Y-71121428D01*
X56669047Y-71073809D01*
X56645238Y-71050000D01*
X56597619Y-71026190D01*
X56502380Y-71026190D01*
X56454761Y-71050000D01*
X56430952Y-71073809D01*
X56407142Y-71121428D01*
X56407142Y-71240476D01*
X56430952Y-71288095D01*
X56454761Y-71311904D01*
X56502380Y-71335714D01*
X56597619Y-71335714D01*
X56645238Y-71311904D01*
X56669047Y-71288095D01*
X56692857Y-71240476D01*
X90578571Y-83543690D02*
X90411904Y-83305595D01*
X90292857Y-83543690D02*
X90292857Y-83043690D01*
X90483333Y-83043690D01*
X90530952Y-83067500D01*
X90554761Y-83091309D01*
X90578571Y-83138928D01*
X90578571Y-83210357D01*
X90554761Y-83257976D01*
X90530952Y-83281785D01*
X90483333Y-83305595D01*
X90292857Y-83305595D01*
X91054761Y-83543690D02*
X90769047Y-83543690D01*
X90911904Y-83543690D02*
X90911904Y-83043690D01*
X90864285Y-83115119D01*
X90816666Y-83162738D01*
X90769047Y-83186547D01*
X91483333Y-83210357D02*
X91483333Y-83543690D01*
X91364285Y-83019880D02*
X91245238Y-83377023D01*
X91554761Y-83377023D01*
X47678571Y-101178571D02*
X47654761Y-101202380D01*
X47583333Y-101226190D01*
X47535714Y-101226190D01*
X47464285Y-101202380D01*
X47416666Y-101154761D01*
X47392857Y-101107142D01*
X47369047Y-101011904D01*
X47369047Y-100940476D01*
X47392857Y-100845238D01*
X47416666Y-100797619D01*
X47464285Y-100750000D01*
X47535714Y-100726190D01*
X47583333Y-100726190D01*
X47654761Y-100750000D01*
X47678571Y-100773809D01*
X47845238Y-100726190D02*
X48154761Y-100726190D01*
X47988095Y-100916666D01*
X48059523Y-100916666D01*
X48107142Y-100940476D01*
X48130952Y-100964285D01*
X48154761Y-101011904D01*
X48154761Y-101130952D01*
X48130952Y-101178571D01*
X48107142Y-101202380D01*
X48059523Y-101226190D01*
X47916666Y-101226190D01*
X47869047Y-101202380D01*
X47845238Y-101178571D01*
X48321428Y-100726190D02*
X48630952Y-100726190D01*
X48464285Y-100916666D01*
X48535714Y-100916666D01*
X48583333Y-100940476D01*
X48607142Y-100964285D01*
X48630952Y-101011904D01*
X48630952Y-101130952D01*
X48607142Y-101178571D01*
X48583333Y-101202380D01*
X48535714Y-101226190D01*
X48392857Y-101226190D01*
X48345238Y-101202380D01*
X48321428Y-101178571D01*
X119878571Y-89626190D02*
X119711904Y-89388095D01*
X119592857Y-89626190D02*
X119592857Y-89126190D01*
X119783333Y-89126190D01*
X119830952Y-89150000D01*
X119854761Y-89173809D01*
X119878571Y-89221428D01*
X119878571Y-89292857D01*
X119854761Y-89340476D01*
X119830952Y-89364285D01*
X119783333Y-89388095D01*
X119592857Y-89388095D01*
X120069047Y-89173809D02*
X120092857Y-89150000D01*
X120140476Y-89126190D01*
X120259523Y-89126190D01*
X120307142Y-89150000D01*
X120330952Y-89173809D01*
X120354761Y-89221428D01*
X120354761Y-89269047D01*
X120330952Y-89340476D01*
X120045238Y-89626190D01*
X120354761Y-89626190D01*
X120545238Y-89173809D02*
X120569047Y-89150000D01*
X120616666Y-89126190D01*
X120735714Y-89126190D01*
X120783333Y-89150000D01*
X120807142Y-89173809D01*
X120830952Y-89221428D01*
X120830952Y-89269047D01*
X120807142Y-89340476D01*
X120521428Y-89626190D01*
X120830952Y-89626190D01*
X119253571Y-59543690D02*
X119086904Y-59305595D01*
X118967857Y-59543690D02*
X118967857Y-59043690D01*
X119158333Y-59043690D01*
X119205952Y-59067500D01*
X119229761Y-59091309D01*
X119253571Y-59138928D01*
X119253571Y-59210357D01*
X119229761Y-59257976D01*
X119205952Y-59281785D01*
X119158333Y-59305595D01*
X118967857Y-59305595D01*
X119444047Y-59091309D02*
X119467857Y-59067500D01*
X119515476Y-59043690D01*
X119634523Y-59043690D01*
X119682142Y-59067500D01*
X119705952Y-59091309D01*
X119729761Y-59138928D01*
X119729761Y-59186547D01*
X119705952Y-59257976D01*
X119420238Y-59543690D01*
X119729761Y-59543690D01*
X120182142Y-59043690D02*
X119944047Y-59043690D01*
X119920238Y-59281785D01*
X119944047Y-59257976D01*
X119991666Y-59234166D01*
X120110714Y-59234166D01*
X120158333Y-59257976D01*
X120182142Y-59281785D01*
X120205952Y-59329404D01*
X120205952Y-59448452D01*
X120182142Y-59496071D01*
X120158333Y-59519880D01*
X120110714Y-59543690D01*
X119991666Y-59543690D01*
X119944047Y-59519880D01*
X119920238Y-59496071D01*
X54316666Y-81378571D02*
X54292857Y-81402380D01*
X54221428Y-81426190D01*
X54173809Y-81426190D01*
X54102380Y-81402380D01*
X54054761Y-81354761D01*
X54030952Y-81307142D01*
X54007142Y-81211904D01*
X54007142Y-81140476D01*
X54030952Y-81045238D01*
X54054761Y-80997619D01*
X54102380Y-80950000D01*
X54173809Y-80926190D01*
X54221428Y-80926190D01*
X54292857Y-80950000D01*
X54316666Y-80973809D01*
X54745238Y-81092857D02*
X54745238Y-81426190D01*
X54626190Y-80902380D02*
X54507142Y-81259523D01*
X54816666Y-81259523D01*
X61019047Y-84526190D02*
X61019047Y-84930952D01*
X61042857Y-84978571D01*
X61066666Y-85002380D01*
X61114285Y-85026190D01*
X61209523Y-85026190D01*
X61257142Y-85002380D01*
X61280952Y-84978571D01*
X61304761Y-84930952D01*
X61304761Y-84526190D01*
X61757142Y-84692857D02*
X61757142Y-85026190D01*
X61638095Y-84502380D02*
X61519047Y-84859523D01*
X61828571Y-84859523D01*
X55878571Y-99126190D02*
X55711904Y-98888095D01*
X55592857Y-99126190D02*
X55592857Y-98626190D01*
X55783333Y-98626190D01*
X55830952Y-98650000D01*
X55854761Y-98673809D01*
X55878571Y-98721428D01*
X55878571Y-98792857D01*
X55854761Y-98840476D01*
X55830952Y-98864285D01*
X55783333Y-98888095D01*
X55592857Y-98888095D01*
X56354761Y-99126190D02*
X56069047Y-99126190D01*
X56211904Y-99126190D02*
X56211904Y-98626190D01*
X56164285Y-98697619D01*
X56116666Y-98745238D01*
X56069047Y-98769047D01*
X56640476Y-98840476D02*
X56592857Y-98816666D01*
X56569047Y-98792857D01*
X56545238Y-98745238D01*
X56545238Y-98721428D01*
X56569047Y-98673809D01*
X56592857Y-98650000D01*
X56640476Y-98626190D01*
X56735714Y-98626190D01*
X56783333Y-98650000D01*
X56807142Y-98673809D01*
X56830952Y-98721428D01*
X56830952Y-98745238D01*
X56807142Y-98792857D01*
X56783333Y-98816666D01*
X56735714Y-98840476D01*
X56640476Y-98840476D01*
X56592857Y-98864285D01*
X56569047Y-98888095D01*
X56545238Y-98935714D01*
X56545238Y-99030952D01*
X56569047Y-99078571D01*
X56592857Y-99102380D01*
X56640476Y-99126190D01*
X56735714Y-99126190D01*
X56783333Y-99102380D01*
X56807142Y-99078571D01*
X56830952Y-99030952D01*
X56830952Y-98935714D01*
X56807142Y-98888095D01*
X56783333Y-98864285D01*
X56735714Y-98840476D01*
X119878571Y-82126190D02*
X119711904Y-81888095D01*
X119592857Y-82126190D02*
X119592857Y-81626190D01*
X119783333Y-81626190D01*
X119830952Y-81650000D01*
X119854761Y-81673809D01*
X119878571Y-81721428D01*
X119878571Y-81792857D01*
X119854761Y-81840476D01*
X119830952Y-81864285D01*
X119783333Y-81888095D01*
X119592857Y-81888095D01*
X120069047Y-81673809D02*
X120092857Y-81650000D01*
X120140476Y-81626190D01*
X120259523Y-81626190D01*
X120307142Y-81650000D01*
X120330952Y-81673809D01*
X120354761Y-81721428D01*
X120354761Y-81769047D01*
X120330952Y-81840476D01*
X120045238Y-82126190D01*
X120354761Y-82126190D01*
X120664285Y-81626190D02*
X120711904Y-81626190D01*
X120759523Y-81650000D01*
X120783333Y-81673809D01*
X120807142Y-81721428D01*
X120830952Y-81816666D01*
X120830952Y-81935714D01*
X120807142Y-82030952D01*
X120783333Y-82078571D01*
X120759523Y-82102380D01*
X120711904Y-82126190D01*
X120664285Y-82126190D01*
X120616666Y-82102380D01*
X120592857Y-82078571D01*
X120569047Y-82030952D01*
X120545238Y-81935714D01*
X120545238Y-81816666D01*
X120569047Y-81721428D01*
X120592857Y-81673809D01*
X120616666Y-81650000D01*
X120664285Y-81626190D01*
X115478571Y-71278571D02*
X115454761Y-71302380D01*
X115383333Y-71326190D01*
X115335714Y-71326190D01*
X115264285Y-71302380D01*
X115216666Y-71254761D01*
X115192857Y-71207142D01*
X115169047Y-71111904D01*
X115169047Y-71040476D01*
X115192857Y-70945238D01*
X115216666Y-70897619D01*
X115264285Y-70850000D01*
X115335714Y-70826190D01*
X115383333Y-70826190D01*
X115454761Y-70850000D01*
X115478571Y-70873809D01*
X115907142Y-70826190D02*
X115811904Y-70826190D01*
X115764285Y-70850000D01*
X115740476Y-70873809D01*
X115692857Y-70945238D01*
X115669047Y-71040476D01*
X115669047Y-71230952D01*
X115692857Y-71278571D01*
X115716666Y-71302380D01*
X115764285Y-71326190D01*
X115859523Y-71326190D01*
X115907142Y-71302380D01*
X115930952Y-71278571D01*
X115954761Y-71230952D01*
X115954761Y-71111904D01*
X115930952Y-71064285D01*
X115907142Y-71040476D01*
X115859523Y-71016666D01*
X115764285Y-71016666D01*
X115716666Y-71040476D01*
X115692857Y-71064285D01*
X115669047Y-71111904D01*
X116383333Y-70992857D02*
X116383333Y-71326190D01*
X116264285Y-70802380D02*
X116145238Y-71159523D01*
X116454761Y-71159523D01*
X75330952Y-74926190D02*
X75330952Y-74426190D01*
X75450000Y-74426190D01*
X75521428Y-74450000D01*
X75569047Y-74497619D01*
X75592857Y-74545238D01*
X75616666Y-74640476D01*
X75616666Y-74711904D01*
X75592857Y-74807142D01*
X75569047Y-74854761D01*
X75521428Y-74902380D01*
X75450000Y-74926190D01*
X75330952Y-74926190D01*
X76092857Y-74926190D02*
X75807142Y-74926190D01*
X75950000Y-74926190D02*
X75950000Y-74426190D01*
X75902380Y-74497619D01*
X75854761Y-74545238D01*
X75807142Y-74569047D01*
X125516666Y-71456190D02*
X125350000Y-71218095D01*
X125230952Y-71456190D02*
X125230952Y-70956190D01*
X125421428Y-70956190D01*
X125469047Y-70980000D01*
X125492857Y-71003809D01*
X125516666Y-71051428D01*
X125516666Y-71122857D01*
X125492857Y-71170476D01*
X125469047Y-71194285D01*
X125421428Y-71218095D01*
X125230952Y-71218095D01*
X125969047Y-70956190D02*
X125730952Y-70956190D01*
X125707142Y-71194285D01*
X125730952Y-71170476D01*
X125778571Y-71146666D01*
X125897619Y-71146666D01*
X125945238Y-71170476D01*
X125969047Y-71194285D01*
X125992857Y-71241904D01*
X125992857Y-71360952D01*
X125969047Y-71408571D01*
X125945238Y-71432380D01*
X125897619Y-71456190D01*
X125778571Y-71456190D01*
X125730952Y-71432380D01*
X125707142Y-71408571D01*
D11*
X40706666Y-54458571D02*
X40849523Y-54506190D01*
X40897142Y-54553809D01*
X40944761Y-54649047D01*
X40944761Y-54791904D01*
X40897142Y-54887142D01*
X40849523Y-54934761D01*
X40754285Y-54982380D01*
X40373333Y-54982380D01*
X40373333Y-53982380D01*
X40706666Y-53982380D01*
X40801904Y-54030000D01*
X40849523Y-54077619D01*
X40897142Y-54172857D01*
X40897142Y-54268095D01*
X40849523Y-54363333D01*
X40801904Y-54410952D01*
X40706666Y-54458571D01*
X40373333Y-54458571D01*
X41563809Y-53982380D02*
X41754285Y-53982380D01*
X41849523Y-54030000D01*
X41944761Y-54125238D01*
X41992380Y-54315714D01*
X41992380Y-54649047D01*
X41944761Y-54839523D01*
X41849523Y-54934761D01*
X41754285Y-54982380D01*
X41563809Y-54982380D01*
X41468571Y-54934761D01*
X41373333Y-54839523D01*
X41325714Y-54649047D01*
X41325714Y-54315714D01*
X41373333Y-54125238D01*
X41468571Y-54030000D01*
X41563809Y-53982380D01*
X42611428Y-53982380D02*
X42801904Y-53982380D01*
X42897142Y-54030000D01*
X42992380Y-54125238D01*
X43040000Y-54315714D01*
X43040000Y-54649047D01*
X42992380Y-54839523D01*
X42897142Y-54934761D01*
X42801904Y-54982380D01*
X42611428Y-54982380D01*
X42516190Y-54934761D01*
X42420952Y-54839523D01*
X42373333Y-54649047D01*
X42373333Y-54315714D01*
X42420952Y-54125238D01*
X42516190Y-54030000D01*
X42611428Y-53982380D01*
X43325714Y-53982380D02*
X43897142Y-53982380D01*
X43611428Y-54982380D02*
X43611428Y-53982380D01*
X44754285Y-54982380D02*
X44182857Y-54982380D01*
X44468571Y-54982380D02*
X44468571Y-53982380D01*
X44373333Y-54125238D01*
X44278095Y-54220476D01*
X44182857Y-54268095D01*
D13*
X84033333Y-105626190D02*
X84033333Y-105983333D01*
X84009523Y-106054761D01*
X83961904Y-106102380D01*
X83890476Y-106126190D01*
X83842857Y-106126190D01*
X84509523Y-105626190D02*
X84271428Y-105626190D01*
X84247619Y-105864285D01*
X84271428Y-105840476D01*
X84319047Y-105816666D01*
X84438095Y-105816666D01*
X84485714Y-105840476D01*
X84509523Y-105864285D01*
X84533333Y-105911904D01*
X84533333Y-106030952D01*
X84509523Y-106078571D01*
X84485714Y-106102380D01*
X84438095Y-106126190D01*
X84319047Y-106126190D01*
X84271428Y-106102380D01*
X84247619Y-106078571D01*
X74483571Y-55178571D02*
X74459761Y-55202380D01*
X74388333Y-55226190D01*
X74340714Y-55226190D01*
X74269285Y-55202380D01*
X74221666Y-55154761D01*
X74197857Y-55107142D01*
X74174047Y-55011904D01*
X74174047Y-54940476D01*
X74197857Y-54845238D01*
X74221666Y-54797619D01*
X74269285Y-54750000D01*
X74340714Y-54726190D01*
X74388333Y-54726190D01*
X74459761Y-54750000D01*
X74483571Y-54773809D01*
X74959761Y-55226190D02*
X74674047Y-55226190D01*
X74816904Y-55226190D02*
X74816904Y-54726190D01*
X74769285Y-54797619D01*
X74721666Y-54845238D01*
X74674047Y-54869047D01*
X75269285Y-54726190D02*
X75316904Y-54726190D01*
X75364523Y-54750000D01*
X75388333Y-54773809D01*
X75412142Y-54821428D01*
X75435952Y-54916666D01*
X75435952Y-55035714D01*
X75412142Y-55130952D01*
X75388333Y-55178571D01*
X75364523Y-55202380D01*
X75316904Y-55226190D01*
X75269285Y-55226190D01*
X75221666Y-55202380D01*
X75197857Y-55178571D01*
X75174047Y-55130952D01*
X75150238Y-55035714D01*
X75150238Y-54916666D01*
X75174047Y-54821428D01*
X75197857Y-54773809D01*
X75221666Y-54750000D01*
X75269285Y-54726190D01*
X78380952Y-59056190D02*
X78380952Y-59460952D01*
X78404761Y-59508571D01*
X78428571Y-59532380D01*
X78476190Y-59556190D01*
X78571428Y-59556190D01*
X78619047Y-59532380D01*
X78642857Y-59508571D01*
X78666666Y-59460952D01*
X78666666Y-59056190D01*
X79166666Y-59556190D02*
X78880952Y-59556190D01*
X79023809Y-59556190D02*
X79023809Y-59056190D01*
X78976190Y-59127619D01*
X78928571Y-59175238D01*
X78880952Y-59199047D01*
X79357142Y-59103809D02*
X79380952Y-59080000D01*
X79428571Y-59056190D01*
X79547619Y-59056190D01*
X79595238Y-59080000D01*
X79619047Y-59103809D01*
X79642857Y-59151428D01*
X79642857Y-59199047D01*
X79619047Y-59270476D01*
X79333333Y-59556190D01*
X79642857Y-59556190D01*
X81178571Y-55178571D02*
X81154761Y-55202380D01*
X81083333Y-55226190D01*
X81035714Y-55226190D01*
X80964285Y-55202380D01*
X80916666Y-55154761D01*
X80892857Y-55107142D01*
X80869047Y-55011904D01*
X80869047Y-54940476D01*
X80892857Y-54845238D01*
X80916666Y-54797619D01*
X80964285Y-54750000D01*
X81035714Y-54726190D01*
X81083333Y-54726190D01*
X81154761Y-54750000D01*
X81178571Y-54773809D01*
X81607142Y-54726190D02*
X81511904Y-54726190D01*
X81464285Y-54750000D01*
X81440476Y-54773809D01*
X81392857Y-54845238D01*
X81369047Y-54940476D01*
X81369047Y-55130952D01*
X81392857Y-55178571D01*
X81416666Y-55202380D01*
X81464285Y-55226190D01*
X81559523Y-55226190D01*
X81607142Y-55202380D01*
X81630952Y-55178571D01*
X81654761Y-55130952D01*
X81654761Y-55011904D01*
X81630952Y-54964285D01*
X81607142Y-54940476D01*
X81559523Y-54916666D01*
X81464285Y-54916666D01*
X81416666Y-54940476D01*
X81392857Y-54964285D01*
X81369047Y-55011904D01*
X81821428Y-54726190D02*
X82154761Y-54726190D01*
X81940476Y-55226190D01*
X56978571Y-76926190D02*
X56811904Y-76688095D01*
X56692857Y-76926190D02*
X56692857Y-76426190D01*
X56883333Y-76426190D01*
X56930952Y-76450000D01*
X56954761Y-76473809D01*
X56978571Y-76521428D01*
X56978571Y-76592857D01*
X56954761Y-76640476D01*
X56930952Y-76664285D01*
X56883333Y-76688095D01*
X56692857Y-76688095D01*
X57454761Y-76926190D02*
X57169047Y-76926190D01*
X57311904Y-76926190D02*
X57311904Y-76426190D01*
X57264285Y-76497619D01*
X57216666Y-76545238D01*
X57169047Y-76569047D01*
X57930952Y-76926190D02*
X57645238Y-76926190D01*
X57788095Y-76926190D02*
X57788095Y-76426190D01*
X57740476Y-76497619D01*
X57692857Y-76545238D01*
X57645238Y-76569047D01*
X82319047Y-87126190D02*
X82319047Y-87530952D01*
X82342857Y-87578571D01*
X82366666Y-87602380D01*
X82414285Y-87626190D01*
X82509523Y-87626190D01*
X82557142Y-87602380D01*
X82580952Y-87578571D01*
X82604761Y-87530952D01*
X82604761Y-87126190D01*
X83080952Y-87126190D02*
X82842857Y-87126190D01*
X82819047Y-87364285D01*
X82842857Y-87340476D01*
X82890476Y-87316666D01*
X83009523Y-87316666D01*
X83057142Y-87340476D01*
X83080952Y-87364285D01*
X83104761Y-87411904D01*
X83104761Y-87530952D01*
X83080952Y-87578571D01*
X83057142Y-87602380D01*
X83009523Y-87626190D01*
X82890476Y-87626190D01*
X82842857Y-87602380D01*
X82819047Y-87578571D01*
D11*
X129288095Y-72872380D02*
X129859523Y-72872380D01*
X129573809Y-73872380D02*
X129573809Y-72872380D01*
X130192857Y-73872380D02*
X130192857Y-72872380D01*
X130573809Y-72872380D01*
X130669047Y-72920000D01*
X130716666Y-72967619D01*
X130764285Y-73062857D01*
X130764285Y-73205714D01*
X130716666Y-73300952D01*
X130669047Y-73348571D01*
X130573809Y-73396190D01*
X130192857Y-73396190D01*
X131669047Y-72872380D02*
X131192857Y-72872380D01*
X131145238Y-73348571D01*
X131192857Y-73300952D01*
X131288095Y-73253333D01*
X131526190Y-73253333D01*
X131621428Y-73300952D01*
X131669047Y-73348571D01*
X131716666Y-73443809D01*
X131716666Y-73681904D01*
X131669047Y-73777142D01*
X131621428Y-73824761D01*
X131526190Y-73872380D01*
X131288095Y-73872380D01*
X131192857Y-73824761D01*
X131145238Y-73777142D01*
D13*
X117580952Y-60826190D02*
X117580952Y-61230952D01*
X117604761Y-61278571D01*
X117628571Y-61302380D01*
X117676190Y-61326190D01*
X117771428Y-61326190D01*
X117819047Y-61302380D01*
X117842857Y-61278571D01*
X117866666Y-61230952D01*
X117866666Y-60826190D01*
X118366666Y-61326190D02*
X118080952Y-61326190D01*
X118223809Y-61326190D02*
X118223809Y-60826190D01*
X118176190Y-60897619D01*
X118128571Y-60945238D01*
X118080952Y-60969047D01*
X118842857Y-61326190D02*
X118557142Y-61326190D01*
X118700000Y-61326190D02*
X118700000Y-60826190D01*
X118652380Y-60897619D01*
X118604761Y-60945238D01*
X118557142Y-60969047D01*
X51603571Y-91178571D02*
X51579761Y-91202380D01*
X51508333Y-91226190D01*
X51460714Y-91226190D01*
X51389285Y-91202380D01*
X51341666Y-91154761D01*
X51317857Y-91107142D01*
X51294047Y-91011904D01*
X51294047Y-90940476D01*
X51317857Y-90845238D01*
X51341666Y-90797619D01*
X51389285Y-90750000D01*
X51460714Y-90726190D01*
X51508333Y-90726190D01*
X51579761Y-90750000D01*
X51603571Y-90773809D01*
X51770238Y-90726190D02*
X52079761Y-90726190D01*
X51913095Y-90916666D01*
X51984523Y-90916666D01*
X52032142Y-90940476D01*
X52055952Y-90964285D01*
X52079761Y-91011904D01*
X52079761Y-91130952D01*
X52055952Y-91178571D01*
X52032142Y-91202380D01*
X51984523Y-91226190D01*
X51841666Y-91226190D01*
X51794047Y-91202380D01*
X51770238Y-91178571D01*
X52508333Y-90726190D02*
X52413095Y-90726190D01*
X52365476Y-90750000D01*
X52341666Y-90773809D01*
X52294047Y-90845238D01*
X52270238Y-90940476D01*
X52270238Y-91130952D01*
X52294047Y-91178571D01*
X52317857Y-91202380D01*
X52365476Y-91226190D01*
X52460714Y-91226190D01*
X52508333Y-91202380D01*
X52532142Y-91178571D01*
X52555952Y-91130952D01*
X52555952Y-91011904D01*
X52532142Y-90964285D01*
X52508333Y-90940476D01*
X52460714Y-90916666D01*
X52365476Y-90916666D01*
X52317857Y-90940476D01*
X52294047Y-90964285D01*
X52270238Y-91011904D01*
X97183571Y-93738571D02*
X97159761Y-93762380D01*
X97088333Y-93786190D01*
X97040714Y-93786190D01*
X96969285Y-93762380D01*
X96921666Y-93714761D01*
X96897857Y-93667142D01*
X96874047Y-93571904D01*
X96874047Y-93500476D01*
X96897857Y-93405238D01*
X96921666Y-93357619D01*
X96969285Y-93310000D01*
X97040714Y-93286190D01*
X97088333Y-93286190D01*
X97159761Y-93310000D01*
X97183571Y-93333809D01*
X97350238Y-93286190D02*
X97659761Y-93286190D01*
X97493095Y-93476666D01*
X97564523Y-93476666D01*
X97612142Y-93500476D01*
X97635952Y-93524285D01*
X97659761Y-93571904D01*
X97659761Y-93690952D01*
X97635952Y-93738571D01*
X97612142Y-93762380D01*
X97564523Y-93786190D01*
X97421666Y-93786190D01*
X97374047Y-93762380D01*
X97350238Y-93738571D01*
X97897857Y-93786190D02*
X97993095Y-93786190D01*
X98040714Y-93762380D01*
X98064523Y-93738571D01*
X98112142Y-93667142D01*
X98135952Y-93571904D01*
X98135952Y-93381428D01*
X98112142Y-93333809D01*
X98088333Y-93310000D01*
X98040714Y-93286190D01*
X97945476Y-93286190D01*
X97897857Y-93310000D01*
X97874047Y-93333809D01*
X97850238Y-93381428D01*
X97850238Y-93500476D01*
X97874047Y-93548095D01*
X97897857Y-93571904D01*
X97945476Y-93595714D01*
X98040714Y-93595714D01*
X98088333Y-93571904D01*
X98112142Y-93548095D01*
X98135952Y-93500476D01*
X58569047Y-73426190D02*
X58569047Y-73830952D01*
X58592857Y-73878571D01*
X58616666Y-73902380D01*
X58664285Y-73926190D01*
X58759523Y-73926190D01*
X58807142Y-73902380D01*
X58830952Y-73878571D01*
X58854761Y-73830952D01*
X58854761Y-73426190D01*
X59069047Y-73473809D02*
X59092857Y-73450000D01*
X59140476Y-73426190D01*
X59259523Y-73426190D01*
X59307142Y-73450000D01*
X59330952Y-73473809D01*
X59354761Y-73521428D01*
X59354761Y-73569047D01*
X59330952Y-73640476D01*
X59045238Y-73926190D01*
X59354761Y-73926190D01*
X117578571Y-67926190D02*
X117411904Y-67688095D01*
X117292857Y-67926190D02*
X117292857Y-67426190D01*
X117483333Y-67426190D01*
X117530952Y-67450000D01*
X117554761Y-67473809D01*
X117578571Y-67521428D01*
X117578571Y-67592857D01*
X117554761Y-67640476D01*
X117530952Y-67664285D01*
X117483333Y-67688095D01*
X117292857Y-67688095D01*
X117769047Y-67473809D02*
X117792857Y-67450000D01*
X117840476Y-67426190D01*
X117959523Y-67426190D01*
X118007142Y-67450000D01*
X118030952Y-67473809D01*
X118054761Y-67521428D01*
X118054761Y-67569047D01*
X118030952Y-67640476D01*
X117745238Y-67926190D01*
X118054761Y-67926190D01*
X118483333Y-67592857D02*
X118483333Y-67926190D01*
X118364285Y-67402380D02*
X118245238Y-67759523D01*
X118554761Y-67759523D01*
X99319047Y-83026190D02*
X99319047Y-83430952D01*
X99342857Y-83478571D01*
X99366666Y-83502380D01*
X99414285Y-83526190D01*
X99509523Y-83526190D01*
X99557142Y-83502380D01*
X99580952Y-83478571D01*
X99604761Y-83430952D01*
X99604761Y-83026190D01*
X99795238Y-83026190D02*
X100128571Y-83026190D01*
X99914285Y-83526190D01*
X45421666Y-59126190D02*
X45255000Y-58888095D01*
X45135952Y-59126190D02*
X45135952Y-58626190D01*
X45326428Y-58626190D01*
X45374047Y-58650000D01*
X45397857Y-58673809D01*
X45421666Y-58721428D01*
X45421666Y-58792857D01*
X45397857Y-58840476D01*
X45374047Y-58864285D01*
X45326428Y-58888095D01*
X45135952Y-58888095D01*
X45897857Y-59126190D02*
X45612142Y-59126190D01*
X45755000Y-59126190D02*
X45755000Y-58626190D01*
X45707380Y-58697619D01*
X45659761Y-58745238D01*
X45612142Y-58769047D01*
X81283571Y-79126190D02*
X81116904Y-78888095D01*
X80997857Y-79126190D02*
X80997857Y-78626190D01*
X81188333Y-78626190D01*
X81235952Y-78650000D01*
X81259761Y-78673809D01*
X81283571Y-78721428D01*
X81283571Y-78792857D01*
X81259761Y-78840476D01*
X81235952Y-78864285D01*
X81188333Y-78888095D01*
X80997857Y-78888095D01*
X81759761Y-79126190D02*
X81474047Y-79126190D01*
X81616904Y-79126190D02*
X81616904Y-78626190D01*
X81569285Y-78697619D01*
X81521666Y-78745238D01*
X81474047Y-78769047D01*
X82212142Y-78626190D02*
X81974047Y-78626190D01*
X81950238Y-78864285D01*
X81974047Y-78840476D01*
X82021666Y-78816666D01*
X82140714Y-78816666D01*
X82188333Y-78840476D01*
X82212142Y-78864285D01*
X82235952Y-78911904D01*
X82235952Y-79030952D01*
X82212142Y-79078571D01*
X82188333Y-79102380D01*
X82140714Y-79126190D01*
X82021666Y-79126190D01*
X81974047Y-79102380D01*
X81950238Y-79078571D01*
X86778571Y-97778571D02*
X86754761Y-97802380D01*
X86683333Y-97826190D01*
X86635714Y-97826190D01*
X86564285Y-97802380D01*
X86516666Y-97754761D01*
X86492857Y-97707142D01*
X86469047Y-97611904D01*
X86469047Y-97540476D01*
X86492857Y-97445238D01*
X86516666Y-97397619D01*
X86564285Y-97350000D01*
X86635714Y-97326190D01*
X86683333Y-97326190D01*
X86754761Y-97350000D01*
X86778571Y-97373809D01*
X87230952Y-97326190D02*
X86992857Y-97326190D01*
X86969047Y-97564285D01*
X86992857Y-97540476D01*
X87040476Y-97516666D01*
X87159523Y-97516666D01*
X87207142Y-97540476D01*
X87230952Y-97564285D01*
X87254761Y-97611904D01*
X87254761Y-97730952D01*
X87230952Y-97778571D01*
X87207142Y-97802380D01*
X87159523Y-97826190D01*
X87040476Y-97826190D01*
X86992857Y-97802380D01*
X86969047Y-97778571D01*
X87445238Y-97373809D02*
X87469047Y-97350000D01*
X87516666Y-97326190D01*
X87635714Y-97326190D01*
X87683333Y-97350000D01*
X87707142Y-97373809D01*
X87730952Y-97421428D01*
X87730952Y-97469047D01*
X87707142Y-97540476D01*
X87421428Y-97826190D01*
X87730952Y-97826190D01*
X45616666Y-78356190D02*
X45450000Y-78118095D01*
X45330952Y-78356190D02*
X45330952Y-77856190D01*
X45521428Y-77856190D01*
X45569047Y-77880000D01*
X45592857Y-77903809D01*
X45616666Y-77951428D01*
X45616666Y-78022857D01*
X45592857Y-78070476D01*
X45569047Y-78094285D01*
X45521428Y-78118095D01*
X45330952Y-78118095D01*
X45807142Y-77903809D02*
X45830952Y-77880000D01*
X45878571Y-77856190D01*
X45997619Y-77856190D01*
X46045238Y-77880000D01*
X46069047Y-77903809D01*
X46092857Y-77951428D01*
X46092857Y-77999047D01*
X46069047Y-78070476D01*
X45783333Y-78356190D01*
X46092857Y-78356190D01*
D11*
X43178095Y-79872380D02*
X43749523Y-79872380D01*
X43463809Y-80872380D02*
X43463809Y-79872380D01*
X44082857Y-80872380D02*
X44082857Y-79872380D01*
X44463809Y-79872380D01*
X44559047Y-79920000D01*
X44606666Y-79967619D01*
X44654285Y-80062857D01*
X44654285Y-80205714D01*
X44606666Y-80300952D01*
X44559047Y-80348571D01*
X44463809Y-80396190D01*
X44082857Y-80396190D01*
X44987619Y-79872380D02*
X45606666Y-79872380D01*
X45273333Y-80253333D01*
X45416190Y-80253333D01*
X45511428Y-80300952D01*
X45559047Y-80348571D01*
X45606666Y-80443809D01*
X45606666Y-80681904D01*
X45559047Y-80777142D01*
X45511428Y-80824761D01*
X45416190Y-80872380D01*
X45130476Y-80872380D01*
X45035238Y-80824761D01*
X44987619Y-80777142D01*
D13*
X72919047Y-69726190D02*
X72919047Y-70130952D01*
X72942857Y-70178571D01*
X72966666Y-70202380D01*
X73014285Y-70226190D01*
X73109523Y-70226190D01*
X73157142Y-70202380D01*
X73180952Y-70178571D01*
X73204761Y-70130952D01*
X73204761Y-69726190D01*
X73395238Y-69726190D02*
X73704761Y-69726190D01*
X73538095Y-69916666D01*
X73609523Y-69916666D01*
X73657142Y-69940476D01*
X73680952Y-69964285D01*
X73704761Y-70011904D01*
X73704761Y-70130952D01*
X73680952Y-70178571D01*
X73657142Y-70202380D01*
X73609523Y-70226190D01*
X73466666Y-70226190D01*
X73419047Y-70202380D01*
X73395238Y-70178571D01*
X113453571Y-58656190D02*
X113286904Y-58418095D01*
X113167857Y-58656190D02*
X113167857Y-58156190D01*
X113358333Y-58156190D01*
X113405952Y-58180000D01*
X113429761Y-58203809D01*
X113453571Y-58251428D01*
X113453571Y-58322857D01*
X113429761Y-58370476D01*
X113405952Y-58394285D01*
X113358333Y-58418095D01*
X113167857Y-58418095D01*
X113644047Y-58203809D02*
X113667857Y-58180000D01*
X113715476Y-58156190D01*
X113834523Y-58156190D01*
X113882142Y-58180000D01*
X113905952Y-58203809D01*
X113929761Y-58251428D01*
X113929761Y-58299047D01*
X113905952Y-58370476D01*
X113620238Y-58656190D01*
X113929761Y-58656190D01*
X114096428Y-58156190D02*
X114429761Y-58156190D01*
X114215476Y-58656190D01*
X94261904Y-87188095D02*
X94261904Y-87426190D01*
X94095238Y-86926190D02*
X94261904Y-87188095D01*
X94428571Y-86926190D01*
X94547619Y-86926190D02*
X94857142Y-86926190D01*
X94690476Y-87116666D01*
X94761904Y-87116666D01*
X94809523Y-87140476D01*
X94833333Y-87164285D01*
X94857142Y-87211904D01*
X94857142Y-87330952D01*
X94833333Y-87378571D01*
X94809523Y-87402380D01*
X94761904Y-87426190D01*
X94619047Y-87426190D01*
X94571428Y-87402380D01*
X94547619Y-87378571D01*
D11*
X124118095Y-68682380D02*
X124689523Y-68682380D01*
X124403809Y-69682380D02*
X124403809Y-68682380D01*
X125022857Y-69682380D02*
X125022857Y-68682380D01*
X125403809Y-68682380D01*
X125499047Y-68730000D01*
X125546666Y-68777619D01*
X125594285Y-68872857D01*
X125594285Y-69015714D01*
X125546666Y-69110952D01*
X125499047Y-69158571D01*
X125403809Y-69206190D01*
X125022857Y-69206190D01*
X126451428Y-68682380D02*
X126260952Y-68682380D01*
X126165714Y-68730000D01*
X126118095Y-68777619D01*
X126022857Y-68920476D01*
X125975238Y-69110952D01*
X125975238Y-69491904D01*
X126022857Y-69587142D01*
X126070476Y-69634761D01*
X126165714Y-69682380D01*
X126356190Y-69682380D01*
X126451428Y-69634761D01*
X126499047Y-69587142D01*
X126546666Y-69491904D01*
X126546666Y-69253809D01*
X126499047Y-69158571D01*
X126451428Y-69110952D01*
X126356190Y-69063333D01*
X126165714Y-69063333D01*
X126070476Y-69110952D01*
X126022857Y-69158571D01*
X125975238Y-69253809D01*
D13*
X130213571Y-84908571D02*
X130189761Y-84932380D01*
X130118333Y-84956190D01*
X130070714Y-84956190D01*
X129999285Y-84932380D01*
X129951666Y-84884761D01*
X129927857Y-84837142D01*
X129904047Y-84741904D01*
X129904047Y-84670476D01*
X129927857Y-84575238D01*
X129951666Y-84527619D01*
X129999285Y-84480000D01*
X130070714Y-84456190D01*
X130118333Y-84456190D01*
X130189761Y-84480000D01*
X130213571Y-84503809D01*
X130642142Y-84622857D02*
X130642142Y-84956190D01*
X130523095Y-84432380D02*
X130404047Y-84789523D01*
X130713571Y-84789523D01*
X130927857Y-84956190D02*
X131023095Y-84956190D01*
X131070714Y-84932380D01*
X131094523Y-84908571D01*
X131142142Y-84837142D01*
X131165952Y-84741904D01*
X131165952Y-84551428D01*
X131142142Y-84503809D01*
X131118333Y-84480000D01*
X131070714Y-84456190D01*
X130975476Y-84456190D01*
X130927857Y-84480000D01*
X130904047Y-84503809D01*
X130880238Y-84551428D01*
X130880238Y-84670476D01*
X130904047Y-84718095D01*
X130927857Y-84741904D01*
X130975476Y-84765714D01*
X131070714Y-84765714D01*
X131118333Y-84741904D01*
X131142142Y-84718095D01*
X131165952Y-84670476D01*
X47933333Y-105526190D02*
X47933333Y-105883333D01*
X47909523Y-105954761D01*
X47861904Y-106002380D01*
X47790476Y-106026190D01*
X47742857Y-106026190D01*
X48385714Y-105692857D02*
X48385714Y-106026190D01*
X48266666Y-105502380D02*
X48147619Y-105859523D01*
X48457142Y-105859523D01*
X48878571Y-98678571D02*
X48854761Y-98702380D01*
X48783333Y-98726190D01*
X48735714Y-98726190D01*
X48664285Y-98702380D01*
X48616666Y-98654761D01*
X48592857Y-98607142D01*
X48569047Y-98511904D01*
X48569047Y-98440476D01*
X48592857Y-98345238D01*
X48616666Y-98297619D01*
X48664285Y-98250000D01*
X48735714Y-98226190D01*
X48783333Y-98226190D01*
X48854761Y-98250000D01*
X48878571Y-98273809D01*
X49045238Y-98226190D02*
X49354761Y-98226190D01*
X49188095Y-98416666D01*
X49259523Y-98416666D01*
X49307142Y-98440476D01*
X49330952Y-98464285D01*
X49354761Y-98511904D01*
X49354761Y-98630952D01*
X49330952Y-98678571D01*
X49307142Y-98702380D01*
X49259523Y-98726190D01*
X49116666Y-98726190D01*
X49069047Y-98702380D01*
X49045238Y-98678571D01*
X49521428Y-98226190D02*
X49854761Y-98226190D01*
X49640476Y-98726190D01*
X121619047Y-84826190D02*
X121619047Y-85230952D01*
X121642857Y-85278571D01*
X121666666Y-85302380D01*
X121714285Y-85326190D01*
X121809523Y-85326190D01*
X121857142Y-85302380D01*
X121880952Y-85278571D01*
X121904761Y-85230952D01*
X121904761Y-84826190D01*
X122214285Y-85040476D02*
X122166666Y-85016666D01*
X122142857Y-84992857D01*
X122119047Y-84945238D01*
X122119047Y-84921428D01*
X122142857Y-84873809D01*
X122166666Y-84850000D01*
X122214285Y-84826190D01*
X122309523Y-84826190D01*
X122357142Y-84850000D01*
X122380952Y-84873809D01*
X122404761Y-84921428D01*
X122404761Y-84945238D01*
X122380952Y-84992857D01*
X122357142Y-85016666D01*
X122309523Y-85040476D01*
X122214285Y-85040476D01*
X122166666Y-85064285D01*
X122142857Y-85088095D01*
X122119047Y-85135714D01*
X122119047Y-85230952D01*
X122142857Y-85278571D01*
X122166666Y-85302380D01*
X122214285Y-85326190D01*
X122309523Y-85326190D01*
X122357142Y-85302380D01*
X122380952Y-85278571D01*
X122404761Y-85230952D01*
X122404761Y-85135714D01*
X122380952Y-85088095D01*
X122357142Y-85064285D01*
X122309523Y-85040476D01*
X99383571Y-72326190D02*
X99216904Y-72088095D01*
X99097857Y-72326190D02*
X99097857Y-71826190D01*
X99288333Y-71826190D01*
X99335952Y-71850000D01*
X99359761Y-71873809D01*
X99383571Y-71921428D01*
X99383571Y-71992857D01*
X99359761Y-72040476D01*
X99335952Y-72064285D01*
X99288333Y-72088095D01*
X99097857Y-72088095D01*
X99574047Y-71873809D02*
X99597857Y-71850000D01*
X99645476Y-71826190D01*
X99764523Y-71826190D01*
X99812142Y-71850000D01*
X99835952Y-71873809D01*
X99859761Y-71921428D01*
X99859761Y-71969047D01*
X99835952Y-72040476D01*
X99550238Y-72326190D01*
X99859761Y-72326190D01*
X100097857Y-72326190D02*
X100193095Y-72326190D01*
X100240714Y-72302380D01*
X100264523Y-72278571D01*
X100312142Y-72207142D01*
X100335952Y-72111904D01*
X100335952Y-71921428D01*
X100312142Y-71873809D01*
X100288333Y-71850000D01*
X100240714Y-71826190D01*
X100145476Y-71826190D01*
X100097857Y-71850000D01*
X100074047Y-71873809D01*
X100050238Y-71921428D01*
X100050238Y-72040476D01*
X100074047Y-72088095D01*
X100097857Y-72111904D01*
X100145476Y-72135714D01*
X100240714Y-72135714D01*
X100288333Y-72111904D01*
X100312142Y-72088095D01*
X100335952Y-72040476D01*
X44233333Y-59856190D02*
X44233333Y-60213333D01*
X44209523Y-60284761D01*
X44161904Y-60332380D01*
X44090476Y-60356190D01*
X44042857Y-60356190D01*
X44733333Y-60356190D02*
X44447619Y-60356190D01*
X44590476Y-60356190D02*
X44590476Y-59856190D01*
X44542857Y-59927619D01*
X44495238Y-59975238D01*
X44447619Y-59999047D01*
X130283571Y-81643690D02*
X130116904Y-81405595D01*
X129997857Y-81643690D02*
X129997857Y-81143690D01*
X130188333Y-81143690D01*
X130235952Y-81167500D01*
X130259761Y-81191309D01*
X130283571Y-81238928D01*
X130283571Y-81310357D01*
X130259761Y-81357976D01*
X130235952Y-81381785D01*
X130188333Y-81405595D01*
X129997857Y-81405595D01*
X130759761Y-81643690D02*
X130474047Y-81643690D01*
X130616904Y-81643690D02*
X130616904Y-81143690D01*
X130569285Y-81215119D01*
X130521666Y-81262738D01*
X130474047Y-81286547D01*
X130997857Y-81643690D02*
X131093095Y-81643690D01*
X131140714Y-81619880D01*
X131164523Y-81596071D01*
X131212142Y-81524642D01*
X131235952Y-81429404D01*
X131235952Y-81238928D01*
X131212142Y-81191309D01*
X131188333Y-81167500D01*
X131140714Y-81143690D01*
X131045476Y-81143690D01*
X130997857Y-81167500D01*
X130974047Y-81191309D01*
X130950238Y-81238928D01*
X130950238Y-81357976D01*
X130974047Y-81405595D01*
X130997857Y-81429404D01*
X131045476Y-81453214D01*
X131140714Y-81453214D01*
X131188333Y-81429404D01*
X131212142Y-81405595D01*
X131235952Y-81357976D01*
X106980952Y-67626190D02*
X106980952Y-68030952D01*
X107004761Y-68078571D01*
X107028571Y-68102380D01*
X107076190Y-68126190D01*
X107171428Y-68126190D01*
X107219047Y-68102380D01*
X107242857Y-68078571D01*
X107266666Y-68030952D01*
X107266666Y-67626190D01*
X107766666Y-68126190D02*
X107480952Y-68126190D01*
X107623809Y-68126190D02*
X107623809Y-67626190D01*
X107576190Y-67697619D01*
X107528571Y-67745238D01*
X107480952Y-67769047D01*
X108076190Y-67626190D02*
X108123809Y-67626190D01*
X108171428Y-67650000D01*
X108195238Y-67673809D01*
X108219047Y-67721428D01*
X108242857Y-67816666D01*
X108242857Y-67935714D01*
X108219047Y-68030952D01*
X108195238Y-68078571D01*
X108171428Y-68102380D01*
X108123809Y-68126190D01*
X108076190Y-68126190D01*
X108028571Y-68102380D01*
X108004761Y-68078571D01*
X107980952Y-68030952D01*
X107957142Y-67935714D01*
X107957142Y-67816666D01*
X107980952Y-67721428D01*
X108004761Y-67673809D01*
X108028571Y-67650000D01*
X108076190Y-67626190D01*
X82533333Y-47126190D02*
X82533333Y-47483333D01*
X82509523Y-47554761D01*
X82461904Y-47602380D01*
X82390476Y-47626190D01*
X82342857Y-47626190D01*
X82723809Y-47126190D02*
X83033333Y-47126190D01*
X82866666Y-47316666D01*
X82938095Y-47316666D01*
X82985714Y-47340476D01*
X83009523Y-47364285D01*
X83033333Y-47411904D01*
X83033333Y-47530952D01*
X83009523Y-47578571D01*
X82985714Y-47602380D01*
X82938095Y-47626190D01*
X82795238Y-47626190D01*
X82747619Y-47602380D01*
X82723809Y-47578571D01*
X96283571Y-83808571D02*
X96259761Y-83832380D01*
X96188333Y-83856190D01*
X96140714Y-83856190D01*
X96069285Y-83832380D01*
X96021666Y-83784761D01*
X95997857Y-83737142D01*
X95974047Y-83641904D01*
X95974047Y-83570476D01*
X95997857Y-83475238D01*
X96021666Y-83427619D01*
X96069285Y-83380000D01*
X96140714Y-83356190D01*
X96188333Y-83356190D01*
X96259761Y-83380000D01*
X96283571Y-83403809D01*
X96450238Y-83356190D02*
X96759761Y-83356190D01*
X96593095Y-83546666D01*
X96664523Y-83546666D01*
X96712142Y-83570476D01*
X96735952Y-83594285D01*
X96759761Y-83641904D01*
X96759761Y-83760952D01*
X96735952Y-83808571D01*
X96712142Y-83832380D01*
X96664523Y-83856190D01*
X96521666Y-83856190D01*
X96474047Y-83832380D01*
X96450238Y-83808571D01*
X97045476Y-83570476D02*
X96997857Y-83546666D01*
X96974047Y-83522857D01*
X96950238Y-83475238D01*
X96950238Y-83451428D01*
X96974047Y-83403809D01*
X96997857Y-83380000D01*
X97045476Y-83356190D01*
X97140714Y-83356190D01*
X97188333Y-83380000D01*
X97212142Y-83403809D01*
X97235952Y-83451428D01*
X97235952Y-83475238D01*
X97212142Y-83522857D01*
X97188333Y-83546666D01*
X97140714Y-83570476D01*
X97045476Y-83570476D01*
X96997857Y-83594285D01*
X96974047Y-83618095D01*
X96950238Y-83665714D01*
X96950238Y-83760952D01*
X96974047Y-83808571D01*
X96997857Y-83832380D01*
X97045476Y-83856190D01*
X97140714Y-83856190D01*
X97188333Y-83832380D01*
X97212142Y-83808571D01*
X97235952Y-83760952D01*
X97235952Y-83665714D01*
X97212142Y-83618095D01*
X97188333Y-83594285D01*
X97140714Y-83570476D01*
X126846666Y-52706190D02*
X126680000Y-52468095D01*
X126560952Y-52706190D02*
X126560952Y-52206190D01*
X126751428Y-52206190D01*
X126799047Y-52230000D01*
X126822857Y-52253809D01*
X126846666Y-52301428D01*
X126846666Y-52372857D01*
X126822857Y-52420476D01*
X126799047Y-52444285D01*
X126751428Y-52468095D01*
X126560952Y-52468095D01*
X127132380Y-52420476D02*
X127084761Y-52396666D01*
X127060952Y-52372857D01*
X127037142Y-52325238D01*
X127037142Y-52301428D01*
X127060952Y-52253809D01*
X127084761Y-52230000D01*
X127132380Y-52206190D01*
X127227619Y-52206190D01*
X127275238Y-52230000D01*
X127299047Y-52253809D01*
X127322857Y-52301428D01*
X127322857Y-52325238D01*
X127299047Y-52372857D01*
X127275238Y-52396666D01*
X127227619Y-52420476D01*
X127132380Y-52420476D01*
X127084761Y-52444285D01*
X127060952Y-52468095D01*
X127037142Y-52515714D01*
X127037142Y-52610952D01*
X127060952Y-52658571D01*
X127084761Y-52682380D01*
X127132380Y-52706190D01*
X127227619Y-52706190D01*
X127275238Y-52682380D01*
X127299047Y-52658571D01*
X127322857Y-52610952D01*
X127322857Y-52515714D01*
X127299047Y-52468095D01*
X127275238Y-52444285D01*
X127227619Y-52420476D01*
X86878571Y-91478571D02*
X86854761Y-91502380D01*
X86783333Y-91526190D01*
X86735714Y-91526190D01*
X86664285Y-91502380D01*
X86616666Y-91454761D01*
X86592857Y-91407142D01*
X86569047Y-91311904D01*
X86569047Y-91240476D01*
X86592857Y-91145238D01*
X86616666Y-91097619D01*
X86664285Y-91050000D01*
X86735714Y-91026190D01*
X86783333Y-91026190D01*
X86854761Y-91050000D01*
X86878571Y-91073809D01*
X87330952Y-91026190D02*
X87092857Y-91026190D01*
X87069047Y-91264285D01*
X87092857Y-91240476D01*
X87140476Y-91216666D01*
X87259523Y-91216666D01*
X87307142Y-91240476D01*
X87330952Y-91264285D01*
X87354761Y-91311904D01*
X87354761Y-91430952D01*
X87330952Y-91478571D01*
X87307142Y-91502380D01*
X87259523Y-91526190D01*
X87140476Y-91526190D01*
X87092857Y-91502380D01*
X87069047Y-91478571D01*
X87830952Y-91526190D02*
X87545238Y-91526190D01*
X87688095Y-91526190D02*
X87688095Y-91026190D01*
X87640476Y-91097619D01*
X87592857Y-91145238D01*
X87545238Y-91169047D01*
X51378571Y-71226190D02*
X51211904Y-70988095D01*
X51092857Y-71226190D02*
X51092857Y-70726190D01*
X51283333Y-70726190D01*
X51330952Y-70750000D01*
X51354761Y-70773809D01*
X51378571Y-70821428D01*
X51378571Y-70892857D01*
X51354761Y-70940476D01*
X51330952Y-70964285D01*
X51283333Y-70988095D01*
X51092857Y-70988095D01*
X51854761Y-71226190D02*
X51569047Y-71226190D01*
X51711904Y-71226190D02*
X51711904Y-70726190D01*
X51664285Y-70797619D01*
X51616666Y-70845238D01*
X51569047Y-70869047D01*
X52164285Y-70726190D02*
X52211904Y-70726190D01*
X52259523Y-70750000D01*
X52283333Y-70773809D01*
X52307142Y-70821428D01*
X52330952Y-70916666D01*
X52330952Y-71035714D01*
X52307142Y-71130952D01*
X52283333Y-71178571D01*
X52259523Y-71202380D01*
X52211904Y-71226190D01*
X52164285Y-71226190D01*
X52116666Y-71202380D01*
X52092857Y-71178571D01*
X52069047Y-71130952D01*
X52045238Y-71035714D01*
X52045238Y-70916666D01*
X52069047Y-70821428D01*
X52092857Y-70773809D01*
X52116666Y-70750000D01*
X52164285Y-70726190D01*
X54316666Y-79926190D02*
X54150000Y-79688095D01*
X54030952Y-79926190D02*
X54030952Y-79426190D01*
X54221428Y-79426190D01*
X54269047Y-79450000D01*
X54292857Y-79473809D01*
X54316666Y-79521428D01*
X54316666Y-79592857D01*
X54292857Y-79640476D01*
X54269047Y-79664285D01*
X54221428Y-79688095D01*
X54030952Y-79688095D01*
X54483333Y-79426190D02*
X54792857Y-79426190D01*
X54626190Y-79616666D01*
X54697619Y-79616666D01*
X54745238Y-79640476D01*
X54769047Y-79664285D01*
X54792857Y-79711904D01*
X54792857Y-79830952D01*
X54769047Y-79878571D01*
X54745238Y-79902380D01*
X54697619Y-79926190D01*
X54554761Y-79926190D01*
X54507142Y-79902380D01*
X54483333Y-79878571D01*
D11*
X105626904Y-72732380D02*
X106198333Y-72732380D01*
X105912619Y-73732380D02*
X105912619Y-72732380D01*
X106531666Y-73732380D02*
X106531666Y-72732380D01*
X106912619Y-72732380D01*
X107007857Y-72780000D01*
X107055476Y-72827619D01*
X107103095Y-72922857D01*
X107103095Y-73065714D01*
X107055476Y-73160952D01*
X107007857Y-73208571D01*
X106912619Y-73256190D01*
X106531666Y-73256190D01*
X108055476Y-73732380D02*
X107484047Y-73732380D01*
X107769761Y-73732380D02*
X107769761Y-72732380D01*
X107674523Y-72875238D01*
X107579285Y-72970476D01*
X107484047Y-73018095D01*
X108674523Y-72732380D02*
X108769761Y-72732380D01*
X108865000Y-72780000D01*
X108912619Y-72827619D01*
X108960238Y-72922857D01*
X109007857Y-73113333D01*
X109007857Y-73351428D01*
X108960238Y-73541904D01*
X108912619Y-73637142D01*
X108865000Y-73684761D01*
X108769761Y-73732380D01*
X108674523Y-73732380D01*
X108579285Y-73684761D01*
X108531666Y-73637142D01*
X108484047Y-73541904D01*
X108436428Y-73351428D01*
X108436428Y-73113333D01*
X108484047Y-72922857D01*
X108531666Y-72827619D01*
X108579285Y-72780000D01*
X108674523Y-72732380D01*
D13*
X79978571Y-68726190D02*
X79811904Y-68488095D01*
X79692857Y-68726190D02*
X79692857Y-68226190D01*
X79883333Y-68226190D01*
X79930952Y-68250000D01*
X79954761Y-68273809D01*
X79978571Y-68321428D01*
X79978571Y-68392857D01*
X79954761Y-68440476D01*
X79930952Y-68464285D01*
X79883333Y-68488095D01*
X79692857Y-68488095D01*
X80169047Y-68273809D02*
X80192857Y-68250000D01*
X80240476Y-68226190D01*
X80359523Y-68226190D01*
X80407142Y-68250000D01*
X80430952Y-68273809D01*
X80454761Y-68321428D01*
X80454761Y-68369047D01*
X80430952Y-68440476D01*
X80145238Y-68726190D01*
X80454761Y-68726190D01*
X80740476Y-68440476D02*
X80692857Y-68416666D01*
X80669047Y-68392857D01*
X80645238Y-68345238D01*
X80645238Y-68321428D01*
X80669047Y-68273809D01*
X80692857Y-68250000D01*
X80740476Y-68226190D01*
X80835714Y-68226190D01*
X80883333Y-68250000D01*
X80907142Y-68273809D01*
X80930952Y-68321428D01*
X80930952Y-68345238D01*
X80907142Y-68392857D01*
X80883333Y-68416666D01*
X80835714Y-68440476D01*
X80740476Y-68440476D01*
X80692857Y-68464285D01*
X80669047Y-68488095D01*
X80645238Y-68535714D01*
X80645238Y-68630952D01*
X80669047Y-68678571D01*
X80692857Y-68702380D01*
X80740476Y-68726190D01*
X80835714Y-68726190D01*
X80883333Y-68702380D01*
X80907142Y-68678571D01*
X80930952Y-68630952D01*
X80930952Y-68535714D01*
X80907142Y-68488095D01*
X80883333Y-68464285D01*
X80835714Y-68440476D01*
X84030952Y-59726190D02*
X84030952Y-59226190D01*
X84150000Y-59226190D01*
X84221428Y-59250000D01*
X84269047Y-59297619D01*
X84292857Y-59345238D01*
X84316666Y-59440476D01*
X84316666Y-59511904D01*
X84292857Y-59607142D01*
X84269047Y-59654761D01*
X84221428Y-59702380D01*
X84150000Y-59726190D01*
X84030952Y-59726190D01*
X84745238Y-59392857D02*
X84745238Y-59726190D01*
X84626190Y-59202380D02*
X84507142Y-59559523D01*
X84816666Y-59559523D01*
X87011547Y-94256190D02*
X87011547Y-94660952D01*
X87035357Y-94708571D01*
X87059166Y-94732380D01*
X87106785Y-94756190D01*
X87202023Y-94756190D01*
X87249642Y-94732380D01*
X87273452Y-94708571D01*
X87297261Y-94660952D01*
X87297261Y-94256190D01*
X87559166Y-94756190D02*
X87654404Y-94756190D01*
X87702023Y-94732380D01*
X87725833Y-94708571D01*
X87773452Y-94637142D01*
X87797261Y-94541904D01*
X87797261Y-94351428D01*
X87773452Y-94303809D01*
X87749642Y-94280000D01*
X87702023Y-94256190D01*
X87606785Y-94256190D01*
X87559166Y-94280000D01*
X87535357Y-94303809D01*
X87511547Y-94351428D01*
X87511547Y-94470476D01*
X87535357Y-94518095D01*
X87559166Y-94541904D01*
X87606785Y-94565714D01*
X87702023Y-94565714D01*
X87749642Y-94541904D01*
X87773452Y-94518095D01*
X87797261Y-94470476D01*
X120816666Y-52726190D02*
X120650000Y-52488095D01*
X120530952Y-52726190D02*
X120530952Y-52226190D01*
X120721428Y-52226190D01*
X120769047Y-52250000D01*
X120792857Y-52273809D01*
X120816666Y-52321428D01*
X120816666Y-52392857D01*
X120792857Y-52440476D01*
X120769047Y-52464285D01*
X120721428Y-52488095D01*
X120530952Y-52488095D01*
X120983333Y-52226190D02*
X121316666Y-52226190D01*
X121102380Y-52726190D01*
X75378571Y-77126190D02*
X75211904Y-76888095D01*
X75092857Y-77126190D02*
X75092857Y-76626190D01*
X75283333Y-76626190D01*
X75330952Y-76650000D01*
X75354761Y-76673809D01*
X75378571Y-76721428D01*
X75378571Y-76792857D01*
X75354761Y-76840476D01*
X75330952Y-76864285D01*
X75283333Y-76888095D01*
X75092857Y-76888095D01*
X75854761Y-77126190D02*
X75569047Y-77126190D01*
X75711904Y-77126190D02*
X75711904Y-76626190D01*
X75664285Y-76697619D01*
X75616666Y-76745238D01*
X75569047Y-76769047D01*
X76045238Y-76673809D02*
X76069047Y-76650000D01*
X76116666Y-76626190D01*
X76235714Y-76626190D01*
X76283333Y-76650000D01*
X76307142Y-76673809D01*
X76330952Y-76721428D01*
X76330952Y-76769047D01*
X76307142Y-76840476D01*
X76021428Y-77126190D01*
X76330952Y-77126190D01*
X56778571Y-87278571D02*
X56754761Y-87302380D01*
X56683333Y-87326190D01*
X56635714Y-87326190D01*
X56564285Y-87302380D01*
X56516666Y-87254761D01*
X56492857Y-87207142D01*
X56469047Y-87111904D01*
X56469047Y-87040476D01*
X56492857Y-86945238D01*
X56516666Y-86897619D01*
X56564285Y-86850000D01*
X56635714Y-86826190D01*
X56683333Y-86826190D01*
X56754761Y-86850000D01*
X56778571Y-86873809D01*
X56969047Y-86873809D02*
X56992857Y-86850000D01*
X57040476Y-86826190D01*
X57159523Y-86826190D01*
X57207142Y-86850000D01*
X57230952Y-86873809D01*
X57254761Y-86921428D01*
X57254761Y-86969047D01*
X57230952Y-87040476D01*
X56945238Y-87326190D01*
X57254761Y-87326190D01*
X57421428Y-86826190D02*
X57730952Y-86826190D01*
X57564285Y-87016666D01*
X57635714Y-87016666D01*
X57683333Y-87040476D01*
X57707142Y-87064285D01*
X57730952Y-87111904D01*
X57730952Y-87230952D01*
X57707142Y-87278571D01*
X57683333Y-87302380D01*
X57635714Y-87326190D01*
X57492857Y-87326190D01*
X57445238Y-87302380D01*
X57421428Y-87278571D01*
X65978571Y-76626190D02*
X65811904Y-76388095D01*
X65692857Y-76626190D02*
X65692857Y-76126190D01*
X65883333Y-76126190D01*
X65930952Y-76150000D01*
X65954761Y-76173809D01*
X65978571Y-76221428D01*
X65978571Y-76292857D01*
X65954761Y-76340476D01*
X65930952Y-76364285D01*
X65883333Y-76388095D01*
X65692857Y-76388095D01*
X66454761Y-76626190D02*
X66169047Y-76626190D01*
X66311904Y-76626190D02*
X66311904Y-76126190D01*
X66264285Y-76197619D01*
X66216666Y-76245238D01*
X66169047Y-76269047D01*
X66621428Y-76126190D02*
X66930952Y-76126190D01*
X66764285Y-76316666D01*
X66835714Y-76316666D01*
X66883333Y-76340476D01*
X66907142Y-76364285D01*
X66930952Y-76411904D01*
X66930952Y-76530952D01*
X66907142Y-76578571D01*
X66883333Y-76602380D01*
X66835714Y-76626190D01*
X66692857Y-76626190D01*
X66645238Y-76602380D01*
X66621428Y-76578571D01*
X117578571Y-69378571D02*
X117554761Y-69402380D01*
X117483333Y-69426190D01*
X117435714Y-69426190D01*
X117364285Y-69402380D01*
X117316666Y-69354761D01*
X117292857Y-69307142D01*
X117269047Y-69211904D01*
X117269047Y-69140476D01*
X117292857Y-69045238D01*
X117316666Y-68997619D01*
X117364285Y-68950000D01*
X117435714Y-68926190D01*
X117483333Y-68926190D01*
X117554761Y-68950000D01*
X117578571Y-68973809D01*
X118007142Y-68926190D02*
X117911904Y-68926190D01*
X117864285Y-68950000D01*
X117840476Y-68973809D01*
X117792857Y-69045238D01*
X117769047Y-69140476D01*
X117769047Y-69330952D01*
X117792857Y-69378571D01*
X117816666Y-69402380D01*
X117864285Y-69426190D01*
X117959523Y-69426190D01*
X118007142Y-69402380D01*
X118030952Y-69378571D01*
X118054761Y-69330952D01*
X118054761Y-69211904D01*
X118030952Y-69164285D01*
X118007142Y-69140476D01*
X117959523Y-69116666D01*
X117864285Y-69116666D01*
X117816666Y-69140476D01*
X117792857Y-69164285D01*
X117769047Y-69211904D01*
X118507142Y-68926190D02*
X118269047Y-68926190D01*
X118245238Y-69164285D01*
X118269047Y-69140476D01*
X118316666Y-69116666D01*
X118435714Y-69116666D01*
X118483333Y-69140476D01*
X118507142Y-69164285D01*
X118530952Y-69211904D01*
X118530952Y-69330952D01*
X118507142Y-69378571D01*
X118483333Y-69402380D01*
X118435714Y-69426190D01*
X118316666Y-69426190D01*
X118269047Y-69402380D01*
X118245238Y-69378571D01*
X54230952Y-94126190D02*
X54230952Y-93626190D01*
X54350000Y-93626190D01*
X54421428Y-93650000D01*
X54469047Y-93697619D01*
X54492857Y-93745238D01*
X54516666Y-93840476D01*
X54516666Y-93911904D01*
X54492857Y-94007142D01*
X54469047Y-94054761D01*
X54421428Y-94102380D01*
X54350000Y-94126190D01*
X54230952Y-94126190D01*
X54707142Y-93673809D02*
X54730952Y-93650000D01*
X54778571Y-93626190D01*
X54897619Y-93626190D01*
X54945238Y-93650000D01*
X54969047Y-93673809D01*
X54992857Y-93721428D01*
X54992857Y-93769047D01*
X54969047Y-93840476D01*
X54683333Y-94126190D01*
X54992857Y-94126190D01*
X68078571Y-77278571D02*
X68054761Y-77302380D01*
X67983333Y-77326190D01*
X67935714Y-77326190D01*
X67864285Y-77302380D01*
X67816666Y-77254761D01*
X67792857Y-77207142D01*
X67769047Y-77111904D01*
X67769047Y-77040476D01*
X67792857Y-76945238D01*
X67816666Y-76897619D01*
X67864285Y-76850000D01*
X67935714Y-76826190D01*
X67983333Y-76826190D01*
X68054761Y-76850000D01*
X68078571Y-76873809D01*
X68554761Y-77326190D02*
X68269047Y-77326190D01*
X68411904Y-77326190D02*
X68411904Y-76826190D01*
X68364285Y-76897619D01*
X68316666Y-76945238D01*
X68269047Y-76969047D01*
X68840476Y-77040476D02*
X68792857Y-77016666D01*
X68769047Y-76992857D01*
X68745238Y-76945238D01*
X68745238Y-76921428D01*
X68769047Y-76873809D01*
X68792857Y-76850000D01*
X68840476Y-76826190D01*
X68935714Y-76826190D01*
X68983333Y-76850000D01*
X69007142Y-76873809D01*
X69030952Y-76921428D01*
X69030952Y-76945238D01*
X69007142Y-76992857D01*
X68983333Y-77016666D01*
X68935714Y-77040476D01*
X68840476Y-77040476D01*
X68792857Y-77064285D01*
X68769047Y-77088095D01*
X68745238Y-77135714D01*
X68745238Y-77230952D01*
X68769047Y-77278571D01*
X68792857Y-77302380D01*
X68840476Y-77326190D01*
X68935714Y-77326190D01*
X68983333Y-77302380D01*
X69007142Y-77278571D01*
X69030952Y-77230952D01*
X69030952Y-77135714D01*
X69007142Y-77088095D01*
X68983333Y-77064285D01*
X68935714Y-77040476D01*
D11*
X129348095Y-68682380D02*
X129919523Y-68682380D01*
X129633809Y-69682380D02*
X129633809Y-68682380D01*
X130252857Y-69682380D02*
X130252857Y-68682380D01*
X130633809Y-68682380D01*
X130729047Y-68730000D01*
X130776666Y-68777619D01*
X130824285Y-68872857D01*
X130824285Y-69015714D01*
X130776666Y-69110952D01*
X130729047Y-69158571D01*
X130633809Y-69206190D01*
X130252857Y-69206190D01*
X131157619Y-68682380D02*
X131824285Y-68682380D01*
X131395714Y-69682380D01*
D13*
X81278571Y-63878571D02*
X81254761Y-63902380D01*
X81183333Y-63926190D01*
X81135714Y-63926190D01*
X81064285Y-63902380D01*
X81016666Y-63854761D01*
X80992857Y-63807142D01*
X80969047Y-63711904D01*
X80969047Y-63640476D01*
X80992857Y-63545238D01*
X81016666Y-63497619D01*
X81064285Y-63450000D01*
X81135714Y-63426190D01*
X81183333Y-63426190D01*
X81254761Y-63450000D01*
X81278571Y-63473809D01*
X81707142Y-63426190D02*
X81611904Y-63426190D01*
X81564285Y-63450000D01*
X81540476Y-63473809D01*
X81492857Y-63545238D01*
X81469047Y-63640476D01*
X81469047Y-63830952D01*
X81492857Y-63878571D01*
X81516666Y-63902380D01*
X81564285Y-63926190D01*
X81659523Y-63926190D01*
X81707142Y-63902380D01*
X81730952Y-63878571D01*
X81754761Y-63830952D01*
X81754761Y-63711904D01*
X81730952Y-63664285D01*
X81707142Y-63640476D01*
X81659523Y-63616666D01*
X81564285Y-63616666D01*
X81516666Y-63640476D01*
X81492857Y-63664285D01*
X81469047Y-63711904D01*
X82040476Y-63640476D02*
X81992857Y-63616666D01*
X81969047Y-63592857D01*
X81945238Y-63545238D01*
X81945238Y-63521428D01*
X81969047Y-63473809D01*
X81992857Y-63450000D01*
X82040476Y-63426190D01*
X82135714Y-63426190D01*
X82183333Y-63450000D01*
X82207142Y-63473809D01*
X82230952Y-63521428D01*
X82230952Y-63545238D01*
X82207142Y-63592857D01*
X82183333Y-63616666D01*
X82135714Y-63640476D01*
X82040476Y-63640476D01*
X81992857Y-63664285D01*
X81969047Y-63688095D01*
X81945238Y-63735714D01*
X81945238Y-63830952D01*
X81969047Y-63878571D01*
X81992857Y-63902380D01*
X82040476Y-63926190D01*
X82135714Y-63926190D01*
X82183333Y-63902380D01*
X82207142Y-63878571D01*
X82230952Y-63830952D01*
X82230952Y-63735714D01*
X82207142Y-63688095D01*
X82183333Y-63664285D01*
X82135714Y-63640476D01*
X93823452Y-94756190D02*
X93823452Y-94256190D01*
X93942500Y-94256190D01*
X94013928Y-94280000D01*
X94061547Y-94327619D01*
X94085357Y-94375238D01*
X94109166Y-94470476D01*
X94109166Y-94541904D01*
X94085357Y-94637142D01*
X94061547Y-94684761D01*
X94013928Y-94732380D01*
X93942500Y-94756190D01*
X93823452Y-94756190D01*
X94275833Y-94256190D02*
X94585357Y-94256190D01*
X94418690Y-94446666D01*
X94490119Y-94446666D01*
X94537738Y-94470476D01*
X94561547Y-94494285D01*
X94585357Y-94541904D01*
X94585357Y-94660952D01*
X94561547Y-94708571D01*
X94537738Y-94732380D01*
X94490119Y-94756190D01*
X94347261Y-94756190D01*
X94299642Y-94732380D01*
X94275833Y-94708571D01*
X77461904Y-57888095D02*
X77461904Y-58126190D01*
X77295238Y-57626190D02*
X77461904Y-57888095D01*
X77628571Y-57626190D01*
X78057142Y-58126190D02*
X77771428Y-58126190D01*
X77914285Y-58126190D02*
X77914285Y-57626190D01*
X77866666Y-57697619D01*
X77819047Y-57745238D01*
X77771428Y-57769047D01*
X54316666Y-82926190D02*
X54150000Y-82688095D01*
X54030952Y-82926190D02*
X54030952Y-82426190D01*
X54221428Y-82426190D01*
X54269047Y-82450000D01*
X54292857Y-82473809D01*
X54316666Y-82521428D01*
X54316666Y-82592857D01*
X54292857Y-82640476D01*
X54269047Y-82664285D01*
X54221428Y-82688095D01*
X54030952Y-82688095D01*
X54745238Y-82592857D02*
X54745238Y-82926190D01*
X54626190Y-82402380D02*
X54507142Y-82759523D01*
X54816666Y-82759523D01*
D11*
X43178095Y-70582380D02*
X43749523Y-70582380D01*
X43463809Y-71582380D02*
X43463809Y-70582380D01*
X44082857Y-71582380D02*
X44082857Y-70582380D01*
X44463809Y-70582380D01*
X44559047Y-70630000D01*
X44606666Y-70677619D01*
X44654285Y-70772857D01*
X44654285Y-70915714D01*
X44606666Y-71010952D01*
X44559047Y-71058571D01*
X44463809Y-71106190D01*
X44082857Y-71106190D01*
X45606666Y-71582380D02*
X45035238Y-71582380D01*
X45320952Y-71582380D02*
X45320952Y-70582380D01*
X45225714Y-70725238D01*
X45130476Y-70820476D01*
X45035238Y-70868095D01*
D13*
X112361904Y-59588095D02*
X112361904Y-59826190D01*
X112195238Y-59326190D02*
X112361904Y-59588095D01*
X112528571Y-59326190D01*
X112909523Y-59492857D02*
X112909523Y-59826190D01*
X112790476Y-59302380D02*
X112671428Y-59659523D01*
X112980952Y-59659523D01*
X81096071Y-83926190D02*
X80929404Y-83688095D01*
X80810357Y-83926190D02*
X80810357Y-83426190D01*
X81000833Y-83426190D01*
X81048452Y-83450000D01*
X81072261Y-83473809D01*
X81096071Y-83521428D01*
X81096071Y-83592857D01*
X81072261Y-83640476D01*
X81048452Y-83664285D01*
X81000833Y-83688095D01*
X80810357Y-83688095D01*
X81572261Y-83926190D02*
X81286547Y-83926190D01*
X81429404Y-83926190D02*
X81429404Y-83426190D01*
X81381785Y-83497619D01*
X81334166Y-83545238D01*
X81286547Y-83569047D01*
X81738928Y-83426190D02*
X82072261Y-83426190D01*
X81857976Y-83926190D01*
X74784166Y-64678571D02*
X74760357Y-64702380D01*
X74688928Y-64726190D01*
X74641309Y-64726190D01*
X74569880Y-64702380D01*
X74522261Y-64654761D01*
X74498452Y-64607142D01*
X74474642Y-64511904D01*
X74474642Y-64440476D01*
X74498452Y-64345238D01*
X74522261Y-64297619D01*
X74569880Y-64250000D01*
X74641309Y-64226190D01*
X74688928Y-64226190D01*
X74760357Y-64250000D01*
X74784166Y-64273809D01*
X75069880Y-64440476D02*
X75022261Y-64416666D01*
X74998452Y-64392857D01*
X74974642Y-64345238D01*
X74974642Y-64321428D01*
X74998452Y-64273809D01*
X75022261Y-64250000D01*
X75069880Y-64226190D01*
X75165119Y-64226190D01*
X75212738Y-64250000D01*
X75236547Y-64273809D01*
X75260357Y-64321428D01*
X75260357Y-64345238D01*
X75236547Y-64392857D01*
X75212738Y-64416666D01*
X75165119Y-64440476D01*
X75069880Y-64440476D01*
X75022261Y-64464285D01*
X74998452Y-64488095D01*
X74974642Y-64535714D01*
X74974642Y-64630952D01*
X74998452Y-64678571D01*
X75022261Y-64702380D01*
X75069880Y-64726190D01*
X75165119Y-64726190D01*
X75212738Y-64702380D01*
X75236547Y-64678571D01*
X75260357Y-64630952D01*
X75260357Y-64535714D01*
X75236547Y-64488095D01*
X75212738Y-64464285D01*
X75165119Y-64440476D01*
X108778571Y-65678571D02*
X108754761Y-65702380D01*
X108683333Y-65726190D01*
X108635714Y-65726190D01*
X108564285Y-65702380D01*
X108516666Y-65654761D01*
X108492857Y-65607142D01*
X108469047Y-65511904D01*
X108469047Y-65440476D01*
X108492857Y-65345238D01*
X108516666Y-65297619D01*
X108564285Y-65250000D01*
X108635714Y-65226190D01*
X108683333Y-65226190D01*
X108754761Y-65250000D01*
X108778571Y-65273809D01*
X109230952Y-65226190D02*
X108992857Y-65226190D01*
X108969047Y-65464285D01*
X108992857Y-65440476D01*
X109040476Y-65416666D01*
X109159523Y-65416666D01*
X109207142Y-65440476D01*
X109230952Y-65464285D01*
X109254761Y-65511904D01*
X109254761Y-65630952D01*
X109230952Y-65678571D01*
X109207142Y-65702380D01*
X109159523Y-65726190D01*
X109040476Y-65726190D01*
X108992857Y-65702380D01*
X108969047Y-65678571D01*
X109421428Y-65226190D02*
X109730952Y-65226190D01*
X109564285Y-65416666D01*
X109635714Y-65416666D01*
X109683333Y-65440476D01*
X109707142Y-65464285D01*
X109730952Y-65511904D01*
X109730952Y-65630952D01*
X109707142Y-65678571D01*
X109683333Y-65702380D01*
X109635714Y-65726190D01*
X109492857Y-65726190D01*
X109445238Y-65702380D01*
X109421428Y-65678571D01*
X123916666Y-54478571D02*
X123892857Y-54502380D01*
X123821428Y-54526190D01*
X123773809Y-54526190D01*
X123702380Y-54502380D01*
X123654761Y-54454761D01*
X123630952Y-54407142D01*
X123607142Y-54311904D01*
X123607142Y-54240476D01*
X123630952Y-54145238D01*
X123654761Y-54097619D01*
X123702380Y-54050000D01*
X123773809Y-54026190D01*
X123821428Y-54026190D01*
X123892857Y-54050000D01*
X123916666Y-54073809D01*
X124083333Y-54026190D02*
X124416666Y-54026190D01*
X124202380Y-54526190D01*
X117453571Y-56768690D02*
X117286904Y-56530595D01*
X117167857Y-56768690D02*
X117167857Y-56268690D01*
X117358333Y-56268690D01*
X117405952Y-56292500D01*
X117429761Y-56316309D01*
X117453571Y-56363928D01*
X117453571Y-56435357D01*
X117429761Y-56482976D01*
X117405952Y-56506785D01*
X117358333Y-56530595D01*
X117167857Y-56530595D01*
X117644047Y-56316309D02*
X117667857Y-56292500D01*
X117715476Y-56268690D01*
X117834523Y-56268690D01*
X117882142Y-56292500D01*
X117905952Y-56316309D01*
X117929761Y-56363928D01*
X117929761Y-56411547D01*
X117905952Y-56482976D01*
X117620238Y-56768690D01*
X117929761Y-56768690D01*
X118358333Y-56268690D02*
X118263095Y-56268690D01*
X118215476Y-56292500D01*
X118191666Y-56316309D01*
X118144047Y-56387738D01*
X118120238Y-56482976D01*
X118120238Y-56673452D01*
X118144047Y-56721071D01*
X118167857Y-56744880D01*
X118215476Y-56768690D01*
X118310714Y-56768690D01*
X118358333Y-56744880D01*
X118382142Y-56721071D01*
X118405952Y-56673452D01*
X118405952Y-56554404D01*
X118382142Y-56506785D01*
X118358333Y-56482976D01*
X118310714Y-56459166D01*
X118215476Y-56459166D01*
X118167857Y-56482976D01*
X118144047Y-56506785D01*
X118120238Y-56554404D01*
X126313571Y-90443690D02*
X126146904Y-90205595D01*
X126027857Y-90443690D02*
X126027857Y-89943690D01*
X126218333Y-89943690D01*
X126265952Y-89967500D01*
X126289761Y-89991309D01*
X126313571Y-90038928D01*
X126313571Y-90110357D01*
X126289761Y-90157976D01*
X126265952Y-90181785D01*
X126218333Y-90205595D01*
X126027857Y-90205595D01*
X126504047Y-89991309D02*
X126527857Y-89967500D01*
X126575476Y-89943690D01*
X126694523Y-89943690D01*
X126742142Y-89967500D01*
X126765952Y-89991309D01*
X126789761Y-90038928D01*
X126789761Y-90086547D01*
X126765952Y-90157976D01*
X126480238Y-90443690D01*
X126789761Y-90443690D01*
X127265952Y-90443690D02*
X126980238Y-90443690D01*
X127123095Y-90443690D02*
X127123095Y-89943690D01*
X127075476Y-90015119D01*
X127027857Y-90062738D01*
X126980238Y-90086547D01*
D14*
X113705000Y-64230000D02*
G75*
G03*
X113705000Y-64230000I-700000J0D01*
G01*
X53525000Y-96390000D02*
X53525000Y-94090000D01*
X50325000Y-94790000D02*
X50325000Y-96390000D01*
X94827500Y-97872224D02*
X94827500Y-97362776D01*
X93782500Y-97872224D02*
X93782500Y-97362776D01*
X114305000Y-68130000D02*
G75*
G03*
X114305000Y-68130000I-700000J0D01*
G01*
X97470000Y-73140000D02*
G75*
G03*
X97470000Y-73140000I-1700000J0D01*
G01*
X118170000Y-48447000D02*
X116840000Y-48447000D01*
X85030000Y-43247000D02*
X85030000Y-48447000D01*
X118170000Y-45847000D02*
X115570000Y-45847000D01*
X118170000Y-43247000D02*
X85030000Y-43247000D01*
X115570000Y-45847000D02*
X115570000Y-48447000D01*
X118170000Y-43247000D02*
X118170000Y-45847000D01*
X115570000Y-48447000D02*
X85030000Y-48447000D01*
X118170000Y-47117000D02*
X118170000Y-48447000D01*
X131705000Y-63010000D02*
X131705000Y-61760000D01*
X127405000Y-59120000D02*
X127405000Y-59115000D01*
X131466000Y-62770000D02*
X131466000Y-61600000D01*
X130215000Y-63010000D02*
X131705000Y-63010000D01*
X126345000Y-57122000D02*
X126345000Y-56097000D01*
X126345000Y-59120000D02*
X126345000Y-58597000D01*
X128405000Y-62360000D02*
X128405000Y-61600000D01*
X128405000Y-57024000D02*
X128405000Y-56195000D01*
X127405000Y-62360000D02*
X128405000Y-62360000D01*
X126345000Y-62770000D02*
X126345000Y-61600000D01*
X128405000Y-59120000D02*
X128405000Y-58695000D01*
X127405000Y-62360000D02*
X127405000Y-61600000D01*
X128505000Y-54650000D02*
X129405000Y-54650000D01*
X131466000Y-59120000D02*
X131466000Y-58695000D01*
X126345000Y-62770000D02*
X131466000Y-62770000D01*
X131466000Y-57024000D02*
X131466000Y-56195000D01*
X130967000Y-59135000D02*
G75*
G03*
X130993343Y-59015712I-962500J275100D01*
G01*
X129250000Y-55703000D02*
G75*
G03*
X129416303Y-57169388I755000J-657000D01*
G01*
X129250000Y-58203000D02*
G75*
G03*
X129272680Y-59542189I755000J-657000D01*
G01*
X129273000Y-60678000D02*
G75*
G03*
X130979931Y-61584629I732000J-682000D01*
G01*
X130956999Y-56669000D02*
G75*
G03*
X130993618Y-56516270I-952799J309200D01*
G01*
X89082500Y-87087776D02*
X89082500Y-87597224D01*
X90127500Y-87087776D02*
X90127500Y-87597224D01*
X128382500Y-70975276D02*
X128382500Y-71484724D01*
X129427500Y-70975276D02*
X129427500Y-71484724D01*
X109558733Y-57740000D02*
X109851267Y-57740000D01*
X109558733Y-56720000D02*
X109851267Y-56720000D01*
X127105000Y-75730000D02*
G75*
G03*
X127105000Y-75730000I-1700000J0D01*
G01*
X46105000Y-92030000D02*
G75*
G03*
X46105000Y-92030000I-1700000J0D01*
G01*
X71340000Y-73968748D02*
X71340000Y-74491252D01*
X69870000Y-73968748D02*
X69870000Y-74491252D01*
X69065000Y-68190000D02*
X69765000Y-68190000D01*
X55545000Y-68190000D02*
X55545000Y-67490000D01*
X69065000Y-53970000D02*
X69765000Y-53970000D01*
X56245000Y-68190000D02*
X55545000Y-68190000D01*
X69765000Y-68190000D02*
X69765000Y-67490000D01*
X55545000Y-53970000D02*
X55545000Y-54670000D01*
X69765000Y-53970000D02*
X69765000Y-54670000D01*
X56245000Y-53970000D02*
X55545000Y-53970000D01*
X69765000Y-67490000D02*
X71130000Y-67490000D01*
X90053752Y-99020000D02*
X88631248Y-99020000D01*
X90053752Y-100840000D02*
X88631248Y-100840000D01*
X77340000Y-71631248D02*
X77340000Y-72153752D01*
X75870000Y-71631248D02*
X75870000Y-72153752D01*
X61755000Y-88030000D02*
X57255000Y-88030000D01*
X57255000Y-88030000D02*
X57255000Y-93430000D01*
X59651267Y-93820000D02*
X59358733Y-93820000D01*
X59651267Y-94840000D02*
X59358733Y-94840000D01*
X45358733Y-55820000D02*
X45651267Y-55820000D01*
X45358733Y-56840000D02*
X45651267Y-56840000D01*
X55327500Y-70775276D02*
X55327500Y-71284724D01*
X54282500Y-70775276D02*
X54282500Y-71284724D01*
X89927500Y-83572224D02*
X89927500Y-83062776D01*
X88882500Y-83572224D02*
X88882500Y-83062776D01*
X52053752Y-100020000D02*
X50631248Y-100020000D01*
X52053752Y-101840000D02*
X50631248Y-101840000D01*
X122859724Y-89852500D02*
X122350276Y-89852500D01*
X122859724Y-88807500D02*
X122350276Y-88807500D01*
X120482500Y-59572224D02*
X120482500Y-59062776D01*
X121527500Y-59572224D02*
X121527500Y-59062776D01*
X56446233Y-81740000D02*
X56738767Y-81740000D01*
X56446233Y-80720000D02*
X56738767Y-80720000D01*
X64495000Y-83720000D02*
X63795000Y-83720000D01*
X78015000Y-83720000D02*
X78015000Y-84420000D01*
X63795000Y-83720000D02*
X63795000Y-84420000D01*
X63795000Y-84420000D02*
X62430000Y-84420000D01*
X63795000Y-97940000D02*
X63795000Y-97240000D01*
X78015000Y-97940000D02*
X78015000Y-97240000D01*
X77315000Y-97940000D02*
X78015000Y-97940000D01*
X77315000Y-83720000D02*
X78015000Y-83720000D01*
X64495000Y-97940000D02*
X63795000Y-97940000D01*
X56627500Y-96997224D02*
X56627500Y-96487776D01*
X55582500Y-96997224D02*
X55582500Y-96487776D01*
X122227500Y-81662776D02*
X122227500Y-82172224D01*
X121182500Y-81662776D02*
X121182500Y-82172224D01*
X111831248Y-70120000D02*
X113253752Y-70120000D01*
X111831248Y-71940000D02*
X113253752Y-71940000D01*
X73105000Y-74030000D02*
X74955000Y-74030000D01*
X73105000Y-75230000D02*
X74955000Y-75230000D01*
X74955000Y-75230000D02*
X74955000Y-74030000D01*
X127427500Y-70975276D02*
X127427500Y-71484724D01*
X126382500Y-70975276D02*
X126382500Y-71484724D01*
X43355000Y-56330000D02*
G75*
G03*
X43355000Y-56330000I-700000J0D01*
G01*
X85030000Y-107170000D02*
X87630000Y-107170000D01*
X85030000Y-104570000D02*
X86360000Y-104570000D01*
X85030000Y-105900000D02*
X85030000Y-104570000D01*
X118170000Y-109770000D02*
X118170000Y-104570000D01*
X85030000Y-109770000D02*
X85030000Y-107170000D01*
X85030000Y-109770000D02*
X118170000Y-109770000D01*
X87630000Y-104570000D02*
X118170000Y-104570000D01*
X87630000Y-107170000D02*
X87630000Y-104570000D01*
X74658733Y-55620000D02*
X74951267Y-55620000D01*
X74658733Y-56640000D02*
X74951267Y-56640000D01*
X80005000Y-58530000D02*
X80005000Y-60130000D01*
X83205000Y-60130000D02*
X83205000Y-57830000D01*
X81866252Y-56965000D02*
X81343748Y-56965000D01*
X81866252Y-55495000D02*
X81343748Y-55495000D01*
X59227500Y-76475276D02*
X59227500Y-76984724D01*
X58182500Y-76475276D02*
X58182500Y-76984724D01*
X83345000Y-84830000D02*
X83345000Y-88280000D01*
X88465000Y-84830000D02*
X88465000Y-86780000D01*
X83345000Y-84830000D02*
X83345000Y-82880000D01*
X88465000Y-84830000D02*
X88465000Y-82880000D01*
X132105000Y-75730000D02*
G75*
G03*
X132105000Y-75730000I-1700000J0D01*
G01*
X118605000Y-66690000D02*
X116655000Y-66690000D01*
X118605000Y-66690000D02*
X120555000Y-66690000D01*
X118605000Y-61570000D02*
X115155000Y-61570000D01*
X118605000Y-61570000D02*
X120555000Y-61570000D01*
X52186252Y-93065000D02*
X51663748Y-93065000D01*
X52186252Y-91595000D02*
X51663748Y-91595000D01*
X97651267Y-92640000D02*
X97358733Y-92640000D01*
X97651267Y-91620000D02*
X97358733Y-91620000D01*
X59645000Y-75130000D02*
X59645000Y-73180000D01*
X59645000Y-75130000D02*
X59645000Y-77080000D01*
X64765000Y-75130000D02*
X64765000Y-77080000D01*
X64765000Y-75130000D02*
X64765000Y-71680000D01*
X120037776Y-68152500D02*
X120547224Y-68152500D01*
X120037776Y-67107500D02*
X120547224Y-67107500D01*
X102595000Y-82220000D02*
X101895000Y-82220000D01*
X115415000Y-96440000D02*
X116115000Y-96440000D01*
X115415000Y-82220000D02*
X116115000Y-82220000D01*
X101895000Y-82920000D02*
X100530000Y-82920000D01*
X101895000Y-96440000D02*
X101895000Y-95740000D01*
X101895000Y-82220000D02*
X101895000Y-82920000D01*
X116115000Y-96440000D02*
X116115000Y-95740000D01*
X116115000Y-82220000D02*
X116115000Y-82920000D01*
X102595000Y-96440000D02*
X101895000Y-96440000D01*
X45250276Y-58352500D02*
X45759724Y-58352500D01*
X45250276Y-57307500D02*
X45759724Y-57307500D01*
X81350276Y-80552500D02*
X81859724Y-80552500D01*
X81350276Y-79507500D02*
X81859724Y-79507500D01*
X90128752Y-98265000D02*
X89606248Y-98265000D01*
X90128752Y-96795000D02*
X89606248Y-96795000D01*
X44927500Y-78384724D02*
X44927500Y-77875276D01*
X43882500Y-78384724D02*
X43882500Y-77875276D01*
X46105000Y-82830000D02*
G75*
G03*
X46105000Y-82830000I-1700000J0D01*
G01*
X72545000Y-73730000D02*
X74845000Y-73730000D01*
X74145000Y-70530000D02*
X72545000Y-70530000D01*
X115727500Y-58684724D02*
X115727500Y-58175276D01*
X114682500Y-58684724D02*
X114682500Y-58175276D01*
X99755000Y-85830000D02*
X95255000Y-85830000D01*
X95255000Y-85830000D02*
X95255000Y-91230000D01*
X127105000Y-66730000D02*
G75*
G03*
X127105000Y-66730000I-1700000J0D01*
G01*
X129615000Y-84583733D02*
X129615000Y-84876267D01*
X128595000Y-84583733D02*
X128595000Y-84876267D01*
X48835000Y-104570000D02*
X50165000Y-104570000D01*
X48835000Y-105900000D02*
X48835000Y-104570000D01*
X48835000Y-109770000D02*
X48835000Y-107170000D01*
X48835000Y-109770000D02*
X81975000Y-109770000D01*
X51435000Y-107170000D02*
X51435000Y-104570000D01*
X81975000Y-109770000D02*
X81975000Y-104570000D01*
X51435000Y-104570000D02*
X81975000Y-104570000D01*
X48835000Y-107170000D02*
X51435000Y-107170000D01*
X52186252Y-99165000D02*
X51663748Y-99165000D01*
X52186252Y-97695000D02*
X51663748Y-97695000D01*
X127765000Y-84330000D02*
X127765000Y-82380000D01*
X122645000Y-84330000D02*
X122645000Y-87780000D01*
X122645000Y-84330000D02*
X122645000Y-82380000D01*
X127765000Y-84330000D02*
X127765000Y-86280000D01*
X99959724Y-73652500D02*
X99450276Y-73652500D01*
X99959724Y-72607500D02*
X99450276Y-72607500D01*
D11*
X45055000Y-60980000D02*
X43655000Y-60980000D01*
X43655000Y-69280000D02*
X45055000Y-69280000D01*
X41105000Y-69280000D02*
X41255000Y-69280000D01*
X41255000Y-60980000D02*
X41105000Y-60980000D01*
X47230000Y-63330000D02*
X46805000Y-63330000D01*
X41105000Y-68980000D02*
X41105000Y-69280000D01*
X46805000Y-66930000D02*
X46805000Y-67655000D01*
X46805000Y-63330000D02*
X46805000Y-62605000D01*
X41105000Y-61280000D02*
X40655000Y-61280000D01*
X47230000Y-64055000D02*
X47230000Y-63330000D01*
X41105000Y-60980000D02*
X41105000Y-61280000D01*
X40655000Y-68980000D02*
X41105000Y-68980000D01*
D14*
X128582500Y-81672224D02*
X128582500Y-81162776D01*
X129627500Y-81672224D02*
X129627500Y-81162776D01*
X91495000Y-68940000D02*
X90795000Y-68940000D01*
X104315000Y-54720000D02*
X105015000Y-54720000D01*
X90795000Y-54720000D02*
X90795000Y-55420000D01*
X105015000Y-54720000D02*
X105015000Y-55420000D01*
X104315000Y-68940000D02*
X105015000Y-68940000D01*
X105015000Y-68240000D02*
X106380000Y-68240000D01*
X105015000Y-68940000D02*
X105015000Y-68240000D01*
X91495000Y-54720000D02*
X90795000Y-54720000D01*
X90795000Y-68940000D02*
X90795000Y-68240000D01*
X79375000Y-48447000D02*
X48835000Y-48447000D01*
X81975000Y-45847000D02*
X79375000Y-45847000D01*
X81975000Y-47117000D02*
X81975000Y-48447000D01*
X48835000Y-43247000D02*
X48835000Y-48447000D01*
X79375000Y-45847000D02*
X79375000Y-48447000D01*
X81975000Y-43247000D02*
X48835000Y-43247000D01*
X81975000Y-48447000D02*
X80645000Y-48447000D01*
X81975000Y-43247000D02*
X81975000Y-45847000D01*
X97358733Y-84420000D02*
X97651267Y-84420000D01*
X97358733Y-85440000D02*
X97651267Y-85440000D01*
X125147500Y-52225276D02*
X125147500Y-52734724D01*
X126192500Y-52225276D02*
X126192500Y-52734724D01*
X90166252Y-91965000D02*
X89643748Y-91965000D01*
X90166252Y-90495000D02*
X89643748Y-90495000D01*
X52782500Y-71309724D02*
X52782500Y-70800276D01*
X53827500Y-71309724D02*
X53827500Y-70800276D01*
X56847224Y-79207500D02*
X56337776Y-79207500D01*
X56847224Y-80252500D02*
X56337776Y-80252500D01*
X105280000Y-73230000D02*
G75*
G03*
X105280000Y-73230000I-1700000J0D01*
G01*
X83159724Y-68952500D02*
X82650276Y-68952500D01*
X83159724Y-67907500D02*
X82650276Y-67907500D01*
X84905000Y-61930000D02*
X84905000Y-60080000D01*
X83705000Y-61930000D02*
X83705000Y-60080000D01*
X84905000Y-60080000D02*
X83705000Y-60080000D01*
X91492500Y-95330000D02*
X91492500Y-93030000D01*
X88292500Y-93730000D02*
X88292500Y-95330000D01*
X122762500Y-52782224D02*
X122762500Y-52272776D01*
X121717500Y-52782224D02*
X121717500Y-52272776D01*
X73759724Y-77352500D02*
X73250276Y-77352500D01*
X73759724Y-76307500D02*
X73250276Y-76307500D01*
X59421233Y-86620000D02*
X59713767Y-86620000D01*
X59421233Y-87640000D02*
X59713767Y-87640000D01*
X66827500Y-73962776D02*
X66827500Y-74472224D01*
X65782500Y-73962776D02*
X65782500Y-74472224D01*
X120196233Y-68620000D02*
X120488767Y-68620000D01*
X120196233Y-69640000D02*
X120488767Y-69640000D01*
X54005000Y-96290000D02*
X54005000Y-94440000D01*
X55205000Y-94440000D02*
X54005000Y-94440000D01*
X55205000Y-96290000D02*
X55205000Y-94440000D01*
X67495000Y-73418748D02*
X67495000Y-74841252D01*
X69315000Y-73418748D02*
X69315000Y-74841252D01*
X132105000Y-66730000D02*
G75*
G03*
X132105000Y-66730000I-1700000J0D01*
G01*
X81866252Y-63065000D02*
X81343748Y-63065000D01*
X81866252Y-61595000D02*
X81343748Y-61595000D01*
X92292500Y-95230000D02*
X92292500Y-93380000D01*
X93492500Y-95230000D02*
X93492500Y-93380000D01*
X93492500Y-93380000D02*
X92292500Y-93380000D01*
X72555000Y-62430000D02*
X77055000Y-62430000D01*
X77055000Y-62430000D02*
X77055000Y-57030000D01*
X56362776Y-83252500D02*
X56872224Y-83252500D01*
X56362776Y-82207500D02*
X56872224Y-82207500D01*
X46105000Y-73580000D02*
G75*
G03*
X46105000Y-73580000I-1700000J0D01*
G01*
X107455000Y-63530000D02*
X111955000Y-63530000D01*
X111955000Y-63530000D02*
X111955000Y-58130000D01*
X81672224Y-82007500D02*
X81162776Y-82007500D01*
X81672224Y-83052500D02*
X81162776Y-83052500D01*
X75013767Y-62820000D02*
X74721233Y-62820000D01*
X75013767Y-63840000D02*
X74721233Y-63840000D01*
X109851267Y-63920000D02*
X109558733Y-63920000D01*
X109851267Y-64940000D02*
X109558733Y-64940000D01*
X123530000Y-52498767D02*
X123530000Y-52206233D01*
X124550000Y-52498767D02*
X124550000Y-52206233D01*
X119727500Y-56797224D02*
X119727500Y-56287776D01*
X118682500Y-56797224D02*
X118682500Y-56287776D01*
X124682500Y-89962776D02*
X124682500Y-90472224D01*
X125727500Y-89962776D02*
X125727500Y-90472224D01*
M02*
