G04 #@! TF.GenerationSoftware,KiCad,Pcbnew,7.0.9*
G04 #@! TF.CreationDate,2024-12-23T13:01:37-05:00*
G04 #@! TF.ProjectId,ramn,72616d6e-2e6b-4696-9361-645f70636258,rev?*
G04 #@! TF.SameCoordinates,Original*
G04 #@! TF.FileFunction,Paste,Top*
G04 #@! TF.FilePolarity,Positive*
%FSLAX46Y46*%
G04 Gerber Fmt 4.6, Leading zero omitted, Abs format (unit mm)*
G04 Created by KiCad (PCBNEW 7.0.9) date 2024-12-23 13:01:37*
%MOMM*%
%LPD*%
G01*
G04 APERTURE LIST*
G04 Aperture macros list*
%AMRoundRect*
0 Rectangle with rounded corners*
0 $1 Rounding radius*
0 $2 $3 $4 $5 $6 $7 $8 $9 X,Y pos of 4 corners*
0 Add a 4 corners polygon primitive as box body*
4,1,4,$2,$3,$4,$5,$6,$7,$8,$9,$2,$3,0*
0 Add four circle primitives for the rounded corners*
1,1,$1+$1,$2,$3*
1,1,$1+$1,$4,$5*
1,1,$1+$1,$6,$7*
1,1,$1+$1,$8,$9*
0 Add four rect primitives between the rounded corners*
20,1,$1+$1,$2,$3,$4,$5,0*
20,1,$1+$1,$4,$5,$6,$7,0*
20,1,$1+$1,$6,$7,$8,$9,0*
20,1,$1+$1,$8,$9,$2,$3,0*%
G04 Aperture macros list end*
%ADD10RoundRect,0.200000X-0.200000X-0.275000X0.200000X-0.275000X0.200000X0.275000X-0.200000X0.275000X0*%
%ADD11RoundRect,0.225000X-0.225000X-0.250000X0.225000X-0.250000X0.225000X0.250000X-0.225000X0.250000X0*%
%ADD12R,0.700000X0.600000*%
%ADD13R,0.600000X0.700000*%
%ADD14RoundRect,0.249999X-0.650001X0.325001X-0.650001X-0.325001X0.650001X-0.325001X0.650001X0.325001X0*%
%ADD15RoundRect,0.249999X0.650001X-0.325001X0.650001X0.325001X-0.650001X0.325001X-0.650001X-0.325001X0*%
%ADD16RoundRect,0.249999X-0.325001X-0.650001X0.325001X-0.650001X0.325001X0.650001X-0.325001X0.650001X0*%
%ADD17RoundRect,0.200000X-0.275000X0.200000X-0.275000X-0.200000X0.275000X-0.200000X0.275000X0.200000X0*%
%ADD18RoundRect,0.200000X0.275000X-0.200000X0.275000X0.200000X-0.275000X0.200000X-0.275000X-0.200000X0*%
%ADD19RoundRect,0.218750X-0.256250X0.218750X-0.256250X-0.218750X0.256250X-0.218750X0.256250X0.218750X0*%
%ADD20RoundRect,0.218750X0.256250X-0.218750X0.256250X0.218750X-0.256250X0.218750X-0.256250X-0.218750X0*%
%ADD21RoundRect,0.075000X-0.662500X-0.075000X0.662500X-0.075000X0.662500X0.075000X-0.662500X0.075000X0*%
%ADD22RoundRect,0.075000X-0.075000X-0.662500X0.075000X-0.662500X0.075000X0.662500X-0.075000X0.662500X0*%
%ADD23R,2.700000X1.500000*%
%ADD24RoundRect,0.150000X-0.150000X0.825000X-0.150000X-0.825000X0.150000X-0.825000X0.150000X0.825000X0*%
%ADD25RoundRect,0.075000X0.075000X0.662500X-0.075000X0.662500X-0.075000X-0.662500X0.075000X-0.662500X0*%
%ADD26RoundRect,0.075000X0.662500X0.075000X-0.662500X0.075000X-0.662500X-0.075000X0.662500X-0.075000X0*%
%ADD27RoundRect,0.218750X0.218750X0.256250X-0.218750X0.256250X-0.218750X-0.256250X0.218750X-0.256250X0*%
%ADD28R,0.510000X0.700000*%
%ADD29RoundRect,0.150000X-0.825000X-0.150000X0.825000X-0.150000X0.825000X0.150000X-0.825000X0.150000X0*%
%ADD30RoundRect,0.250000X0.375000X0.625000X-0.375000X0.625000X-0.375000X-0.625000X0.375000X-0.625000X0*%
%ADD31RoundRect,0.218750X-0.218750X-0.256250X0.218750X-0.256250X0.218750X0.256250X-0.218750X0.256250X0*%
%ADD32RoundRect,0.150000X0.150000X-0.825000X0.150000X0.825000X-0.150000X0.825000X-0.150000X-0.825000X0*%
%ADD33RoundRect,0.250000X-0.375000X-0.625000X0.375000X-0.625000X0.375000X0.625000X-0.375000X0.625000X0*%
%ADD34R,0.700000X0.510000*%
%ADD35RoundRect,0.250000X-0.625000X0.375000X-0.625000X-0.375000X0.625000X-0.375000X0.625000X0.375000X0*%
%ADD36R,1.300000X0.450000*%
G04 APERTURE END LIST*
D10*
G04 #@! TO.C,R17*
X46291000Y-53086000D03*
X44641000Y-53086000D03*
G04 #@! TD*
D11*
G04 #@! TO.C,C43*
X46241000Y-51435000D03*
X44691000Y-51435000D03*
G04 #@! TD*
D12*
G04 #@! TO.C,D4*
X83820000Y-58355000D03*
X83820000Y-59755000D03*
G04 #@! TD*
G04 #@! TO.C,D3*
X89535000Y-86425000D03*
X89535000Y-85025000D03*
G04 #@! TD*
G04 #@! TO.C,D2*
X53086000Y-86425000D03*
X53086000Y-85025000D03*
G04 #@! TD*
D13*
G04 #@! TO.C,D1*
X68007000Y-64643000D03*
X69407000Y-64643000D03*
G04 #@! TD*
D14*
G04 #@! TO.C,C37*
X100330000Y-64340000D03*
X100330000Y-61390000D03*
G04 #@! TD*
D15*
G04 #@! TO.C,C27*
X99060000Y-75995000D03*
X99060000Y-78945000D03*
G04 #@! TD*
G04 #@! TO.C,C17*
X62865000Y-75995000D03*
X62865000Y-78945000D03*
G04 #@! TD*
D16*
G04 #@! TO.C,C7*
X67515000Y-61595000D03*
X64565000Y-61595000D03*
G04 #@! TD*
D17*
G04 #@! TO.C,R8*
X50292000Y-64453000D03*
X50292000Y-66103000D03*
G04 #@! TD*
D18*
G04 #@! TO.C,R9*
X51816000Y-66103000D03*
X51816000Y-64453000D03*
G04 #@! TD*
D19*
G04 #@! TO.C,R15*
X77470000Y-68097500D03*
X77470000Y-66522500D03*
G04 #@! TD*
D20*
G04 #@! TO.C,R13*
X96393000Y-77317500D03*
X96393000Y-78892500D03*
G04 #@! TD*
G04 #@! TO.C,R11*
X60071000Y-78892500D03*
X60071000Y-77317500D03*
G04 #@! TD*
D19*
G04 #@! TO.C,C19*
X74930000Y-88417500D03*
X74930000Y-86842500D03*
G04 #@! TD*
D21*
G04 #@! TO.C,U5*
X66322500Y-79165000D03*
X66322500Y-79665000D03*
X66322500Y-80165000D03*
X66322500Y-80665000D03*
X66322500Y-81165000D03*
X66322500Y-81665000D03*
X66322500Y-82165000D03*
X66322500Y-82665000D03*
X66322500Y-83165000D03*
X66322500Y-83665000D03*
X66322500Y-84165000D03*
X66322500Y-84665000D03*
D22*
X67735000Y-86077500D03*
X68235000Y-86077500D03*
X68735000Y-86077500D03*
X69235000Y-86077500D03*
X69735000Y-86077500D03*
X70235000Y-86077500D03*
X70735000Y-86077500D03*
X71235000Y-86077500D03*
X71735000Y-86077500D03*
X72235000Y-86077500D03*
X72735000Y-86077500D03*
X73235000Y-86077500D03*
D21*
X74647500Y-84665000D03*
X74647500Y-84165000D03*
X74647500Y-83665000D03*
X74647500Y-83165000D03*
X74647500Y-82665000D03*
X74647500Y-82165000D03*
X74647500Y-81665000D03*
X74647500Y-81165000D03*
X74647500Y-80665000D03*
X74647500Y-80165000D03*
X74647500Y-79665000D03*
X74647500Y-79165000D03*
D22*
X73235000Y-77752500D03*
X72735000Y-77752500D03*
X72235000Y-77752500D03*
X71735000Y-77752500D03*
X71235000Y-77752500D03*
X70735000Y-77752500D03*
X70235000Y-77752500D03*
X69735000Y-77752500D03*
X69235000Y-77752500D03*
X68735000Y-77752500D03*
X68235000Y-77752500D03*
X67735000Y-77752500D03*
G04 #@! TD*
D23*
G04 #@! TO.C,Y4*
X103505000Y-57465000D03*
X103505000Y-55565000D03*
G04 #@! TD*
G04 #@! TO.C,Y3*
X96520000Y-83378000D03*
X96520000Y-85278000D03*
G04 #@! TD*
G04 #@! TO.C,Y2*
X60325000Y-85278000D03*
X60325000Y-83378000D03*
G04 #@! TD*
G04 #@! TO.C,Y1*
X69215000Y-55565000D03*
X69215000Y-57465000D03*
G04 #@! TD*
D22*
G04 #@! TO.C,U8*
X103930000Y-77752500D03*
X104430000Y-77752500D03*
X104930000Y-77752500D03*
X105430000Y-77752500D03*
X105930000Y-77752500D03*
X106430000Y-77752500D03*
X106930000Y-77752500D03*
X107430000Y-77752500D03*
X107930000Y-77752500D03*
X108430000Y-77752500D03*
X108930000Y-77752500D03*
X109430000Y-77752500D03*
D21*
X110842500Y-79165000D03*
X110842500Y-79665000D03*
X110842500Y-80165000D03*
X110842500Y-80665000D03*
X110842500Y-81165000D03*
X110842500Y-81665000D03*
X110842500Y-82165000D03*
X110842500Y-82665000D03*
X110842500Y-83165000D03*
X110842500Y-83665000D03*
X110842500Y-84165000D03*
X110842500Y-84665000D03*
D22*
X109430000Y-86077500D03*
X108930000Y-86077500D03*
X108430000Y-86077500D03*
X107930000Y-86077500D03*
X107430000Y-86077500D03*
X106930000Y-86077500D03*
X106430000Y-86077500D03*
X105930000Y-86077500D03*
X105430000Y-86077500D03*
X104930000Y-86077500D03*
X104430000Y-86077500D03*
X103930000Y-86077500D03*
D21*
X102517500Y-84665000D03*
X102517500Y-84165000D03*
X102517500Y-83665000D03*
X102517500Y-83165000D03*
X102517500Y-82665000D03*
X102517500Y-82165000D03*
X102517500Y-81665000D03*
X102517500Y-81165000D03*
X102517500Y-80665000D03*
X102517500Y-80165000D03*
X102517500Y-79665000D03*
X102517500Y-79165000D03*
G04 #@! TD*
D24*
G04 #@! TO.C,U1*
X60071000Y-66486000D03*
X58801000Y-66486000D03*
X57531000Y-66486000D03*
X56261000Y-66486000D03*
X56261000Y-71436000D03*
X57531000Y-71436000D03*
X58801000Y-71436000D03*
X60071000Y-71436000D03*
G04 #@! TD*
D25*
G04 #@! TO.C,U2*
X60535000Y-61947500D03*
X60035000Y-61947500D03*
X59535000Y-61947500D03*
X59035000Y-61947500D03*
X58535000Y-61947500D03*
X58035000Y-61947500D03*
X57535000Y-61947500D03*
X57035000Y-61947500D03*
X56535000Y-61947500D03*
X56035000Y-61947500D03*
X55535000Y-61947500D03*
X55035000Y-61947500D03*
D26*
X53622500Y-60535000D03*
X53622500Y-60035000D03*
X53622500Y-59535000D03*
X53622500Y-59035000D03*
X53622500Y-58535000D03*
X53622500Y-58035000D03*
X53622500Y-57535000D03*
X53622500Y-57035000D03*
X53622500Y-56535000D03*
X53622500Y-56035000D03*
X53622500Y-55535000D03*
X53622500Y-55035000D03*
D25*
X55035000Y-53622500D03*
X55535000Y-53622500D03*
X56035000Y-53622500D03*
X56535000Y-53622500D03*
X57035000Y-53622500D03*
X57535000Y-53622500D03*
X58035000Y-53622500D03*
X58535000Y-53622500D03*
X59035000Y-53622500D03*
X59535000Y-53622500D03*
X60035000Y-53622500D03*
X60535000Y-53622500D03*
D26*
X61947500Y-55035000D03*
X61947500Y-55535000D03*
X61947500Y-56035000D03*
X61947500Y-56535000D03*
X61947500Y-57035000D03*
X61947500Y-57535000D03*
X61947500Y-58035000D03*
X61947500Y-58535000D03*
X61947500Y-59035000D03*
X61947500Y-59535000D03*
X61947500Y-60035000D03*
X61947500Y-60535000D03*
G04 #@! TD*
D27*
G04 #@! TO.C,R16*
X88112500Y-66675000D03*
X89687500Y-66675000D03*
G04 #@! TD*
D28*
G04 #@! TO.C,U12*
X82230000Y-60215000D03*
X80330000Y-60215000D03*
X80330000Y-57895000D03*
X81280000Y-57895000D03*
X82230000Y-57895000D03*
G04 #@! TD*
D25*
G04 #@! TO.C,U11*
X95460000Y-61947500D03*
X94960000Y-61947500D03*
X94460000Y-61947500D03*
X93960000Y-61947500D03*
X93460000Y-61947500D03*
X92960000Y-61947500D03*
X92460000Y-61947500D03*
X91960000Y-61947500D03*
X91460000Y-61947500D03*
X90960000Y-61947500D03*
X90460000Y-61947500D03*
X89960000Y-61947500D03*
D26*
X88547500Y-60535000D03*
X88547500Y-60035000D03*
X88547500Y-59535000D03*
X88547500Y-59035000D03*
X88547500Y-58535000D03*
X88547500Y-58035000D03*
X88547500Y-57535000D03*
X88547500Y-57035000D03*
X88547500Y-56535000D03*
X88547500Y-56035000D03*
X88547500Y-55535000D03*
X88547500Y-55035000D03*
D25*
X89960000Y-53622500D03*
X90460000Y-53622500D03*
X90960000Y-53622500D03*
X91460000Y-53622500D03*
X91960000Y-53622500D03*
X92460000Y-53622500D03*
X92960000Y-53622500D03*
X93460000Y-53622500D03*
X93960000Y-53622500D03*
X94460000Y-53622500D03*
X94960000Y-53622500D03*
X95460000Y-53622500D03*
D26*
X96872500Y-55035000D03*
X96872500Y-55535000D03*
X96872500Y-56035000D03*
X96872500Y-56535000D03*
X96872500Y-57035000D03*
X96872500Y-57535000D03*
X96872500Y-58035000D03*
X96872500Y-58535000D03*
X96872500Y-59035000D03*
X96872500Y-59535000D03*
X96872500Y-60035000D03*
X96872500Y-60535000D03*
G04 #@! TD*
D29*
G04 #@! TO.C,U10*
X114235000Y-58420000D03*
X114235000Y-59690000D03*
X114235000Y-60960000D03*
X114235000Y-62230000D03*
X109285000Y-62230000D03*
X109285000Y-60960000D03*
X109285000Y-59690000D03*
X109285000Y-58420000D03*
G04 #@! TD*
D20*
G04 #@! TO.C,R14*
X116840000Y-55727500D03*
X116840000Y-57302500D03*
G04 #@! TD*
D30*
G04 #@! TO.C,C42*
X80515000Y-62230000D03*
X83315000Y-62230000D03*
G04 #@! TD*
G04 #@! TO.C,C41*
X83315000Y-55880000D03*
X80515000Y-55880000D03*
G04 #@! TD*
D19*
G04 #@! TO.C,C40*
X97155000Y-64287500D03*
X97155000Y-62712500D03*
G04 #@! TD*
D20*
G04 #@! TO.C,C39*
X88265000Y-51282500D03*
X88265000Y-52857500D03*
G04 #@! TD*
G04 #@! TO.C,C38*
X100330000Y-54457500D03*
X100330000Y-56032500D03*
G04 #@! TD*
D31*
G04 #@! TO.C,C36*
X104292500Y-53467000D03*
X102717500Y-53467000D03*
G04 #@! TD*
G04 #@! TO.C,C35*
X104292500Y-59436000D03*
X102717500Y-59436000D03*
G04 #@! TD*
D27*
G04 #@! TO.C,C34*
X109067500Y-64135000D03*
X110642500Y-64135000D03*
G04 #@! TD*
G04 #@! TO.C,C33*
X112877500Y-64135000D03*
X114452500Y-64135000D03*
G04 #@! TD*
D28*
G04 #@! TO.C,U9*
X91125000Y-84565000D03*
X93025000Y-84565000D03*
X93025000Y-86885000D03*
X92075000Y-86885000D03*
X91125000Y-86885000D03*
G04 #@! TD*
D32*
G04 #@! TO.C,U7*
X116840000Y-76585000D03*
X118110000Y-76585000D03*
X119380000Y-76585000D03*
X120650000Y-76585000D03*
X120650000Y-81535000D03*
X119380000Y-81535000D03*
X118110000Y-81535000D03*
X116840000Y-81535000D03*
G04 #@! TD*
D19*
G04 #@! TO.C,R12*
X114935000Y-77622500D03*
X114935000Y-76047500D03*
G04 #@! TD*
D33*
G04 #@! TO.C,C32*
X92967000Y-82550000D03*
X90167000Y-82550000D03*
G04 #@! TD*
G04 #@! TO.C,C31*
X92967000Y-88900000D03*
X90167000Y-88900000D03*
G04 #@! TD*
D20*
G04 #@! TO.C,C30*
X102235000Y-75412500D03*
X102235000Y-76987500D03*
G04 #@! TD*
D19*
G04 #@! TO.C,C29*
X111125000Y-88417500D03*
X111125000Y-86842500D03*
G04 #@! TD*
G04 #@! TO.C,C28*
X99695000Y-85623500D03*
X99695000Y-84048500D03*
G04 #@! TD*
D27*
G04 #@! TO.C,C26*
X95732500Y-87249000D03*
X97307500Y-87249000D03*
G04 #@! TD*
G04 #@! TO.C,C25*
X95885000Y-81407000D03*
X97460000Y-81407000D03*
G04 #@! TD*
D19*
G04 #@! TO.C,C24*
X122555000Y-80492500D03*
X122555000Y-82067500D03*
G04 #@! TD*
D20*
G04 #@! TO.C,C23*
X122555000Y-76047500D03*
X122555000Y-77622500D03*
G04 #@! TD*
D19*
G04 #@! TO.C,R5*
X122301000Y-66522500D03*
X122301000Y-68097500D03*
G04 #@! TD*
G04 #@! TO.C,R4*
X120396000Y-66522500D03*
X120396000Y-68097500D03*
G04 #@! TD*
D28*
G04 #@! TO.C,U6*
X54803000Y-84565000D03*
X56703000Y-84565000D03*
X56703000Y-86885000D03*
X55753000Y-86885000D03*
X54803000Y-86885000D03*
G04 #@! TD*
D32*
G04 #@! TO.C,U4*
X80405000Y-76585000D03*
X81675000Y-76585000D03*
X82945000Y-76585000D03*
X84215000Y-76585000D03*
X84215000Y-81535000D03*
X82945000Y-81535000D03*
X81675000Y-81535000D03*
X80405000Y-81535000D03*
G04 #@! TD*
D19*
G04 #@! TO.C,R10*
X78105000Y-77622500D03*
X78105000Y-76047500D03*
G04 #@! TD*
D33*
G04 #@! TO.C,C22*
X56645000Y-82550000D03*
X53845000Y-82550000D03*
G04 #@! TD*
G04 #@! TO.C,C21*
X56645000Y-88900000D03*
X53845000Y-88900000D03*
G04 #@! TD*
D20*
G04 #@! TO.C,C20*
X66040000Y-75412500D03*
X66040000Y-76987500D03*
G04 #@! TD*
D19*
G04 #@! TO.C,C18*
X63500000Y-84048500D03*
X63500000Y-85623500D03*
G04 #@! TD*
D27*
G04 #@! TO.C,C16*
X61112500Y-87249000D03*
X59537500Y-87249000D03*
G04 #@! TD*
G04 #@! TO.C,C15*
X61112500Y-81407000D03*
X59537500Y-81407000D03*
G04 #@! TD*
D19*
G04 #@! TO.C,C14*
X86360000Y-80492500D03*
X86360000Y-82067500D03*
G04 #@! TD*
G04 #@! TO.C,C13*
X86360000Y-76047500D03*
X86360000Y-77622500D03*
G04 #@! TD*
D34*
G04 #@! TO.C,U3*
X67420000Y-66233000D03*
X67420000Y-67183000D03*
X67420000Y-68133000D03*
X69740000Y-68133000D03*
X69740000Y-66233000D03*
G04 #@! TD*
D20*
G04 #@! TO.C,R1*
X43815000Y-73177500D03*
X43815000Y-71602500D03*
G04 #@! TD*
D35*
G04 #@! TO.C,C12*
X71755000Y-65292000D03*
X71755000Y-68092000D03*
G04 #@! TD*
G04 #@! TO.C,C11*
X65405000Y-65292000D03*
X65405000Y-68092000D03*
G04 #@! TD*
D19*
G04 #@! TO.C,C10*
X62230000Y-62712500D03*
X62230000Y-64287500D03*
G04 #@! TD*
D20*
G04 #@! TO.C,C9*
X53340000Y-52857500D03*
X53340000Y-51282500D03*
G04 #@! TD*
G04 #@! TO.C,C8*
X64770000Y-55397500D03*
X64770000Y-53822500D03*
G04 #@! TD*
G04 #@! TO.C,C4*
X54356000Y-67528500D03*
X54356000Y-65953500D03*
G04 #@! TD*
D19*
G04 #@! TO.C,C3*
X54356000Y-70393500D03*
X54356000Y-71968500D03*
G04 #@! TD*
D31*
G04 #@! TO.C,R7*
X109194500Y-51308000D03*
X110769500Y-51308000D03*
G04 #@! TD*
D27*
G04 #@! TO.C,R6*
X110769500Y-54864000D03*
X109194500Y-54864000D03*
G04 #@! TD*
D20*
G04 #@! TO.C,R3*
X53340000Y-76352500D03*
X53340000Y-74777500D03*
G04 #@! TD*
D19*
G04 #@! TO.C,R2*
X57150000Y-74777500D03*
X57150000Y-76352500D03*
G04 #@! TD*
D36*
G04 #@! TO.C,J1*
X46350000Y-60355000D03*
X46350000Y-59705000D03*
X46350000Y-59055000D03*
X46350000Y-58405000D03*
X46350000Y-57755000D03*
G04 #@! TD*
D19*
G04 #@! TO.C,C6*
X72009000Y-53907500D03*
X72009000Y-55482500D03*
G04 #@! TD*
D20*
G04 #@! TO.C,C5*
X72009000Y-59122500D03*
X72009000Y-57547500D03*
G04 #@! TD*
D27*
G04 #@! TO.C,C2*
X109194500Y-53086000D03*
X110769500Y-53086000D03*
G04 #@! TD*
D20*
G04 #@! TO.C,C1*
X55245000Y-76352500D03*
X55245000Y-74777500D03*
G04 #@! TD*
M02*
