G04 #@! TF.GenerationSoftware,KiCad,Pcbnew,7.0.9*
G04 #@! TF.CreationDate,2024-12-23T13:01:37-05:00*
G04 #@! TF.ProjectId,ramn,72616d6e-2e6b-4696-9361-645f70636258,rev?*
G04 #@! TF.SameCoordinates,Original*
G04 #@! TF.FileFunction,Copper,L2,Bot*
G04 #@! TF.FilePolarity,Positive*
%FSLAX46Y46*%
G04 Gerber Fmt 4.6, Leading zero omitted, Abs format (unit mm)*
G04 Created by KiCad (PCBNEW 7.0.9) date 2024-12-23 13:01:37*
%MOMM*%
%LPD*%
G01*
G04 APERTURE LIST*
G04 #@! TA.AperFunction,ComponentPad*
%ADD10C,2.000000*%
G04 #@! TD*
G04 #@! TA.AperFunction,ComponentPad*
%ADD11R,2.000000X2.000000*%
G04 #@! TD*
G04 #@! TA.AperFunction,ComponentPad*
%ADD12C,3.000000*%
G04 #@! TD*
G04 #@! TA.AperFunction,ComponentPad*
%ADD13R,1.700000X1.700000*%
G04 #@! TD*
G04 #@! TA.AperFunction,ComponentPad*
%ADD14O,1.700000X1.700000*%
G04 #@! TD*
G04 #@! TA.AperFunction,ComponentPad*
%ADD15O,1.800000X1.150000*%
G04 #@! TD*
G04 #@! TA.AperFunction,ComponentPad*
%ADD16O,2.000000X1.450000*%
G04 #@! TD*
G04 #@! TA.AperFunction,ViaPad*
%ADD17C,0.800000*%
G04 #@! TD*
G04 #@! TA.AperFunction,ViaPad*
%ADD18C,1.000000*%
G04 #@! TD*
G04 #@! TA.AperFunction,Conductor*
%ADD19C,0.250000*%
G04 #@! TD*
G04 #@! TA.AperFunction,Conductor*
%ADD20C,1.000000*%
G04 #@! TD*
G04 #@! TA.AperFunction,Conductor*
%ADD21C,0.500000*%
G04 #@! TD*
G04 #@! TA.AperFunction,Conductor*
%ADD22C,0.450000*%
G04 #@! TD*
G04 APERTURE END LIST*
D10*
G04 #@! TO.P,J2,3*
G04 #@! TO.N,GND*
X121614000Y-52404000D03*
X124714000Y-52404000D03*
G04 #@! TO.P,J2,2*
G04 #@! TO.N,/ECUD/CANL_IN*
X121614000Y-54904000D03*
X124714000Y-54904000D03*
D11*
G04 #@! TO.P,J2,1*
G04 #@! TO.N,/ECUD/CANH_IN*
X121614000Y-57404000D03*
X124714000Y-57404000D03*
G04 #@! TD*
D12*
G04 #@! TO.P,TP1,1*
G04 #@! TO.N,GND*
X43815000Y-85725000D03*
G04 #@! TD*
D13*
G04 #@! TO.P,J5,1*
G04 #@! TO.N,/ECUC/3V3_ECU*
X86360000Y-93218000D03*
D14*
G04 #@! TO.P,J5,2*
G04 #@! TO.N,+5V*
X86360000Y-95758000D03*
G04 #@! TO.P,J5,3*
G04 #@! TO.N,/ECUC/PA1*
X88900000Y-93218000D03*
G04 #@! TO.P,J5,4*
G04 #@! TO.N,GND*
X88900000Y-95758000D03*
G04 #@! TO.P,J5,5*
G04 #@! TO.N,/ECUC/PA2*
X91440000Y-93218000D03*
G04 #@! TO.P,J5,6*
G04 #@! TO.N,/ECUC/PA3*
X91440000Y-95758000D03*
G04 #@! TO.P,J5,7*
G04 #@! TO.N,/ECUC/PA4*
X93980000Y-93218000D03*
G04 #@! TO.P,J5,8*
G04 #@! TO.N,/ECUC/PA5*
X93980000Y-95758000D03*
G04 #@! TO.P,J5,9*
G04 #@! TO.N,/ECUC/PA6*
X96520000Y-93218000D03*
G04 #@! TO.P,J5,10*
G04 #@! TO.N,/ECUC/PA7*
X96520000Y-95758000D03*
G04 #@! TO.P,J5,11*
G04 #@! TO.N,/ECUC/PB0*
X99060000Y-93218000D03*
G04 #@! TO.P,J5,12*
G04 #@! TO.N,/ECUC/PB1*
X99060000Y-95758000D03*
G04 #@! TO.P,J5,13*
G04 #@! TO.N,/ECUC/PB2*
X101600000Y-93218000D03*
G04 #@! TO.P,J5,14*
G04 #@! TO.N,/ECUC/PB10*
X101600000Y-95758000D03*
G04 #@! TO.P,J5,15*
G04 #@! TO.N,/ECUC/PB11*
X104140000Y-93218000D03*
G04 #@! TO.P,J5,16*
G04 #@! TO.N,/ECUC/PB12*
X104140000Y-95758000D03*
G04 #@! TO.P,J5,17*
G04 #@! TO.N,/ECUC/PB13*
X106680000Y-93218000D03*
G04 #@! TO.P,J5,18*
G04 #@! TO.N,/ECUC/PB14*
X106680000Y-95758000D03*
G04 #@! TO.P,J5,19*
G04 #@! TO.N,/ECUC/PB15*
X109220000Y-93218000D03*
G04 #@! TO.P,J5,20*
G04 #@! TO.N,/ECUC/PA8*
X109220000Y-95758000D03*
G04 #@! TO.P,J5,21*
G04 #@! TO.N,/ECUC/nRST*
X111760000Y-93218000D03*
G04 #@! TO.P,J5,22*
G04 #@! TO.N,/ECUC/SYS_JTMS-SWDIO*
X111760000Y-95758000D03*
G04 #@! TO.P,J5,23*
G04 #@! TO.N,/ECUC/SYS_JTDI*
X114300000Y-93218000D03*
G04 #@! TO.P,J5,24*
G04 #@! TO.N,/ECUC/SYS_JTCK-SWCLK*
X114300000Y-95758000D03*
G04 #@! TO.P,J5,25*
G04 #@! TO.N,/ECUC/SYS_JTDO-SWO*
X116840000Y-93218000D03*
G04 #@! TO.P,J5,26*
G04 #@! TO.N,/ECUC/SYS_JTRST*
X116840000Y-95758000D03*
G04 #@! TD*
D13*
G04 #@! TO.P,J4,1*
G04 #@! TO.N,/ECUB/3V3_ECU*
X50165000Y-93218000D03*
D14*
G04 #@! TO.P,J4,2*
G04 #@! TO.N,+5V*
X50165000Y-95758000D03*
G04 #@! TO.P,J4,3*
G04 #@! TO.N,/ECUB/PA1*
X52705000Y-93218000D03*
G04 #@! TO.P,J4,4*
G04 #@! TO.N,GND*
X52705000Y-95758000D03*
G04 #@! TO.P,J4,5*
G04 #@! TO.N,/ECUB/PA2*
X55245000Y-93218000D03*
G04 #@! TO.P,J4,6*
G04 #@! TO.N,/ECUB/PA3*
X55245000Y-95758000D03*
G04 #@! TO.P,J4,7*
G04 #@! TO.N,/ECUB/PA4*
X57785000Y-93218000D03*
G04 #@! TO.P,J4,8*
G04 #@! TO.N,/ECUB/PA5*
X57785000Y-95758000D03*
G04 #@! TO.P,J4,9*
G04 #@! TO.N,/ECUB/PA6*
X60325000Y-93218000D03*
G04 #@! TO.P,J4,10*
G04 #@! TO.N,/ECUB/PA7*
X60325000Y-95758000D03*
G04 #@! TO.P,J4,11*
G04 #@! TO.N,/ECUB/PB0*
X62865000Y-93218000D03*
G04 #@! TO.P,J4,12*
G04 #@! TO.N,/ECUB/PB1*
X62865000Y-95758000D03*
G04 #@! TO.P,J4,13*
G04 #@! TO.N,/ECUB/PB2*
X65405000Y-93218000D03*
G04 #@! TO.P,J4,14*
G04 #@! TO.N,/ECUB/PB10*
X65405000Y-95758000D03*
G04 #@! TO.P,J4,15*
G04 #@! TO.N,/ECUB/PB11*
X67945000Y-93218000D03*
G04 #@! TO.P,J4,16*
G04 #@! TO.N,/ECUB/PB12*
X67945000Y-95758000D03*
G04 #@! TO.P,J4,17*
G04 #@! TO.N,/ECUB/PB13*
X70485000Y-93218000D03*
G04 #@! TO.P,J4,18*
G04 #@! TO.N,/ECUB/PB14*
X70485000Y-95758000D03*
G04 #@! TO.P,J4,19*
G04 #@! TO.N,/ECUB/PB15*
X73025000Y-93218000D03*
G04 #@! TO.P,J4,20*
G04 #@! TO.N,/ECUB/PA8*
X73025000Y-95758000D03*
G04 #@! TO.P,J4,21*
G04 #@! TO.N,/ECUB/nRST*
X75565000Y-93218000D03*
G04 #@! TO.P,J4,22*
G04 #@! TO.N,/ECUB/SYS_JTMS-SWDIO*
X75565000Y-95758000D03*
G04 #@! TO.P,J4,23*
G04 #@! TO.N,/ECUB/SYS_JTDI*
X78105000Y-93218000D03*
G04 #@! TO.P,J4,24*
G04 #@! TO.N,/ECUB/SYS_JTCK-SWCLK*
X78105000Y-95758000D03*
G04 #@! TO.P,J4,25*
G04 #@! TO.N,/ECUB/SYS_JTDO-SWO*
X80645000Y-93218000D03*
G04 #@! TO.P,J4,26*
G04 #@! TO.N,/ECUB/SYS_JTRST*
X80645000Y-95758000D03*
G04 #@! TD*
D13*
G04 #@! TO.P,J6,1*
G04 #@! TO.N,/ECUD/3V3_ECU*
X116840000Y-47117000D03*
D14*
G04 #@! TO.P,J6,2*
G04 #@! TO.N,+5V*
X116840000Y-44577000D03*
G04 #@! TO.P,J6,3*
G04 #@! TO.N,/ECUD/PA1*
X114300000Y-47117000D03*
G04 #@! TO.P,J6,4*
G04 #@! TO.N,GND*
X114300000Y-44577000D03*
G04 #@! TO.P,J6,5*
G04 #@! TO.N,/ECUD/PA2*
X111760000Y-47117000D03*
G04 #@! TO.P,J6,6*
G04 #@! TO.N,/ECUD/PA3*
X111760000Y-44577000D03*
G04 #@! TO.P,J6,7*
G04 #@! TO.N,/ECUD/PA4*
X109220000Y-47117000D03*
G04 #@! TO.P,J6,8*
G04 #@! TO.N,/ECUD/PA5*
X109220000Y-44577000D03*
G04 #@! TO.P,J6,9*
G04 #@! TO.N,/ECUD/PA6*
X106680000Y-47117000D03*
G04 #@! TO.P,J6,10*
G04 #@! TO.N,/ECUD/PA7*
X106680000Y-44577000D03*
G04 #@! TO.P,J6,11*
G04 #@! TO.N,/ECUD/PB0*
X104140000Y-47117000D03*
G04 #@! TO.P,J6,12*
G04 #@! TO.N,/ECUD/PB1*
X104140000Y-44577000D03*
G04 #@! TO.P,J6,13*
G04 #@! TO.N,/ECUD/PB2*
X101600000Y-47117000D03*
G04 #@! TO.P,J6,14*
G04 #@! TO.N,/ECUD/PB10*
X101600000Y-44577000D03*
G04 #@! TO.P,J6,15*
G04 #@! TO.N,/ECUD/PB11*
X99060000Y-47117000D03*
G04 #@! TO.P,J6,16*
G04 #@! TO.N,/ECUD/PB12*
X99060000Y-44577000D03*
G04 #@! TO.P,J6,17*
G04 #@! TO.N,/ECUD/PB13*
X96520000Y-47117000D03*
G04 #@! TO.P,J6,18*
G04 #@! TO.N,/ECUD/PB14*
X96520000Y-44577000D03*
G04 #@! TO.P,J6,19*
G04 #@! TO.N,/ECUD/PB15*
X93980000Y-47117000D03*
G04 #@! TO.P,J6,20*
G04 #@! TO.N,/ECUD/PA8*
X93980000Y-44577000D03*
G04 #@! TO.P,J6,21*
G04 #@! TO.N,/ECUD/nRST*
X91440000Y-47117000D03*
G04 #@! TO.P,J6,22*
G04 #@! TO.N,/ECUD/SYS_JTMS-SWDIO*
X91440000Y-44577000D03*
G04 #@! TO.P,J6,23*
G04 #@! TO.N,/ECUD/SYS_JTDI*
X88900000Y-47117000D03*
G04 #@! TO.P,J6,24*
G04 #@! TO.N,/ECUD/SYS_JTCK-SWCLK*
X88900000Y-44577000D03*
G04 #@! TO.P,J6,25*
G04 #@! TO.N,/ECUD/SYS_JTDO-SWO*
X86360000Y-47117000D03*
G04 #@! TO.P,J6,26*
G04 #@! TO.N,/ECUD/SYS_JTRST*
X86360000Y-44577000D03*
G04 #@! TD*
G04 #@! TO.P,J3,26*
G04 #@! TO.N,/usb_uc/SYS_JTRST*
X50165000Y-44577000D03*
G04 #@! TO.P,J3,25*
G04 #@! TO.N,/usb_uc/SYS_JTDO-SWO*
X50165000Y-47117000D03*
G04 #@! TO.P,J3,24*
G04 #@! TO.N,/usb_uc/SYS_JTCK-SWCLK*
X52705000Y-44577000D03*
G04 #@! TO.P,J3,23*
G04 #@! TO.N,/usb_uc/SYS_JTDI*
X52705000Y-47117000D03*
G04 #@! TO.P,J3,22*
G04 #@! TO.N,/usb_uc/SYS_JTMS-SWDIO*
X55245000Y-44577000D03*
G04 #@! TO.P,J3,21*
G04 #@! TO.N,/usb_uc/nRST*
X55245000Y-47117000D03*
G04 #@! TO.P,J3,20*
G04 #@! TO.N,/usb_uc/PA8*
X57785000Y-44577000D03*
G04 #@! TO.P,J3,19*
G04 #@! TO.N,/usb_uc/PB15*
X57785000Y-47117000D03*
G04 #@! TO.P,J3,18*
G04 #@! TO.N,/usb_uc/PB14*
X60325000Y-44577000D03*
G04 #@! TO.P,J3,17*
G04 #@! TO.N,/usb_uc/PB13*
X60325000Y-47117000D03*
G04 #@! TO.P,J3,16*
G04 #@! TO.N,/usb_uc/PB12*
X62865000Y-44577000D03*
G04 #@! TO.P,J3,15*
G04 #@! TO.N,/usb_uc/PB11*
X62865000Y-47117000D03*
G04 #@! TO.P,J3,14*
G04 #@! TO.N,/usb_uc/PB10*
X65405000Y-44577000D03*
G04 #@! TO.P,J3,13*
G04 #@! TO.N,/usb_uc/PB2*
X65405000Y-47117000D03*
G04 #@! TO.P,J3,12*
G04 #@! TO.N,/usb_uc/PB1*
X67945000Y-44577000D03*
G04 #@! TO.P,J3,11*
G04 #@! TO.N,/usb_uc/PB0*
X67945000Y-47117000D03*
G04 #@! TO.P,J3,10*
G04 #@! TO.N,/usb_uc/PA7*
X70485000Y-44577000D03*
G04 #@! TO.P,J3,9*
G04 #@! TO.N,/usb_uc/PA6*
X70485000Y-47117000D03*
G04 #@! TO.P,J3,8*
G04 #@! TO.N,/usb_uc/PA5*
X73025000Y-44577000D03*
G04 #@! TO.P,J3,7*
G04 #@! TO.N,/usb_uc/PA4*
X73025000Y-47117000D03*
G04 #@! TO.P,J3,6*
G04 #@! TO.N,/usb_uc/PA3*
X75565000Y-44577000D03*
G04 #@! TO.P,J3,5*
G04 #@! TO.N,/usb_uc/PA2*
X75565000Y-47117000D03*
G04 #@! TO.P,J3,4*
G04 #@! TO.N,GND*
X78105000Y-44577000D03*
G04 #@! TO.P,J3,3*
G04 #@! TO.N,/usb_uc/PA1*
X78105000Y-47117000D03*
G04 #@! TO.P,J3,2*
G04 #@! TO.N,+5V*
X80645000Y-44577000D03*
D13*
G04 #@! TO.P,J3,1*
G04 #@! TO.N,/usb_uc/3V3_ECU*
X80645000Y-47117000D03*
G04 #@! TD*
D12*
G04 #@! TO.P,TP10,1*
G04 #@! TO.N,Net-(C35-Pad1)*
X104140000Y-66675000D03*
G04 #@! TD*
G04 #@! TO.P,TP7,1*
G04 #@! TO.N,/ECUD/CANL_IN*
X123825000Y-62865000D03*
G04 #@! TD*
G04 #@! TO.P,TP6,1*
G04 #@! TO.N,/ECUD/CANH_IN*
X118745000Y-62865000D03*
G04 #@! TD*
G04 #@! TO.P,TP5,1*
G04 #@! TO.N,/ECUB/CANL_IN*
X123825000Y-71755000D03*
G04 #@! TD*
G04 #@! TO.P,TP4,1*
G04 #@! TO.N,/ECUB/CANH_IN*
X118745000Y-71755000D03*
G04 #@! TD*
G04 #@! TO.P,TP9,1*
G04 #@! TO.N,/ECUD/3V3_ECU*
X93980000Y-66675000D03*
G04 #@! TD*
G04 #@! TO.P,TP8,1*
G04 #@! TO.N,/ECUD/sheet5D7F273B/3.3V*
X83820000Y-66675000D03*
G04 #@! TD*
G04 #@! TO.P,TP3,1*
G04 #@! TO.N,+5V*
X43815000Y-76835000D03*
G04 #@! TD*
G04 #@! TO.P,TP2,1*
G04 #@! TO.N,Net-(J1-Pad1)*
X43815000Y-67945000D03*
G04 #@! TD*
D15*
G04 #@! TO.P,J1,6*
G04 #@! TO.N,Net-(C43-Pad1)*
X42500000Y-62930000D03*
X42500000Y-55180000D03*
D16*
X46300000Y-62780000D03*
X46300000Y-55330000D03*
G04 #@! TD*
D17*
G04 #@! TO.N,GND*
X49530000Y-50165000D03*
X67945000Y-81915000D03*
X54864000Y-51054000D03*
X58928000Y-60452000D03*
X64008000Y-63754000D03*
X61468000Y-66167000D03*
X50419000Y-62103000D03*
X81915000Y-50038000D03*
X59309000Y-64897000D03*
X71628000Y-62738000D03*
X74726800Y-69215000D03*
X74726800Y-67310000D03*
X80010000Y-64770000D03*
X76327000Y-60960000D03*
X48260000Y-67310000D03*
X48260000Y-69215000D03*
X92837000Y-55245000D03*
X91567000Y-55245000D03*
X94107000Y-55245000D03*
X95250000Y-55245000D03*
X94996000Y-57658000D03*
X94996000Y-58674000D03*
X92456000Y-59309000D03*
X91694000Y-60071000D03*
X90170000Y-56642000D03*
X97790000Y-53848000D03*
X90170000Y-50927000D03*
X92075000Y-69215000D03*
X85725000Y-69215000D03*
X101727000Y-54229000D03*
X105918000Y-53340000D03*
X105918000Y-54610000D03*
X106680000Y-66040000D03*
X111760000Y-66040000D03*
X111760000Y-67310000D03*
X99060000Y-69215000D03*
X46990000Y-83820000D03*
X116840000Y-69596000D03*
X116840000Y-66675000D03*
X121031000Y-74422000D03*
X104140000Y-81280000D03*
X109220000Y-81788000D03*
X109220000Y-82804000D03*
X108077000Y-81788000D03*
X104140000Y-84328000D03*
X104902000Y-82042000D03*
X106045000Y-80391000D03*
X112776000Y-80518000D03*
X111760000Y-85598000D03*
X69342000Y-84328000D03*
X70612000Y-84328000D03*
X75184000Y-85598000D03*
X67818000Y-80772000D03*
X71882000Y-80264000D03*
X71882000Y-81534000D03*
X76962000Y-81280000D03*
X64516000Y-88646000D03*
X48260000Y-73660000D03*
X48260000Y-76200000D03*
X48260000Y-78740000D03*
X48260000Y-81280000D03*
X45593000Y-81280000D03*
X45593000Y-78740000D03*
X91440000Y-74930000D03*
X96520000Y-75692000D03*
X88265000Y-78740000D03*
X48260000Y-61595000D03*
X57531000Y-58293000D03*
X101600000Y-67310000D03*
X78232000Y-90551000D03*
X58039000Y-73533000D03*
X99187000Y-80518000D03*
X93980000Y-80518000D03*
X73660000Y-57150000D03*
X120142000Y-89408000D03*
X65532000Y-57658000D03*
X100584000Y-59690000D03*
X106680000Y-84328000D03*
X76708000Y-50038000D03*
X79502000Y-50038000D03*
X78105000Y-50038000D03*
X102616000Y-86106000D03*
X100838000Y-88392000D03*
X101854000Y-87376000D03*
X109220000Y-88265000D03*
X105410000Y-84328000D03*
X48260000Y-64135000D03*
X48260000Y-62865000D03*
X50165000Y-55245000D03*
X48260000Y-55245000D03*
X48260000Y-56515000D03*
X50165000Y-56515000D03*
X110998000Y-49657000D03*
X118745000Y-78740000D03*
X57658000Y-80518000D03*
X73914000Y-50038000D03*
X92075000Y-64770000D03*
X85725000Y-64770000D03*
X66802000Y-53340000D03*
X76962000Y-53340000D03*
X88519000Y-90551000D03*
X73279000Y-88265000D03*
X50419000Y-89662000D03*
X82677000Y-90551000D03*
X90170000Y-58674000D03*
X66294000Y-86614000D03*
X52451000Y-87503000D03*
X114300000Y-82296000D03*
X114427000Y-57150000D03*
X85953600Y-84328000D03*
X52959000Y-67056000D03*
X113665000Y-49657000D03*
X115887500Y-49657000D03*
X54864000Y-52070000D03*
X65532000Y-87630000D03*
X121031000Y-83439000D03*
X113538000Y-74930000D03*
X62738000Y-80264000D03*
X80772000Y-78359000D03*
X80772000Y-79502000D03*
X117053999Y-78780001D03*
D18*
G04 #@! TO.N,+5V*
X51943000Y-68199000D03*
X50419000Y-68199000D03*
X77639999Y-61764999D03*
X76687499Y-62717499D03*
D17*
X120650000Y-79415000D03*
D18*
X51943000Y-69596000D03*
D17*
X92710000Y-76707994D03*
D18*
X78485984Y-60919014D03*
X74909499Y-64495499D03*
X74083999Y-65320999D03*
X50800000Y-87630000D03*
X52070000Y-88900000D03*
X82563010Y-79375000D03*
X84328000Y-88137998D03*
X84328000Y-85852000D03*
X88138000Y-81026000D03*
X50419000Y-69584990D03*
X111548999Y-61764999D03*
D17*
G04 #@! TO.N,/usb_uc/nRST*
X60325000Y-57785000D03*
G04 #@! TO.N,/usb_uc/SYS_JTDO-SWO*
X53772466Y-63507337D03*
G04 #@! TO.N,/usb_uc/SYS_JTCK-SWCLK*
X51816000Y-62357000D03*
G04 #@! TO.N,/usb_uc/SYS_JTMS-SWDIO*
X50760000Y-51435000D03*
X55062698Y-57967302D03*
G04 #@! TO.N,/usb_uc/SYS_JTDI*
X52791998Y-62697998D03*
G04 #@! TO.N,/usb_uc/SYS_JTRST*
X56968874Y-60207386D03*
G04 #@! TO.N,/usb_uc/BOOT0*
X50546000Y-67056000D03*
X42671996Y-53086000D03*
X58293000Y-63627000D03*
G04 #@! TO.N,/usb_uc/CAN_STB*
X59309000Y-59563008D03*
X62738000Y-69596000D03*
G04 #@! TO.N,/usb_uc/PB14*
X58166000Y-56642000D03*
G04 #@! TO.N,/usb_uc/PB13*
X57998990Y-55560020D03*
G04 #@! TO.N,/usb_uc/ECU_3_EN*
X78969994Y-57895000D03*
X60325000Y-55880000D03*
G04 #@! TO.N,/usb_uc/ECU_2_EN*
X94361000Y-86995000D03*
X65004123Y-59984010D03*
G04 #@! TO.N,/usb_uc/ECU_1_EN*
X55880000Y-64135000D03*
X58293000Y-86741002D03*
G04 #@! TO.N,/ECUB/nRST*
X64566750Y-82981750D03*
G04 #@! TO.N,/ECUC/3V3_ECU*
X87277000Y-87023000D03*
G04 #@! TO.N,/ECUC/nRST*
X100741695Y-82961695D03*
D18*
G04 #@! TO.N,/ECUD/3V3_ECU*
X112395000Y-56769004D03*
D17*
G04 #@! TO.N,/ECUD/nRST*
X99060000Y-56515000D03*
G04 #@! TO.N,/ECUD/CANL_IN*
X116839999Y-65150999D03*
G04 #@! TO.N,/ECUB/SYS_JTMS-SWDIO*
X73025000Y-80645000D03*
G04 #@! TO.N,/ECUB/SYS_JTDI*
X73205686Y-76128479D03*
G04 #@! TO.N,/ECUB/SYS_JTCK-SWCLK*
X74168000Y-76708008D03*
G04 #@! TO.N,/ECUB/SYS_JTDO-SWO*
X72235000Y-76113010D03*
G04 #@! TO.N,/ECUB/SYS_JTRST*
X71120000Y-76200000D03*
G04 #@! TO.N,/ECUC/SYS_JTMS-SWDIO*
X109220000Y-80645000D03*
G04 #@! TO.N,/ECUC/SYS_JTDI*
X109855000Y-76200000D03*
G04 #@! TO.N,/ECUC/SYS_JTCK-SWCLK*
X110744000Y-76794990D03*
G04 #@! TO.N,/ECUC/SYS_JTDO-SWO*
X108585000Y-76200000D03*
G04 #@! TO.N,/ECUC/SYS_JTRST*
X107634997Y-76200000D03*
G04 #@! TO.N,/ECUD/PB14*
X86869991Y-55761346D03*
G04 #@! TO.N,/ECUD/SYS_JTMS-SWDIO*
X86995000Y-58801000D03*
G04 #@! TO.N,/ECUD/SYS_JTCK-SWCLK*
X85920035Y-58801000D03*
G04 #@! TO.N,/ECUB/CANH_IN*
X81724500Y-71564500D03*
X116979806Y-74719501D03*
X113665000Y-71500999D03*
X81661006Y-73406000D03*
G04 #@! TO.N,/ECUB/CAN_STB*
X64516000Y-80264000D03*
X68351198Y-75803291D03*
G04 #@! TO.N,/ECUC/CAN_STB*
X104394000Y-75819000D03*
X101346000Y-78105000D03*
G04 #@! TO.N,/ECUD/CAN_STB*
X116078000Y-58420000D03*
X98933000Y-59690000D03*
G04 #@! TO.N,/ECUD/CAN1_TX*
X105410000Y-62894315D03*
X93324121Y-63635020D03*
G04 #@! TO.N,/ECUD/CAN1_RX*
X106572537Y-63607463D03*
X92075000Y-63500000D03*
G04 #@! TO.N,/ECUC/BOOT0*
X105972762Y-79273684D03*
X65786002Y-59309000D03*
G04 #@! TO.N,/ECUD/BOOT0*
X93416155Y-60427297D03*
X66548000Y-58547000D03*
G04 #@! TO.N,/ECUB/BOOT0*
X57158440Y-64134967D03*
X69735001Y-79362997D03*
G04 #@! TD*
D19*
G04 #@! TO.N,GND*
X49734998Y-50369998D02*
X49530000Y-50165000D01*
X77978000Y-44577000D02*
X76835000Y-45720000D01*
X78105000Y-44577000D02*
X77978000Y-44577000D01*
X114427000Y-44577000D02*
X115570000Y-45720000D01*
X114300000Y-44577000D02*
X114427000Y-44577000D01*
X114300000Y-44577000D02*
X114173000Y-44577000D01*
X88900000Y-95758000D02*
X90043000Y-94615000D01*
X53848000Y-94615000D02*
X53975000Y-94615000D01*
X52705000Y-95758000D02*
X53848000Y-94615000D01*
X51562000Y-94615000D02*
X51435000Y-94615000D01*
X52705000Y-95758000D02*
X51562000Y-94615000D01*
X115570000Y-45847000D02*
X114300000Y-44577000D01*
X115570000Y-48895000D02*
X115570000Y-45847000D01*
X89027000Y-95758000D02*
X90170000Y-94615000D01*
X88900000Y-95758000D02*
X89027000Y-95758000D01*
X90170000Y-94615000D02*
X90170000Y-91821000D01*
X90170000Y-91821000D02*
X89408000Y-91059000D01*
X51435000Y-92329000D02*
X50419000Y-91313000D01*
X52705000Y-95758000D02*
X51435000Y-94488000D01*
X51435000Y-94488000D02*
X51435000Y-92329000D01*
X53149500Y-91313000D02*
X50419000Y-91313000D01*
X53975000Y-94615000D02*
X53975000Y-92138500D01*
X53975000Y-92138500D02*
X53149500Y-91313000D01*
X79375000Y-45847000D02*
X79375000Y-48895000D01*
X78105000Y-44577000D02*
X79375000Y-45847000D01*
X113982500Y-48895000D02*
X114300000Y-48895000D01*
X113030000Y-47942500D02*
X113982500Y-48895000D01*
X113651999Y-57925001D02*
X114427000Y-57150000D01*
X106680000Y-55880000D02*
X108725001Y-57925001D01*
X108725001Y-57925001D02*
X113651999Y-57925001D01*
X76835000Y-48577500D02*
X77152500Y-48895000D01*
X77152500Y-48895000D02*
X78105000Y-48895000D01*
X76835000Y-45720000D02*
X76835000Y-48577500D01*
X114300000Y-44577000D02*
X113030000Y-45847000D01*
X113030000Y-45847000D02*
X113030000Y-47752000D01*
X87630000Y-94488000D02*
X88900000Y-95758000D01*
X87630000Y-91821000D02*
X87630000Y-94488000D01*
X88646000Y-90805000D02*
X87630000Y-91821000D01*
X82423000Y-48387000D02*
X81915000Y-48895000D01*
X82423000Y-46164500D02*
X82423000Y-48387000D01*
X82105500Y-45847000D02*
X82423000Y-46164500D01*
X79375000Y-45847000D02*
X82105500Y-45847000D01*
D20*
G04 #@! TO.N,+5V*
X77639999Y-61764999D02*
X76687499Y-62717499D01*
X43815000Y-76835000D02*
X43815000Y-76200000D01*
X47752000Y-86487000D02*
X48895000Y-87630000D01*
X48962919Y-95758000D02*
X50165000Y-95758000D01*
X48577500Y-95372581D02*
X48962919Y-95758000D01*
X48577500Y-87305498D02*
X48577500Y-95372581D01*
X43815000Y-76835000D02*
X43815000Y-82542998D01*
X43815000Y-82542998D02*
X48577500Y-87305498D01*
D19*
X95503994Y-73914000D02*
X92710000Y-76707994D01*
X115149000Y-73914000D02*
X95503994Y-73914000D01*
X120650000Y-79415000D02*
X115149000Y-73914000D01*
D20*
X77639999Y-61764999D02*
X78485984Y-60919014D01*
X48895000Y-87630000D02*
X50800000Y-87630000D01*
X52070000Y-88900000D02*
X50800000Y-87630000D01*
X43815000Y-76200000D02*
X50292000Y-69723000D01*
X74909499Y-64495499D02*
X74083999Y-65320999D01*
X86360000Y-95504990D02*
X85776988Y-95504990D01*
X85776988Y-95504990D02*
X84328000Y-94056002D01*
X84328000Y-94056002D02*
X84328000Y-88137998D01*
X84328000Y-88137998D02*
X84328000Y-85852000D01*
X84328000Y-81139990D02*
X84328000Y-85852000D01*
X82563010Y-79375000D02*
X84328000Y-81139990D01*
X84441990Y-81026000D02*
X84328000Y-81139990D01*
X88138000Y-81026000D02*
X84441990Y-81026000D01*
X50419000Y-69584990D02*
X50419000Y-68199000D01*
X51931990Y-69584990D02*
X51943000Y-69596000D01*
X50419000Y-69584990D02*
X51931990Y-69584990D01*
X51943000Y-69596000D02*
X51943000Y-68199000D01*
X51943000Y-68199000D02*
X50419000Y-68199000D01*
X50557010Y-69584990D02*
X51943000Y-68199000D01*
X50419000Y-69584990D02*
X50557010Y-69584990D01*
X110447001Y-61764999D02*
X111549011Y-61764999D01*
X77639999Y-61764999D02*
X110447001Y-61764999D01*
X118042081Y-44577000D02*
X116840000Y-44577000D01*
X118340001Y-44874920D02*
X118042081Y-44577000D01*
X118340001Y-58951999D02*
X118340001Y-44874920D01*
X115527001Y-61764999D02*
X118340001Y-58951999D01*
X74909499Y-64495499D02*
X80264000Y-69850000D01*
X82563010Y-77356010D02*
X82563010Y-79375000D01*
X80264000Y-69850000D02*
X80264000Y-75057000D01*
X80264000Y-75057000D02*
X82563010Y-77356010D01*
X50430010Y-69596000D02*
X50419000Y-69584990D01*
X51943000Y-69596000D02*
X50430010Y-69596000D01*
X111549011Y-61764999D02*
X111548999Y-61764999D01*
X111548999Y-61764999D02*
X115527001Y-61764999D01*
X110447001Y-61764999D02*
X111548999Y-61764999D01*
D19*
G04 #@! TO.N,/usb_uc/nRST*
X60071000Y-57531000D02*
X60325000Y-57785000D01*
X57912000Y-57531000D02*
X60071000Y-57531000D01*
X57150000Y-49276000D02*
X57150000Y-56769000D01*
X57150000Y-56769000D02*
X57912000Y-57531000D01*
X55245000Y-47371000D02*
X57150000Y-49276000D01*
X55245000Y-47117000D02*
X55245000Y-47371000D01*
G04 #@! TO.N,/usb_uc/SYS_JTDO-SWO*
X56642000Y-50430600D02*
X56642000Y-58870300D01*
X56642000Y-58870300D02*
X53772466Y-61739834D01*
X53975000Y-47763600D02*
X56642000Y-50430600D01*
X53975000Y-46355000D02*
X53975000Y-47763600D01*
X53467000Y-45847000D02*
X53975000Y-46355000D01*
X52070000Y-45847000D02*
X53467000Y-45847000D01*
X50800000Y-47117000D02*
X52070000Y-45847000D01*
X53772466Y-61739834D02*
X53772466Y-63507337D01*
X50165000Y-47117000D02*
X50800000Y-47117000D01*
G04 #@! TO.N,/usb_uc/SYS_JTCK-SWCLK*
X55772011Y-58400989D02*
X51816000Y-62357000D01*
X55753000Y-50673000D02*
X55753000Y-55862300D01*
X48895000Y-46601999D02*
X48895000Y-47879000D01*
X55753000Y-55862300D02*
X55772011Y-55881311D01*
X49649999Y-45847000D02*
X48895000Y-46601999D01*
X55772011Y-55881311D02*
X55772011Y-58400989D01*
X53594000Y-48514000D02*
X55753000Y-50673000D01*
X51435000Y-45847000D02*
X49649999Y-45847000D01*
X49530000Y-48514000D02*
X53594000Y-48514000D01*
X48895000Y-47879000D02*
X49530000Y-48514000D01*
X52705000Y-44577000D02*
X51435000Y-45847000D01*
G04 #@! TO.N,/usb_uc/SYS_JTMS-SWDIO*
X55372000Y-57658000D02*
X55062698Y-57967302D01*
X50760000Y-51435000D02*
X55372000Y-56047000D01*
X55372000Y-56047000D02*
X55372000Y-57658000D01*
G04 #@! TO.N,/usb_uc/SYS_JTDI*
X52791998Y-62132313D02*
X52791998Y-62697998D01*
X56241989Y-58682322D02*
X52791998Y-62132313D01*
X56241989Y-50596289D02*
X56241989Y-58682322D01*
X52762700Y-47117000D02*
X56241989Y-50596289D01*
X52705000Y-47117000D02*
X52762700Y-47117000D01*
G04 #@! TO.N,/usb_uc/SYS_JTRST*
X54483000Y-63806315D02*
X52884315Y-65405000D01*
X48494990Y-46247010D02*
X50165000Y-44577000D01*
X48494990Y-50184010D02*
X48494990Y-46247010D01*
X52884315Y-65405000D02*
X45466000Y-65405000D01*
X45466000Y-65405000D02*
X44323000Y-64262000D01*
X44323000Y-64262000D02*
X44323000Y-54356000D01*
X44323000Y-54356000D02*
X48494990Y-50184010D01*
X54483000Y-61595000D02*
X54483000Y-63806315D01*
X56968874Y-60207386D02*
X55870614Y-60207386D01*
X55870614Y-60207386D02*
X54483000Y-61595000D01*
G04 #@! TO.N,/usb_uc/BOOT0*
X50546000Y-65824022D02*
X50526989Y-65805011D01*
X50546000Y-67056000D02*
X50546000Y-65824022D01*
X42603005Y-53154991D02*
X42671996Y-53086000D01*
X43922989Y-54336993D02*
X42671996Y-53086000D01*
X43922989Y-64427689D02*
X43922989Y-54336993D01*
X45300311Y-65805011D02*
X43922989Y-64427689D01*
X50526989Y-65805011D02*
X45300311Y-65805011D01*
X53066989Y-65805011D02*
X55499000Y-63373000D01*
X50526989Y-65805011D02*
X53066989Y-65805011D01*
X55499000Y-63373000D02*
X58292982Y-63373000D01*
X58292982Y-63373000D02*
X58420000Y-63500018D01*
G04 #@! TO.N,/usb_uc/CAN_STB*
X62738000Y-62992008D02*
X62738000Y-69596000D01*
X59309000Y-59563008D02*
X62738000Y-62992008D01*
G04 #@! TO.N,/usb_uc/PB14*
X61595000Y-45847000D02*
X60325000Y-44577000D01*
X60960000Y-48514000D02*
X61595000Y-47879000D01*
X59944000Y-48514000D02*
X60960000Y-48514000D01*
X58674000Y-49784000D02*
X59944000Y-48514000D01*
X61595000Y-47879000D02*
X61595000Y-45847000D01*
X58674000Y-56134000D02*
X58674000Y-49784000D01*
X58166000Y-56642000D02*
X58674000Y-56134000D01*
G04 #@! TO.N,/usb_uc/PB13*
X57912000Y-55473030D02*
X57998990Y-55560020D01*
X57912000Y-49276000D02*
X57912000Y-55473030D01*
X60071000Y-47117000D02*
X57912000Y-49276000D01*
X60325000Y-47117000D02*
X60071000Y-47117000D01*
G04 #@! TO.N,/usb_uc/ECU_3_EN*
X73525994Y-52451000D02*
X78969994Y-57895000D01*
X63754000Y-52451000D02*
X73525994Y-52451000D01*
X60325000Y-55880000D02*
X63754000Y-52451000D01*
G04 #@! TO.N,/usb_uc/ECU_2_EN*
X65963800Y-60883800D02*
X65064010Y-59984010D01*
X72948800Y-60883800D02*
X65963800Y-60883800D01*
X91948000Y-79883000D02*
X72948800Y-60883800D01*
X91948000Y-84582000D02*
X91948000Y-79883000D01*
X65064010Y-59984010D02*
X65004123Y-59984010D01*
X94361000Y-86995000D02*
X91948000Y-84582000D01*
G04 #@! TO.N,/usb_uc/ECU_1_EN*
X58166002Y-86741002D02*
X58293000Y-86741002D01*
X56134000Y-64135000D02*
X55880000Y-64135000D01*
X55880000Y-85852000D02*
X55880000Y-64135000D01*
X56913000Y-86885000D02*
X55880000Y-85852000D01*
X58149002Y-86885000D02*
X56913000Y-86885000D01*
X58293000Y-86741002D02*
X58149002Y-86885000D01*
G04 #@! TO.N,/ECUB/nRST*
X76454000Y-83566000D02*
X76454000Y-92329000D01*
X76454000Y-92329000D02*
X75565000Y-93218000D01*
X75869750Y-82981750D02*
X76454000Y-83566000D01*
X64566750Y-82981750D02*
X75869750Y-82981750D01*
G04 #@! TO.N,/ECUC/3V3_ECU*
X87277000Y-87023000D02*
X87277000Y-87023032D01*
D21*
X86332000Y-87023000D02*
X87277000Y-87023000D01*
X85725000Y-87630000D02*
X86332000Y-87023000D01*
X85725000Y-92583000D02*
X85725000Y-87630000D01*
X86360000Y-93218000D02*
X85725000Y-92583000D01*
D19*
G04 #@! TO.N,/ECUC/nRST*
X112522000Y-92456000D02*
X111760000Y-93218000D01*
X112522000Y-87884000D02*
X112522000Y-92456000D01*
X107599695Y-82961695D02*
X112522000Y-87884000D01*
X100741695Y-82961695D02*
X107599695Y-82961695D01*
D21*
G04 #@! TO.N,/ECUD/3V3_ECU*
X117348000Y-47625000D02*
X117348000Y-51816004D01*
X117348000Y-51816004D02*
X112395000Y-56769004D01*
X116840000Y-47117000D02*
X117348000Y-47625000D01*
D19*
G04 #@! TO.N,/ECUD/nRST*
X91440000Y-48895000D02*
X99060000Y-56515000D01*
X91440000Y-47117000D02*
X91440000Y-48895000D01*
G04 #@! TO.N,/ECUD/CANL_IN*
X124714000Y-54904000D02*
X121614000Y-54904000D01*
D22*
X121539001Y-65150999D02*
X116839999Y-65150999D01*
X123825000Y-62865000D02*
X121539001Y-65150999D01*
D19*
G04 #@! TO.N,/ECUD/CANH_IN*
X121614000Y-57404000D02*
X124714000Y-57404000D01*
G04 #@! TO.N,/ECUB/SYS_JTMS-SWDIO*
X74422000Y-80645000D02*
X73025000Y-80645000D01*
X76880013Y-83103013D02*
X74422000Y-80645000D01*
X76880013Y-94442987D02*
X76880013Y-83103013D01*
X75565000Y-95758000D02*
X76880013Y-94442987D01*
G04 #@! TO.N,/ECUB/SYS_JTDI*
X73205686Y-76744696D02*
X73205686Y-76128479D01*
X78994000Y-92329000D02*
X78994000Y-81788000D01*
X78994000Y-81788000D02*
X74589009Y-77383009D01*
X78105000Y-93218000D02*
X78994000Y-92329000D01*
X74589009Y-77383009D02*
X73843999Y-77383009D01*
X73843999Y-77383009D02*
X73205686Y-76744696D01*
G04 #@! TO.N,/ECUB/SYS_JTCK-SWCLK*
X79394011Y-94468989D02*
X79394011Y-81553015D01*
X79394011Y-81553015D02*
X74549004Y-76708008D01*
X78105000Y-95758000D02*
X79394011Y-94468989D01*
X74549004Y-76708008D02*
X74168000Y-76708008D01*
G04 #@! TO.N,/ECUB/SYS_JTDO-SWO*
X72894533Y-75453477D02*
X72235000Y-76113010D01*
X79795001Y-92368001D02*
X79795001Y-81335997D01*
X73912481Y-75453477D02*
X72894533Y-75453477D01*
X80645000Y-93218000D02*
X79795001Y-92368001D01*
X79795001Y-81335997D02*
X73912481Y-75453477D01*
G04 #@! TO.N,/ECUB/SYS_JTRST*
X74078170Y-75053466D02*
X72266534Y-75053466D01*
X80264000Y-90805000D02*
X80264000Y-81239296D01*
X81915000Y-92456000D02*
X80264000Y-90805000D01*
X81915000Y-94488000D02*
X81915000Y-92456000D01*
X80645000Y-95758000D02*
X81915000Y-94488000D01*
X80264000Y-81239296D02*
X74078170Y-75053466D01*
X72266534Y-75053466D02*
X71120000Y-76200000D01*
G04 #@! TO.N,/ECUC/SYS_JTMS-SWDIO*
X113030000Y-94488000D02*
X111760000Y-95758000D01*
X109220000Y-80645000D02*
X113030000Y-84455000D01*
X113030000Y-84455000D02*
X113030000Y-94488000D01*
G04 #@! TO.N,/ECUC/SYS_JTDI*
X115189001Y-82676999D02*
X115189000Y-82677000D01*
X114300000Y-93218000D02*
X114427000Y-93218000D01*
X114300000Y-93218000D02*
X115189000Y-92329000D01*
X115189000Y-92329000D02*
X115189000Y-81412394D01*
X115189000Y-81412394D02*
X111246606Y-77470000D01*
X111246606Y-77470000D02*
X110109000Y-77470000D01*
X109855000Y-77216000D02*
X109855000Y-76200000D01*
X110109000Y-77470000D02*
X109855000Y-77216000D01*
G04 #@! TO.N,/ECUC/SYS_JTCK-SWCLK*
X115589011Y-94468989D02*
X115589011Y-81246707D01*
X115589011Y-81246707D02*
X111137294Y-76794990D01*
X114300000Y-95758000D02*
X115589011Y-94468989D01*
X111137294Y-76794990D02*
X110744000Y-76794990D01*
G04 #@! TO.N,/ECUC/SYS_JTDO-SWO*
X116840000Y-92456000D02*
X116840000Y-93218000D01*
X116078000Y-91694000D02*
X116840000Y-92456000D01*
X116078000Y-81169998D02*
X116078000Y-91694000D01*
X110433001Y-75524999D02*
X116078000Y-81169998D01*
X108585000Y-76200000D02*
X109260001Y-75524999D01*
X109260001Y-75524999D02*
X110433001Y-75524999D01*
G04 #@! TO.N,/ECUC/SYS_JTRST*
X118110000Y-92583000D02*
X118110000Y-94488000D01*
X107634997Y-76134003D02*
X108644011Y-75124989D01*
X107634997Y-76200000D02*
X107634997Y-76134003D01*
X108644011Y-75124989D02*
X110598691Y-75124989D01*
X118110000Y-94488000D02*
X116840000Y-95758000D01*
X110598691Y-75124989D02*
X116478010Y-81004309D01*
X116478010Y-81004309D02*
X116478010Y-90951010D01*
X116478010Y-90951010D02*
X118110000Y-92583000D01*
G04 #@! TO.N,/ECUD/PB14*
X95250000Y-45847000D02*
X96520000Y-44577000D01*
X90741500Y-45847000D02*
X95250000Y-45847000D01*
X90170000Y-47752000D02*
X90170000Y-46418500D01*
X87884000Y-48260000D02*
X89662000Y-48260000D01*
X86360000Y-49784000D02*
X87884000Y-48260000D01*
X89662000Y-48260000D02*
X90170000Y-47752000D01*
X86360000Y-55251355D02*
X86360000Y-49784000D01*
X90170000Y-46418500D02*
X90741500Y-45847000D01*
X86869991Y-55761346D02*
X86360000Y-55251355D01*
G04 #@! TO.N,/ECUD/SYS_JTMS-SWDIO*
X85852000Y-57658000D02*
X86995000Y-58801000D01*
X85852000Y-49537001D02*
X85852000Y-57658000D01*
X87630000Y-47759001D02*
X85852000Y-49537001D01*
X87630000Y-46721998D02*
X87630000Y-47759001D01*
X90170000Y-45847000D02*
X88504998Y-45847000D01*
X88504998Y-45847000D02*
X87630000Y-46721998D01*
X91440000Y-44577000D02*
X90170000Y-45847000D01*
G04 #@! TO.N,/ECUD/SYS_JTCK-SWCLK*
X85234999Y-46210001D02*
X85234999Y-58115964D01*
X85234999Y-58115964D02*
X85920035Y-58801000D01*
X85598000Y-45847000D02*
X85234999Y-46210001D01*
X87630000Y-45847000D02*
X85598000Y-45847000D01*
X88900000Y-44577000D02*
X87630000Y-45847000D01*
D22*
G04 #@! TO.N,/ECUB/CANH_IN*
X81724500Y-71564500D02*
X81724500Y-73342506D01*
X81724500Y-73342506D02*
X81661006Y-73406000D01*
X113791999Y-71500999D02*
X113665000Y-71500999D01*
X116979806Y-74688806D02*
X113791999Y-71500999D01*
X116979806Y-74719501D02*
X116979806Y-74688806D01*
D19*
G04 #@! TO.N,/ECUB/CAN_STB*
X68351198Y-75803291D02*
X68351198Y-75887245D01*
X68351198Y-76606198D02*
X68351198Y-75803291D01*
X70410002Y-79686998D02*
X70410002Y-78665002D01*
X70059002Y-80037998D02*
X70410002Y-79686998D01*
X69369998Y-80037998D02*
X70059002Y-80037998D01*
X70410002Y-78665002D02*
X68351198Y-76606198D01*
X68072000Y-78740000D02*
X69369998Y-80037998D01*
X64897000Y-78740000D02*
X68072000Y-78740000D01*
X64516000Y-79121000D02*
X64897000Y-78740000D01*
X64516000Y-80264000D02*
X64516000Y-79121000D01*
G04 #@! TO.N,/ECUC/CAN_STB*
X101346000Y-77978000D02*
X101346000Y-78105000D01*
X101600000Y-78105000D02*
X101346000Y-78105000D01*
X103378000Y-76073000D02*
X101346000Y-78105000D01*
X103632000Y-75819000D02*
X103378000Y-76073000D01*
X104394000Y-75819000D02*
X103632000Y-75819000D01*
G04 #@! TO.N,/ECUD/CAN_STB*
X116078000Y-59690000D02*
X116078000Y-58420000D01*
X114778011Y-60989989D02*
X116078000Y-59690000D01*
X100232989Y-60989989D02*
X100935011Y-60989989D01*
X98933000Y-59690000D02*
X100232989Y-60989989D01*
X100935011Y-60989989D02*
X114778011Y-60989989D01*
G04 #@! TO.N,/ECUD/CAN1_TX*
X93609980Y-63635020D02*
X93324121Y-63635020D01*
X94350685Y-62894315D02*
X93609980Y-63635020D01*
X105410000Y-62894315D02*
X94350685Y-62894315D01*
G04 #@! TO.N,/ECUD/CAN1_RX*
X93091000Y-64516000D02*
X92075000Y-63500000D01*
X94107000Y-64516000D02*
X93091000Y-64516000D01*
X95015537Y-63607463D02*
X94107000Y-64516000D01*
X106572537Y-63607463D02*
X95015537Y-63607463D01*
G04 #@! TO.N,/ECUC/BOOT0*
X65913000Y-59309000D02*
X65786002Y-59309000D01*
X67075011Y-60471011D02*
X65913000Y-59309000D01*
X73171011Y-60471011D02*
X67075011Y-60471011D01*
X92456000Y-79756000D02*
X73171011Y-60471011D01*
X105490446Y-79756000D02*
X92456000Y-79756000D01*
X105972762Y-79273684D02*
X105490446Y-79756000D01*
G04 #@! TO.N,/ECUD/BOOT0*
X66548000Y-58674000D02*
X66548000Y-58547000D01*
X67945000Y-60071000D02*
X66548000Y-58674000D01*
X79887004Y-60960000D02*
X78998004Y-60071000D01*
X78998004Y-60071000D02*
X67945000Y-60071000D01*
X92883452Y-60960000D02*
X79887004Y-60960000D01*
X93416155Y-60427297D02*
X92883452Y-60960000D01*
G04 #@! TO.N,/ECUB/BOOT0*
X68707000Y-78232000D02*
X69735001Y-79260001D01*
X61214000Y-78232000D02*
X68707000Y-78232000D01*
X60090011Y-77108011D02*
X61214000Y-78232000D01*
X69735001Y-79260001D02*
X69735001Y-79362997D01*
X60090011Y-67261274D02*
X60090011Y-77108011D01*
X57158440Y-64329703D02*
X60090011Y-67261274D01*
X57158440Y-64134967D02*
X57158440Y-64329703D01*
G04 #@! TD*
G04 #@! TA.AperFunction,Conductor*
G04 #@! TO.N,GND*
G36*
X85131601Y-44489667D02*
G01*
X85172803Y-44517197D01*
X85200333Y-44558399D01*
X85210000Y-44607000D01*
X85210000Y-44690264D01*
X85254193Y-44912441D01*
X85340883Y-45121730D01*
X85450519Y-45285811D01*
X85469482Y-45331592D01*
X85469482Y-45381145D01*
X85450519Y-45426925D01*
X85415479Y-45461965D01*
X85404790Y-45468372D01*
X85360742Y-45491916D01*
X85296024Y-45545028D01*
X85284694Y-45558835D01*
X85280506Y-45563455D01*
X84951454Y-45892507D01*
X84946834Y-45896695D01*
X84933027Y-45908025D01*
X84879913Y-45972744D01*
X84840450Y-46046575D01*
X84816148Y-46126687D01*
X84807943Y-46209998D01*
X84809693Y-46227760D01*
X84809999Y-46233989D01*
X84810000Y-58091966D01*
X84809694Y-58098195D01*
X84807943Y-58115964D01*
X84816149Y-58199274D01*
X84840451Y-58279389D01*
X84879916Y-58353221D01*
X84933029Y-58417940D01*
X84946829Y-58429267D01*
X84951448Y-58433453D01*
X85182838Y-58664842D01*
X85210368Y-58706044D01*
X85220035Y-58754645D01*
X85220035Y-58869941D01*
X85246936Y-59005182D01*
X85299703Y-59132572D01*
X85376310Y-59247222D01*
X85473812Y-59344724D01*
X85588462Y-59421331D01*
X85715852Y-59474098D01*
X85851094Y-59501000D01*
X85988976Y-59501000D01*
X86124217Y-59474098D01*
X86251607Y-59421331D01*
X86366263Y-59344720D01*
X86367720Y-59343264D01*
X86408923Y-59315736D01*
X86457524Y-59306071D01*
X86506124Y-59315741D01*
X86547321Y-59343268D01*
X86548777Y-59344724D01*
X86663427Y-59421331D01*
X86790817Y-59474098D01*
X86926059Y-59501000D01*
X87063941Y-59501000D01*
X87199182Y-59474098D01*
X87326572Y-59421331D01*
X87441222Y-59344724D01*
X87538724Y-59247222D01*
X87615331Y-59132572D01*
X87668098Y-59005182D01*
X87695000Y-58869941D01*
X87695000Y-58732058D01*
X87668098Y-58596817D01*
X87615331Y-58469427D01*
X87538724Y-58354777D01*
X87441222Y-58257275D01*
X87326572Y-58180668D01*
X87199182Y-58127901D01*
X87063941Y-58101000D01*
X86948645Y-58101000D01*
X86900044Y-58091333D01*
X86858843Y-58063803D01*
X86314198Y-57519159D01*
X86286667Y-57477957D01*
X86277000Y-57429356D01*
X86277000Y-56444604D01*
X86286667Y-56396003D01*
X86314197Y-56354801D01*
X86355399Y-56327271D01*
X86404000Y-56317604D01*
X86452601Y-56327271D01*
X86474557Y-56339007D01*
X86538415Y-56381676D01*
X86665808Y-56434444D01*
X86801050Y-56461346D01*
X86938932Y-56461346D01*
X87074173Y-56434444D01*
X87201563Y-56381677D01*
X87316213Y-56305070D01*
X87413715Y-56207568D01*
X87490322Y-56092918D01*
X87543089Y-55965528D01*
X87569991Y-55830287D01*
X87569991Y-55692404D01*
X87543089Y-55557163D01*
X87490322Y-55429773D01*
X87413715Y-55315123D01*
X87316213Y-55217621D01*
X87201563Y-55141014D01*
X87074173Y-55088247D01*
X86938932Y-55061346D01*
X86912000Y-55061346D01*
X86863399Y-55051679D01*
X86822197Y-55024149D01*
X86794667Y-54982947D01*
X86785000Y-54934346D01*
X86785000Y-50012644D01*
X86794667Y-49964043D01*
X86822197Y-49922841D01*
X86822198Y-49922841D01*
X88022844Y-48722197D01*
X88064045Y-48694667D01*
X88112646Y-48685000D01*
X89638012Y-48685000D01*
X89644241Y-48685306D01*
X89662002Y-48687055D01*
X89745314Y-48678850D01*
X89825425Y-48654548D01*
X89899256Y-48615085D01*
X89963975Y-48561972D01*
X89975305Y-48548166D01*
X89979493Y-48543546D01*
X90453556Y-48069485D01*
X90458176Y-48065297D01*
X90471975Y-48053972D01*
X90508686Y-48009241D01*
X90546991Y-47977805D01*
X90594410Y-47963420D01*
X90643725Y-47968278D01*
X90687426Y-47991637D01*
X90696661Y-48000006D01*
X90706920Y-48010265D01*
X90895271Y-48136116D01*
X90936601Y-48153236D01*
X90977803Y-48180766D01*
X91005333Y-48221967D01*
X91015001Y-48270568D01*
X91015001Y-48871002D01*
X91014695Y-48877231D01*
X91012944Y-48895000D01*
X91021150Y-48978310D01*
X91045452Y-49058425D01*
X91084917Y-49132257D01*
X91138027Y-49196973D01*
X91151830Y-49208301D01*
X91156450Y-49212489D01*
X98322803Y-56378843D01*
X98350333Y-56420045D01*
X98360000Y-56468646D01*
X98360000Y-56583941D01*
X98386901Y-56719182D01*
X98439668Y-56846572D01*
X98516275Y-56961222D01*
X98613777Y-57058724D01*
X98728427Y-57135331D01*
X98855817Y-57188098D01*
X98991059Y-57215000D01*
X99128941Y-57215000D01*
X99264182Y-57188098D01*
X99391572Y-57135331D01*
X99506222Y-57058724D01*
X99603724Y-56961222D01*
X99680331Y-56846572D01*
X99733098Y-56719182D01*
X99760000Y-56583941D01*
X99760000Y-56446058D01*
X99733098Y-56310817D01*
X99680331Y-56183427D01*
X99603724Y-56068777D01*
X99506222Y-55971275D01*
X99391572Y-55894668D01*
X99264182Y-55841901D01*
X99128941Y-55815000D01*
X99013646Y-55815000D01*
X98965045Y-55805333D01*
X98923843Y-55777803D01*
X91902197Y-48756159D01*
X91874667Y-48714957D01*
X91865000Y-48666356D01*
X91865000Y-48270569D01*
X91874667Y-48221968D01*
X91902197Y-48180766D01*
X91943399Y-48153236D01*
X91984730Y-48136116D01*
X92173079Y-48010265D01*
X92333265Y-47850079D01*
X92459116Y-47661730D01*
X92545806Y-47452441D01*
X92585440Y-47253190D01*
X92604403Y-47207409D01*
X92639443Y-47172369D01*
X92685223Y-47153406D01*
X92734776Y-47153406D01*
X92780557Y-47172369D01*
X92815597Y-47207409D01*
X92834560Y-47253189D01*
X92834560Y-47253190D01*
X92874193Y-47452441D01*
X92960883Y-47661730D01*
X93086734Y-47850079D01*
X93246920Y-48010265D01*
X93435269Y-48136116D01*
X93644558Y-48222806D01*
X93866735Y-48267000D01*
X94093265Y-48267000D01*
X94315441Y-48222806D01*
X94524730Y-48136116D01*
X94713079Y-48010265D01*
X94873265Y-47850079D01*
X94999116Y-47661730D01*
X95085806Y-47452441D01*
X95125440Y-47253190D01*
X95144403Y-47207409D01*
X95179443Y-47172369D01*
X95225223Y-47153406D01*
X95274776Y-47153406D01*
X95320557Y-47172369D01*
X95355597Y-47207409D01*
X95374560Y-47253189D01*
X95374560Y-47253190D01*
X95414193Y-47452441D01*
X95500883Y-47661730D01*
X95626734Y-47850079D01*
X95786920Y-48010265D01*
X95975269Y-48136116D01*
X96184558Y-48222806D01*
X96406735Y-48267000D01*
X96633265Y-48267000D01*
X96855441Y-48222806D01*
X97064730Y-48136116D01*
X97253079Y-48010265D01*
X97413265Y-47850079D01*
X97539116Y-47661730D01*
X97625806Y-47452441D01*
X97665440Y-47253190D01*
X97684403Y-47207409D01*
X97719443Y-47172369D01*
X97765223Y-47153406D01*
X97814776Y-47153406D01*
X97860557Y-47172369D01*
X97895597Y-47207409D01*
X97914560Y-47253189D01*
X97914560Y-47253190D01*
X97954193Y-47452441D01*
X98040883Y-47661730D01*
X98166734Y-47850079D01*
X98326920Y-48010265D01*
X98515269Y-48136116D01*
X98724558Y-48222806D01*
X98946735Y-48267000D01*
X99173265Y-48267000D01*
X99395441Y-48222806D01*
X99604730Y-48136116D01*
X99793079Y-48010265D01*
X99953265Y-47850079D01*
X100079116Y-47661730D01*
X100165806Y-47452441D01*
X100205440Y-47253190D01*
X100224403Y-47207409D01*
X100259443Y-47172369D01*
X100305223Y-47153406D01*
X100354776Y-47153406D01*
X100400557Y-47172369D01*
X100435597Y-47207409D01*
X100454560Y-47253189D01*
X100454560Y-47253190D01*
X100494193Y-47452441D01*
X100580883Y-47661730D01*
X100706734Y-47850079D01*
X100866920Y-48010265D01*
X101055269Y-48136116D01*
X101264558Y-48222806D01*
X101486735Y-48267000D01*
X101713265Y-48267000D01*
X101935441Y-48222806D01*
X102144730Y-48136116D01*
X102333079Y-48010265D01*
X102493265Y-47850079D01*
X102619116Y-47661730D01*
X102705806Y-47452441D01*
X102745440Y-47253190D01*
X102764403Y-47207409D01*
X102799443Y-47172369D01*
X102845223Y-47153406D01*
X102894776Y-47153406D01*
X102940557Y-47172369D01*
X102975597Y-47207409D01*
X102994560Y-47253189D01*
X102994560Y-47253190D01*
X103034193Y-47452441D01*
X103120883Y-47661730D01*
X103246734Y-47850079D01*
X103406920Y-48010265D01*
X103595269Y-48136116D01*
X103804558Y-48222806D01*
X104026735Y-48267000D01*
X104253265Y-48267000D01*
X104475441Y-48222806D01*
X104684730Y-48136116D01*
X104873079Y-48010265D01*
X105033265Y-47850079D01*
X105159116Y-47661730D01*
X105245806Y-47452441D01*
X105285440Y-47253190D01*
X105304403Y-47207409D01*
X105339443Y-47172369D01*
X105385223Y-47153406D01*
X105434776Y-47153406D01*
X105480557Y-47172369D01*
X105515597Y-47207409D01*
X105534560Y-47253189D01*
X105534560Y-47253190D01*
X105574193Y-47452441D01*
X105660883Y-47661730D01*
X105786734Y-47850079D01*
X105946920Y-48010265D01*
X106135269Y-48136116D01*
X106344558Y-48222806D01*
X106566735Y-48267000D01*
X106793265Y-48267000D01*
X107015441Y-48222806D01*
X107224730Y-48136116D01*
X107413079Y-48010265D01*
X107573265Y-47850079D01*
X107699116Y-47661730D01*
X107785806Y-47452441D01*
X107825440Y-47253190D01*
X107844403Y-47207409D01*
X107879443Y-47172369D01*
X107925223Y-47153406D01*
X107974776Y-47153406D01*
X108020557Y-47172369D01*
X108055597Y-47207409D01*
X108074560Y-47253189D01*
X108074560Y-47253190D01*
X108114193Y-47452441D01*
X108200883Y-47661730D01*
X108326734Y-47850079D01*
X108486920Y-48010265D01*
X108675269Y-48136116D01*
X108884558Y-48222806D01*
X109106735Y-48267000D01*
X109333265Y-48267000D01*
X109555441Y-48222806D01*
X109764730Y-48136116D01*
X109953079Y-48010265D01*
X110113265Y-47850079D01*
X110239116Y-47661730D01*
X110325806Y-47452441D01*
X110365440Y-47253190D01*
X110384403Y-47207409D01*
X110419443Y-47172369D01*
X110465223Y-47153406D01*
X110514776Y-47153406D01*
X110560557Y-47172369D01*
X110595597Y-47207409D01*
X110614560Y-47253189D01*
X110614560Y-47253190D01*
X110654193Y-47452441D01*
X110740883Y-47661730D01*
X110866734Y-47850079D01*
X111026920Y-48010265D01*
X111215269Y-48136116D01*
X111424558Y-48222806D01*
X111646735Y-48267000D01*
X111873265Y-48267000D01*
X112095441Y-48222806D01*
X112304730Y-48136116D01*
X112493079Y-48010265D01*
X112653265Y-47850079D01*
X112779116Y-47661730D01*
X112865806Y-47452441D01*
X112905440Y-47253190D01*
X112924403Y-47207409D01*
X112959443Y-47172369D01*
X113005223Y-47153406D01*
X113054776Y-47153406D01*
X113100557Y-47172369D01*
X113135597Y-47207409D01*
X113154560Y-47253189D01*
X113154560Y-47253190D01*
X113194193Y-47452441D01*
X113280883Y-47661730D01*
X113406734Y-47850079D01*
X113566920Y-48010265D01*
X113755269Y-48136116D01*
X113964558Y-48222806D01*
X114186735Y-48267000D01*
X114413265Y-48267000D01*
X114635441Y-48222806D01*
X114844730Y-48136116D01*
X115033079Y-48010265D01*
X115193265Y-47850079D01*
X115319116Y-47661730D01*
X115405806Y-47452441D01*
X115436374Y-47298768D01*
X115455337Y-47252987D01*
X115490377Y-47217947D01*
X115536157Y-47198984D01*
X115585710Y-47198984D01*
X115631491Y-47217947D01*
X115666531Y-47252987D01*
X115685494Y-47298767D01*
X115687934Y-47323544D01*
X115687934Y-47960755D01*
X115694341Y-48025813D01*
X115711494Y-48082359D01*
X115739352Y-48134477D01*
X115776841Y-48180158D01*
X115822522Y-48217647D01*
X115874640Y-48245505D01*
X115931186Y-48262658D01*
X115996244Y-48269066D01*
X116671000Y-48269066D01*
X116719601Y-48278733D01*
X116760803Y-48306263D01*
X116788333Y-48347465D01*
X116798000Y-48396066D01*
X116798001Y-51535580D01*
X116788334Y-51584181D01*
X116760804Y-51625383D01*
X112454381Y-55931807D01*
X112413179Y-55959337D01*
X112364578Y-55969004D01*
X112316208Y-55969004D01*
X112161645Y-55999748D01*
X112016060Y-56060052D01*
X111885032Y-56147601D01*
X111773597Y-56259036D01*
X111686048Y-56390064D01*
X111625744Y-56535649D01*
X111595000Y-56690212D01*
X111595000Y-56847795D01*
X111625744Y-57002358D01*
X111686048Y-57147943D01*
X111773597Y-57278971D01*
X111885032Y-57390406D01*
X112016060Y-57477955D01*
X112161645Y-57538259D01*
X112316208Y-57569004D01*
X112473792Y-57569004D01*
X112628354Y-57538259D01*
X112773939Y-57477955D01*
X112904967Y-57390406D01*
X113016402Y-57278971D01*
X113103951Y-57147943D01*
X113164255Y-57002358D01*
X113195000Y-56847795D01*
X113195000Y-56799426D01*
X113204667Y-56750825D01*
X113232197Y-56709623D01*
X117323198Y-52618622D01*
X117364400Y-52591092D01*
X117413001Y-52581425D01*
X117461602Y-52591092D01*
X117502804Y-52618622D01*
X117530334Y-52659824D01*
X117540001Y-52708425D01*
X117540001Y-58568023D01*
X117530334Y-58616624D01*
X117502804Y-58657826D01*
X116719803Y-59440827D01*
X116678601Y-59468357D01*
X116630000Y-59478024D01*
X116581399Y-59468357D01*
X116540197Y-59440827D01*
X116512667Y-59399625D01*
X116503000Y-59351024D01*
X116503000Y-59037553D01*
X116512667Y-58988952D01*
X116540197Y-58947750D01*
X116621724Y-58866222D01*
X116698331Y-58751572D01*
X116751098Y-58624182D01*
X116778000Y-58488941D01*
X116778000Y-58351058D01*
X116751098Y-58215817D01*
X116698331Y-58088427D01*
X116621724Y-57973777D01*
X116524222Y-57876275D01*
X116409572Y-57799668D01*
X116282182Y-57746901D01*
X116146941Y-57720000D01*
X116009059Y-57720000D01*
X115873817Y-57746901D01*
X115746427Y-57799668D01*
X115631777Y-57876275D01*
X115534275Y-57973777D01*
X115457668Y-58088427D01*
X115404901Y-58215817D01*
X115378000Y-58351058D01*
X115378000Y-58488941D01*
X115404901Y-58624182D01*
X115457668Y-58751572D01*
X115534275Y-58866222D01*
X115615804Y-58947751D01*
X115643334Y-58988953D01*
X115653001Y-59037554D01*
X115653000Y-59461354D01*
X115643333Y-59509955D01*
X115615803Y-59551156D01*
X114639170Y-60527791D01*
X114597968Y-60555322D01*
X114549367Y-60564989D01*
X100461635Y-60564989D01*
X100413034Y-60555322D01*
X100371833Y-60527792D01*
X99670198Y-59826158D01*
X99642667Y-59784956D01*
X99633000Y-59736355D01*
X99633000Y-59621058D01*
X99606098Y-59485817D01*
X99553331Y-59358427D01*
X99476724Y-59243777D01*
X99379222Y-59146275D01*
X99264572Y-59069668D01*
X99137182Y-59016901D01*
X99001941Y-58990000D01*
X98864059Y-58990000D01*
X98728817Y-59016901D01*
X98601427Y-59069668D01*
X98486777Y-59146275D01*
X98389275Y-59243777D01*
X98312668Y-59358427D01*
X98259901Y-59485817D01*
X98233000Y-59621058D01*
X98233000Y-59758941D01*
X98259901Y-59894182D01*
X98312668Y-60021572D01*
X98389275Y-60136222D01*
X98486777Y-60233724D01*
X98601427Y-60310331D01*
X98728817Y-60363098D01*
X98864059Y-60390000D01*
X98979355Y-60390000D01*
X99027956Y-60399667D01*
X99069158Y-60427197D01*
X99390157Y-60748196D01*
X99417687Y-60789398D01*
X99427354Y-60837999D01*
X99417687Y-60886600D01*
X99390157Y-60927802D01*
X99348955Y-60955332D01*
X99300354Y-60964999D01*
X94136356Y-60964999D01*
X94087755Y-60955332D01*
X94046553Y-60927802D01*
X94019023Y-60886600D01*
X94009356Y-60837999D01*
X94019023Y-60789398D01*
X94030759Y-60767442D01*
X94036485Y-60758872D01*
X94089253Y-60631479D01*
X94116155Y-60496238D01*
X94116155Y-60358355D01*
X94089253Y-60223114D01*
X94036486Y-60095724D01*
X93959879Y-59981074D01*
X93862377Y-59883572D01*
X93747727Y-59806965D01*
X93620337Y-59754198D01*
X93485096Y-59727297D01*
X93347214Y-59727297D01*
X93211972Y-59754198D01*
X93084582Y-59806965D01*
X92969932Y-59883572D01*
X92872430Y-59981074D01*
X92795823Y-60095724D01*
X92743056Y-60223114D01*
X92716155Y-60358355D01*
X92716155Y-60408000D01*
X92706488Y-60456601D01*
X92678958Y-60497803D01*
X92637756Y-60525333D01*
X92589155Y-60535000D01*
X80115650Y-60535000D01*
X80067049Y-60525333D01*
X80025848Y-60497803D01*
X79315497Y-59787454D01*
X79311309Y-59782833D01*
X79299980Y-59769028D01*
X79235260Y-59715914D01*
X79161429Y-59676451D01*
X79081318Y-59652149D01*
X78998006Y-59643944D01*
X78980245Y-59645694D01*
X78974016Y-59646000D01*
X68173646Y-59646000D01*
X68125045Y-59636333D01*
X68083843Y-59608803D01*
X67269949Y-58794910D01*
X67242419Y-58753708D01*
X67232752Y-58705107D01*
X67235192Y-58680330D01*
X67248000Y-58615941D01*
X67248000Y-58478058D01*
X67221098Y-58342817D01*
X67168331Y-58215427D01*
X67091724Y-58100777D01*
X66994222Y-58003275D01*
X66879572Y-57926668D01*
X66752182Y-57873901D01*
X66616941Y-57847000D01*
X66479059Y-57847000D01*
X66343817Y-57873901D01*
X66216427Y-57926668D01*
X66101777Y-58003275D01*
X66004275Y-58100777D01*
X65927668Y-58215427D01*
X65874901Y-58342817D01*
X65848000Y-58478058D01*
X65848000Y-58482000D01*
X65838333Y-58530601D01*
X65810803Y-58571803D01*
X65769601Y-58599333D01*
X65721000Y-58609000D01*
X65717061Y-58609000D01*
X65581819Y-58635901D01*
X65454429Y-58688668D01*
X65339779Y-58765275D01*
X65242277Y-58862777D01*
X65165670Y-58977427D01*
X65112903Y-59104818D01*
X65097593Y-59181787D01*
X65078629Y-59227568D01*
X65043590Y-59262607D01*
X64997809Y-59281570D01*
X64973033Y-59284010D01*
X64935182Y-59284010D01*
X64799940Y-59310911D01*
X64672550Y-59363678D01*
X64557900Y-59440285D01*
X64460398Y-59537787D01*
X64383791Y-59652437D01*
X64331024Y-59779827D01*
X64304123Y-59915068D01*
X64304123Y-60052951D01*
X64331024Y-60188192D01*
X64383791Y-60315582D01*
X64460398Y-60430232D01*
X64557900Y-60527734D01*
X64672550Y-60604341D01*
X64799940Y-60657108D01*
X64935182Y-60684010D01*
X65073064Y-60684010D01*
X65081475Y-60682337D01*
X65131028Y-60682337D01*
X65176809Y-60701300D01*
X65196055Y-60717095D01*
X65646314Y-61167355D01*
X65650501Y-61171975D01*
X65661822Y-61185770D01*
X65726543Y-61238885D01*
X65800374Y-61278348D01*
X65880480Y-61302648D01*
X65963801Y-61310854D01*
X65981551Y-61309106D01*
X65987779Y-61308800D01*
X72720156Y-61308800D01*
X72768757Y-61318467D01*
X72809959Y-61345997D01*
X74942658Y-63478696D01*
X74970188Y-63519898D01*
X74979855Y-63568499D01*
X74970188Y-63617100D01*
X74942658Y-63658302D01*
X74901456Y-63685832D01*
X74852855Y-63695499D01*
X74830708Y-63695499D01*
X74795023Y-63702597D01*
X74788855Y-63703512D01*
X74752674Y-63707074D01*
X74717878Y-63717630D01*
X74711830Y-63719144D01*
X74676148Y-63726242D01*
X74642542Y-63740163D01*
X74636669Y-63742264D01*
X74601870Y-63752820D01*
X74569796Y-63769964D01*
X74564159Y-63772631D01*
X74530552Y-63786551D01*
X74500315Y-63806755D01*
X74494968Y-63809960D01*
X74462890Y-63827106D01*
X74434779Y-63850177D01*
X74429770Y-63853892D01*
X74399530Y-63874097D01*
X74373805Y-63899822D01*
X74369185Y-63904009D01*
X74341076Y-63927076D01*
X74318009Y-63955185D01*
X74313822Y-63959805D01*
X73462595Y-64811032D01*
X73442387Y-64841276D01*
X73438674Y-64846283D01*
X73415606Y-64874391D01*
X73398462Y-64906465D01*
X73395257Y-64911813D01*
X73375050Y-64942053D01*
X73361130Y-64975661D01*
X73358463Y-64981298D01*
X73341319Y-65013371D01*
X73330765Y-65048169D01*
X73328663Y-65054041D01*
X73314742Y-65087648D01*
X73307644Y-65123330D01*
X73306130Y-65129378D01*
X73295574Y-65164174D01*
X73292012Y-65200355D01*
X73291097Y-65206523D01*
X73283999Y-65242207D01*
X73283999Y-65278590D01*
X73283693Y-65284817D01*
X73280129Y-65320999D01*
X73283693Y-65357181D01*
X73283999Y-65363408D01*
X73283999Y-65399790D01*
X73291097Y-65435475D01*
X73292012Y-65441643D01*
X73295574Y-65477823D01*
X73306130Y-65512620D01*
X73307644Y-65518668D01*
X73314742Y-65554349D01*
X73328663Y-65587957D01*
X73330765Y-65593829D01*
X73341319Y-65628626D01*
X73358463Y-65660700D01*
X73361130Y-65666337D01*
X73375050Y-65699944D01*
X73395257Y-65730185D01*
X73398462Y-65735533D01*
X73415606Y-65767606D01*
X73438674Y-65795715D01*
X73442387Y-65800722D01*
X73462595Y-65830966D01*
X73488322Y-65856693D01*
X73492509Y-65861313D01*
X73515576Y-65889421D01*
X73543685Y-65912489D01*
X73548305Y-65916676D01*
X73574031Y-65942402D01*
X73604276Y-65962611D01*
X73609283Y-65966324D01*
X73637391Y-65989391D01*
X73669465Y-66006536D01*
X73674813Y-66009741D01*
X73705053Y-66029947D01*
X73738661Y-66043868D01*
X73744298Y-66046535D01*
X73776371Y-66063678D01*
X73811169Y-66074233D01*
X73817041Y-66076335D01*
X73850648Y-66090255D01*
X73886330Y-66097354D01*
X73892378Y-66098868D01*
X73927174Y-66109423D01*
X73963355Y-66112986D01*
X73969523Y-66113901D01*
X74005208Y-66120999D01*
X74041590Y-66120999D01*
X74047817Y-66121305D01*
X74083999Y-66124868D01*
X74120181Y-66121305D01*
X74126408Y-66120999D01*
X74162790Y-66120999D01*
X74198475Y-66113901D01*
X74204643Y-66112986D01*
X74240823Y-66109423D01*
X74275620Y-66098868D01*
X74281668Y-66097354D01*
X74317349Y-66090255D01*
X74350957Y-66076335D01*
X74356829Y-66074233D01*
X74391626Y-66063678D01*
X74423700Y-66046535D01*
X74429337Y-66043868D01*
X74462944Y-66029947D01*
X74493185Y-66009741D01*
X74498533Y-66006536D01*
X74530606Y-65989391D01*
X74558715Y-65966324D01*
X74563722Y-65962611D01*
X74593968Y-65942400D01*
X74819696Y-65716672D01*
X74860898Y-65689141D01*
X74909499Y-65679474D01*
X74958100Y-65689141D01*
X74999301Y-65716671D01*
X74999302Y-65716671D01*
X79426803Y-70144173D01*
X79454333Y-70185375D01*
X79464000Y-70233976D01*
X79464001Y-75014581D01*
X79463695Y-75020809D01*
X79460130Y-75057000D01*
X79475575Y-75213822D01*
X79521321Y-75364627D01*
X79595607Y-75503608D01*
X79695578Y-75625421D01*
X79723686Y-75648488D01*
X79728306Y-75652676D01*
X81725813Y-77650183D01*
X81753343Y-77691385D01*
X81763010Y-77739986D01*
X81763010Y-79332591D01*
X81762704Y-79338818D01*
X81759140Y-79375000D01*
X81762704Y-79411182D01*
X81763010Y-79417409D01*
X81763010Y-79453790D01*
X81770108Y-79489475D01*
X81771023Y-79495644D01*
X81774586Y-79531827D01*
X81785141Y-79566621D01*
X81786655Y-79572668D01*
X81793753Y-79608351D01*
X81807674Y-79641958D01*
X81809776Y-79647830D01*
X81820330Y-79682627D01*
X81837474Y-79714701D01*
X81840141Y-79720338D01*
X81854061Y-79753945D01*
X81874268Y-79784186D01*
X81877473Y-79789534D01*
X81894617Y-79821607D01*
X81917685Y-79849716D01*
X81921398Y-79854723D01*
X81941606Y-79884967D01*
X81967339Y-79910700D01*
X81971527Y-79915320D01*
X81994589Y-79943421D01*
X82022691Y-79966484D01*
X82027311Y-79970672D01*
X83490803Y-81434163D01*
X83518333Y-81475365D01*
X83528000Y-81523966D01*
X83528000Y-94013593D01*
X83527694Y-94019820D01*
X83524130Y-94055998D01*
X83539576Y-94212833D01*
X83585318Y-94363625D01*
X83659608Y-94502610D01*
X83759577Y-94624423D01*
X83787691Y-94647495D01*
X83792311Y-94651683D01*
X84778825Y-95638197D01*
X84806355Y-95679399D01*
X84816022Y-95728000D01*
X84806355Y-95776601D01*
X84778825Y-95817803D01*
X84737623Y-95845333D01*
X84689022Y-95855000D01*
X81922000Y-95855000D01*
X81873399Y-95845333D01*
X81832197Y-95817803D01*
X81804667Y-95776601D01*
X81795000Y-95728000D01*
X81795000Y-95644735D01*
X81750806Y-95422556D01*
X81733687Y-95381228D01*
X81724019Y-95332627D01*
X81733686Y-95284026D01*
X81761216Y-95242824D01*
X81761217Y-95242823D01*
X82198556Y-94805485D01*
X82203176Y-94801297D01*
X82216975Y-94789972D01*
X82270083Y-94725260D01*
X82309548Y-94651426D01*
X82333848Y-94571319D01*
X82342054Y-94487998D01*
X82340306Y-94470249D01*
X82340000Y-94464021D01*
X82340000Y-92479990D01*
X82340306Y-92473762D01*
X82342055Y-92455998D01*
X82333850Y-92372685D01*
X82309548Y-92292574D01*
X82270085Y-92218743D01*
X82216971Y-92154024D01*
X82203176Y-92142703D01*
X82198556Y-92138515D01*
X80726197Y-90666159D01*
X80698667Y-90624957D01*
X80689000Y-90576356D01*
X80689000Y-81263286D01*
X80689306Y-81257058D01*
X80691055Y-81239294D01*
X80682850Y-81155981D01*
X80658548Y-81075870D01*
X80619085Y-81002039D01*
X80565971Y-80937320D01*
X80552176Y-80925999D01*
X80547556Y-80921811D01*
X74395664Y-74769921D01*
X74391476Y-74765301D01*
X74380145Y-74751494D01*
X74315426Y-74698380D01*
X74241595Y-74658917D01*
X74161484Y-74634615D01*
X74078172Y-74626410D01*
X74060411Y-74628160D01*
X74054182Y-74628466D01*
X72290522Y-74628466D01*
X72284293Y-74628160D01*
X72266531Y-74626410D01*
X72183219Y-74634615D01*
X72103108Y-74658917D01*
X72029277Y-74698380D01*
X71964560Y-74751492D01*
X71953233Y-74765295D01*
X71949045Y-74769915D01*
X71256159Y-75462802D01*
X71214957Y-75490333D01*
X71166356Y-75500000D01*
X71051059Y-75500000D01*
X70915817Y-75526901D01*
X70788427Y-75579668D01*
X70673777Y-75656275D01*
X70576275Y-75753777D01*
X70499668Y-75868427D01*
X70446901Y-75995817D01*
X70420000Y-76131058D01*
X70420000Y-76268941D01*
X70446901Y-76404182D01*
X70499668Y-76531572D01*
X70576275Y-76646222D01*
X70673777Y-76743724D01*
X70788427Y-76820331D01*
X70915817Y-76873098D01*
X71051059Y-76900000D01*
X71188941Y-76900000D01*
X71324182Y-76873098D01*
X71451572Y-76820331D01*
X71566222Y-76743724D01*
X71633813Y-76676134D01*
X71675015Y-76648604D01*
X71723616Y-76638937D01*
X71772217Y-76648604D01*
X71794174Y-76660341D01*
X71903423Y-76733339D01*
X72030817Y-76786108D01*
X72166059Y-76813010D01*
X72303941Y-76813010D01*
X72439182Y-76786108D01*
X72566575Y-76733340D01*
X72588311Y-76718817D01*
X72634092Y-76699854D01*
X72683645Y-76699854D01*
X72729426Y-76718818D01*
X72764465Y-76753857D01*
X72783428Y-76799638D01*
X72785257Y-76811967D01*
X72786837Y-76828014D01*
X72811137Y-76908121D01*
X72850600Y-76981952D01*
X72903714Y-77046672D01*
X72917519Y-77058001D01*
X72922140Y-77062189D01*
X73526510Y-77666560D01*
X73530698Y-77671180D01*
X73542025Y-77684982D01*
X73606742Y-77738094D01*
X73680573Y-77777557D01*
X73760684Y-77801859D01*
X73843996Y-77810064D01*
X73861758Y-77808315D01*
X73867987Y-77808009D01*
X74360365Y-77808009D01*
X74408966Y-77817676D01*
X74450168Y-77845206D01*
X78531804Y-81926843D01*
X78559334Y-81968045D01*
X78569001Y-82016646D01*
X78569000Y-91983015D01*
X78559333Y-92031616D01*
X78531803Y-92072818D01*
X78490601Y-92100348D01*
X78442000Y-92110015D01*
X78417224Y-92107575D01*
X78218265Y-92068000D01*
X77991735Y-92068000D01*
X77769558Y-92112193D01*
X77560268Y-92198884D01*
X77502571Y-92237437D01*
X77456790Y-92256401D01*
X77407237Y-92256401D01*
X77361456Y-92237438D01*
X77326417Y-92202399D01*
X77307453Y-92156618D01*
X77305013Y-92131841D01*
X77305013Y-83126992D01*
X77305319Y-83120764D01*
X77307067Y-83103014D01*
X77298861Y-83019693D01*
X77274561Y-82939586D01*
X77235096Y-82865752D01*
X77181988Y-82801040D01*
X77168189Y-82789716D01*
X77163569Y-82785528D01*
X74739493Y-80361454D01*
X74735305Y-80356833D01*
X74723976Y-80343028D01*
X74659256Y-80289914D01*
X74585425Y-80250451D01*
X74505314Y-80226149D01*
X74422002Y-80217944D01*
X74404241Y-80219694D01*
X74398012Y-80220000D01*
X73642553Y-80220000D01*
X73593952Y-80210333D01*
X73552750Y-80182803D01*
X73471222Y-80101275D01*
X73356572Y-80024668D01*
X73229182Y-79971901D01*
X73093941Y-79945000D01*
X72956059Y-79945000D01*
X72820817Y-79971901D01*
X72693427Y-80024668D01*
X72578777Y-80101275D01*
X72481275Y-80198777D01*
X72404668Y-80313427D01*
X72351901Y-80440817D01*
X72325000Y-80576058D01*
X72325000Y-80713941D01*
X72351901Y-80849182D01*
X72404668Y-80976572D01*
X72481275Y-81091222D01*
X72578777Y-81188724D01*
X72693427Y-81265331D01*
X72820817Y-81318098D01*
X72956059Y-81345000D01*
X73093941Y-81345000D01*
X73229182Y-81318098D01*
X73356572Y-81265331D01*
X73471222Y-81188724D01*
X73552750Y-81107197D01*
X73593952Y-81079667D01*
X73642553Y-81070000D01*
X74193356Y-81070000D01*
X74241957Y-81079667D01*
X74283159Y-81107197D01*
X75515908Y-82339947D01*
X75543438Y-82381149D01*
X75553105Y-82429750D01*
X75543438Y-82478351D01*
X75515908Y-82519553D01*
X75474706Y-82547083D01*
X75426105Y-82556750D01*
X65184303Y-82556750D01*
X65135702Y-82547083D01*
X65094500Y-82519553D01*
X65012972Y-82438025D01*
X64898322Y-82361418D01*
X64770932Y-82308651D01*
X64635691Y-82281750D01*
X64497809Y-82281750D01*
X64362567Y-82308651D01*
X64235177Y-82361418D01*
X64120527Y-82438025D01*
X64023025Y-82535527D01*
X63946418Y-82650177D01*
X63893651Y-82777567D01*
X63866750Y-82912808D01*
X63866750Y-83050691D01*
X63893651Y-83185932D01*
X63946418Y-83313322D01*
X64023025Y-83427972D01*
X64120527Y-83525474D01*
X64235177Y-83602081D01*
X64362567Y-83654848D01*
X64497809Y-83681750D01*
X64635691Y-83681750D01*
X64770932Y-83654848D01*
X64898322Y-83602081D01*
X65012972Y-83525474D01*
X65094500Y-83443947D01*
X65135702Y-83416417D01*
X65184303Y-83406750D01*
X75641105Y-83406750D01*
X75689706Y-83416417D01*
X75730908Y-83443947D01*
X75991803Y-83704842D01*
X76019333Y-83746044D01*
X76029000Y-83794645D01*
X76029001Y-91983015D01*
X76019334Y-92031616D01*
X75991804Y-92072818D01*
X75950602Y-92100348D01*
X75902001Y-92110015D01*
X75877225Y-92107575D01*
X75678265Y-92068000D01*
X75451735Y-92068000D01*
X75229558Y-92112193D01*
X75020269Y-92198883D01*
X74831920Y-92324734D01*
X74671734Y-92484920D01*
X74545883Y-92673269D01*
X74459193Y-92882558D01*
X74419560Y-93081810D01*
X74400597Y-93127591D01*
X74365557Y-93162631D01*
X74319777Y-93181594D01*
X74270224Y-93181594D01*
X74224443Y-93162631D01*
X74189403Y-93127591D01*
X74170440Y-93081811D01*
X74170440Y-93081810D01*
X74130806Y-92882558D01*
X74044116Y-92673269D01*
X73918265Y-92484920D01*
X73758079Y-92324734D01*
X73569730Y-92198883D01*
X73360441Y-92112193D01*
X73138265Y-92068000D01*
X72911735Y-92068000D01*
X72689558Y-92112193D01*
X72480269Y-92198883D01*
X72291920Y-92324734D01*
X72131734Y-92484920D01*
X72005883Y-92673269D01*
X71919193Y-92882558D01*
X71879560Y-93081810D01*
X71860597Y-93127591D01*
X71825557Y-93162631D01*
X71779777Y-93181594D01*
X71730224Y-93181594D01*
X71684443Y-93162631D01*
X71649403Y-93127591D01*
X71630440Y-93081811D01*
X71630440Y-93081810D01*
X71590806Y-92882558D01*
X71504116Y-92673269D01*
X71378265Y-92484920D01*
X71218079Y-92324734D01*
X71029730Y-92198883D01*
X70820441Y-92112193D01*
X70598265Y-92068000D01*
X70371735Y-92068000D01*
X70149558Y-92112193D01*
X69940269Y-92198883D01*
X69751920Y-92324734D01*
X69591734Y-92484920D01*
X69465883Y-92673269D01*
X69379193Y-92882558D01*
X69339560Y-93081810D01*
X69320597Y-93127591D01*
X69285557Y-93162631D01*
X69239777Y-93181594D01*
X69190224Y-93181594D01*
X69144443Y-93162631D01*
X69109403Y-93127591D01*
X69090440Y-93081811D01*
X69090440Y-93081810D01*
X69050806Y-92882558D01*
X68964116Y-92673269D01*
X68838265Y-92484920D01*
X68678079Y-92324734D01*
X68489730Y-92198883D01*
X68280441Y-92112193D01*
X68058265Y-92068000D01*
X67831735Y-92068000D01*
X67609558Y-92112193D01*
X67400269Y-92198883D01*
X67211920Y-92324734D01*
X67051734Y-92484920D01*
X66925883Y-92673269D01*
X66839193Y-92882558D01*
X66799560Y-93081810D01*
X66780597Y-93127591D01*
X66745557Y-93162631D01*
X66699777Y-93181594D01*
X66650224Y-93181594D01*
X66604443Y-93162631D01*
X66569403Y-93127591D01*
X66550440Y-93081811D01*
X66550440Y-93081810D01*
X66510806Y-92882558D01*
X66424116Y-92673269D01*
X66298265Y-92484920D01*
X66138079Y-92324734D01*
X65949730Y-92198883D01*
X65740441Y-92112193D01*
X65518265Y-92068000D01*
X65291735Y-92068000D01*
X65069558Y-92112193D01*
X64860269Y-92198883D01*
X64671920Y-92324734D01*
X64511734Y-92484920D01*
X64385883Y-92673269D01*
X64299193Y-92882558D01*
X64259560Y-93081810D01*
X64240597Y-93127591D01*
X64205557Y-93162631D01*
X64159777Y-93181594D01*
X64110224Y-93181594D01*
X64064443Y-93162631D01*
X64029403Y-93127591D01*
X64010440Y-93081811D01*
X64010440Y-93081810D01*
X63970806Y-92882558D01*
X63884116Y-92673269D01*
X63758265Y-92484920D01*
X63598079Y-92324734D01*
X63409730Y-92198883D01*
X63200441Y-92112193D01*
X62978265Y-92068000D01*
X62751735Y-92068000D01*
X62529558Y-92112193D01*
X62320269Y-92198883D01*
X62131920Y-92324734D01*
X61971734Y-92484920D01*
X61845883Y-92673269D01*
X61759193Y-92882558D01*
X61719560Y-93081810D01*
X61700597Y-93127591D01*
X61665557Y-93162631D01*
X61619777Y-93181594D01*
X61570224Y-93181594D01*
X61524443Y-93162631D01*
X61489403Y-93127591D01*
X61470440Y-93081811D01*
X61470440Y-93081810D01*
X61430806Y-92882558D01*
X61344116Y-92673269D01*
X61218265Y-92484920D01*
X61058079Y-92324734D01*
X60869730Y-92198883D01*
X60660441Y-92112193D01*
X60438265Y-92068000D01*
X60211735Y-92068000D01*
X59989558Y-92112193D01*
X59780269Y-92198883D01*
X59591920Y-92324734D01*
X59431734Y-92484920D01*
X59305883Y-92673269D01*
X59219193Y-92882558D01*
X59179560Y-93081810D01*
X59160597Y-93127591D01*
X59125557Y-93162631D01*
X59079777Y-93181594D01*
X59030224Y-93181594D01*
X58984443Y-93162631D01*
X58949403Y-93127591D01*
X58930440Y-93081811D01*
X58930440Y-93081810D01*
X58890806Y-92882558D01*
X58804116Y-92673269D01*
X58678265Y-92484920D01*
X58518079Y-92324734D01*
X58329730Y-92198883D01*
X58120441Y-92112193D01*
X57898265Y-92068000D01*
X57671735Y-92068000D01*
X57449558Y-92112193D01*
X57240269Y-92198883D01*
X57051920Y-92324734D01*
X56891734Y-92484920D01*
X56765883Y-92673269D01*
X56679193Y-92882558D01*
X56639560Y-93081810D01*
X56620597Y-93127591D01*
X56585557Y-93162631D01*
X56539777Y-93181594D01*
X56490224Y-93181594D01*
X56444443Y-93162631D01*
X56409403Y-93127591D01*
X56390440Y-93081811D01*
X56390440Y-93081810D01*
X56350806Y-92882558D01*
X56264116Y-92673269D01*
X56138265Y-92484920D01*
X55978079Y-92324734D01*
X55789730Y-92198883D01*
X55580441Y-92112193D01*
X55358265Y-92068000D01*
X55131735Y-92068000D01*
X54909558Y-92112193D01*
X54700269Y-92198883D01*
X54511920Y-92324734D01*
X54351734Y-92484920D01*
X54225883Y-92673269D01*
X54139193Y-92882558D01*
X54099560Y-93081810D01*
X54080597Y-93127591D01*
X54045557Y-93162631D01*
X53999777Y-93181594D01*
X53950224Y-93181594D01*
X53904443Y-93162631D01*
X53869403Y-93127591D01*
X53850440Y-93081811D01*
X53850440Y-93081810D01*
X53810806Y-92882558D01*
X53724116Y-92673269D01*
X53598265Y-92484920D01*
X53438079Y-92324734D01*
X53249730Y-92198883D01*
X53040441Y-92112193D01*
X52818265Y-92068000D01*
X52591735Y-92068000D01*
X52369558Y-92112193D01*
X52160269Y-92198883D01*
X51971920Y-92324734D01*
X51811734Y-92484920D01*
X51685883Y-92673269D01*
X51599193Y-92882558D01*
X51568626Y-93036232D01*
X51549663Y-93082013D01*
X51514623Y-93117053D01*
X51468843Y-93136016D01*
X51419290Y-93136016D01*
X51373509Y-93117053D01*
X51338469Y-93082013D01*
X51319506Y-93036233D01*
X51317066Y-93011456D01*
X51317066Y-92374244D01*
X51310658Y-92309186D01*
X51293505Y-92252640D01*
X51265647Y-92200522D01*
X51228158Y-92154841D01*
X51182477Y-92117352D01*
X51130359Y-92089494D01*
X51073813Y-92072341D01*
X51008756Y-92065934D01*
X49504500Y-92065934D01*
X49455899Y-92056267D01*
X49414697Y-92028737D01*
X49387167Y-91987535D01*
X49377500Y-91938934D01*
X49377500Y-88557000D01*
X49387167Y-88508399D01*
X49414697Y-88467197D01*
X49455899Y-88439667D01*
X49504500Y-88430000D01*
X50416025Y-88430000D01*
X50464626Y-88439667D01*
X50505828Y-88467197D01*
X51560032Y-89521402D01*
X51590271Y-89541607D01*
X51595280Y-89545322D01*
X51623391Y-89568392D01*
X51655469Y-89585539D01*
X51660816Y-89588744D01*
X51691053Y-89608947D01*
X51724660Y-89622868D01*
X51730297Y-89625535D01*
X51762372Y-89642679D01*
X51797169Y-89653235D01*
X51803040Y-89655335D01*
X51836649Y-89669256D01*
X51872331Y-89676355D01*
X51878378Y-89677869D01*
X51913170Y-89688423D01*
X51949356Y-89691987D01*
X51955525Y-89692902D01*
X51991209Y-89700000D01*
X52027590Y-89700000D01*
X52033817Y-89700306D01*
X52069999Y-89703869D01*
X52106181Y-89700306D01*
X52112408Y-89700000D01*
X52148791Y-89700000D01*
X52184476Y-89692902D01*
X52190644Y-89691987D01*
X52226825Y-89688423D01*
X52261617Y-89677870D01*
X52267666Y-89676354D01*
X52303350Y-89669256D01*
X52336965Y-89655333D01*
X52342836Y-89653233D01*
X52377625Y-89642679D01*
X52409696Y-89625538D01*
X52415331Y-89622873D01*
X52448940Y-89608950D01*
X52479189Y-89588741D01*
X52484536Y-89585536D01*
X52516607Y-89568392D01*
X52544716Y-89545325D01*
X52549723Y-89541612D01*
X52579967Y-89521403D01*
X52605694Y-89495677D01*
X52610314Y-89491490D01*
X52638422Y-89468422D01*
X52661490Y-89440314D01*
X52665677Y-89435694D01*
X52691403Y-89409967D01*
X52711612Y-89379723D01*
X52715325Y-89374716D01*
X52738392Y-89346607D01*
X52755536Y-89314536D01*
X52758741Y-89309189D01*
X52778950Y-89278940D01*
X52792873Y-89245331D01*
X52795538Y-89239696D01*
X52812679Y-89207625D01*
X52823233Y-89172836D01*
X52825333Y-89166965D01*
X52839256Y-89133350D01*
X52846354Y-89097666D01*
X52847870Y-89091617D01*
X52858423Y-89056825D01*
X52861987Y-89020644D01*
X52862902Y-89014476D01*
X52870000Y-88978791D01*
X52870000Y-88942408D01*
X52870306Y-88936181D01*
X52873869Y-88899999D01*
X52870306Y-88863817D01*
X52870000Y-88857590D01*
X52870000Y-88821209D01*
X52862902Y-88785525D01*
X52861987Y-88779356D01*
X52858423Y-88743170D01*
X52847869Y-88708378D01*
X52846355Y-88702331D01*
X52839256Y-88666649D01*
X52825335Y-88633040D01*
X52823235Y-88627169D01*
X52812679Y-88592372D01*
X52795535Y-88560297D01*
X52792868Y-88554660D01*
X52778947Y-88521053D01*
X52758744Y-88490816D01*
X52755539Y-88485469D01*
X52738392Y-88453391D01*
X52715322Y-88425280D01*
X52711607Y-88420271D01*
X52691402Y-88390032D01*
X51395677Y-87094306D01*
X51391490Y-87089686D01*
X51368422Y-87061577D01*
X51340314Y-87038510D01*
X51335694Y-87034323D01*
X51309967Y-87008596D01*
X51279723Y-86988388D01*
X51274716Y-86984675D01*
X51246606Y-86961606D01*
X51214532Y-86944462D01*
X51209186Y-86941257D01*
X51178940Y-86921048D01*
X51145341Y-86907131D01*
X51139705Y-86904466D01*
X51107630Y-86887321D01*
X51072825Y-86876764D01*
X51066952Y-86874662D01*
X51033350Y-86860743D01*
X50997678Y-86853647D01*
X50991631Y-86852133D01*
X50956827Y-86841575D01*
X50920634Y-86838011D01*
X50914465Y-86837096D01*
X50878791Y-86830000D01*
X50842409Y-86830000D01*
X50836182Y-86829694D01*
X50800000Y-86826130D01*
X50763818Y-86829694D01*
X50757591Y-86830000D01*
X49282250Y-86830000D01*
X49233649Y-86820333D01*
X49192447Y-86792803D01*
X49184078Y-86783569D01*
X49145921Y-86737075D01*
X49117816Y-86714011D01*
X49113196Y-86709823D01*
X44652197Y-82248826D01*
X44624667Y-82207624D01*
X44615000Y-82159023D01*
X44615000Y-78533182D01*
X44624667Y-78484581D01*
X44652197Y-78443379D01*
X44671443Y-78427585D01*
X44962430Y-78233153D01*
X45213153Y-77982430D01*
X45410138Y-77687621D01*
X45545827Y-77360039D01*
X45615000Y-77012283D01*
X45615000Y-76657716D01*
X45545827Y-76309960D01*
X45410139Y-75982381D01*
X45369450Y-75921486D01*
X45350487Y-75875705D01*
X45350487Y-75826152D01*
X45369450Y-75780371D01*
X45385244Y-75761125D01*
X50713173Y-70433197D01*
X50754375Y-70405667D01*
X50802976Y-70396000D01*
X51900580Y-70396000D01*
X51906807Y-70396306D01*
X51942999Y-70399870D01*
X51979191Y-70396306D01*
X51985419Y-70396000D01*
X52021791Y-70396000D01*
X52057465Y-70388904D01*
X52063634Y-70387989D01*
X52099827Y-70384424D01*
X52134631Y-70373867D01*
X52140678Y-70372353D01*
X52176350Y-70365256D01*
X52209952Y-70351338D01*
X52215825Y-70349236D01*
X52250630Y-70338678D01*
X52282705Y-70321534D01*
X52288341Y-70318869D01*
X52321940Y-70304951D01*
X52352186Y-70284743D01*
X52357532Y-70281538D01*
X52389606Y-70264393D01*
X52417716Y-70241325D01*
X52422723Y-70237612D01*
X52452967Y-70217403D01*
X52478694Y-70191677D01*
X52483314Y-70187490D01*
X52511422Y-70164422D01*
X52534490Y-70136314D01*
X52538677Y-70131694D01*
X52564403Y-70105967D01*
X52584612Y-70075723D01*
X52588325Y-70070716D01*
X52611393Y-70042606D01*
X52628538Y-70010532D01*
X52631743Y-70005186D01*
X52651951Y-69974940D01*
X52665869Y-69941341D01*
X52668534Y-69935705D01*
X52685678Y-69903630D01*
X52696236Y-69868825D01*
X52698338Y-69862952D01*
X52712256Y-69829350D01*
X52719353Y-69793678D01*
X52720867Y-69787631D01*
X52731424Y-69752827D01*
X52734989Y-69716634D01*
X52735904Y-69710465D01*
X52743000Y-69674790D01*
X52743000Y-69638419D01*
X52743306Y-69632191D01*
X52746870Y-69595999D01*
X52743306Y-69559807D01*
X52743000Y-69553580D01*
X52743000Y-68241420D01*
X52743306Y-68235193D01*
X52746870Y-68199000D01*
X52743306Y-68162807D01*
X52743000Y-68156580D01*
X52743000Y-68120209D01*
X52735904Y-68084535D01*
X52734989Y-68078366D01*
X52731424Y-68042172D01*
X52720867Y-68007369D01*
X52719353Y-68001322D01*
X52712256Y-67965649D01*
X52698338Y-67932048D01*
X52696236Y-67926175D01*
X52685678Y-67891369D01*
X52668534Y-67859295D01*
X52665869Y-67853659D01*
X52651951Y-67820059D01*
X52631743Y-67789814D01*
X52628538Y-67784468D01*
X52611393Y-67752393D01*
X52588325Y-67724284D01*
X52584612Y-67719277D01*
X52564403Y-67689032D01*
X52538677Y-67663306D01*
X52534490Y-67658686D01*
X52511422Y-67630577D01*
X52483314Y-67607510D01*
X52478694Y-67603323D01*
X52452967Y-67577596D01*
X52422723Y-67557388D01*
X52417716Y-67553675D01*
X52389606Y-67530606D01*
X52357532Y-67513462D01*
X52352186Y-67510257D01*
X52321940Y-67490048D01*
X52288341Y-67476131D01*
X52282705Y-67473466D01*
X52250630Y-67456321D01*
X52215825Y-67445764D01*
X52209952Y-67443662D01*
X52176350Y-67429743D01*
X52140678Y-67422647D01*
X52134631Y-67421133D01*
X52099827Y-67410575D01*
X52063634Y-67407011D01*
X52057465Y-67406096D01*
X52021791Y-67399000D01*
X51985420Y-67399000D01*
X51979193Y-67398694D01*
X51943000Y-67395129D01*
X51906809Y-67398694D01*
X51900581Y-67399000D01*
X51346236Y-67399000D01*
X51297635Y-67389333D01*
X51256433Y-67361803D01*
X51228903Y-67320601D01*
X51219236Y-67272000D01*
X51221676Y-67247223D01*
X51246000Y-67124941D01*
X51246000Y-66987058D01*
X51219098Y-66851817D01*
X51166331Y-66724427D01*
X51089724Y-66609777D01*
X51008197Y-66528250D01*
X50980667Y-66487048D01*
X50971000Y-66438447D01*
X50971000Y-66357011D01*
X50980667Y-66308410D01*
X51008197Y-66267208D01*
X51049399Y-66239678D01*
X51098000Y-66230011D01*
X53043001Y-66230011D01*
X53049230Y-66230317D01*
X53066991Y-66232066D01*
X53150303Y-66223861D01*
X53230414Y-66199559D01*
X53304245Y-66160096D01*
X53368964Y-66106982D01*
X53380295Y-66093176D01*
X53384483Y-66088556D01*
X55051108Y-64421931D01*
X55092310Y-64394401D01*
X55140911Y-64384734D01*
X55189512Y-64394401D01*
X55230714Y-64421931D01*
X55258244Y-64463133D01*
X55259668Y-64466572D01*
X55336275Y-64581222D01*
X55417804Y-64662751D01*
X55445334Y-64703953D01*
X55455001Y-64752554D01*
X55455000Y-85828012D01*
X55454694Y-85834241D01*
X55452944Y-85852000D01*
X55461149Y-85935313D01*
X55485451Y-86015425D01*
X55524914Y-86089256D01*
X55578028Y-86153976D01*
X55591833Y-86165305D01*
X55596454Y-86169493D01*
X56595515Y-87168556D01*
X56599703Y-87173176D01*
X56611024Y-87186971D01*
X56675743Y-87240085D01*
X56749574Y-87279548D01*
X56829685Y-87303850D01*
X56912998Y-87312055D01*
X56930762Y-87310306D01*
X56936990Y-87310000D01*
X57846076Y-87310000D01*
X57894677Y-87319667D01*
X57916634Y-87331404D01*
X57961423Y-87361331D01*
X58088817Y-87414100D01*
X58224059Y-87441002D01*
X58361941Y-87441002D01*
X58497182Y-87414100D01*
X58624572Y-87361333D01*
X58739222Y-87284726D01*
X58836724Y-87187224D01*
X58913331Y-87072574D01*
X58966098Y-86945184D01*
X58993000Y-86809943D01*
X58993000Y-86672060D01*
X58966098Y-86536819D01*
X58913331Y-86409429D01*
X58836724Y-86294779D01*
X58739222Y-86197277D01*
X58624572Y-86120670D01*
X58497182Y-86067903D01*
X58361941Y-86041002D01*
X58224059Y-86041002D01*
X58088817Y-86067903D01*
X57961427Y-86120670D01*
X57846777Y-86197277D01*
X57749275Y-86294779D01*
X57676592Y-86403558D01*
X57641552Y-86438597D01*
X57595771Y-86457560D01*
X57570995Y-86460000D01*
X57141646Y-86460000D01*
X57093045Y-86450333D01*
X57051844Y-86422803D01*
X56342198Y-85713159D01*
X56314667Y-85671957D01*
X56305000Y-85623356D01*
X56305000Y-64752553D01*
X56314667Y-64703952D01*
X56342197Y-64662750D01*
X56342198Y-64662750D01*
X56429435Y-64575514D01*
X56470637Y-64547984D01*
X56519238Y-64538317D01*
X56567838Y-64547985D01*
X56609040Y-64575514D01*
X56712217Y-64678691D01*
X56826867Y-64755298D01*
X56954257Y-64808065D01*
X57018218Y-64820788D01*
X57063999Y-64839752D01*
X57083244Y-64855545D01*
X59627814Y-67400117D01*
X59655344Y-67441319D01*
X59665011Y-67489920D01*
X59665012Y-77084013D01*
X59664706Y-77090242D01*
X59662955Y-77108011D01*
X59671161Y-77191321D01*
X59695464Y-77271437D01*
X59734928Y-77345268D01*
X59788038Y-77409984D01*
X59801841Y-77421312D01*
X59806461Y-77425500D01*
X60896514Y-78515555D01*
X60900701Y-78520175D01*
X60912022Y-78533970D01*
X60976743Y-78587085D01*
X61050574Y-78626548D01*
X61130680Y-78650848D01*
X61214001Y-78659054D01*
X61231751Y-78657306D01*
X61237979Y-78657000D01*
X64078480Y-78657000D01*
X64127081Y-78666667D01*
X64168283Y-78694197D01*
X64195813Y-78735399D01*
X64205480Y-78784000D01*
X64195813Y-78832601D01*
X64176652Y-78864568D01*
X64160916Y-78883741D01*
X64121453Y-78957571D01*
X64097150Y-79037689D01*
X64088944Y-79120999D01*
X64090695Y-79138768D01*
X64091001Y-79144997D01*
X64091001Y-79646446D01*
X64081334Y-79695047D01*
X64053804Y-79736249D01*
X63972275Y-79817777D01*
X63895668Y-79932427D01*
X63842901Y-80059817D01*
X63816000Y-80195058D01*
X63816000Y-80332941D01*
X63842901Y-80468182D01*
X63895668Y-80595572D01*
X63972275Y-80710222D01*
X64069777Y-80807724D01*
X64184427Y-80884331D01*
X64311817Y-80937098D01*
X64447059Y-80964000D01*
X64584941Y-80964000D01*
X64720182Y-80937098D01*
X64847572Y-80884331D01*
X64962222Y-80807724D01*
X65059724Y-80710222D01*
X65136331Y-80595572D01*
X65189098Y-80468182D01*
X65216000Y-80332941D01*
X65216000Y-80195058D01*
X65189098Y-80059817D01*
X65136331Y-79932427D01*
X65059724Y-79817777D01*
X64978197Y-79736250D01*
X64950667Y-79695048D01*
X64941000Y-79646447D01*
X64941000Y-79349645D01*
X64950667Y-79301044D01*
X64978197Y-79259842D01*
X65035842Y-79202197D01*
X65077044Y-79174667D01*
X65125645Y-79165000D01*
X67843356Y-79165000D01*
X67891957Y-79174667D01*
X67933159Y-79202197D01*
X67933159Y-79202198D01*
X69052513Y-80321554D01*
X69056701Y-80326174D01*
X69068025Y-80339973D01*
X69132737Y-80393081D01*
X69206571Y-80432546D01*
X69286678Y-80456846D01*
X69369999Y-80465052D01*
X69387749Y-80463304D01*
X69393977Y-80462998D01*
X70035014Y-80462998D01*
X70041243Y-80463304D01*
X70059004Y-80465053D01*
X70142316Y-80456848D01*
X70222427Y-80432546D01*
X70296258Y-80393083D01*
X70360977Y-80339969D01*
X70372308Y-80326163D01*
X70376496Y-80321543D01*
X70693547Y-80004492D01*
X70698167Y-80000304D01*
X70711973Y-79988973D01*
X70765087Y-79924254D01*
X70804550Y-79850423D01*
X70828852Y-79770312D01*
X70837058Y-79686998D01*
X70835308Y-79669239D01*
X70835002Y-79663010D01*
X70835002Y-78688992D01*
X70835308Y-78682764D01*
X70837057Y-78665000D01*
X70828852Y-78581687D01*
X70804550Y-78501576D01*
X70765087Y-78427745D01*
X70711973Y-78363026D01*
X70698178Y-78351705D01*
X70693558Y-78347517D01*
X68835040Y-76489002D01*
X68807510Y-76447800D01*
X68797843Y-76399199D01*
X68807510Y-76350598D01*
X68835040Y-76309396D01*
X68894922Y-76249513D01*
X68971529Y-76134863D01*
X69024296Y-76007473D01*
X69051198Y-75872232D01*
X69051198Y-75734349D01*
X69024296Y-75599108D01*
X68971529Y-75471718D01*
X68894922Y-75357068D01*
X68797420Y-75259566D01*
X68682770Y-75182959D01*
X68555380Y-75130192D01*
X68420139Y-75103291D01*
X68282257Y-75103291D01*
X68147015Y-75130192D01*
X68019625Y-75182959D01*
X67904975Y-75259566D01*
X67807473Y-75357068D01*
X67730866Y-75471718D01*
X67678099Y-75599108D01*
X67651198Y-75734349D01*
X67651198Y-75872232D01*
X67678099Y-76007473D01*
X67730866Y-76134863D01*
X67807473Y-76249513D01*
X67889001Y-76331041D01*
X67916531Y-76372243D01*
X67926198Y-76420844D01*
X67926198Y-76582210D01*
X67925892Y-76588439D01*
X67924142Y-76606198D01*
X67932347Y-76689511D01*
X67956649Y-76769623D01*
X67996112Y-76843454D01*
X68049226Y-76908174D01*
X68063031Y-76919503D01*
X68067652Y-76923691D01*
X68734158Y-77590198D01*
X68761688Y-77631399D01*
X68771355Y-77680000D01*
X68761688Y-77728601D01*
X68734157Y-77769803D01*
X68692956Y-77797333D01*
X68644355Y-77807000D01*
X61442646Y-77807000D01*
X61394045Y-77797333D01*
X61352844Y-77769803D01*
X60552209Y-76969170D01*
X60524678Y-76927968D01*
X60515011Y-76879367D01*
X60515011Y-67285253D01*
X60515317Y-67279025D01*
X60517065Y-67261275D01*
X60508859Y-67177954D01*
X60484559Y-67097848D01*
X60445096Y-67024017D01*
X60391982Y-66959298D01*
X60378187Y-66947977D01*
X60373567Y-66943789D01*
X57927531Y-64497756D01*
X57900001Y-64456554D01*
X57890334Y-64407953D01*
X57900001Y-64359352D01*
X57927531Y-64318150D01*
X57968733Y-64290620D01*
X58017334Y-64280953D01*
X58065935Y-64290620D01*
X58088817Y-64300098D01*
X58224059Y-64327000D01*
X58361941Y-64327000D01*
X58497182Y-64300098D01*
X58624572Y-64247331D01*
X58739222Y-64170724D01*
X58836724Y-64073222D01*
X58913331Y-63958572D01*
X58966098Y-63831182D01*
X58993000Y-63695941D01*
X58993000Y-63558058D01*
X58966098Y-63422817D01*
X58913331Y-63295427D01*
X58836724Y-63180777D01*
X58739222Y-63083275D01*
X58624572Y-63006668D01*
X58497182Y-62953901D01*
X58361941Y-62927000D01*
X58224059Y-62927000D01*
X58130753Y-62945560D01*
X58105976Y-62948000D01*
X55522988Y-62948000D01*
X55516759Y-62947694D01*
X55498997Y-62945944D01*
X55415685Y-62954149D01*
X55335574Y-62978451D01*
X55261743Y-63017914D01*
X55197026Y-63071026D01*
X55185699Y-63084829D01*
X55181511Y-63089449D01*
X55124803Y-63146158D01*
X55083601Y-63173688D01*
X55035000Y-63183355D01*
X54986399Y-63173688D01*
X54945197Y-63146158D01*
X54917667Y-63104956D01*
X54908000Y-63056355D01*
X54908000Y-61823644D01*
X54917667Y-61775043D01*
X54945197Y-61733841D01*
X54945198Y-61733841D01*
X56009458Y-60669583D01*
X56050659Y-60642053D01*
X56099260Y-60632386D01*
X56351321Y-60632386D01*
X56399922Y-60642053D01*
X56441124Y-60669583D01*
X56522651Y-60751110D01*
X56637301Y-60827717D01*
X56764691Y-60880484D01*
X56899933Y-60907386D01*
X57037815Y-60907386D01*
X57173056Y-60880484D01*
X57300446Y-60827717D01*
X57415096Y-60751110D01*
X57512598Y-60653608D01*
X57589205Y-60538958D01*
X57641972Y-60411568D01*
X57668874Y-60276327D01*
X57668874Y-60138444D01*
X57641972Y-60003203D01*
X57589205Y-59875813D01*
X57512598Y-59761163D01*
X57415093Y-59663658D01*
X57367637Y-59631949D01*
X58609000Y-59631949D01*
X58635901Y-59767190D01*
X58688668Y-59894580D01*
X58765275Y-60009230D01*
X58862777Y-60106732D01*
X58977427Y-60183339D01*
X59104817Y-60236106D01*
X59240059Y-60263008D01*
X59355356Y-60263008D01*
X59403957Y-60272675D01*
X59445159Y-60300205D01*
X62275803Y-63130851D01*
X62303333Y-63172053D01*
X62313000Y-63220654D01*
X62313001Y-68978446D01*
X62303334Y-69027047D01*
X62275804Y-69068249D01*
X62194275Y-69149777D01*
X62117668Y-69264427D01*
X62064901Y-69391817D01*
X62038000Y-69527058D01*
X62038000Y-69664941D01*
X62064901Y-69800182D01*
X62117668Y-69927572D01*
X62194275Y-70042222D01*
X62291777Y-70139724D01*
X62406427Y-70216331D01*
X62533817Y-70269098D01*
X62669059Y-70296000D01*
X62806941Y-70296000D01*
X62942182Y-70269098D01*
X63069572Y-70216331D01*
X63184222Y-70139724D01*
X63281724Y-70042222D01*
X63358331Y-69927572D01*
X63411098Y-69800182D01*
X63438000Y-69664941D01*
X63438000Y-69527058D01*
X63411098Y-69391817D01*
X63358331Y-69264427D01*
X63281724Y-69149777D01*
X63200197Y-69068250D01*
X63172667Y-69027048D01*
X63163000Y-68978447D01*
X63163000Y-63015987D01*
X63163306Y-63009759D01*
X63165054Y-62992009D01*
X63156848Y-62908688D01*
X63132548Y-62828581D01*
X63093083Y-62754747D01*
X63039975Y-62690035D01*
X63026176Y-62678711D01*
X63021556Y-62674523D01*
X60046197Y-59699167D01*
X60018667Y-59657965D01*
X60009000Y-59609364D01*
X60009000Y-59494066D01*
X59982098Y-59358825D01*
X59929331Y-59231435D01*
X59852724Y-59116785D01*
X59755222Y-59019283D01*
X59640572Y-58942676D01*
X59513182Y-58889909D01*
X59377941Y-58863008D01*
X59240059Y-58863008D01*
X59104817Y-58889909D01*
X58977427Y-58942676D01*
X58862777Y-59019283D01*
X58765275Y-59116785D01*
X58688668Y-59231435D01*
X58635901Y-59358825D01*
X58609000Y-59494066D01*
X58609000Y-59631949D01*
X57367637Y-59631949D01*
X57300595Y-59587153D01*
X57300450Y-59587056D01*
X57173056Y-59534287D01*
X57037815Y-59507386D01*
X56912559Y-59507386D01*
X56863958Y-59497719D01*
X56822756Y-59470189D01*
X56795226Y-59428987D01*
X56785559Y-59380386D01*
X56795226Y-59331785D01*
X56822756Y-59290583D01*
X56925551Y-59187789D01*
X56930171Y-59183601D01*
X56943973Y-59172273D01*
X56997085Y-59107556D01*
X57036548Y-59033725D01*
X57060850Y-58953614D01*
X57069056Y-58870300D01*
X57067306Y-58852541D01*
X57067000Y-58846312D01*
X57067000Y-57593645D01*
X57076667Y-57545044D01*
X57104197Y-57503842D01*
X57145399Y-57476312D01*
X57194000Y-57466645D01*
X57242601Y-57476312D01*
X57283803Y-57503842D01*
X57283803Y-57503843D01*
X57594514Y-57814555D01*
X57598701Y-57819175D01*
X57610022Y-57832970D01*
X57674743Y-57886085D01*
X57748574Y-57925548D01*
X57828685Y-57949850D01*
X57911998Y-57958055D01*
X57929762Y-57956306D01*
X57935990Y-57956000D01*
X59553298Y-57956000D01*
X59601899Y-57965667D01*
X59643101Y-57993197D01*
X59670631Y-58034399D01*
X59704668Y-58116572D01*
X59781275Y-58231222D01*
X59878777Y-58328724D01*
X59993427Y-58405331D01*
X60120817Y-58458098D01*
X60256059Y-58485000D01*
X60393941Y-58485000D01*
X60529182Y-58458098D01*
X60656572Y-58405331D01*
X60771222Y-58328724D01*
X60868724Y-58231222D01*
X60945331Y-58116572D01*
X60998098Y-57989182D01*
X61025000Y-57853941D01*
X61025000Y-57716058D01*
X60998098Y-57580817D01*
X60945331Y-57453427D01*
X60868724Y-57338777D01*
X60771222Y-57241275D01*
X60656572Y-57164668D01*
X60529182Y-57111901D01*
X60393941Y-57085000D01*
X60256058Y-57085000D01*
X60149551Y-57106186D01*
X60112326Y-57108015D01*
X60070997Y-57103944D01*
X60053241Y-57105694D01*
X60047012Y-57106000D01*
X58921547Y-57106000D01*
X58872946Y-57096333D01*
X58831744Y-57068803D01*
X58804214Y-57027601D01*
X58794547Y-56979000D01*
X58804214Y-56930399D01*
X58804215Y-56930399D01*
X58839097Y-56846186D01*
X58866000Y-56710941D01*
X58866000Y-56595646D01*
X58875667Y-56547045D01*
X58903197Y-56505843D01*
X58957556Y-56451485D01*
X58962176Y-56447297D01*
X58975971Y-56435975D01*
X59029085Y-56371256D01*
X59068548Y-56297425D01*
X59092848Y-56217319D01*
X59101054Y-56133998D01*
X59099306Y-56116249D01*
X59099000Y-56110021D01*
X59099000Y-55948941D01*
X59625000Y-55948941D01*
X59651901Y-56084182D01*
X59704668Y-56211572D01*
X59781275Y-56326222D01*
X59878777Y-56423724D01*
X59993427Y-56500331D01*
X60120817Y-56553098D01*
X60256059Y-56580000D01*
X60393941Y-56580000D01*
X60529182Y-56553098D01*
X60656572Y-56500331D01*
X60771222Y-56423724D01*
X60868724Y-56326222D01*
X60945331Y-56211572D01*
X60998098Y-56084182D01*
X61025000Y-55948941D01*
X61025000Y-55833644D01*
X61034667Y-55785043D01*
X61062197Y-55743841D01*
X63892843Y-52913197D01*
X63934045Y-52885667D01*
X63982646Y-52876000D01*
X73297350Y-52876000D01*
X73345951Y-52885667D01*
X73387153Y-52913197D01*
X78232797Y-57758843D01*
X78260327Y-57800045D01*
X78269994Y-57848646D01*
X78269994Y-57963941D01*
X78296895Y-58099182D01*
X78349662Y-58226572D01*
X78426269Y-58341222D01*
X78523771Y-58438724D01*
X78638421Y-58515331D01*
X78765811Y-58568098D01*
X78901053Y-58595000D01*
X79038935Y-58595000D01*
X79174176Y-58568098D01*
X79301566Y-58515331D01*
X79416216Y-58438724D01*
X79513718Y-58341222D01*
X79590325Y-58226572D01*
X79643092Y-58099182D01*
X79669994Y-57963941D01*
X79669994Y-57826058D01*
X79643092Y-57690817D01*
X79590325Y-57563427D01*
X79513718Y-57448777D01*
X79416216Y-57351275D01*
X79301566Y-57274668D01*
X79174176Y-57221901D01*
X79038935Y-57195000D01*
X78923640Y-57195000D01*
X78875039Y-57185333D01*
X78833837Y-57157803D01*
X73843488Y-52167455D01*
X73839300Y-52162835D01*
X73827969Y-52149028D01*
X73763250Y-52095914D01*
X73689419Y-52056451D01*
X73609308Y-52032149D01*
X73525996Y-52023944D01*
X73508235Y-52025694D01*
X73502006Y-52026000D01*
X63777979Y-52026000D01*
X63771751Y-52025694D01*
X63754001Y-52023945D01*
X63670680Y-52032151D01*
X63590573Y-52056451D01*
X63516739Y-52095916D01*
X63452027Y-52149024D01*
X63440703Y-52162824D01*
X63436515Y-52167444D01*
X60461159Y-55142803D01*
X60419957Y-55170333D01*
X60371356Y-55180000D01*
X60256059Y-55180000D01*
X60120817Y-55206901D01*
X59993427Y-55259668D01*
X59878777Y-55336275D01*
X59781275Y-55433777D01*
X59704668Y-55548427D01*
X59651901Y-55675817D01*
X59625000Y-55811058D01*
X59625000Y-55948941D01*
X59099000Y-55948941D01*
X59099000Y-50012644D01*
X59108667Y-49964043D01*
X59136197Y-49922841D01*
X59136198Y-49922841D01*
X60082844Y-48976197D01*
X60124045Y-48948667D01*
X60172646Y-48939000D01*
X60936012Y-48939000D01*
X60942241Y-48939306D01*
X60960002Y-48941055D01*
X61043314Y-48932850D01*
X61123425Y-48908548D01*
X61197256Y-48869085D01*
X61261976Y-48815971D01*
X61273305Y-48802167D01*
X61277493Y-48797546D01*
X61878556Y-48196485D01*
X61883176Y-48192297D01*
X61896971Y-48180975D01*
X61950083Y-48116257D01*
X61973628Y-48072210D01*
X62005064Y-48033906D01*
X62048766Y-48010547D01*
X62098080Y-48005690D01*
X62145500Y-48020074D01*
X62156189Y-48026481D01*
X62320269Y-48136116D01*
X62529558Y-48222806D01*
X62751735Y-48267000D01*
X62978265Y-48267000D01*
X63200441Y-48222806D01*
X63409730Y-48136116D01*
X63598079Y-48010265D01*
X63758265Y-47850079D01*
X63884116Y-47661730D01*
X63970806Y-47452441D01*
X64010440Y-47253190D01*
X64029403Y-47207409D01*
X64064443Y-47172369D01*
X64110223Y-47153406D01*
X64159776Y-47153406D01*
X64205557Y-47172369D01*
X64240597Y-47207409D01*
X64259560Y-47253189D01*
X64259560Y-47253190D01*
X64299193Y-47452441D01*
X64385883Y-47661730D01*
X64511734Y-47850079D01*
X64671920Y-48010265D01*
X64860269Y-48136116D01*
X65069558Y-48222806D01*
X65291735Y-48267000D01*
X65518265Y-48267000D01*
X65740441Y-48222806D01*
X65949730Y-48136116D01*
X66138079Y-48010265D01*
X66298265Y-47850079D01*
X66424116Y-47661730D01*
X66510806Y-47452441D01*
X66550440Y-47253190D01*
X66569403Y-47207409D01*
X66604443Y-47172369D01*
X66650223Y-47153406D01*
X66699776Y-47153406D01*
X66745557Y-47172369D01*
X66780597Y-47207409D01*
X66799560Y-47253189D01*
X66799560Y-47253190D01*
X66839193Y-47452441D01*
X66925883Y-47661730D01*
X67051734Y-47850079D01*
X67211920Y-48010265D01*
X67400269Y-48136116D01*
X67609558Y-48222806D01*
X67831735Y-48267000D01*
X68058265Y-48267000D01*
X68280441Y-48222806D01*
X68489730Y-48136116D01*
X68678079Y-48010265D01*
X68838265Y-47850079D01*
X68964116Y-47661730D01*
X69050806Y-47452441D01*
X69090440Y-47253190D01*
X69109403Y-47207409D01*
X69144443Y-47172369D01*
X69190223Y-47153406D01*
X69239776Y-47153406D01*
X69285557Y-47172369D01*
X69320597Y-47207409D01*
X69339560Y-47253189D01*
X69339560Y-47253190D01*
X69379193Y-47452441D01*
X69465883Y-47661730D01*
X69591734Y-47850079D01*
X69751920Y-48010265D01*
X69940269Y-48136116D01*
X70149558Y-48222806D01*
X70371735Y-48267000D01*
X70598265Y-48267000D01*
X70820441Y-48222806D01*
X71029730Y-48136116D01*
X71218079Y-48010265D01*
X71378265Y-47850079D01*
X71504116Y-47661730D01*
X71590806Y-47452441D01*
X71630440Y-47253190D01*
X71649403Y-47207409D01*
X71684443Y-47172369D01*
X71730223Y-47153406D01*
X71779776Y-47153406D01*
X71825557Y-47172369D01*
X71860597Y-47207409D01*
X71879560Y-47253189D01*
X71879560Y-47253190D01*
X71919193Y-47452441D01*
X72005883Y-47661730D01*
X72131734Y-47850079D01*
X72291920Y-48010265D01*
X72480269Y-48136116D01*
X72689558Y-48222806D01*
X72911735Y-48267000D01*
X73138265Y-48267000D01*
X73360441Y-48222806D01*
X73569730Y-48136116D01*
X73758079Y-48010265D01*
X73918265Y-47850079D01*
X74044116Y-47661730D01*
X74130806Y-47452441D01*
X74170440Y-47253190D01*
X74189403Y-47207409D01*
X74224443Y-47172369D01*
X74270223Y-47153406D01*
X74319776Y-47153406D01*
X74365557Y-47172369D01*
X74400597Y-47207409D01*
X74419560Y-47253189D01*
X74419560Y-47253190D01*
X74459193Y-47452441D01*
X74545883Y-47661730D01*
X74671734Y-47850079D01*
X74831920Y-48010265D01*
X75020269Y-48136116D01*
X75229558Y-48222806D01*
X75451735Y-48267000D01*
X75678265Y-48267000D01*
X75900441Y-48222806D01*
X76109730Y-48136116D01*
X76298079Y-48010265D01*
X76458265Y-47850079D01*
X76584116Y-47661730D01*
X76670806Y-47452441D01*
X76710440Y-47253190D01*
X76729403Y-47207409D01*
X76764443Y-47172369D01*
X76810223Y-47153406D01*
X76859776Y-47153406D01*
X76905557Y-47172369D01*
X76940597Y-47207409D01*
X76959560Y-47253189D01*
X76959560Y-47253190D01*
X76999193Y-47452441D01*
X77085883Y-47661730D01*
X77211734Y-47850079D01*
X77371920Y-48010265D01*
X77560269Y-48136116D01*
X77769558Y-48222806D01*
X77991735Y-48267000D01*
X78218265Y-48267000D01*
X78440441Y-48222806D01*
X78649730Y-48136116D01*
X78838079Y-48010265D01*
X78998265Y-47850079D01*
X79124116Y-47661730D01*
X79210806Y-47452441D01*
X79241374Y-47298768D01*
X79260337Y-47252987D01*
X79295377Y-47217947D01*
X79341157Y-47198984D01*
X79390710Y-47198984D01*
X79436491Y-47217947D01*
X79471531Y-47252987D01*
X79490494Y-47298767D01*
X79492934Y-47323544D01*
X79492934Y-47960755D01*
X79499341Y-48025813D01*
X79516494Y-48082359D01*
X79544352Y-48134477D01*
X79581841Y-48180158D01*
X79627522Y-48217647D01*
X79679640Y-48245505D01*
X79736186Y-48262658D01*
X79801244Y-48269066D01*
X81488756Y-48269066D01*
X81553813Y-48262658D01*
X81610359Y-48245505D01*
X81662477Y-48217647D01*
X81708158Y-48180158D01*
X81745647Y-48134477D01*
X81773505Y-48082359D01*
X81790658Y-48025813D01*
X81797066Y-47960755D01*
X81797066Y-46273244D01*
X81790658Y-46208186D01*
X81773505Y-46151640D01*
X81745647Y-46099522D01*
X81708158Y-46053841D01*
X81662477Y-46016352D01*
X81610359Y-45988494D01*
X81553813Y-45971341D01*
X81488756Y-45964934D01*
X80851544Y-45964934D01*
X80802943Y-45955267D01*
X80761741Y-45927737D01*
X80734211Y-45886535D01*
X80724544Y-45837934D01*
X80734211Y-45789333D01*
X80761741Y-45748131D01*
X80802943Y-45720601D01*
X80826768Y-45713374D01*
X80980441Y-45682806D01*
X81189730Y-45596116D01*
X81378079Y-45470265D01*
X81538265Y-45310079D01*
X81664116Y-45121730D01*
X81750806Y-44912441D01*
X81795000Y-44690264D01*
X81795000Y-44607000D01*
X81804667Y-44558399D01*
X81832197Y-44517197D01*
X81873399Y-44489667D01*
X81922000Y-44480000D01*
X85083000Y-44480000D01*
X85131601Y-44489667D01*
G37*
G04 #@! TD.AperFunction*
G04 #@! TA.AperFunction,Conductor*
G36*
X89075601Y-95493667D02*
G01*
X89116803Y-95521197D01*
X89124813Y-95533186D01*
X89136803Y-95541197D01*
X89164333Y-95582399D01*
X89174000Y-95631000D01*
X89174000Y-95728000D01*
X89164333Y-95776601D01*
X89136803Y-95817803D01*
X89095601Y-95845333D01*
X89047000Y-95855000D01*
X88753000Y-95855000D01*
X88704399Y-95845333D01*
X88663197Y-95817803D01*
X88635667Y-95776601D01*
X88626000Y-95728000D01*
X88626000Y-95631000D01*
X88635667Y-95582399D01*
X88663197Y-95541197D01*
X88675186Y-95533186D01*
X88683197Y-95521197D01*
X88724399Y-95493667D01*
X88773000Y-95484000D01*
X89027000Y-95484000D01*
X89075601Y-95493667D01*
G37*
G04 #@! TD.AperFunction*
G04 #@! TA.AperFunction,Conductor*
G36*
X119315602Y-48660250D02*
G01*
X119356804Y-48687780D01*
X119372598Y-48707026D01*
X119758695Y-49284863D01*
X120260136Y-49786304D01*
X120849759Y-50180277D01*
X121504918Y-50451653D01*
X122200433Y-50590000D01*
X122909567Y-50590000D01*
X123605081Y-50451653D01*
X124260240Y-50180277D01*
X124742443Y-49858080D01*
X124788224Y-49839117D01*
X124837777Y-49839117D01*
X124883557Y-49858080D01*
X124918597Y-49893120D01*
X124937560Y-49938901D01*
X124940000Y-49963677D01*
X124940000Y-50772000D01*
X124930333Y-50820601D01*
X124902803Y-50861803D01*
X124861601Y-50889333D01*
X124813000Y-50899000D01*
X124805376Y-50898771D01*
X124656265Y-50889803D01*
X124361976Y-50930161D01*
X124078895Y-51027957D01*
X123956778Y-51093229D01*
X123905106Y-51235895D01*
X124758503Y-52089292D01*
X124776748Y-52092922D01*
X124817946Y-52120450D01*
X124902803Y-52205307D01*
X124930333Y-52246509D01*
X124940000Y-52295110D01*
X124940000Y-52512890D01*
X124930333Y-52561491D01*
X124902803Y-52602692D01*
X124817946Y-52687550D01*
X124776744Y-52715080D01*
X124758502Y-52718708D01*
X123905106Y-53572104D01*
X123961295Y-53727240D01*
X123968756Y-53776228D01*
X123956903Y-53824342D01*
X123927539Y-53864258D01*
X123912443Y-53876086D01*
X123885299Y-53894222D01*
X123704221Y-54075300D01*
X123561955Y-54288217D01*
X123515405Y-54400601D01*
X123487874Y-54441803D01*
X123446673Y-54469333D01*
X123398072Y-54479000D01*
X122929928Y-54479000D01*
X122881327Y-54469333D01*
X122840125Y-54441803D01*
X122812595Y-54400601D01*
X122766044Y-54288217D01*
X122623778Y-54075300D01*
X122442700Y-53894222D01*
X122415557Y-53876086D01*
X122380518Y-53841047D01*
X122361554Y-53795266D01*
X122361554Y-53745714D01*
X122366705Y-53727240D01*
X122422893Y-53572104D01*
X121614000Y-52763211D01*
X120805106Y-53572104D01*
X120861295Y-53727240D01*
X120868756Y-53776228D01*
X120856903Y-53824342D01*
X120827539Y-53864258D01*
X120812443Y-53876086D01*
X120785299Y-53894222D01*
X120604221Y-54075300D01*
X120461955Y-54288217D01*
X120363957Y-54524804D01*
X120314000Y-54775962D01*
X120314000Y-55032037D01*
X120363957Y-55283195D01*
X120461955Y-55519782D01*
X120604221Y-55732699D01*
X120756653Y-55885131D01*
X120784183Y-55926333D01*
X120793850Y-55974934D01*
X120784183Y-56023535D01*
X120756653Y-56064737D01*
X120715451Y-56092267D01*
X120666850Y-56101934D01*
X120620244Y-56101934D01*
X120555186Y-56108341D01*
X120498640Y-56125494D01*
X120446522Y-56153352D01*
X120400841Y-56190841D01*
X120363352Y-56236522D01*
X120335494Y-56288640D01*
X120318341Y-56345186D01*
X120311934Y-56410244D01*
X120311934Y-58397755D01*
X120318341Y-58462813D01*
X120335494Y-58519359D01*
X120363352Y-58571477D01*
X120400841Y-58617158D01*
X120446522Y-58654647D01*
X120498640Y-58682505D01*
X120555186Y-58699658D01*
X120620244Y-58706066D01*
X122607756Y-58706066D01*
X122672813Y-58699658D01*
X122729359Y-58682505D01*
X122781477Y-58654647D01*
X122827158Y-58617158D01*
X122864647Y-58571477D01*
X122892505Y-58519359D01*
X122909658Y-58462813D01*
X122916066Y-58397755D01*
X122916066Y-57956000D01*
X122925733Y-57907399D01*
X122953263Y-57866197D01*
X122994465Y-57838667D01*
X123043066Y-57829000D01*
X123284934Y-57829000D01*
X123333535Y-57838667D01*
X123374737Y-57866197D01*
X123402267Y-57907399D01*
X123411934Y-57956000D01*
X123411934Y-58397755D01*
X123418341Y-58462813D01*
X123435494Y-58519359D01*
X123463352Y-58571477D01*
X123500841Y-58617158D01*
X123546522Y-58654647D01*
X123598640Y-58682505D01*
X123655186Y-58699658D01*
X123720244Y-58706066D01*
X124813000Y-58706066D01*
X124861601Y-58715733D01*
X124902803Y-58743263D01*
X124930333Y-58784465D01*
X124940000Y-58833066D01*
X124940000Y-61207577D01*
X124930333Y-61256178D01*
X124902803Y-61297380D01*
X124861601Y-61324910D01*
X124813000Y-61334577D01*
X124764399Y-61324910D01*
X124742443Y-61313174D01*
X124677621Y-61269861D01*
X124350039Y-61134172D01*
X124002284Y-61065000D01*
X123647716Y-61065000D01*
X123299960Y-61134172D01*
X122972378Y-61269861D01*
X122677569Y-61466846D01*
X122426846Y-61717569D01*
X122229861Y-62012378D01*
X122094172Y-62339960D01*
X122025000Y-62687716D01*
X122025000Y-63042283D01*
X122094172Y-63390039D01*
X122197404Y-63639262D01*
X122207071Y-63687863D01*
X122197404Y-63736464D01*
X122169874Y-63777665D01*
X122169874Y-63777666D01*
X121358738Y-64588802D01*
X121317536Y-64616332D01*
X121268935Y-64625999D01*
X119768056Y-64625999D01*
X119719455Y-64616332D01*
X119678253Y-64588802D01*
X119650723Y-64547600D01*
X119641056Y-64498999D01*
X119650723Y-64450398D01*
X119678253Y-64409196D01*
X119697499Y-64393402D01*
X119892430Y-64263153D01*
X120143153Y-64012430D01*
X120340138Y-63717621D01*
X120475827Y-63390039D01*
X120545000Y-63042283D01*
X120545000Y-62687716D01*
X120475827Y-62339960D01*
X120340138Y-62012378D01*
X120143153Y-61717569D01*
X119892430Y-61466846D01*
X119597621Y-61269861D01*
X119270039Y-61134172D01*
X118922284Y-61065000D01*
X118567716Y-61065000D01*
X118219960Y-61134172D01*
X117892378Y-61269861D01*
X117597569Y-61466846D01*
X117346846Y-61717569D01*
X117149861Y-62012378D01*
X117014172Y-62339960D01*
X116945000Y-62687716D01*
X116945000Y-63042283D01*
X117014172Y-63390039D01*
X117149861Y-63717621D01*
X117346846Y-64012430D01*
X117597569Y-64263153D01*
X117792501Y-64393402D01*
X117827541Y-64428441D01*
X117846504Y-64474222D01*
X117846504Y-64523775D01*
X117827541Y-64569556D01*
X117792502Y-64604596D01*
X117746721Y-64623559D01*
X117721944Y-64625999D01*
X117352771Y-64625999D01*
X117304170Y-64616332D01*
X117282214Y-64604596D01*
X117171574Y-64530668D01*
X117044181Y-64477900D01*
X116908940Y-64450999D01*
X116771058Y-64450999D01*
X116635816Y-64477900D01*
X116508426Y-64530667D01*
X116393776Y-64607274D01*
X116296274Y-64704776D01*
X116219667Y-64819426D01*
X116166900Y-64946816D01*
X116139999Y-65082057D01*
X116139999Y-65219940D01*
X116166900Y-65355181D01*
X116219667Y-65482571D01*
X116296274Y-65597221D01*
X116393776Y-65694723D01*
X116508426Y-65771330D01*
X116635816Y-65824097D01*
X116771058Y-65850999D01*
X116908940Y-65850999D01*
X117044181Y-65824097D01*
X117171574Y-65771329D01*
X117282214Y-65697402D01*
X117327995Y-65678439D01*
X117352771Y-65675999D01*
X121510097Y-65675999D01*
X121516325Y-65676305D01*
X121539001Y-65678538D01*
X121641918Y-65668401D01*
X121740881Y-65638382D01*
X121832086Y-65589632D01*
X121912028Y-65524025D01*
X121926492Y-65506402D01*
X121930679Y-65501782D01*
X122912334Y-64520126D01*
X122953536Y-64492596D01*
X123002137Y-64482929D01*
X123050738Y-64492596D01*
X123299960Y-64595827D01*
X123647716Y-64665000D01*
X124002284Y-64665000D01*
X124350039Y-64595827D01*
X124677622Y-64460137D01*
X124742442Y-64416826D01*
X124788223Y-64397862D01*
X124837776Y-64397862D01*
X124883557Y-64416825D01*
X124918596Y-64451864D01*
X124937560Y-64497645D01*
X124940000Y-64522422D01*
X124940000Y-70097578D01*
X124930333Y-70146179D01*
X124902803Y-70187381D01*
X124861601Y-70214911D01*
X124813000Y-70224578D01*
X124764399Y-70214911D01*
X124742442Y-70203174D01*
X124677622Y-70159862D01*
X124350039Y-70024172D01*
X124002284Y-69955000D01*
X123647716Y-69955000D01*
X123299960Y-70024172D01*
X122972378Y-70159861D01*
X122677569Y-70356846D01*
X122426846Y-70607569D01*
X122229861Y-70902378D01*
X122094172Y-71229960D01*
X122025000Y-71577716D01*
X122025000Y-71932283D01*
X122094172Y-72280039D01*
X122229861Y-72607621D01*
X122426846Y-72902430D01*
X122677569Y-73153153D01*
X122972378Y-73350138D01*
X123299960Y-73485827D01*
X123647716Y-73555000D01*
X124002284Y-73555000D01*
X124350039Y-73485827D01*
X124677621Y-73350138D01*
X124742444Y-73306825D01*
X124788225Y-73287862D01*
X124837778Y-73287862D01*
X124883558Y-73306825D01*
X124918598Y-73341865D01*
X124937561Y-73387646D01*
X124940001Y-73412422D01*
X124940001Y-90371323D01*
X124930334Y-90419924D01*
X124902804Y-90461126D01*
X124861602Y-90488656D01*
X124813001Y-90498323D01*
X124764400Y-90488656D01*
X124742444Y-90476920D01*
X124260240Y-90154722D01*
X123605081Y-89883346D01*
X122909567Y-89745000D01*
X122200433Y-89745000D01*
X121504918Y-89883346D01*
X120849759Y-90154722D01*
X120260136Y-90548695D01*
X119758695Y-91050136D01*
X119364722Y-91639759D01*
X119093346Y-92294918D01*
X118955000Y-92990433D01*
X118955000Y-93699566D01*
X119093346Y-94395081D01*
X119364722Y-95050240D01*
X119765647Y-95650267D01*
X119765264Y-95650522D01*
X119784559Y-95679399D01*
X119794226Y-95728000D01*
X119784559Y-95776601D01*
X119757029Y-95817803D01*
X119715827Y-95845333D01*
X119667226Y-95855000D01*
X118117000Y-95855000D01*
X118068399Y-95845333D01*
X118027197Y-95817803D01*
X117999667Y-95776601D01*
X117990000Y-95728000D01*
X117990000Y-95644735D01*
X117945806Y-95422556D01*
X117928687Y-95381228D01*
X117919019Y-95332627D01*
X117928686Y-95284026D01*
X117956216Y-95242824D01*
X117956217Y-95242823D01*
X118393556Y-94805485D01*
X118398176Y-94801297D01*
X118411975Y-94789972D01*
X118465083Y-94725260D01*
X118504548Y-94651426D01*
X118528848Y-94571319D01*
X118537054Y-94487998D01*
X118535306Y-94470249D01*
X118535000Y-94464021D01*
X118535000Y-92606979D01*
X118535306Y-92600751D01*
X118537054Y-92583001D01*
X118528848Y-92499680D01*
X118504548Y-92419573D01*
X118465083Y-92345739D01*
X118411975Y-92281027D01*
X118398176Y-92269703D01*
X118393556Y-92265515D01*
X116940208Y-90812169D01*
X116912677Y-90770967D01*
X116903010Y-90722366D01*
X116903010Y-81028288D01*
X116903316Y-81022060D01*
X116905064Y-81004310D01*
X116896858Y-80920989D01*
X116872558Y-80840882D01*
X116833093Y-80767048D01*
X116779985Y-80702336D01*
X116766187Y-80691013D01*
X116761567Y-80686825D01*
X110916180Y-74841438D01*
X110911992Y-74836818D01*
X110900664Y-74823015D01*
X110835947Y-74769903D01*
X110762116Y-74730440D01*
X110682005Y-74706138D01*
X110598693Y-74697933D01*
X110580932Y-74699683D01*
X110574703Y-74699989D01*
X108667990Y-74699989D01*
X108661762Y-74699683D01*
X108644012Y-74697934D01*
X108560691Y-74706140D01*
X108480584Y-74730440D01*
X108406750Y-74769905D01*
X108342038Y-74823013D01*
X108330714Y-74836813D01*
X108326526Y-74841433D01*
X107705158Y-75462802D01*
X107663956Y-75490333D01*
X107615355Y-75500000D01*
X107566056Y-75500000D01*
X107430814Y-75526901D01*
X107303424Y-75579668D01*
X107188774Y-75656275D01*
X107091272Y-75753777D01*
X107014665Y-75868427D01*
X106961898Y-75995817D01*
X106934997Y-76131058D01*
X106934997Y-76268941D01*
X106961898Y-76404182D01*
X107014665Y-76531572D01*
X107091272Y-76646222D01*
X107188774Y-76743724D01*
X107303424Y-76820331D01*
X107430814Y-76873098D01*
X107566056Y-76900000D01*
X107703938Y-76900000D01*
X107839179Y-76873098D01*
X107966569Y-76820331D01*
X108039441Y-76771640D01*
X108085222Y-76752677D01*
X108134775Y-76752677D01*
X108180556Y-76771640D01*
X108180557Y-76771641D01*
X108253423Y-76820329D01*
X108380817Y-76873098D01*
X108516059Y-76900000D01*
X108653941Y-76900000D01*
X108789182Y-76873098D01*
X108916572Y-76820331D01*
X109031222Y-76743724D01*
X109130197Y-76644750D01*
X109171399Y-76617220D01*
X109220000Y-76607553D01*
X109268601Y-76617220D01*
X109309803Y-76644750D01*
X109392803Y-76727750D01*
X109420333Y-76768952D01*
X109430000Y-76817553D01*
X109430000Y-77192012D01*
X109429694Y-77198241D01*
X109427944Y-77216000D01*
X109436149Y-77299313D01*
X109460451Y-77379425D01*
X109499914Y-77453256D01*
X109553027Y-77517975D01*
X109566834Y-77529305D01*
X109571454Y-77533493D01*
X109791510Y-77753550D01*
X109795697Y-77758170D01*
X109807022Y-77771970D01*
X109871743Y-77825085D01*
X109945574Y-77864548D01*
X110025680Y-77888848D01*
X110109001Y-77897054D01*
X110126751Y-77895306D01*
X110132979Y-77895000D01*
X111017962Y-77895000D01*
X111066563Y-77904667D01*
X111107765Y-77932197D01*
X114726804Y-81551238D01*
X114754334Y-81592440D01*
X114764001Y-81641041D01*
X114764001Y-82653003D01*
X114763695Y-82659232D01*
X114761944Y-82677000D01*
X114763695Y-82694768D01*
X114764001Y-82700997D01*
X114764000Y-91983015D01*
X114754333Y-92031616D01*
X114726803Y-92072818D01*
X114685601Y-92100348D01*
X114637000Y-92110015D01*
X114612224Y-92107575D01*
X114413265Y-92068000D01*
X114186735Y-92068000D01*
X113964558Y-92112193D01*
X113755269Y-92198883D01*
X113652557Y-92267514D01*
X113606776Y-92286477D01*
X113557223Y-92286477D01*
X113511442Y-92267513D01*
X113476403Y-92232474D01*
X113457440Y-92186693D01*
X113455000Y-92161917D01*
X113455000Y-84478990D01*
X113455306Y-84472762D01*
X113457055Y-84454998D01*
X113448850Y-84371685D01*
X113424548Y-84291574D01*
X113385085Y-84217743D01*
X113331971Y-84153024D01*
X113318176Y-84141703D01*
X113313556Y-84137515D01*
X109957197Y-80781159D01*
X109929667Y-80739957D01*
X109920000Y-80691356D01*
X109920000Y-80576058D01*
X109893098Y-80440817D01*
X109840331Y-80313427D01*
X109763724Y-80198777D01*
X109666222Y-80101275D01*
X109551572Y-80024668D01*
X109424182Y-79971901D01*
X109288941Y-79945000D01*
X109151059Y-79945000D01*
X109015817Y-79971901D01*
X108888427Y-80024668D01*
X108773777Y-80101275D01*
X108676275Y-80198777D01*
X108599668Y-80313427D01*
X108546901Y-80440817D01*
X108520000Y-80576058D01*
X108520000Y-80713941D01*
X108546901Y-80849182D01*
X108599668Y-80976572D01*
X108676275Y-81091222D01*
X108773777Y-81188724D01*
X108888427Y-81265331D01*
X109015817Y-81318098D01*
X109151059Y-81345000D01*
X109266356Y-81345000D01*
X109314957Y-81354667D01*
X109356159Y-81382197D01*
X112567803Y-84593843D01*
X112595333Y-84635045D01*
X112605000Y-84683646D01*
X112605000Y-87059354D01*
X112595333Y-87107955D01*
X112567803Y-87149157D01*
X112526601Y-87176687D01*
X112478000Y-87186354D01*
X112429399Y-87176687D01*
X112388197Y-87149157D01*
X107917189Y-82678150D01*
X107913001Y-82673530D01*
X107901670Y-82659723D01*
X107836951Y-82606609D01*
X107763120Y-82567146D01*
X107683009Y-82542844D01*
X107599697Y-82534639D01*
X107581936Y-82536389D01*
X107575707Y-82536695D01*
X101359248Y-82536695D01*
X101310647Y-82527028D01*
X101269445Y-82499498D01*
X101187917Y-82417970D01*
X101073267Y-82341363D01*
X100945877Y-82288596D01*
X100810636Y-82261695D01*
X100672754Y-82261695D01*
X100537512Y-82288596D01*
X100410122Y-82341363D01*
X100295472Y-82417970D01*
X100197970Y-82515472D01*
X100121363Y-82630122D01*
X100068596Y-82757512D01*
X100041695Y-82892753D01*
X100041695Y-83030636D01*
X100068596Y-83165877D01*
X100121363Y-83293267D01*
X100197970Y-83407917D01*
X100295472Y-83505419D01*
X100410122Y-83582026D01*
X100537512Y-83634793D01*
X100672754Y-83661695D01*
X100810636Y-83661695D01*
X100945877Y-83634793D01*
X101073267Y-83582026D01*
X101187917Y-83505419D01*
X101269445Y-83423892D01*
X101310647Y-83396362D01*
X101359248Y-83386695D01*
X107371051Y-83386695D01*
X107419652Y-83396362D01*
X107460854Y-83423892D01*
X112059803Y-88022843D01*
X112087333Y-88064045D01*
X112097000Y-88112646D01*
X112097001Y-91957754D01*
X112087334Y-92006355D01*
X112059804Y-92047557D01*
X112018602Y-92075087D01*
X111970001Y-92084754D01*
X111945224Y-92082314D01*
X111873264Y-92068000D01*
X111646735Y-92068000D01*
X111424558Y-92112193D01*
X111215269Y-92198883D01*
X111026920Y-92324734D01*
X110866734Y-92484920D01*
X110740883Y-92673269D01*
X110654193Y-92882558D01*
X110614560Y-93081810D01*
X110595597Y-93127591D01*
X110560557Y-93162631D01*
X110514777Y-93181594D01*
X110465224Y-93181594D01*
X110419443Y-93162631D01*
X110384403Y-93127591D01*
X110365440Y-93081811D01*
X110365440Y-93081810D01*
X110325806Y-92882558D01*
X110239116Y-92673269D01*
X110113265Y-92484920D01*
X109953079Y-92324734D01*
X109764730Y-92198883D01*
X109555441Y-92112193D01*
X109333265Y-92068000D01*
X109106735Y-92068000D01*
X108884558Y-92112193D01*
X108675269Y-92198883D01*
X108486920Y-92324734D01*
X108326734Y-92484920D01*
X108200883Y-92673269D01*
X108114193Y-92882558D01*
X108074560Y-93081810D01*
X108055597Y-93127591D01*
X108020557Y-93162631D01*
X107974777Y-93181594D01*
X107925224Y-93181594D01*
X107879443Y-93162631D01*
X107844403Y-93127591D01*
X107825440Y-93081811D01*
X107825440Y-93081810D01*
X107785806Y-92882558D01*
X107699116Y-92673269D01*
X107573265Y-92484920D01*
X107413079Y-92324734D01*
X107224730Y-92198883D01*
X107015441Y-92112193D01*
X106793265Y-92068000D01*
X106566735Y-92068000D01*
X106344558Y-92112193D01*
X106135269Y-92198883D01*
X105946920Y-92324734D01*
X105786734Y-92484920D01*
X105660883Y-92673269D01*
X105574193Y-92882558D01*
X105534560Y-93081810D01*
X105515597Y-93127591D01*
X105480557Y-93162631D01*
X105434777Y-93181594D01*
X105385224Y-93181594D01*
X105339443Y-93162631D01*
X105304403Y-93127591D01*
X105285440Y-93081811D01*
X105285440Y-93081810D01*
X105245806Y-92882558D01*
X105159116Y-92673269D01*
X105033265Y-92484920D01*
X104873079Y-92324734D01*
X104684730Y-92198883D01*
X104475441Y-92112193D01*
X104253265Y-92068000D01*
X104026735Y-92068000D01*
X103804558Y-92112193D01*
X103595269Y-92198883D01*
X103406920Y-92324734D01*
X103246734Y-92484920D01*
X103120883Y-92673269D01*
X103034193Y-92882558D01*
X102994560Y-93081810D01*
X102975597Y-93127591D01*
X102940557Y-93162631D01*
X102894777Y-93181594D01*
X102845224Y-93181594D01*
X102799443Y-93162631D01*
X102764403Y-93127591D01*
X102745440Y-93081811D01*
X102745440Y-93081810D01*
X102705806Y-92882558D01*
X102619116Y-92673269D01*
X102493265Y-92484920D01*
X102333079Y-92324734D01*
X102144730Y-92198883D01*
X101935441Y-92112193D01*
X101713265Y-92068000D01*
X101486735Y-92068000D01*
X101264558Y-92112193D01*
X101055269Y-92198883D01*
X100866920Y-92324734D01*
X100706734Y-92484920D01*
X100580883Y-92673269D01*
X100494193Y-92882558D01*
X100454560Y-93081810D01*
X100435597Y-93127591D01*
X100400557Y-93162631D01*
X100354777Y-93181594D01*
X100305224Y-93181594D01*
X100259443Y-93162631D01*
X100224403Y-93127591D01*
X100205440Y-93081811D01*
X100205440Y-93081810D01*
X100165806Y-92882558D01*
X100079116Y-92673269D01*
X99953265Y-92484920D01*
X99793079Y-92324734D01*
X99604730Y-92198883D01*
X99395441Y-92112193D01*
X99173265Y-92068000D01*
X98946735Y-92068000D01*
X98724558Y-92112193D01*
X98515269Y-92198883D01*
X98326920Y-92324734D01*
X98166734Y-92484920D01*
X98040883Y-92673269D01*
X97954193Y-92882558D01*
X97914560Y-93081810D01*
X97895597Y-93127591D01*
X97860557Y-93162631D01*
X97814777Y-93181594D01*
X97765224Y-93181594D01*
X97719443Y-93162631D01*
X97684403Y-93127591D01*
X97665440Y-93081811D01*
X97665440Y-93081810D01*
X97625806Y-92882558D01*
X97539116Y-92673269D01*
X97413265Y-92484920D01*
X97253079Y-92324734D01*
X97064730Y-92198883D01*
X96855441Y-92112193D01*
X96633265Y-92068000D01*
X96406735Y-92068000D01*
X96184558Y-92112193D01*
X95975269Y-92198883D01*
X95786920Y-92324734D01*
X95626734Y-92484920D01*
X95500883Y-92673269D01*
X95414193Y-92882558D01*
X95374560Y-93081810D01*
X95355597Y-93127591D01*
X95320557Y-93162631D01*
X95274777Y-93181594D01*
X95225224Y-93181594D01*
X95179443Y-93162631D01*
X95144403Y-93127591D01*
X95125440Y-93081811D01*
X95125440Y-93081810D01*
X95085806Y-92882558D01*
X94999116Y-92673269D01*
X94873265Y-92484920D01*
X94713079Y-92324734D01*
X94524730Y-92198883D01*
X94315441Y-92112193D01*
X94093265Y-92068000D01*
X93866735Y-92068000D01*
X93644558Y-92112193D01*
X93435269Y-92198883D01*
X93246920Y-92324734D01*
X93086734Y-92484920D01*
X92960883Y-92673269D01*
X92874193Y-92882558D01*
X92834560Y-93081810D01*
X92815597Y-93127591D01*
X92780557Y-93162631D01*
X92734777Y-93181594D01*
X92685224Y-93181594D01*
X92639443Y-93162631D01*
X92604403Y-93127591D01*
X92585440Y-93081811D01*
X92585440Y-93081810D01*
X92545806Y-92882558D01*
X92459116Y-92673269D01*
X92333265Y-92484920D01*
X92173079Y-92324734D01*
X91984730Y-92198883D01*
X91775441Y-92112193D01*
X91553265Y-92068000D01*
X91326735Y-92068000D01*
X91104558Y-92112193D01*
X90895269Y-92198883D01*
X90706920Y-92324734D01*
X90546734Y-92484920D01*
X90420883Y-92673269D01*
X90334193Y-92882558D01*
X90294560Y-93081810D01*
X90275597Y-93127591D01*
X90240557Y-93162631D01*
X90194777Y-93181594D01*
X90145224Y-93181594D01*
X90099443Y-93162631D01*
X90064403Y-93127591D01*
X90045440Y-93081811D01*
X90045440Y-93081810D01*
X90005806Y-92882558D01*
X89919116Y-92673269D01*
X89793265Y-92484920D01*
X89633079Y-92324734D01*
X89444730Y-92198883D01*
X89235441Y-92112193D01*
X89013265Y-92068000D01*
X88786735Y-92068000D01*
X88564558Y-92112193D01*
X88355269Y-92198883D01*
X88166920Y-92324734D01*
X88006734Y-92484920D01*
X87880883Y-92673269D01*
X87794193Y-92882558D01*
X87763626Y-93036232D01*
X87744663Y-93082013D01*
X87709623Y-93117053D01*
X87663843Y-93136016D01*
X87614290Y-93136016D01*
X87568509Y-93117053D01*
X87533469Y-93082013D01*
X87514506Y-93036233D01*
X87512066Y-93011456D01*
X87512066Y-92374244D01*
X87505658Y-92309186D01*
X87488505Y-92252640D01*
X87460647Y-92200522D01*
X87423158Y-92154841D01*
X87377477Y-92117352D01*
X87325359Y-92089494D01*
X87268813Y-92072341D01*
X87203756Y-92065934D01*
X86402000Y-92065934D01*
X86353399Y-92056267D01*
X86312197Y-92028737D01*
X86284667Y-91987535D01*
X86275000Y-91938934D01*
X86275000Y-87910422D01*
X86284667Y-87861821D01*
X86312197Y-87820619D01*
X86312198Y-87820619D01*
X86522621Y-87610197D01*
X86563822Y-87582667D01*
X86612423Y-87573000D01*
X86801643Y-87573000D01*
X86850244Y-87582667D01*
X86872200Y-87594403D01*
X86945424Y-87643330D01*
X87072817Y-87696098D01*
X87208059Y-87723000D01*
X87345941Y-87723000D01*
X87481182Y-87696098D01*
X87608572Y-87643331D01*
X87723222Y-87566724D01*
X87820724Y-87469222D01*
X87897331Y-87354572D01*
X87950098Y-87227182D01*
X87977000Y-87091941D01*
X87977000Y-86954058D01*
X87950098Y-86818817D01*
X87897331Y-86691427D01*
X87820724Y-86576777D01*
X87723222Y-86479275D01*
X87608572Y-86402668D01*
X87481182Y-86349901D01*
X87345941Y-86323000D01*
X87208059Y-86323000D01*
X87072817Y-86349901D01*
X86945424Y-86402669D01*
X86872200Y-86451597D01*
X86826419Y-86470560D01*
X86801643Y-86473000D01*
X86362134Y-86473000D01*
X86355907Y-86472694D01*
X86331999Y-86470339D01*
X86224182Y-86480957D01*
X86120505Y-86512408D01*
X86024957Y-86563479D01*
X85941209Y-86632210D01*
X85925972Y-86650777D01*
X85921785Y-86655397D01*
X85357398Y-87219784D01*
X85352779Y-87223971D01*
X85335571Y-87238094D01*
X85291870Y-87261454D01*
X85242556Y-87266313D01*
X85195136Y-87251930D01*
X85156830Y-87220495D01*
X85133470Y-87176794D01*
X85128000Y-87139924D01*
X85128000Y-81953000D01*
X85137667Y-81904399D01*
X85165197Y-81863197D01*
X85206399Y-81835667D01*
X85255000Y-81826000D01*
X88216791Y-81826000D01*
X88252465Y-81818904D01*
X88258634Y-81817989D01*
X88294827Y-81814424D01*
X88329631Y-81803867D01*
X88335678Y-81802353D01*
X88371350Y-81795256D01*
X88404952Y-81781338D01*
X88410825Y-81779236D01*
X88445630Y-81768678D01*
X88477705Y-81751534D01*
X88483341Y-81748869D01*
X88516940Y-81734951D01*
X88547186Y-81714743D01*
X88552532Y-81711538D01*
X88584606Y-81694393D01*
X88612716Y-81671325D01*
X88617723Y-81667612D01*
X88647967Y-81647403D01*
X88673694Y-81621677D01*
X88678314Y-81617490D01*
X88706422Y-81594422D01*
X88729490Y-81566314D01*
X88733677Y-81561694D01*
X88759403Y-81535967D01*
X88779612Y-81505723D01*
X88783325Y-81500716D01*
X88806393Y-81472606D01*
X88823538Y-81440532D01*
X88826743Y-81435186D01*
X88846951Y-81404940D01*
X88860869Y-81371341D01*
X88863534Y-81365705D01*
X88880678Y-81333630D01*
X88891236Y-81298825D01*
X88893338Y-81292952D01*
X88907256Y-81259350D01*
X88914353Y-81223678D01*
X88915867Y-81217631D01*
X88926424Y-81182827D01*
X88929989Y-81146634D01*
X88930904Y-81140465D01*
X88938000Y-81104790D01*
X88938000Y-81068420D01*
X88938306Y-81062193D01*
X88941870Y-81026000D01*
X88938306Y-80989807D01*
X88938000Y-80983580D01*
X88938000Y-80947209D01*
X88930904Y-80911535D01*
X88929989Y-80905366D01*
X88926424Y-80869172D01*
X88915867Y-80834369D01*
X88914353Y-80828322D01*
X88907256Y-80792649D01*
X88893338Y-80759048D01*
X88891236Y-80753175D01*
X88880678Y-80718369D01*
X88863534Y-80686295D01*
X88860869Y-80680659D01*
X88846951Y-80647059D01*
X88826743Y-80616814D01*
X88823538Y-80611468D01*
X88806393Y-80579393D01*
X88783325Y-80551284D01*
X88779612Y-80546277D01*
X88759403Y-80516032D01*
X88733677Y-80490306D01*
X88729490Y-80485686D01*
X88706422Y-80457577D01*
X88678314Y-80434510D01*
X88673694Y-80430323D01*
X88647967Y-80404596D01*
X88617723Y-80384388D01*
X88612716Y-80380675D01*
X88584606Y-80357606D01*
X88552532Y-80340462D01*
X88547186Y-80337257D01*
X88516940Y-80317048D01*
X88483341Y-80303131D01*
X88477705Y-80300466D01*
X88445630Y-80283321D01*
X88410825Y-80272764D01*
X88404952Y-80270662D01*
X88371350Y-80256743D01*
X88335678Y-80249647D01*
X88329631Y-80248133D01*
X88294827Y-80237575D01*
X88258634Y-80234011D01*
X88252465Y-80233096D01*
X88216791Y-80226000D01*
X84597986Y-80226000D01*
X84549385Y-80216333D01*
X84508183Y-80188803D01*
X83400207Y-79080828D01*
X83372677Y-79039626D01*
X83363010Y-78991025D01*
X83363010Y-77398418D01*
X83363316Y-77392191D01*
X83366879Y-77356012D01*
X83351433Y-77199177D01*
X83305691Y-77048385D01*
X83231402Y-76909400D01*
X83131432Y-76787588D01*
X83103325Y-76764522D01*
X83098705Y-76760334D01*
X81101197Y-74762828D01*
X81073667Y-74721626D01*
X81064000Y-74673025D01*
X81064000Y-74086575D01*
X81073667Y-74037974D01*
X81101197Y-73996772D01*
X81142399Y-73969242D01*
X81191000Y-73959575D01*
X81239601Y-73969242D01*
X81261558Y-73980979D01*
X81329429Y-74026329D01*
X81456823Y-74079098D01*
X81592065Y-74106000D01*
X81729947Y-74106000D01*
X81865188Y-74079098D01*
X81992578Y-74026331D01*
X82107228Y-73949724D01*
X82204730Y-73852222D01*
X82281337Y-73737572D01*
X82334104Y-73610182D01*
X82361006Y-73474941D01*
X82361006Y-73337058D01*
X82334104Y-73201817D01*
X82281335Y-73074424D01*
X82270904Y-73058812D01*
X82251940Y-73013032D01*
X82249500Y-72988254D01*
X82249500Y-72077272D01*
X82259167Y-72028671D01*
X82270903Y-72006715D01*
X82344830Y-71896075D01*
X82397598Y-71768682D01*
X82424500Y-71633441D01*
X82424500Y-71495558D01*
X82397598Y-71360317D01*
X82340223Y-71221802D01*
X82330556Y-71173201D01*
X82340223Y-71124600D01*
X82367753Y-71083399D01*
X82408955Y-71055868D01*
X82457556Y-71046201D01*
X82506157Y-71055868D01*
X82547358Y-71083398D01*
X82547359Y-71083398D01*
X91485804Y-80021844D01*
X91513334Y-80063046D01*
X91523001Y-80111647D01*
X91523000Y-84558012D01*
X91522694Y-84564241D01*
X91520944Y-84582000D01*
X91529149Y-84665313D01*
X91553451Y-84745425D01*
X91592914Y-84819256D01*
X91646028Y-84883976D01*
X91659833Y-84895305D01*
X91664454Y-84899493D01*
X93623803Y-86858843D01*
X93651333Y-86900045D01*
X93661000Y-86948646D01*
X93661000Y-87063941D01*
X93687901Y-87199182D01*
X93740668Y-87326572D01*
X93817275Y-87441222D01*
X93914777Y-87538724D01*
X94029427Y-87615331D01*
X94156817Y-87668098D01*
X94292059Y-87695000D01*
X94429941Y-87695000D01*
X94565182Y-87668098D01*
X94692572Y-87615331D01*
X94807222Y-87538724D01*
X94904724Y-87441222D01*
X94981331Y-87326572D01*
X95034098Y-87199182D01*
X95061000Y-87063941D01*
X95061000Y-86926058D01*
X95034098Y-86790817D01*
X94981331Y-86663427D01*
X94904724Y-86548777D01*
X94807222Y-86451275D01*
X94692572Y-86374668D01*
X94565182Y-86321901D01*
X94429941Y-86295000D01*
X94314646Y-86295000D01*
X94266045Y-86285333D01*
X94224843Y-86257803D01*
X92410197Y-84443159D01*
X92382667Y-84401957D01*
X92373000Y-84353356D01*
X92373000Y-80308000D01*
X92382667Y-80259399D01*
X92410197Y-80218197D01*
X92451399Y-80190667D01*
X92500000Y-80181000D01*
X105466458Y-80181000D01*
X105472687Y-80181306D01*
X105490448Y-80183055D01*
X105573760Y-80174850D01*
X105653871Y-80150548D01*
X105727702Y-80111085D01*
X105792422Y-80057971D01*
X105803751Y-80044167D01*
X105807939Y-80039546D01*
X105836603Y-80010881D01*
X105877805Y-79983351D01*
X105926406Y-79973684D01*
X106041703Y-79973684D01*
X106176944Y-79946782D01*
X106304334Y-79894015D01*
X106418984Y-79817408D01*
X106516486Y-79719906D01*
X106593093Y-79605256D01*
X106645860Y-79477866D01*
X106672762Y-79342625D01*
X106672762Y-79204742D01*
X106645860Y-79069501D01*
X106593093Y-78942111D01*
X106516486Y-78827461D01*
X106418984Y-78729959D01*
X106304334Y-78653352D01*
X106176944Y-78600585D01*
X106041703Y-78573684D01*
X105903821Y-78573684D01*
X105768579Y-78600585D01*
X105641189Y-78653352D01*
X105526539Y-78729959D01*
X105429037Y-78827461D01*
X105352430Y-78942111D01*
X105299663Y-79069501D01*
X105270322Y-79217009D01*
X105270180Y-79216980D01*
X105263095Y-79252601D01*
X105235565Y-79293803D01*
X105194363Y-79321333D01*
X105145762Y-79331000D01*
X92684645Y-79331000D01*
X92636044Y-79321333D01*
X92594842Y-79293803D01*
X91474980Y-78173941D01*
X100646000Y-78173941D01*
X100672901Y-78309182D01*
X100725668Y-78436572D01*
X100802275Y-78551222D01*
X100899777Y-78648724D01*
X101014427Y-78725331D01*
X101141817Y-78778098D01*
X101277059Y-78805000D01*
X101414941Y-78805000D01*
X101550182Y-78778098D01*
X101677572Y-78725331D01*
X101792222Y-78648724D01*
X101889724Y-78551222D01*
X101966331Y-78436572D01*
X102019098Y-78309182D01*
X102046000Y-78173941D01*
X102046000Y-78058644D01*
X102055667Y-78010043D01*
X102083197Y-77968841D01*
X103728743Y-76323296D01*
X103769945Y-76295766D01*
X103818546Y-76286099D01*
X103867147Y-76295766D01*
X103908349Y-76323296D01*
X103947777Y-76362724D01*
X104062427Y-76439331D01*
X104189817Y-76492098D01*
X104325059Y-76519000D01*
X104462941Y-76519000D01*
X104598182Y-76492098D01*
X104725572Y-76439331D01*
X104840222Y-76362724D01*
X104937724Y-76265222D01*
X105014331Y-76150572D01*
X105067098Y-76023182D01*
X105094000Y-75887941D01*
X105094000Y-75750058D01*
X105067098Y-75614817D01*
X105014331Y-75487427D01*
X104937724Y-75372777D01*
X104840222Y-75275275D01*
X104725572Y-75198668D01*
X104598182Y-75145901D01*
X104462941Y-75119000D01*
X104325059Y-75119000D01*
X104189817Y-75145901D01*
X104062427Y-75198668D01*
X103947777Y-75275275D01*
X103866250Y-75356803D01*
X103825048Y-75384333D01*
X103776447Y-75394000D01*
X103655979Y-75394000D01*
X103649751Y-75393694D01*
X103632001Y-75391945D01*
X103548680Y-75400151D01*
X103468574Y-75424451D01*
X103394743Y-75463914D01*
X103330022Y-75517029D01*
X103318697Y-75530830D01*
X103314510Y-75535450D01*
X101482159Y-77367803D01*
X101440957Y-77395333D01*
X101392356Y-77405000D01*
X101277059Y-77405000D01*
X101141817Y-77431901D01*
X101014427Y-77484668D01*
X100899777Y-77561275D01*
X100802275Y-77658777D01*
X100725668Y-77773427D01*
X100672901Y-77900817D01*
X100646000Y-78036058D01*
X100646000Y-78173941D01*
X91474980Y-78173941D01*
X90077974Y-76776935D01*
X92010000Y-76776935D01*
X92036901Y-76912176D01*
X92089668Y-77039566D01*
X92166275Y-77154216D01*
X92263777Y-77251718D01*
X92378427Y-77328325D01*
X92505817Y-77381092D01*
X92641059Y-77407994D01*
X92778941Y-77407994D01*
X92914182Y-77381092D01*
X93041572Y-77328325D01*
X93156222Y-77251718D01*
X93253724Y-77154216D01*
X93330331Y-77039566D01*
X93383098Y-76912176D01*
X93410000Y-76776935D01*
X93410000Y-76661638D01*
X93419667Y-76613037D01*
X93447197Y-76571835D01*
X95642837Y-74376197D01*
X95684039Y-74348667D01*
X95732640Y-74339000D01*
X114920356Y-74339000D01*
X114968957Y-74348667D01*
X115010159Y-74376197D01*
X119912803Y-79278843D01*
X119940333Y-79320045D01*
X119950000Y-79368646D01*
X119950000Y-79483941D01*
X119976901Y-79619182D01*
X120029668Y-79746572D01*
X120106275Y-79861222D01*
X120203777Y-79958724D01*
X120318427Y-80035331D01*
X120445817Y-80088098D01*
X120581059Y-80115000D01*
X120718941Y-80115000D01*
X120854182Y-80088098D01*
X120981572Y-80035331D01*
X121096222Y-79958724D01*
X121193724Y-79861222D01*
X121270331Y-79746572D01*
X121323098Y-79619182D01*
X121350000Y-79483941D01*
X121350000Y-79346058D01*
X121323098Y-79210817D01*
X121270331Y-79083427D01*
X121193724Y-78968777D01*
X121096222Y-78871275D01*
X120981572Y-78794668D01*
X120854182Y-78741901D01*
X120718941Y-78715000D01*
X120603646Y-78715000D01*
X120555045Y-78705333D01*
X120513843Y-78677803D01*
X117339573Y-75503534D01*
X117312043Y-75462332D01*
X117302376Y-75413731D01*
X117312043Y-75365130D01*
X117339573Y-75323928D01*
X117358819Y-75308134D01*
X117426026Y-75263227D01*
X117523530Y-75165723D01*
X117600137Y-75051073D01*
X117652904Y-74923683D01*
X117679806Y-74788442D01*
X117679806Y-74650559D01*
X117652904Y-74515318D01*
X117600137Y-74387928D01*
X117523530Y-74273278D01*
X117426028Y-74175776D01*
X117311378Y-74099169D01*
X117183988Y-74046402D01*
X117091794Y-74028064D01*
X117046013Y-74009101D01*
X117026768Y-73993307D01*
X114965745Y-71932283D01*
X116945000Y-71932283D01*
X117014172Y-72280039D01*
X117149861Y-72607621D01*
X117346846Y-72902430D01*
X117597569Y-73153153D01*
X117892378Y-73350138D01*
X118219960Y-73485827D01*
X118567716Y-73555000D01*
X118922284Y-73555000D01*
X119270039Y-73485827D01*
X119597621Y-73350138D01*
X119892430Y-73153153D01*
X120143153Y-72902430D01*
X120340138Y-72607621D01*
X120475827Y-72280039D01*
X120545000Y-71932283D01*
X120545000Y-71577716D01*
X120475827Y-71229960D01*
X120340138Y-70902378D01*
X120143153Y-70607569D01*
X119892430Y-70356846D01*
X119597621Y-70159861D01*
X119270039Y-70024172D01*
X118922284Y-69955000D01*
X118567716Y-69955000D01*
X118219960Y-70024172D01*
X117892378Y-70159861D01*
X117597569Y-70356846D01*
X117346846Y-70607569D01*
X117149861Y-70902378D01*
X117014172Y-71229960D01*
X116945000Y-71577716D01*
X116945000Y-71932283D01*
X114965745Y-71932283D01*
X114688472Y-71655010D01*
X114361492Y-71328031D01*
X114333961Y-71286829D01*
X114285331Y-71169426D01*
X114208724Y-71054776D01*
X114111222Y-70957274D01*
X113996572Y-70880667D01*
X113869182Y-70827900D01*
X113733941Y-70800999D01*
X113596059Y-70800999D01*
X113460817Y-70827900D01*
X113333427Y-70880667D01*
X113218777Y-70957274D01*
X113121275Y-71054776D01*
X113044668Y-71169426D01*
X112991901Y-71296816D01*
X112965000Y-71432057D01*
X112965000Y-71569940D01*
X112991901Y-71705181D01*
X113044668Y-71832571D01*
X113121275Y-71947221D01*
X113218777Y-72044723D01*
X113333427Y-72121330D01*
X113460817Y-72174097D01*
X113596059Y-72200999D01*
X113696933Y-72200999D01*
X113745534Y-72210666D01*
X113786736Y-72238196D01*
X114820737Y-73272197D01*
X114848267Y-73313399D01*
X114857934Y-73362000D01*
X114848267Y-73410601D01*
X114820737Y-73451803D01*
X114779535Y-73479333D01*
X114730934Y-73489000D01*
X95527973Y-73489000D01*
X95521745Y-73488694D01*
X95503995Y-73486945D01*
X95420674Y-73495151D01*
X95340568Y-73519451D01*
X95266737Y-73558914D01*
X95202018Y-73612028D01*
X95190697Y-73625824D01*
X95186509Y-73630444D01*
X92846159Y-75970797D01*
X92804957Y-75998327D01*
X92756356Y-76007994D01*
X92641059Y-76007994D01*
X92505817Y-76034895D01*
X92378427Y-76087662D01*
X92263777Y-76164269D01*
X92166275Y-76261771D01*
X92089668Y-76376421D01*
X92036901Y-76503811D01*
X92010000Y-76639052D01*
X92010000Y-76776935D01*
X90077974Y-76776935D01*
X80153322Y-66852283D01*
X82020000Y-66852283D01*
X82089172Y-67200039D01*
X82224861Y-67527621D01*
X82421846Y-67822430D01*
X82672569Y-68073153D01*
X82967378Y-68270138D01*
X83294960Y-68405827D01*
X83642716Y-68475000D01*
X83997284Y-68475000D01*
X84345039Y-68405827D01*
X84672621Y-68270138D01*
X84967430Y-68073153D01*
X85218153Y-67822430D01*
X85415138Y-67527621D01*
X85550827Y-67200039D01*
X85620000Y-66852283D01*
X85620000Y-66497716D01*
X85550827Y-66149960D01*
X85415138Y-65822378D01*
X85218153Y-65527569D01*
X84967430Y-65276846D01*
X84672621Y-65079861D01*
X84345039Y-64944172D01*
X83997284Y-64875000D01*
X83642716Y-64875000D01*
X83294960Y-64944172D01*
X82967378Y-65079861D01*
X82672569Y-65276846D01*
X82421846Y-65527569D01*
X82224861Y-65822378D01*
X82089172Y-66149960D01*
X82020000Y-66497716D01*
X82020000Y-66852283D01*
X80153322Y-66852283D01*
X79876049Y-66575010D01*
X76963778Y-63662740D01*
X76936248Y-63621538D01*
X76926581Y-63572937D01*
X76936248Y-63524336D01*
X76963778Y-63483134D01*
X76993714Y-63460933D01*
X77027201Y-63443034D01*
X77032837Y-63440368D01*
X77066444Y-63426447D01*
X77096685Y-63406241D01*
X77102033Y-63403036D01*
X77134106Y-63385891D01*
X77162215Y-63362824D01*
X77167222Y-63359111D01*
X77197465Y-63338902D01*
X77934172Y-62602196D01*
X77975374Y-62574666D01*
X78023975Y-62564999D01*
X91898036Y-62564999D01*
X91946637Y-62574666D01*
X91987839Y-62602196D01*
X92015369Y-62643398D01*
X92025036Y-62691999D01*
X92015369Y-62740600D01*
X91987839Y-62781802D01*
X91946637Y-62809332D01*
X91922813Y-62816559D01*
X91870817Y-62826901D01*
X91743427Y-62879668D01*
X91628777Y-62956275D01*
X91531275Y-63053777D01*
X91454668Y-63168427D01*
X91401901Y-63295817D01*
X91375000Y-63431058D01*
X91375000Y-63568941D01*
X91401901Y-63704182D01*
X91454668Y-63831572D01*
X91531275Y-63946222D01*
X91628777Y-64043724D01*
X91743427Y-64120331D01*
X91870817Y-64173098D01*
X92006059Y-64200000D01*
X92121356Y-64200000D01*
X92169957Y-64209667D01*
X92211159Y-64237197D01*
X92211159Y-64237198D01*
X92773511Y-64799551D01*
X92777699Y-64804171D01*
X92789026Y-64817973D01*
X92853743Y-64871085D01*
X92927574Y-64910548D01*
X92982312Y-64927153D01*
X93026014Y-64950512D01*
X93057450Y-64988817D01*
X93071834Y-65036236D01*
X93066977Y-65085550D01*
X93043618Y-65129252D01*
X93016003Y-65154281D01*
X92832569Y-65276846D01*
X92581846Y-65527569D01*
X92384861Y-65822378D01*
X92249172Y-66149960D01*
X92180000Y-66497716D01*
X92180000Y-66852283D01*
X92249172Y-67200039D01*
X92384861Y-67527621D01*
X92581846Y-67822430D01*
X92832569Y-68073153D01*
X93127378Y-68270138D01*
X93454960Y-68405827D01*
X93802716Y-68475000D01*
X94157284Y-68475000D01*
X94505039Y-68405827D01*
X94832621Y-68270138D01*
X95127430Y-68073153D01*
X95378153Y-67822430D01*
X95575138Y-67527621D01*
X95710827Y-67200039D01*
X95780000Y-66852283D01*
X102340000Y-66852283D01*
X102409172Y-67200039D01*
X102544861Y-67527621D01*
X102741846Y-67822430D01*
X102992569Y-68073153D01*
X103287378Y-68270138D01*
X103614960Y-68405827D01*
X103962716Y-68475000D01*
X104317284Y-68475000D01*
X104665039Y-68405827D01*
X104992621Y-68270138D01*
X105287430Y-68073153D01*
X105538153Y-67822430D01*
X105735138Y-67527621D01*
X105870827Y-67200039D01*
X105940000Y-66852283D01*
X105940000Y-66497716D01*
X105870827Y-66149960D01*
X105735138Y-65822378D01*
X105538153Y-65527569D01*
X105287430Y-65276846D01*
X104992621Y-65079861D01*
X104665039Y-64944172D01*
X104317284Y-64875000D01*
X103962716Y-64875000D01*
X103614960Y-64944172D01*
X103287378Y-65079861D01*
X102992569Y-65276846D01*
X102741846Y-65527569D01*
X102544861Y-65822378D01*
X102409172Y-66149960D01*
X102340000Y-66497716D01*
X102340000Y-66852283D01*
X95780000Y-66852283D01*
X95780000Y-66497716D01*
X95710827Y-66149960D01*
X95575138Y-65822378D01*
X95378153Y-65527569D01*
X95127430Y-65276846D01*
X94832621Y-65079861D01*
X94521419Y-64950957D01*
X94480217Y-64923426D01*
X94452687Y-64882225D01*
X94443020Y-64833624D01*
X94452687Y-64785023D01*
X94480218Y-64743821D01*
X95154381Y-64069660D01*
X95195582Y-64042130D01*
X95244183Y-64032463D01*
X105954984Y-64032463D01*
X106003585Y-64042130D01*
X106044787Y-64069660D01*
X106126314Y-64151187D01*
X106240964Y-64227794D01*
X106368354Y-64280561D01*
X106503596Y-64307463D01*
X106641478Y-64307463D01*
X106776719Y-64280561D01*
X106904109Y-64227794D01*
X107018759Y-64151187D01*
X107116261Y-64053685D01*
X107192868Y-63939035D01*
X107245635Y-63811645D01*
X107272537Y-63676404D01*
X107272537Y-63538521D01*
X107245635Y-63403280D01*
X107192868Y-63275890D01*
X107116261Y-63161240D01*
X107018759Y-63063738D01*
X106904109Y-62987131D01*
X106776719Y-62934364D01*
X106641478Y-62907463D01*
X106503596Y-62907463D01*
X106368350Y-62934365D01*
X106285601Y-62968642D01*
X106237001Y-62978310D01*
X106188400Y-62968643D01*
X106147198Y-62941113D01*
X106119668Y-62899911D01*
X106110000Y-62851311D01*
X106110000Y-62825373D01*
X106088398Y-62716776D01*
X106088398Y-62667223D01*
X106107361Y-62621442D01*
X106142400Y-62586403D01*
X106188181Y-62567439D01*
X106212958Y-62564999D01*
X115484592Y-62564999D01*
X115490819Y-62565305D01*
X115526997Y-62568868D01*
X115683833Y-62553422D01*
X115834625Y-62507680D01*
X115973609Y-62433391D01*
X116095422Y-62333421D01*
X116118494Y-62305308D01*
X116122682Y-62300688D01*
X118875696Y-59547675D01*
X118880316Y-59543487D01*
X118908421Y-59520422D01*
X119008397Y-59398603D01*
X119082681Y-59259626D01*
X119128424Y-59108831D01*
X119143870Y-58951995D01*
X119140307Y-58915817D01*
X119140001Y-58909590D01*
X119140001Y-52461734D01*
X120099803Y-52461734D01*
X120140161Y-52756023D01*
X120237957Y-53039104D01*
X120303229Y-53161221D01*
X120445895Y-53212893D01*
X121254789Y-52404000D01*
X121973211Y-52404000D01*
X122782104Y-53212893D01*
X122922141Y-53162173D01*
X123035027Y-52930123D01*
X123043309Y-52898537D01*
X123064986Y-52853977D01*
X123102066Y-52821104D01*
X123148902Y-52804924D01*
X123198366Y-52807898D01*
X123242926Y-52829575D01*
X123275799Y-52866655D01*
X123286196Y-52889276D01*
X123337957Y-53039104D01*
X123403229Y-53161221D01*
X123545895Y-53212893D01*
X124354789Y-52404000D01*
X123545895Y-51595106D01*
X123405858Y-51645826D01*
X123292972Y-51877876D01*
X123284691Y-51909463D01*
X123263014Y-51954023D01*
X123225934Y-51986896D01*
X123179098Y-52003076D01*
X123129634Y-52000102D01*
X123085074Y-51978425D01*
X123052201Y-51941345D01*
X123041804Y-51918724D01*
X122990042Y-51768895D01*
X122924770Y-51646778D01*
X122782104Y-51595106D01*
X121973211Y-52404000D01*
X121254789Y-52404000D01*
X120445895Y-51595106D01*
X120305858Y-51645826D01*
X120192972Y-51877876D01*
X120117636Y-52165218D01*
X120099803Y-52461734D01*
X119140001Y-52461734D01*
X119140001Y-51235895D01*
X120805106Y-51235895D01*
X121614000Y-52044789D01*
X122422893Y-51235895D01*
X122372173Y-51095858D01*
X122140123Y-50982972D01*
X121852781Y-50907636D01*
X121556265Y-50889803D01*
X121261976Y-50930161D01*
X120978895Y-51027957D01*
X120856778Y-51093229D01*
X120805106Y-51235895D01*
X119140001Y-51235895D01*
X119140001Y-48777583D01*
X119149668Y-48728982D01*
X119177198Y-48687780D01*
X119218400Y-48660250D01*
X119267001Y-48650583D01*
X119315602Y-48660250D01*
G37*
G04 #@! TD.AperFunction*
G04 #@! TA.AperFunction,Conductor*
G36*
X54045557Y-93273369D02*
G01*
X54080597Y-93308409D01*
X54099560Y-93354189D01*
X54099560Y-93354190D01*
X54139193Y-93553441D01*
X54225883Y-93762730D01*
X54351734Y-93951079D01*
X54511920Y-94111265D01*
X54700269Y-94237116D01*
X54909558Y-94323806D01*
X55108810Y-94363440D01*
X55154591Y-94382403D01*
X55189631Y-94417443D01*
X55208594Y-94463223D01*
X55208594Y-94512776D01*
X55189631Y-94558557D01*
X55154591Y-94593597D01*
X55108811Y-94612560D01*
X55108810Y-94612560D01*
X54909558Y-94652193D01*
X54700269Y-94738883D01*
X54511920Y-94864734D01*
X54351734Y-95024920D01*
X54225882Y-95213271D01*
X54201136Y-95273016D01*
X54173606Y-95314218D01*
X54132404Y-95341749D01*
X54083803Y-95351416D01*
X54035203Y-95341749D01*
X53994001Y-95314219D01*
X53966470Y-95273017D01*
X53964111Y-95266875D01*
X53933646Y-95180993D01*
X53797471Y-94952386D01*
X53619309Y-94754732D01*
X53406015Y-94595638D01*
X53188439Y-94492005D01*
X53148718Y-94462378D01*
X53123359Y-94419806D01*
X53116221Y-94370769D01*
X53128393Y-94322735D01*
X53158020Y-94283014D01*
X53194450Y-94260014D01*
X53249730Y-94237116D01*
X53438079Y-94111265D01*
X53598265Y-93951079D01*
X53724116Y-93762730D01*
X53810806Y-93553441D01*
X53850440Y-93354190D01*
X53869403Y-93308409D01*
X53904443Y-93273369D01*
X53950223Y-93254406D01*
X53999776Y-93254406D01*
X54045557Y-93273369D01*
G37*
G04 #@! TD.AperFunction*
G04 #@! TA.AperFunction,Conductor*
G36*
X90240557Y-93273369D02*
G01*
X90275597Y-93308409D01*
X90294560Y-93354189D01*
X90294560Y-93354190D01*
X90334193Y-93553441D01*
X90420883Y-93762730D01*
X90546734Y-93951079D01*
X90706920Y-94111265D01*
X90895269Y-94237116D01*
X91104558Y-94323806D01*
X91303810Y-94363440D01*
X91349591Y-94382403D01*
X91384631Y-94417443D01*
X91403594Y-94463223D01*
X91403594Y-94512776D01*
X91384631Y-94558557D01*
X91349591Y-94593597D01*
X91303811Y-94612560D01*
X91303810Y-94612560D01*
X91104558Y-94652193D01*
X90895269Y-94738883D01*
X90706920Y-94864734D01*
X90546734Y-95024920D01*
X90420882Y-95213271D01*
X90396136Y-95273016D01*
X90368606Y-95314218D01*
X90327404Y-95341749D01*
X90278803Y-95351416D01*
X90230203Y-95341749D01*
X90189001Y-95314219D01*
X90161470Y-95273017D01*
X90159111Y-95266875D01*
X90128646Y-95180993D01*
X89992471Y-94952386D01*
X89814309Y-94754732D01*
X89601015Y-94595638D01*
X89383439Y-94492005D01*
X89343718Y-94462378D01*
X89318359Y-94419806D01*
X89311221Y-94370769D01*
X89323393Y-94322735D01*
X89353020Y-94283014D01*
X89389450Y-94260014D01*
X89444730Y-94237116D01*
X89633079Y-94111265D01*
X89793265Y-93951079D01*
X89919116Y-93762730D01*
X90005806Y-93553441D01*
X90045440Y-93354190D01*
X90064403Y-93308409D01*
X90099443Y-93273369D01*
X90145223Y-93254406D01*
X90194776Y-93254406D01*
X90240557Y-93273369D01*
G37*
G04 #@! TD.AperFunction*
G04 #@! TA.AperFunction,Conductor*
G36*
X51492667Y-93307211D02*
G01*
X51533869Y-93334741D01*
X51561399Y-93375943D01*
X51568626Y-93399768D01*
X51599193Y-93553441D01*
X51685883Y-93762730D01*
X51811734Y-93951079D01*
X51971920Y-94111265D01*
X52160269Y-94237116D01*
X52215550Y-94260014D01*
X52256752Y-94287544D01*
X52284282Y-94328746D01*
X52293949Y-94377347D01*
X52284282Y-94425948D01*
X52256752Y-94467150D01*
X52221561Y-94492005D01*
X52003984Y-94595638D01*
X51790690Y-94754732D01*
X51612528Y-94952386D01*
X51476353Y-95180993D01*
X51445889Y-95266875D01*
X51420530Y-95309447D01*
X51380809Y-95339074D01*
X51332775Y-95351246D01*
X51283738Y-95344108D01*
X51241166Y-95318749D01*
X51211539Y-95279028D01*
X51208864Y-95273016D01*
X51184117Y-95213271D01*
X51058265Y-95024920D01*
X50898079Y-94864734D01*
X50709730Y-94738883D01*
X50500441Y-94652193D01*
X50346768Y-94621626D01*
X50300987Y-94602663D01*
X50265947Y-94567623D01*
X50246984Y-94521843D01*
X50246984Y-94472290D01*
X50265947Y-94426509D01*
X50300987Y-94391469D01*
X50346767Y-94372506D01*
X50371544Y-94370066D01*
X51008756Y-94370066D01*
X51073813Y-94363658D01*
X51130359Y-94346505D01*
X51182477Y-94318647D01*
X51228158Y-94281158D01*
X51265647Y-94235477D01*
X51293505Y-94183359D01*
X51310658Y-94126813D01*
X51317066Y-94061755D01*
X51317066Y-93424544D01*
X51326733Y-93375943D01*
X51354263Y-93334741D01*
X51395465Y-93307211D01*
X51444066Y-93297544D01*
X51492667Y-93307211D01*
G37*
G04 #@! TD.AperFunction*
G04 #@! TA.AperFunction,Conductor*
G36*
X87687667Y-93307211D02*
G01*
X87728869Y-93334741D01*
X87756399Y-93375943D01*
X87763626Y-93399768D01*
X87794193Y-93553441D01*
X87880883Y-93762730D01*
X88006734Y-93951079D01*
X88166920Y-94111265D01*
X88355269Y-94237116D01*
X88410550Y-94260014D01*
X88451752Y-94287544D01*
X88479282Y-94328746D01*
X88488949Y-94377347D01*
X88479282Y-94425948D01*
X88451752Y-94467150D01*
X88416561Y-94492005D01*
X88198984Y-94595638D01*
X87985690Y-94754732D01*
X87807528Y-94952386D01*
X87671353Y-95180993D01*
X87640889Y-95266875D01*
X87615530Y-95309447D01*
X87575809Y-95339074D01*
X87527775Y-95351246D01*
X87478738Y-95344108D01*
X87436166Y-95318749D01*
X87406539Y-95279028D01*
X87403864Y-95273016D01*
X87379117Y-95213271D01*
X87253265Y-95024920D01*
X87093079Y-94864734D01*
X86904730Y-94738883D01*
X86695441Y-94652193D01*
X86541768Y-94621626D01*
X86495987Y-94602663D01*
X86460947Y-94567623D01*
X86441984Y-94521843D01*
X86441984Y-94472290D01*
X86460947Y-94426509D01*
X86495987Y-94391469D01*
X86541767Y-94372506D01*
X86566544Y-94370066D01*
X87203756Y-94370066D01*
X87268813Y-94363658D01*
X87325359Y-94346505D01*
X87377477Y-94318647D01*
X87423158Y-94281158D01*
X87460647Y-94235477D01*
X87488505Y-94183359D01*
X87505658Y-94126813D01*
X87512066Y-94061755D01*
X87512066Y-93424544D01*
X87521733Y-93375943D01*
X87549263Y-93334741D01*
X87590465Y-93307211D01*
X87639066Y-93297544D01*
X87687667Y-93307211D01*
G37*
G04 #@! TD.AperFunction*
G04 #@! TA.AperFunction,Conductor*
G36*
X42115601Y-77533115D02*
G01*
X42156803Y-77560645D01*
X42184333Y-77601847D01*
X42219861Y-77687621D01*
X42416846Y-77982430D01*
X42667569Y-78233153D01*
X42958557Y-78427585D01*
X42993597Y-78462625D01*
X43012560Y-78508406D01*
X43015000Y-78533182D01*
X43015001Y-82500579D01*
X43014695Y-82506807D01*
X43011130Y-82542998D01*
X43026575Y-82699820D01*
X43072321Y-82850626D01*
X43146607Y-82989606D01*
X43246579Y-83111420D01*
X43274687Y-83134488D01*
X43279306Y-83138675D01*
X43655441Y-83514809D01*
X43682972Y-83556011D01*
X43692639Y-83604612D01*
X43682972Y-83653213D01*
X43655442Y-83694414D01*
X43614240Y-83721945D01*
X43580607Y-83730727D01*
X43381937Y-83754306D01*
X43004580Y-83877054D01*
X42754755Y-84010586D01*
X42657174Y-84207963D01*
X43859503Y-85410292D01*
X43877748Y-85413922D01*
X43918946Y-85441450D01*
X44098551Y-85621055D01*
X44126081Y-85662257D01*
X44129709Y-85680498D01*
X45332036Y-86882825D01*
X45528155Y-86785866D01*
X45694168Y-86459780D01*
X45801409Y-86079057D01*
X45810274Y-85965938D01*
X45823709Y-85918241D01*
X45854374Y-85879316D01*
X45897601Y-85855089D01*
X45946808Y-85849248D01*
X45994505Y-85862683D01*
X46026689Y-85886057D01*
X47124278Y-86983646D01*
X47128466Y-86988267D01*
X47158526Y-87024896D01*
X47740303Y-87606674D01*
X47767833Y-87647875D01*
X47777500Y-87696476D01*
X47777501Y-91426466D01*
X47767834Y-91475067D01*
X47740304Y-91516269D01*
X47699102Y-91543799D01*
X47650501Y-91553466D01*
X47601900Y-91543799D01*
X47560698Y-91516269D01*
X47544904Y-91497023D01*
X47246304Y-91050136D01*
X46744863Y-90548695D01*
X46155240Y-90154722D01*
X45500081Y-89883346D01*
X44804567Y-89745000D01*
X44095433Y-89745000D01*
X43399918Y-89883346D01*
X42744759Y-90154722D01*
X42144733Y-90555647D01*
X42144477Y-90555264D01*
X42115601Y-90574559D01*
X42067000Y-90584226D01*
X42018399Y-90574559D01*
X41977197Y-90547029D01*
X41949667Y-90505827D01*
X41940000Y-90457226D01*
X41940000Y-87242036D01*
X42657174Y-87242036D01*
X42754133Y-87438155D01*
X43080219Y-87604168D01*
X43460942Y-87711409D01*
X43855276Y-87742312D01*
X44248063Y-87695692D01*
X44625419Y-87572945D01*
X44875244Y-87439413D01*
X44972825Y-87242036D01*
X43815000Y-86084211D01*
X42657174Y-87242036D01*
X41940000Y-87242036D01*
X41940000Y-86910313D01*
X41949667Y-86861712D01*
X41977197Y-86820510D01*
X42018399Y-86792980D01*
X42067000Y-86783313D01*
X42115601Y-86792980D01*
X42123284Y-86796466D01*
X42297963Y-86882825D01*
X43455789Y-85725000D01*
X42297963Y-84567174D01*
X42123284Y-84653534D01*
X42075433Y-84666407D01*
X42026297Y-84659988D01*
X41983359Y-84635254D01*
X41953153Y-84595971D01*
X41940280Y-84548120D01*
X41940000Y-84539687D01*
X41940000Y-77650448D01*
X41949667Y-77601847D01*
X41977197Y-77560645D01*
X42018399Y-77533115D01*
X42067000Y-77523448D01*
X42115601Y-77533115D01*
G37*
G04 #@! TD.AperFunction*
G04 #@! TA.AperFunction,Conductor*
G36*
X43407856Y-63652788D02*
G01*
X43451557Y-63676147D01*
X43482993Y-63714452D01*
X43497378Y-63761871D01*
X43497989Y-63774319D01*
X43497989Y-64403701D01*
X43497683Y-64409930D01*
X43495933Y-64427689D01*
X43504138Y-64511002D01*
X43528440Y-64591114D01*
X43567903Y-64664945D01*
X43621017Y-64729665D01*
X43634822Y-64740994D01*
X43639443Y-64745182D01*
X44982825Y-66088566D01*
X44987012Y-66093186D01*
X44998333Y-66106981D01*
X45063054Y-66160096D01*
X45136885Y-66199559D01*
X45216991Y-66223859D01*
X45300312Y-66232065D01*
X45318062Y-66230317D01*
X45324290Y-66230011D01*
X49994001Y-66230011D01*
X50042602Y-66239678D01*
X50083804Y-66267208D01*
X50111334Y-66308410D01*
X50121001Y-66357011D01*
X50121001Y-66438446D01*
X50111334Y-66487047D01*
X50083804Y-66528249D01*
X50002275Y-66609777D01*
X49925668Y-66724427D01*
X49872901Y-66851817D01*
X49846000Y-66987058D01*
X49846000Y-67124941D01*
X49872901Y-67260182D01*
X49925671Y-67387578D01*
X49937756Y-67405665D01*
X49956719Y-67451446D01*
X49956718Y-67500999D01*
X49937755Y-67546779D01*
X49916827Y-67567707D01*
X49917875Y-67568755D01*
X49883306Y-67603323D01*
X49878686Y-67607510D01*
X49850577Y-67630577D01*
X49827510Y-67658686D01*
X49823323Y-67663306D01*
X49797596Y-67689032D01*
X49777388Y-67719277D01*
X49773675Y-67724284D01*
X49750606Y-67752393D01*
X49733462Y-67784468D01*
X49730257Y-67789814D01*
X49710048Y-67820059D01*
X49696131Y-67853659D01*
X49693466Y-67859295D01*
X49676321Y-67891369D01*
X49665764Y-67926175D01*
X49663662Y-67932048D01*
X49649743Y-67965649D01*
X49642647Y-68001322D01*
X49641133Y-68007369D01*
X49630575Y-68042172D01*
X49627011Y-68078366D01*
X49626096Y-68084535D01*
X49619000Y-68120209D01*
X49619000Y-68156580D01*
X49618694Y-68162807D01*
X49615129Y-68199000D01*
X49618694Y-68235193D01*
X49619000Y-68241420D01*
X49619000Y-69212024D01*
X49609333Y-69260625D01*
X49581803Y-69301827D01*
X43885828Y-74997803D01*
X43844626Y-75025333D01*
X43796025Y-75035000D01*
X43637716Y-75035000D01*
X43289960Y-75104172D01*
X42962378Y-75239861D01*
X42667569Y-75436846D01*
X42416846Y-75687569D01*
X42219861Y-75982378D01*
X42184333Y-76068153D01*
X42156803Y-76109355D01*
X42115601Y-76136885D01*
X42067000Y-76146552D01*
X42018399Y-76136885D01*
X41977197Y-76109355D01*
X41949667Y-76068153D01*
X41940000Y-76019552D01*
X41940000Y-68760448D01*
X41949667Y-68711847D01*
X41977197Y-68670645D01*
X42018399Y-68643115D01*
X42067000Y-68633448D01*
X42115601Y-68643115D01*
X42156803Y-68670645D01*
X42184333Y-68711847D01*
X42219861Y-68797621D01*
X42416846Y-69092430D01*
X42667569Y-69343153D01*
X42962378Y-69540138D01*
X43289960Y-69675827D01*
X43637716Y-69745000D01*
X43992284Y-69745000D01*
X44340039Y-69675827D01*
X44667621Y-69540138D01*
X44962430Y-69343153D01*
X45213153Y-69092430D01*
X45410138Y-68797621D01*
X45545827Y-68470039D01*
X45615000Y-68122283D01*
X45615000Y-67767716D01*
X45545827Y-67419960D01*
X45410138Y-67092378D01*
X45213153Y-66797569D01*
X44962430Y-66546846D01*
X44667621Y-66349861D01*
X44340039Y-66214172D01*
X43992284Y-66145000D01*
X43637716Y-66145000D01*
X43289960Y-66214172D01*
X42962378Y-66349861D01*
X42667569Y-66546846D01*
X42416846Y-66797569D01*
X42219861Y-67092378D01*
X42184333Y-67178153D01*
X42156803Y-67219355D01*
X42115601Y-67246885D01*
X42067000Y-67256552D01*
X42018399Y-67246885D01*
X41977197Y-67219355D01*
X41949667Y-67178153D01*
X41940000Y-67129552D01*
X41940000Y-63926211D01*
X41949667Y-63877610D01*
X41977197Y-63836408D01*
X42018399Y-63808878D01*
X42067000Y-63799211D01*
X42079448Y-63799823D01*
X42132011Y-63805000D01*
X42867989Y-63805000D01*
X42996529Y-63792340D01*
X43161467Y-63742306D01*
X43311122Y-63662315D01*
X43358541Y-63647930D01*
X43407856Y-63652788D01*
G37*
G04 #@! TD.AperFunction*
G04 #@! TA.AperFunction,Conductor*
G36*
X49095591Y-48694303D02*
G01*
X49136793Y-48721833D01*
X49212514Y-48797555D01*
X49216701Y-48802175D01*
X49228022Y-48815970D01*
X49292743Y-48869085D01*
X49366574Y-48908548D01*
X49446685Y-48932850D01*
X49529998Y-48941055D01*
X49547762Y-48939306D01*
X49553990Y-48939000D01*
X53365356Y-48939000D01*
X53413957Y-48948667D01*
X53455159Y-48976197D01*
X55290803Y-50811843D01*
X55318333Y-50853045D01*
X55328000Y-50901646D01*
X55328001Y-55095356D01*
X55318334Y-55143957D01*
X55290804Y-55185159D01*
X55249602Y-55212689D01*
X55201001Y-55222356D01*
X55152400Y-55212689D01*
X55111198Y-55185159D01*
X51497197Y-51571159D01*
X51469667Y-51529957D01*
X51460000Y-51481356D01*
X51460000Y-51366058D01*
X51433098Y-51230817D01*
X51380331Y-51103427D01*
X51303724Y-50988777D01*
X51206222Y-50891275D01*
X51091572Y-50814668D01*
X50964182Y-50761901D01*
X50828941Y-50735000D01*
X50691059Y-50735000D01*
X50555817Y-50761901D01*
X50428427Y-50814668D01*
X50313777Y-50891275D01*
X50216275Y-50988777D01*
X50139668Y-51103427D01*
X50086901Y-51230817D01*
X50060000Y-51366058D01*
X50060000Y-51503941D01*
X50086901Y-51639182D01*
X50139668Y-51766572D01*
X50216275Y-51881222D01*
X50313777Y-51978724D01*
X50428427Y-52055331D01*
X50555817Y-52108098D01*
X50691059Y-52135000D01*
X50806356Y-52135000D01*
X50854957Y-52144667D01*
X50896159Y-52172197D01*
X54909803Y-56185842D01*
X54937333Y-56227044D01*
X54947000Y-56275645D01*
X54947001Y-57172693D01*
X54937334Y-57221294D01*
X54909804Y-57262495D01*
X54868602Y-57290026D01*
X54731125Y-57346970D01*
X54616475Y-57423577D01*
X54518973Y-57521079D01*
X54442366Y-57635729D01*
X54389599Y-57763119D01*
X54362698Y-57898360D01*
X54362698Y-58036243D01*
X54389599Y-58171484D01*
X54442366Y-58298874D01*
X54518973Y-58413524D01*
X54616475Y-58511026D01*
X54731125Y-58587633D01*
X54734565Y-58589058D01*
X54775767Y-58616589D01*
X54803297Y-58657790D01*
X54812964Y-58706391D01*
X54803297Y-58754992D01*
X54775767Y-58796194D01*
X51952159Y-61619803D01*
X51910957Y-61647333D01*
X51862356Y-61657000D01*
X51747059Y-61657000D01*
X51611817Y-61683901D01*
X51484427Y-61736668D01*
X51369777Y-61813275D01*
X51272275Y-61910777D01*
X51195668Y-62025427D01*
X51142901Y-62152817D01*
X51116000Y-62288058D01*
X51116000Y-62425941D01*
X51142901Y-62561182D01*
X51195668Y-62688572D01*
X51272275Y-62803222D01*
X51369777Y-62900724D01*
X51484427Y-62977331D01*
X51611817Y-63030098D01*
X51747059Y-63057000D01*
X51884941Y-63057000D01*
X52020184Y-63030097D01*
X52042813Y-63020725D01*
X52091414Y-63011058D01*
X52140015Y-63020726D01*
X52181216Y-63048256D01*
X52197009Y-63067500D01*
X52248270Y-63144217D01*
X52345775Y-63241722D01*
X52460425Y-63318329D01*
X52587815Y-63371096D01*
X52723057Y-63397998D01*
X52860940Y-63397998D01*
X52920689Y-63386113D01*
X52970242Y-63386113D01*
X53016023Y-63405076D01*
X53051063Y-63440115D01*
X53070026Y-63485896D01*
X53072466Y-63510673D01*
X53072466Y-63576278D01*
X53099367Y-63711519D01*
X53152134Y-63838909D01*
X53228741Y-63953559D01*
X53326245Y-64051063D01*
X53383986Y-64089644D01*
X53419025Y-64124683D01*
X53437989Y-64170464D01*
X53437989Y-64220017D01*
X53419026Y-64265798D01*
X53403232Y-64285043D01*
X52745474Y-64942802D01*
X52704272Y-64970333D01*
X52655671Y-64980000D01*
X45694646Y-64980000D01*
X45646045Y-64970333D01*
X45604844Y-64942803D01*
X44785198Y-64123159D01*
X44757667Y-64081957D01*
X44748000Y-64033356D01*
X44748000Y-62856902D01*
X44757667Y-62808301D01*
X44785197Y-62767099D01*
X44826399Y-62739569D01*
X44875000Y-62729902D01*
X44923601Y-62739569D01*
X44964803Y-62767099D01*
X44992333Y-62808301D01*
X45001388Y-62844454D01*
X45014829Y-62980934D01*
X45073440Y-63174146D01*
X45168619Y-63352215D01*
X45296708Y-63508291D01*
X45452784Y-63636380D01*
X45630853Y-63731559D01*
X45824065Y-63790170D01*
X45974639Y-63805000D01*
X46625361Y-63805000D01*
X46775934Y-63790170D01*
X46969146Y-63731559D01*
X47147215Y-63636380D01*
X47303291Y-63508291D01*
X47431380Y-63352215D01*
X47526559Y-63174146D01*
X47585170Y-62980934D01*
X47604960Y-62780000D01*
X47585170Y-62579065D01*
X47526559Y-62385853D01*
X47431380Y-62207784D01*
X47303291Y-62051708D01*
X47147215Y-61923619D01*
X46969146Y-61828440D01*
X46775934Y-61769829D01*
X46625361Y-61755000D01*
X46077000Y-61755000D01*
X46028399Y-61745333D01*
X45987197Y-61717803D01*
X45959667Y-61676601D01*
X45950000Y-61628000D01*
X45950000Y-61486058D01*
X45923098Y-61350817D01*
X45870331Y-61223427D01*
X45793724Y-61108777D01*
X45696222Y-61011275D01*
X45581572Y-60934668D01*
X45454182Y-60881901D01*
X45318941Y-60855000D01*
X45181059Y-60855000D01*
X45045818Y-60881901D01*
X44923601Y-60932526D01*
X44875000Y-60942193D01*
X44826400Y-60932526D01*
X44785198Y-60904996D01*
X44757667Y-60863794D01*
X44748000Y-60815193D01*
X44748000Y-57294807D01*
X44757667Y-57246206D01*
X44785197Y-57205004D01*
X44826399Y-57177474D01*
X44875000Y-57167807D01*
X44923601Y-57177474D01*
X45045818Y-57228098D01*
X45181059Y-57255000D01*
X45318941Y-57255000D01*
X45454182Y-57228098D01*
X45581572Y-57175331D01*
X45696222Y-57098724D01*
X45793724Y-57001222D01*
X45870331Y-56886572D01*
X45923098Y-56759182D01*
X45950000Y-56623941D01*
X45950000Y-56482000D01*
X45959667Y-56433399D01*
X45987197Y-56392197D01*
X46028399Y-56364667D01*
X46077000Y-56355000D01*
X46625361Y-56355000D01*
X46775934Y-56340170D01*
X46969146Y-56281559D01*
X47147215Y-56186380D01*
X47303291Y-56058291D01*
X47431380Y-55902215D01*
X47526559Y-55724146D01*
X47585170Y-55530934D01*
X47604960Y-55330000D01*
X47585170Y-55129065D01*
X47526559Y-54935853D01*
X47431380Y-54757784D01*
X47303291Y-54601708D01*
X47147215Y-54473619D01*
X46969146Y-54378440D01*
X46775934Y-54319829D01*
X46625361Y-54305000D01*
X45974639Y-54305000D01*
X45824065Y-54319829D01*
X45630853Y-54378440D01*
X45452784Y-54473619D01*
X45296708Y-54601708D01*
X45168619Y-54757784D01*
X45073440Y-54935853D01*
X45014829Y-55129065D01*
X45001388Y-55265546D01*
X44987004Y-55312965D01*
X44955568Y-55351270D01*
X44911866Y-55374629D01*
X44862552Y-55379486D01*
X44815133Y-55365102D01*
X44776828Y-55333666D01*
X44753469Y-55289964D01*
X44748000Y-55253098D01*
X44748000Y-54584644D01*
X44757667Y-54536043D01*
X44785197Y-54494841D01*
X48778546Y-50501495D01*
X48783166Y-50497307D01*
X48796961Y-50485985D01*
X48850075Y-50421266D01*
X48889538Y-50347435D01*
X48913840Y-50267324D01*
X48922046Y-50184010D01*
X48920296Y-50166248D01*
X48919990Y-50160020D01*
X48919990Y-48811636D01*
X48929657Y-48763035D01*
X48957187Y-48721833D01*
X48998389Y-48694303D01*
X49046990Y-48684636D01*
X49095591Y-48694303D01*
G37*
G04 #@! TD.AperFunction*
G04 #@! TA.AperFunction,Conductor*
G36*
X77519623Y-60505667D02*
G01*
X77560825Y-60533197D01*
X77588355Y-60574399D01*
X77598022Y-60623000D01*
X77588355Y-60671601D01*
X77560825Y-60712802D01*
X77138876Y-61134752D01*
X77104304Y-61169323D01*
X77099685Y-61173510D01*
X77071576Y-61196577D01*
X77048509Y-61224685D01*
X77044322Y-61229305D01*
X76066095Y-62207532D01*
X76045887Y-62237776D01*
X76042174Y-62242783D01*
X76019106Y-62270891D01*
X76001962Y-62302965D01*
X75998757Y-62308313D01*
X75978550Y-62338553D01*
X75964630Y-62372161D01*
X75961964Y-62377797D01*
X75944065Y-62411284D01*
X75912630Y-62449589D01*
X75868928Y-62472948D01*
X75819614Y-62477806D01*
X75772194Y-62463421D01*
X75742258Y-62441220D01*
X74013841Y-60712803D01*
X73986311Y-60671601D01*
X73976644Y-60623000D01*
X73986311Y-60574399D01*
X74013841Y-60533197D01*
X74055043Y-60505667D01*
X74103644Y-60496000D01*
X77471022Y-60496000D01*
X77519623Y-60505667D01*
G37*
G04 #@! TD.AperFunction*
G04 #@! TA.AperFunction,Conductor*
G36*
X76774797Y-44993251D02*
G01*
X76815999Y-45020781D01*
X76843530Y-45061983D01*
X76845889Y-45068125D01*
X76876353Y-45154006D01*
X77012528Y-45382613D01*
X77190690Y-45580267D01*
X77403984Y-45739361D01*
X77621561Y-45842995D01*
X77661282Y-45872622D01*
X77686641Y-45915194D01*
X77693779Y-45964231D01*
X77681607Y-46012265D01*
X77651980Y-46051986D01*
X77615550Y-46074986D01*
X77560269Y-46097883D01*
X77371920Y-46223734D01*
X77211734Y-46383920D01*
X77085883Y-46572269D01*
X76999193Y-46781558D01*
X76959560Y-46980810D01*
X76940597Y-47026591D01*
X76905557Y-47061631D01*
X76859777Y-47080594D01*
X76810224Y-47080594D01*
X76764443Y-47061631D01*
X76729403Y-47026591D01*
X76710440Y-46980811D01*
X76710440Y-46980810D01*
X76670806Y-46781558D01*
X76584116Y-46572269D01*
X76458265Y-46383920D01*
X76298079Y-46223734D01*
X76109730Y-46097883D01*
X75900441Y-46011193D01*
X75701190Y-45971560D01*
X75655409Y-45952597D01*
X75620369Y-45917557D01*
X75601406Y-45871777D01*
X75601406Y-45822224D01*
X75620369Y-45776443D01*
X75655409Y-45741403D01*
X75701189Y-45722440D01*
X75701190Y-45722440D01*
X75900441Y-45682806D01*
X76109730Y-45596116D01*
X76298079Y-45470265D01*
X76458265Y-45310079D01*
X76584117Y-45121728D01*
X76608864Y-45061984D01*
X76636394Y-45020782D01*
X76677596Y-44993251D01*
X76726197Y-44983584D01*
X76774797Y-44993251D01*
G37*
G04 #@! TD.AperFunction*
G04 #@! TA.AperFunction,Conductor*
G36*
X112969797Y-44993251D02*
G01*
X113010999Y-45020781D01*
X113038530Y-45061983D01*
X113040889Y-45068125D01*
X113071353Y-45154006D01*
X113207528Y-45382613D01*
X113385690Y-45580267D01*
X113598984Y-45739361D01*
X113816561Y-45842995D01*
X113856282Y-45872622D01*
X113881641Y-45915194D01*
X113888779Y-45964231D01*
X113876607Y-46012265D01*
X113846980Y-46051986D01*
X113810550Y-46074986D01*
X113755269Y-46097883D01*
X113566920Y-46223734D01*
X113406734Y-46383920D01*
X113280883Y-46572269D01*
X113194193Y-46781558D01*
X113154560Y-46980810D01*
X113135597Y-47026591D01*
X113100557Y-47061631D01*
X113054777Y-47080594D01*
X113005224Y-47080594D01*
X112959443Y-47061631D01*
X112924403Y-47026591D01*
X112905440Y-46980811D01*
X112905440Y-46980810D01*
X112865806Y-46781558D01*
X112779116Y-46572269D01*
X112653265Y-46383920D01*
X112493079Y-46223734D01*
X112304730Y-46097883D01*
X112095441Y-46011193D01*
X111896190Y-45971560D01*
X111850409Y-45952597D01*
X111815369Y-45917557D01*
X111796406Y-45871777D01*
X111796406Y-45822224D01*
X111815369Y-45776443D01*
X111850409Y-45741403D01*
X111896189Y-45722440D01*
X111896190Y-45722440D01*
X112095441Y-45682806D01*
X112304730Y-45596116D01*
X112493079Y-45470265D01*
X112653265Y-45310079D01*
X112779117Y-45121728D01*
X112803864Y-45061984D01*
X112831394Y-45020782D01*
X112872596Y-44993251D01*
X112921197Y-44983584D01*
X112969797Y-44993251D01*
G37*
G04 #@! TD.AperFunction*
G04 #@! TA.AperFunction,Conductor*
G36*
X79526262Y-44990892D02*
G01*
X79568834Y-45016251D01*
X79598461Y-45055972D01*
X79601136Y-45061984D01*
X79625882Y-45121728D01*
X79751734Y-45310079D01*
X79911920Y-45470265D01*
X80100269Y-45596116D01*
X80309558Y-45682806D01*
X80463232Y-45713374D01*
X80509013Y-45732337D01*
X80544053Y-45767377D01*
X80563016Y-45813157D01*
X80563016Y-45862710D01*
X80544053Y-45908491D01*
X80509013Y-45943531D01*
X80463233Y-45962494D01*
X80438456Y-45964934D01*
X79801244Y-45964934D01*
X79736186Y-45971341D01*
X79679640Y-45988494D01*
X79627522Y-46016352D01*
X79581841Y-46053841D01*
X79544352Y-46099522D01*
X79516494Y-46151640D01*
X79499341Y-46208186D01*
X79492934Y-46273244D01*
X79492934Y-46910456D01*
X79483267Y-46959057D01*
X79455737Y-47000259D01*
X79414535Y-47027789D01*
X79365934Y-47037456D01*
X79317333Y-47027789D01*
X79276131Y-47000259D01*
X79248601Y-46959057D01*
X79241374Y-46935232D01*
X79210806Y-46781558D01*
X79124116Y-46572269D01*
X78998265Y-46383920D01*
X78838079Y-46223734D01*
X78649730Y-46097883D01*
X78594450Y-46074986D01*
X78553248Y-46047456D01*
X78525718Y-46006254D01*
X78516051Y-45957653D01*
X78525718Y-45909052D01*
X78553248Y-45867850D01*
X78588439Y-45842995D01*
X78806015Y-45739361D01*
X79019309Y-45580267D01*
X79197471Y-45382613D01*
X79333646Y-45154006D01*
X79364111Y-45068125D01*
X79389470Y-45025553D01*
X79429191Y-44995926D01*
X79477225Y-44983754D01*
X79526262Y-44990892D01*
G37*
G04 #@! TD.AperFunction*
G04 #@! TA.AperFunction,Conductor*
G36*
X115721262Y-44990892D02*
G01*
X115763834Y-45016251D01*
X115793461Y-45055972D01*
X115796136Y-45061984D01*
X115820882Y-45121728D01*
X115946734Y-45310079D01*
X116106920Y-45470265D01*
X116295269Y-45596116D01*
X116504558Y-45682806D01*
X116658232Y-45713374D01*
X116704013Y-45732337D01*
X116739053Y-45767377D01*
X116758016Y-45813157D01*
X116758016Y-45862710D01*
X116739053Y-45908491D01*
X116704013Y-45943531D01*
X116658233Y-45962494D01*
X116633456Y-45964934D01*
X115996244Y-45964934D01*
X115931186Y-45971341D01*
X115874640Y-45988494D01*
X115822522Y-46016352D01*
X115776841Y-46053841D01*
X115739352Y-46099522D01*
X115711494Y-46151640D01*
X115694341Y-46208186D01*
X115687934Y-46273244D01*
X115687934Y-46910456D01*
X115678267Y-46959057D01*
X115650737Y-47000259D01*
X115609535Y-47027789D01*
X115560934Y-47037456D01*
X115512333Y-47027789D01*
X115471131Y-47000259D01*
X115443601Y-46959057D01*
X115436374Y-46935232D01*
X115405806Y-46781558D01*
X115319116Y-46572269D01*
X115193265Y-46383920D01*
X115033079Y-46223734D01*
X114844730Y-46097883D01*
X114789450Y-46074986D01*
X114748248Y-46047456D01*
X114720718Y-46006254D01*
X114711051Y-45957653D01*
X114720718Y-45909052D01*
X114748248Y-45867850D01*
X114783439Y-45842995D01*
X115001015Y-45739361D01*
X115214309Y-45580267D01*
X115392471Y-45382613D01*
X115528646Y-45154006D01*
X115559111Y-45068125D01*
X115584470Y-45025553D01*
X115624191Y-44995926D01*
X115672225Y-44983754D01*
X115721262Y-44990892D01*
G37*
G04 #@! TD.AperFunction*
G04 #@! TA.AperFunction,Conductor*
G36*
X78300601Y-44489667D02*
G01*
X78341803Y-44517197D01*
X78369333Y-44558399D01*
X78379000Y-44607000D01*
X78379000Y-44704000D01*
X78369333Y-44752601D01*
X78341803Y-44793803D01*
X78329813Y-44801813D01*
X78321803Y-44813803D01*
X78280601Y-44841333D01*
X78232000Y-44851000D01*
X77978000Y-44851000D01*
X77929399Y-44841333D01*
X77888197Y-44813803D01*
X77880186Y-44801813D01*
X77868197Y-44793803D01*
X77840667Y-44752601D01*
X77831000Y-44704000D01*
X77831000Y-44607000D01*
X77840667Y-44558399D01*
X77868197Y-44517197D01*
X77909399Y-44489667D01*
X77958000Y-44480000D01*
X78252000Y-44480000D01*
X78300601Y-44489667D01*
G37*
G04 #@! TD.AperFunction*
G04 #@! TA.AperFunction,Conductor*
G36*
X114495601Y-44489667D02*
G01*
X114536803Y-44517197D01*
X114564333Y-44558399D01*
X114574000Y-44607000D01*
X114574000Y-44704000D01*
X114564333Y-44752601D01*
X114536803Y-44793803D01*
X114524813Y-44801813D01*
X114516803Y-44813803D01*
X114475601Y-44841333D01*
X114427000Y-44851000D01*
X114173000Y-44851000D01*
X114124399Y-44841333D01*
X114083197Y-44813803D01*
X114075186Y-44801813D01*
X114063197Y-44793803D01*
X114035667Y-44752601D01*
X114026000Y-44704000D01*
X114026000Y-44607000D01*
X114035667Y-44558399D01*
X114063197Y-44517197D01*
X114104399Y-44489667D01*
X114153000Y-44480000D01*
X114447000Y-44480000D01*
X114495601Y-44489667D01*
G37*
G04 #@! TD.AperFunction*
G04 #@! TD*
M02*
