M48
METRIC,TZ
T1C0.400
T2C0.550
T3C0.850
T4C1.000
T5C1.200
T6C1.500
%
G90
G05
T1
X42672Y-53086
X45593Y-78740
X45593Y-81280
X46990Y-83820
X48260Y-55245
X48260Y-56515
X48260Y-61595
X48260Y-62865
X48260Y-64135
X48260Y-67310
X48260Y-69215
X48260Y-73660
X48260Y-76200
X48260Y-78740
X48260Y-81280
X49530Y-50165
X50165Y-55245
X50165Y-56515
X50419Y-62103
X50419Y-68199
X50419Y-69585
X50419Y-89662
X50546Y-67056
X50760Y-51435
X50800Y-87630
X51816Y-62357
X51943Y-68199
X51943Y-69596
X52070Y-88900
X52451Y-87503
X52792Y-62698
X52959Y-67056
X53772Y-63507
X54864Y-51054
X54864Y-52070
X55063Y-57967
X55880Y-64135
X56969Y-60207
X57158Y-64135
X57531Y-58293
X57658Y-80518
X57999Y-55560
X58039Y-73533
X58166Y-56642
X58293Y-63627
X58293Y-86741
X58928Y-60452
X59309Y-59563
X59309Y-64897
X60325Y-55880
X60325Y-57785
X61468Y-66167
X62738Y-69596
X62738Y-80264
X64008Y-63754
X64516Y-80264
X64516Y-88646
X64567Y-82982
X65004Y-59984
X65532Y-57658
X65532Y-87630
X65786Y-59309
X66294Y-86614
X66548Y-58547
X66802Y-53340
X67818Y-80772
X67945Y-81915
X68351Y-75803
X69342Y-84328
X69735Y-79363
X70612Y-84328
X71120Y-76200
X71628Y-62738
X71882Y-80264
X71882Y-81534
X72235Y-76113
X73025Y-80645
X73206Y-76128
X73279Y-88265
X73660Y-57150
X73914Y-50038
X74084Y-65321
X74168Y-76708
X74727Y-67310
X74727Y-69215
X74909Y-64495
X75184Y-85598
X76327Y-60960
X76687Y-62717
X76708Y-50038
X76962Y-53340
X76962Y-81280
X77640Y-61765
X78105Y-50038
X78232Y-90551
X78486Y-60919
X78970Y-57895
X79502Y-50038
X80010Y-64770
X80772Y-78359
X80772Y-79502
X81661Y-73406
X81724Y-71565
X81915Y-50038
X82563Y-79375
X82677Y-90551
X84328Y-85852
X84328Y-88138
X85725Y-64770
X85725Y-69215
X85920Y-58801
X85954Y-84328
X86870Y-55761
X86995Y-58801
X87277Y-87023
X88138Y-81026
X88265Y-78740
X88519Y-90551
X90170Y-50927
X90170Y-56642
X90170Y-58674
X91440Y-74930
X91567Y-55245
X91694Y-60071
X92075Y-63500
X92075Y-64770
X92075Y-69215
X92456Y-59309
X92710Y-76708
X92837Y-55245
X93324Y-63635
X93416Y-60427
X93980Y-80518
X94107Y-55245
X94361Y-86995
X94996Y-57658
X94996Y-58674
X95250Y-55245
X96520Y-75692
X97790Y-53848
X98933Y-59690
X99060Y-56515
X99060Y-69215
X99187Y-80518
X100584Y-59690
X100742Y-82962
X100838Y-88392
X101346Y-78105
X101600Y-67310
X101727Y-54229
X101854Y-87376
X102616Y-86106
X104140Y-81280
X104140Y-84328
X104394Y-75819
X104902Y-82042
X105410Y-62894
X105410Y-84328
X105918Y-53340
X105918Y-54610
X105973Y-79274
X106045Y-80391
X106573Y-63607
X106680Y-66040
X106680Y-84328
X107635Y-76200
X108077Y-81788
X108585Y-76200
X109220Y-80645
X109220Y-81788
X109220Y-82804
X109220Y-88265
X109855Y-76200
X110744Y-76795
X110998Y-49657
X111549Y-61765
X111760Y-66040
X111760Y-67310
X111760Y-85598
X112395Y-56769
X112776Y-80518
X113538Y-74930
X113665Y-49657
X113665Y-71501
X114300Y-82296
X114427Y-57150
X115888Y-49657
X116078Y-58420
X116840Y-65151
X116840Y-66675
X116840Y-69596
X116980Y-74720
X117054Y-78780
X118745Y-78740
X120142Y-89408
X120650Y-79415
X121031Y-74422
X121031Y-83439
T4
X50165Y-44577
X50165Y-47117
X50165Y-93218
X50165Y-95758
X52705Y-44577
X52705Y-47117
X52705Y-93218
X52705Y-95758
X55245Y-44577
X55245Y-47117
X55245Y-93218
X55245Y-95758
X57785Y-44577
X57785Y-47117
X57785Y-93218
X57785Y-95758
X60325Y-44577
X60325Y-47117
X60325Y-93218
X60325Y-95758
X62865Y-44577
X62865Y-47117
X62865Y-93218
X62865Y-95758
X65405Y-44577
X65405Y-47117
X65405Y-93218
X65405Y-95758
X67945Y-44577
X67945Y-47117
X67945Y-93218
X67945Y-95758
X70485Y-44577
X70485Y-47117
X70485Y-93218
X70485Y-95758
X73025Y-44577
X73025Y-47117
X73025Y-93218
X73025Y-95758
X75565Y-44577
X75565Y-47117
X75565Y-93218
X75565Y-95758
X78105Y-44577
X78105Y-47117
X78105Y-93218
X78105Y-95758
X80645Y-44577
X80645Y-47117
X80645Y-93218
X80645Y-95758
X86360Y-44577
X86360Y-47117
X86360Y-93218
X86360Y-95758
X88900Y-44577
X88900Y-47117
X88900Y-93218
X88900Y-95758
X91440Y-44577
X91440Y-47117
X91440Y-93218
X91440Y-95758
X93980Y-44577
X93980Y-47117
X93980Y-93218
X93980Y-95758
X96520Y-44577
X96520Y-47117
X96520Y-93218
X96520Y-95758
X99060Y-44577
X99060Y-47117
X99060Y-93218
X99060Y-95758
X101600Y-44577
X101600Y-47117
X101600Y-93218
X101600Y-95758
X104140Y-44577
X104140Y-47117
X104140Y-93218
X104140Y-95758
X106680Y-44577
X106680Y-47117
X106680Y-93218
X106680Y-95758
X109220Y-44577
X109220Y-47117
X109220Y-93218
X109220Y-95758
X111760Y-44577
X111760Y-47117
X111760Y-93218
X111760Y-95758
X114300Y-44577
X114300Y-47117
X114300Y-93218
X114300Y-95758
X116840Y-44577
X116840Y-47117
X116840Y-93218
X116840Y-95758
T5
X121614Y-52404
X121614Y-54904
X121614Y-57404
X124714Y-52404
X124714Y-54904
X124714Y-57404
T6
X43815Y-67945
X43815Y-76835
X43815Y-85725
X83820Y-66675
X93980Y-66675
X104140Y-66675
X118745Y-62865
X118745Y-71755
X123825Y-62865
X123825Y-71755
T2
X42825Y-55180G85X42175Y-55180
G05
X42825Y-62930G85X42175Y-62930
G05
T3
X46575Y-55330G85X46025Y-55330
G05
X46575Y-62780G85X46025Y-62780
G05
T0
M30
