%FSLAX45Y45*%
G04 Gerber Fmt 4.5, Leading zero omitted, Abs format (unit mm)*
G04 Created by KiCad (PCBNEW (5.1.9)-1) date 2021-02-23 11:14:55*
%MOMM*%
%LPD*%
G01*
G04 APERTURE LIST*
%TA.AperFunction,Profile*%
%ADD10C,0.050000*%
%TD*%
%ADD11C,0.200000*%
%ADD12C,0.300000*%
G04 APERTURE END LIST*
D10*
X3492500Y-6532000D02*
G75*
G02*
X3238500Y-6278000I0J254000D01*
G01*
X3238500Y-6223000D02*
X3238500Y-6278000D01*
X3238500Y-2286000D02*
G75*
G02*
X3462000Y-2062500I223500J0D01*
G01*
X3238500Y-2286000D02*
X3238500Y-6223000D01*
X6921500Y-2062500D02*
G75*
G02*
X7145000Y-2286000I0J-223500D01*
G01*
X7145000Y-2286000D02*
X7145000Y-6532000D01*
X3492500Y-6532000D02*
X7145000Y-6532000D01*
X3462000Y-2062500D02*
X6921500Y-2062500D01*
D11*
X3459800Y-6076000D02*
X3499800Y-6116000D01*
X3499800Y-6076000D02*
X3459800Y-6116000D01*
X3510600Y-4323400D02*
X3550600Y-4363400D01*
X3550600Y-4323400D02*
X3510600Y-4363400D01*
X4044000Y-2266000D02*
X4084000Y-2306000D01*
X4084000Y-2266000D02*
X4044000Y-2306000D01*
X4983800Y-5237800D02*
X5023800Y-5277800D01*
X5023800Y-5237800D02*
X4983800Y-5277800D01*
X5009200Y-3307400D02*
X5049200Y-3347400D01*
X5049200Y-3307400D02*
X5009200Y-3347400D01*
X5009200Y-4526600D02*
X5049200Y-4566600D01*
X5049200Y-4526600D02*
X5009200Y-4566600D01*
X6025200Y-5314000D02*
X6065200Y-5354000D01*
X6065200Y-5314000D02*
X6025200Y-5354000D01*
X6330000Y-2266000D02*
X6370000Y-2306000D01*
X6370000Y-2266000D02*
X6330000Y-2306000D01*
X3923500Y-6096000D02*
G75*
G03*
X3923500Y-6096000I-50000J0D01*
G01*
X3923500Y-6350000D02*
G75*
G03*
X3923500Y-6350000I-50000J0D01*
G01*
X4177500Y-6096000D02*
G75*
G03*
X4177500Y-6096000I-50000J0D01*
G01*
X4177500Y-6350000D02*
G75*
G03*
X4177500Y-6350000I-50000J0D01*
G01*
X4431500Y-6096000D02*
G75*
G03*
X4431500Y-6096000I-50000J0D01*
G01*
X4431500Y-6350000D02*
G75*
G03*
X4431500Y-6350000I-50000J0D01*
G01*
X4685500Y-6096000D02*
G75*
G03*
X4685500Y-6096000I-50000J0D01*
G01*
X4685500Y-6350000D02*
G75*
G03*
X4685500Y-6350000I-50000J0D01*
G01*
X4939500Y-6096000D02*
G75*
G03*
X4939500Y-6096000I-50000J0D01*
G01*
X4939500Y-6350000D02*
G75*
G03*
X4939500Y-6350000I-50000J0D01*
G01*
X5193500Y-6096000D02*
G75*
G03*
X5193500Y-6096000I-50000J0D01*
G01*
X5193500Y-6350000D02*
G75*
G03*
X5193500Y-6350000I-50000J0D01*
G01*
X5447500Y-6096000D02*
G75*
G03*
X5447500Y-6096000I-50000J0D01*
G01*
X5447500Y-6350000D02*
G75*
G03*
X5447500Y-6350000I-50000J0D01*
G01*
X5701500Y-6096000D02*
G75*
G03*
X5701500Y-6096000I-50000J0D01*
G01*
X5701500Y-6350000D02*
G75*
G03*
X5701500Y-6350000I-50000J0D01*
G01*
X5955500Y-6096000D02*
G75*
G03*
X5955500Y-6096000I-50000J0D01*
G01*
X5955500Y-6350000D02*
G75*
G03*
X5955500Y-6350000I-50000J0D01*
G01*
X6209500Y-6096000D02*
G75*
G03*
X6209500Y-6096000I-50000J0D01*
G01*
X6209500Y-6350000D02*
G75*
G03*
X6209500Y-6350000I-50000J0D01*
G01*
X6463500Y-6096000D02*
G75*
G03*
X6463500Y-6096000I-50000J0D01*
G01*
X6463500Y-6350000D02*
G75*
G03*
X6463500Y-6350000I-50000J0D01*
G01*
X6717500Y-6096000D02*
G75*
G03*
X6717500Y-6096000I-50000J0D01*
G01*
X6717500Y-6350000D02*
G75*
G03*
X6717500Y-6350000I-50000J0D01*
G01*
X6971500Y-6096000D02*
G75*
G03*
X6971500Y-6096000I-50000J0D01*
G01*
X6971500Y-6350000D02*
G75*
G03*
X6971500Y-6350000I-50000J0D01*
G01*
X3683000Y-4560500D02*
X3683000Y-4710500D01*
X3608000Y-4635500D02*
X3758000Y-4635500D01*
X3683000Y-5068500D02*
X3683000Y-5218500D01*
X3608000Y-5143500D02*
X3758000Y-5143500D01*
X3683000Y-5576500D02*
X3683000Y-5726500D01*
X3608000Y-5651500D02*
X3758000Y-5651500D01*
X4318000Y-5068500D02*
X4318000Y-5218500D01*
X4243000Y-5143500D02*
X4393000Y-5143500D01*
X4318000Y-5576500D02*
X4318000Y-5726500D01*
X4243000Y-5651500D02*
X4393000Y-5651500D01*
X5314600Y-5274800D02*
X5314600Y-5424800D01*
X5239600Y-5349800D02*
X5389600Y-5349800D01*
X5689600Y-3274800D02*
X5689600Y-3424800D01*
X5614600Y-3349800D02*
X5764600Y-3349800D01*
X5689600Y-5274800D02*
X5689600Y-5424800D01*
X5614600Y-5349800D02*
X5764600Y-5349800D01*
X6406800Y-5274800D02*
X6406800Y-5424800D01*
X6331800Y-5349800D02*
X6481800Y-5349800D01*
X6781800Y-3274800D02*
X6781800Y-3424800D01*
X6706800Y-3349800D02*
X6856800Y-3349800D01*
X6781800Y-5274800D02*
X6781800Y-5424800D01*
X6706800Y-5349800D02*
X6856800Y-5349800D01*
D12*
X3522428Y-7000214D02*
X3522428Y-6700214D01*
X3593857Y-6700214D01*
X3636714Y-6714500D01*
X3665286Y-6743071D01*
X3679571Y-6771643D01*
X3693857Y-6828786D01*
X3693857Y-6871643D01*
X3679571Y-6928786D01*
X3665286Y-6957357D01*
X3636714Y-6985929D01*
X3593857Y-7000214D01*
X3522428Y-7000214D01*
X3822428Y-7000214D02*
X3822428Y-6800214D01*
X3822428Y-6857357D02*
X3836714Y-6828786D01*
X3851000Y-6814500D01*
X3879571Y-6800214D01*
X3908143Y-6800214D01*
X4008143Y-7000214D02*
X4008143Y-6800214D01*
X4008143Y-6700214D02*
X3993857Y-6714500D01*
X4008143Y-6728786D01*
X4022428Y-6714500D01*
X4008143Y-6700214D01*
X4008143Y-6728786D01*
X4193857Y-7000214D02*
X4165286Y-6985929D01*
X4151000Y-6957357D01*
X4151000Y-6700214D01*
X4351000Y-7000214D02*
X4322428Y-6985929D01*
X4308143Y-6957357D01*
X4308143Y-6700214D01*
X4693857Y-7000214D02*
X4693857Y-6700214D01*
X4793857Y-6914500D01*
X4893857Y-6700214D01*
X4893857Y-7000214D01*
X5165286Y-7000214D02*
X5165286Y-6843071D01*
X5151000Y-6814500D01*
X5122428Y-6800214D01*
X5065286Y-6800214D01*
X5036714Y-6814500D01*
X5165286Y-6985929D02*
X5136714Y-7000214D01*
X5065286Y-7000214D01*
X5036714Y-6985929D01*
X5022428Y-6957357D01*
X5022428Y-6928786D01*
X5036714Y-6900214D01*
X5065286Y-6885929D01*
X5136714Y-6885929D01*
X5165286Y-6871643D01*
X5308143Y-6800214D02*
X5308143Y-7100214D01*
X5308143Y-6814500D02*
X5336714Y-6800214D01*
X5393857Y-6800214D01*
X5422428Y-6814500D01*
X5436714Y-6828786D01*
X5451000Y-6857357D01*
X5451000Y-6943071D01*
X5436714Y-6971643D01*
X5422428Y-6985929D01*
X5393857Y-7000214D01*
X5336714Y-7000214D01*
X5308143Y-6985929D01*
X5579571Y-6971643D02*
X5593857Y-6985929D01*
X5579571Y-7000214D01*
X5565286Y-6985929D01*
X5579571Y-6971643D01*
X5579571Y-7000214D01*
X5579571Y-6814500D02*
X5593857Y-6828786D01*
X5579571Y-6843071D01*
X5565286Y-6828786D01*
X5579571Y-6814500D01*
X5579571Y-6843071D01*
X3196000Y-7474500D02*
X3236000Y-7514500D01*
X3236000Y-7474500D02*
X3196000Y-7514500D01*
X3579571Y-7330214D02*
X3608143Y-7330214D01*
X3636714Y-7344500D01*
X3651000Y-7358786D01*
X3665286Y-7387357D01*
X3679571Y-7444500D01*
X3679571Y-7515929D01*
X3665286Y-7573071D01*
X3651000Y-7601643D01*
X3636714Y-7615929D01*
X3608143Y-7630214D01*
X3579571Y-7630214D01*
X3551000Y-7615929D01*
X3536714Y-7601643D01*
X3522428Y-7573071D01*
X3508143Y-7515929D01*
X3508143Y-7444500D01*
X3522428Y-7387357D01*
X3536714Y-7358786D01*
X3551000Y-7344500D01*
X3579571Y-7330214D01*
X3808143Y-7601643D02*
X3822428Y-7615929D01*
X3808143Y-7630214D01*
X3793857Y-7615929D01*
X3808143Y-7601643D01*
X3808143Y-7630214D01*
X4079571Y-7430214D02*
X4079571Y-7630214D01*
X4008143Y-7315929D02*
X3936714Y-7530214D01*
X4122428Y-7530214D01*
X4293857Y-7330214D02*
X4322428Y-7330214D01*
X4351000Y-7344500D01*
X4365286Y-7358786D01*
X4379571Y-7387357D01*
X4393857Y-7444500D01*
X4393857Y-7515929D01*
X4379571Y-7573071D01*
X4365286Y-7601643D01*
X4351000Y-7615929D01*
X4322428Y-7630214D01*
X4293857Y-7630214D01*
X4265286Y-7615929D01*
X4251000Y-7601643D01*
X4236714Y-7573071D01*
X4222428Y-7515929D01*
X4222428Y-7444500D01*
X4236714Y-7387357D01*
X4251000Y-7358786D01*
X4265286Y-7344500D01*
X4293857Y-7330214D01*
X4522428Y-7630214D02*
X4522428Y-7430214D01*
X4522428Y-7458786D02*
X4536714Y-7444500D01*
X4565286Y-7430214D01*
X4608143Y-7430214D01*
X4636714Y-7444500D01*
X4651000Y-7473071D01*
X4651000Y-7630214D01*
X4651000Y-7473071D02*
X4665286Y-7444500D01*
X4693857Y-7430214D01*
X4736714Y-7430214D01*
X4765286Y-7444500D01*
X4779571Y-7473071D01*
X4779571Y-7630214D01*
X4922428Y-7630214D02*
X4922428Y-7430214D01*
X4922428Y-7458786D02*
X4936714Y-7444500D01*
X4965286Y-7430214D01*
X5008143Y-7430214D01*
X5036714Y-7444500D01*
X5051000Y-7473071D01*
X5051000Y-7630214D01*
X5051000Y-7473071D02*
X5065286Y-7444500D01*
X5093857Y-7430214D01*
X5136714Y-7430214D01*
X5165286Y-7444500D01*
X5179571Y-7473071D01*
X5179571Y-7630214D01*
X5765286Y-7315929D02*
X5508143Y-7701643D01*
X6151000Y-7330214D02*
X6179571Y-7330214D01*
X6208143Y-7344500D01*
X6222428Y-7358786D01*
X6236714Y-7387357D01*
X6251000Y-7444500D01*
X6251000Y-7515929D01*
X6236714Y-7573071D01*
X6222428Y-7601643D01*
X6208143Y-7615929D01*
X6179571Y-7630214D01*
X6151000Y-7630214D01*
X6122428Y-7615929D01*
X6108143Y-7601643D01*
X6093857Y-7573071D01*
X6079571Y-7515929D01*
X6079571Y-7444500D01*
X6093857Y-7387357D01*
X6108143Y-7358786D01*
X6122428Y-7344500D01*
X6151000Y-7330214D01*
X6379571Y-7601643D02*
X6393857Y-7615929D01*
X6379571Y-7630214D01*
X6365286Y-7615929D01*
X6379571Y-7601643D01*
X6379571Y-7630214D01*
X6579571Y-7330214D02*
X6608143Y-7330214D01*
X6636714Y-7344500D01*
X6651000Y-7358786D01*
X6665286Y-7387357D01*
X6679571Y-7444500D01*
X6679571Y-7515929D01*
X6665286Y-7573071D01*
X6651000Y-7601643D01*
X6636714Y-7615929D01*
X6608143Y-7630214D01*
X6579571Y-7630214D01*
X6551000Y-7615929D01*
X6536714Y-7601643D01*
X6522428Y-7573071D01*
X6508143Y-7515929D01*
X6508143Y-7444500D01*
X6522428Y-7387357D01*
X6536714Y-7358786D01*
X6551000Y-7344500D01*
X6579571Y-7330214D01*
X6965286Y-7630214D02*
X6793857Y-7630214D01*
X6879571Y-7630214D02*
X6879571Y-7330214D01*
X6851000Y-7373071D01*
X6822428Y-7401643D01*
X6793857Y-7415929D01*
X7222428Y-7330214D02*
X7165286Y-7330214D01*
X7136714Y-7344500D01*
X7122428Y-7358786D01*
X7093857Y-7401643D01*
X7079571Y-7458786D01*
X7079571Y-7573071D01*
X7093857Y-7601643D01*
X7108143Y-7615929D01*
X7136714Y-7630214D01*
X7193857Y-7630214D01*
X7222428Y-7615929D01*
X7236714Y-7601643D01*
X7251000Y-7573071D01*
X7251000Y-7501643D01*
X7236714Y-7473071D01*
X7222428Y-7458786D01*
X7193857Y-7444500D01*
X7136714Y-7444500D01*
X7108143Y-7458786D01*
X7093857Y-7473071D01*
X7079571Y-7501643D01*
X7365286Y-7330214D02*
X7365286Y-7387357D01*
X7479571Y-7330214D02*
X7479571Y-7387357D01*
X7922428Y-7744500D02*
X7908143Y-7730214D01*
X7879571Y-7687357D01*
X7865286Y-7658786D01*
X7851000Y-7615929D01*
X7836714Y-7544500D01*
X7836714Y-7487357D01*
X7851000Y-7415929D01*
X7865286Y-7373071D01*
X7879571Y-7344500D01*
X7908143Y-7301643D01*
X7922428Y-7287357D01*
X8079571Y-7458786D02*
X8051000Y-7444500D01*
X8036714Y-7430214D01*
X8022428Y-7401643D01*
X8022428Y-7387357D01*
X8036714Y-7358786D01*
X8051000Y-7344500D01*
X8079571Y-7330214D01*
X8136714Y-7330214D01*
X8165286Y-7344500D01*
X8179571Y-7358786D01*
X8193857Y-7387357D01*
X8193857Y-7401643D01*
X8179571Y-7430214D01*
X8165286Y-7444500D01*
X8136714Y-7458786D01*
X8079571Y-7458786D01*
X8051000Y-7473071D01*
X8036714Y-7487357D01*
X8022428Y-7515929D01*
X8022428Y-7573071D01*
X8036714Y-7601643D01*
X8051000Y-7615929D01*
X8079571Y-7630214D01*
X8136714Y-7630214D01*
X8165286Y-7615929D01*
X8179571Y-7601643D01*
X8193857Y-7573071D01*
X8193857Y-7515929D01*
X8179571Y-7487357D01*
X8165286Y-7473071D01*
X8136714Y-7458786D01*
X8551000Y-7630214D02*
X8551000Y-7330214D01*
X8679571Y-7630214D02*
X8679571Y-7473071D01*
X8665286Y-7444500D01*
X8636714Y-7430214D01*
X8593857Y-7430214D01*
X8565286Y-7444500D01*
X8551000Y-7458786D01*
X8865286Y-7630214D02*
X8836714Y-7615929D01*
X8822428Y-7601643D01*
X8808143Y-7573071D01*
X8808143Y-7487357D01*
X8822428Y-7458786D01*
X8836714Y-7444500D01*
X8865286Y-7430214D01*
X8908143Y-7430214D01*
X8936714Y-7444500D01*
X8951000Y-7458786D01*
X8965286Y-7487357D01*
X8965286Y-7573071D01*
X8951000Y-7601643D01*
X8936714Y-7615929D01*
X8908143Y-7630214D01*
X8865286Y-7630214D01*
X9136714Y-7630214D02*
X9108143Y-7615929D01*
X9093857Y-7587357D01*
X9093857Y-7330214D01*
X9365286Y-7615929D02*
X9336714Y-7630214D01*
X9279571Y-7630214D01*
X9251000Y-7615929D01*
X9236714Y-7587357D01*
X9236714Y-7473071D01*
X9251000Y-7444500D01*
X9279571Y-7430214D01*
X9336714Y-7430214D01*
X9365286Y-7444500D01*
X9379571Y-7473071D01*
X9379571Y-7501643D01*
X9236714Y-7530214D01*
X9493857Y-7615929D02*
X9522428Y-7630214D01*
X9579571Y-7630214D01*
X9608143Y-7615929D01*
X9622428Y-7587357D01*
X9622428Y-7573071D01*
X9608143Y-7544500D01*
X9579571Y-7530214D01*
X9536714Y-7530214D01*
X9508143Y-7515929D01*
X9493857Y-7487357D01*
X9493857Y-7473071D01*
X9508143Y-7444500D01*
X9536714Y-7430214D01*
X9579571Y-7430214D01*
X9608143Y-7444500D01*
X9722428Y-7744500D02*
X9736714Y-7730214D01*
X9765286Y-7687357D01*
X9779571Y-7658786D01*
X9793857Y-7615929D01*
X9808143Y-7544500D01*
X9808143Y-7487357D01*
X9793857Y-7415929D01*
X9779571Y-7373071D01*
X9765286Y-7344500D01*
X9736714Y-7301643D01*
X9722428Y-7287357D01*
X3236000Y-7890500D02*
G75*
G03*
X3236000Y-7890500I-50000J0D01*
G01*
X3679571Y-8026214D02*
X3508143Y-8026214D01*
X3593857Y-8026214D02*
X3593857Y-7726214D01*
X3565286Y-7769071D01*
X3536714Y-7797643D01*
X3508143Y-7811929D01*
X3808143Y-7997643D02*
X3822428Y-8011929D01*
X3808143Y-8026214D01*
X3793857Y-8011929D01*
X3808143Y-7997643D01*
X3808143Y-8026214D01*
X4008143Y-7726214D02*
X4036714Y-7726214D01*
X4065286Y-7740500D01*
X4079571Y-7754786D01*
X4093857Y-7783357D01*
X4108143Y-7840500D01*
X4108143Y-7911929D01*
X4093857Y-7969071D01*
X4079571Y-7997643D01*
X4065286Y-8011929D01*
X4036714Y-8026214D01*
X4008143Y-8026214D01*
X3979571Y-8011929D01*
X3965286Y-7997643D01*
X3951000Y-7969071D01*
X3936714Y-7911929D01*
X3936714Y-7840500D01*
X3951000Y-7783357D01*
X3965286Y-7754786D01*
X3979571Y-7740500D01*
X4008143Y-7726214D01*
X4293857Y-7726214D02*
X4322428Y-7726214D01*
X4351000Y-7740500D01*
X4365286Y-7754786D01*
X4379571Y-7783357D01*
X4393857Y-7840500D01*
X4393857Y-7911929D01*
X4379571Y-7969071D01*
X4365286Y-7997643D01*
X4351000Y-8011929D01*
X4322428Y-8026214D01*
X4293857Y-8026214D01*
X4265286Y-8011929D01*
X4251000Y-7997643D01*
X4236714Y-7969071D01*
X4222428Y-7911929D01*
X4222428Y-7840500D01*
X4236714Y-7783357D01*
X4251000Y-7754786D01*
X4265286Y-7740500D01*
X4293857Y-7726214D01*
X4522428Y-8026214D02*
X4522428Y-7826214D01*
X4522428Y-7854786D02*
X4536714Y-7840500D01*
X4565286Y-7826214D01*
X4608143Y-7826214D01*
X4636714Y-7840500D01*
X4651000Y-7869071D01*
X4651000Y-8026214D01*
X4651000Y-7869071D02*
X4665286Y-7840500D01*
X4693857Y-7826214D01*
X4736714Y-7826214D01*
X4765286Y-7840500D01*
X4779571Y-7869071D01*
X4779571Y-8026214D01*
X4922428Y-8026214D02*
X4922428Y-7826214D01*
X4922428Y-7854786D02*
X4936714Y-7840500D01*
X4965286Y-7826214D01*
X5008143Y-7826214D01*
X5036714Y-7840500D01*
X5051000Y-7869071D01*
X5051000Y-8026214D01*
X5051000Y-7869071D02*
X5065286Y-7840500D01*
X5093857Y-7826214D01*
X5136714Y-7826214D01*
X5165286Y-7840500D01*
X5179571Y-7869071D01*
X5179571Y-8026214D01*
X5765286Y-7711929D02*
X5508143Y-8097643D01*
X6151000Y-7726214D02*
X6179571Y-7726214D01*
X6208143Y-7740500D01*
X6222428Y-7754786D01*
X6236714Y-7783357D01*
X6251000Y-7840500D01*
X6251000Y-7911929D01*
X6236714Y-7969071D01*
X6222428Y-7997643D01*
X6208143Y-8011929D01*
X6179571Y-8026214D01*
X6151000Y-8026214D01*
X6122428Y-8011929D01*
X6108143Y-7997643D01*
X6093857Y-7969071D01*
X6079571Y-7911929D01*
X6079571Y-7840500D01*
X6093857Y-7783357D01*
X6108143Y-7754786D01*
X6122428Y-7740500D01*
X6151000Y-7726214D01*
X6379571Y-7997643D02*
X6393857Y-8011929D01*
X6379571Y-8026214D01*
X6365286Y-8011929D01*
X6379571Y-7997643D01*
X6379571Y-8026214D01*
X6579571Y-7726214D02*
X6608143Y-7726214D01*
X6636714Y-7740500D01*
X6651000Y-7754786D01*
X6665286Y-7783357D01*
X6679571Y-7840500D01*
X6679571Y-7911929D01*
X6665286Y-7969071D01*
X6651000Y-7997643D01*
X6636714Y-8011929D01*
X6608143Y-8026214D01*
X6579571Y-8026214D01*
X6551000Y-8011929D01*
X6536714Y-7997643D01*
X6522428Y-7969071D01*
X6508143Y-7911929D01*
X6508143Y-7840500D01*
X6522428Y-7783357D01*
X6536714Y-7754786D01*
X6551000Y-7740500D01*
X6579571Y-7726214D01*
X6779571Y-7726214D02*
X6965286Y-7726214D01*
X6865286Y-7840500D01*
X6908143Y-7840500D01*
X6936714Y-7854786D01*
X6951000Y-7869071D01*
X6965286Y-7897643D01*
X6965286Y-7969071D01*
X6951000Y-7997643D01*
X6936714Y-8011929D01*
X6908143Y-8026214D01*
X6822428Y-8026214D01*
X6793857Y-8011929D01*
X6779571Y-7997643D01*
X7108143Y-8026214D02*
X7165286Y-8026214D01*
X7193857Y-8011929D01*
X7208143Y-7997643D01*
X7236714Y-7954786D01*
X7251000Y-7897643D01*
X7251000Y-7783357D01*
X7236714Y-7754786D01*
X7222428Y-7740500D01*
X7193857Y-7726214D01*
X7136714Y-7726214D01*
X7108143Y-7740500D01*
X7093857Y-7754786D01*
X7079571Y-7783357D01*
X7079571Y-7854786D01*
X7093857Y-7883357D01*
X7108143Y-7897643D01*
X7136714Y-7911929D01*
X7193857Y-7911929D01*
X7222428Y-7897643D01*
X7236714Y-7883357D01*
X7251000Y-7854786D01*
X7365286Y-7726214D02*
X7365286Y-7783357D01*
X7479571Y-7726214D02*
X7479571Y-7783357D01*
X7922428Y-8140500D02*
X7908143Y-8126214D01*
X7879571Y-8083357D01*
X7865286Y-8054786D01*
X7851000Y-8011929D01*
X7836714Y-7940500D01*
X7836714Y-7883357D01*
X7851000Y-7811929D01*
X7865286Y-7769071D01*
X7879571Y-7740500D01*
X7908143Y-7697643D01*
X7922428Y-7683357D01*
X8022428Y-7754786D02*
X8036714Y-7740500D01*
X8065286Y-7726214D01*
X8136714Y-7726214D01*
X8165286Y-7740500D01*
X8179571Y-7754786D01*
X8193857Y-7783357D01*
X8193857Y-7811929D01*
X8179571Y-7854786D01*
X8008143Y-8026214D01*
X8193857Y-8026214D01*
X8451000Y-7726214D02*
X8393857Y-7726214D01*
X8365286Y-7740500D01*
X8351000Y-7754786D01*
X8322428Y-7797643D01*
X8308143Y-7854786D01*
X8308143Y-7969071D01*
X8322428Y-7997643D01*
X8336714Y-8011929D01*
X8365286Y-8026214D01*
X8422428Y-8026214D01*
X8451000Y-8011929D01*
X8465286Y-7997643D01*
X8479571Y-7969071D01*
X8479571Y-7897643D01*
X8465286Y-7869071D01*
X8451000Y-7854786D01*
X8422428Y-7840500D01*
X8365286Y-7840500D01*
X8336714Y-7854786D01*
X8322428Y-7869071D01*
X8308143Y-7897643D01*
X8836714Y-8026214D02*
X8836714Y-7726214D01*
X8965286Y-8026214D02*
X8965286Y-7869071D01*
X8951000Y-7840500D01*
X8922428Y-7826214D01*
X8879571Y-7826214D01*
X8851000Y-7840500D01*
X8836714Y-7854786D01*
X9151000Y-8026214D02*
X9122428Y-8011929D01*
X9108143Y-7997643D01*
X9093857Y-7969071D01*
X9093857Y-7883357D01*
X9108143Y-7854786D01*
X9122428Y-7840500D01*
X9151000Y-7826214D01*
X9193857Y-7826214D01*
X9222428Y-7840500D01*
X9236714Y-7854786D01*
X9251000Y-7883357D01*
X9251000Y-7969071D01*
X9236714Y-7997643D01*
X9222428Y-8011929D01*
X9193857Y-8026214D01*
X9151000Y-8026214D01*
X9422428Y-8026214D02*
X9393857Y-8011929D01*
X9379571Y-7983357D01*
X9379571Y-7726214D01*
X9651000Y-8011929D02*
X9622428Y-8026214D01*
X9565286Y-8026214D01*
X9536714Y-8011929D01*
X9522428Y-7983357D01*
X9522428Y-7869071D01*
X9536714Y-7840500D01*
X9565286Y-7826214D01*
X9622428Y-7826214D01*
X9651000Y-7840500D01*
X9665286Y-7869071D01*
X9665286Y-7897643D01*
X9522428Y-7926214D01*
X9779571Y-8011929D02*
X9808143Y-8026214D01*
X9865286Y-8026214D01*
X9893857Y-8011929D01*
X9908143Y-7983357D01*
X9908143Y-7969071D01*
X9893857Y-7940500D01*
X9865286Y-7926214D01*
X9822428Y-7926214D01*
X9793857Y-7911929D01*
X9779571Y-7883357D01*
X9779571Y-7869071D01*
X9793857Y-7840500D01*
X9822428Y-7826214D01*
X9865286Y-7826214D01*
X9893857Y-7840500D01*
X10008143Y-8140500D02*
X10022428Y-8126214D01*
X10051000Y-8083357D01*
X10065286Y-8054786D01*
X10079571Y-8011929D01*
X10093857Y-7940500D01*
X10093857Y-7883357D01*
X10079571Y-7811929D01*
X10065286Y-7769071D01*
X10051000Y-7740500D01*
X10022428Y-7697643D01*
X10008143Y-7683357D01*
X3161000Y-8211500D02*
X3161000Y-8361500D01*
X3086000Y-8286500D02*
X3236000Y-8286500D01*
X3679571Y-8422214D02*
X3508143Y-8422214D01*
X3593857Y-8422214D02*
X3593857Y-8122214D01*
X3565286Y-8165071D01*
X3536714Y-8193643D01*
X3508143Y-8207929D01*
X3808143Y-8393643D02*
X3822428Y-8407929D01*
X3808143Y-8422214D01*
X3793857Y-8407929D01*
X3808143Y-8393643D01*
X3808143Y-8422214D01*
X4093857Y-8122214D02*
X3951000Y-8122214D01*
X3936714Y-8265071D01*
X3951000Y-8250786D01*
X3979571Y-8236500D01*
X4051000Y-8236500D01*
X4079571Y-8250786D01*
X4093857Y-8265071D01*
X4108143Y-8293643D01*
X4108143Y-8365071D01*
X4093857Y-8393643D01*
X4079571Y-8407929D01*
X4051000Y-8422214D01*
X3979571Y-8422214D01*
X3951000Y-8407929D01*
X3936714Y-8393643D01*
X4293857Y-8122214D02*
X4322428Y-8122214D01*
X4351000Y-8136500D01*
X4365286Y-8150786D01*
X4379571Y-8179357D01*
X4393857Y-8236500D01*
X4393857Y-8307929D01*
X4379571Y-8365071D01*
X4365286Y-8393643D01*
X4351000Y-8407929D01*
X4322428Y-8422214D01*
X4293857Y-8422214D01*
X4265286Y-8407929D01*
X4251000Y-8393643D01*
X4236714Y-8365071D01*
X4222428Y-8307929D01*
X4222428Y-8236500D01*
X4236714Y-8179357D01*
X4251000Y-8150786D01*
X4265286Y-8136500D01*
X4293857Y-8122214D01*
X4522428Y-8422214D02*
X4522428Y-8222214D01*
X4522428Y-8250786D02*
X4536714Y-8236500D01*
X4565286Y-8222214D01*
X4608143Y-8222214D01*
X4636714Y-8236500D01*
X4651000Y-8265071D01*
X4651000Y-8422214D01*
X4651000Y-8265071D02*
X4665286Y-8236500D01*
X4693857Y-8222214D01*
X4736714Y-8222214D01*
X4765286Y-8236500D01*
X4779571Y-8265071D01*
X4779571Y-8422214D01*
X4922428Y-8422214D02*
X4922428Y-8222214D01*
X4922428Y-8250786D02*
X4936714Y-8236500D01*
X4965286Y-8222214D01*
X5008143Y-8222214D01*
X5036714Y-8236500D01*
X5051000Y-8265071D01*
X5051000Y-8422214D01*
X5051000Y-8265071D02*
X5065286Y-8236500D01*
X5093857Y-8222214D01*
X5136714Y-8222214D01*
X5165286Y-8236500D01*
X5179571Y-8265071D01*
X5179571Y-8422214D01*
X5765286Y-8107929D02*
X5508143Y-8493643D01*
X6151000Y-8122214D02*
X6179571Y-8122214D01*
X6208143Y-8136500D01*
X6222428Y-8150786D01*
X6236714Y-8179357D01*
X6251000Y-8236500D01*
X6251000Y-8307929D01*
X6236714Y-8365071D01*
X6222428Y-8393643D01*
X6208143Y-8407929D01*
X6179571Y-8422214D01*
X6151000Y-8422214D01*
X6122428Y-8407929D01*
X6108143Y-8393643D01*
X6093857Y-8365071D01*
X6079571Y-8307929D01*
X6079571Y-8236500D01*
X6093857Y-8179357D01*
X6108143Y-8150786D01*
X6122428Y-8136500D01*
X6151000Y-8122214D01*
X6379571Y-8393643D02*
X6393857Y-8407929D01*
X6379571Y-8422214D01*
X6365286Y-8407929D01*
X6379571Y-8393643D01*
X6379571Y-8422214D01*
X6579571Y-8122214D02*
X6608143Y-8122214D01*
X6636714Y-8136500D01*
X6651000Y-8150786D01*
X6665286Y-8179357D01*
X6679571Y-8236500D01*
X6679571Y-8307929D01*
X6665286Y-8365071D01*
X6651000Y-8393643D01*
X6636714Y-8407929D01*
X6608143Y-8422214D01*
X6579571Y-8422214D01*
X6551000Y-8407929D01*
X6536714Y-8393643D01*
X6522428Y-8365071D01*
X6508143Y-8307929D01*
X6508143Y-8236500D01*
X6522428Y-8179357D01*
X6536714Y-8150786D01*
X6551000Y-8136500D01*
X6579571Y-8122214D01*
X6951000Y-8122214D02*
X6808143Y-8122214D01*
X6793857Y-8265071D01*
X6808143Y-8250786D01*
X6836714Y-8236500D01*
X6908143Y-8236500D01*
X6936714Y-8250786D01*
X6951000Y-8265071D01*
X6965286Y-8293643D01*
X6965286Y-8365071D01*
X6951000Y-8393643D01*
X6936714Y-8407929D01*
X6908143Y-8422214D01*
X6836714Y-8422214D01*
X6808143Y-8407929D01*
X6793857Y-8393643D01*
X7108143Y-8422214D02*
X7165286Y-8422214D01*
X7193857Y-8407929D01*
X7208143Y-8393643D01*
X7236714Y-8350786D01*
X7251000Y-8293643D01*
X7251000Y-8179357D01*
X7236714Y-8150786D01*
X7222428Y-8136500D01*
X7193857Y-8122214D01*
X7136714Y-8122214D01*
X7108143Y-8136500D01*
X7093857Y-8150786D01*
X7079571Y-8179357D01*
X7079571Y-8250786D01*
X7093857Y-8279357D01*
X7108143Y-8293643D01*
X7136714Y-8307929D01*
X7193857Y-8307929D01*
X7222428Y-8293643D01*
X7236714Y-8279357D01*
X7251000Y-8250786D01*
X7365286Y-8122214D02*
X7365286Y-8179357D01*
X7479571Y-8122214D02*
X7479571Y-8179357D01*
X7922428Y-8536500D02*
X7908143Y-8522214D01*
X7879571Y-8479357D01*
X7865286Y-8450786D01*
X7851000Y-8407929D01*
X7836714Y-8336500D01*
X7836714Y-8279357D01*
X7851000Y-8207929D01*
X7865286Y-8165071D01*
X7879571Y-8136500D01*
X7908143Y-8093643D01*
X7922428Y-8079357D01*
X8193857Y-8422214D02*
X8022428Y-8422214D01*
X8108143Y-8422214D02*
X8108143Y-8122214D01*
X8079571Y-8165071D01*
X8051000Y-8193643D01*
X8022428Y-8207929D01*
X8479571Y-8422214D02*
X8308143Y-8422214D01*
X8393857Y-8422214D02*
X8393857Y-8122214D01*
X8365286Y-8165071D01*
X8336714Y-8193643D01*
X8308143Y-8207929D01*
X8836714Y-8422214D02*
X8836714Y-8122214D01*
X8965286Y-8422214D02*
X8965286Y-8265071D01*
X8951000Y-8236500D01*
X8922428Y-8222214D01*
X8879571Y-8222214D01*
X8851000Y-8236500D01*
X8836714Y-8250786D01*
X9151000Y-8422214D02*
X9122428Y-8407929D01*
X9108143Y-8393643D01*
X9093857Y-8365071D01*
X9093857Y-8279357D01*
X9108143Y-8250786D01*
X9122428Y-8236500D01*
X9151000Y-8222214D01*
X9193857Y-8222214D01*
X9222428Y-8236500D01*
X9236714Y-8250786D01*
X9251000Y-8279357D01*
X9251000Y-8365071D01*
X9236714Y-8393643D01*
X9222428Y-8407929D01*
X9193857Y-8422214D01*
X9151000Y-8422214D01*
X9422428Y-8422214D02*
X9393857Y-8407929D01*
X9379571Y-8379357D01*
X9379571Y-8122214D01*
X9651000Y-8407929D02*
X9622428Y-8422214D01*
X9565286Y-8422214D01*
X9536714Y-8407929D01*
X9522428Y-8379357D01*
X9522428Y-8265071D01*
X9536714Y-8236500D01*
X9565286Y-8222214D01*
X9622428Y-8222214D01*
X9651000Y-8236500D01*
X9665286Y-8265071D01*
X9665286Y-8293643D01*
X9522428Y-8322214D01*
X9779571Y-8407929D02*
X9808143Y-8422214D01*
X9865286Y-8422214D01*
X9893857Y-8407929D01*
X9908143Y-8379357D01*
X9908143Y-8365071D01*
X9893857Y-8336500D01*
X9865286Y-8322214D01*
X9822428Y-8322214D01*
X9793857Y-8307929D01*
X9779571Y-8279357D01*
X9779571Y-8265071D01*
X9793857Y-8236500D01*
X9822428Y-8222214D01*
X9865286Y-8222214D01*
X9893857Y-8236500D01*
X10008143Y-8536500D02*
X10022428Y-8522214D01*
X10051000Y-8479357D01*
X10065286Y-8450786D01*
X10079571Y-8407929D01*
X10093857Y-8336500D01*
X10093857Y-8279357D01*
X10079571Y-8207929D01*
X10065286Y-8165071D01*
X10051000Y-8136500D01*
X10022428Y-8093643D01*
X10008143Y-8079357D01*
M02*
