G04 #@! TF.GenerationSoftware,KiCad,Pcbnew,(5.1.9)-1*
G04 #@! TF.CreationDate,2021-02-23T11:14:44+09:00*
G04 #@! TF.ProjectId,powertrain,706f7765-7274-4726-9169-6e2e6b696361,rev?*
G04 #@! TF.SameCoordinates,Original*
G04 #@! TF.FileFunction,Copper,L2,Bot*
G04 #@! TF.FilePolarity,Positive*
%FSLAX46Y46*%
G04 Gerber Fmt 4.6, Leading zero omitted, Abs format (unit mm)*
G04 Created by KiCad (PCBNEW (5.1.9)-1) date 2021-02-23 11:14:44*
%MOMM*%
%LPD*%
G01*
G04 APERTURE LIST*
G04 #@! TA.AperFunction,NonConductor*
%ADD10C,0.300000*%
G04 #@! TD*
G04 #@! TA.AperFunction,ComponentPad*
%ADD11C,2.700000*%
G04 #@! TD*
G04 #@! TA.AperFunction,ComponentPad*
%ADD12O,1.700000X1.700000*%
G04 #@! TD*
G04 #@! TA.AperFunction,ComponentPad*
%ADD13R,1.700000X1.700000*%
G04 #@! TD*
G04 #@! TA.AperFunction,ComponentPad*
%ADD14C,3.000000*%
G04 #@! TD*
G04 #@! TA.AperFunction,ViaPad*
%ADD15C,0.800000*%
G04 #@! TD*
G04 #@! TA.AperFunction,Conductor*
%ADD16C,0.400000*%
G04 #@! TD*
G04 #@! TA.AperFunction,Conductor*
%ADD17C,0.254000*%
G04 #@! TD*
G04 #@! TA.AperFunction,Conductor*
%ADD18C,0.100000*%
G04 #@! TD*
G04 APERTURE END LIST*
D10*
X53129428Y-25824571D02*
X53629428Y-25110285D01*
X53986571Y-25824571D02*
X53986571Y-24324571D01*
X53415142Y-24324571D01*
X53272285Y-24396000D01*
X53200857Y-24467428D01*
X53129428Y-24610285D01*
X53129428Y-24824571D01*
X53200857Y-24967428D01*
X53272285Y-25038857D01*
X53415142Y-25110285D01*
X53986571Y-25110285D01*
X52558000Y-25396000D02*
X51843714Y-25396000D01*
X52700857Y-25824571D02*
X52200857Y-24324571D01*
X51700857Y-25824571D01*
X51200857Y-25824571D02*
X51200857Y-24324571D01*
X50700857Y-25396000D01*
X50200857Y-24324571D01*
X50200857Y-25824571D01*
X49486571Y-25824571D02*
X49486571Y-24324571D01*
X48629428Y-25824571D01*
X48629428Y-24324571D01*
D11*
X67818000Y-53498000D03*
X64068000Y-53498000D03*
X67818000Y-33498000D03*
X56896000Y-33498000D03*
X53146000Y-53498000D03*
X56896000Y-53498000D03*
D12*
X38735000Y-60960000D03*
X38735000Y-63500000D03*
X41275000Y-60960000D03*
X41275000Y-63500000D03*
X43815000Y-60960000D03*
X43815000Y-63500000D03*
X46355000Y-60960000D03*
X46355000Y-63500000D03*
X48895000Y-60960000D03*
X48895000Y-63500000D03*
X51435000Y-60960000D03*
X51435000Y-63500000D03*
X53975000Y-60960000D03*
X53975000Y-63500000D03*
X56515000Y-60960000D03*
X56515000Y-63500000D03*
X59055000Y-60960000D03*
X59055000Y-63500000D03*
X61595000Y-60960000D03*
X61595000Y-63500000D03*
X64135000Y-60960000D03*
X64135000Y-63500000D03*
X66675000Y-60960000D03*
X66675000Y-63500000D03*
X69215000Y-60960000D03*
D13*
X69215000Y-63500000D03*
D14*
X36830000Y-46355000D03*
X36830000Y-56515000D03*
X36830000Y-51435000D03*
X43180000Y-51435000D03*
X43180000Y-56515000D03*
D15*
X40640000Y-22860000D03*
X63500000Y-22860000D03*
X34798000Y-60960000D03*
X50292000Y-45466000D03*
X50038000Y-52578000D03*
X35306000Y-43434000D03*
X60452000Y-53340000D03*
X50292000Y-33274000D03*
D16*
X50755001Y-48939999D02*
X43180000Y-56515000D01*
X55693001Y-48939999D02*
X50755001Y-48939999D01*
X56896000Y-50142998D02*
X55693001Y-48939999D01*
X56896000Y-53340000D02*
X56896000Y-50142998D01*
X67945000Y-53975000D02*
X67310000Y-53340000D01*
X67945000Y-61540002D02*
X67945000Y-53975000D01*
X69215000Y-62810002D02*
X67945000Y-61540002D01*
X69215000Y-63500000D02*
X69215000Y-62810002D01*
X53285002Y-53340000D02*
X53146000Y-53340000D01*
X60325000Y-60379998D02*
X53285002Y-53340000D01*
X60325000Y-62230000D02*
X60325000Y-60379998D01*
X61595000Y-63500000D02*
X60325000Y-62230000D01*
D17*
X64742227Y-22661874D02*
X64599000Y-23381923D01*
X64599000Y-24116077D01*
X64742227Y-24836126D01*
X65023176Y-25514396D01*
X65431050Y-26124824D01*
X65950176Y-26643950D01*
X66560604Y-27051824D01*
X67238874Y-27332773D01*
X67958923Y-27476000D01*
X68693077Y-27476000D01*
X69413126Y-27332773D01*
X69815000Y-27166311D01*
X69815001Y-59601176D01*
X69648158Y-59532068D01*
X69361260Y-59475000D01*
X69068740Y-59475000D01*
X68781842Y-59532068D01*
X68780000Y-59532831D01*
X68780000Y-55242552D01*
X69083364Y-55039851D01*
X69359851Y-54763364D01*
X69577085Y-54438250D01*
X69726718Y-54077003D01*
X69803000Y-53693505D01*
X69803000Y-53302495D01*
X69726718Y-52918997D01*
X69577085Y-52557750D01*
X69359851Y-52232636D01*
X69083364Y-51956149D01*
X68758250Y-51738915D01*
X68397003Y-51589282D01*
X68013505Y-51513000D01*
X67622495Y-51513000D01*
X67238997Y-51589282D01*
X67110896Y-51642343D01*
X67212987Y-51540252D01*
X67391918Y-51272463D01*
X67515168Y-50974912D01*
X67578000Y-50659033D01*
X67578000Y-50336967D01*
X67515168Y-50021088D01*
X67391918Y-49723537D01*
X67212987Y-49455748D01*
X66985252Y-49228013D01*
X66717463Y-49049082D01*
X66419912Y-48925832D01*
X66104033Y-48863000D01*
X65781967Y-48863000D01*
X65466088Y-48925832D01*
X65168537Y-49049082D01*
X64900748Y-49228013D01*
X64673013Y-49455748D01*
X64494082Y-49723537D01*
X64370832Y-50021088D01*
X64308000Y-50336967D01*
X64308000Y-50659033D01*
X64370832Y-50974912D01*
X64494082Y-51272463D01*
X64673013Y-51540252D01*
X64775104Y-51642343D01*
X64647003Y-51589282D01*
X64263505Y-51513000D01*
X63872495Y-51513000D01*
X63488997Y-51589282D01*
X63127750Y-51738915D01*
X62802636Y-51956149D01*
X62526149Y-52232636D01*
X62308915Y-52557750D01*
X62159282Y-52918997D01*
X62083000Y-53302495D01*
X62083000Y-53693505D01*
X62159282Y-54077003D01*
X62308915Y-54438250D01*
X62526149Y-54763364D01*
X62802636Y-55039851D01*
X63127750Y-55257085D01*
X63488997Y-55406718D01*
X63872495Y-55483000D01*
X64263505Y-55483000D01*
X64647003Y-55406718D01*
X65008250Y-55257085D01*
X65333364Y-55039851D01*
X65609851Y-54763364D01*
X65827085Y-54438250D01*
X65943000Y-54158406D01*
X66058915Y-54438250D01*
X66276149Y-54763364D01*
X66552636Y-55039851D01*
X66877750Y-55257085D01*
X67110001Y-55353286D01*
X67110000Y-59542216D01*
X67031890Y-59518524D01*
X66802000Y-59639845D01*
X66802000Y-60833000D01*
X66822000Y-60833000D01*
X66822000Y-61087000D01*
X66802000Y-61087000D01*
X66802000Y-61107000D01*
X66548000Y-61107000D01*
X66548000Y-61087000D01*
X66528000Y-61087000D01*
X66528000Y-60833000D01*
X66548000Y-60833000D01*
X66548000Y-59639845D01*
X66318110Y-59518524D01*
X66170901Y-59563175D01*
X65908080Y-59688359D01*
X65674731Y-59862412D01*
X65479822Y-60078645D01*
X65410195Y-60195534D01*
X65288475Y-60013368D01*
X65081632Y-59806525D01*
X64838411Y-59644010D01*
X64568158Y-59532068D01*
X64281260Y-59475000D01*
X63988740Y-59475000D01*
X63701842Y-59532068D01*
X63431589Y-59644010D01*
X63188368Y-59806525D01*
X62981525Y-60013368D01*
X62865000Y-60187760D01*
X62748475Y-60013368D01*
X62541632Y-59806525D01*
X62298411Y-59644010D01*
X62028158Y-59532068D01*
X61741260Y-59475000D01*
X61448740Y-59475000D01*
X61161842Y-59532068D01*
X60891589Y-59644010D01*
X60818630Y-59692759D01*
X56586119Y-55460249D01*
X56700495Y-55483000D01*
X57091505Y-55483000D01*
X57475003Y-55406718D01*
X57836250Y-55257085D01*
X58161364Y-55039851D01*
X58437851Y-54763364D01*
X58655085Y-54438250D01*
X58804718Y-54077003D01*
X58881000Y-53693505D01*
X58881000Y-53302495D01*
X58804718Y-52918997D01*
X58655085Y-52557750D01*
X58437851Y-52232636D01*
X58161364Y-51956149D01*
X57836250Y-51738915D01*
X57731000Y-51695319D01*
X57731000Y-50184016D01*
X57735040Y-50142998D01*
X57718918Y-49979310D01*
X57671172Y-49821911D01*
X57639639Y-49762917D01*
X57593636Y-49676852D01*
X57489291Y-49549707D01*
X57457426Y-49523556D01*
X56312447Y-48378578D01*
X56286292Y-48346708D01*
X56159147Y-48242363D01*
X56014088Y-48164827D01*
X55856690Y-48117081D01*
X55734020Y-48104999D01*
X55734019Y-48104999D01*
X55693001Y-48100959D01*
X55651983Y-48104999D01*
X50796019Y-48104999D01*
X50755000Y-48100959D01*
X50713982Y-48104999D01*
X50591312Y-48117081D01*
X50433914Y-48164827D01*
X50288855Y-48242363D01*
X50161710Y-48346708D01*
X50135560Y-48378572D01*
X43979059Y-54535074D01*
X43802756Y-54462047D01*
X43390279Y-54380000D01*
X42969721Y-54380000D01*
X42557244Y-54462047D01*
X42168698Y-54622988D01*
X41819017Y-54856637D01*
X41521637Y-55154017D01*
X41287988Y-55503698D01*
X41127047Y-55892244D01*
X41045000Y-56304721D01*
X41045000Y-56725279D01*
X41127047Y-57137756D01*
X41287988Y-57526302D01*
X41521637Y-57875983D01*
X41819017Y-58173363D01*
X42168698Y-58407012D01*
X42557244Y-58567953D01*
X42969721Y-58650000D01*
X43390279Y-58650000D01*
X43802756Y-58567953D01*
X44191302Y-58407012D01*
X44540983Y-58173363D01*
X44838363Y-57875983D01*
X45072012Y-57526302D01*
X45232953Y-57137756D01*
X45315000Y-56725279D01*
X45315000Y-56304721D01*
X45232953Y-55892244D01*
X45159926Y-55715941D01*
X51100869Y-49774999D01*
X53550766Y-49774999D01*
X53448832Y-50021088D01*
X53386000Y-50336967D01*
X53386000Y-50659033D01*
X53448832Y-50974912D01*
X53572082Y-51272463D01*
X53751013Y-51540252D01*
X53853104Y-51642343D01*
X53725003Y-51589282D01*
X53341505Y-51513000D01*
X52950495Y-51513000D01*
X52566997Y-51589282D01*
X52205750Y-51738915D01*
X51880636Y-51956149D01*
X51604149Y-52232636D01*
X51386915Y-52557750D01*
X51237282Y-52918997D01*
X51161000Y-53302495D01*
X51161000Y-53693505D01*
X51237282Y-54077003D01*
X51386915Y-54438250D01*
X51604149Y-54763364D01*
X51880636Y-55039851D01*
X52205750Y-55257085D01*
X52566997Y-55406718D01*
X52950495Y-55483000D01*
X53341505Y-55483000D01*
X53725003Y-55406718D01*
X54040267Y-55276132D01*
X58391579Y-59627446D01*
X58351589Y-59644010D01*
X58108368Y-59806525D01*
X57901525Y-60013368D01*
X57785000Y-60187760D01*
X57668475Y-60013368D01*
X57461632Y-59806525D01*
X57218411Y-59644010D01*
X56948158Y-59532068D01*
X56661260Y-59475000D01*
X56368740Y-59475000D01*
X56081842Y-59532068D01*
X55811589Y-59644010D01*
X55568368Y-59806525D01*
X55361525Y-60013368D01*
X55245000Y-60187760D01*
X55128475Y-60013368D01*
X54921632Y-59806525D01*
X54678411Y-59644010D01*
X54408158Y-59532068D01*
X54121260Y-59475000D01*
X53828740Y-59475000D01*
X53541842Y-59532068D01*
X53271589Y-59644010D01*
X53028368Y-59806525D01*
X52821525Y-60013368D01*
X52705000Y-60187760D01*
X52588475Y-60013368D01*
X52381632Y-59806525D01*
X52138411Y-59644010D01*
X51868158Y-59532068D01*
X51581260Y-59475000D01*
X51288740Y-59475000D01*
X51001842Y-59532068D01*
X50731589Y-59644010D01*
X50488368Y-59806525D01*
X50281525Y-60013368D01*
X50165000Y-60187760D01*
X50048475Y-60013368D01*
X49841632Y-59806525D01*
X49598411Y-59644010D01*
X49328158Y-59532068D01*
X49041260Y-59475000D01*
X48748740Y-59475000D01*
X48461842Y-59532068D01*
X48191589Y-59644010D01*
X47948368Y-59806525D01*
X47741525Y-60013368D01*
X47625000Y-60187760D01*
X47508475Y-60013368D01*
X47301632Y-59806525D01*
X47058411Y-59644010D01*
X46788158Y-59532068D01*
X46501260Y-59475000D01*
X46208740Y-59475000D01*
X45921842Y-59532068D01*
X45651589Y-59644010D01*
X45408368Y-59806525D01*
X45201525Y-60013368D01*
X45085000Y-60187760D01*
X44968475Y-60013368D01*
X44761632Y-59806525D01*
X44518411Y-59644010D01*
X44248158Y-59532068D01*
X43961260Y-59475000D01*
X43668740Y-59475000D01*
X43381842Y-59532068D01*
X43111589Y-59644010D01*
X42868368Y-59806525D01*
X42661525Y-60013368D01*
X42545000Y-60187760D01*
X42428475Y-60013368D01*
X42221632Y-59806525D01*
X41978411Y-59644010D01*
X41708158Y-59532068D01*
X41421260Y-59475000D01*
X41128740Y-59475000D01*
X40841842Y-59532068D01*
X40571589Y-59644010D01*
X40328368Y-59806525D01*
X40121525Y-60013368D01*
X40005000Y-60187760D01*
X39888475Y-60013368D01*
X39681632Y-59806525D01*
X39438411Y-59644010D01*
X39168158Y-59532068D01*
X38881260Y-59475000D01*
X38588740Y-59475000D01*
X38301842Y-59532068D01*
X38031589Y-59644010D01*
X37788368Y-59806525D01*
X37581525Y-60013368D01*
X37419010Y-60256589D01*
X37307068Y-60526842D01*
X37250000Y-60813740D01*
X37250000Y-61106260D01*
X37307068Y-61393158D01*
X37419010Y-61663411D01*
X37581525Y-61906632D01*
X37788368Y-62113475D01*
X37962760Y-62230000D01*
X37788368Y-62346525D01*
X37581525Y-62553368D01*
X37419010Y-62796589D01*
X37307068Y-63066842D01*
X37250000Y-63353740D01*
X37250000Y-63646260D01*
X37257706Y-63685000D01*
X35004968Y-63685000D01*
X34750741Y-63660073D01*
X34583117Y-63609464D01*
X34428519Y-63527263D01*
X34292831Y-63416599D01*
X34181222Y-63281686D01*
X34097942Y-63127664D01*
X34046165Y-62960397D01*
X34011105Y-62626828D01*
X33999042Y-62568061D01*
X33996794Y-62545935D01*
X34020000Y-62310322D01*
X34020000Y-56304721D01*
X34695000Y-56304721D01*
X34695000Y-56725279D01*
X34777047Y-57137756D01*
X34937988Y-57526302D01*
X35171637Y-57875983D01*
X35469017Y-58173363D01*
X35818698Y-58407012D01*
X36207244Y-58567953D01*
X36619721Y-58650000D01*
X37040279Y-58650000D01*
X37452756Y-58567953D01*
X37841302Y-58407012D01*
X38190983Y-58173363D01*
X38488363Y-57875983D01*
X38722012Y-57526302D01*
X38882953Y-57137756D01*
X38965000Y-56725279D01*
X38965000Y-56304721D01*
X38882953Y-55892244D01*
X38722012Y-55503698D01*
X38488363Y-55154017D01*
X38190983Y-54856637D01*
X37841302Y-54622988D01*
X37452756Y-54462047D01*
X37040279Y-54380000D01*
X36619721Y-54380000D01*
X36207244Y-54462047D01*
X35818698Y-54622988D01*
X35469017Y-54856637D01*
X35171637Y-55154017D01*
X34937988Y-55503698D01*
X34777047Y-55892244D01*
X34695000Y-56304721D01*
X34020000Y-56304721D01*
X34020000Y-51224721D01*
X34695000Y-51224721D01*
X34695000Y-51645279D01*
X34777047Y-52057756D01*
X34937988Y-52446302D01*
X35171637Y-52795983D01*
X35469017Y-53093363D01*
X35818698Y-53327012D01*
X36207244Y-53487953D01*
X36619721Y-53570000D01*
X37040279Y-53570000D01*
X37452756Y-53487953D01*
X37841302Y-53327012D01*
X38190983Y-53093363D01*
X38357693Y-52926653D01*
X41867952Y-52926653D01*
X42023962Y-53242214D01*
X42398745Y-53433020D01*
X42803551Y-53547044D01*
X43222824Y-53579902D01*
X43640451Y-53530334D01*
X44040383Y-53400243D01*
X44336038Y-53242214D01*
X44492048Y-52926653D01*
X43180000Y-51614605D01*
X41867952Y-52926653D01*
X38357693Y-52926653D01*
X38488363Y-52795983D01*
X38722012Y-52446302D01*
X38882953Y-52057756D01*
X38965000Y-51645279D01*
X38965000Y-51477824D01*
X41035098Y-51477824D01*
X41084666Y-51895451D01*
X41214757Y-52295383D01*
X41372786Y-52591038D01*
X41688347Y-52747048D01*
X43000395Y-51435000D01*
X43359605Y-51435000D01*
X44671653Y-52747048D01*
X44987214Y-52591038D01*
X45178020Y-52216255D01*
X45292044Y-51811449D01*
X45324902Y-51392176D01*
X45275334Y-50974549D01*
X45145243Y-50574617D01*
X44987214Y-50278962D01*
X44671653Y-50122952D01*
X43359605Y-51435000D01*
X43000395Y-51435000D01*
X41688347Y-50122952D01*
X41372786Y-50278962D01*
X41181980Y-50653745D01*
X41067956Y-51058551D01*
X41035098Y-51477824D01*
X38965000Y-51477824D01*
X38965000Y-51224721D01*
X38882953Y-50812244D01*
X38722012Y-50423698D01*
X38488363Y-50074017D01*
X38357693Y-49943347D01*
X41867952Y-49943347D01*
X43180000Y-51255395D01*
X44492048Y-49943347D01*
X44336038Y-49627786D01*
X43961255Y-49436980D01*
X43556449Y-49322956D01*
X43137176Y-49290098D01*
X42719549Y-49339666D01*
X42319617Y-49469757D01*
X42023962Y-49627786D01*
X41867952Y-49943347D01*
X38357693Y-49943347D01*
X38190983Y-49776637D01*
X37841302Y-49542988D01*
X37452756Y-49382047D01*
X37040279Y-49300000D01*
X36619721Y-49300000D01*
X36207244Y-49382047D01*
X35818698Y-49542988D01*
X35469017Y-49776637D01*
X35171637Y-50074017D01*
X34937988Y-50423698D01*
X34777047Y-50812244D01*
X34695000Y-51224721D01*
X34020000Y-51224721D01*
X34020000Y-46144721D01*
X34695000Y-46144721D01*
X34695000Y-46565279D01*
X34777047Y-46977756D01*
X34937988Y-47366302D01*
X35171637Y-47715983D01*
X35469017Y-48013363D01*
X35818698Y-48247012D01*
X36207244Y-48407953D01*
X36619721Y-48490000D01*
X37040279Y-48490000D01*
X37452756Y-48407953D01*
X37841302Y-48247012D01*
X38190983Y-48013363D01*
X38488363Y-47715983D01*
X38722012Y-47366302D01*
X38882953Y-46977756D01*
X38965000Y-46565279D01*
X38965000Y-46144721D01*
X38882953Y-45732244D01*
X38722012Y-45343698D01*
X38488363Y-44994017D01*
X38190983Y-44696637D01*
X37841302Y-44462988D01*
X37452756Y-44302047D01*
X37040279Y-44220000D01*
X36619721Y-44220000D01*
X36207244Y-44302047D01*
X35818698Y-44462988D01*
X35469017Y-44696637D01*
X35171637Y-44994017D01*
X34937988Y-45343698D01*
X34777047Y-45732244D01*
X34695000Y-46144721D01*
X34020000Y-46144721D01*
X34020000Y-37836967D01*
X53386000Y-37836967D01*
X53386000Y-38159033D01*
X53448832Y-38474912D01*
X53572082Y-38772463D01*
X53751013Y-39040252D01*
X53978748Y-39267987D01*
X54246537Y-39446918D01*
X54544088Y-39570168D01*
X54859967Y-39633000D01*
X55182033Y-39633000D01*
X55497912Y-39570168D01*
X55795463Y-39446918D01*
X56063252Y-39267987D01*
X56290987Y-39040252D01*
X56469918Y-38772463D01*
X56593168Y-38474912D01*
X56656000Y-38159033D01*
X56656000Y-37836967D01*
X64308000Y-37836967D01*
X64308000Y-38159033D01*
X64370832Y-38474912D01*
X64494082Y-38772463D01*
X64673013Y-39040252D01*
X64900748Y-39267987D01*
X65168537Y-39446918D01*
X65466088Y-39570168D01*
X65781967Y-39633000D01*
X66104033Y-39633000D01*
X66419912Y-39570168D01*
X66717463Y-39446918D01*
X66985252Y-39267987D01*
X67212987Y-39040252D01*
X67391918Y-38772463D01*
X67515168Y-38474912D01*
X67578000Y-38159033D01*
X67578000Y-37836967D01*
X67515168Y-37521088D01*
X67391918Y-37223537D01*
X67212987Y-36955748D01*
X66985252Y-36728013D01*
X66717463Y-36549082D01*
X66419912Y-36425832D01*
X66104033Y-36363000D01*
X65781967Y-36363000D01*
X65466088Y-36425832D01*
X65168537Y-36549082D01*
X64900748Y-36728013D01*
X64673013Y-36955748D01*
X64494082Y-37223537D01*
X64370832Y-37521088D01*
X64308000Y-37836967D01*
X56656000Y-37836967D01*
X56593168Y-37521088D01*
X56469918Y-37223537D01*
X56290987Y-36955748D01*
X56063252Y-36728013D01*
X55795463Y-36549082D01*
X55497912Y-36425832D01*
X55182033Y-36363000D01*
X54859967Y-36363000D01*
X54544088Y-36425832D01*
X54246537Y-36549082D01*
X53978748Y-36728013D01*
X53751013Y-36955748D01*
X53572082Y-37223537D01*
X53448832Y-37521088D01*
X53386000Y-37836967D01*
X34020000Y-37836967D01*
X34020000Y-34882838D01*
X55690767Y-34882838D01*
X55828724Y-35183044D01*
X56177967Y-35358882D01*
X56554804Y-35463207D01*
X56944753Y-35492009D01*
X57332828Y-35444184D01*
X57704116Y-35321568D01*
X57963276Y-35183044D01*
X58101233Y-34882838D01*
X66612767Y-34882838D01*
X66750724Y-35183044D01*
X67099967Y-35358882D01*
X67476804Y-35463207D01*
X67866753Y-35492009D01*
X68254828Y-35444184D01*
X68626116Y-35321568D01*
X68885276Y-35183044D01*
X69023233Y-34882838D01*
X67818000Y-33677605D01*
X66612767Y-34882838D01*
X58101233Y-34882838D01*
X56896000Y-33677605D01*
X55690767Y-34882838D01*
X34020000Y-34882838D01*
X34020000Y-33283382D01*
X39013142Y-33283382D01*
X39013142Y-33482334D01*
X39051956Y-33677464D01*
X39128092Y-33861272D01*
X39238624Y-34026695D01*
X39379305Y-34167376D01*
X39544728Y-34277908D01*
X39728536Y-34354044D01*
X39923666Y-34392858D01*
X40122618Y-34392858D01*
X40317748Y-34354044D01*
X40501556Y-34277908D01*
X40666979Y-34167376D01*
X40807660Y-34026695D01*
X40918192Y-33861272D01*
X40994328Y-33677464D01*
X41020328Y-33546753D01*
X54901991Y-33546753D01*
X54949816Y-33934828D01*
X55072432Y-34306116D01*
X55210956Y-34565276D01*
X55511162Y-34703233D01*
X56716395Y-33498000D01*
X57075605Y-33498000D01*
X58280838Y-34703233D01*
X58581044Y-34565276D01*
X58756882Y-34216033D01*
X58861207Y-33839196D01*
X58882807Y-33546753D01*
X65823991Y-33546753D01*
X65871816Y-33934828D01*
X65994432Y-34306116D01*
X66132956Y-34565276D01*
X66433162Y-34703233D01*
X67638395Y-33498000D01*
X67997605Y-33498000D01*
X69202838Y-34703233D01*
X69503044Y-34565276D01*
X69678882Y-34216033D01*
X69783207Y-33839196D01*
X69812009Y-33449247D01*
X69764184Y-33061172D01*
X69641568Y-32689884D01*
X69503044Y-32430724D01*
X69202838Y-32292767D01*
X67997605Y-33498000D01*
X67638395Y-33498000D01*
X66433162Y-32292767D01*
X66132956Y-32430724D01*
X65957118Y-32779967D01*
X65852793Y-33156804D01*
X65823991Y-33546753D01*
X58882807Y-33546753D01*
X58890009Y-33449247D01*
X58842184Y-33061172D01*
X58719568Y-32689884D01*
X58581044Y-32430724D01*
X58280838Y-32292767D01*
X57075605Y-33498000D01*
X56716395Y-33498000D01*
X55511162Y-32292767D01*
X55210956Y-32430724D01*
X55035118Y-32779967D01*
X54930793Y-33156804D01*
X54901991Y-33546753D01*
X41020328Y-33546753D01*
X41033142Y-33482334D01*
X41033142Y-33283382D01*
X40994328Y-33088252D01*
X40918192Y-32904444D01*
X40807660Y-32739021D01*
X40666979Y-32598340D01*
X40501556Y-32487808D01*
X40317748Y-32411672D01*
X40122618Y-32372858D01*
X39923666Y-32372858D01*
X39728536Y-32411672D01*
X39544728Y-32487808D01*
X39379305Y-32598340D01*
X39238624Y-32739021D01*
X39128092Y-32904444D01*
X39051956Y-33088252D01*
X39013142Y-33283382D01*
X34020000Y-33283382D01*
X34020000Y-32113162D01*
X55690767Y-32113162D01*
X56896000Y-33318395D01*
X58101233Y-32113162D01*
X66612767Y-32113162D01*
X67818000Y-33318395D01*
X69023233Y-32113162D01*
X68885276Y-31812956D01*
X68536033Y-31637118D01*
X68159196Y-31532793D01*
X67769247Y-31503991D01*
X67381172Y-31551816D01*
X67009884Y-31674432D01*
X66750724Y-31812956D01*
X66612767Y-32113162D01*
X58101233Y-32113162D01*
X57963276Y-31812956D01*
X57614033Y-31637118D01*
X57237196Y-31532793D01*
X56847247Y-31503991D01*
X56459172Y-31551816D01*
X56087884Y-31674432D01*
X55828724Y-31812956D01*
X55690767Y-32113162D01*
X34020000Y-32113162D01*
X34020000Y-30581602D01*
X41550148Y-30581602D01*
X41550148Y-30810102D01*
X41594726Y-31034212D01*
X41682169Y-31245318D01*
X41809117Y-31435309D01*
X41970691Y-31596883D01*
X42160682Y-31723831D01*
X42371788Y-31811274D01*
X42595898Y-31855852D01*
X42824398Y-31855852D01*
X43048508Y-31811274D01*
X43259614Y-31723831D01*
X43449605Y-31596883D01*
X43611179Y-31435309D01*
X43738127Y-31245318D01*
X43825570Y-31034212D01*
X43870148Y-30810102D01*
X43870148Y-30581602D01*
X43825570Y-30357492D01*
X43738127Y-30146386D01*
X43611179Y-29956395D01*
X43449605Y-29794821D01*
X43259614Y-29667873D01*
X43048508Y-29580430D01*
X42824398Y-29535852D01*
X42595898Y-29535852D01*
X42371788Y-29580430D01*
X42160682Y-29667873D01*
X41970691Y-29794821D01*
X41809117Y-29956395D01*
X41682169Y-30146386D01*
X41594726Y-30357492D01*
X41550148Y-30581602D01*
X34020000Y-30581602D01*
X34020000Y-27145186D01*
X34472874Y-27332773D01*
X35192923Y-27476000D01*
X35927077Y-27476000D01*
X36647126Y-27332773D01*
X37325396Y-27051824D01*
X37935824Y-26643950D01*
X38454950Y-26124824D01*
X38862824Y-25514396D01*
X39143773Y-24836126D01*
X39287000Y-24116077D01*
X39287000Y-23381923D01*
X39281844Y-23356000D01*
X47487286Y-23356000D01*
X47487286Y-27176000D01*
X55128715Y-27176000D01*
X55128715Y-23356000D01*
X47487286Y-23356000D01*
X39281844Y-23356000D01*
X39143773Y-22661874D01*
X38977311Y-22260000D01*
X64908689Y-22260000D01*
X64742227Y-22661874D01*
G04 #@! TA.AperFunction,Conductor*
D18*
G36*
X64742227Y-22661874D02*
G01*
X64599000Y-23381923D01*
X64599000Y-24116077D01*
X64742227Y-24836126D01*
X65023176Y-25514396D01*
X65431050Y-26124824D01*
X65950176Y-26643950D01*
X66560604Y-27051824D01*
X67238874Y-27332773D01*
X67958923Y-27476000D01*
X68693077Y-27476000D01*
X69413126Y-27332773D01*
X69815000Y-27166311D01*
X69815001Y-59601176D01*
X69648158Y-59532068D01*
X69361260Y-59475000D01*
X69068740Y-59475000D01*
X68781842Y-59532068D01*
X68780000Y-59532831D01*
X68780000Y-55242552D01*
X69083364Y-55039851D01*
X69359851Y-54763364D01*
X69577085Y-54438250D01*
X69726718Y-54077003D01*
X69803000Y-53693505D01*
X69803000Y-53302495D01*
X69726718Y-52918997D01*
X69577085Y-52557750D01*
X69359851Y-52232636D01*
X69083364Y-51956149D01*
X68758250Y-51738915D01*
X68397003Y-51589282D01*
X68013505Y-51513000D01*
X67622495Y-51513000D01*
X67238997Y-51589282D01*
X67110896Y-51642343D01*
X67212987Y-51540252D01*
X67391918Y-51272463D01*
X67515168Y-50974912D01*
X67578000Y-50659033D01*
X67578000Y-50336967D01*
X67515168Y-50021088D01*
X67391918Y-49723537D01*
X67212987Y-49455748D01*
X66985252Y-49228013D01*
X66717463Y-49049082D01*
X66419912Y-48925832D01*
X66104033Y-48863000D01*
X65781967Y-48863000D01*
X65466088Y-48925832D01*
X65168537Y-49049082D01*
X64900748Y-49228013D01*
X64673013Y-49455748D01*
X64494082Y-49723537D01*
X64370832Y-50021088D01*
X64308000Y-50336967D01*
X64308000Y-50659033D01*
X64370832Y-50974912D01*
X64494082Y-51272463D01*
X64673013Y-51540252D01*
X64775104Y-51642343D01*
X64647003Y-51589282D01*
X64263505Y-51513000D01*
X63872495Y-51513000D01*
X63488997Y-51589282D01*
X63127750Y-51738915D01*
X62802636Y-51956149D01*
X62526149Y-52232636D01*
X62308915Y-52557750D01*
X62159282Y-52918997D01*
X62083000Y-53302495D01*
X62083000Y-53693505D01*
X62159282Y-54077003D01*
X62308915Y-54438250D01*
X62526149Y-54763364D01*
X62802636Y-55039851D01*
X63127750Y-55257085D01*
X63488997Y-55406718D01*
X63872495Y-55483000D01*
X64263505Y-55483000D01*
X64647003Y-55406718D01*
X65008250Y-55257085D01*
X65333364Y-55039851D01*
X65609851Y-54763364D01*
X65827085Y-54438250D01*
X65943000Y-54158406D01*
X66058915Y-54438250D01*
X66276149Y-54763364D01*
X66552636Y-55039851D01*
X66877750Y-55257085D01*
X67110001Y-55353286D01*
X67110000Y-59542216D01*
X67031890Y-59518524D01*
X66802000Y-59639845D01*
X66802000Y-60833000D01*
X66822000Y-60833000D01*
X66822000Y-61087000D01*
X66802000Y-61087000D01*
X66802000Y-61107000D01*
X66548000Y-61107000D01*
X66548000Y-61087000D01*
X66528000Y-61087000D01*
X66528000Y-60833000D01*
X66548000Y-60833000D01*
X66548000Y-59639845D01*
X66318110Y-59518524D01*
X66170901Y-59563175D01*
X65908080Y-59688359D01*
X65674731Y-59862412D01*
X65479822Y-60078645D01*
X65410195Y-60195534D01*
X65288475Y-60013368D01*
X65081632Y-59806525D01*
X64838411Y-59644010D01*
X64568158Y-59532068D01*
X64281260Y-59475000D01*
X63988740Y-59475000D01*
X63701842Y-59532068D01*
X63431589Y-59644010D01*
X63188368Y-59806525D01*
X62981525Y-60013368D01*
X62865000Y-60187760D01*
X62748475Y-60013368D01*
X62541632Y-59806525D01*
X62298411Y-59644010D01*
X62028158Y-59532068D01*
X61741260Y-59475000D01*
X61448740Y-59475000D01*
X61161842Y-59532068D01*
X60891589Y-59644010D01*
X60818630Y-59692759D01*
X56586119Y-55460249D01*
X56700495Y-55483000D01*
X57091505Y-55483000D01*
X57475003Y-55406718D01*
X57836250Y-55257085D01*
X58161364Y-55039851D01*
X58437851Y-54763364D01*
X58655085Y-54438250D01*
X58804718Y-54077003D01*
X58881000Y-53693505D01*
X58881000Y-53302495D01*
X58804718Y-52918997D01*
X58655085Y-52557750D01*
X58437851Y-52232636D01*
X58161364Y-51956149D01*
X57836250Y-51738915D01*
X57731000Y-51695319D01*
X57731000Y-50184016D01*
X57735040Y-50142998D01*
X57718918Y-49979310D01*
X57671172Y-49821911D01*
X57639639Y-49762917D01*
X57593636Y-49676852D01*
X57489291Y-49549707D01*
X57457426Y-49523556D01*
X56312447Y-48378578D01*
X56286292Y-48346708D01*
X56159147Y-48242363D01*
X56014088Y-48164827D01*
X55856690Y-48117081D01*
X55734020Y-48104999D01*
X55734019Y-48104999D01*
X55693001Y-48100959D01*
X55651983Y-48104999D01*
X50796019Y-48104999D01*
X50755000Y-48100959D01*
X50713982Y-48104999D01*
X50591312Y-48117081D01*
X50433914Y-48164827D01*
X50288855Y-48242363D01*
X50161710Y-48346708D01*
X50135560Y-48378572D01*
X43979059Y-54535074D01*
X43802756Y-54462047D01*
X43390279Y-54380000D01*
X42969721Y-54380000D01*
X42557244Y-54462047D01*
X42168698Y-54622988D01*
X41819017Y-54856637D01*
X41521637Y-55154017D01*
X41287988Y-55503698D01*
X41127047Y-55892244D01*
X41045000Y-56304721D01*
X41045000Y-56725279D01*
X41127047Y-57137756D01*
X41287988Y-57526302D01*
X41521637Y-57875983D01*
X41819017Y-58173363D01*
X42168698Y-58407012D01*
X42557244Y-58567953D01*
X42969721Y-58650000D01*
X43390279Y-58650000D01*
X43802756Y-58567953D01*
X44191302Y-58407012D01*
X44540983Y-58173363D01*
X44838363Y-57875983D01*
X45072012Y-57526302D01*
X45232953Y-57137756D01*
X45315000Y-56725279D01*
X45315000Y-56304721D01*
X45232953Y-55892244D01*
X45159926Y-55715941D01*
X51100869Y-49774999D01*
X53550766Y-49774999D01*
X53448832Y-50021088D01*
X53386000Y-50336967D01*
X53386000Y-50659033D01*
X53448832Y-50974912D01*
X53572082Y-51272463D01*
X53751013Y-51540252D01*
X53853104Y-51642343D01*
X53725003Y-51589282D01*
X53341505Y-51513000D01*
X52950495Y-51513000D01*
X52566997Y-51589282D01*
X52205750Y-51738915D01*
X51880636Y-51956149D01*
X51604149Y-52232636D01*
X51386915Y-52557750D01*
X51237282Y-52918997D01*
X51161000Y-53302495D01*
X51161000Y-53693505D01*
X51237282Y-54077003D01*
X51386915Y-54438250D01*
X51604149Y-54763364D01*
X51880636Y-55039851D01*
X52205750Y-55257085D01*
X52566997Y-55406718D01*
X52950495Y-55483000D01*
X53341505Y-55483000D01*
X53725003Y-55406718D01*
X54040267Y-55276132D01*
X58391579Y-59627446D01*
X58351589Y-59644010D01*
X58108368Y-59806525D01*
X57901525Y-60013368D01*
X57785000Y-60187760D01*
X57668475Y-60013368D01*
X57461632Y-59806525D01*
X57218411Y-59644010D01*
X56948158Y-59532068D01*
X56661260Y-59475000D01*
X56368740Y-59475000D01*
X56081842Y-59532068D01*
X55811589Y-59644010D01*
X55568368Y-59806525D01*
X55361525Y-60013368D01*
X55245000Y-60187760D01*
X55128475Y-60013368D01*
X54921632Y-59806525D01*
X54678411Y-59644010D01*
X54408158Y-59532068D01*
X54121260Y-59475000D01*
X53828740Y-59475000D01*
X53541842Y-59532068D01*
X53271589Y-59644010D01*
X53028368Y-59806525D01*
X52821525Y-60013368D01*
X52705000Y-60187760D01*
X52588475Y-60013368D01*
X52381632Y-59806525D01*
X52138411Y-59644010D01*
X51868158Y-59532068D01*
X51581260Y-59475000D01*
X51288740Y-59475000D01*
X51001842Y-59532068D01*
X50731589Y-59644010D01*
X50488368Y-59806525D01*
X50281525Y-60013368D01*
X50165000Y-60187760D01*
X50048475Y-60013368D01*
X49841632Y-59806525D01*
X49598411Y-59644010D01*
X49328158Y-59532068D01*
X49041260Y-59475000D01*
X48748740Y-59475000D01*
X48461842Y-59532068D01*
X48191589Y-59644010D01*
X47948368Y-59806525D01*
X47741525Y-60013368D01*
X47625000Y-60187760D01*
X47508475Y-60013368D01*
X47301632Y-59806525D01*
X47058411Y-59644010D01*
X46788158Y-59532068D01*
X46501260Y-59475000D01*
X46208740Y-59475000D01*
X45921842Y-59532068D01*
X45651589Y-59644010D01*
X45408368Y-59806525D01*
X45201525Y-60013368D01*
X45085000Y-60187760D01*
X44968475Y-60013368D01*
X44761632Y-59806525D01*
X44518411Y-59644010D01*
X44248158Y-59532068D01*
X43961260Y-59475000D01*
X43668740Y-59475000D01*
X43381842Y-59532068D01*
X43111589Y-59644010D01*
X42868368Y-59806525D01*
X42661525Y-60013368D01*
X42545000Y-60187760D01*
X42428475Y-60013368D01*
X42221632Y-59806525D01*
X41978411Y-59644010D01*
X41708158Y-59532068D01*
X41421260Y-59475000D01*
X41128740Y-59475000D01*
X40841842Y-59532068D01*
X40571589Y-59644010D01*
X40328368Y-59806525D01*
X40121525Y-60013368D01*
X40005000Y-60187760D01*
X39888475Y-60013368D01*
X39681632Y-59806525D01*
X39438411Y-59644010D01*
X39168158Y-59532068D01*
X38881260Y-59475000D01*
X38588740Y-59475000D01*
X38301842Y-59532068D01*
X38031589Y-59644010D01*
X37788368Y-59806525D01*
X37581525Y-60013368D01*
X37419010Y-60256589D01*
X37307068Y-60526842D01*
X37250000Y-60813740D01*
X37250000Y-61106260D01*
X37307068Y-61393158D01*
X37419010Y-61663411D01*
X37581525Y-61906632D01*
X37788368Y-62113475D01*
X37962760Y-62230000D01*
X37788368Y-62346525D01*
X37581525Y-62553368D01*
X37419010Y-62796589D01*
X37307068Y-63066842D01*
X37250000Y-63353740D01*
X37250000Y-63646260D01*
X37257706Y-63685000D01*
X35004968Y-63685000D01*
X34750741Y-63660073D01*
X34583117Y-63609464D01*
X34428519Y-63527263D01*
X34292831Y-63416599D01*
X34181222Y-63281686D01*
X34097942Y-63127664D01*
X34046165Y-62960397D01*
X34011105Y-62626828D01*
X33999042Y-62568061D01*
X33996794Y-62545935D01*
X34020000Y-62310322D01*
X34020000Y-56304721D01*
X34695000Y-56304721D01*
X34695000Y-56725279D01*
X34777047Y-57137756D01*
X34937988Y-57526302D01*
X35171637Y-57875983D01*
X35469017Y-58173363D01*
X35818698Y-58407012D01*
X36207244Y-58567953D01*
X36619721Y-58650000D01*
X37040279Y-58650000D01*
X37452756Y-58567953D01*
X37841302Y-58407012D01*
X38190983Y-58173363D01*
X38488363Y-57875983D01*
X38722012Y-57526302D01*
X38882953Y-57137756D01*
X38965000Y-56725279D01*
X38965000Y-56304721D01*
X38882953Y-55892244D01*
X38722012Y-55503698D01*
X38488363Y-55154017D01*
X38190983Y-54856637D01*
X37841302Y-54622988D01*
X37452756Y-54462047D01*
X37040279Y-54380000D01*
X36619721Y-54380000D01*
X36207244Y-54462047D01*
X35818698Y-54622988D01*
X35469017Y-54856637D01*
X35171637Y-55154017D01*
X34937988Y-55503698D01*
X34777047Y-55892244D01*
X34695000Y-56304721D01*
X34020000Y-56304721D01*
X34020000Y-51224721D01*
X34695000Y-51224721D01*
X34695000Y-51645279D01*
X34777047Y-52057756D01*
X34937988Y-52446302D01*
X35171637Y-52795983D01*
X35469017Y-53093363D01*
X35818698Y-53327012D01*
X36207244Y-53487953D01*
X36619721Y-53570000D01*
X37040279Y-53570000D01*
X37452756Y-53487953D01*
X37841302Y-53327012D01*
X38190983Y-53093363D01*
X38357693Y-52926653D01*
X41867952Y-52926653D01*
X42023962Y-53242214D01*
X42398745Y-53433020D01*
X42803551Y-53547044D01*
X43222824Y-53579902D01*
X43640451Y-53530334D01*
X44040383Y-53400243D01*
X44336038Y-53242214D01*
X44492048Y-52926653D01*
X43180000Y-51614605D01*
X41867952Y-52926653D01*
X38357693Y-52926653D01*
X38488363Y-52795983D01*
X38722012Y-52446302D01*
X38882953Y-52057756D01*
X38965000Y-51645279D01*
X38965000Y-51477824D01*
X41035098Y-51477824D01*
X41084666Y-51895451D01*
X41214757Y-52295383D01*
X41372786Y-52591038D01*
X41688347Y-52747048D01*
X43000395Y-51435000D01*
X43359605Y-51435000D01*
X44671653Y-52747048D01*
X44987214Y-52591038D01*
X45178020Y-52216255D01*
X45292044Y-51811449D01*
X45324902Y-51392176D01*
X45275334Y-50974549D01*
X45145243Y-50574617D01*
X44987214Y-50278962D01*
X44671653Y-50122952D01*
X43359605Y-51435000D01*
X43000395Y-51435000D01*
X41688347Y-50122952D01*
X41372786Y-50278962D01*
X41181980Y-50653745D01*
X41067956Y-51058551D01*
X41035098Y-51477824D01*
X38965000Y-51477824D01*
X38965000Y-51224721D01*
X38882953Y-50812244D01*
X38722012Y-50423698D01*
X38488363Y-50074017D01*
X38357693Y-49943347D01*
X41867952Y-49943347D01*
X43180000Y-51255395D01*
X44492048Y-49943347D01*
X44336038Y-49627786D01*
X43961255Y-49436980D01*
X43556449Y-49322956D01*
X43137176Y-49290098D01*
X42719549Y-49339666D01*
X42319617Y-49469757D01*
X42023962Y-49627786D01*
X41867952Y-49943347D01*
X38357693Y-49943347D01*
X38190983Y-49776637D01*
X37841302Y-49542988D01*
X37452756Y-49382047D01*
X37040279Y-49300000D01*
X36619721Y-49300000D01*
X36207244Y-49382047D01*
X35818698Y-49542988D01*
X35469017Y-49776637D01*
X35171637Y-50074017D01*
X34937988Y-50423698D01*
X34777047Y-50812244D01*
X34695000Y-51224721D01*
X34020000Y-51224721D01*
X34020000Y-46144721D01*
X34695000Y-46144721D01*
X34695000Y-46565279D01*
X34777047Y-46977756D01*
X34937988Y-47366302D01*
X35171637Y-47715983D01*
X35469017Y-48013363D01*
X35818698Y-48247012D01*
X36207244Y-48407953D01*
X36619721Y-48490000D01*
X37040279Y-48490000D01*
X37452756Y-48407953D01*
X37841302Y-48247012D01*
X38190983Y-48013363D01*
X38488363Y-47715983D01*
X38722012Y-47366302D01*
X38882953Y-46977756D01*
X38965000Y-46565279D01*
X38965000Y-46144721D01*
X38882953Y-45732244D01*
X38722012Y-45343698D01*
X38488363Y-44994017D01*
X38190983Y-44696637D01*
X37841302Y-44462988D01*
X37452756Y-44302047D01*
X37040279Y-44220000D01*
X36619721Y-44220000D01*
X36207244Y-44302047D01*
X35818698Y-44462988D01*
X35469017Y-44696637D01*
X35171637Y-44994017D01*
X34937988Y-45343698D01*
X34777047Y-45732244D01*
X34695000Y-46144721D01*
X34020000Y-46144721D01*
X34020000Y-37836967D01*
X53386000Y-37836967D01*
X53386000Y-38159033D01*
X53448832Y-38474912D01*
X53572082Y-38772463D01*
X53751013Y-39040252D01*
X53978748Y-39267987D01*
X54246537Y-39446918D01*
X54544088Y-39570168D01*
X54859967Y-39633000D01*
X55182033Y-39633000D01*
X55497912Y-39570168D01*
X55795463Y-39446918D01*
X56063252Y-39267987D01*
X56290987Y-39040252D01*
X56469918Y-38772463D01*
X56593168Y-38474912D01*
X56656000Y-38159033D01*
X56656000Y-37836967D01*
X64308000Y-37836967D01*
X64308000Y-38159033D01*
X64370832Y-38474912D01*
X64494082Y-38772463D01*
X64673013Y-39040252D01*
X64900748Y-39267987D01*
X65168537Y-39446918D01*
X65466088Y-39570168D01*
X65781967Y-39633000D01*
X66104033Y-39633000D01*
X66419912Y-39570168D01*
X66717463Y-39446918D01*
X66985252Y-39267987D01*
X67212987Y-39040252D01*
X67391918Y-38772463D01*
X67515168Y-38474912D01*
X67578000Y-38159033D01*
X67578000Y-37836967D01*
X67515168Y-37521088D01*
X67391918Y-37223537D01*
X67212987Y-36955748D01*
X66985252Y-36728013D01*
X66717463Y-36549082D01*
X66419912Y-36425832D01*
X66104033Y-36363000D01*
X65781967Y-36363000D01*
X65466088Y-36425832D01*
X65168537Y-36549082D01*
X64900748Y-36728013D01*
X64673013Y-36955748D01*
X64494082Y-37223537D01*
X64370832Y-37521088D01*
X64308000Y-37836967D01*
X56656000Y-37836967D01*
X56593168Y-37521088D01*
X56469918Y-37223537D01*
X56290987Y-36955748D01*
X56063252Y-36728013D01*
X55795463Y-36549082D01*
X55497912Y-36425832D01*
X55182033Y-36363000D01*
X54859967Y-36363000D01*
X54544088Y-36425832D01*
X54246537Y-36549082D01*
X53978748Y-36728013D01*
X53751013Y-36955748D01*
X53572082Y-37223537D01*
X53448832Y-37521088D01*
X53386000Y-37836967D01*
X34020000Y-37836967D01*
X34020000Y-34882838D01*
X55690767Y-34882838D01*
X55828724Y-35183044D01*
X56177967Y-35358882D01*
X56554804Y-35463207D01*
X56944753Y-35492009D01*
X57332828Y-35444184D01*
X57704116Y-35321568D01*
X57963276Y-35183044D01*
X58101233Y-34882838D01*
X66612767Y-34882838D01*
X66750724Y-35183044D01*
X67099967Y-35358882D01*
X67476804Y-35463207D01*
X67866753Y-35492009D01*
X68254828Y-35444184D01*
X68626116Y-35321568D01*
X68885276Y-35183044D01*
X69023233Y-34882838D01*
X67818000Y-33677605D01*
X66612767Y-34882838D01*
X58101233Y-34882838D01*
X56896000Y-33677605D01*
X55690767Y-34882838D01*
X34020000Y-34882838D01*
X34020000Y-33283382D01*
X39013142Y-33283382D01*
X39013142Y-33482334D01*
X39051956Y-33677464D01*
X39128092Y-33861272D01*
X39238624Y-34026695D01*
X39379305Y-34167376D01*
X39544728Y-34277908D01*
X39728536Y-34354044D01*
X39923666Y-34392858D01*
X40122618Y-34392858D01*
X40317748Y-34354044D01*
X40501556Y-34277908D01*
X40666979Y-34167376D01*
X40807660Y-34026695D01*
X40918192Y-33861272D01*
X40994328Y-33677464D01*
X41020328Y-33546753D01*
X54901991Y-33546753D01*
X54949816Y-33934828D01*
X55072432Y-34306116D01*
X55210956Y-34565276D01*
X55511162Y-34703233D01*
X56716395Y-33498000D01*
X57075605Y-33498000D01*
X58280838Y-34703233D01*
X58581044Y-34565276D01*
X58756882Y-34216033D01*
X58861207Y-33839196D01*
X58882807Y-33546753D01*
X65823991Y-33546753D01*
X65871816Y-33934828D01*
X65994432Y-34306116D01*
X66132956Y-34565276D01*
X66433162Y-34703233D01*
X67638395Y-33498000D01*
X67997605Y-33498000D01*
X69202838Y-34703233D01*
X69503044Y-34565276D01*
X69678882Y-34216033D01*
X69783207Y-33839196D01*
X69812009Y-33449247D01*
X69764184Y-33061172D01*
X69641568Y-32689884D01*
X69503044Y-32430724D01*
X69202838Y-32292767D01*
X67997605Y-33498000D01*
X67638395Y-33498000D01*
X66433162Y-32292767D01*
X66132956Y-32430724D01*
X65957118Y-32779967D01*
X65852793Y-33156804D01*
X65823991Y-33546753D01*
X58882807Y-33546753D01*
X58890009Y-33449247D01*
X58842184Y-33061172D01*
X58719568Y-32689884D01*
X58581044Y-32430724D01*
X58280838Y-32292767D01*
X57075605Y-33498000D01*
X56716395Y-33498000D01*
X55511162Y-32292767D01*
X55210956Y-32430724D01*
X55035118Y-32779967D01*
X54930793Y-33156804D01*
X54901991Y-33546753D01*
X41020328Y-33546753D01*
X41033142Y-33482334D01*
X41033142Y-33283382D01*
X40994328Y-33088252D01*
X40918192Y-32904444D01*
X40807660Y-32739021D01*
X40666979Y-32598340D01*
X40501556Y-32487808D01*
X40317748Y-32411672D01*
X40122618Y-32372858D01*
X39923666Y-32372858D01*
X39728536Y-32411672D01*
X39544728Y-32487808D01*
X39379305Y-32598340D01*
X39238624Y-32739021D01*
X39128092Y-32904444D01*
X39051956Y-33088252D01*
X39013142Y-33283382D01*
X34020000Y-33283382D01*
X34020000Y-32113162D01*
X55690767Y-32113162D01*
X56896000Y-33318395D01*
X58101233Y-32113162D01*
X66612767Y-32113162D01*
X67818000Y-33318395D01*
X69023233Y-32113162D01*
X68885276Y-31812956D01*
X68536033Y-31637118D01*
X68159196Y-31532793D01*
X67769247Y-31503991D01*
X67381172Y-31551816D01*
X67009884Y-31674432D01*
X66750724Y-31812956D01*
X66612767Y-32113162D01*
X58101233Y-32113162D01*
X57963276Y-31812956D01*
X57614033Y-31637118D01*
X57237196Y-31532793D01*
X56847247Y-31503991D01*
X56459172Y-31551816D01*
X56087884Y-31674432D01*
X55828724Y-31812956D01*
X55690767Y-32113162D01*
X34020000Y-32113162D01*
X34020000Y-30581602D01*
X41550148Y-30581602D01*
X41550148Y-30810102D01*
X41594726Y-31034212D01*
X41682169Y-31245318D01*
X41809117Y-31435309D01*
X41970691Y-31596883D01*
X42160682Y-31723831D01*
X42371788Y-31811274D01*
X42595898Y-31855852D01*
X42824398Y-31855852D01*
X43048508Y-31811274D01*
X43259614Y-31723831D01*
X43449605Y-31596883D01*
X43611179Y-31435309D01*
X43738127Y-31245318D01*
X43825570Y-31034212D01*
X43870148Y-30810102D01*
X43870148Y-30581602D01*
X43825570Y-30357492D01*
X43738127Y-30146386D01*
X43611179Y-29956395D01*
X43449605Y-29794821D01*
X43259614Y-29667873D01*
X43048508Y-29580430D01*
X42824398Y-29535852D01*
X42595898Y-29535852D01*
X42371788Y-29580430D01*
X42160682Y-29667873D01*
X41970691Y-29794821D01*
X41809117Y-29956395D01*
X41682169Y-30146386D01*
X41594726Y-30357492D01*
X41550148Y-30581602D01*
X34020000Y-30581602D01*
X34020000Y-27145186D01*
X34472874Y-27332773D01*
X35192923Y-27476000D01*
X35927077Y-27476000D01*
X36647126Y-27332773D01*
X37325396Y-27051824D01*
X37935824Y-26643950D01*
X38454950Y-26124824D01*
X38862824Y-25514396D01*
X39143773Y-24836126D01*
X39287000Y-24116077D01*
X39287000Y-23381923D01*
X39281844Y-23356000D01*
X47487286Y-23356000D01*
X47487286Y-27176000D01*
X55128715Y-27176000D01*
X55128715Y-23356000D01*
X47487286Y-23356000D01*
X39281844Y-23356000D01*
X39143773Y-22661874D01*
X38977311Y-22260000D01*
X64908689Y-22260000D01*
X64742227Y-22661874D01*
G37*
G04 #@! TD.AperFunction*
M02*
