G04 #@! TF.GenerationSoftware,KiCad,Pcbnew,(5.1.9)-1*
G04 #@! TF.CreationDate,2021-02-23T11:14:44+09:00*
G04 #@! TF.ProjectId,powertrain,706f7765-7274-4726-9169-6e2e6b696361,rev?*
G04 #@! TF.SameCoordinates,Original*
G04 #@! TF.FileFunction,Soldermask,Bot*
G04 #@! TF.FilePolarity,Negative*
%FSLAX46Y46*%
G04 Gerber Fmt 4.6, Leading zero omitted, Abs format (unit mm)*
G04 Created by KiCad (PCBNEW (5.1.9)-1) date 2021-02-23 11:14:44*
%MOMM*%
%LPD*%
G01*
G04 APERTURE LIST*
%ADD10C,1.050000*%
%ADD11C,0.750000*%
%ADD12C,2.700000*%
%ADD13C,2.000000*%
%ADD14O,1.700000X1.700000*%
%ADD15R,1.700000X1.700000*%
%ADD16C,3.200000*%
%ADD17C,3.000000*%
G04 APERTURE END LIST*
D10*
X42710148Y-30695852D03*
D11*
X40023142Y-33382858D03*
D12*
X67818000Y-53498000D03*
X64068000Y-53498000D03*
X67818000Y-33498000D03*
D13*
X65943000Y-50498000D03*
X65943000Y-37998000D03*
X55021000Y-37998000D03*
X55021000Y-50498000D03*
D12*
X56896000Y-33498000D03*
X53146000Y-53498000D03*
X56896000Y-53498000D03*
D14*
X38735000Y-60960000D03*
X38735000Y-63500000D03*
X41275000Y-60960000D03*
X41275000Y-63500000D03*
X43815000Y-60960000D03*
X43815000Y-63500000D03*
X46355000Y-60960000D03*
X46355000Y-63500000D03*
X48895000Y-60960000D03*
X48895000Y-63500000D03*
X51435000Y-60960000D03*
X51435000Y-63500000D03*
X53975000Y-60960000D03*
X53975000Y-63500000D03*
X56515000Y-60960000D03*
X56515000Y-63500000D03*
X59055000Y-60960000D03*
X59055000Y-63500000D03*
X61595000Y-60960000D03*
X61595000Y-63500000D03*
X64135000Y-60960000D03*
X64135000Y-63500000D03*
X66675000Y-60960000D03*
X66675000Y-63500000D03*
X69215000Y-60960000D03*
D15*
X69215000Y-63500000D03*
D16*
X68326000Y-23749000D03*
X35560000Y-23749000D03*
D17*
X36830000Y-46355000D03*
X36830000Y-56515000D03*
X36830000Y-51435000D03*
X43180000Y-51435000D03*
X43180000Y-56515000D03*
M02*
