%FSLAX45Y45*%
G04 Gerber Fmt 4.5, Leading zero omitted, Abs format (unit mm)*
G04 Created by KiCad (PCBNEW (5.1.4)-1) date 2019-12-12 20:06:10*
%MOMM*%
%LPD*%
G04 APERTURE LIST*
%ADD10C,0.050000*%
%ADD11C,0.200000*%
%ADD12C,0.300000*%
G04 APERTURE END LIST*
D10*
X1905000Y-3449300D02*
G75*
G02X2115800Y-3238500I210800J0D01*
G01*
X5143500Y-3238500D02*
G75*
G02X5354300Y-3449300I0J-210800D01*
G01*
X2115800Y-3238500D02*
X5143500Y-3238500D01*
X5354300Y-3449300D02*
X5354300Y-6604000D01*
X1905000Y-6604000D02*
X5354300Y-6604000D01*
X1905000Y-3449300D02*
X1905000Y-6604000D01*
D11*
D12*
X2188928Y-7072214D02*
X2188928Y-6772214D01*
X2260357Y-6772214D01*
X2303214Y-6786500D01*
X2331786Y-6815071D01*
X2346071Y-6843643D01*
X2360357Y-6900786D01*
X2360357Y-6943643D01*
X2346071Y-7000786D01*
X2331786Y-7029357D01*
X2303214Y-7057929D01*
X2260357Y-7072214D01*
X2188928Y-7072214D01*
X2488928Y-7072214D02*
X2488928Y-6872214D01*
X2488928Y-6929357D02*
X2503214Y-6900786D01*
X2517500Y-6886500D01*
X2546071Y-6872214D01*
X2574643Y-6872214D01*
X2674643Y-7072214D02*
X2674643Y-6872214D01*
X2674643Y-6772214D02*
X2660357Y-6786500D01*
X2674643Y-6800786D01*
X2688928Y-6786500D01*
X2674643Y-6772214D01*
X2674643Y-6800786D01*
X2860357Y-7072214D02*
X2831786Y-7057929D01*
X2817500Y-7029357D01*
X2817500Y-6772214D01*
X3017500Y-7072214D02*
X2988928Y-7057929D01*
X2974643Y-7029357D01*
X2974643Y-6772214D01*
X3360357Y-7072214D02*
X3360357Y-6772214D01*
X3460357Y-6986500D01*
X3560357Y-6772214D01*
X3560357Y-7072214D01*
X3831786Y-7072214D02*
X3831786Y-6915071D01*
X3817500Y-6886500D01*
X3788928Y-6872214D01*
X3731786Y-6872214D01*
X3703214Y-6886500D01*
X3831786Y-7057929D02*
X3803214Y-7072214D01*
X3731786Y-7072214D01*
X3703214Y-7057929D01*
X3688928Y-7029357D01*
X3688928Y-7000786D01*
X3703214Y-6972214D01*
X3731786Y-6957929D01*
X3803214Y-6957929D01*
X3831786Y-6943643D01*
X3974643Y-6872214D02*
X3974643Y-7172214D01*
X3974643Y-6886500D02*
X4003214Y-6872214D01*
X4060357Y-6872214D01*
X4088928Y-6886500D01*
X4103214Y-6900786D01*
X4117500Y-6929357D01*
X4117500Y-7015071D01*
X4103214Y-7043643D01*
X4088928Y-7057929D01*
X4060357Y-7072214D01*
X4003214Y-7072214D01*
X3974643Y-7057929D01*
X4246071Y-7043643D02*
X4260357Y-7057929D01*
X4246071Y-7072214D01*
X4231786Y-7057929D01*
X4246071Y-7043643D01*
X4246071Y-7072214D01*
X4246071Y-6886500D02*
X4260357Y-6900786D01*
X4246071Y-6915071D01*
X4231786Y-6900786D01*
X4246071Y-6886500D01*
X4246071Y-6915071D01*
M02*
