G04 #@! TF.GenerationSoftware,KiCad,Pcbnew,(5.1.4)-1*
G04 #@! TF.CreationDate,2019-12-12T20:06:14+09:00*
G04 #@! TF.ProjectId,microcar_head,6d696372-6f63-4617-925f-686561642e6b,rev?*
G04 #@! TF.SameCoordinates,Original*
G04 #@! TF.FileFunction,Legend,Top*
G04 #@! TF.FilePolarity,Positive*
%FSLAX46Y46*%
G04 Gerber Fmt 4.6, Leading zero omitted, Abs format (unit mm)*
G04 Created by KiCad (PCBNEW (5.1.4)-1) date 2019-12-12 20:06:14*
%MOMM*%
%LPD*%
G04 APERTURE LIST*
%ADD10C,0.200000*%
%ADD11C,0.120000*%
%ADD12C,0.150000*%
G04 APERTURE END LIST*
D10*
X34925000Y-56261000D02*
X34925000Y-58293000D01*
X34925000Y-56261000D02*
X45720000Y-56261000D01*
D11*
X50673000Y-59944000D02*
X21844000Y-59944000D01*
X50673000Y-58420000D02*
X50673000Y-59944000D01*
X21844000Y-58420000D02*
X50673000Y-58420000D01*
X21844000Y-59944000D02*
X21844000Y-58420000D01*
D12*
X49053904Y-56856380D02*
X49672952Y-56856380D01*
X49339619Y-57237333D01*
X49482476Y-57237333D01*
X49577714Y-57284952D01*
X49625333Y-57332571D01*
X49672952Y-57427809D01*
X49672952Y-57665904D01*
X49625333Y-57761142D01*
X49577714Y-57808761D01*
X49482476Y-57856380D01*
X49196761Y-57856380D01*
X49101523Y-57808761D01*
X49053904Y-57761142D01*
X49958666Y-56856380D02*
X50292000Y-57856380D01*
X50625333Y-56856380D01*
X50863428Y-56856380D02*
X51482476Y-56856380D01*
X51149142Y-57237333D01*
X51292000Y-57237333D01*
X51387238Y-57284952D01*
X51434857Y-57332571D01*
X51482476Y-57427809D01*
X51482476Y-57665904D01*
X51434857Y-57761142D01*
X51387238Y-57808761D01*
X51292000Y-57856380D01*
X51006285Y-57856380D01*
X50911047Y-57808761D01*
X50863428Y-57761142D01*
D10*
X34925000Y-56261000D02*
X34925000Y-45720000D01*
X45720000Y-45085000D02*
X45720000Y-58293000D01*
X53340000Y-45085000D02*
X45720000Y-45085000D01*
X44450000Y-39370000D02*
X38100000Y-39370000D01*
X44450000Y-45720000D02*
X44450000Y-39370000D01*
X27940000Y-39370000D02*
X34925000Y-39370000D01*
X27940000Y-45720000D02*
X27940000Y-39370000D01*
X44450000Y-45720000D02*
X27940000Y-45720000D01*
D12*
X26075000Y-57935761D02*
X26217857Y-57983380D01*
X26455952Y-57983380D01*
X26551190Y-57935761D01*
X26598809Y-57888142D01*
X26646428Y-57792904D01*
X26646428Y-57697666D01*
X26598809Y-57602428D01*
X26551190Y-57554809D01*
X26455952Y-57507190D01*
X26265476Y-57459571D01*
X26170238Y-57411952D01*
X26122619Y-57364333D01*
X26075000Y-57269095D01*
X26075000Y-57173857D01*
X26122619Y-57078619D01*
X26170238Y-57031000D01*
X26265476Y-56983380D01*
X26503571Y-56983380D01*
X26646428Y-57031000D01*
X27265476Y-56983380D02*
X27455952Y-56983380D01*
X27551190Y-57031000D01*
X27646428Y-57126238D01*
X27694047Y-57316714D01*
X27694047Y-57650047D01*
X27646428Y-57840523D01*
X27551190Y-57935761D01*
X27455952Y-57983380D01*
X27265476Y-57983380D01*
X27170238Y-57935761D01*
X27075000Y-57840523D01*
X27027380Y-57650047D01*
X27027380Y-57316714D01*
X27075000Y-57126238D01*
X27170238Y-57031000D01*
X27265476Y-56983380D01*
X28122619Y-57983380D02*
X28122619Y-56983380D01*
X29170238Y-57888142D02*
X29122619Y-57935761D01*
X28979761Y-57983380D01*
X28884523Y-57983380D01*
X28741666Y-57935761D01*
X28646428Y-57840523D01*
X28598809Y-57745285D01*
X28551190Y-57554809D01*
X28551190Y-57411952D01*
X28598809Y-57221476D01*
X28646428Y-57126238D01*
X28741666Y-57031000D01*
X28884523Y-56983380D01*
X28979761Y-56983380D01*
X29122619Y-57031000D01*
X29170238Y-57078619D01*
X30122619Y-57983380D02*
X29551190Y-57983380D01*
X29836904Y-57983380D02*
X29836904Y-56983380D01*
X29741666Y-57126238D01*
X29646428Y-57221476D01*
X29551190Y-57269095D01*
X30979761Y-56983380D02*
X30789285Y-56983380D01*
X30694047Y-57031000D01*
X30646428Y-57078619D01*
X30551190Y-57221476D01*
X30503571Y-57411952D01*
X30503571Y-57792904D01*
X30551190Y-57888142D01*
X30598809Y-57935761D01*
X30694047Y-57983380D01*
X30884523Y-57983380D01*
X30979761Y-57935761D01*
X31027380Y-57888142D01*
X31075000Y-57792904D01*
X31075000Y-57554809D01*
X31027380Y-57459571D01*
X30979761Y-57411952D01*
X30884523Y-57364333D01*
X30694047Y-57364333D01*
X30598809Y-57411952D01*
X30551190Y-57459571D01*
X30503571Y-57554809D01*
X38235190Y-55903761D02*
X38378047Y-55951380D01*
X38616142Y-55951380D01*
X38711380Y-55903761D01*
X38759000Y-55856142D01*
X38806619Y-55760904D01*
X38806619Y-55665666D01*
X38759000Y-55570428D01*
X38711380Y-55522809D01*
X38616142Y-55475190D01*
X38425666Y-55427571D01*
X38330428Y-55379952D01*
X38282809Y-55332333D01*
X38235190Y-55237095D01*
X38235190Y-55141857D01*
X38282809Y-55046619D01*
X38330428Y-54999000D01*
X38425666Y-54951380D01*
X38663761Y-54951380D01*
X38806619Y-54999000D01*
X39425666Y-54951380D02*
X39616142Y-54951380D01*
X39711380Y-54999000D01*
X39806619Y-55094238D01*
X39854238Y-55284714D01*
X39854238Y-55618047D01*
X39806619Y-55808523D01*
X39711380Y-55903761D01*
X39616142Y-55951380D01*
X39425666Y-55951380D01*
X39330428Y-55903761D01*
X39235190Y-55808523D01*
X39187571Y-55618047D01*
X39187571Y-55284714D01*
X39235190Y-55094238D01*
X39330428Y-54999000D01*
X39425666Y-54951380D01*
X40282809Y-55951380D02*
X40282809Y-54951380D01*
X41330428Y-55856142D02*
X41282809Y-55903761D01*
X41139952Y-55951380D01*
X41044714Y-55951380D01*
X40901857Y-55903761D01*
X40806619Y-55808523D01*
X40759000Y-55713285D01*
X40711380Y-55522809D01*
X40711380Y-55379952D01*
X40759000Y-55189476D01*
X40806619Y-55094238D01*
X40901857Y-54999000D01*
X41044714Y-54951380D01*
X41139952Y-54951380D01*
X41282809Y-54999000D01*
X41330428Y-55046619D01*
X41901857Y-55379952D02*
X41806619Y-55332333D01*
X41759000Y-55284714D01*
X41711380Y-55189476D01*
X41711380Y-55141857D01*
X41759000Y-55046619D01*
X41806619Y-54999000D01*
X41901857Y-54951380D01*
X42092333Y-54951380D01*
X42187571Y-54999000D01*
X42235190Y-55046619D01*
X42282809Y-55141857D01*
X42282809Y-55189476D01*
X42235190Y-55284714D01*
X42187571Y-55332333D01*
X42092333Y-55379952D01*
X41901857Y-55379952D01*
X41806619Y-55427571D01*
X41759000Y-55475190D01*
X41711380Y-55570428D01*
X41711380Y-55760904D01*
X41759000Y-55856142D01*
X41806619Y-55903761D01*
X41901857Y-55951380D01*
X42092333Y-55951380D01*
X42187571Y-55903761D01*
X42235190Y-55856142D01*
X42282809Y-55760904D01*
X42282809Y-55570428D01*
X42235190Y-55475190D01*
X42187571Y-55427571D01*
X42092333Y-55379952D01*
X22790238Y-59634380D02*
X22456904Y-59158190D01*
X22218809Y-59634380D02*
X22218809Y-58634380D01*
X22599761Y-58634380D01*
X22694999Y-58682000D01*
X22742619Y-58729619D01*
X22790238Y-58824857D01*
X22790238Y-58967714D01*
X22742619Y-59062952D01*
X22694999Y-59110571D01*
X22599761Y-59158190D01*
X22218809Y-59158190D01*
X23171190Y-59348666D02*
X23647380Y-59348666D01*
X23075952Y-59634380D02*
X23409285Y-58634380D01*
X23742619Y-59634380D01*
X24075952Y-59634380D02*
X24075952Y-58634380D01*
X24409285Y-59348666D01*
X24742619Y-58634380D01*
X24742619Y-59634380D01*
X25218809Y-59634380D02*
X25218809Y-58634380D01*
X25790238Y-59634380D01*
X25790238Y-58634380D01*
X27028333Y-59253428D02*
X27790238Y-59253428D01*
X29694999Y-59729619D02*
X29599761Y-59682000D01*
X29504523Y-59586761D01*
X29361666Y-59443904D01*
X29266428Y-59396285D01*
X29171190Y-59396285D01*
X29218809Y-59634380D02*
X29123571Y-59586761D01*
X29028333Y-59491523D01*
X28980714Y-59301047D01*
X28980714Y-58967714D01*
X29028333Y-58777238D01*
X29123571Y-58682000D01*
X29218809Y-58634380D01*
X29409285Y-58634380D01*
X29504523Y-58682000D01*
X29599761Y-58777238D01*
X29647380Y-58967714D01*
X29647380Y-59301047D01*
X29599761Y-59491523D01*
X29504523Y-59586761D01*
X29409285Y-59634380D01*
X29218809Y-59634380D01*
X30504523Y-58967714D02*
X30504523Y-59634380D01*
X30075952Y-58967714D02*
X30075952Y-59491523D01*
X30123571Y-59586761D01*
X30218809Y-59634380D01*
X30361666Y-59634380D01*
X30456904Y-59586761D01*
X30504523Y-59539142D01*
X31409285Y-59634380D02*
X31409285Y-59110571D01*
X31361666Y-59015333D01*
X31266428Y-58967714D01*
X31075952Y-58967714D01*
X30980714Y-59015333D01*
X31409285Y-59586761D02*
X31314047Y-59634380D01*
X31075952Y-59634380D01*
X30980714Y-59586761D01*
X30933095Y-59491523D01*
X30933095Y-59396285D01*
X30980714Y-59301047D01*
X31075952Y-59253428D01*
X31314047Y-59253428D01*
X31409285Y-59205809D01*
X32314047Y-59634380D02*
X32314047Y-58634380D01*
X32314047Y-59586761D02*
X32218809Y-59634380D01*
X32028333Y-59634380D01*
X31933095Y-59586761D01*
X31885476Y-59539142D01*
X31837857Y-59443904D01*
X31837857Y-59158190D01*
X31885476Y-59062952D01*
X31933095Y-59015333D01*
X32028333Y-58967714D01*
X32218809Y-58967714D01*
X32314047Y-59015333D01*
X33504523Y-59586761D02*
X33647380Y-59634380D01*
X33885476Y-59634380D01*
X33980714Y-59586761D01*
X34028333Y-59539142D01*
X34075952Y-59443904D01*
X34075952Y-59348666D01*
X34028333Y-59253428D01*
X33980714Y-59205809D01*
X33885476Y-59158190D01*
X33695000Y-59110571D01*
X33599761Y-59062952D01*
X33552142Y-59015333D01*
X33504523Y-58920095D01*
X33504523Y-58824857D01*
X33552142Y-58729619D01*
X33599761Y-58682000D01*
X33695000Y-58634380D01*
X33933095Y-58634380D01*
X34075952Y-58682000D01*
X34504523Y-59634380D02*
X34504523Y-58634380D01*
X34885476Y-58634380D01*
X34980714Y-58682000D01*
X35028333Y-58729619D01*
X35075952Y-58824857D01*
X35075952Y-58967714D01*
X35028333Y-59062952D01*
X34980714Y-59110571D01*
X34885476Y-59158190D01*
X34504523Y-59158190D01*
X35504523Y-59634380D02*
X35504523Y-58634380D01*
X36742619Y-59634380D02*
X36742619Y-58634380D01*
X36742619Y-59015333D02*
X36837857Y-58967714D01*
X37028333Y-58967714D01*
X37123571Y-59015333D01*
X37171190Y-59062952D01*
X37218809Y-59158190D01*
X37218809Y-59443904D01*
X37171190Y-59539142D01*
X37123571Y-59586761D01*
X37028333Y-59634380D01*
X36837857Y-59634380D01*
X36742619Y-59586761D01*
X37647380Y-59634380D02*
X37647380Y-58967714D01*
X37647380Y-59158190D02*
X37694999Y-59062952D01*
X37742619Y-59015333D01*
X37837857Y-58967714D01*
X37933095Y-58967714D01*
X38647380Y-59586761D02*
X38552142Y-59634380D01*
X38361666Y-59634380D01*
X38266428Y-59586761D01*
X38218809Y-59491523D01*
X38218809Y-59110571D01*
X38266428Y-59015333D01*
X38361666Y-58967714D01*
X38552142Y-58967714D01*
X38647380Y-59015333D01*
X38694999Y-59110571D01*
X38694999Y-59205809D01*
X38218809Y-59301047D01*
X39552142Y-59634380D02*
X39552142Y-59110571D01*
X39504523Y-59015333D01*
X39409285Y-58967714D01*
X39218809Y-58967714D01*
X39123571Y-59015333D01*
X39552142Y-59586761D02*
X39456904Y-59634380D01*
X39218809Y-59634380D01*
X39123571Y-59586761D01*
X39075952Y-59491523D01*
X39075952Y-59396285D01*
X39123571Y-59301047D01*
X39218809Y-59253428D01*
X39456904Y-59253428D01*
X39552142Y-59205809D01*
X40028333Y-59634380D02*
X40028333Y-58634380D01*
X40123571Y-59253428D02*
X40409285Y-59634380D01*
X40409285Y-58967714D02*
X40028333Y-59348666D01*
X40980714Y-59634380D02*
X40885476Y-59586761D01*
X40837857Y-59539142D01*
X40790238Y-59443904D01*
X40790238Y-59158190D01*
X40837857Y-59062952D01*
X40885476Y-59015333D01*
X40980714Y-58967714D01*
X41123571Y-58967714D01*
X41218809Y-59015333D01*
X41266428Y-59062952D01*
X41314047Y-59158190D01*
X41314047Y-59443904D01*
X41266428Y-59539142D01*
X41218809Y-59586761D01*
X41123571Y-59634380D01*
X40980714Y-59634380D01*
X42171190Y-58967714D02*
X42171190Y-59634380D01*
X41742619Y-58967714D02*
X41742619Y-59491523D01*
X41790238Y-59586761D01*
X41885476Y-59634380D01*
X42028333Y-59634380D01*
X42123571Y-59586761D01*
X42171190Y-59539142D01*
X42504523Y-58967714D02*
X42885476Y-58967714D01*
X42647380Y-58634380D02*
X42647380Y-59491523D01*
X42694999Y-59586761D01*
X42790238Y-59634380D01*
X42885476Y-59634380D01*
X44504523Y-59634380D02*
X43933095Y-59634380D01*
X44218809Y-59634380D02*
X44218809Y-58634380D01*
X44123571Y-58777238D01*
X44028333Y-58872476D01*
X43933095Y-58920095D01*
X44933095Y-59539142D02*
X44980714Y-59586761D01*
X44933095Y-59634380D01*
X44885476Y-59586761D01*
X44933095Y-59539142D01*
X44933095Y-59634380D01*
X45599761Y-58634380D02*
X45694999Y-58634380D01*
X45790238Y-58682000D01*
X45837857Y-58729619D01*
X45885476Y-58824857D01*
X45933095Y-59015333D01*
X45933095Y-59253428D01*
X45885476Y-59443904D01*
X45837857Y-59539142D01*
X45790238Y-59586761D01*
X45694999Y-59634380D01*
X45599761Y-59634380D01*
X45504523Y-59586761D01*
X45456904Y-59539142D01*
X45409285Y-59443904D01*
X45361666Y-59253428D01*
X45361666Y-59015333D01*
X45409285Y-58824857D01*
X45456904Y-58729619D01*
X45504523Y-58682000D01*
X45599761Y-58634380D01*
X47456904Y-59110571D02*
X47599761Y-59158190D01*
X47647380Y-59205809D01*
X47694999Y-59301047D01*
X47694999Y-59443904D01*
X47647380Y-59539142D01*
X47599761Y-59586761D01*
X47504523Y-59634380D01*
X47123571Y-59634380D01*
X47123571Y-58634380D01*
X47456904Y-58634380D01*
X47552142Y-58682000D01*
X47599761Y-58729619D01*
X47647380Y-58824857D01*
X47647380Y-58920095D01*
X47599761Y-59015333D01*
X47552142Y-59062952D01*
X47456904Y-59110571D01*
X47123571Y-59110571D01*
X48123571Y-59110571D02*
X48456904Y-59110571D01*
X48599761Y-59634380D02*
X48123571Y-59634380D01*
X48123571Y-58634380D01*
X48599761Y-58634380D01*
X48885476Y-58634380D02*
X49456904Y-58634380D01*
X49171190Y-59634380D02*
X49171190Y-58634380D01*
X49742619Y-59348666D02*
X50218809Y-59348666D01*
X49647380Y-59634380D02*
X49980714Y-58634380D01*
X50314047Y-59634380D01*
D11*
X52638000Y-64135000D02*
X52638000Y-65465000D01*
X52638000Y-65465000D02*
X51308000Y-65465000D01*
X52638000Y-62865000D02*
X50038000Y-62865000D01*
X50038000Y-62865000D02*
X50038000Y-65465000D01*
X50038000Y-65465000D02*
X19498000Y-65465000D01*
X19498000Y-60265000D02*
X19498000Y-65465000D01*
X52638000Y-60265000D02*
X19498000Y-60265000D01*
X52638000Y-60265000D02*
X52638000Y-62865000D01*
X37119779Y-56894000D02*
X36794221Y-56894000D01*
X37119779Y-57914000D02*
X36794221Y-57914000D01*
X41874221Y-57914000D02*
X42199779Y-57914000D01*
X41874221Y-56894000D02*
X42199779Y-56894000D01*
X20445000Y-54828221D02*
X20445000Y-55153779D01*
X21465000Y-54828221D02*
X21465000Y-55153779D01*
X47246000Y-51089779D02*
X47246000Y-50764221D01*
X46226000Y-51089779D02*
X46226000Y-50764221D01*
X24560000Y-41910000D02*
G75*
G03X24560000Y-41910000I-1700000J0D01*
G01*
X40259000Y-49383000D02*
X36809000Y-49383000D01*
X40259000Y-49383000D02*
X42209000Y-49383000D01*
X40259000Y-54503000D02*
X38309000Y-54503000D01*
X40259000Y-54503000D02*
X42209000Y-54503000D01*
X24715000Y-46430000D02*
X22900000Y-46430000D01*
X24715000Y-46175000D02*
X24715000Y-46430000D01*
X28575000Y-46175000D02*
X24715000Y-46175000D01*
X32435000Y-46175000D02*
X32435000Y-46430000D01*
X28575000Y-46175000D02*
X32435000Y-46175000D01*
X24715000Y-56695000D02*
X24715000Y-56440000D01*
X28575000Y-56695000D02*
X24715000Y-56695000D01*
X32435000Y-56695000D02*
X32435000Y-56440000D01*
X28575000Y-56695000D02*
X32435000Y-56695000D01*
X35558000Y-47462221D02*
X35558000Y-47787779D01*
X36578000Y-47462221D02*
X36578000Y-47787779D01*
X35355000Y-34925000D02*
G75*
G03X35355000Y-34925000I-1700000J0D01*
G01*
X41070000Y-34925000D02*
G75*
G03X41070000Y-34925000I-1700000J0D01*
G01*
X29640000Y-34925000D02*
G75*
G03X29640000Y-34925000I-1700000J0D01*
G01*
X23925000Y-34925000D02*
G75*
G03X23925000Y-34925000I-1700000J0D01*
G01*
X52500000Y-34925000D02*
G75*
G03X52500000Y-34925000I-1700000J0D01*
G01*
X46785000Y-34925000D02*
G75*
G03X46785000Y-34925000I-1700000J0D01*
G01*
X42707779Y-47623000D02*
X42382221Y-47623000D01*
X42707779Y-48643000D02*
X42382221Y-48643000D01*
X20445000Y-46192221D02*
X20445000Y-46517779D01*
X21465000Y-46192221D02*
X21465000Y-46517779D01*
X51230000Y-41910000D02*
G75*
G03X51230000Y-41910000I-1700000J0D01*
G01*
X20445000Y-50002221D02*
X20445000Y-50327779D01*
X21465000Y-50002221D02*
X21465000Y-50327779D01*
X36357779Y-41400000D02*
X36032221Y-41400000D01*
X36357779Y-42420000D02*
X36032221Y-42420000D01*
X33450000Y-41910000D02*
G75*
G03X33450000Y-41910000I-1700000J0D01*
G01*
X48565000Y-50109000D02*
X48565000Y-52409000D01*
X51765000Y-51709000D02*
X51765000Y-50109000D01*
X50767064Y-46334000D02*
X49562936Y-46334000D01*
X50767064Y-48154000D02*
X49562936Y-48154000D01*
X50767064Y-53319000D02*
X49562936Y-53319000D01*
X50767064Y-55139000D02*
X49562936Y-55139000D01*
X42340000Y-41910000D02*
G75*
G03X42340000Y-41910000I-1700000J0D01*
G01*
D12*
X19732666Y-58761380D02*
X19732666Y-59475666D01*
X19685047Y-59618523D01*
X19589809Y-59713761D01*
X19446952Y-59761380D01*
X19351714Y-59761380D01*
X20161238Y-58856619D02*
X20208857Y-58809000D01*
X20304095Y-58761380D01*
X20542190Y-58761380D01*
X20637428Y-58809000D01*
X20685047Y-58856619D01*
X20732666Y-58951857D01*
X20732666Y-59047095D01*
X20685047Y-59189952D01*
X20113619Y-59761380D01*
X20732666Y-59761380D01*
X39203333Y-57983380D02*
X38870000Y-57507190D01*
X38631904Y-57983380D02*
X38631904Y-56983380D01*
X39012857Y-56983380D01*
X39108095Y-57031000D01*
X39155714Y-57078619D01*
X39203333Y-57173857D01*
X39203333Y-57316714D01*
X39155714Y-57411952D01*
X39108095Y-57459571D01*
X39012857Y-57507190D01*
X38631904Y-57507190D01*
X39679523Y-57983380D02*
X39870000Y-57983380D01*
X39965238Y-57935761D01*
X40012857Y-57888142D01*
X40108095Y-57745285D01*
X40155714Y-57554809D01*
X40155714Y-57173857D01*
X40108095Y-57078619D01*
X40060476Y-57031000D01*
X39965238Y-56983380D01*
X39774761Y-56983380D01*
X39679523Y-57031000D01*
X39631904Y-57078619D01*
X39584285Y-57173857D01*
X39584285Y-57411952D01*
X39631904Y-57507190D01*
X39679523Y-57554809D01*
X39774761Y-57602428D01*
X39965238Y-57602428D01*
X40060476Y-57554809D01*
X40108095Y-57507190D01*
X40155714Y-57411952D01*
X44410333Y-57856380D02*
X44077000Y-57380190D01*
X43838904Y-57856380D02*
X43838904Y-56856380D01*
X44219857Y-56856380D01*
X44315095Y-56904000D01*
X44362714Y-56951619D01*
X44410333Y-57046857D01*
X44410333Y-57189714D01*
X44362714Y-57284952D01*
X44315095Y-57332571D01*
X44219857Y-57380190D01*
X43838904Y-57380190D01*
X45267476Y-57189714D02*
X45267476Y-57856380D01*
X45029380Y-56808761D02*
X44791285Y-57523047D01*
X45410333Y-57523047D01*
X20788333Y-57856380D02*
X20455000Y-57380190D01*
X20216904Y-57856380D02*
X20216904Y-56856380D01*
X20597857Y-56856380D01*
X20693095Y-56904000D01*
X20740714Y-56951619D01*
X20788333Y-57046857D01*
X20788333Y-57189714D01*
X20740714Y-57284952D01*
X20693095Y-57332571D01*
X20597857Y-57380190D01*
X20216904Y-57380190D01*
X21121666Y-56856380D02*
X21788333Y-56856380D01*
X21359761Y-57856380D01*
X47188380Y-48680666D02*
X46712190Y-49014000D01*
X47188380Y-49252095D02*
X46188380Y-49252095D01*
X46188380Y-48871142D01*
X46236000Y-48775904D01*
X46283619Y-48728285D01*
X46378857Y-48680666D01*
X46521714Y-48680666D01*
X46616952Y-48728285D01*
X46664571Y-48775904D01*
X46712190Y-48871142D01*
X46712190Y-49252095D01*
X46188380Y-48347333D02*
X46188380Y-47728285D01*
X46569333Y-48061619D01*
X46569333Y-47918761D01*
X46616952Y-47823523D01*
X46664571Y-47775904D01*
X46759809Y-47728285D01*
X46997904Y-47728285D01*
X47093142Y-47775904D01*
X47140761Y-47823523D01*
X47188380Y-47918761D01*
X47188380Y-48204476D01*
X47140761Y-48299714D01*
X47093142Y-48347333D01*
X22098095Y-38743000D02*
X22002857Y-38695380D01*
X21860000Y-38695380D01*
X21717142Y-38743000D01*
X21621904Y-38838238D01*
X21574285Y-38933476D01*
X21526666Y-39123952D01*
X21526666Y-39266809D01*
X21574285Y-39457285D01*
X21621904Y-39552523D01*
X21717142Y-39647761D01*
X21860000Y-39695380D01*
X21955238Y-39695380D01*
X22098095Y-39647761D01*
X22145714Y-39600142D01*
X22145714Y-39266809D01*
X21955238Y-39266809D01*
X22574285Y-39695380D02*
X22574285Y-38695380D01*
X23145714Y-39695380D01*
X23145714Y-38695380D01*
X23621904Y-39695380D02*
X23621904Y-38695380D01*
X23860000Y-38695380D01*
X24002857Y-38743000D01*
X24098095Y-38838238D01*
X24145714Y-38933476D01*
X24193333Y-39123952D01*
X24193333Y-39266809D01*
X24145714Y-39457285D01*
X24098095Y-39552523D01*
X24002857Y-39647761D01*
X23860000Y-39695380D01*
X23621904Y-39695380D01*
X37465095Y-47995380D02*
X37465095Y-48804904D01*
X37512714Y-48900142D01*
X37560333Y-48947761D01*
X37655571Y-48995380D01*
X37846047Y-48995380D01*
X37941285Y-48947761D01*
X37988904Y-48900142D01*
X38036523Y-48804904D01*
X38036523Y-47995380D01*
X39036523Y-48995380D02*
X38465095Y-48995380D01*
X38750809Y-48995380D02*
X38750809Y-47995380D01*
X38655571Y-48138238D01*
X38560333Y-48233476D01*
X38465095Y-48281095D01*
X22606095Y-56729380D02*
X22606095Y-57538904D01*
X22653714Y-57634142D01*
X22701333Y-57681761D01*
X22796571Y-57729380D01*
X22987047Y-57729380D01*
X23082285Y-57681761D01*
X23129904Y-57634142D01*
X23177523Y-57538904D01*
X23177523Y-56729380D01*
X23606095Y-56824619D02*
X23653714Y-56777000D01*
X23748952Y-56729380D01*
X23987047Y-56729380D01*
X24082285Y-56777000D01*
X24129904Y-56824619D01*
X24177523Y-56919857D01*
X24177523Y-57015095D01*
X24129904Y-57157952D01*
X23558476Y-57729380D01*
X24177523Y-57729380D01*
X37679333Y-47188380D02*
X37346000Y-46712190D01*
X37107904Y-47188380D02*
X37107904Y-46188380D01*
X37488857Y-46188380D01*
X37584095Y-46236000D01*
X37631714Y-46283619D01*
X37679333Y-46378857D01*
X37679333Y-46521714D01*
X37631714Y-46616952D01*
X37584095Y-46664571D01*
X37488857Y-46712190D01*
X37107904Y-46712190D01*
X38060285Y-46283619D02*
X38107904Y-46236000D01*
X38203142Y-46188380D01*
X38441238Y-46188380D01*
X38536476Y-46236000D01*
X38584095Y-46283619D01*
X38631714Y-46378857D01*
X38631714Y-46474095D01*
X38584095Y-46616952D01*
X38012666Y-47188380D01*
X38631714Y-47188380D01*
X31607380Y-38044380D02*
X31607380Y-37044380D01*
X32274047Y-37044380D02*
X32464523Y-37044380D01*
X32559761Y-37092000D01*
X32655000Y-37187238D01*
X32702619Y-37377714D01*
X32702619Y-37711047D01*
X32655000Y-37901523D01*
X32559761Y-37996761D01*
X32464523Y-38044380D01*
X32274047Y-38044380D01*
X32178809Y-37996761D01*
X32083571Y-37901523D01*
X32035952Y-37711047D01*
X32035952Y-37377714D01*
X32083571Y-37187238D01*
X32178809Y-37092000D01*
X32274047Y-37044380D01*
X33035952Y-37044380D02*
X33655000Y-37044380D01*
X33321666Y-37425333D01*
X33464523Y-37425333D01*
X33559761Y-37472952D01*
X33607380Y-37520571D01*
X33655000Y-37615809D01*
X33655000Y-37853904D01*
X33607380Y-37949142D01*
X33559761Y-37996761D01*
X33464523Y-38044380D01*
X33178809Y-38044380D01*
X33083571Y-37996761D01*
X33035952Y-37949142D01*
X34797857Y-36996761D02*
X33940714Y-38282476D01*
X35131190Y-38044380D02*
X35131190Y-37044380D01*
X35131190Y-37520571D02*
X35702619Y-37520571D01*
X35702619Y-38044380D02*
X35702619Y-37044380D01*
X36774761Y-38044380D02*
X36774761Y-37044380D01*
X37441428Y-37044380D02*
X37631904Y-37044380D01*
X37727142Y-37092000D01*
X37822380Y-37187238D01*
X37870000Y-37377714D01*
X37870000Y-37711047D01*
X37822380Y-37901523D01*
X37727142Y-37996761D01*
X37631904Y-38044380D01*
X37441428Y-38044380D01*
X37346190Y-37996761D01*
X37250952Y-37901523D01*
X37203333Y-37711047D01*
X37203333Y-37377714D01*
X37250952Y-37187238D01*
X37346190Y-37092000D01*
X37441428Y-37044380D01*
X38250952Y-37139619D02*
X38298571Y-37092000D01*
X38393809Y-37044380D01*
X38631904Y-37044380D01*
X38727142Y-37092000D01*
X38774761Y-37139619D01*
X38822380Y-37234857D01*
X38822380Y-37330095D01*
X38774761Y-37472952D01*
X38203333Y-38044380D01*
X38822380Y-38044380D01*
X39965238Y-36996761D02*
X39108095Y-38282476D01*
X40203333Y-37044380D02*
X40441428Y-38044380D01*
X40631904Y-37330095D01*
X40822380Y-38044380D01*
X41060476Y-37044380D01*
X41441428Y-38044380D02*
X41441428Y-37044380D01*
X41822380Y-37044380D01*
X41917619Y-37092000D01*
X41965238Y-37139619D01*
X42012857Y-37234857D01*
X42012857Y-37377714D01*
X41965238Y-37472952D01*
X41917619Y-37520571D01*
X41822380Y-37568190D01*
X41441428Y-37568190D01*
X27773333Y-37949142D02*
X27725714Y-37996761D01*
X27582857Y-38044380D01*
X27487619Y-38044380D01*
X27344761Y-37996761D01*
X27249523Y-37901523D01*
X27201904Y-37806285D01*
X27154285Y-37615809D01*
X27154285Y-37472952D01*
X27201904Y-37282476D01*
X27249523Y-37187238D01*
X27344761Y-37092000D01*
X27487619Y-37044380D01*
X27582857Y-37044380D01*
X27725714Y-37092000D01*
X27773333Y-37139619D01*
X28154285Y-37996761D02*
X28297142Y-38044380D01*
X28535238Y-38044380D01*
X28630476Y-37996761D01*
X28678095Y-37949142D01*
X28725714Y-37853904D01*
X28725714Y-37758666D01*
X28678095Y-37663428D01*
X28630476Y-37615809D01*
X28535238Y-37568190D01*
X28344761Y-37520571D01*
X28249523Y-37472952D01*
X28201904Y-37425333D01*
X28154285Y-37330095D01*
X28154285Y-37234857D01*
X28201904Y-37139619D01*
X28249523Y-37092000D01*
X28344761Y-37044380D01*
X28582857Y-37044380D01*
X28725714Y-37092000D01*
X20939285Y-37996761D02*
X21082142Y-38044380D01*
X21320238Y-38044380D01*
X21415476Y-37996761D01*
X21463095Y-37949142D01*
X21510714Y-37853904D01*
X21510714Y-37758666D01*
X21463095Y-37663428D01*
X21415476Y-37615809D01*
X21320238Y-37568190D01*
X21129761Y-37520571D01*
X21034523Y-37472952D01*
X20986904Y-37425333D01*
X20939285Y-37330095D01*
X20939285Y-37234857D01*
X20986904Y-37139619D01*
X21034523Y-37092000D01*
X21129761Y-37044380D01*
X21367857Y-37044380D01*
X21510714Y-37092000D01*
X22510714Y-37949142D02*
X22463095Y-37996761D01*
X22320238Y-38044380D01*
X22225000Y-38044380D01*
X22082142Y-37996761D01*
X21986904Y-37901523D01*
X21939285Y-37806285D01*
X21891666Y-37615809D01*
X21891666Y-37472952D01*
X21939285Y-37282476D01*
X21986904Y-37187238D01*
X22082142Y-37092000D01*
X22225000Y-37044380D01*
X22320238Y-37044380D01*
X22463095Y-37092000D01*
X22510714Y-37139619D01*
X22939285Y-38044380D02*
X22939285Y-37044380D01*
X23510714Y-38044380D02*
X23082142Y-37472952D01*
X23510714Y-37044380D02*
X22939285Y-37615809D01*
X48561904Y-38044380D02*
X48561904Y-37044380D01*
X49228571Y-37044380D02*
X49419047Y-37044380D01*
X49514285Y-37092000D01*
X49609523Y-37187238D01*
X49657142Y-37377714D01*
X49657142Y-37711047D01*
X49609523Y-37901523D01*
X49514285Y-37996761D01*
X49419047Y-38044380D01*
X49228571Y-38044380D01*
X49133333Y-37996761D01*
X49038095Y-37901523D01*
X48990476Y-37711047D01*
X48990476Y-37377714D01*
X49038095Y-37187238D01*
X49133333Y-37092000D01*
X49228571Y-37044380D01*
X50276190Y-37044380D02*
X50371428Y-37044380D01*
X50466666Y-37092000D01*
X50514285Y-37139619D01*
X50561904Y-37234857D01*
X50609523Y-37425333D01*
X50609523Y-37663428D01*
X50561904Y-37853904D01*
X50514285Y-37949142D01*
X50466666Y-37996761D01*
X50371428Y-38044380D01*
X50276190Y-38044380D01*
X50180952Y-37996761D01*
X50133333Y-37949142D01*
X50085714Y-37853904D01*
X50038095Y-37663428D01*
X50038095Y-37425333D01*
X50085714Y-37234857D01*
X50133333Y-37139619D01*
X50180952Y-37092000D01*
X50276190Y-37044380D01*
X51752380Y-36996761D02*
X50895238Y-38282476D01*
X52038095Y-37996761D02*
X52180952Y-38044380D01*
X52419047Y-38044380D01*
X52514285Y-37996761D01*
X52561904Y-37949142D01*
X52609523Y-37853904D01*
X52609523Y-37758666D01*
X52561904Y-37663428D01*
X52514285Y-37615809D01*
X52419047Y-37568190D01*
X52228571Y-37520571D01*
X52133333Y-37472952D01*
X52085714Y-37425333D01*
X52038095Y-37330095D01*
X52038095Y-37234857D01*
X52085714Y-37139619D01*
X52133333Y-37092000D01*
X52228571Y-37044380D01*
X52466666Y-37044380D01*
X52609523Y-37092000D01*
X53038095Y-38044380D02*
X53038095Y-37044380D01*
X42561190Y-38044380D02*
X42561190Y-37044380D01*
X43227857Y-37044380D02*
X43418333Y-37044380D01*
X43513571Y-37092000D01*
X43608809Y-37187238D01*
X43656428Y-37377714D01*
X43656428Y-37711047D01*
X43608809Y-37901523D01*
X43513571Y-37996761D01*
X43418333Y-38044380D01*
X43227857Y-38044380D01*
X43132619Y-37996761D01*
X43037380Y-37901523D01*
X42989761Y-37711047D01*
X42989761Y-37377714D01*
X43037380Y-37187238D01*
X43132619Y-37092000D01*
X43227857Y-37044380D01*
X44608809Y-38044380D02*
X44037380Y-38044380D01*
X44323095Y-38044380D02*
X44323095Y-37044380D01*
X44227857Y-37187238D01*
X44132619Y-37282476D01*
X44037380Y-37330095D01*
X45751666Y-36996761D02*
X44894523Y-38282476D01*
X46037380Y-37996761D02*
X46180238Y-38044380D01*
X46418333Y-38044380D01*
X46513571Y-37996761D01*
X46561190Y-37949142D01*
X46608809Y-37853904D01*
X46608809Y-37758666D01*
X46561190Y-37663428D01*
X46513571Y-37615809D01*
X46418333Y-37568190D01*
X46227857Y-37520571D01*
X46132619Y-37472952D01*
X46085000Y-37425333D01*
X46037380Y-37330095D01*
X46037380Y-37234857D01*
X46085000Y-37139619D01*
X46132619Y-37092000D01*
X46227857Y-37044380D01*
X46465952Y-37044380D01*
X46608809Y-37092000D01*
X47227857Y-37044380D02*
X47418333Y-37044380D01*
X47513571Y-37092000D01*
X47608809Y-37187238D01*
X47656428Y-37377714D01*
X47656428Y-37711047D01*
X47608809Y-37901523D01*
X47513571Y-37996761D01*
X47418333Y-38044380D01*
X47227857Y-38044380D01*
X47132619Y-37996761D01*
X47037380Y-37901523D01*
X46989761Y-37711047D01*
X46989761Y-37377714D01*
X47037380Y-37187238D01*
X47132619Y-37092000D01*
X47227857Y-37044380D01*
X42378333Y-47093142D02*
X42330714Y-47140761D01*
X42187857Y-47188380D01*
X42092619Y-47188380D01*
X41949761Y-47140761D01*
X41854523Y-47045523D01*
X41806904Y-46950285D01*
X41759285Y-46759809D01*
X41759285Y-46616952D01*
X41806904Y-46426476D01*
X41854523Y-46331238D01*
X41949761Y-46236000D01*
X42092619Y-46188380D01*
X42187857Y-46188380D01*
X42330714Y-46236000D01*
X42378333Y-46283619D01*
X42711666Y-46188380D02*
X43330714Y-46188380D01*
X42997380Y-46569333D01*
X43140238Y-46569333D01*
X43235476Y-46616952D01*
X43283095Y-46664571D01*
X43330714Y-46759809D01*
X43330714Y-46997904D01*
X43283095Y-47093142D01*
X43235476Y-47140761D01*
X43140238Y-47188380D01*
X42854523Y-47188380D01*
X42759285Y-47140761D01*
X42711666Y-47093142D01*
X20661333Y-44648380D02*
X20328000Y-44172190D01*
X20089904Y-44648380D02*
X20089904Y-43648380D01*
X20470857Y-43648380D01*
X20566095Y-43696000D01*
X20613714Y-43743619D01*
X20661333Y-43838857D01*
X20661333Y-43981714D01*
X20613714Y-44076952D01*
X20566095Y-44124571D01*
X20470857Y-44172190D01*
X20089904Y-44172190D01*
X21518476Y-43648380D02*
X21328000Y-43648380D01*
X21232761Y-43696000D01*
X21185142Y-43743619D01*
X21089904Y-43886476D01*
X21042285Y-44076952D01*
X21042285Y-44457904D01*
X21089904Y-44553142D01*
X21137523Y-44600761D01*
X21232761Y-44648380D01*
X21423238Y-44648380D01*
X21518476Y-44600761D01*
X21566095Y-44553142D01*
X21613714Y-44457904D01*
X21613714Y-44219809D01*
X21566095Y-44124571D01*
X21518476Y-44076952D01*
X21423238Y-44029333D01*
X21232761Y-44029333D01*
X21137523Y-44076952D01*
X21089904Y-44124571D01*
X21042285Y-44219809D01*
X48768095Y-38743000D02*
X48672857Y-38695380D01*
X48530000Y-38695380D01*
X48387142Y-38743000D01*
X48291904Y-38838238D01*
X48244285Y-38933476D01*
X48196666Y-39123952D01*
X48196666Y-39266809D01*
X48244285Y-39457285D01*
X48291904Y-39552523D01*
X48387142Y-39647761D01*
X48530000Y-39695380D01*
X48625238Y-39695380D01*
X48768095Y-39647761D01*
X48815714Y-39600142D01*
X48815714Y-39266809D01*
X48625238Y-39266809D01*
X49244285Y-39695380D02*
X49244285Y-38695380D01*
X49815714Y-39695380D01*
X49815714Y-38695380D01*
X50291904Y-39695380D02*
X50291904Y-38695380D01*
X50530000Y-38695380D01*
X50672857Y-38743000D01*
X50768095Y-38838238D01*
X50815714Y-38933476D01*
X50863333Y-39123952D01*
X50863333Y-39266809D01*
X50815714Y-39457285D01*
X50768095Y-39552523D01*
X50672857Y-39647761D01*
X50530000Y-39695380D01*
X50291904Y-39695380D01*
X20788333Y-53062142D02*
X20740714Y-53109761D01*
X20597857Y-53157380D01*
X20502619Y-53157380D01*
X20359761Y-53109761D01*
X20264523Y-53014523D01*
X20216904Y-52919285D01*
X20169285Y-52728809D01*
X20169285Y-52585952D01*
X20216904Y-52395476D01*
X20264523Y-52300238D01*
X20359761Y-52205000D01*
X20502619Y-52157380D01*
X20597857Y-52157380D01*
X20740714Y-52205000D01*
X20788333Y-52252619D01*
X21645476Y-52157380D02*
X21455000Y-52157380D01*
X21359761Y-52205000D01*
X21312142Y-52252619D01*
X21216904Y-52395476D01*
X21169285Y-52585952D01*
X21169285Y-52966904D01*
X21216904Y-53062142D01*
X21264523Y-53109761D01*
X21359761Y-53157380D01*
X21550238Y-53157380D01*
X21645476Y-53109761D01*
X21693095Y-53062142D01*
X21740714Y-52966904D01*
X21740714Y-52728809D01*
X21693095Y-52633571D01*
X21645476Y-52585952D01*
X21550238Y-52538333D01*
X21359761Y-52538333D01*
X21264523Y-52585952D01*
X21216904Y-52633571D01*
X21169285Y-52728809D01*
X36028333Y-40457380D02*
X35695000Y-39981190D01*
X35456904Y-40457380D02*
X35456904Y-39457380D01*
X35837857Y-39457380D01*
X35933095Y-39505000D01*
X35980714Y-39552619D01*
X36028333Y-39647857D01*
X36028333Y-39790714D01*
X35980714Y-39885952D01*
X35933095Y-39933571D01*
X35837857Y-39981190D01*
X35456904Y-39981190D01*
X36980714Y-40457380D02*
X36409285Y-40457380D01*
X36695000Y-40457380D02*
X36695000Y-39457380D01*
X36599761Y-39600238D01*
X36504523Y-39695476D01*
X36409285Y-39743095D01*
X28892857Y-45108761D02*
X29035714Y-45156380D01*
X29273809Y-45156380D01*
X29369047Y-45108761D01*
X29416666Y-45061142D01*
X29464285Y-44965904D01*
X29464285Y-44870666D01*
X29416666Y-44775428D01*
X29369047Y-44727809D01*
X29273809Y-44680190D01*
X29083333Y-44632571D01*
X28988095Y-44584952D01*
X28940476Y-44537333D01*
X28892857Y-44442095D01*
X28892857Y-44346857D01*
X28940476Y-44251619D01*
X28988095Y-44204000D01*
X29083333Y-44156380D01*
X29321428Y-44156380D01*
X29464285Y-44204000D01*
X29892857Y-45156380D02*
X29892857Y-44156380D01*
X29892857Y-44632571D02*
X30464285Y-44632571D01*
X30464285Y-45156380D02*
X30464285Y-44156380D01*
X30940476Y-44156380D02*
X30940476Y-44965904D01*
X30988095Y-45061142D01*
X31035714Y-45108761D01*
X31130952Y-45156380D01*
X31321428Y-45156380D01*
X31416666Y-45108761D01*
X31464285Y-45061142D01*
X31511904Y-44965904D01*
X31511904Y-44156380D01*
X31988095Y-45156380D02*
X31988095Y-44156380D01*
X32559523Y-45156380D01*
X32559523Y-44156380D01*
X32892857Y-44156380D02*
X33464285Y-44156380D01*
X33178571Y-45156380D02*
X33178571Y-44156380D01*
X33797619Y-44775428D02*
X34559523Y-44775428D01*
X52157380Y-51688904D02*
X52966904Y-51688904D01*
X53062142Y-51641285D01*
X53109761Y-51593666D01*
X53157380Y-51498428D01*
X53157380Y-51307952D01*
X53109761Y-51212714D01*
X53062142Y-51165095D01*
X52966904Y-51117476D01*
X52157380Y-51117476D01*
X52157380Y-50736523D02*
X52157380Y-50117476D01*
X52538333Y-50450809D01*
X52538333Y-50307952D01*
X52585952Y-50212714D01*
X52633571Y-50165095D01*
X52728809Y-50117476D01*
X52966904Y-50117476D01*
X53062142Y-50165095D01*
X53109761Y-50212714D01*
X53157380Y-50307952D01*
X53157380Y-50593666D01*
X53109761Y-50688904D01*
X53062142Y-50736523D01*
X46696333Y-47347142D02*
X46648714Y-47394761D01*
X46505857Y-47442380D01*
X46410619Y-47442380D01*
X46267761Y-47394761D01*
X46172523Y-47299523D01*
X46124904Y-47204285D01*
X46077285Y-47013809D01*
X46077285Y-46870952D01*
X46124904Y-46680476D01*
X46172523Y-46585238D01*
X46267761Y-46490000D01*
X46410619Y-46442380D01*
X46505857Y-46442380D01*
X46648714Y-46490000D01*
X46696333Y-46537619D01*
X47077285Y-46537619D02*
X47124904Y-46490000D01*
X47220142Y-46442380D01*
X47458238Y-46442380D01*
X47553476Y-46490000D01*
X47601095Y-46537619D01*
X47648714Y-46632857D01*
X47648714Y-46728095D01*
X47601095Y-46870952D01*
X47029666Y-47442380D01*
X47648714Y-47442380D01*
X46823333Y-55221142D02*
X46775714Y-55268761D01*
X46632857Y-55316380D01*
X46537619Y-55316380D01*
X46394761Y-55268761D01*
X46299523Y-55173523D01*
X46251904Y-55078285D01*
X46204285Y-54887809D01*
X46204285Y-54744952D01*
X46251904Y-54554476D01*
X46299523Y-54459238D01*
X46394761Y-54364000D01*
X46537619Y-54316380D01*
X46632857Y-54316380D01*
X46775714Y-54364000D01*
X46823333Y-54411619D01*
X47775714Y-55316380D02*
X47204285Y-55316380D01*
X47490000Y-55316380D02*
X47490000Y-54316380D01*
X47394761Y-54459238D01*
X47299523Y-54554476D01*
X47204285Y-54602095D01*
X37782857Y-45108761D02*
X37925714Y-45156380D01*
X38163809Y-45156380D01*
X38259047Y-45108761D01*
X38306666Y-45061142D01*
X38354285Y-44965904D01*
X38354285Y-44870666D01*
X38306666Y-44775428D01*
X38259047Y-44727809D01*
X38163809Y-44680190D01*
X37973333Y-44632571D01*
X37878095Y-44584952D01*
X37830476Y-44537333D01*
X37782857Y-44442095D01*
X37782857Y-44346857D01*
X37830476Y-44251619D01*
X37878095Y-44204000D01*
X37973333Y-44156380D01*
X38211428Y-44156380D01*
X38354285Y-44204000D01*
X38782857Y-45156380D02*
X38782857Y-44156380D01*
X38782857Y-44632571D02*
X39354285Y-44632571D01*
X39354285Y-45156380D02*
X39354285Y-44156380D01*
X39830476Y-44156380D02*
X39830476Y-44965904D01*
X39878095Y-45061142D01*
X39925714Y-45108761D01*
X40020952Y-45156380D01*
X40211428Y-45156380D01*
X40306666Y-45108761D01*
X40354285Y-45061142D01*
X40401904Y-44965904D01*
X40401904Y-44156380D01*
X40878095Y-45156380D02*
X40878095Y-44156380D01*
X41449523Y-45156380D01*
X41449523Y-44156380D01*
X41782857Y-44156380D02*
X42354285Y-44156380D01*
X42068571Y-45156380D02*
X42068571Y-44156380D01*
X42687619Y-44775428D02*
X43449523Y-44775428D01*
X43068571Y-45156380D02*
X43068571Y-44394476D01*
M02*
