G04 #@! TF.GenerationSoftware,KiCad,Pcbnew,(5.1.4)-1*
G04 #@! TF.CreationDate,2019-12-12T20:06:14+09:00*
G04 #@! TF.ProjectId,microcar_head,6d696372-6f63-4617-925f-686561642e6b,rev?*
G04 #@! TF.SameCoordinates,Original*
G04 #@! TF.FileFunction,Soldermask,Top*
G04 #@! TF.FilePolarity,Negative*
%FSLAX46Y46*%
G04 Gerber Fmt 4.6, Leading zero omitted, Abs format (unit mm)*
G04 Created by KiCad (PCBNEW (5.1.4)-1) date 2019-12-12 20:06:14*
%MOMM*%
%LPD*%
G04 APERTURE LIST*
%ADD10C,0.100000*%
G04 APERTURE END LIST*
D10*
G36*
X52209000Y-65036000D02*
G01*
X50407000Y-65036000D01*
X50407000Y-63234000D01*
X52209000Y-63234000D01*
X52209000Y-65036000D01*
X52209000Y-65036000D01*
G37*
G36*
X43798443Y-63240519D02*
G01*
X43864627Y-63247037D01*
X44034466Y-63298557D01*
X44190991Y-63382222D01*
X44226729Y-63411552D01*
X44328186Y-63494814D01*
X44411448Y-63596271D01*
X44440778Y-63632009D01*
X44524443Y-63788534D01*
X44575963Y-63958373D01*
X44593359Y-64135000D01*
X44575963Y-64311627D01*
X44524443Y-64481466D01*
X44440778Y-64637991D01*
X44411448Y-64673729D01*
X44328186Y-64775186D01*
X44226729Y-64858448D01*
X44190991Y-64887778D01*
X44034466Y-64971443D01*
X43864627Y-65022963D01*
X43798442Y-65029482D01*
X43732260Y-65036000D01*
X43643740Y-65036000D01*
X43577558Y-65029482D01*
X43511373Y-65022963D01*
X43341534Y-64971443D01*
X43185009Y-64887778D01*
X43149271Y-64858448D01*
X43047814Y-64775186D01*
X42964552Y-64673729D01*
X42935222Y-64637991D01*
X42851557Y-64481466D01*
X42800037Y-64311627D01*
X42782641Y-64135000D01*
X42800037Y-63958373D01*
X42851557Y-63788534D01*
X42935222Y-63632009D01*
X42964552Y-63596271D01*
X43047814Y-63494814D01*
X43149271Y-63411552D01*
X43185009Y-63382222D01*
X43341534Y-63298557D01*
X43511373Y-63247037D01*
X43577557Y-63240519D01*
X43643740Y-63234000D01*
X43732260Y-63234000D01*
X43798443Y-63240519D01*
X43798443Y-63240519D01*
G37*
G36*
X48878443Y-63240519D02*
G01*
X48944627Y-63247037D01*
X49114466Y-63298557D01*
X49270991Y-63382222D01*
X49306729Y-63411552D01*
X49408186Y-63494814D01*
X49491448Y-63596271D01*
X49520778Y-63632009D01*
X49604443Y-63788534D01*
X49655963Y-63958373D01*
X49673359Y-64135000D01*
X49655963Y-64311627D01*
X49604443Y-64481466D01*
X49520778Y-64637991D01*
X49491448Y-64673729D01*
X49408186Y-64775186D01*
X49306729Y-64858448D01*
X49270991Y-64887778D01*
X49114466Y-64971443D01*
X48944627Y-65022963D01*
X48878442Y-65029482D01*
X48812260Y-65036000D01*
X48723740Y-65036000D01*
X48657558Y-65029482D01*
X48591373Y-65022963D01*
X48421534Y-64971443D01*
X48265009Y-64887778D01*
X48229271Y-64858448D01*
X48127814Y-64775186D01*
X48044552Y-64673729D01*
X48015222Y-64637991D01*
X47931557Y-64481466D01*
X47880037Y-64311627D01*
X47862641Y-64135000D01*
X47880037Y-63958373D01*
X47931557Y-63788534D01*
X48015222Y-63632009D01*
X48044552Y-63596271D01*
X48127814Y-63494814D01*
X48229271Y-63411552D01*
X48265009Y-63382222D01*
X48421534Y-63298557D01*
X48591373Y-63247037D01*
X48657557Y-63240519D01*
X48723740Y-63234000D01*
X48812260Y-63234000D01*
X48878443Y-63240519D01*
X48878443Y-63240519D01*
G37*
G36*
X46338443Y-63240519D02*
G01*
X46404627Y-63247037D01*
X46574466Y-63298557D01*
X46730991Y-63382222D01*
X46766729Y-63411552D01*
X46868186Y-63494814D01*
X46951448Y-63596271D01*
X46980778Y-63632009D01*
X47064443Y-63788534D01*
X47115963Y-63958373D01*
X47133359Y-64135000D01*
X47115963Y-64311627D01*
X47064443Y-64481466D01*
X46980778Y-64637991D01*
X46951448Y-64673729D01*
X46868186Y-64775186D01*
X46766729Y-64858448D01*
X46730991Y-64887778D01*
X46574466Y-64971443D01*
X46404627Y-65022963D01*
X46338442Y-65029482D01*
X46272260Y-65036000D01*
X46183740Y-65036000D01*
X46117558Y-65029482D01*
X46051373Y-65022963D01*
X45881534Y-64971443D01*
X45725009Y-64887778D01*
X45689271Y-64858448D01*
X45587814Y-64775186D01*
X45504552Y-64673729D01*
X45475222Y-64637991D01*
X45391557Y-64481466D01*
X45340037Y-64311627D01*
X45322641Y-64135000D01*
X45340037Y-63958373D01*
X45391557Y-63788534D01*
X45475222Y-63632009D01*
X45504552Y-63596271D01*
X45587814Y-63494814D01*
X45689271Y-63411552D01*
X45725009Y-63382222D01*
X45881534Y-63298557D01*
X46051373Y-63247037D01*
X46117557Y-63240519D01*
X46183740Y-63234000D01*
X46272260Y-63234000D01*
X46338443Y-63240519D01*
X46338443Y-63240519D01*
G37*
G36*
X41258443Y-63240519D02*
G01*
X41324627Y-63247037D01*
X41494466Y-63298557D01*
X41650991Y-63382222D01*
X41686729Y-63411552D01*
X41788186Y-63494814D01*
X41871448Y-63596271D01*
X41900778Y-63632009D01*
X41984443Y-63788534D01*
X42035963Y-63958373D01*
X42053359Y-64135000D01*
X42035963Y-64311627D01*
X41984443Y-64481466D01*
X41900778Y-64637991D01*
X41871448Y-64673729D01*
X41788186Y-64775186D01*
X41686729Y-64858448D01*
X41650991Y-64887778D01*
X41494466Y-64971443D01*
X41324627Y-65022963D01*
X41258442Y-65029482D01*
X41192260Y-65036000D01*
X41103740Y-65036000D01*
X41037558Y-65029482D01*
X40971373Y-65022963D01*
X40801534Y-64971443D01*
X40645009Y-64887778D01*
X40609271Y-64858448D01*
X40507814Y-64775186D01*
X40424552Y-64673729D01*
X40395222Y-64637991D01*
X40311557Y-64481466D01*
X40260037Y-64311627D01*
X40242641Y-64135000D01*
X40260037Y-63958373D01*
X40311557Y-63788534D01*
X40395222Y-63632009D01*
X40424552Y-63596271D01*
X40507814Y-63494814D01*
X40609271Y-63411552D01*
X40645009Y-63382222D01*
X40801534Y-63298557D01*
X40971373Y-63247037D01*
X41037557Y-63240519D01*
X41103740Y-63234000D01*
X41192260Y-63234000D01*
X41258443Y-63240519D01*
X41258443Y-63240519D01*
G37*
G36*
X38718443Y-63240519D02*
G01*
X38784627Y-63247037D01*
X38954466Y-63298557D01*
X39110991Y-63382222D01*
X39146729Y-63411552D01*
X39248186Y-63494814D01*
X39331448Y-63596271D01*
X39360778Y-63632009D01*
X39444443Y-63788534D01*
X39495963Y-63958373D01*
X39513359Y-64135000D01*
X39495963Y-64311627D01*
X39444443Y-64481466D01*
X39360778Y-64637991D01*
X39331448Y-64673729D01*
X39248186Y-64775186D01*
X39146729Y-64858448D01*
X39110991Y-64887778D01*
X38954466Y-64971443D01*
X38784627Y-65022963D01*
X38718442Y-65029482D01*
X38652260Y-65036000D01*
X38563740Y-65036000D01*
X38497558Y-65029482D01*
X38431373Y-65022963D01*
X38261534Y-64971443D01*
X38105009Y-64887778D01*
X38069271Y-64858448D01*
X37967814Y-64775186D01*
X37884552Y-64673729D01*
X37855222Y-64637991D01*
X37771557Y-64481466D01*
X37720037Y-64311627D01*
X37702641Y-64135000D01*
X37720037Y-63958373D01*
X37771557Y-63788534D01*
X37855222Y-63632009D01*
X37884552Y-63596271D01*
X37967814Y-63494814D01*
X38069271Y-63411552D01*
X38105009Y-63382222D01*
X38261534Y-63298557D01*
X38431373Y-63247037D01*
X38497557Y-63240519D01*
X38563740Y-63234000D01*
X38652260Y-63234000D01*
X38718443Y-63240519D01*
X38718443Y-63240519D01*
G37*
G36*
X36178443Y-63240519D02*
G01*
X36244627Y-63247037D01*
X36414466Y-63298557D01*
X36570991Y-63382222D01*
X36606729Y-63411552D01*
X36708186Y-63494814D01*
X36791448Y-63596271D01*
X36820778Y-63632009D01*
X36904443Y-63788534D01*
X36955963Y-63958373D01*
X36973359Y-64135000D01*
X36955963Y-64311627D01*
X36904443Y-64481466D01*
X36820778Y-64637991D01*
X36791448Y-64673729D01*
X36708186Y-64775186D01*
X36606729Y-64858448D01*
X36570991Y-64887778D01*
X36414466Y-64971443D01*
X36244627Y-65022963D01*
X36178442Y-65029482D01*
X36112260Y-65036000D01*
X36023740Y-65036000D01*
X35957558Y-65029482D01*
X35891373Y-65022963D01*
X35721534Y-64971443D01*
X35565009Y-64887778D01*
X35529271Y-64858448D01*
X35427814Y-64775186D01*
X35344552Y-64673729D01*
X35315222Y-64637991D01*
X35231557Y-64481466D01*
X35180037Y-64311627D01*
X35162641Y-64135000D01*
X35180037Y-63958373D01*
X35231557Y-63788534D01*
X35315222Y-63632009D01*
X35344552Y-63596271D01*
X35427814Y-63494814D01*
X35529271Y-63411552D01*
X35565009Y-63382222D01*
X35721534Y-63298557D01*
X35891373Y-63247037D01*
X35957557Y-63240519D01*
X36023740Y-63234000D01*
X36112260Y-63234000D01*
X36178443Y-63240519D01*
X36178443Y-63240519D01*
G37*
G36*
X31098443Y-63240519D02*
G01*
X31164627Y-63247037D01*
X31334466Y-63298557D01*
X31490991Y-63382222D01*
X31526729Y-63411552D01*
X31628186Y-63494814D01*
X31711448Y-63596271D01*
X31740778Y-63632009D01*
X31824443Y-63788534D01*
X31875963Y-63958373D01*
X31893359Y-64135000D01*
X31875963Y-64311627D01*
X31824443Y-64481466D01*
X31740778Y-64637991D01*
X31711448Y-64673729D01*
X31628186Y-64775186D01*
X31526729Y-64858448D01*
X31490991Y-64887778D01*
X31334466Y-64971443D01*
X31164627Y-65022963D01*
X31098442Y-65029482D01*
X31032260Y-65036000D01*
X30943740Y-65036000D01*
X30877558Y-65029482D01*
X30811373Y-65022963D01*
X30641534Y-64971443D01*
X30485009Y-64887778D01*
X30449271Y-64858448D01*
X30347814Y-64775186D01*
X30264552Y-64673729D01*
X30235222Y-64637991D01*
X30151557Y-64481466D01*
X30100037Y-64311627D01*
X30082641Y-64135000D01*
X30100037Y-63958373D01*
X30151557Y-63788534D01*
X30235222Y-63632009D01*
X30264552Y-63596271D01*
X30347814Y-63494814D01*
X30449271Y-63411552D01*
X30485009Y-63382222D01*
X30641534Y-63298557D01*
X30811373Y-63247037D01*
X30877557Y-63240519D01*
X30943740Y-63234000D01*
X31032260Y-63234000D01*
X31098443Y-63240519D01*
X31098443Y-63240519D01*
G37*
G36*
X28558443Y-63240519D02*
G01*
X28624627Y-63247037D01*
X28794466Y-63298557D01*
X28950991Y-63382222D01*
X28986729Y-63411552D01*
X29088186Y-63494814D01*
X29171448Y-63596271D01*
X29200778Y-63632009D01*
X29284443Y-63788534D01*
X29335963Y-63958373D01*
X29353359Y-64135000D01*
X29335963Y-64311627D01*
X29284443Y-64481466D01*
X29200778Y-64637991D01*
X29171448Y-64673729D01*
X29088186Y-64775186D01*
X28986729Y-64858448D01*
X28950991Y-64887778D01*
X28794466Y-64971443D01*
X28624627Y-65022963D01*
X28558442Y-65029482D01*
X28492260Y-65036000D01*
X28403740Y-65036000D01*
X28337558Y-65029482D01*
X28271373Y-65022963D01*
X28101534Y-64971443D01*
X27945009Y-64887778D01*
X27909271Y-64858448D01*
X27807814Y-64775186D01*
X27724552Y-64673729D01*
X27695222Y-64637991D01*
X27611557Y-64481466D01*
X27560037Y-64311627D01*
X27542641Y-64135000D01*
X27560037Y-63958373D01*
X27611557Y-63788534D01*
X27695222Y-63632009D01*
X27724552Y-63596271D01*
X27807814Y-63494814D01*
X27909271Y-63411552D01*
X27945009Y-63382222D01*
X28101534Y-63298557D01*
X28271373Y-63247037D01*
X28337557Y-63240519D01*
X28403740Y-63234000D01*
X28492260Y-63234000D01*
X28558443Y-63240519D01*
X28558443Y-63240519D01*
G37*
G36*
X26018443Y-63240519D02*
G01*
X26084627Y-63247037D01*
X26254466Y-63298557D01*
X26410991Y-63382222D01*
X26446729Y-63411552D01*
X26548186Y-63494814D01*
X26631448Y-63596271D01*
X26660778Y-63632009D01*
X26744443Y-63788534D01*
X26795963Y-63958373D01*
X26813359Y-64135000D01*
X26795963Y-64311627D01*
X26744443Y-64481466D01*
X26660778Y-64637991D01*
X26631448Y-64673729D01*
X26548186Y-64775186D01*
X26446729Y-64858448D01*
X26410991Y-64887778D01*
X26254466Y-64971443D01*
X26084627Y-65022963D01*
X26018442Y-65029482D01*
X25952260Y-65036000D01*
X25863740Y-65036000D01*
X25797558Y-65029482D01*
X25731373Y-65022963D01*
X25561534Y-64971443D01*
X25405009Y-64887778D01*
X25369271Y-64858448D01*
X25267814Y-64775186D01*
X25184552Y-64673729D01*
X25155222Y-64637991D01*
X25071557Y-64481466D01*
X25020037Y-64311627D01*
X25002641Y-64135000D01*
X25020037Y-63958373D01*
X25071557Y-63788534D01*
X25155222Y-63632009D01*
X25184552Y-63596271D01*
X25267814Y-63494814D01*
X25369271Y-63411552D01*
X25405009Y-63382222D01*
X25561534Y-63298557D01*
X25731373Y-63247037D01*
X25797557Y-63240519D01*
X25863740Y-63234000D01*
X25952260Y-63234000D01*
X26018443Y-63240519D01*
X26018443Y-63240519D01*
G37*
G36*
X23478443Y-63240519D02*
G01*
X23544627Y-63247037D01*
X23714466Y-63298557D01*
X23870991Y-63382222D01*
X23906729Y-63411552D01*
X24008186Y-63494814D01*
X24091448Y-63596271D01*
X24120778Y-63632009D01*
X24204443Y-63788534D01*
X24255963Y-63958373D01*
X24273359Y-64135000D01*
X24255963Y-64311627D01*
X24204443Y-64481466D01*
X24120778Y-64637991D01*
X24091448Y-64673729D01*
X24008186Y-64775186D01*
X23906729Y-64858448D01*
X23870991Y-64887778D01*
X23714466Y-64971443D01*
X23544627Y-65022963D01*
X23478442Y-65029482D01*
X23412260Y-65036000D01*
X23323740Y-65036000D01*
X23257558Y-65029482D01*
X23191373Y-65022963D01*
X23021534Y-64971443D01*
X22865009Y-64887778D01*
X22829271Y-64858448D01*
X22727814Y-64775186D01*
X22644552Y-64673729D01*
X22615222Y-64637991D01*
X22531557Y-64481466D01*
X22480037Y-64311627D01*
X22462641Y-64135000D01*
X22480037Y-63958373D01*
X22531557Y-63788534D01*
X22615222Y-63632009D01*
X22644552Y-63596271D01*
X22727814Y-63494814D01*
X22829271Y-63411552D01*
X22865009Y-63382222D01*
X23021534Y-63298557D01*
X23191373Y-63247037D01*
X23257557Y-63240519D01*
X23323740Y-63234000D01*
X23412260Y-63234000D01*
X23478443Y-63240519D01*
X23478443Y-63240519D01*
G37*
G36*
X20938443Y-63240519D02*
G01*
X21004627Y-63247037D01*
X21174466Y-63298557D01*
X21330991Y-63382222D01*
X21366729Y-63411552D01*
X21468186Y-63494814D01*
X21551448Y-63596271D01*
X21580778Y-63632009D01*
X21664443Y-63788534D01*
X21715963Y-63958373D01*
X21733359Y-64135000D01*
X21715963Y-64311627D01*
X21664443Y-64481466D01*
X21580778Y-64637991D01*
X21551448Y-64673729D01*
X21468186Y-64775186D01*
X21366729Y-64858448D01*
X21330991Y-64887778D01*
X21174466Y-64971443D01*
X21004627Y-65022963D01*
X20938442Y-65029482D01*
X20872260Y-65036000D01*
X20783740Y-65036000D01*
X20717558Y-65029482D01*
X20651373Y-65022963D01*
X20481534Y-64971443D01*
X20325009Y-64887778D01*
X20289271Y-64858448D01*
X20187814Y-64775186D01*
X20104552Y-64673729D01*
X20075222Y-64637991D01*
X19991557Y-64481466D01*
X19940037Y-64311627D01*
X19922641Y-64135000D01*
X19940037Y-63958373D01*
X19991557Y-63788534D01*
X20075222Y-63632009D01*
X20104552Y-63596271D01*
X20187814Y-63494814D01*
X20289271Y-63411552D01*
X20325009Y-63382222D01*
X20481534Y-63298557D01*
X20651373Y-63247037D01*
X20717557Y-63240519D01*
X20783740Y-63234000D01*
X20872260Y-63234000D01*
X20938443Y-63240519D01*
X20938443Y-63240519D01*
G37*
G36*
X33638443Y-63240519D02*
G01*
X33704627Y-63247037D01*
X33874466Y-63298557D01*
X34030991Y-63382222D01*
X34066729Y-63411552D01*
X34168186Y-63494814D01*
X34251448Y-63596271D01*
X34280778Y-63632009D01*
X34364443Y-63788534D01*
X34415963Y-63958373D01*
X34433359Y-64135000D01*
X34415963Y-64311627D01*
X34364443Y-64481466D01*
X34280778Y-64637991D01*
X34251448Y-64673729D01*
X34168186Y-64775186D01*
X34066729Y-64858448D01*
X34030991Y-64887778D01*
X33874466Y-64971443D01*
X33704627Y-65022963D01*
X33638442Y-65029482D01*
X33572260Y-65036000D01*
X33483740Y-65036000D01*
X33417558Y-65029482D01*
X33351373Y-65022963D01*
X33181534Y-64971443D01*
X33025009Y-64887778D01*
X32989271Y-64858448D01*
X32887814Y-64775186D01*
X32804552Y-64673729D01*
X32775222Y-64637991D01*
X32691557Y-64481466D01*
X32640037Y-64311627D01*
X32622641Y-64135000D01*
X32640037Y-63958373D01*
X32691557Y-63788534D01*
X32775222Y-63632009D01*
X32804552Y-63596271D01*
X32887814Y-63494814D01*
X32989271Y-63411552D01*
X33025009Y-63382222D01*
X33181534Y-63298557D01*
X33351373Y-63247037D01*
X33417557Y-63240519D01*
X33483740Y-63234000D01*
X33572260Y-63234000D01*
X33638443Y-63240519D01*
X33638443Y-63240519D01*
G37*
G36*
X51418443Y-60700519D02*
G01*
X51484627Y-60707037D01*
X51654466Y-60758557D01*
X51810991Y-60842222D01*
X51846729Y-60871552D01*
X51948186Y-60954814D01*
X52031448Y-61056271D01*
X52060778Y-61092009D01*
X52144443Y-61248534D01*
X52195963Y-61418373D01*
X52213359Y-61595000D01*
X52195963Y-61771627D01*
X52144443Y-61941466D01*
X52060778Y-62097991D01*
X52031448Y-62133729D01*
X51948186Y-62235186D01*
X51846729Y-62318448D01*
X51810991Y-62347778D01*
X51654466Y-62431443D01*
X51484627Y-62482963D01*
X51418443Y-62489481D01*
X51352260Y-62496000D01*
X51263740Y-62496000D01*
X51197557Y-62489481D01*
X51131373Y-62482963D01*
X50961534Y-62431443D01*
X50805009Y-62347778D01*
X50769271Y-62318448D01*
X50667814Y-62235186D01*
X50584552Y-62133729D01*
X50555222Y-62097991D01*
X50471557Y-61941466D01*
X50420037Y-61771627D01*
X50402641Y-61595000D01*
X50420037Y-61418373D01*
X50471557Y-61248534D01*
X50555222Y-61092009D01*
X50584552Y-61056271D01*
X50667814Y-60954814D01*
X50769271Y-60871552D01*
X50805009Y-60842222D01*
X50961534Y-60758557D01*
X51131373Y-60707037D01*
X51197557Y-60700519D01*
X51263740Y-60694000D01*
X51352260Y-60694000D01*
X51418443Y-60700519D01*
X51418443Y-60700519D01*
G37*
G36*
X48878443Y-60700519D02*
G01*
X48944627Y-60707037D01*
X49114466Y-60758557D01*
X49270991Y-60842222D01*
X49306729Y-60871552D01*
X49408186Y-60954814D01*
X49491448Y-61056271D01*
X49520778Y-61092009D01*
X49604443Y-61248534D01*
X49655963Y-61418373D01*
X49673359Y-61595000D01*
X49655963Y-61771627D01*
X49604443Y-61941466D01*
X49520778Y-62097991D01*
X49491448Y-62133729D01*
X49408186Y-62235186D01*
X49306729Y-62318448D01*
X49270991Y-62347778D01*
X49114466Y-62431443D01*
X48944627Y-62482963D01*
X48878443Y-62489481D01*
X48812260Y-62496000D01*
X48723740Y-62496000D01*
X48657557Y-62489481D01*
X48591373Y-62482963D01*
X48421534Y-62431443D01*
X48265009Y-62347778D01*
X48229271Y-62318448D01*
X48127814Y-62235186D01*
X48044552Y-62133729D01*
X48015222Y-62097991D01*
X47931557Y-61941466D01*
X47880037Y-61771627D01*
X47862641Y-61595000D01*
X47880037Y-61418373D01*
X47931557Y-61248534D01*
X48015222Y-61092009D01*
X48044552Y-61056271D01*
X48127814Y-60954814D01*
X48229271Y-60871552D01*
X48265009Y-60842222D01*
X48421534Y-60758557D01*
X48591373Y-60707037D01*
X48657557Y-60700519D01*
X48723740Y-60694000D01*
X48812260Y-60694000D01*
X48878443Y-60700519D01*
X48878443Y-60700519D01*
G37*
G36*
X46338443Y-60700519D02*
G01*
X46404627Y-60707037D01*
X46574466Y-60758557D01*
X46730991Y-60842222D01*
X46766729Y-60871552D01*
X46868186Y-60954814D01*
X46951448Y-61056271D01*
X46980778Y-61092009D01*
X47064443Y-61248534D01*
X47115963Y-61418373D01*
X47133359Y-61595000D01*
X47115963Y-61771627D01*
X47064443Y-61941466D01*
X46980778Y-62097991D01*
X46951448Y-62133729D01*
X46868186Y-62235186D01*
X46766729Y-62318448D01*
X46730991Y-62347778D01*
X46574466Y-62431443D01*
X46404627Y-62482963D01*
X46338443Y-62489481D01*
X46272260Y-62496000D01*
X46183740Y-62496000D01*
X46117557Y-62489481D01*
X46051373Y-62482963D01*
X45881534Y-62431443D01*
X45725009Y-62347778D01*
X45689271Y-62318448D01*
X45587814Y-62235186D01*
X45504552Y-62133729D01*
X45475222Y-62097991D01*
X45391557Y-61941466D01*
X45340037Y-61771627D01*
X45322641Y-61595000D01*
X45340037Y-61418373D01*
X45391557Y-61248534D01*
X45475222Y-61092009D01*
X45504552Y-61056271D01*
X45587814Y-60954814D01*
X45689271Y-60871552D01*
X45725009Y-60842222D01*
X45881534Y-60758557D01*
X46051373Y-60707037D01*
X46117557Y-60700519D01*
X46183740Y-60694000D01*
X46272260Y-60694000D01*
X46338443Y-60700519D01*
X46338443Y-60700519D01*
G37*
G36*
X20938443Y-60700519D02*
G01*
X21004627Y-60707037D01*
X21174466Y-60758557D01*
X21330991Y-60842222D01*
X21366729Y-60871552D01*
X21468186Y-60954814D01*
X21551448Y-61056271D01*
X21580778Y-61092009D01*
X21664443Y-61248534D01*
X21715963Y-61418373D01*
X21733359Y-61595000D01*
X21715963Y-61771627D01*
X21664443Y-61941466D01*
X21580778Y-62097991D01*
X21551448Y-62133729D01*
X21468186Y-62235186D01*
X21366729Y-62318448D01*
X21330991Y-62347778D01*
X21174466Y-62431443D01*
X21004627Y-62482963D01*
X20938443Y-62489481D01*
X20872260Y-62496000D01*
X20783740Y-62496000D01*
X20717557Y-62489481D01*
X20651373Y-62482963D01*
X20481534Y-62431443D01*
X20325009Y-62347778D01*
X20289271Y-62318448D01*
X20187814Y-62235186D01*
X20104552Y-62133729D01*
X20075222Y-62097991D01*
X19991557Y-61941466D01*
X19940037Y-61771627D01*
X19922641Y-61595000D01*
X19940037Y-61418373D01*
X19991557Y-61248534D01*
X20075222Y-61092009D01*
X20104552Y-61056271D01*
X20187814Y-60954814D01*
X20289271Y-60871552D01*
X20325009Y-60842222D01*
X20481534Y-60758557D01*
X20651373Y-60707037D01*
X20717557Y-60700519D01*
X20783740Y-60694000D01*
X20872260Y-60694000D01*
X20938443Y-60700519D01*
X20938443Y-60700519D01*
G37*
G36*
X43798443Y-60700519D02*
G01*
X43864627Y-60707037D01*
X44034466Y-60758557D01*
X44190991Y-60842222D01*
X44226729Y-60871552D01*
X44328186Y-60954814D01*
X44411448Y-61056271D01*
X44440778Y-61092009D01*
X44524443Y-61248534D01*
X44575963Y-61418373D01*
X44593359Y-61595000D01*
X44575963Y-61771627D01*
X44524443Y-61941466D01*
X44440778Y-62097991D01*
X44411448Y-62133729D01*
X44328186Y-62235186D01*
X44226729Y-62318448D01*
X44190991Y-62347778D01*
X44034466Y-62431443D01*
X43864627Y-62482963D01*
X43798443Y-62489481D01*
X43732260Y-62496000D01*
X43643740Y-62496000D01*
X43577557Y-62489481D01*
X43511373Y-62482963D01*
X43341534Y-62431443D01*
X43185009Y-62347778D01*
X43149271Y-62318448D01*
X43047814Y-62235186D01*
X42964552Y-62133729D01*
X42935222Y-62097991D01*
X42851557Y-61941466D01*
X42800037Y-61771627D01*
X42782641Y-61595000D01*
X42800037Y-61418373D01*
X42851557Y-61248534D01*
X42935222Y-61092009D01*
X42964552Y-61056271D01*
X43047814Y-60954814D01*
X43149271Y-60871552D01*
X43185009Y-60842222D01*
X43341534Y-60758557D01*
X43511373Y-60707037D01*
X43577557Y-60700519D01*
X43643740Y-60694000D01*
X43732260Y-60694000D01*
X43798443Y-60700519D01*
X43798443Y-60700519D01*
G37*
G36*
X41258443Y-60700519D02*
G01*
X41324627Y-60707037D01*
X41494466Y-60758557D01*
X41650991Y-60842222D01*
X41686729Y-60871552D01*
X41788186Y-60954814D01*
X41871448Y-61056271D01*
X41900778Y-61092009D01*
X41984443Y-61248534D01*
X42035963Y-61418373D01*
X42053359Y-61595000D01*
X42035963Y-61771627D01*
X41984443Y-61941466D01*
X41900778Y-62097991D01*
X41871448Y-62133729D01*
X41788186Y-62235186D01*
X41686729Y-62318448D01*
X41650991Y-62347778D01*
X41494466Y-62431443D01*
X41324627Y-62482963D01*
X41258443Y-62489481D01*
X41192260Y-62496000D01*
X41103740Y-62496000D01*
X41037557Y-62489481D01*
X40971373Y-62482963D01*
X40801534Y-62431443D01*
X40645009Y-62347778D01*
X40609271Y-62318448D01*
X40507814Y-62235186D01*
X40424552Y-62133729D01*
X40395222Y-62097991D01*
X40311557Y-61941466D01*
X40260037Y-61771627D01*
X40242641Y-61595000D01*
X40260037Y-61418373D01*
X40311557Y-61248534D01*
X40395222Y-61092009D01*
X40424552Y-61056271D01*
X40507814Y-60954814D01*
X40609271Y-60871552D01*
X40645009Y-60842222D01*
X40801534Y-60758557D01*
X40971373Y-60707037D01*
X41037557Y-60700519D01*
X41103740Y-60694000D01*
X41192260Y-60694000D01*
X41258443Y-60700519D01*
X41258443Y-60700519D01*
G37*
G36*
X33638443Y-60700519D02*
G01*
X33704627Y-60707037D01*
X33874466Y-60758557D01*
X34030991Y-60842222D01*
X34066729Y-60871552D01*
X34168186Y-60954814D01*
X34251448Y-61056271D01*
X34280778Y-61092009D01*
X34364443Y-61248534D01*
X34415963Y-61418373D01*
X34433359Y-61595000D01*
X34415963Y-61771627D01*
X34364443Y-61941466D01*
X34280778Y-62097991D01*
X34251448Y-62133729D01*
X34168186Y-62235186D01*
X34066729Y-62318448D01*
X34030991Y-62347778D01*
X33874466Y-62431443D01*
X33704627Y-62482963D01*
X33638443Y-62489481D01*
X33572260Y-62496000D01*
X33483740Y-62496000D01*
X33417557Y-62489481D01*
X33351373Y-62482963D01*
X33181534Y-62431443D01*
X33025009Y-62347778D01*
X32989271Y-62318448D01*
X32887814Y-62235186D01*
X32804552Y-62133729D01*
X32775222Y-62097991D01*
X32691557Y-61941466D01*
X32640037Y-61771627D01*
X32622641Y-61595000D01*
X32640037Y-61418373D01*
X32691557Y-61248534D01*
X32775222Y-61092009D01*
X32804552Y-61056271D01*
X32887814Y-60954814D01*
X32989271Y-60871552D01*
X33025009Y-60842222D01*
X33181534Y-60758557D01*
X33351373Y-60707037D01*
X33417557Y-60700519D01*
X33483740Y-60694000D01*
X33572260Y-60694000D01*
X33638443Y-60700519D01*
X33638443Y-60700519D01*
G37*
G36*
X31098443Y-60700519D02*
G01*
X31164627Y-60707037D01*
X31334466Y-60758557D01*
X31490991Y-60842222D01*
X31526729Y-60871552D01*
X31628186Y-60954814D01*
X31711448Y-61056271D01*
X31740778Y-61092009D01*
X31824443Y-61248534D01*
X31875963Y-61418373D01*
X31893359Y-61595000D01*
X31875963Y-61771627D01*
X31824443Y-61941466D01*
X31740778Y-62097991D01*
X31711448Y-62133729D01*
X31628186Y-62235186D01*
X31526729Y-62318448D01*
X31490991Y-62347778D01*
X31334466Y-62431443D01*
X31164627Y-62482963D01*
X31098443Y-62489481D01*
X31032260Y-62496000D01*
X30943740Y-62496000D01*
X30877557Y-62489481D01*
X30811373Y-62482963D01*
X30641534Y-62431443D01*
X30485009Y-62347778D01*
X30449271Y-62318448D01*
X30347814Y-62235186D01*
X30264552Y-62133729D01*
X30235222Y-62097991D01*
X30151557Y-61941466D01*
X30100037Y-61771627D01*
X30082641Y-61595000D01*
X30100037Y-61418373D01*
X30151557Y-61248534D01*
X30235222Y-61092009D01*
X30264552Y-61056271D01*
X30347814Y-60954814D01*
X30449271Y-60871552D01*
X30485009Y-60842222D01*
X30641534Y-60758557D01*
X30811373Y-60707037D01*
X30877557Y-60700519D01*
X30943740Y-60694000D01*
X31032260Y-60694000D01*
X31098443Y-60700519D01*
X31098443Y-60700519D01*
G37*
G36*
X23478443Y-60700519D02*
G01*
X23544627Y-60707037D01*
X23714466Y-60758557D01*
X23870991Y-60842222D01*
X23906729Y-60871552D01*
X24008186Y-60954814D01*
X24091448Y-61056271D01*
X24120778Y-61092009D01*
X24204443Y-61248534D01*
X24255963Y-61418373D01*
X24273359Y-61595000D01*
X24255963Y-61771627D01*
X24204443Y-61941466D01*
X24120778Y-62097991D01*
X24091448Y-62133729D01*
X24008186Y-62235186D01*
X23906729Y-62318448D01*
X23870991Y-62347778D01*
X23714466Y-62431443D01*
X23544627Y-62482963D01*
X23478443Y-62489481D01*
X23412260Y-62496000D01*
X23323740Y-62496000D01*
X23257557Y-62489481D01*
X23191373Y-62482963D01*
X23021534Y-62431443D01*
X22865009Y-62347778D01*
X22829271Y-62318448D01*
X22727814Y-62235186D01*
X22644552Y-62133729D01*
X22615222Y-62097991D01*
X22531557Y-61941466D01*
X22480037Y-61771627D01*
X22462641Y-61595000D01*
X22480037Y-61418373D01*
X22531557Y-61248534D01*
X22615222Y-61092009D01*
X22644552Y-61056271D01*
X22727814Y-60954814D01*
X22829271Y-60871552D01*
X22865009Y-60842222D01*
X23021534Y-60758557D01*
X23191373Y-60707037D01*
X23257557Y-60700519D01*
X23323740Y-60694000D01*
X23412260Y-60694000D01*
X23478443Y-60700519D01*
X23478443Y-60700519D01*
G37*
G36*
X28558443Y-60700519D02*
G01*
X28624627Y-60707037D01*
X28794466Y-60758557D01*
X28950991Y-60842222D01*
X28986729Y-60871552D01*
X29088186Y-60954814D01*
X29171448Y-61056271D01*
X29200778Y-61092009D01*
X29284443Y-61248534D01*
X29335963Y-61418373D01*
X29353359Y-61595000D01*
X29335963Y-61771627D01*
X29284443Y-61941466D01*
X29200778Y-62097991D01*
X29171448Y-62133729D01*
X29088186Y-62235186D01*
X28986729Y-62318448D01*
X28950991Y-62347778D01*
X28794466Y-62431443D01*
X28624627Y-62482963D01*
X28558443Y-62489481D01*
X28492260Y-62496000D01*
X28403740Y-62496000D01*
X28337557Y-62489481D01*
X28271373Y-62482963D01*
X28101534Y-62431443D01*
X27945009Y-62347778D01*
X27909271Y-62318448D01*
X27807814Y-62235186D01*
X27724552Y-62133729D01*
X27695222Y-62097991D01*
X27611557Y-61941466D01*
X27560037Y-61771627D01*
X27542641Y-61595000D01*
X27560037Y-61418373D01*
X27611557Y-61248534D01*
X27695222Y-61092009D01*
X27724552Y-61056271D01*
X27807814Y-60954814D01*
X27909271Y-60871552D01*
X27945009Y-60842222D01*
X28101534Y-60758557D01*
X28271373Y-60707037D01*
X28337557Y-60700519D01*
X28403740Y-60694000D01*
X28492260Y-60694000D01*
X28558443Y-60700519D01*
X28558443Y-60700519D01*
G37*
G36*
X26018443Y-60700519D02*
G01*
X26084627Y-60707037D01*
X26254466Y-60758557D01*
X26410991Y-60842222D01*
X26446729Y-60871552D01*
X26548186Y-60954814D01*
X26631448Y-61056271D01*
X26660778Y-61092009D01*
X26744443Y-61248534D01*
X26795963Y-61418373D01*
X26813359Y-61595000D01*
X26795963Y-61771627D01*
X26744443Y-61941466D01*
X26660778Y-62097991D01*
X26631448Y-62133729D01*
X26548186Y-62235186D01*
X26446729Y-62318448D01*
X26410991Y-62347778D01*
X26254466Y-62431443D01*
X26084627Y-62482963D01*
X26018443Y-62489481D01*
X25952260Y-62496000D01*
X25863740Y-62496000D01*
X25797557Y-62489481D01*
X25731373Y-62482963D01*
X25561534Y-62431443D01*
X25405009Y-62347778D01*
X25369271Y-62318448D01*
X25267814Y-62235186D01*
X25184552Y-62133729D01*
X25155222Y-62097991D01*
X25071557Y-61941466D01*
X25020037Y-61771627D01*
X25002641Y-61595000D01*
X25020037Y-61418373D01*
X25071557Y-61248534D01*
X25155222Y-61092009D01*
X25184552Y-61056271D01*
X25267814Y-60954814D01*
X25369271Y-60871552D01*
X25405009Y-60842222D01*
X25561534Y-60758557D01*
X25731373Y-60707037D01*
X25797557Y-60700519D01*
X25863740Y-60694000D01*
X25952260Y-60694000D01*
X26018443Y-60700519D01*
X26018443Y-60700519D01*
G37*
G36*
X36178443Y-60700519D02*
G01*
X36244627Y-60707037D01*
X36414466Y-60758557D01*
X36570991Y-60842222D01*
X36606729Y-60871552D01*
X36708186Y-60954814D01*
X36791448Y-61056271D01*
X36820778Y-61092009D01*
X36904443Y-61248534D01*
X36955963Y-61418373D01*
X36973359Y-61595000D01*
X36955963Y-61771627D01*
X36904443Y-61941466D01*
X36820778Y-62097991D01*
X36791448Y-62133729D01*
X36708186Y-62235186D01*
X36606729Y-62318448D01*
X36570991Y-62347778D01*
X36414466Y-62431443D01*
X36244627Y-62482963D01*
X36178443Y-62489481D01*
X36112260Y-62496000D01*
X36023740Y-62496000D01*
X35957557Y-62489481D01*
X35891373Y-62482963D01*
X35721534Y-62431443D01*
X35565009Y-62347778D01*
X35529271Y-62318448D01*
X35427814Y-62235186D01*
X35344552Y-62133729D01*
X35315222Y-62097991D01*
X35231557Y-61941466D01*
X35180037Y-61771627D01*
X35162641Y-61595000D01*
X35180037Y-61418373D01*
X35231557Y-61248534D01*
X35315222Y-61092009D01*
X35344552Y-61056271D01*
X35427814Y-60954814D01*
X35529271Y-60871552D01*
X35565009Y-60842222D01*
X35721534Y-60758557D01*
X35891373Y-60707037D01*
X35957557Y-60700519D01*
X36023740Y-60694000D01*
X36112260Y-60694000D01*
X36178443Y-60700519D01*
X36178443Y-60700519D01*
G37*
G36*
X38718443Y-60700519D02*
G01*
X38784627Y-60707037D01*
X38954466Y-60758557D01*
X39110991Y-60842222D01*
X39146729Y-60871552D01*
X39248186Y-60954814D01*
X39331448Y-61056271D01*
X39360778Y-61092009D01*
X39444443Y-61248534D01*
X39495963Y-61418373D01*
X39513359Y-61595000D01*
X39495963Y-61771627D01*
X39444443Y-61941466D01*
X39360778Y-62097991D01*
X39331448Y-62133729D01*
X39248186Y-62235186D01*
X39146729Y-62318448D01*
X39110991Y-62347778D01*
X38954466Y-62431443D01*
X38784627Y-62482963D01*
X38718443Y-62489481D01*
X38652260Y-62496000D01*
X38563740Y-62496000D01*
X38497557Y-62489481D01*
X38431373Y-62482963D01*
X38261534Y-62431443D01*
X38105009Y-62347778D01*
X38069271Y-62318448D01*
X37967814Y-62235186D01*
X37884552Y-62133729D01*
X37855222Y-62097991D01*
X37771557Y-61941466D01*
X37720037Y-61771627D01*
X37702641Y-61595000D01*
X37720037Y-61418373D01*
X37771557Y-61248534D01*
X37855222Y-61092009D01*
X37884552Y-61056271D01*
X37967814Y-60954814D01*
X38069271Y-60871552D01*
X38105009Y-60842222D01*
X38261534Y-60758557D01*
X38431373Y-60707037D01*
X38497557Y-60700519D01*
X38563740Y-60694000D01*
X38652260Y-60694000D01*
X38718443Y-60700519D01*
X38718443Y-60700519D01*
G37*
G36*
X41591591Y-56882085D02*
G01*
X41625569Y-56892393D01*
X41656890Y-56909134D01*
X41684339Y-56931661D01*
X41706866Y-56959110D01*
X41723607Y-56990431D01*
X41733915Y-57024409D01*
X41738000Y-57065890D01*
X41738000Y-57742110D01*
X41733915Y-57783591D01*
X41723607Y-57817569D01*
X41706866Y-57848890D01*
X41684339Y-57876339D01*
X41656890Y-57898866D01*
X41625569Y-57915607D01*
X41591591Y-57925915D01*
X41550110Y-57930000D01*
X40948890Y-57930000D01*
X40907409Y-57925915D01*
X40873431Y-57915607D01*
X40842110Y-57898866D01*
X40814661Y-57876339D01*
X40792134Y-57848890D01*
X40775393Y-57817569D01*
X40765085Y-57783591D01*
X40761000Y-57742110D01*
X40761000Y-57065890D01*
X40765085Y-57024409D01*
X40775393Y-56990431D01*
X40792134Y-56959110D01*
X40814661Y-56931661D01*
X40842110Y-56909134D01*
X40873431Y-56892393D01*
X40907409Y-56882085D01*
X40948890Y-56878000D01*
X41550110Y-56878000D01*
X41591591Y-56882085D01*
X41591591Y-56882085D01*
G37*
G36*
X43166591Y-56882085D02*
G01*
X43200569Y-56892393D01*
X43231890Y-56909134D01*
X43259339Y-56931661D01*
X43281866Y-56959110D01*
X43298607Y-56990431D01*
X43308915Y-57024409D01*
X43313000Y-57065890D01*
X43313000Y-57742110D01*
X43308915Y-57783591D01*
X43298607Y-57817569D01*
X43281866Y-57848890D01*
X43259339Y-57876339D01*
X43231890Y-57898866D01*
X43200569Y-57915607D01*
X43166591Y-57925915D01*
X43125110Y-57930000D01*
X42523890Y-57930000D01*
X42482409Y-57925915D01*
X42448431Y-57915607D01*
X42417110Y-57898866D01*
X42389661Y-57876339D01*
X42367134Y-57848890D01*
X42350393Y-57817569D01*
X42340085Y-57783591D01*
X42336000Y-57742110D01*
X42336000Y-57065890D01*
X42340085Y-57024409D01*
X42350393Y-56990431D01*
X42367134Y-56959110D01*
X42389661Y-56931661D01*
X42417110Y-56909134D01*
X42448431Y-56892393D01*
X42482409Y-56882085D01*
X42523890Y-56878000D01*
X43125110Y-56878000D01*
X43166591Y-56882085D01*
X43166591Y-56882085D01*
G37*
G36*
X38086591Y-56882085D02*
G01*
X38120569Y-56892393D01*
X38151890Y-56909134D01*
X38179339Y-56931661D01*
X38201866Y-56959110D01*
X38218607Y-56990431D01*
X38228915Y-57024409D01*
X38233000Y-57065890D01*
X38233000Y-57742110D01*
X38228915Y-57783591D01*
X38218607Y-57817569D01*
X38201866Y-57848890D01*
X38179339Y-57876339D01*
X38151890Y-57898866D01*
X38120569Y-57915607D01*
X38086591Y-57925915D01*
X38045110Y-57930000D01*
X37443890Y-57930000D01*
X37402409Y-57925915D01*
X37368431Y-57915607D01*
X37337110Y-57898866D01*
X37309661Y-57876339D01*
X37287134Y-57848890D01*
X37270393Y-57817569D01*
X37260085Y-57783591D01*
X37256000Y-57742110D01*
X37256000Y-57065890D01*
X37260085Y-57024409D01*
X37270393Y-56990431D01*
X37287134Y-56959110D01*
X37309661Y-56931661D01*
X37337110Y-56909134D01*
X37368431Y-56892393D01*
X37402409Y-56882085D01*
X37443890Y-56878000D01*
X38045110Y-56878000D01*
X38086591Y-56882085D01*
X38086591Y-56882085D01*
G37*
G36*
X36511591Y-56882085D02*
G01*
X36545569Y-56892393D01*
X36576890Y-56909134D01*
X36604339Y-56931661D01*
X36626866Y-56959110D01*
X36643607Y-56990431D01*
X36653915Y-57024409D01*
X36658000Y-57065890D01*
X36658000Y-57742110D01*
X36653915Y-57783591D01*
X36643607Y-57817569D01*
X36626866Y-57848890D01*
X36604339Y-57876339D01*
X36576890Y-57898866D01*
X36545569Y-57915607D01*
X36511591Y-57925915D01*
X36470110Y-57930000D01*
X35868890Y-57930000D01*
X35827409Y-57925915D01*
X35793431Y-57915607D01*
X35762110Y-57898866D01*
X35734661Y-57876339D01*
X35712134Y-57848890D01*
X35695393Y-57817569D01*
X35685085Y-57783591D01*
X35681000Y-57742110D01*
X35681000Y-57065890D01*
X35685085Y-57024409D01*
X35695393Y-56990431D01*
X35712134Y-56959110D01*
X35734661Y-56931661D01*
X35762110Y-56909134D01*
X35793431Y-56892393D01*
X35827409Y-56882085D01*
X35868890Y-56878000D01*
X36470110Y-56878000D01*
X36511591Y-56882085D01*
X36511591Y-56882085D01*
G37*
G36*
X21334591Y-55294085D02*
G01*
X21368569Y-55304393D01*
X21399890Y-55321134D01*
X21427339Y-55343661D01*
X21449866Y-55371110D01*
X21466607Y-55402431D01*
X21476915Y-55436409D01*
X21481000Y-55477890D01*
X21481000Y-56079110D01*
X21476915Y-56120591D01*
X21466607Y-56154569D01*
X21449866Y-56185890D01*
X21427339Y-56213339D01*
X21399890Y-56235866D01*
X21368569Y-56252607D01*
X21334591Y-56262915D01*
X21293110Y-56267000D01*
X20616890Y-56267000D01*
X20575409Y-56262915D01*
X20541431Y-56252607D01*
X20510110Y-56235866D01*
X20482661Y-56213339D01*
X20460134Y-56185890D01*
X20443393Y-56154569D01*
X20433085Y-56120591D01*
X20429000Y-56079110D01*
X20429000Y-55477890D01*
X20433085Y-55436409D01*
X20443393Y-55402431D01*
X20460134Y-55371110D01*
X20482661Y-55343661D01*
X20510110Y-55321134D01*
X20541431Y-55304393D01*
X20575409Y-55294085D01*
X20616890Y-55290000D01*
X21293110Y-55290000D01*
X21334591Y-55294085D01*
X21334591Y-55294085D01*
G37*
G36*
X24909928Y-55531764D02*
G01*
X24931009Y-55538160D01*
X24950445Y-55548548D01*
X24967476Y-55562524D01*
X24981452Y-55579555D01*
X24991840Y-55598991D01*
X24998236Y-55620072D01*
X25001000Y-55648140D01*
X25001000Y-56111860D01*
X24998236Y-56139928D01*
X24991840Y-56161009D01*
X24981452Y-56180445D01*
X24967476Y-56197476D01*
X24950445Y-56211452D01*
X24931009Y-56221840D01*
X24909928Y-56228236D01*
X24881860Y-56231000D01*
X22968140Y-56231000D01*
X22940072Y-56228236D01*
X22918991Y-56221840D01*
X22899555Y-56211452D01*
X22882524Y-56197476D01*
X22868548Y-56180445D01*
X22858160Y-56161009D01*
X22851764Y-56139928D01*
X22849000Y-56111860D01*
X22849000Y-55648140D01*
X22851764Y-55620072D01*
X22858160Y-55598991D01*
X22868548Y-55579555D01*
X22882524Y-55562524D01*
X22899555Y-55548548D01*
X22918991Y-55538160D01*
X22940072Y-55531764D01*
X22968140Y-55529000D01*
X24881860Y-55529000D01*
X24909928Y-55531764D01*
X24909928Y-55531764D01*
G37*
G36*
X34209928Y-55531764D02*
G01*
X34231009Y-55538160D01*
X34250445Y-55548548D01*
X34267476Y-55562524D01*
X34281452Y-55579555D01*
X34291840Y-55598991D01*
X34298236Y-55620072D01*
X34301000Y-55648140D01*
X34301000Y-56111860D01*
X34298236Y-56139928D01*
X34291840Y-56161009D01*
X34281452Y-56180445D01*
X34267476Y-56197476D01*
X34250445Y-56211452D01*
X34231009Y-56221840D01*
X34209928Y-56228236D01*
X34181860Y-56231000D01*
X32268140Y-56231000D01*
X32240072Y-56228236D01*
X32218991Y-56221840D01*
X32199555Y-56211452D01*
X32182524Y-56197476D01*
X32168548Y-56180445D01*
X32158160Y-56161009D01*
X32151764Y-56139928D01*
X32149000Y-56111860D01*
X32149000Y-55648140D01*
X32151764Y-55620072D01*
X32158160Y-55598991D01*
X32168548Y-55579555D01*
X32182524Y-55562524D01*
X32199555Y-55548548D01*
X32218991Y-55538160D01*
X32240072Y-55531764D01*
X32268140Y-55529000D01*
X34181860Y-55529000D01*
X34209928Y-55531764D01*
X34209928Y-55531764D01*
G37*
G36*
X52083604Y-53307347D02*
G01*
X52120144Y-53318432D01*
X52153821Y-53336433D01*
X52183341Y-53360659D01*
X52207567Y-53390179D01*
X52225568Y-53423856D01*
X52236653Y-53460396D01*
X52241000Y-53504538D01*
X52241000Y-54953462D01*
X52236653Y-54997604D01*
X52225568Y-55034144D01*
X52207567Y-55067821D01*
X52183341Y-55097341D01*
X52153821Y-55121567D01*
X52120144Y-55139568D01*
X52083604Y-55150653D01*
X52039462Y-55155000D01*
X51090538Y-55155000D01*
X51046396Y-55150653D01*
X51009856Y-55139568D01*
X50976179Y-55121567D01*
X50946659Y-55097341D01*
X50922433Y-55067821D01*
X50904432Y-55034144D01*
X50893347Y-54997604D01*
X50889000Y-54953462D01*
X50889000Y-53504538D01*
X50893347Y-53460396D01*
X50904432Y-53423856D01*
X50922433Y-53390179D01*
X50946659Y-53360659D01*
X50976179Y-53336433D01*
X51009856Y-53318432D01*
X51046396Y-53307347D01*
X51090538Y-53303000D01*
X52039462Y-53303000D01*
X52083604Y-53307347D01*
X52083604Y-53307347D01*
G37*
G36*
X49283604Y-53307347D02*
G01*
X49320144Y-53318432D01*
X49353821Y-53336433D01*
X49383341Y-53360659D01*
X49407567Y-53390179D01*
X49425568Y-53423856D01*
X49436653Y-53460396D01*
X49441000Y-53504538D01*
X49441000Y-54953462D01*
X49436653Y-54997604D01*
X49425568Y-55034144D01*
X49407567Y-55067821D01*
X49383341Y-55097341D01*
X49353821Y-55121567D01*
X49320144Y-55139568D01*
X49283604Y-55150653D01*
X49239462Y-55155000D01*
X48290538Y-55155000D01*
X48246396Y-55150653D01*
X48209856Y-55139568D01*
X48176179Y-55121567D01*
X48146659Y-55097341D01*
X48122433Y-55067821D01*
X48104432Y-55034144D01*
X48093347Y-54997604D01*
X48089000Y-54953462D01*
X48089000Y-53504538D01*
X48093347Y-53460396D01*
X48104432Y-53423856D01*
X48122433Y-53390179D01*
X48146659Y-53360659D01*
X48176179Y-53336433D01*
X48209856Y-53318432D01*
X48246396Y-53307347D01*
X48290538Y-53303000D01*
X49239462Y-53303000D01*
X49283604Y-53307347D01*
X49283604Y-53307347D01*
G37*
G36*
X34209928Y-54261764D02*
G01*
X34231009Y-54268160D01*
X34250445Y-54278548D01*
X34267476Y-54292524D01*
X34281452Y-54309555D01*
X34291840Y-54328991D01*
X34298236Y-54350072D01*
X34301000Y-54378140D01*
X34301000Y-54841860D01*
X34298236Y-54869928D01*
X34291840Y-54891009D01*
X34281452Y-54910445D01*
X34267476Y-54927476D01*
X34250445Y-54941452D01*
X34231009Y-54951840D01*
X34209928Y-54958236D01*
X34181860Y-54961000D01*
X32268140Y-54961000D01*
X32240072Y-54958236D01*
X32218991Y-54951840D01*
X32199555Y-54941452D01*
X32182524Y-54927476D01*
X32168548Y-54910445D01*
X32158160Y-54891009D01*
X32151764Y-54869928D01*
X32149000Y-54841860D01*
X32149000Y-54378140D01*
X32151764Y-54350072D01*
X32158160Y-54328991D01*
X32168548Y-54309555D01*
X32182524Y-54292524D01*
X32199555Y-54278548D01*
X32218991Y-54268160D01*
X32240072Y-54261764D01*
X32268140Y-54259000D01*
X34181860Y-54259000D01*
X34209928Y-54261764D01*
X34209928Y-54261764D01*
G37*
G36*
X24909928Y-54261764D02*
G01*
X24931009Y-54268160D01*
X24950445Y-54278548D01*
X24967476Y-54292524D01*
X24981452Y-54309555D01*
X24991840Y-54328991D01*
X24998236Y-54350072D01*
X25001000Y-54378140D01*
X25001000Y-54841860D01*
X24998236Y-54869928D01*
X24991840Y-54891009D01*
X24981452Y-54910445D01*
X24967476Y-54927476D01*
X24950445Y-54941452D01*
X24931009Y-54951840D01*
X24909928Y-54958236D01*
X24881860Y-54961000D01*
X22968140Y-54961000D01*
X22940072Y-54958236D01*
X22918991Y-54951840D01*
X22899555Y-54941452D01*
X22882524Y-54927476D01*
X22868548Y-54910445D01*
X22858160Y-54891009D01*
X22851764Y-54869928D01*
X22849000Y-54841860D01*
X22849000Y-54378140D01*
X22851764Y-54350072D01*
X22858160Y-54328991D01*
X22868548Y-54309555D01*
X22882524Y-54292524D01*
X22899555Y-54278548D01*
X22918991Y-54268160D01*
X22940072Y-54261764D01*
X22968140Y-54259000D01*
X24881860Y-54259000D01*
X24909928Y-54261764D01*
X24909928Y-54261764D01*
G37*
G36*
X21334591Y-53719085D02*
G01*
X21368569Y-53729393D01*
X21399890Y-53746134D01*
X21427339Y-53768661D01*
X21449866Y-53796110D01*
X21466607Y-53827431D01*
X21476915Y-53861409D01*
X21481000Y-53902890D01*
X21481000Y-54504110D01*
X21476915Y-54545591D01*
X21466607Y-54579569D01*
X21449866Y-54610890D01*
X21427339Y-54638339D01*
X21399890Y-54660866D01*
X21368569Y-54677607D01*
X21334591Y-54687915D01*
X21293110Y-54692000D01*
X20616890Y-54692000D01*
X20575409Y-54687915D01*
X20541431Y-54677607D01*
X20510110Y-54660866D01*
X20482661Y-54638339D01*
X20460134Y-54610890D01*
X20443393Y-54579569D01*
X20433085Y-54545591D01*
X20429000Y-54504110D01*
X20429000Y-53902890D01*
X20433085Y-53861409D01*
X20443393Y-53827431D01*
X20460134Y-53796110D01*
X20482661Y-53768661D01*
X20510110Y-53746134D01*
X20541431Y-53729393D01*
X20575409Y-53719085D01*
X20616890Y-53715000D01*
X21293110Y-53715000D01*
X21334591Y-53719085D01*
X21334591Y-53719085D01*
G37*
G36*
X43668928Y-53499764D02*
G01*
X43690009Y-53506160D01*
X43709445Y-53516548D01*
X43726476Y-53530524D01*
X43740452Y-53547555D01*
X43750840Y-53566991D01*
X43757236Y-53588072D01*
X43760000Y-53616140D01*
X43760000Y-54079860D01*
X43757236Y-54107928D01*
X43750840Y-54129009D01*
X43740452Y-54148445D01*
X43726476Y-54165476D01*
X43709445Y-54179452D01*
X43690009Y-54189840D01*
X43668928Y-54196236D01*
X43640860Y-54199000D01*
X41827140Y-54199000D01*
X41799072Y-54196236D01*
X41777991Y-54189840D01*
X41758555Y-54179452D01*
X41741524Y-54165476D01*
X41727548Y-54148445D01*
X41717160Y-54129009D01*
X41710764Y-54107928D01*
X41708000Y-54079860D01*
X41708000Y-53616140D01*
X41710764Y-53588072D01*
X41717160Y-53566991D01*
X41727548Y-53547555D01*
X41741524Y-53530524D01*
X41758555Y-53516548D01*
X41777991Y-53506160D01*
X41799072Y-53499764D01*
X41827140Y-53497000D01*
X43640860Y-53497000D01*
X43668928Y-53499764D01*
X43668928Y-53499764D01*
G37*
G36*
X38718928Y-53499764D02*
G01*
X38740009Y-53506160D01*
X38759445Y-53516548D01*
X38776476Y-53530524D01*
X38790452Y-53547555D01*
X38800840Y-53566991D01*
X38807236Y-53588072D01*
X38810000Y-53616140D01*
X38810000Y-54079860D01*
X38807236Y-54107928D01*
X38800840Y-54129009D01*
X38790452Y-54148445D01*
X38776476Y-54165476D01*
X38759445Y-54179452D01*
X38740009Y-54189840D01*
X38718928Y-54196236D01*
X38690860Y-54199000D01*
X36877140Y-54199000D01*
X36849072Y-54196236D01*
X36827991Y-54189840D01*
X36808555Y-54179452D01*
X36791524Y-54165476D01*
X36777548Y-54148445D01*
X36767160Y-54129009D01*
X36760764Y-54107928D01*
X36758000Y-54079860D01*
X36758000Y-53616140D01*
X36760764Y-53588072D01*
X36767160Y-53566991D01*
X36777548Y-53547555D01*
X36791524Y-53530524D01*
X36808555Y-53516548D01*
X36827991Y-53506160D01*
X36849072Y-53499764D01*
X36877140Y-53497000D01*
X38690860Y-53497000D01*
X38718928Y-53499764D01*
X38718928Y-53499764D01*
G37*
G36*
X34209928Y-52991764D02*
G01*
X34231009Y-52998160D01*
X34250445Y-53008548D01*
X34267476Y-53022524D01*
X34281452Y-53039555D01*
X34291840Y-53058991D01*
X34298236Y-53080072D01*
X34301000Y-53108140D01*
X34301000Y-53571860D01*
X34298236Y-53599928D01*
X34291840Y-53621009D01*
X34281452Y-53640445D01*
X34267476Y-53657476D01*
X34250445Y-53671452D01*
X34231009Y-53681840D01*
X34209928Y-53688236D01*
X34181860Y-53691000D01*
X32268140Y-53691000D01*
X32240072Y-53688236D01*
X32218991Y-53681840D01*
X32199555Y-53671452D01*
X32182524Y-53657476D01*
X32168548Y-53640445D01*
X32158160Y-53621009D01*
X32151764Y-53599928D01*
X32149000Y-53571860D01*
X32149000Y-53108140D01*
X32151764Y-53080072D01*
X32158160Y-53058991D01*
X32168548Y-53039555D01*
X32182524Y-53022524D01*
X32199555Y-53008548D01*
X32218991Y-52998160D01*
X32240072Y-52991764D01*
X32268140Y-52989000D01*
X34181860Y-52989000D01*
X34209928Y-52991764D01*
X34209928Y-52991764D01*
G37*
G36*
X24909928Y-52991764D02*
G01*
X24931009Y-52998160D01*
X24950445Y-53008548D01*
X24967476Y-53022524D01*
X24981452Y-53039555D01*
X24991840Y-53058991D01*
X24998236Y-53080072D01*
X25001000Y-53108140D01*
X25001000Y-53571860D01*
X24998236Y-53599928D01*
X24991840Y-53621009D01*
X24981452Y-53640445D01*
X24967476Y-53657476D01*
X24950445Y-53671452D01*
X24931009Y-53681840D01*
X24909928Y-53688236D01*
X24881860Y-53691000D01*
X22968140Y-53691000D01*
X22940072Y-53688236D01*
X22918991Y-53681840D01*
X22899555Y-53671452D01*
X22882524Y-53657476D01*
X22868548Y-53640445D01*
X22858160Y-53621009D01*
X22851764Y-53599928D01*
X22849000Y-53571860D01*
X22849000Y-53108140D01*
X22851764Y-53080072D01*
X22858160Y-53058991D01*
X22868548Y-53039555D01*
X22882524Y-53022524D01*
X22899555Y-53008548D01*
X22918991Y-52998160D01*
X22940072Y-52991764D01*
X22968140Y-52989000D01*
X24881860Y-52989000D01*
X24909928Y-52991764D01*
X24909928Y-52991764D01*
G37*
G36*
X38718928Y-52229764D02*
G01*
X38740009Y-52236160D01*
X38759445Y-52246548D01*
X38776476Y-52260524D01*
X38790452Y-52277555D01*
X38800840Y-52296991D01*
X38807236Y-52318072D01*
X38810000Y-52346140D01*
X38810000Y-52809860D01*
X38807236Y-52837928D01*
X38800840Y-52859009D01*
X38790452Y-52878445D01*
X38776476Y-52895476D01*
X38759445Y-52909452D01*
X38740009Y-52919840D01*
X38718928Y-52926236D01*
X38690860Y-52929000D01*
X36877140Y-52929000D01*
X36849072Y-52926236D01*
X36827991Y-52919840D01*
X36808555Y-52909452D01*
X36791524Y-52895476D01*
X36777548Y-52878445D01*
X36767160Y-52859009D01*
X36760764Y-52837928D01*
X36758000Y-52809860D01*
X36758000Y-52346140D01*
X36760764Y-52318072D01*
X36767160Y-52296991D01*
X36777548Y-52277555D01*
X36791524Y-52260524D01*
X36808555Y-52246548D01*
X36827991Y-52236160D01*
X36849072Y-52229764D01*
X36877140Y-52227000D01*
X38690860Y-52227000D01*
X38718928Y-52229764D01*
X38718928Y-52229764D01*
G37*
G36*
X43668928Y-52229764D02*
G01*
X43690009Y-52236160D01*
X43709445Y-52246548D01*
X43726476Y-52260524D01*
X43740452Y-52277555D01*
X43750840Y-52296991D01*
X43757236Y-52318072D01*
X43760000Y-52346140D01*
X43760000Y-52809860D01*
X43757236Y-52837928D01*
X43750840Y-52859009D01*
X43740452Y-52878445D01*
X43726476Y-52895476D01*
X43709445Y-52909452D01*
X43690009Y-52919840D01*
X43668928Y-52926236D01*
X43640860Y-52929000D01*
X41827140Y-52929000D01*
X41799072Y-52926236D01*
X41777991Y-52919840D01*
X41758555Y-52909452D01*
X41741524Y-52895476D01*
X41727548Y-52878445D01*
X41717160Y-52859009D01*
X41710764Y-52837928D01*
X41708000Y-52809860D01*
X41708000Y-52346140D01*
X41710764Y-52318072D01*
X41717160Y-52296991D01*
X41727548Y-52277555D01*
X41741524Y-52260524D01*
X41758555Y-52246548D01*
X41777991Y-52236160D01*
X41799072Y-52229764D01*
X41827140Y-52227000D01*
X43640860Y-52227000D01*
X43668928Y-52229764D01*
X43668928Y-52229764D01*
G37*
G36*
X49521000Y-52470000D02*
G01*
X48909000Y-52470000D01*
X48909000Y-51668000D01*
X49521000Y-51668000D01*
X49521000Y-52470000D01*
X49521000Y-52470000D01*
G37*
G36*
X51421000Y-52470000D02*
G01*
X50809000Y-52470000D01*
X50809000Y-51668000D01*
X51421000Y-51668000D01*
X51421000Y-52470000D01*
X51421000Y-52470000D01*
G37*
G36*
X50471000Y-52470000D02*
G01*
X49859000Y-52470000D01*
X49859000Y-51668000D01*
X50471000Y-51668000D01*
X50471000Y-52470000D01*
X50471000Y-52470000D01*
G37*
G36*
X34209928Y-51721764D02*
G01*
X34231009Y-51728160D01*
X34250445Y-51738548D01*
X34267476Y-51752524D01*
X34281452Y-51769555D01*
X34291840Y-51788991D01*
X34298236Y-51810072D01*
X34301000Y-51838140D01*
X34301000Y-52301860D01*
X34298236Y-52329928D01*
X34291840Y-52351009D01*
X34281452Y-52370445D01*
X34267476Y-52387476D01*
X34250445Y-52401452D01*
X34231009Y-52411840D01*
X34209928Y-52418236D01*
X34181860Y-52421000D01*
X32268140Y-52421000D01*
X32240072Y-52418236D01*
X32218991Y-52411840D01*
X32199555Y-52401452D01*
X32182524Y-52387476D01*
X32168548Y-52370445D01*
X32158160Y-52351009D01*
X32151764Y-52329928D01*
X32149000Y-52301860D01*
X32149000Y-51838140D01*
X32151764Y-51810072D01*
X32158160Y-51788991D01*
X32168548Y-51769555D01*
X32182524Y-51752524D01*
X32199555Y-51738548D01*
X32218991Y-51728160D01*
X32240072Y-51721764D01*
X32268140Y-51719000D01*
X34181860Y-51719000D01*
X34209928Y-51721764D01*
X34209928Y-51721764D01*
G37*
G36*
X24909928Y-51721764D02*
G01*
X24931009Y-51728160D01*
X24950445Y-51738548D01*
X24967476Y-51752524D01*
X24981452Y-51769555D01*
X24991840Y-51788991D01*
X24998236Y-51810072D01*
X25001000Y-51838140D01*
X25001000Y-52301860D01*
X24998236Y-52329928D01*
X24991840Y-52351009D01*
X24981452Y-52370445D01*
X24967476Y-52387476D01*
X24950445Y-52401452D01*
X24931009Y-52411840D01*
X24909928Y-52418236D01*
X24881860Y-52421000D01*
X22968140Y-52421000D01*
X22940072Y-52418236D01*
X22918991Y-52411840D01*
X22899555Y-52401452D01*
X22882524Y-52387476D01*
X22868548Y-52370445D01*
X22858160Y-52351009D01*
X22851764Y-52329928D01*
X22849000Y-52301860D01*
X22849000Y-51838140D01*
X22851764Y-51810072D01*
X22858160Y-51788991D01*
X22868548Y-51769555D01*
X22882524Y-51752524D01*
X22899555Y-51738548D01*
X22918991Y-51728160D01*
X22940072Y-51721764D01*
X22968140Y-51719000D01*
X24881860Y-51719000D01*
X24909928Y-51721764D01*
X24909928Y-51721764D01*
G37*
G36*
X47115591Y-51230085D02*
G01*
X47149569Y-51240393D01*
X47180890Y-51257134D01*
X47208339Y-51279661D01*
X47230866Y-51307110D01*
X47247607Y-51338431D01*
X47257915Y-51372409D01*
X47262000Y-51413890D01*
X47262000Y-52015110D01*
X47257915Y-52056591D01*
X47247607Y-52090569D01*
X47230866Y-52121890D01*
X47208339Y-52149339D01*
X47180890Y-52171866D01*
X47149569Y-52188607D01*
X47115591Y-52198915D01*
X47074110Y-52203000D01*
X46397890Y-52203000D01*
X46356409Y-52198915D01*
X46322431Y-52188607D01*
X46291110Y-52171866D01*
X46263661Y-52149339D01*
X46241134Y-52121890D01*
X46224393Y-52090569D01*
X46214085Y-52056591D01*
X46210000Y-52015110D01*
X46210000Y-51413890D01*
X46214085Y-51372409D01*
X46224393Y-51338431D01*
X46241134Y-51307110D01*
X46263661Y-51279661D01*
X46291110Y-51257134D01*
X46322431Y-51240393D01*
X46356409Y-51230085D01*
X46397890Y-51226000D01*
X47074110Y-51226000D01*
X47115591Y-51230085D01*
X47115591Y-51230085D01*
G37*
G36*
X38718928Y-50959764D02*
G01*
X38740009Y-50966160D01*
X38759445Y-50976548D01*
X38776476Y-50990524D01*
X38790452Y-51007555D01*
X38800840Y-51026991D01*
X38807236Y-51048072D01*
X38810000Y-51076140D01*
X38810000Y-51539860D01*
X38807236Y-51567928D01*
X38800840Y-51589009D01*
X38790452Y-51608445D01*
X38776476Y-51625476D01*
X38759445Y-51639452D01*
X38740009Y-51649840D01*
X38718928Y-51656236D01*
X38690860Y-51659000D01*
X36877140Y-51659000D01*
X36849072Y-51656236D01*
X36827991Y-51649840D01*
X36808555Y-51639452D01*
X36791524Y-51625476D01*
X36777548Y-51608445D01*
X36767160Y-51589009D01*
X36760764Y-51567928D01*
X36758000Y-51539860D01*
X36758000Y-51076140D01*
X36760764Y-51048072D01*
X36767160Y-51026991D01*
X36777548Y-51007555D01*
X36791524Y-50990524D01*
X36808555Y-50976548D01*
X36827991Y-50966160D01*
X36849072Y-50959764D01*
X36877140Y-50957000D01*
X38690860Y-50957000D01*
X38718928Y-50959764D01*
X38718928Y-50959764D01*
G37*
G36*
X43668928Y-50959764D02*
G01*
X43690009Y-50966160D01*
X43709445Y-50976548D01*
X43726476Y-50990524D01*
X43740452Y-51007555D01*
X43750840Y-51026991D01*
X43757236Y-51048072D01*
X43760000Y-51076140D01*
X43760000Y-51539860D01*
X43757236Y-51567928D01*
X43750840Y-51589009D01*
X43740452Y-51608445D01*
X43726476Y-51625476D01*
X43709445Y-51639452D01*
X43690009Y-51649840D01*
X43668928Y-51656236D01*
X43640860Y-51659000D01*
X41827140Y-51659000D01*
X41799072Y-51656236D01*
X41777991Y-51649840D01*
X41758555Y-51639452D01*
X41741524Y-51625476D01*
X41727548Y-51608445D01*
X41717160Y-51589009D01*
X41710764Y-51567928D01*
X41708000Y-51539860D01*
X41708000Y-51076140D01*
X41710764Y-51048072D01*
X41717160Y-51026991D01*
X41727548Y-51007555D01*
X41741524Y-50990524D01*
X41758555Y-50976548D01*
X41777991Y-50966160D01*
X41799072Y-50959764D01*
X41827140Y-50957000D01*
X43640860Y-50957000D01*
X43668928Y-50959764D01*
X43668928Y-50959764D01*
G37*
G36*
X21334591Y-50468085D02*
G01*
X21368569Y-50478393D01*
X21399890Y-50495134D01*
X21427339Y-50517661D01*
X21449866Y-50545110D01*
X21466607Y-50576431D01*
X21476915Y-50610409D01*
X21481000Y-50651890D01*
X21481000Y-51253110D01*
X21476915Y-51294591D01*
X21466607Y-51328569D01*
X21449866Y-51359890D01*
X21427339Y-51387339D01*
X21399890Y-51409866D01*
X21368569Y-51426607D01*
X21334591Y-51436915D01*
X21293110Y-51441000D01*
X20616890Y-51441000D01*
X20575409Y-51436915D01*
X20541431Y-51426607D01*
X20510110Y-51409866D01*
X20482661Y-51387339D01*
X20460134Y-51359890D01*
X20443393Y-51328569D01*
X20433085Y-51294591D01*
X20429000Y-51253110D01*
X20429000Y-50651890D01*
X20433085Y-50610409D01*
X20443393Y-50576431D01*
X20460134Y-50545110D01*
X20482661Y-50517661D01*
X20510110Y-50495134D01*
X20541431Y-50478393D01*
X20575409Y-50468085D01*
X20616890Y-50464000D01*
X21293110Y-50464000D01*
X21334591Y-50468085D01*
X21334591Y-50468085D01*
G37*
G36*
X34209928Y-50451764D02*
G01*
X34231009Y-50458160D01*
X34250445Y-50468548D01*
X34267476Y-50482524D01*
X34281452Y-50499555D01*
X34291840Y-50518991D01*
X34298236Y-50540072D01*
X34301000Y-50568140D01*
X34301000Y-51031860D01*
X34298236Y-51059928D01*
X34291840Y-51081009D01*
X34281452Y-51100445D01*
X34267476Y-51117476D01*
X34250445Y-51131452D01*
X34231009Y-51141840D01*
X34209928Y-51148236D01*
X34181860Y-51151000D01*
X32268140Y-51151000D01*
X32240072Y-51148236D01*
X32218991Y-51141840D01*
X32199555Y-51131452D01*
X32182524Y-51117476D01*
X32168548Y-51100445D01*
X32158160Y-51081009D01*
X32151764Y-51059928D01*
X32149000Y-51031860D01*
X32149000Y-50568140D01*
X32151764Y-50540072D01*
X32158160Y-50518991D01*
X32168548Y-50499555D01*
X32182524Y-50482524D01*
X32199555Y-50468548D01*
X32218991Y-50458160D01*
X32240072Y-50451764D01*
X32268140Y-50449000D01*
X34181860Y-50449000D01*
X34209928Y-50451764D01*
X34209928Y-50451764D01*
G37*
G36*
X24909928Y-50451764D02*
G01*
X24931009Y-50458160D01*
X24950445Y-50468548D01*
X24967476Y-50482524D01*
X24981452Y-50499555D01*
X24991840Y-50518991D01*
X24998236Y-50540072D01*
X25001000Y-50568140D01*
X25001000Y-51031860D01*
X24998236Y-51059928D01*
X24991840Y-51081009D01*
X24981452Y-51100445D01*
X24967476Y-51117476D01*
X24950445Y-51131452D01*
X24931009Y-51141840D01*
X24909928Y-51148236D01*
X24881860Y-51151000D01*
X22968140Y-51151000D01*
X22940072Y-51148236D01*
X22918991Y-51141840D01*
X22899555Y-51131452D01*
X22882524Y-51117476D01*
X22868548Y-51100445D01*
X22858160Y-51081009D01*
X22851764Y-51059928D01*
X22849000Y-51031860D01*
X22849000Y-50568140D01*
X22851764Y-50540072D01*
X22858160Y-50518991D01*
X22868548Y-50499555D01*
X22882524Y-50482524D01*
X22899555Y-50468548D01*
X22918991Y-50458160D01*
X22940072Y-50451764D01*
X22968140Y-50449000D01*
X24881860Y-50449000D01*
X24909928Y-50451764D01*
X24909928Y-50451764D01*
G37*
G36*
X47115591Y-49655085D02*
G01*
X47149569Y-49665393D01*
X47180890Y-49682134D01*
X47208339Y-49704661D01*
X47230866Y-49732110D01*
X47247607Y-49763431D01*
X47257915Y-49797409D01*
X47262000Y-49838890D01*
X47262000Y-50440110D01*
X47257915Y-50481591D01*
X47247607Y-50515569D01*
X47230866Y-50546890D01*
X47208339Y-50574339D01*
X47180890Y-50596866D01*
X47149569Y-50613607D01*
X47115591Y-50623915D01*
X47074110Y-50628000D01*
X46397890Y-50628000D01*
X46356409Y-50623915D01*
X46322431Y-50613607D01*
X46291110Y-50596866D01*
X46263661Y-50574339D01*
X46241134Y-50546890D01*
X46224393Y-50515569D01*
X46214085Y-50481591D01*
X46210000Y-50440110D01*
X46210000Y-49838890D01*
X46214085Y-49797409D01*
X46224393Y-49763431D01*
X46241134Y-49732110D01*
X46263661Y-49704661D01*
X46291110Y-49682134D01*
X46322431Y-49665393D01*
X46356409Y-49655085D01*
X46397890Y-49651000D01*
X47074110Y-49651000D01*
X47115591Y-49655085D01*
X47115591Y-49655085D01*
G37*
G36*
X43668928Y-49689764D02*
G01*
X43690009Y-49696160D01*
X43709445Y-49706548D01*
X43726476Y-49720524D01*
X43740452Y-49737555D01*
X43750840Y-49756991D01*
X43757236Y-49778072D01*
X43760000Y-49806140D01*
X43760000Y-50269860D01*
X43757236Y-50297928D01*
X43750840Y-50319009D01*
X43740452Y-50338445D01*
X43726476Y-50355476D01*
X43709445Y-50369452D01*
X43690009Y-50379840D01*
X43668928Y-50386236D01*
X43640860Y-50389000D01*
X41827140Y-50389000D01*
X41799072Y-50386236D01*
X41777991Y-50379840D01*
X41758555Y-50369452D01*
X41741524Y-50355476D01*
X41727548Y-50338445D01*
X41717160Y-50319009D01*
X41710764Y-50297928D01*
X41708000Y-50269860D01*
X41708000Y-49806140D01*
X41710764Y-49778072D01*
X41717160Y-49756991D01*
X41727548Y-49737555D01*
X41741524Y-49720524D01*
X41758555Y-49706548D01*
X41777991Y-49696160D01*
X41799072Y-49689764D01*
X41827140Y-49687000D01*
X43640860Y-49687000D01*
X43668928Y-49689764D01*
X43668928Y-49689764D01*
G37*
G36*
X38718928Y-49689764D02*
G01*
X38740009Y-49696160D01*
X38759445Y-49706548D01*
X38776476Y-49720524D01*
X38790452Y-49737555D01*
X38800840Y-49756991D01*
X38807236Y-49778072D01*
X38810000Y-49806140D01*
X38810000Y-50269860D01*
X38807236Y-50297928D01*
X38800840Y-50319009D01*
X38790452Y-50338445D01*
X38776476Y-50355476D01*
X38759445Y-50369452D01*
X38740009Y-50379840D01*
X38718928Y-50386236D01*
X38690860Y-50389000D01*
X36877140Y-50389000D01*
X36849072Y-50386236D01*
X36827991Y-50379840D01*
X36808555Y-50369452D01*
X36791524Y-50355476D01*
X36777548Y-50338445D01*
X36767160Y-50319009D01*
X36760764Y-50297928D01*
X36758000Y-50269860D01*
X36758000Y-49806140D01*
X36760764Y-49778072D01*
X36767160Y-49756991D01*
X36777548Y-49737555D01*
X36791524Y-49720524D01*
X36808555Y-49706548D01*
X36827991Y-49696160D01*
X36849072Y-49689764D01*
X36877140Y-49687000D01*
X38690860Y-49687000D01*
X38718928Y-49689764D01*
X38718928Y-49689764D01*
G37*
G36*
X51421000Y-50150000D02*
G01*
X50809000Y-50150000D01*
X50809000Y-49348000D01*
X51421000Y-49348000D01*
X51421000Y-50150000D01*
X51421000Y-50150000D01*
G37*
G36*
X49521000Y-50150000D02*
G01*
X48909000Y-50150000D01*
X48909000Y-49348000D01*
X49521000Y-49348000D01*
X49521000Y-50150000D01*
X49521000Y-50150000D01*
G37*
G36*
X34209928Y-49181764D02*
G01*
X34231009Y-49188160D01*
X34250445Y-49198548D01*
X34267476Y-49212524D01*
X34281452Y-49229555D01*
X34291840Y-49248991D01*
X34298236Y-49270072D01*
X34301000Y-49298140D01*
X34301000Y-49761860D01*
X34298236Y-49789928D01*
X34291840Y-49811009D01*
X34281452Y-49830445D01*
X34267476Y-49847476D01*
X34250445Y-49861452D01*
X34231009Y-49871840D01*
X34209928Y-49878236D01*
X34181860Y-49881000D01*
X32268140Y-49881000D01*
X32240072Y-49878236D01*
X32218991Y-49871840D01*
X32199555Y-49861452D01*
X32182524Y-49847476D01*
X32168548Y-49830445D01*
X32158160Y-49811009D01*
X32151764Y-49789928D01*
X32149000Y-49761860D01*
X32149000Y-49298140D01*
X32151764Y-49270072D01*
X32158160Y-49248991D01*
X32168548Y-49229555D01*
X32182524Y-49212524D01*
X32199555Y-49198548D01*
X32218991Y-49188160D01*
X32240072Y-49181764D01*
X32268140Y-49179000D01*
X34181860Y-49179000D01*
X34209928Y-49181764D01*
X34209928Y-49181764D01*
G37*
G36*
X24909928Y-49181764D02*
G01*
X24931009Y-49188160D01*
X24950445Y-49198548D01*
X24967476Y-49212524D01*
X24981452Y-49229555D01*
X24991840Y-49248991D01*
X24998236Y-49270072D01*
X25001000Y-49298140D01*
X25001000Y-49761860D01*
X24998236Y-49789928D01*
X24991840Y-49811009D01*
X24981452Y-49830445D01*
X24967476Y-49847476D01*
X24950445Y-49861452D01*
X24931009Y-49871840D01*
X24909928Y-49878236D01*
X24881860Y-49881000D01*
X22968140Y-49881000D01*
X22940072Y-49878236D01*
X22918991Y-49871840D01*
X22899555Y-49861452D01*
X22882524Y-49847476D01*
X22868548Y-49830445D01*
X22858160Y-49811009D01*
X22851764Y-49789928D01*
X22849000Y-49761860D01*
X22849000Y-49298140D01*
X22851764Y-49270072D01*
X22858160Y-49248991D01*
X22868548Y-49229555D01*
X22882524Y-49212524D01*
X22899555Y-49198548D01*
X22918991Y-49188160D01*
X22940072Y-49181764D01*
X22968140Y-49179000D01*
X24881860Y-49179000D01*
X24909928Y-49181764D01*
X24909928Y-49181764D01*
G37*
G36*
X21334591Y-48893085D02*
G01*
X21368569Y-48903393D01*
X21399890Y-48920134D01*
X21427339Y-48942661D01*
X21449866Y-48970110D01*
X21466607Y-49001431D01*
X21476915Y-49035409D01*
X21481000Y-49076890D01*
X21481000Y-49678110D01*
X21476915Y-49719591D01*
X21466607Y-49753569D01*
X21449866Y-49784890D01*
X21427339Y-49812339D01*
X21399890Y-49834866D01*
X21368569Y-49851607D01*
X21334591Y-49861915D01*
X21293110Y-49866000D01*
X20616890Y-49866000D01*
X20575409Y-49861915D01*
X20541431Y-49851607D01*
X20510110Y-49834866D01*
X20482661Y-49812339D01*
X20460134Y-49784890D01*
X20443393Y-49753569D01*
X20433085Y-49719591D01*
X20429000Y-49678110D01*
X20429000Y-49076890D01*
X20433085Y-49035409D01*
X20443393Y-49001431D01*
X20460134Y-48970110D01*
X20482661Y-48942661D01*
X20510110Y-48920134D01*
X20541431Y-48903393D01*
X20575409Y-48893085D01*
X20616890Y-48889000D01*
X21293110Y-48889000D01*
X21334591Y-48893085D01*
X21334591Y-48893085D01*
G37*
G36*
X36447591Y-47928085D02*
G01*
X36481569Y-47938393D01*
X36512890Y-47955134D01*
X36540339Y-47977661D01*
X36562866Y-48005110D01*
X36579607Y-48036431D01*
X36589915Y-48070409D01*
X36594000Y-48111890D01*
X36594000Y-48713110D01*
X36589915Y-48754591D01*
X36579607Y-48788569D01*
X36562866Y-48819890D01*
X36540339Y-48847339D01*
X36512890Y-48869866D01*
X36481569Y-48886607D01*
X36447591Y-48896915D01*
X36406110Y-48901000D01*
X35729890Y-48901000D01*
X35688409Y-48896915D01*
X35654431Y-48886607D01*
X35623110Y-48869866D01*
X35595661Y-48847339D01*
X35573134Y-48819890D01*
X35556393Y-48788569D01*
X35546085Y-48754591D01*
X35542000Y-48713110D01*
X35542000Y-48111890D01*
X35546085Y-48070409D01*
X35556393Y-48036431D01*
X35573134Y-48005110D01*
X35595661Y-47977661D01*
X35623110Y-47955134D01*
X35654431Y-47938393D01*
X35688409Y-47928085D01*
X35729890Y-47924000D01*
X36406110Y-47924000D01*
X36447591Y-47928085D01*
X36447591Y-47928085D01*
G37*
G36*
X42099591Y-47611085D02*
G01*
X42133569Y-47621393D01*
X42164890Y-47638134D01*
X42192339Y-47660661D01*
X42214866Y-47688110D01*
X42231607Y-47719431D01*
X42241915Y-47753409D01*
X42246000Y-47794890D01*
X42246000Y-48471110D01*
X42241915Y-48512591D01*
X42231607Y-48546569D01*
X42214866Y-48577890D01*
X42192339Y-48605339D01*
X42164890Y-48627866D01*
X42133569Y-48644607D01*
X42099591Y-48654915D01*
X42058110Y-48659000D01*
X41456890Y-48659000D01*
X41415409Y-48654915D01*
X41381431Y-48644607D01*
X41350110Y-48627866D01*
X41322661Y-48605339D01*
X41300134Y-48577890D01*
X41283393Y-48546569D01*
X41273085Y-48512591D01*
X41269000Y-48471110D01*
X41269000Y-47794890D01*
X41273085Y-47753409D01*
X41283393Y-47719431D01*
X41300134Y-47688110D01*
X41322661Y-47660661D01*
X41350110Y-47638134D01*
X41381431Y-47621393D01*
X41415409Y-47611085D01*
X41456890Y-47607000D01*
X42058110Y-47607000D01*
X42099591Y-47611085D01*
X42099591Y-47611085D01*
G37*
G36*
X43674591Y-47611085D02*
G01*
X43708569Y-47621393D01*
X43739890Y-47638134D01*
X43767339Y-47660661D01*
X43789866Y-47688110D01*
X43806607Y-47719431D01*
X43816915Y-47753409D01*
X43821000Y-47794890D01*
X43821000Y-48471110D01*
X43816915Y-48512591D01*
X43806607Y-48546569D01*
X43789866Y-48577890D01*
X43767339Y-48605339D01*
X43739890Y-48627866D01*
X43708569Y-48644607D01*
X43674591Y-48654915D01*
X43633110Y-48659000D01*
X43031890Y-48659000D01*
X42990409Y-48654915D01*
X42956431Y-48644607D01*
X42925110Y-48627866D01*
X42897661Y-48605339D01*
X42875134Y-48577890D01*
X42858393Y-48546569D01*
X42848085Y-48512591D01*
X42844000Y-48471110D01*
X42844000Y-47794890D01*
X42848085Y-47753409D01*
X42858393Y-47719431D01*
X42875134Y-47688110D01*
X42897661Y-47660661D01*
X42925110Y-47638134D01*
X42956431Y-47621393D01*
X42990409Y-47611085D01*
X43031890Y-47607000D01*
X43633110Y-47607000D01*
X43674591Y-47611085D01*
X43674591Y-47611085D01*
G37*
G36*
X34209928Y-47911764D02*
G01*
X34231009Y-47918160D01*
X34250445Y-47928548D01*
X34267476Y-47942524D01*
X34281452Y-47959555D01*
X34291840Y-47978991D01*
X34298236Y-48000072D01*
X34301000Y-48028140D01*
X34301000Y-48491860D01*
X34298236Y-48519928D01*
X34291840Y-48541009D01*
X34281452Y-48560445D01*
X34267476Y-48577476D01*
X34250445Y-48591452D01*
X34231009Y-48601840D01*
X34209928Y-48608236D01*
X34181860Y-48611000D01*
X32268140Y-48611000D01*
X32240072Y-48608236D01*
X32218991Y-48601840D01*
X32199555Y-48591452D01*
X32182524Y-48577476D01*
X32168548Y-48560445D01*
X32158160Y-48541009D01*
X32151764Y-48519928D01*
X32149000Y-48491860D01*
X32149000Y-48028140D01*
X32151764Y-48000072D01*
X32158160Y-47978991D01*
X32168548Y-47959555D01*
X32182524Y-47942524D01*
X32199555Y-47928548D01*
X32218991Y-47918160D01*
X32240072Y-47911764D01*
X32268140Y-47909000D01*
X34181860Y-47909000D01*
X34209928Y-47911764D01*
X34209928Y-47911764D01*
G37*
G36*
X24909928Y-47911764D02*
G01*
X24931009Y-47918160D01*
X24950445Y-47928548D01*
X24967476Y-47942524D01*
X24981452Y-47959555D01*
X24991840Y-47978991D01*
X24998236Y-48000072D01*
X25001000Y-48028140D01*
X25001000Y-48491860D01*
X24998236Y-48519928D01*
X24991840Y-48541009D01*
X24981452Y-48560445D01*
X24967476Y-48577476D01*
X24950445Y-48591452D01*
X24931009Y-48601840D01*
X24909928Y-48608236D01*
X24881860Y-48611000D01*
X22968140Y-48611000D01*
X22940072Y-48608236D01*
X22918991Y-48601840D01*
X22899555Y-48591452D01*
X22882524Y-48577476D01*
X22868548Y-48560445D01*
X22858160Y-48541009D01*
X22851764Y-48519928D01*
X22849000Y-48491860D01*
X22849000Y-48028140D01*
X22851764Y-48000072D01*
X22858160Y-47978991D01*
X22868548Y-47959555D01*
X22882524Y-47942524D01*
X22899555Y-47928548D01*
X22918991Y-47918160D01*
X22940072Y-47911764D01*
X22968140Y-47909000D01*
X24881860Y-47909000D01*
X24909928Y-47911764D01*
X24909928Y-47911764D01*
G37*
G36*
X52083604Y-46322347D02*
G01*
X52120144Y-46333432D01*
X52153821Y-46351433D01*
X52183341Y-46375659D01*
X52207567Y-46405179D01*
X52225568Y-46438856D01*
X52236653Y-46475396D01*
X52241000Y-46519538D01*
X52241000Y-47968462D01*
X52236653Y-48012604D01*
X52225568Y-48049144D01*
X52207567Y-48082821D01*
X52183341Y-48112341D01*
X52153821Y-48136567D01*
X52120144Y-48154568D01*
X52083604Y-48165653D01*
X52039462Y-48170000D01*
X51090538Y-48170000D01*
X51046396Y-48165653D01*
X51009856Y-48154568D01*
X50976179Y-48136567D01*
X50946659Y-48112341D01*
X50922433Y-48082821D01*
X50904432Y-48049144D01*
X50893347Y-48012604D01*
X50889000Y-47968462D01*
X50889000Y-46519538D01*
X50893347Y-46475396D01*
X50904432Y-46438856D01*
X50922433Y-46405179D01*
X50946659Y-46375659D01*
X50976179Y-46351433D01*
X51009856Y-46333432D01*
X51046396Y-46322347D01*
X51090538Y-46318000D01*
X52039462Y-46318000D01*
X52083604Y-46322347D01*
X52083604Y-46322347D01*
G37*
G36*
X49283604Y-46322347D02*
G01*
X49320144Y-46333432D01*
X49353821Y-46351433D01*
X49383341Y-46375659D01*
X49407567Y-46405179D01*
X49425568Y-46438856D01*
X49436653Y-46475396D01*
X49441000Y-46519538D01*
X49441000Y-47968462D01*
X49436653Y-48012604D01*
X49425568Y-48049144D01*
X49407567Y-48082821D01*
X49383341Y-48112341D01*
X49353821Y-48136567D01*
X49320144Y-48154568D01*
X49283604Y-48165653D01*
X49239462Y-48170000D01*
X48290538Y-48170000D01*
X48246396Y-48165653D01*
X48209856Y-48154568D01*
X48176179Y-48136567D01*
X48146659Y-48112341D01*
X48122433Y-48082821D01*
X48104432Y-48049144D01*
X48093347Y-48012604D01*
X48089000Y-47968462D01*
X48089000Y-46519538D01*
X48093347Y-46475396D01*
X48104432Y-46438856D01*
X48122433Y-46405179D01*
X48146659Y-46375659D01*
X48176179Y-46351433D01*
X48209856Y-46333432D01*
X48246396Y-46322347D01*
X48290538Y-46318000D01*
X49239462Y-46318000D01*
X49283604Y-46322347D01*
X49283604Y-46322347D01*
G37*
G36*
X21334591Y-46658085D02*
G01*
X21368569Y-46668393D01*
X21399890Y-46685134D01*
X21427339Y-46707661D01*
X21449866Y-46735110D01*
X21466607Y-46766431D01*
X21476915Y-46800409D01*
X21481000Y-46841890D01*
X21481000Y-47443110D01*
X21476915Y-47484591D01*
X21466607Y-47518569D01*
X21449866Y-47549890D01*
X21427339Y-47577339D01*
X21399890Y-47599866D01*
X21368569Y-47616607D01*
X21334591Y-47626915D01*
X21293110Y-47631000D01*
X20616890Y-47631000D01*
X20575409Y-47626915D01*
X20541431Y-47616607D01*
X20510110Y-47599866D01*
X20482661Y-47577339D01*
X20460134Y-47549890D01*
X20443393Y-47518569D01*
X20433085Y-47484591D01*
X20429000Y-47443110D01*
X20429000Y-46841890D01*
X20433085Y-46800409D01*
X20443393Y-46766431D01*
X20460134Y-46735110D01*
X20482661Y-46707661D01*
X20510110Y-46685134D01*
X20541431Y-46668393D01*
X20575409Y-46658085D01*
X20616890Y-46654000D01*
X21293110Y-46654000D01*
X21334591Y-46658085D01*
X21334591Y-46658085D01*
G37*
G36*
X34209928Y-46641764D02*
G01*
X34231009Y-46648160D01*
X34250445Y-46658548D01*
X34267476Y-46672524D01*
X34281452Y-46689555D01*
X34291840Y-46708991D01*
X34298236Y-46730072D01*
X34301000Y-46758140D01*
X34301000Y-47221860D01*
X34298236Y-47249928D01*
X34291840Y-47271009D01*
X34281452Y-47290445D01*
X34267476Y-47307476D01*
X34250445Y-47321452D01*
X34231009Y-47331840D01*
X34209928Y-47338236D01*
X34181860Y-47341000D01*
X32268140Y-47341000D01*
X32240072Y-47338236D01*
X32218991Y-47331840D01*
X32199555Y-47321452D01*
X32182524Y-47307476D01*
X32168548Y-47290445D01*
X32158160Y-47271009D01*
X32151764Y-47249928D01*
X32149000Y-47221860D01*
X32149000Y-46758140D01*
X32151764Y-46730072D01*
X32158160Y-46708991D01*
X32168548Y-46689555D01*
X32182524Y-46672524D01*
X32199555Y-46658548D01*
X32218991Y-46648160D01*
X32240072Y-46641764D01*
X32268140Y-46639000D01*
X34181860Y-46639000D01*
X34209928Y-46641764D01*
X34209928Y-46641764D01*
G37*
G36*
X24909928Y-46641764D02*
G01*
X24931009Y-46648160D01*
X24950445Y-46658548D01*
X24967476Y-46672524D01*
X24981452Y-46689555D01*
X24991840Y-46708991D01*
X24998236Y-46730072D01*
X25001000Y-46758140D01*
X25001000Y-47221860D01*
X24998236Y-47249928D01*
X24991840Y-47271009D01*
X24981452Y-47290445D01*
X24967476Y-47307476D01*
X24950445Y-47321452D01*
X24931009Y-47331840D01*
X24909928Y-47338236D01*
X24881860Y-47341000D01*
X22968140Y-47341000D01*
X22940072Y-47338236D01*
X22918991Y-47331840D01*
X22899555Y-47321452D01*
X22882524Y-47307476D01*
X22868548Y-47290445D01*
X22858160Y-47271009D01*
X22851764Y-47249928D01*
X22849000Y-47221860D01*
X22849000Y-46758140D01*
X22851764Y-46730072D01*
X22858160Y-46708991D01*
X22868548Y-46689555D01*
X22882524Y-46672524D01*
X22899555Y-46658548D01*
X22918991Y-46648160D01*
X22940072Y-46641764D01*
X22968140Y-46639000D01*
X24881860Y-46639000D01*
X24909928Y-46641764D01*
X24909928Y-46641764D01*
G37*
G36*
X36447591Y-46353085D02*
G01*
X36481569Y-46363393D01*
X36512890Y-46380134D01*
X36540339Y-46402661D01*
X36562866Y-46430110D01*
X36579607Y-46461431D01*
X36589915Y-46495409D01*
X36594000Y-46536890D01*
X36594000Y-47138110D01*
X36589915Y-47179591D01*
X36579607Y-47213569D01*
X36562866Y-47244890D01*
X36540339Y-47272339D01*
X36512890Y-47294866D01*
X36481569Y-47311607D01*
X36447591Y-47321915D01*
X36406110Y-47326000D01*
X35729890Y-47326000D01*
X35688409Y-47321915D01*
X35654431Y-47311607D01*
X35623110Y-47294866D01*
X35595661Y-47272339D01*
X35573134Y-47244890D01*
X35556393Y-47213569D01*
X35546085Y-47179591D01*
X35542000Y-47138110D01*
X35542000Y-46536890D01*
X35546085Y-46495409D01*
X35556393Y-46461431D01*
X35573134Y-46430110D01*
X35595661Y-46402661D01*
X35623110Y-46380134D01*
X35654431Y-46363393D01*
X35688409Y-46353085D01*
X35729890Y-46349000D01*
X36406110Y-46349000D01*
X36447591Y-46353085D01*
X36447591Y-46353085D01*
G37*
G36*
X21334591Y-45083085D02*
G01*
X21368569Y-45093393D01*
X21399890Y-45110134D01*
X21427339Y-45132661D01*
X21449866Y-45160110D01*
X21466607Y-45191431D01*
X21476915Y-45225409D01*
X21481000Y-45266890D01*
X21481000Y-45868110D01*
X21476915Y-45909591D01*
X21466607Y-45943569D01*
X21449866Y-45974890D01*
X21427339Y-46002339D01*
X21399890Y-46024866D01*
X21368569Y-46041607D01*
X21334591Y-46051915D01*
X21293110Y-46056000D01*
X20616890Y-46056000D01*
X20575409Y-46051915D01*
X20541431Y-46041607D01*
X20510110Y-46024866D01*
X20482661Y-46002339D01*
X20460134Y-45974890D01*
X20443393Y-45943569D01*
X20433085Y-45909591D01*
X20429000Y-45868110D01*
X20429000Y-45266890D01*
X20433085Y-45225409D01*
X20443393Y-45191431D01*
X20460134Y-45160110D01*
X20482661Y-45132661D01*
X20510110Y-45110134D01*
X20541431Y-45093393D01*
X20575409Y-45083085D01*
X20616890Y-45079000D01*
X21293110Y-45079000D01*
X21334591Y-45083085D01*
X21334591Y-45083085D01*
G37*
G36*
X49832585Y-40388802D02*
G01*
X49982410Y-40418604D01*
X50264674Y-40535521D01*
X50518705Y-40705259D01*
X50734741Y-40921295D01*
X50904479Y-41175326D01*
X51021396Y-41457590D01*
X51081000Y-41757240D01*
X51081000Y-42062760D01*
X51021396Y-42362410D01*
X50904479Y-42644674D01*
X50734741Y-42898705D01*
X50518705Y-43114741D01*
X50264674Y-43284479D01*
X49982410Y-43401396D01*
X49832585Y-43431198D01*
X49682761Y-43461000D01*
X49377239Y-43461000D01*
X49227415Y-43431198D01*
X49077590Y-43401396D01*
X48795326Y-43284479D01*
X48541295Y-43114741D01*
X48325259Y-42898705D01*
X48155521Y-42644674D01*
X48038604Y-42362410D01*
X47979000Y-42062760D01*
X47979000Y-41757240D01*
X48038604Y-41457590D01*
X48155521Y-41175326D01*
X48325259Y-40921295D01*
X48541295Y-40705259D01*
X48795326Y-40535521D01*
X49077590Y-40418604D01*
X49227415Y-40388802D01*
X49377239Y-40359000D01*
X49682761Y-40359000D01*
X49832585Y-40388802D01*
X49832585Y-40388802D01*
G37*
G36*
X23162585Y-40388802D02*
G01*
X23312410Y-40418604D01*
X23594674Y-40535521D01*
X23848705Y-40705259D01*
X24064741Y-40921295D01*
X24234479Y-41175326D01*
X24351396Y-41457590D01*
X24411000Y-41757240D01*
X24411000Y-42062760D01*
X24351396Y-42362410D01*
X24234479Y-42644674D01*
X24064741Y-42898705D01*
X23848705Y-43114741D01*
X23594674Y-43284479D01*
X23312410Y-43401396D01*
X23162585Y-43431198D01*
X23012761Y-43461000D01*
X22707239Y-43461000D01*
X22557415Y-43431198D01*
X22407590Y-43401396D01*
X22125326Y-43284479D01*
X21871295Y-43114741D01*
X21655259Y-42898705D01*
X21485521Y-42644674D01*
X21368604Y-42362410D01*
X21309000Y-42062760D01*
X21309000Y-41757240D01*
X21368604Y-41457590D01*
X21485521Y-41175326D01*
X21655259Y-40921295D01*
X21871295Y-40705259D01*
X22125326Y-40535521D01*
X22407590Y-40418604D01*
X22557415Y-40388802D01*
X22707239Y-40359000D01*
X23012761Y-40359000D01*
X23162585Y-40388802D01*
X23162585Y-40388802D01*
G37*
G36*
X40942585Y-40388802D02*
G01*
X41092410Y-40418604D01*
X41374674Y-40535521D01*
X41628705Y-40705259D01*
X41844741Y-40921295D01*
X42014479Y-41175326D01*
X42131396Y-41457590D01*
X42191000Y-41757240D01*
X42191000Y-42062760D01*
X42131396Y-42362410D01*
X42014479Y-42644674D01*
X41844741Y-42898705D01*
X41628705Y-43114741D01*
X41374674Y-43284479D01*
X41092410Y-43401396D01*
X40942585Y-43431198D01*
X40792761Y-43461000D01*
X40487239Y-43461000D01*
X40337415Y-43431198D01*
X40187590Y-43401396D01*
X39905326Y-43284479D01*
X39651295Y-43114741D01*
X39435259Y-42898705D01*
X39265521Y-42644674D01*
X39148604Y-42362410D01*
X39089000Y-42062760D01*
X39089000Y-41757240D01*
X39148604Y-41457590D01*
X39265521Y-41175326D01*
X39435259Y-40921295D01*
X39651295Y-40705259D01*
X39905326Y-40535521D01*
X40187590Y-40418604D01*
X40337415Y-40388802D01*
X40487239Y-40359000D01*
X40792761Y-40359000D01*
X40942585Y-40388802D01*
X40942585Y-40388802D01*
G37*
G36*
X32052585Y-40388802D02*
G01*
X32202410Y-40418604D01*
X32484674Y-40535521D01*
X32738705Y-40705259D01*
X32954741Y-40921295D01*
X33124479Y-41175326D01*
X33241396Y-41457590D01*
X33301000Y-41757240D01*
X33301000Y-42062760D01*
X33241396Y-42362410D01*
X33124479Y-42644674D01*
X32954741Y-42898705D01*
X32738705Y-43114741D01*
X32484674Y-43284479D01*
X32202410Y-43401396D01*
X32052585Y-43431198D01*
X31902761Y-43461000D01*
X31597239Y-43461000D01*
X31447415Y-43431198D01*
X31297590Y-43401396D01*
X31015326Y-43284479D01*
X30761295Y-43114741D01*
X30545259Y-42898705D01*
X30375521Y-42644674D01*
X30258604Y-42362410D01*
X30199000Y-42062760D01*
X30199000Y-41757240D01*
X30258604Y-41457590D01*
X30375521Y-41175326D01*
X30545259Y-40921295D01*
X30761295Y-40705259D01*
X31015326Y-40535521D01*
X31297590Y-40418604D01*
X31447415Y-40388802D01*
X31597239Y-40359000D01*
X31902761Y-40359000D01*
X32052585Y-40388802D01*
X32052585Y-40388802D01*
G37*
G36*
X35749591Y-41388085D02*
G01*
X35783569Y-41398393D01*
X35814890Y-41415134D01*
X35842339Y-41437661D01*
X35864866Y-41465110D01*
X35881607Y-41496431D01*
X35891915Y-41530409D01*
X35896000Y-41571890D01*
X35896000Y-42248110D01*
X35891915Y-42289591D01*
X35881607Y-42323569D01*
X35864866Y-42354890D01*
X35842339Y-42382339D01*
X35814890Y-42404866D01*
X35783569Y-42421607D01*
X35749591Y-42431915D01*
X35708110Y-42436000D01*
X35106890Y-42436000D01*
X35065409Y-42431915D01*
X35031431Y-42421607D01*
X35000110Y-42404866D01*
X34972661Y-42382339D01*
X34950134Y-42354890D01*
X34933393Y-42323569D01*
X34923085Y-42289591D01*
X34919000Y-42248110D01*
X34919000Y-41571890D01*
X34923085Y-41530409D01*
X34933393Y-41496431D01*
X34950134Y-41465110D01*
X34972661Y-41437661D01*
X35000110Y-41415134D01*
X35031431Y-41398393D01*
X35065409Y-41388085D01*
X35106890Y-41384000D01*
X35708110Y-41384000D01*
X35749591Y-41388085D01*
X35749591Y-41388085D01*
G37*
G36*
X37324591Y-41388085D02*
G01*
X37358569Y-41398393D01*
X37389890Y-41415134D01*
X37417339Y-41437661D01*
X37439866Y-41465110D01*
X37456607Y-41496431D01*
X37466915Y-41530409D01*
X37471000Y-41571890D01*
X37471000Y-42248110D01*
X37466915Y-42289591D01*
X37456607Y-42323569D01*
X37439866Y-42354890D01*
X37417339Y-42382339D01*
X37389890Y-42404866D01*
X37358569Y-42421607D01*
X37324591Y-42431915D01*
X37283110Y-42436000D01*
X36681890Y-42436000D01*
X36640409Y-42431915D01*
X36606431Y-42421607D01*
X36575110Y-42404866D01*
X36547661Y-42382339D01*
X36525134Y-42354890D01*
X36508393Y-42323569D01*
X36498085Y-42289591D01*
X36494000Y-42248110D01*
X36494000Y-41571890D01*
X36498085Y-41530409D01*
X36508393Y-41496431D01*
X36525134Y-41465110D01*
X36547661Y-41437661D01*
X36575110Y-41415134D01*
X36606431Y-41398393D01*
X36640409Y-41388085D01*
X36681890Y-41384000D01*
X37283110Y-41384000D01*
X37324591Y-41388085D01*
X37324591Y-41388085D01*
G37*
G36*
X39672585Y-33403802D02*
G01*
X39822410Y-33433604D01*
X40104674Y-33550521D01*
X40358705Y-33720259D01*
X40574741Y-33936295D01*
X40744479Y-34190326D01*
X40861396Y-34472590D01*
X40921000Y-34772240D01*
X40921000Y-35077760D01*
X40861396Y-35377410D01*
X40744479Y-35659674D01*
X40574741Y-35913705D01*
X40358705Y-36129741D01*
X40104674Y-36299479D01*
X39822410Y-36416396D01*
X39672585Y-36446198D01*
X39522761Y-36476000D01*
X39217239Y-36476000D01*
X39067415Y-36446198D01*
X38917590Y-36416396D01*
X38635326Y-36299479D01*
X38381295Y-36129741D01*
X38165259Y-35913705D01*
X37995521Y-35659674D01*
X37878604Y-35377410D01*
X37819000Y-35077760D01*
X37819000Y-34772240D01*
X37878604Y-34472590D01*
X37995521Y-34190326D01*
X38165259Y-33936295D01*
X38381295Y-33720259D01*
X38635326Y-33550521D01*
X38917590Y-33433604D01*
X39067415Y-33403802D01*
X39217239Y-33374000D01*
X39522761Y-33374000D01*
X39672585Y-33403802D01*
X39672585Y-33403802D01*
G37*
G36*
X45387585Y-33403802D02*
G01*
X45537410Y-33433604D01*
X45819674Y-33550521D01*
X46073705Y-33720259D01*
X46289741Y-33936295D01*
X46459479Y-34190326D01*
X46576396Y-34472590D01*
X46636000Y-34772240D01*
X46636000Y-35077760D01*
X46576396Y-35377410D01*
X46459479Y-35659674D01*
X46289741Y-35913705D01*
X46073705Y-36129741D01*
X45819674Y-36299479D01*
X45537410Y-36416396D01*
X45387585Y-36446198D01*
X45237761Y-36476000D01*
X44932239Y-36476000D01*
X44782415Y-36446198D01*
X44632590Y-36416396D01*
X44350326Y-36299479D01*
X44096295Y-36129741D01*
X43880259Y-35913705D01*
X43710521Y-35659674D01*
X43593604Y-35377410D01*
X43534000Y-35077760D01*
X43534000Y-34772240D01*
X43593604Y-34472590D01*
X43710521Y-34190326D01*
X43880259Y-33936295D01*
X44096295Y-33720259D01*
X44350326Y-33550521D01*
X44632590Y-33433604D01*
X44782415Y-33403802D01*
X44932239Y-33374000D01*
X45237761Y-33374000D01*
X45387585Y-33403802D01*
X45387585Y-33403802D01*
G37*
G36*
X33957585Y-33403802D02*
G01*
X34107410Y-33433604D01*
X34389674Y-33550521D01*
X34643705Y-33720259D01*
X34859741Y-33936295D01*
X35029479Y-34190326D01*
X35146396Y-34472590D01*
X35206000Y-34772240D01*
X35206000Y-35077760D01*
X35146396Y-35377410D01*
X35029479Y-35659674D01*
X34859741Y-35913705D01*
X34643705Y-36129741D01*
X34389674Y-36299479D01*
X34107410Y-36416396D01*
X33957585Y-36446198D01*
X33807761Y-36476000D01*
X33502239Y-36476000D01*
X33352415Y-36446198D01*
X33202590Y-36416396D01*
X32920326Y-36299479D01*
X32666295Y-36129741D01*
X32450259Y-35913705D01*
X32280521Y-35659674D01*
X32163604Y-35377410D01*
X32104000Y-35077760D01*
X32104000Y-34772240D01*
X32163604Y-34472590D01*
X32280521Y-34190326D01*
X32450259Y-33936295D01*
X32666295Y-33720259D01*
X32920326Y-33550521D01*
X33202590Y-33433604D01*
X33352415Y-33403802D01*
X33502239Y-33374000D01*
X33807761Y-33374000D01*
X33957585Y-33403802D01*
X33957585Y-33403802D01*
G37*
G36*
X28242585Y-33403802D02*
G01*
X28392410Y-33433604D01*
X28674674Y-33550521D01*
X28928705Y-33720259D01*
X29144741Y-33936295D01*
X29314479Y-34190326D01*
X29431396Y-34472590D01*
X29491000Y-34772240D01*
X29491000Y-35077760D01*
X29431396Y-35377410D01*
X29314479Y-35659674D01*
X29144741Y-35913705D01*
X28928705Y-36129741D01*
X28674674Y-36299479D01*
X28392410Y-36416396D01*
X28242585Y-36446198D01*
X28092761Y-36476000D01*
X27787239Y-36476000D01*
X27637415Y-36446198D01*
X27487590Y-36416396D01*
X27205326Y-36299479D01*
X26951295Y-36129741D01*
X26735259Y-35913705D01*
X26565521Y-35659674D01*
X26448604Y-35377410D01*
X26389000Y-35077760D01*
X26389000Y-34772240D01*
X26448604Y-34472590D01*
X26565521Y-34190326D01*
X26735259Y-33936295D01*
X26951295Y-33720259D01*
X27205326Y-33550521D01*
X27487590Y-33433604D01*
X27637415Y-33403802D01*
X27787239Y-33374000D01*
X28092761Y-33374000D01*
X28242585Y-33403802D01*
X28242585Y-33403802D01*
G37*
G36*
X22527585Y-33403802D02*
G01*
X22677410Y-33433604D01*
X22959674Y-33550521D01*
X23213705Y-33720259D01*
X23429741Y-33936295D01*
X23599479Y-34190326D01*
X23716396Y-34472590D01*
X23776000Y-34772240D01*
X23776000Y-35077760D01*
X23716396Y-35377410D01*
X23599479Y-35659674D01*
X23429741Y-35913705D01*
X23213705Y-36129741D01*
X22959674Y-36299479D01*
X22677410Y-36416396D01*
X22527585Y-36446198D01*
X22377761Y-36476000D01*
X22072239Y-36476000D01*
X21922415Y-36446198D01*
X21772590Y-36416396D01*
X21490326Y-36299479D01*
X21236295Y-36129741D01*
X21020259Y-35913705D01*
X20850521Y-35659674D01*
X20733604Y-35377410D01*
X20674000Y-35077760D01*
X20674000Y-34772240D01*
X20733604Y-34472590D01*
X20850521Y-34190326D01*
X21020259Y-33936295D01*
X21236295Y-33720259D01*
X21490326Y-33550521D01*
X21772590Y-33433604D01*
X21922415Y-33403802D01*
X22072239Y-33374000D01*
X22377761Y-33374000D01*
X22527585Y-33403802D01*
X22527585Y-33403802D01*
G37*
G36*
X51102585Y-33403802D02*
G01*
X51252410Y-33433604D01*
X51534674Y-33550521D01*
X51788705Y-33720259D01*
X52004741Y-33936295D01*
X52174479Y-34190326D01*
X52291396Y-34472590D01*
X52351000Y-34772240D01*
X52351000Y-35077760D01*
X52291396Y-35377410D01*
X52174479Y-35659674D01*
X52004741Y-35913705D01*
X51788705Y-36129741D01*
X51534674Y-36299479D01*
X51252410Y-36416396D01*
X51102585Y-36446198D01*
X50952761Y-36476000D01*
X50647239Y-36476000D01*
X50497415Y-36446198D01*
X50347590Y-36416396D01*
X50065326Y-36299479D01*
X49811295Y-36129741D01*
X49595259Y-35913705D01*
X49425521Y-35659674D01*
X49308604Y-35377410D01*
X49249000Y-35077760D01*
X49249000Y-34772240D01*
X49308604Y-34472590D01*
X49425521Y-34190326D01*
X49595259Y-33936295D01*
X49811295Y-33720259D01*
X50065326Y-33550521D01*
X50347590Y-33433604D01*
X50497415Y-33403802D01*
X50647239Y-33374000D01*
X50952761Y-33374000D01*
X51102585Y-33403802D01*
X51102585Y-33403802D01*
G37*
M02*
