M48
; DRILL file {KiCad (5.1.4)-1} date 12/12/2019 20:06:09
; FORMAT={-:-/ absolute / inch / decimal}
; #@! TF.CreationDate,2019-12-12T20:06:09+09:00
; #@! TF.GenerationSoftware,Kicad,Pcbnew,(5.1.4)-1
; #@! TF.FileFunction,Plated,1,2,PTH
FMAT,2
INCH
T1C0.0157
T2C0.0394
T3C0.0591
%
G90
G05
T1
X0.805Y-1.525
X1.0Y-1.525
X1.0Y-2.275
X1.01Y-1.75
X1.025Y-2.025
X1.03Y-2.15
X1.045Y-1.85
X1.105Y-2.16
X1.15Y-1.9
X1.155Y-2.135
X1.195Y-1.85
X1.235Y-2.1
X1.235Y-2.145
X1.25Y-1.525
X1.35Y-1.72
X1.395Y-2.205
X1.4115Y-2.025
X1.415Y-1.975
X1.415Y-2.075
X1.465Y-2.19
X1.5235Y-1.72
X1.565Y-2.12
X1.565Y-1.97
X1.575Y-1.92
X1.585Y-2.23
X1.605Y-1.525
X1.61Y-2.08
X1.625Y-1.825
X1.745Y-2.1235
X1.77Y-1.525
X1.83Y-2.335
X1.87Y-2.48
X1.895Y-2.005
X1.945Y-2.28
X2.025Y-1.525
T2
X0.82Y-2.425
X0.82Y-2.525
X0.92Y-2.425
X0.92Y-2.525
X1.02Y-2.425
X1.02Y-2.525
X1.12Y-2.425
X1.12Y-2.525
X1.22Y-2.425
X1.22Y-2.525
X1.32Y-2.425
X1.32Y-2.525
X1.42Y-2.425
X1.42Y-2.525
X1.52Y-2.425
X1.52Y-2.525
X1.62Y-2.425
X1.62Y-2.525
X1.72Y-2.425
X1.72Y-2.525
X1.82Y-2.425
X1.82Y-2.525
X1.92Y-2.425
X1.92Y-2.525
X2.02Y-2.425
X2.02Y-2.525
T3
X1.55Y-1.375
X0.875Y-1.375
X1.6Y-1.65
X1.325Y-1.375
X1.25Y-1.65
X1.1Y-1.375
X1.95Y-1.65
X2.0Y-1.375
X1.775Y-1.375
X0.9Y-1.65
T0
M30
