G04 #@! TF.GenerationSoftware,KiCad,Pcbnew,(5.1.4)-1*
G04 #@! TF.CreationDate,2019-12-12T19:55:19+09:00*
G04 #@! TF.ProjectId,microcar_head,6d696372-6f63-4617-925f-686561642e6b,rev?*
G04 #@! TF.SameCoordinates,Original*
G04 #@! TF.FileFunction,Paste,Top*
G04 #@! TF.FilePolarity,Positive*
%FSLAX46Y46*%
G04 Gerber Fmt 4.6, Leading zero omitted, Abs format (unit mm)*
G04 Created by KiCad (PCBNEW (5.1.4)-1) date 2019-12-12 19:55:19*
%MOMM*%
%LPD*%
G04 APERTURE LIST*
%ADD10C,0.100000*%
%ADD11C,0.875000*%
%ADD12C,1.210000*%
%ADD13C,0.400000*%
G04 APERTURE END LIST*
D10*
G36*
X22502691Y-54326053D02*
G01*
X22523926Y-54329203D01*
X22544750Y-54334419D01*
X22564962Y-54341651D01*
X22584368Y-54350830D01*
X22602781Y-54361866D01*
X22620024Y-54374654D01*
X22635930Y-54389070D01*
X22650346Y-54404976D01*
X22663134Y-54422219D01*
X22674170Y-54440632D01*
X22683349Y-54460038D01*
X22690581Y-54480250D01*
X22695797Y-54501074D01*
X22698947Y-54522309D01*
X22700000Y-54543750D01*
X22700000Y-54981250D01*
X22698947Y-55002691D01*
X22695797Y-55023926D01*
X22690581Y-55044750D01*
X22683349Y-55064962D01*
X22674170Y-55084368D01*
X22663134Y-55102781D01*
X22650346Y-55120024D01*
X22635930Y-55135930D01*
X22620024Y-55150346D01*
X22602781Y-55163134D01*
X22584368Y-55174170D01*
X22564962Y-55183349D01*
X22544750Y-55190581D01*
X22523926Y-55195797D01*
X22502691Y-55198947D01*
X22481250Y-55200000D01*
X21968750Y-55200000D01*
X21947309Y-55198947D01*
X21926074Y-55195797D01*
X21905250Y-55190581D01*
X21885038Y-55183349D01*
X21865632Y-55174170D01*
X21847219Y-55163134D01*
X21829976Y-55150346D01*
X21814070Y-55135930D01*
X21799654Y-55120024D01*
X21786866Y-55102781D01*
X21775830Y-55084368D01*
X21766651Y-55064962D01*
X21759419Y-55044750D01*
X21754203Y-55023926D01*
X21751053Y-55002691D01*
X21750000Y-54981250D01*
X21750000Y-54543750D01*
X21751053Y-54522309D01*
X21754203Y-54501074D01*
X21759419Y-54480250D01*
X21766651Y-54460038D01*
X21775830Y-54440632D01*
X21786866Y-54422219D01*
X21799654Y-54404976D01*
X21814070Y-54389070D01*
X21829976Y-54374654D01*
X21847219Y-54361866D01*
X21865632Y-54350830D01*
X21885038Y-54341651D01*
X21905250Y-54334419D01*
X21926074Y-54329203D01*
X21947309Y-54326053D01*
X21968750Y-54325000D01*
X22481250Y-54325000D01*
X22502691Y-54326053D01*
X22502691Y-54326053D01*
G37*
D11*
X22225000Y-54762500D03*
D10*
G36*
X22502691Y-52751053D02*
G01*
X22523926Y-52754203D01*
X22544750Y-52759419D01*
X22564962Y-52766651D01*
X22584368Y-52775830D01*
X22602781Y-52786866D01*
X22620024Y-52799654D01*
X22635930Y-52814070D01*
X22650346Y-52829976D01*
X22663134Y-52847219D01*
X22674170Y-52865632D01*
X22683349Y-52885038D01*
X22690581Y-52905250D01*
X22695797Y-52926074D01*
X22698947Y-52947309D01*
X22700000Y-52968750D01*
X22700000Y-53406250D01*
X22698947Y-53427691D01*
X22695797Y-53448926D01*
X22690581Y-53469750D01*
X22683349Y-53489962D01*
X22674170Y-53509368D01*
X22663134Y-53527781D01*
X22650346Y-53545024D01*
X22635930Y-53560930D01*
X22620024Y-53575346D01*
X22602781Y-53588134D01*
X22584368Y-53599170D01*
X22564962Y-53608349D01*
X22544750Y-53615581D01*
X22523926Y-53620797D01*
X22502691Y-53623947D01*
X22481250Y-53625000D01*
X21968750Y-53625000D01*
X21947309Y-53623947D01*
X21926074Y-53620797D01*
X21905250Y-53615581D01*
X21885038Y-53608349D01*
X21865632Y-53599170D01*
X21847219Y-53588134D01*
X21829976Y-53575346D01*
X21814070Y-53560930D01*
X21799654Y-53545024D01*
X21786866Y-53527781D01*
X21775830Y-53509368D01*
X21766651Y-53489962D01*
X21759419Y-53469750D01*
X21754203Y-53448926D01*
X21751053Y-53427691D01*
X21750000Y-53406250D01*
X21750000Y-52968750D01*
X21751053Y-52947309D01*
X21754203Y-52926074D01*
X21759419Y-52905250D01*
X21766651Y-52885038D01*
X21775830Y-52865632D01*
X21786866Y-52847219D01*
X21799654Y-52829976D01*
X21814070Y-52814070D01*
X21829976Y-52799654D01*
X21847219Y-52786866D01*
X21865632Y-52775830D01*
X21885038Y-52766651D01*
X21905250Y-52759419D01*
X21926074Y-52754203D01*
X21947309Y-52751053D01*
X21968750Y-52750000D01*
X22481250Y-52750000D01*
X22502691Y-52751053D01*
X22502691Y-52751053D01*
G37*
D11*
X22225000Y-53187500D03*
D10*
G36*
X22502691Y-46706053D02*
G01*
X22523926Y-46709203D01*
X22544750Y-46714419D01*
X22564962Y-46721651D01*
X22584368Y-46730830D01*
X22602781Y-46741866D01*
X22620024Y-46754654D01*
X22635930Y-46769070D01*
X22650346Y-46784976D01*
X22663134Y-46802219D01*
X22674170Y-46820632D01*
X22683349Y-46840038D01*
X22690581Y-46860250D01*
X22695797Y-46881074D01*
X22698947Y-46902309D01*
X22700000Y-46923750D01*
X22700000Y-47361250D01*
X22698947Y-47382691D01*
X22695797Y-47403926D01*
X22690581Y-47424750D01*
X22683349Y-47444962D01*
X22674170Y-47464368D01*
X22663134Y-47482781D01*
X22650346Y-47500024D01*
X22635930Y-47515930D01*
X22620024Y-47530346D01*
X22602781Y-47543134D01*
X22584368Y-47554170D01*
X22564962Y-47563349D01*
X22544750Y-47570581D01*
X22523926Y-47575797D01*
X22502691Y-47578947D01*
X22481250Y-47580000D01*
X21968750Y-47580000D01*
X21947309Y-47578947D01*
X21926074Y-47575797D01*
X21905250Y-47570581D01*
X21885038Y-47563349D01*
X21865632Y-47554170D01*
X21847219Y-47543134D01*
X21829976Y-47530346D01*
X21814070Y-47515930D01*
X21799654Y-47500024D01*
X21786866Y-47482781D01*
X21775830Y-47464368D01*
X21766651Y-47444962D01*
X21759419Y-47424750D01*
X21754203Y-47403926D01*
X21751053Y-47382691D01*
X21750000Y-47361250D01*
X21750000Y-46923750D01*
X21751053Y-46902309D01*
X21754203Y-46881074D01*
X21759419Y-46860250D01*
X21766651Y-46840038D01*
X21775830Y-46820632D01*
X21786866Y-46802219D01*
X21799654Y-46784976D01*
X21814070Y-46769070D01*
X21829976Y-46754654D01*
X21847219Y-46741866D01*
X21865632Y-46730830D01*
X21885038Y-46721651D01*
X21905250Y-46714419D01*
X21926074Y-46709203D01*
X21947309Y-46706053D01*
X21968750Y-46705000D01*
X22481250Y-46705000D01*
X22502691Y-46706053D01*
X22502691Y-46706053D01*
G37*
D11*
X22225000Y-47142500D03*
D10*
G36*
X22502691Y-45131053D02*
G01*
X22523926Y-45134203D01*
X22544750Y-45139419D01*
X22564962Y-45146651D01*
X22584368Y-45155830D01*
X22602781Y-45166866D01*
X22620024Y-45179654D01*
X22635930Y-45194070D01*
X22650346Y-45209976D01*
X22663134Y-45227219D01*
X22674170Y-45245632D01*
X22683349Y-45265038D01*
X22690581Y-45285250D01*
X22695797Y-45306074D01*
X22698947Y-45327309D01*
X22700000Y-45348750D01*
X22700000Y-45786250D01*
X22698947Y-45807691D01*
X22695797Y-45828926D01*
X22690581Y-45849750D01*
X22683349Y-45869962D01*
X22674170Y-45889368D01*
X22663134Y-45907781D01*
X22650346Y-45925024D01*
X22635930Y-45940930D01*
X22620024Y-45955346D01*
X22602781Y-45968134D01*
X22584368Y-45979170D01*
X22564962Y-45988349D01*
X22544750Y-45995581D01*
X22523926Y-46000797D01*
X22502691Y-46003947D01*
X22481250Y-46005000D01*
X21968750Y-46005000D01*
X21947309Y-46003947D01*
X21926074Y-46000797D01*
X21905250Y-45995581D01*
X21885038Y-45988349D01*
X21865632Y-45979170D01*
X21847219Y-45968134D01*
X21829976Y-45955346D01*
X21814070Y-45940930D01*
X21799654Y-45925024D01*
X21786866Y-45907781D01*
X21775830Y-45889368D01*
X21766651Y-45869962D01*
X21759419Y-45849750D01*
X21754203Y-45828926D01*
X21751053Y-45807691D01*
X21750000Y-45786250D01*
X21750000Y-45348750D01*
X21751053Y-45327309D01*
X21754203Y-45306074D01*
X21759419Y-45285250D01*
X21766651Y-45265038D01*
X21775830Y-45245632D01*
X21786866Y-45227219D01*
X21799654Y-45209976D01*
X21814070Y-45194070D01*
X21829976Y-45179654D01*
X21847219Y-45166866D01*
X21865632Y-45155830D01*
X21885038Y-45146651D01*
X21905250Y-45139419D01*
X21926074Y-45134203D01*
X21947309Y-45131053D01*
X21968750Y-45130000D01*
X22481250Y-45130000D01*
X22502691Y-45131053D01*
X22502691Y-45131053D01*
G37*
D11*
X22225000Y-45567500D03*
D10*
G36*
X42632691Y-31276053D02*
G01*
X42653926Y-31279203D01*
X42674750Y-31284419D01*
X42694962Y-31291651D01*
X42714368Y-31300830D01*
X42732781Y-31311866D01*
X42750024Y-31324654D01*
X42765930Y-31339070D01*
X42780346Y-31354976D01*
X42793134Y-31372219D01*
X42804170Y-31390632D01*
X42813349Y-31410038D01*
X42820581Y-31430250D01*
X42825797Y-31451074D01*
X42828947Y-31472309D01*
X42830000Y-31493750D01*
X42830000Y-32006250D01*
X42828947Y-32027691D01*
X42825797Y-32048926D01*
X42820581Y-32069750D01*
X42813349Y-32089962D01*
X42804170Y-32109368D01*
X42793134Y-32127781D01*
X42780346Y-32145024D01*
X42765930Y-32160930D01*
X42750024Y-32175346D01*
X42732781Y-32188134D01*
X42714368Y-32199170D01*
X42694962Y-32208349D01*
X42674750Y-32215581D01*
X42653926Y-32220797D01*
X42632691Y-32223947D01*
X42611250Y-32225000D01*
X42173750Y-32225000D01*
X42152309Y-32223947D01*
X42131074Y-32220797D01*
X42110250Y-32215581D01*
X42090038Y-32208349D01*
X42070632Y-32199170D01*
X42052219Y-32188134D01*
X42034976Y-32175346D01*
X42019070Y-32160930D01*
X42004654Y-32145024D01*
X41991866Y-32127781D01*
X41980830Y-32109368D01*
X41971651Y-32089962D01*
X41964419Y-32069750D01*
X41959203Y-32048926D01*
X41956053Y-32027691D01*
X41955000Y-32006250D01*
X41955000Y-31493750D01*
X41956053Y-31472309D01*
X41959203Y-31451074D01*
X41964419Y-31430250D01*
X41971651Y-31410038D01*
X41980830Y-31390632D01*
X41991866Y-31372219D01*
X42004654Y-31354976D01*
X42019070Y-31339070D01*
X42034976Y-31324654D01*
X42052219Y-31311866D01*
X42070632Y-31300830D01*
X42090038Y-31291651D01*
X42110250Y-31284419D01*
X42131074Y-31279203D01*
X42152309Y-31276053D01*
X42173750Y-31275000D01*
X42611250Y-31275000D01*
X42632691Y-31276053D01*
X42632691Y-31276053D01*
G37*
D11*
X42392500Y-31750000D03*
D10*
G36*
X44207691Y-31276053D02*
G01*
X44228926Y-31279203D01*
X44249750Y-31284419D01*
X44269962Y-31291651D01*
X44289368Y-31300830D01*
X44307781Y-31311866D01*
X44325024Y-31324654D01*
X44340930Y-31339070D01*
X44355346Y-31354976D01*
X44368134Y-31372219D01*
X44379170Y-31390632D01*
X44388349Y-31410038D01*
X44395581Y-31430250D01*
X44400797Y-31451074D01*
X44403947Y-31472309D01*
X44405000Y-31493750D01*
X44405000Y-32006250D01*
X44403947Y-32027691D01*
X44400797Y-32048926D01*
X44395581Y-32069750D01*
X44388349Y-32089962D01*
X44379170Y-32109368D01*
X44368134Y-32127781D01*
X44355346Y-32145024D01*
X44340930Y-32160930D01*
X44325024Y-32175346D01*
X44307781Y-32188134D01*
X44289368Y-32199170D01*
X44269962Y-32208349D01*
X44249750Y-32215581D01*
X44228926Y-32220797D01*
X44207691Y-32223947D01*
X44186250Y-32225000D01*
X43748750Y-32225000D01*
X43727309Y-32223947D01*
X43706074Y-32220797D01*
X43685250Y-32215581D01*
X43665038Y-32208349D01*
X43645632Y-32199170D01*
X43627219Y-32188134D01*
X43609976Y-32175346D01*
X43594070Y-32160930D01*
X43579654Y-32145024D01*
X43566866Y-32127781D01*
X43555830Y-32109368D01*
X43546651Y-32089962D01*
X43539419Y-32069750D01*
X43534203Y-32048926D01*
X43531053Y-32027691D01*
X43530000Y-32006250D01*
X43530000Y-31493750D01*
X43531053Y-31472309D01*
X43534203Y-31451074D01*
X43539419Y-31430250D01*
X43546651Y-31410038D01*
X43555830Y-31390632D01*
X43566866Y-31372219D01*
X43579654Y-31354976D01*
X43594070Y-31339070D01*
X43609976Y-31324654D01*
X43627219Y-31311866D01*
X43645632Y-31300830D01*
X43665038Y-31291651D01*
X43685250Y-31284419D01*
X43706074Y-31279203D01*
X43727309Y-31276053D01*
X43748750Y-31275000D01*
X44186250Y-31275000D01*
X44207691Y-31276053D01*
X44207691Y-31276053D01*
G37*
D11*
X43967500Y-31750000D03*
D10*
G36*
X46442691Y-33562053D02*
G01*
X46463926Y-33565203D01*
X46484750Y-33570419D01*
X46504962Y-33577651D01*
X46524368Y-33586830D01*
X46542781Y-33597866D01*
X46560024Y-33610654D01*
X46575930Y-33625070D01*
X46590346Y-33640976D01*
X46603134Y-33658219D01*
X46614170Y-33676632D01*
X46623349Y-33696038D01*
X46630581Y-33716250D01*
X46635797Y-33737074D01*
X46638947Y-33758309D01*
X46640000Y-33779750D01*
X46640000Y-34292250D01*
X46638947Y-34313691D01*
X46635797Y-34334926D01*
X46630581Y-34355750D01*
X46623349Y-34375962D01*
X46614170Y-34395368D01*
X46603134Y-34413781D01*
X46590346Y-34431024D01*
X46575930Y-34446930D01*
X46560024Y-34461346D01*
X46542781Y-34474134D01*
X46524368Y-34485170D01*
X46504962Y-34494349D01*
X46484750Y-34501581D01*
X46463926Y-34506797D01*
X46442691Y-34509947D01*
X46421250Y-34511000D01*
X45983750Y-34511000D01*
X45962309Y-34509947D01*
X45941074Y-34506797D01*
X45920250Y-34501581D01*
X45900038Y-34494349D01*
X45880632Y-34485170D01*
X45862219Y-34474134D01*
X45844976Y-34461346D01*
X45829070Y-34446930D01*
X45814654Y-34431024D01*
X45801866Y-34413781D01*
X45790830Y-34395368D01*
X45781651Y-34375962D01*
X45774419Y-34355750D01*
X45769203Y-34334926D01*
X45766053Y-34313691D01*
X45765000Y-34292250D01*
X45765000Y-33779750D01*
X45766053Y-33758309D01*
X45769203Y-33737074D01*
X45774419Y-33716250D01*
X45781651Y-33696038D01*
X45790830Y-33676632D01*
X45801866Y-33658219D01*
X45814654Y-33640976D01*
X45829070Y-33625070D01*
X45844976Y-33610654D01*
X45862219Y-33597866D01*
X45880632Y-33586830D01*
X45900038Y-33577651D01*
X45920250Y-33570419D01*
X45941074Y-33565203D01*
X45962309Y-33562053D01*
X45983750Y-33561000D01*
X46421250Y-33561000D01*
X46442691Y-33562053D01*
X46442691Y-33562053D01*
G37*
D11*
X46202500Y-34036000D03*
D10*
G36*
X48017691Y-33562053D02*
G01*
X48038926Y-33565203D01*
X48059750Y-33570419D01*
X48079962Y-33577651D01*
X48099368Y-33586830D01*
X48117781Y-33597866D01*
X48135024Y-33610654D01*
X48150930Y-33625070D01*
X48165346Y-33640976D01*
X48178134Y-33658219D01*
X48189170Y-33676632D01*
X48198349Y-33696038D01*
X48205581Y-33716250D01*
X48210797Y-33737074D01*
X48213947Y-33758309D01*
X48215000Y-33779750D01*
X48215000Y-34292250D01*
X48213947Y-34313691D01*
X48210797Y-34334926D01*
X48205581Y-34355750D01*
X48198349Y-34375962D01*
X48189170Y-34395368D01*
X48178134Y-34413781D01*
X48165346Y-34431024D01*
X48150930Y-34446930D01*
X48135024Y-34461346D01*
X48117781Y-34474134D01*
X48099368Y-34485170D01*
X48079962Y-34494349D01*
X48059750Y-34501581D01*
X48038926Y-34506797D01*
X48017691Y-34509947D01*
X47996250Y-34511000D01*
X47558750Y-34511000D01*
X47537309Y-34509947D01*
X47516074Y-34506797D01*
X47495250Y-34501581D01*
X47475038Y-34494349D01*
X47455632Y-34485170D01*
X47437219Y-34474134D01*
X47419976Y-34461346D01*
X47404070Y-34446930D01*
X47389654Y-34431024D01*
X47376866Y-34413781D01*
X47365830Y-34395368D01*
X47356651Y-34375962D01*
X47349419Y-34355750D01*
X47344203Y-34334926D01*
X47341053Y-34313691D01*
X47340000Y-34292250D01*
X47340000Y-33779750D01*
X47341053Y-33758309D01*
X47344203Y-33737074D01*
X47349419Y-33716250D01*
X47356651Y-33696038D01*
X47365830Y-33676632D01*
X47376866Y-33658219D01*
X47389654Y-33640976D01*
X47404070Y-33625070D01*
X47419976Y-33610654D01*
X47437219Y-33597866D01*
X47455632Y-33586830D01*
X47475038Y-33577651D01*
X47495250Y-33570419D01*
X47516074Y-33565203D01*
X47537309Y-33562053D01*
X47558750Y-33561000D01*
X47996250Y-33561000D01*
X48017691Y-33562053D01*
X48017691Y-33562053D01*
G37*
D11*
X47777500Y-34036000D03*
D10*
G36*
X60602691Y-52421053D02*
G01*
X60623926Y-52424203D01*
X60644750Y-52429419D01*
X60664962Y-52436651D01*
X60684368Y-52445830D01*
X60702781Y-52456866D01*
X60720024Y-52469654D01*
X60735930Y-52484070D01*
X60750346Y-52499976D01*
X60763134Y-52517219D01*
X60774170Y-52535632D01*
X60783349Y-52555038D01*
X60790581Y-52575250D01*
X60795797Y-52596074D01*
X60798947Y-52617309D01*
X60800000Y-52638750D01*
X60800000Y-53076250D01*
X60798947Y-53097691D01*
X60795797Y-53118926D01*
X60790581Y-53139750D01*
X60783349Y-53159962D01*
X60774170Y-53179368D01*
X60763134Y-53197781D01*
X60750346Y-53215024D01*
X60735930Y-53230930D01*
X60720024Y-53245346D01*
X60702781Y-53258134D01*
X60684368Y-53269170D01*
X60664962Y-53278349D01*
X60644750Y-53285581D01*
X60623926Y-53290797D01*
X60602691Y-53293947D01*
X60581250Y-53295000D01*
X60068750Y-53295000D01*
X60047309Y-53293947D01*
X60026074Y-53290797D01*
X60005250Y-53285581D01*
X59985038Y-53278349D01*
X59965632Y-53269170D01*
X59947219Y-53258134D01*
X59929976Y-53245346D01*
X59914070Y-53230930D01*
X59899654Y-53215024D01*
X59886866Y-53197781D01*
X59875830Y-53179368D01*
X59866651Y-53159962D01*
X59859419Y-53139750D01*
X59854203Y-53118926D01*
X59851053Y-53097691D01*
X59850000Y-53076250D01*
X59850000Y-52638750D01*
X59851053Y-52617309D01*
X59854203Y-52596074D01*
X59859419Y-52575250D01*
X59866651Y-52555038D01*
X59875830Y-52535632D01*
X59886866Y-52517219D01*
X59899654Y-52499976D01*
X59914070Y-52484070D01*
X59929976Y-52469654D01*
X59947219Y-52456866D01*
X59965632Y-52445830D01*
X59985038Y-52436651D01*
X60005250Y-52429419D01*
X60026074Y-52424203D01*
X60047309Y-52421053D01*
X60068750Y-52420000D01*
X60581250Y-52420000D01*
X60602691Y-52421053D01*
X60602691Y-52421053D01*
G37*
D11*
X60325000Y-52857500D03*
D10*
G36*
X60602691Y-50846053D02*
G01*
X60623926Y-50849203D01*
X60644750Y-50854419D01*
X60664962Y-50861651D01*
X60684368Y-50870830D01*
X60702781Y-50881866D01*
X60720024Y-50894654D01*
X60735930Y-50909070D01*
X60750346Y-50924976D01*
X60763134Y-50942219D01*
X60774170Y-50960632D01*
X60783349Y-50980038D01*
X60790581Y-51000250D01*
X60795797Y-51021074D01*
X60798947Y-51042309D01*
X60800000Y-51063750D01*
X60800000Y-51501250D01*
X60798947Y-51522691D01*
X60795797Y-51543926D01*
X60790581Y-51564750D01*
X60783349Y-51584962D01*
X60774170Y-51604368D01*
X60763134Y-51622781D01*
X60750346Y-51640024D01*
X60735930Y-51655930D01*
X60720024Y-51670346D01*
X60702781Y-51683134D01*
X60684368Y-51694170D01*
X60664962Y-51703349D01*
X60644750Y-51710581D01*
X60623926Y-51715797D01*
X60602691Y-51718947D01*
X60581250Y-51720000D01*
X60068750Y-51720000D01*
X60047309Y-51718947D01*
X60026074Y-51715797D01*
X60005250Y-51710581D01*
X59985038Y-51703349D01*
X59965632Y-51694170D01*
X59947219Y-51683134D01*
X59929976Y-51670346D01*
X59914070Y-51655930D01*
X59899654Y-51640024D01*
X59886866Y-51622781D01*
X59875830Y-51604368D01*
X59866651Y-51584962D01*
X59859419Y-51564750D01*
X59854203Y-51543926D01*
X59851053Y-51522691D01*
X59850000Y-51501250D01*
X59850000Y-51063750D01*
X59851053Y-51042309D01*
X59854203Y-51021074D01*
X59859419Y-51000250D01*
X59866651Y-50980038D01*
X59875830Y-50960632D01*
X59886866Y-50942219D01*
X59899654Y-50924976D01*
X59914070Y-50909070D01*
X59929976Y-50894654D01*
X59947219Y-50881866D01*
X59965632Y-50870830D01*
X59985038Y-50861651D01*
X60005250Y-50854419D01*
X60026074Y-50849203D01*
X60047309Y-50846053D01*
X60068750Y-50845000D01*
X60581250Y-50845000D01*
X60602691Y-50846053D01*
X60602691Y-50846053D01*
G37*
D11*
X60325000Y-51282500D03*
D10*
G36*
X61237691Y-34641053D02*
G01*
X61258926Y-34644203D01*
X61279750Y-34649419D01*
X61299962Y-34656651D01*
X61319368Y-34665830D01*
X61337781Y-34676866D01*
X61355024Y-34689654D01*
X61370930Y-34704070D01*
X61385346Y-34719976D01*
X61398134Y-34737219D01*
X61409170Y-34755632D01*
X61418349Y-34775038D01*
X61425581Y-34795250D01*
X61430797Y-34816074D01*
X61433947Y-34837309D01*
X61435000Y-34858750D01*
X61435000Y-35296250D01*
X61433947Y-35317691D01*
X61430797Y-35338926D01*
X61425581Y-35359750D01*
X61418349Y-35379962D01*
X61409170Y-35399368D01*
X61398134Y-35417781D01*
X61385346Y-35435024D01*
X61370930Y-35450930D01*
X61355024Y-35465346D01*
X61337781Y-35478134D01*
X61319368Y-35489170D01*
X61299962Y-35498349D01*
X61279750Y-35505581D01*
X61258926Y-35510797D01*
X61237691Y-35513947D01*
X61216250Y-35515000D01*
X60703750Y-35515000D01*
X60682309Y-35513947D01*
X60661074Y-35510797D01*
X60640250Y-35505581D01*
X60620038Y-35498349D01*
X60600632Y-35489170D01*
X60582219Y-35478134D01*
X60564976Y-35465346D01*
X60549070Y-35450930D01*
X60534654Y-35435024D01*
X60521866Y-35417781D01*
X60510830Y-35399368D01*
X60501651Y-35379962D01*
X60494419Y-35359750D01*
X60489203Y-35338926D01*
X60486053Y-35317691D01*
X60485000Y-35296250D01*
X60485000Y-34858750D01*
X60486053Y-34837309D01*
X60489203Y-34816074D01*
X60494419Y-34795250D01*
X60501651Y-34775038D01*
X60510830Y-34755632D01*
X60521866Y-34737219D01*
X60534654Y-34719976D01*
X60549070Y-34704070D01*
X60564976Y-34689654D01*
X60582219Y-34676866D01*
X60600632Y-34665830D01*
X60620038Y-34656651D01*
X60640250Y-34649419D01*
X60661074Y-34644203D01*
X60682309Y-34641053D01*
X60703750Y-34640000D01*
X61216250Y-34640000D01*
X61237691Y-34641053D01*
X61237691Y-34641053D01*
G37*
D11*
X60960000Y-35077500D03*
D10*
G36*
X61237691Y-33066053D02*
G01*
X61258926Y-33069203D01*
X61279750Y-33074419D01*
X61299962Y-33081651D01*
X61319368Y-33090830D01*
X61337781Y-33101866D01*
X61355024Y-33114654D01*
X61370930Y-33129070D01*
X61385346Y-33144976D01*
X61398134Y-33162219D01*
X61409170Y-33180632D01*
X61418349Y-33200038D01*
X61425581Y-33220250D01*
X61430797Y-33241074D01*
X61433947Y-33262309D01*
X61435000Y-33283750D01*
X61435000Y-33721250D01*
X61433947Y-33742691D01*
X61430797Y-33763926D01*
X61425581Y-33784750D01*
X61418349Y-33804962D01*
X61409170Y-33824368D01*
X61398134Y-33842781D01*
X61385346Y-33860024D01*
X61370930Y-33875930D01*
X61355024Y-33890346D01*
X61337781Y-33903134D01*
X61319368Y-33914170D01*
X61299962Y-33923349D01*
X61279750Y-33930581D01*
X61258926Y-33935797D01*
X61237691Y-33938947D01*
X61216250Y-33940000D01*
X60703750Y-33940000D01*
X60682309Y-33938947D01*
X60661074Y-33935797D01*
X60640250Y-33930581D01*
X60620038Y-33923349D01*
X60600632Y-33914170D01*
X60582219Y-33903134D01*
X60564976Y-33890346D01*
X60549070Y-33875930D01*
X60534654Y-33860024D01*
X60521866Y-33842781D01*
X60510830Y-33824368D01*
X60501651Y-33804962D01*
X60494419Y-33784750D01*
X60489203Y-33763926D01*
X60486053Y-33742691D01*
X60485000Y-33721250D01*
X60485000Y-33283750D01*
X60486053Y-33262309D01*
X60489203Y-33241074D01*
X60494419Y-33220250D01*
X60501651Y-33200038D01*
X60510830Y-33180632D01*
X60521866Y-33162219D01*
X60534654Y-33144976D01*
X60549070Y-33129070D01*
X60564976Y-33114654D01*
X60582219Y-33101866D01*
X60600632Y-33090830D01*
X60620038Y-33081651D01*
X60640250Y-33074419D01*
X60661074Y-33069203D01*
X60682309Y-33066053D01*
X60703750Y-33065000D01*
X61216250Y-33065000D01*
X61237691Y-33066053D01*
X61237691Y-33066053D01*
G37*
D11*
X60960000Y-33502500D03*
D10*
G36*
X68857691Y-43531053D02*
G01*
X68878926Y-43534203D01*
X68899750Y-43539419D01*
X68919962Y-43546651D01*
X68939368Y-43555830D01*
X68957781Y-43566866D01*
X68975024Y-43579654D01*
X68990930Y-43594070D01*
X69005346Y-43609976D01*
X69018134Y-43627219D01*
X69029170Y-43645632D01*
X69038349Y-43665038D01*
X69045581Y-43685250D01*
X69050797Y-43706074D01*
X69053947Y-43727309D01*
X69055000Y-43748750D01*
X69055000Y-44186250D01*
X69053947Y-44207691D01*
X69050797Y-44228926D01*
X69045581Y-44249750D01*
X69038349Y-44269962D01*
X69029170Y-44289368D01*
X69018134Y-44307781D01*
X69005346Y-44325024D01*
X68990930Y-44340930D01*
X68975024Y-44355346D01*
X68957781Y-44368134D01*
X68939368Y-44379170D01*
X68919962Y-44388349D01*
X68899750Y-44395581D01*
X68878926Y-44400797D01*
X68857691Y-44403947D01*
X68836250Y-44405000D01*
X68323750Y-44405000D01*
X68302309Y-44403947D01*
X68281074Y-44400797D01*
X68260250Y-44395581D01*
X68240038Y-44388349D01*
X68220632Y-44379170D01*
X68202219Y-44368134D01*
X68184976Y-44355346D01*
X68169070Y-44340930D01*
X68154654Y-44325024D01*
X68141866Y-44307781D01*
X68130830Y-44289368D01*
X68121651Y-44269962D01*
X68114419Y-44249750D01*
X68109203Y-44228926D01*
X68106053Y-44207691D01*
X68105000Y-44186250D01*
X68105000Y-43748750D01*
X68106053Y-43727309D01*
X68109203Y-43706074D01*
X68114419Y-43685250D01*
X68121651Y-43665038D01*
X68130830Y-43645632D01*
X68141866Y-43627219D01*
X68154654Y-43609976D01*
X68169070Y-43594070D01*
X68184976Y-43579654D01*
X68202219Y-43566866D01*
X68220632Y-43555830D01*
X68240038Y-43546651D01*
X68260250Y-43539419D01*
X68281074Y-43534203D01*
X68302309Y-43531053D01*
X68323750Y-43530000D01*
X68836250Y-43530000D01*
X68857691Y-43531053D01*
X68857691Y-43531053D01*
G37*
D11*
X68580000Y-43967500D03*
D10*
G36*
X68857691Y-41956053D02*
G01*
X68878926Y-41959203D01*
X68899750Y-41964419D01*
X68919962Y-41971651D01*
X68939368Y-41980830D01*
X68957781Y-41991866D01*
X68975024Y-42004654D01*
X68990930Y-42019070D01*
X69005346Y-42034976D01*
X69018134Y-42052219D01*
X69029170Y-42070632D01*
X69038349Y-42090038D01*
X69045581Y-42110250D01*
X69050797Y-42131074D01*
X69053947Y-42152309D01*
X69055000Y-42173750D01*
X69055000Y-42611250D01*
X69053947Y-42632691D01*
X69050797Y-42653926D01*
X69045581Y-42674750D01*
X69038349Y-42694962D01*
X69029170Y-42714368D01*
X69018134Y-42732781D01*
X69005346Y-42750024D01*
X68990930Y-42765930D01*
X68975024Y-42780346D01*
X68957781Y-42793134D01*
X68939368Y-42804170D01*
X68919962Y-42813349D01*
X68899750Y-42820581D01*
X68878926Y-42825797D01*
X68857691Y-42828947D01*
X68836250Y-42830000D01*
X68323750Y-42830000D01*
X68302309Y-42828947D01*
X68281074Y-42825797D01*
X68260250Y-42820581D01*
X68240038Y-42813349D01*
X68220632Y-42804170D01*
X68202219Y-42793134D01*
X68184976Y-42780346D01*
X68169070Y-42765930D01*
X68154654Y-42750024D01*
X68141866Y-42732781D01*
X68130830Y-42714368D01*
X68121651Y-42694962D01*
X68114419Y-42674750D01*
X68109203Y-42653926D01*
X68106053Y-42632691D01*
X68105000Y-42611250D01*
X68105000Y-42173750D01*
X68106053Y-42152309D01*
X68109203Y-42131074D01*
X68114419Y-42110250D01*
X68121651Y-42090038D01*
X68130830Y-42070632D01*
X68141866Y-42052219D01*
X68154654Y-42034976D01*
X68169070Y-42019070D01*
X68184976Y-42004654D01*
X68202219Y-41991866D01*
X68220632Y-41980830D01*
X68240038Y-41971651D01*
X68260250Y-41964419D01*
X68281074Y-41959203D01*
X68302309Y-41956053D01*
X68323750Y-41955000D01*
X68836250Y-41955000D01*
X68857691Y-41956053D01*
X68857691Y-41956053D01*
G37*
D11*
X68580000Y-42392500D03*
D10*
G36*
X49807691Y-52421053D02*
G01*
X49828926Y-52424203D01*
X49849750Y-52429419D01*
X49869962Y-52436651D01*
X49889368Y-52445830D01*
X49907781Y-52456866D01*
X49925024Y-52469654D01*
X49940930Y-52484070D01*
X49955346Y-52499976D01*
X49968134Y-52517219D01*
X49979170Y-52535632D01*
X49988349Y-52555038D01*
X49995581Y-52575250D01*
X50000797Y-52596074D01*
X50003947Y-52617309D01*
X50005000Y-52638750D01*
X50005000Y-53076250D01*
X50003947Y-53097691D01*
X50000797Y-53118926D01*
X49995581Y-53139750D01*
X49988349Y-53159962D01*
X49979170Y-53179368D01*
X49968134Y-53197781D01*
X49955346Y-53215024D01*
X49940930Y-53230930D01*
X49925024Y-53245346D01*
X49907781Y-53258134D01*
X49889368Y-53269170D01*
X49869962Y-53278349D01*
X49849750Y-53285581D01*
X49828926Y-53290797D01*
X49807691Y-53293947D01*
X49786250Y-53295000D01*
X49273750Y-53295000D01*
X49252309Y-53293947D01*
X49231074Y-53290797D01*
X49210250Y-53285581D01*
X49190038Y-53278349D01*
X49170632Y-53269170D01*
X49152219Y-53258134D01*
X49134976Y-53245346D01*
X49119070Y-53230930D01*
X49104654Y-53215024D01*
X49091866Y-53197781D01*
X49080830Y-53179368D01*
X49071651Y-53159962D01*
X49064419Y-53139750D01*
X49059203Y-53118926D01*
X49056053Y-53097691D01*
X49055000Y-53076250D01*
X49055000Y-52638750D01*
X49056053Y-52617309D01*
X49059203Y-52596074D01*
X49064419Y-52575250D01*
X49071651Y-52555038D01*
X49080830Y-52535632D01*
X49091866Y-52517219D01*
X49104654Y-52499976D01*
X49119070Y-52484070D01*
X49134976Y-52469654D01*
X49152219Y-52456866D01*
X49170632Y-52445830D01*
X49190038Y-52436651D01*
X49210250Y-52429419D01*
X49231074Y-52424203D01*
X49252309Y-52421053D01*
X49273750Y-52420000D01*
X49786250Y-52420000D01*
X49807691Y-52421053D01*
X49807691Y-52421053D01*
G37*
D11*
X49530000Y-52857500D03*
D10*
G36*
X49807691Y-50846053D02*
G01*
X49828926Y-50849203D01*
X49849750Y-50854419D01*
X49869962Y-50861651D01*
X49889368Y-50870830D01*
X49907781Y-50881866D01*
X49925024Y-50894654D01*
X49940930Y-50909070D01*
X49955346Y-50924976D01*
X49968134Y-50942219D01*
X49979170Y-50960632D01*
X49988349Y-50980038D01*
X49995581Y-51000250D01*
X50000797Y-51021074D01*
X50003947Y-51042309D01*
X50005000Y-51063750D01*
X50005000Y-51501250D01*
X50003947Y-51522691D01*
X50000797Y-51543926D01*
X49995581Y-51564750D01*
X49988349Y-51584962D01*
X49979170Y-51604368D01*
X49968134Y-51622781D01*
X49955346Y-51640024D01*
X49940930Y-51655930D01*
X49925024Y-51670346D01*
X49907781Y-51683134D01*
X49889368Y-51694170D01*
X49869962Y-51703349D01*
X49849750Y-51710581D01*
X49828926Y-51715797D01*
X49807691Y-51718947D01*
X49786250Y-51720000D01*
X49273750Y-51720000D01*
X49252309Y-51718947D01*
X49231074Y-51715797D01*
X49210250Y-51710581D01*
X49190038Y-51703349D01*
X49170632Y-51694170D01*
X49152219Y-51683134D01*
X49134976Y-51670346D01*
X49119070Y-51655930D01*
X49104654Y-51640024D01*
X49091866Y-51622781D01*
X49080830Y-51604368D01*
X49071651Y-51584962D01*
X49064419Y-51564750D01*
X49059203Y-51543926D01*
X49056053Y-51522691D01*
X49055000Y-51501250D01*
X49055000Y-51063750D01*
X49056053Y-51042309D01*
X49059203Y-51021074D01*
X49064419Y-51000250D01*
X49071651Y-50980038D01*
X49080830Y-50960632D01*
X49091866Y-50942219D01*
X49104654Y-50924976D01*
X49119070Y-50909070D01*
X49134976Y-50894654D01*
X49152219Y-50881866D01*
X49170632Y-50870830D01*
X49190038Y-50861651D01*
X49210250Y-50854419D01*
X49231074Y-50849203D01*
X49252309Y-50846053D01*
X49273750Y-50845000D01*
X49786250Y-50845000D01*
X49807691Y-50846053D01*
X49807691Y-50846053D01*
G37*
D11*
X49530000Y-51282500D03*
D10*
G36*
X50442691Y-43531053D02*
G01*
X50463926Y-43534203D01*
X50484750Y-43539419D01*
X50504962Y-43546651D01*
X50524368Y-43555830D01*
X50542781Y-43566866D01*
X50560024Y-43579654D01*
X50575930Y-43594070D01*
X50590346Y-43609976D01*
X50603134Y-43627219D01*
X50614170Y-43645632D01*
X50623349Y-43665038D01*
X50630581Y-43685250D01*
X50635797Y-43706074D01*
X50638947Y-43727309D01*
X50640000Y-43748750D01*
X50640000Y-44186250D01*
X50638947Y-44207691D01*
X50635797Y-44228926D01*
X50630581Y-44249750D01*
X50623349Y-44269962D01*
X50614170Y-44289368D01*
X50603134Y-44307781D01*
X50590346Y-44325024D01*
X50575930Y-44340930D01*
X50560024Y-44355346D01*
X50542781Y-44368134D01*
X50524368Y-44379170D01*
X50504962Y-44388349D01*
X50484750Y-44395581D01*
X50463926Y-44400797D01*
X50442691Y-44403947D01*
X50421250Y-44405000D01*
X49908750Y-44405000D01*
X49887309Y-44403947D01*
X49866074Y-44400797D01*
X49845250Y-44395581D01*
X49825038Y-44388349D01*
X49805632Y-44379170D01*
X49787219Y-44368134D01*
X49769976Y-44355346D01*
X49754070Y-44340930D01*
X49739654Y-44325024D01*
X49726866Y-44307781D01*
X49715830Y-44289368D01*
X49706651Y-44269962D01*
X49699419Y-44249750D01*
X49694203Y-44228926D01*
X49691053Y-44207691D01*
X49690000Y-44186250D01*
X49690000Y-43748750D01*
X49691053Y-43727309D01*
X49694203Y-43706074D01*
X49699419Y-43685250D01*
X49706651Y-43665038D01*
X49715830Y-43645632D01*
X49726866Y-43627219D01*
X49739654Y-43609976D01*
X49754070Y-43594070D01*
X49769976Y-43579654D01*
X49787219Y-43566866D01*
X49805632Y-43555830D01*
X49825038Y-43546651D01*
X49845250Y-43539419D01*
X49866074Y-43534203D01*
X49887309Y-43531053D01*
X49908750Y-43530000D01*
X50421250Y-43530000D01*
X50442691Y-43531053D01*
X50442691Y-43531053D01*
G37*
D11*
X50165000Y-43967500D03*
D10*
G36*
X50442691Y-41956053D02*
G01*
X50463926Y-41959203D01*
X50484750Y-41964419D01*
X50504962Y-41971651D01*
X50524368Y-41980830D01*
X50542781Y-41991866D01*
X50560024Y-42004654D01*
X50575930Y-42019070D01*
X50590346Y-42034976D01*
X50603134Y-42052219D01*
X50614170Y-42070632D01*
X50623349Y-42090038D01*
X50630581Y-42110250D01*
X50635797Y-42131074D01*
X50638947Y-42152309D01*
X50640000Y-42173750D01*
X50640000Y-42611250D01*
X50638947Y-42632691D01*
X50635797Y-42653926D01*
X50630581Y-42674750D01*
X50623349Y-42694962D01*
X50614170Y-42714368D01*
X50603134Y-42732781D01*
X50590346Y-42750024D01*
X50575930Y-42765930D01*
X50560024Y-42780346D01*
X50542781Y-42793134D01*
X50524368Y-42804170D01*
X50504962Y-42813349D01*
X50484750Y-42820581D01*
X50463926Y-42825797D01*
X50442691Y-42828947D01*
X50421250Y-42830000D01*
X49908750Y-42830000D01*
X49887309Y-42828947D01*
X49866074Y-42825797D01*
X49845250Y-42820581D01*
X49825038Y-42813349D01*
X49805632Y-42804170D01*
X49787219Y-42793134D01*
X49769976Y-42780346D01*
X49754070Y-42765930D01*
X49739654Y-42750024D01*
X49726866Y-42732781D01*
X49715830Y-42714368D01*
X49706651Y-42694962D01*
X49699419Y-42674750D01*
X49694203Y-42653926D01*
X49691053Y-42632691D01*
X49690000Y-42611250D01*
X49690000Y-42173750D01*
X49691053Y-42152309D01*
X49694203Y-42131074D01*
X49699419Y-42110250D01*
X49706651Y-42090038D01*
X49715830Y-42070632D01*
X49726866Y-42052219D01*
X49739654Y-42034976D01*
X49754070Y-42019070D01*
X49769976Y-42004654D01*
X49787219Y-41991866D01*
X49805632Y-41980830D01*
X49825038Y-41971651D01*
X49845250Y-41964419D01*
X49866074Y-41959203D01*
X49887309Y-41956053D01*
X49908750Y-41955000D01*
X50421250Y-41955000D01*
X50442691Y-41956053D01*
X50442691Y-41956053D01*
G37*
D11*
X50165000Y-42392500D03*
D10*
G36*
X59967691Y-43531053D02*
G01*
X59988926Y-43534203D01*
X60009750Y-43539419D01*
X60029962Y-43546651D01*
X60049368Y-43555830D01*
X60067781Y-43566866D01*
X60085024Y-43579654D01*
X60100930Y-43594070D01*
X60115346Y-43609976D01*
X60128134Y-43627219D01*
X60139170Y-43645632D01*
X60148349Y-43665038D01*
X60155581Y-43685250D01*
X60160797Y-43706074D01*
X60163947Y-43727309D01*
X60165000Y-43748750D01*
X60165000Y-44186250D01*
X60163947Y-44207691D01*
X60160797Y-44228926D01*
X60155581Y-44249750D01*
X60148349Y-44269962D01*
X60139170Y-44289368D01*
X60128134Y-44307781D01*
X60115346Y-44325024D01*
X60100930Y-44340930D01*
X60085024Y-44355346D01*
X60067781Y-44368134D01*
X60049368Y-44379170D01*
X60029962Y-44388349D01*
X60009750Y-44395581D01*
X59988926Y-44400797D01*
X59967691Y-44403947D01*
X59946250Y-44405000D01*
X59433750Y-44405000D01*
X59412309Y-44403947D01*
X59391074Y-44400797D01*
X59370250Y-44395581D01*
X59350038Y-44388349D01*
X59330632Y-44379170D01*
X59312219Y-44368134D01*
X59294976Y-44355346D01*
X59279070Y-44340930D01*
X59264654Y-44325024D01*
X59251866Y-44307781D01*
X59240830Y-44289368D01*
X59231651Y-44269962D01*
X59224419Y-44249750D01*
X59219203Y-44228926D01*
X59216053Y-44207691D01*
X59215000Y-44186250D01*
X59215000Y-43748750D01*
X59216053Y-43727309D01*
X59219203Y-43706074D01*
X59224419Y-43685250D01*
X59231651Y-43665038D01*
X59240830Y-43645632D01*
X59251866Y-43627219D01*
X59264654Y-43609976D01*
X59279070Y-43594070D01*
X59294976Y-43579654D01*
X59312219Y-43566866D01*
X59330632Y-43555830D01*
X59350038Y-43546651D01*
X59370250Y-43539419D01*
X59391074Y-43534203D01*
X59412309Y-43531053D01*
X59433750Y-43530000D01*
X59946250Y-43530000D01*
X59967691Y-43531053D01*
X59967691Y-43531053D01*
G37*
D11*
X59690000Y-43967500D03*
D10*
G36*
X59967691Y-41956053D02*
G01*
X59988926Y-41959203D01*
X60009750Y-41964419D01*
X60029962Y-41971651D01*
X60049368Y-41980830D01*
X60067781Y-41991866D01*
X60085024Y-42004654D01*
X60100930Y-42019070D01*
X60115346Y-42034976D01*
X60128134Y-42052219D01*
X60139170Y-42070632D01*
X60148349Y-42090038D01*
X60155581Y-42110250D01*
X60160797Y-42131074D01*
X60163947Y-42152309D01*
X60165000Y-42173750D01*
X60165000Y-42611250D01*
X60163947Y-42632691D01*
X60160797Y-42653926D01*
X60155581Y-42674750D01*
X60148349Y-42694962D01*
X60139170Y-42714368D01*
X60128134Y-42732781D01*
X60115346Y-42750024D01*
X60100930Y-42765930D01*
X60085024Y-42780346D01*
X60067781Y-42793134D01*
X60049368Y-42804170D01*
X60029962Y-42813349D01*
X60009750Y-42820581D01*
X59988926Y-42825797D01*
X59967691Y-42828947D01*
X59946250Y-42830000D01*
X59433750Y-42830000D01*
X59412309Y-42828947D01*
X59391074Y-42825797D01*
X59370250Y-42820581D01*
X59350038Y-42813349D01*
X59330632Y-42804170D01*
X59312219Y-42793134D01*
X59294976Y-42780346D01*
X59279070Y-42765930D01*
X59264654Y-42750024D01*
X59251866Y-42732781D01*
X59240830Y-42714368D01*
X59231651Y-42694962D01*
X59224419Y-42674750D01*
X59219203Y-42653926D01*
X59216053Y-42632691D01*
X59215000Y-42611250D01*
X59215000Y-42173750D01*
X59216053Y-42152309D01*
X59219203Y-42131074D01*
X59224419Y-42110250D01*
X59231651Y-42090038D01*
X59240830Y-42070632D01*
X59251866Y-42052219D01*
X59264654Y-42034976D01*
X59279070Y-42019070D01*
X59294976Y-42004654D01*
X59312219Y-41991866D01*
X59330632Y-41980830D01*
X59350038Y-41971651D01*
X59370250Y-41964419D01*
X59391074Y-41959203D01*
X59412309Y-41956053D01*
X59433750Y-41955000D01*
X59946250Y-41955000D01*
X59967691Y-41956053D01*
X59967691Y-41956053D01*
G37*
D11*
X59690000Y-42392500D03*
D10*
G36*
X68857691Y-52421053D02*
G01*
X68878926Y-52424203D01*
X68899750Y-52429419D01*
X68919962Y-52436651D01*
X68939368Y-52445830D01*
X68957781Y-52456866D01*
X68975024Y-52469654D01*
X68990930Y-52484070D01*
X69005346Y-52499976D01*
X69018134Y-52517219D01*
X69029170Y-52535632D01*
X69038349Y-52555038D01*
X69045581Y-52575250D01*
X69050797Y-52596074D01*
X69053947Y-52617309D01*
X69055000Y-52638750D01*
X69055000Y-53076250D01*
X69053947Y-53097691D01*
X69050797Y-53118926D01*
X69045581Y-53139750D01*
X69038349Y-53159962D01*
X69029170Y-53179368D01*
X69018134Y-53197781D01*
X69005346Y-53215024D01*
X68990930Y-53230930D01*
X68975024Y-53245346D01*
X68957781Y-53258134D01*
X68939368Y-53269170D01*
X68919962Y-53278349D01*
X68899750Y-53285581D01*
X68878926Y-53290797D01*
X68857691Y-53293947D01*
X68836250Y-53295000D01*
X68323750Y-53295000D01*
X68302309Y-53293947D01*
X68281074Y-53290797D01*
X68260250Y-53285581D01*
X68240038Y-53278349D01*
X68220632Y-53269170D01*
X68202219Y-53258134D01*
X68184976Y-53245346D01*
X68169070Y-53230930D01*
X68154654Y-53215024D01*
X68141866Y-53197781D01*
X68130830Y-53179368D01*
X68121651Y-53159962D01*
X68114419Y-53139750D01*
X68109203Y-53118926D01*
X68106053Y-53097691D01*
X68105000Y-53076250D01*
X68105000Y-52638750D01*
X68106053Y-52617309D01*
X68109203Y-52596074D01*
X68114419Y-52575250D01*
X68121651Y-52555038D01*
X68130830Y-52535632D01*
X68141866Y-52517219D01*
X68154654Y-52499976D01*
X68169070Y-52484070D01*
X68184976Y-52469654D01*
X68202219Y-52456866D01*
X68220632Y-52445830D01*
X68240038Y-52436651D01*
X68260250Y-52429419D01*
X68281074Y-52424203D01*
X68302309Y-52421053D01*
X68323750Y-52420000D01*
X68836250Y-52420000D01*
X68857691Y-52421053D01*
X68857691Y-52421053D01*
G37*
D11*
X68580000Y-52857500D03*
D10*
G36*
X68857691Y-50846053D02*
G01*
X68878926Y-50849203D01*
X68899750Y-50854419D01*
X68919962Y-50861651D01*
X68939368Y-50870830D01*
X68957781Y-50881866D01*
X68975024Y-50894654D01*
X68990930Y-50909070D01*
X69005346Y-50924976D01*
X69018134Y-50942219D01*
X69029170Y-50960632D01*
X69038349Y-50980038D01*
X69045581Y-51000250D01*
X69050797Y-51021074D01*
X69053947Y-51042309D01*
X69055000Y-51063750D01*
X69055000Y-51501250D01*
X69053947Y-51522691D01*
X69050797Y-51543926D01*
X69045581Y-51564750D01*
X69038349Y-51584962D01*
X69029170Y-51604368D01*
X69018134Y-51622781D01*
X69005346Y-51640024D01*
X68990930Y-51655930D01*
X68975024Y-51670346D01*
X68957781Y-51683134D01*
X68939368Y-51694170D01*
X68919962Y-51703349D01*
X68899750Y-51710581D01*
X68878926Y-51715797D01*
X68857691Y-51718947D01*
X68836250Y-51720000D01*
X68323750Y-51720000D01*
X68302309Y-51718947D01*
X68281074Y-51715797D01*
X68260250Y-51710581D01*
X68240038Y-51703349D01*
X68220632Y-51694170D01*
X68202219Y-51683134D01*
X68184976Y-51670346D01*
X68169070Y-51655930D01*
X68154654Y-51640024D01*
X68141866Y-51622781D01*
X68130830Y-51604368D01*
X68121651Y-51584962D01*
X68114419Y-51564750D01*
X68109203Y-51543926D01*
X68106053Y-51522691D01*
X68105000Y-51501250D01*
X68105000Y-51063750D01*
X68106053Y-51042309D01*
X68109203Y-51021074D01*
X68114419Y-51000250D01*
X68121651Y-50980038D01*
X68130830Y-50960632D01*
X68141866Y-50942219D01*
X68154654Y-50924976D01*
X68169070Y-50909070D01*
X68184976Y-50894654D01*
X68202219Y-50881866D01*
X68220632Y-50870830D01*
X68240038Y-50861651D01*
X68260250Y-50854419D01*
X68281074Y-50849203D01*
X68302309Y-50846053D01*
X68323750Y-50845000D01*
X68836250Y-50845000D01*
X68857691Y-50846053D01*
X68857691Y-50846053D01*
G37*
D11*
X68580000Y-51282500D03*
D10*
G36*
X56157691Y-34641053D02*
G01*
X56178926Y-34644203D01*
X56199750Y-34649419D01*
X56219962Y-34656651D01*
X56239368Y-34665830D01*
X56257781Y-34676866D01*
X56275024Y-34689654D01*
X56290930Y-34704070D01*
X56305346Y-34719976D01*
X56318134Y-34737219D01*
X56329170Y-34755632D01*
X56338349Y-34775038D01*
X56345581Y-34795250D01*
X56350797Y-34816074D01*
X56353947Y-34837309D01*
X56355000Y-34858750D01*
X56355000Y-35296250D01*
X56353947Y-35317691D01*
X56350797Y-35338926D01*
X56345581Y-35359750D01*
X56338349Y-35379962D01*
X56329170Y-35399368D01*
X56318134Y-35417781D01*
X56305346Y-35435024D01*
X56290930Y-35450930D01*
X56275024Y-35465346D01*
X56257781Y-35478134D01*
X56239368Y-35489170D01*
X56219962Y-35498349D01*
X56199750Y-35505581D01*
X56178926Y-35510797D01*
X56157691Y-35513947D01*
X56136250Y-35515000D01*
X55623750Y-35515000D01*
X55602309Y-35513947D01*
X55581074Y-35510797D01*
X55560250Y-35505581D01*
X55540038Y-35498349D01*
X55520632Y-35489170D01*
X55502219Y-35478134D01*
X55484976Y-35465346D01*
X55469070Y-35450930D01*
X55454654Y-35435024D01*
X55441866Y-35417781D01*
X55430830Y-35399368D01*
X55421651Y-35379962D01*
X55414419Y-35359750D01*
X55409203Y-35338926D01*
X55406053Y-35317691D01*
X55405000Y-35296250D01*
X55405000Y-34858750D01*
X55406053Y-34837309D01*
X55409203Y-34816074D01*
X55414419Y-34795250D01*
X55421651Y-34775038D01*
X55430830Y-34755632D01*
X55441866Y-34737219D01*
X55454654Y-34719976D01*
X55469070Y-34704070D01*
X55484976Y-34689654D01*
X55502219Y-34676866D01*
X55520632Y-34665830D01*
X55540038Y-34656651D01*
X55560250Y-34649419D01*
X55581074Y-34644203D01*
X55602309Y-34641053D01*
X55623750Y-34640000D01*
X56136250Y-34640000D01*
X56157691Y-34641053D01*
X56157691Y-34641053D01*
G37*
D11*
X55880000Y-35077500D03*
D10*
G36*
X56157691Y-33066053D02*
G01*
X56178926Y-33069203D01*
X56199750Y-33074419D01*
X56219962Y-33081651D01*
X56239368Y-33090830D01*
X56257781Y-33101866D01*
X56275024Y-33114654D01*
X56290930Y-33129070D01*
X56305346Y-33144976D01*
X56318134Y-33162219D01*
X56329170Y-33180632D01*
X56338349Y-33200038D01*
X56345581Y-33220250D01*
X56350797Y-33241074D01*
X56353947Y-33262309D01*
X56355000Y-33283750D01*
X56355000Y-33721250D01*
X56353947Y-33742691D01*
X56350797Y-33763926D01*
X56345581Y-33784750D01*
X56338349Y-33804962D01*
X56329170Y-33824368D01*
X56318134Y-33842781D01*
X56305346Y-33860024D01*
X56290930Y-33875930D01*
X56275024Y-33890346D01*
X56257781Y-33903134D01*
X56239368Y-33914170D01*
X56219962Y-33923349D01*
X56199750Y-33930581D01*
X56178926Y-33935797D01*
X56157691Y-33938947D01*
X56136250Y-33940000D01*
X55623750Y-33940000D01*
X55602309Y-33938947D01*
X55581074Y-33935797D01*
X55560250Y-33930581D01*
X55540038Y-33923349D01*
X55520632Y-33914170D01*
X55502219Y-33903134D01*
X55484976Y-33890346D01*
X55469070Y-33875930D01*
X55454654Y-33860024D01*
X55441866Y-33842781D01*
X55430830Y-33824368D01*
X55421651Y-33804962D01*
X55414419Y-33784750D01*
X55409203Y-33763926D01*
X55406053Y-33742691D01*
X55405000Y-33721250D01*
X55405000Y-33283750D01*
X55406053Y-33262309D01*
X55409203Y-33241074D01*
X55414419Y-33220250D01*
X55421651Y-33200038D01*
X55430830Y-33180632D01*
X55441866Y-33162219D01*
X55454654Y-33144976D01*
X55469070Y-33129070D01*
X55484976Y-33114654D01*
X55502219Y-33101866D01*
X55520632Y-33090830D01*
X55540038Y-33081651D01*
X55560250Y-33074419D01*
X55581074Y-33069203D01*
X55602309Y-33066053D01*
X55623750Y-33065000D01*
X56136250Y-33065000D01*
X56157691Y-33066053D01*
X56157691Y-33066053D01*
G37*
D11*
X55880000Y-33502500D03*
D10*
G36*
X40904504Y-34206204D02*
G01*
X40928773Y-34209804D01*
X40952571Y-34215765D01*
X40975671Y-34224030D01*
X40997849Y-34234520D01*
X41018893Y-34247133D01*
X41038598Y-34261747D01*
X41056777Y-34278223D01*
X41073253Y-34296402D01*
X41087867Y-34316107D01*
X41100480Y-34337151D01*
X41110970Y-34359329D01*
X41119235Y-34382429D01*
X41125196Y-34406227D01*
X41128796Y-34430496D01*
X41130000Y-34455000D01*
X41130000Y-35165000D01*
X41128796Y-35189504D01*
X41125196Y-35213773D01*
X41119235Y-35237571D01*
X41110970Y-35260671D01*
X41100480Y-35282849D01*
X41087867Y-35303893D01*
X41073253Y-35323598D01*
X41056777Y-35341777D01*
X41038598Y-35358253D01*
X41018893Y-35372867D01*
X40997849Y-35385480D01*
X40975671Y-35395970D01*
X40952571Y-35404235D01*
X40928773Y-35410196D01*
X40904504Y-35413796D01*
X40880000Y-35415000D01*
X40170000Y-35415000D01*
X40145496Y-35413796D01*
X40121227Y-35410196D01*
X40097429Y-35404235D01*
X40074329Y-35395970D01*
X40052151Y-35385480D01*
X40031107Y-35372867D01*
X40011402Y-35358253D01*
X39993223Y-35341777D01*
X39976747Y-35323598D01*
X39962133Y-35303893D01*
X39949520Y-35282849D01*
X39939030Y-35260671D01*
X39930765Y-35237571D01*
X39924804Y-35213773D01*
X39921204Y-35189504D01*
X39920000Y-35165000D01*
X39920000Y-34455000D01*
X39921204Y-34430496D01*
X39924804Y-34406227D01*
X39930765Y-34382429D01*
X39939030Y-34359329D01*
X39949520Y-34337151D01*
X39962133Y-34316107D01*
X39976747Y-34296402D01*
X39993223Y-34278223D01*
X40011402Y-34261747D01*
X40031107Y-34247133D01*
X40052151Y-34234520D01*
X40074329Y-34224030D01*
X40097429Y-34215765D01*
X40121227Y-34209804D01*
X40145496Y-34206204D01*
X40170000Y-34205000D01*
X40880000Y-34205000D01*
X40904504Y-34206204D01*
X40904504Y-34206204D01*
G37*
D12*
X40525000Y-34810000D03*
D10*
G36*
X40904504Y-35706204D02*
G01*
X40928773Y-35709804D01*
X40952571Y-35715765D01*
X40975671Y-35724030D01*
X40997849Y-35734520D01*
X41018893Y-35747133D01*
X41038598Y-35761747D01*
X41056777Y-35778223D01*
X41073253Y-35796402D01*
X41087867Y-35816107D01*
X41100480Y-35837151D01*
X41110970Y-35859329D01*
X41119235Y-35882429D01*
X41125196Y-35906227D01*
X41128796Y-35930496D01*
X41130000Y-35955000D01*
X41130000Y-36665000D01*
X41128796Y-36689504D01*
X41125196Y-36713773D01*
X41119235Y-36737571D01*
X41110970Y-36760671D01*
X41100480Y-36782849D01*
X41087867Y-36803893D01*
X41073253Y-36823598D01*
X41056777Y-36841777D01*
X41038598Y-36858253D01*
X41018893Y-36872867D01*
X40997849Y-36885480D01*
X40975671Y-36895970D01*
X40952571Y-36904235D01*
X40928773Y-36910196D01*
X40904504Y-36913796D01*
X40880000Y-36915000D01*
X40170000Y-36915000D01*
X40145496Y-36913796D01*
X40121227Y-36910196D01*
X40097429Y-36904235D01*
X40074329Y-36895970D01*
X40052151Y-36885480D01*
X40031107Y-36872867D01*
X40011402Y-36858253D01*
X39993223Y-36841777D01*
X39976747Y-36823598D01*
X39962133Y-36803893D01*
X39949520Y-36782849D01*
X39939030Y-36760671D01*
X39930765Y-36737571D01*
X39924804Y-36713773D01*
X39921204Y-36689504D01*
X39920000Y-36665000D01*
X39920000Y-35955000D01*
X39921204Y-35930496D01*
X39924804Y-35906227D01*
X39930765Y-35882429D01*
X39939030Y-35859329D01*
X39949520Y-35837151D01*
X39962133Y-35816107D01*
X39976747Y-35796402D01*
X39993223Y-35778223D01*
X40011402Y-35761747D01*
X40031107Y-35747133D01*
X40052151Y-35734520D01*
X40074329Y-35724030D01*
X40097429Y-35715765D01*
X40121227Y-35709804D01*
X40145496Y-35706204D01*
X40170000Y-35705000D01*
X40880000Y-35705000D01*
X40904504Y-35706204D01*
X40904504Y-35706204D01*
G37*
D12*
X40525000Y-36310000D03*
D10*
G36*
X42404504Y-34206204D02*
G01*
X42428773Y-34209804D01*
X42452571Y-34215765D01*
X42475671Y-34224030D01*
X42497849Y-34234520D01*
X42518893Y-34247133D01*
X42538598Y-34261747D01*
X42556777Y-34278223D01*
X42573253Y-34296402D01*
X42587867Y-34316107D01*
X42600480Y-34337151D01*
X42610970Y-34359329D01*
X42619235Y-34382429D01*
X42625196Y-34406227D01*
X42628796Y-34430496D01*
X42630000Y-34455000D01*
X42630000Y-35165000D01*
X42628796Y-35189504D01*
X42625196Y-35213773D01*
X42619235Y-35237571D01*
X42610970Y-35260671D01*
X42600480Y-35282849D01*
X42587867Y-35303893D01*
X42573253Y-35323598D01*
X42556777Y-35341777D01*
X42538598Y-35358253D01*
X42518893Y-35372867D01*
X42497849Y-35385480D01*
X42475671Y-35395970D01*
X42452571Y-35404235D01*
X42428773Y-35410196D01*
X42404504Y-35413796D01*
X42380000Y-35415000D01*
X41670000Y-35415000D01*
X41645496Y-35413796D01*
X41621227Y-35410196D01*
X41597429Y-35404235D01*
X41574329Y-35395970D01*
X41552151Y-35385480D01*
X41531107Y-35372867D01*
X41511402Y-35358253D01*
X41493223Y-35341777D01*
X41476747Y-35323598D01*
X41462133Y-35303893D01*
X41449520Y-35282849D01*
X41439030Y-35260671D01*
X41430765Y-35237571D01*
X41424804Y-35213773D01*
X41421204Y-35189504D01*
X41420000Y-35165000D01*
X41420000Y-34455000D01*
X41421204Y-34430496D01*
X41424804Y-34406227D01*
X41430765Y-34382429D01*
X41439030Y-34359329D01*
X41449520Y-34337151D01*
X41462133Y-34316107D01*
X41476747Y-34296402D01*
X41493223Y-34278223D01*
X41511402Y-34261747D01*
X41531107Y-34247133D01*
X41552151Y-34234520D01*
X41574329Y-34224030D01*
X41597429Y-34215765D01*
X41621227Y-34209804D01*
X41645496Y-34206204D01*
X41670000Y-34205000D01*
X42380000Y-34205000D01*
X42404504Y-34206204D01*
X42404504Y-34206204D01*
G37*
D12*
X42025000Y-34810000D03*
D10*
G36*
X42404504Y-35706204D02*
G01*
X42428773Y-35709804D01*
X42452571Y-35715765D01*
X42475671Y-35724030D01*
X42497849Y-35734520D01*
X42518893Y-35747133D01*
X42538598Y-35761747D01*
X42556777Y-35778223D01*
X42573253Y-35796402D01*
X42587867Y-35816107D01*
X42600480Y-35837151D01*
X42610970Y-35859329D01*
X42619235Y-35882429D01*
X42625196Y-35906227D01*
X42628796Y-35930496D01*
X42630000Y-35955000D01*
X42630000Y-36665000D01*
X42628796Y-36689504D01*
X42625196Y-36713773D01*
X42619235Y-36737571D01*
X42610970Y-36760671D01*
X42600480Y-36782849D01*
X42587867Y-36803893D01*
X42573253Y-36823598D01*
X42556777Y-36841777D01*
X42538598Y-36858253D01*
X42518893Y-36872867D01*
X42497849Y-36885480D01*
X42475671Y-36895970D01*
X42452571Y-36904235D01*
X42428773Y-36910196D01*
X42404504Y-36913796D01*
X42380000Y-36915000D01*
X41670000Y-36915000D01*
X41645496Y-36913796D01*
X41621227Y-36910196D01*
X41597429Y-36904235D01*
X41574329Y-36895970D01*
X41552151Y-36885480D01*
X41531107Y-36872867D01*
X41511402Y-36858253D01*
X41493223Y-36841777D01*
X41476747Y-36823598D01*
X41462133Y-36803893D01*
X41449520Y-36782849D01*
X41439030Y-36760671D01*
X41430765Y-36737571D01*
X41424804Y-36713773D01*
X41421204Y-36689504D01*
X41420000Y-36665000D01*
X41420000Y-35955000D01*
X41421204Y-35930496D01*
X41424804Y-35906227D01*
X41430765Y-35882429D01*
X41439030Y-35859329D01*
X41449520Y-35837151D01*
X41462133Y-35816107D01*
X41476747Y-35796402D01*
X41493223Y-35778223D01*
X41511402Y-35761747D01*
X41531107Y-35747133D01*
X41552151Y-35734520D01*
X41574329Y-35724030D01*
X41597429Y-35715765D01*
X41621227Y-35709804D01*
X41645496Y-35706204D01*
X41670000Y-35705000D01*
X42380000Y-35705000D01*
X42404504Y-35706204D01*
X42404504Y-35706204D01*
G37*
D12*
X42025000Y-36310000D03*
D10*
G36*
X39084802Y-33085482D02*
G01*
X39094509Y-33086921D01*
X39104028Y-33089306D01*
X39113268Y-33092612D01*
X39122140Y-33096808D01*
X39130557Y-33101853D01*
X39138439Y-33107699D01*
X39145711Y-33114289D01*
X39152301Y-33121561D01*
X39158147Y-33129443D01*
X39163192Y-33137860D01*
X39167388Y-33146732D01*
X39170694Y-33155972D01*
X39173079Y-33165491D01*
X39174518Y-33175198D01*
X39175000Y-33185000D01*
X39175000Y-33385000D01*
X39174518Y-33394802D01*
X39173079Y-33404509D01*
X39170694Y-33414028D01*
X39167388Y-33423268D01*
X39163192Y-33432140D01*
X39158147Y-33440557D01*
X39152301Y-33448439D01*
X39145711Y-33455711D01*
X39138439Y-33462301D01*
X39130557Y-33468147D01*
X39122140Y-33473192D01*
X39113268Y-33477388D01*
X39104028Y-33480694D01*
X39094509Y-33483079D01*
X39084802Y-33484518D01*
X39075000Y-33485000D01*
X37725000Y-33485000D01*
X37715198Y-33484518D01*
X37705491Y-33483079D01*
X37695972Y-33480694D01*
X37686732Y-33477388D01*
X37677860Y-33473192D01*
X37669443Y-33468147D01*
X37661561Y-33462301D01*
X37654289Y-33455711D01*
X37647699Y-33448439D01*
X37641853Y-33440557D01*
X37636808Y-33432140D01*
X37632612Y-33423268D01*
X37629306Y-33414028D01*
X37626921Y-33404509D01*
X37625482Y-33394802D01*
X37625000Y-33385000D01*
X37625000Y-33185000D01*
X37625482Y-33175198D01*
X37626921Y-33165491D01*
X37629306Y-33155972D01*
X37632612Y-33146732D01*
X37636808Y-33137860D01*
X37641853Y-33129443D01*
X37647699Y-33121561D01*
X37654289Y-33114289D01*
X37661561Y-33107699D01*
X37669443Y-33101853D01*
X37677860Y-33096808D01*
X37686732Y-33092612D01*
X37695972Y-33089306D01*
X37705491Y-33086921D01*
X37715198Y-33085482D01*
X37725000Y-33085000D01*
X39075000Y-33085000D01*
X39084802Y-33085482D01*
X39084802Y-33085482D01*
G37*
D13*
X38400000Y-33285000D03*
D10*
G36*
X39084802Y-33735482D02*
G01*
X39094509Y-33736921D01*
X39104028Y-33739306D01*
X39113268Y-33742612D01*
X39122140Y-33746808D01*
X39130557Y-33751853D01*
X39138439Y-33757699D01*
X39145711Y-33764289D01*
X39152301Y-33771561D01*
X39158147Y-33779443D01*
X39163192Y-33787860D01*
X39167388Y-33796732D01*
X39170694Y-33805972D01*
X39173079Y-33815491D01*
X39174518Y-33825198D01*
X39175000Y-33835000D01*
X39175000Y-34035000D01*
X39174518Y-34044802D01*
X39173079Y-34054509D01*
X39170694Y-34064028D01*
X39167388Y-34073268D01*
X39163192Y-34082140D01*
X39158147Y-34090557D01*
X39152301Y-34098439D01*
X39145711Y-34105711D01*
X39138439Y-34112301D01*
X39130557Y-34118147D01*
X39122140Y-34123192D01*
X39113268Y-34127388D01*
X39104028Y-34130694D01*
X39094509Y-34133079D01*
X39084802Y-34134518D01*
X39075000Y-34135000D01*
X37725000Y-34135000D01*
X37715198Y-34134518D01*
X37705491Y-34133079D01*
X37695972Y-34130694D01*
X37686732Y-34127388D01*
X37677860Y-34123192D01*
X37669443Y-34118147D01*
X37661561Y-34112301D01*
X37654289Y-34105711D01*
X37647699Y-34098439D01*
X37641853Y-34090557D01*
X37636808Y-34082140D01*
X37632612Y-34073268D01*
X37629306Y-34064028D01*
X37626921Y-34054509D01*
X37625482Y-34044802D01*
X37625000Y-34035000D01*
X37625000Y-33835000D01*
X37625482Y-33825198D01*
X37626921Y-33815491D01*
X37629306Y-33805972D01*
X37632612Y-33796732D01*
X37636808Y-33787860D01*
X37641853Y-33779443D01*
X37647699Y-33771561D01*
X37654289Y-33764289D01*
X37661561Y-33757699D01*
X37669443Y-33751853D01*
X37677860Y-33746808D01*
X37686732Y-33742612D01*
X37695972Y-33739306D01*
X37705491Y-33736921D01*
X37715198Y-33735482D01*
X37725000Y-33735000D01*
X39075000Y-33735000D01*
X39084802Y-33735482D01*
X39084802Y-33735482D01*
G37*
D13*
X38400000Y-33935000D03*
D10*
G36*
X39084802Y-34385482D02*
G01*
X39094509Y-34386921D01*
X39104028Y-34389306D01*
X39113268Y-34392612D01*
X39122140Y-34396808D01*
X39130557Y-34401853D01*
X39138439Y-34407699D01*
X39145711Y-34414289D01*
X39152301Y-34421561D01*
X39158147Y-34429443D01*
X39163192Y-34437860D01*
X39167388Y-34446732D01*
X39170694Y-34455972D01*
X39173079Y-34465491D01*
X39174518Y-34475198D01*
X39175000Y-34485000D01*
X39175000Y-34685000D01*
X39174518Y-34694802D01*
X39173079Y-34704509D01*
X39170694Y-34714028D01*
X39167388Y-34723268D01*
X39163192Y-34732140D01*
X39158147Y-34740557D01*
X39152301Y-34748439D01*
X39145711Y-34755711D01*
X39138439Y-34762301D01*
X39130557Y-34768147D01*
X39122140Y-34773192D01*
X39113268Y-34777388D01*
X39104028Y-34780694D01*
X39094509Y-34783079D01*
X39084802Y-34784518D01*
X39075000Y-34785000D01*
X37725000Y-34785000D01*
X37715198Y-34784518D01*
X37705491Y-34783079D01*
X37695972Y-34780694D01*
X37686732Y-34777388D01*
X37677860Y-34773192D01*
X37669443Y-34768147D01*
X37661561Y-34762301D01*
X37654289Y-34755711D01*
X37647699Y-34748439D01*
X37641853Y-34740557D01*
X37636808Y-34732140D01*
X37632612Y-34723268D01*
X37629306Y-34714028D01*
X37626921Y-34704509D01*
X37625482Y-34694802D01*
X37625000Y-34685000D01*
X37625000Y-34485000D01*
X37625482Y-34475198D01*
X37626921Y-34465491D01*
X37629306Y-34455972D01*
X37632612Y-34446732D01*
X37636808Y-34437860D01*
X37641853Y-34429443D01*
X37647699Y-34421561D01*
X37654289Y-34414289D01*
X37661561Y-34407699D01*
X37669443Y-34401853D01*
X37677860Y-34396808D01*
X37686732Y-34392612D01*
X37695972Y-34389306D01*
X37705491Y-34386921D01*
X37715198Y-34385482D01*
X37725000Y-34385000D01*
X39075000Y-34385000D01*
X39084802Y-34385482D01*
X39084802Y-34385482D01*
G37*
D13*
X38400000Y-34585000D03*
D10*
G36*
X39084802Y-35035482D02*
G01*
X39094509Y-35036921D01*
X39104028Y-35039306D01*
X39113268Y-35042612D01*
X39122140Y-35046808D01*
X39130557Y-35051853D01*
X39138439Y-35057699D01*
X39145711Y-35064289D01*
X39152301Y-35071561D01*
X39158147Y-35079443D01*
X39163192Y-35087860D01*
X39167388Y-35096732D01*
X39170694Y-35105972D01*
X39173079Y-35115491D01*
X39174518Y-35125198D01*
X39175000Y-35135000D01*
X39175000Y-35335000D01*
X39174518Y-35344802D01*
X39173079Y-35354509D01*
X39170694Y-35364028D01*
X39167388Y-35373268D01*
X39163192Y-35382140D01*
X39158147Y-35390557D01*
X39152301Y-35398439D01*
X39145711Y-35405711D01*
X39138439Y-35412301D01*
X39130557Y-35418147D01*
X39122140Y-35423192D01*
X39113268Y-35427388D01*
X39104028Y-35430694D01*
X39094509Y-35433079D01*
X39084802Y-35434518D01*
X39075000Y-35435000D01*
X37725000Y-35435000D01*
X37715198Y-35434518D01*
X37705491Y-35433079D01*
X37695972Y-35430694D01*
X37686732Y-35427388D01*
X37677860Y-35423192D01*
X37669443Y-35418147D01*
X37661561Y-35412301D01*
X37654289Y-35405711D01*
X37647699Y-35398439D01*
X37641853Y-35390557D01*
X37636808Y-35382140D01*
X37632612Y-35373268D01*
X37629306Y-35364028D01*
X37626921Y-35354509D01*
X37625482Y-35344802D01*
X37625000Y-35335000D01*
X37625000Y-35135000D01*
X37625482Y-35125198D01*
X37626921Y-35115491D01*
X37629306Y-35105972D01*
X37632612Y-35096732D01*
X37636808Y-35087860D01*
X37641853Y-35079443D01*
X37647699Y-35071561D01*
X37654289Y-35064289D01*
X37661561Y-35057699D01*
X37669443Y-35051853D01*
X37677860Y-35046808D01*
X37686732Y-35042612D01*
X37695972Y-35039306D01*
X37705491Y-35036921D01*
X37715198Y-35035482D01*
X37725000Y-35035000D01*
X39075000Y-35035000D01*
X39084802Y-35035482D01*
X39084802Y-35035482D01*
G37*
D13*
X38400000Y-35235000D03*
D10*
G36*
X39084802Y-35685482D02*
G01*
X39094509Y-35686921D01*
X39104028Y-35689306D01*
X39113268Y-35692612D01*
X39122140Y-35696808D01*
X39130557Y-35701853D01*
X39138439Y-35707699D01*
X39145711Y-35714289D01*
X39152301Y-35721561D01*
X39158147Y-35729443D01*
X39163192Y-35737860D01*
X39167388Y-35746732D01*
X39170694Y-35755972D01*
X39173079Y-35765491D01*
X39174518Y-35775198D01*
X39175000Y-35785000D01*
X39175000Y-35985000D01*
X39174518Y-35994802D01*
X39173079Y-36004509D01*
X39170694Y-36014028D01*
X39167388Y-36023268D01*
X39163192Y-36032140D01*
X39158147Y-36040557D01*
X39152301Y-36048439D01*
X39145711Y-36055711D01*
X39138439Y-36062301D01*
X39130557Y-36068147D01*
X39122140Y-36073192D01*
X39113268Y-36077388D01*
X39104028Y-36080694D01*
X39094509Y-36083079D01*
X39084802Y-36084518D01*
X39075000Y-36085000D01*
X37725000Y-36085000D01*
X37715198Y-36084518D01*
X37705491Y-36083079D01*
X37695972Y-36080694D01*
X37686732Y-36077388D01*
X37677860Y-36073192D01*
X37669443Y-36068147D01*
X37661561Y-36062301D01*
X37654289Y-36055711D01*
X37647699Y-36048439D01*
X37641853Y-36040557D01*
X37636808Y-36032140D01*
X37632612Y-36023268D01*
X37629306Y-36014028D01*
X37626921Y-36004509D01*
X37625482Y-35994802D01*
X37625000Y-35985000D01*
X37625000Y-35785000D01*
X37625482Y-35775198D01*
X37626921Y-35765491D01*
X37629306Y-35755972D01*
X37632612Y-35746732D01*
X37636808Y-35737860D01*
X37641853Y-35729443D01*
X37647699Y-35721561D01*
X37654289Y-35714289D01*
X37661561Y-35707699D01*
X37669443Y-35701853D01*
X37677860Y-35696808D01*
X37686732Y-35692612D01*
X37695972Y-35689306D01*
X37705491Y-35686921D01*
X37715198Y-35685482D01*
X37725000Y-35685000D01*
X39075000Y-35685000D01*
X39084802Y-35685482D01*
X39084802Y-35685482D01*
G37*
D13*
X38400000Y-35885000D03*
D10*
G36*
X39084802Y-36335482D02*
G01*
X39094509Y-36336921D01*
X39104028Y-36339306D01*
X39113268Y-36342612D01*
X39122140Y-36346808D01*
X39130557Y-36351853D01*
X39138439Y-36357699D01*
X39145711Y-36364289D01*
X39152301Y-36371561D01*
X39158147Y-36379443D01*
X39163192Y-36387860D01*
X39167388Y-36396732D01*
X39170694Y-36405972D01*
X39173079Y-36415491D01*
X39174518Y-36425198D01*
X39175000Y-36435000D01*
X39175000Y-36635000D01*
X39174518Y-36644802D01*
X39173079Y-36654509D01*
X39170694Y-36664028D01*
X39167388Y-36673268D01*
X39163192Y-36682140D01*
X39158147Y-36690557D01*
X39152301Y-36698439D01*
X39145711Y-36705711D01*
X39138439Y-36712301D01*
X39130557Y-36718147D01*
X39122140Y-36723192D01*
X39113268Y-36727388D01*
X39104028Y-36730694D01*
X39094509Y-36733079D01*
X39084802Y-36734518D01*
X39075000Y-36735000D01*
X37725000Y-36735000D01*
X37715198Y-36734518D01*
X37705491Y-36733079D01*
X37695972Y-36730694D01*
X37686732Y-36727388D01*
X37677860Y-36723192D01*
X37669443Y-36718147D01*
X37661561Y-36712301D01*
X37654289Y-36705711D01*
X37647699Y-36698439D01*
X37641853Y-36690557D01*
X37636808Y-36682140D01*
X37632612Y-36673268D01*
X37629306Y-36664028D01*
X37626921Y-36654509D01*
X37625482Y-36644802D01*
X37625000Y-36635000D01*
X37625000Y-36435000D01*
X37625482Y-36425198D01*
X37626921Y-36415491D01*
X37629306Y-36405972D01*
X37632612Y-36396732D01*
X37636808Y-36387860D01*
X37641853Y-36379443D01*
X37647699Y-36371561D01*
X37654289Y-36364289D01*
X37661561Y-36357699D01*
X37669443Y-36351853D01*
X37677860Y-36346808D01*
X37686732Y-36342612D01*
X37695972Y-36339306D01*
X37705491Y-36336921D01*
X37715198Y-36335482D01*
X37725000Y-36335000D01*
X39075000Y-36335000D01*
X39084802Y-36335482D01*
X39084802Y-36335482D01*
G37*
D13*
X38400000Y-36535000D03*
D10*
G36*
X39084802Y-36985482D02*
G01*
X39094509Y-36986921D01*
X39104028Y-36989306D01*
X39113268Y-36992612D01*
X39122140Y-36996808D01*
X39130557Y-37001853D01*
X39138439Y-37007699D01*
X39145711Y-37014289D01*
X39152301Y-37021561D01*
X39158147Y-37029443D01*
X39163192Y-37037860D01*
X39167388Y-37046732D01*
X39170694Y-37055972D01*
X39173079Y-37065491D01*
X39174518Y-37075198D01*
X39175000Y-37085000D01*
X39175000Y-37285000D01*
X39174518Y-37294802D01*
X39173079Y-37304509D01*
X39170694Y-37314028D01*
X39167388Y-37323268D01*
X39163192Y-37332140D01*
X39158147Y-37340557D01*
X39152301Y-37348439D01*
X39145711Y-37355711D01*
X39138439Y-37362301D01*
X39130557Y-37368147D01*
X39122140Y-37373192D01*
X39113268Y-37377388D01*
X39104028Y-37380694D01*
X39094509Y-37383079D01*
X39084802Y-37384518D01*
X39075000Y-37385000D01*
X37725000Y-37385000D01*
X37715198Y-37384518D01*
X37705491Y-37383079D01*
X37695972Y-37380694D01*
X37686732Y-37377388D01*
X37677860Y-37373192D01*
X37669443Y-37368147D01*
X37661561Y-37362301D01*
X37654289Y-37355711D01*
X37647699Y-37348439D01*
X37641853Y-37340557D01*
X37636808Y-37332140D01*
X37632612Y-37323268D01*
X37629306Y-37314028D01*
X37626921Y-37304509D01*
X37625482Y-37294802D01*
X37625000Y-37285000D01*
X37625000Y-37085000D01*
X37625482Y-37075198D01*
X37626921Y-37065491D01*
X37629306Y-37055972D01*
X37632612Y-37046732D01*
X37636808Y-37037860D01*
X37641853Y-37029443D01*
X37647699Y-37021561D01*
X37654289Y-37014289D01*
X37661561Y-37007699D01*
X37669443Y-37001853D01*
X37677860Y-36996808D01*
X37686732Y-36992612D01*
X37695972Y-36989306D01*
X37705491Y-36986921D01*
X37715198Y-36985482D01*
X37725000Y-36985000D01*
X39075000Y-36985000D01*
X39084802Y-36985482D01*
X39084802Y-36985482D01*
G37*
D13*
X38400000Y-37185000D03*
D10*
G36*
X39084802Y-37635482D02*
G01*
X39094509Y-37636921D01*
X39104028Y-37639306D01*
X39113268Y-37642612D01*
X39122140Y-37646808D01*
X39130557Y-37651853D01*
X39138439Y-37657699D01*
X39145711Y-37664289D01*
X39152301Y-37671561D01*
X39158147Y-37679443D01*
X39163192Y-37687860D01*
X39167388Y-37696732D01*
X39170694Y-37705972D01*
X39173079Y-37715491D01*
X39174518Y-37725198D01*
X39175000Y-37735000D01*
X39175000Y-37935000D01*
X39174518Y-37944802D01*
X39173079Y-37954509D01*
X39170694Y-37964028D01*
X39167388Y-37973268D01*
X39163192Y-37982140D01*
X39158147Y-37990557D01*
X39152301Y-37998439D01*
X39145711Y-38005711D01*
X39138439Y-38012301D01*
X39130557Y-38018147D01*
X39122140Y-38023192D01*
X39113268Y-38027388D01*
X39104028Y-38030694D01*
X39094509Y-38033079D01*
X39084802Y-38034518D01*
X39075000Y-38035000D01*
X37725000Y-38035000D01*
X37715198Y-38034518D01*
X37705491Y-38033079D01*
X37695972Y-38030694D01*
X37686732Y-38027388D01*
X37677860Y-38023192D01*
X37669443Y-38018147D01*
X37661561Y-38012301D01*
X37654289Y-38005711D01*
X37647699Y-37998439D01*
X37641853Y-37990557D01*
X37636808Y-37982140D01*
X37632612Y-37973268D01*
X37629306Y-37964028D01*
X37626921Y-37954509D01*
X37625482Y-37944802D01*
X37625000Y-37935000D01*
X37625000Y-37735000D01*
X37625482Y-37725198D01*
X37626921Y-37715491D01*
X37629306Y-37705972D01*
X37632612Y-37696732D01*
X37636808Y-37687860D01*
X37641853Y-37679443D01*
X37647699Y-37671561D01*
X37654289Y-37664289D01*
X37661561Y-37657699D01*
X37669443Y-37651853D01*
X37677860Y-37646808D01*
X37686732Y-37642612D01*
X37695972Y-37639306D01*
X37705491Y-37636921D01*
X37715198Y-37635482D01*
X37725000Y-37635000D01*
X39075000Y-37635000D01*
X39084802Y-37635482D01*
X39084802Y-37635482D01*
G37*
D13*
X38400000Y-37835000D03*
D10*
G36*
X44834802Y-37635482D02*
G01*
X44844509Y-37636921D01*
X44854028Y-37639306D01*
X44863268Y-37642612D01*
X44872140Y-37646808D01*
X44880557Y-37651853D01*
X44888439Y-37657699D01*
X44895711Y-37664289D01*
X44902301Y-37671561D01*
X44908147Y-37679443D01*
X44913192Y-37687860D01*
X44917388Y-37696732D01*
X44920694Y-37705972D01*
X44923079Y-37715491D01*
X44924518Y-37725198D01*
X44925000Y-37735000D01*
X44925000Y-37935000D01*
X44924518Y-37944802D01*
X44923079Y-37954509D01*
X44920694Y-37964028D01*
X44917388Y-37973268D01*
X44913192Y-37982140D01*
X44908147Y-37990557D01*
X44902301Y-37998439D01*
X44895711Y-38005711D01*
X44888439Y-38012301D01*
X44880557Y-38018147D01*
X44872140Y-38023192D01*
X44863268Y-38027388D01*
X44854028Y-38030694D01*
X44844509Y-38033079D01*
X44834802Y-38034518D01*
X44825000Y-38035000D01*
X43475000Y-38035000D01*
X43465198Y-38034518D01*
X43455491Y-38033079D01*
X43445972Y-38030694D01*
X43436732Y-38027388D01*
X43427860Y-38023192D01*
X43419443Y-38018147D01*
X43411561Y-38012301D01*
X43404289Y-38005711D01*
X43397699Y-37998439D01*
X43391853Y-37990557D01*
X43386808Y-37982140D01*
X43382612Y-37973268D01*
X43379306Y-37964028D01*
X43376921Y-37954509D01*
X43375482Y-37944802D01*
X43375000Y-37935000D01*
X43375000Y-37735000D01*
X43375482Y-37725198D01*
X43376921Y-37715491D01*
X43379306Y-37705972D01*
X43382612Y-37696732D01*
X43386808Y-37687860D01*
X43391853Y-37679443D01*
X43397699Y-37671561D01*
X43404289Y-37664289D01*
X43411561Y-37657699D01*
X43419443Y-37651853D01*
X43427860Y-37646808D01*
X43436732Y-37642612D01*
X43445972Y-37639306D01*
X43455491Y-37636921D01*
X43465198Y-37635482D01*
X43475000Y-37635000D01*
X44825000Y-37635000D01*
X44834802Y-37635482D01*
X44834802Y-37635482D01*
G37*
D13*
X44150000Y-37835000D03*
D10*
G36*
X44834802Y-36985482D02*
G01*
X44844509Y-36986921D01*
X44854028Y-36989306D01*
X44863268Y-36992612D01*
X44872140Y-36996808D01*
X44880557Y-37001853D01*
X44888439Y-37007699D01*
X44895711Y-37014289D01*
X44902301Y-37021561D01*
X44908147Y-37029443D01*
X44913192Y-37037860D01*
X44917388Y-37046732D01*
X44920694Y-37055972D01*
X44923079Y-37065491D01*
X44924518Y-37075198D01*
X44925000Y-37085000D01*
X44925000Y-37285000D01*
X44924518Y-37294802D01*
X44923079Y-37304509D01*
X44920694Y-37314028D01*
X44917388Y-37323268D01*
X44913192Y-37332140D01*
X44908147Y-37340557D01*
X44902301Y-37348439D01*
X44895711Y-37355711D01*
X44888439Y-37362301D01*
X44880557Y-37368147D01*
X44872140Y-37373192D01*
X44863268Y-37377388D01*
X44854028Y-37380694D01*
X44844509Y-37383079D01*
X44834802Y-37384518D01*
X44825000Y-37385000D01*
X43475000Y-37385000D01*
X43465198Y-37384518D01*
X43455491Y-37383079D01*
X43445972Y-37380694D01*
X43436732Y-37377388D01*
X43427860Y-37373192D01*
X43419443Y-37368147D01*
X43411561Y-37362301D01*
X43404289Y-37355711D01*
X43397699Y-37348439D01*
X43391853Y-37340557D01*
X43386808Y-37332140D01*
X43382612Y-37323268D01*
X43379306Y-37314028D01*
X43376921Y-37304509D01*
X43375482Y-37294802D01*
X43375000Y-37285000D01*
X43375000Y-37085000D01*
X43375482Y-37075198D01*
X43376921Y-37065491D01*
X43379306Y-37055972D01*
X43382612Y-37046732D01*
X43386808Y-37037860D01*
X43391853Y-37029443D01*
X43397699Y-37021561D01*
X43404289Y-37014289D01*
X43411561Y-37007699D01*
X43419443Y-37001853D01*
X43427860Y-36996808D01*
X43436732Y-36992612D01*
X43445972Y-36989306D01*
X43455491Y-36986921D01*
X43465198Y-36985482D01*
X43475000Y-36985000D01*
X44825000Y-36985000D01*
X44834802Y-36985482D01*
X44834802Y-36985482D01*
G37*
D13*
X44150000Y-37185000D03*
D10*
G36*
X44834802Y-36335482D02*
G01*
X44844509Y-36336921D01*
X44854028Y-36339306D01*
X44863268Y-36342612D01*
X44872140Y-36346808D01*
X44880557Y-36351853D01*
X44888439Y-36357699D01*
X44895711Y-36364289D01*
X44902301Y-36371561D01*
X44908147Y-36379443D01*
X44913192Y-36387860D01*
X44917388Y-36396732D01*
X44920694Y-36405972D01*
X44923079Y-36415491D01*
X44924518Y-36425198D01*
X44925000Y-36435000D01*
X44925000Y-36635000D01*
X44924518Y-36644802D01*
X44923079Y-36654509D01*
X44920694Y-36664028D01*
X44917388Y-36673268D01*
X44913192Y-36682140D01*
X44908147Y-36690557D01*
X44902301Y-36698439D01*
X44895711Y-36705711D01*
X44888439Y-36712301D01*
X44880557Y-36718147D01*
X44872140Y-36723192D01*
X44863268Y-36727388D01*
X44854028Y-36730694D01*
X44844509Y-36733079D01*
X44834802Y-36734518D01*
X44825000Y-36735000D01*
X43475000Y-36735000D01*
X43465198Y-36734518D01*
X43455491Y-36733079D01*
X43445972Y-36730694D01*
X43436732Y-36727388D01*
X43427860Y-36723192D01*
X43419443Y-36718147D01*
X43411561Y-36712301D01*
X43404289Y-36705711D01*
X43397699Y-36698439D01*
X43391853Y-36690557D01*
X43386808Y-36682140D01*
X43382612Y-36673268D01*
X43379306Y-36664028D01*
X43376921Y-36654509D01*
X43375482Y-36644802D01*
X43375000Y-36635000D01*
X43375000Y-36435000D01*
X43375482Y-36425198D01*
X43376921Y-36415491D01*
X43379306Y-36405972D01*
X43382612Y-36396732D01*
X43386808Y-36387860D01*
X43391853Y-36379443D01*
X43397699Y-36371561D01*
X43404289Y-36364289D01*
X43411561Y-36357699D01*
X43419443Y-36351853D01*
X43427860Y-36346808D01*
X43436732Y-36342612D01*
X43445972Y-36339306D01*
X43455491Y-36336921D01*
X43465198Y-36335482D01*
X43475000Y-36335000D01*
X44825000Y-36335000D01*
X44834802Y-36335482D01*
X44834802Y-36335482D01*
G37*
D13*
X44150000Y-36535000D03*
D10*
G36*
X44834802Y-35685482D02*
G01*
X44844509Y-35686921D01*
X44854028Y-35689306D01*
X44863268Y-35692612D01*
X44872140Y-35696808D01*
X44880557Y-35701853D01*
X44888439Y-35707699D01*
X44895711Y-35714289D01*
X44902301Y-35721561D01*
X44908147Y-35729443D01*
X44913192Y-35737860D01*
X44917388Y-35746732D01*
X44920694Y-35755972D01*
X44923079Y-35765491D01*
X44924518Y-35775198D01*
X44925000Y-35785000D01*
X44925000Y-35985000D01*
X44924518Y-35994802D01*
X44923079Y-36004509D01*
X44920694Y-36014028D01*
X44917388Y-36023268D01*
X44913192Y-36032140D01*
X44908147Y-36040557D01*
X44902301Y-36048439D01*
X44895711Y-36055711D01*
X44888439Y-36062301D01*
X44880557Y-36068147D01*
X44872140Y-36073192D01*
X44863268Y-36077388D01*
X44854028Y-36080694D01*
X44844509Y-36083079D01*
X44834802Y-36084518D01*
X44825000Y-36085000D01*
X43475000Y-36085000D01*
X43465198Y-36084518D01*
X43455491Y-36083079D01*
X43445972Y-36080694D01*
X43436732Y-36077388D01*
X43427860Y-36073192D01*
X43419443Y-36068147D01*
X43411561Y-36062301D01*
X43404289Y-36055711D01*
X43397699Y-36048439D01*
X43391853Y-36040557D01*
X43386808Y-36032140D01*
X43382612Y-36023268D01*
X43379306Y-36014028D01*
X43376921Y-36004509D01*
X43375482Y-35994802D01*
X43375000Y-35985000D01*
X43375000Y-35785000D01*
X43375482Y-35775198D01*
X43376921Y-35765491D01*
X43379306Y-35755972D01*
X43382612Y-35746732D01*
X43386808Y-35737860D01*
X43391853Y-35729443D01*
X43397699Y-35721561D01*
X43404289Y-35714289D01*
X43411561Y-35707699D01*
X43419443Y-35701853D01*
X43427860Y-35696808D01*
X43436732Y-35692612D01*
X43445972Y-35689306D01*
X43455491Y-35686921D01*
X43465198Y-35685482D01*
X43475000Y-35685000D01*
X44825000Y-35685000D01*
X44834802Y-35685482D01*
X44834802Y-35685482D01*
G37*
D13*
X44150000Y-35885000D03*
D10*
G36*
X44834802Y-35035482D02*
G01*
X44844509Y-35036921D01*
X44854028Y-35039306D01*
X44863268Y-35042612D01*
X44872140Y-35046808D01*
X44880557Y-35051853D01*
X44888439Y-35057699D01*
X44895711Y-35064289D01*
X44902301Y-35071561D01*
X44908147Y-35079443D01*
X44913192Y-35087860D01*
X44917388Y-35096732D01*
X44920694Y-35105972D01*
X44923079Y-35115491D01*
X44924518Y-35125198D01*
X44925000Y-35135000D01*
X44925000Y-35335000D01*
X44924518Y-35344802D01*
X44923079Y-35354509D01*
X44920694Y-35364028D01*
X44917388Y-35373268D01*
X44913192Y-35382140D01*
X44908147Y-35390557D01*
X44902301Y-35398439D01*
X44895711Y-35405711D01*
X44888439Y-35412301D01*
X44880557Y-35418147D01*
X44872140Y-35423192D01*
X44863268Y-35427388D01*
X44854028Y-35430694D01*
X44844509Y-35433079D01*
X44834802Y-35434518D01*
X44825000Y-35435000D01*
X43475000Y-35435000D01*
X43465198Y-35434518D01*
X43455491Y-35433079D01*
X43445972Y-35430694D01*
X43436732Y-35427388D01*
X43427860Y-35423192D01*
X43419443Y-35418147D01*
X43411561Y-35412301D01*
X43404289Y-35405711D01*
X43397699Y-35398439D01*
X43391853Y-35390557D01*
X43386808Y-35382140D01*
X43382612Y-35373268D01*
X43379306Y-35364028D01*
X43376921Y-35354509D01*
X43375482Y-35344802D01*
X43375000Y-35335000D01*
X43375000Y-35135000D01*
X43375482Y-35125198D01*
X43376921Y-35115491D01*
X43379306Y-35105972D01*
X43382612Y-35096732D01*
X43386808Y-35087860D01*
X43391853Y-35079443D01*
X43397699Y-35071561D01*
X43404289Y-35064289D01*
X43411561Y-35057699D01*
X43419443Y-35051853D01*
X43427860Y-35046808D01*
X43436732Y-35042612D01*
X43445972Y-35039306D01*
X43455491Y-35036921D01*
X43465198Y-35035482D01*
X43475000Y-35035000D01*
X44825000Y-35035000D01*
X44834802Y-35035482D01*
X44834802Y-35035482D01*
G37*
D13*
X44150000Y-35235000D03*
D10*
G36*
X44834802Y-34385482D02*
G01*
X44844509Y-34386921D01*
X44854028Y-34389306D01*
X44863268Y-34392612D01*
X44872140Y-34396808D01*
X44880557Y-34401853D01*
X44888439Y-34407699D01*
X44895711Y-34414289D01*
X44902301Y-34421561D01*
X44908147Y-34429443D01*
X44913192Y-34437860D01*
X44917388Y-34446732D01*
X44920694Y-34455972D01*
X44923079Y-34465491D01*
X44924518Y-34475198D01*
X44925000Y-34485000D01*
X44925000Y-34685000D01*
X44924518Y-34694802D01*
X44923079Y-34704509D01*
X44920694Y-34714028D01*
X44917388Y-34723268D01*
X44913192Y-34732140D01*
X44908147Y-34740557D01*
X44902301Y-34748439D01*
X44895711Y-34755711D01*
X44888439Y-34762301D01*
X44880557Y-34768147D01*
X44872140Y-34773192D01*
X44863268Y-34777388D01*
X44854028Y-34780694D01*
X44844509Y-34783079D01*
X44834802Y-34784518D01*
X44825000Y-34785000D01*
X43475000Y-34785000D01*
X43465198Y-34784518D01*
X43455491Y-34783079D01*
X43445972Y-34780694D01*
X43436732Y-34777388D01*
X43427860Y-34773192D01*
X43419443Y-34768147D01*
X43411561Y-34762301D01*
X43404289Y-34755711D01*
X43397699Y-34748439D01*
X43391853Y-34740557D01*
X43386808Y-34732140D01*
X43382612Y-34723268D01*
X43379306Y-34714028D01*
X43376921Y-34704509D01*
X43375482Y-34694802D01*
X43375000Y-34685000D01*
X43375000Y-34485000D01*
X43375482Y-34475198D01*
X43376921Y-34465491D01*
X43379306Y-34455972D01*
X43382612Y-34446732D01*
X43386808Y-34437860D01*
X43391853Y-34429443D01*
X43397699Y-34421561D01*
X43404289Y-34414289D01*
X43411561Y-34407699D01*
X43419443Y-34401853D01*
X43427860Y-34396808D01*
X43436732Y-34392612D01*
X43445972Y-34389306D01*
X43455491Y-34386921D01*
X43465198Y-34385482D01*
X43475000Y-34385000D01*
X44825000Y-34385000D01*
X44834802Y-34385482D01*
X44834802Y-34385482D01*
G37*
D13*
X44150000Y-34585000D03*
D10*
G36*
X44834802Y-33735482D02*
G01*
X44844509Y-33736921D01*
X44854028Y-33739306D01*
X44863268Y-33742612D01*
X44872140Y-33746808D01*
X44880557Y-33751853D01*
X44888439Y-33757699D01*
X44895711Y-33764289D01*
X44902301Y-33771561D01*
X44908147Y-33779443D01*
X44913192Y-33787860D01*
X44917388Y-33796732D01*
X44920694Y-33805972D01*
X44923079Y-33815491D01*
X44924518Y-33825198D01*
X44925000Y-33835000D01*
X44925000Y-34035000D01*
X44924518Y-34044802D01*
X44923079Y-34054509D01*
X44920694Y-34064028D01*
X44917388Y-34073268D01*
X44913192Y-34082140D01*
X44908147Y-34090557D01*
X44902301Y-34098439D01*
X44895711Y-34105711D01*
X44888439Y-34112301D01*
X44880557Y-34118147D01*
X44872140Y-34123192D01*
X44863268Y-34127388D01*
X44854028Y-34130694D01*
X44844509Y-34133079D01*
X44834802Y-34134518D01*
X44825000Y-34135000D01*
X43475000Y-34135000D01*
X43465198Y-34134518D01*
X43455491Y-34133079D01*
X43445972Y-34130694D01*
X43436732Y-34127388D01*
X43427860Y-34123192D01*
X43419443Y-34118147D01*
X43411561Y-34112301D01*
X43404289Y-34105711D01*
X43397699Y-34098439D01*
X43391853Y-34090557D01*
X43386808Y-34082140D01*
X43382612Y-34073268D01*
X43379306Y-34064028D01*
X43376921Y-34054509D01*
X43375482Y-34044802D01*
X43375000Y-34035000D01*
X43375000Y-33835000D01*
X43375482Y-33825198D01*
X43376921Y-33815491D01*
X43379306Y-33805972D01*
X43382612Y-33796732D01*
X43386808Y-33787860D01*
X43391853Y-33779443D01*
X43397699Y-33771561D01*
X43404289Y-33764289D01*
X43411561Y-33757699D01*
X43419443Y-33751853D01*
X43427860Y-33746808D01*
X43436732Y-33742612D01*
X43445972Y-33739306D01*
X43455491Y-33736921D01*
X43465198Y-33735482D01*
X43475000Y-33735000D01*
X44825000Y-33735000D01*
X44834802Y-33735482D01*
X44834802Y-33735482D01*
G37*
D13*
X44150000Y-33935000D03*
D10*
G36*
X44834802Y-33085482D02*
G01*
X44844509Y-33086921D01*
X44854028Y-33089306D01*
X44863268Y-33092612D01*
X44872140Y-33096808D01*
X44880557Y-33101853D01*
X44888439Y-33107699D01*
X44895711Y-33114289D01*
X44902301Y-33121561D01*
X44908147Y-33129443D01*
X44913192Y-33137860D01*
X44917388Y-33146732D01*
X44920694Y-33155972D01*
X44923079Y-33165491D01*
X44924518Y-33175198D01*
X44925000Y-33185000D01*
X44925000Y-33385000D01*
X44924518Y-33394802D01*
X44923079Y-33404509D01*
X44920694Y-33414028D01*
X44917388Y-33423268D01*
X44913192Y-33432140D01*
X44908147Y-33440557D01*
X44902301Y-33448439D01*
X44895711Y-33455711D01*
X44888439Y-33462301D01*
X44880557Y-33468147D01*
X44872140Y-33473192D01*
X44863268Y-33477388D01*
X44854028Y-33480694D01*
X44844509Y-33483079D01*
X44834802Y-33484518D01*
X44825000Y-33485000D01*
X43475000Y-33485000D01*
X43465198Y-33484518D01*
X43455491Y-33483079D01*
X43445972Y-33480694D01*
X43436732Y-33477388D01*
X43427860Y-33473192D01*
X43419443Y-33468147D01*
X43411561Y-33462301D01*
X43404289Y-33455711D01*
X43397699Y-33448439D01*
X43391853Y-33440557D01*
X43386808Y-33432140D01*
X43382612Y-33423268D01*
X43379306Y-33414028D01*
X43376921Y-33404509D01*
X43375482Y-33394802D01*
X43375000Y-33385000D01*
X43375000Y-33185000D01*
X43375482Y-33175198D01*
X43376921Y-33165491D01*
X43379306Y-33155972D01*
X43382612Y-33146732D01*
X43386808Y-33137860D01*
X43391853Y-33129443D01*
X43397699Y-33121561D01*
X43404289Y-33114289D01*
X43411561Y-33107699D01*
X43419443Y-33101853D01*
X43427860Y-33096808D01*
X43436732Y-33092612D01*
X43445972Y-33089306D01*
X43455491Y-33086921D01*
X43465198Y-33085482D01*
X43475000Y-33085000D01*
X44825000Y-33085000D01*
X44834802Y-33085482D01*
X44834802Y-33085482D01*
G37*
D13*
X44150000Y-33285000D03*
M02*
